<?xml version="1.0" encoding="utf-8"?>
<!-- Generator: Adobe Illustrator 19.2.1, SVG Export Plug-In . SVG Version: 6.00 Build 0)  -->
<svg version="1.1" id="Layer_1" xmlns="http://www.w3.org/2000/svg" xmlns:xlink="http://www.w3.org/1999/xlink" x="0px" y="0px"
	 viewBox="0 0 1002.6 267.7" enable-background="new 0 0 1002.6 267.7" xml:space="preserve">
<g>
	<path fill="#474A58" d="M256,75.8c2.5,1.7,4.7,4.7,5.5,7.9c-7.6,9.6-20.4,17.2-38.8,17.2c-28.7,0-45.6-19.6-45.6-47.4
		c0-28.4,19.1-44.8,48.1-44.8c23.6,0,35.3,10.4,35.4,21.1c0,11.5-13.8,20.5-27.8,16.8c2.8-17.2-2.9-26.6-9.2-26.6
		c-5.5,0-10.7,6.6-10.7,24.1c0,27.7,7.9,39.5,23,39.5C243,83.6,250.4,80.5,256,75.8z"/>
	<path fill="#474A58" d="M333.6,98.5h-66.5c-1.8-1.9-3.4-5.3-4-7.7c10-19.8,20.8-39.1,31.8-58.2l-27.7,11.6
		c-2.3-4.4-3.6-12.7-2.8-17.8c22.1-0.7,43.9-0.6,65.6,0c2,2,3.5,4.7,4,7.7c-9.5,19-19.7,37.4-30.4,55.7l30.8-8.6
		C336.4,85.8,335.6,94.1,333.6,98.5z"/>
	<path fill="#474A58" d="M410.4,36.5c-0.4,10.7-8.5,39.5-16.7,57.4c-8.6,18.1-19.7,29.8-33.6,29.9c-15.2,0.1-24.4-14.3-19.2-30.1
		c16.6,5.3,35.5,4.6,42.1,0.7c-8.6-0.4-16.4-1.2-24-2.6l-20.6-62.3c10.9-2.3,23.2-3.2,36.2-2.9l13.8,61c6.6-23.4,5.5-49.9,1.3-59.4
		c3.4-1.8,6.7-2.5,9.7-2.5C408.2,25.6,410.6,30.1,410.4,36.5z"/>
	<path fill="#474A58" d="M475.6,87.5c-4.7,7.3-13.7,13.6-27.4,13.6c-18.5,0-27.8-11.5-27.8-31.4V41.9c-2.3,0.2-4.6,0.4-6.7,0.6
		c-1.2-3-1.4-6.2-1-9.7l9.7-0.7c2-8,4.7-15.8,7.1-21c7.8-2.5,18.2-2.5,26.2-1c-0.2,6.8-0.4,14-0.5,21.1c5.9-0.1,11.9-0.2,18.1-0.5
		c0.8,3.1,1,6.4,0,9.8c-6.2-0.2-12.4-0.4-18.1-0.2c-0.1,12-0.1,23.8,0,33.8c0.1,8.2,2.8,11.6,7.7,11.6c2.8,0,5.4-1.1,7.9-3.5
		C472.8,83.2,475.1,85.3,475.6,87.5z"/>
	<path fill="#474A58" d="M553.7,85.6c-6.2,8.2-17.6,15.4-34.1,15.4c-25.2,0-40.1-16-40.1-38.8c0-21.5,13.1-38,40.3-38
		c23.8,0,36.1,12.4,32.8,36.4h-38.3c1.1,16.4,7.1,25,17.8,25c5.8,0,12-2.4,17.2-6.1C551.3,80.6,553.1,83,553.7,85.6z M514.1,52.3
		h9.7c1.7-16.9-1.8-19.1-4.6-19.1C515.9,33.2,514.2,37,514.1,52.3z"/>
	<path fill="#474A58" d="M595.2,97.2c-10.6,2.9-23.2,3.7-34.8,1.3c-0.7-15.6-0.8-54.2-0.1-87.5c6.2-1.4,12.6-2,19.2-2
		c5.2,0,10.4,0.4,15.7,1.1C594.4,43.1,594.5,82.2,595.2,97.2z"/>
	<path fill="#474A58" d="M688.6,97.2c-10.9,2.9-24.6,3.5-36.2,1.3c-0.5-13.2-0.5-34.4-0.5-44.8c0-6.5-2.4-9.1-5.9-9.1
		c-2.3,0-4.7,1.4-6.1,3.7c-0.1,19.8,0.1,40.1,0.6,48.8c-10.6,2.9-23.2,3.7-34.8,1.3c-0.6-12.5-1.1-43.3-0.4-69.8
		c11.2-2.5,22.8-2.4,34.9-1c-0.1,4.4-0.2,9.1-0.2,14c4.3-10.4,15.5-17.6,27-17.6c12.7,0,19.7,8.5,19.7,27.2
		C686.6,63.1,686.6,87,688.6,97.2z"/>
	<path fill="#474A58" d="M715.1,0c13.3,0,20,7.4,20,18.5c0,11.6-7.4,18.8-20.4,18.8c-13.3,0-20-7.4-20-18.5
		C694.7,7.3,702.1,0,715.1,0z M732.2,97.2c-10.6,2.9-23.2,3.7-34.8,1.3c-0.5-10.4-1-33.7-0.6-56.5c11.2-2.5,22.8-2.4,34.9-1
		C731.5,62.9,731.6,87.2,732.2,97.2z"/>
	<path fill="#474A58" d="M802.9,100.8c-16.3-0.1-23.8-18-24.6-34.3c-0.6,0-1.1,0.1-1.7,0.1c0.1,13.1,0.2,24.1,0.6,30.6
		c-10.6,2.9-23.2,3.7-34.8,1.3c-0.7-15.6-0.8-54.2-0.1-87.5c6.2-1.4,12.6-2,19.2-2c5.2,0,10.4,0.4,15.7,1.1
		c-0.5,16.8-0.6,35.3-0.6,51.2c12.6-1.1,16.9-15.4,13.3-31c6.8-4.3,21.5-6.6,29.2-3.8c5,21.7-9.7,35.5-32.4,39.1
		c6.4,4.2,21.7,4.2,33-2.4C828.6,76.8,822,100.9,802.9,100.8z"/>
	<path fill="#474A58" d="M91.7,182c0,23.3-22,38.6-53.8,33.4c0.1,10.9,0.4,20.2,0.6,25.8c-10.9,2.9-24,3.7-36,1.3
		c-0.4-7.9-0.6-22.2-0.6-38.6c0-31.1-0.7-39.7-1.9-43.2c15.7-4.9,31.4-7.7,47-7.7C76.1,153,91.7,162.4,91.7,182z M55.6,184.6
		c0-12.7-5.2-19.1-12.6-19.1c-1.6,0-3.4,0.2-4.7,0.6c-0.2,13.2-0.4,27.1-0.4,39.5C49.1,205.3,55.6,199,55.6,184.6z"/>
	<path fill="#474A58" d="M116.4,144c13.3,0,20,7.4,20,18.5c0,11.6-7.4,18.8-20.4,18.8c-13.3,0-20-7.4-20-18.5
		C96,151.3,103.4,144,116.4,144z M133.6,241.2c-10.6,2.9-23.2,3.7-34.8,1.3c-0.5-10.4-1-33.7-0.6-56.5c11.2-2.5,22.8-2.4,34.9-1
		C132.8,206.9,133,231.2,133.6,241.2z"/>
	<path fill="#474A58" d="M178.2,231.6c0,24.6-10.8,36.1-26.9,36.1c-3.5,0-7.3-0.6-11.3-1.7c2.4-6.1,3.2-12.1,3.2-28.3
		c0-16.9,0-34.4,0.1-51.7c11.2-2.5,22.8-2.4,34.9-1C178.3,200.2,178.2,215.9,178.2,231.6z M161.6,144c13.3,0,20,7.4,20,18.5
		c0,11.6-7.4,18.8-20.4,18.8c-13.3,0-20-7.4-20-18.5C141.2,151.3,148.7,144,161.6,144z"/>
	<path fill="#474A58" d="M266.6,241c-10.2,3.7-24.6,4.1-36,1.6c-0.4-3.6-0.6-7.2-0.7-13.7c-3.7,10.7-14.6,16.1-23.8,16.1
		c-11.8,0-20.9-8.2-20.9-20.6c0-13.3,11.4-22,28-22c6.5,0,12.1,1.1,16.6,2.9V203c0-20.4-3.4-25-7-25c-4.6,0-9.2,7-9.4,19
		c-16.8-0.1-24.1-7.1-24.1-13c0-7.6,12.1-16,39.1-16c23.8,0,36.1,11,36.1,35.5C264.6,224,265.1,235.4,266.6,241z M229.8,219v-6.5
		c-1.4-0.5-3-0.8-4.4-0.8c-4.8,0-7.8,3.1-7.8,7.6c0,3.7,1.9,6.5,5.3,6.5C225.8,225.7,229.1,223.7,229.8,219z"/>
	<path fill="#474A58" d="M335.6,244.8c-16.3-0.1-23.8-18-24.6-34.3c-0.6,0-1.1,0.1-1.7,0.1c0.1,13.1,0.2,24.1,0.6,30.6
		c-10.6,2.9-23.2,3.7-34.8,1.3c-0.7-15.6-0.8-54.2-0.1-87.5c6.2-1.4,12.6-2,19.2-2c5.2,0,10.4,0.4,15.7,1.1
		c-0.5,16.8-0.6,35.3-0.6,51.2c12.6-1.1,16.9-15.4,13.3-31c6.8-4.3,21.5-6.6,29.2-3.8c5,21.7-9.7,35.5-32.4,39.1
		c6.4,4.2,21.7,4.2,33-2.4C361.3,220.8,354.7,244.9,335.6,244.8z"/>
	<path fill="#474A58" d="M405.2,144c13.3,0,20,7.4,20,18.5c0,11.6-7.4,18.8-20.4,18.8c-13.3,0-20-7.4-20-18.5
		C384.8,151.3,392.3,144,405.2,144z M422.4,241.2c-10.6,2.9-23.2,3.7-34.8,1.3c-0.5-10.4-1-33.7-0.6-56.5c11.2-2.5,22.8-2.4,34.9-1
		C421.7,206.9,421.8,231.2,422.4,241.2z"/>
	<path fill="#474A58" d="M531,242.5h-73.8c-2-2.4-3.7-6.5-4.4-9.5c12.2-23.6,24.8-46.7,38-69.7l-32.3,10.1c-2.5-4.8-4.1-14-3.1-19.6
		c24.6-0.8,48.8-0.7,73,0c2.3,2.4,3.8,5.6,4.4,9.2c-12,23-24.2,45.7-37.1,68.3l36.4-7.8C534.1,228.6,533.3,237.6,531,242.5z"/>
	<path fill="#474A58" d="M578.5,241.2c-10.6,2.9-23.2,3.7-34.8,1.3c-0.2-5.6-0.5-14.2-0.5-24.4l-4.6,3.5c-2.6-1.8-4.4-4.4-6-7.7
		c3.2-2.6,6.7-5.2,10.4-7.8c0-16,0.1-34.2,0.5-51.1c6.2-1.4,12.6-2,19.2-2c5.2,0,10.4,0.4,15.7,1.1c-0.2,8.5-0.4,17.4-0.5,26.3
		l5-3.5c2.3,2.2,4.3,4.8,5.3,8.3c-3.7,2-7.2,4.2-10.4,6.2C577.8,212.5,578,231.7,578.5,241.2z"/>
	<path fill="#474A58" d="M630,168.1c26.3,0,40.7,14.2,40.7,38.2c0,21-12.7,38.6-41.9,38.6c-26.3,0-40.7-14.2-40.7-38.2
		C588.1,185.8,600.7,168.1,630,168.1z M636.2,217.8c0-26.5-3.8-39.5-8.9-39.5c-3.2,0-4.8,5.4-4.8,16.4c0,15.1,2.3,39.8,8.9,39.8
		C634.8,234.6,636.2,229.1,636.2,217.8z"/>
	<path fill="#474A58" d="M758.9,241c-10.6,3.7-24.2,4.1-36,1.6l-0.4-13.8c-3,9-11.4,16.2-21.8,16.2c-15.1,0-26.4-15-26.4-37.4
		c0-24.7,13.7-39.4,30.7-39.4c6.8,0,12.2,2.4,17.4,7.4c0-8,0.1-15.2,0.4-20.5c11.5-2.5,22.4-2.5,34.9-1c-0.4,15.4-0.6,32-0.6,47.2
		C757.1,211.6,757.2,232,758.9,241z M722.4,223.1c-0.1-11.8-0.1-26.4-0.1-39.6c-0.8-0.4-1.7-0.5-2.6-0.5c-6.1,0-10.8,6.5-10.8,21.5
		c0,14.5,4.4,20.9,8.6,20.9C719.1,225.4,721.1,224.4,722.4,223.1z"/>
	<path fill="#474A58" d="M833.3,242.5h-66.5c-1.8-1.9-3.4-5.3-4-7.7c10-19.8,20.8-39.1,31.8-58.2l-27.7,11.6
		c-2.3-4.4-3.6-12.7-2.8-17.8c22.1-0.7,43.9-0.6,65.6,0c2,2,3.5,4.7,4,7.7c-9.5,19-19.7,37.4-30.4,55.7l30.8-8.6
		C836,229.8,835.3,238.1,833.3,242.5z"/>
	<path fill="#474A58" d="M860.1,144c13.3,0,20,7.4,20,18.5c0,11.6-7.4,18.8-20.4,18.8c-13.3,0-20-7.4-20-18.5
		C839.8,151.3,847.2,144,860.1,144z M877.3,241.2c-10.6,2.9-23.2,3.7-34.8,1.3c-0.5-10.4-1-33.7-0.6-56.5c11.2-2.5,22.8-2.4,34.9-1
		C876.6,206.9,876.7,231.2,877.3,241.2z"/>
	<path fill="#474A58" d="M957.9,229.6c-6.2,8.2-17.6,15.4-34.1,15.4c-25.2,0-40.1-16-40.1-38.8c0-21.5,13.1-38,40.3-38
		c23.8,0,36.1,12.4,32.8,36.4h-38.3c1.1,16.4,7.1,25,17.8,25c5.8,0,12-2.4,17.2-6.1C955.5,224.6,957.3,227,957.9,229.6z
		 M918.3,196.3h9.7c1.7-16.9-1.8-19.1-4.6-19.1C920.1,177.2,918.5,181,918.3,196.3z"/>
	<path fill="#474A58" d="M999.1,231.6c0,24.6-10.8,36.1-26.9,36.1c-3.5,0-7.3-0.6-11.3-1.7c2.4-6.1,3.2-12.1,3.2-28.3
		c0-16.9,0-34.4,0.1-51.7c11.2-2.5,22.8-2.4,34.9-1C999.2,200.2,999.1,215.9,999.1,231.6z M982.5,144c13.3,0,20,7.4,20,18.5
		c0,11.6-7.4,18.8-20.4,18.8c-13.3,0-20-7.4-20-18.5C962.1,151.3,969.6,144,982.5,144z"/>
</g>
</svg>
