<?xml version="1.0" encoding="utf-8"?>
<!-- Generator: Adobe Illustrator 19.2.1, SVG Export Plug-In . SVG Version: 6.00 Build 0)  -->
<svg version="1.1" id="Layer_1" xmlns="http://www.w3.org/2000/svg" xmlns:xlink="http://www.w3.org/1999/xlink" x="0px" y="0px"
	 viewBox="0 0 784.8 376.6" enable-background="new 0 0 784.8 376.6" xml:space="preserve">
<g>
	<g>
		<path fill="#474A58" d="M213.6,0l1.2,1.2v19l-18.7,31.4h17.5l1.2,1.2v19.3l-1.2,1.2h-54l-1.2-1.2v-19l18.7-31.4h-17.5l-1.2-1.2
			V1.2l1.2-1.2H213.6z"/>
		<path fill="#474A58" d="M284.4,0L303,37.4v34.7l-1.2,1.2h-35.4l-1.2-1.2V57.5h-7.8v14.6l-1.2,1.2h-35.4l-1.2-1.2V37.4L238.2,0
			H284.4z M257.4,39.4h7.8V15h-7.8V39.4z"/>
		<path fill="#474A58" d="M388.8,0l1.2,1.2v21.4l-11.2,12.4L390,47.4v39.8l-1.2,1.2h-30.6l-1.2-1.2l-5-43h-6.4v27.8l-1.2,1.2h-34.2
			l-1.2-1.2V1.2l1.2-1.2h34.2l1.2,1.3v24.8h7.8v-25l1.2-1.2H388.8z"/>
		<path fill="#474A58" d="M438.6,0l1.2,1.3v17.3l12.6-3.4l1.2,1.2v20.4l-1.2,1.2l-12.6,3.4v13.8h12.6l1.2,1.2v15.7l-1.2,1.2h-49.2
			l-1.2-1.2V51.5l-8.4,2.2l-1.2-1.2V32l1.2-1.2l8.4-2.2V1.2l1.2-1.2H438.6z"/>
		<path fill="#474A58" d="M521.4,0L540,37.4v34.7l-1.2,1.2h-35.4l-1.2-1.2V57.5h-7.8v14.6l-1.2,1.2h-35.4l-1.2-1.2V37.4L475.2,0
			H521.4z M494.4,39.4h7.8V15h-7.8V39.4z"/>
		<path fill="#474A58" d="M609.6,0l18.6,18v37.3l-18.6,18h-62.4l-1.2-1.2V1.2l1.2-1.2H609.6z M582.6,11.4v50.5h7.8V11.4H582.6z"/>
		<path fill="#474A58" d="M64.2,144l1.2,1.2v16.9l-1.2,1.2H51.6v52.8l-1.2,1.2H15l-1.2-1.2v-52.8H1.2L0,162.1v-16.9l1.2-1.2H64.2z"
			/>
		<path fill="#474A58" d="M104.4,144l1.2,1.3v60.6h7.8v-60.7l1.2-1.2h34.2l1.2,1.3v54l-18.6,18H87.6l-18.6-18v-54.1l1.2-1.2H104.4z"
			/>
		<path fill="#474A58" d="M259.2,144l4.8,4.8v19.8l-1.2,1.2h-34.2l-1.2-1.2v-13.2h-7.8v19.2h34.2l11.4,10.8v21.1l-11.4,10.8H183
			l-1.2-1.2v-16.9l1.2-1.2h44.4v-5.4h-34.1l-11.5-10.8v-27.1l11.4-10.7H259.2z"/>
		<path fill="#474A58" d="M307.8,144l1.2,1.3v70.8l-1.2,1.2h-35.4l-1.2-1.2v-70.9l1.2-1.2H307.8z"/>
		<path fill="#474A58" d="M365.4,144l1.2,1.2v15.7l-1.2,1.2h-12.6v8.6h11.4l1.2,1.2v15.7l-1.2,1.2h-11.4v10.3h12.6l1.2,1.2v15.7
			l-16.4,16.4H325V229l15.2-11.6h-22.8l-1.2-1.2v-70.9l1.2-1.2H365.4z"/>
		<path fill="#474A58" d="M447,144l1.2,1.2v14.5l-1.2,1.2h-9v39.5h9l1.2,1.2v14.5l-1.2,1.2h-30.6l-18.6-18V162l18.6-18H447z"/>
		<path fill="#474A58" d="M489.6,144l1.2,1.3v70.8l-1.2,1.2h-35.4l-1.2-1.2v-70.9l1.2-1.2H489.6z"/>
		<path fill="#474A58" d="M547.2,144l1.2,1.2v15.7l-1.2,1.2h-12.6v8.6H546l1.2,1.2v15.7l-1.2,1.2h-11.4v10.3h12.6l1.2,1.2v15.7
			l-16.4,16.4h-25.2V229l15.2-11.6h-22.8l-1.2-1.2v-70.9l1.2-1.2H547.2z"/>
		<path fill="#474A58" d="M608.4,144l1.2,1.2v19l-18.7,31.4h17.5l1.2,1.2v19.3l-1.2,1.2h-54l-1.2-1.2v-19l18.7-31.4h-17.5l-1.2-1.2
			v-19.3l1.2-1.2H608.4z M590.3,116.4l6.2,6.1v11.8l-6.2,6.1h-17.9l-6.4-6.1v-11.8l6.4-6.1H590.3z"/>
		<path fill="#474A58" d="M695.4,144l1.2,1.2v21.4l-11.2,12.4l11.2,12.5v39.8l-1.2,1.2h-30.6l-1.2-1.2l-5-43h-6.4v27.8l-1.2,1.2
			h-34.2l-1.2-1.2v-70.9l1.2-1.2H651l1.2,1.3v24.8h7.8v-25l1.2-1.2H695.4z"/>
		<path fill="#474A58" d="M766.2,144l18.6,18v37.3l-18.6,18H720l-18.6-18V162l18.6-18H766.2z M739.2,155.4v50.5h7.8v-50.5H739.2z"/>
		<path fill="#474A58" d="M211.2,288l15,14.4v25.7L210,343.7h-29.4v16.4l-1.2,1.2h-34.2l-1.2-1.2v-70.9l1.2-1.2H211.2z M180.6,331.1
			h7.8v-31.7h-7.8V331.1z"/>
		<path fill="#474A58" d="M267.6,343.7v16.4l-1.2,1.2h-34.2l-1.2-1.2v-70.9l1.2-1.2h66l15,14.4v22.9l-9.5,9.4l9.5,1.2v24.2l-1.2,1.2
			h-28.4L267.6,343.7z M267.6,332.3h7.8v-32.9h-7.8V332.3z"/>
		<path fill="#474A58" d="M382.8,288l18.6,37.4v34.7l-1.2,1.2h-35.4l-1.2-1.2v-14.6h-7.8v14.6l-1.2,1.2h-35.4l-1.2-1.2v-34.7
			l18.6-37.4H382.8z M355.8,327.4h7.8V303h-7.8V327.4z"/>
		<path fill="#474A58" d="M455.4,288l1.2,1.2v14.5l-1.2,1.2h-9v39.5h9l1.2,1.2v14.5l-1.2,1.2h-30.6l-18.6-18V306l18.6-18H455.4z"/>
		<path fill="#474A58" d="M496.2,288l1.2,1.3v60.6h7.8v-60.7l1.2-1.2h34.2l1.2,1.3v54l-18.6,18h-43.8l-18.6-18v-54.1l1.2-1.2H496.2z
			"/>
		<path fill="#474A58" d="M585,288l1.2,1.3v72l-6,14l-1.2,1.2h-35.4l-1.2-1.2l6-14v-72.1l1.2-1.2H585z"/>
		<path fill="#474A58" d="M642.6,288l1.2,1.2v15.7l-1.2,1.2H630v8.6h11.4l1.2,1.2v15.7l-1.2,1.2H630v10.3h12.6l1.2,1.2v15.7
			l-1.2,1.2h-48l-1.2-1.2v-70.9l1.2-1.2H642.6z"/>
	</g>
</g>
</svg>
