<?xml version="1.0" encoding="utf-8"?>
<!-- Generator: Adobe Illustrator 19.2.1, SVG Export Plug-In . SVG Version: 6.00 Build 0)  -->
<svg version="1.1" id="Layer_1" xmlns="http://www.w3.org/2000/svg" xmlns:xlink="http://www.w3.org/1999/xlink" x="0px" y="0px"
	 viewBox="0 0 855.7 324.3" enable-background="new 0 0 855.7 324.3" xml:space="preserve">
<g>
	<path fill="#474A58" d="M298.4,6.9c-9.3,34.7-14.3,62.9-17.6,90.6c-0.6,5.1-2.9,6.5-5.4,6.5c-2.3,0-4.5-1.7-4.1-5.3
		c0.9-7.1,2.4-21.7,6-43.1c-8.3,9.2-20.1,16.9-31.7,21.4l-0.3,2.3c-1.4,10.4-2.1,16.9-2.4,18.8c-0.8,5.1-3.2,5.7-5.1,5.7
		c-2.1,0-4.7-1.1-4.4-5.7c0.3-3.2,0.9-8.1,2.3-17.9c-3.8,0.9-7.4,1.4-10.7,1.4c-14.2,0-23.2-8.6-23.2-28.3
		c0-16.1,7.7-23.7,16.6-23.8c10.3-0.2,18.1,9.5,22,19.9c3.2-16.9,7.7-37.8,10.4-46.3c1.5-4.7,10.7-4.4,8.7,4.2
		C253.1,35,249.4,54,247.2,67.5c6.5-3.2,13-7.4,18.5-12.7c10.6-9.8,13.6-11.6,23.5-49.6c1.1-4.1,3.5-5.1,5.3-5.1
		C298.4,0.1,299.2,3.9,298.4,6.9z M225.9,73.1c3.2,0,6.6-0.5,10.3-1.5c-0.3-17.9-11-33.8-18.1-33.8c-4.8,0-7.1,8-7.1,17
		C211,66.6,216.9,73.1,225.9,73.1z"/>
	<path fill="#474A58" d="M380.5,71.6c-6.2,18.4-18.2,33.2-30.3,33.2c-5.9,0-12.4-2.4-14.2-16.3c-4.2,8.4-10.1,15.7-18.8,15.7
		c-11,0-16.4-9.8-16.4-23.7c0-23.2,9.5-48.4,27.3-48.4c7.1,0,11.8,4.7,13.9,10.9c0.8-3,1.7-5.7,2.6-8c1.1-3.2,3.2-4.7,5.3-4.7
		c2.7,0,5.3,2.9,3.8,7.5c-6.5,20.2-8.9,36.6-8.9,44.9c0,11.5,2.9,14,5.6,14c4.8,0,14.2-6.2,23.2-29.7c1.1-2.7,2.4-3.6,4.1-3.6
		C379.7,63.5,382.4,65.9,380.5,71.6z M336.6,65.1l0.3-1.4c-2.3,0.5-4.5-0.3-3.9-2.9c3-11.9,0.8-20.5-5-20.5
		c-10.7,0-18.1,23.2-18.1,37.8c0,13.1,3.2,17.8,7.2,17.8C324.2,96,333.4,80.4,336.6,65.1z"/>
	<path fill="#474A58" d="M437.4,62.6c-4.4,1.2-11.2,2-19.5,2.1c-1.1,2.9-2.1,5.6-3.2,8.3c-7.1,17-17.5,31.1-27.7,31.1
		c-10.4,0-14-14.2-14-30.3c0-15.7,3.3-33,6.8-40.9c0.9-2.3,2.6-3.2,4.2-3.2c2.7,0,5.3,2.6,4.2,6.5c-4.2,16.1-6,29.9-6,40.1
		c0,12.1,2.4,19.6,5.7,19.6c5,0,14-14.6,19.9-30.3l0.9-2.6c-7.5-3.3-14-11.5-14-24.7c0-6.6,2.6-13.1,5.1-16.3
		c3.6-4.5,7.4-5.4,10.7-5.4c8.3,0,13.1,7.8,13.1,16.9c0,6.8-1.2,14.5-3.2,22.5c5.3-0.2,10.7-1.1,14.6-1.7
		C441.4,53.2,443.9,60.8,437.4,62.6z M411.5,54.3c4.1-15.2,5.1-29.4-1.2-29.4c-3.5,0-6.5,6.5-6.5,13C403.8,46,406.2,51.7,411.5,54.3
		z"/>
	<path fill="#474A58" d="M511.3,71.6c-6.2,18.4-18.2,33.2-30.3,33.2c-5.9,0-12.4-2.4-14.2-16.3c-4.2,8.4-10.1,15.7-18.8,15.7
		c-11,0-16.4-9.8-16.4-23.7c0-23.2,9.5-48.4,27.3-48.4c7.1,0,11.8,4.7,13.9,10.9c0.8-3,1.7-5.7,2.6-8c1.1-3.2,3.2-4.7,5.3-4.7
		c2.7,0,5.3,2.9,3.8,7.5c-6.5,20.2-8.9,36.6-8.9,44.9c0,11.5,2.9,14,5.6,14c4.8,0,14.2-6.2,23.2-29.7c1.1-2.7,2.4-3.6,4.1-3.6
		C510.6,63.5,513.3,65.9,511.3,71.6z M467.5,65.1l0.3-1.4c-2.3,0.5-4.5-0.3-3.9-2.9c3-11.9,0.8-20.5-5-20.5
		c-10.7,0-18.1,23.2-18.1,37.8c0,13.1,3.2,17.8,7.2,17.8C455.1,96,464.3,80.4,467.5,65.1z"/>
	<path fill="#474A58" d="M582.6,69.4c-10.6,21.3-21.9,34.5-33.8,34.5c-9.6,0-12.4-6.9-12.4-14.8c0-8,2-19.9,4.4-30.5
		c-4.8,8.9-9.8,18.1-12.8,23.1c-8.1,13.1-13.3,22.2-19.3,22.2c-6.5,0-7.1-5.6-7.1-12.2c0-15.7,6.3-44,10.9-57.6
		c0.6-1.8,2.7-3.5,4.5-3.5c2.9,0,5.6,2.3,4.1,7.1c-5.7,18.7-10.1,44.8-10.7,55.5c7.2-11.2,19.3-32.7,26.5-45.1
		c2.4-4.2,5-7.2,8.4-7.2c3.2,0,6.3,2.4,6.3,7.7c0,4.2-6.3,29.1-6.3,39.8c0,5,1.2,7.5,3.5,7.5c3.9,0,14.5-7.8,26.7-30.8
		C578.7,59.2,586.3,62.1,582.6,69.4z"/>
	<path fill="#474A58" d="M653.8,71.6c-6.2,18.4-18.2,33.2-30.3,33.2c-5.9,0-12.4-2.4-14.2-16.3c-4.2,8.4-10.1,15.7-18.8,15.7
		c-11,0-16.4-9.8-16.4-23.7c0-23.2,9.5-48.4,27.3-48.4c7.1,0,11.8,4.7,13.9,10.9c0.8-3,1.7-5.7,2.6-8c1.1-3.2,3.2-4.7,5.3-4.7
		c2.7,0,5.3,2.9,3.8,7.5c-6.5,20.2-8.9,36.6-8.9,44.9c0,11.5,2.9,14,5.6,14c4.8,0,14.2-6.2,23.2-29.7c1.1-2.7,2.4-3.6,4.1-3.6
		C653.1,63.5,655.8,65.9,653.8,71.6z M609.9,65.1l0.3-1.4c-2.3,0.5-4.5-0.3-3.9-2.9c3-11.9,0.8-20.5-5-20.5
		c-10.7,0-18.1,23.2-18.1,37.8c0,13.1,3.2,17.8,7.2,17.8C597.6,96,606.8,80.4,609.9,65.1z"/>
	<path fill="#474A58" d="M123.9,253.3c-9.5,22.5-21.4,32-33.8,32.1c-10.6,0-15.5-7.2-15.5-17.2c0-20.2,13.7-64.1,6.5-64.1
		c-6.3,0-31.4,29.4-41.6,74.5c-0.9,4.1-3,6-5.4,6c-3.2,0-5.3-2.3-4.2-7.2c4.1-18.5,21-87.4,13-87.4c-8.4,0-27.6,30.8-33.8,53.7
		c-2,7.4-10.7,3.9-8.7-2.9c8.7-30.5,29.1-59.7,43.4-59.7c8.6,0,10.7,9,10.7,14c0,9.5-1.4,17.2-5.3,34.4c11.5-22.2,24-34.2,33.2-34.2
		c6.8,0,10.3,4.8,10.4,14.8c0.2,13-8.6,42.7-8.6,56.7c0,8.1,2.1,10.3,6.3,10.3c6.2-0.2,16.4-7.4,25.3-28.3
		C118.6,241.8,127.4,245,123.9,253.3z"/>
	<path fill="#474A58" d="M125,265.2c0,7.5,2,11.3,4.8,11.3c3.6,0,12.4-2.7,24.9-31.2c0.9-2.1,2.4-3.3,4.2-3.3c2.3,0,4.8,2.4,3.2,6.8
		c-11.6,30.9-25.2,36-32.9,36c-10.3,0-13.4-9-13.4-18.2c0-15.1,3.3-31.2,7.5-47c2.1-7.7,11.5-5.7,9.2,2.6
		C127.5,239.7,125,255.7,125,265.2z M134.6,202.6c5.4,0,11.6-3.9,11.6-11.5c0-5.6-3.9-10.9-11.2-10.7c-6.6,0.2-10.9,5.1-10.9,11.3
		C124.2,199,129,202.6,134.6,202.6z M135.1,187.1c2.6,0,4.1,1.8,4.1,4.2c0,2.7-2.1,4.2-4.1,4.2c-3,0-4.1-2-4.1-4.2
		C131,188.5,133.3,187.1,135.1,187.1z"/>
	<path fill="#474A58" d="M213.5,253.4c-7.2,17.8-22.9,32.3-38.9,32.3c-18.4,0-20.8-16.9-20.8-30.3c0-20.7,10.6-44.2,27.3-44.2
		c8.3,0,13.4,6.5,13.4,15.4c0,14.3-10.7,33-31.7,33.5c0.8,9.8,4.1,17.9,11.6,17.6c11-0.3,22.2-9.8,31.5-27.9c1.2-2.9,3-3.9,4.7-3.9
		C213,245.9,215.3,248.6,213.5,253.4z M162.8,252.4c15.1-0.5,22.6-16.4,22.6-24.3c0-6.5-2.4-8.6-5-8.6
		C172,219.5,163.9,236.3,162.8,252.4z"/>
	<path fill="#474A58" d="M296.9,248.6C280,282.4,267,286,259.6,286c-9.3,0-13.3-7.4-13.3-15.8c0-13.7,2.7-32.1,6-48.2h-2.7
		c-4.4,0-5.4-2.6-5.4-4.2c0-1.5,1.1-3.8,3.3-3.9l6.6-0.3c2-9.3,4.1-17.3,5.6-22.5c1.7-5.4,10.9-5.1,8.7,3.6
		c-1.4,5.9-2.9,12.1-4.4,18.4c5.6-0.2,11.6-0.3,17.9-0.6c3.5-0.2,5.4,1.4,5.4,4.2c0,1.5-1.2,4.1-5,4.2c-7.8,0.3-14.6,0.6-20.2,0.8
		c-3.8,17.8-6.6,35.3-6.6,46.4c0,6.6,1.4,9.6,5.4,9.6c3.5,0,13.9-5.3,28.8-33.6c0.9-1.7,2.6-3,4.4-3
		C297,241.1,299.3,243.8,296.9,248.6z"/>
	<path fill="#474A58" d="M336.7,218c-3.2,16.3-9,47.3-13.1,68.3c1.2,0.2,2.4,0.3,3.6,0.5c7.8,1.4,5.1,8.7-1.1,7.7
		c-1.4-0.3-2.7-0.5-4.1-0.5l-2.4,12.1c-2.6,11.9-7.7,18.2-17.5,18.2c-7.1,0-13-5.3-13-12.8c0-16.9,13-23.7,25.5-25l4.1-21.6
		c-4.5,10.4-11.3,19.9-19.8,19.9c-10.1,0-11.8-8-11.8-17.6c0-15.2,4.4-40.1,8.4-51.7c0.8-2.3,2.9-3.6,5-3.6c2.6,0,4.8,2.1,3.8,6.9
		c-5.4,21.6-8.1,38-8.1,47.8c0,7.2,0.8,10.1,3.8,10.1c3.8,0,15.7-12.2,27.4-59.6c1.2-4.8,3.9-6.2,5.4-6.2
		C335.6,210.9,337.7,213.3,336.7,218z M310.7,305.2l2.3-10.6c-9.5,2.3-14.6,9.3-14.6,16.4c0,3.9,2.6,5.1,4.7,5.1
		C307,316.2,309.7,310.3,310.7,305.2z"/>
	<path fill="#474A58" d="M370,183.3c-6,24.7-15.5,66.5-15.5,83.5c0,6.6,1.4,9.6,5.4,9.6c3.5,0,14.5-4.4,28.8-32.7
		c0.9-1.7,2.6-3,4.4-3c2.7,0,5.4,2.9,3,7.7c-16.9,33.8-30.3,36.3-37.7,36.3c-9.3,0-13.3-7.4-13.3-15.8c0-24.6,12.4-74.8,16.1-89.3
		C362.6,174.3,372.1,174.6,370,183.3z"/>
	<path fill="#474A58" d="M466,247.4c-7.4,20.8-20.1,37.5-33,37.5c-9.8,0-15.7-14.3-15.7-28.9c-13,22.2-18.7,28.9-25,28.9
		c-5.6,0-6.9-4.5-6.9-10.1c0-20.8,12.2-76,18.7-96c1.1-3.2,3.3-4.2,5.4-4.2c3,0,5,3,3.8,6.8c-9.5,31.1-18.2,77.5-19.1,94.4
		c7.2-8.9,19.8-29.4,30.3-55.2c0.5-0.9,2.9-1.7,5.6-1.7c3.8,0,8,1.5,8,5.9c0,6.2-9,14.2-12.4,19.8c-1.1,1.7,2,32.3,7.8,32.3
		c3.6,0,12.5-5.4,24.7-32.1c0.8-1.5,2.3-3.8,4.8-3.8C465.1,240.9,467.5,243.2,466,247.4z"/>
	<path fill="#474A58" d="M499,239.4c0,23.4-10.4,45.4-27,45.4c-11.8,0-16.4-10-16.4-21.3c0-6.6,1.1-13.9,2.7-19.9
		c-0.5,0.2-0.9,0.3-1.4,0.3c-2,0-3.9-2-3.5-5.1c1.7-13.3,13.3-27.4,26.5-27.4C491.4,211.4,499,221.3,499,239.4z M490,238.5
		c0-11.6-3.9-19-11.2-19c-5.4,0-11.9,6.5-15.4,14.5c0.6-0.3,1.2-0.5,1.8-0.5c2.7,0,5,2.7,3.5,6.5c-2.9,9.3-4.1,17-4.1,23.1
		c0,8.6,2.7,13.6,8.1,13.6C481.9,276.7,490,258,490,238.5z"/>
	<path fill="#474A58" d="M552.4,183.3c-6,24.7-15.5,66.5-15.5,83.5c0,6.6,1.4,9.6,5.4,9.6c3.5,0,14.5-4.4,28.8-32.7
		c0.9-1.7,2.6-3,4.4-3c2.7,0,5.4,2.9,3,7.7c-16.9,33.8-30.3,36.3-37.7,36.3c-9.3,0-13.3-7.4-13.3-15.8c0-24.6,12.4-74.8,16.1-89.3
		C545,174.3,554.5,174.6,552.4,183.3z"/>
	<path fill="#474A58" d="M649.5,252.5c-6.2,18.4-18.2,33.2-30.3,33.2c-5.9,0-12.4-2.4-14.2-16.3c-4.2,8.4-10.1,15.7-18.8,15.7
		c-11,0-16.4-9.8-16.4-23.7c0-23.2,9.5-48.4,27.3-48.4c7.1,0,11.8,4.7,13.9,10.9c0.8-3,1.7-5.7,2.6-8c1.1-3.2,3.2-4.7,5.3-4.7
		c2.7,0,5.3,2.9,3.8,7.5c-6.5,20.2-8.9,36.6-8.9,44.9c0,11.5,2.9,14,5.6,14c4.8,0,14.2-6.2,23.2-29.7c1.1-2.7,2.4-3.6,4.1-3.6
		C648.8,244.4,651.5,246.8,649.5,252.5z M605.6,246.1l0.3-1.4c-2.3,0.5-4.5-0.3-3.9-2.9c3-11.9,0.8-20.5-5-20.5
		c-10.7,0-18.1,23.2-18.1,37.8c0,13.1,3.2,17.8,7.2,17.8C593.3,277,602.5,261.3,605.6,246.1z"/>
	<path fill="#474A58" d="M691.7,248.6c-16.9,33.8-29.9,37.4-37.2,37.4c-9.3,0-13.3-7.4-13.3-15.8c0-13.7,2.7-32.1,6-48.2h-2.7
		c-4.4,0-5.4-2.6-5.4-4.2c0-1.5,1.1-3.8,3.3-3.9l6.6-0.3c2-9.3,4.1-17.3,5.6-22.5c1.7-5.4,10.9-5.1,8.7,3.6
		c-1.4,5.9-2.9,12.1-4.4,18.4c5.6-0.2,11.6-0.3,17.9-0.6c3.5-0.2,5.4,1.4,5.4,4.2c0,1.5-1.2,4.1-5,4.2c-7.8,0.3-14.6,0.6-20.2,0.8
		c-3.8,17.8-6.6,35.3-6.6,46.4c0,6.6,1.4,9.6,5.4,9.6c3.5,0,13.9-5.3,28.8-33.6c0.9-1.7,2.6-3,4.4-3
		C691.9,241.1,694.1,243.8,691.7,248.6z"/>
	<path fill="#474A58" d="M743.7,253.4c-7.2,17.8-22.9,32.3-38.9,32.3c-18.4,0-20.8-16.9-20.8-30.3c0-20.7,10.6-44.2,27.3-44.2
		c8.3,0,13.4,6.5,13.4,15.4c0,14.3-10.7,33-31.7,33.5c0.8,9.8,4.1,17.9,11.6,17.6c11-0.3,22.2-9.8,31.5-27.9c1.2-2.9,3-3.9,4.7-3.9
		C743.3,245.9,745.6,248.6,743.7,253.4z M693.1,252.4c15.1-0.5,22.6-16.4,22.6-24.3c0-6.5-2.4-8.6-5-8.6
		C702.3,219.5,694.1,236.3,693.1,252.4z"/>
	<path fill="#474A58" d="M854.9,249.2c-13.6,30.6-26.4,35.4-33.8,35.4c-8.9,0-11.6-8.7-11.6-19.1c0-4.4,0.5-8.9,1.1-13.3
		c-7.5,19.4-16.7,32.6-25.8,32.6c-8,0-10.6-8.6-10.6-19.4c0-6,0.8-13.1,2-19.8c-10.7,30.2-19.8,40.1-28.8,40.1
		c-10,0-11.9-9.5-11.9-19.9c0-16.7,5.4-41,9.3-51.3c0.9-2.3,2.9-3.5,4.8-3.5c2.7,0,5.3,2.3,3.9,7.1c-6.9,25.2-9.2,41-9.2,49.5
		c0,7.1,1.7,9.5,3.6,9.5c9.8,0,25-48.9,28.8-55.5c1.2-2.1,3.3-3.3,5.9-3.3c3.6,0,7.1,3.2,5.9,8.9c-3.8,18.7-5.4,32-5.4,40
		c0,6.3,1.1,9.5,2.9,9.5c5.3,0,16.6-25.3,24.6-46.6c1.1-2.7,3.6-4.4,6.2-4.4c3.2,0,6.5,2.6,5.4,8.1c-2.3,12.4-3.8,24.3-3.8,32.3
		c0,6.5,0.9,10.6,3.6,10.6c5.3,0,14.9-8.6,25.8-31.5c1.1-2,2.7-3.2,4.4-3.2C854.7,242,857,244.3,854.9,249.2z"/>
</g>
</svg>
