<?xml version="1.0" encoding="utf-8"?>
<!-- Generator: Adobe Illustrator 19.2.1, SVG Export Plug-In . SVG Version: 6.00 Build 0)  -->
<svg version="1.1" id="Layer_1" xmlns="http://www.w3.org/2000/svg" xmlns:xlink="http://www.w3.org/1999/xlink" x="0px" y="0px"
	 viewBox="0 0 985.8 383.9" enable-background="new 0 0 985.8 383.9" xml:space="preserve">
<g>
	<g>
		<path fill="#F9E276" d="M37.7,3.5c-0.1,1.7-1.4,3.2-3.6,3.4h-4.9c-4.9,22.9-9.8,52.7-11.9,70.3l5-0.1c2.2,0.1,3.8,1.4,3.7,3.5
			c-0.1,1.7-1.4,3.2-3.6,3.4c-3.7,0.1-7.7,0-17.8,0c-3.1,0-4.9-1-4.7-3.6c0-0.6,0.6-2.8,3.4-2.9c2.3-0.1,4.1-0.1,6.4-0.1
			c0.5-8.3,8-52.7,11.8-70.4h-5.2c-3.1-0.1-4.9-1.1-4.7-3.7c0-0.6,0.6-2.9,3.4-2.9c5.8-0.1,7-0.2,19.1-0.1
			C36.1,0.1,37.8,1.4,37.7,3.5z"/>
		<path fill="#F9E276" d="M100.6,55.6C92.2,72.5,83.2,83,73.7,83c-7.7,0-9.8-5.5-9.8-11.8c0-6.4,1.6-15.8,3.5-24.2
			c-3.8,7.1-7.8,14.4-10.2,18.4C50.7,75.8,46.6,83,41.8,83c-5.2,0-5.6-4.4-5.6-9.7c0-12.5,5-35,8.6-45.8c0.5-1.4,2.2-2.8,3.6-2.8
			c2.3,0,4.4,1.8,3.2,5.6c-4.6,14.9-8,35.6-8.5,44.2c5.8-8.9,15.4-26,21.1-35.9c1.9-3.4,4-5.8,6.7-5.8c2.5,0,5,1.9,5,6.1
			c0,3.4-5,23.2-5,31.7c0,4,1,6,2.8,6c3.1,0,11.5-6.2,21.2-24.5C97.5,47.5,103.5,49.8,100.6,55.6z"/>
		<path fill="#F9E276" d="M138.1,54.6c-7.6,1.2-13.4,3.1-18,5.3c1.9,3.7,2.8,7.2,2.8,10.8c0,8.3-5.3,13.1-12.1,13.1
			c-4.9,0-10.1-4-10.1-10.9c0-2.9,1.2-9.4,9.1-15c-3.8-5.2-8-10-8.2-15.8c0-9.5,8-17.9,18.5-17.9c5,0,10.3,3,10.3,12
			c0,3.6-1.1,6.8-4.2,6.8c-3.5-0.1-2.9-3.5-2.9-6.8c0-3.7-1.8-4.9-3.8-4.9c-5.8,0-10.7,5-10.7,10.7c0,3.7,3.6,7.2,6.7,11l0.8,1.1
			c5-2.5,11.8-4.9,20.9-6.4C142.1,46.9,143.5,53.8,138.1,54.6z M115.7,72c0-3-0.8-5.6-2-8.2c-4,3.2-5.8,6.6-5.8,9.1
			c0,2.3,1.2,4.3,3.7,4.3C114.9,77.3,115.7,73.8,115.7,72z"/>
		<path fill="#F9E276" d="M174.4,44.6c0,18.5-7.6,38.5-21.7,38.5c-5.9,0-9.8-3.7-11.5-8.8c-2.4,13.4-4,22.7-5.3,31.6
			c-0.7,4.9-7.7,4.2-7.1-0.7c0.8-7.2,7.4-46.3,14.5-78.2c1.1-4.9,8.4-3.8,7.1,1.9l-0.6,2.5c3.2-3.4,7.2-5.6,11.5-5.6
			C170.1,25.8,174.4,33.6,174.4,44.6z M167.1,46.4c0-10.4-2.9-14.2-6.1-14.2c-5.6,0-14,10.4-16.7,24.5l-0.2,1.4
			c1.8-0.2,3.7,1,2.8,4.8c-1.7,6.7,1.3,13.6,5.9,13.6C161.2,76.6,167.1,58.1,167.1,46.4z"/>
		<path fill="#F9E276" d="M190,67.4c0,6,1.6,9,3.8,9c2.9,0,9.8-2.2,19.8-24.8c0.7-1.7,1.9-2.6,3.4-2.6c1.8,0,3.8,1.9,2.5,5.4
			C210.3,79,199.5,83,193.3,83c-8.2,0-10.7-7.2-10.7-14.5c0-12,2.6-24.8,6-37.4c1.7-6.1,9.1-4.6,7.3,2C192,47.2,190,59.9,190,67.4z
			 M197.7,17.6c4.3,0,9.2-3.1,9.2-9.1c0-4.4-3.1-8.6-8.9-8.5c-5.3,0.1-8.6,4.1-8.6,9C189.4,14.8,193.2,17.6,197.7,17.6z M198,5.3
			c2,0,3.2,1.4,3.2,3.4c0,2.2-1.7,3.4-3.2,3.4c-2.4,0-3.2-1.6-3.2-3.4C194.8,6.4,196.6,5.3,198,5.3z"/>
		<path fill="#F9E276" d="M261.4,52.7c-11.8,4.4-20.2,0.1-22.1-8.4c-5.2,10.9-12.8,27-15.6,32.5c-2.4,4.9-4.4,6.1-6.4,6.1
			c-4.9,0-5.3-5.6-5.3-7.8c0-13.1,2.6-31.7,6.6-46.1c0.6-2.3,2.3-3.5,4-3.5c2.2,0,4,1.9,2.9,6c-2.8,10.6-6.2,28.6-6.7,40.1
			c5.5-12.1,17-35.9,19.8-42c1.8-4.1,3.1-5.4,5.3-5.4c1.7,0,4,1.1,3.5,4.7c-0.4,2.8-1.6,5.8-1.6,10.1c0,4,1.7,8.3,7,8.3
			c1.9,0,4.3-0.5,7.2-1.4C264.4,44,266.8,50.6,261.4,52.7z"/>
		<path fill="#F9E276" d="M292.5,46.9c0,18.6-8.3,36.1-21.5,36.1c-9.4,0-13.1-7.9-13.1-16.9c0-5.3,0.8-11,2.2-15.8
			c-0.4,0.1-0.7,0.2-1.1,0.2c-1.6,0-3.1-1.6-2.8-4.1c1.3-10.6,10.6-21.8,21.1-21.8C286.3,24.6,292.5,32.5,292.5,46.9z M285.3,46.2
			c0-9.2-3.1-15.1-8.9-15.1c-4.3,0-9.5,5.2-12.2,11.5c0.5-0.2,1-0.4,1.4-0.4c2.2,0,4,2.2,2.8,5.2c-2.3,7.4-3.2,13.6-3.2,18.4
			c0,6.8,2.2,10.8,6.5,10.8C278.8,76.6,285.3,61.7,285.3,46.2z"/>
		<path fill="#F9E276" d="M376.9,50.4c-3.5,1.1-8.6,1.6-14.3,1.7c-0.7,2.3-1.6,4.6-2.4,6.6c-6.6,16.1-14.6,24.5-22.8,24.5
			c-6.7,0-9.6-7.3-10.6-17c-6,16.4-13.6,17-16,16.9c-7.7-0.4-10-9.8-10-18.2c0-14,4.9-31.4,7.2-37.9c0.7-2,2.2-2.9,3.5-2.9
			c2.3,0,4.3,2.2,3.4,5.3c-3.4,10.7-7,25.8-7,36.6c0,8.2,2.2,10.7,3.7,10.7c5,0,13.8-22.2,16.6-37.2c0.7-3.7,2.5-9.8,3.4-12
			c0.7-1.8,2-2.5,3.4-2.5c2.2,0,4.2,2,3.4,5.2c-3.4,12.5-4.8,23.2-4.8,31.1c0,9.6,1.9,15.6,4.6,15.6c4,0,10.9-8.9,15.4-20.9l1.7-4.8
			c-6.2-2-11.9-7.2-11.9-16.9c0-5.3,2-10.4,4.1-13c2.9-3.6,5.9-4.3,8.5-4.3c6.6,0,10.4,6.2,10.4,13.4c0,4.6-0.7,9.7-1.9,14.9
			c4-0.2,8-0.8,11-1.3C380.2,43,381.9,49.1,376.9,50.4z M357.1,44.2c2.9-11.3,3.2-20.8-1.4-20.8c-2.8,0-5.2,5.2-5.2,10.3
			C350.5,39.6,353.3,42.8,357.1,44.2z"/>
		<path fill="#F9E276" d="M436.5,57.4c-4.9,14.6-14.5,26.4-24.1,26.4c-4.7,0-9.8-1.9-11.3-13c-3.4,6.7-8,12.5-15,12.5
			c-8.8,0-13.1-7.8-13.1-18.8c0-18.5,7.6-38.5,21.7-38.5c5.6,0,9.4,3.7,11,8.6c0.6-2.4,1.3-4.6,2-6.4c0.8-2.5,2.5-3.7,4.2-3.7
			c2.2,0,4.2,2.3,3,6c-5.2,16.1-7.1,29.2-7.1,35.8c0,9.1,2.3,11.2,4.4,11.2c3.8,0,11.3-4.9,18.5-23.6c0.8-2.2,1.9-2.9,3.2-2.9
			C435.9,50.9,438,52.8,436.5,57.4z M401.5,52.2l0.2-1.1c-1.8,0.4-3.6-0.2-3.1-2.3c2.4-9.5,0.6-16.3-4-16.3
			c-8.5,0-14.4,18.5-14.4,30.1c0,10.4,2.5,14.2,5.8,14.2C391.7,76.8,399,64.3,401.5,52.2z"/>
		<path fill="#F9E276" d="M493.2,55.6C484.8,72.5,475.8,83,466.3,83c-7.7,0-9.8-5.5-9.8-11.8c0-6.4,1.6-15.8,3.5-24.2
			c-3.8,7.1-7.8,14.4-10.2,18.4C443.3,75.8,439.2,83,434.4,83c-5.2,0-5.6-4.4-5.6-9.7c0-12.5,5-35,8.6-45.8c0.5-1.4,2.2-2.8,3.6-2.8
			c2.3,0,4.4,1.8,3.2,5.6c-4.6,14.9-8,35.6-8.5,44.2c5.8-8.9,15.4-26,21.1-35.9c1.9-3.4,4-5.8,6.7-5.8c2.5,0,5,1.9,5,6.1
			c0,3.4-5,23.2-5,31.7c0,4,1,6,2.8,6c3.1,0,11.5-6.2,21.2-24.5C490.1,47.5,496.1,49.8,493.2,55.6z"/>
		<path fill="#F9E276" d="M549.9,57.4c-4.9,14.6-14.5,26.4-24.1,26.4c-4.7,0-9.8-1.9-11.3-13c-3.4,6.7-8,12.5-15,12.5
			c-8.8,0-13.1-7.8-13.1-18.8c0-18.5,7.6-38.5,21.7-38.5c5.6,0,9.4,3.7,11,8.6c0.6-2.4,1.3-4.6,2-6.4c0.8-2.5,2.5-3.7,4.2-3.7
			c2.2,0,4.2,2.3,3,6c-5.2,16.1-7.1,29.2-7.1,35.8c0,9.1,2.3,11.2,4.4,11.2c3.8,0,11.3-4.9,18.5-23.6c0.8-2.2,1.9-2.9,3.2-2.9
			C549.3,50.9,551.4,52.8,549.9,57.4z M514.9,52.2l0.2-1.1c-1.8,0.4-3.6-0.2-3.1-2.3c2.4-9.5,0.6-16.3-4-16.3
			c-8.5,0-14.4,18.5-14.4,30.1c0,10.4,2.5,14.2,5.8,14.2C505.1,76.8,512.4,64.3,514.9,52.2z"/>
		<path fill="#F9E276" d="M671.4,58c-7.6,17.9-17,25.4-26.9,25.6c-8.4,0-12.4-5.8-12.4-13.7c0-16.1,10.9-51,5.2-51
			c-5,0-25,23.4-33.1,59.3c-0.7,3.2-2.4,4.8-4.3,4.8c-2.5,0-4.2-1.8-3.4-5.8c3.2-14.8,16.7-69.6,10.3-69.6c-6.7,0-22,24.5-26.9,42.7
			c-1.6,5.9-8.5,3.1-7-2.3c7-24.2,23.2-47.5,34.6-47.5c6.8,0,8.5,7.2,8.5,11.2c0,7.6-1.1,13.7-4.2,27.4
			c9.1-17.6,19.1-27.2,26.4-27.2c5.4,0,8.2,3.8,8.3,11.8c0.1,10.3-6.8,34-6.8,45.1c0,6.5,1.7,8.2,5,8.2c4.9-0.1,13.1-5.9,20.2-22.6
			C667.2,48.8,674.2,51.4,671.4,58z"/>
		<path fill="#F9E276" d="M712.7,58.1c-5.8,14.2-18.2,25.7-31,25.7c-14.6,0-16.6-13.4-16.6-24.1c0-16.4,8.4-35.2,21.7-35.2
			c6.6,0,10.7,5.2,10.7,12.2c0,11.4-8.5,26.3-25.2,26.6c0.6,7.8,3.2,14.3,9.2,14c8.8-0.2,17.6-7.8,25.1-22.2c1-2.3,2.4-3.1,3.7-3.1
			C712.3,52.1,714.1,54.2,712.7,58.1z M672.4,57.2c12-0.4,18-13.1,18-19.3c0-5.2-1.9-6.8-4-6.8C679.7,31.1,673.2,44.4,672.4,57.2z"
			/>
		<path fill="#F9E276" d="M740.4,46.9c0,18.6-8.3,36.1-21.5,36.1c-9.4,0-13.1-7.9-13.1-16.9c0-5.3,0.8-11,2.2-15.8
			c-0.4,0.1-0.7,0.2-1.1,0.2c-1.6,0-3.1-1.6-2.8-4.1c1.3-10.6,10.6-21.8,21.1-21.8C734.3,24.6,740.4,32.5,740.4,46.9z M733.2,46.2
			c0-9.2-3.1-15.1-8.9-15.1c-4.3,0-9.5,5.2-12.2,11.5c0.5-0.2,1-0.4,1.4-0.4c2.2,0,4,2.2,2.8,5.2c-2.3,7.4-3.2,13.6-3.2,18.4
			c0,6.8,2.2,10.8,6.5,10.8C726.7,76.6,733.2,61.7,733.2,46.2z"/>
		<path fill="#F9E276" d="M809.9,55.6C801.5,72.5,792.5,83,783,83c-7.7,0-9.8-5.5-9.8-11.8c0-6.4,1.6-15.8,3.5-24.2
			c-3.8,7.1-7.8,14.4-10.2,18.4C760,75.8,755.9,83,751.1,83c-5.2,0-5.6-4.4-5.6-9.7c0-12.5,5-35,8.6-45.8c0.5-1.4,2.2-2.8,3.6-2.8
			c2.3,0,4.4,1.8,3.2,5.6c-4.6,14.9-8,35.6-8.5,44.2c5.8-8.9,15.4-26,21.1-35.9c1.9-3.4,4-5.8,6.7-5.8c2.5,0,5,1.9,5,6.1
			c0,3.4-5,23.2-5,31.7c0,4,1,6,2.8,6c3.1,0,11.5-6.2,21.2-24.5C806.8,47.5,812.8,49.8,809.9,55.6z"/>
		<path fill="#F9E276" d="M866.5,57.4C861.6,72,852,83.8,842.4,83.8c-4.7,0-9.8-1.9-11.3-13c-3.4,6.7-8,12.5-15,12.5
			c-8.8,0-13.1-7.8-13.1-18.8c0-18.5,7.6-38.5,21.7-38.5c5.6,0,9.4,3.7,11,8.6c0.6-2.4,1.3-4.6,2-6.4c0.8-2.5,2.5-3.7,4.2-3.7
			c2.2,0,4.2,2.3,3,6c-5.2,16.1-7.1,29.2-7.1,35.8c0,9.1,2.3,11.2,4.4,11.2c3.8,0,11.3-4.9,18.5-23.6c0.8-2.2,1.9-2.9,3.2-2.9
			C865.9,50.9,868.1,52.8,866.5,57.4z M831.6,52.2l0.2-1.1c-1.8,0.4-3.6-0.2-3.1-2.3c2.4-9.5,0.6-16.3-4-16.3
			c-8.5,0-14.4,18.5-14.4,30.1c0,10.4,2.5,14.2,5.8,14.2C821.8,76.8,829.1,64.3,831.6,52.2z"/>
		<path fill="#F9E276" d="M955,54.7c-10.8,24.4-21,28.2-26.9,28.2c-7.1,0-9.2-7-9.2-15.2c0-3.5,0.4-7.1,0.8-10.6
			c-6,15.5-13.3,25.9-20.5,25.9c-6.4,0-8.4-6.8-8.4-15.5c0-4.8,0.6-10.4,1.6-15.7c-8.5,24-15.7,31.9-22.9,31.9
			c-7.9,0-9.5-7.6-9.5-15.8c0-13.3,4.3-32.6,7.4-40.8c0.7-1.8,2.3-2.8,3.8-2.8c2.2,0,4.2,1.8,3.1,5.6c-5.5,20-7.3,32.6-7.3,39.4
			c0,5.6,1.3,7.6,2.9,7.6c7.8,0,19.9-38.9,22.9-44.2c1-1.7,2.6-2.6,4.7-2.6c2.9,0,5.6,2.5,4.7,7.1c-3,14.9-4.3,25.4-4.3,31.8
			c0,5,0.8,7.6,2.3,7.6c4.2,0,13.2-20.2,19.6-37.1c0.8-2.2,2.9-3.5,4.9-3.5c2.5,0,5.2,2,4.3,6.5c-1.8,9.8-3,19.3-3,25.7
			c0,5.2,0.7,8.4,2.9,8.4c4.2,0,11.9-6.8,20.5-25.1c0.8-1.6,2.2-2.5,3.5-2.5C954.9,49,956.7,50.8,955,54.7z"/>
		<path fill="#F9E276" d="M955.8,67.4c0,6,1.6,9,3.8,9c2.9,0,9.8-2.2,19.8-24.8c0.7-1.7,1.9-2.6,3.4-2.6c1.8,0,3.8,1.9,2.5,5.4
			C976.1,79,965.3,83,959.2,83c-8.2,0-10.7-7.2-10.7-14.5c0-12,2.6-24.8,6-37.4c1.7-6.1,9.1-4.6,7.3,2
			C957.9,47.2,955.8,59.9,955.8,67.4z M963.5,17.6c4.3,0,9.2-3.1,9.2-9.1c0-4.4-3.1-8.6-8.9-8.5c-5.3,0.1-8.6,4.1-8.6,9
			C955.2,14.8,959.1,17.6,963.5,17.6z M963.9,5.3c2,0,3.2,1.4,3.2,3.4c0,2.2-1.7,3.4-3.2,3.4c-2.4,0-3.2-1.6-3.2-3.4
			C960.6,6.4,962.4,5.3,963.9,5.3z"/>
		<path fill="#F9E276" d="M213.6,201.4c-4.9,14.6-14.5,26.4-24.1,26.4c-4.7,0-9.8-1.9-11.3-13c-3.4,6.7-8,12.5-15,12.5
			c-8.8,0-13.1-7.8-13.1-18.8c0-18.5,7.6-38.5,21.7-38.5c5.6,0,9.4,3.7,11,8.6c0.6-2.4,1.3-4.6,2-6.4c0.8-2.5,2.5-3.7,4.2-3.7
			c2.2,0,4.2,2.3,3,6c-5.2,16.1-7.1,29.2-7.1,35.8c0,9.1,2.3,11.2,4.4,11.2c3.8,0,11.3-4.9,18.5-23.6c0.8-2.2,1.9-2.9,3.2-2.9
			C213,194.9,215.2,196.8,213.6,201.4z M178.7,196.2l0.2-1.1c-1.8,0.4-3.6-0.2-3.1-2.3c2.4-9.5,0.6-16.3-4-16.3
			c-8.5,0-14.4,18.5-14.4,30.1c0,10.4,2.5,14.2,5.8,14.2C168.9,220.8,176.2,208.3,178.7,196.2z"/>
		<path fill="#F9E276" d="M264,197.6c-5.6,4.9-13.9,11-22.9,13.7c-3.8,9-10.3,16-18.8,16c-10.4,0-14.4-8.9-14.4-21.4
			c0-13.2,3.8-34.7,12.8-61.8c1.2-3.5,3.1-4.4,4.7-4.4c2.4,0,4.1,2.5,2.8,6.4c-2.9,8.4-5.9,18.2-8.4,28.4c2.9-3.6,6.6-6,11.2-6
			c7.2,0,14.6,5.4,14.6,21.8c0,4.1-0.6,8.5-1.7,12.8c5.4-2.8,10.8-7,16-11.4C264.3,187.9,268.9,193.2,264,197.6z M232.3,212.8h-0.1
			c-8.8,0-14.4-3-16.9-9.2v2.6c0,8.8,1.9,14.6,7.2,14.6C225.7,220.8,229.5,217.7,232.3,212.8z M220.3,193.4c0,10.1,5.5,13,11.9,13
			c1.1,0,2.2-0.1,3.2-0.2c1.7-4.8,2.8-10.3,2.8-16.1c0-9.1-2.9-15.2-7.3-15.2C224.7,174.8,220.3,185.2,220.3,193.4z"/>
		<path fill="#F9E276" d="M284.1,189.7c1.4-6.5,1.6-14.6-4.3-14.6c-9.1,0-14,20.6-14,31.4c0,10,3.8,14.4,8.3,14.4
			c4.6,0,14.4-3.8,24.6-23.8c1.4-2.8,2.5-3.7,4.1-3.7c2,0,4.1,2.4,2,6.6c-8,16.7-19.2,27.5-31.2,27.5c-11,0-15.1-8.8-15.1-21.7
			c0-16.9,7.9-37.4,21.6-37.4c8.8,0,12.4,6.6,12.4,14.3c0,4.8-1.3,11.8-5.3,11.8C285.1,194.4,283.3,192.7,284.1,189.7z"/>
		<path fill="#F9E276" d="M361.7,201.4c-4.9,14.6-14.5,26.4-24.1,26.4c-4.7,0-9.7-2.5-11.3-13c-3.2,6.6-8,12.5-15,12.5
			c-8.8,0-13.1-7.8-13.1-18.8c0-18.5,7.6-38.5,21.7-38.5c5.3,0,8.9,3.2,10.7,7.8c2.5-11.2,5.5-22.9,9-34.1c0.7-2.4,2.5-3.7,4.2-3.7
			c2.2,0,4.1,2.3,3,6c-8.4,27.5-13.7,54.2-13.7,64.3c0,8.3,2.3,11.2,4.4,11.2c3.8,0,11.3-4.9,18.5-23.6c0.8-2.2,1.9-2.9,3.2-2.9
			C361.1,194.9,363.3,196.8,361.7,201.4z M326.8,196.2l0.2-1.1c-1.8,0.4-3.6-0.2-3.1-2.3c2.4-9.5,0.6-16.3-4-16.3
			c-8.5,0-14.4,18.5-14.4,30.1c0,10.4,2.5,14.2,5.8,14.2C316.9,220.8,324.5,208.2,326.8,196.2z"/>
		<path fill="#F9E276" d="M403.8,202.1c-5.8,14.2-18.2,25.7-31,25.7c-14.6,0-16.6-13.4-16.6-24.1c0-16.4,8.4-35.2,21.7-35.2
			c6.6,0,10.7,5.2,10.7,12.2c0,11.4-8.5,26.3-25.2,26.6c0.6,7.8,3.2,14.3,9.2,14c8.8-0.2,17.6-7.8,25.1-22.2c1-2.3,2.4-3.1,3.7-3.1
			C403.5,196.1,405.3,198.2,403.8,202.1z M363.5,201.2c12-0.4,18-13.1,18-19.3c0-5.2-1.9-6.8-4-6.8
			C370.8,175.1,364.3,188.4,363.5,201.2z"/>
		<path fill="#F9E276" d="M439.5,199.7c-1.9-0.1-3.8-0.1-5.9-0.1c-1.9,0-3.8,0-5.8,0.1c0.6,2.2,0.8,4.7,0.8,7.6
			c0,13.3-5.9,36.8-19.2,36.8c-5.6,0-11.5-2.5-11.5-15.5c0-6.6,1.2-15.7,3-25.8c-2.6,0.5-3.2-1.1-3.2-2.6c0-1.7,1.9-3.6,4.8-5.3
			c4-18.8,9.7-39.2,14-51.5c0.8-2.3,2.5-3.7,4.2-3.7c2.2,0,4.2,2.3,3,6c-4.8,14.6-9.4,31.3-12.7,46.3c2.2-0.5,4.4-0.7,6.8-0.7
			c2.3,0,4.2,0.6,5.9,1.8c3.8-0.4,7.8-0.5,10.8-0.5c2.2,0,4.2,0.1,6,0.4C445.5,193.6,446.2,200,439.5,199.7z M420.4,200.2
			c-4,0.2-7.9,0.7-11.4,1.2c-2.3,11.5-3.7,21.1-3.7,26.6c0,8.4,1.6,9.7,3.7,9.7c6.4,0,12.2-16.9,12.2-31.7
			C421.2,203.4,420.9,201.5,420.4,200.2z"/>
		<path fill="#F9E276" d="M481.6,174.5c-3.7,17.8-11.5,64-11.8,65.3c-2,14-7.1,18.1-13.2,18.1c-7.6,0-11.4-5.3-11.4-11.6
			c0-9.7,9.2-15.8,19.2-18.1l1.6-9.7c-3.2,5-7.7,8.9-13.3,8.9c-8.8,0-13.1-7.8-13.1-18.8c0-18.5,7.6-38.5,21.7-38.5
			c6.1,0,10,4.3,11.4,9.7l1.7-7.4c0.6-2.5,2.5-3.7,4.2-3.7C480.7,168.5,482.5,170.8,481.6,174.5z M468.9,194.9
			c-1.9,0.7-4.1,0.2-3.6-2c2.4-9.5,0.6-16.3-4-16.3c-8.5,0-14.4,18.5-14.4,30.1c0,10.4,2.5,14.2,5.8,14.2
			C460.1,220.8,465.1,208.6,468.9,194.9z M462.6,239.9l0.7-4.7c-5.9,2-11,5.9-11,10.8c0,2.6,1.3,4.9,3.8,4.9
			C459,250.9,461.2,247.9,462.6,239.9z"/>
		<path fill="#F9E276" d="M550.1,198.1c-4.9,17.3-14.5,29.9-26.2,29.9c-7.6,0-10.1-6.2-10.1-13.8c0-7.9,2.3-20.5,4.8-31.7
			c-2.4,5.8-5.9,13.3-10.3,22c-8.5,16.3-12.2,22.7-17.2,22.7c-4.3,0-4.7-4.1-4.7-7c0-15.5,8.5-60,14-76.8c1.8-5.4,9-3.8,7,2.9
			c-4.3,14.2-12,52.9-13.8,70.2c6-11,11.9-22.3,18.7-37c4.2-8.9,6.6-10.4,10.1-10.4c2.8,0,4.7,2.4,4.7,5.8c0,5.5-6,27.4-6,38.3
			c0,6.2,1.2,8.5,3.2,8.5c2.2,0,10.2-1.2,19.8-26.4C545.8,191.2,551.7,192.6,550.1,198.1z"/>
		<path fill="#F9E276" d="M550.5,211.4c0,6,1.6,9,3.8,9c2.9,0,9.8-2.2,19.8-24.8c0.7-1.7,1.9-2.6,3.4-2.6c1.8,0,3.8,1.9,2.5,5.4
			c-9.2,24.6-20,28.7-26.2,28.7c-8.2,0-10.7-7.2-10.7-14.5c0-12,2.6-24.8,6-37.4c1.7-6.1,9.1-4.6,7.3,2
			C552.5,191.2,550.5,203.9,550.5,211.4z M558.1,161.6c4.3,0,9.2-3.1,9.2-9.1c0-4.4-3.1-8.6-8.9-8.5c-5.3,0.1-8.6,4.1-8.6,9
			C549.9,158.8,553.7,161.6,558.1,161.6z M558.5,149.3c2,0,3.2,1.4,3.2,3.4c0,2.2-1.7,3.4-3.2,3.4c-2.4,0-3.2-1.6-3.2-3.4
			C555.3,150.4,557.1,149.3,558.5,149.3z"/>
		<path fill="#F9E276" d="M585.5,175.4c-3.6,18.8-12.8,65.2-14.4,72.4c-2,9.5-6.1,14.6-13.9,14.6c-5.6,0-10.3-4.3-10.3-11.6
			c0-9.2,6.1-20.9,21-22.1c2.6-13.8,6.5-33.5,10.3-54c1-4,3.1-4.9,4.3-4.9C584.7,169.8,586.3,171.7,585.5,175.4z M566.4,235.6
			c-8.4,2.2-12.4,8.3-12.4,14.6c0,4.7,2.2,5.4,3.8,5.4c3.1,0,5.3-4.4,6.1-8.5L566.4,235.6z M593.8,151.4c0,6-4.9,9.1-9.2,9.1
			c-4.4,0-8.3-2.9-8.3-8.6c0-4.9,3.4-9,8.6-9C590.7,142.9,593.8,147,593.8,151.4z M588.1,151.6c0-1.9-1.2-3.4-3.2-3.4
			c-1.3,0-3,1-3.2,3.2c0.1,1.9,1,3.5,3.2,3.5C586.5,154.9,588.1,153.6,588.1,151.6z"/>
		<path fill="#F9E276" d="M658.8,197.3c-5.9,16.6-16,29.9-26.3,29.9c-7.8,0-12.5-11.4-12.5-23c-10.3,17.6-14.9,23-19.9,23
			c-4.4,0-5.5-3.6-5.5-8c0-16.6,9.7-60.5,14.9-76.4c0.8-2.5,2.6-3.4,4.3-3.4c2.4,0,4,2.4,3,5.4c-7.6,24.7-14.5,61.7-15.2,75.1
			c5.8-7.1,15.7-23.4,24.1-43.9c0.4-0.7,2.3-1.3,4.4-1.3c3,0,6.4,1.2,6.4,4.7c0,4.9-7.2,11.3-9.8,15.7c-0.8,1.3,1.6,25.7,6.2,25.7
			c2.9,0,10-4.3,19.7-25.6c0.6-1.2,1.8-3,3.8-3C658.1,192.1,660,193.9,658.8,197.3z"/>
		<path fill="#F9E276" d="M670.6,146.3c-4.8,19.7-12.4,52.9-12.4,66.5c0,5.3,1.1,7.7,4.3,7.7c2.8,0,11.5-3.5,22.9-26
			c0.7-1.3,2-2.4,3.5-2.4c2.2,0,4.3,2.3,2.4,6.1c-13.4,26.9-24.1,28.9-30,28.9c-7.4,0-10.6-5.9-10.6-12.6c0-19.6,9.8-59.5,12.8-71
			C664.7,139.1,672.3,139.3,670.6,146.3z"/>
		<path fill="#F9E276" d="M778.7,198.7c-10.8,24.4-21,28.2-26.9,28.2c-7.1,0-9.2-7-9.2-15.2c0-3.5,0.4-7.1,0.8-10.6
			c-6,15.5-13.3,25.9-20.5,25.9c-6.4,0-8.4-6.8-8.4-15.5c0-4.8,0.6-10.4,1.6-15.7c-8.5,24-15.7,31.9-22.9,31.9
			c-7.9,0-9.5-7.6-9.5-15.8c0-13.3,4.3-32.6,7.4-40.8c0.7-1.8,2.3-2.8,3.8-2.8c2.2,0,4.2,1.8,3.1,5.6c-5.5,20-7.3,32.6-7.3,39.4
			c0,5.6,1.3,7.6,2.9,7.6c7.8,0,19.9-38.9,22.9-44.2c1-1.7,2.6-2.6,4.7-2.6c2.9,0,5.6,2.5,4.7,7.1c-3,14.9-4.3,25.4-4.3,31.8
			c0,5,0.8,7.6,2.3,7.6c4.2,0,13.2-20.2,19.6-37.1c0.8-2.2,2.9-3.5,4.9-3.5c2.5,0,5.2,2,4.3,6.5c-1.8,9.8-3,19.3-3,25.7
			c0,5.2,0.7,8.4,2.9,8.4c4.2,0,11.9-6.8,20.5-25.1c0.8-1.6,2.2-2.5,3.5-2.5C778.6,193,780.4,194.8,778.7,198.7z"/>
		<path fill="#F9E276" d="M835,199.6c-8.4,16.9-17.4,27.5-26.9,27.5c-7.7,0-9.8-5.5-9.8-11.8c0-6.4,1.6-15.8,3.5-24.2
			c-3.8,7.1-7.8,14.4-10.2,18.4c-6.5,10.4-10.6,17.6-15.4,17.6c-5.2,0-5.6-4.4-5.6-9.7c0-12.5,5-35,8.6-45.8
			c0.5-1.4,2.2-2.8,3.6-2.8c2.3,0,4.4,1.8,3.2,5.6c-4.6,14.9-8,35.6-8.5,44.2c5.8-8.9,15.4-26,21.1-35.9c1.9-3.4,4-5.8,6.7-5.8
			c2.5,0,5,1.9,5,6.1c0,3.4-5,23.2-5,31.7c0,4,1,6,2.8,6c3.1,0,11.5-6.2,21.2-24.5C831.9,191.5,837.9,193.8,835,199.6z"/>
		<path fill="#F9E276" d="M279.3,368.9c-9.7,0.5-18,0.7-23.3,1.4c-4.4,0.6-10.6,1.4-13.1,1.4c-3,0-5-0.5-5-2.6
			c0-1.9,1.4-2.9,3.2-3.7c3.8-1.8,12.8-4.6,15.6-5.5c1.7-10.7,3.5-21.4,6.6-37c-6.4,7.1-15.8,17.8-23.6,25.2
			c-1.3,1.2-2.5,1.7-3.6,1.7c-2.9,0-4.3-3.8-1.8-6.6c9-9.7,19-20.3,27.4-29.2c2.2-2.4,4.7-4.7,7.2-4.7c1.9-0.1,3.6,1.4,2.8,6.7
			c-4,25.3-6,35.6-7.8,46.4c4.7-0.2,10.1-0.6,15.4-0.8C285.5,361.3,285.1,368.5,279.3,368.9z"/>
		<path fill="#F9E276" d="M333.4,370.9c-15.8,0.7-33,2.3-38.6,2.6c-2.5,0.1-4.2-1.1-4.2-2.6c0-1.2,0.5-2.6,2.5-3.8
			c18.1-10.6,36.2-22.7,36.2-37.2c0-8.6-5.5-13.2-13.2-13.2s-16.4,5.2-16.4,14.6c0,3.5,0.7,6,2.9,9.5c0.6,1,0.7,1.8,0.7,2.5
			c0,3.2-5,4-7.1,0.8c-2.6-3.8-3.8-7.6-3.8-12.2c-0.1-14.2,11-22.2,23.8-22.2c11.5,0,20.5,7.3,20.5,20c0,14.2-11.5,26.8-27.8,35.5
			c6.5-0.7,19.1-1.4,24.5-1.7C339.5,363.4,338.9,370.6,333.4,370.9z"/>
		<path fill="#F9E276" d="M373.9,331.9c13.4,0,16.9,10.2,16.9,18.4c0,9.7-7,26.2-25.3,27.5c-13,1-20.6-6.6-20.6-18.6
			c0-4.2,0.6-8.5,2.8-12.4c1.2-2.3,3.2-3.4,4.8-3.4c2.3,0,4,2.2,2,6c-1.1,2-2.4,5.4-2.4,8.9c0,10.3,7,13.4,13.8,12.5
			c10.8-1.6,17.6-11.3,17.6-20.5c0-7.7-3-14-19.6-11.4c-1.2,0.1-3.7-0.4-3.7-2.8c0-1.4,0.7-2.5,4-5.5c3.5-3.2,8.3-7.9,13.9-13.4
			c-5.9,0.5-17.3,1.2-22.1,1.4c-2.8,0.2-4.3-1.4-4.3-3.4c0-1.8,1.3-3.7,4.1-3.8c12.1-0.7,18-1.2,27.2-1.8c3.4-0.2,5.3,0.4,5.9,2.8
			c0.4,1.4-0.4,3.5-2,5.2c-3.1,3.4-8.3,9-13.8,14.4H373.9z"/>
		<path fill="#F9E276" d="M448.8,351.7c0,1.8-1.4,4-4.2,4.3l-7.3,0.7c-1.1,6.5-2.2,12.6-2.9,17.2c-0.5,2.8-2.3,4.1-4.1,4.1
			c-1.9,0-3.6-1.6-3.2-4.3c0.7-4.8,1.7-10.7,2.5-16.2c-9.2,0.7-20.8,1.7-28.2,2.2c-3,0.2-4.6-1.2-4.6-3.7c0-1.7,0.8-3.8,2.4-6.1
			c7-9.7,23-32.2,31.6-44.2c1-1.4,2.4-2.3,3.8-2.3c2.8,0,5.2,2.4,2.2,6.7c-7.6,10.8-21.5,30-30.1,42c4-0.5,13.6-1.6,24.2-2.4
			l1.8-10.7c0.5-2.9,2.3-4.3,4.2-4.3c1.8,0,3.6,1.6,3.1,4.8l-1.6,9.6c1.9-0.2,4-0.4,5.9-0.5C447.4,348.4,448.8,349.9,448.8,351.7z"
			/>
		<path fill="#F9E276" d="M474.9,318.5c-0.6,3.2-1.2,8.2-1.9,12.1c1.9-1.2,5.5-2.3,9.6-2.3c10.8,0,18.7,8.4,18.7,20.4
			c0,18-12.8,29.6-26.8,29.6c-17.3-0.1-19.8-16.6-15.4-29.5c1.9-5.8,8.9-3.5,7.1,2.2c-3.6,11.4-2,20.2,8.5,20.2
			c9.6,0,19.3-8.8,19.3-22.1c0-7.8-4.3-13.9-12.7-13.9c-2.6,0-5.4,0.8-8.2,2.3c-6.1,3.4-8.3-0.2-7.8-4.3c1-7.7,1.8-13.2,2.5-17.5
			c0.5-2.6,1.6-4.2,4.9-4.4c6.6-0.4,10.4-0.6,25.7-1.3c5.8-0.2,6.8,7-0.1,7.3C490.8,317.6,482.9,318,474.9,318.5z"/>
		<path fill="#F9E276" d="M544.8,304.8c-17.5,6.7-27,23.4-27,40.1c0,13,4.2,20.2,11,20.2c12.5,0,19.6-17.8,19.6-30
			c0-7.7-2.9-10.7-6.4-10.7c-5.9,0-10.7,9.6-11.9,18c-0.7,4.9-7.7,5.6-7.2-1c0.8-11.6,9.1-24.1,19.8-24.1c7.4,0,13,6.5,13,17.4
			c0,16.1-9.4,37.3-26.8,37.3c-12.8,0-18.5-11-18.5-28.1c0-15.5,8.6-36.4,30.8-45.4C547.8,295.9,550.5,302.6,544.8,304.8z"/>
		<path fill="#F9E276" d="M598.7,349.2c2.6-0.1,4.1,1.7,4.1,3.5c-0.1,1.9-1.4,3.8-3.8,3.8h-15.6c-2.4,5.4-4.9,11.3-7.6,18.5
			c-0.7,2-2.3,3.1-4.1,3.1c-2.3,0-3.8-1.7-2.8-5.4c1.1-3.7,3.6-9.5,6.6-16.1h-9.2c-2.3,0.1-3.6-1.7-3.7-3.6c0.1-1.8,1.3-3.6,4-3.6
			l12.4-0.1c5.4-11.2,11.6-23.3,16.2-31.6c-9.4,0.4-18.7,0.6-28.6,0.6c-3.7,0-5-1.6-5-3.5c0-1.7,1.1-3.7,4.4-3.7
			c13.4,0,18-0.1,31-0.6c4.6-0.1,6.8,1,6.8,4.3c0,1.7-0.7,3.5-1.9,5.9c-5.9,11.2-10.4,19.2-15.1,28.4H598.7z"/>
		<path fill="#F9E276" d="M639,340.9c3.4,3.7,5.8,8.3,5.8,14.6c0,11.3-8.4,16.6-16.2,16.6c-6.5,0-13.4-3.5-13.4-13.4
			c0-8.5,5.6-13.8,12.2-18.5c-7.1-5.4-15.2-10.7-15.2-20.8c0-9.8,8.2-21.8,22.2-21.7c10.6,0,20.6,6.8,20.6,20.3
			C655,328.7,647.1,335.2,639,340.9z M647.7,317.2c0-7.4-6.1-12.2-12.7-12.2c-9.1,0-15.5,6.2-15.5,14.9c0,6.8,7.4,10.8,14.2,16.2
			C640.9,331.1,647.7,325.9,647.7,317.2z M632.9,345.1c-5.8,4.1-10.4,8.3-10.4,13.7c0,4.9,3.1,6.4,6.5,6.4c5.2,0,8.6-4.2,8.6-9.8
			C637.6,351.2,635.7,348,632.9,345.1z"/>
		<path fill="#F9E276" d="M701.9,336.6c0,15.5-7.7,39.1-28.3,46.8c-6.6,2.4-9.1-4.1-3.5-6.2c6.7-2.6,11.9-7,15.7-12.4
			c-2.8,1.4-5.9,2.2-9.2,2.2c-8.8,0-17.4-5.2-17.4-21.7c0-14.8,7.1-35.6,24.5-35.6C696.5,309.6,701.9,319.6,701.9,336.6z
			 M694.6,335.6c0-13-4-19.1-10.8-19.1c-12.5,0-17.4,18.1-17.4,28.4c0,14,7.8,14.9,11.4,14.9c10.1-0.1,15.5-12.2,16.7-20.8
			C694.6,338,694.6,336.8,694.6,335.6z"/>
		<path fill="#F9E276" d="M752.9,334c0,16.4-9,37.2-24.8,37.2c-8.3,0-15-5.9-15-20.3v-1.1c-1.6-0.4-2.9-1.9-2.9-4.2
			c0-21.5,11.5-36.1,24.6-36.1C743.5,309.5,752.9,316.2,752.9,334z M745.3,333c0-11.2-5.3-16.6-10.9-16.6c-4.6,0-8.5,3.6-11.5,8.8
			c1.3,0.7,2.3,2.3,1.4,4.6c-2.8,7.8-4,15.1-4,20.9c0,10.2,4.1,13.4,8,13.4C738.3,364.1,745.3,347.5,745.3,333z"/>
	</g>
</g>
</svg>
