<?xml version="1.0" encoding="utf-8"?>
<!-- Generator: Adobe Illustrator 19.2.1, SVG Export Plug-In . SVG Version: 6.00 Build 0)  -->
<svg version="1.1" id="Layer_1" xmlns="http://www.w3.org/2000/svg" xmlns:xlink="http://www.w3.org/1999/xlink" x="0px" y="0px"
	 viewBox="0 0 858.2 392.9" enable-background="new 0 0 858.2 392.9" xml:space="preserve">
<g>
	<g>
		<path fill="#474A58" d="M116.2,59.6c-5.3,19.6-13.4,27.8-25,27.8c-14.2,0-13.8-15.2-13.8-23.4c0-7.6,1.9-20.3,4-30.7
			c-7.9,17.5-16.2,34.2-20.6,42.8c-1.8,3.6-3.2,4.7-4.9,4.7s-3.5-1-3.2-4.9c0.5-9.6,1.1-30.5,3-48.1C45.2,58.3,32.3,87.7,13.9,87.7
			C4.2,87.7,0,81.8,0,73.7c0-4.3,1.2-9.4,3.5-14.5c0.8-1.9,2.4-2.9,3.8-2.9c2.3,0,4.3,2.4,2.6,6.4C8.2,67,7.3,70.6,7.3,73.2
			c0,5.3,2.9,7.6,7.1,7.6c11.3,0,25.2-24.5,40.1-71.8c0.6-2,2.5-3.7,5.3-3.7c2.5,0,4.7,1.9,4.3,6.6c-0.8,14.3-2.4,32.4-3.5,48.7
			c7.9-16.2,19.6-40.7,23.9-49.9c1-2.2,3-3.4,4.8-3.4c2.6,0,4.8,2.3,3.7,7c-5.2,22.3-8,39.8-8,51.2c0,10.4,1.6,15.1,6.6,15.1
			c6.8,0,14.2-7,17.9-22.8C110.8,52.6,117.7,54,116.2,59.6z"/>
		<path fill="#474A58" d="M173.2,59.3C163,83,152.6,87.8,146.4,87.8c-7,0-9.2-6.6-9.2-15.8c0-2.2,0.1-4.3,0.4-6.6
			c-5.3,12.8-11,22.2-19.2,22.2c-8.3,0-10.4-6.7-10.4-15.7c0.1-10.8,3.8-28.8,7.1-39.6c1.4-4.9,8.5-3.8,7,2.5
			c-4.7,19.3-6.7,30.4-6.7,37.7c0,5.6,1.4,8.5,3.5,8.5c4.2,0,12.8-14.6,22.4-46.1c1.3-4.4,3.5-5.6,5.5-5.6c2.4,0,4.4,2.2,3.1,7.1
			c-3.5,13.6-5.4,26.9-5.4,35.5c0,5.9,0.8,9.4,2.6,9.4c4,0,12.4-8,19.6-24.5c0.7-1.7,2-2.9,3.7-2.9
			C172.3,53.9,174.4,55.6,173.2,59.3z"/>
		<path fill="#474A58" d="M234.7,64.8c-4.6,12.6-11.5,23-22.7,23c-7.1,0-13.3-4.4-18.4-8.9c-5.6,8-9.2,8.9-12.7,8.9
			c-5.2,0-9.8-3.1-9.8-10.9c0-8.3,4.3-13.6,11-13.6c3,0,6.6,2.3,10.3,5l2.9-4.8c4.8-8.4,7.9-14.5,11.2-20.4c-3.7,1.7-8,2.2-10,2.2
			c-7.2,0-15.7-2.5-15.7-10.9c0-3,1.4-5.3,4.1-5.3c1.8,0,3.1,1.7,3.1,3.6c0,5,5.9,5.6,9,5.6c3.7,0,9.6-1.4,16.6-7.2
			c3.5-2.9,8.6-0.4,5.6,4.8c-3.4,5.9-14.8,25.7-21.5,36.6c5.2,4.3,10.3,8.4,14,8.4c2.5,0,9-0.5,17.2-20
			C230.5,57.2,237.2,57.7,234.7,64.8z M188.8,74.4c-2.8-2.5-4.9-4.4-6.6-4.4c-2.3,0-4,2.5-4.1,6.4c-0.1,3.2,1.4,5,3.6,5
			C183.5,81.4,186,78.6,188.8,74.4z"/>
		<path fill="#474A58" d="M266.9,34.6c-2.5,13-7.2,37.7-10.4,54.4c1,0.1,1.9,0.2,2.9,0.4c6.2,1.1,4.1,7-0.8,6.1
			c-1.1-0.2-2.2-0.4-3.2-0.4l-1.9,9.6c-2,9.5-6.1,14.5-13.9,14.5c-5.6,0-10.3-4.2-10.3-10.2c0-13.4,10.3-18.8,20.3-19.9l3.2-17.2
			c-3.6,8.3-9,15.8-15.7,15.8c-8,0-9.4-6.4-9.4-14c0-12.1,3.5-31.9,6.7-41.2c0.6-1.8,2.3-2.9,4-2.9c2,0,3.8,1.7,3,5.5
			c-4.3,17.2-6.5,30.2-6.5,38c0,5.8,0.6,8,3,8c3,0,12.5-9.7,21.8-47.4c1-3.8,3.1-4.9,4.3-4.9C266,28.9,267.7,30.8,266.9,34.6z
			 M246.2,103.9l1.8-8.4c-7.6,1.8-11.6,7.4-11.6,13.1c0,3.1,2,4.1,3.7,4.1C243.2,112.7,245.4,108,246.2,103.9z"/>
		<path fill="#474A58" d="M335.9,58c-5.9,16.6-16,29.9-26.3,29.9c-7.8,0-12.5-11.4-12.5-23c-10.3,17.6-14.9,23-19.9,23
			c-4.4,0-5.5-3.6-5.5-8c0-16.6,9.7-60.5,14.9-76.4c0.8-2.5,2.6-3.4,4.3-3.4c2.4,0,4,2.4,3,5.4c-7.6,24.7-14.5,61.7-15.2,75.1
			c5.8-7.1,15.7-23.4,24.1-43.9c0.4-0.7,2.3-1.3,4.4-1.3c3,0,6.4,1.2,6.4,4.7c0,4.9-7.2,11.3-9.8,15.7c-0.8,1.3,1.6,25.7,6.2,25.7
			c2.9,0,10-4.3,19.7-25.6c0.6-1.2,1.8-3,3.8-3C335.2,52.8,337.1,54.6,335.9,58z"/>
		<path fill="#474A58" d="M392,62c-4.9,14.6-14.5,26.4-24.1,26.4c-4.7,0-9.8-1.9-11.3-13c-3.4,6.7-8,12.5-15,12.5
			c-8.8,0-13.1-7.8-13.1-18.8c0-18.5,7.6-38.5,21.7-38.5c5.6,0,9.4,3.7,11,8.6c0.6-2.4,1.3-4.6,2-6.4c0.8-2.5,2.5-3.7,4.2-3.7
			c2.2,0,4.2,2.3,3,6c-5.2,16.1-7.1,29.2-7.1,35.8c0,9.1,2.3,11.2,4.4,11.2c3.8,0,11.3-4.9,18.5-23.6c0.8-2.2,1.9-2.9,3.2-2.9
			C391.4,55.6,393.6,57.5,392,62z M357.1,56.9l0.2-1.1c-1.8,0.4-3.6-0.2-3.1-2.3c2.4-9.5,0.6-16.3-4-16.3
			c-8.5,0-14.4,18.5-14.4,30.1c0,10.4,2.5,14.2,5.8,14.2C347.3,81.5,354.6,69,357.1,56.9z"/>
		<path fill="#474A58" d="M479.9,56.5c-8.3,23.8-17.6,31.2-26.8,31.2c-8.9,0-14.6-11.2-14.9-23c-3.6,5.8-7.4,12.7-11.5,18.5
			c-2.8,3.7-4.8,4.6-6.8,4.6c-4.4,0-4.9-4-4.9-8.3c0-13.3,5.9-45.5,13.9-71.2c1.7-5.4,9.1-4.2,7.2,2.4c-10.1,35.2-12.6,54.6-14,66.2
			c5.5-7.4,20.5-31.6,38.9-63.1c2.6-4.4,9.8-1.9,6.5,4.1c-8.6,15.6-23,37.8-23,38.5c0,4.8,2.5,24.5,9.1,24.5c4.8,0,11.2-5.2,20-28.4
			C475.1,48.5,482.5,49,479.9,56.5z"/>
		<path fill="#474A58" d="M536.8,59.3C526.6,83,516.2,87.8,510,87.8c-7,0-9.2-6.6-9.2-15.8c0-2.2,0.1-4.3,0.4-6.6
			c-5.3,12.8-11,22.2-19.2,22.2c-8.3,0-10.4-6.7-10.4-15.7c0.1-10.8,3.8-28.8,7.1-39.6c1.4-4.9,8.5-3.8,7,2.5
			c-4.7,19.3-6.7,30.4-6.7,37.7c0,5.6,1.4,8.5,3.5,8.5c4.2,0,12.8-14.6,22.4-46.1c1.3-4.4,3.5-5.6,5.5-5.6c2.4,0,4.4,2.2,3.1,7.1
			c-3.5,13.6-5.4,26.9-5.4,35.5c0,5.9,0.8,9.4,2.6,9.4c4,0,12.4-8,19.6-24.5c0.7-1.7,2-2.9,3.7-2.9C535.9,53.9,538,55.6,536.8,59.3z
			"/>
		<path fill="#474A58" d="M586.1,58.3c-5.6,4.9-13.9,11-22.9,13.7c-3.8,9-10.3,16-18.8,16c-10.4,0-14.4-8.9-14.4-21.4
			c0-13.2,3.8-34.7,12.8-61.8c1.2-3.5,3.1-4.4,4.7-4.4c2.4,0,4.1,2.5,2.8,6.4c-2.9,8.4-5.9,18.2-8.4,28.4c2.9-3.6,6.6-6,11.2-6
			c7.2,0,14.6,5.4,14.6,21.8c0,4.1-0.6,8.5-1.7,12.8c5.4-2.8,10.8-7,16-11.4C586.3,48.6,591,53.9,586.1,58.3z M554.4,73.4h-0.1
			c-8.8,0-14.4-3-16.9-9.2v2.6c0,8.8,1.9,14.6,7.2,14.6C547.8,81.5,551.5,78.4,554.4,73.4z M542.4,54.1c0,10.1,5.5,13,11.9,13
			c1.1,0,2.2-0.1,3.2-0.2c1.7-4.8,2.8-10.3,2.8-16.1c0-9.1-2.9-15.2-7.3-15.2C546.7,35.5,542.4,45.8,542.4,54.1z"/>
		<path fill="#474A58" d="M643.9,62c-4.9,14.6-14.5,26.4-24.1,26.4c-4.7,0-9.8-1.9-11.3-13c-3.4,6.7-8,12.5-15,12.5
			c-8.8,0-13.1-7.8-13.1-18.8c0-18.5,7.6-38.5,21.7-38.5c5.6,0,9.4,3.7,11,8.6c0.6-2.4,1.3-4.6,2-6.4c0.8-2.5,2.5-3.7,4.2-3.7
			c2.2,0,4.2,2.3,3,6c-5.2,16.1-7.1,29.2-7.1,35.8c0,9.1,2.3,11.2,4.4,11.2c3.8,0,11.3-4.9,18.5-23.6c0.8-2.2,1.9-2.9,3.2-2.9
			C643.3,55.6,645.5,57.5,643.9,62z M609,56.9l0.2-1.1c-1.8,0.4-3.6-0.2-3.1-2.3c2.4-9.5,0.6-16.3-4-16.3
			c-8.5,0-14.4,18.5-14.4,30.1c0,10.4,2.5,14.2,5.8,14.2C599.2,81.5,606.5,69,609,56.9z"/>
		<path fill="#474A58" d="M701.5,60.7c-5.4,14.6-18.2,27-27.7,27c-7.7,0-9.8-5.5-9.8-11.8c0-6.4,1.6-15.8,3.5-24.2
			c-3.8,7.1-7.8,14.4-10.2,18.4c-6.5,10.4-10.6,17.6-15.4,17.6c-5.2,0-5.6-4.4-5.6-9.7c0-12.5,5-35,8.6-45.8
			c0.5-1.4,2.2-2.8,3.6-2.8c2.3,0,4.4,1.8,3.2,5.6c-4.6,14.9-8,35.6-8.5,44.2c5.8-8.9,15.4-26,21.1-35.9c1.9-3.4,4-5.8,6.7-5.8
			c2.5,0,5,1.9,5,6.1c0,3.4-5,23.2-5,31.7c0,4,1,6,2.8,6c3.1,0,12-5,21.7-23.3C698,53.4,703.7,54.8,701.5,60.7z M660.4,23
			c1.8-4.2,3-7.1,5.2-11.8c1.1-2.2,2.9-2.9,4.4-2.6c2.3,0.4,3.6,2.8,2.3,5.6c-1.8,3.8-2.4,5.5-5.6,11.6c-1,1.9-2.9,2.6-4.3,2.4
			C660.4,28,659,25.9,660.4,23z"/>
		<path fill="#474A58" d="M738.8,59.3c-7.6,1.2-13.4,3.1-18,5.3c1.9,3.7,2.8,7.2,2.8,10.8c0,8.3-5.3,13.1-12.1,13.1
			c-4.9,0-10.1-4-10.1-10.9c0-2.9,1.2-9.4,9.1-15c-3.8-5.2-8-10-8.2-15.8c0-9.5,8-17.9,18.5-17.9c5,0,10.3,3,10.3,12
			c0,3.6-1.1,6.8-4.2,6.8c-3.5-0.1-2.9-3.5-2.9-6.8c0-3.7-1.8-4.9-3.8-4.9c-5.8,0-10.7,5-10.7,10.7c0,3.7,3.6,7.2,6.7,11l0.8,1.1
			c5-2.5,11.8-4.9,20.9-6.4C742.8,51.6,744.2,58.4,738.8,59.3z M716.4,76.7c0-3-0.8-5.6-2-8.2c-4,3.2-5.8,6.6-5.8,9.1
			c0,2.3,1.2,4.3,3.7,4.3C715.6,82,716.4,78.5,716.4,76.7z"/>
		<path fill="#474A58" d="M801.5,58c-5.9,16.6-16,29.9-26.3,29.9c-7.8,0-12.5-11.4-12.5-23c-10.3,17.6-14.9,23-19.9,23
			c-4.4,0-5.5-3.6-5.5-8c0-16.6,9.7-60.5,14.9-76.4c0.8-2.5,2.6-3.4,4.3-3.4c2.4,0,4,2.4,3,5.4c-7.6,24.7-14.5,61.7-15.2,75.1
			c5.8-7.1,15.7-23.4,24.1-43.9c0.4-0.7,2.3-1.3,4.4-1.3c3,0,6.4,1.2,6.4,4.7c0,4.9-7.2,11.3-9.8,15.7c-0.8,1.3,1.6,25.7,6.2,25.7
			c2.9,0,10-4.3,19.7-25.6c0.6-1.2,1.8-3,3.8-3C800.8,52.8,802.7,54.6,801.5,58z"/>
		<path fill="#474A58" d="M857.6,62c-4.9,14.6-14.5,26.4-24.1,26.4c-4.7,0-9.8-1.9-11.3-13c-3.4,6.7-8,12.5-15,12.5
			c-8.8,0-13.1-7.8-13.1-18.8c0-18.5,7.6-38.5,21.7-38.5c5.6,0,9.4,3.7,11,8.6c0.6-2.4,1.3-4.6,2-6.4c0.8-2.5,2.5-3.7,4.2-3.7
			c2.2,0,4.2,2.3,3,6c-5.2,16.1-7.1,29.2-7.1,35.8c0,9.1,2.3,11.2,4.4,11.2c3.8,0,11.3-4.9,18.5-23.6c0.8-2.2,1.9-2.9,3.2-2.9
			C857,55.6,859.2,57.5,857.6,62z M822.7,56.9l0.2-1.1c-1.8,0.4-3.6-0.2-3.1-2.3c2.4-9.5,0.6-16.3-4-16.3
			c-8.5,0-14.4,18.5-14.4,30.1c0,10.4,2.5,14.2,5.8,14.2C812.9,81.5,820.2,69,822.7,56.9z"/>
		<path fill="#474A58" d="M117.4,206.6c-7.6,17.9-17,25.4-26.9,25.6c-8.4,0-12.4-5.8-12.4-13.7c0-16.1,10.9-51,5.2-51
			c-5,0-25,23.4-33.1,59.3c-0.7,3.2-2.4,4.8-4.3,4.8c-2.5,0-4.2-1.8-3.4-5.8c3.2-14.8,16.7-69.6,10.3-69.6c-6.7,0-22,24.5-26.9,42.7
			c-1.6,5.9-8.5,3.1-7-2.3c7-24.2,23.2-47.5,34.6-47.5c6.8,0,8.5,7.2,8.5,11.2c0,7.6-1.1,13.7-4.2,27.4
			c9.1-17.6,19.1-27.2,26.4-27.2c5.4,0,8.2,3.8,8.3,11.8c0.1,10.3-6.8,34-6.8,45.1c0,6.5,1.7,8.2,5,8.2c4.9-0.1,13.1-5.9,20.2-22.6
			C113.2,197.5,120.1,200,117.4,206.6z"/>
		<path fill="#474A58" d="M174,206c-4.9,14.6-14.5,26.4-24.1,26.4c-4.7,0-9.8-1.9-11.3-13c-3.4,6.7-8,12.5-15,12.5
			c-8.8,0-13.1-7.8-13.1-18.8c0-18.5,7.6-38.5,21.7-38.5c5.6,0,9.4,3.7,11,8.6c0.6-2.4,1.3-4.6,2-6.4c0.8-2.5,2.5-3.7,4.2-3.7
			c2.2,0,4.2,2.3,3,6c-5.2,16.1-7.1,29.2-7.1,35.8c0,9.1,2.3,11.2,4.4,11.2c3.8,0,11.3-4.9,18.5-23.6c0.8-2.2,1.9-2.9,3.2-2.9
			C173.4,199.6,175.6,201.5,174,206z M139.1,200.9l0.2-1.1c-1.8,0.4-3.6-0.2-3.1-2.3c2.4-9.5,0.6-16.3-4-16.3
			c-8.5,0-14.4,18.5-14.4,30.1c0,10.4,2.5,14.2,5.8,14.2C129.2,225.5,136.6,213,139.1,200.9z"/>
		<path fill="#474A58" d="M209.9,179.2c-3.7,17.8-11.5,64-11.8,65.3c-2,14-7.1,18.1-13.2,18.1c-7.6,0-11.4-5.3-11.4-11.6
			c0-9.7,9.2-15.8,19.2-18.1l1.6-9.7c-3.2,5-7.7,8.9-13.3,8.9c-8.8,0-13.1-7.8-13.1-18.8c0-18.5,7.6-38.5,21.7-38.5
			c6.1,0,10,4.3,11.4,9.7l1.7-7.4c0.6-2.5,2.5-3.7,4.2-3.7C209,173.2,210.8,175.4,209.9,179.2z M197.2,199.6c-1.9,0.7-4.1,0.2-3.6-2
			c2.4-9.5,0.6-16.3-4-16.3c-8.5,0-14.4,18.5-14.4,30.1c0,10.4,2.5,14.2,5.8,14.2C188.4,225.5,193.4,213.2,197.2,199.6z
			 M190.9,244.6l0.7-4.7c-5.9,2-11,5.9-11,10.8c0,2.6,1.3,4.9,3.8,4.9C187.3,255.6,189.5,252.6,190.9,244.6z"/>
		<path fill="#474A58" d="M264.7,201.4c-11.8,4.4-20.2,0.1-22.1-8.4c-5.2,10.9-12.8,27-15.6,32.5c-2.4,4.9-4.4,6.1-6.4,6.1
			c-4.9,0-5.3-5.6-5.3-7.8c0-13.1,2.6-31.7,6.6-46.1c0.6-2.3,2.3-3.5,4-3.5c2.2,0,4,1.9,2.9,6c-2.8,10.6-6.2,28.6-6.7,40.1
			c5.5-12.1,17-35.9,19.8-42c1.8-4.1,3.1-5.4,5.3-5.4c1.7,0,4,1.1,3.5,4.7c-0.4,2.8-1.6,5.8-1.6,10.1c0,4,1.7,8.3,7,8.3
			c1.9,0,4.3-0.5,7.2-1.4C267.7,192.7,270.1,199.3,264.7,201.4z"/>
		<path fill="#474A58" d="M325.2,206c-4.9,14.6-14.5,26.4-24.1,26.4c-4.7,0-9.8-1.9-11.3-13c-3.4,6.7-8,12.5-15,12.5
			c-8.8,0-13.1-7.8-13.1-18.8c0-18.5,7.6-38.5,21.7-38.5c5.6,0,9.4,3.7,11,8.6c0.6-2.4,1.3-4.6,2-6.4c0.8-2.5,2.5-3.7,4.2-3.7
			c2.2,0,4.2,2.3,3,6c-5.2,16.1-7.1,29.2-7.1,35.8c0,9.1,2.3,11.2,4.4,11.2c3.8,0,11.3-4.9,18.5-23.6c0.8-2.2,1.9-2.9,3.2-2.9
			C324.6,199.6,326.8,201.5,325.2,206z M290.3,200.9l0.2-1.1c-1.8,0.4-3.6-0.2-3.1-2.3c2.4-9.5,0.6-16.3-4-16.3
			c-8.5,0-14.4,18.5-14.4,30.1c0,10.4,2.5,14.2,5.8,14.2C280.4,225.5,287.8,213,290.3,200.9z"/>
		<path fill="#474A58" d="M382,204.2c-8.4,16.9-17.4,27.5-26.9,27.5c-7.7,0-9.8-5.5-9.8-11.8c0-6.4,1.6-15.8,3.5-24.2
			c-3.8,7.1-7.8,14.4-10.2,18.4c-6.5,10.4-10.6,17.6-15.4,17.6c-5.2,0-5.6-4.4-5.6-9.7c0-12.5,5-35,8.6-45.8
			c0.5-1.4,2.2-2.8,3.6-2.8c2.3,0,4.4,1.8,3.2,5.6c-4.6,14.9-8,35.6-8.5,44.2c5.8-8.9,15.4-26,21.1-35.9c1.9-3.4,4-5.8,6.7-5.8
			c2.5,0,5,1.9,5,6.1c0,3.4-5,23.2-5,31.7c0,4,1,6,2.8,6c3.1,0,11.5-6.2,21.2-24.5C378.8,196.2,384.8,198.5,382,204.2z"/>
		<path fill="#474A58" d="M382.8,216.1c0,6,1.6,9,3.8,9c2.9,0,9.8-2.2,19.8-24.8c0.7-1.7,1.9-2.6,3.4-2.6c1.8,0,3.8,1.9,2.5,5.4
			c-9.2,24.6-20,28.7-26.2,28.7c-8.2,0-10.7-7.2-10.7-14.5c0-12,2.6-24.8,6-37.4c1.7-6.1,9.1-4.6,7.3,2
			C384.8,195.8,382.8,208.6,382.8,216.1z M390.5,166.3c4.3,0,9.2-3.1,9.2-9.1c0-4.4-3.1-8.6-8.9-8.5c-5.3,0.1-8.6,4.1-8.6,9
			C382.2,163.4,386,166.3,390.5,166.3z M390.8,154c2,0,3.2,1.4,3.2,3.4c0,2.2-1.7,3.4-3.2,3.4c-2.4,0-3.2-1.6-3.2-3.4
			C387.6,155,389.4,154,390.8,154z"/>
		<path fill="#474A58" d="M468.7,206c-4.9,14.6-14.5,26.4-24.1,26.4c-4.7,0-9.8-1.9-11.3-13c-3.4,6.7-8,12.5-15,12.5
			c-8.8,0-13.1-7.8-13.1-18.8c0-18.5,7.6-38.5,21.7-38.5c5.6,0,9.4,3.7,11,8.6c0.6-2.4,1.3-4.6,2-6.4c0.8-2.5,2.5-3.7,4.2-3.7
			c2.2,0,4.2,2.3,3,6c-5.2,16.1-7.1,29.2-7.1,35.8c0,9.1,2.3,11.2,4.4,11.2c3.8,0,11.3-4.9,18.5-23.6c0.8-2.2,1.9-2.9,3.2-2.9
			C468.1,199.6,470.3,201.5,468.7,206z M433.8,200.9l0.2-1.1c-1.8,0.4-3.6-0.2-3.1-2.3c2.4-9.5,0.6-16.3-4-16.3
			c-8.5,0-14.4,18.5-14.4,30.1c0,10.4,2.5,14.2,5.8,14.2C424,225.5,431.3,213,433.8,200.9z"/>
		<path fill="#474A58" d="M580.2,175c0,9.8-5.9,23.9-21,34.2c-4.9,3.4-9.5-2-4.2-5.9c11.2-8.2,17.6-18.4,17.6-28.6
			c0-10.3-8.2-18.6-23.2-18.6c-23.6,0-50.3,18.8-50.3,41.8c0,9.4,7.2,13.7,16.8,13.7c8.5,0,16.8-6,23.2-13.9
			c1.4-1.8,1.8-3.7,4.3-3.7c1.2,0,3,0.8,2.2,5.3c-0.7,4-4.9,29.9-5.4,32.5c-0.4,2.5-2.4,3.7-4.2,3.7c-1.9,0-3.6-1.3-3.2-4.1
			c0.4-3.2,2.2-13.6,3.4-20.3c-5.8,5-14,7.4-20.9,7.4c-13.8,0-23.6-7.4-23.6-21.6c0-26,29.5-47.8,58.6-47.8
			C568.3,149.2,580.2,159.6,580.2,175z"/>
		<path fill="#474A58" d="M619.6,195.6c0,18.6-8.3,36.1-21.5,36.1c-9.4,0-13.1-7.9-13.1-16.9c0-5.3,0.8-11,2.2-15.8
			c-0.4,0.1-0.7,0.2-1.1,0.2c-1.6,0-3.1-1.6-2.8-4.1c1.3-10.6,10.6-21.8,21.1-21.8C613.4,173.3,619.6,181.2,619.6,195.6z
			 M612.4,194.9c0-9.2-3.1-15.1-8.9-15.1c-4.3,0-9.5,5.2-12.2,11.5c0.5-0.2,1-0.4,1.4-0.4c2.2,0,4,2.2,2.8,5.2
			c-2.3,7.4-3.2,13.6-3.2,18.4c0,6.8,2.2,10.8,6.5,10.8C605.9,225.2,612.4,210.4,612.4,194.9z"/>
		<path fill="#474A58" d="M645,151c-4.8,19.7-12.4,52.9-12.4,66.5c0,5.3,1.1,7.7,4.3,7.7c2.8,0,11.5-3.5,22.9-26
			c0.7-1.3,2-2.4,3.5-2.4c2.2,0,4.3,2.3,2.4,6.1c-13.4,26.9-24.1,28.9-30,28.9c-7.4,0-10.6-5.9-10.6-12.6c0-19.6,9.8-59.5,12.8-71
			C639.1,143.8,646.7,144,645,151z"/>
		<path fill="#474A58" d="M703.7,203.3c-7.6,1.2-13.4,3.1-18,5.3c1.9,3.7,2.8,7.2,2.8,10.8c0,8.3-5.3,13.1-12.1,13.1
			c-4.9,0-10.1-4-10.1-10.9c0-2.9,1.2-9.4,9.1-15c-3.8-5.2-8-10-8.2-15.8c0-9.5,8-17.9,18.5-17.9c5,0,10.3,3,10.3,12
			c0,3.6-1.1,6.8-4.2,6.8c-3.5-0.1-2.9-3.5-2.9-6.8c0-3.7-1.8-4.9-3.8-4.9c-5.8,0-10.7,5-10.7,10.7c0,3.7,3.6,7.2,6.7,11l0.8,1.1
			c5-2.5,11.8-4.9,20.9-6.4C707.6,195.6,709.1,202.4,703.7,203.3z M681.2,220.7c0-3-0.8-5.6-2-8.2c-4,3.2-5.8,6.6-5.8,9.1
			c0,2.3,1.2,4.3,3.7,4.3C680.4,226,681.2,222.5,681.2,220.7z"/>
		<path fill="#474A58" d="M766.3,202c-5.9,16.6-16,29.9-26.3,29.9c-7.8,0-12.5-11.4-12.5-23c-10.3,17.6-14.9,23-19.9,23
			c-4.4,0-5.5-3.6-5.5-8c0-16.6,9.7-60.5,14.9-76.4c0.8-2.5,2.6-3.4,4.3-3.4c2.4,0,4,2.4,3,5.4c-7.6,24.7-14.5,61.7-15.2,75.1
			c5.8-7.1,15.7-23.4,24.1-43.9c0.4-0.7,2.3-1.3,4.4-1.3c3,0,6.4,1.2,6.4,4.7c0,4.9-7.2,11.3-9.8,15.7c-0.8,1.3,1.6,25.7,6.2,25.7
			c2.9,0,10-4.3,19.7-25.6c0.6-1.2,1.8-3,3.8-3C765.6,196.8,767.5,198.6,766.3,202z"/>
		<path fill="#474A58" d="M766.9,216.1c0,6,1.6,9,3.8,9c2.9,0,9.8-2.2,19.8-24.8c0.7-1.7,1.9-2.6,3.4-2.6c1.8,0,3.8,1.9,2.5,5.4
			c-9.2,24.6-20,28.7-26.2,28.7c-8.2,0-10.7-7.2-10.7-14.5c0-12,2.6-24.8,6-37.4c1.7-6.1,9.1-4.6,7.3,2
			C769,195.8,766.9,208.6,766.9,216.1z M774.6,166.3c4.3,0,9.2-3.1,9.2-9.1c0-4.4-3.1-8.6-8.9-8.5c-5.3,0.1-8.6,4.1-8.6,9
			C766.3,163.4,770.2,166.3,774.6,166.3z M775,154c2,0,3.2,1.4,3.2,3.4c0,2.2-1.7,3.4-3.2,3.4c-2.4,0-3.2-1.6-3.2-3.4
			C771.7,155,773.5,154,775,154z"/>
		<path fill="#474A58" d="M837.4,206.8c-5.8,14.2-18.2,25.7-31,25.7c-14.6,0-16.6-13.4-16.6-24.1c0-16.4,8.4-35.2,21.7-35.2
			c6.6,0,10.7,5.2,10.7,12.2c0,11.4-8.5,26.3-25.2,26.6c0.6,7.8,3.2,14.3,9.2,14c8.8-0.2,17.6-7.8,25.1-22.2c1-2.3,2.4-3.1,3.7-3.1
			C837,200.8,838.8,202.9,837.4,206.8z M797,205.9c12-0.4,18-13.1,18-19.3c0-5.2-1.9-6.8-4-6.8C804.4,179.8,797.9,193.1,797,205.9z"
			/>
		<path fill="#474A58" d="M235,368.9c0-4.9,3.4-8.9,8.6-9c5.8-0.1,8.9,4.1,8.9,8.5c0,6-4.9,9.1-9.2,9.1
			C238.9,377.5,235,374.6,235,368.9z M240.4,368.5c0,1.8,0.8,3.4,3.2,3.4c1.6,0,3.2-1.2,3.2-3.4c0-1.9-1.2-3.4-3.2-3.4
			C242.2,365.2,240.4,366.2,240.4,368.5z M251,292.7c-3.4,17.2-7.4,47.4-8.5,55.6c-0.4,3.2,1.6,4.7,3.4,4.7c1.9,0,3.5-1.4,3.8-4.3
			c1.9-15.4,3.2-22.7,8-53.4c0.6-3.5-1-5.4-3.1-5.4C253.1,289.8,251.5,290.8,251,292.7z"/>
		<path fill="#474A58" d="M354.2,338.4c0,25.7-14.2,38-22.8,38c-4.7,0-9.8-1.9-11.3-13c-3.4,6.7-8,12.5-15,12.5
			c-8.8,0-13.1-7.8-13.1-18.8c0-18.5,7.6-38.5,21.7-38.5c5.6,0,9.4,3.7,11,8.5c0.4-1.4,0.8-2.8,1.3-4.1c0.8-2.5,2.5-3.7,4.2-3.7
			c2.2,0,4.2,2.3,3,6c-5.2,16.1-6.4,27-6.4,33.6c0,9.1,2.3,11.2,4.4,11.2c3.4,0,15.5-8.4,15.5-30.4c0-16.9-10-30.6-28.8-30.6
			c-25.7,0-37.1,20.8-39.2,41.8c-1.8,16.8,4.4,34.1,25.9,35.3c4.7,0.2,5.5,7.1-1.7,6.7c-23.6-1.4-33.5-20.4-31.8-40.8
			c2.2-27.2,18.4-50.2,46.2-50.2C345.9,301.9,354.2,325.7,354.2,338.4z M320.6,344.9l0.2-1.1c-1.8,0.4-3.6-0.2-3.1-2.3
			c2.4-9.5,0.6-16.3-4-16.3c-8.5,0-14.4,18.5-14.4,30.1c0,10.4,2.5,14.2,5.8,14.2C310.7,369.5,318.1,357,320.6,344.9z"/>
		<path fill="#474A58" d="M413.3,344.4c-0.8,3.4-1.3,5-2.3,9l12.4-0.4c5.3-0.1,4.9,7.1-0.5,7.2l-13.7,0.2c-0.7,2.8-1.6,6.2-2.6,10.6
			c-0.7,2.3-2.5,3.5-4.2,3.5c-2,0-3.7-1.7-2.9-5l2.3-8.9c-3.7,0-7.3,0-10.8,0.1l-2.6,10.3c-0.7,2.3-2.5,3.5-4.2,3.5
			c-2,0-3.7-1.7-2.9-5l2.3-8.8c-2.3,0-4.6,0-6.7,0c-4.9,0-5.9-7,0.1-7.1l8.3-0.1c0.4-1.6,1-4,2.3-8.9h-6.6c-4.9,0-5.9-7,0.1-7.1
			l8.4-0.1c1-3.5,2.2-7.9,3.6-13.2c0.6-2.3,2.2-3.1,3.7-3.1c2.2,0,4.1,1.9,3.1,5.4l-2.9,10.9c3.8,0,7.2,0,10.7-0.1l3.6-13.1
			c0.6-2.3,2.2-3.1,3.7-3.1c2.2,0,4.1,1.9,3.1,5.4l-2.9,10.8c3.5-0.1,7.4-0.2,12.2-0.4c5.3-0.1,4.9,7.1-0.5,7.2L413.3,344.4z
			 M405.9,344.5c-3.6,0-7.2,0-10.8,0.1l-2.3,8.9c3.8,0,7.2,0,10.7-0.1L405.9,344.5z"/>
		<path fill="#474A58" d="M477.3,314.6c11.5,1.2,16.8,8.8,16.8,18.5c0,2.9-0.8,8.9-3.8,12.2c-3.6,4.3-9.7,0.8-6-4.3
			c1.9-2.8,2.4-7.2,2.4-8.2c0-8.6-5.9-10.8-10.7-11.3c-2.4,13.2-3.2,18.8-4.8,27.8c6.7,1.9,12.8,5.2,12.8,14.3
			c0,5.5-4.9,13.3-17.4,14l-0.7,4.1c-0.8,5.2-8,5-7-1.2l0.6-3.5c-5.9-1.4-10.1-5.3-11.6-9.7c-1.9-5.3,4.1-8.4,7.1-2.2
			c1.3,2.6,3.2,4,5.8,4.7l2.6-15.5c-8.2-2-17.2-4.6-17.2-15.1c0-14,10.6-23.3,23.8-24.7l1-5.9c1-5.6,8.3-5.3,7.2,0.8L477.3,314.6z
			 M464.5,347.8l4.3-25.7c-7.7,1.7-15.2,7.4-15.2,16.8C453.5,344.5,458.6,346.3,464.5,347.8z M470.2,356.3l-2.4,14.4
			c5.6-0.5,8.9-4.3,8.9-7.8C476.7,359.4,473.9,357.6,470.2,356.3z"/>
		<path fill="#474A58" d="M545,375l-4.7-5.9c-4.2,4.1-10,6.6-16.9,6.6c-10.4,0-19.7-6-19.7-18.4c0-10,6.7-15.8,14.2-20.8
			c-3.6-6.2-6.2-12.1-7-16.4c-2.2-13.3,8.2-19.1,16.9-19.1c7.6,0,15.8,5.2,15.8,15.5c0,10.7-7.9,16.8-16.1,22.2
			c3.8,6.1,8,12.2,12.1,17.8c1-2.8,1.4-5.6,1.4-8.5c0-1.6-0.2-3.2-0.6-4.7c-1.1-4.2,4.8-6.7,6.8-1.3c0.6,1.7,1.1,4.2,1.1,7
			c0,5-1.3,10.1-3.6,14.3c2.2,2.8,4.1,5.2,5.5,7C554.3,375,547.9,378.6,545,375z M535.7,363.1c-4.6-6-9.7-13.2-14.2-20.3
			c-5.9,4.1-10.6,8.3-10.6,14.5c0,7.1,5,10.9,12.7,10.9C528.9,368.3,532.9,366.2,535.7,363.1z M524,332.6
			c6.6-4.3,12.4-8.8,12.4-15.8c0-5.2-4.2-8.5-8.6-8.5c-5.5,0-12,3.4-9.4,12C519.4,323.9,521.5,328.1,524,332.6z"/>
		<path fill="#474A58" d="M563.9,329.3c0-7,4.9-12.7,12.5-12.7c8,0,12.5,5.8,12.5,12c0,8.6-7,13-13.2,13
			C569.5,341.5,563.9,337.6,563.9,329.3z M571.1,329c0,2.8,1.2,5.4,5.2,5.4c3.5,0,5.4-3,5.4-5.6c0-2.3-1.4-5.2-5.3-5.2
			C573.3,323.6,571.1,325.8,571.1,329z M573.2,371c-4.1,6.1,3,8.6,6.4,3.4c15.5-24,20.8-31.6,33.8-52.3c3.7-5.9-3-9.4-6.5-4.1
			C593.1,338.6,585.7,352.1,573.2,371z M597.2,363.5c0-7,4.9-12.7,12.5-12.7c8,0,12.5,5.8,12.5,12c0,8.6-7,13-13.2,13
			S597.2,371.8,597.2,363.5z M604.4,363.2c0,2.8,1.2,5.4,5.2,5.4c3.5,0,5.4-3,5.4-5.6c0-2.3-1.4-5.2-5.3-5.2
			C606.5,357.8,604.4,360,604.4,363.2z"/>
	</g>
</g>
</svg>
