<?xml version="1.0" encoding="utf-8"?>
<!-- Generator: Adobe Illustrator 19.2.1, SVG Export Plug-In . SVG Version: 6.00 Build 0)  -->
<svg version="1.1" id="Layer_1" xmlns="http://www.w3.org/2000/svg" xmlns:xlink="http://www.w3.org/1999/xlink" x="0px" y="0px"
	 viewBox="0 0 1062.7 402" enable-background="new 0 0 1062.7 402" xml:space="preserve">
<g>
	<g>
		<path fill="#474A58" d="M151.7,7c-4.8,19.7-12.4,52.9-12.4,66.5c0,5.3,1.1,7.7,4.3,7.7c2.8,0,11.5-3.5,22.9-26
			c0.7-1.3,2-2.4,3.5-2.4c2.2,0,4.3,2.3,2.4,6.1c-13.4,26.9-24.1,28.9-30,28.9c-7.4,0-10.6-5.9-10.6-12.6c0-19.6,9.8-59.5,12.8-71
			C145.9-0.2,153.4,0,151.7,7z"/>
		<path fill="#474A58" d="M200,51.6c0,18.6-8.3,36.1-21.5,36.1c-9.4,0-13.1-7.9-13.1-16.9c0-5.3,0.8-11,2.2-15.8
			c-0.4,0.1-0.7,0.2-1.1,0.2c-1.6,0-3.1-1.6-2.8-4.1c1.3-10.6,10.6-21.8,21.1-21.8C193.9,29.3,200,37.2,200,51.6z M192.8,50.9
			c0-9.2-3.1-15.1-8.9-15.1c-4.3,0-9.5,5.2-12.2,11.5c0.5-0.2,1-0.4,1.4-0.4c2.2,0,4,2.2,2.8,5.2c-2.3,7.4-3.2,13.6-3.2,18.4
			c0,6.8,2.2,10.8,6.5,10.8C186.3,81.2,192.8,66.4,192.8,50.9z"/>
		<path fill="#474A58" d="M269,62c-4.9,14.6-14.5,26.4-24.1,26.4c-4.7,0-9.7-2.5-11.3-13c-3.2,6.6-8,12.5-15,12.5
			c-8.8,0-13.1-7.8-13.1-18.8c0-18.5,7.6-38.5,21.7-38.5c5.3,0,8.9,3.2,10.7,7.8c2.5-11.2,5.5-22.9,9-34.1c0.7-2.4,2.5-3.7,4.2-3.7
			c2.2,0,4.1,2.3,3,6c-8.4,27.5-13.7,54.2-13.7,64.3c0,8.3,2.3,11.2,4.4,11.2c3.8,0,11.3-4.9,18.5-23.6c0.8-2.2,1.9-2.9,3.2-2.9
			C268.4,55.6,270.5,57.5,269,62z M234.1,56.9l0.2-1.1c-1.8,0.4-3.6-0.2-3.1-2.3c2.4-9.5,0.6-16.3-4-16.3
			c-8.5,0-14.4,18.5-14.4,30.1c0,10.4,2.5,14.2,5.8,14.2C224.2,81.5,231.8,68.9,234.1,56.9z"/>
		<path fill="#474A58" d="M301.5,34.6c-2.5,13-7.2,37.7-10.4,54.4c1,0.1,1.9,0.2,2.9,0.4c6.2,1.1,4.1,7-0.8,6.1
			c-1.1-0.2-2.2-0.4-3.2-0.4l-1.9,9.6c-2,9.5-6.1,14.5-13.9,14.5c-5.6,0-10.3-4.2-10.3-10.2c0-13.4,10.3-18.8,20.3-19.9l3.2-17.2
			c-3.6,8.3-9,15.8-15.7,15.8c-8,0-9.4-6.4-9.4-14c0-12.1,3.5-31.9,6.7-41.2c0.6-1.8,2.3-2.9,4-2.9c2,0,3.8,1.7,3,5.5
			c-4.3,17.2-6.5,30.2-6.5,38c0,5.8,0.6,8,3,8c3,0,12.5-9.7,21.8-47.4c1-3.8,3.1-4.9,4.3-4.9C300.7,28.9,302.3,30.8,301.5,34.6z
			 M280.9,103.9l1.8-8.4c-7.6,1.8-11.6,7.4-11.6,13.1c0,3.1,2,4.1,3.7,4.1C277.9,112.7,280,108,280.9,103.9z"/>
		<path fill="#474A58" d="M366.4,58.9c-13.4,26.9-23.8,29.8-29.6,29.8c-7.4,0-10.6-5.9-10.6-12.6c0-10.9,2.2-25.6,4.8-38.4h-2.2
			c-3.5,0-4.3-2-4.3-3.4c0-1.2,0.8-3,2.6-3.1l5.3-0.2c1.6-7.4,3.2-13.8,4.4-17.9c1.3-4.3,8.6-4.1,7,2.9c-1.1,4.7-2.3,9.6-3.5,14.6
			c4.4-0.1,9.2-0.2,14.3-0.5c2.8-0.1,4.3,1.1,4.3,3.4c0,1.2-1,3.2-4,3.4c-6.2,0.2-11.6,0.5-16.1,0.6c-3,14.2-5.3,28.1-5.3,37
			c0,5.3,1.1,7.7,4.3,7.7c2.8,0,11-4.2,22.9-26.8c0.7-1.3,2-2.4,3.5-2.4C366.5,52.9,368.3,55.1,366.4,58.9z"/>
		<path fill="#474A58" d="M408.2,57.4c-11.8,4.4-20.2,0.1-22.1-8.4c-5.2,10.9-12.8,27-15.6,32.5c-2.4,4.9-4.4,6.1-6.4,6.1
			c-4.9,0-5.3-5.6-5.3-7.8c0-13.1,2.6-31.7,6.6-46.1c0.6-2.3,2.3-3.5,4-3.5c2.2,0,4,1.9,2.9,6c-2.8,10.6-6.2,28.6-6.7,40.1
			c5.5-12.1,17-35.9,19.8-42c1.8-4.1,3.1-5.4,5.3-5.4c1.7,0,4,1.1,3.5,4.7c-0.4,2.8-1.6,5.8-1.6,10.1c0,4,1.7,8.3,7,8.3
			c1.9,0,4.3-0.5,7.2-1.4C411.2,48.7,413.6,55.3,408.2,57.4z"/>
		<path fill="#474A58" d="M468.6,59.3c-10.2,23.8-20.5,28.6-26.8,28.6c-7,0-9.2-6.6-9.2-15.8c0-2.2,0.1-4.3,0.4-6.6
			c-5.3,12.8-11,22.2-19.2,22.2c-8.3,0-10.4-6.7-10.4-15.7c0.1-10.8,3.8-28.8,7.1-39.6c1.4-4.9,8.5-3.8,7,2.5
			c-4.7,19.3-6.7,30.4-6.7,37.7c0,5.6,1.4,8.5,3.5,8.5c4.2,0,12.8-14.6,22.4-46.1c1.3-4.4,3.5-5.6,5.5-5.6c2.4,0,4.4,2.2,3.1,7.1
			c-3.5,13.6-5.4,26.9-5.4,35.5c0,5.9,0.8,9.4,2.6,9.4c4,0,12.4-8,19.6-24.5c0.7-1.7,2-2.9,3.7-2.9
			C467.8,53.9,469.8,55.6,468.6,59.3z"/>
		<path fill="#474A58" d="M506.9,59.3c-7.6,1.2-13.4,3.1-18,5.3c1.9,3.7,2.8,7.2,2.8,10.8c0,8.3-5.3,13.1-12.1,13.1
			c-4.9,0-10.1-4-10.1-10.9c0-2.9,1.2-9.4,9.1-15c-3.8-5.2-8-10-8.2-15.8c0-9.5,8-17.9,18.5-17.9c5,0,10.3,3,10.3,12
			c0,3.6-1.1,6.8-4.2,6.8c-3.5-0.1-2.9-3.5-2.9-6.8c0-3.7-1.8-4.9-3.8-4.9c-5.8,0-10.7,5-10.7,10.7c0,3.7,3.6,7.2,6.7,11l0.8,1.1
			c5-2.5,11.8-4.9,20.9-6.4C510.9,51.6,512.3,58.4,506.9,59.3z M484.5,76.7c0-3-0.8-5.6-2-8.2c-4,3.2-5.8,6.6-5.8,9.1
			c0,2.3,1.2,4.3,3.7,4.3C483.6,82,484.5,78.5,484.5,76.7z"/>
		<path fill="#474A58" d="M569.6,58c-5.9,16.6-16,29.9-26.3,29.9c-7.8,0-12.5-11.4-12.5-23c-10.3,17.6-14.9,23-19.9,23
			c-4.4,0-5.5-3.6-5.5-8c0-16.6,9.7-60.5,14.9-76.4c0.8-2.5,2.6-3.4,4.3-3.4c2.4,0,4,2.4,3,5.4C520,30.1,513,67.1,512.3,80.5
			c5.8-7.1,15.7-23.4,24.1-43.9c0.4-0.7,2.3-1.3,4.4-1.3c3,0,6.4,1.2,6.4,4.7c0,4.9-7.2,11.3-9.8,15.7c-0.8,1.3,1.6,25.7,6.2,25.7
			c2.9,0,10-4.3,19.7-25.6c0.6-1.2,1.8-3,3.8-3C568.8,52.8,570.8,54.6,569.6,58z"/>
		<path fill="#474A58" d="M625.7,62c-4.9,14.6-14.5,26.4-24.1,26.4c-4.7,0-9.8-1.9-11.3-13c-3.4,6.7-8,12.5-15,12.5
			c-8.8,0-13.1-7.8-13.1-18.8c0-18.5,7.6-38.5,21.7-38.5c5.6,0,9.4,3.7,11,8.6c0.6-2.4,1.3-4.6,2-6.4c0.8-2.5,2.5-3.7,4.2-3.7
			c2.2,0,4.2,2.3,3,6c-5.2,16.1-7.1,29.2-7.1,35.8c0,9.1,2.3,11.2,4.4,11.2c3.8,0,11.3-4.9,18.5-23.6c0.8-2.2,1.9-2.9,3.2-2.9
			C625.1,55.6,627.3,57.5,625.7,62z M590.8,56.9l0.2-1.1c-1.8,0.4-3.6-0.2-3.1-2.3c2.4-9.5,0.6-16.3-4-16.3
			c-8.5,0-14.4,18.5-14.4,30.1c0,10.4,2.5,14.2,5.8,14.2C581,81.5,588.3,69,590.8,56.9z"/>
		<path fill="#474A58" d="M695.8,55.1c-3.5,1.1-8.6,1.6-14.3,1.7c-0.7,2.3-1.6,4.6-2.4,6.6c-6.6,16.1-14.6,24.5-22.8,24.5
			c-6.7,0-9.6-7.3-10.6-17c-6,16.4-13.6,17-16,16.9c-7.7-0.4-10-9.8-10-18.2c0-14,4.9-31.4,7.2-37.9c0.7-2,2.2-2.9,3.5-2.9
			c2.3,0,4.3,2.2,3.4,5.3c-3.4,10.7-7,25.8-7,36.6c0,8.2,2.2,10.7,3.7,10.7c5,0,13.8-22.2,16.6-37.2c0.7-3.7,2.5-9.8,3.4-12
			c0.7-1.8,2-2.5,3.4-2.5c2.2,0,4.2,2,3.4,5.2c-3.4,12.5-4.8,23.2-4.8,31.1c0,9.6,1.9,15.6,4.6,15.6c4,0,10.9-8.9,15.4-20.9l1.7-4.8
			c-6.2-2-11.9-7.2-11.9-16.9c0-5.3,2-10.4,4.1-13c2.9-3.6,5.9-4.3,8.5-4.3c6.6,0,10.4,6.2,10.4,13.4c0,4.6-0.7,9.7-1.9,14.9
			c4-0.2,8-0.8,11-1.3C699,47.6,700.7,53.8,695.8,55.1z M676,48.8c2.9-11.3,3.2-20.8-1.4-20.8c-2.8,0-5.2,5.2-5.2,10.3
			C669.4,44.3,672.2,47.5,676,48.8z"/>
		<path fill="#474A58" d="M755.9,58c-5.9,16.6-16,29.9-26.3,29.9c-7.8,0-12.5-11.4-12.5-23c-10.3,17.6-14.9,23-19.9,23
			c-4.4,0-5.5-3.6-5.5-8c0-16.6,9.7-60.5,14.9-76.4c0.8-2.5,2.6-3.4,4.3-3.4c2.4,0,4,2.4,3,5.4c-7.6,24.7-14.5,61.7-15.2,75.1
			c5.8-7.1,15.7-23.4,24.1-43.9c0.4-0.7,2.3-1.3,4.4-1.3c3,0,6.4,1.2,6.4,4.7c0,4.9-7.2,11.3-9.8,15.7c-0.8,1.3,1.6,25.7,6.2,25.7
			c2.9,0,10-4.3,19.7-25.6c0.6-1.2,1.8-3,3.8-3C755.2,52.8,757.1,54.6,755.9,58z"/>
		<path fill="#474A58" d="M782.2,51.6c0,18.6-8.3,36.1-21.5,36.1c-9.4,0-13.1-7.9-13.1-16.9c0-5.3,0.8-11,2.2-15.8
			c-0.4,0.1-0.7,0.2-1.1,0.2c-1.6,0-3.1-1.6-2.8-4.1c1.3-10.6,10.6-21.8,21.1-21.8C776.1,29.3,782.2,37.2,782.2,51.6z M775,50.9
			c0-9.2-3.1-15.1-8.9-15.1c-4.3,0-9.5,5.2-12.2,11.5c0.5-0.2,1-0.4,1.4-0.4c2.2,0,4,2.2,2.8,5.2c-2.3,7.4-3.2,13.6-3.2,18.4
			c0,6.8,2.2,10.8,6.5,10.8C768.5,81.2,775,66.4,775,50.9z"/>
		<path fill="#474A58" d="M866.7,55.1c-3.5,1.1-8.6,1.6-14.3,1.7c-0.7,2.3-1.6,4.6-2.4,6.6c-6.6,16.1-14.6,24.5-22.8,24.5
			c-6.7,0-9.6-7.3-10.6-17c-6,16.4-13.6,17-16,16.9c-7.7-0.4-10-9.8-10-18.2c0-14,4.9-31.4,7.2-37.9c0.7-2,2.2-2.9,3.5-2.9
			c2.3,0,4.3,2.2,3.4,5.3c-3.4,10.7-7,25.8-7,36.6c0,8.2,2.2,10.7,3.7,10.7c5,0,13.8-22.2,16.6-37.2c0.7-3.7,2.5-9.8,3.4-12
			c0.7-1.8,2-2.5,3.4-2.5c2.2,0,4.2,2,3.4,5.2c-3.4,12.5-4.8,23.2-4.8,31.1c0,9.6,1.9,15.6,4.6,15.6c4,0,10.9-8.9,15.4-20.9l1.7-4.8
			c-6.2-2-11.9-7.2-11.9-16.9c0-5.3,2-10.4,4.1-13c2.9-3.6,5.9-4.3,8.5-4.3c6.6,0,10.4,6.2,10.4,13.4c0,4.6-0.7,9.7-1.9,14.9
			c4-0.2,8-0.8,11-1.3C869.9,47.6,871.6,53.8,866.7,55.1z M846.9,48.8c2.9-11.3,3.2-20.8-1.4-20.8c-2.8,0-5.2,5.2-5.2,10.3
			C840.3,44.3,843,47.5,846.9,48.8z"/>
		<path fill="#474A58" d="M912.8,62.8c-5.8,14.2-18.2,25.7-31,25.7c-14.6,0-16.6-13.4-16.6-24.1c0-16.4,8.4-35.2,21.7-35.2
			c6.6,0,10.7,5.2,10.7,12.2c0,11.4-8.5,26.3-25.2,26.6c0.6,7.8,3.2,14.3,9.2,14c8.8-0.2,17.6-7.8,25.1-22.2c1-2.3,2.4-3.1,3.7-3.1
			C912.4,56.8,914.2,58.9,912.8,62.8z M872.4,61.9c12-0.4,18-13.1,18-19.3c0-5.2-1.9-6.8-4-6.8C879.8,35.8,873.3,49.1,872.4,61.9z"
			/>
		<path fill="#474A58" d="M926.9,81.6c-1.1,4.1-2.5,8.4-4.6,15c-1.6,4.9-7.9,3.4-6.6-1.9c1.1-4.4,2.6-10.7,4-15
			C921.4,74,928.4,76.3,926.9,81.6z"/>
		<path fill="#474A58" d="M84.2,193.3c0,18.5-7.6,38.5-21.7,38.5c-5.9,0-9.8-3.7-11.5-8.8c-2.4,13.4-4,22.7-5.3,31.6
			c-0.7,4.9-7.7,4.2-7.1-0.7c0.8-7.2,7.4-46.3,14.5-78.2c1.1-4.9,8.4-3.8,7.1,1.9l-0.6,2.5c3.2-3.4,7.2-5.6,11.5-5.6
			C79.9,174.5,84.2,182.3,84.2,193.3z M76.9,195.1c0-10.4-2.9-14.2-6.1-14.2c-5.6,0-14,10.4-16.7,24.5l-0.2,1.4
			c1.8-0.2,3.7,1,2.8,4.8c-1.7,6.7,1.3,13.6,5.9,13.6C71,225.2,76.9,206.8,76.9,195.1z"/>
		<path fill="#474A58" d="M155.4,206c-4.9,14.6-14.5,26.4-24.1,26.4c-4.7,0-9.8-1.9-11.3-13c-3.4,6.7-8,12.5-15,12.5
			c-8.8,0-13.1-7.8-13.1-18.8c0-18.5,7.6-38.5,21.7-38.5c5.6,0,9.4,3.7,11,8.6c0.6-2.4,1.3-4.6,2-6.4c0.8-2.5,2.5-3.7,4.2-3.7
			c2.2,0,4.2,2.3,3,6c-5.2,16.1-7.1,29.2-7.1,35.8c0,9.1,2.3,11.2,4.4,11.2c3.8,0,11.3-4.9,18.5-23.6c0.8-2.2,1.9-2.9,3.2-2.9
			C154.8,199.6,156.9,201.5,155.4,206z M120.5,200.9l0.2-1.1c-1.8,0.4-3.6-0.2-3.1-2.3c2.4-9.5,0.6-16.3-4-16.3
			c-8.5,0-14.4,18.5-14.4,30.1c0,10.4,2.5,14.2,5.8,14.2C110.6,225.5,117.9,213,120.5,200.9z"/>
		<path fill="#474A58" d="M186.7,193.3c0,18.5-7.6,38.5-21.7,38.5c-5.9,0-9.8-3.7-11.5-8.8c-2.4,13.4-4,22.7-5.3,31.6
			c-0.7,4.9-7.7,4.2-7.1-0.7c0.8-7.2,7.4-46.3,14.5-78.2c1.1-4.9,8.4-3.8,7.1,1.9l-0.6,2.5c3.2-3.4,7.2-5.6,11.5-5.6
			C182.4,174.5,186.7,182.3,186.7,193.3z M179.4,195.1c0-10.4-2.9-14.2-6.1-14.2c-5.6,0-14,10.4-16.7,24.5l-0.2,1.4
			c1.8-0.2,3.7,1,2.8,4.8c-1.7,6.7,1.3,13.6,5.9,13.6C173.5,225.2,179.4,206.8,179.4,195.1z"/>
		<path fill="#474A58" d="M202.3,216.1c0,6,1.6,9,3.8,9c2.9,0,9.8-2.2,19.8-24.8c0.7-1.7,1.9-2.6,3.4-2.6c1.8,0,3.8,1.9,2.5,5.4
			c-9.2,24.6-20,28.7-26.2,28.7c-8.2,0-10.7-7.2-10.7-14.5c0-12,2.6-24.8,6-37.4c1.7-6.1,9.1-4.6,7.3,2
			C204.3,195.8,202.3,208.6,202.3,216.1z M210,166.3c4.3,0,9.2-3.1,9.2-9.1c0-4.4-3.1-8.6-8.9-8.5c-5.3,0.1-8.6,4.1-8.6,9
			C201.7,163.4,205.5,166.3,210,166.3z M210.3,154c2,0,3.2,1.4,3.2,3.4c0,2.2-1.7,3.4-3.2,3.4c-2.4,0-3.2-1.6-3.2-3.4
			C207.1,155,208.9,154,210.3,154z"/>
		<path fill="#474A58" d="M272.7,206.8c-5.8,14.2-18.2,25.7-31,25.7c-14.6,0-16.6-13.4-16.6-24.1c0-16.4,8.4-35.2,21.7-35.2
			c6.6,0,10.7,5.2,10.7,12.2c0,11.4-8.5,26.3-25.2,26.6c0.6,7.8,3.2,14.3,9.2,14c8.8-0.2,17.6-7.8,25.1-22.2c1-2.3,2.4-3.1,3.7-3.1
			C272.4,200.8,274.2,202.9,272.7,206.8z M232.4,205.9c12-0.4,18-13.1,18-19.3c0-5.2-1.9-6.8-4-6.8
			C239.7,179.8,233.3,193.1,232.4,205.9z"/>
		<path fill="#474A58" d="M315.2,201.4c-11.8,4.4-20.2,0.1-22.1-8.4c-5.2,10.9-12.8,27-15.6,32.5c-2.4,4.9-4.4,6.1-6.4,6.1
			c-4.9,0-5.3-5.6-5.3-7.8c0-13.1,2.6-31.7,6.6-46.1c0.6-2.3,2.3-3.5,4-3.5c2.2,0,4,1.9,2.9,6c-2.8,10.6-6.2,28.6-6.7,40.1
			c5.5-12.1,17-35.9,19.8-42c1.8-4.1,3.1-5.4,5.3-5.4c1.7,0,4,1.1,3.5,4.7c-0.4,2.8-1.6,5.8-1.6,10.1c0,4,1.7,8.3,7,8.3
			c1.9,0,4.3-0.5,7.2-1.4C318.2,192.7,320.6,199.3,315.2,201.4z"/>
		<path fill="#474A58" d="M375.2,202c-5.9,16.6-16,29.9-26.3,29.9c-7.8,0-12.5-11.4-12.5-23c-10.3,17.6-14.9,23-19.9,23
			c-4.4,0-5.5-3.6-5.5-8c0-16.6,9.7-60.5,14.9-76.4c0.8-2.5,2.6-3.4,4.3-3.4c2.4,0,4,2.4,3,5.4c-7.6,24.7-14.5,61.7-15.2,75.1
			c5.8-7.1,15.7-23.4,24.1-43.9c0.4-0.7,2.3-1.3,4.4-1.3c3,0,6.4,1.2,6.4,4.7c0,4.9-7.2,11.3-9.8,15.7c-0.8,1.3,1.6,25.7,6.2,25.7
			c2.9,0,10-4.3,19.7-25.6c0.6-1.2,1.8-3,3.8-3C374.5,196.8,376.4,198.6,375.2,202z"/>
		<path fill="#474A58" d="M375.8,216.1c0,6,1.6,9,3.8,9c2.9,0,9.8-2.2,19.8-24.8c0.7-1.7,1.9-2.6,3.4-2.6c1.8,0,3.8,1.9,2.5,5.4
			c-9.2,24.6-20,28.7-26.2,28.7c-8.2,0-10.7-7.2-10.7-14.5c0-12,2.6-24.8,6-37.4c1.7-6.1,9.1-4.6,7.3,2
			C377.9,195.8,375.8,208.6,375.8,216.1z M383.5,166.3c4.3,0,9.2-3.1,9.2-9.1c0-4.4-3.1-8.6-8.9-8.5c-5.3,0.1-8.6,4.1-8.6,9
			C375.2,163.4,379.1,166.3,383.5,166.3z M383.9,154c2,0,3.2,1.4,3.2,3.4c0,2.2-1.7,3.4-3.2,3.4c-2.4,0-3.2-1.6-3.2-3.4
			C380.6,155,382.4,154,383.9,154z"/>
		<path fill="#474A58" d="M474.2,193.3c0,18.5-7.6,38.5-21.7,38.5c-5.9,0-9.8-3.7-11.5-8.8c-2.4,13.4-4,22.7-5.3,31.6
			c-0.7,4.9-7.7,4.2-7.1-0.7c0.8-7.2,7.4-46.3,14.5-78.2c1.1-4.9,8.4-3.8,7.1,1.9l-0.6,2.5c3.2-3.4,7.2-5.6,11.5-5.6
			C469.9,174.5,474.2,182.3,474.2,193.3z M466.9,195.1c0-10.4-2.9-14.2-6.1-14.2c-5.6,0-14,10.4-16.7,24.5l-0.2,1.4
			c1.8-0.2,3.7,1,2.8,4.8c-1.7,6.7,1.3,13.6,5.9,13.6C461,225.2,466.9,206.8,466.9,195.1z"/>
		<path fill="#474A58" d="M517.5,195.6c0,18.6-8.3,36.1-21.5,36.1c-9.4,0-13.1-7.9-13.1-16.9c0-5.3,0.8-11,2.2-15.8
			c-0.4,0.1-0.7,0.2-1.1,0.2c-1.6,0-3.1-1.6-2.8-4.1c1.3-10.6,10.6-21.8,21.1-21.8C511.4,173.3,517.5,181.2,517.5,195.6z
			 M510.3,194.9c0-9.2-3.1-15.1-8.9-15.1c-4.3,0-9.5,5.2-12.2,11.5c0.5-0.2,1-0.4,1.4-0.4c2.2,0,4,2.2,2.8,5.2
			c-2.3,7.4-3.2,13.6-3.2,18.4c0,6.8,2.2,10.8,6.5,10.8C503.9,225.2,510.3,210.4,510.3,194.9z"/>
		<path fill="#474A58" d="M563.3,194.4c1.4-6.5,1.6-14.6-4.3-14.6c-9.1,0-14,20.6-14,31.4c0,10,3.8,14.4,8.3,14.4
			c4.6,0,14.4-3.8,24.6-23.8c1.4-2.8,2.5-3.7,4.1-3.7c2,0,4.1,2.4,2,6.6c-8,16.7-19.2,27.5-31.2,27.5c-11,0-15.1-8.8-15.1-21.7
			c0-16.9,7.9-37.4,21.6-37.4c8.8,0,12.4,6.6,12.4,14.3c0,4.8-1.3,11.8-5.3,11.8C564.3,199.1,562.5,197.4,563.3,194.4z"/>
		<path fill="#474A58" d="M642.7,203.3c-10.2,23.8-20.5,28.6-26.8,28.6c-7,0-9.2-6.6-9.2-15.8c0-2.2,0.1-4.3,0.4-6.6
			c-5.3,12.8-11,22.2-19.2,22.2c-8.3,0-10.4-6.7-10.4-15.7c0.1-10.8,3.8-28.8,7.1-39.6c1.4-4.9,8.5-3.8,7,2.5
			c-4.7,19.3-6.7,30.4-6.7,37.7c0,5.6,1.4,8.5,3.5,8.5c4.2,0,12.8-14.6,22.4-46.1c1.3-4.4,3.5-5.6,5.5-5.6c2.4,0,4.4,2.2,3.1,7.1
			c-3.5,13.6-5.4,26.9-5.4,35.5c0,5.9,0.8,9.4,2.6,9.4c4,0,12.4-8,19.6-24.5c0.7-1.7,2-2.9,3.7-2.9
			C641.9,197.9,643.9,199.6,642.7,203.3z"/>
		<path fill="#474A58" d="M698.1,202c-5.9,16.6-16,29.9-26.3,29.9c-7.8,0-12.5-11.4-12.5-23c-10.3,17.6-14.9,23-19.9,23
			c-4.4,0-5.5-3.6-5.5-8c0-16.6,9.7-60.5,14.9-76.4c0.8-2.5,2.6-3.4,4.3-3.4c2.4,0,4,2.4,3,5.4c-7.6,24.7-14.5,61.7-15.2,75.1
			c5.8-7.1,15.7-23.4,24.1-43.9c0.4-0.7,2.3-1.3,4.4-1.3c3,0,6.4,1.2,6.4,4.7c0,4.9-7.2,11.3-9.8,15.7c-0.8,1.3,1.6,25.7,6.2,25.7
			c2.9,0,10-4.3,19.7-25.6c0.6-1.2,1.8-3,3.8-3C697.4,196.8,699.3,198.6,698.1,202z"/>
		<path fill="#474A58" d="M698.7,216.1c0,6,1.6,9,3.8,9c2.9,0,9.8-2.2,19.8-24.8c0.7-1.7,1.9-2.6,3.4-2.6c1.8,0,3.8,1.9,2.5,5.4
			c-9.2,24.6-20,28.7-26.2,28.7c-8.2,0-10.7-7.2-10.7-14.5c0-12,2.6-24.8,6-37.4c1.7-6.1,9.1-4.6,7.3,2
			C700.8,195.8,698.7,208.6,698.7,216.1z M706.4,166.3c4.3,0,9.2-3.1,9.2-9.1c0-4.4-3.1-8.6-8.9-8.5c-5.3,0.1-8.6,4.1-8.6,9
			C698.1,163.4,702,166.3,706.4,166.3z M706.8,154c2,0,3.2,1.4,3.2,3.4c0,2.2-1.7,3.4-3.2,3.4c-2.4,0-3.2-1.6-3.2-3.4
			C703.5,155,705.3,154,706.8,154z"/>
		<path fill="#474A58" d="M769.2,206.8c-5.8,14.2-18.2,25.7-31,25.7c-14.6,0-16.6-13.4-16.6-24.1c0-16.4,8.4-35.2,21.7-35.2
			c6.6,0,10.7,5.2,10.7,12.2c0,11.4-8.5,26.3-25.2,26.6c0.6,7.8,3.2,14.3,9.2,14c8.8-0.2,17.6-7.8,25.1-22.2c1-2.3,2.4-3.1,3.7-3.1
			C768.8,200.8,770.6,202.9,769.2,206.8z M728.9,205.9c12-0.4,18-13.1,18-19.3c0-5.2-1.9-6.8-4-6.8
			C736.2,179.8,729.7,193.1,728.9,205.9z"/>
		<path fill="#474A58" d="M811.7,201.4c-11.8,4.4-20.2,0.1-22.1-8.4c-5.2,10.9-12.8,27-15.6,32.5c-2.4,4.9-4.4,6.1-6.4,6.1
			c-4.9,0-5.3-5.6-5.3-7.8c0-13.1,2.6-31.7,6.6-46.1c0.6-2.3,2.3-3.5,4-3.5c2.2,0,4,1.9,2.9,6c-2.8,10.6-6.2,28.6-6.7,40.1
			c5.5-12.1,17-35.9,19.8-42c1.8-4.1,3.1-5.4,5.3-5.4c1.7,0,4,1.1,3.5,4.7c-0.4,2.8-1.6,5.8-1.6,10.1c0,4,1.7,8.3,7,8.3
			c1.9,0,4.3-0.5,7.2-1.4C814.7,192.7,817.1,199.3,811.7,201.4z"/>
		<path fill="#474A58" d="M871.7,202c-5.9,16.6-16,29.9-26.3,29.9c-7.8,0-12.5-11.4-12.5-23c-10.3,17.6-14.9,23-19.9,23
			c-4.4,0-5.5-3.6-5.5-8c0-16.6,9.7-60.5,14.9-76.4c0.8-2.5,2.6-3.4,4.3-3.4c2.4,0,4,2.4,3,5.4c-7.6,24.7-14.5,61.7-15.2,75.1
			c5.8-7.1,15.7-23.4,24.1-43.9c0.4-0.7,2.3-1.3,4.4-1.3c3,0,6.4,1.2,6.4,4.7c0,4.9-7.2,11.3-9.8,15.7c-0.8,1.3,1.6,25.7,6.2,25.7
			c2.9,0,10-4.3,19.7-25.6c0.6-1.2,1.8-3,3.8-3C870.9,196.8,872.9,198.6,871.7,202z"/>
		<path fill="#474A58" d="M927.8,206c-4.9,14.6-14.5,26.4-24.1,26.4c-4.7,0-9.8-1.9-11.3-13c-3.4,6.7-8,12.5-15,12.5
			c-8.8,0-13.1-7.8-13.1-18.8c0-18.5,7.6-38.5,21.7-38.5c5.6,0,9.4,3.7,11,8.6c0.6-2.4,1.3-4.6,2-6.4c0.8-2.5,2.5-3.7,4.2-3.7
			c2.2,0,4.2,2.3,3,6c-5.2,16.1-7.1,29.2-7.1,35.8c0,9.1,2.3,11.2,4.4,11.2c3.8,0,11.3-4.9,18.5-23.6c0.8-2.2,1.9-2.9,3.2-2.9
			C927.2,199.6,929.4,201.5,927.8,206z M892.9,200.9l0.2-1.1c-1.8,0.4-3.6-0.2-3.1-2.3c2.4-9.5,0.6-16.3-4-16.3
			c-8.5,0-14.4,18.5-14.4,30.1c0,10.4,2.5,14.2,5.8,14.2C883.1,225.5,890.4,213,892.9,200.9z"/>
		<path fill="#474A58" d="M947.4,194.4c1.4-6.5,1.6-14.6-4.3-14.6c-9.1,0-14,20.6-14,31.4c0,10,3.8,14.4,8.3,14.4
			c4.6,0,14.4-3.8,24.6-23.8c1.4-2.8,2.5-3.7,4.1-3.7c2,0,4.1,2.4,2,6.6c-8,16.7-19.2,27.5-31.2,27.5c-11,0-15.1-8.8-15.1-21.7
			c0-16.9,7.9-37.4,21.6-37.4c8.8,0,12.4,6.6,12.4,14.3c0,4.8-1.3,11.8-5.3,11.8C948.5,199.1,946.7,197.4,947.4,194.4z"/>
		<path fill="#474A58" d="M1023.8,202.8c-4.9,17.3-14.5,29.9-26.2,29.9c-7.6,0-10.1-6.2-10.1-13.8c0-7.9,2.3-20.5,4.8-31.7
			c-2.4,5.8-5.9,13.3-10.3,22c-8.5,16.3-12.2,22.7-17.2,22.7c-4.3,0-4.7-4.1-4.7-7c0-15.5,8.5-60,14-76.8c1.8-5.4,9-3.8,7,2.9
			c-4.3,14.2-12,52.9-13.8,70.2c6-11,11.9-22.3,18.7-37c4.2-8.9,6.6-10.4,10.1-10.4c2.8,0,4.7,2.4,4.7,5.8c0,5.5-6,27.4-6,38.3
			c0,6.2,1.2,8.5,3.2,8.5c2.2,0,10.2-1.2,19.8-26.4C1019.5,195.8,1025.4,197.3,1023.8,202.8z"/>
		<path fill="#474A58" d="M66.8,341c-6,3.8-12.5,7.1-19.7,9.1c-4.8,14.2-13.8,25.7-27.7,25.7c-15,0-19.4-12.4-19.4-24.5
			c0-6.4,1.4-12.1,3.4-17c-0.1-1.2-0.2-2.4-0.2-3.6c-0.4-19,10.2-37.7,26.5-37.7c15.5,0,21.7,15.8,21.7,30.8c0,5.9-0.7,12.2-2,18.4
			c4.3-1.6,8.9-3.8,13.6-7C68.9,331.3,71.2,338.3,66.8,341z M38.4,352c-2.6,0.4-5.3,0.5-8.2,0.5c-9,0-17.2-2-22.1-7.6
			c-0.4,1.9-0.6,3.7-0.6,5.5c0,10.7,3,18.6,11.9,18.6C28,369,34.3,361.4,38.4,352z M10.6,329.9c0,10.6,7.3,15.6,19.4,15.6
			c3.5,0,7.1-0.2,11-1c1.9-6.6,2.8-13.3,2.8-19.1c-0.1-16.6-6-25.6-14.3-25.6C17.4,299.9,10.4,315.7,10.6,329.9z"/>
		<path fill="#474A58" d="M95.9,339.6c0,18.6-8.3,36.1-21.5,36.1c-9.4,0-13.1-7.9-13.1-16.9c0-5.3,0.8-11,2.2-15.8
			c-0.4,0.1-0.7,0.2-1.1,0.2c-1.6,0-3.1-1.6-2.8-4.1c1.3-10.6,10.6-21.8,21.1-21.8C89.8,317.3,95.9,325.2,95.9,339.6z M88.7,338.9
			c0-9.2-3.1-15.1-8.9-15.1c-4.3,0-9.5,5.2-12.2,11.5c0.5-0.2,1-0.4,1.4-0.4c2.2,0,4,2.2,2.8,5.2c-2.3,7.4-3.2,13.6-3.2,18.4
			c0,6.8,2.2,10.8,6.5,10.8C82.2,369.2,88.7,354.4,88.7,338.9z"/>
		<path fill="#474A58" d="M207.1,319c0,9.8-5.9,23.9-21,34.2c-4.9,3.4-9.5-2-4.2-5.9c11.2-8.2,17.6-18.4,17.6-28.6
			c0-10.3-8.2-18.6-23.2-18.6c-23.6,0-50.3,18.8-50.3,41.8c0,9.4,7.2,13.7,16.8,13.7c8.5,0,16.8-6,23.2-13.9
			c1.4-1.8,1.8-3.7,4.3-3.7c1.2,0,3,0.8,2.2,5.3c-0.7,4-4.9,29.9-5.4,32.5c-0.4,2.5-2.4,3.7-4.2,3.7c-1.9,0-3.6-1.3-3.2-4.1
			c0.4-3.2,2.2-13.6,3.4-20.3c-5.8,5-14,7.4-20.9,7.4c-13.8,0-23.6-7.4-23.6-21.6c0-26,29.5-47.8,58.6-47.8
			C195.2,293.2,207.1,303.6,207.1,319z"/>
		<path fill="#474A58" d="M247.9,337.3c0,18.5-7.6,38.5-21.7,38.5c-5.9,0-9.8-3.7-11.5-8.8c-2.4,13.4-4,22.7-5.3,31.6
			c-0.7,4.9-7.7,4.2-7.1-0.7c0.8-7.2,7.4-46.3,14.5-78.2c1.1-4.9,8.4-3.8,7.1,1.9l-0.6,2.5c3.2-3.4,7.2-5.6,11.5-5.6
			C243.6,318.5,247.9,326.3,247.9,337.3z M240.6,339.1c0-10.4-2.9-14.2-6.1-14.2c-5.6,0-14,10.4-16.7,24.5l-0.2,1.4
			c1.8-0.2,3.7,1,2.8,4.8c-1.7,6.7,1.3,13.6,5.9,13.6C234.7,369.2,240.6,350.8,240.6,339.1z"/>
		<path fill="#474A58" d="M314.2,378.4c-3.8-2-7.3-4.3-10.6-6.7c-3.7,2.6-8.2,4.2-13.3,4.2c-15,0-19.6-11.3-19.6-20.2
			c0-5.4,0.5-9.2,2.2-13.9c0.6-1.4,2-2.4,3.6-2.4c1.8,0,3.8,1.4,3,4.7c-1.4,6.5-1.3,9.2-1.3,11.2c0,7,3.2,13.7,12.1,13.7
			c2.8,0,5.4-0.8,7.7-2.3c-11.8-11.5-17-26.2-17-42.5c0-17.5,6.8-31.1,20.6-31.1c14.6,0,20.6,16.9,20.6,30.8
			c0,14.5-4.1,31.9-12.8,42.5c2.5,1.9,5.3,3.8,8.4,5.6C322.9,375,318.8,380.9,314.2,378.4z M303.6,361.4c7.3-9,11-24.7,11-36
			c-0.1-17.2-5.8-25.6-13.2-25.6c-8.8,0-13.1,11.2-13.1,22.4C288.2,338,292.7,350.9,303.6,361.4z"/>
		<path fill="#474A58" d="M362.8,319.7c1.1-4.8,8.2-3.8,7,1.9c-5,25.3-10.2,48.4-15.8,76.4c-1,4.9-7.7,4.1-7.1-0.8
			c0.5-3.2,3.2-16.4,5.4-26.9c-2.6,3.1-6.1,5.4-10.2,5.4c-9.4,0-13-7.6-13-18c0-18.5,7.4-39.4,21.6-39.4c5.5,0,9,3.5,10.7,8.4
			L362.8,319.7z M357.2,345.7c-1.6-0.1-3.2-1.3-2.6-4c0.5-2.2,1.1-5.9,1.1-8c0-5.8-2-8.8-5.3-8.8c-8.2,0-14.3,19.6-14.3,31.2
			c0,10.4,2.6,13.1,5.9,13.1C347.5,369.2,354.5,357.5,357.2,345.7z"/>
		<path fill="#474A58" d="M425.7,319.6c-0.8,5.3-3,18-5.5,31.1c-3.6,18.2-5.9,25.2-16.4,25.2c-7.1,0-14.5-4.6-9.4-22.4
			c1.7-5.9,8.6-4,7,1.6c-4,12.7,1,14.2,2.5,14.2c5.2,0,6.4-6.2,9.1-19.6c1.6-7.8,3.5-19,5.4-30.5c0.5-2.8,2.3-4,4.1-4
			C424.3,315.1,426.2,316.8,425.7,319.6z M472.4,356.3c-1.8,6.7-7.7,19.4-19.2,19.4c-11.9,0-20.5-13.7-25.6-21.8
			c-0.8-1.4-1.3-2.8-1.3-3.8c0-1.6,1.2-2.4,3-3.8c9.8-7.8,21.7-19.6,21.7-33.7c0-7.8-3.2-12.1-12.5-12.1c-9.4,0-22.7,5-32.5,11.4
			c-3.6,2.4-6.1,0.1-6.1-2.4c0-1.1,0.5-2,1.4-2.9c4.6-3.8,22.3-13.2,37.3-13.2c12.8,0,20,7.1,20,19.3c0,12.8-9.6,28.8-24.5,38.4
			c4.7,6.7,12.6,17.9,19.3,17.9c3.5,0,7.7-3.6,12.4-15.2c1-2.3,2.8-3.1,4-3.1C471.9,350.5,473.4,353.2,472.4,356.3z"/>
		<path fill="#474A58" d="M514.8,345.4c-11.8,4.4-20.2,0.1-22.1-8.4c-5.2,10.9-12.8,27-15.6,32.5c-2.4,4.9-4.4,6.1-6.4,6.1
			c-4.9,0-5.3-5.6-5.3-7.8c0-13.1,2.6-31.7,6.6-46.1c0.6-2.3,2.3-3.5,4-3.5c2.2,0,4,1.9,2.9,6c-2.8,10.6-6.2,28.6-6.7,40.1
			c5.5-12.1,17-35.9,19.8-42c1.8-4.1,3.1-5.4,5.3-5.4c1.7,0,4,1.1,3.5,4.7c-0.4,2.8-1.6,5.8-1.6,10.1c0,4,1.7,8.3,7,8.3
			c1.9,0,4.3-0.5,7.2-1.4C517.8,336.7,520.2,343.3,514.8,345.4z"/>
		<path fill="#474A58" d="M606.2,342.1c0,1.7-1.4,3.5-3.7,3.5c-4.9,0-16.3,1-26,3.4c2.6,2.5,4.4,5.6,4.4,10
			c0,13.6-13.7,18.6-21.5,18.6c-8.5,0-13.3-5-13.3-12.1c0-7.2,5.3-13.2,14.2-17.8c-9-4.3-19.6-9.8-19.6-25.4c0-18.8,20.2-29,33.2-29
			c15.4,0,21.8,8.3,21.8,18.7c0,6.1-2.8,12.8-8.4,19.3c-3.5,4-10,1.2-5.9-4.4c4.4-6.1,6.6-10.8,6.6-14.8c0-7.3-5.4-11.9-13.8-11.9
			c-13.6,0-25.9,10.6-25.9,22.6c0,13,11.2,16.7,20.4,21.4c8.8-2.9,20.8-5,32.9-5.4C604.8,338.5,606.2,340.3,606.2,342.1z
			 M573.2,359.4c0-3.5-2-5.8-5.3-7.8c-8.5,3.5-14.3,8.4-14.3,14c0,2.8,2.2,4.9,5.9,4.9C564.1,370.7,573.2,367.2,573.2,359.4z"/>
		<path fill="#474A58" d="M637.7,347.3c-7.6,1.2-13.4,3.1-18,5.3c1.9,3.7,2.8,7.2,2.8,10.8c0,8.3-5.3,13.1-12.1,13.1
			c-4.9,0-10.1-4-10.1-10.9c0-2.9,1.2-9.4,9.1-15c-3.8-5.2-8-10-8.2-15.8c0-9.5,8-17.9,18.5-17.9c5,0,10.3,3,10.3,12
			c0,3.6-1.1,6.8-4.2,6.8c-3.5-0.1-2.9-3.5-2.9-6.8c0-3.7-1.8-4.9-3.8-4.9c-5.8,0-10.7,5-10.7,10.7c0,3.7,3.6,7.2,6.7,11l0.8,1.1
			c5-2.5,11.8-4.9,20.9-6.4C641.6,339.6,643.1,346.4,637.7,347.3z M615.2,364.7c0-3-0.8-5.6-2-8.2c-4,3.2-5.8,6.6-5.8,9.1
			c0,2.3,1.2,4.3,3.7,4.3C614.4,370,615.2,366.5,615.2,364.7z"/>
		<path fill="#474A58" d="M747.2,305.6c0,1.7-1.4,3.5-4.3,3.6c-8.9,0.4-18.7,0.2-27.5,0.2C713.6,321,708.8,350,705,372
			c-0.5,2.8-2.2,3.7-3.7,3.7c-2.2,0-4.2-1.6-3.6-4.9c3.4-20.3,6.8-42.7,10.3-61.2c-5.3,0-10,0-13.4,0.2
			c-14.8,0.7-23.8,4.1-23.8,11.5c0,9.1,13.6,7,19.7,2.5c2.9-2.2,5.8-1.1,5.8,1.8c0,1.8-1.1,3.2-3.1,4.7c-7.6,5.3-30,9-29.8-8.8
			c0.1-11.3,11.4-16.8,26-18c3.4-0.4,11.9-0.5,21.5-0.6c0.5-0.1,0.8-0.1,1.3,0c10.4-0.2,22.1-0.4,30.2-0.7
			C745.4,302.2,747.2,303.2,747.2,305.6z"/>
		<path fill="#474A58" d="M782.5,346.9c-13.4,26.9-23.8,29.8-29.6,29.8c-7.4,0-10.6-5.9-10.6-12.6c0-10.9,2.2-25.6,4.8-38.4h-2.2
			c-3.5,0-4.3-2-4.3-3.4c0-1.2,0.8-3,2.6-3.1l5.3-0.2c1.6-7.4,3.2-13.8,4.4-17.9c1.3-4.3,8.6-4.1,7,2.9c-1.1,4.7-2.3,9.6-3.5,14.6
			c4.4-0.1,9.2-0.2,14.3-0.5c2.8-0.1,4.3,1.1,4.3,3.4c0,1.2-1,3.2-4,3.4c-6.2,0.2-11.6,0.5-16.1,0.6c-3,14.2-5.3,28.1-5.3,37
			c0,5.3,1.1,7.7,4.3,7.7c2.8,0,11-4.2,22.9-26.8c0.7-1.3,2-2.4,3.5-2.4C782.6,340.9,784.4,343.1,782.5,346.9z"/>
		<path fill="#474A58" d="M876.5,340.7c-8.2,30.7-18.2,34.7-24.1,34.6c-11-0.1-11.9-15.7-9.6-34.9c-6.7,18.8-15.2,35.4-25.3,35.4
			c-9.7,0-11-8-11-17.8c0-15.6,6.2-45,11-61.3c0.7-2.4,2.3-3.4,4-3.4c2.3,0,3.8,2.3,3.2,4.9c-5.8,22-10.9,44.4-10.9,61.7
			c0,5.2,1.3,9,3,9c9.2,0,23.8-38.9,31.2-67.6c1.1-4.4,8.6-4.4,7.1,2.5c-6.2,27.5-9.2,64.6-1.9,64.6c5,0,11.9-11.6,17-30.2
			C871.3,333.8,878.1,334.2,876.5,340.7z"/>
		<path fill="#474A58" d="M932.5,347.3c-10.2,23.8-20.5,28.6-26.8,28.6c-7,0-9.2-6.6-9.2-15.8c0-2.2,0.1-4.3,0.4-6.6
			c-5.3,12.8-11,22.2-19.2,22.2c-8.3,0-10.4-6.7-10.4-15.7c0.1-10.8,3.8-28.8,7.1-39.6c1.4-4.9,8.5-3.8,7,2.5
			c-4.7,19.3-6.7,30.4-6.7,37.7c0,5.6,1.4,8.5,3.5,8.5c4.2,0,12.8-14.6,22.4-46.1c1.3-4.4,3.5-5.6,5.5-5.6c2.4,0,4.4,2.2,3.1,7.1
			c-3.5,13.6-5.4,26.9-5.4,35.5c0,5.9,0.8,9.4,2.6,9.4c4,0,12.4-8,19.6-24.5c0.7-1.7,2-2.9,3.7-2.9
			C931.7,341.9,933.7,343.6,932.5,347.3z"/>
		<path fill="#474A58" d="M1015.8,325.4c-2.9,0.4-6.2,0.5-9,0.5c-2.6,0-5-0.1-7.3-0.2c-2.3,8.2-5.5,17.5-9.8,26.5
			c-5.8,12.4-13.7,23.6-22.2,23.6c-8.2,0-11-9.2-11-19.4c0-17.3,4-35.6,6.2-44.8c1.6-6.4,8.5-3.8,7.1,2.6c-4.4,19.6-6,33-6,41.8
			c0,9,1.7,12.8,4.2,12.8c4.2,0,10-9,15.2-20.5c3.5-7.4,6.5-16,8.8-23.8c-8.4-1.9-12.8-6.4-12.8-15.4c0-7.6,5.3-16,12.8-16
			c3.4,0,10.7,1.4,10.7,14.2c0,2.9-0.6,7-1.6,11.5c1.6,0.1,3.2,0.1,5,0.1c4,0,7.6-0.5,9.6-0.6
			C1020.5,318.1,1022.3,324.6,1015.8,325.4z M993.6,318c1-4.4,1.6-8.4,1.6-11.3c0-3.8-1-6.6-3.2-6.6c-3,0-5.4,4.4-5.4,9.6
			C986.5,314.4,989.1,316.8,993.6,318z"/>
		<path fill="#474A58" d="M1059.7,342.8c-3.5,1-8.9,1.6-15.5,1.7c-0.8,2.3-1.7,4.4-2.5,6.6c-5.6,13.6-13.9,24.7-22.1,24.7
			c-8.3,0-11.2-11.3-11.2-24.1c0-12.5,2.6-26.3,5.4-32.5c0.7-1.8,2-2.5,3.4-2.5c2.2,0,4.2,2,3.4,5.2c-3.4,12.8-4.8,23.8-4.8,31.9
			c0,9.6,1.9,15.6,4.6,15.6c4,0,11.2-11.6,15.8-24.1l0.7-2c-6-2.6-11.2-9.1-11.2-19.7c0-5.3,2-10.4,4.1-13c2.9-3.6,5.9-4.3,8.5-4.3
			c6.6,0,10.4,6.2,10.4,13.4c0,5.4-1,11.5-2.5,17.9c4.2-0.1,8.5-0.8,11.6-1.3C1062.8,335.4,1064.9,341.4,1059.7,342.8z
			 M1039.1,336.2c3.2-12.1,4.1-23.4-1-23.4c-2.8,0-5.2,5.2-5.2,10.3C1032.9,329.6,1034.9,334.2,1039.1,336.2z"/>
	</g>
</g>
</svg>
