<?xml version="1.0" encoding="utf-8"?>
<!-- Generator: Adobe Illustrator 19.2.1, SVG Export Plug-In . SVG Version: 6.00 Build 0)  -->
<svg version="1.1" xmlns="http://www.w3.org/2000/svg" xmlns:xlink="http://www.w3.org/1999/xlink" x="0px" y="0px"
	 viewBox="0 0 1269.1 274.8" enable-background="new 0 0 1269.1 274.8" xml:space="preserve">
<g id="Layer_1">
	<g>
		<path fill="#E2E7E8" d="M443.9,76.9c-1,5.6-1.4,11.4-1.4,17.2c0,4.3-1.7,6.7-5.4,6.7c-0.5-7.9-0.2-15.7,0.6-23.3
			c-1.9,0.1-3.8,0.1-5.6,0.1c-4.9,0-7.1-2.9-7.1-7c4.1,0,8.8-0.4,13.7-1c3.5-22.3,11.3-41.8,17.4-54.4
			c-25.7,5.9-48.8,25.1-48.8,46.6c0,18.6,20.8,25.2,27.2,25.2c0,2-2.2,3.4-5,3.4c-9.5,0-28.8-8.4-28.8-31.9
			c0-25.4,27.6-47.5,59.4-51.1c2.6-4.8,4.3-7.4,4.3-7.4c1.8,0.1,5.9,2.2,5.9,5.5c0,0.4-0.1,0.8-0.4,1.4
			c22.8,0.2,36.5,10.6,36.5,21.6C506.3,57.1,473,73.3,443.9,76.9z M500.7,28.7c0-10.9-11.3-15.1-29.2-15.1c-1.6,0-3.2,0.1-4.8,0.2
			c-5.5,11-16.2,31.6-21.4,55C471.2,64.1,500.7,51.2,500.7,28.7z"/>
		<path fill="#E2E7E8" d="M557.7,54.7c-1.4,3.1-28.4,43.6-34.3,43.7c-6,0-13.6-4-13.6-16.6c0-11.2,3.4-25.3,6.1-34.4
			c1.6-5.8,3.5-11,4.7-10.8c2.5,0.4,7.1,3.5,6.4,7.9c-0.4,2.3-1.8,5.4-3.7,8.6c-2.9,8.9-6.6,21.8-6.6,32.3c0,7,4.2,8.4,5.6,8.4
			c1.9,0,33.2-43.6,33.2-43.6C556.6,50.3,558.6,52.7,557.7,54.7z M513.3,20c0.8-6.6,17.4-10.9,20.6-7.7c0.7,0.7,1.2,1.6,1.3,2.3
			c1,1.1,1.9,3,1.6,4.2c-2.5,8.5-16.9,10.2-20,8.2C514.1,25.3,512.9,21.6,513.3,20z M518.8,22.3c0,1.3,10.2-1.4,14.2-5.8
			C527.9,15.6,518.8,19.1,518.8,22.3z"/>
		<path fill="#E2E7E8" d="M577.8,72.8c3.5,3.8,5.9,7.8,5.9,11.9c0,10.1-10.3,18.1-18.4,18.1c-6.6,0-12.1-4.4-12.1-12.4
			c0-6.5,5.9-12.6,14-18c-7.4-7.8-16.8-15.8-16.8-25c0-9.7,8.3-22.1,27.4-22.1c6.5,0,14.8,2.6,17.5,10c2.3-4.9,4.7-9,5.3-9
			c2.6,0,3.6,2.4,3.6,4.6c0,2.6-9,23.5-10.3,22.7c-1.3,0-2.8-1.1-2.8-4.9c0-1.1,0.4-2.6,0.8-4.4c0-1,0.1-2.2,0.1-3.6
			c0-6-6.2-8.8-13.6-8.8c-14.9,0-22.3,8.4-22.3,14.6c0,7.3,9.6,14.5,17.4,22.1c19.7-10.9,46.4-18.4,46.9-18.4c1.8,0,2.3,0.7,2.3,2.8
			C622.7,54,596.8,62,577.8,72.8z M571.4,76.8c-7.8,5.3-13.3,11-13.3,16.9c0,4.2,4.4,4.6,6.2,4.6c4.2,0,12.2-5.8,12.2-10.9
			C576.5,83.9,574.4,80.4,571.4,76.8z"/>
		<path fill="#E2E7E8" d="M691,54.5c-1,2.9-28.1,43.8-34,43.8c-8.4,0-12.6-5.8-12.6-15.7c0-2.3,0.4-5.4,0.8-8.9
			c-6.5,11.9-14.4,25.7-16.1,25.7c-7.6,0-15.7-7.6-15.7-18.6c0-4.4,0.5-8.6,1.3-12.2c-5.4-1.4-9.2-5.6-9.2-15.1
			c0-11.9,13.8-27.1,35.5-27.1c23.5,0,16,19.6,14.3,26c1.9,0.8,3.4,2.2,3.4,3.4c0,1.7-7.8,15.5-7.8,31.8c0,5,3.1,6.4,5,6.4
			s32.6-43.6,32.6-43.6C690.4,50.3,692,51.6,691,54.5z M616.2,63c2.5-7.9,5.9-12.7,5.9-12.7c2.5,0,7.1,1.9,7.1,4.6
			c0,0.5-1.8,4-3.8,8.5c9.2-2,20.8-8.9,24.1-10.7c0.4-2.4,8.6-21.5-4.4-21.5c-18.8,0-32.4,13.4-32.4,24.5
			C612.6,59.6,614.1,61.9,616.2,63z M648.2,58.6c-5.2,3.2-15.7,8.8-25,10.1c-1.7,4.4-3.1,9.4-3.1,13.4c0,10.8,7.3,12.1,7.4,12.1
			C628.2,94.2,643.1,67.6,648.2,58.6z"/>
		<path fill="#E2E7E8" d="M766.1,53.3c0,2.3-29,44.9-34.6,44.9c-12.1,0-16.1-12.5-16.1-27c0-13.1,2.5-24,4.3-32.6
			c-8.4,13.4-36,59.6-36,59.8c-2.3,0-5.5-0.8-5.5-5.4c0-15.7,8.2-49,10.2-54.6c2.5,0,7.2,1.3,7.2,4.8c0,1.6-8.3,23.6-11,43.7
			c8.4-14.5,32-58.1,36.8-59.6c0.1,0,0.1,0,0.2,0c3.4,0.1,7.4,2.3,7.4,6c0,8.6-5.9,28.1-5.9,43.4c0,7.7,1.7,16.7,6.8,16.7
			c2.5,0,33-43,33-43C764.7,50.3,766.1,50.5,766.1,53.3z"/>
		<path fill="#E2E7E8" d="M803.3,54.7c-1.4,3.1-28.4,43.6-34.3,43.7c-6,0-13.6-4-13.6-16.6c0-11.2,3.4-25.3,6.1-34.4
			c1.6-5.8,3.5-11,4.7-10.8c2.5,0.4,7.1,3.5,6.4,7.9c-0.4,2.3-1.8,5.4-3.7,8.6c-2.9,8.9-6.6,21.8-6.6,32.3c0,7,4.2,8.4,5.6,8.4
			c1.9,0,33.2-43.6,33.2-43.6C802.2,50.3,804.3,52.7,803.3,54.7z M758.9,20c0.8-6.6,17.4-10.9,20.6-7.7c0.7,0.7,1.2,1.6,1.3,2.3
			c1,1.1,1.9,3,1.6,4.2c-2.5,8.5-16.9,10.2-20,8.2C759.8,25.3,758.6,21.6,758.9,20z M764.4,22.3c0,1.3,10.2-1.4,14.2-5.8
			C773.6,15.6,764.4,19.1,764.4,22.3z"/>
		<path fill="#E2E7E8" d="M865.6,53.2c0,2.5-26.6,46.3-51.4,46.3c-8.9,0-19.3-9.1-19.3-25.3c0-21.7,17-47.8,27-47.8
			c10.8,0,17.6,4.9,17.6,14.8c0,17.2-17.8,32-36.6,33.5c-0.1,1.1-0.1,2.2-0.1,3.2c0.1,12.1,8.3,16.7,10.9,16.7
			c20.2,0,48.7-44.3,49.2-44.3C864,50.3,865.6,51.2,865.6,53.2z M803.4,69.5c17-3.8,29.4-18.5,29.4-29.9c0-7-4.1-8.6-7.7-8.6
			C821.7,31,806.8,48.7,803.4,69.5z"/>
		<path fill="#E2E7E8" d="M93,198.1c-12.1,0.8-23.5,3-33.4,6.2c-6.2,19.2-22.4,38.2-28.6,38.2c-5.3,0-11-5.4-11-12.8
			c0-11.4,14.5-21.6,32-28.1c1.6-5.2,2.6-10.2,2.6-14.8c0-6.7-3.6-11.2-8-11.2c-1.9,0-20.2,14.8-33.8,54.5c-4.3,16.9-7.8,33-6.8,39
			c-3.5,0-6-2.2-6-6.7c0-19.7,18.7-87.2,19.7-87.4c3.1-0.5,7.3,1.2,7.1,4.7c-0.1,1.2-4.8,12.4-8.9,26.4c11.5-24.6,23-35.6,28.6-35.6
			c9.5,0,15.2,8.2,15.6,18.8c0.1,3-0.2,6.1-1,9.4c10-2.9,20-4.4,28.7-4.4C91.6,194.3,94,195.8,93,198.1z M49.7,208.2
			c-14.4,6.4-23.5,14.9-23.5,23.3c0,3,1.8,6.2,3.5,6.2C33.1,237.7,43.4,223.6,49.7,208.2z"/>
		<path fill="#E2E7E8" d="M151.4,198.8c-1.7,2.9-12.7,13.7-32.4,18.7c-7.8,14-19.4,25.8-22.8,25.8c-7.6,0-15.7-7.7-15.7-19.7
			c0-2.8,0.2-5.3,0.6-7.7c-6.1-3.6-9.8-9.5-9.8-16.7c0-15.1,16.2-29,34.3-29c14.9,0,20.8,10.4,20.8,23.9c0,5.2-1.4,10.8-3.8,16.3
			c17.2-6.2,28.2-16.2,28.2-16.2C151.4,194.3,153,196.2,151.4,198.8z M82.1,211.1c2.6-10.4,7.6-16.8,7.6-16.8c2.5,0,6.6,1.9,6.6,4.6
			c0,0.8-4.1,7.9-6.8,15.6c2.2,0.5,4.4,0.7,7,0.7c6,0,11.6-0.7,16.8-1.9c4-7.9,7.1-16.6,7.1-24c0-6-1.7-13.6-11.4-13.6
			c-13.6,0-30.7,11-30.7,26.2C78.1,205.9,79.6,208.9,82.1,211.1z M109.8,219.4c-3.8,0.6-7.9,0.8-12.2,0.8c-3.4,0-6.6-0.5-9.6-1.2
			c-0.6,2.4-1,4.7-1,6.8c0,11.6,7.6,12.7,8.6,12.7C96.4,238.7,103.4,230.3,109.8,219.4z"/>
		<path fill="#E2E7E8" d="M208.1,216.8c3.5,3.8,5.9,7.8,5.9,11.9c0,10.1-10.3,18.1-18.4,18.1c-6.6,0-12.1-4.4-12.1-12.4
			c0-6.5,5.9-12.6,14-18c-7.4-7.8-16.8-15.8-16.8-25c0-9.7,8.3-22.1,27.4-22.1c6.5,0,14.8,2.6,17.5,10c2.3-4.9,4.7-9,5.3-9
			c2.6,0,3.6,2.4,3.6,4.6c0,2.6-9,23.5-10.3,22.7c-1.3,0-2.8-1.1-2.8-4.9c0-1.1,0.4-2.6,0.8-4.4c0-1,0.1-2.2,0.1-3.6
			c0-6-6.2-8.8-13.6-8.8c-14.9,0-22.3,8.4-22.3,14.6c0,7.3,9.6,14.5,17.4,22.1c19.7-10.9,46.4-18.4,46.9-18.4c1.8,0,2.3,0.7,2.3,2.8
			C253,198,227,206,208.1,216.8z M201.6,220.8c-7.8,5.3-13.3,11-13.3,16.9c0,4.2,4.4,4.6,6.2,4.6c4.2,0,12.2-5.8,12.2-10.9
			C206.8,227.9,204.6,224.4,201.6,220.8z M195.6,162c0-0.8,27-19.9,31.1-19.9c1.1,1.1,3.2,2.9,1.7,6.1c-1.2,2.5-10.7,8.6-28.4,15.5
			C197.5,164.6,195.5,162.7,195.6,162z"/>
		<path fill="#E2E7E8" d="M240.8,218.2c0-23.9,17.9-47.8,30.5-47.8c8.6,0,13.1,5.4,13.1,13.4c0,10.2-3.6,16-4.4,16
			c-2.9,0-5.9-2.6-5.9-4c0-0.4,3.2-6.4,3.2-12c0-6.4-1.4-8.9-3.7-8.9c-8.8,0-24.6,26.9-24.6,46c0,13.2,8,17.6,10.7,17.6
			c20.9-0.2,49.2-44.3,49.4-44.3c1.1,0,2.6,1,2.6,2.9c0,3.5-27.7,46.3-50,46.3C251.6,243.5,240.8,234.4,240.8,218.2z"/>
		<path fill="#E2E7E8" d="M349.8,198.7c-1.4,3.1-28.4,43.6-34.3,43.7c-6,0-13.6-4-13.6-16.6c0-11.2,3.4-25.3,6.1-34.4
			c1.6-5.8,3.5-11,4.7-10.8c2.5,0.4,7.1,3.5,6.4,7.9c-0.4,2.3-1.8,5.4-3.7,8.6c-2.9,8.9-6.6,21.8-6.6,32.3c0,7,4.2,8.4,5.6,8.4
			c1.9,0,33.2-43.6,33.2-43.6C348.7,194.3,350.8,196.7,349.8,198.7z M305.4,164c0.8-6.6,17.4-10.9,20.6-7.7c0.7,0.7,1.2,1.6,1.3,2.3
			c1,1.1,1.9,3,1.6,4.2c-2.5,8.5-16.9,10.2-20,8.2C306.2,169.3,305,165.6,305.4,164z M310.9,166.3c0,1.3,10.2-1.4,14.2-5.8
			C320,159.6,310.9,163.1,310.9,166.3z"/>
		<path fill="#E2E7E8" d="M416.9,198.5c-1,2.9-28.1,43.8-34,43.8c-8.4,0-12.6-5.8-12.6-15.7c0-2.3,0.4-5.4,0.8-8.9
			c-6.5,11.9-14.4,25.7-16.1,25.7c-7.6,0-15.7-7.6-15.7-18.6c0-4.4,0.5-8.6,1.3-12.2c-5.4-1.4-9.2-5.6-9.2-15.1
			c0-11.9,13.8-27.1,35.5-27.1c23.5,0,16,19.6,14.3,26c1.9,0.8,3.4,2.2,3.4,3.4c0,1.7-7.8,15.5-7.8,31.8c0,5,3.1,6.4,5,6.4
			s32.6-43.6,32.6-43.6C416.3,194.3,417.8,195.6,416.9,198.5z M342.1,207c2.5-7.9,5.9-12.7,5.9-12.7c2.5,0,7.1,1.9,7.1,4.6
			c0,0.5-1.8,4-3.8,8.5c9.2-2,20.8-8.9,24.1-10.7c0.4-2.4,8.6-21.5-4.4-21.5c-18.8,0-32.4,13.4-32.4,24.5
			C338.5,203.6,340,205.9,342.1,207z M374,202.6c-5.2,3.2-15.7,8.8-25,10.1c-1.7,4.4-3.1,9.4-3.1,13.4c0,10.8,7.3,12.1,7.4,12.1
			C354.1,238.2,369,211.6,374,202.6z"/>
		<path fill="#E2E7E8" d="M492,197.3c0,2.3-29,44.9-34.6,44.9c-12.1,0-16.1-12.5-16.1-27c0-13.1,2.5-24,4.3-32.6
			c-8.4,13.4-36,59.6-36,59.8c-2.3,0-5.5-0.8-5.5-5.4c0-15.7,8.2-49,10.2-54.6c2.5,0,7.2,1.3,7.2,4.8c0,1.6-8.3,23.6-11,43.7
			c8.4-14.5,32-58.1,36.8-59.6c0.1,0,0.1,0,0.2,0c3.4,0.1,7.4,2.3,7.4,6c0,8.6-5.9,28.1-5.9,43.4c0,7.7,1.7,16.7,6.8,16.7
			c2.5,0,33-43,33-43C490.6,194.3,492,194.5,492,197.3z"/>
		<path fill="#E2E7E8" d="M557.6,198.5c-1,2.9-28.1,43.8-34,43.8c-8.4,0-12.6-5.8-12.6-15.7c0-2.3,0.4-5.4,0.8-8.9
			c-6.5,11.9-14.4,25.7-16.1,25.7c-7.6,0-15.7-7.6-15.7-18.6c0-4.4,0.5-8.6,1.3-12.2c-5.4-1.4-9.2-5.6-9.2-15.1
			c0-11.9,13.8-27.1,35.5-27.1c23.5,0,16,19.6,14.3,26c1.9,0.8,3.4,2.2,3.4,3.4c0,1.7-7.8,15.5-7.8,31.8c0,5,3.1,6.4,5,6.4
			s32.6-43.6,32.6-43.6C557,194.3,558.6,195.6,557.6,198.5z M482.9,207c2.5-7.9,5.9-12.7,5.9-12.7c2.5,0,7.1,1.9,7.1,4.6
			c0,0.5-1.8,4-3.8,8.5c9.2-2,20.8-8.9,24.1-10.7c0.4-2.4,8.6-21.5-4.4-21.5c-18.8,0-32.4,13.4-32.4,24.5
			C479.3,203.6,480.7,205.9,482.9,207z M514.8,202.6c-5.2,3.2-15.7,8.8-25,10.1c-1.7,4.4-3.1,9.4-3.1,13.4c0,10.8,7.3,12.1,7.4,12.1
			C494.9,238.2,509.8,211.6,514.8,202.6z"/>
		<path fill="#E2E7E8" d="M546.5,218.2c0-23.9,17.9-47.8,30.5-47.8c8.6,0,13.1,5.4,13.1,13.4c0,10.2-3.6,16-4.4,16
			c-2.9,0-5.9-2.6-5.9-4c0-0.4,3.2-6.4,3.2-12c0-6.4-1.4-8.9-3.7-8.9c-8.8,0-24.6,26.9-24.6,46c0,13.2,8,17.6,10.7,17.6
			c20.9-0.2,49.2-44.3,49.4-44.3c1.1,0,2.6,1,2.6,2.9c0,3.5-27.7,46.3-50,46.3C557.3,243.5,546.5,234.4,546.5,218.2z"/>
		<path fill="#E2E7E8" d="M692.4,197.3c0,2.3-29,44.9-34.6,44.9c-12.1,0-16.1-12.5-16.1-27c0-13.1,2.5-23.9,4.3-32.5
			c-11.3,17.9-36.4,59.6-36.4,59.6c-1.3,0-6-2.2-6-7.9c0-19.8,22.1-88.7,23-88.7c3.1,0,7,1.4,7,5.4c0,3.2-22.9,65-24.1,81.7
			c7.7-12.5,34.2-61.7,38.2-61.7c3.4,0,7.7,2.2,7.7,6c0,8.6-5.9,28.1-5.9,43.4c0,7.7,1.7,16.7,6.8,16.7c2.5,0,33-43,33-43
			C690.9,194.3,692.4,194.5,692.4,197.3z"/>
		<path fill="#E2E7E8" d="M782.6,198.7c-1.4,3.1-28.4,43.6-34.3,43.7c-6,0-13.6-4-13.6-16.6c0-5.6,0.8-12,2-18.1
			c-6.6,9.1-11.8,15.5-14.2,16.7c-1.7,0.8-3.7-0.7-3.7-2.5c10.2-10.7,15.8-18,20.4-25.1c0.5-1.9,1.1-3.7,1.6-5.4
			c1.6-5.8,3.5-11,4.7-10.8c2.5,0.4,7.1,3.5,6.4,7.9c-0.4,2.3-1.8,5.4-3.7,8.6c-2.9,8.9-6.6,21.8-6.6,32.3c0,7,4.2,8.4,5.6,8.4
			c1.9,0,33.2-43.6,33.2-43.6C781.5,194.3,783.6,196.7,782.6,198.7z M738.2,164c0.8-6.6,17.4-10.9,20.6-7.7c0.7,0.7,1.2,1.6,1.3,2.3
			c1,1.1,1.9,3,1.6,4.2c-2.5,8.5-16.9,10.2-20,8.2C739.1,169.3,737.9,165.6,738.2,164z M743.7,166.3c0,1.3,10.2-1.4,14.2-5.8
			C752.9,159.6,743.7,163.1,743.7,166.3z"/>
		<path fill="#E2E7E8" d="M928.3,233c0,2.4-5.2,10.1-16.6,10.1c-11.6,0-19.7-8.3-25.9-15.1c-7.9,8.2-14.6,14.3-16.8,14.3
			c-1.7,0-8.9-3-8.9-10.2c0-8.2,6.5-17.5,14.8-17.5c3.7,0,7.2,2,10.7,4.8c5.5-5.8,11.4-12.4,16.6-18c-4.9,1.6-9.1,2.3-11.2,2.3
			c-11,0-15.5-4.9-17.3-9.8c-9.8,7.3-25.2,14.2-37.3,21.8c4.1,4.2,7.1,8.5,7.1,13.1c0,10.1-10.3,18.1-18.4,18.1
			c-6.6,0-12.1-4.4-12.1-12.4c0-7.3,5.4-13.6,13.1-19.1c-7.3-7.4-15.8-15.2-15.8-23.9c0-9.7,8.3-22.1,27.4-22.1
			c6.5,0,14.8,2.6,17.5,10c2.3-4.9,4.7-9,5.3-9c2.6,0,3.6,2.4,3.6,4.6c0,2.6-9,23.5-10.3,22.7c-1.3,0-2.8-1.1-2.8-4.9
			c0-1.1,0.4-2.6,0.8-4.4c0-1,0.1-2.2,0.1-3.6c0-6-6.2-8.8-13.6-8.8c-14.9,0-22.3,8.4-22.3,14.6c0,6.8,8.5,13.7,16.1,20.8
			c13.4-8.2,30.7-15,40.7-22.2c-0.1-0.6-0.1-1.2-0.1-1.7v-1.8c0.4-9.7,5.5-16.9,8.5-17.6c5-1.2,8.5,2.5,8.9,3.6
			c0.4,1-5.6,9.1-10.7,16.2c0.1,4.1,1.7,10.3,10.7,10.3c5.5,0,11.6-0.8,17.9-4c3.1-4.9,14.5-20.9,16.7-19.7
			c2.4,1.4,5.5,6.2,3.1,10.3c-1.9,3.2-7.6,7.4-12.4,10.9c-6.2,7.1-16.1,18.1-25.2,27.7c6.7,6.2,13.6,13.6,21.6,13.6
			c5.2,0,11.4-2.8,14.5-7C926.4,230,928.3,231.8,928.3,233z M830.3,219.8c-7.4,5.4-12.5,11.2-12.5,17.9c0,4.2,4.4,4.6,6.2,4.6
			c4.2,0,12.2-5.8,12.2-10.9C836.3,227.5,833.7,223.7,830.3,219.8z M881.6,223.6c-2.5-2.6-4.9-4.4-7.2-4.4c-4.1,0-9.2,5.9-9.2,11.4
			c0,4.7,3,5.8,3,5.8C869.3,236.3,874.8,230.9,881.6,223.6z"/>
		<path fill="#E2E7E8" d="M984.1,186.6c-0.6,3.8-4.6,10.3-7.8,15.4c-0.7,9.6-2.5,31.3-6.2,45.7c-3.7,14.4-14.9,27.1-27.8,27.1
			c-16.7,0-22.6-11.8-22.6-24.5c0-8.4,6.2-18,6.8-18c2.2,0,6.2,1.6,6.2,4.9c0,1.9-6.1,8-6.1,17.5c0,6,3.2,15.4,12,15.4
			c11.4,0,20-9,23.8-21.8c3.4-11.6,6.1-29.2,7.3-38.3c-9.1,15.5-19.3,32.5-20.6,32.5c-6.1,0-13.8-8.2-13.8-23.6
			c0-14.6,9.8-42.1,10.6-42.1c2,0,7.2,1.4,7.2,4.9c0,3.1-10.7,27.1-10.7,40.1c0,11.5,5,15.2,5.4,14.5l22.3-37.2
			c1.7-7.6,5.3-21.1,7.4-20.9C980.1,178.6,984.8,181.9,984.1,186.6z"/>
		<path fill="#E2E7E8" d="M1067.5,196.4c0,3.2-11.2,17.9-24.5,17.9c-4.3,0-8.3-1.7-11.8-4.4c-3.2,18.5-17.8,33.5-24.5,33.5
			c-7.4,0-16.8-7-16.8-25.9c0-24.6,15.1-69.1,22.1-69.1c5.3,0,12.8,5.2,12.8,14.3c0,15-14.8,32-25,37c-1.6,8.3-2.6,16.9-2.6,25
			c0,13,7.8,14,7.8,14c8.6,0,18.1-21.8,20.8-34.4c-3.8-5.3-6.2-11.8-6.2-17c0-1.3,3.6-4.6,8.2-4.6c3.8,0,4.9,12.7,4.4,20.2
			c1.9,3.8,5.5,7.2,12.4,7.2c7.9,0,20.4-15.6,20.4-15.6C1066.9,194.3,1067.5,196.1,1067.5,196.4z M1001.5,192
			c7.9-5.8,17.9-20.3,17.9-30.4c0-6-2.5-8.2-4.1-8.2C1013.9,153.5,1006.4,171,1001.5,192z"/>
		<path fill="#E2E7E8" d="M1134.3,198.5c-1,2.9-28.1,43.8-34,43.8c-8.4,0-12.6-5.8-12.6-15.7c0-2.3,0.4-5.4,0.8-8.9
			c-6.5,11.9-14.4,25.7-16.1,25.7c-7.6,0-15.7-7.6-15.7-18.6c0-4.4,0.5-8.6,1.3-12.2c-5.4-1.4-9.2-5.6-9.2-15.1
			c0-11.9,13.8-27.1,35.5-27.1c23.5,0,16,19.6,14.3,26c1.9,0.8,3.4,2.2,3.4,3.4c0,1.7-7.8,15.5-7.8,31.8c0,5,3.1,6.4,5,6.4
			s32.6-43.6,32.6-43.6C1133.7,194.3,1135.3,195.6,1134.3,198.5z M1059.6,207c2.5-7.9,5.9-12.7,5.9-12.7c2.5,0,7.1,1.9,7.1,4.6
			c0,0.5-1.8,4-3.8,8.5c9.2-2,20.8-8.9,24.1-10.7c0.4-2.4,8.6-21.5-4.4-21.5c-18.8,0-32.4,13.4-32.4,24.5
			C1056,203.6,1057.4,205.9,1059.6,207z M1091.5,202.6c-5.2,3.2-15.7,8.8-25,10.1c-1.7,4.4-3.1,9.4-3.1,13.4
			c0,10.8,7.3,12.1,7.4,12.1C1071.6,238.2,1086.5,211.6,1091.5,202.6z"/>
		<path fill="#E2E7E8" d="M1123.2,218.2c0-23.9,17.9-47.8,30.5-47.8c8.6,0,13.1,5.4,13.1,13.4c0,10.2-3.6,16-4.4,16
			c-2.9,0-5.9-2.6-5.9-4c0-0.4,3.2-6.4,3.2-12c0-6.4-1.4-8.9-3.7-8.9c-8.8,0-24.6,26.9-24.6,46c0,13.2,8,17.6,10.7,17.6
			c20.9-0.2,49.2-44.3,49.4-44.3c1.1,0,2.6,1,2.6,2.9c0,3.5-27.7,46.3-50,46.3C1134,243.5,1123.2,234.4,1123.2,218.2z"/>
		<path fill="#E2E7E8" d="M1269.1,197.3c0,2.3-29,44.9-34.6,44.9c-12.1,0-16.1-12.5-16.1-27c0-13.1,2.5-23.9,4.3-32.5
			c-11.3,17.9-36.4,59.6-36.4,59.6c-1.3,0-6-2.2-6-7.9c0-19.8,22.1-88.7,23-88.7c3.1,0,7,1.4,7,5.4c0,3.2-22.9,65-24.1,81.7
			c7.7-12.5,34.2-61.7,38.2-61.7c3.4,0,7.7,2.2,7.7,6c0,8.6-5.9,28.1-5.9,43.4c0,7.7,1.7,16.7,6.8,16.7c2.5,0,33-43,33-43
			C1267.7,194.3,1269.1,194.5,1269.1,197.3z"/>
	</g>
</g>
<g id="Layer_2">
</g>
</svg>
