<?xml version="1.0" encoding="utf-8"?>
<!-- Generator: Adobe Illustrator 19.2.1, SVG Export Plug-In . SVG Version: 6.00 Build 0)  -->
<svg version="1.1" xmlns="http://www.w3.org/2000/svg" xmlns:xlink="http://www.w3.org/1999/xlink" x="0px" y="0px"
	 viewBox="0 0 670.5 385.4" enable-background="new 0 0 670.5 385.4" xml:space="preserve">
<g id="Layer_1">
	<g>
		<path fill="#E2E7E8" d="M235.6,9.1c-3.6,1.9-22.7,9.4-44.4,12.7c0.1,1.1,0.2,2,0.2,3.1c0,12.2-19.6,65.9-19.6,70.8
			c-1.9,0-5.4-0.8-5.4-5c0-6.4,17.4-49.9,18.8-68c-4.9,0.6-10,1-14.9,1c-16.6,0-30.4-1.1-30.4-9.5c0-6.4,13.1-10.4,28.4-10.4
			c9.7,0,17.2,4.4,20.6,11.3c25.3-5,48.6-15,49.7-15C240.3,1.6,240.9,6.2,235.6,9.1z M184.4,16c-2.2-4-7.2-5.8-14-5.8
			c-15,0-23.6,3.1-23.6,5.5c0,2.4,4,2.2,16.8,2.2C170.2,17.9,177.3,17.2,184.4,16z"/>
		<path fill="#E2E7E8" d="M289.7,51.1c-1,2.9-28.1,43.8-34,43.8c-8.4,0-12.6-5.8-12.6-15.7c0-2.3,0.4-5.4,0.8-8.9
			C237.5,82.2,229.6,96,227.9,96c-7.6,0-15.7-7.6-15.7-18.6c0-4.4,0.5-8.6,1.3-12.2c-5.4-1.4-9.2-5.6-9.2-15.1
			c0-11.9,13.8-27.1,35.5-27.1c23.5,0,16,19.6,14.3,26c1.9,0.8,3.4,2.2,3.4,3.4c0,1.7-7.8,15.5-7.8,31.8c0,5,3.1,6.4,5,6.4
			s32.6-43.6,32.6-43.6C289.1,46.9,290.7,48.2,289.7,51.1z M215,59.6c2.5-7.9,5.9-12.7,5.9-12.7c2.5,0,7.1,1.9,7.1,4.6
			c0,0.5-1.8,4-3.8,8.5c9.2-2,20.8-8.9,24.1-10.7c0.4-2.4,8.6-21.5-4.4-21.5c-18.8,0-32.4,13.4-32.4,24.5
			C211.4,56.3,212.8,58.6,215,59.6z M246.9,55.2c-5.2,3.2-15.7,8.8-25,10.1c-1.7,4.4-3.1,9.4-3.1,13.4c0,10.8,7.3,12.1,7.4,12.1
			C227,90.8,241.9,64.2,246.9,55.2z"/>
		<path fill="#E2E7E8" d="M380.1,93.2c0,14.6-19.8,30.8-31.1,30.8c-14.3,0-18.8-7.1-18.8-15.7c0-9.1,9.2-18.8,9.8-18.8
			c2.2,0,5.8,2.6,5.3,6c-0.2,1.9-8.6,7.7-8.6,15.2c0,4.8,2.4,8.6,8.8,8.6c11,0,29.8-19.6,29.8-29.8c0-5-4.2-8-10.1-10.7
			c-4.9,6.2-9.7,10.7-11.8,10.7c-7.6,0-13.4-8.3-13.4-18.1c0-1.7,0.1-3.5,0.2-5.2c-1.7-1.4-3.2-3.1-4.7-4.9l-16.1,16.3
			c4.3,3.7,7.1,8.8,7.1,16.2c0,26.8-21.2,40.7-30.6,40.7c-12.6,0-16.8-6.4-16.8-12.2c0-10.3,14.2-26.8,30.8-43.6
			c-0.7-0.4-1.4-0.6-2.3-1c-5.6,6.8-11,11.8-13.2,11.8c-7.6,0-13.2-8.8-13.2-18.6c0-2.2,0.1-4.2,0.4-6.1c-5.2-4.4-8.8-10.6-8.8-19.3
			c0-9.6,11-22.7,31.1-22.7c13.7,0,19.9,7.8,19.9,21.7c0,8.2-5.8,19.2-12.4,28.2c1.1,0.5,2,1,3,1.6c6.1-6.1,12.4-12.1,18.4-17.8
			c-1.4-3.1-2.2-6.7-2.2-11c0-9.6,10.3-22.7,31.1-22.7c12.8,0,19.6,7.6,19.6,21.7c0,8.4-6,20-12.5,29.4
			C375.2,77.9,380.1,83.4,380.1,93.2z M282.7,58.4c1.9-7.7,4.9-11.5,4.9-11.5c2.5,0,6.8,1.9,6.8,4.6c0,0.7-2.8,6.7-4.8,12.4
			c4.6,2.5,10.1,4.3,15.5,6.4c6.2-9.1,12.6-21,12.6-30.6c0-7.3-3.2-11.5-10.1-11.5c-17.2,0-28.2,12-28.2,20.4
			C279.4,52.6,280.6,55.8,282.7,58.4z M315.5,81.8c-15.8,16.6-30.8,33.8-30.8,42.2c0,4.9,4.2,5.9,7.6,5.9c9.7,0,29.2-19.7,29.2-38.9
			C321.4,87.1,319.1,84.2,315.5,81.8z M301.4,75.4c-4.4-1.7-9.2-3.6-13.4-6c-0.4,1.2-0.5,2.3-0.5,3.1c0,10.9,6,12,6.1,12
			C293.9,84.5,297.3,80.9,301.4,75.4z M337.6,52.1c4-3.8,7.7-7.4,10.9-10.8c2.5,0,6.8,1.9,6.8,4.6c0,0.8-4.6,10.4-7.2,18.5
			c4.4,2.4,9.6,4.2,14.6,6.5c6-9.4,12.4-21.6,12.4-30.8c0-6.4-2.3-11.9-10.1-11.9c-17.9,0-27.8,12-27.8,20.4
			C337.3,49.8,337.4,50.9,337.6,52.1z M341.5,59.4c0.5-2,1.1-4.1,1.7-5.9c-1.1,1.2-2.3,2.4-3.5,3.6C340.3,58,340.7,58.7,341.5,59.4z
			 M359.1,76.3c-4.2-1.7-8.6-3.5-12.7-5.8c-0.1,0.8-0.2,1.7-0.2,2.4c0,10.9,6.2,11.5,6.4,11.5C352.9,84.5,355.6,81.2,359.1,76.3z"/>
		<path fill="#E2E7E8" d="M457.6,49.8c0,2.5-26.6,46.3-51.4,46.3c-8.9,0-19.3-9.1-19.3-25.3c0-21.7,17-47.8,27-47.8
			c10.8,0,17.6,4.9,17.6,14.8c0,17.2-17.8,32-36.6,33.5c-0.1,1.1-0.1,2.2-0.1,3.2c0.1,12.1,8.3,16.7,10.9,16.7
			c20.2,0,48.7-44.3,49.2-44.3C456.1,46.9,457.6,47.9,457.6,49.8z M395.5,66.1c17-3.8,29.4-18.5,29.4-29.9c0-7-4.1-8.6-7.7-8.6
			C413.7,27.6,398.8,45.4,395.5,66.1z"/>
		<path fill="#E2E7E8" d="M512.2,49.8c0,2.5-10.4,17.2-24,17.2c-9.2,0-15-7.1-17.6-16.9l-19.7,44.9c-2.3,0-5.5-0.8-5.5-5.4
			c0-15.7,8.2-49,10.2-54.6c2.5,0,7.2,1.3,7.2,4.8c0,1.6-7.7,22.1-10.7,41.5l17.2-41c-0.1-1-0.1-1.8-0.1-2.8
			c0-13.9,5.6-26.5,8.8-26.5c3.5,0,8,2.6,8,4.4c0,1.1-6.6,15.2-10.8,24.5c0.8,12.7,4.4,22.7,14,22.7c10.2,0,21.2-15.6,21.2-15.6
			C511.5,46.9,512.2,48.5,512.2,49.8z"/>
		<path fill="#E2E7E8" d="M500.8,94.2c0-2.5,3.6-10.4,6.6-10.4c2.2,0,4.9,3.1,4.9,5.4c0,5.3-4.6,10.9-7.1,10.9
			C503.2,100.1,500.8,97.4,500.8,94.2z M505.4,73.2c0-40,17.4-62.9,18.2-62.9c1.8,0,6,1.9,6,5.5c0,4.3-17.2,22.4-19.2,57.8
			c-0.1,2.8-1.7,4.7-4.2,4.7C505.7,78.4,505.4,74.5,505.4,73.2z"/>
		<path fill="#E2E7E8" d="M86.6,238.9c3.2,3.4,2.3,7.7-2.6,11c-4.9,3.4-13.1,10-35.9,10C26.5,259.9,0,249.7,0,212.5
			c0-31.9,22.8-59,52.3-59c34.3,0,46.2,21.2,46.2,40.2c0,22.7-15,45.2-27.5,45.2c-7.7,0-12.8-5.8-12.8-15.7c0-2.6,0.4-6.1,0.8-9.6
			c-6.6,11.9-15.4,26.8-17.8,26.8c-6,0-17.5-3.5-17.5-21.2c0-17.8,12.8-43.7,31.1-43.7c16.7,0,17,11.9,15.2,18.2
			c1.4,0.5,2.6,1.6,2.6,3c0,2-8,15.1-8,31.4c0,6.4,4.2,6.8,4.2,6.8c8.5,0,23.8-22.7,23.8-45c0-14-9.7-29.8-35.3-29.8
			c-25.9,0-49.7,23.2-49.7,56c0,33.7,23,37.3,39.2,37.3C69.7,253.6,82.7,241.6,86.6,238.9z M63.6,195.6c0-0.1,0.1-0.1,0.1-0.2
			c0.1-0.4,0.4-0.6,0.6-0.8v-0.1c0-2.4,3.4-14-6.6-14c-12.6,0-27,24.5-27,43.9c0,10.4,7.7,10.8,8.5,10.7
			C40.2,234.8,57.2,206.6,63.6,195.6z"/>
		<path fill="#E2E7E8" d="M190.2,193.3c0,0-16.4,3.5-34.4,7.2c-8.3,19.3-13,33.7-13.4,34.7c-2,0-3.6-1.2-3.6-3.4s3.5-14.2,9.6-29.9
			l-8.6,1.8c-4.1,10.7-8,22.8-11.3,36.2c-2,0.1-3.5-0.8-3.6-3c-0.1-2.3,2-14.6,7.7-31.8c-11.5,2.4-20.6,4.1-22,4.2
			c-4,0.2-4.7-3.2-4.7-5c2-0.5,14.6-3.2,29.2-6.4c1-2.6,1.9-5.4,3-8.2c-13.1,2.3-23.8,4.1-25.2,4.1c-4-0.1-5.6-2.8-5.5-5.9
			c2.3-0.4,17.4-3.2,34.1-6.4c4.4-10.4,10-21.6,16.6-32.9c2.2-0.1,6.7,2.5,5.2,6.1c-0.7,1.8-6.4,10.8-13.3,25.2l8.4-1.4
			c4.7-10.2,10-20.8,15.8-30.4c2.9-0.5,6.5,3.1,4.4,6.6c-4.3,7.4-8.4,15-12,22.3c10.1-1.7,18.5-2.9,21.8-2.9c5.4,0,5.8,4.2,5.8,5.2
			l-31.6,5.9c-1.2,2.5-2.4,5.2-3.5,7.6c11.5-2.3,21.2-4.1,25.1-4.3C189.5,188.3,190.1,192.4,190.2,193.3z M151.2,194.5l3.2-7.7
			c-2.8,0.5-5.6,1.1-8.5,1.6c-1.1,2.5-2.3,5.2-3.4,8C145.4,195.7,148.3,195.1,151.2,194.5z"/>
		<path fill="#E2E7E8" d="M254.5,173.4c0,7.9-5.6,18.5-6.5,18.5c-2.8,0-5.3-2.3-5.6-4c0-2.8,5.3-9.4,5.3-16.6
			c0-7.6-3.7-9.5-10.8-9.7l-11.6,39c5.8,6,10.9,12.1,10.9,18.6c0,10.6-11.2,19.3-19.9,19.3c-0.8,0-1.6,0-2.3-0.1
			c-1.8,5.9-2.9,10-3,11c-2,0-4-0.6-4-4.1c0-1.6,0.5-4.6,1.4-8.6c-5.4-2.9-8.3-8.8-8.3-13.8c0-8,3.2-13.7,5-15.6
			c3.1,0.1,5.5,2.8,5.5,4.4c0,1.1-5,8.2-5,13.9c0,3.1,1.2,5.5,3.8,6.8c1.8-7.6,4.7-17.6,8.2-29.4c-7.2-7.4-15.1-15.5-15.1-24.4
			c0-10.6,9-23.9,29.6-23.9h0.1c0.8-3,1.8-6,2.8-9c3.1,0,5,3.2,4.1,7.4l-0.6,2.4C246.2,157.8,254.5,163.4,254.5,173.4z M220,195.4
			c3.1-10.3,6.5-21.7,10.2-33.5c-13,1.4-21.4,7.6-21.4,16C208.8,183.7,214.1,189.5,220,195.4z M222.8,208.7l-7.6,25
			c4.7-0.1,13.8-5.8,13.8-13C229.1,216.7,226.4,212.8,222.8,208.7z"/>
		<path fill="#E2E7E8" d="M256.6,234.8c1-4.4,31.4-51.5,52.6-86c1.6,0,4.1,3.2,3.1,6.1c-2.8,8.9-52.7,83.9-53,83.9
			C257.6,238.8,256.2,236.4,256.6,234.8z M264.4,173.5c0-10.6,5-22.7,14.4-22.7c1.9,0,8,2.3,8,9.5c0,14.5-9.2,22.6-14.4,22.6
			C269.5,182.9,264.4,179.9,264.4,173.5z M281.8,155.9c-8.8-3.4-15,21.6-11.9,21.5S281.8,169,281.8,155.9z M282.1,228.7
			c0-9.6,5.8-22.3,15.4-22.3c3.4,0,7.9,5,7.9,8.8c0,19.2-9.8,23-13.8,23C288.5,238.2,282.1,235.1,282.1,228.7z M299.8,211.6
			c-8.9,0-13.9,21.8-11.5,21.8C295.7,233.4,301.8,218.6,299.8,211.6z"/>
		<path fill="#E2E7E8" d="M395.2,191.4c-2.9,0.8-5.8,1.6-10.2,2c1.4,1.6,2.6,4.2,2.6,8.2c0,7.9-6.5,22.6-20.4,31.1
			c5.6,6.5,11,11.2,14.4,13.6c0,0.5-1.3,2.4-3.8,2.4c-4.2,0-11-4.6-17.8-12.4c-5,1.9-10.9,3.1-17.5,3.1c-10.7,0-24.4-4.1-24.4-16.4
			c0-9.8,11.3-19.9,23.4-29.3c-0.2-2.4-0.4-5-0.4-7.6c0-12.7,5.5-30.8,20-30.8c4.1,0,14.4,3.6,14.4,12.6c0,9.8-13.6,19.7-26.5,29.5
			c2.5,12.2,8.2,22.6,14.3,30.6c12.4-7,19.3-18.6,19.3-28.9c0-2.4-0.7-4-1.8-5.2c-5.6,0.1-13.7-0.4-14.3-1.2c0-2.5,1.8-5.8,5.4-5.8
			c2.9,0,5.2,0.8,7.3,2.4c7-0.1,12.7-1.8,17.8-3.1C398.4,188.5,397.3,190.8,395.2,191.4z M356.2,231.4c-5.5-7.9-10.6-18-13.2-29.3
			c-9.5,7.3-17.3,14.6-17.3,21.7c0,8.4,6.1,10.6,12.6,10.6C344.9,234.4,350.9,233.3,356.2,231.4z M347.9,188.9
			c12.1-8.9,23.2-17,23.2-23.4c0-3-2.2-5.4-7.6-5.4c-5.3,0-15.7,7-15.7,24C347.8,185.8,347.9,187.3,347.9,188.9z"/>
		<path fill="#E2E7E8" d="M505.8,150.7c-8.6,10.3-27.4,13.3-37.6,14c-4.4,14.8-15.1,73.8-18,73.8H449c-0.2,0.1-0.6,0.2-1,0.2
			c-10,0-16.6-51.5-18.5-82.2c-6.1,17.8-18.7,53.9-18.7,82.3c-3.4,0.4-5-1.8-5-6.1c0-39.7,22-92.2,22.8-92.2h0.4
			c3.7,0,8.6,1,8.6,6.2c0,35.4,6.2,69.4,10.6,80.3c2.9-18,14.2-68.2,17.3-68.2h0.1c10,0,30.5-7.1,38.5-16.3
			C507,143.5,508.1,148,505.8,150.7z M448.8,145.1c0-0.8,27-19.9,31.1-19.9c1.1,1.1,3.2,2.9,1.7,6.1c-1.2,2.5-10.7,8.6-28.4,15.5
			C450.7,147.7,448.7,145.8,448.8,145.1z"/>
		<path fill="#E2E7E8" d="M582.8,153.8c0,3.8-7.7,18.7-12.1,42.2c-3.5,0-4.7-1.3-4.7-4.2c0-2.3,5.8-24.7,10.1-34.2
			c-11.8,14.3-19.2,36.6-20.4,36.6c-2.6,0-5.2-1.2-5.2-4.4c0-9.1,5.3-25.8,7.7-34.4c-7.2,12.7-19.7,37.1-20.5,39.4
			c-1.2,0-3.7-0.4-3.4-3.6c0.4-4,17.3-33,24-43.3l-19.9,1.9c-0.5,5.4-12.2,31.8-12.2,44.8c-3.2,0.7-4.7-3.4-4.1-7.8
			c0.7-5.2,7.3-26.9,10.4-36.5c-5.8,0.5-10.6,0.8-12.4,0.8c-3.6,0-5.5-1.4-5.4-3.2c12.6-2.2,34.9-3.8,44.5-3.8c0.7,0,1.3,0,1.8,0.1
			c3.4,0,5.4,1.4,5.4,4.9c0,2.9-7.3,20.8-9.7,32.4c5.8-13.2,20-32.6,20.9-32.6C579.6,148.8,582.8,149.6,582.8,153.8z M563,147.8
			l0.1-0.1C563.2,147.7,563,147.7,563,147.8z"/>
		<path fill="#E2E7E8" d="M670.5,210.6c0,7.6-19.6,30-38.8,30c-11.3,0-30.6-2.5-31.4-28.1c-3,0.4-5,0.6-5.6,0.6
			c-4-0.1-5.6-2.8-5.5-5.9c1.3-0.2,5.6-0.8,11.4-1.8c0.4-2.9,0.8-5.8,1.6-8.5c-3.6,0.5-6.4,0.8-7.6,0.8c-3.8,0-6.8-2.4-6.7-5.5
			c2.5-0.5,9-1.7,16.9-2.9c8.5-20.5,27.6-35.3,42.1-35.3c6.6,0,21,5.2,21,19.8c0,7-2.9,14.2-3.8,14.2c-3.1,0-6.1-3.1-6.1-4.7
			c0-0.6,2.8-7,2.8-11c0-9.6-6.2-13.1-10.9-13.1c-12,0-26.2,13-34.6,28.6c12.1-1.7,24.7-3,30-2.3c5.4,0.7,7.2,4.4,7.2,5.4
			c-8.6,0.1-27,2.8-40.9,4.7c-1.1,2.9-1.9,5.8-2.6,8.6c15.2-2.3,34.7-5,41.4-5c5.4,0,5.8,4.2,5.8,5.2c0,0-30.1,4.7-48.2,7.2
			c-0.1,0.8-0.1,1.8-0.1,2.6c0,16.9,9.7,21.1,19.3,21.1c18.7,0,36.1-19.3,42.1-27C670.1,208.3,670.5,209.6,670.5,210.6z"/>
		<path fill="#E2E7E8" d="M74.2,323.6c-4.8,11.6-11.4,30-13.1,51.6c6.5-1.1,13-1.8,17.2-1.8c5.4,0,5.8,3.1,5.8,4.1
			c0,0-37.9,6.6-41.9,6.5c-4-0.1-5.6-1.6-5.5-4.7c2.5-0.4,10.4-1.9,19.1-3.2v-1c0.6-18.1,6-35.2,11.5-48c-6.8,7.8-15.5,15.1-21.2,16
			c-3.5,0.5-5.2-1.1-5.4-2.8c9.1-4.1,22.2-15,30.4-23.5c3.1-7.3,8.8-19.3,10.7-18.7c2.5,0.8,6.6,4.9,5.2,9.5
			C85.2,312,78.5,319.1,74.2,323.6z"/>
		<path fill="#E2E7E8" d="M142.4,377.2c0,0-44.4,7-48.4,6.8s-4.9-4.2-4.9-4.9c0-6.4,55.3-45.4,55.3-65.5c0-6.6-5-8.6-8.6-8.6
			c-18.5,0-30.8,13.1-30.8,27.2c0,5.3,1.6,9,2.6,11.5c-4.9,1.9-10.3-1-10.3-13.9c0-15.8,17.4-30.8,32.3-30.8
			c12.8,0,20.8,7.4,20.8,18.2c0,20.2-42.1,49.3-54.4,61c11.8-2,34.4-6.8,39.7-6.5C142.6,372.1,142.4,376.2,142.4,377.2z"/>
		<path fill="#E2E7E8" d="M182.9,331.6c3-1,6.1-1.6,9.4-1.6c10.4,0,16.8,5.3,16.8,18.8c0,12.8-13.2,36.6-37,36.6
			c-18.5,0-22.2-13.2-22.2-17.5c0-4.3,3.6-6,6.6-6c0,3,2.8,19,13.6,19c13.1,0,32.3-15.5,32.3-35.9c0-6.1-1.7-10.1-5.9-10.1
			c-7.6,0-15.2,2.8-20.9,6c-4,4.3-8.8,9.1-9.8,8.4c-1.7-1.2-3.7-5.3-1.6-8.2c1.6-2.2,5.6-4.7,9.4-6.8c9-9.7,22.9-23.8,31.1-32.3
			c-13.1,4.9-29.8,10.6-37.2,10.6c-7.1,0-8.2-3.7-7.7-5.9c1.9,0,30.4-4.3,51.5-11.8c1.8,0.2,3.5,2,3.5,4.9
			C214.7,301.2,196,318.4,182.9,331.6z"/>
		<path fill="#E2E7E8" d="M256.8,354.2c-2.2,8.9-3.7,18.8-4.1,29.4c-3.4,0.4-5.2-1.8-5-6.1c0.2-7.7,1.1-15.1,2.3-22.1
			c-13.2,2.2-27.6,4.4-29.6,4.3c-2.8-0.1-5.6-2.8-5.5-4.7c-0.7-0.1,30.6-48.5,35.6-57.2c2,0.1,5.2,3.6,4,7.2
			c-2.2,6.5-26.9,38.9-33,49c7.4-1.3,19.4-3.5,29.8-4.9c5-23.9,13.7-41.5,14.2-41.5c1.8,0,5.6,2.2,5.6,5.3c0,2.8-7.2,16.1-12.6,35.4
			c3.6-0.5,6.6-0.7,8.8-0.7c5.4,0,5.8,3.1,5.8,4.1C272.9,351.6,265.8,352.8,256.8,354.2z"/>
		<path fill="#E2E7E8" d="M335.5,344c0,19.4-17.8,41.4-36.2,41.4c-17.8,0-22.1-11.8-22.1-16.9c0-6.2,1.7-8.4,5.5-8.4
			c0,8.4,3.1,20.3,14.8,20.3c19.9,0,31.9-27.2,31.9-42c0-6.2-3.6-12.5-10-12.5c-19,0-28.7,20.6-31.1,20.6c-3.1,0-3.6-3.4-3.6-5.4
			c0-1.2,4.8-17.4,8.6-29.6c-2.2-0.8-4-2.8-3.8-4.2c1-0.1,2.9-0.6,5.5-1.1c1.6-4.9,2.8-8.4,3-8.4c3.5,0,4.9,1.6,4.9,4.4
			c0,0.4-0.2,1.2-0.6,2.4c13.3-2.8,32.9-6.7,40.4-6.8c5.3-0.1,5.8,4,5.8,4.9c0,0-34.9,6.5-48.5,8.5c-2.4,7-6.1,16.6-8.6,24.1
			c4.8-6.7,13.8-14.9,24.6-14.9C323.8,320.5,335.5,325.8,335.5,344z"/>
		<path fill="#E2E7E8" d="M395.4,346.9c0,22.9-21.5,36.6-33.2,36.6c-17,0-19-13.7-19-24.4c0-30.8,26.8-61.4,43.4-61.4
			c5.4,0,7.2,2.9,7.2,5c-16.3,0-40.3,23-44.5,50.9c5.2-10.7,17.8-26.5,29.9-26.5C389,327.1,395.4,337.4,395.4,346.9z M388.2,344.2
			c0-3.6-0.1-11.9-6.5-11.9c-13.4,0-31.1,23.4-33,33.4c0.8,7.2,4.2,12.8,11.6,12.8C371.9,378.5,388.2,363.1,388.2,344.2z"/>
		<path fill="#E2E7E8" d="M465.7,300.7c-2,2.8-5,4.9-8,6.5c-5.3,6.4-14.2,18.1-22.2,32c2.9-0.4,5.6-0.5,8.3-0.5
			c2.6,0,4.6,1.6,4.4,4.2c-6.2,0.8-11.5,1.6-16.1,2.4c-6.5,12.2-12,25.7-14,38.8c-3.4-0.1-5.6-2.5-5.3-6.7c0.7-8,5.5-19.2,11.8-30.7
			c-9.4,1.7-14.3,3-16.7,3c-3.4,0-4.9-1.8-4.9-4c0,0,12.1-3.6,25.3-5.6c6.6-11.4,14.2-22.4,19.7-30.2c-14.4,5.2-30.1,8-37.1,8
			c-7.1,0-9.4-5.5-8.9-7.7c1.8,0,28.1,0.6,51.2-7.6c3.7-4.8,8.3-9.7,9.4-9.7C464,292.9,468.1,297.5,465.7,300.7z"/>
		<path fill="#E2E7E8" d="M512.5,346.6c0,23.3-24.7,38.2-41.6,38.2c-7,0-18.4-4.2-18.4-19.8c0-10.7,8.4-22.7,19.9-29.9
			c-3.5-1.7-6.2-5.5-6.2-10.2c0-11.2,14.6-26.3,30-26.3c6.4,0,14.4,2.5,14.4,11.3c0,5.9-4.6,13.6-12.2,19.1
			C506.2,330.5,512.5,336,512.5,346.6z M507.6,344.2c0-6.5-6.2-10-12.8-10c-18,0-35.8,19.7-35.8,34c0,5.9,2.2,11.9,9,11.9
			C485.8,380,507.6,360.7,507.6,344.2z M472,326.5c0,2.2,0.2,4.3,4.8,4.3c15.4,0,29.4-15.8,29.4-22.4c0-2.3-1.3-3.8-5.5-3.8
			C485.3,304.6,472,318.2,472,326.5z"/>
		<path fill="#E2E7E8" d="M568.8,320.6c0,31.8-14,63.6-41.3,63.6c-9.2,0-11.5-6.2-9.1-10.2c1.1,0.7,3.2,3.8,8.6,3.8
			c17.5,0,34.9-18.7,36.6-55.1c-8.9,16.9-21.2,32.6-28.8,32.6c-4.6,0-16.2-2.3-16.2-19.8c0-15.5,12-36.6,33.4-36.6
			c15.6,0,15.2,13.1,14.9,18.6C568,318.1,568.8,319.1,568.8,320.6z M562,316.2c0.2-4.8,0.7-12.1-8.3-12.1c-15.8,0-28.1,22-28.1,34.8
			c0,6.8,4,11.6,8.2,11.6C539.5,350.5,557.9,324.2,562,316.2z"/>
		<path fill="#E2E7E8" d="M574,355.1c0-28.8,16.3-56.2,38.9-56.2c9,0,18.4,8.4,18.4,23.2c0,33.5-20.5,60.8-38.9,60.8
			C578.8,382.9,574,367.2,574,355.1z M624.4,318c0-7.8-2.8-14-9.5-14c-15.8,0-33.5,25.7-33.5,54.6c0,9.1,2.5,19.2,8,19.2
			C605.6,377.8,624.4,346.7,624.4,318z"/>
	</g>
</g>
<g id="Layer_2">
</g>
</svg>
