<?xml version="1.0" encoding="utf-8"?>
<!-- Generator: Adobe Illustrator 19.2.1, SVG Export Plug-In . SVG Version: 6.00 Build 0)  -->
<svg version="1.1" xmlns="http://www.w3.org/2000/svg" xmlns:xlink="http://www.w3.org/1999/xlink" x="0px" y="0px"
	 viewBox="0 0 605.8 403.2" enable-background="new 0 0 605.8 403.2" xml:space="preserve">
<g id="Layer_1">
	<g>
		<path fill="#522E87" d="M156.1,39.7c0,21.5-12.6,47-40.3,47c-22.6,0-34.7-15.7-34.7-35.2c0-21.5,12.6-47,40.2-47
			C143.9,4.6,156.1,20.3,156.1,39.7z M147.7,41.8c0-15.7-8.9-32.5-34.4-33.5c-12,3.6-23.8,21.1-23.8,41.3c0,15.7,8.9,32.6,34.4,33.5
			C135.9,79.4,147.7,61.9,147.7,41.8z"/>
		<path fill="#522E87" d="M184.6,69.4c0,4.1-6.4,16.8-15.4,16.8c-6.5,0-4.2-11.6-2.4-22.4l9.6-58.1l-9.7,0.2l-0.2-1.7l16-4.2h1.6
			l-9.8,59.4c-1.8,10.9-2.5,17-2.8,21.5c5.5-1.6,9.5-7.1,12.1-13L184.6,69.4z"/>
		<path fill="#522E87" d="M205.3,86c-3.7,8.9-7,20.3-4.3,28l-1,1.2c-2.8,0-8.3-2.6-8.3-7.4c0-4.2,4.9-11.4,10.3-22
			c-1.3-13.1-4.7-33.1-8-44.4l-5.4,3.8l-1.3-1.1l10-12.5l1.2-1.1c3,8.2,7.7,31.8,8.9,46.4c8.9-13,15.5-26.9,12.2-42.8
			c1.8-1.6,5.6-2.8,8.6-2.8c3.6,14.3-12.4,39.1-22.4,53.9L205.3,86z"/>
		<path fill="#522E87" d="M301.8,57.6c1.9-11.3,2-18.6-0.1-22.2c-10.8,2.5-21,15.7-25.6,32.8c-1,5.8-1.9,11.4-2.8,16l-7.1,2.3
			c1.6-8.9,3.6-19.6,5.2-28.8c1.9-11.3,2-18.6-0.1-22.2c-10.8,2.5-21.1,15.8-25.6,33.1l-2.6,15.6l-7.2,2.3l8.2-49.9H236l-0.2-1.7
			l14.8-4h1.6l-4.7,28c4.9-15.5,13.9-28.2,24.7-28.2c7.4,0,9.4,7.2,6.7,22.7c-0.2,1.4-0.5,3.1-0.8,4.8c4.9-15.1,13.8-27.5,24.5-27.5
			c7.4,0,9.2,7.2,6.7,22.7l-4.4,26.9h9.4l0.2,1.7L297,86.4L301.8,57.6z"/>
		<path fill="#522E87" d="M343.6,86.4c-2.5,0-7.7-1.1-12.2-5.8l-4.4,27.6l10.3-0.1l0.2,1.7l-17.2,4.2h-1.1L332,36.5l-9.7,0.2L322,35
			l16-4.2h1.6L335.2,57l0.4,0.1c3-10.3,14.8-26.5,23.2-26.5c4.8,0,8.4,6.1,8.5,14.2C367.5,64.2,356.4,86.4,343.6,86.4z M360,48.4
			c-0.1-5.5-1-9.5-2.6-12.4c-8.9,3.5-19.6,16.3-23.6,30.1l-1.7,10c5.3,3.1,11.4,5.4,18.1,5.3C356.2,75.1,360.1,62.9,360,48.4z"/>
		<path fill="#522E87" d="M397.9,69.4c0,3.4-5.8,16.8-15.4,16.8c-6.5,0-4.2-11.5-2.4-22.4l4.4-27.2l-9.7,0.2l-0.2-1.7l16-4.2h1.6
			l-4.7,28.6c-1.8,11-2.5,17.2-2.8,21.5c5.4-1.6,9.5-7.1,12.1-13L397.9,69.4z M385.7,12.8c0.4-3.5,3-6.4,5.9-6.4s5,2.9,4.7,6.4
			c-0.4,3.5-3,6.2-5.9,6.2C387.7,19.1,385.4,16.3,385.7,12.8z"/>
		<path fill="#522E87" d="M438.4,67.9l1.1,1.4c0,4.8-6.5,17-18,17c-7.3,0-15.6-4.9-15.6-20.2c0-15.6,9-35.6,24.6-35.6
			c7.9,0,12.7,3.4,13.8,4.6L439,46.8l-1.7,0.5l0.5-8.6c-3-2-8.5-3.8-14.2-3.6C417.2,40.6,413,52,413,63.8c0,10.6,4.4,17.3,10.9,17.3
			C430.8,81.1,435.5,74.4,438.4,67.9z"/>
		<path fill="#522E87" d="M522,52.1l-1.4,5.4h-43.8l1.4-5.4H522z"/>
		<path fill="#522E87" d="M70.9,148.7l-3.6,17.2h-2L63,153.4H40.3L28.4,225l9.2,3l-0.2,1.8l-10-0.2H20l-8.9,0.2l-0.2-1.8l9.6-2.8
			l11.9-71.9H9l-7,12.5H0l2.8-17.2h1.7l4.3,1.1h19.1c2.9,0,5.8,0,8.6,0h0.4h8.6h19l4.7-1.1H70.9z"/>
		<path fill="#522E87" d="M99.6,227.8c-2.2,3.1-3.2,3.2-4.4,3.2c-0.8-8.5-2.6-20.5-4.7-31.1c-5.2,10.4-12.2,21.4-17.8,27.8
			c-2.4,2.9-4.1,3.2-5.2,3.2c-1.3-13-4.7-33.8-8-45.6l-5.4,3.8l-1.3-1.1l10-12.5l1.2-1.1c3.1,8.5,7.7,34.6,9,49
			c6.8-9.5,12.7-21.4,15.6-32.5l-1.6-5.6l-5.4,3.8l-1.3-1.1l10-12.5l1.2-1.1c3,8.3,7.8,32.6,8.9,47.3c8.6-13.3,15.6-27.4,12.2-43.7
			c1.8-1.6,5.6-2.8,8.6-2.8C124.8,189.7,109,214.1,99.6,227.8z"/>
		<path fill="#522E87" d="M167,194.4c0,16-10,36-23.2,36c-10.9,0-18.2-6.1-18.2-19.8c0-16,10-36,23.8-36
			C159.7,174.6,167,180.7,167,194.4z M159.8,197.2c0-12.6-5.4-18.1-16.8-18.1c-4.9,4.9-10.2,15.2-10.2,28.8
			c0,13.2,6.5,18.1,16.9,18.1C154.6,221,159.8,210.7,159.8,197.2z"/>
		<path fill="#522E87" d="M191.7,174.8l-8.5,54.1c-1.9,11.9-10.7,21.6-18.6,28.1l-1.7-1.3c7.3-9.5,11.9-15.4,14.4-31.3l6.8-43.9
			l-9.7,0.2l-0.2-1.7l15.5-4.1l0.2-0.1H191.7z M195.9,156.8c-0.4,3.5-3,6.2-5.9,6.2c-2.8,0-5-2.8-4.7-6.2c0.4-3.5,3-6.4,5.9-6.4
			S196.2,153.4,195.9,156.8z"/>
		<path fill="#522E87" d="M207.9,197c-0.7,3.2-1.1,6.5-1.1,9.6c0,9.8,2.8,18.6,10.7,18.6c6.8,0,11.4-6.2,14.6-13.3l1.1,1.4
			c-0.4,5.6-6.7,17-18.1,17c-8.3,0-15.5-6.1-15.5-20.2c0-16.3,10.2-35.6,23.8-35.6c8.3,0,13.1,5.2,12.2,11.5
			C234.3,197.5,220.7,201,207.9,197z M208.3,195.6c12.8,1.1,19.6-1.8,20.3-7.8c0.8-6.7-4.7-9-11.2-8.8
			C213.1,182.8,209.9,188.9,208.3,195.6z"/>
		<path fill="#522E87" d="M310.3,194.4c0,16-10,36-23.2,36c-10.9,0-18.2-6.1-18.2-19.8c0-16,10-36,23.8-36
			C302.9,174.6,310.3,180.7,310.3,194.4z M303.1,197.2c0-12.6-5.4-18.1-16.8-18.1c-4.9,4.9-10.2,15.2-10.2,28.8
			c0,13.2,6.5,18.1,16.9,18.1C297.9,221,303.1,210.7,303.1,197.2z"/>
		<path fill="#522E87" d="M350.8,213.2c0,5.8-4.6,17.2-18.1,17.2c-12,0-17.2-6-17.3-8.5l5.6-11l1,1.6l-1.1,8.2
			c6.1,4.2,15.8,5.3,21.2,4.4c2-2.3,3.5-4.6,3.5-7.7c0-11.4-24.4-15.1-24.4-26.4c0-5.9,5.3-16.3,18.8-16.3c7.6,0,12.7,3.1,14,4.3
			l-5.4,11.9l-1.7,0.5l0.5-8.8c-4.3-3-12.6-4.1-17.6-3c-1.9,2.3-3.1,4.7-3.1,7.2C326.8,196.6,350.8,200.6,350.8,213.2z"/>
		<path fill="#522E87" d="M373.7,203.4c-1.8,10.9-2.5,17-2.8,21.5c5.5-1.6,9.5-7.1,12.1-13l1.1,1.4c0,4.1-6.4,16.8-15.4,16.8
			c-6.5,0-4.2-11.6-2.4-22.4l4.6-27.6l-8.9-0.7l0.5-2.8l8.6-0.1l7.2-17.6h2.8l-3,17.6h12.2l-0.4,2.4l-12.5,1.3L373.7,203.4z"/>
		<path fill="#522E87" d="M440.4,213.4c0,3.4-5.6,16.8-16.9,16.8c-1,0-1.8-0.1-2.8-0.4l4.2-25.8l-0.2-0.1
			c-3,10.3-14.8,26.5-23.2,26.5c-4.8,0-8.4-6.1-8.5-14.2c-0.2-19.4,10.8-41.6,23.6-41.6c2.6,0,8,1.2,12.7,6.4l5.3-6.1h1.8l-8,49.7
			c4.6-1.8,8.2-6.7,10.9-12.6L440.4,213.4z M426.5,194.9l1.7-10c-5.3-3.1-11.4-5.4-18.1-5.3c-6,6.2-10,18.5-9.8,33
			c0.1,5.5,1,9.5,2.6,12.4C411.7,221.5,422.4,208.7,426.5,194.9z"/>
		<path fill="#522E87" d="M459.7,203.4c-1.8,10.9-2.5,17-2.8,21.5c5.5-1.6,9.5-7.1,12.1-13l1.1,1.4c0,4.1-6.4,16.8-15.4,16.8
			c-6.5,0-4.2-11.6-2.4-22.4l4.6-27.6l-8.9-0.7l0.5-2.8l8.6-0.1l7.2-17.6h2.8l-3,17.6h12.2l-0.4,2.4l-12.5,1.3L459.7,203.4z"/>
		<path fill="#522E87" d="M519.1,201.6c1.9-11.3,2-18.6-0.1-22.2c-10.8,2.5-21.1,15.8-25.6,33.1l-2.6,15.6l-7.2,2.3l8.2-49.9h-8.2
			l-0.2-1.7l14.8-4h1.6l-4.7,28c4.9-15.5,13.9-28.2,24.7-28.2c7.4,0,9.2,7.2,6.7,22.7l-4.4,26.9h9.4l0.2,1.7l-17.3,4.6L519.1,201.6z
			"/>
		<path fill="#522E87" d="M561.7,213.4c0,3.4-5.8,16.8-15.4,16.8c-6.5,0-4.2-11.5-2.4-22.4l4.4-27.2l-9.7,0.2l-0.2-1.7l16-4.2h1.6
			l-4.7,28.6c-1.8,11-2.5,17.2-2.8,21.5c5.4-1.6,9.5-7.1,12.1-13L561.7,213.4z M549.6,156.8c0.4-3.5,3-6.4,5.9-6.4s5,2.9,4.7,6.4
			c-0.4,3.5-3,6.2-5.9,6.2C551.5,163.1,549.3,160.3,549.6,156.8z"/>
		<path fill="#522E87" d="M578,197c-0.7,3.2-1.1,6.5-1.1,9.6c0,9.8,2.8,18.6,10.7,18.6c6.8,0,11.4-6.2,14.6-13.3l1.1,1.4
			c-0.4,5.6-6.7,17-18.1,17c-8.3,0-15.5-6.1-15.5-20.2c0-16.3,10.2-35.6,23.8-35.6c8.3,0,13.1,5.2,12.2,11.5
			C604.4,197.5,590.8,201,578,197z M578.3,195.6c12.8,1.1,19.6-1.8,20.3-7.8c0.8-6.7-4.7-9-11.2-8.8
			C583.1,182.8,580,188.9,578.3,195.6z"/>
		<path fill="#522E87" d="M106.1,319.8l-0.1,0.1v0.8c-7.3,11.8-23.9,30-33.8,45.6c6.5,0,16.8,1.3,24,1.6l6.4-9.5l1.7,0.7l-5,15
			c-10.4,0-23-2.4-30.1-2.4c-0.6,1-1.1,1.9-1.6,2.9l-3.7-1.1c8.2-17.4,24.4-33.5,33.8-47.5c-6.6,0.2-15-0.1-21.4-0.2l-6,9l-1.7-0.7
			l4.8-14.6c3.8,0.1,18.7,1.4,28.1,1l4.7-1.7l-0.1,1.1H106.1z"/>
		<path fill="#522E87" d="M154.6,371.8c-2.2,3.1-3.2,3.2-4.4,3.2c-0.8-8.5-2.6-20.5-4.7-31.1c-5.2,10.4-12.2,21.4-17.8,27.8
			c-2.4,2.9-4.1,3.2-5.2,3.2c-1.3-13-4.7-33.8-8-45.6l-5.4,3.8l-1.3-1.1l10-12.5l1.2-1.1c3.1,8.5,7.7,34.6,9,49
			c6.8-9.5,12.7-21.4,15.6-32.5l-1.6-5.6l-5.4,3.8l-1.3-1.1l10-12.5l1.2-1.1c3,8.3,7.8,32.6,8.9,47.3c8.6-13.3,15.6-27.4,12.2-43.7
			c1.8-1.6,5.6-2.8,8.6-2.8C179.8,333.7,164,358.1,154.6,371.8z"/>
		<path fill="#522E87" d="M199.6,374c-3.7,8.9-7,20.3-4.3,28l-1,1.2c-2.8,0-8.3-2.6-8.3-7.4c0-4.2,4.9-11.4,10.3-22
			c-1.3-13.1-4.7-33.1-8-44.4l-5.4,3.8l-1.3-1.1l10-12.5l1.2-1.1c3,8.2,7.7,31.8,8.9,46.4c8.9-13,15.5-26.9,12.2-42.8
			c1.8-1.6,5.6-2.8,8.6-2.8c3.6,14.3-12.4,39.1-22.4,53.9L199.6,374z"/>
		<path fill="#522E87" d="M259.2,355.9l1.1,1.4c0,4.8-6.5,17-18,17c-7.3,0-15.6-4.9-15.6-20.2c0-15.6,9-35.6,24.6-35.6
			c7.9,0,12.7,3.4,13.8,4.6l-5.3,11.6l-1.7,0.5l0.5-8.6c-3-2-8.5-3.8-14.2-3.6c-6.4,5.5-10.6,16.9-10.6,28.8
			c0,10.6,4.4,17.3,10.9,17.3C251.7,369.1,256.4,362.4,259.2,355.9z"/>
		<path fill="#522E87" d="M294.8,357.4c0,3.4-5.8,16.8-15.4,16.8c-6.5,0-4.2-11.5-2.4-22.4l4.4-27.2l-9.7,0.2l-0.2-1.7l16-4.2h1.6
			l-4.7,28.6c-1.8,11-2.5,17.2-2.8,21.5c5.4-1.6,9.5-7.1,12.1-13L294.8,357.4z M282.6,300.8c0.4-3.5,3-6.4,5.9-6.4s5,2.9,4.7,6.4
			c-0.4,3.5-3,6.2-5.9,6.2C284.6,307.1,282.3,304.3,282.6,300.8z"/>
		<path fill="#522E87" d="M311.2,341c-0.7,3.2-1.1,6.5-1.1,9.6c0,9.8,2.8,18.6,10.7,18.6c6.8,0,11.4-6.2,14.6-13.3l1.1,1.4
			c-0.2,3-2,7.6-5.5,11.3c-3.8,5.3-7.7,10.7-7.7,15.8c0,3.1,1.4,4.4,4.1,4.4c4,0,7-3.1,8.6-6.2l1.1,1.4c-0.5,2.4-4.1,9.7-12.7,9.7
			c-5.5,0-7.6-3.1-7.6-6.8c0-4.6,3-9.1,6.5-13.3c-1.6,0.5-3.1,0.7-4.9,0.7c-8.3,0-15.5-6.1-15.5-20.2c0-16.3,10.2-35.6,23.8-35.6
			c8.3,0,13.1,5.2,12.2,11.5C337.6,341.5,324,345,311.2,341z M311.5,339.6c12.8,1.1,19.6-1.8,20.3-7.8c0.8-6.7-4.7-9-11.2-8.8
			C316.3,326.8,313.2,332.9,311.5,339.6z"/>
		<path fill="#522E87" d="M378.9,357.2c0,5.8-4.6,17.2-18.1,17.2c-12,0-17.2-6-17.3-8.5l5.6-11l1,1.6l-1.1,8.2
			c6.1,4.2,15.8,5.3,21.2,4.4c2-2.3,3.5-4.6,3.5-7.7c0-11.4-24.4-15.1-24.4-26.4c0-5.9,5.3-16.3,18.8-16.3c7.6,0,12.7,3.1,14,4.3
			l-5.4,11.9l-1.7,0.5l0.5-8.8c-4.3-3-12.6-4.1-17.6-3c-1.9,2.3-3.1,4.7-3.1,7.2C354.9,340.6,378.9,344.6,378.9,357.2z"/>
		<path fill="#522E87" d="M401.8,347.4c-1.8,10.9-2.5,17-2.8,21.5c5.5-1.6,9.5-7.1,12.1-13l1.1,1.4c0,4.1-6.4,16.8-15.4,16.8
			c-6.5,0-4.2-11.6-2.4-22.4l4.6-27.6l-8.9-0.7l0.5-2.8l8.6-0.1l7.2-17.6h2.8l-3,17.6h12.2l-0.4,2.4l-12.5,1.3L401.8,347.4z"/>
		<path fill="#522E87" d="M467.1,371.8c-2.2,3.1-3.2,3.2-4.4,3.2c-0.8-8.5-2.6-20.5-4.7-31.1c-5.2,10.4-12.2,21.4-17.8,27.8
			c-2.4,2.9-4.1,3.2-5.2,3.2c-1.3-13-4.7-33.8-8-45.6l-5.4,3.8l-1.3-1.1l10-12.5l1.2-1.1c3.1,8.5,7.7,34.6,9,49
			c6.8-9.5,12.7-21.4,15.6-32.5l-1.6-5.6l-5.4,3.8l-1.3-1.1l10-12.5l1.2-1.1c3,8.3,7.8,32.6,8.9,47.3c8.6-13.3,15.6-27.4,12.2-43.7
			c1.8-1.6,5.6-2.8,8.6-2.8C492.3,333.7,476.4,358.1,467.1,371.8z"/>
		<path fill="#522E87" d="M534.4,338.4c0,16-10,36-23.2,36c-10.9,0-18.2-6.1-18.2-19.8c0-16,10-36,23.8-36
			C527.1,318.6,534.4,324.7,534.4,338.4z M527.2,341.2c0-12.6-5.4-18.1-16.8-18.1c-4.9,4.9-10.2,15.2-10.2,28.8
			c0,13.2,6.5,18.1,16.9,18.1C522.1,365,527.2,354.7,527.2,341.2z"/>
	</g>
</g>
<g id="Layer_2">
</g>
</svg>
