<?xml version="1.0" encoding="utf-8"?>
<!-- Generator: Adobe Illustrator 19.2.1, SVG Export Plug-In . SVG Version: 6.00 Build 0)  -->
<svg version="1.1" xmlns="http://www.w3.org/2000/svg" xmlns:xlink="http://www.w3.org/1999/xlink" x="0px" y="0px"
	 viewBox="0 0 840.3 217.3" enable-background="new 0 0 840.3 217.3" xml:space="preserve">
<g id="Layer_1">
	<g>
		<path fill="#E65C4B" d="M168.6,0l13.8,13.2v14l-8.3,8.2l8.3,8.2v16.6l-13.8,13.2h-67.2l-1.2-1.2V1.2l1.2-1.2H168.6z M136.8,28.4
			h7.8v-17h-7.8V28.4z M136.8,62h7.8V42.2h-7.8V62z"/>
		<path fill="#E65C4B" d="M225,55.7v16.4l-1.2,1.2h-34.2l-1.2-1.2V1.2l1.2-1.2h66l15,14.4v22.9l-9.5,9.4l9.5,1.2v24.2l-1.2,1.2H241
			L225,55.7z M225,44.3h7.8V11.4H225V44.3z"/>
		<path fill="#E65C4B" d="M311.4,0l1.2,1.3v60.6h7.8V1.2l1.2-1.2h34.2l1.2,1.3v54l-18.6,18h-43.8l-18.6-18V1.2l1.2-1.2H311.4z"/>
		<path fill="#E65C4B" d="M424.8,0l1.2,1.2v16.9l-1.2,1.2h-12.6v52.8l-1.2,1.2h-35.4l-1.2-1.2V19.3h-12.6l-1.2-1.2V1.2l1.2-1.2
			H424.8z"/>
		<path fill="#E65C4B" d="M493.8,0l18.6,37.4v34.7l-1.2,1.2h-35.4l-1.2-1.2V57.5h-7.8v14.6l-1.2,1.2h-35.4l-1.2-1.2V37.4L447.6,0
			H493.8z M466.8,39.4h7.8V15h-7.8V39.4z"/>
		<path fill="#E65C4B" d="M555,0l1.2,1.3v53.9h12.6l1.2,1.2v15.7l-1.2,1.2h-49.2l-1.2-1.2V1.2l1.2-1.2H555z"/>
		<path fill="#E65C4B" d="M599.8,0l18.8,13.2L623.1,0h30.6l1.2,1.3v70.8l-1.2,1.2h-34.2l-1.2-1.2V33l-7.8-4.7v43.8l-1.2,1.2h-34.2
			l-1.2-1.2V1.2l1.2-1.2H599.8z"/>
		<path fill="#E65C4B" d="M696.6,0l1.2,1.2v44.3h7.3V1.2l1.2-1.2h35l1.2,1.2v30.5l-15.1,26.4h-5.3v14l-1.2,1.2h-39l-1.2-1.2v-14
			h-5.3l-15.1-26.4V1.2l1.2-1.2H696.6z"/>
		<path fill="#E65C4B" d="M44.4,171l1.2,1.2v27h7.8l1.2,1.2v15.7l-1.2,1.2H1.2L0,216.1v-15.7l1.2-1.2H9v-10.1H1.2L0,187.9v-15.7
			l1.2-1.2H44.4z M44.4,144l1.2,1.2v19.2l-1.2,1.2H9l-1.2-1.2v-19.2L9,144H44.4z"/>
		<path fill="#E65C4B" d="M152.4,144l15,14.4v25.7l-16.2,15.6h-29.4v16.4l-1.2,1.2H86.4l-1.2-1.2v-70.9l1.2-1.2H152.4z M121.8,187.1
			h7.8v-31.7h-7.8V187.1z"/>
		<path fill="#E65C4B" d="M208.8,144l1.2,1.3v53.9h12.6l1.2,1.2v15.7l-1.2,1.2h-49.2l-1.2-1.2v-70.9l1.2-1.2H208.8z"/>
		<path fill="#E65C4B" d="M291.4,144l18.6,37.4v34.7l-1.2,1.2h-35.4l-1.2-1.2v-14.6h-7.8v14.6l-1.2,1.2h-35.4l-1.2-1.2v-34.7
			l18.6-37.4H291.4z M264.4,183.4h7.8V159h-7.8V183.4z"/>
		<path fill="#E65C4B" d="M392.2,144l4.8,4.8v19.8l-1.2,1.2h-34.2l-1.2-1.2v-13.2h-7.8v19.2h34.2l11.4,10.8v21.1l-11.4,10.8H316
			l-1.2-1.2v-16.9l1.2-1.2h44.4v-5.4h-34.1l-11.5-10.8v-27.1l11.4-10.7H392.2z"/>
		<path fill="#E65C4B" d="M465.3,144l1.2,1.2v16.9l-1.2,1.2h-12.6v52.8l-1.2,1.2h-35.4l-1.2-1.2v-52.8h-12.6l-1.2-1.2v-16.9l1.2-1.2
			H465.3z"/>
		<path fill="#E65C4B" d="M505.2,144l1.2,1.2v44.3h7.3v-44.3l1.2-1.2h35l1.2,1.2v30.5L536,202.1h-5.3v14l-1.2,1.2h-39l-1.2-1.2v-14
			h-5.3L469,175.7v-30.5l1.2-1.2H505.2z"/>
		<path fill="#E65C4B" d="M604.5,144l1.2,1.2v14.5l-1.2,1.2h-9v39.5h9l1.2,1.2v14.5l-1.2,1.2h-30.6l-18.6-18V162l18.6-18H604.5z"/>
		<path fill="#E65C4B" d="M664.5,144l1.2,1.2v19L647,195.6h17.5l1.2,1.2v19.3l-1.2,1.2h-54l-1.2-1.2v-19l18.7-31.4h-17.5l-1.2-1.2
			v-19.3l1.2-1.2H664.5z"/>
		<path fill="#E65C4B" d="M697.5,144l18.8,13.2l4.6-13.2h30.6l1.2,1.3v70.8l-1.2,1.2h-34.2l-1.2-1.2V177l-7.8-4.7v43.8l-1.2,1.2
			h-34.2l-1.2-1.2v-70.9l1.2-1.2H697.5z"/>
		<path fill="#E65C4B" d="M794.4,144l1.2,1.2v44.3h7.3v-44.3l1.2-1.2h35l1.2,1.2v30.5l-15.1,26.4h-5.3v14l-1.2,1.2h-39l-1.2-1.2v-14
			h-5.3l-15.1-26.4v-30.5l1.2-1.2H794.4z"/>
	</g>
</g>
<g id="Layer_2">
</g>
</svg>
