<?xml version="1.0" encoding="utf-8"?>
<!-- Generator: Adobe Illustrator 19.2.1, SVG Export Plug-In . SVG Version: 6.00 Build 0)  -->
<svg version="1.1" xmlns="http://www.w3.org/2000/svg" xmlns:xlink="http://www.w3.org/1999/xlink" x="0px" y="0px"
	 viewBox="0 0 744.3 520" enable-background="new 0 0 744.3 520" xml:space="preserve">
<g id="Layer_1">
	<g>
		<path fill="#522E87" d="M47.4,69.4c0,3.4-5.6,16.8-16.9,16.8c-1,0-1.8-0.1-2.8-0.4L31.9,60l-0.2-0.1c-3,10.3-14.8,26.5-23.2,26.5
			c-4.8,0-8.4-6.1-8.5-14.2c-0.2-19.4,10.8-41.6,23.6-41.6c2.6,0,8,1.2,12.7,6.4l5.3-6.1h1.8l-8,49.7c4.6-1.8,8.2-6.7,10.9-12.6
			L47.4,69.4z M33.5,50.9l1.7-10c-5.3-3.1-11.4-5.4-18.1-5.3c-6,6.2-10,18.5-9.8,33c0.1,5.5,1,9.5,2.6,12.4
			C18.7,77.5,29.4,64.7,33.5,50.9z"/>
		<path fill="#522E87" d="M74.6,86.4c-2.6,0-8-1.2-12.7-6.4l-5.3,6h-1.8L68.1,5.6l-9.7,0.2l-0.2-1.7l16-4.2h1.6l-9.4,57l0.2,0.1
			c3-10.3,14.8-26.5,23.2-26.5c4.8,0,8.4,6.1,8.5,14.2C98.4,64.2,87.4,86.4,74.6,86.4z M91,48.4c-0.1-5.5-1-9.5-2.6-12.4
			c-8.9,3.5-19.6,16.3-23.6,30.1l-1.7,10c5.3,3.1,11.4,5.4,18.1,5.3C87.2,75.1,91.1,62.9,91,48.4z"/>
		<path fill="#522E87" d="M138.2,67.9l1.1,1.4c0,4.8-6.5,17-18,17c-7.3,0-15.6-4.9-15.6-20.2c0-15.6,9-35.6,24.6-35.6
			c7.9,0,12.7,3.4,13.8,4.6l-5.3,11.6l-1.7,0.5l0.5-8.6c-3-2-8.5-3.8-14.2-3.6c-6.4,5.5-10.6,16.9-10.6,28.8
			c0,10.6,4.4,17.3,10.9,17.3C130.7,81.1,135.4,74.4,138.2,67.9z"/>
		<path fill="#522E87" d="M197.2,69.4c0,4.1-6.4,16.8-15.4,16.8c-6.5,0-4.2-11.6-2.4-22.4L180,60l-0.2-0.1
			c-3,10.3-14.8,26.5-23.2,26.5c-4.8,0-8.4-6.1-8.5-14.2c-0.2-19.4,10.8-41.6,23.6-41.6c2.5,0,7.7,1.1,12.2,5.8l5-30.7l-9.7,0.2
			l-0.2-1.7L195,0h1.6l-9.8,59.4c-1.8,10.9-2.5,17-2.8,21.5c5.5-1.6,9.5-7.1,12.1-13L197.2,69.4z M181.5,51.2l1.7-10.3
			c-5.2-3.1-11.3-5.4-18-5.3c-6,6.2-10,18.5-9.8,33c0.1,5.5,1,9.5,2.6,12.4C166.7,77.5,177.4,64.9,181.5,51.2z"/>
		<path fill="#522E87" d="M213.6,53c-0.7,3.2-1.1,6.5-1.1,9.6c0,9.8,2.8,18.6,10.7,18.6c6.8,0,11.4-6.2,14.6-13.3l1.1,1.4
			c-0.4,5.6-6.7,17-18.1,17c-8.3,0-15.5-6.1-15.5-20.2c0-16.3,10.2-35.6,23.8-35.6c8.3,0,13.1,5.2,12.2,11.5
			C240,53.5,226.5,57,213.6,53z M214,51.6c12.8,1.1,19.6-1.8,20.3-7.8c0.8-6.7-4.7-9-11.2-8.8C218.8,38.8,215.7,44.9,214,51.6z"/>
		<path fill="#522E87" d="M289.9,2.2l-5.8,13.2h-1.7l0.6-9.7c-2.2-0.6-5.3-1.3-9.2-1.2c-5.5,5.8-7.1,17.6-8.9,28.1h12.6l-0.4,2.4
			l-12.8,1.4l-8.2,49.1c-2.9,17.5-10.3,28.6-19,28.6c-1.2,0-5-2-5.3-2.8V110c4.9-0.7,10.3-3,13.9-5.9c1.7-6.1,3.8-19.9,5.2-28
			l6.6-40.1l-8.4-0.7l0.5-2.8l8.5-0.1C261.5,12.8,267.1,0,280.6,0C285.1,0,288.7,1.2,289.9,2.2z"/>
		<path fill="#522E87" d="M315.1,94.7c0,11.4-13.6,19.3-25.6,19.3c-15.6,0-25.8-8.5-22.6-16.7c3.1-4,11.9-11,14.9-12.4
			c-2.4-1.3-4-2.5-4-3.8c0-3,3.5-6.8,7.2-10.1c-4.6-1.9-7.1-6.4-7.1-13.7c0-11.9,7.8-26.8,18.7-26.8c4.3,0,7.8,1.2,10.1,3.7l9.8-6.4
			l1.6,4.8L308,36c1.4,2.4,2.2,5.4,2.2,9.4c0,11.9-7.7,26.8-18.8,26.8c-1.4,0-2.6-0.1-3.8-0.4l-3.7,7.1
			C295.9,84,315.1,88.3,315.1,94.7z M310.3,99c0-5.3-17.2-9.1-26.5-13.2c-3.1,2.4-9.4,9-12.2,12.8c4.3,6.2,14.2,10.6,24.2,10.6
			C303.6,109.2,310.3,103.3,310.3,99z M284.5,55.3c0,9.1,4.2,13,12.1,12.8c3.8-3.6,7.1-11,7.1-20.6c0-9.2-4.1-13.1-12.1-13
			C287.9,38.2,284.5,45.6,284.5,55.3z"/>
		<path fill="#522E87" d="M354.5,57.6c1.9-11.3,2-18.6-0.1-22.2c-11.3,2.6-21.8,16.8-26,34.9l-0.1-0.2l-2.3,14l-7.1,2.3l13.3-80.8
			l-9.6,0.2l-0.2-1.7l16-4.2h1.6l-10.1,60.7c4.8-16.3,14-30.1,25.3-30.1c7.4,0,9.2,7.2,6.7,22.7l-4.4,26.9h9.4l0.2,1.7l-17.3,4.6
			L354.5,57.6z"/>
		<path fill="#522E87" d="M397.1,69.4c0,3.4-5.8,16.8-15.4,16.8c-6.5,0-4.2-11.5-2.4-22.4l4.4-27.2l-9.7,0.2l-0.2-1.7l16-4.2h1.6
			l-4.7,28.6c-1.8,11-2.5,17.2-2.8,21.5c5.4-1.6,9.5-7.1,12.1-13L397.1,69.4z M385,12.8c0.4-3.5,3-6.4,5.9-6.4s5,2.9,4.7,6.4
			c-0.4,3.5-3,6.2-5.9,6.2C386.9,19.1,384.6,16.3,385,12.8z"/>
		<path fill="#522E87" d="M420.7,30.8L412.2,85c-1.9,11.9-10.7,21.6-18.6,28.1l-1.7-1.3c7.3-9.5,11.9-15.4,14.4-31.3l6.8-43.9
			l-9.7,0.2l-0.2-1.7l15.5-4.1l0.2-0.1H420.7z M424.9,12.8c-0.4,3.5-3,6.2-5.9,6.2c-2.8,0-5-2.8-4.7-6.2c0.4-3.5,3-6.4,5.9-6.4
			S425.3,9.4,424.9,12.8z"/>
		<path fill="#522E87" d="M449.6,0l-13.9,84.1l-7,2.3L442,5.6l-9.7,0.2l-0.2-1.7L448,0H449.6z M471.4,69.4c0,4.3-6.4,16.8-15.5,16.8
			c-1.7,0-3.7-0.8-5.2-6.8l-5.3-21.7c4.2-2.8,10.8-6.8,15.4-13.9c0.2-1.6,0.6-3.4,1-5.4l1.3-7.7c2.2-0.6,7.2,2.2,6.2,7.8
			c-1.4,9-10.6,14.4-17,17.3l5.8,25.2c5.5-1.6,9.6-7.1,12.2-13L471.4,69.4z"/>
		<path fill="#522E87" d="M499.9,69.4c0,4.1-6.4,16.8-15.4,16.8c-6.5,0-4.2-11.6-2.4-22.4l9.6-58.1L482,5.9l-0.2-1.7l16-4.2h1.6
			l-9.8,59.4c-1.8,10.9-2.5,17-2.8,21.5c5.5-1.6,9.5-7.1,12.1-13L499.9,69.4z"/>
		<path fill="#522E87" d="M573.7,57.6c1.9-11.3,2-18.6-0.1-22.2c-10.8,2.5-21,15.7-25.6,32.8c-1,5.8-1.9,11.4-2.8,16l-7.1,2.3
			c1.6-8.9,3.6-19.6,5.2-28.8c1.9-11.3,2-18.6-0.1-22.2c-10.8,2.5-21.1,15.8-25.6,33.1L515,84.1l-7.2,2.3l8.2-49.9h-8.2l-0.2-1.7
			l14.8-4h1.6l-4.7,28c4.9-15.5,13.9-28.2,24.7-28.2c7.4,0,9.4,7.2,6.7,22.7c-0.2,1.4-0.5,3.1-0.8,4.8c4.9-15.1,13.8-27.5,24.5-27.5
			c7.4,0,9.2,7.2,6.7,22.7l-4.4,26.9h9.4l0.2,1.7l-17.3,4.6L573.7,57.6z"/>
		<path fill="#522E87" d="M630.8,57.6c1.9-11.3,2-18.6-0.1-22.2c-10.8,2.5-21.1,15.8-25.6,33.1l-2.6,15.6l-7.2,2.3l8.2-49.9h-8.2
			l-0.2-1.7l14.8-4h1.6l-4.7,28c4.9-15.5,13.9-28.2,24.7-28.2c7.4,0,9.2,7.2,6.7,22.7l-4.4,26.9h9.4l0.2,1.7L626,86.4L630.8,57.6z"
			/>
		<path fill="#522E87" d="M691.7,50.4c0,16-10,36-23.2,36c-10.9,0-18.2-6.1-18.2-19.8c0-16,10-36,23.8-36
			C684.4,30.6,691.7,36.7,691.7,50.4z M684.5,53.2c0-12.6-5.4-18.1-16.8-18.1c-4.9,4.9-10.2,15.2-10.2,28.8
			C657.5,77,664,82,674.4,82C679.4,77,684.5,66.7,684.5,53.2z"/>
		<path fill="#522E87" d="M720.6,86.4c-2.5,0-7.7-1.1-12.2-5.8l-4.4,27.6l10.3-0.1l0.2,1.7l-17.2,4.2h-1.1L709,36.5l-9.7,0.2L699,35
			l16-4.2h1.6L712.2,57l0.4,0.1c3-10.3,14.8-26.5,23.2-26.5c4.8,0,8.4,6.1,8.5,14.2C744.5,64.2,733.5,86.4,720.6,86.4z M737.1,48.4
			c-0.1-5.5-1-9.5-2.6-12.4c-8.9,3.5-19.6,16.3-23.6,30.1l-1.7,10c5.3,3.1,11.4,5.4,18.1,5.3C733.2,75.1,737.2,62.9,737.1,48.4z"/>
		<path fill="#522E87" d="M173.7,252.1l0.2,1.7l-17.2,4.2h-1.1l8.9-54l-0.4-0.1c-3,10.3-14.8,26.5-23.2,26.5
			c-4.8,0-8.4-6.1-8.5-14.2c-0.2-19.4,10.8-41.6,23.6-41.6c2.6,0,8,1.2,12.7,6.4l5.3-6.1h1.8l-12.6,77.4L173.7,252.1z M166,194.8
			l1.7-9.8c-5.3-3.1-11.4-5.4-18.1-5.3c-6,6.2-10,18.5-9.8,33c0.1,5.5,1,9.5,2.6,12.4C151.2,221.4,162,208.6,166,194.8z"/>
		<path fill="#522E87" d="M224.2,176.6l-5.5,14.2l-1.8,0.5l-0.1-10.9c-8.8,4.4-17.6,16.8-21.6,32.5l-2.5,15.2l-7.2,2.3l8.3-49.9
			h-8.4l-0.2-1.7l14.8-4h1.6l-4.7,28.7c4.9-15.7,14.2-28.9,22.4-28.9C222.6,174.6,224.2,176.6,224.2,176.6z"/>
		<path fill="#522E87" d="M257.7,213.2c0,5.8-4.6,17.2-18.1,17.2c-12,0-17.2-6-17.3-8.5l5.6-11l1,1.6l-1.1,8.2
			c6.1,4.2,15.8,5.3,21.2,4.4c2-2.3,3.5-4.6,3.5-7.7c0-11.4-24.4-15.1-24.4-26.4c0-5.9,5.3-16.3,18.8-16.3c7.6,0,12.7,3.1,14,4.3
			l-5.4,11.9l-1.7,0.5l0.5-8.8c-4.3-3-12.6-4.1-17.6-3c-1.9,2.3-3.1,4.7-3.1,7.2C233.7,196.6,257.7,200.6,257.7,213.2z"/>
		<path fill="#522E87" d="M280.7,203.4c-1.8,10.9-2.5,17-2.8,21.5c5.5-1.6,9.5-7.1,12.1-13l1.1,1.4c0,4.1-6.4,16.8-15.4,16.8
			c-6.5,0-4.2-11.6-2.4-22.4l4.6-27.6l-8.9-0.7l0.5-2.8l8.6-0.1l7.2-17.6h2.8l-3,17.6h12.2l-0.4,2.4l-12.5,1.3L280.7,203.4z"/>
		<path fill="#522E87" d="M353.7,213.4c0,3.4-5.6,16.8-16.9,16.8c-1,0-1.8-0.1-2.8-0.4l4.6-27.2c-5,15.2-14,27.8-24.4,27.8
			c-7.2,0-8.6-7.2-6.5-20.3l4.9-29.6h-8.4l-0.2-1.7l14.8-4h1.6l-4.7,28.6c-1.9,11.9-2.3,18.5-0.6,21.8c10.6-2.4,20.5-15.2,25.1-32
			l2.6-16.1l7.1-2.3l-8.2,49.7c4.6-1.9,8.2-6.7,10.9-12.6L353.7,213.4z"/>
		<path fill="#522E87" d="M376.6,227.8c-2.2,3.1-3.2,3.2-4.4,3.2c-1.2-13-4.7-34-8.2-45.6l-5.4,3.8l-1.3-1.1l10-12.5l1.2-1.1
			c3,8.3,7.8,32.6,8.9,47.2c8.6-13.2,15.6-27.2,12.2-43.6c1.8-1.6,5.6-2.8,8.6-2.8C401.8,189.7,385.9,214.2,376.6,227.8z"/>
		<path fill="#522E87" d="M450.4,227.8c-2.2,3.1-3.2,3.2-4.4,3.2c-0.8-8.5-2.6-20.5-4.7-31.1c-5.2,10.4-12.2,21.4-17.8,27.8
			c-2.4,2.9-4.1,3.2-5.2,3.2c-1.3-13-4.7-33.8-8-45.6l-5.4,3.8l-1.3-1.1l10-12.5l1.2-1.1c3.1,8.5,7.7,34.6,9,49
			c6.8-9.5,12.7-21.4,15.6-32.5l-1.6-5.6l-5.4,3.8l-1.3-1.1l10-12.5l1.2-1.1c3,8.3,7.8,32.6,8.9,47.3c8.6-13.3,15.6-27.4,12.2-43.7
			c1.8-1.6,5.6-2.8,8.6-2.8C475.6,189.7,459.7,214.1,450.4,227.8z"/>
		<path fill="#522E87" d="M503.3,198.8l5.6,26c5.5-1.6,9.5-7.1,12.1-13l1.1,1.4c0,4.1-6.4,16.8-15.2,16.8c-3.4,0-4.1-1.4-5.4-7.4
			l-3.5-16.2c-8.9,16.8-14.6,23.6-21.4,23.6c-0.6,0-1.2,0-1.8-0.1l2.8-16.9l1.8-0.5l1.4,10.9c4.8-2.8,10.6-11.5,16.6-19.8l-4.9-23.8
			c-5.8,1.4-9.6,7.2-12.2,13l-1.1-1.4c0-4.2,6.5-16.8,15.2-16.8c3.7,0,4.3,2.3,5.4,7.6l2.9,13.3c6-12.2,12.8-20.9,20.2-20.9
			c0.7,0,1.3,0.1,2,0.2l-2.4,14.5l-1.8,0.5l-1.7-9.1C514.4,183.6,509,191.2,503.3,198.8z"/>
		<path fill="#522E87" d="M547.4,230c-3.7,8.9-7,20.3-4.3,28l-1,1.2c-2.8,0-8.3-2.6-8.3-7.4c0-4.2,4.9-11.4,10.3-22
			c-1.3-13.1-4.7-33.1-8-44.4l-5.4,3.8l-1.3-1.1l10-12.5l1.2-1.1c3,8.2,7.7,31.8,8.9,46.4c8.9-13,15.5-26.9,12.2-42.8
			c1.8-1.6,5.6-2.8,8.6-2.8c3.6,14.3-12.4,39.1-22.4,53.9L547.4,230z"/>
		<path fill="#522E87" d="M614.7,175.8l-0.1,0.1v0.8c-7.3,11.8-23.9,30-33.8,45.6c6.5,0,16.8,1.3,24,1.6l6.4-9.5l1.7,0.7l-5,15
			c-10.4,0-23-2.4-30.1-2.4c-0.6,1-1.1,1.9-1.6,2.9l-3.7-1.1c8.2-17.4,24.4-33.5,33.8-47.5c-6.6,0.2-15-0.1-21.4-0.2l-6,9l-1.7-0.7
			l4.8-14.6c3.8,0.1,18.7,1.4,28.1,1l4.7-1.7l-0.1,1.1H614.7z"/>
		<path fill="#522E87" d="M171.3,368.9c-0.7,3.1-3.6,5.9-6.4,5.9c-2.5,0-4.1-2.8-3.4-5.9c0.7-3.2,3.6-5.9,6.4-5.9
			C170.5,363,172,365.6,171.3,368.9z M181.8,305.8c-0.7,4.8-5,23.3-11.5,48.5l-2.4,0.4c1.9-19,3.8-29,6.8-44.8l-3.8-11.8l1-1
			C176.8,296.8,182.7,300.4,181.8,305.8z"/>
		<path fill="#522E87" d="M269.8,337.3c-0.8,24.5-19.8,36.8-32.4,36.8c-1,0-1.8-0.1-2.8-0.4l4.2-25.2l-0.4-0.2
			c-2.9,10.2-14.4,26-22.7,26c-4.7,0-8.3-6-8.4-13.9c-0.2-19.1,10.7-40.8,23.2-40.8c2.6,0,8,1.2,12.6,6.2l5.2-5.9h1.8l-8.3,50.5
			c11.5-3.2,21.5-14,22.2-32.2c0.7-19-10.7-31.2-30.4-31.2c-22.2,0-39.7,19.4-40.8,47.3c-0.7,21.1,11.2,36.5,34.8,36.5
			c9.6,0,16.1-3.2,21.7-6.5l0.8,1.1c-4.1,5.6-14.2,8.9-23.8,8.9c-25.3,0-40.3-14-39.5-39.2c1-27.4,18.7-51.5,47.6-51.5
			C256.1,303.7,270.5,316.8,269.8,337.3z M240.4,339.4l1.6-9.5c-5.2-3.1-11.2-5.4-17.9-5.3c-5.9,6.1-9.8,18-9.6,32.4
			c0.1,5.3,1,9.4,2.6,12C225.7,365.6,236.4,353,240.4,339.4z"/>
		<path fill="#522E87" d="M321.7,327.5l-3.8,23.6h14.8v3.6h-15.4l-3.4,20l-4.3-0.8l3.2-19.2h-19.1l-3.2,20l-4.3-0.8l3.2-19.2h-13.8
			v-3.6H290l3.8-23.6h-12.7v-3.6h13.3l3.1-18.6l4.2,0.8l-2.9,17.8h19l3.1-18.6l4.3,0.8l-3,17.8h15.8v3.6H321.7z M317.3,327.5h-19
			l-4,23.6h19.1L317.3,327.5z"/>
		<path fill="#522E87" d="M375.5,299.2l-5,31c9.1,6.6,18.5,13.4,16.9,23.8c-1.2,7.4-6,19-24,19.1l-1.6,9.4l-3.6-0.1l1.6-9.4
			c-9.7-0.4-16-2.8-19.3-4l3.8-16.1h1.9l1.8,11.6c2.8,1.7,6.5,3.4,12.5,4.2l5.3-32.4c-9.2-6.8-19.2-13.4-17.5-23.6
			c1-6,5.5-17.9,24.5-18.2l1.3-8h3.6l-1.3,8.2c8.6,0.5,15.8,3.4,16.3,3.6l-3.5,14.9h-1.8l-1.6-10.8C383.5,301.2,380,300,375.5,299.2
			z M372,298.6c-2.4-0.4-5-0.6-7.9-0.6c-5.8,2.2-8.2,7.3-8.8,10.8c-1.3,7.8,4.7,13.6,11.9,19L372,298.6z M369,338.6l-5,30.5
			c2,0.1,4.2,0.2,6.6,0.2c4.9-1.9,8.9-6,9.7-11.9C381.5,349.7,375.8,344,369,338.6z"/>
		<path fill="#522E87" d="M456.8,295.4l-57.2,79.3l-3.1-2.3l57.2-79.2L456.8,295.4z M400.5,316.4c0-10.4,6.4-23.5,15.5-23.5
			c6.8,0,11.5,4.1,11.5,13c0,10.4-6.4,23.5-15.1,23.5C405.3,329.4,400.5,325.3,400.5,316.4z M405.9,314.3c0,7.9,4.1,11.4,10.2,11.3
			c3-2.8,6.1-9.2,6.1-17.5c0-7.6-3.5-11.4-10.2-11.3C409,299.5,405.9,305.9,405.9,314.3z M452.6,351c0,10.4-6.4,23.5-15.1,23.5
			c-7.1,0-11.9-4.1-11.9-13c0-10.4,6.4-23.5,15.5-23.5C447.9,338,452.6,342.1,452.6,351z M447.3,353.2c0-7.6-3.5-11.4-10.2-11.3
			c-3,2.8-6.1,9.1-6.1,17.5c0,7.9,4.1,11.4,10.2,11.3C444.2,367.9,447.3,361.4,447.3,353.2z"/>
		<path fill="#522E87" d="M544.2,323.4c-0.5,3.8-7.7,14.9-12,14.9c-1.6,0-6.7-0.5-11.6-1.1c7.6,12.8-6.5,37.2-31,37.2
			c-21.2,0-27.7-13.4-27.7-26.2c0-20.2,16.6-38.4,30.8-38.4c6.6,0,11.6,5.2,14.2,9.7l11.8-10.2l5.3-14.3l1.3-0.2
			c4.2,2.6,5.6,9,1.2,13.4c-2.9,2.9-35.6,30.4-56.4,45.7c2.6,8.8,9.6,15.2,23,15.2c17.9,0,28.2-18.7,25.3-32.3
			c-1.3-0.1-2.5-0.4-3.6-0.5c-3.2,2.6-8.6,7.3-11.3,10.3l-1.4-1.1c1.3-2.3,8-14,13.9-14h17.6c2.9-2,5.9-5.3,9.7-9.7L544.2,323.4z
			 M468.8,344.9c0,2.5,0.2,5,0.7,7.3c9.2-8.9,22.6-20,34.6-30.2c-4.7-3.5-11-7.2-19.3-7.7C475.9,319.8,468.8,332.6,468.8,344.9z
			 M530,333.5c0.1,0,0.2-0.1,0.4-0.1L530,333.5z"/>
		<path fill="#522E87" d="M586.4,311.8l-16.6,2.3l12.1,11.4c-0.1,1-1.3,2.8-2.3,3.5c-1.1,0.6-3.1,1.3-4,1.1l-7.2-15.1l-7.2,15.1
			c-0.8,0.2-3-0.4-4-1.1c-1-0.8-2.2-2.5-2.3-3.5l12.1-11.4l-16.6-2.3c-0.5-0.7-0.6-2.9-0.1-4.1c0.5-1.2,1.7-2.9,2.5-3.2l14.6,7.9
			l-3-16.3c0.6-0.7,2.6-1.4,3.8-1.4c1.2,0,3.2,0.7,3.8,1.4l-3,16.3l14.6-7.9c0.8,0.4,2.2,2.2,2.5,3.2
			C586.9,308.9,586.9,311,586.4,311.8z"/>
		<path fill="#522E87" d="M169.5,517.8l-17.3-0.2l-17.2,0.2l-0.2-1.8l14.3-3.7l11-66.5l-15.2,3.1l-0.7-2.2l25.1-10.1l-12.6,75.6
			l13.1,3.7L169.5,517.8z"/>
		<path fill="#522E87" d="M186.8,511H219l7-10.3l1.4,0.6l-4.1,16.9c-2.6,0-5.4-0.2-8.3-0.6h-37l-0.4-2.6
			c13.2-12.4,41.2-34.1,44.2-51.8c2.3-13.2-5.8-22.1-20.8-22.1h-0.7l-10.7,16.8l-1.7-0.5l2.3-14c1.7-1.8,7.8-6.4,18.5-6.4
			c13.7,0,22.9,9.4,20.5,24.1C226.7,477.6,203.6,498.1,186.8,511z"/>
		<path fill="#522E87" d="M284.9,443l-25,23.4c12.5,3.1,22.4,12.4,19.9,26.5c-2.3,13.4-11.6,25.4-25.8,25.4c-13.8,0-18-4.7-18.1-4.8
			l4.1-15l1.9-0.5l1.2,11.9c5,2.3,11.8,4.2,18.8,4c3.2-2.4,8.9-7.8,10.6-17.3c2.6-15.1-9-23.8-20.9-25.9l26-26.5h-27.1l-4.3,8.4
			l-1.7-0.6l2.3-14.4c0.6,0,3.2,0.1,5.9,0.1h32.8L284.9,443z"/>
		<path fill="#522E87" d="M342.6,496.6h-12.4l-3.5,21.1l-7.2,2.3l3.8-23.4H289l-1.3-3.2l44.3-54.6l6.2-2.3h1.9l-8.9,54.4h13.3
			L342.6,496.6z M324.5,490.7l7.9-47.8l-36.8,47.6L324.5,490.7z"/>
		<path fill="#522E87" d="M368.3,444.2l-5.5,20.5c21.2,2.5,31.8,13.8,29.3,28.4c-2.3,13.4-11.6,25.2-25.8,25.2
			c-13.8,0-18-4.7-18.1-4.8l4.1-15l1.9-0.5l1.2,11.9c5,2.4,11.9,4.2,19.1,4c3.2-2.4,8.6-7.7,10.3-17c2.6-15.1-9.1-23.6-26.5-25.7
			l7.7-33.5h28l5.3-4.7l1.8,0.7l-4,10.4H368.3z"/>
		<path fill="#522E87" d="M412,474.6c3.8-2.6,8.9-5,15.7-5c14,0,21.7,9.7,19.9,23.9c-1.7,13-10.4,25-24.8,25
			c-17,0-22.9-14.8-18.8-40c4.7-29.3,17.2-41.5,32-41.5c9.1,0,16.2,4.6,16.3,4.8l-4.1,15l-1.9,0.5l-1.2-12
			c-4.3-2.2-10.8-4.1-17.9-3.8C421.9,445.6,415.8,453.8,412,474.6z M423.7,474.6c-5.5,0-9.6,1.7-12.4,3.2
			c-3.5,21.6,1.1,37.7,19.9,36.6c3.8-3.4,7.6-9.2,8.8-17.9C441.8,484,436.7,474.6,423.7,474.6z"/>
		<path fill="#522E87" d="M503.6,442.8l-35.6,67l-1,7.4l-8.5,2.8l-0.1-1.2c-0.1-1.9,1.8-6.6,5.2-12.5l35.4-62h-33.7l-4.8,8.2
			l-1.6-0.5l3.5-14.3c1.6,0.1,5.4,0.1,6.7,0.1h35.4L503.6,442.8z"/>
		<path fill="#522E87" d="M533.2,477.1c7.6,6,14.3,12.5,12.7,22.6c-1.7,10.3-11,18.7-24.1,18.7c-14.3,0-24.5-8.6-22.3-21.6
			c1.9-11.5,11.6-18.8,18.7-21.8c-5.9-5.3-10.6-11.2-9.2-19.6c1.4-9.4,9.5-18.5,21.8-18.5c12.2,0,21,8.5,19.1,20.5
			C548.2,467.5,539.9,473.5,533.2,477.1z M520.1,476.6c-5,3.1-12,8.3-13.3,17c-1.9,12,8,21.1,24.8,20.8c2.6-1.8,6-5.3,7.1-12.1
			C540.7,490.9,529.4,484.3,520.1,476.6z M521.8,441c-1.9,1.9-4.6,5.3-5.5,11.4c-1.7,10.2,6.7,16.6,15.1,23.2
			c5.2-4.2,10.1-9.7,11.2-16.4C544.6,447.5,534.1,439.7,521.8,441z"/>
		<path fill="#522E87" d="M604.6,476.9c-4.7,29.3-17.2,41.5-32,41.5c-9.1,0-16.2-4.6-16.3-4.8l4.1-15l1.9-0.5l1.2,12
			c4.3,2.2,10.8,4.1,17.9,3.8c5.3-4.2,11.4-12.5,15.2-33.2c-3.8,2.6-8.9,5-15.7,5c-14,0-21.7-9.7-19.9-23.9c1.7-13,10.4-25,24.8-25
			C602.8,436.9,608.7,451.7,604.6,476.9z M584.8,480.7c5.5,0,9.6-1.7,12.4-3.2c3.5-21.6-1.1-37.7-19.9-36.6
			c-3.8,3.4-7.6,9.2-8.8,17.9C566.7,471.4,571.8,480.7,584.8,480.7z"/>
	</g>
</g>
<g id="Layer_2">
</g>
</svg>
