<?xml version="1.0" encoding="utf-8"?>
<!-- Generator: Adobe Illustrator 19.2.1, SVG Export Plug-In . SVG Version: 6.00 Build 0)  -->
<svg version="1.1" xmlns="http://www.w3.org/2000/svg" xmlns:xlink="http://www.w3.org/1999/xlink" x="0px" y="0px"
	 viewBox="0 0 714.9 241.9" enable-background="new 0 0 714.9 241.9" xml:space="preserve">
<g id="Layer_1">
	<g>
		<g>
			<path fill="#E2E7E8" d="M90.7,93.8v2.9H57.6L40.9,55.3c0,0,11.2-6.5,11.2-22.1c0-9.7-4.1-17.6-13-17.6h-1.6v78.2h9.8v2.9H0v-2.9
				h10V15.6H0v-2.9h41.2c25,0,38.5,5.6,38.5,19.3c0,14-14,22.8-33.1,23.9l23.8,3.6l15,34.3H90.7z"/>
			<path fill="#E2E7E8" d="M151.2,73.8c-5.3,14.5-14.5,24.1-30.4,24.1c-17.3,0-29-11.4-29-32.4c0-20.9,11.8-34.8,34.1-34.8
				c12.4,0,25.2,4.3,25.2,22.3c0,4.2-0.7,7.7-0.7,7.7h-32.2c0.6,17.3,7.6,22.9,15.4,22.9c7.3,0,11.6-5,14.2-11.3L151.2,73.8z
				 M118.2,56.6h9.6c0,0,0.6-3.8,0.6-8.9c0-7.1-1.2-13.3-4.1-13.3C120.2,34.4,118.4,47.2,118.2,56.6z"/>
			<path fill="#E2E7E8" d="M207.4,77.3c0,10.9-8.5,20.6-26.6,20.6c-12,0-23.5-4.3-23.5-13.9c0-5.9,4.2-7.1,6.7-7.1
				c1.1,0,1.8,0.2,1.8,0.2l9.4,16.8c0,0,2.2,0.7,4,0.7c3.8,0,5.5-3.1,5.5-6.6c0-4.1-2.4-7.8-8.5-12.2l-7-5
				c-7.4-5.4-10.3-11.3-10.3-17.8c0-12.2,10.3-22.3,26.8-22.3c10.8,0,20,4.3,20,13.1c0,6-4.3,6.8-6.8,6.8c-1,0-1.7-0.1-1.7-0.1
				l-8.4-17.4c0,0-0.7-0.1-1.3-0.1c-3,0-6.1,3.6-6.1,9.1c0,5.9,3.6,8.9,9.5,13.1l5.6,4.1C205,65.5,207.4,71.5,207.4,77.3z"/>
			<path fill="#E2E7E8" d="M258.1,80.8c0,0-2.9,17-20.6,17c-11.5,0-19.3-7.4-19.3-21.6V34.3h-8.9v-2.4h8.9v-9.1
				c11.3-0.5,19.1-3,24.8-7.9l1.6,0.6v16.4h12.2v2.4h-12.2v47.4c0,5.8,1.4,7.1,3.1,7.1c4.6,0,6.8-9.2,6.8-9.2L258.1,80.8z"/>
			<path fill="#E2E7E8" d="M328.6,80.9c-1.3,7.3-5.8,17-18.8,17c-9.6,0-14.3-5.3-15.8-10.1c-3.2,6.4-9.2,10.1-17,10.1
				c-9.4,0-16-5.4-16-14.8c0-12.6,12.1-19.7,25.9-20.8l6.6-0.5v-2.3c0-13.6-0.4-24.8-7.7-24.8c-1.4,0-2.8,0.5-2.8,0.5l-6.4,20.6
				c0,0-1.3,0.2-2.9,0.2c-3.7,0-9-1.3-9-7.8c0-9.7,12-17.6,28.8-17.6c16.7,0,26.3,7.8,26.3,27.8v25.8c0,1.4,0.1,3.4,1.2,3.4
				c1.7,0,3.5-4.3,3.8-7.6L328.6,80.9z M293.4,76.7v-12l-0.2,0.1c-3,1.1-5.5,4.7-5.5,13.8c0,4.4,0.6,9.2,2.4,9.2
				C291.6,87.8,293.4,84.1,293.4,76.7z"/>
			<path fill="#E2E7E8" d="M404.9,94.3v2.4h-28.4l-2-16.6c-3.2,13.8-11,17.8-19.6,17.8c-13.3,0-17.9-9.6-17.9-27.8V34.3h-7.4v-2.4
				c12.6,0,23.9-0.4,32.2-1.2l1.7,0.7v45.5c0,5.9,0.8,9.7,3.1,9.7c3.2,0,5.4-7.8,5.4-16.1V34.3H369v-2.4h29.3v62.4H404.9z"/>
			<path fill="#E2E7E8" d="M469.2,43.6c0,7.6-5,12.7-12.7,12.7c-2,0-4-0.4-4-0.4l-1.2-18.8c0,0-0.5-0.1-1-0.1
				c-4.4,0-7.9,11.5-7.9,26.2v31.2h10.1v2.4h-43.9v-2.4h7.4v-60h-7.4v-2.4c11.2,0,21.2-0.4,28.6-1.2l1.7,0.7l0.6,21.8
				c2-17.2,7.7-22.6,16.1-22.6C463.7,30.7,469.2,35.8,469.2,43.6z"/>
			<path fill="#E2E7E8" d="M538,80.9c-1.3,7.3-5.8,17-18.8,17c-9.6,0-14.3-5.3-15.8-10.1c-3.2,6.4-9.2,10.1-17,10.1
				c-9.4,0-16-5.4-16-14.8c0-12.6,12.1-19.7,25.9-20.8l6.6-0.5v-2.3c0-13.6-0.4-24.8-7.7-24.8c-1.4,0-2.8,0.5-2.8,0.5L486,55.9
				c0,0-1.3,0.2-2.9,0.2c-3.7,0-9-1.3-9-7.8c0-9.7,12-17.6,28.8-17.6c16.7,0,26.3,7.8,26.3,27.8v25.8c0,1.4,0.1,3.4,1.2,3.4
				c1.7,0,3.5-4.3,3.8-7.6L538,80.9z M502.8,76.7v-12l-0.2,0.1c-3,1.1-5.5,4.7-5.5,13.8c0,4.4,0.6,9.2,2.4,9.2
				C501,87.8,502.8,84.1,502.8,76.7z"/>
			<path fill="#E2E7E8" d="M576.2,30.7c15.1,0,23.4,5.9,23.4,15.1c0,6.6-4.3,11.4-10.7,11.4c-1.7,0-3.2-0.4-3.2-0.4l-5.9-22.2
				c0,0-1.1-0.2-2-0.2c-8.3,0-10,16.3-10,25.6c0,15,4.4,23.5,13.8,23.5c6,0,11.8-3.5,14.5-10.6l3.5,1.4
				C596,86,585.5,97.9,568.8,97.9c-16.7,0-28.3-12-28.3-32.2C540.5,45.5,552.2,30.7,576.2,30.7z"/>
			<path fill="#E2E7E8" d="M611.2,97.1V34.3h-7.4v-2.4c12.6,0,23.9-0.4,32.2-1.2l1.7,0.7v52.1c0,34-25.7,37.2-35.5,37.2
				c-2.8,0-3.6-0.2-3.6-0.2v-2.6c0,0,0.6,0.1,1.3,0.1C603.2,118,611.2,116,611.2,97.1z M610.2,12.8c0-7.7,5.3-12.8,14.2-12.8
				c8.8,0,14,5.2,14,12.8c0,7.8-5.3,13-14,13C615.5,25.8,610.2,20.6,610.2,12.8z"/>
			<path fill="#E2E7E8" d="M714.9,80.9c-1.3,7.3-5.8,17-18.8,17c-9.6,0-14.3-5.3-15.8-10.1c-3.2,6.4-9.2,10.1-17,10.1
				c-9.4,0-16-5.4-16-14.8c0-12.6,12.1-19.7,25.9-20.8l6.6-0.5v-2.3c0-13.6-0.4-24.8-7.7-24.8c-1.4,0-2.8,0.5-2.8,0.5L663,55.9
				c0,0-1.3,0.2-2.9,0.2c-3.7,0-9-1.3-9-7.8c0-9.7,12-17.6,28.8-17.6c16.7,0,26.3,7.8,26.3,27.8v25.8c0,1.4,0.1,3.4,1.2,3.4
				c1.7,0,3.5-4.3,3.8-7.6L714.9,80.9z M679.8,76.7v-12l-0.2,0.1c-3,1.1-5.5,4.7-5.5,13.8c0,4.4,0.6,9.2,2.4,9.2
				C678,87.8,679.8,84.1,679.8,76.7z"/>
			<path fill="#E2E7E8" d="M53.7,205.3v6H16.5v-6H53.7z"/>
			<path fill="#E2E7E8" d="M124.1,216c0,13.9-10.6,25.9-34.3,25.9c-13.3,0-24.2-3.7-24.2-3.7v-23.3H68l15.4,22.3c0,0,3,0.6,5.6,0.6
				c7.1,0,10.8-4.4,10.8-10c0-5.8-4.1-10.2-9.1-13.9l-14.3-10.6c-7.3-5.4-10.8-12.1-10.8-20.6c0-14,9.6-27.2,30.4-27.2
				c11.4,0,23.3,4,23.3,4v21.8h-2.4l-14.8-21.6c0,0-2.8-0.4-4.8-0.4c-7.6,0-10.1,4.9-10.1,9.4c0,4.8,2.9,9.1,9.2,13.8l15,11
				C119.6,199.6,124.1,206.9,124.1,216z"/>
			<path fill="#E2E7E8" d="M207.6,182h-2.4l-17.8-22.4h-4.9v78.2h13.6v2.9h-54.8v-2.9H155v-78.2h-4.9L132.3,182h-2.4v-25.3h77.8V182
				z"/>
			<path fill="#E2E7E8" d="M288.4,237.8v2.9h-43.1v-2.9h8.8l-6-20.6h-26.2l-2.8,9.6l13.8,11.5v2.4h-31.1v-2.4l11.9-11.4l17.4-61.7
				l-2.2-8.5h29.2l25.3,81.1H288.4z M246.8,212.8l-12.1-41.6l-11.5,41.6H246.8z"/>
			<path fill="#E2E7E8" d="M361.7,215.4v25.3h-72.1v-2.9h10v-78.2h-10v-2.9h50.3v2.9h-12.7v78.2h14.4l17.8-22.4H361.7z"/>
			<path fill="#E2E7E8" d="M365,199.7c0-29.3,14.2-44.2,41.2-44.2c26.3,0,39.8,14,39.8,42.7c0,29.4-14.3,43.7-41.2,43.7
				C378.3,241.9,365,228.1,365,199.7z M417.2,200.5c0-25.6-3.8-40.4-12.1-40.4c-7.3,0-11.3,11.5-11.3,37.4s4,39.8,12.1,39.8
				C413.2,237.4,417.2,226.6,417.2,200.5z"/>
			<path fill="#E2E7E8" d="M582.8,159.1L571,170.9l-18,69.8h-23.3l-16.1-56.6l-14.8,56.6h-23.5l-23.2-81.1h-6.6v-2.9H491v2.9h-10
				l17.4,61.7l12.2-47.5l-4-14.2h-8v-2.9h41.6v2.9H535l17.4,61.8l13.1-49.7l-17.4-12.6v-2.4h34.7V159.1z"/>
			<path fill="#E2E7E8" d="M655.5,237.8v2.9h-43.1v-2.9h8.8l-6-20.6H589l-2.8,9.6l13.8,11.5v2.4H569v-2.4l11.9-11.4l17.4-61.7
				l-2.2-8.5h29.2l25.3,81.1H655.5z M613.9,212.8l-12.1-41.6l-11.5,41.6H613.9z"/>
			<path fill="#E2E7E8" d="M696.9,205.3v6h-37.2v-6H696.9z"/>
		</g>
	</g>
</g>
<g id="Layer_2">
</g>
</svg>
