<?xml version="1.0" encoding="utf-8"?>
<!-- Generator: Adobe Illustrator 19.2.1, SVG Export Plug-In . SVG Version: 6.00 Build 0)  -->
<svg version="1.1" xmlns="http://www.w3.org/2000/svg" xmlns:xlink="http://www.w3.org/1999/xlink" x="0px" y="0px"
	 viewBox="0 0 1009.9 224.2" enable-background="new 0 0 1009.9 224.2" xml:space="preserve">
<g id="Layer_1">
	<g>
		<path fill="#E2E7E8" d="M50.9,6.6V80h-6.7L11,26.1l-4.3-7.6l0.5,10.6v51H0V6.6h6.9l32.7,53.1l4.9,8.9l-0.6-12.3V6.6H50.9z"/>
		<path fill="#E2E7E8" d="M108.5,40.6V80h-6.2v-7.6c-7.3,6.6-12.4,9-19.1,9c-11.9,0-17.5-7.8-17.5-16.6c0-11.6,9.4-17.4,21.8-17.4
			c2.3,0,6.3,0.2,13.9,0.7v-7.5c0-9.1-5-13.1-13.9-13.1c-6.4,0-13.1,1.9-18.7,5.2h-0.5v-6.6c5.2-3.1,11.8-4.7,20-4.7
			C100.8,21.4,108.5,27.3,108.5,40.6z M101.5,65.5V53.9c-6.1-0.5-11.8-0.8-14.3-0.8c-8.9,0-14.1,4-14.1,11.4
			c0,6.1,3.5,10.8,11.2,10.8C90.8,75.3,95.5,71.8,101.5,65.5z"/>
		<path fill="#E2E7E8" d="M122.5,76.3v-7.2h0.5c4.8,3.3,10.4,6.3,16.8,6.3c8.7,0.1,13-4,13-9.9c0-5.7-4.1-8.5-13.2-12
			c-7-2.7-16.2-5.5-16.2-16.2c0-9.2,6.7-15.9,18-15.9c6.3,0,11.2,1.5,15.4,3.7l-1.3,6.5h-0.6c-4.3-3-9.9-4.2-14.5-4.2
			c-7.9,0-10,5.2-10,9.1c0,5,3.4,7.3,12.6,11.2c9.7,4,16.9,7.2,16.9,17c0,9.6-7,16.7-21,16.7C132.4,81.4,126.2,79.2,122.5,76.3z"/>
		<path fill="#E2E7E8" d="M200.2,73.2v6.2c-3.1,1.5-6.6,2-10.5,2c-9.6,0-12.5-5.8-12.5-13.5V29.2h-9.3v-6.3h9.3V10.3l6.5-1.1h0.5
			v13.7h16v6.3h-16v37.2c0,4.8,0.9,8.8,6.8,8.8c3.3,0,6-0.5,8.7-1.9H200.2z"/>
		<path fill="#E2E7E8" d="M254.7,52.9h-38.2c0.5,14.8,5.5,22.5,19.2,22.5c5.9,0,10.3-1.2,16-4.5h0.6v6.5l-0.3,0.2
			c-7.2,7.4-10.1,11.7-10.1,15.4c0,2.8,1.3,4.1,4.1,4.1c2.3,0,5.5-0.6,7.1-1.5v5.5c-1.3,0.5-4.4,1.7-8.3,1.7c-5.9,0-9.8-2.7-9.8-7.9
			c0-5.8,5.1-11.2,8.7-14.3c-2.7,0.6-5.8,0.9-9.3,0.9c-17.7,0-25.5-10.9-25.5-28.7c0-20.1,9.4-31.3,24.3-31.3
			c14.3,0,21.3,9.8,21.3,27.9V52.9z M216.6,47.2h31.2c-0.4-13.2-5.1-19.8-15-19.8C223.4,27.5,217.4,34.5,216.6,47.2z"/>
		<path fill="#E2E7E8" d="M316.3,50.3c0,19.5-8.9,31.1-24.6,31.1c-5.5,0-10.8-1.3-14.6-2.8v22.8h-7V22.8h6.7v8.7
			c6.8-7.2,12-10.1,18.7-10.1C308.9,21.4,316.3,32,316.3,50.3z M308.9,51.2c0-15.9-5.3-23.8-14.2-23.8c-5.8,0-10.6,3.3-17.6,11.6v33
			c4.2,2,9.4,3.3,14.7,3.3C302,75.4,308.9,68.7,308.9,51.2z"/>
		<path fill="#E2E7E8" d="M373.9,39.8V80h-7V40.2c0-6.9-3-12.7-10.7-12.7c-5.3,0-10.2,2.8-17.7,11.7V80h-7V22.8h6.7v8.8
			c8-8.2,12.9-10.2,18.7-10.2C368.5,21.4,373.9,29.1,373.9,39.8z"/>
		<path fill="#E2E7E8" d="M412.1,79.3l-1.7,10.5c-1.2,7.5-6.6,13-14.8,13c-2.1,0-4.1-0.2-6.9-1.5v-6.3h0.3c2.5,1.2,4,1.5,6.2,1.5
			c4.6,0,8.3-2.6,9.1-8.7l1-8.2L383,22.8h7.5l16,41.3l2.4,7.5l2.3-7.5l15.2-41.3h7.1L412.1,79.3z"/>
		<path fill="#E2E7E8" d="M521.8,50.3c0,19.5-8.9,31.1-24.6,31.1c-5.5,0-10.8-1.3-14.6-2.8v22.8h-7V22.8h6.7v8.7
			c6.8-7.2,12-10.1,18.7-10.1C514.5,21.4,521.8,32,521.8,50.3z M514.5,51.2c0-15.9-5.3-23.8-14.2-23.8c-5.8,0-10.6,3.3-17.6,11.6v33
			c4.2,2,9.4,3.3,14.7,3.3C507.5,75.4,514.5,68.7,514.5,51.2z"/>
		<path fill="#E2E7E8" d="M567.4,23.4l-1.3,6.6h-0.5c-2.2-0.9-4.2-1.3-6.3-1.3c-6,0-10.1,5.2-15.2,13.9V80h-7V22.8h6.7v10.7
			c5.9-8.1,10.6-12.1,16.4-12.1C562.7,21.4,565.3,22.3,567.4,23.4z"/>
		<path fill="#E2E7E8" d="M613.9,73.7l-1.2,6.3h-37.8v-6.1l29.3-44.7h-28.4v-6.3h36.1v6.1l-29.3,44.7H613.9z"/>
		<path fill="#E2E7E8" d="M650,79.3l-1.7,10.5c-1.2,7.5-6.6,13-14.8,13c-2.1,0-4.1-0.2-6.9-1.5v-6.3h0.3c2.5,1.2,4,1.5,6.2,1.5
			c4.6,0,8.3-2.6,9.1-8.7l1-8.2l-22.3-56.7h7.5l16,41.3l2.4,7.5l2.3-7.5l15.2-41.3h7.1L650,79.3z"/>
		<path fill="#E2E7E8" d="M678,76.3v-7.2h0.5c4.8,3.3,10.4,6.3,16.8,6.3c8.7,0.1,13-4,13-9.9c0-5.7-4.1-8.5-13.2-12
			c-7-2.7-16.2-5.5-16.2-16.2c0-9.2,6.7-15.9,18-15.9c6.3,0,11.2,1.5,15.4,3.7l-1.3,6.5h-0.6c-4.3-3-9.9-4.2-14.5-4.2
			c-7.9,0-10,5.2-10,9.1c0,5,3.4,7.3,12.6,11.2c9.7,4,16.9,7.2,16.9,17c0,9.6-7,16.7-21,16.7C688,81.4,681.8,79.2,678,76.3z"/>
		<path fill="#E2E7E8" d="M755.8,73.2v6.2c-3.1,1.5-6.6,2-10.5,2c-9.6,0-12.5-5.8-12.5-13.5V29.2h-9.3v-6.3h9.3V10.3l6.5-1.1h0.5
			v13.7h16v6.3h-16v37.2c0,4.8,0.9,8.8,6.8,8.8c3.3,0,6-0.5,8.7-1.9H755.8z"/>
		<path fill="#E2E7E8" d="M808.8,40.6V80h-6.2v-7.6c-7.3,6.6-12.4,9-19.1,9c-11.9,0-17.5-7.8-17.5-16.6c0-11.6,9.4-17.4,21.8-17.4
			c2.3,0,6.3,0.2,13.9,0.7v-7.5c0-9.1-5-13.1-13.9-13.1c-6.4,0-13.1,1.9-18.7,5.2h-0.5v-6.6c5.2-3.1,11.8-4.7,20-4.7
			C801.1,21.4,808.8,27.3,808.8,40.6z M801.8,65.5V53.9c-6.1-0.5-11.8-0.8-14.3-0.8c-8.9,0-14.1,4-14.1,11.4
			c0,6.1,3.5,10.8,11.2,10.8C791.1,75.3,795.8,71.8,801.8,65.5z"/>
		<path fill="#E2E7E8" d="M869.3,39.8V80h-7V40.2c0-6.9-3-12.7-10.7-12.7c-5.3,0-10.2,2.8-17.7,11.7V80h-7V22.8h6.7v8.8
			c8-8.2,12.9-10.2,18.7-10.2C863.9,21.4,869.3,29.1,869.3,39.8z"/>
		<path fill="#E2E7E8" d="M929.8,52.9h-38.2c0.5,14.8,5.5,22.5,19.2,22.5c5.9,0,10.3-1.2,16-4.5h0.6v6.5c-3.9,2.4-9.8,4-17.7,4
			c-17.7,0-25.5-10.9-25.5-28.7c0-20.1,9.4-31.3,24.3-31.3c14.3,0,21.3,9.8,21.3,27.9V52.9z M891.7,47.2h31.2
			c-0.4-13.2-5.1-19.8-15-19.8C898.5,27.5,892.5,34.5,891.7,47.2z"/>
		<path fill="#E2E7E8" d="M987.1,80H979c-4.9-7.7-8.1-13.2-10.5-17.1c-4.4-7.1-6.7-9.1-12-9.1c-1.4,0-3,0.1-4.5,0.2v26h-7V0h7v48.2
			c1.9-0.1,4-0.2,5.8-0.2l18.8-25.2h7.8l-16.9,22.1c-0.8,1.1-2,2.6-3.4,4c4.2,1.6,7,5.4,11.2,12.1C978.2,65.8,981.8,72,987.1,80z"/>
		<path fill="#E2E7E8" d="M997.3,32.2c0-4.1,2.6-6.4,6.5-6.4c3.7,0,6.2,2.3,6.2,6.1c0,4-2.7,6.3-6.4,6.3
			C999.7,38.2,997.3,36,997.3,32.2z M997.3,75.4c0-4.1,2.6-6.4,6.5-6.4c3.7,0,6.2,2.3,6.2,6.1c0,4-2.7,6.3-6.4,6.3
			C999.7,81.4,997.3,79.1,997.3,75.4z"/>
		<path fill="#E2E7E8" d="M192.5,149.4l-19.3,73.4h-6.8l-13.9-49.3l-3.6-13.8l-3.5,13.9l-13.9,49.2h-6.7l-19.4-73.4h7.6l11.9,44.8
			l4,17.4l4.2-17.5l12.7-44.6h6.7l12.7,44.8l4.5,18.1l4.1-18.1l11.8-44.9H192.5z"/>
		<path fill="#E2E7E8" d="M200.2,186.9c0-24.4,11.1-38.9,30.9-38.9c19.4,0,29.3,14.1,29.3,37.2c0,24.3-11,39-30.9,39
			C210.1,224.2,200.2,210,200.2,186.9z M252.8,186.3c0-22.1-9.1-31.9-22.5-31.9c-13.4,0-22.5,9.6-22.5,31.8
			c0,21.8,8.8,31.7,22.6,31.7C244,217.8,252.8,208,252.8,186.3z"/>
		<path fill="#E2E7E8" d="M315.8,216.3v6.5h-39.1v-73.4h7.1v66.9H315.8z"/>
		<path fill="#E2E7E8" d="M369.1,198.9h-29.5l-8.8,23.9h-7.4l27.7-73.4h6.7l27.8,73.4h-7.6L369.1,198.9z M366.9,192.9l-8.8-23.2
			l-3.9-11.4l-3.8,11.4l-8.6,23.2H366.9z"/>
		<path fill="#E2E7E8" d="M489,186.3h-11.8v36.5h-6.8v-6c-4.4,3.7-10.5,7.4-19.8,7.4c-13,0-22.3-7.4-22.3-20
			c0-9.5,5.2-19.2,17.1-21.1c-10.2-2.3-13.5-8.5-13.5-15.6c0-9.6,6-19.5,22.3-19.5c6.3,0,13.1,1.5,17.7,5.3l-1.2,6.4h-0.6
			c-3.7-2.8-9.9-5.5-16.9-5.5c-10.8,0-13.8,6.2-13.8,12.6c0,7.6,4.1,12,14.9,13.5h36L489,186.3z M470.5,186.3h-14.3
			c-15.1,0-20.2,8.4-20.2,17.1c0,10.5,7.8,14.6,15.3,14.6c8.6,0,15.8-5.4,19.2-9.6V186.3z"/>
		<path fill="#E2E7E8" d="M527.8,186.9c0-24.4,11.1-38.9,30.9-38.9c19.4,0,29.3,14.1,29.3,37.2c0,24.3-11,39-30.9,39
			C537.7,224.2,527.8,210,527.8,186.9z M580.4,186.3c0-22.1-9.1-31.9-22.5-31.9c-13.4,0-22.5,9.6-22.5,31.8
			c0,21.8,8.8,31.7,22.6,31.7C571.6,217.8,580.4,208,580.4,186.3z"/>
		<path fill="#E2E7E8" d="M600.6,187.5c0-25.3,11.3-39.5,30-39.5c7.8,0,15.2,2.9,20,6.4l-2,6.5H648c-5.8-3.8-11.4-6.5-18.2-6.5
			c-13.8,0-21.6,10.8-21.6,31.8c0,20.7,7.6,31.3,21.8,31.3c6.9,0,14.4-2.5,20.2-6.5h0.6v7.1c-4.7,3.4-13,6-21.2,6
			C610.9,224.2,600.6,211.9,600.6,187.5z"/>
		<path fill="#E2E7E8" d="M714.4,149.4v73.4h-7.1v-35.1h-35.4v35.1h-7.1v-73.4h7.1v32h35.4v-32H714.4z"/>
		<path fill="#E2E7E8" d="M730.7,186.9c0-24.4,11.1-38.9,30.9-38.9c19.4,0,29.3,14.1,29.3,37.2c0,24.3-11,39-30.9,39
			C740.6,224.2,730.7,210,730.7,186.9z M783.3,186.3c0-22.1-9.1-31.9-22.5-31.9c-13.4,0-22.5,9.6-22.5,31.8
			c0,21.8,8.8,31.7,22.6,31.7C774.5,217.8,783.3,208,783.3,186.3z"/>
		<path fill="#E2E7E8" d="M847.3,155.7h-21.6v67.1h-7.1v-67.1h-22.1v-6.3H848L847.3,155.7z"/>
		<path fill="#E2E7E8" d="M889,198.9h-29.5l-8.8,23.9h-7.4l27.7-73.4h6.7l27.8,73.4H898L889,198.9z M886.8,192.9l-8.8-23.2
			l-3.9-11.4l-3.8,11.4l-8.6,23.2H886.8z"/>
	</g>
</g>
<g id="Layer_2">
</g>
</svg>
