<?xml version="1.0" encoding="UTF-8"?>
<svg xmlns="http://www.w3.org/2000/svg" xmlns:xlink="http://www.w3.org/1999/xlink" version="1.2" >
<font id="Nocturne Serif">
<font-face  font-family="Nocturne Serif" units-per-em="1000" ascent="780" descent="-240" font-style="normal" font-weight="400" font-stretch="normal" cap-height="700" x-height="480" underline-position="-75" underline-thickness="50" />
<missing-glyph  horiz-adv-x="510" d="M418 780 L95 780 L95 -240 L418 -240 L418 780 Z M340 712 L340 678 L272 678 L272 640 L340 640 L340 607 L170 607 L170 640 L238 640 L238 678 L171 678 L171 712 L340 712 Z M272 580 L272 509 L340 509 L340 474 L170 474 L170 580 L272 580 Z M238 545 L204 545 L204 509 L238 509 L238 545 Z M340 446 L340 413 L272 413 L272 341 L170 341 L170 375 L238 375 L238 413 L170 413 L170 446 L340 446 Z M340 385 L340 283 L170 283 L170 318 L306 318 L306 385 L340 385 Z M340 261 L340 146 L170 146 L170 261 L204 261 L204 179 L306 179 L306 227 L272 227 L272 204 L238 204 L238 261 L340 261 Z M340 84 L340 -31 L170 -31 L170 84 L340 84 Z M306 51 L204 51 L204 3 L306 3 L306 51 Z M340 -54 L340 -88 L307 -88 L236 -136 L340 -136 L340 -170 L170 -170 L170 -136 L242 -88 L170 -88 L170 -54 L340 -54 Z " />
<glyph glyph-name="NULL" d="" />
<glyph glyph-name="CR" unicode="&#xd;" horiz-adv-x="250" d="" />
<glyph glyph-name="space" unicode="&#x20;" horiz-adv-x="210" d="" />
<glyph glyph-name="exclam" unicode="&#x21;" horiz-adv-x="340" d="M220 750 L120 750 L150 220 L190 220 L220 750 Z M170 -10 C203 -10 230 17 230 50 C230 83 203 110 170 110 C137 110 110 83 110 50 C110 17 137 -10 170 -10 L170 -10 Z " />
<glyph glyph-name="quotedbl" unicode="&#x22;" horiz-adv-x="260" d="M63 520 L68 520 L120 780 L10 780 L63 520 Z M203 520 L208 520 L260 780 L150 780 L203 520 Z " />
<glyph glyph-name="numbersign" unicode="&#x23;" horiz-adv-x="666" d="M627 480 L631 530 L521 530 L536 700 L471 700 L456 530 L241 530 L256 700 L191 700 L176 530 L66 530 L62 480 L172 480 L149 220 L39 220 L35 170 L145 170 L130 0 L195 0 L210 170 L425 170 L410 0 L475 0 L490 170 L600 170 L604 220 L494 220 L517 480 L627 480 Z M429 220 L214 220 L237 480 L452 480 L429 220 Z " />
<glyph glyph-name="dollar" unicode="&#x24;" horiz-adv-x="580" d="M320 404 L342 657 C367 653 391 645 417 631 L494 491 L494 659 C442 686 396 702 346 708 L353 786 L303 791 L296 710 C162 707 74 634 74 527 C74 406 170 366 263 328 L238 45 C204 53 171 67 137 90 L70 210 L70 51 C120 25 173 3 234 -6 L227 -86 L277 -91 L284 -10 L293 -10 C429 -10 530 61 530 182 C530 319 419 364 320 404 L320 404 Z M164 539 C164 584 189 653 292 659 L271 424 C211 450 164 481 164 539 L164 539 Z M290 40 L288 40 L312 308 C379 278 435 241 435 163 C435 111 410 40 290 40 L290 40 Z " />
<glyph glyph-name="percent" unicode="&#x25;" horiz-adv-x="902" d="M402 507 C402 619 327 710 226 710 C125 710 50 619 50 507 C50 395 125 304 226 304 C327 304 402 395 402 507 L402 507 Z M600 700 L242 0 L302 0 L660 700 L600 700 Z M226 344 C162 344 140 419 140 507 C140 595 162 670 226 670 C290 670 312 595 312 507 C312 419 290 344 226 344 L226 344 Z M676 396 C575 396 500 305 500 193 C500 81 575 -10 676 -10 C777 -10 852 81 852 193 C852 305 777 396 676 396 L676 396 Z M676 30 C612 30 590 105 590 193 C590 281 612 356 676 356 C740 356 762 281 762 193 C762 105 740 30 676 30 L676 30 Z " />
<glyph glyph-name="ampersand" unicode="&#x26;" horiz-adv-x="755" d="M597 139 C632 199 651 276 647 369 L720 440 L454 440 L598 368 C601 289 585 227 556 181 C522 214 483 255 433 306 C336 406 255 490 255 596 C255 682 300 720 382 720 C406 720 425 717 446 708 L563 551 L563 770 L505 740 C462 760 419 770 379 770 C252 770 160 692 160 573 C160 529 171 488 191 447 C103 391 45 318 45 218 C45 68 177 -10 321 -10 C401 -10 474 14 531 61 C630 -22 690 -28 810 -10 L810 0 C721 31 687 51 597 139 L597 139 Z M338 70 C215 70 130 138 130 246 C130 300 151 356 211 411 C246 354 296 297 355 235 C404 183 445 141 480 107 C439 82 389 70 338 70 L338 70 Z " />
<glyph glyph-name="quotesingle" unicode="&#x27;" horiz-adv-x="190" d="M93 520 L98 520 L150 780 L40 780 L93 520 Z " />
<glyph glyph-name="parenleft" unicode="&#x28;" horiz-adv-x="330" d="M295 820 L290 825 C130 703 50 547 50 355 C50 163 130 7 290 -115 L295 -110 C175 32 135 183 135 355 C135 527 175 678 295 820 L295 820 Z " />
<glyph glyph-name="parenright" unicode="&#x29;" horiz-adv-x="330" d="M40 825 L35 820 C155 678 195 527 195 355 C195 183 155 32 35 -110 L40 -115 C200 7 280 163 280 355 C280 547 200 703 40 825 L40 825 Z " />
<glyph glyph-name="asterisk" unicode="&#x2a;" horiz-adv-x="399" d="M134 443 L209 600 L275 458 L351 492 L229 614 L379 631 L371 714 L219 636 L248 789 L167 807 L199 636 L62 708 L20 635 L189 614 L77 506 L134 443 Z " />
<glyph glyph-name="plus" unicode="&#x2b;" horiz-adv-x="590" d="M550 375 L320 375 L320 605 L270 605 L270 375 L40 375 L40 325 L270 325 L270 95 L320 95 L320 325 L550 325 L550 375 Z " />
<glyph glyph-name="comma" unicode="&#x2c;" horiz-adv-x="230" d="M113 110 C74 110 50 80 50 50 C79 31 97 -1 97 -36 C97 -76 74 -120 20 -155 L22 -160 C102 -130 180 -66 180 25 C180 88 149 110 113 110 L113 110 Z " />
<glyph glyph-name="hyphen" unicode="&#x2d;" horiz-adv-x="408" d="M30 285 L35 225 L380 255 L375 315 L30 285 Z " />
<glyph glyph-name="period" unicode="&#x2e;" horiz-adv-x="220" d="M110 -10 C143 -10 170 17 170 50 C170 83 143 110 110 110 C77 110 50 83 50 50 C50 17 77 -10 110 -10 L110 -10 Z " />
<glyph glyph-name="slash" unicode="&#x2f;" horiz-adv-x="425" d="M405 740 L345 740 L20 -140 L80 -140 L405 740 Z " />
<glyph glyph-name="zero" unicode="0" horiz-adv-x="590" d="M295 710 C159 710 50 577 50 350 C50 123 159 -10 295 -10 C431 -10 540 123 540 350 C540 577 431 710 295 710 L295 710 Z M295 40 C199 40 160 159 160 350 C160 541 199 660 295 660 C391 660 430 541 430 350 C430 159 391 40 295 40 L295 40 Z " />
<glyph glyph-name="one" unicode="1" horiz-adv-x="510" d="M310 60 L310 720 L61 635 L210 579 L210 60 L50 0 L470 0 L310 60 Z " />
<glyph glyph-name="two" unicode="2" horiz-adv-x="570" d="M443 90 L199 90 C377 265 493 395 493 535 C493 641 427 710 306 710 C184 710 94 640 61 505 L66 500 C116 587 186 625 263 625 C344 625 393 582 393 497 C393 397 326 275 30 0 L510 0 L510 179 L443 90 Z " />
<glyph glyph-name="three" unicode="3" horiz-adv-x="573" d="M371 422 C420 462 442 507 442 560 C442 642 388 710 274 710 C169 710 94 652 40 535 L45 530 C115 609 187 630 239 630 C310 630 342 590 342 533 C342 480 314 424 173 370 L188 330 C220 341 248 352 274 364 C361 338 403 276 403 209 C403 109 309 40 205 40 L100 118 L40 38 C78 9 129 -10 195 -10 C338 -10 493 80 493 234 C493 323 443 385 371 422 L371 422 Z " />
<glyph glyph-name="four" unicode="4" horiz-adv-x="610" d="M554 177 L570 257 L457 257 L457 720 L367 700 L20 210 L60 177 L367 177 L367 60 L247 0 L537 0 L457 60 L457 177 L554 177 Z M116 257 L367 613 L367 257 L116 257 Z " />
<glyph glyph-name="five" unicode="5" horiz-adv-x="570" d="M168 494 L192 610 L477 610 L496 700 L151 700 L92 412 C330 392 410 314 410 212 C410 97 309 40 203 40 L93 124 L30 40 C70 10 123 -10 193 -10 C332 -10 500 66 500 237 C500 375 392 474 168 494 L168 494 Z " />
<glyph glyph-name="six" unicode="6" horiz-adv-x="575" d="M198 376 L213 336 C333 371 425 329 425 203 C425 121 385 40 305 40 C237 40 155 97 155 285 C155 505 267 637 487 700 L472 740 C206 683 50 491 50 267 C50 77 161 -10 299 -10 C439 -10 530 80 530 202 C530 365 366 445 198 376 L198 376 Z " />
<glyph glyph-name="seven" unicode="7" horiz-adv-x="550" d="M30 700 L30 501 L112 610 L425 610 C320 437 204 237 189 0 L294 0 C294 237 368 427 530 700 L30 700 Z " />
<glyph glyph-name="eight" unicode="8" horiz-adv-x="600" d="M391 381 C462 413 515 464 515 543 C515 646 424 710 304 710 C187 710 85 646 85 525 C85 438 138 395 202 363 C122 321 60 260 60 169 C60 50 170 -10 297 -10 C427 -10 540 58 540 192 C540 297 469 345 391 381 L391 381 Z M301 660 C391 660 420 593 420 541 C420 490 392 439 330 407 C253 439 185 470 185 544 C185 591 210 660 301 660 L301 660 Z M303 40 C203 40 160 114 160 186 C160 243 184 295 256 340 C345 304 435 273 435 176 C435 116 396 40 303 40 L303 40 Z " />
<glyph glyph-name="nine" unicode="9" horiz-adv-x="575" d="M377 314 L362 354 C239 318 152 365 152 494 C152 580 200 660 280 660 C348 660 420 603 420 415 C420 195 308 63 88 0 L103 -40 C369 17 525 209 525 433 C525 623 423 710 288 710 C145 710 45 611 45 486 C45 316 210 245 377 314 L377 314 Z " />
<glyph glyph-name="colon" unicode="&#x3a;" horiz-adv-x="220" d="M110 370 C143 370 170 397 170 430 C170 463 143 490 110 490 C77 490 50 463 50 430 C50 397 77 370 110 370 L110 370 Z M110 -10 C143 -10 170 17 170 50 C170 83 143 110 110 110 C77 110 50 83 50 50 C50 17 77 -10 110 -10 L110 -10 Z " />
<glyph glyph-name="semicolon" unicode="&#x3b;" horiz-adv-x="230" d="M115 370 C148 370 175 397 175 430 C175 463 148 490 115 490 C82 490 55 463 55 430 C55 397 82 370 115 370 L115 370 Z M113 110 C74 110 50 80 50 50 C79 31 97 -1 97 -36 C97 -76 74 -120 20 -155 L22 -160 C102 -130 180 -66 180 25 C180 88 149 110 113 110 L113 110 Z " />
<glyph glyph-name="less" unicode="&#x3c;" horiz-adv-x="590" d="M550 595 L40 345 L40 295 L550 45 L550 95 L91 320 L550 545 L550 595 Z " />
<glyph glyph-name="equal" unicode="&#x3d;" horiz-adv-x="590" d="M40 475 L40 425 L550 425 L550 475 L40 475 Z M40 275 L40 225 L550 225 L550 275 L40 275 Z " />
<glyph glyph-name="greater" unicode="&#x3e;" horiz-adv-x="590" d="M40 595 L40 545 L499 320 L40 95 L40 45 L550 295 L550 345 L40 595 Z " />
<glyph glyph-name="question" unicode="&#x3f;" horiz-adv-x="503" d="M204 220 L244 220 C244 402 443 448 443 603 C443 712 345 760 234 760 C163 760 90 740 40 710 L103 626 L223 720 C293 711 343 660 343 587 C343 451 173 414 204 220 L204 220 Z M225 -10 C258 -10 285 17 285 50 C285 83 258 110 225 110 C192 110 165 83 165 50 C165 17 192 -10 225 -10 L225 -10 Z " />
<glyph glyph-name="at" unicode="&#x40;" horiz-adv-x="883" d="M517 630 C271 630 50 460 50 194 C50 -96 324 -185 569 -140 L572 -105 C328 -146 100 -55 100 198 C100 433 296 587 513 587 C691 587 806 483 806 318 C806 179 724 68 648 68 C618 68 593 86 600 147 L634 446 C335 476 237 279 237 154 C237 67 285 26 346 26 C432 26 497 108 531 202 L535 202 L527 137 C516 45 587 26 634 26 C763 26 853 166 853 321 C853 504 728 630 517 630 L517 630 Z M368 96 C335 96 324 125 324 171 C324 307 419 406 563 404 C527 211 433 96 368 96 L368 96 Z " />
<glyph glyph-name="A" unicode="A" horiz-adv-x="707" d="M642 56 L353 730 L347 730 L35 0 L244 0 L125 60 L211 265 L440 265 L524 60 L444 0 L717 0 L642 56 Z M232 315 L326 541 L419 315 L232 315 Z " />
<glyph glyph-name="B" unicode="B" horiz-adv-x="675" d="M469 364 C543 392 590 447 590 521 C590 633 491 700 332 700 L35 700 L115 640 L115 60 L35 0 L337 0 C516 0 630 76 630 196 C630 289 567 343 469 364 L469 364 Z M332 650 C441 650 485 591 485 515 C485 444 441 385 332 385 L215 385 L215 650 L332 650 Z M337 50 L215 50 L215 335 L337 335 C466 335 520 279 520 190 C520 106 466 50 337 50 L337 50 Z " />
<glyph glyph-name="C" unicode="C" horiz-adv-x="710" d="M665 178 C585 98 493 70 417 70 C257 70 155 194 155 370 C155 559 272 660 431 660 C459 660 490 657 521 648 L650 475 L650 710 L593 684 C540 702 482 710 433 710 C232 710 50 574 50 346 C50 125 221 -10 397 -10 C492 -10 607 29 670 173 L665 178 Z " />
<glyph glyph-name="D" unicode="D" horiz-adv-x="775" d="M377 700 L35 700 L115 640 L115 60 L35 0 L377 0 C556 0 725 138 725 365 C725 602 556 700 377 700 L377 700 Z M367 50 L215 50 L215 650 L367 650 C516 650 615 556 615 355 C615 164 516 50 367 50 L367 50 Z " />
<glyph glyph-name="E" unicode="E" horiz-adv-x="620" d="M478 50 L215 50 L215 335 L394 335 L462 245 L462 475 L394 385 L215 385 L215 650 L448 650 L545 521 L545 700 L35 700 L115 640 L115 60 L35 0 L575 0 L575 179 L478 50 Z " />
<glyph glyph-name="F" unicode="F" horiz-adv-x="565" d="M535 700 L35 700 L115 640 L115 60 L35 0 L335 0 L215 60 L215 305 L426 305 L502 205 L502 455 L426 355 L215 355 L215 650 L438 650 L535 521 L535 700 Z " />
<glyph glyph-name="G" unicode="G" horiz-adv-x="725" d="M404 330 L580 242 L580 77 C522 56 467 50 432 50 C269 50 160 185 160 372 C160 561 272 660 431 660 C464 660 499 656 536 644 L650 491 L650 710 L596 682 C541 701 482 710 430 710 C232 710 50 582 50 343 C50 117 213 -10 424 -10 C484 -10 552 0 613 28 L670 0 L670 330 L404 330 Z " />
<glyph glyph-name="H" unicode="H" horiz-adv-x="830" d="M715 640 L795 700 L535 700 L615 640 L615 395 L215 395 L215 640 L295 700 L35 700 L115 640 L115 60 L35 0 L295 0 L215 60 L215 345 L615 345 L615 60 L535 0 L795 0 L715 60 L715 640 Z " />
<glyph glyph-name="I" unicode="I" horiz-adv-x="340" d="M220 640 L300 700 L40 700 L120 640 L120 60 L40 0 L300 0 L220 60 L220 640 Z " />
<glyph glyph-name="J" unicode="J" horiz-adv-x="335" d="M305 700 L45 700 L125 640 L125 10 C125 -104 98 -167 45 -235 L50 -240 C159 -197 224 -123 225 0 L225 640 L305 700 Z " />
<glyph glyph-name="K" unicode="K" horiz-adv-x="720" d="M215 640 L295 700 L35 700 L115 640 L115 60 L35 0 L295 0 L215 60 L215 640 Z M380 385 L696 700 L449 700 L555 640 L274 361 C484 52 535 -25 745 -5 L745 0 C596 54 537 160 380 385 L380 385 Z " />
<glyph glyph-name="L" unicode="L" horiz-adv-x="605" d="M478 50 L215 50 L215 640 L295 700 L35 700 L115 640 L115 60 L35 0 L575 0 L575 179 L478 50 Z " />
<glyph glyph-name="M" unicode="M" horiz-adv-x="930" d="M815 60 L815 641 L894 700 L746 700 L469 275 L173 700 L35 700 L115 640 L115 60 L35 0 L300 0 L180 60 L180 525 L448 140 L715 545 L715 60 L635 0 L895 0 L815 60 Z " />
<glyph glyph-name="N" unicode="N" horiz-adv-x="810" d="M785 700 L520 700 L640 640 L640 180 L173 700 L35 700 L115 640 L115 60 L35 0 L300 0 L180 60 L180 545 L699 -30 L705 -30 L705 640 L785 700 Z " />
<glyph glyph-name="O" unicode="O" horiz-adv-x="800" d="M402 710 C219 710 50 574 50 347 C50 120 219 -10 398 -10 C581 -10 750 126 750 353 C750 580 581 710 402 710 L402 710 Z M420 40 C275 40 160 166 160 373 C160 549 243 660 380 660 C525 660 640 534 640 327 C640 151 557 40 420 40 L420 40 Z " />
<glyph glyph-name="P" unicode="P" horiz-adv-x="620" d="M327 290 C486 290 595 380 595 512 C595 644 486 700 327 700 L35 700 L115 640 L115 60 L35 0 L335 0 L215 60 L215 290 L327 290 Z M215 650 L317 650 C426 650 485 596 485 500 C485 404 426 340 317 340 L215 340 L215 650 Z " />
<glyph glyph-name="Q" unicode="Q" horiz-adv-x="800" d="M476 -2 C626 31 750 159 750 353 C750 580 581 710 402 710 C219 710 50 574 50 347 C50 136 195 9 359 -8 C447 -134 559 -193 716 -186 L716 -181 C613 -156 512 -86 476 -2 L476 -2 Z M160 373 C160 549 243 660 380 660 C525 660 640 534 640 327 C640 151 557 40 420 40 C275 40 160 166 160 373 L160 373 Z " />
<glyph glyph-name="R" unicode="R" horiz-adv-x="685" d="M407 342 C513 369 585 436 585 531 C585 648 476 700 327 700 L35 700 L115 640 L115 60 L35 0 L295 0 L215 60 L215 650 L317 650 C416 650 475 603 475 519 C475 448 433 379 269 370 C450 101 500 -25 710 -5 L710 0 C588 60 505 189 407 342 L407 342 Z " />
<glyph glyph-name="S" unicode="S" horiz-adv-x="580" d="M169 539 C169 586 192 660 308 660 C333 660 355 656 377 648 L494 491 L494 710 L441 683 C396 701 352 710 304 710 C166 710 74 636 74 527 C74 293 430 351 430 163 C430 111 410 40 290 40 C249 40 213 49 176 67 L70 210 L70 -9 L132 22 C180 3 233 -10 293 -10 C429 -10 530 61 530 182 C530 431 169 386 169 539 L169 539 Z " />
<glyph glyph-name="T" unicode="T" horiz-adv-x="680" d="M562 700 L118 700 L30 720 L30 521 L127 650 L290 650 L290 59 L211 0 L470 0 L390 60 L390 650 L553 650 L650 521 L650 720 L562 700 Z " />
<glyph glyph-name="U" unicode="U" horiz-adv-x="775" d="M765 700 L500 700 L620 640 L620 300 C620 129 544 45 410 45 C276 45 200 129 200 300 L200 640 L280 700 L20 700 L100 640 L100 290 C100 83 239 -10 404 -10 C577 -10 685 93 685 300 L685 640 L765 700 Z " />
<glyph glyph-name="V" unicode="V" horiz-adv-x="745" d="M745 700 L481 700 L601 640 L408 155 L203 640 L283 700 L10 700 L88 642 L386 -30 L392 -30 L665 640 L745 700 Z " />
<glyph glyph-name="W" unicode="W" horiz-adv-x="1060" d="M1060 700 L796 700 L916 640 L776 185 L598 640 L618 700 L465 700 L506 599 L354 185 L193 640 L273 700 L10 700 L81 646 L327 -30 L333 -30 L538 521 L762 -30 L768 -30 L980 640 L1060 700 Z " />
<glyph glyph-name="X" unicode="X" horiz-adv-x="708" d="M648 56 L419 363 L634 640 L714 700 L473 700 L561 640 L383 412 L213 640 L293 700 L20 700 L88 649 L312 347 L90 60 L10 0 L251 0 L163 60 L349 299 L526 60 L446 0 L723 0 L648 56 Z " />
<glyph glyph-name="Y" unicode="Y" horiz-adv-x="725" d="M645 640 L725 700 L456 700 L575 641 L575 640 L387 369 L205 640 L285 700 L10 700 L80 647 L314 308 L314 59 L235 0 L494 0 L414 60 L414 308 L645 640 Z " />
<glyph glyph-name="Z" unicode="Z" horiz-adv-x="675" d="M533 50 L175 50 L626 700 L164 700 L76 720 L76 521 L173 650 L476 650 L25 0 L630 0 L630 179 L533 50 Z " />
<glyph glyph-name="bracketleft" unicode="&#x5b;" horiz-adv-x="345" d="M310 805 L310 810 L100 810 L100 -100 L310 -100 L310 -95 L180 -44 L180 754 L310 805 Z " />
<glyph glyph-name="backslash" unicode="&#x5c;" horiz-adv-x="425" d="M20 740 L345 -140 L405 -140 L80 740 L20 740 Z " />
<glyph glyph-name="bracketright" unicode="&#x5d;" horiz-adv-x="345" d="M245 810 L35 810 L35 805 L165 754 L165 -44 L35 -95 L35 -100 L245 -100 L245 810 Z " />
<glyph glyph-name="asciicircum" unicode="&#x5e;" horiz-adv-x="562" d="M527 350 L281 740 L282 738 L35 350 L95 350 L281 645 L467 350 L527 350 Z " />
<glyph glyph-name="underscore" unicode="&#x5f;" horiz-adv-x="450" d="M20 0 L20 -50 L430 -50 L430 0 L20 0 Z " />
<glyph glyph-name="grave" unicode="&#x60;" horiz-adv-x="250" d="M245 550 L250 555 L120 710 L0 710 L245 550 Z " />
<glyph glyph-name="a" unicode="a" horiz-adv-x="535" d="M520 80 C496 62 480 57 461 57 C434 57 413 68 413 115 L413 341 C413 438 363 490 273 490 C201 490 119 457 71 370 L76 365 C127 401 176 415 223 415 C292 415 323 384 323 306 L323 222 L118 222 C79 201 50 160 50 107 C50 34 105 -10 185 -10 C247 -10 295 17 328 64 L333 64 C343 18 376 -10 426 -10 C468 -10 500 9 525 75 L520 80 Z M215 50 C180 50 145 67 145 121 C145 149 153 170 167 187 L323 187 L323 104 C284 67 249 50 215 50 L215 50 Z " />
<glyph glyph-name="b" unicode="b" horiz-adv-x="575" d="M320 490 C244 490 184 446 155 401 L150 406 L165 491 L165 780 L5 710 L75 658 L75 -10 L136 16 C175 -3 234 -10 271 -10 C403 -10 530 80 530 252 C530 411 422 490 320 490 L320 490 Z M278 30 C221 30 165 62 165 122 L165 366 C199 398 245 415 288 415 C376 415 430 345 430 230 C430 105 366 30 278 30 L278 30 Z " />
<glyph glyph-name="c" unicode="c" horiz-adv-x="485" d="M304 75 C192 75 135 160 135 271 C135 386 196 450 282 450 L392 356 L455 440 C415 470 362 490 292 490 C183 490 45 414 45 243 C45 95 148 -10 274 -10 C342 -10 420 20 455 125 L450 130 C392 86 344 75 304 75 L304 75 Z " />
<glyph glyph-name="d" unicode="d" horiz-adv-x="600" d="M500 90 L500 780 L340 710 L410 658 L410 475 C374 486 332 490 304 490 C172 490 45 400 45 228 C45 69 153 -10 255 -10 C331 -10 391 34 420 79 L425 79 L456 -10 L570 38 L500 90 Z M287 65 C199 65 145 135 145 250 C145 375 209 450 297 450 C354 450 410 418 410 358 L410 114 C376 82 330 65 287 65 L287 65 Z " />
<glyph glyph-name="e" unicode="e" horiz-adv-x="505" d="M304 75 C193 75 135 158 135 274 C135 285 135 295 136 305 L465 305 C456 436 374 490 280 490 C160 490 45 403 45 244 C45 94 148 -10 274 -10 C342 -10 420 20 455 125 L450 130 C392 86 344 75 304 75 L304 75 Z M266 453 C334 453 360 402 360 340 L142 340 C160 412 206 453 266 453 L266 453 Z " />
<glyph glyph-name="f" unicode="f" horiz-adv-x="330" d="M306 740 L395 663 L460 750 C425 768 379 780 326 780 C216 780 110 708 110 525 L110 495 L10 420 L110 420 L110 60 L30 0 L320 0 L200 60 L200 420 L329 420 L360 480 L200 480 L200 555 C200 664 235 734 306 740 L306 740 Z " />
<glyph glyph-name="g" unicode="g" horiz-adv-x="525" d="M515 485 L342 475 C316 485 287 490 258 490 C158 490 65 430 65 330 C65 276 92 234 133 206 C85 177 55 138 55 88 C55 48 74 12 109 -8 C50 -40 30 -82 30 -122 C30 -197 96 -250 241 -250 C422 -250 515 -166 515 -64 C515 -1 480 50 430 75 L171 75 C142 75 127 93 127 117 C127 140 140 166 167 188 C195 176 226 170 258 170 C358 170 451 230 451 330 C451 379 429 419 394 446 L515 405 L515 485 Z M266 207 C204 207 160 265 160 338 C160 401 192 453 250 453 C312 453 356 395 356 322 C356 259 324 207 266 207 L266 207 Z M340 -10 C395 -10 420 -40 420 -90 C420 -157 375 -210 261 -210 C168 -210 116 -166 116 -100 C116 -61 133 -32 151 -10 L340 -10 Z " />
<glyph glyph-name="h" unicode="h" horiz-adv-x="620" d="M520 60 L520 351 C520 458 448 490 379 490 C293 490 235 451 185 401 L180 406 L195 491 L195 780 L35 710 L105 658 L105 60 L25 0 L275 0 L195 60 L195 366 C248 407 299 415 331 415 C389 415 430 394 430 306 L430 60 L350 0 L600 0 L520 60 Z " />
<glyph glyph-name="i" unicode="i" horiz-adv-x="295" d="M145 590 C178 590 205 617 205 650 C205 683 178 710 145 710 C112 710 85 683 85 650 C85 617 112 590 145 590 L145 590 Z M195 60 L195 490 L35 420 L105 368 L105 60 L25 0 L275 0 L195 60 Z " />
<glyph glyph-name="j" unicode="j" horiz-adv-x="280" d="M145 590 C178 590 205 617 205 650 C205 683 178 710 145 710 C112 710 85 683 85 650 C85 617 112 590 145 590 L145 590 Z M105 368 L105 0 C105 -114 88 -187 35 -255 L40 -260 C149 -207 194 -133 195 -10 L195 490 L35 420 L105 368 Z " />
<glyph glyph-name="k" unicode="k" horiz-adv-x="580" d="M195 780 L35 710 L105 658 L105 60 L25 0 L275 0 L195 60 L195 780 Z M334 275 L546 480 L305 480 L416 420 L240 254 C377 27 423 -25 580 -5 L580 0 C473 56 427 124 334 275 L334 275 Z " />
<glyph glyph-name="l" unicode="l" horiz-adv-x="295" d="M195 60 L195 780 L35 710 L105 658 L105 60 L25 0 L275 0 L195 60 Z " />
<glyph glyph-name="m" unicode="m" horiz-adv-x="905" d="M805 60 L805 351 C805 458 743 490 674 490 C595 490 536 450 493 405 C476 469 425 490 369 490 C288 490 228 448 185 401 L180 406 L195 490 L35 420 L105 368 L105 60 L25 0 L275 0 L195 60 L195 366 C248 407 289 415 321 415 C379 415 410 394 410 306 L410 60 L330 0 L580 0 L500 60 L500 366 C553 407 594 415 626 415 C684 415 715 394 715 306 L715 60 L635 0 L885 0 L805 60 Z " />
<glyph glyph-name="n" unicode="n" horiz-adv-x="620" d="M520 60 L520 351 C520 458 448 490 379 490 C293 490 235 451 185 401 L180 406 L195 490 L35 420 L105 368 L105 60 L25 0 L275 0 L195 60 L195 366 C248 407 299 415 331 415 C389 415 430 394 430 306 L430 60 L350 0 L600 0 L520 60 Z " />
<glyph glyph-name="o" unicode="o" horiz-adv-x="580" d="M290 -10 C424 -10 535 85 535 240 C535 395 424 490 290 490 C156 490 45 395 45 240 C45 85 156 -10 290 -10 L290 -10 Z M306 30 C221 30 150 127 150 262 C150 361 183 450 274 450 C359 450 428 353 428 218 C428 119 397 30 306 30 L306 30 Z " />
<glyph glyph-name="p" unicode="p" horiz-adv-x="590" d="M286 -10 C418 -10 545 80 545 252 C545 411 437 490 335 490 C259 490 199 446 170 401 L165 406 L180 490 L20 420 L90 368 L90 -180 L10 -240 L299 -240 L180 -181 L180 5 C216 -6 258 -10 286 -10 L286 -10 Z M303 415 C391 415 445 345 445 230 C445 105 381 30 293 30 C236 30 180 62 180 122 L180 366 C214 398 260 415 303 415 L303 415 Z " />
<glyph glyph-name="q" unicode="q" horiz-adv-x="590" d="M410 -260 L570 -190 L500 -138 L500 490 L439 464 C400 483 341 490 304 490 C172 490 45 400 45 228 C45 69 153 -10 255 -10 C331 -10 391 34 420 79 L425 74 L410 -11 L410 -260 Z M287 65 C199 65 145 135 145 250 C145 375 209 450 297 450 C354 450 410 418 410 358 L410 114 C376 82 330 65 287 65 L287 65 Z " />
<glyph glyph-name="r" unicode="r" horiz-adv-x="390" d="M345 382 L380 480 C290 500 217 447 181 381 L176 383 L195 490 L35 420 L105 368 L105 60 L25 0 L315 0 L195 60 L195 356 C225 385 279 402 345 382 L345 382 Z " />
<glyph glyph-name="s" unicode="s" horiz-adv-x="460" d="M145 376 C145 413 173 450 239 450 C259 450 279 446 297 440 L385 323 L385 490 L333 470 C303 482 270 490 235 490 C152 490 55 448 55 352 C55 197 309 230 309 106 C309 64 280 30 222 30 C194 30 164 38 134 53 L55 157 L55 -10 L117 14 C150 0 189 -10 228 -10 C316 -10 405 43 405 137 C405 298 145 264 145 376 L145 376 Z " />
<glyph glyph-name="t" unicode="t" horiz-adv-x="439" d="M289 75 C215 75 204 129 204 175 L204 420 L383 420 L414 480 L204 480 L204 569 L5 420 L114 420 L114 135 C114 58 168 -10 256 -10 C320 -10 380 25 405 115 L400 120 C359 88 325 75 289 75 L289 75 Z " />
<glyph glyph-name="u" unicode="u" horiz-adv-x="585" d="M485 90 L485 490 L325 420 L395 368 L395 114 C342 73 291 65 259 65 C211 65 170 86 170 174 L170 490 L10 420 L80 368 L80 129 C80 22 152 -10 211 -10 C297 -10 375 49 405 79 L410 79 L441 -10 L555 38 L485 90 Z " />
<glyph glyph-name="v" unicode="v" horiz-adv-x="575" d="M575 480 L347 480 L435 420 L317 135 L177 420 L257 480 L0 480 L66 431 L298 -30 L304 -30 L495 420 L575 480 Z " />
<glyph glyph-name="w" unicode="w" horiz-adv-x="850" d="M850 480 L622 480 L710 420 L612 150 L488 420 L515 480 L356 480 L406 372 L299 140 L174 420 L254 480 L0 480 L62 434 L271 -30 L277 -30 L436 308 L593 -30 L599 -30 L770 420 L850 480 Z " />
<glyph glyph-name="x" unicode="x" horiz-adv-x="525" d="M467 51 L310 251 L444 420 L524 480 L291 480 L379 420 L278 292 L178 420 L258 480 L-10 480 L60 427 L211 234 L70 60 L-10 0 L225 0 L137 60 L244 193 L348 60 L268 0 L535 0 L467 51 Z " />
<glyph glyph-name="y" unicode="y" horiz-adv-x="570" d="M490 420 L570 480 L342 480 L430 420 L316 155 L177 420 L257 480 L0 480 L69 429 L268 55 L127 -240 L370 -240 L233 -160 L490 420 Z " />
<glyph glyph-name="z" unicode="z" horiz-adv-x="515" d="M160 45 L490 480 L144 480 L56 500 L56 306 L153 435 L346 435 L15 0 L485 0 L485 174 L388 45 L160 45 Z " />
<glyph glyph-name="braceleft" unicode="&#x7b;" horiz-adv-x="296" d="M261 815 L261 820 C136 810 81 745 81 654 C81 593 106 526 106 456 C106 417 98 362 50 352 L50 347 C98 337 106 280 106 241 C106 171 81 104 81 43 C81 -48 136 -113 261 -123 L261 -118 C191 -100 161 -39 161 34 C161 101 186 181 186 249 C186 303 170 337 132 350 C171 362 186 396 186 448 C186 515 161 596 161 663 C161 736 191 797 261 815 L261 815 Z " />
<glyph glyph-name="bar" unicode="&#x7c;" horiz-adv-x="280" d="M175 810 L105 810 L105 -200 L175 -200 L175 810 Z " />
<glyph glyph-name="braceright" unicode="&#x7d;" horiz-adv-x="296" d="M35 815 C105 797 135 736 135 663 C135 596 110 515 110 448 C110 396 125 362 164 350 C126 337 110 303 110 249 C110 181 135 101 135 34 C135 -39 105 -100 35 -118 L35 -123 C160 -113 215 -48 215 43 C215 104 190 171 190 241 C190 280 198 337 246 347 L246 352 C198 362 190 417 190 456 C190 526 215 593 215 654 C215 745 160 810 35 820 L35 815 Z " />
<glyph glyph-name="asciitilde" unicode="&#x7e;" horiz-adv-x="590" d="M431 405 C346 405 221 363 141 363 C106 363 67 371 45 420 L40 420 C45 337 88 308 159 308 C244 308 369 350 449 350 C484 350 523 342 545 293 L550 293 C545 376 502 405 431 405 L431 405 Z " />
<glyph glyph-name="exclamdown" unicode="&#xa1;" horiz-adv-x="340" d="M170 490 C137 490 110 463 110 430 C110 397 137 370 170 370 C203 370 230 397 230 430 C230 463 203 490 170 490 L170 490 Z M220 -270 L190 260 L150 260 L120 -270 L220 -270 Z " />
<glyph glyph-name="cent" unicode="&#xa2;" horiz-adv-x="485" d="M304 75 C295 75 286 76 277 77 L308 428 L392 356 L455 440 C419 467 373 486 313 489 L321 577 L281 580 L273 489 C168 481 45 404 45 243 C45 113 125 16 230 -6 L222 -97 L262 -101 L270 -10 L274 -10 C342 -10 420 20 455 125 L450 130 C392 86 344 75 304 75 L304 75 Z M135 271 C135 380 190 444 270 450 L238 87 C170 114 135 184 135 271 L135 271 Z " />
<glyph glyph-name="sterling" unicode="&#xa3;" horiz-adv-x="653" d="M603 110 C578 86 542 68 502 68 C418 68 355 110 281 110 C242 110 214 101 184 83 C239 165 256 229 256 289 C256 303 255 317 254 330 L475 330 L495 380 L245 380 C234 428 220 472 220 517 C220 610 276 660 356 660 C381 660 403 656 425 648 L542 491 L542 710 L489 683 C444 701 400 710 352 710 C236 710 120 652 120 524 C120 473 139 427 156 380 L55 380 L35 330 L173 330 C181 304 186 278 186 249 C186 178 154 124 71 20 L111 -10 C146 27 184 39 222 39 C299 39 378 -10 438 -10 C516 -10 554 15 608 105 L603 110 Z " />
<glyph glyph-name="currency" unicode="&#xa4;" horiz-adv-x="642" d="M596 265 C596 334 571 396 529 444 L597 512 L568 541 L500 473 C452 515 390 540 321 540 C252 540 190 515 142 473 L74 541 L45 512 L113 444 C71 396 46 334 46 265 C46 196 71 134 113 86 L45 18 L74 -11 L142 57 C190 15 252 -10 321 -10 C390 -10 452 15 500 57 L568 -11 L597 18 L529 86 C571 134 596 196 596 265 L596 265 Z M321 30 C194 30 91 138 91 265 C91 392 194 500 321 500 C448 500 551 392 551 265 C551 138 448 30 321 30 L321 30 Z " />
<glyph glyph-name="yen" unicode="&#xa5;" horiz-adv-x="725" d="M725 700 L456 700 L575 641 L575 640 L387 369 L205 640 L285 700 L10 700 L80 647 L244 410 L110 410 L110 360 L278 360 L314 308 L314 270 L110 270 L110 220 L314 220 L314 59 L235 0 L494 0 L414 60 L414 220 L620 220 L620 270 L414 270 L414 308 L450 360 L620 360 L620 410 L485 410 L645 640 L725 700 Z " />
<glyph glyph-name="brokenbar" unicode="&#xa6;" horiz-adv-x="280" d="M175 810 L105 810 L105 400 L175 400 L175 810 Z M175 210 L105 210 L105 -200 L175 -200 L175 210 Z " />
<glyph glyph-name="section" unicode="&#xa7;" horiz-adv-x="596" d="M435 112 C499 148 546 200 546 282 C546 511 175 449 175 610 C175 656 204 730 318 730 C344 730 366 726 388 719 L505 561 L505 729 C439 763 381 780 314 780 C176 780 85 708 85 601 C85 521 135 479 199 448 C125 410 70 351 70 268 C70 53 441 127 441 -67 C441 -119 415 -190 297 -190 C255 -190 219 -181 182 -163 L76 -20 L76 -179 C141 -213 212 -240 298 -240 C435 -240 536 -171 536 -47 C536 34 493 80 435 112 L435 112 Z M140 287 C140 330 169 392 247 428 C353 387 471 361 471 256 C471 212 450 168 385 135 C273 180 140 195 140 287 L140 287 Z " />
<glyph glyph-name="dieresis" unicode="&#xa8;" horiz-adv-x="304" d="M52 566 C81 566 104 590 104 618 C104 647 81 670 52 670 C24 670 0 647 0 618 C0 590 24 566 52 566 L52 566 Z M253 566 C282 566 305 590 305 618 C305 647 282 670 253 670 C225 670 201 647 201 618 C201 590 225 566 253 566 L253 566 Z " />
<glyph glyph-name="copyright" unicode="&#xa9;" horiz-adv-x="820" d="M410 710 C211 710 50 549 50 350 C50 151 211 -10 410 -10 C609 -10 770 151 770 350 C770 549 609 710 410 710 L410 710 Z M410 22 C231 22 87 171 87 350 C87 529 231 678 410 678 C589 678 733 529 733 350 C733 171 589 22 410 22 L410 22 Z M425 200 C339 200 284 266 284 360 C284 462 347 516 432 516 C447 516 464 514 481 510 L549 417 L549 478 C549 477 550 477 550 477 L550 543 L518 529 C490 538 460 543 433 543 C325 543 228 470 228 348 C228 229 320 157 414 157 C465 157 527 178 560 255 L558 257 C515 215 465 200 425 200 L425 200 Z " />
<glyph glyph-name="guillemotleft" unicode="&#xab;" horiz-adv-x="460" d="M250 460 L245 465 L25 260 L245 55 L250 60 L130 260 L250 460 Z M440 460 L435 465 L215 260 L435 55 L440 60 L320 260 L440 460 Z " />
<glyph glyph-name="logicalnot" unicode="&#xac;" horiz-adv-x="590" d="M40 375 L40 325 L500 325 L500 213 L550 213 L550 375 L40 375 Z " />
<glyph glyph-name="registered" unicode="&#xae;" horiz-adv-x="820" d="M410 710 C211 710 50 549 50 350 C50 151 211 -10 410 -10 C609 -10 770 151 770 350 C770 549 609 710 410 710 L410 710 Z M410 22 C231 22 87 171 87 350 C87 529 231 678 410 678 C589 678 733 529 733 350 C733 171 589 22 410 22 L410 22 Z M448 346 C505 360 544 396 544 447 C544 510 485 537 405 537 L249 537 L292 505 L292 194 L249 162 L388 162 L345 194 L345 511 L400 511 C453 511 485 485 485 440 C485 402 462 365 374 360 C471 216 498 149 611 159 L611 162 C546 194 501 263 448 346 L448 346 Z " />
<glyph glyph-name="macron" unicode="&#xaf;" horiz-adv-x="346" d="M0 651 L0 586 L346 586 L346 651 L0 651 Z " />
<glyph glyph-name="degree" unicode="&#xb0;" horiz-adv-x="244" d="M122 566 C188 566 244 621 244 686 C244 752 188 808 122 808 C56 808 0 752 0 686 C0 621 56 566 122 566 L122 566 Z M122 604 C75 604 40 640 40 686 C40 734 75 770 122 770 C169 770 204 734 204 686 C204 640 169 604 122 604 L122 604 Z " />
<glyph glyph-name="plusminus" unicode="&#xb1;" horiz-adv-x="590" d="M320 415 L320 645 L270 645 L270 415 L40 415 L40 365 L270 365 L270 135 L320 135 L320 365 L550 365 L550 415 L320 415 Z M40 0 L550 0 L550 50 L40 50 L40 0 Z " />
<glyph glyph-name="acute" unicode="&#xb4;" horiz-adv-x="250" d="M5 550 L250 710 L130 710 L0 555 L5 550 Z " />
<glyph glyph-name="paragraph" unicode="&#xb6;" horiz-adv-x="640" d="M620 700 L283 700 C144 700 25 634 25 487 C25 340 144 260 283 260 L300 260 L300 -90 L180 -150 L360 -150 L360 650 L480 650 L480 -150 L540 -150 L540 640 L620 700 Z " />
<glyph glyph-name="periodcentered" unicode="&#xb7;" horiz-adv-x="220" d="M110 210 C143 210 170 237 170 270 C170 303 143 330 110 330 C77 330 50 303 50 270 C50 237 77 210 110 210 L110 210 Z " />
<glyph glyph-name="cedilla" unicode="&#xb8;" horiz-adv-x="600" d="" />
<glyph glyph-name="guillemotright" unicode="&#xbb;" horiz-adv-x="460" d="M25 465 L20 460 L140 260 L20 60 L25 55 L245 260 L25 465 Z M215 465 L210 460 L330 260 L210 60 L215 55 L435 260 L215 465 Z " />
<glyph glyph-name="onequarter" unicode="&#xbc;" horiz-adv-x="992" d="M617 740 L302 -60 L353 -60 L668 740 L617 740 Z M50 270 L313 270 L213 308 L213 720 L57 667 L150 632 L150 308 L50 270 Z M941 111 L951 161 L881 161 L881 450 L824 438 L608 131 L633 111 L824 111 L824 38 L749 0 L931 0 L881 38 L881 111 L941 111 Z M668 161 L824 383 L824 161 L668 161 Z " />
<glyph glyph-name="onehalf" unicode="&#xbd;" horiz-adv-x="958" d="M617 740 L302 -60 L353 -60 L668 740 L617 740 Z M50 270 L313 270 L213 308 L213 720 L57 667 L150 632 L150 308 L50 270 Z M876 56 L723 56 C835 166 907 247 907 334 C907 401 866 444 790 444 C714 444 658 400 637 316 L640 313 C672 367 715 391 763 391 C814 391 845 364 845 311 C845 248 803 172 618 0 L918 0 L918 112 L876 56 Z " />
<glyph glyph-name="threequarters" unicode="&#xbe;" horiz-adv-x="1051" d="M637 740 L322 -60 L373 -60 L688 740 L637 740 Z M247 530 C277 555 291 583 291 616 C291 667 258 710 186 710 C121 710 74 674 40 600 L43 597 C87 647 132 660 164 660 C209 660 229 635 229 599 C229 566 211 531 123 497 L133 472 C152 479 170 486 186 493 C240 477 267 439 267 397 C267 334 208 291 143 291 L78 340 L40 290 C64 272 96 260 137 260 C226 260 323 316 323 412 C323 468 292 507 247 530 L247 530 Z M961 111 L971 161 L901 161 L901 450 L844 438 L628 131 L653 111 L844 111 L844 38 L769 0 L951 0 L901 38 L901 111 L961 111 Z M688 161 L844 383 L844 161 L688 161 Z " />
<glyph glyph-name="questiondown" unicode="&#xbf;" horiz-adv-x="428" d="M253 490 C220 490 193 463 193 430 C193 397 220 370 253 370 C286 370 313 397 313 430 C313 463 286 490 253 490 L253 490 Z M274 260 L234 260 C234 78 35 32 35 -123 C35 -232 133 -280 244 -280 C315 -280 388 -260 438 -230 L375 -146 L255 -240 C185 -231 135 -180 135 -107 C135 29 305 66 274 260 L274 260 Z " />
<glyph glyph-name="Agrave" unicode="&#xc0;" horiz-adv-x="707" d="M387 775 L257 930 L137 930 L382 770 L387 775 Z M642 56 L353 730 L347 730 L35 0 L244 0 L125 60 L211 265 L440 265 L524 60 L444 0 L717 0 L642 56 Z M232 315 L326 541 L419 315 L232 315 Z " />
<glyph glyph-name="Aacute" unicode="&#xc1;" horiz-adv-x="707" d="M559 930 L439 930 L309 775 L314 770 L559 930 Z M642 56 L353 730 L347 730 L35 0 L244 0 L125 60 L211 265 L440 265 L524 60 L444 0 L717 0 L642 56 Z M232 315 L326 541 L419 315 L232 315 Z " />
<glyph glyph-name="Acircumflex" unicode="&#xc2;" horiz-adv-x="707" d="M348 860 L508 770 L513 775 L348 955 L183 775 L188 770 L348 860 Z M642 56 L353 730 L347 730 L35 0 L244 0 L125 60 L211 265 L440 265 L524 60 L444 0 L717 0 L642 56 Z M232 315 L326 541 L419 315 L232 315 Z " />
<glyph glyph-name="Atilde" unicode="&#xc3;" horiz-adv-x="707" d="M276 813 C339 813 381 870 436 870 C461 870 494 858 513 813 L518 813 C515 884 483 940 420 940 C357 940 315 883 260 883 C235 883 202 895 183 940 L178 940 C181 869 213 813 276 813 L276 813 Z M642 56 L353 730 L347 730 L35 0 L244 0 L125 60 L211 265 L440 265 L524 60 L444 0 L717 0 L642 56 Z M232 315 L326 541 L419 315 L232 315 Z " />
<glyph glyph-name="Adieresis" unicode="&#xc4;" horiz-adv-x="707" d="M248 786 C277 786 300 810 300 838 C300 867 277 890 248 890 C220 890 196 867 196 838 C196 810 220 786 248 786 L248 786 Z M449 786 C478 786 501 810 501 838 C501 867 478 890 449 890 C421 890 397 867 397 838 C397 810 421 786 449 786 L449 786 Z M642 56 L353 730 L347 730 L35 0 L244 0 L125 60 L211 265 L440 265 L524 60 L444 0 L717 0 L642 56 Z M232 315 L326 541 L419 315 L232 315 Z " />
<glyph glyph-name="Aring" unicode="&#xc5;" horiz-adv-x="707" d="M642 56 L368 696 C425 705 470 756 470 814 C470 880 414 936 348 936 C282 936 226 880 226 814 C226 754 273 703 332 695 L35 0 L244 0 L125 60 L211 265 L440 265 L524 60 L444 0 L717 0 L642 56 Z M266 814 C266 862 301 898 348 898 C395 898 430 862 430 814 C430 768 395 732 348 732 C301 732 266 768 266 814 L266 814 Z M232 315 L326 541 L419 315 L232 315 Z " />
<glyph glyph-name="AE" unicode="&#xc6;" horiz-adv-x="977" d="M835 50 L572 50 L572 335 L751 335 L819 245 L819 475 L751 385 L572 385 L572 650 L805 650 L902 521 L902 700 L352 700 L444 654 L35 0 L266 0 L147 60 L273 265 L472 265 L472 0 L932 0 L932 179 L835 50 Z M304 315 L472 589 L472 315 L304 315 Z " />
<glyph glyph-name="Ccedilla" unicode="&#xc7;" horiz-adv-x="710" d="M670 173 L665 178 C585 98 493 70 417 70 C257 70 155 194 155 370 C155 559 272 660 431 660 C459 660 490 657 521 648 L650 475 L650 710 L593 684 C540 702 482 710 433 710 C232 710 50 574 50 346 C50 128 217 -7 391 -10 L363 -80 C417 -103 429 -123 429 -147 C429 -178 409 -190 382 -190 C354 -190 327 -178 304 -162 L299 -167 C311 -206 340 -250 405 -250 C458 -250 504 -220 504 -165 C504 -123 478 -90 406 -67 L430 -8 C517 0 614 45 670 173 L670 173 Z " />
<glyph glyph-name="Egrave" unicode="&#xc8;" horiz-adv-x="620" d="M349 775 L219 930 L99 930 L344 770 L349 775 Z M478 50 L215 50 L215 335 L394 335 L462 245 L462 475 L394 385 L215 385 L215 650 L448 650 L545 521 L545 700 L35 700 L115 640 L115 60 L35 0 L575 0 L575 179 L478 50 Z " />
<glyph glyph-name="Eacute" unicode="&#xc9;" horiz-adv-x="620" d="M521 930 L401 930 L271 775 L276 770 L521 930 Z M478 50 L215 50 L215 335 L394 335 L462 245 L462 475 L394 385 L215 385 L215 650 L448 650 L545 521 L545 700 L35 700 L115 640 L115 60 L35 0 L575 0 L575 179 L478 50 Z " />
<glyph glyph-name="Ecircumflex" unicode="&#xca;" horiz-adv-x="620" d="M310 860 L470 770 L475 775 L310 955 L145 775 L150 770 L310 860 Z M478 50 L215 50 L215 335 L394 335 L462 245 L462 475 L394 385 L215 385 L215 650 L448 650 L545 521 L545 700 L35 700 L115 640 L115 60 L35 0 L575 0 L575 179 L478 50 Z " />
<glyph glyph-name="Edieresis" unicode="&#xcb;" horiz-adv-x="620" d="M210 786 C239 786 262 810 262 838 C262 867 239 890 210 890 C182 890 158 867 158 838 C158 810 182 786 210 786 L210 786 Z M411 786 C440 786 463 810 463 838 C463 867 440 890 411 890 C383 890 359 867 359 838 C359 810 383 786 411 786 L411 786 Z M478 50 L215 50 L215 335 L394 335 L462 245 L462 475 L394 385 L215 385 L215 650 L448 650 L545 521 L545 700 L35 700 L115 640 L115 60 L35 0 L575 0 L575 179 L478 50 Z " />
<glyph glyph-name="Igrave" unicode="&#xcc;" horiz-adv-x="340" d="M209 775 L79 930 L-41 930 L204 770 L209 775 Z M220 640 L300 700 L40 700 L120 640 L120 60 L40 0 L300 0 L220 60 L220 640 Z " />
<glyph glyph-name="Iacute" unicode="&#xcd;" horiz-adv-x="340" d="M381 930 L261 930 L131 775 L136 770 L381 930 Z M300 700 L40 700 L120 640 L120 60 L40 0 L300 0 L220 60 L220 640 L300 700 Z " />
<glyph glyph-name="Icircumflex" unicode="&#xce;" horiz-adv-x="340" d="M170 955 L5 775 L10 770 L170 860 L330 770 L335 775 L170 955 Z M300 700 L40 700 L120 640 L120 60 L40 0 L300 0 L220 60 L220 640 L300 700 Z " />
<glyph glyph-name="Idieresis" unicode="&#xcf;" horiz-adv-x="340" d="M122 838 C122 867 99 890 70 890 C42 890 18 867 18 838 C18 810 42 786 70 786 C99 786 122 810 122 838 L122 838 Z M271 890 C243 890 219 867 219 838 C219 810 243 786 271 786 C300 786 323 810 323 838 C323 867 300 890 271 890 L271 890 Z M300 700 L40 700 L120 640 L120 60 L40 0 L300 0 L220 60 L220 640 L300 700 Z " />
<glyph glyph-name="Eth" unicode="&#xd0;" horiz-adv-x="775" d="M377 700 L35 700 L115 640 L115 395 L20 395 L20 350 L115 350 L115 60 L35 0 L377 0 C556 0 725 138 725 365 C725 602 556 700 377 700 L377 700 Z M367 50 L215 50 L215 350 L360 350 L360 395 L215 395 L215 650 L367 650 C516 650 615 556 615 355 C615 164 516 50 367 50 L367 50 Z " />
<glyph glyph-name="Ntilde" unicode="&#xd1;" horiz-adv-x="810" d="M328 773 C391 773 453 830 508 830 C533 830 566 818 585 773 L590 773 C587 844 555 900 492 900 C429 900 367 843 312 843 C287 843 254 855 235 900 L230 900 C233 829 265 773 328 773 L328 773 Z M785 700 L520 700 L640 640 L640 180 L173 700 L35 700 L115 640 L115 60 L35 0 L300 0 L180 60 L180 545 L699 -30 L705 -30 L705 640 L785 700 Z " />
<glyph glyph-name="Ograve" unicode="&#xd2;" horiz-adv-x="800" d="M434 770 L439 775 L309 930 L189 930 L434 770 Z M402 710 C219 710 50 574 50 347 C50 120 219 -10 398 -10 C581 -10 750 126 750 353 C750 580 581 710 402 710 L402 710 Z M420 40 C275 40 160 166 160 373 C160 549 243 660 380 660 C525 660 640 534 640 327 C640 151 557 40 420 40 L420 40 Z " />
<glyph glyph-name="Oacute" unicode="&#xd3;" horiz-adv-x="800" d="M366 770 L611 930 L491 930 L361 775 L366 770 Z M402 710 C219 710 50 574 50 347 C50 120 219 -10 398 -10 C581 -10 750 126 750 353 C750 580 581 710 402 710 L402 710 Z M420 40 C275 40 160 166 160 373 C160 549 243 660 380 660 C525 660 640 534 640 327 C640 151 557 40 420 40 L420 40 Z " />
<glyph glyph-name="Ocircumflex" unicode="&#xd4;" horiz-adv-x="800" d="M400 860 L560 770 L565 775 L400 955 L235 775 L240 770 L400 860 Z M402 710 C219 710 50 574 50 347 C50 120 219 -10 398 -10 C581 -10 750 126 750 353 C750 580 581 710 402 710 L402 710 Z M420 40 C275 40 160 166 160 373 C160 549 243 660 380 660 C525 660 640 534 640 327 C640 151 557 40 420 40 L420 40 Z " />
<glyph glyph-name="Otilde" unicode="&#xd5;" horiz-adv-x="800" d="M482 900 C419 900 357 843 302 843 C277 843 244 855 225 900 L220 900 C223 829 255 773 318 773 C381 773 443 830 498 830 C523 830 556 818 575 773 L580 773 C577 844 545 900 482 900 L482 900 Z M402 710 C219 710 50 574 50 347 C50 120 219 -10 398 -10 C581 -10 750 126 750 353 C750 580 581 710 402 710 L402 710 Z M420 40 C275 40 160 166 160 373 C160 549 243 660 380 660 C525 660 640 534 640 327 C640 151 557 40 420 40 L420 40 Z " />
<glyph glyph-name="Odieresis" unicode="&#xd6;" horiz-adv-x="800" d="M300 786 C329 786 352 810 352 838 C352 867 329 890 300 890 C272 890 248 867 248 838 C248 810 272 786 300 786 L300 786 Z M501 786 C530 786 553 810 553 838 C553 867 530 890 501 890 C473 890 449 867 449 838 C449 810 473 786 501 786 L501 786 Z M402 710 C219 710 50 574 50 347 C50 120 219 -10 398 -10 C581 -10 750 126 750 353 C750 580 581 710 402 710 L402 710 Z M420 40 C275 40 160 166 160 373 C160 549 243 660 380 660 C525 660 640 534 640 327 C640 151 557 40 420 40 L420 40 Z " />
<glyph glyph-name="multiply" unicode="&#xd7;" horiz-adv-x="546" d="M506 548 L471 583 L273 385 L75 583 L40 548 L238 350 L40 152 L75 117 L273 315 L471 117 L506 152 L308 350 L506 548 Z " />
<glyph glyph-name="Oslash" unicode="&#xd8;" horiz-adv-x="800" d="M619 637 L653 686 L621 710 L586 660 C531 693 467 710 402 710 C219 710 50 574 50 347 C50 225 99 131 172 70 L127 5 L160 -18 L205 46 C262 9 329 -10 398 -10 C581 -10 750 126 750 353 C750 480 697 577 619 637 L619 637 Z M160 373 C160 549 243 660 380 660 C441 660 497 638 541 596 L224 144 C184 200 160 278 160 373 L160 373 Z M420 40 C355 40 296 65 251 112 L569 566 C613 509 640 427 640 327 C640 151 557 40 420 40 L420 40 Z " />
<glyph glyph-name="Ugrave" unicode="&#xd9;" horiz-adv-x="775" d="M439 775 L309 930 L189 930 L434 770 L439 775 Z M765 700 L500 700 L620 640 L620 300 C620 129 544 45 410 45 C276 45 200 129 200 300 L200 640 L280 700 L20 700 L100 640 L100 290 C100 83 239 -10 404 -10 C577 -10 685 93 685 300 L685 640 L765 700 Z " />
<glyph glyph-name="Uacute" unicode="&#xda;" horiz-adv-x="775" d="M611 930 L491 930 L361 775 L366 770 L611 930 Z M765 700 L500 700 L620 640 L620 300 C620 129 544 45 410 45 C276 45 200 129 200 300 L200 640 L280 700 L20 700 L100 640 L100 290 C100 83 239 -10 404 -10 C577 -10 685 93 685 300 L685 640 L765 700 Z " />
<glyph glyph-name="Ucircumflex" unicode="&#xdb;" horiz-adv-x="775" d="M400 860 L560 770 L565 775 L400 955 L235 775 L240 770 L400 860 Z M765 700 L500 700 L620 640 L620 300 C620 129 544 45 410 45 C276 45 200 129 200 300 L200 640 L280 700 L20 700 L100 640 L100 290 C100 83 239 -10 404 -10 C577 -10 685 93 685 300 L685 640 L765 700 Z " />
<glyph glyph-name="Udieresis" unicode="&#xdc;" horiz-adv-x="775" d="M300 786 C329 786 352 810 352 838 C352 867 329 890 300 890 C272 890 248 867 248 838 C248 810 272 786 300 786 L300 786 Z M501 786 C530 786 553 810 553 838 C553 867 530 890 501 890 C473 890 449 867 449 838 C449 810 473 786 501 786 L501 786 Z M765 700 L500 700 L620 640 L620 300 C620 129 544 45 410 45 C276 45 200 129 200 300 L200 640 L280 700 L20 700 L100 640 L100 290 C100 83 239 -10 404 -10 C577 -10 685 93 685 300 L685 640 L765 700 Z " />
<glyph glyph-name="Yacute" unicode="&#xdd;" horiz-adv-x="725" d="M587 930 L467 930 L337 775 L342 770 L587 930 Z M645 640 L725 700 L456 700 L575 641 L575 640 L387 369 L205 640 L285 700 L10 700 L80 647 L314 308 L314 59 L235 0 L494 0 L414 60 L414 308 L645 640 Z " />
<glyph glyph-name="Thorn" unicode="&#xde;" horiz-adv-x="690" d="M352 590 L215 590 L215 640 L295 700 L35 700 L115 640 L115 60 L35 0 L295 0 L215 60 L215 120 L352 120 C521 120 640 210 640 362 C640 514 521 590 352 590 L352 590 Z M342 170 L215 170 L215 540 L342 540 C461 540 530 471 530 355 C530 239 461 170 342 170 L342 170 Z " />
<glyph glyph-name="germandbls" unicode="&#xdf;" horiz-adv-x="630" d="M404 445 C404 488 418 549 511 605 C502 717 442 780 341 780 C232 780 110 708 110 525 L110 495 L10 420 L110 420 L110 60 L30 0 L280 0 L200 60 L200 555 C200 664 250 740 324 740 C402 740 421 654 421 585 C348 526 314 474 314 404 C314 231 520 233 520 118 C520 64 482 40 446 30 L314 125 L314 23 C350 0 394 -10 439 -10 C549 -10 620 51 620 147 C620 314 404 278 404 445 L404 445 Z " />
<glyph glyph-name="agrave" unicode="&#xe0;" horiz-adv-x="535" d="M309 575 L219 770 L109 770 L304 570 L309 575 Z M520 80 C496 62 480 57 461 57 C434 57 413 68 413 115 L413 341 C413 438 363 490 273 490 C201 490 119 457 71 370 L76 365 C127 401 176 415 223 415 C292 415 323 384 323 306 L323 222 L118 222 C79 201 50 160 50 107 C50 34 105 -10 185 -10 C247 -10 295 17 328 64 L333 64 C343 18 376 -10 426 -10 C468 -10 500 9 525 75 L520 80 Z M215 50 C180 50 145 67 145 121 C145 149 153 170 167 187 L323 187 L323 104 C284 67 249 50 215 50 L215 50 Z " />
<glyph glyph-name="aacute" unicode="&#xe1;" horiz-adv-x="535" d="M431 770 L321 770 L231 575 L236 570 L431 770 Z M520 80 C496 62 480 57 461 57 C434 57 413 68 413 115 L413 341 C413 438 363 490 273 490 C201 490 119 457 71 370 L76 365 C127 401 176 415 223 415 C292 415 323 384 323 306 L323 222 L118 222 C79 201 50 160 50 107 C50 34 105 -10 185 -10 C247 -10 295 17 328 64 L333 64 C343 18 376 -10 426 -10 C468 -10 500 9 525 75 L520 80 Z M215 50 C180 50 145 67 145 121 C145 149 153 170 167 187 L323 187 L323 104 C284 67 249 50 215 50 L215 50 Z " />
<glyph glyph-name="acircumflex" unicode="&#xe2;" horiz-adv-x="535" d="M270 690 L430 560 L435 565 L270 785 L105 565 L110 560 L270 690 Z M520 80 C496 62 480 57 461 57 C434 57 413 68 413 115 L413 341 C413 438 363 490 273 490 C201 490 119 457 71 370 L76 365 C127 401 176 415 223 415 C292 415 323 384 323 306 L323 222 L118 222 C79 201 50 160 50 107 C50 34 105 -10 185 -10 C247 -10 295 17 328 64 L333 64 C343 18 376 -10 426 -10 C468 -10 500 9 525 75 L520 80 Z M215 50 C180 50 145 67 145 121 C145 149 153 170 167 187 L323 187 L323 104 C284 67 249 50 215 50 L215 50 Z " />
<glyph glyph-name="atilde" unicode="&#xe3;" horiz-adv-x="535" d="M198 593 C261 593 303 650 358 650 C383 650 416 638 435 593 L440 593 C437 664 405 720 342 720 C279 720 237 663 182 663 C157 663 124 675 105 720 L100 720 C103 649 135 593 198 593 L198 593 Z M520 80 C496 62 480 57 461 57 C434 57 413 68 413 115 L413 341 C413 438 363 490 273 490 C201 490 119 457 71 370 L76 365 C127 401 176 415 223 415 C292 415 323 384 323 306 L323 222 L118 222 C79 201 50 160 50 107 C50 34 105 -10 185 -10 C247 -10 295 17 328 64 L333 64 C343 18 376 -10 426 -10 C468 -10 500 9 525 75 L520 80 Z M215 50 C180 50 145 67 145 121 C145 149 153 170 167 187 L323 187 L323 104 C284 67 249 50 215 50 L215 50 Z " />
<glyph glyph-name="adieresis" unicode="&#xe4;" horiz-adv-x="535" d="M170 606 C199 606 222 630 222 658 C222 687 199 710 170 710 C142 710 118 687 118 658 C118 630 142 606 170 606 L170 606 Z M371 606 C400 606 423 630 423 658 C423 687 400 710 371 710 C343 710 319 687 319 658 C319 630 343 606 371 606 L371 606 Z M520 80 C496 62 480 57 461 57 C434 57 413 68 413 115 L413 341 C413 438 363 490 273 490 C201 490 119 457 71 370 L76 365 C127 401 176 415 223 415 C292 415 323 384 323 306 L323 222 L118 222 C79 201 50 160 50 107 C50 34 105 -10 185 -10 C247 -10 295 17 328 64 L333 64 C343 18 376 -10 426 -10 C468 -10 500 9 525 75 L520 80 Z M215 50 C180 50 145 67 145 121 C145 149 153 170 167 187 L323 187 L323 104 C284 67 249 50 215 50 L215 50 Z " />
<glyph glyph-name="aring" unicode="&#xe5;" horiz-adv-x="535" d="M270 561 C336 561 392 616 392 681 C392 747 336 803 270 803 C204 803 148 747 148 681 C148 616 204 561 270 561 L270 561 Z M270 767 C317 767 352 729 352 681 C352 635 317 597 270 597 C223 597 188 635 188 681 C188 729 223 767 270 767 L270 767 Z M520 80 C496 62 480 57 461 57 C434 57 413 68 413 115 L413 341 C413 438 363 490 273 490 C201 490 119 457 71 370 L76 365 C127 401 176 415 223 415 C292 415 323 384 323 306 L323 222 L118 222 C79 201 50 160 50 107 C50 34 105 -10 185 -10 C247 -10 295 17 328 64 L333 64 C343 18 376 -10 426 -10 C468 -10 500 9 525 75 L520 80 Z M215 50 C180 50 145 67 145 121 C145 149 153 170 167 187 L323 187 L323 104 C284 67 249 50 215 50 L215 50 Z " />
<glyph glyph-name="ae" unicode="&#xe6;" horiz-adv-x="793" d="M592 75 C481 75 423 158 423 274 C423 285 423 295 424 305 L753 305 C744 436 662 490 568 490 C508 490 449 468 405 426 C383 468 341 490 283 490 C211 490 129 457 81 370 L86 365 C137 401 186 415 233 415 C302 415 333 384 333 306 L333 222 L118 222 C79 201 50 160 50 107 C50 34 107 -10 191 -10 C273 -10 335 40 360 119 C399 39 475 -10 562 -10 C630 -10 708 20 743 125 L738 130 C680 86 632 75 592 75 L592 75 Z M554 453 C622 453 648 402 648 340 L430 340 C448 412 494 453 554 453 L554 453 Z M216 50 C182 50 145 67 145 123 C145 149 153 170 167 187 L332 187 C325 83 254 50 216 50 L216 50 Z " />
<glyph glyph-name="ccedilla" unicode="&#xe7;" horiz-adv-x="485" d="M304 75 C192 75 135 160 135 271 C135 386 196 450 282 450 L392 356 L455 440 C415 470 362 490 292 490 C183 490 45 414 45 243 C45 104 136 3 251 -9 L223 -80 C277 -103 289 -123 289 -147 C289 -178 269 -190 242 -190 C214 -190 187 -178 164 -162 L159 -167 C171 -206 200 -250 265 -250 C318 -250 364 -220 364 -165 C364 -123 338 -90 266 -67 L289 -9 C353 -5 423 28 455 125 L450 130 C392 86 344 75 304 75 L304 75 Z " />
<glyph glyph-name="egrave" unicode="&#xe8;" horiz-adv-x="505" d="M314 575 L224 770 L114 770 L309 570 L314 575 Z M304 75 C193 75 135 158 135 274 C135 285 135 295 136 305 L465 305 C456 436 374 490 280 490 C160 490 45 403 45 244 C45 94 148 -10 274 -10 C342 -10 420 20 455 125 L450 130 C392 86 344 75 304 75 L304 75 Z M266 453 C334 453 360 402 360 340 L142 340 C160 412 206 453 266 453 L266 453 Z " />
<glyph glyph-name="eacute" unicode="&#xe9;" horiz-adv-x="505" d="M436 770 L326 770 L236 575 L241 570 L436 770 Z M304 75 C193 75 135 158 135 274 C135 285 135 295 136 305 L465 305 C456 436 374 490 280 490 C160 490 45 403 45 244 C45 94 148 -10 274 -10 C342 -10 420 20 455 125 L450 130 C392 86 344 75 304 75 L304 75 Z M266 453 C334 453 360 402 360 340 L142 340 C160 412 206 453 266 453 L266 453 Z " />
<glyph glyph-name="ecircumflex" unicode="&#xea;" horiz-adv-x="505" d="M275 690 L435 560 L440 565 L275 785 L110 565 L115 560 L275 690 Z M304 75 C193 75 135 158 135 274 C135 285 135 295 136 305 L465 305 C456 436 374 490 280 490 C160 490 45 403 45 244 C45 94 148 -10 274 -10 C342 -10 420 20 455 125 L450 130 C392 86 344 75 304 75 L304 75 Z M266 453 C334 453 360 402 360 340 L142 340 C160 412 206 453 266 453 L266 453 Z " />
<glyph glyph-name="edieresis" unicode="&#xeb;" horiz-adv-x="505" d="M175 606 C204 606 227 630 227 658 C227 687 204 710 175 710 C147 710 123 687 123 658 C123 630 147 606 175 606 L175 606 Z M376 606 C405 606 428 630 428 658 C428 687 405 710 376 710 C348 710 324 687 324 658 C324 630 348 606 376 606 L376 606 Z M304 75 C193 75 135 158 135 274 C135 285 135 295 136 305 L465 305 C456 436 374 490 280 490 C160 490 45 403 45 244 C45 94 148 -10 274 -10 C342 -10 420 20 455 125 L450 130 C392 86 344 75 304 75 L304 75 Z M266 453 C334 453 360 402 360 340 L142 340 C160 412 206 453 266 453 L266 453 Z " />
<glyph glyph-name="igrave" unicode="&#xec;" horiz-adv-x="295" d="M182 570 L187 575 L97 770 L-13 770 L182 570 Z M195 60 L195 490 L35 420 L105 368 L105 60 L25 0 L275 0 L195 60 Z " />
<glyph glyph-name="iacute" unicode="&#xed;" horiz-adv-x="295" d="M114 570 L309 770 L199 770 L109 575 L114 570 Z M195 60 L195 490 L35 420 L105 368 L105 60 L25 0 L275 0 L195 60 Z " />
<glyph glyph-name="icircumflex" unicode="&#xee;" horiz-adv-x="295" d="M148 785 L-17 565 L-12 560 L148 690 L308 560 L313 565 L148 785 Z M195 60 L195 490 L35 420 L105 368 L105 60 L25 0 L275 0 L195 60 Z " />
<glyph glyph-name="idieresis" unicode="&#xef;" horiz-adv-x="295" d="M48 566 C77 566 100 590 100 618 C100 647 77 670 48 670 C20 670 -4 647 -4 618 C-4 590 20 566 48 566 L48 566 Z M249 566 C278 566 301 590 301 618 C301 647 278 670 249 670 C221 670 197 647 197 618 C197 590 221 566 249 566 L249 566 Z M195 60 L195 490 L35 420 L105 368 L105 60 L25 0 L275 0 L195 60 Z " />
<glyph glyph-name="eth" unicode="&#xf0;" horiz-adv-x="580" d="M364 674 L449 746 L420 780 L326 701 C269 739 199 765 118 780 L103 740 C171 720 228 694 276 659 L183 581 L212 547 L311 630 C365 579 402 515 422 434 C385 458 340 470 290 470 C156 470 45 375 45 230 C45 85 156 -10 290 -10 C424 -10 535 75 535 250 C535 436 478 581 364 674 L364 674 Z M306 30 C221 30 150 127 150 252 C150 341 183 430 274 430 C379 430 428 333 428 208 C428 119 397 30 306 30 L306 30 Z " />
<glyph glyph-name="ntilde" unicode="&#xf1;" horiz-adv-x="620" d="M402 720 C339 720 297 663 242 663 C217 663 184 675 165 720 L160 720 C163 649 195 593 258 593 C321 593 363 650 418 650 C443 650 476 638 495 593 L500 593 C497 664 465 720 402 720 L402 720 Z M520 60 L520 351 C520 458 448 490 379 490 C293 490 235 451 185 401 L180 406 L195 490 L35 420 L105 368 L105 60 L25 0 L275 0 L195 60 L195 366 C248 407 299 415 331 415 C389 415 430 394 430 306 L430 60 L350 0 L600 0 L520 60 Z " />
<glyph glyph-name="ograve" unicode="&#xf2;" horiz-adv-x="580" d="M324 570 L329 575 L239 770 L129 770 L324 570 Z M290 -10 C424 -10 535 85 535 240 C535 395 424 490 290 490 C156 490 45 395 45 240 C45 85 156 -10 290 -10 L290 -10 Z M306 30 C221 30 150 127 150 262 C150 361 183 450 274 450 C359 450 428 353 428 218 C428 119 397 30 306 30 L306 30 Z " />
<glyph glyph-name="oacute" unicode="&#xf3;" horiz-adv-x="580" d="M256 570 L451 770 L341 770 L251 575 L256 570 Z M290 -10 C424 -10 535 85 535 240 C535 395 424 490 290 490 C156 490 45 395 45 240 C45 85 156 -10 290 -10 L290 -10 Z M306 30 C221 30 150 127 150 262 C150 361 183 450 274 450 C359 450 428 353 428 218 C428 119 397 30 306 30 L306 30 Z " />
<glyph glyph-name="ocircumflex" unicode="&#xf4;" horiz-adv-x="580" d="M290 785 L125 565 L130 560 L290 690 L450 560 L455 565 L290 785 Z M290 -10 C424 -10 535 85 535 240 C535 395 424 490 290 490 C156 490 45 395 45 240 C45 85 156 -10 290 -10 L290 -10 Z M306 30 C221 30 150 127 150 262 C150 361 183 450 274 450 C359 450 428 353 428 218 C428 119 397 30 306 30 L306 30 Z " />
<glyph glyph-name="otilde" unicode="&#xf5;" horiz-adv-x="580" d="M362 720 C299 720 257 663 202 663 C177 663 144 675 125 720 L120 720 C123 649 155 593 218 593 C281 593 323 650 378 650 C403 650 436 638 455 593 L460 593 C457 664 425 720 362 720 L362 720 Z M290 -10 C424 -10 535 85 535 240 C535 395 424 490 290 490 C156 490 45 395 45 240 C45 85 156 -10 290 -10 L290 -10 Z M306 30 C221 30 150 127 150 262 C150 361 183 450 274 450 C359 450 428 353 428 218 C428 119 397 30 306 30 L306 30 Z " />
<glyph glyph-name="odieresis" unicode="&#xf6;" horiz-adv-x="580" d="M190 606 C219 606 242 630 242 658 C242 687 219 710 190 710 C162 710 138 687 138 658 C138 630 162 606 190 606 L190 606 Z M391 606 C420 606 443 630 443 658 C443 687 420 710 391 710 C363 710 339 687 339 658 C339 630 363 606 391 606 L391 606 Z M290 -10 C424 -10 535 85 535 240 C535 395 424 490 290 490 C156 490 45 395 45 240 C45 85 156 -10 290 -10 L290 -10 Z M306 30 C221 30 150 127 150 262 C150 361 183 450 274 450 C359 450 428 353 428 218 C428 119 397 30 306 30 L306 30 Z " />
<glyph glyph-name="divide" unicode="&#xf7;" horiz-adv-x="590" d="M295 470 C328 470 355 497 355 530 C355 563 328 590 295 590 C262 590 235 563 235 530 C235 497 262 470 295 470 L295 470 Z M40 375 L40 325 L550 325 L550 375 L40 375 Z M295 100 C328 100 355 127 355 160 C355 193 328 220 295 220 C262 220 235 193 235 160 C235 127 262 100 295 100 L295 100 Z " />
<glyph glyph-name="oslash" unicode="&#xf8;" horiz-adv-x="580" d="M449 436 L477 476 L445 500 L416 458 C379 479 336 490 290 490 C156 490 45 395 45 240 C45 157 77 91 128 47 L83 -16 L116 -39 L160 24 C198 2 243 -10 290 -10 C424 -10 535 85 535 240 C535 325 501 393 449 436 L449 436 Z M150 262 C150 361 183 450 274 450 C312 450 346 431 373 398 L180 123 C161 161 150 208 150 262 L150 262 Z M306 30 C267 30 231 50 203 86 L397 361 C416 323 428 274 428 218 C428 119 397 30 306 30 L306 30 Z " />
<glyph glyph-name="ugrave" unicode="&#xf9;" horiz-adv-x="585" d="M317 570 L322 575 L232 770 L122 770 L317 570 Z M485 90 L485 490 L325 420 L395 368 L395 114 C342 73 291 65 259 65 C211 65 170 86 170 174 L170 490 L10 420 L80 368 L80 129 C80 22 152 -10 211 -10 C297 -10 375 49 405 79 L410 79 L441 -10 L555 38 L485 90 Z " />
<glyph glyph-name="uacute" unicode="&#xfa;" horiz-adv-x="585" d="M249 570 L444 770 L334 770 L244 575 L249 570 Z M485 90 L485 490 L325 420 L395 368 L395 114 C342 73 291 65 259 65 C211 65 170 86 170 174 L170 490 L10 420 L80 368 L80 129 C80 22 152 -10 211 -10 C297 -10 375 49 405 79 L410 79 L441 -10 L555 38 L485 90 Z " />
<glyph glyph-name="ucircumflex" unicode="&#xfb;" horiz-adv-x="585" d="M283 785 L118 565 L123 560 L283 690 L443 560 L448 565 L283 785 Z M485 90 L485 490 L325 420 L395 368 L395 114 C342 73 291 65 259 65 C211 65 170 86 170 174 L170 490 L10 420 L80 368 L80 129 C80 22 152 -10 211 -10 C297 -10 375 49 405 79 L410 79 L441 -10 L555 38 L485 90 Z " />
<glyph glyph-name="udieresis" unicode="&#xfc;" horiz-adv-x="585" d="M183 606 C212 606 235 630 235 658 C235 687 212 710 183 710 C155 710 131 687 131 658 C131 630 155 606 183 606 L183 606 Z M384 606 C413 606 436 630 436 658 C436 687 413 710 384 710 C356 710 332 687 332 658 C332 630 356 606 384 606 L384 606 Z M485 90 L485 490 L325 420 L395 368 L395 114 C342 73 291 65 259 65 C211 65 170 86 170 174 L170 490 L10 420 L80 368 L80 129 C80 22 152 -10 211 -10 C297 -10 375 49 405 79 L410 79 L441 -10 L555 38 L485 90 Z " />
<glyph glyph-name="yacute" unicode="&#xfd;" horiz-adv-x="570" d="M504 710 L384 710 L254 555 L259 550 L504 710 Z M490 420 L570 480 L342 480 L430 420 L316 155 L177 420 L257 480 L0 480 L69 429 L268 55 L127 -240 L370 -240 L233 -160 L490 420 Z " />
<glyph glyph-name="thorn" unicode="&#xfe;" horiz-adv-x="605" d="M301 -10 C433 -10 560 80 560 252 C560 411 452 490 350 490 C282 490 227 455 195 415 L195 780 L35 710 L105 658 L105 -180 L25 -240 L314 -240 L195 -181 L195 5 C231 -6 273 -10 301 -10 L301 -10 Z M318 415 C406 415 460 345 460 230 C460 105 396 30 308 30 C251 30 195 62 195 122 L195 366 C229 398 275 415 318 415 L318 415 Z " />
<glyph glyph-name="ydieresis" unicode="&#xff;" horiz-adv-x="570" d="M193 606 C222 606 245 630 245 658 C245 687 222 710 193 710 C165 710 141 687 141 658 C141 630 165 606 193 606 L193 606 Z M394 606 C423 606 446 630 446 658 C446 687 423 710 394 710 C366 710 342 687 342 658 C342 630 366 606 394 606 L394 606 Z M490 420 L570 480 L342 480 L430 420 L316 155 L177 420 L257 480 L0 480 L69 429 L268 55 L127 -240 L370 -240 L233 -160 L490 420 Z " />
<glyph glyph-name="Amacron" unicode="&#x100;" horiz-adv-x="707" d="M522 871 L176 871 L176 806 L522 806 L522 871 Z M642 56 L353 730 L347 730 L35 0 L244 0 L125 60 L211 265 L440 265 L524 60 L444 0 L717 0 L642 56 Z M232 315 L326 541 L419 315 L232 315 Z " />
<glyph glyph-name="amacron" unicode="&#x101;" horiz-adv-x="535" d="M424 681 L118 681 L118 616 L424 616 L424 681 Z M520 80 C496 62 480 57 461 57 C434 57 413 68 413 115 L413 341 C413 438 363 490 273 490 C201 490 119 457 71 370 L76 365 C127 401 176 415 223 415 C292 415 323 384 323 306 L323 222 L118 222 C79 201 50 160 50 107 C50 34 105 -10 185 -10 C247 -10 295 17 328 64 L333 64 C343 18 376 -10 426 -10 C468 -10 500 9 525 75 L520 80 Z M215 50 C180 50 145 67 145 121 C145 149 153 170 167 187 L323 187 L323 104 C284 67 249 50 215 50 L215 50 Z " />
<glyph glyph-name="Abreve" unicode="&#x102;" horiz-adv-x="707" d="M348 770 C433 770 498 838 503 920 L498 925 C455 863 411 840 348 840 C285 840 241 863 198 925 L193 920 C198 838 263 770 348 770 L348 770 Z M642 56 L353 730 L347 730 L35 0 L244 0 L125 60 L211 265 L440 265 L524 60 L444 0 L717 0 L642 56 Z M232 315 L326 541 L419 315 L232 315 Z " />
<glyph glyph-name="abreve" unicode="&#x103;" horiz-adv-x="535" d="M270 590 C345 590 420 658 425 770 L420 775 C377 683 323 660 270 660 C217 660 163 683 120 775 L115 770 C120 658 195 590 270 590 L270 590 Z M520 80 C496 62 480 57 461 57 C434 57 413 68 413 115 L413 341 C413 438 363 490 273 490 C201 490 119 457 71 370 L76 365 C127 401 176 415 223 415 C292 415 323 384 323 306 L323 222 L118 222 C79 201 50 160 50 107 C50 34 105 -10 185 -10 C247 -10 295 17 328 64 L333 64 C343 18 376 -10 426 -10 C468 -10 500 9 525 75 L520 80 Z M215 50 C180 50 145 67 145 121 C145 149 153 170 167 187 L323 187 L323 104 C284 67 249 50 215 50 L215 50 Z " />
<glyph glyph-name="Aogonek" unicode="&#x104;" horiz-adv-x="727" d="M642 56 L353 730 L347 730 L35 0 L242 0 L123 60 L211 265 L447 265 L541 43 C423 -21 395 -94 395 -147 C395 -207 430 -250 491 -250 C551 -250 583 -207 595 -167 L590 -162 C567 -178 548 -185 525 -185 C491 -185 470 -170 470 -122 C470 -83 484 -38 544 0 L717 0 L642 56 Z M233 315 L330 540 L426 315 L233 315 Z " />
<glyph glyph-name="aogonek" unicode="&#x105;" horiz-adv-x="535" d="M456 -175 C425 -175 400 -162 400 -115 C400 -80 425 -40 462 -4 C487 6 508 29 525 75 L520 80 C496 62 480 57 461 57 C434 57 413 68 413 115 L413 341 C413 438 363 490 273 490 C201 490 119 457 71 370 L76 365 C127 401 176 415 223 415 C292 415 323 384 323 306 L323 222 L118 222 C79 201 50 160 50 107 C50 34 105 -10 185 -10 C247 -10 295 17 328 64 L333 64 C342 21 372 -6 417 -10 C361 -51 325 -95 325 -143 C325 -200 361 -240 420 -240 C481 -240 513 -197 525 -157 L520 -152 C497 -168 478 -175 456 -175 L456 -175 Z M215 50 C180 50 145 67 145 121 C145 149 153 170 167 187 L323 187 L323 104 C284 67 249 50 215 50 L215 50 Z " />
<glyph glyph-name="Cacute" unicode="&#x106;" horiz-adv-x="710" d="M626 930 L506 930 L376 775 L381 770 L626 930 Z M665 178 C585 98 493 70 417 70 C257 70 155 194 155 370 C155 559 272 660 431 660 C459 660 490 657 521 648 L650 475 L650 710 L593 684 C540 702 482 710 433 710 C232 710 50 574 50 346 C50 125 221 -10 397 -10 C492 -10 607 29 670 173 L665 178 Z " />
<glyph glyph-name="cacute" unicode="&#x107;" horiz-adv-x="485" d="M436 770 L326 770 L236 575 L241 570 L436 770 Z M304 75 C192 75 135 160 135 271 C135 386 196 450 282 450 L392 356 L455 440 C415 470 362 490 292 490 C183 490 45 414 45 243 C45 95 148 -10 274 -10 C342 -10 420 20 455 125 L450 130 C392 86 344 75 304 75 L304 75 Z " />
<glyph glyph-name="Cdotaccent" unicode="&#x10a;" horiz-adv-x="710" d="M411 781 C444 781 471 808 471 841 C471 874 444 901 411 901 C378 901 351 874 351 841 C351 808 378 781 411 781 L411 781 Z M665 178 C585 98 493 70 417 70 C257 70 155 194 155 370 C155 559 272 660 431 660 C459 660 490 657 521 648 L650 475 L650 710 L593 684 C540 702 482 710 433 710 C232 710 50 574 50 346 C50 125 221 -10 397 -10 C492 -10 607 29 670 173 L665 178 Z " />
<glyph glyph-name="cdotaccent" unicode="&#x10b;" horiz-adv-x="485" d="M271 591 C304 591 331 618 331 651 C331 684 304 711 271 711 C238 711 211 684 211 651 C211 618 238 591 271 591 L271 591 Z M304 75 C192 75 135 160 135 271 C135 386 196 450 282 450 L392 356 L455 440 C415 470 362 490 292 490 C183 490 45 414 45 243 C45 95 148 -10 274 -10 C342 -10 420 20 455 125 L450 130 C392 86 344 75 304 75 L304 75 Z " />
<glyph glyph-name="Ccaron" unicode="&#x10c;" horiz-adv-x="710" d="M580 930 L575 935 L415 845 L255 935 L250 930 L415 750 L580 930 Z M665 178 C585 98 493 70 417 70 C257 70 155 194 155 370 C155 559 272 660 431 660 C459 660 490 657 521 648 L650 475 L650 710 L593 684 C540 702 482 710 433 710 C232 710 50 574 50 346 C50 125 221 -10 397 -10 C492 -10 607 29 670 173 L665 178 Z " />
<glyph glyph-name="ccaron" unicode="&#x10d;" horiz-adv-x="485" d="M440 780 L435 785 L275 655 L115 785 L110 780 L275 560 L440 780 Z M304 75 C192 75 135 160 135 271 C135 386 196 450 282 450 L392 356 L455 440 C415 470 362 490 292 490 C183 490 45 414 45 243 C45 95 148 -10 274 -10 C342 -10 420 20 455 125 L450 130 C392 86 344 75 304 75 L304 75 Z " />
<glyph glyph-name="Dcaron" unicode="&#x10e;" horiz-adv-x="775" d="M535 930 L530 935 L370 845 L210 935 L205 930 L370 750 L535 930 Z M377 700 L35 700 L115 640 L115 60 L35 0 L377 0 C556 0 725 138 725 365 C725 602 556 700 377 700 L377 700 Z M367 50 L215 50 L215 650 L367 650 C516 650 615 556 615 355 C615 164 516 50 367 50 L367 50 Z " />
<glyph glyph-name="dcaron" unicode="&#x10f;" horiz-adv-x="720" d="M500 780 L340 710 L410 658 L410 475 C374 486 332 490 304 490 C172 490 45 400 45 228 C45 69 153 -10 255 -10 C331 -10 391 34 420 79 L425 79 L456 -10 L570 38 L500 90 L500 780 Z M580 780 L633 520 L638 520 L690 780 L580 780 Z M287 65 C199 65 145 135 145 250 C145 375 209 450 297 450 C354 450 410 418 410 358 L410 114 C376 82 330 65 287 65 L287 65 Z " />
<glyph glyph-name="Dcroat" unicode="&#x110;" horiz-adv-x="775" d="M377 700 L35 700 L115 640 L115 395 L20 395 L20 350 L115 350 L115 60 L35 0 L377 0 C556 0 725 138 725 365 C725 602 556 700 377 700 L377 700 Z M367 50 L215 50 L215 350 L360 350 L360 395 L215 395 L215 650 L367 650 C516 650 615 556 615 355 C615 164 516 50 367 50 L367 50 Z " />
<glyph glyph-name="dcroat" unicode="&#x111;" horiz-adv-x="600" d="M600 565 L600 610 L500 610 L500 780 L340 710 L410 658 L410 610 L260 610 L260 565 L410 565 L410 475 C374 486 332 490 304 490 C172 490 45 400 45 228 C45 69 153 -10 255 -10 C331 -10 391 34 420 79 L425 79 L456 -10 L570 38 L500 90 L500 565 L600 565 Z M287 65 C199 65 145 135 145 250 C145 375 209 450 297 450 C354 450 410 418 410 358 L410 114 C376 82 330 65 287 65 L287 65 Z " />
<glyph glyph-name="Emacron" unicode="&#x112;" horiz-adv-x="620" d="M484 871 L138 871 L138 806 L484 806 L484 871 Z M478 50 L215 50 L215 335 L394 335 L462 245 L462 475 L394 385 L215 385 L215 650 L448 650 L545 521 L545 700 L35 700 L115 640 L115 60 L35 0 L575 0 L575 179 L478 50 Z " />
<glyph glyph-name="emacron" unicode="&#x113;" horiz-adv-x="505" d="M429 681 L123 681 L123 616 L429 616 L429 681 Z M304 75 C193 75 135 158 135 274 C135 285 135 295 136 305 L465 305 C456 436 374 490 280 490 C160 490 45 403 45 244 C45 94 148 -10 274 -10 C342 -10 420 20 455 125 L450 130 C392 86 344 75 304 75 L304 75 Z M266 453 C334 453 360 402 360 340 L142 340 C160 412 206 453 266 453 L266 453 Z " />
<glyph glyph-name="Edotaccent" unicode="&#x116;" horiz-adv-x="620" d="M306 781 C339 781 366 808 366 841 C366 874 339 901 306 901 C273 901 246 874 246 841 C246 808 273 781 306 781 L306 781 Z M478 50 L215 50 L215 335 L394 335 L462 245 L462 475 L394 385 L215 385 L215 650 L448 650 L545 521 L545 700 L35 700 L115 640 L115 60 L35 0 L575 0 L575 179 L478 50 Z " />
<glyph glyph-name="edotaccent" unicode="&#x117;" horiz-adv-x="505" d="M271 591 C304 591 331 618 331 651 C331 684 304 711 271 711 C238 711 211 684 211 651 C211 618 238 591 271 591 L271 591 Z M304 75 C193 75 135 158 135 274 C135 285 135 295 136 305 L465 305 C456 436 374 490 280 490 C160 490 45 403 45 244 C45 94 148 -10 274 -10 C342 -10 420 20 455 125 L450 130 C392 86 344 75 304 75 L304 75 Z M266 453 C334 453 360 402 360 340 L142 340 C160 412 206 453 266 453 L266 453 Z " />
<glyph glyph-name="Eogonek" unicode="&#x118;" horiz-adv-x="620" d="M601 -162 C578 -178 559 -185 537 -185 C505 -185 481 -170 481 -129 C481 -82 512 -41 575 0 L575 179 L478 50 L215 50 L215 335 L394 335 L462 245 L462 475 L394 385 L215 385 L215 650 L448 650 L545 521 L545 700 L35 700 L115 640 L115 60 L35 0 L517 0 C436 -50 406 -99 406 -156 C406 -210 443 -250 501 -250 C562 -250 594 -207 606 -167 L601 -162 Z " />
<glyph glyph-name="eogonek" unicode="&#x119;" horiz-adv-x="505" d="M304 75 C193 75 135 158 135 274 C135 285 135 295 136 305 L465 305 C456 436 374 490 280 490 C160 490 45 403 45 244 C45 94 148 -10 274 -10 C286 -10 299 -9 312 -7 C246 -52 202 -100 202 -153 C202 -210 238 -250 297 -250 C358 -250 390 -207 402 -167 L397 -162 C374 -178 355 -185 333 -185 C302 -185 277 -172 277 -125 C277 -81 317 -29 371 15 C406 35 437 70 455 125 L450 130 C392 86 344 75 304 75 L304 75 Z M266 453 C334 453 360 402 360 340 L142 340 C160 412 206 453 266 453 L266 453 Z " />
<glyph glyph-name="Ecaron" unicode="&#x11a;" horiz-adv-x="620" d="M475 930 L470 935 L310 845 L150 935 L145 930 L310 750 L475 930 Z M478 50 L215 50 L215 335 L394 335 L462 245 L462 475 L394 385 L215 385 L215 650 L448 650 L545 521 L545 700 L35 700 L115 640 L115 60 L35 0 L575 0 L575 179 L478 50 Z " />
<glyph glyph-name="ecaron" unicode="&#x11b;" horiz-adv-x="505" d="M440 780 L435 785 L275 655 L115 785 L110 780 L275 560 L440 780 Z M304 75 C193 75 135 158 135 274 C135 285 135 295 136 305 L465 305 C456 436 374 490 280 490 C160 490 45 403 45 244 C45 94 148 -10 274 -10 C342 -10 420 20 455 125 L450 130 C392 86 344 75 304 75 L304 75 Z M266 453 C334 453 360 402 360 340 L142 340 C160 412 206 453 266 453 L266 453 Z " />
<glyph glyph-name="Gbreve" unicode="&#x11e;" horiz-adv-x="725" d="M405 770 C490 770 555 838 560 920 L555 925 C512 863 468 840 405 840 C342 840 298 863 255 925 L250 920 C255 838 320 770 405 770 L405 770 Z M404 330 L580 242 L580 77 C522 56 467 50 432 50 C269 50 160 185 160 372 C160 561 272 660 431 660 C464 660 499 656 536 644 L650 491 L650 710 L596 682 C541 701 482 710 430 710 C232 710 50 582 50 343 C50 117 213 -10 424 -10 C484 -10 552 0 613 28 L670 0 L670 330 L404 330 Z " />
<glyph glyph-name="gbreve" unicode="&#x11f;" horiz-adv-x="525" d="M268 590 C343 590 418 658 423 770 L418 775 C375 683 321 660 268 660 C215 660 161 683 118 775 L113 770 C118 658 193 590 268 590 L268 590 Z M515 485 L342 475 C316 485 287 490 258 490 C158 490 65 430 65 330 C65 276 92 234 133 206 C85 177 55 138 55 88 C55 48 74 12 109 -8 C50 -40 30 -82 30 -122 C30 -197 96 -250 241 -250 C422 -250 515 -166 515 -64 C515 -1 480 50 430 75 L171 75 C142 75 127 93 127 117 C127 140 140 166 167 188 C195 176 226 170 258 170 C358 170 451 230 451 330 C451 379 429 419 394 446 L515 405 L515 485 Z M266 207 C204 207 160 265 160 338 C160 401 192 453 250 453 C312 453 356 395 356 322 C356 259 324 207 266 207 L266 207 Z M340 -10 C395 -10 420 -40 420 -90 C420 -157 375 -210 261 -210 C168 -210 116 -166 116 -100 C116 -61 133 -32 151 -10 L340 -10 Z " />
<glyph glyph-name="Gdotaccent" unicode="&#x120;" horiz-adv-x="725" d="M401 811 C434 811 461 838 461 871 C461 904 434 931 401 931 C368 931 341 904 341 871 C341 838 368 811 401 811 L401 811 Z M404 330 L580 242 L580 77 C522 56 467 50 432 50 C269 50 160 185 160 372 C160 561 272 660 431 660 C464 660 499 656 536 644 L650 491 L650 710 L596 682 C541 701 482 710 430 710 C232 710 50 582 50 343 C50 117 213 -10 424 -10 C484 -10 552 0 613 28 L670 0 L670 330 L404 330 Z " />
<glyph glyph-name="gdotaccent" unicode="&#x121;" horiz-adv-x="525" d="M264 591 C297 591 324 618 324 651 C324 684 297 711 264 711 C231 711 204 684 204 651 C204 618 231 591 264 591 L264 591 Z M515 485 L342 475 C316 485 287 490 258 490 C158 490 65 430 65 330 C65 276 92 234 133 206 C85 177 55 138 55 88 C55 48 74 12 109 -8 C50 -40 30 -82 30 -122 C30 -197 96 -250 241 -250 C422 -250 515 -166 515 -64 C515 -1 480 50 430 75 L171 75 C142 75 127 93 127 117 C127 140 140 166 167 188 C195 176 226 170 258 170 C358 170 451 230 451 330 C451 379 429 419 394 446 L515 405 L515 485 Z M266 207 C204 207 160 265 160 338 C160 401 192 453 250 453 C312 453 356 395 356 322 C356 259 324 207 266 207 L266 207 Z M340 -10 C395 -10 420 -40 420 -90 C420 -157 375 -210 261 -210 C168 -210 116 -166 116 -100 C116 -61 133 -32 151 -10 L340 -10 Z " />
<glyph glyph-name="Gcommaaccent" unicode="&#x122;" horiz-adv-x="725" d="M404 330 L580 242 L580 77 C522 56 467 50 432 50 C269 50 160 185 160 372 C160 561 272 660 431 660 C464 660 499 656 536 644 L650 491 L650 710 L596 682 C541 701 482 710 430 710 C232 710 50 582 50 343 C50 117 213 -10 424 -10 C484 -10 552 0 613 28 L670 0 L670 330 L404 330 Z M406 -65 C377 -65 359 -88 359 -110 C380 -125 394 -149 394 -175 C394 -205 377 -238 336 -264 L338 -268 C398 -246 456 -198 456 -129 C456 -82 433 -65 406 -65 L406 -65 Z " />
<glyph glyph-name="gcommaaccent" unicode="&#x123;" horiz-adv-x="525" d="M260 590 C289 590 307 613 307 635 C286 650 272 674 272 700 C272 730 289 763 330 789 L328 793 C268 771 210 723 210 654 C210 607 233 590 260 590 L260 590 Z M515 485 L342 475 C316 485 287 490 258 490 C158 490 65 430 65 330 C65 276 92 234 133 206 C85 177 55 138 55 88 C55 48 74 12 109 -8 C50 -40 30 -82 30 -122 C30 -197 96 -250 241 -250 C422 -250 515 -166 515 -64 C515 -1 480 50 430 75 L171 75 C142 75 127 93 127 117 C127 140 140 166 167 188 C195 176 226 170 258 170 C358 170 451 230 451 330 C451 379 429 419 394 446 L515 405 L515 485 Z M266 207 C204 207 160 265 160 338 C160 401 192 453 250 453 C312 453 356 395 356 322 C356 259 324 207 266 207 L266 207 Z M340 -10 C395 -10 420 -40 420 -90 C420 -157 375 -210 261 -210 C168 -210 116 -166 116 -100 C116 -61 133 -32 151 -10 L340 -10 Z " />
<glyph glyph-name="Hbar" unicode="&#x126;" horiz-adv-x="830" d="M800 505 L800 555 L715 555 L715 640 L795 700 L535 700 L615 640 L615 555 L215 555 L215 640 L295 700 L35 700 L115 640 L115 555 L30 555 L30 505 L115 505 L115 60 L35 0 L295 0 L215 60 L215 345 L615 345 L615 60 L535 0 L795 0 L715 60 L715 505 L800 505 Z M615 395 L215 395 L215 505 L615 505 L615 395 Z " />
<glyph glyph-name="hbar" unicode="&#x127;" horiz-adv-x="620" d="M520 60 L520 351 C520 458 448 490 379 490 C293 490 235 451 185 401 L180 406 L195 491 L195 565 L340 565 L340 610 L195 610 L195 780 L35 710 L105 658 L105 610 L0 610 L0 565 L105 565 L105 60 L25 0 L275 0 L195 60 L195 366 C248 407 299 415 331 415 C389 415 430 394 430 306 L430 60 L350 0 L600 0 L520 60 Z " />
<glyph glyph-name="Imacron" unicode="&#x12a;" horiz-adv-x="340" d="M-2 871 L-2 806 L344 806 L344 871 L-2 871 Z M300 700 L40 700 L120 640 L120 60 L40 0 L300 0 L220 60 L220 640 L300 700 Z " />
<glyph glyph-name="imacron" unicode="&#x12b;" horiz-adv-x="295" d="M-24 651 L-24 586 L322 586 L322 651 L-24 651 Z M195 60 L195 490 L35 420 L105 368 L105 60 L25 0 L275 0 L195 60 Z " />
<glyph glyph-name="Iogonek" unicode="&#x12e;" horiz-adv-x="340" d="M190 0 L300 0 L220 60 L220 640 L300 700 L40 700 L120 640 L120 60 L40 0 L132 0 C51 -50 21 -99 21 -156 C21 -210 58 -250 116 -250 C177 -250 209 -207 221 -167 L216 -162 C193 -178 174 -185 152 -185 C120 -185 96 -170 96 -129 C96 -82 127 -41 190 0 L190 0 Z " />
<glyph glyph-name="iogonek" unicode="&#x12f;" horiz-adv-x="295" d="M144 561 C177 561 204 588 204 621 C204 654 177 681 144 681 C111 681 84 654 84 621 C84 588 111 561 144 561 L144 561 Z M291 -152 C268 -168 249 -175 227 -175 C195 -175 171 -160 171 -119 C171 -76 197 -38 250 0 L275 0 L263 9 C264 9 264 10 265 10 L262 10 L195 60 L195 490 L35 420 L105 368 L105 60 L25 0 L191 0 C122 -47 96 -93 96 -146 C96 -200 133 -240 191 -240 C252 -240 284 -197 296 -157 L291 -152 Z " />
<glyph glyph-name="Idotaccent" unicode="&#x130;" horiz-adv-x="340" d="M166 781 C199 781 226 808 226 841 C226 874 199 901 166 901 C133 901 106 874 106 841 C106 808 133 781 166 781 L166 781 Z M220 640 L300 700 L40 700 L120 640 L120 60 L40 0 L300 0 L220 60 L220 640 Z " />
<glyph glyph-name="dotlessi" unicode="&#x131;" horiz-adv-x="295" d="M195 60 L195 490 L35 420 L105 368 L105 60 L25 0 L275 0 L195 60 Z " />
<glyph glyph-name="Kcommaaccent" unicode="&#x136;" horiz-adv-x="720" d="M215 60 L215 640 L295 700 L35 700 L115 640 L115 60 L35 0 L295 0 L215 60 Z M380 385 L696 700 L449 700 L555 640 L274 361 C484 52 535 -25 745 -5 L745 0 C596 54 537 160 380 385 L380 385 Z M364 -65 C335 -65 317 -88 317 -110 C338 -125 352 -149 352 -175 C352 -205 335 -238 294 -264 L296 -268 C356 -246 414 -198 414 -129 C414 -82 391 -65 364 -65 L364 -65 Z " />
<glyph glyph-name="kcommaaccent" unicode="&#x137;" horiz-adv-x="580" d="M195 60 L195 780 L35 710 L105 658 L105 60 L25 0 L275 0 L195 60 Z M334 275 L546 480 L305 480 L416 420 L240 254 C377 27 423 -25 580 -5 L580 0 C473 56 427 124 334 275 L334 275 Z M291 -65 C262 -65 244 -88 244 -110 C265 -125 279 -149 279 -175 C279 -205 262 -238 221 -264 L223 -268 C283 -246 341 -198 341 -129 C341 -82 318 -65 291 -65 L291 -65 Z " />
<glyph glyph-name="Lacute" unicode="&#x139;" horiz-adv-x="605" d="M376 930 L256 930 L126 775 L131 770 L376 930 Z M478 50 L215 50 L215 640 L295 700 L35 700 L115 640 L115 60 L35 0 L575 0 L575 179 L478 50 Z " />
<glyph glyph-name="lacute" unicode="&#x13a;" horiz-adv-x="295" d="M359 960 L239 960 L109 805 L114 800 L359 960 Z M195 780 L35 710 L105 658 L105 60 L25 0 L275 0 L195 60 L195 780 Z " />
<glyph glyph-name="Lcommaaccent" unicode="&#x13b;" horiz-adv-x="605" d="M478 50 L215 50 L215 640 L295 700 L35 700 L115 640 L115 60 L35 0 L575 0 L575 179 L478 50 Z M344 -75 C315 -75 297 -98 297 -120 C318 -135 332 -159 332 -185 C332 -215 315 -248 274 -274 L276 -278 C336 -256 394 -208 394 -139 C394 -92 371 -75 344 -75 L344 -75 Z " />
<glyph glyph-name="lcommaaccent" unicode="&#x13c;" horiz-adv-x="295" d="M25 0 L275 0 L195 60 L195 780 L35 710 L105 658 L105 60 L25 0 Z M151 -65 C122 -65 104 -88 104 -110 C125 -125 139 -149 139 -175 C139 -205 122 -238 81 -264 L83 -268 C143 -246 201 -198 201 -129 C201 -82 178 -65 151 -65 L151 -65 Z " />
<glyph glyph-name="Lcaron" unicode="&#x13d;" horiz-adv-x="620" d="M406 491 L407 487 C473 512 538 564 538 640 C538 692 512 710 482 710 C450 710 430 685 430 660 C454 645 469 618 469 589 C469 556 450 520 406 491 L406 491 Z M478 50 L215 50 L215 640 L295 700 L35 700 L115 640 L115 60 L35 0 L575 0 L575 179 L478 50 Z " />
<glyph glyph-name="lcaron" unicode="&#x13e;" horiz-adv-x="415" d="M195 780 L35 710 L105 658 L105 60 L25 0 L275 0 L195 60 L195 780 Z M275 780 L328 520 L333 520 L385 780 L275 780 Z " />
<glyph glyph-name="Lslash" unicode="&#x141;" horiz-adv-x="625" d="M498 50 L235 50 L235 333 L400 442 L400 502 L235 392 L235 640 L315 700 L55 700 L135 640 L135 331 L30 261 L30 201 L135 271 L135 60 L55 0 L595 0 L595 179 L498 50 Z " />
<glyph glyph-name="lslash" unicode="&#x142;" horiz-adv-x="335" d="M305 447 L305 507 L210 441 L210 780 L50 710 L120 658 L120 378 L25 311 L25 251 L120 318 L120 60 L40 0 L290 0 L210 60 L210 381 L305 447 Z " />
<glyph glyph-name="Nacute" unicode="&#x143;" horiz-adv-x="810" d="M621 930 L501 930 L371 775 L376 770 L621 930 Z M785 700 L520 700 L640 640 L640 180 L173 700 L35 700 L115 640 L115 60 L35 0 L300 0 L180 60 L180 545 L699 -30 L705 -30 L705 640 L785 700 Z " />
<glyph glyph-name="nacute" unicode="&#x144;" horiz-adv-x="620" d="M296 570 L491 770 L381 770 L291 575 L296 570 Z M520 60 L520 351 C520 458 448 490 379 490 C293 490 235 451 185 401 L180 406 L195 490 L35 420 L105 368 L105 60 L25 0 L275 0 L195 60 L195 366 C248 407 299 415 331 415 C389 415 430 394 430 306 L430 60 L350 0 L600 0 L520 60 Z " />
<glyph glyph-name="Ncommaaccent" unicode="&#x145;" horiz-adv-x="810" d="M785 700 L520 700 L640 640 L640 180 L173 700 L35 700 L115 640 L115 60 L35 0 L300 0 L180 60 L180 545 L699 -30 L705 -30 L705 640 L785 700 Z M411 -65 C382 -65 364 -88 364 -110 C385 -125 399 -149 399 -175 C399 -205 382 -238 341 -264 L343 -268 C403 -246 461 -198 461 -129 C461 -82 438 -65 411 -65 L411 -65 Z " />
<glyph glyph-name="ncommaaccent" unicode="&#x146;" horiz-adv-x="620" d="M520 60 L520 351 C520 458 448 490 379 490 C293 490 235 451 185 401 L180 406 L195 490 L35 420 L105 368 L105 60 L25 0 L275 0 L195 60 L195 366 C248 407 299 415 331 415 C389 415 430 394 430 306 L430 60 L350 0 L600 0 L520 60 Z M311 -65 C282 -65 264 -88 264 -110 C285 -125 299 -149 299 -175 C299 -205 282 -238 241 -264 L243 -268 C303 -246 361 -198 361 -129 C361 -82 338 -65 311 -65 L311 -65 Z " />
<glyph glyph-name="Ncaron" unicode="&#x147;" horiz-adv-x="810" d="M575 930 L570 935 L410 845 L250 935 L245 930 L410 750 L575 930 Z M785 700 L520 700 L640 640 L640 180 L173 700 L35 700 L115 640 L115 60 L35 0 L300 0 L180 60 L180 545 L699 -30 L705 -30 L705 640 L785 700 Z " />
<glyph glyph-name="ncaron" unicode="&#x148;" horiz-adv-x="620" d="M490 785 L330 655 L170 785 L165 780 L330 560 L495 780 L490 785 Z M520 60 L520 351 C520 458 448 490 379 490 C293 490 235 451 185 401 L180 406 L195 490 L35 420 L105 368 L105 60 L25 0 L275 0 L195 60 L195 366 C248 407 299 415 331 415 C389 415 430 394 430 306 L430 60 L350 0 L600 0 L520 60 Z " />
<glyph glyph-name="Eng" unicode="&#x14a;" horiz-adv-x="810" d="M785 700 L520 700 L640 640 L640 180 L173 700 L35 700 L115 640 L115 60 L35 0 L300 0 L180 60 L180 545 L640 35 C639 -105 597 -168 525 -235 L530 -240 C639 -197 705 -123 705 20 L705 640 L785 700 Z " />
<glyph glyph-name="eng" unicode="&#x14b;" horiz-adv-x="595" d="M379 490 C293 490 215 431 185 401 L180 406 L195 490 L35 420 L105 368 L105 60 L25 0 L275 0 L195 60 L195 366 C248 407 299 415 331 415 C389 415 430 394 430 306 L430 0 C430 -114 413 -187 360 -255 L365 -260 C474 -207 519 -133 520 -10 L520 351 C520 458 448 490 379 490 L379 490 Z " />
<glyph glyph-name="Omacron" unicode="&#x14c;" horiz-adv-x="800" d="M228 871 L228 806 L574 806 L574 871 L228 871 Z M402 710 C219 710 50 574 50 347 C50 120 219 -10 398 -10 C581 -10 750 126 750 353 C750 580 581 710 402 710 L402 710 Z M420 40 C275 40 160 166 160 373 C160 549 243 660 380 660 C525 660 640 534 640 327 C640 151 557 40 420 40 L420 40 Z " />
<glyph glyph-name="omacron" unicode="&#x14d;" horiz-adv-x="580" d="M138 681 L138 616 L444 616 L444 681 L138 681 Z M290 -10 C424 -10 535 85 535 240 C535 395 424 490 290 490 C156 490 45 395 45 240 C45 85 156 -10 290 -10 L290 -10 Z M306 30 C221 30 150 127 150 262 C150 361 183 450 274 450 C359 450 428 353 428 218 C428 119 397 30 306 30 L306 30 Z " />
<glyph glyph-name="Ohungarumlaut" unicode="&#x150;" horiz-adv-x="800" d="M296 770 L501 930 L381 930 L291 775 L296 770 Z M486 770 L691 930 L571 930 L481 775 L486 770 Z M402 710 C219 710 50 574 50 347 C50 120 219 -10 398 -10 C581 -10 750 126 750 353 C750 580 581 710 402 710 L402 710 Z M420 40 C275 40 160 166 160 373 C160 549 243 660 380 660 C525 660 640 534 640 327 C640 151 557 40 420 40 L420 40 Z " />
<glyph glyph-name="ohungarumlaut" unicode="&#x151;" horiz-adv-x="580" d="M196 570 L361 770 L261 770 L191 575 L196 570 Z M366 570 L531 770 L431 770 L361 575 L366 570 Z M290 -10 C424 -10 535 85 535 240 C535 395 424 490 290 490 C156 490 45 395 45 240 C45 85 156 -10 290 -10 L290 -10 Z M306 30 C221 30 150 127 150 262 C150 361 183 450 274 450 C359 450 428 353 428 218 C428 119 397 30 306 30 L306 30 Z " />
<glyph glyph-name="OE" unicode="&#x152;" horiz-adv-x="1015" d="M873 50 L610 50 L610 335 L789 335 L857 245 L857 475 L789 385 L610 385 L610 650 L843 650 L940 521 L940 700 L398 700 C219 700 50 597 50 360 C50 133 219 0 398 0 L970 0 L970 179 L873 50 Z M510 50 L408 50 C259 50 160 159 160 350 C160 551 259 650 408 650 L510 650 L510 50 Z " />
<glyph glyph-name="oe" unicode="&#x153;" horiz-adv-x="915" d="M714 75 C603 75 545 158 545 274 C545 285 545 295 546 305 L875 305 C866 436 784 490 690 490 C613 490 538 454 494 386 C450 452 374 490 290 490 C156 490 45 395 45 240 C45 85 156 -10 290 -10 C375 -10 451 28 495 96 C536 30 606 -10 684 -10 C752 -10 830 20 865 125 L860 130 C802 86 754 75 714 75 L714 75 Z M676 453 C744 453 770 402 770 340 L552 340 C570 412 616 453 676 453 L676 453 Z M306 30 C221 30 150 127 150 262 C150 361 183 450 274 450 C359 450 428 353 428 218 C428 119 397 30 306 30 L306 30 Z " />
<glyph glyph-name="Racute" unicode="&#x154;" horiz-adv-x="685" d="M539 930 L419 930 L289 775 L294 770 L539 930 Z M407 342 C513 369 585 436 585 531 C585 648 476 700 327 700 L35 700 L115 640 L115 60 L35 0 L295 0 L215 60 L215 650 L317 650 C416 650 475 603 475 519 C475 448 433 379 269 370 C450 101 500 -25 710 -5 L710 0 C588 60 505 189 407 342 L407 342 Z " />
<glyph glyph-name="racute" unicode="&#x155;" horiz-adv-x="390" d="M176 570 L371 770 L261 770 L171 575 L176 570 Z M345 382 L380 480 C290 500 217 447 181 381 L176 383 L195 490 L35 420 L105 368 L105 60 L25 0 L315 0 L195 60 L195 356 C225 385 279 402 345 382 L345 382 Z " />
<glyph glyph-name="Rcommaaccent" unicode="&#x156;" horiz-adv-x="685" d="M407 342 C513 369 585 436 585 531 C585 648 476 700 327 700 L35 700 L115 640 L115 60 L35 0 L295 0 L215 60 L215 650 L317 650 C416 650 475 603 475 519 C475 448 433 379 269 370 C450 101 500 -25 710 -5 L710 0 C588 60 505 189 407 342 L407 342 Z M349 -65 C320 -65 302 -88 302 -110 C323 -125 337 -149 337 -175 C337 -205 320 -238 279 -264 L281 -268 C341 -246 399 -198 399 -129 C399 -82 376 -65 349 -65 L349 -65 Z " />
<glyph glyph-name="rcommaaccent" unicode="&#x157;" horiz-adv-x="390" d="M345 382 L380 480 C290 500 217 447 181 381 L176 383 L195 490 L35 420 L105 368 L105 60 L25 0 L315 0 L195 60 L195 356 C225 385 279 402 345 382 L345 382 Z M166 -65 C137 -65 119 -88 119 -110 C140 -125 154 -149 154 -175 C154 -205 137 -238 96 -264 L98 -268 C158 -246 216 -198 216 -129 C216 -82 193 -65 166 -65 L166 -65 Z " />
<glyph glyph-name="Rcaron" unicode="&#x158;" horiz-adv-x="685" d="M493 930 L488 935 L328 845 L168 935 L163 930 L328 750 L493 930 Z M407 342 C513 369 585 436 585 531 C585 648 476 700 327 700 L35 700 L115 640 L115 60 L35 0 L295 0 L215 60 L215 650 L317 650 C416 650 475 603 475 519 C475 448 433 379 269 370 C450 101 500 -25 710 -5 L710 0 C588 60 505 189 407 342 L407 342 Z " />
<glyph glyph-name="rcaron" unicode="&#x159;" horiz-adv-x="390" d="M370 785 L210 655 L50 785 L45 780 L210 560 L375 780 L370 785 Z M345 382 L380 480 C290 500 217 447 181 381 L176 383 L195 490 L35 420 L105 368 L105 60 L25 0 L315 0 L195 60 L195 356 C225 385 279 402 345 382 L345 382 Z " />
<glyph glyph-name="Sacute" unicode="&#x15a;" horiz-adv-x="580" d="M506 930 L386 930 L256 775 L261 770 L506 930 Z M169 539 C169 586 192 660 308 660 C333 660 355 656 377 648 L494 491 L494 710 L441 683 C396 701 352 710 304 710 C166 710 74 636 74 527 C74 293 430 351 430 163 C430 111 410 40 290 40 C249 40 213 49 176 67 L70 210 L70 -9 L132 22 C180 3 233 -10 293 -10 C429 -10 530 61 530 182 C530 431 169 386 169 539 L169 539 Z " />
<glyph glyph-name="sacute" unicode="&#x15b;" horiz-adv-x="460" d="M196 570 L391 770 L281 770 L191 575 L196 570 Z M145 376 C145 413 173 450 239 450 C259 450 279 446 297 440 L385 323 L385 490 L333 470 C303 482 270 490 235 490 C152 490 55 448 55 352 C55 197 309 230 309 106 C309 64 280 30 222 30 C194 30 164 38 134 53 L55 157 L55 -10 L117 14 C150 0 189 -10 228 -10 C316 -10 405 43 405 137 C405 298 145 264 145 376 L145 376 Z " />
<glyph glyph-name="Scedilla" unicode="&#x15e;" horiz-adv-x="580" d="M530 182 C530 431 169 386 169 539 C169 586 192 660 308 660 C333 660 355 656 377 648 L494 491 L494 710 L441 683 C396 701 352 710 304 710 C166 710 74 636 74 527 C74 293 430 351 430 163 C430 111 410 40 290 40 C249 40 213 49 176 67 L70 210 L70 -9 L132 22 C174 5 220 -7 271 -9 L243 -80 C297 -103 309 -123 309 -147 C309 -178 289 -190 262 -190 C234 -190 207 -178 184 -162 L179 -167 C191 -206 220 -250 285 -250 C338 -250 384 -220 384 -165 C384 -123 358 -90 286 -67 L309 -10 C437 -4 530 66 530 182 L530 182 Z " />
<glyph glyph-name="scedilla" unicode="&#x15f;" horiz-adv-x="460" d="M405 137 C405 298 145 264 145 376 C145 413 173 450 239 450 C259 450 279 446 297 440 L385 323 L385 490 L333 470 C303 482 270 490 235 490 C152 490 55 448 55 352 C55 197 309 230 309 106 C309 64 280 30 222 30 C194 30 164 38 134 53 L55 157 L55 -10 L117 14 C144 3 175 -6 206 -9 L178 -80 C232 -103 244 -123 244 -147 C244 -178 224 -190 197 -190 C169 -190 142 -178 119 -162 L114 -167 C126 -206 155 -250 220 -250 C273 -250 319 -220 319 -165 C319 -123 293 -90 221 -67 L244 -9 C327 -3 405 49 405 137 L405 137 Z " />
<glyph glyph-name="Scaron" unicode="&#x160;" horiz-adv-x="580" d="M460 930 L455 935 L295 845 L135 935 L130 930 L295 750 L460 930 Z M169 539 C169 586 192 660 308 660 C333 660 355 656 377 648 L494 491 L494 710 L441 683 C396 701 352 710 304 710 C166 710 74 636 74 527 C74 293 430 351 430 163 C430 111 410 40 290 40 C249 40 213 49 176 67 L70 210 L70 -9 L132 22 C180 3 233 -10 293 -10 C429 -10 530 61 530 182 C530 431 169 386 169 539 L169 539 Z " />
<glyph glyph-name="scaron" unicode="&#x161;" horiz-adv-x="460" d="M390 785 L230 655 L70 785 L65 780 L230 560 L395 780 L390 785 Z M145 376 C145 413 173 450 239 450 C259 450 279 446 297 440 L385 323 L385 490 L333 470 C303 482 270 490 235 490 C152 490 55 448 55 352 C55 197 309 230 309 106 C309 64 280 30 222 30 C194 30 164 38 134 53 L55 157 L55 -10 L117 14 C150 0 189 -10 228 -10 C316 -10 405 43 405 137 C405 298 145 264 145 376 L145 376 Z " />
<glyph glyph-name="uni0162" unicode="&#x162;" horiz-adv-x="680" d="M562 700 L118 700 L30 720 L30 521 L127 650 L290 650 L290 59 L211 0 L320 0 L288 -80 C342 -103 354 -123 354 -147 C354 -178 334 -190 307 -190 C279 -190 252 -178 229 -162 L224 -167 C236 -206 265 -250 330 -250 C383 -250 429 -220 429 -165 C429 -123 403 -90 331 -67 L358 0 L470 0 L390 60 L390 650 L553 650 L650 521 L650 720 L562 700 Z " />
<glyph glyph-name="uni0163" unicode="&#x163;" horiz-adv-x="439" d="M405 115 L400 120 C359 88 325 75 289 75 C215 75 204 129 204 175 L204 420 L383 420 L414 480 L204 480 L204 569 L5 420 L114 420 L114 135 C114 58 168 -10 256 -10 L266 -10 L238 -80 C292 -103 304 -123 304 -147 C304 -178 284 -190 257 -190 C229 -190 202 -178 179 -162 L174 -167 C186 -206 215 -250 280 -250 C333 -250 379 -220 379 -165 C379 -123 353 -90 281 -67 L307 -2 C350 13 387 50 405 115 L405 115 Z " />
<glyph glyph-name="Tcaron" unicode="&#x164;" horiz-adv-x="680" d="M505 930 L500 935 L340 845 L180 935 L175 930 L340 750 L505 930 Z M562 700 L118 700 L30 720 L30 521 L127 650 L290 650 L290 59 L211 0 L470 0 L390 60 L390 650 L553 650 L650 521 L650 720 L562 700 Z " />
<glyph glyph-name="tcaron" unicode="&#x165;" horiz-adv-x="470" d="M398 544 L445 780 L345 780 L393 544 L398 544 Z M383 420 L414 480 L204 480 L204 569 L5 420 L114 420 L114 135 C114 58 168 -10 256 -10 C320 -10 380 25 405 115 L400 120 C359 88 325 75 289 75 C215 75 204 129 204 175 L204 420 L383 420 Z " />
<glyph glyph-name="Tbar" unicode="&#x166;" horiz-adv-x="680" d="M562 700 L118 700 L30 720 L30 521 L127 650 L290 650 L290 395 L100 395 L100 345 L290 345 L290 59 L211 0 L470 0 L390 60 L390 345 L580 345 L580 395 L390 395 L390 650 L553 650 L650 521 L650 720 L562 700 Z " />
<glyph glyph-name="tbar" unicode="&#x167;" horiz-adv-x="439" d="M289 75 C215 75 204 129 204 175 L204 270 L374 270 L374 315 L204 315 L204 420 L383 420 L414 480 L204 480 L204 569 L5 420 L114 420 L114 315 L34 315 L34 270 L114 270 L114 135 C114 58 168 -10 256 -10 C320 -10 380 25 405 115 L400 120 C359 88 325 75 289 75 L289 75 Z " />
<glyph glyph-name="Umacron" unicode="&#x16a;" horiz-adv-x="775" d="M574 871 L228 871 L228 806 L574 806 L574 871 Z M765 700 L500 700 L620 640 L620 300 C620 129 544 45 410 45 C276 45 200 129 200 300 L200 640 L280 700 L20 700 L100 640 L100 290 C100 83 239 -10 404 -10 C577 -10 685 93 685 300 L685 640 L765 700 Z " />
<glyph glyph-name="umacron" unicode="&#x16b;" horiz-adv-x="585" d="M131 681 L131 616 L437 616 L437 681 L131 681 Z M485 90 L485 490 L325 420 L395 368 L395 114 C342 73 291 65 259 65 C211 65 170 86 170 174 L170 490 L10 420 L80 368 L80 129 C80 22 152 -10 211 -10 C297 -10 375 49 405 79 L410 79 L441 -10 L555 38 L485 90 Z " />
<glyph glyph-name="Uring" unicode="&#x16e;" horiz-adv-x="775" d="M400 731 C466 731 522 786 522 851 C522 917 466 973 400 973 C334 973 278 917 278 851 C278 786 334 731 400 731 L400 731 Z M400 935 C447 935 482 899 482 851 C482 805 447 769 400 769 C353 769 318 805 318 851 C318 899 353 935 400 935 L400 935 Z M765 700 L500 700 L620 640 L620 300 C620 129 544 45 410 45 C276 45 200 129 200 300 L200 640 L280 700 L20 700 L100 640 L100 290 C100 83 239 -10 404 -10 C577 -10 685 93 685 300 L685 640 L765 700 Z " />
<glyph glyph-name="uring" unicode="&#x16f;" horiz-adv-x="585" d="M283 561 C349 561 405 616 405 681 C405 747 349 803 283 803 C217 803 161 747 161 681 C161 616 217 561 283 561 L283 561 Z M283 597 C236 597 201 635 201 681 C201 729 236 767 283 767 C330 767 365 729 365 681 C365 635 330 597 283 597 L283 597 Z M485 90 L485 490 L325 420 L395 368 L395 114 C342 73 291 65 259 65 C211 65 170 86 170 174 L170 490 L10 420 L80 368 L80 129 C80 22 152 -10 211 -10 C297 -10 375 49 405 79 L410 79 L441 -10 L555 38 L485 90 Z " />
<glyph glyph-name="Uhungarumlaut" unicode="&#x170;" horiz-adv-x="775" d="M501 930 L381 930 L291 775 L296 770 L501 930 Z M486 770 L691 930 L571 930 L481 775 L486 770 Z M765 700 L500 700 L620 640 L620 300 C620 129 544 45 410 45 C276 45 200 129 200 300 L200 640 L280 700 L20 700 L100 640 L100 290 C100 83 239 -10 404 -10 C577 -10 685 93 685 300 L685 640 L765 700 Z " />
<glyph glyph-name="uhungarumlaut" unicode="&#x171;" horiz-adv-x="585" d="M189 570 L354 770 L254 770 L184 575 L189 570 Z M359 570 L524 770 L424 770 L354 575 L359 570 Z M485 90 L485 490 L325 420 L395 368 L395 114 C342 73 291 65 259 65 C211 65 170 86 170 174 L170 490 L10 420 L80 368 L80 129 C80 22 152 -10 211 -10 C297 -10 375 49 405 79 L410 79 L441 -10 L555 38 L485 90 Z " />
<glyph glyph-name="Uogonek" unicode="&#x172;" horiz-adv-x="775" d="M765 700 L500 700 L620 640 L620 300 C620 129 544 45 410 45 C276 45 200 129 200 300 L200 640 L280 700 L20 700 L100 640 L100 290 C100 83 239 -10 404 -10 C417 -10 431 -9 443 -8 C372 -55 345 -102 345 -156 C345 -210 382 -250 440 -250 C501 -250 533 -207 545 -167 L540 -162 C517 -178 498 -185 476 -185 C444 -185 420 -170 420 -129 C420 -82 451 -41 514 0 L491 0 C612 30 685 130 685 300 L685 640 L765 700 Z " />
<glyph glyph-name="uogonek" unicode="&#x173;" horiz-adv-x="585" d="M463 -185 C431 -185 407 -170 407 -129 C407 -82 442 -23 555 38 L485 90 L485 490 L325 420 L395 368 L395 114 C342 73 291 65 259 65 C211 65 170 86 170 174 L170 490 L10 420 L80 368 L80 129 C80 22 152 -10 211 -10 C297 -10 375 49 405 79 L410 79 L440 -8 C368 -55 332 -102 332 -156 C332 -210 369 -250 427 -250 C488 -250 520 -207 532 -167 L527 -162 C504 -178 485 -185 463 -185 L463 -185 Z " />
<glyph glyph-name="Wcircumflex" unicode="&#x174;" horiz-adv-x="1060" d="M533 860 L693 770 L698 775 L533 955 L368 775 L373 770 L533 860 Z M1060 700 L796 700 L916 640 L776 185 L598 640 L618 700 L465 700 L506 599 L354 185 L193 640 L273 700 L10 700 L81 646 L327 -30 L333 -30 L538 521 L762 -30 L768 -30 L980 640 L1060 700 Z " />
<glyph glyph-name="wcircumflex" unicode="&#x175;" horiz-adv-x="850" d="M440 640 L600 550 L605 555 L440 735 L275 555 L280 550 L440 640 Z M850 480 L622 480 L710 420 L612 150 L488 420 L515 480 L356 480 L406 372 L299 140 L174 420 L254 480 L0 480 L62 434 L271 -30 L277 -30 L436 308 L593 -30 L599 -30 L770 420 L850 480 Z " />
<glyph glyph-name="Ycircumflex" unicode="&#x176;" horiz-adv-x="725" d="M376 910 L536 780 L541 785 L376 1005 L211 785 L216 780 L376 910 Z M645 640 L725 700 L456 700 L575 641 L575 640 L387 369 L205 640 L285 700 L10 700 L80 647 L314 308 L314 59 L235 0 L494 0 L414 60 L414 308 L645 640 Z " />
<glyph glyph-name="ycircumflex" unicode="&#x177;" horiz-adv-x="570" d="M293 785 L128 565 L133 560 L293 690 L453 560 L458 565 L293 785 Z M490 420 L570 480 L342 480 L430 420 L316 155 L177 420 L257 480 L0 480 L69 429 L268 55 L127 -240 L370 -240 L233 -160 L490 420 Z " />
<glyph glyph-name="Ydieresis" unicode="&#x178;" horiz-adv-x="725" d="M276 826 C305 826 328 850 328 878 C328 907 305 930 276 930 C248 930 224 907 224 878 C224 850 248 826 276 826 L276 826 Z M477 826 C506 826 529 850 529 878 C529 907 506 930 477 930 C449 930 425 907 425 878 C425 850 449 826 477 826 L477 826 Z M645 640 L725 700 L456 700 L575 641 L575 640 L387 369 L205 640 L285 700 L10 700 L80 647 L314 308 L314 59 L235 0 L494 0 L414 60 L414 308 L645 640 Z " />
<glyph glyph-name="Zacute" unicode="&#x179;" horiz-adv-x="675" d="M574 930 L454 930 L324 775 L329 770 L574 930 Z M533 50 L175 50 L626 700 L164 700 L76 720 L76 521 L173 650 L476 650 L25 0 L630 0 L630 179 L533 50 Z " />
<glyph glyph-name="zacute" unicode="&#x17a;" horiz-adv-x="515" d="M249 570 L444 770 L334 770 L244 575 L249 570 Z M160 45 L490 480 L144 480 L56 500 L56 306 L153 435 L346 435 L15 0 L485 0 L485 174 L388 45 L160 45 Z " />
<glyph glyph-name="Zdotaccent" unicode="&#x17b;" horiz-adv-x="675" d="M359 781 C392 781 419 808 419 841 C419 874 392 901 359 901 C326 901 299 874 299 841 C299 808 326 781 359 781 L359 781 Z M533 50 L175 50 L626 700 L164 700 L76 720 L76 521 L173 650 L476 650 L25 0 L630 0 L630 179 L533 50 Z " />
<glyph glyph-name="zdotaccent" unicode="&#x17c;" horiz-adv-x="515" d="M279 591 C312 591 339 618 339 651 C339 684 312 711 279 711 C246 711 219 684 219 651 C219 618 246 591 279 591 L279 591 Z M160 45 L490 480 L144 480 L56 500 L56 306 L153 435 L346 435 L15 0 L485 0 L485 174 L388 45 L160 45 Z " />
<glyph glyph-name="Zcaron" unicode="&#x17d;" horiz-adv-x="675" d="M528 930 L523 935 L363 845 L203 935 L198 930 L363 750 L528 930 Z M533 50 L175 50 L626 700 L164 700 L76 720 L76 521 L173 650 L476 650 L25 0 L630 0 L630 179 L533 50 Z " />
<glyph glyph-name="zcaron" unicode="&#x17e;" horiz-adv-x="515" d="M443 785 L283 655 L123 785 L118 780 L283 560 L448 780 L443 785 Z M160 45 L490 480 L144 480 L56 500 L56 306 L153 435 L346 435 L15 0 L485 0 L485 174 L388 45 L160 45 Z " />
<glyph glyph-name="Scommaaccent" unicode="&#x218;" horiz-adv-x="580" d="M169 539 C169 586 192 660 308 660 C333 660 355 656 377 648 L494 491 L494 710 L441 683 C396 701 352 710 304 710 C166 710 74 636 74 527 C74 293 430 351 430 163 C430 111 410 40 290 40 C249 40 213 49 176 67 L70 210 L70 -9 L132 22 C180 3 233 -10 293 -10 C429 -10 530 61 530 182 C530 431 169 386 169 539 L169 539 Z M296 -65 C267 -65 249 -88 249 -110 C270 -125 284 -149 284 -175 C284 -205 267 -238 226 -264 L228 -268 C288 -246 346 -198 346 -129 C346 -82 323 -65 296 -65 L296 -65 Z " />
<glyph glyph-name="scommaaccent" unicode="&#x219;" horiz-adv-x="460" d="M145 376 C145 413 173 450 239 450 C259 450 279 446 297 440 L385 323 L385 490 L333 470 C303 482 270 490 235 490 C152 490 55 448 55 352 C55 197 309 230 309 106 C309 64 280 30 222 30 C194 30 164 38 134 53 L55 157 L55 -10 L117 14 C150 0 189 -10 228 -10 C316 -10 405 43 405 137 C405 298 145 264 145 376 L145 376 Z M231 -65 C202 -65 184 -88 184 -110 C205 -125 219 -149 219 -175 C219 -205 202 -238 161 -264 L163 -268 C223 -246 281 -198 281 -129 C281 -82 258 -65 231 -65 L231 -65 Z " />
<glyph glyph-name="uni021A" unicode="&#x21a;" horiz-adv-x="680" d="M562 700 L118 700 L30 720 L30 521 L127 650 L290 650 L290 59 L211 0 L470 0 L390 60 L390 650 L553 650 L650 521 L650 720 L562 700 Z M341 -65 C312 -65 294 -88 294 -110 C315 -125 329 -149 329 -175 C329 -205 312 -238 271 -264 L273 -268 C333 -246 391 -198 391 -129 C391 -82 368 -65 341 -65 L341 -65 Z " />
<glyph glyph-name="uni021B" unicode="&#x21b;" horiz-adv-x="439" d="M289 75 C215 75 204 129 204 175 L204 420 L383 420 L414 480 L204 480 L204 569 L5 420 L114 420 L114 135 C114 58 168 -10 256 -10 C320 -10 380 25 405 115 L400 120 C359 88 325 75 289 75 L289 75 Z M291 -65 C262 -65 244 -88 244 -110 C265 -125 279 -149 279 -175 C279 -205 262 -238 221 -264 L223 -268 C283 -246 341 -198 341 -129 C341 -82 318 -65 291 -65 L291 -65 Z " />
<glyph glyph-name="circumflex" unicode="&#x2c6;" horiz-adv-x="330" d="M165 735 L0 555 L5 550 L165 640 L325 550 L330 555 L165 735 Z " />
<glyph glyph-name="caron" unicode="&#x2c7;" horiz-adv-x="330" d="M325 715 L165 625 L5 715 L0 710 L165 530 L330 710 L325 715 Z " />
<glyph glyph-name="breve" unicode="&#x2d8;" horiz-adv-x="310" d="M305 705 C262 643 218 620 155 620 C92 620 48 643 5 705 L0 700 C5 618 70 550 155 550 C240 550 305 618 310 700 L305 705 Z " />
<glyph glyph-name="dotaccent" unicode="&#x2d9;" horiz-adv-x="120" d="M60 561 C93 561 120 588 120 621 C120 654 93 681 60 681 C27 681 0 654 0 621 C0 588 27 561 60 561 L60 561 Z " />
<glyph glyph-name="ring" unicode="&#x2da;" horiz-adv-x="244" d="M122 511 C188 511 244 566 244 631 C244 697 188 753 122 753 C56 753 0 697 0 631 C0 566 56 511 122 511 L122 511 Z M122 549 C75 549 40 585 40 631 C40 679 75 715 122 715 C169 715 204 679 204 631 C204 585 169 549 122 549 L122 549 Z " />
<glyph glyph-name="ogonek" unicode="&#x2db;" horiz-adv-x="210" d="M144 0 L86 0 C5 -50 -25 -99 -25 -156 C-25 -210 12 -250 70 -250 C131 -250 163 -207 175 -167 L170 -162 C147 -178 128 -185 106 -185 C74 -185 50 -170 50 -129 C50 -82 81 -41 144 0 L144 0 Z " />
<glyph glyph-name="tilde" unicode="&#x2dc;" horiz-adv-x="360" d="M262 680 C199 680 137 623 82 623 C57 623 24 635 5 680 L0 680 C3 609 35 553 98 553 C161 553 223 610 278 610 C303 610 336 598 355 553 L360 553 C357 624 325 680 262 680 L262 680 Z " />
<glyph glyph-name="hungarumlaut" unicode="&#x2dd;" horiz-adv-x="400" d="M5 550 L210 710 L90 710 L0 555 L5 550 Z M195 550 L400 710 L280 710 L190 555 L195 550 Z " />
<glyph glyph-name="gravecomb" unicode="&#x300;" d="M-5 570 L0 575 L-90 770 L-200 770 L-5 570 Z " />
<glyph glyph-name="acutecomb" unicode="&#x301;" d="M-195 570 L0 770 L-110 770 L-200 575 L-195 570 Z " />
<glyph glyph-name="uni0302" unicode="&#x302;" d="M-165 785 L-330 565 L-325 560 L-165 690 L-5 560 L0 565 L-165 785 Z " />
<glyph glyph-name="tildecomb" unicode="&#x303;" d="M-98 720 C-161 720 -203 663 -258 663 C-283 663 -316 675 -335 720 L-340 720 C-337 649 -305 593 -242 593 C-179 593 -137 650 -82 650 C-57 650 -24 638 -5 593 L0 593 C-3 664 -35 720 -98 720 L-98 720 Z " />
<glyph glyph-name="uni0304" unicode="&#x304;" d="M-306 681 L-306 616 L0 616 L0 681 L-306 681 Z " />
<glyph glyph-name="uni0306" unicode="&#x306;" d="M-5 775 C-48 683 -102 660 -155 660 C-208 660 -262 683 -305 775 L-310 770 C-305 658 -230 590 -155 590 C-80 590 -5 658 0 770 L-5 775 Z " />
<glyph glyph-name="uni0307" unicode="&#x307;" d="M-60 591 C-27 591 0 618 0 651 C0 684 -27 711 -60 711 C-93 711 -120 684 -120 651 C-120 618 -93 591 -60 591 L-60 591 Z " />
<glyph glyph-name="uni0308" unicode="&#x308;" d="M-253 606 C-224 606 -201 630 -201 658 C-201 687 -224 710 -253 710 C-281 710 -305 687 -305 658 C-305 630 -281 606 -253 606 L-253 606 Z M-52 606 C-23 606 0 630 0 658 C0 687 -23 710 -52 710 C-80 710 -104 687 -104 658 C-104 630 -80 606 -52 606 L-52 606 Z " />
<glyph glyph-name="uni030A" unicode="&#x30a;" d="M-122 561 C-56 561 0 616 0 681 C0 747 -56 803 -122 803 C-188 803 -244 747 -244 681 C-244 616 -188 561 -122 561 L-122 561 Z M-122 597 C-169 597 -204 635 -204 681 C-204 729 -169 767 -122 767 C-75 767 -40 729 -40 681 C-40 635 -75 597 -122 597 L-122 597 Z " />
<glyph glyph-name="uni030B" unicode="&#x30b;" d="M-335 570 L-170 770 L-270 770 L-340 575 L-335 570 Z M-165 570 L0 770 L-100 770 L-170 575 L-165 570 Z " />
<glyph glyph-name="uni030C" unicode="&#x30c;" d="M-5 785 L-165 655 L-325 785 L-330 780 L-165 560 L0 780 L-5 785 Z " />
<glyph glyph-name="uni0312" unicode="&#x312;" d="" />
<glyph glyph-name="uni0326" unicode="&#x326;" d="M-46 -65 C-75 -65 -93 -88 -93 -110 C-72 -125 -58 -149 -58 -175 C-58 -205 -75 -238 -116 -264 L-114 -268 C-54 -246 4 -198 4 -129 C4 -82 -19 -65 -46 -65 L-46 -65 Z " />
<glyph glyph-name="uni0327" unicode="&#x327;" d="M-98 -67 L-71 0 L-109 0 L-141 -80 C-87 -103 -75 -123 -75 -147 C-75 -178 -95 -190 -122 -190 C-150 -190 -177 -178 -200 -162 L-205 -167 C-193 -206 -164 -250 -99 -250 C-46 -250 0 -220 0 -165 C0 -123 -26 -90 -98 -67 L-98 -67 Z " />
<glyph glyph-name="uni0328" unicode="&#x328;" d="M-69 20 C-156 -33 -220 -90 -220 -153 C-220 -210 -184 -250 -125 -250 C-64 -250 -32 -207 -20 -167 L-25 -162 C-48 -178 -67 -185 -89 -185 C-120 -185 -145 -172 -145 -125 C-145 -79 -102 -25 -44 20 L-69 20 Z " />
<glyph glyph-name="uni0335" unicode="&#x335;" d="M-579 395 L-579 350 L-239 350 L-239 395 L-579 395 Z " />
<glyph glyph-name="uni0336" unicode="&#x336;" d="M-580 293 L-580 248 L-70 248 L-70 293 L-580 293 Z " />
<glyph glyph-name="uni0338" unicode="&#x338;" d="" />
<glyph glyph-name="uni0401" unicode="&#x401;" horiz-adv-x="620" d="M210 786 C239 786 262 810 262 838 C262 867 239 890 210 890 C182 890 158 867 158 838 C158 810 182 786 210 786 L210 786 Z M411 786 C440 786 463 810 463 838 C463 867 440 890 411 890 C383 890 359 867 359 838 C359 810 383 786 411 786 L411 786 Z M478 50 L215 50 L215 335 L394 335 L462 245 L462 475 L394 385 L215 385 L215 650 L448 650 L545 521 L545 700 L35 700 L115 640 L115 60 L35 0 L575 0 L575 179 L478 50 Z " />
<glyph glyph-name="uni0410" unicode="&#x410;" horiz-adv-x="707" d="M642 56 L353 730 L347 730 L35 0 L244 0 L125 60 L211 265 L440 265 L524 60 L444 0 L717 0 L642 56 Z M232 315 L326 541 L419 315 L232 315 Z " />
<glyph glyph-name="uni0411" unicode="&#x411;" horiz-adv-x="660" d="M347 410 L215 410 L215 650 L468 650 L565 521 L565 700 L35 700 L115 640 L115 60 L35 0 L347 0 C506 0 615 80 615 212 C615 344 506 410 347 410 L347 410 Z M337 50 L215 50 L215 360 L337 360 C446 360 505 301 505 205 C505 109 446 50 337 50 L337 50 Z " />
<glyph glyph-name="uni0412" unicode="&#x412;" horiz-adv-x="675" d="M469 364 C543 392 590 447 590 521 C590 633 491 700 332 700 L35 700 L115 640 L115 60 L35 0 L337 0 C516 0 630 76 630 196 C630 289 567 343 469 364 L469 364 Z M332 650 C441 650 485 591 485 515 C485 444 441 385 332 385 L215 385 L215 650 L332 650 Z M337 50 L215 50 L215 335 L337 335 C466 335 520 279 520 190 C520 106 466 50 337 50 L337 50 Z " />
<glyph glyph-name="uni0413" unicode="&#x413;" horiz-adv-x="575" d="M545 700 L35 700 L115 640 L115 60 L35 0 L335 0 L215 60 L215 650 L448 650 L545 521 L545 700 Z " />
<glyph glyph-name="uni0414" unicode="&#x414;" horiz-adv-x="750" d="M635 640 L715 700 L165 700 L244 641 C239 420 206 152 104 50 L35 50 L35 -200 L133 0 L617 0 L715 -200 L715 50 L635 50 L635 640 Z M210 50 C283 182 304 401 305 650 L535 650 L535 50 L210 50 Z " />
<glyph glyph-name="uni0415" unicode="&#x415;" horiz-adv-x="620" d="M478 50 L215 50 L215 335 L394 335 L462 245 L462 475 L394 385 L215 385 L215 650 L448 650 L545 521 L545 700 L35 700 L115 640 L115 60 L35 0 L575 0 L575 179 L478 50 Z " />
<glyph glyph-name="uni0416" unicode="&#x416;" horiz-adv-x="961" d="M158 640 L264 700 L24 700 L310 385 C183 160 124 54 -25 0 L-25 -5 C185 -25 226 52 416 361 L158 640 Z M525 640 L605 700 L355 700 L435 640 L435 60 L355 0 L605 0 L525 60 L525 640 Z M651 385 L937 700 L697 700 L803 640 L545 361 C735 52 776 -25 986 -5 L986 0 C837 54 778 160 651 385 L651 385 Z " />
<glyph glyph-name="uni0417" unicode="&#x417;" horiz-adv-x="580" d="M378 367 C477 395 520 458 520 532 C520 639 432 710 281 710 C229 710 177 702 125 683 L71 710 L71 491 L186 646 C212 655 238 660 265 660 C366 660 410 593 410 530 C410 448 336 380 212 410 L212 330 C333 360 425 285 425 194 C425 125 371 70 267 70 C200 70 117 93 35 188 L30 183 C73 48 171 -10 287 -10 C419 -10 535 64 535 188 C535 285 464 348 378 367 L378 367 Z " />
<glyph glyph-name="uni0418" unicode="&#x418;" horiz-adv-x="830" d="M715 640 L795 700 L615 700 L215 105 L215 640 L295 700 L35 700 L115 640 L115 60 L35 0 L215 0 L615 595 L615 60 L535 0 L795 0 L715 60 L715 640 Z " />
<glyph glyph-name="uni0419" unicode="&#x419;" horiz-adv-x="830" d="M415 770 C500 770 565 838 570 920 L565 925 C522 863 478 840 415 840 C352 840 308 863 265 925 L260 920 C265 838 330 770 415 770 L415 770 Z M715 640 L795 700 L615 700 L215 105 L215 640 L295 700 L35 700 L115 640 L115 60 L35 0 L215 0 L615 595 L615 60 L535 0 L795 0 L715 60 L715 640 Z " />
<glyph glyph-name="uni041A" unicode="&#x41a;" horiz-adv-x="720" d="M215 640 L295 700 L35 700 L115 640 L115 60 L35 0 L295 0 L215 60 L215 640 Z M380 385 L696 700 L449 700 L555 640 L274 361 C484 52 535 -25 745 -5 L745 0 C596 54 537 160 380 385 L380 385 Z " />
<glyph glyph-name="uni041B" unicode="&#x41b;" horiz-adv-x="690" d="M575 640 L655 700 L100 700 L179 641 C169 221 128 110 35 100 L35 -10 C227 -7 232 184 239 650 L475 650 L475 60 L395 0 L655 0 L575 60 L575 640 Z " />
<glyph glyph-name="uni041C" unicode="&#x41c;" horiz-adv-x="930" d="M815 60 L815 641 L894 700 L746 700 L469 275 L173 700 L35 700 L115 640 L115 60 L35 0 L300 0 L180 60 L180 525 L448 140 L715 545 L715 60 L635 0 L895 0 L815 60 Z " />
<glyph glyph-name="uni041D" unicode="&#x41d;" horiz-adv-x="830" d="M715 640 L795 700 L535 700 L615 640 L615 395 L215 395 L215 640 L295 700 L35 700 L115 640 L115 60 L35 0 L295 0 L215 60 L215 345 L615 345 L615 60 L535 0 L795 0 L715 60 L715 640 Z " />
<glyph glyph-name="uni041E" unicode="&#x41e;" horiz-adv-x="800" d="M402 710 C219 710 50 574 50 347 C50 120 219 -10 398 -10 C581 -10 750 126 750 353 C750 580 581 710 402 710 L402 710 Z M420 40 C275 40 160 166 160 373 C160 549 243 660 380 660 C525 660 640 534 640 327 C640 151 557 40 420 40 L420 40 Z " />
<glyph glyph-name="uni041F" unicode="&#x41f;" horiz-adv-x="810" d="M695 640 L775 700 L35 700 L115 640 L115 60 L35 0 L295 0 L215 60 L215 650 L595 650 L595 60 L515 0 L775 0 L695 60 L695 640 Z " />
<glyph glyph-name="uni0420" unicode="&#x420;" horiz-adv-x="620" d="M327 290 C486 290 595 380 595 512 C595 644 486 700 327 700 L35 700 L115 640 L115 60 L35 0 L335 0 L215 60 L215 290 L327 290 Z M215 650 L317 650 C426 650 485 596 485 500 C485 404 426 340 317 340 L215 340 L215 650 Z " />
<glyph glyph-name="uni0421" unicode="&#x421;" horiz-adv-x="710" d="M665 178 C585 98 493 70 417 70 C257 70 155 194 155 370 C155 559 272 660 431 660 C459 660 490 657 521 648 L650 475 L650 710 L593 684 C540 702 482 710 433 710 C232 710 50 574 50 346 C50 125 221 -10 397 -10 C492 -10 607 29 670 173 L665 178 Z " />
<glyph glyph-name="uni0422" unicode="&#x422;" horiz-adv-x="680" d="M562 700 L118 700 L30 720 L30 521 L127 650 L290 650 L290 59 L211 0 L470 0 L390 60 L390 650 L553 650 L650 521 L650 720 L562 700 Z " />
<glyph glyph-name="uni0423" unicode="&#x423;" horiz-adv-x="725" d="M725 700 L456 700 L575 641 L575 640 L399 312 L201 640 L281 700 L10 700 L75 651 L349 221 C281 125 224 113 149 100 L149 -10 C268 -7 319 58 387 170 L645 640 L725 700 Z " />
<glyph glyph-name="uni0424" unicode="&#x424;" horiz-adv-x="820" d="M527 105 C686 105 795 205 795 357 C795 509 686 595 527 595 L455 595 L455 650 L535 710 L285 710 L365 650 L365 595 L293 595 C134 595 25 495 25 343 C25 191 134 105 293 105 L365 105 L365 50 L285 -10 L535 -10 L455 50 L455 105 L527 105 Z M365 155 L303 155 C194 155 135 234 135 350 C135 466 194 545 303 545 L365 545 L365 155 Z M455 545 L517 545 C626 545 685 466 685 350 C685 234 626 155 517 155 L455 155 L455 545 Z " />
<glyph glyph-name="uni0425" unicode="&#x425;" horiz-adv-x="708" d="M648 56 L419 363 L634 640 L714 700 L473 700 L561 640 L383 412 L213 640 L293 700 L20 700 L88 649 L312 347 L90 60 L10 0 L251 0 L163 60 L349 299 L526 60 L446 0 L723 0 L648 56 Z " />
<glyph glyph-name="uni0426" unicode="&#x426;" horiz-adv-x="750" d="M660 640 L740 700 L480 700 L560 640 L560 50 L200 50 L200 640 L280 700 L20 700 L100 640 L100 60 L20 0 L640 0 L738 -200 L738 50 L660 50 L660 640 Z " />
<glyph glyph-name="uni0427" unicode="&#x427;" horiz-adv-x="760" d="M645 640 L725 700 L465 700 L545 640 L545 350 C488 332 430 320 374 320 C234 320 205 385 205 501 L205 640 L285 700 L25 700 L105 640 L105 490 C105 338 177 270 356 270 C427 270 484 282 545 300 L545 60 L425 0 L725 0 L645 60 L645 640 Z " />
<glyph glyph-name="uni0428" unicode="&#x428;" horiz-adv-x="1090" d="M975 640 L1055 700 L795 700 L875 640 L875 50 L595 50 L595 640 L675 700 L415 700 L495 640 L495 50 L215 50 L215 640 L295 700 L35 700 L115 640 L115 60 L35 0 L1055 0 L975 60 L975 640 Z " />
<glyph glyph-name="uni0429" unicode="&#x429;" horiz-adv-x="1090" d="M975 640 L1055 700 L795 700 L875 640 L875 50 L595 50 L595 640 L675 700 L415 700 L495 640 L495 50 L215 50 L215 640 L295 700 L35 700 L115 640 L115 60 L35 0 L957 0 L1055 -200 L1055 50 L975 50 L975 640 Z " />
<glyph glyph-name="uni042A" unicode="&#x42a;" horiz-adv-x="805" d="M512 410 L380 410 L380 640 L500 700 L30 700 L30 521 L127 650 L280 650 L280 60 L200 0 L512 0 C671 0 780 80 780 212 C780 344 671 410 512 410 L512 410 Z M502 50 L380 50 L380 360 L502 360 C611 360 670 301 670 205 C670 109 611 50 502 50 L502 50 Z " />
<glyph glyph-name="uni042B" unicode="&#x42b;" horiz-adv-x="950" d="M327 410 L215 410 L215 640 L335 700 L35 700 L115 640 L115 60 L35 0 L327 0 C486 0 595 80 595 212 C595 344 486 410 327 410 L327 410 Z M830 640 L910 700 L650 700 L730 640 L730 60 L650 0 L910 0 L830 60 L830 640 Z M317 50 L215 50 L215 360 L317 360 C426 360 485 301 485 205 C485 109 426 50 317 50 L317 50 Z " />
<glyph glyph-name="uni042C" unicode="&#x42c;" horiz-adv-x="640" d="M347 410 L215 410 L215 640 L335 700 L35 700 L115 640 L115 60 L35 0 L347 0 C506 0 615 80 615 212 C615 344 506 410 347 410 L347 410 Z M337 50 L215 50 L215 360 L337 360 C446 360 505 301 505 205 C505 109 446 50 337 50 L337 50 Z " />
<glyph glyph-name="uni042D" unicode="&#x42d;" horiz-adv-x="720" d="M308 710 C257 710 188 701 129 683 L70 710 L70 475 L191 638 C234 650 275 655 307 655 C460 655 555 552 564 385 L201 385 L201 335 L564 335 C556 163 456 70 307 70 C225 70 125 98 45 168 L40 163 C101 23 243 -10 332 -10 C509 -10 670 122 670 351 C670 580 508 710 308 710 L308 710 Z " />
<glyph glyph-name="uni042E" unicode="&#x42e;" horiz-adv-x="1035" d="M677 710 C523 710 373 589 357 385 L215 385 L215 640 L295 700 L35 700 L115 640 L115 60 L35 0 L295 0 L215 60 L215 335 L355 335 C361 115 517 -10 673 -10 C836 -10 995 126 995 353 C995 580 836 710 677 710 L677 710 Z M695 40 C570 40 465 166 465 375 C465 549 538 660 655 660 C780 660 885 534 885 325 C885 151 812 40 695 40 L695 40 Z " />
<glyph glyph-name="uni042F" unicode="&#x42f;" horiz-adv-x="685" d="M570 640 L650 700 L358 700 C209 700 100 648 100 531 C100 436 172 369 278 342 C180 189 97 60 -25 0 L-25 -5 C185 -25 235 101 416 370 C252 379 210 448 210 519 C210 603 269 650 368 650 L470 650 L470 60 L390 0 L650 0 L570 60 L570 640 Z " />
<glyph glyph-name="uni0430" unicode="&#x430;" horiz-adv-x="535" d="M520 80 C496 62 480 57 461 57 C434 57 413 68 413 115 L413 341 C413 438 363 490 273 490 C201 490 119 457 71 370 L76 365 C127 401 176 415 223 415 C292 415 323 384 323 306 L323 222 L118 222 C79 201 50 160 50 107 C50 34 105 -10 185 -10 C247 -10 295 17 328 64 L333 64 C343 18 376 -10 426 -10 C468 -10 500 9 525 75 L520 80 Z M215 50 C180 50 145 67 145 121 C145 149 153 170 167 187 L323 187 L323 104 C284 67 249 50 215 50 L215 50 Z " />
<glyph glyph-name="uni0431" unicode="&#x431;" horiz-adv-x="575" d="M285 470 C212 470 147 442 103 393 C126 548 181 662 252 662 L422 662 C473 662 501 683 501 729 C501 738 500 756 490 780 L485 780 C468 752 444 747 402 747 L172 747 C105 646 45 500 45 230 C45 85 151 -10 285 -10 C419 -10 530 85 530 230 C530 375 419 470 285 470 L285 470 Z M304 30 C214 30 145 127 145 252 C145 341 180 430 266 430 C356 430 423 333 423 207 C423 119 390 30 304 30 L304 30 Z " />
<glyph glyph-name="uni0432" unicode="&#x432;" horiz-adv-x="580" d="M421 250 C481 265 515 300 515 355 C515 440 436 480 312 480 L25 480 L105 420 L105 60 L25 0 L332 0 C456 0 535 57 535 142 C535 203 493 238 421 250 L421 250 Z M195 435 L312 435 C381 435 415 406 415 350 C415 294 381 265 312 265 L195 265 L195 435 Z M332 45 L195 45 L195 220 L332 220 C401 220 435 189 435 133 C435 77 401 45 332 45 L332 45 Z " />
<glyph glyph-name="uni0433" unicode="&#x433;" horiz-adv-x="475" d="M455 480 L25 480 L105 420 L105 60 L25 0 L314 0 L195 60 L195 435 L358 435 L455 306 L455 480 Z " />
<glyph glyph-name="uni0434" unicode="&#x434;" horiz-adv-x="600" d="M500 420 L580 480 L110 480 L189 421 C181 266 142 131 79 50 L20 50 L20 -200 L118 0 L482 0 L580 -200 L580 50 L500 50 L500 420 Z M185 50 C229 162 243 282 244 441 L244 430 L410 430 L410 50 L185 50 Z " />
<glyph glyph-name="uni0435" unicode="&#x435;" horiz-adv-x="505" d="M304 75 C193 75 135 158 135 274 C135 285 135 295 136 305 L465 305 C456 436 374 490 280 490 C160 490 45 403 45 244 C45 94 148 -10 274 -10 C342 -10 420 20 455 125 L450 130 C392 86 344 75 304 75 L304 75 Z M266 453 C334 453 360 402 360 340 L142 340 C160 412 206 453 266 453 L266 453 Z " />
<glyph glyph-name="uni0436" unicode="&#x436;" horiz-adv-x="820" d="M154 420 L235 480 L34 480 L232 267 C144 116 102 56 0 0 L0 -5 C157 -25 193 17 320 244 L154 420 Z M450 420 L530 480 L290 480 L370 420 L370 60 L290 0 L530 0 L450 60 L450 420 Z M588 267 L786 480 L585 480 L666 420 L500 244 C627 17 663 -25 820 -5 L820 0 C718 56 676 116 588 267 L588 267 Z " />
<glyph glyph-name="uni0437" unicode="&#x437;" horiz-adv-x="465" d="M298 252 C356 270 405 303 405 366 C405 444 329 490 213 490 C139 490 76 473 34 450 L91 373 L191 450 C262 450 305 420 305 370 C305 316 265 271 158 281 L158 221 C272 232 315 196 315 143 C315 92 265 70 199 70 C142 70 83 86 25 140 L20 135 C57 15 154 -10 227 -10 C329 -10 420 38 420 124 C420 190 367 240 298 252 L298 252 Z " />
<glyph glyph-name="uni0438" unicode="&#x438;" horiz-adv-x="635" d="M530 420 L610 480 L440 480 L195 97 L195 420 L275 480 L25 480 L105 420 L105 60 L25 0 L195 0 L440 383 L440 60 L360 0 L610 0 L530 60 L530 420 Z " />
<glyph glyph-name="uni0439" unicode="&#x439;" horiz-adv-x="635" d="M318 590 C393 590 468 658 473 770 L468 775 C425 683 371 660 318 660 C265 660 211 683 168 775 L163 770 C168 658 243 590 318 590 L318 590 Z M530 420 L610 480 L440 480 L195 97 L195 420 L275 480 L25 480 L105 420 L105 60 L25 0 L195 0 L440 383 L440 60 L360 0 L610 0 L530 60 L530 420 Z " />
<glyph glyph-name="uni043A" unicode="&#x43a;" horiz-adv-x="580" d="M195 420 L275 480 L25 480 L105 420 L105 60 L25 0 L275 0 L195 60 L195 420 Z M334 275 L546 480 L305 480 L416 420 L240 254 C377 27 423 -25 580 -5 L580 0 C473 56 427 124 334 275 L334 275 Z " />
<glyph glyph-name="uni043B" unicode="&#x43b;" horiz-adv-x="570" d="M465 420 L545 480 L90 480 L168 422 C157 214 120 111 25 85 L25 -10 C199 -7 214 234 222 430 L375 430 L375 60 L295 0 L545 0 L465 60 L465 420 Z " />
<glyph glyph-name="uni043C" unicode="&#x43c;" horiz-adv-x="750" d="M645 60 L645 421 L724 480 L576 480 L379 212 L163 480 L25 480 L105 420 L105 60 L25 0 L290 0 L170 60 L170 335 L358 100 L545 353 L545 60 L465 0 L725 0 L645 60 Z " />
<glyph glyph-name="uni043D" unicode="&#x43d;" horiz-adv-x="635" d="M530 420 L610 480 L360 480 L440 420 L440 280 L195 280 L195 420 L275 480 L25 480 L105 420 L105 60 L25 0 L275 0 L195 60 L195 230 L440 230 L440 60 L360 0 L610 0 L530 60 L530 420 Z " />
<glyph glyph-name="uni043E" unicode="&#x43e;" horiz-adv-x="580" d="M290 -10 C424 -10 535 85 535 240 C535 395 424 490 290 490 C156 490 45 395 45 240 C45 85 156 -10 290 -10 L290 -10 Z M306 30 C221 30 150 127 150 262 C150 361 183 450 274 450 C359 450 428 353 428 218 C428 119 397 30 306 30 L306 30 Z " />
<glyph glyph-name="uni043F" unicode="&#x43f;" horiz-adv-x="615" d="M510 420 L590 480 L25 480 L105 420 L105 60 L25 0 L275 0 L195 60 L195 430 L420 430 L420 60 L340 0 L590 0 L510 60 L510 420 Z " />
<glyph glyph-name="uni0440" unicode="&#x440;" horiz-adv-x="590" d="M286 -10 C418 -10 545 80 545 252 C545 411 437 490 335 490 C259 490 199 446 170 401 L165 406 L180 490 L20 420 L90 368 L90 -180 L10 -240 L299 -240 L180 -181 L180 5 C216 -6 258 -10 286 -10 L286 -10 Z M303 415 C391 415 445 345 445 230 C445 105 381 30 293 30 C236 30 180 62 180 122 L180 366 C214 398 260 415 303 415 L303 415 Z " />
<glyph glyph-name="uni0441" unicode="&#x441;" horiz-adv-x="485" d="M304 75 C192 75 135 160 135 271 C135 386 196 450 282 450 L392 356 L455 440 C415 470 362 490 292 490 C183 490 45 414 45 243 C45 95 148 -10 274 -10 C342 -10 420 20 455 125 L450 130 C392 86 344 75 304 75 L304 75 Z " />
<glyph glyph-name="uni0442" unicode="&#x442;" horiz-adv-x="510" d="M490 480 L20 480 L20 306 L117 435 L210 435 L210 60 L130 0 L380 0 L300 60 L300 435 L393 435 L490 306 L490 480 Z " />
<glyph glyph-name="uni0443" unicode="&#x443;" horiz-adv-x="570" d="M490 420 L570 480 L342 480 L430 420 L316 155 L177 420 L257 480 L0 480 L69 429 L268 55 L127 -240 L370 -240 L233 -160 L490 420 Z " />
<glyph glyph-name="uni0444" unicode="&#x444;" horiz-adv-x="830" d="M596 490 C534 490 486 463 455 424 L455 780 L305 714 L375 662 L375 425 C343 466 294 490 243 490 C148 490 45 410 45 232 C45 51 142 -10 234 -10 C296 -10 344 17 375 56 L375 -180 L295 -240 L535 -240 L455 -180 L455 55 C487 14 536 -10 587 -10 C682 -10 785 70 785 248 C785 429 688 490 596 490 L596 490 Z M266 55 C192 55 145 125 145 240 C145 355 192 425 266 425 C303 425 341 408 375 376 L375 104 C341 72 303 55 266 55 L266 55 Z M564 55 C527 55 489 72 455 104 L455 376 C489 408 527 425 564 425 C638 425 685 355 685 240 C685 125 638 55 564 55 L564 55 Z " />
<glyph glyph-name="uni0445" unicode="&#x445;" horiz-adv-x="525" d="M467 51 L310 251 L444 420 L524 480 L291 480 L379 420 L278 292 L178 420 L258 480 L-10 480 L60 427 L211 234 L70 60 L-10 0 L225 0 L137 60 L244 193 L348 60 L268 0 L535 0 L467 51 Z " />
<glyph glyph-name="uni0446" unicode="&#x446;" horiz-adv-x="600" d="M510 420 L590 480 L340 480 L420 420 L420 50 L195 50 L195 420 L275 480 L25 480 L105 420 L105 60 L25 0 L492 0 L590 -200 L590 50 L510 50 L510 420 Z " />
<glyph glyph-name="uni0447" unicode="&#x447;" horiz-adv-x="610" d="M505 420 L585 480 L335 480 L415 420 L415 264 C362 223 311 215 279 215 C221 215 180 236 180 324 L180 420 L260 480 L10 480 L90 420 L90 279 C90 172 162 140 231 140 C309 140 380 188 415 220 L415 60 L335 0 L585 0 L505 60 L505 420 Z " />
<glyph glyph-name="uni0448" unicode="&#x448;" horiz-adv-x="900" d="M795 420 L875 480 L625 480 L705 420 L705 50 L495 50 L495 420 L575 480 L325 480 L405 420 L405 50 L195 50 L195 420 L275 480 L25 480 L105 420 L105 60 L25 0 L875 0 L795 60 L795 420 Z " />
<glyph glyph-name="uni0449" unicode="&#x449;" horiz-adv-x="900" d="M795 420 L875 480 L625 480 L705 420 L705 50 L495 50 L495 420 L575 480 L325 480 L405 420 L405 50 L195 50 L195 420 L275 480 L25 480 L105 420 L105 60 L25 0 L777 0 L875 -200 L875 50 L795 50 L795 420 Z " />
<glyph glyph-name="uni044A" unicode="&#x44a;" horiz-adv-x="705" d="M457 290 L300 290 L300 420 L380 480 L20 480 L20 306 L117 435 L210 435 L210 60 L130 0 L457 0 C561 0 660 55 660 152 C660 249 561 290 457 290 L457 290 Z M437 45 L300 45 L300 245 L437 245 C516 245 560 216 560 145 C560 74 516 45 437 45 L437 45 Z " />
<glyph glyph-name="uni044B" unicode="&#x44b;" horiz-adv-x="850" d="M342 290 L195 290 L195 420 L275 480 L25 480 L105 420 L105 60 L25 0 L342 0 C446 0 545 55 545 152 C545 249 446 290 342 290 L342 290 Z M745 420 L825 480 L575 480 L655 420 L655 60 L575 0 L825 0 L745 60 L745 420 Z M322 45 L195 45 L195 245 L322 245 C401 245 445 216 445 145 C445 74 401 45 322 45 L322 45 Z " />
<glyph glyph-name="uni044C" unicode="&#x44c;" horiz-adv-x="600" d="M352 290 L195 290 L195 420 L275 480 L25 480 L105 420 L105 60 L25 0 L352 0 C456 0 555 55 555 152 C555 249 456 290 352 290 L352 290 Z M332 45 L195 45 L195 245 L332 245 C411 245 455 216 455 145 C455 74 411 45 332 45 L332 45 Z " />
<glyph glyph-name="uni044D" unicode="&#x44d;" horiz-adv-x="495" d="M219 490 C179 490 140 480 106 464 L40 490 L40 323 L116 424 C137 438 164 450 209 450 C308 450 357 390 360 280 L134 280 L134 240 L359 240 C351 143 302 75 196 75 C152 75 91 87 35 130 L30 125 C65 20 153 -10 221 -10 C347 -10 450 93 450 245 C450 402 339 490 219 490 L219 490 Z " />
<glyph glyph-name="uni044E" unicode="&#x44e;" horiz-adv-x="805" d="M525 490 C409 490 305 407 291 270 L190 270 L190 420 L270 480 L25 480 L105 420 L105 60 L25 0 L270 0 L190 60 L190 220 L291 220 C300 77 406 -10 525 -10 C649 -10 760 85 760 240 C760 395 649 490 525 490 L525 490 Z M544 30 C466 30 391 122 391 267 C391 362 431 450 507 450 C584 450 658 358 658 211 C658 122 621 30 544 30 L544 30 Z " />
<glyph glyph-name="uni044F" unicode="&#x44f;" horiz-adv-x="587" d="M482 420 L562 480 L255 480 C151 480 52 438 52 341 C52 268 108 231 179 217 C128 108 82 47 0 0 L2 -5 C144 -24 187 24 274 210 L392 210 L392 60 L312 0 L562 0 L482 60 L482 420 Z M392 255 L275 255 C196 255 152 274 152 345 C152 416 196 435 275 435 L392 435 L392 255 Z " />
<glyph glyph-name="uni0451" unicode="&#x451;" horiz-adv-x="505" d="M175 606 C204 606 227 630 227 658 C227 687 204 710 175 710 C147 710 123 687 123 658 C123 630 147 606 175 606 L175 606 Z M376 606 C405 606 428 630 428 658 C428 687 405 710 376 710 C348 710 324 687 324 658 C324 630 348 606 376 606 L376 606 Z M304 75 C193 75 135 158 135 274 C135 285 135 295 136 305 L465 305 C456 436 374 490 280 490 C160 490 45 403 45 244 C45 94 148 -10 274 -10 C342 -10 420 20 455 125 L450 130 C392 86 344 75 304 75 L304 75 Z M266 453 C334 453 360 402 360 340 L142 340 C160 412 206 453 266 453 L266 453 Z " />
<glyph glyph-name="Wgrave" unicode="&#x1e80;" horiz-adv-x="1060" d="M572 775 L442 930 L322 930 L567 770 L572 775 Z M1060 700 L796 700 L916 640 L776 185 L598 640 L618 700 L465 700 L506 599 L354 185 L193 640 L273 700 L10 700 L81 646 L327 -30 L333 -30 L538 521 L762 -30 L768 -30 L980 640 L1060 700 Z " />
<glyph glyph-name="wgrave" unicode="&#x1e81;" horiz-adv-x="850" d="M474 570 L479 575 L389 770 L279 770 L474 570 Z M850 480 L622 480 L710 420 L612 150 L488 420 L515 480 L356 480 L406 372 L299 140 L174 420 L254 480 L0 480 L62 434 L271 -30 L277 -30 L436 308 L593 -30 L599 -30 L770 420 L850 480 Z " />
<glyph glyph-name="Wacute" unicode="&#x1e82;" horiz-adv-x="1060" d="M744 930 L624 930 L494 775 L499 770 L744 930 Z M1060 700 L796 700 L916 640 L776 185 L598 640 L618 700 L465 700 L506 599 L354 185 L193 640 L273 700 L10 700 L81 646 L327 -30 L333 -30 L538 521 L762 -30 L768 -30 L980 640 L1060 700 Z " />
<glyph glyph-name="wacute" unicode="&#x1e83;" horiz-adv-x="850" d="M651 710 L531 710 L401 555 L406 550 L651 710 Z M850 480 L622 480 L710 420 L612 150 L488 420 L515 480 L356 480 L406 372 L299 140 L174 420 L254 480 L0 480 L62 434 L271 -30 L277 -30 L436 308 L593 -30 L599 -30 L770 420 L850 480 Z " />
<glyph glyph-name="Wdieresis" unicode="&#x1e84;" horiz-adv-x="1060" d="M433 786 C462 786 485 810 485 838 C485 867 462 890 433 890 C405 890 381 867 381 838 C381 810 405 786 433 786 L433 786 Z M634 786 C663 786 686 810 686 838 C686 867 663 890 634 890 C606 890 582 867 582 838 C582 810 606 786 634 786 L634 786 Z M1060 700 L796 700 L916 640 L776 185 L598 640 L618 700 L465 700 L506 599 L354 185 L193 640 L273 700 L10 700 L81 646 L327 -30 L333 -30 L538 521 L762 -30 L768 -30 L980 640 L1060 700 Z " />
<glyph glyph-name="wdieresis" unicode="&#x1e85;" horiz-adv-x="850" d="M340 566 C369 566 392 590 392 618 C392 647 369 670 340 670 C312 670 288 647 288 618 C288 590 312 566 340 566 L340 566 Z M541 566 C570 566 593 590 593 618 C593 647 570 670 541 670 C513 670 489 647 489 618 C489 590 513 566 541 566 L541 566 Z M850 480 L622 480 L710 420 L612 150 L488 420 L515 480 L356 480 L406 372 L299 140 L174 420 L254 480 L0 480 L62 434 L271 -30 L277 -30 L436 308 L593 -30 L599 -30 L770 420 L850 480 Z " />
<glyph glyph-name="uni1E9E" unicode="&#x1e9e;" horiz-adv-x="712" d="M427 444 L606 700 L10 700 L90 640 L90 60 L10 0 L270 0 L190 60 L190 650 L497 650 L285 350 L335 313 L373 367 C506 348 567 278 567 195 C567 111 514 40 440 40 L335 118 L275 38 C313 9 364 -10 430 -10 C553 -10 667 77 667 209 C667 318 589 418 427 444 L427 444 Z " />
<glyph glyph-name="Ygrave" unicode="&#x1ef2;" horiz-adv-x="725" d="M415 795 L325 990 L215 990 L410 790 L415 795 Z M645 640 L725 700 L456 700 L575 641 L575 640 L387 369 L205 640 L285 700 L10 700 L80 647 L314 308 L314 59 L235 0 L494 0 L414 60 L414 308 L645 640 Z " />
<glyph glyph-name="ygrave" unicode="&#x1ef3;" horiz-adv-x="570" d="M327 570 L332 575 L242 770 L132 770 L327 570 Z M490 420 L570 480 L342 480 L430 420 L316 155 L177 420 L257 480 L0 480 L69 429 L268 55 L127 -240 L370 -240 L233 -160 L490 420 Z " />
<glyph glyph-name="endash" unicode="&#x2013;" horiz-adv-x="550" d="M20 295 L20 245 L530 245 L530 295 L20 295 Z " />
<glyph glyph-name="emdash" unicode="&#x2014;" horiz-adv-x="770" d="M20 295 L20 245 L750 245 L750 295 L20 295 Z " />
<glyph glyph-name="quoteleft" unicode="&#x2018;" horiz-adv-x="230" d="M117 520 C156 520 180 550 180 580 C151 599 133 631 133 666 C133 706 156 750 210 785 L208 790 C128 760 50 696 50 605 C50 542 81 520 117 520 L117 520 Z " />
<glyph glyph-name="quoteright" unicode="&#x2019;" horiz-adv-x="230" d="M113 790 C74 790 50 760 50 730 C79 711 97 679 97 644 C97 604 74 560 20 525 L22 520 C102 550 180 614 180 705 C180 768 149 790 113 790 L113 790 Z " />
<glyph glyph-name="quotesinglbase" unicode="&#x201a;" horiz-adv-x="230" d="M113 110 C74 110 50 80 50 50 C79 31 97 -1 97 -36 C97 -76 74 -120 20 -155 L22 -160 C102 -130 180 -66 180 25 C180 88 149 110 113 110 L113 110 Z " />
<glyph glyph-name="quotedblleft" unicode="&#x201c;" horiz-adv-x="410" d="M117 520 C156 520 180 550 180 580 C151 599 133 631 133 666 C133 706 156 750 210 785 L208 790 C128 760 50 696 50 605 C50 542 81 520 117 520 L117 520 Z M297 520 C336 520 360 550 360 580 C331 599 313 631 313 666 C313 706 336 750 390 785 L388 790 C308 760 230 696 230 605 C230 542 261 520 297 520 L297 520 Z " />
<glyph glyph-name="quotedblright" unicode="&#x201d;" horiz-adv-x="410" d="M113 790 C74 790 50 760 50 730 C79 711 97 679 97 644 C97 604 74 560 20 525 L22 520 C102 550 180 614 180 705 C180 768 149 790 113 790 L113 790 Z M293 790 C254 790 230 760 230 730 C259 711 277 679 277 644 C277 604 254 560 200 525 L202 520 C282 550 360 614 360 705 C360 768 329 790 293 790 L293 790 Z " />
<glyph glyph-name="quotedblbase" unicode="&#x201e;" horiz-adv-x="410" d="M113 110 C74 110 50 80 50 50 C79 31 97 -1 97 -36 C97 -76 74 -120 20 -155 L22 -160 C102 -130 180 -66 180 25 C180 88 149 110 113 110 L113 110 Z M293 110 C254 110 230 80 230 50 C259 31 277 -1 277 -36 C277 -76 254 -120 200 -155 L202 -160 C282 -130 360 -66 360 25 C360 88 329 110 293 110 L293 110 Z " />
<glyph glyph-name="dagger" unicode="&#x2020;" horiz-adv-x="540" d="M510 510 L290 480 L320 700 L220 700 L250 480 L30 510 L30 410 L250 440 L220 -150 L270 -230 L320 -150 L290 440 L510 410 L510 510 Z " />
<glyph glyph-name="daggerdbl" unicode="&#x2021;" horiz-adv-x="540" d="M510 510 L290 480 L320 700 L220 700 L250 480 L30 510 L30 410 L250 440 L220 240 L250 40 L30 70 L30 -30 L250 0 L220 -220 L320 -220 L290 0 L510 -30 L510 70 L290 40 L320 240 L290 440 L510 410 L510 510 Z " />
<glyph glyph-name="bullet" unicode="&#x2022;" horiz-adv-x="296" d="M148 265 C202 265 246 309 246 362 C246 416 202 460 148 460 C94 460 50 416 50 362 C50 309 94 265 148 265 L148 265 Z " />
<glyph glyph-name="ellipsis" unicode="&#x2026;" horiz-adv-x="660" d="M110 -10 C143 -10 170 17 170 50 C170 83 143 110 110 110 C77 110 50 83 50 50 C50 17 77 -10 110 -10 L110 -10 Z M330 -10 C363 -10 390 17 390 50 C390 83 363 110 330 110 C297 110 270 83 270 50 C270 17 297 -10 330 -10 L330 -10 Z M550 -10 C583 -10 610 17 610 50 C610 83 583 110 550 110 C517 110 490 83 490 50 C490 17 517 -10 550 -10 L550 -10 Z " />
<glyph glyph-name="perthousand" unicode="&#x2030;" horiz-adv-x="1304" d="M402 507 C402 619 327 710 226 710 C125 710 50 619 50 507 C50 395 125 304 226 304 C327 304 402 395 402 507 L402 507 Z M600 700 L242 0 L302 0 L660 700 L600 700 Z M226 344 C162 344 140 419 140 507 C140 595 162 670 226 670 C290 670 312 595 312 507 C312 419 290 344 226 344 L226 344 Z M676 396 C575 396 500 305 500 193 C500 81 575 -10 676 -10 C777 -10 852 81 852 193 C852 305 777 396 676 396 L676 396 Z M1078 396 C977 396 902 305 902 193 C902 81 977 -10 1078 -10 C1179 -10 1254 81 1254 193 C1254 305 1179 396 1078 396 L1078 396 Z M676 30 C612 30 590 105 590 193 C590 281 612 356 676 356 C740 356 762 281 762 193 C762 105 740 30 676 30 L676 30 Z M1078 30 C1014 30 992 105 992 193 C992 281 1014 356 1078 356 C1142 356 1164 281 1164 193 C1164 105 1142 30 1078 30 L1078 30 Z " />
<glyph glyph-name="guilsinglleft" unicode="&#x2039;" horiz-adv-x="270" d="M250 460 L245 465 L25 260 L245 55 L250 60 L130 260 L250 460 Z " />
<glyph glyph-name="guilsinglright" unicode="&#x203a;" horiz-adv-x="270" d="M25 465 L20 460 L140 260 L20 60 L25 55 L245 260 L25 465 Z " />
<glyph glyph-name="fraction" unicode="&#x2044;" horiz-adv-x="385" d="M385 740 L334 740 L19 -60 L70 -60 L385 740 Z " />
<glyph glyph-name="Euro" unicode="&#x20ac;" horiz-adv-x="800" d="M755 178 C675 98 583 70 507 70 C383 70 294 145 260 260 L590 260 L610 310 L249 310 C246 329 245 349 245 370 C245 380 245 390 246 400 L600 400 L620 450 L253 450 C282 587 386 660 521 660 C549 660 580 657 611 648 L740 475 L740 710 L683 684 C630 702 572 710 523 710 C355 710 200 615 154 450 L80 450 L60 400 L144 400 C141 383 140 365 140 346 C140 334 141 322 142 310 L70 310 L50 260 L149 260 C187 90 335 -10 487 -10 C582 -10 697 29 760 173 L755 178 Z " />
<glyph glyph-name="trademark" unicode="&#x2122;" horiz-adv-x="1121" d="M394 780 L91 780 L30 794 L30 658 L97 746 L208 746 L208 342 L154 302 L331 302 L276 343 L276 746 L388 746 L454 658 L454 794 L394 780 Z M1032 740 L1086 780 L985 780 L795 490 L593 780 L499 780 L554 739 L554 343 L499 302 L680 302 L598 343 L598 661 L781 398 L963 674 L963 343 L909 302 L1086 302 L1032 343 L1032 740 Z " />
<glyph glyph-name="oneeighth" unicode="&#x215b;" horiz-adv-x="988" d="M668 740 L617 740 L302 -60 L353 -60 L668 740 Z M213 308 L213 720 L57 667 L150 632 L150 308 L50 270 L313 270 L213 308 Z M854 234 C899 254 932 286 932 335 C932 400 875 440 800 440 C727 440 663 400 663 324 C663 270 696 243 736 223 C686 197 648 159 648 102 C648 27 716 -10 796 -10 C877 -10 948 32 948 116 C948 182 903 212 854 234 L854 234 Z M798 409 C854 409 873 367 873 334 C873 302 855 271 816 250 C768 270 726 290 726 336 C726 365 741 409 798 409 L798 409 Z M799 21 C737 21 710 67 710 112 C710 148 725 180 770 208 C826 186 882 167 882 106 C882 69 858 21 799 21 L799 21 Z " />
<glyph glyph-name="threeeighths" unicode="&#x215c;" horiz-adv-x="1047" d="M688 740 L637 740 L322 -60 L373 -60 L688 740 Z M247 530 C277 555 291 583 291 616 C291 667 258 710 186 710 C121 710 74 674 40 600 L43 597 C87 647 132 660 164 660 C209 660 229 635 229 599 C229 566 211 531 123 497 L133 472 C152 479 170 486 186 493 C240 477 267 439 267 397 C267 334 208 291 143 291 L78 340 L40 290 C64 272 96 260 137 260 C226 260 323 316 323 412 C323 468 292 507 247 530 L247 530 Z M874 234 C919 254 952 286 952 335 C952 400 895 440 820 440 C747 440 683 400 683 324 C683 270 716 243 756 223 C706 197 668 159 668 102 C668 27 736 -10 816 -10 C897 -10 968 32 968 116 C968 182 923 212 874 234 L874 234 Z M818 409 C874 409 893 367 893 334 C893 302 875 271 836 250 C788 270 746 290 746 336 C746 365 761 409 818 409 L818 409 Z M819 21 C757 21 730 67 730 112 C730 148 745 180 790 208 C846 186 902 167 902 106 C902 69 878 21 819 21 L819 21 Z " />
<glyph glyph-name="fiveeighths" unicode="&#x215d;" horiz-adv-x="1018" d="M668 740 L617 740 L302 -60 L353 -60 L668 740 Z M116 572 L131 644 L309 644 L321 701 L105 701 L69 521 C217 508 267 459 267 396 C267 324 204 288 138 288 L69 341 L30 288 C55 269 88 257 132 257 C219 257 324 304 324 411 C324 498 256 559 116 572 L116 572 Z M854 234 C899 254 932 286 932 335 C932 400 875 440 800 440 C727 440 663 400 663 324 C663 270 696 243 736 223 C686 197 648 159 648 102 C648 27 716 -10 796 -10 C877 -10 948 32 948 116 C948 182 903 212 854 234 L854 234 Z M798 409 C854 409 873 367 873 334 C873 302 855 271 816 250 C768 270 726 290 726 336 C726 365 741 409 798 409 L798 409 Z M799 21 C737 21 710 67 710 112 C710 148 725 180 770 208 C826 186 882 167 882 106 C882 69 858 21 799 21 L799 21 Z " />
<glyph glyph-name="seveneighths" unicode="&#x215e;" horiz-adv-x="927" d="M577 740 L262 -60 L313 -60 L628 740 L577 740 Z M30 701 L30 576 L80 644 L277 644 C211 536 139 411 129 263 L195 263 C195 411 241 530 342 701 L30 701 Z M814 234 C859 254 892 286 892 335 C892 400 835 440 760 440 C687 440 623 400 623 324 C623 270 656 243 696 223 C646 197 608 159 608 102 C608 27 676 -10 756 -10 C837 -10 908 32 908 116 C908 182 863 212 814 234 L814 234 Z M686 336 C686 365 701 409 758 409 C814 409 833 367 833 334 C833 302 815 271 776 250 C728 270 686 290 686 336 L686 336 Z M759 21 C697 21 670 67 670 112 C670 148 685 180 730 208 C786 186 842 167 842 106 C842 69 818 21 759 21 L759 21 Z " />
<glyph glyph-name="arrowleft" unicode="&#x2190;" horiz-adv-x="800" d="M220 564 L0 359 L220 154 L225 159 L124 327 L780 327 L780 392 L125 392 L225 559 L220 564 Z " />
<glyph glyph-name="arrowup" unicode="&#x2191;" horiz-adv-x="490" d="M450 560 L245 780 L40 560 L45 555 L213 656 L213 0 L278 0 L278 655 L445 555 L450 560 Z " />
<glyph glyph-name="arrowright" unicode="&#x2192;" horiz-adv-x="800" d="M580 554 L575 549 L675 382 L20 382 L20 317 L676 317 L575 149 L580 144 L800 349 L580 554 Z " />
<glyph glyph-name="arrowdown" unicode="&#x2193;" horiz-adv-x="480" d="M445 210 L440 215 L273 115 L273 770 L208 770 L208 114 L40 215 L35 210 L240 -10 L445 210 Z " />
<glyph glyph-name="arrowboth" unicode="&#x2194;" horiz-adv-x="980" d="M760 554 L755 549 L855 382 L125 382 L225 549 L220 554 L0 349 L220 144 L225 149 L124 317 L856 317 L755 149 L760 144 L980 349 L760 554 Z " />
<glyph glyph-name="arrowupdn" unicode="&#x2195;" horiz-adv-x="450" d="M258 115 L258 655 L425 555 L430 560 L225 780 L20 560 L25 555 L193 656 L193 114 L25 215 L20 210 L225 -10 L430 210 L425 215 L258 115 Z " />
<glyph glyph-name="uni2196" unicode="&#x2196;" horiz-adv-x="584" d="M21 369 L28 369 L75 558 L538 94 L584 140 L121 604 L311 652 L311 659 L10 669 L21 369 Z " />
<glyph glyph-name="uni2197" unicode="&#x2197;" horiz-adv-x="584" d="M573 369 L584 669 L283 659 L283 652 L473 604 L10 140 L56 94 L519 558 L566 369 L573 369 Z " />
<glyph glyph-name="uni2198" unicode="&#x2198;" horiz-adv-x="584" d="M573 388 L566 388 L519 199 L56 663 L10 617 L473 153 L283 105 L283 98 L584 88 L573 388 Z " />
<glyph glyph-name="uni2199" unicode="&#x2199;" horiz-adv-x="584" d="M21 388 L10 88 L311 98 L311 105 L121 153 L584 617 L538 663 L75 199 L28 388 L21 388 Z " />
<glyph glyph-name="partialdiff" unicode="&#x2202;" horiz-adv-x="586" d="M172 780 L149 740 C317 690 416 594 442 433 C406 458 362 470 312 470 C170 470 45 366 45 210 C45 77 144 -10 270 -10 C404 -10 522 75 538 250 C563 540 447 730 172 780 L172 780 Z M290 30 C211 30 152 116 152 229 C152 324 190 430 293 430 C387 430 429 348 429 239 C429 138 393 30 290 30 L290 30 Z " />
<glyph glyph-name="emptyset" unicode="&#x2205;" horiz-adv-x="642" d="M597 512 L568 541 L500 473 C452 515 390 540 321 540 C169 540 46 417 46 265 C46 196 71 134 113 86 L45 18 L74 -11 L142 57 C190 15 252 -10 321 -10 C473 -10 596 113 596 265 C596 334 571 396 529 444 L597 512 Z M91 265 C91 392 194 500 321 500 C378 500 430 478 470 443 L144 117 C111 157 91 209 91 265 L91 265 Z M551 265 C551 138 448 30 321 30 C264 30 212 52 172 87 L498 413 C531 373 551 321 551 265 L551 265 Z " />
<glyph glyph-name="product" unicode="&#x220f;" horiz-adv-x="810" d="M695 640 L775 700 L35 700 L115 640 L115 -180 L35 -240 L295 -240 L215 -180 L215 650 L595 650 L595 -180 L515 -240 L775 -240 L695 -180 L695 640 Z " />
<glyph glyph-name="summation" unicode="&#x2211;" horiz-adv-x="660" d="M518 -150 L174 -150 L455 260 L208 650 L517 650 L614 521 L614 700 L56 700 L355 230 L35 -240 L615 -240 L615 -21 L518 -150 Z " />
<glyph glyph-name="minus" unicode="&#x2212;" horiz-adv-x="590" d="M40 375 L40 325 L550 325 L550 375 L40 375 Z " />
<glyph glyph-name="radical" unicode="&#x221a;" horiz-adv-x="586" d="M526 860 L301 155 L151 480 L0 480 L64 432 L288 -30 L294 -30 L586 860 L526 860 Z " />
<glyph glyph-name="infinity" unicode="&#x221e;" horiz-adv-x="690" d="M501 501 C418 501 370 439 345 401 C320 439 272 501 189 501 C98 501 40 428 40 351 C40 274 98 201 189 201 C272 201 320 263 345 301 C370 263 418 201 501 201 C592 201 650 274 650 351 C650 428 592 501 501 501 L501 501 Z M191 246 C130 246 95 293 95 351 C95 409 130 456 191 456 C243 456 277 422 322 351 C277 280 243 246 191 246 L191 246 Z M499 246 C447 246 413 280 368 351 C413 422 447 456 499 456 C560 456 595 409 595 351 C595 293 560 246 499 246 L499 246 Z " />
<glyph glyph-name="integral" unicode="&#x222b;" horiz-adv-x="594" d="M513 780 C403 780 290 708 274 525 L227 -15 C218 -124 176 -194 105 -200 L23 -123 L-50 -210 C-17 -228 28 -240 81 -240 C191 -240 304 -168 320 15 L367 555 C376 664 418 734 489 740 L571 663 L644 750 C611 768 566 780 513 780 L513 780 Z " />
<glyph glyph-name="approxequal" unicode="&#x2248;" horiz-adv-x="590" d="M431 505 C346 505 221 463 141 463 C106 463 67 471 45 520 L40 520 C45 437 88 408 159 408 C244 408 369 450 449 450 C484 450 523 442 545 393 L550 393 C545 476 502 505 431 505 L431 505 Z M431 305 C346 305 221 263 141 263 C106 263 67 271 45 320 L40 320 C45 237 88 208 159 208 C244 208 369 250 449 250 C484 250 523 242 545 193 L550 193 C545 276 502 305 431 305 L431 305 Z " />
<glyph glyph-name="notequal" unicode="&#x2260;" horiz-adv-x="590" d="M550 425 L550 475 L407 475 L492 596 L460 620 L358 475 L40 475 L40 425 L323 425 L218 275 L40 275 L40 225 L183 225 L98 104 L131 81 L232 225 L550 225 L550 275 L267 275 L372 425 L550 425 Z " />
<glyph glyph-name="lessequal" unicode="&#x2264;" horiz-adv-x="590" d="M550 635 L40 385 L40 335 L550 85 L550 135 L91 360 L550 585 L550 635 Z M40 50 L40 0 L550 0 L550 50 L40 50 Z " />
<glyph glyph-name="greaterequal" unicode="&#x2265;" horiz-adv-x="590" d="M40 635 L40 585 L499 360 L40 135 L40 85 L550 335 L550 385 L40 635 Z M550 50 L40 50 L40 0 L550 0 L550 50 Z " />
<glyph glyph-name="lozenge" unicode="&#x25ca;" horiz-adv-x="562" d="M527 350 L281 740 L282 738 L35 350 L282 -38 L281 -40 L527 350 Z M281 55 L95 350 L281 645 L467 350 L281 55 Z " />
</font>
</svg>
