<?xml version="1.0" encoding="utf-8"?>
<!-- Generator: Adobe Illustrator 19.2.1, SVG Export Plug-In . SVG Version: 6.00 Build 0)  -->
<svg version="1.1" id="Layer_1" xmlns="http://www.w3.org/2000/svg" xmlns:xlink="http://www.w3.org/1999/xlink" x="0px" y="0px"
	 viewBox="0 0 685.3 398.4" enable-background="new 0 0 685.3 398.4" xml:space="preserve">
<g>
	<path fill="#FBE8E2" d="M264.5,49.4l12.1,7.7c-8.3,18.7-22.9,29.3-42.8,29.3c-27,0-45.8-19.3-45.8-43.2S206.8,0,233.8,0
		c19.9,0,34.6,10.6,42.8,29.3L264.5,37c-3.2-3.4-6-5.9-11.5-5.9c-7.7,0-12.5,5-12.5,12.1s4.8,12.1,12.5,12.1
		C258.5,55.3,261.2,52.7,264.5,49.4z"/>
	<path fill="#FBE8E2" d="M363,18l-47.5,84h-36.4l21.1-35.2L271.8,18H309l9.6,18.2L327,18H363z"/>
	<path fill="#FBE8E2" d="M414.6,15.6v33c-9.2,0-19.2,6.2-19.2,20.4v15h-36V18h26.4l5.6,14.2C397.1,21.6,405.8,15.6,414.6,15.6z"/>
	<path fill="#FBE8E2" d="M492.8,57.4c1.8,0,3.7-0.4,5.8-1V84c-4.4,1.6-9.5,2.4-14.6,2.4c-15.6,0-25.4-7.9-31-19.7V84h-36V0h36v42.6
		L471,18h28.8l-19.1,26.5C480.7,52.2,485.5,57.4,492.8,57.4z"/>
	<path fill="#FBE8E2" d="M120,162l-44.4,74.4L60,208.3l-15.6,28.1L0,162h37.2l9.6,18.2L60,162l13.2,18.2l9.6-18.2H120z"/>
	<path fill="#FBE8E2" d="M162.4,176.4c-4.2,0-6.4,1.8-6.4,3.4c0,5.6,26.5,8.5,26.5,28.6c0,14.6-14.3,22.1-33.7,22.1
		c-18.4,0-28.8-6.7-38.4-16.8l8.4-7.2c4.8,3.7,8.8,6.6,14.4,6.6c4.1,0,5.5-1.6,5.5-3c0-6.1-24.7-7.8-24.7-27.2
		c0-14.5,14-23.2,33.1-23.2c15.7,0,26,6.1,33.7,15.2l-7.7,6.6C170,178.6,166.2,176.4,162.4,176.4z"/>
	<path fill="#FBE8E2" d="M269.8,195c0,19.6-13.4,34.2-31.9,34.2c-5.6,0-10.6-1.6-14.5-4.4V246h-36v-84h26.4l3.7,9.2
		c4.6-6.5,11.5-10.4,20.4-10.4C256.3,160.8,269.8,175.4,269.8,195z M233.8,195c0-3.2-2.8-6-6-6c-3.4,0-6,2.8-6,6c0,3.2,2.6,6,6,6
		C231,201,233.8,198.2,233.8,195z"/>
	<path fill="#FBE8E2" d="M346.1,207.6V228c-4.6,1.3-8.5,2.4-15.6,2.4c-12.4,0-19.4-3.4-24-10.3c-3.1,6.1-9.7,10.3-17.4,10.3
		c-11.2,0-18.7-8-18.7-18.2c0-10.1,7.4-18.1,18.7-18.1c3.5,0,6.6,0.8,9.5,2.3c-2.2-8.5-4.3-13-14.5-13c-3.4,0-6.2,0.5-9.1,1.4V162
		c6.2-1.7,13.8-2.4,19.9-2.4c29,0,36.8,16,41.2,36.7c1.4,7.1,2.5,11.8,7.6,11.8C344.4,208.1,345.1,208,346.1,207.6z M301.9,211
		c0-2.4-1.9-4.2-4.2-4.2c-2.4,0-4.2,1.8-4.2,4.2c0,2.5,1.8,4.2,4.2,4.2C300,215.2,301.9,213.5,301.9,211z"/>
	<path fill="#FBE8E2" d="M428.2,184.2V228h-36v-32.8c0-3.4-1.4-5-3.8-5c-2.3,0-3.8,1.7-3.8,5V228h-36v-66h26.4l4.4,11
		c5-7.6,13.3-12.2,24.7-12.2C419.8,160.8,428.2,168.8,428.2,184.2z"/>
	<path fill="#FBE8E2" d="M433,148.3c0-8.5,11-15.1,21.6-15.1c7.9,0,14.4,3.8,14.4,10.1c0,8.4-11,15.1-21.6,15.1
		C439.6,158.4,433,154.7,433,148.3z M469,162v66h-36v-66H469z"/>
	<path fill="#FBE8E2" d="M548.9,207.6V228c-4.6,1.3-8.5,2.4-15.6,2.4c-12.4,0-19.4-3.4-24-10.3c-3.1,6.1-9.7,10.3-17.4,10.3
		c-11.2,0-18.7-8-18.7-18.2c0-10.1,7.4-18.1,18.7-18.1c3.5,0,6.6,0.8,9.5,2.3c-2.2-8.5-4.3-13-14.5-13c-3.4,0-6.2,0.5-9.1,1.4V162
		c6.2-1.7,13.8-2.4,19.9-2.4c29,0,36.8,16,41.2,36.7c1.4,7.1,2.5,11.8,7.6,11.8C547.2,208.1,547.9,208,548.9,207.6z M504.7,211
		c0-2.4-1.9-4.2-4.2-4.2c-2.4,0-4.2,1.8-4.2,4.2c0,2.5,1.8,4.2,4.2,4.2C502.8,215.2,504.7,213.5,504.7,211z"/>
	<path fill="#FBE8E2" d="M598.9,189.7l-6.8,3.6V228h-36v-16l-6,3.1v-26.5l6-3.1V144h36v22.8l6.8-3.6V189.7z"/>
	<path fill="#FBE8E2" d="M685.3,162l-47.5,84h-36.4l21.1-35.2L594.1,162h37.2l9.6,18.2l8.4-18.2H685.3z"/>
	<path fill="#FBE8E2" d="M249.5,372.2h-36l-2.4-26.4L191.9,362l-19.2-16.2l-2.4,26.4h-36l9.6-86.6l48,37.2l48-37.2L249.5,372.2z"/>
	<path fill="#FBE8E2" d="M327.1,351.6V372c-4.6,1.3-8.5,2.4-15.6,2.4c-12.4,0-19.4-3.4-24-10.3c-3.1,6.1-9.7,10.3-17.4,10.3
		c-11.2,0-18.7-8-18.7-18.2c0-10.1,7.4-18.1,18.7-18.1c3.5,0,6.6,0.8,9.5,2.3c-2.2-8.5-4.3-13-14.5-13c-3.4,0-6.2,0.5-9.1,1.4V306
		c6.2-1.7,13.8-2.4,19.9-2.4c29,0,36.8,16,41.2,36.7c1.4,7.1,2.5,11.8,7.6,11.8C325.4,352.1,326.1,352,327.1,351.6z M282.9,355
		c0-2.4-1.9-4.2-4.2-4.2c-2.4,0-4.2,1.8-4.2,4.2c0,2.5,1.8,4.2,4.2,4.2C281,359.2,282.9,357.5,282.9,355z"/>
	<path fill="#FBE8E2" d="M396.2,383.4c0,8.3-6.7,15-16.2,15c-8.5,0-14.8-5.4-16-12.5c-3.8,2.5-8.2,4.9-15.6,5
		c-10.9,0.1-18.7-8.5-18.8-17.9c-0.1-6,1.6-11.9,7.3-17.6c-5.4-5.5-8.6-13-8.6-21.1c0-17,13.9-30.7,32.8-30.7c4,0,7.7,0.6,11.2,1.7
		c-0.2-11.2,6.5-17.3,22.8-17.3v18c-4.9,0-9.1,3.2-9.2,7.9c5,5.4,8,12.6,8,20.4c0,16.9-13.9,30.7-32.8,30.7c-3.6,0-7-0.5-10.2-1.4
		c-0.1,1-0.2,1.9-0.2,2.8c0,5,3.6,7.9,8.6,7.9c8.8,0,11.3-5.9,20.8-5.9S396.2,375.1,396.2,383.4z M356.8,334.3
		c0,2.4,1.9,4.1,4.2,4.1c2.3,0,4.2-1.7,4.2-4.1c0-2.4-1.9-4.3-4.2-4.3C358.7,330,356.8,331.9,356.8,334.3z M384.2,383.4
		c0-2.4-1.8-4.2-4.2-4.2s-4.2,1.8-4.2,4.2s1.8,4.2,4.2,4.2S384.2,385.8,384.2,383.4z"/>
	<path fill="#FBE8E2" d="M397.4,292.3c0-8.5,11-15.1,21.6-15.1c7.9,0,14.4,3.8,14.4,10.1c0,8.4-11,15.1-21.6,15.1
		C404,302.4,397.4,298.7,397.4,292.3z M433.4,306v66h-36v-66H433.4z"/>
	<path fill="#FBE8E2" d="M502.3,345.2l8,5.2c-6,14.8-17.2,24-34.7,24c-23,0-38.6-15.8-38.6-35.4c0-19.6,15.6-35.4,38.2-35.4
		c21.6,0,37.4,14.6,37.4,36.6h-34c0.7,6.4,4.8,10.8,10.6,10.8C494.3,351,498.4,348.6,502.3,345.2z M479.2,330.6h15.4
		c-1.1-4-3.6-6-7.4-6C483.4,324.6,480.5,326.5,479.2,330.6z"/>
	<path fill="#FBE8E2" d="M552.2,288v84h-36v-84H552.2z"/>
</g>
</svg>
