<?xml version="1.0" encoding="UTF-8"?>
<svg xmlns="http://www.w3.org/2000/svg" xmlns:xlink="http://www.w3.org/1999/xlink" version="1.2" >
<font id="Cyrulik Sharp">
<font-face  font-family="Cyrulik" units-per-em="1000" ascent="770" descent="-230" font-style="normal" font-weight="400" font-stretch="normal" cap-height="696" x-height="518" underline-position="-75" underline-thickness="50" />
<missing-glyph  horiz-adv-x="500" d="M410 770 L93 770 L93 -230 L410 -230 L410 770 Z M333 703 L333 670 L267 670 L267 633 L333 633 L333 600 L167 600 L167 633 L233 633 L233 670 L168 670 L168 703 L333 703 Z M267 574 L267 504 L333 504 L333 470 L167 470 L167 574 L267 574 Z M233 540 L200 540 L200 504 L233 504 L233 540 Z M333 443 L333 410 L267 410 L267 340 L167 340 L167 373 L233 373 L233 410 L167 410 L167 443 L333 443 Z M333 383 L333 283 L167 283 L167 317 L300 317 L300 383 L333 383 Z M333 261 L333 148 L167 148 L167 261 L200 261 L200 181 L300 181 L300 228 L267 228 L267 205 L233 205 L233 261 L333 261 Z M333 88 L333 -25 L167 -25 L167 88 L333 88 Z M300 55 L200 55 L200 8 L300 8 L300 55 Z M333 -48 L333 -81 L301 -81 L231 -128 L333 -128 L333 -161 L167 -161 L167 -128 L237 -81 L167 -81 L167 -48 L333 -48 Z " />
<glyph glyph-name="NULL" d="" />
<glyph glyph-name="CR" unicode="&#xd;" horiz-adv-x="250" d="" />
<glyph glyph-name="space" unicode="&#x20;" horiz-adv-x="270" d="" />
<glyph glyph-name="exclam" unicode="&#x21;" horiz-adv-x="195" d="M156 239 L156 449 L168 702 L32 702 L44 449 L44 239 L156 239 Z M105 -12 C150 -12 188 26 188 72 C188 119 150 156 105 156 C59 156 21 119 21 72 C21 26 59 -12 105 -12 L105 -12 Z " />
<glyph glyph-name="quotedbl" unicode="&#x22;" horiz-adv-x="375" d="M21 738 L28 492 L126 492 L150 738 L21 738 Z M231 738 L238 492 L336 492 L360 738 L231 738 Z " />
<glyph glyph-name="numbersign" unicode="&#x23;" horiz-adv-x="636" d="M620 425 L626 519 L519 516 L531 681 L413 681 L401 512 L284 512 L296 681 L177 681 L165 516 L45 519 L39 425 L159 428 L147 255 L26 258 L20 162 L140 166 L129 0 L246 0 L258 170 L376 170 C369 72 364 0 365 0 L482 0 L494 166 L602 162 L608 258 L500 255 L513 428 L620 425 Z M264 251 L278 432 L395 432 L382 251 L264 251 Z " />
<glyph glyph-name="dollar" unicode="&#x24;" horiz-adv-x="421" d="M398 173 C398 257 347 332 271 407 C197 480 176 524 176 572 C176 593 179 614 181 618 L241 618 L359 492 L374 668 C331 689 294 698 254 700 L265 806 L152 806 L163 697 C78 680 32 611 32 525 C32 470 52 398 131 315 C182 261 256 206 256 132 C256 117 253 95 247 72 L172 72 L38 197 L23 18 C73 -1 108 -10 165 -11 L152 -137 L265 -137 L252 -10 C344 2 398 82 398 173 L398 173 Z " />
<glyph glyph-name="percent" unicode="&#x25;" horiz-adv-x="795" d="M140 0 L263 0 L671 707 L549 707 L140 0 Z M324 501 L324 518 C323 618 305 702 203 702 L156 702 C65 695 45 614 45 518 L45 509 L45 501 C45 389 65 318 164 318 L203 318 C305 318 323 387 324 501 L324 501 Z M221 366 L149 366 L149 659 L221 659 L221 366 Z M750 171 L750 188 C749 288 731 372 629 372 L582 372 C491 365 471 284 471 188 L471 179 L471 171 C471 59 491 -12 590 -12 L629 -12 C731 -12 749 57 750 171 L750 171 Z M647 36 L575 36 L575 329 L647 329 L647 36 Z " />
<glyph glyph-name="ampersand" unicode="&#x26;" horiz-adv-x="486" d="M474 339 L474 416 L404 411 L210 411 L209 641 L264 641 L375 494 L398 663 C356 684 305 705 240 705 C132 705 74 645 74 542 C74 481 85 434 134 397 C73 367 47 292 47 191 C47 57 107 -11 251 -11 C383 -11 422 45 422 191 C422 249 410 303 375 344 L404 344 L474 339 Z M287 47 L210 47 L210 344 L287 344 L287 47 Z " />
<glyph glyph-name="quotesingle" unicode="&#x27;" horiz-adv-x="244" d="M65 738 L72 492 L170 492 L194 738 L65 738 Z " />
<glyph glyph-name="parenleft" unicode="&#x28;" horiz-adv-x="306" d="M276 671 L276 756 C74 770 42 622 39 329 C39 329 39 328 39 328 L39 327 C42 34 74 -114 276 -101 L276 -15 C261 -15 240 -16 198 -15 C191 47 182 146 182 328 C182 510 191 609 198 671 C240 672 261 671 276 671 L276 671 Z " />
<glyph glyph-name="parenright" unicode="&#x29;" horiz-adv-x="312" d="M267 328 L267 329 C264 622 233 770 30 756 L30 671 C45 671 66 672 108 671 C116 609 125 510 125 328 C125 146 116 47 108 -15 C66 -16 45 -15 30 -15 L30 -101 C233 -114 264 34 267 327 L267 328 Z " />
<glyph glyph-name="asterisk" unicode="&#x2a;" horiz-adv-x="404" d="M372 591 L326 675 C308 663 271 638 238 614 C245 657 252 715 252 744 L156 744 C156 715 162 656 168 612 C134 637 96 663 78 675 L32 591 C40 586 93 565 136 549 C106 516 72 478 59 459 L140 408 C147 416 178 473 201 518 C225 473 256 416 263 408 L342 461 C330 479 297 517 268 549 C311 565 364 586 372 591 L372 591 Z " />
<glyph glyph-name="plus" unicode="&#x2b;" horiz-adv-x="573" d="M536 401 L342 401 L342 594 L231 594 L231 401 L38 401 L38 290 L231 290 L231 96 L342 96 L342 290 L536 290 L536 401 Z " />
<glyph glyph-name="comma" unicode="&#x2c;" horiz-adv-x="192" d="M41 107 L35 0 L18 -140 L116 -140 L170 107 L41 107 Z " />
<glyph glyph-name="hyphen" unicode="&#x2d;" horiz-adv-x="308" d="M23 341 L23 230 L285 230 L285 341 L23 341 Z " />
<glyph glyph-name="period" unicode="&#x2e;" horiz-adv-x="192" d="M95 -12 C140 -12 177 26 177 72 C177 119 140 156 95 156 C48 156 11 119 11 72 C11 26 48 -12 95 -12 L95 -12 Z " />
<glyph glyph-name="slash" unicode="&#x2f;" horiz-adv-x="285" d="M-12 -149 L119 -152 C167 62 314 697 317 705 L189 708 L-12 -149 Z " />
<glyph glyph-name="zero" unicode="0" horiz-adv-x="471" d="M441 342 L441 357 C438 553 408 701 246 701 L206 701 L206 700 C62 689 33 545 30 357 C30 352 30 347 30 342 L30 329 C32 113 63 -9 221 -11 L246 -11 C409 -11 439 111 441 329 L441 342 Z M279 62 L192 62 C186 94 180 199 180 343 C180 496 186 604 192 638 L279 638 C285 604 291 496 291 343 C291 199 285 94 279 62 L279 62 Z " />
<glyph glyph-name="one" unicode="1" horiz-adv-x="321" d="M147 420 L146 0 L282 0 L281 381 L281 696 L167 696 L23 555 L38 461 L147 578 L149 580 L147 420 Z " />
<glyph glyph-name="two" unicode="2" horiz-adv-x="435" d="M179 95 C318 283 417 395 417 545 C417 680 308 708 218 708 C156 708 108 686 66 663 L95 489 L200 641 L261 641 L261 401 L50 54 L50 0 L405 0 L405 155 L296 95 L179 95 Z " />
<glyph glyph-name="three" unicode="3" horiz-adv-x="471" d="M351 366 C408 408 422 468 422 530 C422 647 359 708 230 708 C161 708 111 686 69 663 L92 494 L203 641 L273 641 L272 381 L168 381 L113 386 L113 309 L168 314 L270 314 L273 201 L273 47 L180 47 L71 182 L45 21 C84 5 134 -11 231 -11 C377 -11 437 56 437 189 C437 268 411 337 351 366 L351 366 Z " />
<glyph glyph-name="four" unicode="4" horiz-adv-x="483" d="M458 239 L380 232 L380 696 L216 696 C147 531 84 372 21 224 L21 164 L236 164 L236 0 L381 0 L381 163 L458 159 L458 239 Z M101 231 C142 333 204 495 236 582 L237 388 L237 231 L101 231 Z " />
<glyph glyph-name="five" unicode="5" horiz-adv-x="458" d="M254 404 L225 404 L225 635 L315 635 L396 629 L396 696 L90 696 L90 336 L258 336 L258 47 L183 47 L78 183 L50 24 C89 8 143 -11 239 -11 C393 -11 429 102 429 201 C429 294 401 404 254 404 L254 404 Z " />
<glyph glyph-name="six" unicode="6" horiz-adv-x="482" d="M246 420 C236 420 226 420 218 419 L366 696 L234 696 C78 422 45 336 45 197 C45 32 149 -12 243 -12 C359 -12 452 42 452 210 C452 413 324 420 246 420 L246 420 Z M305 56 L201 56 L200 353 L305 353 L305 56 Z " />
<glyph glyph-name="seven" unicode="7" horiz-adv-x="413" d="M375 696 L87 696 L23 698 L23 629 L81 636 L241 636 L66 0 L200 0 L375 651 L375 696 Z " />
<glyph glyph-name="eight" unicode="8" horiz-adv-x="489" d="M458 180 C458 285 437 327 365 363 C400 383 435 426 435 512 C435 653 365 708 245 708 C127 708 55 656 55 512 C55 426 90 383 125 363 C53 327 32 285 32 180 C32 32 117 -11 245 -11 C383 -11 458 29 458 180 L458 180 Z M201 641 L290 641 L290 389 L201 389 L201 641 Z M300 47 L189 47 L189 320 L300 320 L300 47 Z " />
<glyph glyph-name="nine" unicode="9" horiz-adv-x="482" d="M224 708 C131 708 30 654 30 486 C30 284 158 276 221 276 C237 276 251 276 264 277 L116 0 L248 0 C404 291 437 377 437 500 C437 662 330 708 224 708 L224 708 Z M177 344 L177 641 L281 641 L282 344 L177 344 Z " />
<glyph glyph-name="colon" unicode="&#x3a;" horiz-adv-x="192" d="M95 347 C140 347 177 384 177 431 C177 477 140 515 95 515 C48 515 11 477 11 431 C11 384 48 347 95 347 L95 347 Z M95 -12 C140 -12 177 26 177 72 C177 119 140 156 95 156 C48 156 11 119 11 72 C11 26 48 -12 95 -12 L95 -12 Z " />
<glyph glyph-name="semicolon" unicode="&#x3b;" horiz-adv-x="231" d="M128 347 C173 347 210 384 210 431 C210 477 173 515 128 515 C81 515 44 477 44 431 C44 384 81 347 128 347 L128 347 Z M53 107 L47 0 L30 -140 L128 -140 L182 107 L53 107 Z " />
<glyph glyph-name="less" unicode="&#x3c;" horiz-adv-x="347" d="M332 585 L186 585 L16 336 L15 336 L15 335 L16 335 L186 86 L332 86 L153 336 L332 585 Z " />
<glyph glyph-name="equal" unicode="&#x3d;" horiz-adv-x="629" d="M45 498 L45 387 L583 387 L583 498 L45 498 Z M45 245 L45 134 L583 134 L583 245 L45 245 Z " />
<glyph glyph-name="greater" unicode="&#x3e;" horiz-adv-x="362" d="M332 336 L331 336 L161 585 L15 585 L194 336 L15 86 L161 86 L331 335 L332 335 L332 336 Z " />
<glyph glyph-name="question" unicode="&#x3f;" horiz-adv-x="326" d="M311 548 C311 639 257 710 134 710 C71 710 33 693 -12 674 L3 515 L98 644 L174 644 L174 476 L53 378 L53 239 L165 239 L165 368 C222 380 311 431 311 548 L311 548 Z M114 -12 C159 -12 197 26 197 72 C197 119 159 156 114 156 C68 156 30 119 30 72 C30 26 68 -12 114 -12 L114 -12 Z " />
<glyph glyph-name="at" unicode="&#x40;" horiz-adv-x="635" d="M322 436 C216 436 171 392 171 244 C171 121 210 65 276 65 C315 65 340 83 354 104 C371 77 388 66 447 66 L620 66 L620 589 L15 589 L15 -82 L620 -82 L620 -11 L123 -11 L123 518 L512 518 L512 137 L447 137 L447 418 C406 430 362 436 322 436 L322 436 Z M342 140 C328 130 306 126 280 126 L280 365 L342 365 L342 140 Z " />
<glyph glyph-name="A" unicode="A" horiz-adv-x="506" d="M356 0 L501 0 L321 696 L195 696 L203 649 L5 0 L107 0 L146 134 L323 134 L356 0 Z M169 216 L237 453 L246 453 L304 216 L169 216 Z " />
<glyph glyph-name="B" unicode="B" horiz-adv-x="488" d="M363 368 C392 372 437 411 437 516 C437 626 398 696 291 696 L57 696 L57 0 L281 0 C375 0 456 32 456 180 C456 285 431 347 363 368 L363 368 Z M290 623 L290 396 L198 396 L198 623 L290 623 Z M300 75 L198 75 L198 318 L300 318 L300 75 Z " />
<glyph glyph-name="C" unicode="C" horiz-adv-x="449" d="M397 191 L293 72 L205 72 L205 618 L292 618 L401 486 L418 665 C368 693 316 701 247 701 C101 701 32 599 32 344 C32 69 98 -11 248 -11 C325 -11 367 -2 422 18 L397 191 Z " />
<glyph glyph-name="D" unicode="D" horiz-adv-x="512" d="M282 696 L57 696 L57 0 L286 0 C429 0 480 156 480 341 C480 557 423 696 282 696 L282 696 Z M307 75 L199 77 L199 614 L307 614 L307 75 Z " />
<glyph glyph-name="E" unicode="E" horiz-adv-x="419" d="M281 68 L203 68 L203 311 L354 311 L354 393 L203 393 L203 629 L287 629 L365 509 L377 696 L57 696 L57 0 L377 0 L365 173 L281 68 Z " />
<glyph glyph-name="F" unicode="F" horiz-adv-x="419" d="M302 614 L362 524 L377 696 L57 696 L57 0 L203 0 L203 311 L348 311 L348 393 L203 393 L203 614 L302 614 Z " />
<glyph glyph-name="G" unicode="G" horiz-adv-x="520" d="M283 371 L283 254 L337 286 L337 170 L281 72 L200 72 L200 618 L299 618 L392 494 L425 665 C377 690 331 701 271 701 C104 701 32 593 32 344 C32 90 95 -11 213 -11 C280 -11 317 21 341 61 L346 0 L463 0 L463 371 L283 371 Z " />
<glyph glyph-name="H" unicode="H" horiz-adv-x="555" d="M353 696 L353 386 L203 386 L203 696 L57 696 L57 0 L203 0 L203 303 L353 303 L353 0 L498 0 L498 696 L353 696 Z " />
<glyph glyph-name="I" unicode="I" horiz-adv-x="260" d="M203 0 L203 696 L57 696 L57 0 L203 0 Z " />
<glyph glyph-name="J" unicode="J" horiz-adv-x="378" d="M176 696 L176 68 L122 68 L54 224 L20 18 C56 -2 114 -11 165 -11 C290 -11 321 41 321 195 L321 696 L176 696 Z " />
<glyph glyph-name="K" unicode="K" horiz-adv-x="489" d="M340 372 L476 695 L338 695 L344 567 L270 390 L269 390 L203 391 L203 696 L57 696 L57 0 L203 0 L203 306 L222 306 L327 0 L489 0 L340 372 Z " />
<glyph glyph-name="L" unicode="L" horiz-adv-x="413" d="M369 168 L282 68 L203 68 L203 696 L57 696 L57 0 L383 0 L369 168 Z " />
<glyph glyph-name="M" unicode="M" horiz-adv-x="697" d="M640 696 L454 696 L347 254 L231 696 L57 696 L57 0 L152 0 L152 504 L286 0 L370 0 L501 506 L501 0 L640 0 L640 696 Z " />
<glyph glyph-name="N" unicode="N" horiz-adv-x="576" d="M410 696 L410 277 L395 308 L188 696 L57 696 L80 646 L80 0 L183 0 L183 410 L410 0 L519 0 L519 696 L410 696 Z " />
<glyph glyph-name="O" unicode="O" horiz-adv-x="522" d="M490 329 L490 357 C490 524 449 701 287 701 L236 701 C74 701 32 524 32 357 L32 329 C32 165 74 -11 236 -11 L287 -11 C449 -11 490 165 490 329 L490 329 Z M320 78 L203 78 C197 109 191 208 191 343 C191 483 197 582 203 612 L320 612 C326 582 332 483 332 343 C332 208 326 109 320 78 L320 78 Z " />
<glyph glyph-name="P" unicode="P" horiz-adv-x="477" d="M269 696 L57 696 L57 0 L203 0 L203 203 L260 203 C411 204 461 332 461 446 C461 555 431 696 269 696 L269 696 Z M303 285 L203 285 L203 614 L302 614 C305 603 306 507 306 446 C306 377 305 324 303 285 L303 285 Z " />
<glyph glyph-name="Q" unicode="Q" horiz-adv-x="522" d="M490 329 L490 357 C490 524 449 701 287 701 L236 701 C74 701 32 524 32 357 L32 329 C32 165 74 -11 236 -11 L253 -11 L354 -161 L474 -92 L365 6 C462 54 490 196 490 329 L490 329 Z M191 343 C191 483 197 582 203 612 L320 612 C326 582 332 483 332 343 C332 208 326 109 320 78 L203 78 C197 109 191 208 191 343 L191 343 Z " />
<glyph glyph-name="R" unicode="R" horiz-adv-x="500" d="M335 0 L489 0 L368 296 C428 336 450 407 450 479 C450 597 413 696 294 696 L224 696 L201 696 L57 696 L57 0 L201 0 L201 263 L245 263 L335 0 Z M201 620 L297 620 C300 609 300 504 300 473 C300 432 297 380 297 341 L201 341 L201 620 Z " />
<glyph glyph-name="S" unicode="S" horiz-adv-x="410" d="M218 701 L183 701 C78 695 21 621 21 525 C21 470 41 398 120 315 C171 261 245 206 245 132 C245 117 242 95 236 72 L161 72 L27 197 L12 18 C65 -2 101 -11 164 -11 L218 -11 C324 -11 387 75 387 173 C387 257 336 332 260 407 C186 480 165 524 165 572 C165 593 168 614 170 618 L230 618 L348 492 L363 668 C311 693 269 701 218 701 L218 701 Z " />
<glyph glyph-name="T" unicode="T" horiz-adv-x="468" d="M453 696 L15 696 L50 470 L114 626 L162 626 L162 0 L308 0 L308 626 L348 626 L419 471 L453 696 Z " />
<glyph glyph-name="U" unicode="U" horiz-adv-x="521" d="M464 696 L338 696 L338 75 L209 75 L209 696 L57 696 L57 239 C57 60 99 -9 247 -11 L290 -11 C428 -11 464 72 464 251 L464 696 Z " />
<glyph glyph-name="V" unicode="V" horiz-adv-x="468" d="M474 696 L327 696 L339 563 L261 170 L162 696 L2 696 L167 0 L305 0 L474 696 Z " />
<glyph glyph-name="W" unicode="W" horiz-adv-x="766" d="M772 696 L625 696 L637 563 L561 164 L459 696 L304 696 L332 579 L250 170 L152 696 L2 696 L156 0 L294 0 L379 379 L469 0 L593 0 L593 1 L607 0 L772 696 Z " />
<glyph glyph-name="X" unicode="X" horiz-adv-x="534" d="M506 0 L335 376 L504 696 L370 696 L356 614 L291 472 L189 696 L23 696 L188 336 L14 0 L141 0 L150 66 L232 240 L342 0 L506 0 Z " />
<glyph glyph-name="Y" unicode="Y" horiz-adv-x="492" d="M482 696 L338 696 L344 564 L286 365 L167 696 L11 696 L182 237 L182 0 L327 0 L327 253 L482 696 Z " />
<glyph glyph-name="Z" unicode="Z" horiz-adv-x="443" d="M402 234 L306 84 L178 84 L417 614 L417 696 L35 696 L53 500 L146 623 L268 623 L15 72 L15 0 L419 0 L402 234 Z " />
<glyph glyph-name="bracketleft" unicode="&#x5b;" horiz-adv-x="306" d="M275 671 L275 756 L38 756 L38 -101 L275 -101 L275 -15 L177 -15 C177 47 177 146 177 329 L177 671 L275 671 Z " />
<glyph glyph-name="backslash" unicode="&#x5c;" horiz-adv-x="285" d="M317 -149 L116 708 L-12 705 C-14 713 137 65 186 -152 L317 -149 Z " />
<glyph glyph-name="bracketright" unicode="&#x5d;" horiz-adv-x="306" d="M39 671 L137 671 C137 609 137 510 137 329 L137 -15 L39 -15 L39 -101 L276 -101 L276 756 L39 756 L39 671 Z " />
<glyph glyph-name="asciicircum" unicode="&#x5e;" horiz-adv-x="430" d="M410 459 L270 720 L160 720 L20 459 L176 459 L176 582 L254 582 L254 459 L410 459 Z " />
<glyph glyph-name="underscore" unicode="&#x5f;" horiz-adv-x="492" d="M23 111 L23 0 L470 0 L470 111 L23 111 Z " />
<glyph glyph-name="a" unicode="a" horiz-adv-x="435" d="M225 530 C162 530 107 524 69 518 L87 351 L192 459 L251 459 L251 314 C109 314 23 280 23 150 C23 26 98 -11 213 -11 C243 -11 336 -8 389 12 L389 375 C389 479 354 530 225 530 L225 530 Z M170 59 L170 249 L251 249 L251 59 L170 59 Z " />
<glyph glyph-name="b" unicode="b" horiz-adv-x="445" d="M267 527 C220 527 196 512 180 497 L180 720 L48 720 L48 14 C84 -3 158 -11 207 -11 C361 -11 421 57 421 260 C421 446 372 527 267 527 L267 527 Z M180 59 L180 425 C202 450 235 459 276 459 L276 59 L180 59 Z " />
<glyph glyph-name="c" unicode="c" horiz-adv-x="350" d="M323 82 C283 69 255 59 206 59 L171 59 L171 459 L219 459 L315 348 L330 507 C276 522 230 527 197 527 C62 527 24 434 24 261 C24 95 45 -11 213 -11 C273 -11 307 0 338 10 L323 82 Z " />
<glyph glyph-name="d" unicode="d" horiz-adv-x="445" d="M399 0 L399 720 L265 720 L265 511 C250 521 226 527 188 527 C74 527 24 464 24 254 C24 62 75 -11 176 -11 C236 -11 270 14 287 46 L302 0 L399 0 Z M171 59 L171 459 L265 459 L265 113 C243 72 213 59 171 59 L171 59 Z " />
<glyph glyph-name="e" unicode="e" horiz-adv-x="402" d="M374 227 C405 488 311 530 216 530 C71 530 24 426 24 254 C24 74 62 -11 215 -11 C276 -11 329 3 356 15 L345 81 C293 66 251 59 195 59 L173 59 L173 227 L374 227 Z M258 459 L258 291 L173 291 L173 459 L258 459 Z " />
<glyph glyph-name="f" unicode="f" horiz-adv-x="323" d="M231 670 L336 588 L377 695 C323 716 284 724 216 724 C114 724 74 673 74 576 L74 516 L2 518 L2 426 L74 426 L74 102 L65 0 L207 0 L207 426 L315 426 L315 518 L207 515 L207 670 L231 670 Z " />
<glyph glyph-name="g" unicode="g" horiz-adv-x="454" d="M408 -71 L408 504 C368 519 296 530 242 530 C86 530 24 467 24 263 C24 81 78 -11 183 -11 C225 -11 251 2 271 19 L271 -165 L204 -165 L69 -71 L66 -201 C125 -218 159 -218 216 -219 C356 -219 408 -168 408 -71 L408 -71 Z M176 57 L176 461 L270 461 L270 91 C248 66 217 57 176 57 L176 57 Z " />
<glyph glyph-name="h" unicode="h" horiz-adv-x="463" d="M297 530 C239 530 201 511 181 478 L181 720 L48 720 L48 0 L181 0 L181 407 L221 459 L284 459 L284 0 L417 0 L417 381 C417 464 407 530 297 530 L297 530 Z " />
<glyph glyph-name="i" unicode="i" horiz-adv-x="258" d="M75 600 L204 600 L209 728 L75 728 L75 600 Z M212 0 L212 518 L48 518 L78 414 L78 0 L212 0 Z " />
<glyph glyph-name="j" unicode="j" horiz-adv-x="241" d="M186 600 L191 728 L57 728 L59 600 L186 600 Z M30 518 L62 414 L62 -29 L-20 -156 L110 -222 L195 15 L195 518 L30 518 Z " />
<glyph glyph-name="k" unicode="k" horiz-adv-x="440" d="M321 311 L414 518 L287 518 L282 390 L243 314 L182 306 L182 720 L48 720 L48 0 L182 0 L182 240 L213 240 L279 0 L425 0 L321 311 Z " />
<glyph glyph-name="l" unicode="l" horiz-adv-x="228" d="M182 0 L182 720 L48 720 L48 0 L182 0 Z " />
<glyph glyph-name="m" unicode="m" horiz-adv-x="693" d="M522 530 C462 530 422 506 405 464 C393 504 364 530 296 530 C229 530 190 506 173 463 L153 518 L48 518 L48 0 L182 0 L182 410 L219 459 L281 459 L281 0 L414 0 L414 408 L452 459 L513 459 L513 0 L647 0 L647 381 C647 464 636 530 522 530 L522 530 Z " />
<glyph glyph-name="n" unicode="n" horiz-adv-x="465" d="M297 530 C233 530 195 509 173 471 L155 518 L48 518 L48 0 L182 0 L182 411 L221 459 L285 459 L285 0 L419 0 L419 381 C419 464 408 530 297 530 L297 530 Z " />
<glyph glyph-name="o" unicode="o" horiz-adv-x="443" d="M419 260 L419 263 C418 390 382 530 231 530 L212 530 C61 530 25 390 24 263 C24 262 24 261 24 260 L24 257 C25 130 61 -11 212 -11 L231 -11 C382 -11 418 130 419 257 L419 260 Z M272 59 L171 59 L171 459 L272 459 L272 59 Z " />
<glyph glyph-name="p" unicode="p" horiz-adv-x="471" d="M294 530 C231 530 194 503 177 465 L158 518 L48 518 L63 405 L63 -203 L197 -203 L197 6 C216 -3 242 -11 283 -11 C398 -11 447 66 447 263 C447 456 398 530 294 530 L294 530 Z M197 59 L197 407 C228 455 253 462 294 462 L294 59 L197 59 Z " />
<glyph glyph-name="q" unicode="q" horiz-adv-x="444" d="M398 506 C362 523 288 530 239 530 C84 530 24 463 24 258 C24 72 74 -9 179 -9 C225 -9 249 6 265 20 L265 -203 L398 -203 L398 506 Z M170 59 L170 461 L264 461 L264 91 C242 68 209 59 170 59 L170 59 Z " />
<glyph glyph-name="r" unicode="r" horiz-adv-x="324" d="M279 530 C224 530 195 490 179 454 L155 518 L48 518 L48 0 L182 0 L182 374 C198 405 209 422 219 434 L311 368 L332 519 C311 527 294 530 279 530 L279 530 Z " />
<glyph glyph-name="s" unicode="s" horiz-adv-x="373" d="M167 414 L167 459 L213 459 L318 348 L324 518 C258 528 237 530 191 530 C101 530 27 501 27 401 C27 254 203 191 204 96 L204 59 L134 59 L33 200 L26 17 C81 -6 126 -11 165 -11 C287 -11 347 30 347 125 C347 276 167 332 167 414 L167 414 Z " />
<glyph glyph-name="t" unicode="t" horiz-adv-x="319" d="M314 426 L314 518 L209 515 L209 659 L76 659 L76 515 L1 518 L1 426 L76 431 L76 111 C76 63 77 -8 172 -11 C209 -11 250 -9 313 0 L313 75 L209 59 L209 432 L314 426 Z " />
<glyph glyph-name="u" unicode="u" horiz-adv-x="456" d="M276 518 L276 106 L239 59 L179 59 L179 518 L45 518 L45 137 C45 56 57 -11 182 -11 C236 -11 269 11 288 48 L305 0 L414 0 L414 518 L276 518 Z " />
<glyph glyph-name="v" unicode="v" horiz-adv-x="381" d="M375 518 L245 0 L96 0 L-8 518 L137 518 L186 209 L203 82 L269 392 L261 518 L375 518 Z " />
<glyph glyph-name="w" unicode="w" horiz-adv-x="629" d="M509 518 L516 392 L450 83 L434 209 L384 518 L240 518 L267 383 L203 82 L186 209 L137 518 L-8 518 L96 0 L245 0 L300 219 L344 0 L492 0 L623 518 L509 518 Z " />
<glyph glyph-name="x" unicode="x" horiz-adv-x="412" d="M264 0 L402 0 L274 268 L397 518 L280 518 L292 459 L238 343 L154 518 L16 518 L139 262 L10 0 L127 0 L112 56 L175 185 L264 0 Z " />
<glyph glyph-name="y" unicode="y" horiz-adv-x="375" d="M260 518 L260 389 L198 102 L135 518 L-8 518 L96 0 L168 0 L27 -156 L156 -222 L240 0 L369 518 L260 518 Z " />
<glyph glyph-name="z" unicode="z" horiz-adv-x="379" d="M364 518 L364 459 L167 59 L256 59 L349 207 L365 0 L14 0 L14 47 L226 459 L134 459 L49 347 L34 518 L364 518 Z " />
<glyph glyph-name="braceleft" unicode="&#x7b;" horiz-adv-x="347" d="M317 671 L317 756 C120 768 104 683 104 530 C104 404 90 372 30 372 L30 284 C90 284 104 252 104 126 C104 -27 120 -113 317 -101 L317 -15 C302 -15 291 -16 240 -15 L240 180 C240 254 243 319 127 328 C243 337 240 402 240 476 L240 671 C291 672 302 671 317 671 L317 671 Z " />
<glyph glyph-name="bar" unicode="&#x7c;" horiz-adv-x="176" d="M30 785 L30 -170 L146 -170 L146 785 L30 785 Z " />
<glyph glyph-name="braceright" unicode="&#x7d;" horiz-adv-x="347" d="M243 530 C243 683 227 768 30 756 L30 671 C45 671 56 672 107 671 L107 476 C107 402 104 337 220 328 C104 319 107 254 107 180 L107 -15 C56 -16 45 -15 30 -15 L30 -101 C227 -113 243 -27 243 126 C243 252 257 284 317 284 L317 372 C257 372 243 404 243 530 L243 530 Z " />
<glyph glyph-name="asciitilde" unicode="&#x7e;" horiz-adv-x="576" d="M434 449 L434 330 L384 330 C303 419 260 485 143 465 C80 434 39 351 15 225 L143 225 L143 344 L192 344 C264 269 336 173 443 209 C497 245 545 330 561 449 L434 449 Z " />
<glyph glyph-name="exclamdown" unicode="&#xa1;" horiz-adv-x="195" d="M105 724 C59 724 21 687 21 640 C21 594 59 556 105 556 C150 556 188 594 188 640 C188 687 150 724 105 724 L105 724 Z M156 474 L44 474 L44 254 L32 0 L168 0 L156 254 L156 474 Z " />
<glyph glyph-name="cent" unicode="&#xa2;" horiz-adv-x="356" d="M339 117 L320 260 L240 161 L174 161 L174 531 L225 531 L318 438 L336 579 C297 590 262 595 232 598 L246 704 L141 704 L155 595 C53 576 23 486 23 336 C23 212 51 116 155 96 L141 -11 L246 -11 L232 93 C287 96 313 107 339 117 L339 117 Z " />
<glyph glyph-name="sterling" unicode="&#xa3;" horiz-adv-x="470" d="M330 86 L123 86 C190 144 237 213 248 306 L269 306 L410 300 L410 395 L269 389 L249 389 L249 641 L299 641 L404 522 L432 677 C390 693 342 708 281 708 C183 708 107 672 107 552 C107 516 114 449 118 391 L39 395 L39 300 L119 304 C115 226 95 146 30 86 L30 0 L440 0 L440 155 L330 86 Z " />
<glyph glyph-name="yen" unicode="&#xa5;" horiz-adv-x="492" d="M482 696 L338 696 L344 564 L286 365 L167 696 L11 696 L152 318 L54 318 L54 237 L182 237 L182 183 L54 183 L54 102 L182 102 L182 0 L327 0 L327 102 L455 102 L455 183 L327 183 L327 237 L455 237 L455 318 L350 318 L482 696 Z " />
<glyph glyph-name="brokenbar" unicode="&#xa6;" horiz-adv-x="176" d="M30 395 L146 395 L146 785 L30 785 L30 395 Z M146 220 L30 220 L30 -170 L146 -170 L146 220 Z " />
<glyph glyph-name="section" unicode="&#xa7;" horiz-adv-x="477" d="M432 344 C432 509 218 531 218 627 L218 675 L267 675 L366 561 L378 731 C330 737 300 738 254 740 L245 740 C161 740 83 695 84 603 C83 558 102 523 128 494 C78 473 44 433 45 375 C44 306 90 260 139 220 L144 217 C198 174 254 139 255 90 L255 41 L188 41 L92 185 L80 2 C135 -21 180 -26 213 -26 C336 -26 392 21 392 116 C392 162 376 196 353 223 C406 245 432 285 432 344 L432 344 Z M305 272 L292 272 C238 306 182 328 174 369 L174 444 L186 444 C240 406 296 379 305 348 L305 272 Z " />
<glyph glyph-name="copyright" unicode="&#xa9;" horiz-adv-x="397" d="M198 382 C338 382 396 469 396 600 C396 731 338 818 198 818 C58 818 -1 730 -1 600 C-1 469 57 382 198 382 L198 382 Z M270 560 L296 466 C273 450 253 443 190 443 C120 443 82 488 82 600 C82 710 121 758 195 758 C232 758 269 753 295 733 L264 635 L229 704 L181 704 C180 692 178 651 178 600 C178 551 180 510 181 498 L229 498 L270 560 Z " />
<glyph glyph-name="ordfeminine" unicode="&#xaa;" horiz-adv-x="438" d="M228 530 C165 530 110 524 72 518 L90 351 L195 459 L254 459 L254 314 C112 314 26 283 26 153 C26 26 101 -11 216 -11 C246 -11 339 -8 392 12 L392 375 C392 479 357 530 228 530 L228 530 Z M173 59 L173 249 L254 249 L254 59 L173 59 Z " />
<glyph glyph-name="guillemotleft" unicode="&#xab;" horiz-adv-x="560" d="M15 261 L149 62 L290 62 L156 261 L290 464 L149 464 L15 261 Z M270 261 L404 62 L545 62 L411 261 L545 464 L404 464 L270 261 Z " />
<glyph glyph-name="uni00AD" unicode="&#xad;" horiz-adv-x="900" d="M23 341 L23 230 L285 230 L285 341 L23 341 Z " />
<glyph glyph-name="registered" unicode="&#xae;" horiz-adv-x="397" d="M199 382 C339 382 397 469 397 600 C397 731 339 818 199 818 C59 818 0 730 0 600 C0 469 58 382 199 382 L199 382 Z M228 456 L192 549 L179 549 L180 456 L91 456 L91 746 L211 746 C298 746 319 701 319 647 C319 622 307 586 274 566 L327 456 L228 456 Z M178 692 L179 603 L225 603 L225 692 L178 692 Z " />
<glyph glyph-name="degree" unicode="&#xb0;" horiz-adv-x="384" d="M192 438 C282 438 354 510 354 600 C354 690 282 762 192 762 C102 762 30 690 30 600 C30 510 102 438 192 438 L192 438 Z M137 671 L248 671 L248 530 L137 530 L137 671 Z " />
<glyph glyph-name="plusminus" unicode="&#xb1;" horiz-adv-x="573" d="M342 511 L342 704 L231 704 L231 511 L38 511 L38 400 L231 400 L231 206 L342 206 L342 400 L536 400 L536 511 L342 511 Z M38 40 L536 40 L536 151 L38 151 L38 40 Z " />
<glyph glyph-name="uni00B2" unicode="&#xb2;" horiz-adv-x="363" d="M254 370 L157 370 C277 468 357 508 357 593 C357 680 270 698 192 698 C127 698 80 686 33 673 L62 529 L137 631 L204 631 L204 541 L26 339 L26 303 L363 303 L363 458 L254 370 Z " />
<glyph glyph-name="uni00B3" unicode="&#xb3;" horiz-adv-x="411" d="M322 512 C367 534 379 556 379 600 C379 667 323 698 207 698 C145 698 99 686 61 674 L85 564 L170 631 L230 631 L229 525 L174 523 L119 528 L119 463 L174 468 L227 468 L230 362 L137 362 L74 440 L51 309 C85 302 126 295 200 295 C334 295 391 334 391 416 C391 454 370 493 322 512 L322 512 Z " />
<glyph glyph-name="uni00B5" unicode="&#xb5;" horiz-adv-x="456" d="M276 518 L276 106 L239 59 L179 59 L179 518 L45 518 L45 -203 L179 -203 L179 -9 C186 -10 193 -11 200 -11 C238 -11 270 11 288 48 L305 0 L414 0 L414 518 L276 518 Z " />
<glyph glyph-name="paragraph" unicode="&#xb6;" horiz-adv-x="483" d="M426 696 L162 696 C54 696 0 605 0 506 C0 408 54 313 171 313 L208 313 L208 0 L290 0 L290 639 L344 639 L344 0 L426 0 L426 696 Z " />
<glyph glyph-name="periodcentered" unicode="&#xb7;" horiz-adv-x="192" d="M95 209 C140 209 177 246 177 293 C177 339 140 377 95 377 C48 377 11 339 11 293 C11 246 48 209 95 209 L95 209 Z " />
<glyph glyph-name="uni00B9" unicode="&#xb9;" horiz-adv-x="264" d="M130 579 L130 310 L264 310 L263 472 L263 697 L149 697 L23 609 L40 492 L130 579 Z " />
<glyph glyph-name="ordmasculine" unicode="&#xba;" horiz-adv-x="443" d="M419 260 L419 263 C418 390 382 530 231 530 L212 530 C61 530 25 390 24 263 C24 262 24 261 24 260 L24 257 C25 130 61 -11 212 -11 L231 -11 C382 -11 418 130 419 257 L419 260 Z M272 59 L171 59 L171 459 L272 459 L272 59 Z " />
<glyph glyph-name="guillemotright" unicode="&#xbb;" horiz-adv-x="560" d="M290 261 L156 464 L15 464 L149 261 L15 62 L156 62 L290 261 Z M545 261 L411 464 L270 464 L404 261 L270 62 L411 62 L545 261 Z " />
<glyph glyph-name="onequarter" unicode="&#xbc;" horiz-adv-x="964" d="M130 579 L130 310 L264 310 L263 472 L263 697 L149 697 L23 609 L40 492 L130 579 Z M512 696 L512 623 L225 0 L398 0 L398 74 L684 696 L512 696 Z M964 153 L886 145 L886 387 L744 387 L569 134 L569 75 L754 75 L754 0 L887 0 L886 74 L964 70 L964 153 Z M646 145 C684 201 726 261 754 303 L755 188 L755 145 L646 145 Z " />
<glyph glyph-name="onehalf" unicode="&#xbd;" horiz-adv-x="983" d="M130 579 L130 310 L264 310 L263 472 L263 697 L149 697 L23 609 L40 492 L130 579 Z M512 696 L512 623 L225 0 L398 0 L398 74 L684 696 L512 696 Z M874 67 L777 67 C897 165 977 205 977 290 C977 377 890 395 812 395 C747 395 700 383 653 370 L682 226 L757 328 L824 328 L824 238 L646 36 L646 0 L983 0 L983 155 L874 67 Z " />
<glyph glyph-name="threequarters" unicode="&#xbe;" horiz-adv-x="1093" d="M391 416 C391 454 370 493 322 512 C367 534 379 556 379 600 C379 667 323 698 207 698 C145 698 99 686 61 674 L85 564 L170 631 L230 631 L229 525 L174 523 L119 528 L119 463 L174 468 L227 468 L230 362 L137 362 L74 440 L51 309 C85 302 126 295 200 295 C334 295 391 334 391 416 L391 416 Z M641 696 L641 623 L354 0 L527 0 L527 74 L813 696 L641 696 Z M1093 153 L1015 145 L1015 387 L873 387 L698 134 L698 75 L883 75 L883 0 L1016 0 L1015 74 L1093 70 L1093 153 Z M775 145 C813 201 855 261 883 303 L884 188 L884 145 L775 145 Z " />
<glyph glyph-name="questiondown" unicode="&#xbf;" horiz-adv-x="291" d="M85 712 C38 712 0 674 0 628 C0 581 38 544 85 544 C130 544 167 581 167 628 C167 674 130 712 85 712 L85 712 Z M281 152 C281 269 193 320 136 332 L136 461 L23 461 L23 322 L145 224 L145 56 L68 56 L-27 185 L-42 26 C3 7 41 -10 104 -10 C227 -10 281 61 281 152 L281 152 Z " />
<glyph glyph-name="Agrave" unicode="&#xc0;" horiz-adv-x="506" d="M217 739 L306 739 L292 832 L291 910 L167 910 L187 835 L217 739 Z M356 0 L501 0 L321 696 L195 696 L203 649 L5 0 L107 0 L146 134 L323 134 L356 0 Z M169 216 L237 453 L246 453 L304 216 L169 216 Z " />
<glyph glyph-name="Aacute" unicode="&#xc1;" horiz-adv-x="506" d="M346 910 L223 910 L219 832 L211 739 L300 739 L346 910 Z M356 0 L501 0 L321 696 L195 696 L203 649 L5 0 L107 0 L146 134 L323 134 L356 0 Z M169 216 L237 453 L246 453 L304 216 L169 216 Z " />
<glyph glyph-name="Acircumflex" unicode="&#xc2;" horiz-adv-x="506" d="M252 841 L260 856 L267 841 L312 739 L400 739 L345 910 L174 910 L118 739 L207 739 L252 841 Z M356 0 L501 0 L321 696 L195 696 L203 649 L5 0 L107 0 L146 134 L323 134 L356 0 Z M169 216 L237 453 L246 453 L304 216 L169 216 Z " />
<glyph glyph-name="Atilde" unicode="&#xc3;" horiz-adv-x="506" d="M175 832 L205 832 C250 786 295 726 361 748 C394 771 424 823 434 897 L355 897 L355 823 L325 823 C274 879 247 919 175 907 C136 888 110 837 95 759 L175 759 L175 832 Z M356 0 L501 0 L321 696 L195 696 L203 649 L5 0 L107 0 L146 134 L323 134 L356 0 Z M169 216 L237 453 L246 453 L304 216 L169 216 Z " />
<glyph glyph-name="Adieresis" unicode="&#xc4;" horiz-adv-x="506" d="M230 766 L234 894 L101 894 L102 766 L230 766 Z M410 766 L414 894 L281 894 L282 766 L410 766 Z M356 0 L501 0 L321 696 L195 696 L203 649 L5 0 L107 0 L146 134 L323 134 L356 0 Z M169 216 L237 453 L246 453 L304 216 L169 216 Z " />
<glyph glyph-name="Aring" unicode="&#xc5;" horiz-adv-x="506" d="M260 730 C311 730 352 771 352 823 C352 874 311 915 260 915 C208 915 167 874 167 823 C167 771 208 730 260 730 L260 730 Z M238 866 L281 866 L281 779 L238 779 L238 866 Z M356 0 L501 0 L321 696 L195 696 L203 649 L5 0 L107 0 L146 134 L323 134 L356 0 Z M169 216 L237 453 L246 453 L304 216 L169 216 Z " />
<glyph glyph-name="AE" unicode="&#xc6;" horiz-adv-x="620" d="M482 68 L414 68 L414 311 L555 311 L555 393 L414 393 L414 629 L488 629 L566 509 L578 696 L172 696 L172 635 L5 0 L115 0 L148 134 L268 134 L268 0 L578 0 L566 173 L482 68 Z M168 216 L268 627 L268 216 L168 216 Z " />
<glyph glyph-name="Ccedilla" unicode="&#xc7;" horiz-adv-x="449" d="M258 -36 C261 -26 263 -18 264 -11 C331 -10 371 -1 422 18 L397 191 L293 72 L205 72 L205 618 L292 618 L401 486 L418 665 C368 693 316 701 247 701 C101 701 32 599 32 344 C32 104 82 12 195 -7 C192 -26 186 -51 179 -89 L260 -89 L260 -167 L227 -167 L168 -140 L162 -204 C180 -212 203 -218 234 -218 C270 -218 362 -210 362 -125 C362 -80 335 -36 258 -36 L258 -36 Z " />
<glyph glyph-name="Egrave" unicode="&#xc8;" horiz-adv-x="419" d="M196 739 L285 739 L271 832 L270 910 L146 910 L166 835 L196 739 Z M281 68 L203 68 L203 311 L354 311 L354 393 L203 393 L203 629 L287 629 L365 509 L377 696 L57 696 L57 0 L377 0 L365 173 L281 68 Z " />
<glyph glyph-name="Eacute" unicode="&#xc9;" horiz-adv-x="419" d="M312 910 L189 910 L185 832 L177 739 L266 739 L312 910 Z M281 68 L203 68 L203 311 L354 311 L354 393 L203 393 L203 629 L287 629 L365 509 L377 696 L57 696 L57 0 L377 0 L365 173 L281 68 Z " />
<glyph glyph-name="Ecircumflex" unicode="&#xca;" horiz-adv-x="419" d="M213 841 L221 856 L228 841 L273 739 L361 739 L306 910 L135 910 L79 739 L168 739 L213 841 Z M281 68 L203 68 L203 311 L354 311 L354 393 L203 393 L203 629 L287 629 L365 509 L377 696 L57 696 L57 0 L377 0 L365 173 L281 68 Z " />
<glyph glyph-name="Edieresis" unicode="&#xcb;" horiz-adv-x="419" d="M191 766 L195 894 L62 894 L63 766 L191 766 Z M371 766 L375 894 L242 894 L243 766 L371 766 Z M281 68 L203 68 L203 311 L354 311 L354 393 L203 393 L203 629 L287 629 L365 509 L377 696 L57 696 L57 0 L377 0 L365 173 L281 68 Z " />
<glyph glyph-name="Igrave" unicode="&#xcc;" horiz-adv-x="260" d="M189 739 L175 832 L174 910 L50 910 L70 835 L100 739 L189 739 Z M203 0 L203 696 L57 696 L57 0 L203 0 Z " />
<glyph glyph-name="Iacute" unicode="&#xcd;" horiz-adv-x="260" d="M80 739 L169 739 L215 910 L92 910 L88 832 L80 739 Z M203 0 L203 696 L57 696 L57 0 L203 0 Z " />
<glyph glyph-name="Icircumflex" unicode="&#xce;" horiz-adv-x="260" d="M123 841 L131 856 L138 841 L183 739 L271 739 L216 910 L45 910 L-11 739 L78 739 L123 841 Z M57 0 L203 0 L203 696 L57 696 L57 0 Z " />
<glyph glyph-name="Idieresis" unicode="&#xcf;" horiz-adv-x="260" d="M-27 766 L101 766 L105 894 L-28 894 L-27 766 Z M153 766 L281 766 L285 894 L152 894 L153 766 Z M203 0 L203 696 L57 696 L57 0 L203 0 Z " />
<glyph glyph-name="Eth" unicode="&#xd0;" horiz-adv-x="554" d="M324 696 L99 696 L99 386 L17 386 L17 314 L99 314 L99 3 L97 0 L328 0 C471 0 522 156 522 341 C522 557 465 696 324 696 L324 696 Z M349 75 L241 77 L241 314 L294 314 L294 386 L241 386 L241 614 L349 614 L349 75 Z " />
<glyph glyph-name="Ntilde" unicode="&#xd1;" horiz-adv-x="576" d="M218 832 L248 832 C293 786 338 726 404 748 C437 771 467 823 477 897 L398 897 L398 823 L368 823 C317 879 290 919 218 907 C179 888 153 837 138 759 L218 759 L218 832 Z M410 696 L410 277 L395 308 L188 696 L57 696 L80 646 L80 0 L183 0 L183 410 L410 0 L519 0 L519 696 L410 696 Z " />
<glyph glyph-name="Ograve" unicode="&#xd2;" horiz-adv-x="522" d="M317 739 L303 832 L302 910 L178 910 L198 835 L228 739 L317 739 Z M490 329 L490 357 C490 524 449 701 287 701 L236 701 C74 701 32 524 32 357 L32 329 C32 165 74 -11 236 -11 L287 -11 C449 -11 490 165 490 329 L490 329 Z M320 78 L203 78 C197 109 191 208 191 343 C191 483 197 582 203 612 L320 612 C326 582 332 483 332 343 C332 208 326 109 320 78 L320 78 Z " />
<glyph glyph-name="Oacute" unicode="&#xd3;" horiz-adv-x="522" d="M216 739 L305 739 L351 910 L228 910 L224 832 L216 739 Z M490 329 L490 357 C490 524 449 701 287 701 L236 701 C74 701 32 524 32 357 L32 329 C32 165 74 -11 236 -11 L287 -11 C449 -11 490 165 490 329 L490 329 Z M320 78 L203 78 C197 109 191 208 191 343 C191 483 197 582 203 612 L320 612 C326 582 332 483 332 343 C332 208 326 109 320 78 L320 78 Z " />
<glyph glyph-name="Ocircumflex" unicode="&#xd4;" horiz-adv-x="522" d="M254 841 L262 856 L269 841 L314 739 L402 739 L347 910 L176 910 L120 739 L209 739 L254 841 Z M287 701 L236 701 C74 701 32 524 32 357 L32 329 C32 165 74 -11 236 -11 L287 -11 C449 -11 490 165 490 329 L490 357 C490 524 449 701 287 701 L287 701 Z M320 78 L203 78 C197 109 191 208 191 343 C191 483 197 582 203 612 L320 612 C326 582 332 483 332 343 C332 208 326 109 320 78 L320 78 Z " />
<glyph glyph-name="Otilde" unicode="&#xd5;" horiz-adv-x="522" d="M358 897 L358 823 L328 823 C277 879 250 919 178 907 C139 888 113 837 98 759 L178 759 L178 832 L208 832 C253 786 298 726 364 748 C397 771 427 823 437 897 L358 897 Z M490 329 L490 357 C490 524 449 701 287 701 L236 701 C74 701 32 524 32 357 L32 329 C32 165 74 -11 236 -11 L287 -11 C449 -11 490 165 490 329 L490 329 Z M320 78 L203 78 C197 109 191 208 191 343 C191 483 197 582 203 612 L320 612 C326 582 332 483 332 343 C332 208 326 109 320 78 L320 78 Z " />
<glyph glyph-name="Odieresis" unicode="&#xd6;" horiz-adv-x="522" d="M95 766 L223 766 L227 894 L94 894 L95 766 Z M275 766 L403 766 L407 894 L274 894 L275 766 Z M490 329 L490 357 C490 524 449 701 287 701 L236 701 C74 701 32 524 32 357 L32 329 C32 165 74 -11 236 -11 L287 -11 C449 -11 490 165 490 329 L490 329 Z M320 78 L203 78 C197 109 191 208 191 343 C191 483 197 582 203 612 L320 612 C326 582 332 483 332 343 C332 208 326 109 320 78 L320 78 Z " />
<glyph glyph-name="multiply" unicode="&#xd7;" horiz-adv-x="491" d="M446 210 L311 351 L441 492 L372 560 L244 421 L116 555 L38 477 L170 339 L42 200 L111 132 L237 269 L368 132 L446 210 Z " />
<glyph glyph-name="Oslash" unicode="&#xd8;" horiz-adv-x="563" d="M531 696 L435 696 L435 660 L434 659 C405 685 367 701 319 701 L268 701 C106 701 64 524 64 357 L64 329 C64 253 73 175 98 113 L32 0 L129 0 L129 53 L131 55 C163 14 207 -11 268 -11 L319 -11 C481 -11 522 165 522 329 L522 357 C522 445 511 536 476 602 L531 696 Z M223 343 C223 483 229 582 235 612 L352 612 C354 601 356 581 358 554 L223 324 L223 343 Z M364 343 C364 208 358 109 352 78 L235 78 C232 94 229 130 226 179 L363 412 C364 390 364 367 364 343 L364 343 Z " />
<glyph glyph-name="Ugrave" unicode="&#xd9;" horiz-adv-x="521" d="M338 739 L324 832 L323 910 L199 910 L219 835 L249 739 L338 739 Z M464 696 L338 696 L338 75 L209 75 L209 696 L57 696 L57 239 C57 60 99 -9 247 -11 L290 -11 C428 -11 464 72 464 251 L464 696 Z " />
<glyph glyph-name="Uacute" unicode="&#xda;" horiz-adv-x="521" d="M230 739 L319 739 L365 910 L242 910 L238 832 L230 739 Z M464 696 L338 696 L338 75 L209 75 L209 696 L57 696 L57 239 C57 60 99 -9 247 -11 L290 -11 C428 -11 464 72 464 251 L464 696 Z " />
<glyph glyph-name="Ucircumflex" unicode="&#xdb;" horiz-adv-x="521" d="M266 841 L274 856 L281 841 L326 739 L414 739 L359 910 L188 910 L132 739 L221 739 L266 841 Z M338 696 L338 75 L209 75 L209 696 L57 696 L57 239 C57 60 99 -9 247 -11 L290 -11 C428 -11 464 72 464 251 L464 696 L338 696 Z " />
<glyph glyph-name="Udieresis" unicode="&#xdc;" horiz-adv-x="521" d="M116 766 L244 766 L248 894 L115 894 L116 766 Z M296 766 L424 766 L428 894 L295 894 L296 766 Z M464 696 L338 696 L338 75 L209 75 L209 696 L57 696 L57 239 C57 60 99 -9 247 -11 L290 -11 C428 -11 464 72 464 251 L464 696 Z " />
<glyph glyph-name="Yacute" unicode="&#xdd;" horiz-adv-x="492" d="M342 910 L219 910 L215 832 L207 739 L296 739 L342 910 Z M482 696 L338 696 L344 564 L286 365 L167 696 L11 696 L182 237 L182 0 L327 0 L327 253 L482 696 Z " />
<glyph glyph-name="Thorn" unicode="&#xde;" horiz-adv-x="477" d="M269 602 L203 602 L203 696 L57 696 L57 0 L203 0 L203 109 L260 109 C411 109 461 237 461 351 C461 461 431 602 269 602 L269 602 Z M303 191 L203 191 L203 519 L302 519 C305 509 306 413 306 351 C306 282 305 230 303 191 L303 191 Z " />
<glyph glyph-name="germandbls" unicode="&#xdf;" horiz-adv-x="587" d="M398 446 L398 500 L461 692 C371 720 330 724 267 724 C126 724 74 674 74 576 L74 516 L2 518 L2 426 L74 426 L74 102 L64 0 L207 0 L207 654 L314 654 L314 381 C369 314 423 260 423 150 L423 59 L378 59 L297 200 L282 17 C338 -6 369 -11 413 -11 C506 -11 561 39 561 159 C561 339 444 399 398 446 L398 446 Z " />
<glyph glyph-name="agrave" unicode="&#xe0;" horiz-adv-x="435" d="M190 612 L279 612 L265 705 L264 783 L140 783 L160 708 L190 612 Z M225 530 C162 530 107 524 69 518 L87 351 L192 459 L251 459 L251 314 C109 314 23 280 23 150 C23 26 98 -11 213 -11 C243 -11 336 -8 389 12 L389 375 C389 479 354 530 225 530 L225 530 Z M170 59 L170 249 L251 249 L251 59 L170 59 Z " />
<glyph glyph-name="aacute" unicode="&#xe1;" horiz-adv-x="435" d="M316 783 L193 783 L189 705 L181 612 L270 612 L316 783 Z M225 530 C162 530 107 524 69 518 L87 351 L192 459 L251 459 L251 314 C109 314 23 280 23 150 C23 26 98 -11 213 -11 C243 -11 336 -8 389 12 L389 375 C389 479 354 530 225 530 L225 530 Z M170 59 L170 249 L251 249 L251 59 L170 59 Z " />
<glyph glyph-name="acircumflex" unicode="&#xe2;" horiz-adv-x="435" d="M207 714 L215 729 L222 714 L267 612 L355 612 L300 783 L129 783 L73 612 L162 612 L207 714 Z M225 530 C162 530 107 524 69 518 L87 351 L192 459 L251 459 L251 314 C109 314 23 280 23 150 C23 26 98 -11 213 -11 C243 -11 336 -8 389 12 L389 375 C389 479 354 530 225 530 L225 530 Z M170 59 L170 249 L251 249 L251 59 L170 59 Z " />
<glyph glyph-name="atilde" unicode="&#xe3;" horiz-adv-x="435" d="M134 705 L164 705 C209 659 254 599 320 621 C353 644 383 696 393 770 L314 770 L314 696 L284 696 C233 752 206 792 134 780 C95 761 69 710 54 632 L134 632 L134 705 Z M225 530 C162 530 107 524 69 518 L87 351 L192 459 L251 459 L251 314 C109 314 23 280 23 150 C23 26 98 -11 213 -11 C243 -11 336 -8 389 12 L389 375 C389 479 354 530 225 530 L225 530 Z M170 59 L170 249 L251 249 L251 59 L170 59 Z " />
<glyph glyph-name="adieresis" unicode="&#xe4;" horiz-adv-x="435" d="M185 639 L189 767 L56 767 L57 639 L185 639 Z M365 639 L369 767 L236 767 L237 639 L365 639 Z M225 530 C162 530 107 524 69 518 L87 351 L192 459 L251 459 L251 314 C109 314 23 280 23 150 C23 26 98 -11 213 -11 C243 -11 336 -8 389 12 L389 375 C389 479 354 530 225 530 L225 530 Z M170 59 L170 249 L251 249 L251 59 L170 59 Z " />
<glyph glyph-name="aring" unicode="&#xe5;" horiz-adv-x="435" d="M211 603 C262 603 303 644 303 696 C303 747 262 788 211 788 C159 788 118 747 118 696 C118 644 159 603 211 603 L211 603 Z M189 739 L232 739 L232 652 L189 652 L189 739 Z M225 530 C162 530 107 524 69 518 L87 351 L192 459 L251 459 L251 314 C109 314 23 280 23 150 C23 26 98 -11 213 -11 C243 -11 336 -8 389 12 L389 375 C389 479 354 530 225 530 L225 530 Z M170 59 L170 249 L251 249 L251 59 L170 59 Z " />
<glyph glyph-name="ae" unicode="&#xe6;" horiz-adv-x="627" d="M599 227 C630 488 536 530 451 530 C408 530 374 519 349 498 C324 519 284 530 225 530 C162 530 107 524 69 518 L87 351 L192 459 L251 459 L251 314 C109 314 23 283 23 153 C23 26 98 -11 213 -11 C238 -11 309 -9 363 4 C383 -6 409 -11 440 -11 C501 -11 554 3 581 15 L570 81 C518 66 476 59 420 59 L398 59 L398 227 L599 227 Z M483 459 L483 291 L398 291 L398 459 L483 459 Z M170 59 L170 249 L251 249 L251 59 L170 59 Z " />
<glyph glyph-name="ccedilla" unicode="&#xe7;" horiz-adv-x="350" d="M216 -36 C219 -26 221 -18 222 -11 C277 -10 309 1 338 10 L323 82 C283 69 255 59 206 59 L171 59 L171 459 L219 459 L315 348 L330 507 C276 522 230 527 197 527 C62 527 24 434 24 261 C24 117 40 18 153 -5 C150 -25 145 -50 137 -89 L218 -89 L218 -167 L185 -167 L126 -140 L120 -204 C138 -212 161 -218 192 -218 C228 -218 320 -210 320 -125 C320 -80 293 -36 216 -36 L216 -36 Z " />
<glyph glyph-name="egrave" unicode="&#xe8;" horiz-adv-x="402" d="M184 612 L273 612 L259 705 L258 783 L134 783 L154 708 L184 612 Z M374 227 C405 488 311 530 216 530 C71 530 24 426 24 254 C24 74 62 -11 215 -11 C276 -11 329 3 356 15 L345 81 C293 66 251 59 195 59 L173 59 L173 227 L374 227 Z M258 459 L258 291 L173 291 L173 459 L258 459 Z " />
<glyph glyph-name="eacute" unicode="&#xe9;" horiz-adv-x="402" d="M299 783 L176 783 L172 705 L164 612 L253 612 L299 783 Z M374 227 C405 488 311 530 216 530 C71 530 24 426 24 254 C24 74 62 -11 215 -11 C276 -11 329 3 356 15 L345 81 C293 66 251 59 195 59 L173 59 L173 227 L374 227 Z M258 459 L258 291 L173 291 L173 459 L258 459 Z " />
<glyph glyph-name="ecircumflex" unicode="&#xea;" horiz-adv-x="402" d="M201 714 L209 729 L216 714 L261 612 L349 612 L294 783 L123 783 L67 612 L156 612 L201 714 Z M374 227 C405 488 311 530 216 530 C71 530 24 426 24 254 C24 74 62 -11 215 -11 C276 -11 329 3 356 15 L345 81 C293 66 251 59 195 59 L173 59 L173 227 L374 227 Z M258 459 L258 291 L173 291 L173 459 L258 459 Z " />
<glyph glyph-name="edieresis" unicode="&#xeb;" horiz-adv-x="402" d="M179 639 L183 767 L50 767 L51 639 L179 639 Z M359 639 L363 767 L230 767 L231 639 L359 639 Z M374 227 C405 488 311 530 216 530 C71 530 24 426 24 254 C24 74 62 -11 215 -11 C276 -11 329 3 356 15 L345 81 C293 66 251 59 195 59 L173 59 L173 227 L374 227 Z M258 459 L258 291 L173 291 L173 459 L258 459 Z " />
<glyph glyph-name="igrave" unicode="&#xec;" horiz-adv-x="259" d="M198 612 L184 705 L183 783 L59 783 L79 708 L109 612 L198 612 Z M213 0 L213 518 L48 518 L78 414 L78 0 L213 0 Z " />
<glyph glyph-name="iacute" unicode="&#xed;" horiz-adv-x="265" d="M84 612 L173 612 L219 783 L96 783 L92 705 L84 612 Z M213 0 L213 518 L48 518 L78 414 L78 0 L213 0 Z " />
<glyph glyph-name="icircumflex" unicode="&#xee;" horiz-adv-x="259" d="M126 714 L134 729 L141 714 L186 612 L274 612 L219 783 L48 783 L-8 612 L81 612 L126 714 Z M78 414 L78 0 L213 0 L213 518 L48 518 L78 414 Z " />
<glyph glyph-name="idieresis" unicode="&#xef;" horiz-adv-x="259" d="M-24 639 L104 639 L108 767 L-25 767 L-24 639 Z M156 639 L284 639 L288 767 L155 767 L156 639 Z M213 0 L213 518 L48 518 L78 414 L78 0 L213 0 Z " />
<glyph glyph-name="eth" unicode="&#xf0;" horiz-adv-x="464" d="M418 234 C418 482 410 562 354 639 L409 674 L370 726 L319 676 C286 704 241 720 181 720 L86 720 L86 629 L266 629 L164 572 L202 519 L271 584 L271 479 C258 482 244 483 211 483 C80 483 24 386 24 234 C24 101 61 -10 211 -10 L230 -10 C380 -10 418 101 418 234 L418 234 Z M271 419 L271 53 L170 53 L170 419 L271 419 Z " />
<glyph glyph-name="ntilde" unicode="&#xf1;" horiz-adv-x="465" d="M326 770 L326 696 L296 696 C245 752 218 792 146 780 C107 761 81 710 66 632 L146 632 L146 705 L176 705 C221 659 266 599 332 621 C365 644 395 696 405 770 L326 770 Z M297 530 C233 530 195 509 173 471 L155 518 L48 518 L48 0 L182 0 L182 411 L221 459 L285 459 L285 0 L419 0 L419 381 C419 464 408 530 297 530 L297 530 Z " />
<glyph glyph-name="ograve" unicode="&#xf2;" horiz-adv-x="443" d="M193 612 L282 612 L268 705 L267 783 L143 783 L163 708 L193 612 Z M419 260 L419 263 C418 390 382 530 231 530 L212 530 C61 530 25 390 24 263 C24 262 24 261 24 260 L24 257 C25 130 61 -11 212 -11 L231 -11 C382 -11 418 130 419 257 L419 260 Z M272 59 L171 59 L171 459 L272 459 L272 59 Z " />
<glyph glyph-name="oacute" unicode="&#xf3;" horiz-adv-x="443" d="M314 783 L191 783 L187 705 L179 612 L268 612 L314 783 Z M419 260 L419 263 C418 390 382 530 231 530 L212 530 C61 530 25 390 24 263 C24 262 24 261 24 260 L24 257 C25 130 61 -11 212 -11 L231 -11 C382 -11 418 130 419 257 L419 260 Z M272 59 L171 59 L171 459 L272 459 L272 59 Z " />
<glyph glyph-name="ocircumflex" unicode="&#xf4;" horiz-adv-x="443" d="M210 714 L218 729 L225 714 L270 612 L358 612 L303 783 L132 783 L76 612 L165 612 L210 714 Z M419 260 L419 263 C418 390 382 530 231 530 L212 530 C61 530 25 390 24 263 C24 262 24 261 24 260 L24 257 C25 130 61 -11 212 -11 L231 -11 C382 -11 418 130 419 257 L419 260 Z M272 59 L171 59 L171 459 L272 459 L272 59 Z " />
<glyph glyph-name="otilde" unicode="&#xf5;" horiz-adv-x="443" d="M135 705 L165 705 C210 659 255 599 321 621 C354 644 384 696 394 770 L315 770 L315 696 L285 696 C234 752 207 792 135 780 C96 761 70 710 55 632 L135 632 L135 705 Z M419 260 L419 263 C418 390 382 530 231 530 L212 530 C61 530 25 390 24 263 C24 262 24 261 24 260 L24 257 C25 130 61 -11 212 -11 L231 -11 C382 -11 418 130 419 257 L419 260 Z M272 59 L171 59 L171 459 L272 459 L272 59 Z " />
<glyph glyph-name="odieresis" unicode="&#xf6;" horiz-adv-x="443" d="M188 639 L192 767 L59 767 L60 639 L188 639 Z M368 639 L372 767 L239 767 L240 639 L368 639 Z M419 260 L419 263 C418 390 382 530 231 530 L212 530 C61 530 25 390 24 263 C24 262 24 261 24 260 L24 257 C25 130 61 -11 212 -11 L231 -11 C382 -11 418 130 419 257 L419 260 Z M272 59 L171 59 L171 459 L272 459 L272 59 Z " />
<glyph glyph-name="divide" unicode="&#xf7;" horiz-adv-x="629" d="M314 468 C359 468 396 506 396 552 C396 599 359 636 314 636 C267 636 230 599 230 552 C230 506 267 468 314 468 L314 468 Z M45 393 L45 282 L583 282 L583 393 L45 393 Z M314 35 C359 35 396 72 396 119 C396 165 359 203 314 203 C267 203 230 165 230 119 C230 72 267 35 314 35 L314 35 Z " />
<glyph glyph-name="oslash" unicode="&#xf8;" horiz-adv-x="490" d="M441 263 C440 324 432 387 407 437 L466 519 L379 519 L379 483 L377 481 C348 511 308 530 253 530 L234 530 C83 530 47 390 46 263 C46 262 46 261 46 260 L46 257 C47 195 55 131 81 80 L24 0 L111 0 L111 38 C139 8 179 -11 234 -11 L253 -11 C404 -11 440 130 441 257 C441 258 441 259 441 260 L441 263 Z M193 238 L193 459 L294 459 L294 379 L193 238 Z M294 59 L193 59 L193 140 L294 280 L294 59 Z " />
<glyph glyph-name="ugrave" unicode="&#xf9;" horiz-adv-x="456" d="M294 612 L280 705 L279 783 L155 783 L175 708 L205 612 L294 612 Z M276 518 L276 106 L239 59 L179 59 L179 518 L45 518 L45 137 C45 56 57 -11 182 -11 C236 -11 269 11 288 48 L305 0 L414 0 L414 518 L276 518 Z " />
<glyph glyph-name="uacute" unicode="&#xfa;" horiz-adv-x="456" d="M166 612 L255 612 L301 783 L178 783 L174 705 L166 612 Z M276 518 L276 106 L239 59 L179 59 L179 518 L45 518 L45 137 C45 56 57 -11 182 -11 C236 -11 269 11 288 48 L305 0 L414 0 L414 518 L276 518 Z " />
<glyph glyph-name="ucircumflex" unicode="&#xfb;" horiz-adv-x="456" d="M222 714 L230 729 L237 714 L282 612 L370 612 L315 783 L144 783 L88 612 L177 612 L222 714 Z M276 518 L276 106 L239 59 L179 59 L179 518 L45 518 L45 137 C45 56 57 -11 182 -11 C236 -11 269 11 288 48 L305 0 L414 0 L414 518 L276 518 Z " />
<glyph glyph-name="udieresis" unicode="&#xfc;" horiz-adv-x="456" d="M72 639 L200 639 L204 767 L71 767 L72 639 Z M252 639 L380 639 L384 767 L251 767 L252 639 Z M276 518 L276 106 L239 59 L179 59 L179 518 L45 518 L45 137 C45 56 57 -11 182 -11 C236 -11 269 11 288 48 L305 0 L414 0 L414 518 L276 518 Z " />
<glyph glyph-name="yacute" unicode="&#xfd;" horiz-adv-x="375" d="M276 783 L153 783 L149 705 L141 612 L230 612 L276 783 Z M260 518 L260 389 L198 102 L135 518 L-8 518 L96 0 L168 0 L27 -156 L156 -222 L240 0 L369 518 L260 518 Z " />
<glyph glyph-name="thorn" unicode="&#xfe;" horiz-adv-x="456" d="M279 530 C235 530 203 512 182 480 L182 720 L48 720 L48 -203 L182 -203 L182 7 C202 -3 231 -11 278 -11 C383 -11 432 66 432 263 C432 456 383 530 279 530 L279 530 Z M182 59 L182 407 C213 455 238 462 279 462 L279 59 L182 59 Z " />
<glyph glyph-name="ydieresis" unicode="&#xff;" horiz-adv-x="375" d="M154 639 L158 767 L25 767 L26 639 L154 639 Z M334 639 L338 767 L205 767 L206 639 L334 639 Z M260 518 L260 389 L198 102 L135 518 L-8 518 L96 0 L168 0 L27 -156 L156 -222 L240 0 L369 518 L260 518 Z " />
<glyph glyph-name="Amacron" unicode="&#x100;" horiz-adv-x="506" d="M400 874 L125 874 L125 781 L400 781 L400 874 Z M356 0 L501 0 L321 696 L195 696 L203 649 L5 0 L107 0 L146 134 L323 134 L356 0 Z M169 216 L237 453 L246 453 L304 216 L169 216 Z " />
<glyph glyph-name="amacron" unicode="&#x101;" horiz-adv-x="435" d="M351 747 L76 747 L76 654 L351 654 L351 747 Z M225 530 C162 530 107 524 69 518 L87 351 L192 459 L251 459 L251 314 C109 314 23 280 23 150 C23 26 98 -11 213 -11 C243 -11 336 -8 389 12 L389 375 C389 479 354 530 225 530 L225 530 Z M170 59 L170 249 L251 249 L251 59 L170 59 Z " />
<glyph glyph-name="Abreve" unicode="&#x102;" horiz-adv-x="506" d="M223 739 C227 739 242 739 257 739 L291 739 C363 754 393 849 376 910 L294 910 C298 882 294 828 286 793 L228 793 C220 828 216 882 220 910 L138 910 C121 849 151 754 223 739 L223 739 Z M356 0 L501 0 L321 696 L195 696 L203 649 L5 0 L107 0 L146 134 L323 134 L356 0 Z M169 216 L237 453 L246 453 L304 216 L169 216 Z " />
<glyph glyph-name="abreve" unicode="&#x103;" horiz-adv-x="435" d="M178 612 C182 612 197 612 212 612 L246 612 C318 627 348 722 331 783 L249 783 C253 755 249 701 241 666 L183 666 C175 701 171 755 175 783 L93 783 C76 722 106 627 178 612 L178 612 Z M225 530 C162 530 107 524 69 518 L87 351 L192 459 L251 459 L251 314 C109 314 23 280 23 150 C23 26 98 -11 213 -11 C243 -11 336 -8 389 12 L389 375 C389 479 354 530 225 530 L225 530 Z M170 59 L170 249 L251 249 L251 59 L170 59 Z " />
<glyph glyph-name="Aogonek" unicode="&#x104;" horiz-adv-x="506" d="M429 -39 C429 -35 460 -14 501 0 L321 696 L195 696 L203 649 L5 0 L107 0 L146 134 L323 134 L356 0 L407 0 C361 -20 322 -61 322 -126 C322 -209 382 -233 430 -233 C466 -233 486 -224 501 -218 L501 -132 L429 -134 L429 -39 Z M169 216 L237 453 L246 453 L304 216 L169 216 Z " />
<glyph glyph-name="aogonek" unicode="&#x105;" horiz-adv-x="435" d="M389 12 L389 375 C389 479 354 530 225 530 C162 530 107 524 69 518 L87 351 L192 459 L251 459 L251 314 C109 314 23 280 23 150 C23 26 98 -11 213 -11 C225 -11 248 -11 274 -9 C237 -33 209 -71 209 -126 C209 -209 269 -233 317 -233 C353 -233 373 -224 388 -218 L388 -132 L316 -134 L316 -39 C316 -35 347 -14 389 12 L389 12 Z M170 59 L170 249 L251 249 L251 59 L170 59 Z " />
<glyph glyph-name="Cacute" unicode="&#x106;" horiz-adv-x="449" d="M207 739 L296 739 L342 910 L219 910 L215 832 L207 739 Z M397 191 L293 72 L205 72 L205 618 L292 618 L401 486 L418 665 C368 693 316 701 247 701 C101 701 32 599 32 344 C32 69 98 -11 248 -11 C325 -11 367 -2 422 18 L397 191 Z " />
<glyph glyph-name="cacute" unicode="&#x107;" horiz-adv-x="350" d="M150 612 L239 612 L285 783 L162 783 L158 705 L150 612 Z M323 82 C283 69 255 59 206 59 L171 59 L171 459 L219 459 L315 348 L330 507 C276 522 230 527 197 527 C62 527 24 434 24 261 C24 95 45 -11 213 -11 C273 -11 307 0 338 10 L323 82 Z " />
<glyph glyph-name="Cdotaccent" unicode="&#x10a;" horiz-adv-x="449" d="M189 769 L317 769 L321 897 L188 897 L189 769 Z M397 191 L293 72 L205 72 L205 618 L292 618 L401 486 L418 665 C368 693 316 701 247 701 C101 701 32 599 32 344 C32 69 98 -11 248 -11 C325 -11 367 -2 422 18 L397 191 Z " />
<glyph glyph-name="cdotaccent" unicode="&#x10b;" horiz-adv-x="350" d="M147 642 L275 642 L279 770 L146 770 L147 642 Z M323 82 C283 69 255 59 206 59 L171 59 L171 459 L219 459 L315 348 L330 507 C276 522 230 527 197 527 C62 527 24 434 24 261 C24 95 45 -11 213 -11 C273 -11 307 0 338 10 L323 82 Z " />
<glyph glyph-name="Ccaron" unicode="&#x10c;" horiz-adv-x="449" d="M181 739 L336 739 L400 910 L312 910 L267 808 L260 793 L252 808 L207 910 L118 910 L181 739 Z M397 191 L293 72 L205 72 L205 618 L292 618 L401 486 L418 665 C368 693 316 701 247 701 C101 701 32 599 32 344 C32 69 98 -11 248 -11 C325 -11 367 -2 422 18 L397 191 Z " />
<glyph glyph-name="ccaron" unicode="&#x10d;" horiz-adv-x="350" d="M135 612 L290 612 L354 783 L266 783 L221 681 L214 666 L206 681 L161 783 L72 783 L135 612 Z M206 59 L171 59 L171 459 L219 459 L315 348 L330 507 C276 522 230 527 197 527 C62 527 24 434 24 261 C24 95 45 -11 213 -11 C273 -11 307 0 338 10 L323 82 C283 69 255 59 206 59 L206 59 Z " />
<glyph glyph-name="Dcaron" unicode="&#x10e;" horiz-adv-x="512" d="M162 739 L317 739 L381 910 L293 910 L248 808 L241 793 L233 808 L188 910 L99 910 L162 739 Z M282 696 L57 696 L57 0 L286 0 C429 0 480 156 480 341 C480 557 423 696 282 696 L282 696 Z M307 75 L199 77 L199 614 L307 614 L307 75 Z " />
<glyph glyph-name="dcaron" unicode="&#x10f;" horiz-adv-x="592" d="M435 612 L524 612 L557 714 L582 783 L483 783 L435 612 Z M399 0 L399 720 L265 720 L265 511 C250 521 226 527 188 527 C74 527 24 464 24 254 C24 62 75 -11 176 -11 C236 -11 270 14 287 46 L302 0 L399 0 Z M171 59 L171 459 L265 459 L265 113 C243 72 213 59 171 59 L171 59 Z " />
<glyph glyph-name="Dcroat" unicode="&#x110;" horiz-adv-x="554" d="M324 696 L99 696 L99 386 L17 386 L17 314 L99 314 L99 3 L97 0 L328 0 C471 0 522 156 522 341 C522 557 465 696 324 696 L324 696 Z M349 75 L241 77 L241 314 L294 314 L294 386 L241 386 L241 614 L349 614 L349 75 Z " />
<glyph glyph-name="dcroat" unicode="&#x111;" horiz-adv-x="493" d="M447 642 L399 642 L399 720 L265 720 L265 642 L171 642 L171 570 L265 570 L265 511 C250 521 226 527 188 527 C74 527 24 464 24 254 C24 62 75 -11 176 -11 C236 -11 270 14 287 46 L302 0 L399 0 L399 570 L447 570 L447 642 Z M265 113 C243 72 213 59 171 59 L171 459 L265 459 L265 113 Z " />
<glyph glyph-name="Emacron" unicode="&#x112;" horiz-adv-x="419" d="M357 874 L82 874 L82 781 L357 781 L357 874 Z M281 68 L203 68 L203 311 L354 311 L354 393 L203 393 L203 629 L287 629 L365 509 L377 696 L57 696 L57 0 L377 0 L365 173 L281 68 Z " />
<glyph glyph-name="emacron" unicode="&#x113;" horiz-adv-x="402" d="M345 747 L70 747 L70 654 L345 654 L345 747 Z M374 227 C405 488 311 530 216 530 C71 530 24 426 24 254 C24 74 62 -11 215 -11 C276 -11 329 3 356 15 L345 81 C293 66 251 59 195 59 L173 59 L173 227 L374 227 Z M258 459 L258 291 L173 291 L173 459 L258 459 Z " />
<glyph glyph-name="Edotaccent" unicode="&#x116;" horiz-adv-x="419" d="M282 769 L286 897 L153 897 L154 769 L282 769 Z M281 68 L203 68 L203 311 L354 311 L354 393 L203 393 L203 629 L287 629 L365 509 L377 696 L57 696 L57 0 L377 0 L365 173 L281 68 Z " />
<glyph glyph-name="edotaccent" unicode="&#x117;" horiz-adv-x="402" d="M270 642 L274 770 L141 770 L142 642 L270 642 Z M374 227 C405 488 311 530 216 530 C71 530 24 426 24 254 C24 74 62 -11 215 -11 C276 -11 329 3 356 15 L345 81 C293 66 251 59 195 59 L173 59 L173 227 L374 227 Z M258 459 L258 291 L173 291 L173 459 L258 459 Z " />
<glyph glyph-name="Eogonek" unicode="&#x118;" horiz-adv-x="419" d="M307 -134 L307 -39 C307 -35 338 -14 377 0 L365 173 L281 68 L203 68 L203 311 L354 311 L354 393 L203 393 L203 629 L287 629 L365 509 L377 696 L57 696 L57 0 L284 0 C239 -20 200 -61 200 -126 C200 -209 260 -233 308 -233 C344 -233 364 -224 379 -218 L379 -132 L307 -134 Z " />
<glyph glyph-name="eogonek" unicode="&#x119;" horiz-adv-x="402" d="M374 227 C405 488 311 530 216 530 C71 530 24 426 24 254 C24 74 62 -11 215 -11 C223 -11 231 -11 239 -10 C203 -35 177 -73 177 -126 C177 -209 237 -233 285 -233 C321 -233 341 -224 356 -218 L356 -132 L284 -134 L284 -39 C284 -35 315 -14 356 15 L345 81 C293 66 251 59 195 59 L173 59 L173 227 L374 227 Z M258 459 L258 291 L173 291 L173 459 L258 459 Z " />
<glyph glyph-name="Ecaron" unicode="&#x11a;" horiz-adv-x="419" d="M142 739 L297 739 L361 910 L273 910 L228 808 L221 793 L213 808 L168 910 L79 910 L142 739 Z M281 68 L203 68 L203 311 L354 311 L354 393 L203 393 L203 629 L287 629 L365 509 L377 696 L57 696 L57 0 L377 0 L365 173 L281 68 Z " />
<glyph glyph-name="ecaron" unicode="&#x11b;" horiz-adv-x="402" d="M130 612 L285 612 L349 783 L261 783 L216 681 L209 666 L201 681 L156 783 L67 783 L130 612 Z M374 227 C405 488 311 530 216 530 C71 530 24 426 24 254 C24 74 62 -11 215 -11 C276 -11 329 3 356 15 L345 81 C293 66 251 59 195 59 L173 59 L173 227 L374 227 Z M258 459 L258 291 L173 291 L173 459 L258 459 Z " />
<glyph glyph-name="Gbreve" unicode="&#x11e;" horiz-adv-x="520" d="M220 739 C224 739 239 739 254 739 L288 739 C360 754 390 849 373 910 L291 910 C295 882 291 828 283 793 L225 793 C217 828 213 882 217 910 L135 910 C118 849 148 754 220 739 L220 739 Z M283 371 L283 254 L337 286 L337 170 L281 72 L200 72 L200 618 L299 618 L392 494 L425 665 C377 690 331 701 271 701 C104 701 32 593 32 344 C32 90 95 -11 213 -11 C280 -11 317 21 341 61 L346 0 L463 0 L463 371 L283 371 Z " />
<glyph glyph-name="gbreve" unicode="&#x11f;" horiz-adv-x="454" d="M193 612 C197 612 212 612 227 612 L261 612 C333 627 363 722 346 783 L264 783 C268 755 264 701 256 666 L198 666 C190 701 186 755 190 783 L108 783 C91 722 121 627 193 612 L193 612 Z M242 530 C86 530 24 467 24 263 C24 81 78 -11 183 -11 C225 -11 251 2 271 19 L271 -165 L204 -165 L69 -71 L66 -201 C125 -218 159 -218 216 -219 C356 -219 408 -168 408 -71 L408 504 C368 519 296 530 242 530 L242 530 Z M270 91 C248 66 217 57 176 57 L176 461 L270 461 L270 91 Z " />
<glyph glyph-name="Gdotaccent" unicode="&#x120;" horiz-adv-x="520" d="M326 769 L330 897 L197 897 L198 769 L326 769 Z M283 371 L283 254 L337 286 L337 170 L281 72 L200 72 L200 618 L299 618 L392 494 L425 665 C377 690 331 701 271 701 C104 701 32 593 32 344 C32 90 95 -11 213 -11 C280 -11 317 21 341 61 L346 0 L463 0 L463 371 L283 371 Z " />
<glyph glyph-name="gdotaccent" unicode="&#x121;" horiz-adv-x="454" d="M163 642 L291 642 L295 770 L162 770 L163 642 Z M408 -71 L408 504 C368 519 296 530 242 530 C86 530 24 467 24 263 C24 81 78 -11 183 -11 C225 -11 251 2 271 19 L271 -165 L204 -165 L69 -71 L66 -201 C125 -218 159 -218 216 -219 C356 -219 408 -168 408 -71 L408 -71 Z M176 57 L176 461 L270 461 L270 91 C248 66 217 57 176 57 L176 57 Z " />
<glyph glyph-name="Gcommaaccent" unicode="&#x122;" horiz-adv-x="520" d="M283 371 L283 254 L337 286 L337 170 L281 72 L200 72 L200 618 L299 618 L392 494 L425 665 C377 690 331 701 271 701 C104 701 32 593 32 344 C32 90 95 -11 213 -11 C280 -11 317 21 341 61 L346 0 L463 0 L463 371 L283 371 Z M221 -136 L204 -222 L284 -229 L336 -64 L233 -55 L221 -136 Z " />
<glyph glyph-name="gcommaaccent" unicode="&#x123;" horiz-adv-x="454" d="M184 658 L285 658 L236 845 L150 845 L172 739 L184 658 Z M408 -71 L408 504 C368 519 296 530 242 530 C86 530 24 467 24 263 C24 81 78 -11 183 -11 C225 -11 251 2 271 19 L271 -165 L204 -165 L69 -71 L66 -201 C125 -218 159 -218 216 -219 C356 -219 408 -168 408 -71 L408 -71 Z M176 57 L176 461 L270 461 L270 91 C248 66 217 57 176 57 L176 57 Z " />
<glyph glyph-name="Hbar" unicode="&#x126;" horiz-adv-x="658" d="M608 564 L550 564 L550 696 L405 696 L405 564 L255 564 L255 696 L109 696 L109 564 L50 564 L50 492 L109 492 L109 0 L255 0 L255 303 L405 303 L405 0 L550 0 L550 492 L608 492 L608 564 Z M405 386 L255 386 L255 492 L405 492 L405 386 Z " />
<glyph glyph-name="hbar" unicode="&#x127;" horiz-adv-x="463" d="M297 530 C239 530 201 511 181 478 L181 570 L283 570 L283 642 L181 642 L181 720 L48 720 L48 642 L7 642 L7 570 L48 570 L48 0 L181 0 L181 407 L221 459 L284 459 L284 0 L417 0 L417 381 C417 464 407 530 297 530 L297 530 Z " />
<glyph glyph-name="Imacron" unicode="&#x12a;" horiz-adv-x="260" d="M-8 874 L-8 781 L267 781 L267 874 L-8 874 Z M203 0 L203 696 L57 696 L57 0 L203 0 Z " />
<glyph glyph-name="imacron" unicode="&#x12b;" horiz-adv-x="259" d="M-5 747 L-5 654 L270 654 L270 747 L-5 747 Z M213 0 L213 518 L48 518 L78 414 L78 0 L213 0 Z " />
<glyph glyph-name="Iogonek" unicode="&#x12e;" horiz-adv-x="260" d="M203 0 L203 696 L57 696 L57 0 L109 0 C63 -20 24 -61 24 -126 C24 -209 84 -233 132 -233 C168 -233 188 -224 203 -218 L203 -132 L131 -134 L131 -39 C131 -35 162 -14 203 0 L203 0 Z " />
<glyph glyph-name="iogonek" unicode="&#x12f;" horiz-adv-x="273" d="M206 642 L210 770 L77 770 L78 642 L206 642 Z M155 -149 L155 -54 C155 -50 187 -29 224 0 L224 518 L59 518 L89 414 L89 0 L159 0 C104 -20 48 -64 48 -141 C48 -224 108 -248 156 -248 C192 -248 212 -239 227 -233 L227 -147 L155 -149 Z " />
<glyph glyph-name="Idotaccent" unicode="&#x130;" horiz-adv-x="260" d="M64 769 L192 769 L196 897 L63 897 L64 769 Z M203 0 L203 696 L57 696 L57 0 L203 0 Z " />
<glyph glyph-name="dotlessi" unicode="&#x131;" horiz-adv-x="259" d="M213 0 L213 518 L48 518 L78 414 L78 0 L213 0 Z " />
<glyph glyph-name="Kcommaaccent" unicode="&#x136;" horiz-adv-x="489" d="M340 372 L476 695 L338 695 L344 567 L270 390 L269 390 L203 391 L203 696 L57 696 L57 0 L203 0 L203 306 L222 306 L327 0 L489 0 L340 372 Z M212 -136 L195 -222 L275 -229 L327 -64 L224 -55 L212 -136 Z " />
<glyph glyph-name="kcommaaccent" unicode="&#x137;" horiz-adv-x="440" d="M182 240 L213 240 L279 0 L425 0 L321 311 L414 518 L287 518 L282 390 L243 314 L182 306 L182 720 L48 720 L48 0 L182 0 L182 240 Z M184 -136 L167 -222 L247 -229 L299 -64 L196 -55 L184 -136 Z " />
<glyph glyph-name="Lacute" unicode="&#x139;" horiz-adv-x="413" d="M221 910 L98 910 L94 832 L86 739 L175 739 L221 910 Z M369 168 L282 68 L203 68 L203 696 L57 696 L57 0 L383 0 L369 168 Z " />
<glyph glyph-name="lacute" unicode="&#x13a;" horiz-adv-x="248" d="M67 820 L156 820 L202 991 L79 991 L75 913 L67 820 Z M182 0 L182 720 L48 720 L48 0 L182 0 Z " />
<glyph glyph-name="Lcommaaccent" unicode="&#x13b;" horiz-adv-x="413" d="M383 0 L369 168 L282 68 L203 68 L203 696 L57 696 L57 0 L383 0 Z M152 -136 L135 -222 L215 -229 L267 -64 L164 -55 L152 -136 Z " />
<glyph glyph-name="lcommaaccent" unicode="&#x13c;" horiz-adv-x="228" d="M182 0 L182 720 L48 720 L48 0 L182 0 Z M81 -55 L69 -136 L52 -222 L132 -229 L184 -64 L81 -55 Z " />
<glyph glyph-name="Lcaron" unicode="&#x13d;" horiz-adv-x="413" d="M51 739 L206 739 L270 910 L182 910 L137 808 L130 793 L122 808 L77 910 L-12 910 L51 739 Z M369 168 L282 68 L203 68 L203 696 L57 696 L57 0 L383 0 L369 168 Z " />
<glyph glyph-name="lcaron" unicode="&#x13e;" horiz-adv-x="332" d="M215 612 L304 612 L337 714 L362 783 L263 783 L215 612 Z M182 0 L182 720 L48 720 L48 0 L182 0 Z " />
<glyph glyph-name="Lslash" unicode="&#x141;" horiz-adv-x="438" d="M429 168 L342 68 L263 68 L263 315 L337 375 L398 415 L388 529 L310 450 L263 411 L263 696 L117 696 L117 306 L45 249 L52 125 L117 201 L117 0 L443 0 L429 168 Z " />
<glyph glyph-name="lslash" unicode="&#x142;" horiz-adv-x="362" d="M332 410 L326 530 L237 432 L237 720 L103 720 L103 302 L30 226 L41 110 L103 183 L103 0 L237 0 L237 319 L332 410 Z " />
<glyph glyph-name="Nacute" unicode="&#x143;" horiz-adv-x="576" d="M401 910 L278 910 L274 832 L266 739 L355 739 L401 910 Z M410 696 L410 277 L395 308 L188 696 L57 696 L80 646 L80 0 L183 0 L183 410 L410 0 L519 0 L519 696 L410 696 Z " />
<glyph glyph-name="nacute" unicode="&#x144;" horiz-adv-x="465" d="M210 612 L299 612 L345 783 L222 783 L218 705 L210 612 Z M297 530 C233 530 195 509 173 471 L155 518 L48 518 L48 0 L182 0 L182 411 L221 459 L285 459 L285 0 L419 0 L419 381 C419 464 408 530 297 530 L297 530 Z " />
<glyph glyph-name="Ncommaaccent" unicode="&#x145;" horiz-adv-x="576" d="M410 696 L410 277 L395 308 L188 696 L57 696 L80 646 L80 0 L183 0 L183 410 L410 0 L519 0 L519 696 L410 696 Z M244 -136 L227 -222 L307 -229 L359 -64 L256 -55 L244 -136 Z " />
<glyph glyph-name="ncommaaccent" unicode="&#x146;" horiz-adv-x="465" d="M297 530 C233 530 195 509 173 471 L155 518 L48 518 L48 0 L182 0 L182 411 L221 459 L285 459 L285 0 L419 0 L419 381 C419 464 408 530 297 530 L297 530 Z M205 -55 L193 -136 L176 -222 L256 -229 L308 -64 L205 -55 Z " />
<glyph glyph-name="Ncaron" unicode="&#x147;" horiz-adv-x="576" d="M228 739 L383 739 L447 910 L359 910 L314 808 L307 793 L299 808 L254 910 L165 910 L228 739 Z M410 696 L410 277 L395 308 L188 696 L57 696 L80 646 L80 0 L183 0 L183 410 L410 0 L519 0 L519 696 L410 696 Z " />
<glyph glyph-name="ncaron" unicode="&#x148;" horiz-adv-x="465" d="M162 612 L317 612 L381 783 L293 783 L248 681 L241 666 L233 681 L188 783 L99 783 L162 612 Z M297 530 C233 530 195 509 173 471 L155 518 L48 518 L48 0 L182 0 L182 411 L221 459 L285 459 L285 0 L419 0 L419 381 C419 464 408 530 297 530 L297 530 Z " />
<glyph glyph-name="Eng" unicode="&#x14a;" horiz-adv-x="576" d="M410 696 L410 277 L395 308 L188 696 L57 696 L80 646 L80 0 L183 0 L183 410 L410 0 L410 -114 L276 -114 L276 -203 L365 -203 C488 -203 519 -152 519 -15 L519 696 L410 696 Z " />
<glyph glyph-name="eng" unicode="&#x14b;" horiz-adv-x="465" d="M297 530 C233 530 195 509 173 471 L155 518 L48 518 L48 0 L182 0 L182 411 L221 459 L285 459 L285 -128 L170 -128 L170 -191 C222 -204 282 -207 311 -207 C417 -207 419 -134 419 -86 L419 381 C419 464 408 530 297 530 L297 530 Z " />
<glyph glyph-name="Omacron" unicode="&#x14c;" horiz-adv-x="522" d="M114 874 L114 781 L389 781 L389 874 L114 874 Z M490 329 L490 357 C490 524 449 701 287 701 L236 701 C74 701 32 524 32 357 L32 329 C32 165 74 -11 236 -11 L287 -11 C449 -11 490 165 490 329 L490 329 Z M320 78 L203 78 C197 109 191 208 191 343 C191 483 197 582 203 612 L320 612 C326 582 332 483 332 343 C332 208 326 109 320 78 L320 78 Z " />
<glyph glyph-name="omacron" unicode="&#x14d;" horiz-adv-x="443" d="M354 747 L79 747 L79 654 L354 654 L354 747 Z M419 260 L419 263 C418 390 382 530 231 530 L212 530 C61 530 25 390 24 263 C24 262 24 261 24 260 L24 257 C25 130 61 -11 212 -11 L231 -11 C382 -11 418 130 419 257 L419 260 Z M272 59 L171 59 L171 459 L272 459 L272 59 Z " />
<glyph glyph-name="Ohungarumlaut" unicode="&#x150;" horiz-adv-x="522" d="M124 739 L213 739 L243 835 L262 910 L139 910 L138 832 L124 739 Z M304 739 L393 739 L423 835 L442 910 L319 910 L318 832 L304 739 Z M490 329 L490 357 C490 524 449 701 287 701 L236 701 C74 701 32 524 32 357 L32 329 C32 165 74 -11 236 -11 L287 -11 C449 -11 490 165 490 329 L490 329 Z M320 78 L203 78 C197 109 191 208 191 343 C191 483 197 582 203 612 L320 612 C326 582 332 483 332 343 C332 208 326 109 320 78 L320 78 Z " />
<glyph glyph-name="ohungarumlaut" unicode="&#x151;" horiz-adv-x="443" d="M211 708 L230 783 L107 783 L106 705 L92 612 L181 612 L211 708 Z M391 708 L410 783 L287 783 L286 705 L272 612 L361 612 L391 708 Z M419 260 L419 263 C418 390 382 530 231 530 L212 530 C61 530 25 390 24 263 C24 262 24 261 24 260 L24 257 C25 130 61 -11 212 -11 L231 -11 C382 -11 418 130 419 257 L419 260 Z M272 59 L171 59 L171 459 L272 459 L272 59 Z " />
<glyph glyph-name="OE" unicode="&#x152;" horiz-adv-x="692" d="M554 68 L476 68 L476 311 L628 311 L628 393 L476 393 L476 629 L560 629 L638 509 L650 696 L238 696 C87 696 32 542 32 343 C32 118 101 0 238 0 L650 0 L638 173 L554 68 Z M331 89 L205 89 C199 118 193 214 193 344 C193 483 199 582 205 612 L331 612 L331 89 Z " />
<glyph glyph-name="oe" unicode="&#x153;" horiz-adv-x="645" d="M617 227 C648 488 554 530 459 530 C408 530 369 515 341 488 C315 514 279 530 231 530 L212 530 C61 530 25 390 24 263 C24 262 24 261 24 260 L24 257 C25 130 61 -11 212 -11 L231 -11 C276 -11 310 3 336 26 C364 1 403 -11 458 -11 C519 -11 572 3 599 15 L588 81 C536 66 494 59 438 59 L416 59 L416 227 L617 227 Z M272 59 L171 59 L171 459 L272 459 L272 59 Z M501 459 L501 291 L416 291 L416 459 L501 459 Z " />
<glyph glyph-name="Racute" unicode="&#x154;" horiz-adv-x="500" d="M331 910 L208 910 L204 832 L196 739 L285 739 L331 910 Z M335 0 L489 0 L368 296 C428 336 450 407 450 479 C450 597 413 696 294 696 L224 696 L201 696 L57 696 L57 0 L201 0 L201 263 L245 263 L335 0 Z M201 620 L297 620 C300 609 300 504 300 473 C300 432 297 380 297 341 L201 341 L201 620 Z " />
<glyph glyph-name="racute" unicode="&#x155;" horiz-adv-x="324" d="M264 783 L141 783 L137 705 L129 612 L218 612 L264 783 Z M279 530 C224 530 195 490 179 454 L155 518 L48 518 L48 0 L182 0 L182 374 C198 405 209 422 219 434 L311 368 L332 519 C311 527 294 530 279 530 L279 530 Z " />
<glyph glyph-name="Rcommaaccent" unicode="&#x156;" horiz-adv-x="500" d="M368 296 C428 336 450 407 450 479 C450 597 413 696 294 696 L224 696 L201 696 L57 696 L57 0 L201 0 L201 263 L245 263 L335 0 L489 0 L368 296 Z M201 620 L297 620 C300 609 300 504 300 473 C300 432 297 380 297 341 L201 341 L201 620 Z M206 -136 L189 -222 L269 -229 L321 -64 L218 -55 L206 -136 Z " />
<glyph glyph-name="rcommaaccent" unicode="&#x157;" horiz-adv-x="324" d="M279 530 C224 530 195 490 179 454 L155 518 L48 518 L48 0 L182 0 L182 374 C198 405 209 422 219 434 L311 368 L332 519 C311 527 294 530 279 530 L279 530 Z M49 -136 L32 -222 L112 -229 L164 -64 L61 -55 L49 -136 Z " />
<glyph glyph-name="Rcaron" unicode="&#x158;" horiz-adv-x="500" d="M181 739 L336 739 L400 910 L312 910 L267 808 L260 793 L252 808 L207 910 L118 910 L181 739 Z M335 0 L489 0 L368 296 C428 336 450 407 450 479 C450 597 413 696 294 696 L224 696 L201 696 L57 696 L57 0 L201 0 L201 263 L245 263 L335 0 Z M201 620 L297 620 C300 609 300 504 300 473 C300 432 297 380 297 341 L201 341 L201 620 Z " />
<glyph glyph-name="rcaron" unicode="&#x159;" horiz-adv-x="324" d="M114 612 L269 612 L333 783 L245 783 L200 681 L193 666 L185 681 L140 783 L51 783 L114 612 Z M179 454 L155 518 L48 518 L48 0 L182 0 L182 374 C198 405 209 422 219 434 L311 368 L332 519 C311 527 294 530 279 530 C224 530 195 490 179 454 L179 454 Z " />
<glyph glyph-name="Sacute" unicode="&#x15a;" horiz-adv-x="410" d="M161 739 L250 739 L296 910 L173 910 L169 832 L161 739 Z M218 701 L183 701 C78 695 21 621 21 525 C21 470 41 398 120 315 C171 261 245 206 245 132 C245 117 242 95 236 72 L161 72 L27 197 L12 18 C65 -2 101 -11 164 -11 L218 -11 C324 -11 387 75 387 173 C387 257 336 332 260 407 C186 480 165 524 165 572 C165 593 168 614 170 618 L230 618 L348 492 L363 668 C311 693 269 701 218 701 L218 701 Z " />
<glyph glyph-name="sacute" unicode="&#x15b;" horiz-adv-x="373" d="M138 612 L227 612 L273 783 L150 783 L146 705 L138 612 Z M167 414 L167 459 L213 459 L318 348 L324 518 C258 528 237 530 191 530 C101 530 27 501 27 401 C27 254 203 191 204 96 L204 59 L134 59 L33 200 L26 17 C81 -6 126 -11 165 -11 C287 -11 347 30 347 125 C347 276 167 332 167 414 L167 414 Z " />
<glyph glyph-name="Scedilla" unicode="&#x15e;" horiz-adv-x="410" d="M218 -11 C324 -11 387 75 387 173 C387 257 336 332 260 407 C186 480 165 524 165 572 C165 593 168 614 170 618 L230 618 L348 492 L363 668 C311 693 269 701 218 701 L183 701 C78 695 21 621 21 525 C21 470 41 398 120 315 C171 261 245 206 245 132 C245 117 242 95 236 72 L161 72 L27 197 L12 18 C58 1 91 -8 141 -11 C137 -29 132 -54 125 -89 L206 -89 L206 -167 L173 -167 L114 -140 L108 -204 C126 -212 149 -218 180 -218 C216 -218 308 -210 308 -125 C308 -80 281 -36 204 -36 C207 -26 209 -18 210 -11 L218 -11 Z " />
<glyph glyph-name="scedilla" unicode="&#x15f;" horiz-adv-x="373" d="M347 125 C347 276 167 332 167 414 L167 459 L213 459 L318 348 L324 518 C258 528 237 530 191 530 C101 530 27 501 27 401 C27 254 203 191 204 96 L204 59 L134 59 L33 200 L26 17 C66 0 101 -7 133 -10 C129 -28 124 -53 117 -89 L198 -89 L198 -167 L165 -167 L106 -140 L100 -204 C118 -212 141 -218 172 -218 C208 -218 300 -210 300 -125 C300 -80 273 -36 196 -36 L203 -10 C299 -1 347 40 347 125 L347 125 Z " />
<glyph glyph-name="Scaron" unicode="&#x160;" horiz-adv-x="410" d="M130 739 L285 739 L349 910 L261 910 L216 808 L209 793 L201 808 L156 910 L67 910 L130 739 Z M260 407 C186 480 165 524 165 572 C165 593 168 614 170 618 L230 618 L348 492 L363 668 C311 693 269 701 218 701 L183 701 C78 695 21 621 21 525 C21 470 41 398 120 315 C171 261 245 206 245 132 C245 117 242 95 236 72 L161 72 L27 197 L12 18 C65 -2 101 -11 164 -11 L218 -11 C324 -11 387 75 387 173 C387 257 336 332 260 407 L260 407 Z " />
<glyph glyph-name="scaron" unicode="&#x161;" horiz-adv-x="373" d="M123 612 L278 612 L342 783 L254 783 L209 681 L202 666 L194 681 L149 783 L60 783 L123 612 Z M167 414 L167 459 L213 459 L318 348 L324 518 C258 528 237 530 191 530 C101 530 27 501 27 401 C27 254 203 191 204 96 L204 59 L134 59 L33 200 L26 17 C81 -6 126 -11 165 -11 C287 -11 347 30 347 125 C347 276 167 332 167 414 L167 414 Z " />
<glyph glyph-name="uni0162" unicode="&#x162;" horiz-adv-x="468" d="M15 696 L50 470 L114 626 L162 626 L162 0 L176 0 C172 -20 166 -46 158 -89 L239 -89 L239 -167 L206 -167 L147 -140 L141 -204 C159 -212 182 -218 213 -218 C249 -218 341 -210 341 -125 C341 -80 314 -36 237 -36 L246 0 L308 0 L308 626 L348 626 L419 471 L453 696 L15 696 Z " />
<glyph glyph-name="uni0163" unicode="&#x163;" horiz-adv-x="319" d="M314 426 L314 518 L209 515 L209 659 L76 659 L76 515 L1 518 L1 426 L76 431 L76 111 C76 69 77 10 140 -7 C137 -26 131 -51 124 -89 L205 -89 L205 -167 L172 -167 L113 -140 L107 -204 C125 -212 148 -218 179 -218 C215 -218 307 -210 307 -125 C307 -80 280 -36 203 -36 L210 -10 C238 -9 270 -6 313 0 L313 75 L209 59 L209 432 L314 426 Z " />
<glyph glyph-name="Tcaron" unicode="&#x164;" horiz-adv-x="468" d="M159 739 L314 739 L378 910 L290 910 L245 808 L238 793 L230 808 L185 910 L96 910 L159 739 Z M15 696 L50 470 L114 626 L162 626 L162 0 L308 0 L308 626 L348 626 L419 471 L453 696 L15 696 Z " />
<glyph glyph-name="tcaron" unicode="&#x165;" horiz-adv-x="407" d="M303 783 L255 612 L344 612 L377 714 L402 783 L303 783 Z M209 659 L76 659 L76 515 L1 518 L1 426 L76 431 L76 111 C76 63 77 -8 172 -11 C209 -11 250 -9 313 0 L313 75 L209 59 L209 432 L314 426 L314 518 L209 515 L209 659 Z " />
<glyph glyph-name="Tbar" unicode="&#x166;" horiz-adv-x="468" d="M348 626 L419 471 L453 696 L15 696 L50 470 L114 626 L162 626 L162 403 L91 403 L91 331 L162 331 L162 0 L308 0 L308 331 L378 331 L378 403 L308 403 L308 626 L348 626 Z " />
<glyph glyph-name="tbar" unicode="&#x167;" horiz-adv-x="319" d="M314 426 L314 518 L209 515 L209 659 L76 659 L76 515 L1 518 L1 426 L76 431 L76 328 L11 328 L11 256 L76 256 L76 111 C76 63 77 -8 172 -11 C209 -11 250 -9 313 0 L313 75 L209 59 L209 256 L296 256 L296 328 L209 328 L209 432 L314 426 Z " />
<glyph glyph-name="Umacron" unicode="&#x16a;" horiz-adv-x="521" d="M135 874 L135 781 L410 781 L410 874 L135 874 Z M464 696 L338 696 L338 75 L209 75 L209 696 L57 696 L57 239 C57 60 99 -9 247 -11 L290 -11 C428 -11 464 72 464 251 L464 696 Z " />
<glyph glyph-name="umacron" unicode="&#x16b;" horiz-adv-x="456" d="M91 747 L91 654 L366 654 L366 747 L91 747 Z M276 518 L276 106 L239 59 L179 59 L179 518 L45 518 L45 137 C45 56 57 -11 182 -11 C236 -11 269 11 288 48 L305 0 L414 0 L414 518 L276 518 Z " />
<glyph glyph-name="Uring" unicode="&#x16e;" horiz-adv-x="521" d="M270 730 C321 730 362 771 362 823 C362 874 321 915 270 915 C218 915 177 874 177 823 C177 771 218 730 270 730 L270 730 Z M248 779 L248 866 L291 866 L291 779 L248 779 Z M464 696 L338 696 L338 75 L209 75 L209 696 L57 696 L57 239 C57 60 99 -9 247 -11 L290 -11 C428 -11 464 72 464 251 L464 696 Z " />
<glyph glyph-name="uring" unicode="&#x16f;" horiz-adv-x="456" d="M226 603 C277 603 318 644 318 696 C318 747 277 788 226 788 C174 788 133 747 133 696 C133 644 174 603 226 603 L226 603 Z M204 652 L204 739 L247 739 L247 652 L204 652 Z M276 518 L276 106 L239 59 L179 59 L179 518 L45 518 L45 137 C45 56 57 -11 182 -11 C236 -11 269 11 288 48 L305 0 L414 0 L414 518 L276 518 Z " />
<glyph glyph-name="Uhungarumlaut" unicode="&#x170;" horiz-adv-x="521" d="M129 739 L218 739 L248 835 L267 910 L144 910 L143 832 L129 739 Z M309 739 L398 739 L428 835 L447 910 L324 910 L323 832 L309 739 Z M464 696 L338 696 L338 75 L209 75 L209 696 L57 696 L57 239 C57 60 99 -9 247 -11 L290 -11 C428 -11 464 72 464 251 L464 696 Z " />
<glyph glyph-name="uhungarumlaut" unicode="&#x171;" horiz-adv-x="456" d="M70 612 L159 612 L189 708 L208 783 L85 783 L84 705 L70 612 Z M250 612 L339 612 L369 708 L388 783 L265 783 L264 705 L250 612 Z M276 518 L276 106 L239 59 L179 59 L179 518 L45 518 L45 137 C45 56 57 -11 182 -11 C236 -11 269 11 288 48 L305 0 L414 0 L414 518 L276 518 Z " />
<glyph glyph-name="Uogonek" unicode="&#x172;" horiz-adv-x="521" d="M338 696 L338 75 L209 75 L209 696 L57 696 L57 239 C57 64 97 -6 238 -11 C203 -35 177 -73 177 -126 C177 -209 237 -233 285 -233 C321 -233 341 -224 356 -218 L356 -132 L284 -134 L284 -39 C284 -35 315 -14 351 -4 C439 19 464 102 464 251 L464 696 L338 696 Z " />
<glyph glyph-name="uogonek" unicode="&#x173;" horiz-adv-x="457" d="M343 -134 L343 -39 C343 -35 374 -14 414 0 L414 518 L276 518 L276 106 L239 59 L179 59 L179 518 L45 518 L45 137 C45 56 57 -11 182 -11 C236 -11 269 11 288 48 L305 0 L336 0 C286 -18 236 -56 236 -126 C236 -209 296 -233 344 -233 C380 -233 400 -224 415 -218 L415 -132 L343 -134 Z " />
<glyph glyph-name="Wcircumflex" unicode="&#x174;" horiz-adv-x="766" d="M382 841 L390 856 L397 841 L442 739 L530 739 L475 910 L304 910 L248 739 L337 739 L382 841 Z M772 696 L625 696 L637 563 L561 164 L459 696 L304 696 L332 579 L250 170 L152 696 L2 696 L156 0 L294 0 L379 379 L469 0 L593 0 L593 1 L607 0 L772 696 Z " />
<glyph glyph-name="wcircumflex" unicode="&#x175;" horiz-adv-x="629" d="M306 714 L314 729 L321 714 L366 612 L454 612 L399 783 L228 783 L172 612 L261 612 L306 714 Z M509 518 L516 392 L450 83 L434 209 L384 518 L240 518 L267 383 L203 82 L186 209 L137 518 L-8 518 L96 0 L245 0 L300 219 L344 0 L492 0 L623 518 L509 518 Z " />
<glyph glyph-name="Ycircumflex" unicode="&#x176;" horiz-adv-x="492" d="M258 841 L266 856 L273 841 L318 739 L406 739 L351 910 L180 910 L124 739 L213 739 L258 841 Z M482 696 L338 696 L344 564 L286 365 L167 696 L11 696 L182 237 L182 0 L327 0 L327 253 L482 696 Z " />
<glyph glyph-name="ycircumflex" unicode="&#x177;" horiz-adv-x="375" d="M176 714 L184 729 L191 714 L236 612 L324 612 L269 783 L98 783 L42 612 L131 612 L176 714 Z M260 518 L260 389 L198 102 L135 518 L-8 518 L96 0 L168 0 L27 -156 L156 -222 L240 0 L369 518 L260 518 Z " />
<glyph glyph-name="Ydieresis" unicode="&#x178;" horiz-adv-x="492" d="M236 766 L240 894 L107 894 L108 766 L236 766 Z M416 766 L420 894 L287 894 L288 766 L416 766 Z M482 696 L338 696 L344 564 L286 365 L167 696 L11 696 L182 237 L182 0 L327 0 L327 253 L482 696 Z " />
<glyph glyph-name="Zacute" unicode="&#x179;" horiz-adv-x="443" d="M325 910 L202 910 L198 832 L190 739 L279 739 L325 910 Z M402 234 L306 84 L178 84 L417 614 L417 696 L35 696 L53 500 L146 623 L268 623 L15 72 L15 0 L419 0 L402 234 Z " />
<glyph glyph-name="zacute" unicode="&#x17a;" horiz-adv-x="379" d="M164 612 L253 612 L299 783 L176 783 L172 705 L164 612 Z M364 518 L364 459 L167 59 L256 59 L349 207 L365 0 L14 0 L14 47 L226 459 L134 459 L49 347 L34 518 L364 518 Z " />
<glyph glyph-name="Zdotaccent" unicode="&#x17b;" horiz-adv-x="443" d="M291 770 L296 897 L162 897 L164 770 L291 770 Z M402 234 L306 84 L178 84 L417 614 L417 696 L35 696 L53 500 L146 623 L268 623 L15 72 L15 0 L419 0 L402 234 Z " />
<glyph glyph-name="zdotaccent" unicode="&#x17c;" horiz-adv-x="379" d="M131 642 L259 642 L263 770 L130 770 L131 642 Z M364 518 L364 459 L167 59 L256 59 L349 207 L365 0 L14 0 L14 47 L226 459 L134 459 L49 347 L34 518 L364 518 Z " />
<glyph glyph-name="Zcaron" unicode="&#x17d;" horiz-adv-x="443" d="M142 739 L297 739 L361 910 L273 910 L228 808 L221 793 L213 808 L168 910 L79 910 L142 739 Z M402 234 L306 84 L178 84 L417 614 L417 696 L35 696 L53 500 L146 623 L268 623 L15 72 L15 0 L419 0 L402 234 Z " />
<glyph glyph-name="zcaron" unicode="&#x17e;" horiz-adv-x="379" d="M127 612 L282 612 L346 783 L258 783 L213 681 L206 666 L198 681 L153 783 L64 783 L127 612 Z M349 207 L256 59 L167 59 L364 459 L364 518 L34 518 L49 347 L134 459 L226 459 L14 47 L14 0 L365 0 L349 207 Z " />
<glyph glyph-name="uni01CD" unicode="&#x1cd;" horiz-adv-x="506" d="M181 739 L336 739 L400 910 L312 910 L267 808 L260 793 L252 808 L207 910 L118 910 L181 739 Z M356 0 L501 0 L321 696 L195 696 L203 649 L5 0 L107 0 L146 134 L323 134 L356 0 Z M169 216 L237 453 L246 453 L304 216 L169 216 Z " />
<glyph glyph-name="uni01CE" unicode="&#x1ce;" horiz-adv-x="435" d="M136 612 L291 612 L355 783 L267 783 L222 681 L215 666 L207 681 L162 783 L73 783 L136 612 Z M225 530 C162 530 107 524 69 518 L87 351 L192 459 L251 459 L251 314 C109 314 23 280 23 150 C23 26 98 -11 213 -11 C243 -11 336 -8 389 12 L389 375 C389 479 354 530 225 530 L225 530 Z M170 59 L170 249 L251 249 L251 59 L170 59 Z " />
<glyph glyph-name="uni01CF" unicode="&#x1cf;" horiz-adv-x="260" d="M183 910 L138 808 L131 793 L123 808 L78 910 L-11 910 L52 739 L207 739 L271 910 L183 910 Z M57 0 L203 0 L203 696 L57 696 L57 0 Z " />
<glyph glyph-name="uni01D0" unicode="&#x1d0;" horiz-adv-x="259" d="M55 612 L210 612 L274 783 L186 783 L141 681 L134 666 L126 681 L81 783 L-8 783 L55 612 Z M78 414 L78 0 L213 0 L213 518 L48 518 L78 414 Z " />
<glyph glyph-name="uni01D1" unicode="&#x1d1;" horiz-adv-x="522" d="M184 739 L339 739 L403 910 L315 910 L270 808 L263 793 L255 808 L210 910 L121 910 L184 739 Z M287 701 L236 701 C74 701 32 524 32 357 L32 329 C32 165 74 -11 236 -11 L287 -11 C449 -11 490 165 490 329 L490 357 C490 524 449 701 287 701 L287 701 Z M320 78 L203 78 C197 109 191 208 191 343 C191 483 197 582 203 612 L320 612 C326 582 332 483 332 343 C332 208 326 109 320 78 L320 78 Z " />
<glyph glyph-name="uni01D2" unicode="&#x1d2;" horiz-adv-x="443" d="M139 612 L294 612 L358 783 L270 783 L225 681 L218 666 L210 681 L165 783 L76 783 L139 612 Z M419 260 L419 263 C418 390 382 530 231 530 L212 530 C61 530 25 390 24 263 C24 262 24 261 24 260 L24 257 C25 130 61 -11 212 -11 L231 -11 C382 -11 418 130 419 257 L419 260 Z M272 59 L171 59 L171 459 L272 459 L272 59 Z " />
<glyph glyph-name="uni01D3" unicode="&#x1d3;" horiz-adv-x="521" d="M195 739 L350 739 L414 910 L326 910 L281 808 L274 793 L266 808 L221 910 L132 910 L195 739 Z M338 696 L338 75 L209 75 L209 696 L57 696 L57 239 C57 60 99 -9 247 -11 L290 -11 C428 -11 464 72 464 251 L464 696 L338 696 Z " />
<glyph glyph-name="uni01D4" unicode="&#x1d4;" horiz-adv-x="456" d="M151 612 L306 612 L370 783 L282 783 L237 681 L230 666 L222 681 L177 783 L88 783 L151 612 Z M276 518 L276 106 L239 59 L179 59 L179 518 L45 518 L45 137 C45 56 57 -11 182 -11 C236 -11 269 11 288 48 L305 0 L414 0 L414 518 L276 518 Z " />
<glyph glyph-name="uni01D5" unicode="&#x1d5;" horiz-adv-x="521" d="M135 1066 L135 973 L410 973 L410 1066 L135 1066 Z M116 766 L244 766 L248 894 L115 894 L116 766 Z M296 766 L424 766 L428 894 L295 894 L296 766 Z M464 696 L338 696 L338 75 L209 75 L209 696 L57 696 L57 239 C57 60 99 -9 247 -11 L290 -11 C428 -11 464 72 464 251 L464 696 Z " />
<glyph glyph-name="uni01D6" unicode="&#x1d6;" horiz-adv-x="456" d="M91 939 L91 846 L366 846 L366 939 L91 939 Z M72 639 L200 639 L204 767 L71 767 L72 639 Z M252 639 L380 639 L384 767 L251 767 L252 639 Z M276 518 L276 106 L239 59 L179 59 L179 518 L45 518 L45 137 C45 56 57 -11 182 -11 C236 -11 269 11 288 48 L305 0 L414 0 L414 518 L276 518 Z " />
<glyph glyph-name="uni01D7" unicode="&#x1d7;" horiz-adv-x="521" d="M210 931 L299 931 L345 1102 L222 1102 L218 1024 L210 931 Z M116 766 L244 766 L248 894 L115 894 L116 766 Z M296 766 L424 766 L428 894 L295 894 L296 766 Z M464 696 L338 696 L338 75 L209 75 L209 696 L57 696 L57 239 C57 60 99 -9 247 -11 L290 -11 C428 -11 464 72 464 251 L464 696 Z " />
<glyph glyph-name="uni01D8" unicode="&#x1d8;" horiz-adv-x="456" d="M166 804 L255 804 L301 975 L178 975 L174 897 L166 804 Z M72 639 L200 639 L204 767 L71 767 L72 639 Z M252 639 L380 639 L384 767 L251 767 L252 639 Z M276 518 L276 106 L239 59 L179 59 L179 518 L45 518 L45 137 C45 56 57 -11 182 -11 C236 -11 269 11 288 48 L305 0 L414 0 L414 518 L276 518 Z " />
<glyph glyph-name="uni01D9" unicode="&#x1d9;" horiz-adv-x="521" d="M195 931 L350 931 L414 1102 L326 1102 L281 1000 L274 985 L266 1000 L221 1102 L132 1102 L195 931 Z M244 766 L248 894 L115 894 L116 766 L244 766 Z M296 766 L424 766 L428 894 L295 894 L296 766 Z M338 696 L338 75 L209 75 L209 696 L57 696 L57 239 C57 60 99 -9 247 -11 L290 -11 C428 -11 464 72 464 251 L464 696 L338 696 Z " />
<glyph glyph-name="uni01DA" unicode="&#x1da;" horiz-adv-x="456" d="M151 804 L306 804 L370 975 L282 975 L237 873 L230 858 L222 873 L177 975 L88 975 L151 804 Z M200 639 L204 767 L71 767 L72 639 L200 639 Z M252 639 L380 639 L384 767 L251 767 L252 639 Z M276 518 L276 106 L239 59 L179 59 L179 518 L45 518 L45 137 C45 56 57 -11 182 -11 C236 -11 269 11 288 48 L305 0 L414 0 L414 518 L276 518 Z " />
<glyph glyph-name="uni01DB" unicode="&#x1db;" horiz-adv-x="521" d="M338 931 L324 1024 L323 1102 L199 1102 L219 1027 L249 931 L338 931 Z M116 766 L244 766 L248 894 L115 894 L116 766 Z M296 766 L424 766 L428 894 L295 894 L296 766 Z M464 696 L338 696 L338 75 L209 75 L209 696 L57 696 L57 239 C57 60 99 -9 247 -11 L290 -11 C428 -11 464 72 464 251 L464 696 Z " />
<glyph glyph-name="uni01DC" unicode="&#x1dc;" horiz-adv-x="456" d="M294 804 L280 897 L279 975 L155 975 L175 900 L205 804 L294 804 Z M72 639 L200 639 L204 767 L71 767 L72 639 Z M252 639 L380 639 L384 767 L251 767 L252 639 Z M276 518 L276 106 L239 59 L179 59 L179 518 L45 518 L45 137 C45 56 57 -11 182 -11 C236 -11 269 11 288 48 L305 0 L414 0 L414 518 L276 518 Z " />
<glyph glyph-name="Scommaaccent" unicode="&#x218;" horiz-adv-x="410" d="M218 701 L183 701 C78 695 21 621 21 525 C21 470 41 398 120 315 C171 261 245 206 245 132 C245 117 242 95 236 72 L161 72 L27 197 L12 18 C65 -2 101 -11 164 -11 L218 -11 C324 -11 387 75 387 173 C387 257 336 332 260 407 C186 480 165 524 165 572 C165 593 168 614 170 618 L230 618 L348 492 L363 668 C311 693 269 701 218 701 L218 701 Z M151 -55 L139 -136 L122 -222 L202 -229 L254 -64 L151 -55 Z " />
<glyph glyph-name="scommaaccent" unicode="&#x219;" horiz-adv-x="373" d="M167 414 L167 459 L213 459 L318 348 L324 518 C258 528 237 530 191 530 C101 530 27 501 27 401 C27 254 203 191 204 96 L204 59 L134 59 L33 200 L26 17 C81 -6 126 -11 165 -11 C287 -11 347 30 347 125 C347 276 167 332 167 414 L167 414 Z M155 -55 L143 -136 L126 -222 L206 -229 L258 -64 L155 -55 Z " />
<glyph glyph-name="uni021A" unicode="&#x21a;" horiz-adv-x="468" d="M453 696 L15 696 L50 470 L114 626 L162 626 L162 0 L308 0 L308 626 L348 626 L419 471 L453 696 Z M196 -55 L184 -136 L167 -222 L247 -229 L299 -64 L196 -55 Z " />
<glyph glyph-name="uni021B" unicode="&#x21b;" horiz-adv-x="319" d="M314 426 L314 518 L209 515 L209 659 L76 659 L76 515 L1 518 L1 426 L76 431 L76 111 C76 63 77 -8 172 -11 C209 -11 250 -9 313 0 L313 75 L209 59 L209 432 L314 426 Z M118 -206 L96 -312 L171 -319 L229 -134 L130 -125 L118 -206 Z " />
<glyph glyph-name="uni0394" unicode="&#x394;" horiz-adv-x="506" d="M321 696 L195 696 L200 663 L5 0 L501 0 L321 696 Z M131 83 L237 453 L246 453 L336 83 L131 83 Z " />
<glyph glyph-name="uni03A9" unicode="&#x3a9;" horiz-adv-x="528" d="M496 369 L496 383 L496 397 C491 545 451 701 290 701 L239 701 C78 701 39 545 34 397 L34 383 L34 369 C38 241 65 110 149 71 L32 71 L32 0 L221 0 L221 71 C201 118 194 228 194 344 C194 483 200 582 206 612 L323 612 C329 582 335 483 335 344 C335 228 328 118 308 71 L308 0 L496 0 L496 71 L380 71 C465 110 492 241 496 369 L496 369 Z " />
<glyph glyph-name="uni03BC" unicode="&#x3bc;" horiz-adv-x="456" d="M276 518 L276 106 L239 59 L179 59 L179 518 L45 518 L45 -203 L179 -203 L179 -9 C186 -10 193 -11 200 -11 C238 -11 270 11 288 48 L305 0 L414 0 L414 518 L276 518 Z " />
<glyph glyph-name="pi" unicode="&#x3c0;" horiz-adv-x="553" d="M445 59 L445 447 L539 447 L539 518 L1 518 L1 447 L76 447 L76 0 L209 0 L209 447 L311 447 L311 111 C311 63 313 -11 407 -11 C445 -11 485 -9 548 0 L548 75 L445 59 Z " />
<glyph glyph-name="Wgrave" unicode="&#x1e80;" horiz-adv-x="766" d="M365 739 L454 739 L440 832 L439 910 L315 910 L335 835 L365 739 Z M772 696 L625 696 L637 563 L561 164 L459 696 L304 696 L332 579 L250 170 L152 696 L2 696 L156 0 L294 0 L379 379 L469 0 L593 0 L593 1 L607 0 L772 696 Z " />
<glyph glyph-name="wgrave" unicode="&#x1e81;" horiz-adv-x="629" d="M273 612 L362 612 L348 705 L347 783 L223 783 L243 708 L273 612 Z M509 518 L516 392 L450 83 L434 209 L384 518 L240 518 L267 383 L203 82 L186 209 L137 518 L-8 518 L96 0 L245 0 L300 219 L344 0 L492 0 L623 518 L509 518 Z " />
<glyph glyph-name="Wacute" unicode="&#x1e82;" horiz-adv-x="782" d="M495 910 L372 910 L368 832 L360 739 L449 739 L495 910 Z M772 696 L625 696 L637 563 L561 164 L459 696 L304 696 L332 579 L250 170 L152 696 L2 696 L156 0 L294 0 L379 379 L469 0 L593 0 L593 1 L607 0 L772 696 Z " />
<glyph glyph-name="wacute" unicode="&#x1e83;" horiz-adv-x="629" d="M410 783 L287 783 L283 705 L275 612 L364 612 L410 783 Z M509 518 L516 392 L450 83 L434 209 L384 518 L240 518 L267 383 L203 82 L186 209 L137 518 L-8 518 L96 0 L245 0 L300 219 L344 0 L492 0 L623 518 L509 518 Z " />
<glyph glyph-name="Wdieresis" unicode="&#x1e84;" horiz-adv-x="766" d="M360 766 L364 894 L231 894 L232 766 L360 766 Z M540 766 L544 894 L411 894 L412 766 L540 766 Z M772 696 L625 696 L637 563 L561 164 L459 696 L304 696 L332 579 L250 170 L152 696 L2 696 L156 0 L294 0 L379 379 L469 0 L593 0 L593 1 L607 0 L772 696 Z " />
<glyph glyph-name="wdieresis" unicode="&#x1e85;" horiz-adv-x="629" d="M268 639 L272 767 L139 767 L140 639 L268 639 Z M448 639 L452 767 L319 767 L320 639 L448 639 Z M509 518 L516 392 L450 83 L434 209 L384 518 L240 518 L267 383 L203 82 L186 209 L137 518 L-8 518 L96 0 L245 0 L300 219 L344 0 L492 0 L623 518 L509 518 Z " />
<glyph glyph-name="uni1E9E" unicode="&#x1e9e;" horiz-adv-x="625" d="M505 386 C458 441 446 485 455 513 L512 696 C451 717 407 724 318 724 C128 724 57 666 57 552 L57 0 L203 0 L203 642 L367 642 C331 564 305 507 305 450 C305 405 317 348 368 291 C409 240 451 197 451 135 L451 72 L404 72 L295 197 L280 18 C332 -2 368 -11 417 -11 C542 -11 602 50 602 173 C602 249 559 321 505 386 L505 386 Z " />
<glyph glyph-name="Ygrave" unicode="&#x1ef2;" horiz-adv-x="492" d="M212 739 L301 739 L287 832 L286 910 L162 910 L182 835 L212 739 Z M482 696 L338 696 L344 564 L286 365 L167 696 L11 696 L182 237 L182 0 L327 0 L327 253 L482 696 Z " />
<glyph glyph-name="ygrave" unicode="&#x1ef3;" horiz-adv-x="375" d="M154 612 L243 612 L229 705 L228 783 L104 783 L124 708 L154 612 Z M260 518 L260 389 L198 102 L135 518 L-8 518 L96 0 L168 0 L27 -156 L156 -222 L240 0 L369 518 L260 518 Z " />
<glyph glyph-name="endash" unicode="&#x2013;" horiz-adv-x="463" d="M23 341 L23 230 L440 230 L440 341 L23 341 Z " />
<glyph glyph-name="emdash" unicode="&#x2014;" horiz-adv-x="709" d="M23 341 L23 230 L686 230 L686 341 L23 341 Z " />
<glyph glyph-name="quoteleft" unicode="&#x2018;" horiz-adv-x="290" d="M111 729 L42 467 L165 467 L245 729 L111 729 Z " />
<glyph glyph-name="quoteright" unicode="&#x2019;" horiz-adv-x="188" d="M41 738 L35 631 L18 492 L116 492 L170 738 L41 738 Z " />
<glyph glyph-name="quotesinglbase" unicode="&#x201a;" horiz-adv-x="188" d="M41 107 L35 0 L18 -140 L116 -140 L170 107 L41 107 Z " />
<glyph glyph-name="quotedblleft" unicode="&#x201c;" horiz-adv-x="384" d="M40 738 L34 631 L18 492 L115 492 L169 738 L40 738 Z M237 738 L231 631 L214 492 L312 492 L366 738 L237 738 Z " />
<glyph glyph-name="quotedblright" unicode="&#x201d;" horiz-adv-x="384" d="M40 738 L34 631 L18 492 L115 492 L169 738 L40 738 Z M237 738 L231 631 L214 492 L312 492 L366 738 L237 738 Z " />
<glyph glyph-name="quotedblbase" unicode="&#x201e;" horiz-adv-x="383" d="M41 107 L35 0 L18 -140 L116 -140 L170 107 L41 107 Z M236 107 L230 0 L213 -140 L311 -140 L365 107 L236 107 Z " />
<glyph glyph-name="dagger" unicode="&#x2020;" horiz-adv-x="507" d="M351 666 L301 666 L311 825 L198 825 L207 666 L150 666 L45 696 L45 566 L150 597 L208 597 L197 235 L309 235 L300 597 L351 597 L462 566 L462 696 L351 666 Z " />
<glyph glyph-name="daggerdbl" unicode="&#x2021;" horiz-adv-x="507" d="M301 597 L351 597 L462 566 L462 696 L351 666 L304 666 L311 825 L198 825 L204 666 L150 666 L45 696 L45 566 L150 597 L207 597 L209 536 L207 476 L150 476 L45 506 L45 376 L150 407 L204 407 L197 235 L309 235 L303 407 L351 407 L462 376 L462 506 L351 476 L301 476 L299 542 L301 597 Z " />
<glyph glyph-name="bullet" unicode="&#x2022;" horiz-adv-x="326" d="M165 174 C236 174 296 234 296 308 C296 381 236 441 165 441 C90 441 30 381 30 308 C30 234 90 174 165 174 L165 174 Z " />
<glyph glyph-name="ellipsis" unicode="&#x2026;" horiz-adv-x="732" d="M95 -12 C140 -12 177 26 177 72 C177 119 140 156 95 156 C48 156 11 119 11 72 C11 26 48 -12 95 -12 L95 -12 Z M360 -12 C405 -12 443 26 443 72 C443 119 405 156 360 156 C314 156 276 119 276 72 C276 26 314 -12 360 -12 L360 -12 Z M635 -12 C680 -12 717 26 717 72 C717 119 680 156 635 156 C588 156 551 119 551 72 C551 26 588 -12 635 -12 L635 -12 Z " />
<glyph glyph-name="perthousand" unicode="&#x2030;" horiz-adv-x="1085" d="M140 0 L263 0 L671 707 L549 707 L140 0 Z M324 501 L324 518 C323 618 305 702 203 702 L156 702 C65 695 45 614 45 518 L45 509 L45 501 C45 389 65 318 164 318 L203 318 C305 318 323 387 324 501 L324 501 Z M221 366 L149 366 L149 659 L221 659 L221 366 Z M735 171 L735 188 C734 288 716 372 614 372 L567 372 C476 365 456 284 456 188 L456 179 L456 171 C456 59 476 -12 575 -12 L614 -12 C716 -12 734 57 735 171 L735 171 Z M1055 171 L1055 188 C1053 288 1035 372 933 372 L887 372 C795 365 776 284 776 188 L776 179 L776 171 C776 59 795 -12 894 -12 L933 -12 C1035 -12 1053 57 1055 171 L1055 171 Z M632 36 L560 36 L560 329 L632 329 L632 36 Z M951 36 L879 36 L879 329 L951 329 L951 36 Z " />
<glyph glyph-name="guilsinglleft" unicode="&#x2039;" horiz-adv-x="294" d="M5 261 L138 62 L279 62 L146 261 L279 464 L138 464 L5 261 Z " />
<glyph glyph-name="guilsinglright" unicode="&#x203a;" horiz-adv-x="294" d="M288 261 L155 464 L14 464 L147 261 L14 62 L155 62 L288 261 Z " />
<glyph glyph-name="fraction" unicode="&#x2044;" horiz-adv-x="395" d="M260 696 L260 623 L-27 0 L146 0 L146 74 L432 696 L260 696 Z " />
<glyph glyph-name="Euro" unicode="&#x20ac;" horiz-adv-x="489" d="M318 74 L242 74 C238 97 232 162 229 248 L404 248 L411 317 L228 317 C228 326 228 335 228 344 L228 368 L417 368 L425 437 L229 437 C232 527 237 595 242 618 L336 618 L431 515 L477 665 C423 693 378 701 294 701 C167 701 93 620 75 437 L27 437 L20 368 L71 368 C71 360 71 352 71 344 L71 317 L14 317 L6 248 L75 248 C91 66 157 -9 278 -9 C360 -9 398 0 447 20 L422 174 L318 74 Z " />
<glyph glyph-name="trademark" unicode="&#x2122;" horiz-adv-x="759" d="M306 756 L53 756 L53 635 L108 698 L134 698 L134 696 L134 446 L216 446 L221 698 L237 698 L306 636 L306 756 Z M569 756 L534 615 L495 756 L366 756 L366 659 L366 446 L426 446 L426 679 L491 446 L545 446 L606 680 L606 654 L605 446 L696 446 L698 734 L698 756 L569 756 Z " />
<glyph glyph-name="oneeighth" unicode="&#x215b;" horiz-adv-x="1009" d="M130 579 L130 310 L264 310 L263 472 L263 697 L149 697 L23 609 L40 492 L130 579 Z M512 696 L512 623 L225 0 L398 0 L398 74 L684 696 L512 696 Z M938 205 C981 226 995 252 995 291 C995 363 943 392 835 395 C828 395 822 395 815 395 C814 395 814 395 814 395 L794 395 C686 392 634 363 634 291 C634 252 648 226 691 205 C641 186 620 148 620 110 C620 31 677 -8 811 -8 C812 -8 813 -8 815 -8 L818 -8 C952 -8 1009 31 1009 110 C1009 148 988 186 938 205 L938 205 Z M845 224 L784 224 L784 328 L845 328 L845 224 Z M850 59 L780 59 L780 165 L850 165 L850 59 Z " />
<glyph glyph-name="threeeighths" unicode="&#x215c;" horiz-adv-x="1138" d="M391 416 C391 454 370 493 322 512 C367 534 379 556 379 600 C379 667 323 698 207 698 C145 698 99 686 61 674 L85 564 L170 631 L230 631 L229 525 L174 523 L119 528 L119 463 L174 468 L227 468 L230 362 L137 362 L74 440 L51 309 C85 302 126 295 200 295 C334 295 391 334 391 416 L391 416 Z M641 696 L641 623 L354 0 L527 0 L527 74 L813 696 L641 696 Z M1067 205 C1110 226 1124 252 1124 291 C1124 363 1072 392 964 395 C957 395 951 395 944 395 C943 395 943 395 943 395 L923 395 C815 392 763 363 763 291 C763 252 777 226 820 205 C770 186 749 148 749 110 C749 31 806 -8 940 -8 C941 -8 942 -8 944 -8 L947 -8 C1081 -8 1138 31 1138 110 C1138 148 1117 186 1067 205 L1067 205 Z M974 224 L913 224 L913 328 L974 328 L974 224 Z M979 59 L909 59 L909 165 L979 165 L979 59 Z " />
<glyph glyph-name="fiveeighths" unicode="&#x215d;" horiz-adv-x="1098" d="M349 438 C349 487 323 559 176 559 L176 630 L247 630 L328 624 L328 697 L40 697 L40 492 L192 492 L192 369 L105 369 L38 446 L17 317 C56 310 103 302 171 302 C315 302 349 371 349 438 L349 438 Z M601 696 L601 623 L314 0 L487 0 L487 74 L773 696 L601 696 Z M1027 205 C1070 226 1084 252 1084 291 C1084 363 1032 392 924 395 C917 395 911 395 904 395 C903 395 903 395 903 395 L883 395 C775 392 723 363 723 291 C723 252 737 226 780 205 C730 186 709 148 709 110 C709 31 766 -8 900 -8 C901 -8 902 -8 904 -8 L907 -8 C1041 -8 1098 31 1098 110 C1098 148 1077 186 1027 205 L1027 205 Z M934 224 L873 224 L873 328 L934 328 L934 224 Z M939 59 L869 59 L869 165 L939 165 L939 59 Z " />
<glyph glyph-name="seveneighths" unicode="&#x215e;" horiz-adv-x="968" d="M315 697 L70 697 L3 699 L3 623 L61 630 L164 630 L39 310 L180 310 L315 652 L315 697 Z M471 696 L471 623 L184 0 L357 0 L357 74 L643 696 L471 696 Z M897 205 C940 226 954 252 954 291 C954 363 902 392 794 395 C787 395 781 395 774 395 C773 395 773 395 773 395 L753 395 C645 392 593 363 593 291 C593 252 607 226 650 205 C600 186 579 148 579 110 C579 31 636 -8 770 -8 C771 -8 772 -8 774 -8 L777 -8 C911 -8 968 31 968 110 C968 148 947 186 897 205 L897 205 Z M804 224 L743 224 L743 328 L804 328 L804 224 Z M809 59 L739 59 L739 165 L809 165 L809 59 Z " />
<glyph glyph-name="product" unicode="&#x220f;" horiz-adv-x="645" d="M626 696 L19 696 L19 614 L102 614 L102 -203 L248 -203 L248 614 L398 614 L398 -203 L543 -203 L543 614 L626 614 L626 696 Z " />
<glyph glyph-name="minus" unicode="&#x2212;" horiz-adv-x="573" d="M38 401 L38 290 L536 290 L536 401 L38 401 Z " />
<glyph glyph-name="notequal" unicode="&#x2260;" horiz-adv-x="629" d="M584 387 L584 498 L471 498 L537 619 L426 619 L360 498 L45 498 L45 387 L300 387 L223 245 L45 245 L45 134 L162 134 L92 5 L203 5 L273 134 L584 134 L584 245 L334 245 L411 387 L584 387 Z " />
</font>
</svg>
