<?xml version="1.0" encoding="utf-8"?>
<!-- Generator: Adobe Illustrator 19.2.1, SVG Export Plug-In . SVG Version: 6.00 Build 0)  -->
<svg version="1.1" id="Layer_1" xmlns="http://www.w3.org/2000/svg" xmlns:xlink="http://www.w3.org/1999/xlink" x="0px" y="0px"
	 viewBox="0 0 791.7 246" enable-background="new 0 0 791.7 246" xml:space="preserve">
<g>
	<path fill="#FBE8E2" d="M307.3,34.2c0,20.9-18.1,31.8-45.6,31.8h-6v18h-36V2.4h42C289.1,2.4,307.3,13.3,307.3,34.2z M269.5,34.2
		c0-2.6-1.7-5.4-9-5.4h-4.8v10.8h4.8C267.8,39.6,269.5,36.8,269.5,34.2z"/>
	<path fill="#FBE8E2" d="M381.2,63.6V84c-4.6,1.3-8.5,2.4-15.6,2.4c-12.4,0-19.4-3.4-24-10.3c-3.1,6.1-9.7,10.3-17.4,10.3
		c-11.2,0-18.7-8-18.7-18.2c0-10.1,7.4-18.1,18.7-18.1c3.5,0,6.6,0.8,9.5,2.3c-2.2-8.5-4.3-13-14.5-13c-3.4,0-6.2,0.5-9.1,1.4V18
		c6.2-1.7,13.8-2.4,19.9-2.4c29,0,36.8,16,41.2,36.7c1.4,7.1,2.5,11.8,7.6,11.8C379.5,64.1,380.2,64,381.2,63.6z M337,67
		c0-2.4-1.9-4.2-4.2-4.2c-2.4,0-4.2,1.8-4.2,4.2c0,2.5,1.8,4.2,4.2,4.2C335.1,71.2,337,69.5,337,67z"/>
	<path fill="#FBE8E2" d="M419.6,0v84h-36V0H419.6z"/>
	<path fill="#FBE8E2" d="M488.5,57.2l8,5.2c-6,14.8-17.2,24-34.7,24c-23,0-38.6-15.8-38.6-35.4c0-19.6,15.6-35.4,38.2-35.4
		c21.6,0,37.4,14.6,37.4,36.6h-34c0.7,6.4,4.8,10.8,10.6,10.8C480.5,63,484.6,60.6,488.5,57.2z M465.4,42.6h15.4c-1.1-4-3.6-6-7.4-6
		C469.6,36.6,466.7,38.5,465.4,42.6z"/>
	<path fill="#FBE8E2" d="M564.4,56.2l10.1,6.2c-7.2,16-19.6,24-35.4,24c-22.3,0-37.9-15.8-37.9-35.4c0-19.6,15.6-35.4,37.9-35.4
		c15.8,0,28.2,8,35.4,24l-10.1,6.2c-2.6-2.9-5.2-4.8-9.2-4.8c-6.1,0-10.6,4.2-10.6,10s4.4,10,10.6,10C559.3,61,561.8,59,564.4,56.2z
		"/>
	<path fill="#FBE8E2" d="M87.6,178.2c0,20.9-18.1,31.8-45.6,31.8h-6v18H0v-81.6h42C69.5,146.4,87.6,157.3,87.6,178.2z M49.8,178.2
		c0-2.6-1.7-5.4-9-5.4H36v10.8h4.8C48.1,183.6,49.8,180.8,49.8,178.2z"/>
	<path fill="#FBE8E2" d="M146.4,159.6v33c-9.2,0-19.2,6.2-19.2,20.4v15h-36v-66h26.4l5.6,14.2C128.9,165.6,137.6,159.6,146.4,159.6z
		"/>
	<path fill="#FBE8E2" d="M223.2,195c0,19.6-15.7,35.4-37.8,35.4c-22.1,0-37.8-15.8-37.8-35.4c0-19.6,15.7-35.4,37.8-35.4
		C207.5,159.6,223.2,175.4,223.2,195z M191.4,195c0-3.4-2.6-6-6-6c-3.4,0-6,2.6-6,6s2.6,6,6,6C188.8,201,191.4,198.4,191.4,195z"/>
	<path fill="#FBE8E2" d="M276.4,176.4c-4.2,0-6.4,1.8-6.4,3.4c0,5.6,26.5,8.5,26.5,28.6c0,14.6-14.3,22.1-33.7,22.1
		c-18.4,0-28.8-6.7-38.4-16.8l8.4-7.2c4.8,3.7,8.8,6.6,14.4,6.6c4.1,0,5.5-1.6,5.5-3c0-6.1-24.7-7.8-24.7-27.2
		c0-14.5,14-23.2,33.1-23.2c15.7,0,26,6.1,33.7,15.2l-7.7,6.6C284,178.6,280.2,176.4,276.4,176.4z"/>
	<path fill="#FBE8E2" d="M337.3,188.4v4.1c0,5.3,1.3,13.6,11,13.6c1.1,0,2.2-0.1,3.5-0.4V228c-5.3,1.8-10.9,2.4-16.4,2.4
		c-17.5-0.1-34.1-7.9-34.1-34.3V162l36-18.7V162h14.5v26.4H337.3z"/>
	<path fill="#FBE8E2" d="M438.2,162l-47.5,84h-36.4l21.1-35.2L347,162h37.2l9.6,18.2l8.4-18.2H438.2z"/>
	<path fill="#FBE8E2" d="M470.6,188.4v4.1c0,5.3,1.3,13.6,11,13.6c1.1,0,2.2-0.1,3.5-0.4V228c-5.3,1.8-10.9,2.4-16.4,2.4
		c-17.5-0.1-34.1-7.9-34.1-34.3V162l36-18.7V162h14.5v26.4H470.6z"/>
	<path fill="#FBE8E2" d="M568.4,162v66H542l-4.4-11c-5,7.6-13.3,12.2-24.7,12.2c-15.7,0-24.1-8-24.1-23.4V162h36v32.8
		c0,3.4,1.4,5,3.8,5c2.3,0,3.8-1.7,3.8-5V162H568.4z"/>
	<path fill="#FBE8E2" d="M609.2,188.4v4.1c0,5.3,1.3,13.6,11,13.6c1.1,0,2.2-0.1,3.5-0.4V228c-5.3,1.8-10.9,2.4-16.4,2.4
		c-17.5-0.1-34.1-7.9-34.1-34.3V162l36-18.7V162h14.5v26.4H609.2z"/>
	<path fill="#FBE8E2" d="M703.2,201.4c1.8,0,3.7-0.4,5.8-1V228c-4.4,1.6-9.5,2.4-14.6,2.4c-15.6,0-25.4-7.9-31-19.7V228h-36v-84h36
		v42.6l18-24.6h28.8l-19.1,26.5C691.1,196.2,695.9,201.4,703.2,201.4z"/>
	<path fill="#FBE8E2" d="M712.5,148.3c0-8.5,11-15.1,21.6-15.1c7.9,0,14.4,3.8,14.4,10.1c0,8.4-11,15.1-21.6,15.1
		C719.1,158.4,712.5,154.7,712.5,148.3z M748.5,162v66h-36v-66H748.5z"/>
	<path fill="#FBE8E2" d="M791.7,146.4l-12,48h-13.2l-12-48H791.7z M759,214.9c0-7.8,6.2-14.2,14.2-14.2c7.8,0,14,6.4,14,14.2
		s-6.2,14.2-14,14.2C765.2,229.1,759,222.7,759,214.9z"/>
</g>
</svg>
