<?xml version="1.0" encoding="utf-8"?>
<!-- Generator: Adobe Illustrator 19.2.1, SVG Export Plug-In . SVG Version: 6.00 Build 0)  -->
<svg version="1.1" id="Layer_1" xmlns="http://www.w3.org/2000/svg" xmlns:xlink="http://www.w3.org/1999/xlink" x="0px" y="0px"
	 viewBox="0 0 883 397.4" enable-background="new 0 0 883 397.4" xml:space="preserve">
<g>
	<path fill="#522D84" d="M122.6,54.2v4.1c0,5.3,1.3,13.6,11,13.6c1.1,0,2.2-0.1,3.5-0.4v22.3c-5.3,1.8-10.9,2.4-16.4,2.4
		c-17.5-0.1-34.1-7.9-34.1-34.3V27.8l36-18.7v18.7h14.5v26.4H122.6z"/>
	<path fill="#522D84" d="M204.8,67.1l8,5.2c-6,14.8-17.2,24-34.7,24c-23,0-38.6-15.8-38.6-35.4c0-19.6,15.6-35.4,38.2-35.4
		c21.6,0,37.4,14.6,37.4,36.6h-34c0.7,6.4,4.8,10.8,10.6,10.8C196.9,72.8,201,70.4,204.8,67.1z M181.8,52.4h15.4c-1.1-4-3.6-6-7.4-6
		C186,46.4,183.1,48.4,181.8,52.4z"/>
	<path fill="#522D84" d="M254.8,9.8v84h-36v-84H254.8z"/>
	<path fill="#522D84" d="M323.6,67.1l8,5.2c-6,14.8-17.2,24-34.7,24c-23,0-38.6-15.8-38.6-35.4c0-19.6,15.6-35.4,38.2-35.4
		c21.6,0,37.4,14.6,37.4,36.6h-34c0.7,6.4,4.8,10.8,10.6,10.8C315.7,72.8,319.8,70.4,323.6,67.1z M300.6,52.4H316
		c-1.1-4-3.6-6-7.4-6C304.8,46.4,301.9,48.4,300.6,52.4z"/>
	<path fill="#522D84" d="M373.6,27.8h14.5v26.4h-14.5v39.6h-36V31.4c0-23,18.4-31.4,36.8-31.4c4.7,0,9.4,0.5,13.7,1.4v18
		c-1.6-0.4-3-0.5-4.3-0.5C377.2,19,373.6,22.9,373.6,27.8z"/>
	<path fill="#522D84" d="M471.4,27.8v66H445l-4.4-11c-5,7.6-13.3,12.2-24.7,12.2c-15.7,0-24.1-8-24.1-23.4V27.8h36v32.8
		c0,3.4,1.4,5,3.8,5c2.3,0,3.8-1.7,3.8-5V27.8H471.4z"/>
	<path fill="#522D84" d="M555.8,50v43.8h-36V61.1c0-3.4-1.4-5-3.8-5c-2.3,0-3.8,1.7-3.8,5v32.8h-36v-66h26.4l4.4,11
		c5-7.6,13.3-12.2,24.7-12.2C547.4,26.6,555.8,34.7,555.8,50z"/>
	<path fill="#522D84" d="M636.5,67.2c1.8,0,3.7-0.4,5.8-1v27.6c-4.4,1.6-9.5,2.4-14.6,2.4c-15.6,0-25.4-7.9-31-19.7v17.3h-36v-84h36
		v42.6l18-24.6h28.8l-19.1,26.5C624.4,62,629.2,67.2,636.5,67.2z"/>
	<path fill="#522D84" d="M709.9,67.1l8,5.2c-6,14.8-17.2,24-34.7,24c-23,0-38.6-15.8-38.6-35.4c0-19.6,15.6-35.4,38.2-35.4
		c21.6,0,37.4,14.6,37.4,36.6h-34c0.7,6.4,4.8,10.8,10.6,10.8C702,72.8,706.1,70.4,709.9,67.1z M686.9,52.4h15.4c-1.1-4-3.6-6-7.4-6
		C691.1,46.4,688.2,48.4,686.9,52.4z"/>
	<path fill="#522D84" d="M803.5,50v43.8h-36V61.1c0-3.4-1.4-5-3.8-5c-2.3,0-3.8,1.7-3.8,5v32.8h-36v-66h26.4l4.4,11
		c5-7.6,13.3-12.2,24.7-12.2C795.1,26.6,803.5,34.7,803.5,50z"/>
	<path fill="#522D84" d="M120,171.8l-44.4,74.4L60,218.2l-15.6,28.1L0,171.8h37.2l9.6,18.2L60,171.8l13.2,18.2l9.6-18.2H120z"/>
	<path fill="#522D84" d="M176.4,153.8v84h-36v-84H176.4z"/>
	<path fill="#522D84" d="M255.6,204.8c0,19.6-15.7,35.4-37.8,35.4c-22.1,0-37.8-15.8-37.8-35.4c0-19.6,15.7-35.4,37.8-35.4
		C239.9,169.4,255.6,185.3,255.6,204.8z M223.8,204.8c0-3.4-2.6-6-6-6c-3.4,0-6,2.6-6,6s2.6,6,6,6
		C221.2,210.8,223.8,208.2,223.8,204.8z"/>
	<path fill="#522D84" d="M380.2,194v43.8h-36v-32.8c0-3.4-1-5-3.2-5c-2.2,0-3.2,1.7-3.2,5v32.8h-36v-32.8c0-3.4-1-5-3.2-5
		c-2.2,0-3.2,1.7-3.2,5v32.8h-36v-66h26.4l3.7,9.2c5.4-6.5,13.8-10.4,24.8-10.4c9.4,0,15.8,2.8,19.6,8.3c5.5-5.2,13.1-8.3,22.9-8.3
		C372.4,170.6,380.2,178.7,380.2,194z"/>
	<path fill="#522D84" d="M467.4,204.8c0,19.6-13.4,34.2-31.9,34.2c-8.9,0-15.8-4-20.4-10.4l-3.7,9.2H385v-84h36v21.2
		c4-2.9,8.9-4.4,14.5-4.4C454,170.6,467.4,185.3,467.4,204.8z M431.4,204.8c0-3.2-2.8-6-6-6c-3.4,0-6,2.8-6,6c0,3.2,2.6,6,6,6
		C428.6,210.8,431.4,208.1,431.4,204.8z"/>
	<path fill="#522D84" d="M543.7,217.4v20.4c-4.6,1.3-8.5,2.4-15.6,2.4c-12.4,0-19.4-3.4-24-10.3c-3.1,6.1-9.7,10.3-17.4,10.3
		c-11.2,0-18.7-8-18.7-18.2c0-10.1,7.4-18.1,18.7-18.1c3.5,0,6.6,0.8,9.5,2.3c-2.2-8.5-4.3-13-14.5-13c-3.4,0-6.2,0.5-9.1,1.4v-22.8
		c6.2-1.7,13.8-2.4,19.9-2.4c29,0,36.8,16,41.2,36.7c1.4,7.1,2.5,11.8,7.6,11.8C542,217.9,542.8,217.8,543.7,217.4z M499.6,220.8
		c0-2.4-1.9-4.2-4.2-4.2c-2.4,0-4.2,1.8-4.2,4.2c0,2.5,1.8,4.2,4.2,4.2C497.6,225,499.6,223.3,499.6,220.8z"/>
	<path fill="#522D84" d="M601.3,169.4v33c-9.2,0-19.2,6.2-19.2,20.4v15h-36v-66h26.4l5.6,14.2C583.8,175.4,592.6,169.4,601.3,169.4z
		"/>
	<path fill="#522D84" d="M685,153.8v84h-26.4l-3.7-9.2c-4.6,6.5-11.5,10.4-20.4,10.4c-18.5,0-31.9-14.6-31.9-34.2
		c0-19.6,13.4-34.2,31.9-34.2c5.6,0,10.6,1.6,14.5,4.4v-21.2H685z M650.5,204.8c0-3.2-2.6-6-6-6c-3.2,0-6,2.8-6,6c0,3.2,2.8,6,6,6
		C647.9,210.8,650.5,208.1,650.5,204.8z"/>
	<path fill="#522D84" d="M765.4,171.8l-25.2,39.6H763v26.4h-76.8l25.2-39.6h-19.2v-26.4H765.4z"/>
	<path fill="#522D84" d="M767.8,158.2c0-8.5,11-15.1,21.6-15.1c7.9,0,14.4,3.8,14.4,10.1c0,8.4-11,15.1-21.6,15.1
		C774.4,168.2,767.8,164.5,767.8,158.2z M803.8,171.8v66h-36v-66H803.8z"/>
	<path fill="#522D84" d="M872.6,211.1l8,5.2c-6,14.8-17.2,24-34.7,24c-23,0-38.6-15.8-38.6-35.4c0-19.6,15.6-35.4,38.2-35.4
		c21.6,0,37.4,14.6,37.4,36.6h-34c0.7,6.4,4.8,10.8,10.6,10.8C864.7,216.8,868.8,214.4,872.6,211.1z M849.6,196.4H865
		c-1.1-4-3.6-6-7.4-6C853.8,190.4,850.9,192.4,849.6,196.4z"/>
	<path fill="#522D84" d="M132.1,300.2l-12,48h-13.2l-12-48H132.1z M99.3,368.8c0-7.8,6.2-14.2,14.2-14.2c7.8,0,14,6.4,14,14.2
		s-6.2,14.2-14,14.2C105.5,382.9,99.3,376.6,99.3,368.8z"/>
	<path fill="#522D84" d="M218.1,325.8l-2.8,38.8c-0.2,3.4,1.2,4.9,3.1,4.9c4,0,14.2-6.5,14.2-24.7c0-21.7-14.5-37.6-40.3-37.6
		c-30.5,0-51.8,20.9-51.8,45.6c0,20.5,13.4,41.3,45.8,41.3c11,0,23.6-2.3,33-6.4l-0.1,2.2c-9.2,4.1-21,6.4-32.4,6.4
		c-35.8,0-48.7-22.6-48.7-43.2c0-26.2,22.3-48,54.4-48c27.2,0,42.6,16.7,42.6,39.8c0,20.6-12.2,31.4-27.4,31.4
		c-6.6,0-13.1-2-16.1-6.7c-3.7,4.2-8.6,6.7-15.1,6.7c-13.1,0-22.1-10.2-22.1-24c0-15.5,11.4-27.4,25.6-27.4c6.6,0,11.5,2.5,15,7.8
		l3.4-7H218.1z M192.1,350.3c0-3-2.5-5.6-5.6-5.6c-3.5,0-6.4,3-6.4,6.4c0,3,2.4,5.6,5.5,5.6C188.9,356.6,192.1,353.8,192.1,350.3z"
		/>
	<path fill="#522D84" d="M313.5,332.6l-1.3,15.6h12l-1.4,16.8h-12l-1.4,16.8h-21.7L289,365h-14.3l-1.4,16.8h-21.7L253,365h-12
		l1.4-16.8h12l1.4-15.6h-12l1.4-16.8h12l1.3-15.6h21.6l-1.3,15.6h14.4l1.3-15.6h21.6l-1.3,15.6h12.1l-1.4,16.8H313.5z M291.9,332.6
		h-14.4l-1.3,15.6h14.3L291.9,332.6z"/>
	<path fill="#522D84" d="M409.4,357.8c0,14.8-11.2,22.9-25.4,25.6l2,14h-25.3l2-14.2c-11.9-2.2-23.2-8.2-31.4-19.4l6.8-8.8
		c5.6,5,12.4,8.8,18.2,8.8c4,0,5.6-1.7,5.6-4c0-9-25.3-13.3-25.3-35.5c0-14,10.2-23.3,26-25.8l-2-12.7H386l-2.2,13.2
		c12.4,2.6,21.2,9.5,27.4,19.2l-8,7.6c-4.7-4.4-10-7.6-15.2-7.6c-5,0-5.6,2.9-5.6,4.1C382.3,330.8,409.4,333.4,409.4,357.8z"/>
	<path fill="#522D84" d="M476.1,329.5c0,16.2-13.1,29.3-31.3,29.3s-31.2-13.1-31.2-29.3s13-29.3,31.2-29.3S476.1,313.3,476.1,329.5z
		 M450.9,329.5c0-3.4-2.8-6.1-6.1-6.1c-3.4,0-5.9,2.8-5.9,6.1s2.5,5.9,5.9,5.9C448.1,335.4,450.9,332.9,450.9,329.5z M532.5,300.2
		l-61.4,90h-25.3l61.6-90H532.5z M564.9,361c0,16.2-13.1,29.3-31.3,29.3s-31.2-13.1-31.2-29.3c0-16.2,13-29.3,31.2-29.3
		S564.9,344.8,564.9,361z M539.7,361c0-3.4-2.8-6.1-6.1-6.1c-3.4,0-5.9,2.8-5.9,6.1c0,3.4,2.5,5.9,5.9,5.9
		C536.9,366.8,539.7,364.3,539.7,361z"/>
	<path fill="#522D84" d="M608.3,339.8l-9.1-16.2l-9.1,16.2h-20.4l29.6-46.6l-0.1-0.2l29.5,46.8H608.3z"/>
	<path fill="#522D84" d="M730.1,360.2V383c-10,0.6-19.6-1.1-26-4.4c-7.3,3.7-16.7,5.6-28,5.6c-22.3,0-41.4-7.6-41.4-25.3
		c0-13,10.1-20.4,21.5-25.7c-2.9-4.6-3.8-9.1-3.8-12.7c0-15.7,17.2-21.5,31.4-21.5c19.6,0,27.1,10.7,27.1,20.8
		c0,11.3-9.5,15.7-19.8,19.8c4.4,4.9,10,9.6,16.2,13.2c1.4-4.6,1.7-10.2,0.6-16.4l13.7-4.9c2.2,10.4,2,19.7-0.4,27.4
		C723.8,359.8,726.3,360.2,730.1,360.2z M668.8,355.3c-2,1.2-4.1,3.1-4.1,6.5c0,7.3,9,9.5,19.4,7.1
		C678.4,365,673.3,360.4,668.8,355.3z M688.4,321.8c0-2.4-1.9-4.2-4.2-4.2c-2.4,0-4.2,1.8-4.2,4.2c0,2.5,1.8,4.2,4.2,4.2
		C686.5,326,688.4,324.4,688.4,321.8z"/>
	<path fill="#522D84" d="M790.5,317.6l-22.1-2l23.8,19.6l-21.6,4.2l-4.9-21.7l-10.4,29.2l-10.6-19.1l18.2-12.1l-30.8-0.8l14.9-16
		l17,13.7l-7.7-29.6l19.8,9.1l-8.8,20.5l25.8-16.6L790.5,317.6z"/>
</g>
</svg>
