<?xml version="1.0" encoding="utf-8"?>
<!-- Generator: Adobe Illustrator 19.2.1, SVG Export Plug-In . SVG Version: 6.00 Build 0)  -->
<svg version="1.1" id="Layer_1" xmlns="http://www.w3.org/2000/svg" xmlns:xlink="http://www.w3.org/1999/xlink" x="0px" y="0px"
	 viewBox="0 0 675 454.2" enable-background="new 0 0 675 454.2" xml:space="preserve">
<g>
	<path fill="#E45C50" d="M160.2,22l-21,33h19v22h-64l21-33h-16V22H160.2z"/>
	<path fill="#E45C50" d="M224.8,60v17c-3.8,1.1-7.1,2-13,2c-10.3,0-16.2-2.8-20-8.6c-2.6,5.1-8.1,8.6-14.5,8.6
		c-9.3,0-15.6-6.7-15.6-15.2c0-8.4,6.2-15.1,15.6-15.1c2.9,0,5.5,0.7,7.9,1.9c-1.8-7.1-3.6-10.8-12.1-10.8c-2.8,0-5.2,0.4-7.6,1.2
		V22c5.2-1.4,11.5-2,16.6-2c24.2,0,30.7,13.3,34.3,30.6c1.2,5.9,2.1,9.8,6.3,9.8C223.4,60.4,224,60.3,224.8,60z M188,62.8
		c0-2-1.6-3.5-3.5-3.5c-2,0-3.5,1.5-3.5,3.5c0,2.1,1.5,3.5,3.5,3.5C186.3,66.3,188,64.9,188,62.8z"/>
	<path fill="#E45C50" d="M294.5,7v70h-22l-3.1-7.7c-3.8,5.4-9.6,8.7-17,8.7c-15.4,0-26.6-12.2-26.6-28.5S236.9,21,252.3,21
		c4.7,0,8.8,1.3,12.1,3.7V7H294.5z M265.8,49.5c0-2.7-2.2-5-5-5c-2.7,0-5,2.3-5,5s2.3,5,5,5C263.6,54.5,265.8,52.2,265.8,49.5z"/>
	<path fill="#E45C50" d="M361.5,22l-21,33h19v22h-64l21-33h-16V22H361.5z"/>
	<path fill="#E45C50" d="M451.5,22l-37,62l-13-23.4l-13,23.4l-37-62h31l8,15.2l11-15.2l11,15.2l8-15.2H451.5z"/>
	<path fill="#E45C50" d="M507.5,49.5c0,16.3-13.1,29.5-31.5,29.5s-31.5-13.2-31.5-29.5S457.5,20,476,20S507.5,33.2,507.5,49.5z
		 M481,49.5c0-2.8-2.2-5-5-5s-5,2.2-5,5c0,2.8,2.2,5,5,5S481,52.3,481,49.5z"/>
	<path fill="#E45C50" d="M576.9,40.5V77h-30V49.7c0-2.8-1.2-4.2-3.2-4.2c-1.9,0-3.2,1.4-3.2,4.2V77h-30V22h22l3.7,9.2
		c4.2-6.3,11.1-10.2,20.6-10.2C569.9,21,576.9,27.7,576.9,40.5z M546.2,16h-3.5V0h27.5L546.2,16z"/>
	<path fill="#E45C50" d="M142.7,127v70h-22l-3.1-7.7c-3.8,5.4-9.6,8.7-17,8.7C85.2,198,74,185.8,74,169.5S85.2,141,100.6,141
		c4.7,0,8.8,1.3,12.1,3.7V127H142.7z M114,169.5c0-2.7-2.2-5-5-5c-2.7,0-5,2.3-5,5s2.3,5,5,5C111.8,174.5,114,172.2,114,169.5z"/>
	<path fill="#E45C50" d="M208.7,169.5c0,16.3-13.1,29.5-31.5,29.5s-31.5-13.2-31.5-29.5s13.1-29.5,31.5-29.5
		S208.7,153.2,208.7,169.5z M182.2,169.5c0-2.8-2.2-5-5-5s-5,2.2-5,5c0,2.8,2.2,5,5,5S182.2,172.3,182.2,169.5z"/>
	<path fill="#E45C50" d="M328.7,197.2h-30l-2-22l-16,13.5l-16-13.5l-2,22h-30l8-72.2l40,31l40-31L328.7,197.2z"/>
	<path fill="#E45C50" d="M393.3,180v17c-3.8,1.1-7.1,2-13,2c-10.3,0-16.2-2.8-20-8.6c-2.6,5.1-8.1,8.6-14.5,8.6
		c-9.3,0-15.6-6.7-15.6-15.2c0-8.4,6.2-15.1,15.6-15.1c2.9,0,5.5,0.7,7.9,1.9c-1.8-7.1-3.6-10.8-12.1-10.8c-2.8,0-5.2,0.4-7.6,1.2
		v-19c5.2-1.4,11.5-2,16.6-2c24.2,0,30.7,13.3,34.3,30.6c1.2,5.9,2.1,9.8,6.3,9.8C391.9,180.4,392.5,180.3,393.3,180z M356.5,182.8
		c0-2-1.6-3.5-3.5-3.5c-2,0-3.5,1.5-3.5,3.5c0,2.1,1.5,3.5,3.5,3.5C354.8,186.3,356.5,184.9,356.5,182.8z"/>
	<path fill="#E45C50" d="M496.1,160.5V197h-30v-27.3c0-2.8-0.8-4.2-2.7-4.2c-1.8,0-2.7,1.4-2.7,4.2V197h-30v-27.3
		c0-2.8-0.8-4.2-2.7-4.2c-1.8,0-2.7,1.4-2.7,4.2V197h-30v-55h22l3.1,7.7c4.5-5.4,11.5-8.7,20.7-8.7c7.8,0,13.2,2.3,16.3,6.9
		c4.6-4.3,10.9-6.9,19.1-6.9C489.6,141,496.1,147.7,496.1,160.5z"/>
	<path fill="#E45C50" d="M569.1,142l-39.6,70h-30.3l17.6-29.3L493,142h31l8,15.2l7-15.2H569.1z"/>
	<path fill="#E45C50" d="M598,129l-10,40h-11l-10-40H598z M570.7,186.1c0-6.5,5.2-11.8,11.8-11.8c6.5,0,11.7,5.3,11.7,11.8
		c0,6.5-5.2,11.8-11.7,11.8C575.9,197.9,570.7,192.6,570.7,186.1z"/>
	<path fill="#E45C50" d="M159.3,284v3.4c0,4.4,1.1,11.3,9.2,11.3c0.9,0,1.8-0.1,2.9-0.3V317c-4.4,1.5-9.1,2-13.7,2
		c-14.6-0.1-28.4-6.6-28.4-28.6V262l30-15.6V262h12.1v22H159.3z"/>
	<path fill="#E45C50" d="M227.8,294.7l6.7,4.3c-5,12.3-14.3,20-28.9,20c-19.2,0-32.2-13.2-32.2-29.5s13-29.5,31.8-29.5
		c18,0,31.2,12.2,31.2,30.5h-28.3c0.6,5.3,4,9,8.8,9C221.2,299.5,224.6,297.5,227.8,294.7z M208.6,282.5h12.8c-0.9-3.3-3-5-6.2-5
		C212.1,277.5,209.7,279.1,208.6,282.5z"/>
	<path fill="#E45C50" d="M269.4,247v70h-30v-70H269.4z"/>
	<path fill="#E45C50" d="M326.8,294.7l6.7,4.3c-5,12.3-14.3,20-28.9,20c-19.2,0-32.2-13.2-32.2-29.5s13-29.5,31.8-29.5
		c18,0,31.2,12.2,31.2,30.5h-28.3c0.6,5.3,4,9,8.8,9C320.2,299.5,323.6,297.5,326.8,294.7z M307.6,282.5h12.8c-0.9-3.3-3-5-6.2-5
		C311.1,277.5,308.7,279.1,307.6,282.5z"/>
	<path fill="#E45C50" d="M368.4,262h12.1v22h-12.1v33h-30v-52c0-19.2,15.3-26.2,30.7-26.2c3.9,0,7.8,0.4,11.4,1.2v15
		c-1.3-0.3-2.5-0.4-3.6-0.4C371.4,254.6,368.4,257.9,368.4,262z"/>
	<path fill="#E45C50" d="M445.5,289.5c0,16.3-13.1,29.5-31.5,29.5s-31.5-13.2-31.5-29.5s13.1-29.5,31.5-29.5
		S445.5,273.2,445.5,289.5z M418.9,289.5c0-2.8-2.2-5-5-5s-5,2.2-5,5c0,2.8,2.2,5,5,5S418.9,292.3,418.9,289.5z"/>
	<path fill="#E45C50" d="M514.9,280.5V317h-30v-27.3c0-2.8-1.2-4.2-3.2-4.2c-1.9,0-3.2,1.4-3.2,4.2V317h-30v-55h22l3.7,9.2
		c4.2-6.3,11.1-10.2,20.6-10.2C507.8,261,514.9,267.7,514.9,280.5z"/>
	<path fill="#E45C50" d="M518.8,272.9c0-7.2,5.8-13,13-13s12.9,5.8,12.9,13s-5.7,13-12.9,13S518.8,280.1,518.8,272.9z M518.8,304.9
		c0-7.2,5.8-13,13-13s12.9,5.8,12.9,13s-5.7,13-12.9,13S518.8,312.1,518.8,304.9z"/>
	<path fill="#E45C50" d="M29.8,404H0v-22h59c-11.3,23.3-19.5,44.7-19.8,69H8.8C10.8,432.7,16.8,418.3,29.8,404z"/>
	<path fill="#E45C50" d="M126,418.6c0,10.5-9.3,20.4-32,20.4s-32-9.9-32-20.4c0-8.9,5.5-15.1,12-17.9c-5.6-3.3-9-8.3-9-14.5
		c0-12,11.5-19.2,29-19.2s29,7.2,29,19.2c0,6.2-3.4,11.2-9,14.5C120.5,403.5,126,409.7,126,418.6z M99,387.5c0-2.8-2.2-5-5-5
		s-5,2.2-5,5s2.2,5,5,5S99,390.3,99,387.5z M99,416.5c0-2.8-2.2-5-5-5s-5,2.2-5,5c0,2.8,2.2,5,5,5S99,419.3,99,416.5z"/>
	<path fill="#E45C50" d="M193,409.2c0,18.5-9.8,40.6-50,45l-3.3-11.2c10.1-2.7,19.2-6.9,25.1-14.7c-2.7,1.1-5.7,1.7-9.1,1.7
		c-14.6,0-25.7-10.3-25.7-24.3c0-14.6,12.1-25.7,31.5-25.7C179.9,380,193,390.8,193,409.2z M161.5,410.5c2.9,0,5-2.4,5-5s-2.1-5-5-5
		c-3,0-5,2.4-5,5S158.5,410.5,161.5,410.5z"/>
	<path fill="#E45C50" d="M197,409.5c0-17.5,15.1-29.5,33-29.5s33,12,33,29.5S247.9,439,230,439S197,427,197,409.5z M244.5,409.5
		c0-4.2-6.4-5.9-14.5-5.9c-8.2,0-14.5,1.7-14.5,5.9s6.3,6,14.5,6C238.1,415.5,244.5,413.7,244.5,409.5z"/>
	<path fill="#E45C50" d="M266,397h44v15h-44V397z"/>
	<path fill="#E45C50" d="M348,377v60h-31v-39L348,377z"/>
	<path fill="#E45C50" d="M416,419v18h-63c17.1-14.8,27.1-24.5,27.1-32.8c0-4.6-3.1-6.2-6.7-6.2c-3.8,0-7,1.7-11.7,5.3L356,398
		c7.1-10.8,18.2-18,33.1-18c14.1,0,25,5.6,25,17c0,8.4-5.9,16-18.4,22H416z"/>
	<path fill="#E45C50" d="M480,431.8c0,13.1-13.6,20.2-29.3,20.2c-13.2,0-24.6-5-30.7-14l4.7-6.3c4.9,3.2,9.4,4.3,13.6,4.3
		c6.1,0,9.8-2.3,9.8-7.7c0-3.7-1.8-7-5.1-9l-7.7,1.2L432,412c13.1-3,15.1-6.6,15.1-9.9c0-3.5-2.3-5.1-6.6-5.1
		c-3.6,0-7.9,1.1-12.8,4.3L423,395c7.5-9.3,18.3-15,31.5-15c13.9,0,22.6,6.4,22.6,17.1c0,5.7-2.4,11-11.2,15.4
		C477.9,417.7,480,426.6,480,431.8z"/>
	<path fill="#E45C50" d="M546,437h-7v15h-23v-15h-38v-7l61-53v44h7V437z M516,421v-9.8l-11,9.8H516z"/>
	<path fill="#E45C50" d="M609,430.2c0,15.4-13.6,21.8-29.1,21.8c-13.9,0-24.9-5.2-30.9-14l4.7-6.3c4.9,3.2,9.4,4.3,13.5,4.3
		c6.2,0,9.9-2.5,9.9-7.3c0-5.8-5.6-13.3-24.3-9l6-37.7h48.1v22h-36.7l-0.9,6.5C582.1,407.5,609,408.5,609,430.2z"/>
	<path fill="#E45C50" d="M675,413.3c0,14.6-12.1,25.7-31.5,25.7c-18.4,0-31.5-10.8-31.5-29.2c0-18.5,9.8-40.6,50-45l3.3,11.2
		c-10.1,2.7-19.2,6.9-25.1,14.7c2.7-1.1,5.7-1.7,9.1-1.7C663.9,389,675,399.3,675,413.3z M648.5,413.5c0-2.6-2-5-5-5
		c-2.9,0-5,2.4-5,5c0,2.6,2.1,5,5,5C646.5,418.5,648.5,416.1,648.5,413.5z"/>
</g>
</svg>
