<?xml version="1.0" encoding="utf-8"?>
<!-- Generator: Adobe Illustrator 19.2.1, SVG Export Plug-In . SVG Version: 6.00 Build 0)  -->
<svg version="1.1" id="Layer_1" xmlns="http://www.w3.org/2000/svg" xmlns:xlink="http://www.w3.org/1999/xlink" x="0px" y="0px"
	 viewBox="0 0 835.2 377.8" enable-background="new 0 0 835.2 377.8" xml:space="preserve">
<g>
	<g>
		<path fill="#E45C50" d="M64.8,0l18.6,37.4v34.7l-1.2,1.2H46.8l-1.2-1.2V57.5h-7.8v14.6l-1.2,1.2H1.2L0,72.1V37.4L18.6,0H64.8z
			 M37.8,39.4h7.8V15h-7.8V39.4z"/>
		<path fill="#E45C50" d="M157.8,0l13.8,13.2v14l-8.3,8.2l8.3,8.2v16.6l-13.8,13.2H90.6l-1.2-1.2V1.2L90.6,0H157.8z M126,28.4h7.8
			v-17H126V28.4z M126,62h7.8V42.2H126V62z"/>
		<path fill="#E45C50" d="M225.6,0l1.2,1.2v14.5l-1.2,1.2h-9v39.5h9l1.2,1.2v14.5l-1.2,1.2H195l-18.6-18V18L195,0H225.6z"/>
		<path fill="#E45C50" d="M295.2,0l18.6,18v37.3l-18.6,18h-62.4l-1.2-1.2V1.2l1.2-1.2H295.2z M268.2,11.4v50.5h7.8V11.4H268.2z"/>
		<path fill="#E45C50" d="M369,0l1.2,1.2v15.7l-1.2,1.2h-12.6v8.6h11.4L369,28v15.7l-1.2,1.2h-11.4v10.3H369l1.2,1.2v15.7l-1.2,1.2
			h-48l-1.2-1.2V1.2L321,0H369z"/>
		<path fill="#E45C50" d="M425.4,0l1.2,1.2v15.7l-1.2,1.2h-12.6v15.2h11.4l1.2,1.2v15.7l-1.2,1.2h-11.4v20.6l-1.2,1.2h-34.2
			l-1.2-1.2V1.2l1.2-1.2H425.4z"/>
		<path fill="#E45C50" d="M510.6,26.2l1.2,1.3v60l-1.2,1.2h-34.2l-1.2-1.2V73.3h-27l-18.6-18V18l18.6-18h62.4l1.2,1.2v14.5l-1.2,1.2
			h-43.2v39.5h7.8v-29l1.2-1.2H510.6z"/>
		<path fill="#E45C50" d="M598.2,0l1.2,1.3v70.8l-1.2,1.2H564l-1.2-1.2V44.3H555v27.8l-1.2,1.2h-34.2l-1.2-1.2V1.2l1.2-1.2h34.2
			l1.2,1.3v24.8h7.8v-25L564,0H598.2z"/>
		<path fill="#E45C50" d="M643.2,0l1.2,1.3v70.8l-1.2,1.2h-35.4l-1.2-1.2V1.2l1.2-1.2H643.2z"/>
		<path fill="#E45C50" d="M688.2,0l1.2,1.3v72l-6,14l-1.2,1.2h-35.4l-1.2-1.2l6-14V1.2l1.2-1.2H688.2z"/>
		<path fill="#E45C50" d="M776.4,0l1.2,1.2v21.4l-11.2,12.4l11.2,12.5v39.8l-1.2,1.2h-30.6l-1.2-1.2l-5-43h-6.4v27.8l-1.2,1.2h-34.2
			l-1.2-1.2V1.2l1.2-1.2H732l1.2,1.3v24.8h7.8v-25l1.2-1.2H776.4z"/>
		<path fill="#E45C50" d="M820.2,0l1.2,1.3v53.9H834l1.2,1.2v15.7l-1.2,1.2h-49.2l-1.2-1.2V1.2l1.2-1.2H820.2z"/>
		<path fill="#E45C50" d="M75.5,144l1.2,1.2v54h7.8l1.2,1.2v15.7l-1.2,1.2H32.3l-1.2-1.2v-15.7l1.2-1.2h7.8v-37.1h-7.8l-1.2-1.2
			v-15.7l1.2-1.2H75.5z"/>
		<path fill="#E45C50" d="M120.7,165.7H90.5l-1.2-1.2v-19.3l1.2-1.2h65.6l1.2,1.2v34.3l-29.8,16.1h28.6l1.2,1.2v19.3l-1.2,1.2H90.5
			l-1.2-1.2V188l31.4-16.9V165.7z"/>
		<path fill="#E45C50" d="M214.9,144l1.2,1.2v21.4l-14.2,13l14.2,13v23.6l-1.2,1.2h-50.4l-1.2-1.2v-15.7l1.2-1.2h15v-10.3h-9
			l-1.2-1.2V172l1.2-1.2h9v-8.6h-15l-1.2-1.2v-15.7l1.2-1.2H214.9z"/>
		<path fill="#E45C50" d="M300.7,187.7h7.8l1.2,1.2v15.7l-1.2,1.2h-7.8v10.3l-1.2,1.2h-34.2l-1.2-1.2v-10.3h-43.2l-1.2-1.2v-23
			l15-37.6h21.6l1.2,1.2v42.4h7.8v-42.4l1.2-1.2h33l1.2,1.2V187.7z"/>
		<path fill="#E45C50" d="M315.1,145.2l1.2-1.2h76.2l1.2,1.2v19.3l-1.2,1.2h-42.6v5.4h42.6l1.2,1.2v30.6l-15,14.4h-62.4l-1.2-1.2
			v-20.3l1.2-1.2h32.4l1.2,1.2v6.5h7.8v-13.1h-41.4l-1.2-1.2V145.2z"/>
		<path fill="#E45C50" d="M399.7,145.2l1.2-1.2h76.2l1.2,1.2v19.3l-1.2,1.2h-42.6v5.4h42.6l1.2,1.2v43.8l-1.2,1.2h-76.2l-1.2-1.2
			V145.2z M434.5,182.5v16.7h7.8v-16.7H434.5z"/>
		<path fill="#E45C50" d="M529.7,216.1l-1.2,1.2h-34.2l-1.2-1.2v-37.3l12-7.7v-5.4h-22l-1.2-1.2v-19.3l1.2-1.2h57.4l1.2,1.2v34.3
			l-12,7.7V216.1z"/>
		<path fill="#E45C50" d="M626.3,144l1.2,1.2v21.4l-14.2,13l14.2,13v23.6l-1.2,1.2h-78.6l-1.2-1.2v-23.6l14.2-13l-14.2-13v-21.4
			l1.2-1.2H626.3z M583.1,174.1h7.8v-12h-7.8V174.1z M583.1,199.2h7.8v-13.7h-7.8V199.2z"/>
		<path fill="#E45C50" d="M712.1,216.1l-1.2,1.2h-76.2l-1.2-1.2v-19.3l1.2-1.2h42.6v-5.4h-42.6l-1.2-1.2v-43.8l1.2-1.2h76.2l1.2,1.2
			V216.1z M677.3,178.8v-16.7h-7.8v16.7H677.3z"/>
		<path fill="#E45C50" d="M785.9,144l15,14.4v44.5l-15,14.4h-53.4l-15-14.4v-44.5l15-14.4H785.9z M755.3,205.9h7.8v-50.5h-7.8V205.9
			z"/>
		<path fill="#E45C50" d="M233.7,288l1.2,1.2v15.4l-4.8,27.4l-1.2,1.2h-29.4l-1.2-1.2l-4.8-27.4v-15.4l1.2-1.2H233.7z M223.1,337.3
			l6.2,6.1v11.8l-6.2,6.1h-17.9l-6.4-6.1v-11.8l6.4-6.1H223.1z"/>
		<path fill="#E45C50" d="M309.4,292.6l19.3,18.7v32.4l-1.2,1.2h-9.8l-1.2-1.2v-34.9l-1.2-1.2h-23.6l-3.6,8.4l-8.3-8.4h-15.8
			l-11.8,10.9v22.8l11.8,10.8h15.8l8.3-8.3l3.6,8.3h35.9l1.2,1.2v14.3l-1.2,1.2h-65.8L239.1,350v-38.8l22.7-18.7H309.4z
			 M287.8,319.7v20.4h-6.1v-20.4H287.8z"/>
		<path fill="#E45C50" d="M364.7,288l1.2,1.3v10.9h7.8v-11l1.2-1.2h22.2l1.2,1.3v10.9h7.8l1.2,1.2v15.7l-1.2,1.2h-7.8v10.1h7.8
			l1.2,1.2v15.7l-1.2,1.2h-7.8v13.6l-1.2,1.2h-22.2l-1.2-1.2v-13.6h-7.8v13.6l-1.2,1.2h-22.2l-1.2-1.2v-13.6h-7.8l-1.2-1.2v-15.7
			l1.2-1.2h7.8v-10.1h-7.8l-1.2-1.2v-15.7l1.2-1.2h7.8v-11l1.2-1.2H364.7z M365.9,328.4h7.8v-10.1h-7.8V328.4z"/>
		<path fill="#E45C50" d="M443.5,288l-0.6-14l1.2-1.2h16.8l1.2,1.2l-0.6,14h26.9l4.8,4.8v19.8l-1.2,1.2h-34.2l-1.2-1.2v-13.2h-7.8
			v19.2h34.2l11.4,10.8v21.1l-11.4,10.8h-21.5l0.6,15.2l-1.2,1.2h-16.8l-1.2-1.2l0.6-15.2h-31.3l-1.2-1.2v-16.9l1.2-1.2h44.4v-5.4
			h-34.1l-11.5-10.8v-27.1l11.4-10.7H443.5z"/>
		<path fill="#E45C50" d="M542.7,288l11.9,11.4v22.3l-11.9,11.4h-33.5l-11.9-11.4v-22.3l11.9-11.4H542.7z M522.2,324.1h7.6V297h-7.6
			V324.1z M588.4,288l1.2,1.2v10.2l-19.8,60.7l-1.2,1.2h-18.8l-1.2-1.2v-10.2l19.8-60.7l1.2-1.2H588.4z M629,316.2l11.9,11.4v22.3
			L629,361.3h-33.5l-11.9-11.4v-22.3l11.9-11.4H629z M608.4,352.3h7.6v-27.1h-7.6V352.3z"/>
	</g>
</g>
</svg>
