<?xml version="1.0" encoding="utf-8"?>
<!-- Generator: Adobe Illustrator 19.2.1, SVG Export Plug-In . SVG Version: 6.00 Build 0)  -->
<svg version="1.1" id="Layer_1" xmlns="http://www.w3.org/2000/svg" xmlns:xlink="http://www.w3.org/1999/xlink" x="0px" y="0px"
	 viewBox="0 0 640.5 406.8" enable-background="new 0 0 640.5 406.8" xml:space="preserve">
<g>
	<path fill="#FBE8E2" d="M240.5,94.4h-49.7v-8.8l12.1-29.8h-11V45.1h15.4l10-24.5h-7.8l-16.7,20.2l-1.2-29.9h48v10l-9.2,24.2h8.2
		v10.8h-12.2l-10.4,27.5h6.5l16.9-24.6L240.5,94.4z"/>
	<path fill="#FBE8E2" d="M267.8,67.7v19.2c9.8,0.5,13.7-2.3,19.2-5.5l2,10.6c-4.2,2.4-9.7,4.3-18.8,4.3c-20.6,0-25.6-11-25.6-32.3
		c0-23.2,7.8-33.2,25.7-33.2c18.5,0,24.7,11.2,21.5,37H267.8z M267.8,40.2V59h5.3V40.2H267.8z"/>
	<path fill="#FBE8E2" d="M334,31.8l-0.8,24l-12.4-9l-2.6,1.3v46.3h-21.4V32.3h17.9l2,5.2c2.5-4.8,5.9-6.7,10-6.7
		C328.7,30.7,331.7,31.1,334,31.8z"/>
	<path fill="#FBE8E2" d="M387.6,33.8v60.6h-16.4l-1.8-3.1c-2.9,3.4-6.7,4.9-12.1,4.9c-14,0-21-10.4-21-33.4
		c0-23.2,7.2-32.2,28.1-32.2C372.1,30.7,378.2,31.6,387.6,33.8z M365.7,83.9V40h-6.2v47C362.4,86.6,364.2,85.8,365.7,83.9z"/>
	<path fill="#FBE8E2" d="M443.1,48.7v46.2h-21.2V41.6h-7v53.3h-21.4V31.8h17.9l1.1,2.9c4-3.2,9.6-4.8,16.2-4.2
		C441.9,31.4,443.1,39.5,443.1,48.7z M427.1,21.5h-15.7l1-11.6l0.5-9.8h20.2L427.1,21.5z"/>
	<path fill="#FBE8E2" d="M49.6,192.7v46.2H28.3v-53.3h-7v53.3H0v-63.1h17.9l1.1,2.9c4-3.2,9.6-4.8,16.2-4.2
		C48.4,175.4,49.6,183.5,49.6,192.7z"/>
	<path fill="#FBE8E2" d="M105,177.8v60.6H88.6l-1.8-3.1c-2.9,3.4-6.7,4.9-12.1,4.9c-14,0-21-10.4-21-33.4c0-23.2,7.2-32.2,28.1-32.2
		C89.5,174.7,95.6,175.6,105,177.8z M83.2,227.9V184h-6.2v47C79.8,230.6,81.6,229.8,83.2,227.9z"/>
	<path fill="#FBE8E2" d="M133.6,176.3v59l-11,28.4l-19.7-10l9.5-13.8v-51l-4-12.7H133.6z M112,166.9l-0.2-16.3h21.4l-0.6,16.3H112z"
		/>
	<path fill="#FBE8E2" d="M192.7,206.9c0,23.5-6,33.4-21.1,33.4c-3.6,0-6.6-0.4-8.9-1v23.5h-21.4v-73l-1.8-13.6h18.2l1.3,3.6
		c2.9-3,7.2-5.2,12.6-5.2C186.7,174.7,192.7,184.3,192.7,206.9z M169.1,184c-2.3,0.4-3.7,1.6-6.4,5.6v41.3h6.4V184z"/>
	<path fill="#FBE8E2" d="M197.9,238.4V189l-3.7-12.7h25.4v62.2H197.9z M198,166.9l-0.2-16.3h21.4l-0.6,16.3H198z"/>
	<path fill="#FBE8E2" d="M248.3,211.7v19.2c9.8,0.5,13.7-2.3,19.2-5.5l2,10.6c-8.4,6.5-8.5,6.1-8.5,7.2V254l8.6-0.2v10.9
		c-5,1.6-8.6,2.3-12.4,2.3c-9.5,0-14.4-5-14.4-13.3c0-6.8,3.1-10.8,7.7-13.4c-20.5,0-25.4-11-25.4-32.3c0-23.2,7.8-33.2,25.7-33.2
		c18.5,0,24.7,11.2,21.5,37H248.3z M248.3,203h5.3v-18.8h-5.3V203z"/>
	<path fill="#FBE8E2" d="M329.5,238.9h-22l-7.8-33h8.2v-22.1h-3.1c-0.6,0.1-3.8,1-7.8,4.1v51h-20.8v-87.4H297v27
		c3.4-2.3,7.8-3.8,12.8-3.8c11.4,0,18.2,7.3,18.2,19.6c0,10.8-3.6,17.4-10.4,18.7L329.5,238.9z"/>
	<path fill="#FBE8E2" d="M384.5,192.7v46.2h-21.2v-53.3h-7v53.3h-21.4v-63.1h17.9l1.1,2.9c4-3.2,9.6-4.8,16.2-4.2
		C383.3,175.4,384.5,183.5,384.5,192.7z"/>
	<path fill="#FBE8E2" d="M391.4,238.4V189l-3.7-12.7h25.4v62.2H391.4z M391.6,166.9l-0.2-16.3h21.4l-0.6,16.3H391.6z"/>
	<path fill="#FBE8E2" d="M440.8,211.7v19.2c9.8,0.5,13.7-2.3,19.2-5.5l2,10.6c-4.2,2.4-9.7,4.3-18.8,4.3c-20.6,0-25.6-11-25.6-32.3
		c0-23.2,7.8-33.2,25.7-33.2c18.5,0,24.7,11.2,21.5,37H440.8z M440.8,184.2V203h5.3v-18.8H440.8z"/>
	<path fill="#FBE8E2" d="M491.6,176.3v59l-11,28.4l-19.7-10l9.5-13.8v-51l-4-12.7H491.6z M470,166.9l-0.2-16.3h21.4l-0.6,16.3H470z"
		/>
	<path fill="#FBE8E2" d="M540,223.4c0,11.2-8.2,16.8-24.5,16.8c-7,0-13.6-0.6-19.3-1.8l1.1-28.3l16.6,20.8h3.7v-4
		c-0.1-12-21.2-16.2-21.2-35.9c0-10.8,7.8-16.3,22.3-16.3h1.1c6.7,0,10.9,1,17.5,1.9l-0.8,25.4l-16.9-17.9h-1.1v4.9
		C518.4,199.7,540,205,540,223.4z"/>
	<path fill="#FBE8E2" d="M586.9,176.3v7.2l-23.6,46.9h6l15.2-24.4l2.5,32.4h-47.4v-5.8l25.3-48.4h-6.4l-14.3,18.8l-2.3-26.9H586.9z"
		/>
	<path fill="#FBE8E2" d="M640.5,176.3l-15.4,61.8l-9.2,25.7l-17.8-10.9l16.3-14.4h-11.6l-12.4-62.2h22.4l4.7,38l0.6,6.8l3.8-29
		v-15.8H640.5z"/>
	<path fill="#FBE8E2" d="M117.2,384.2h-2.3c-16.4,0-25.1-11.2-25.2-32.6v-0.7c0.1-21.5,8.6-32.2,25.2-32.2h2.3
		c16.6,0,25.1,10.7,25.2,32.2v0.7C142.3,373.1,133.6,384.2,117.2,384.2z M119.5,328.2h-6.8v46.7h6.8V328.2z"/>
	<path fill="#FBE8E2" d="M226.6,350.9c0,23.5-6,33.4-21.1,33.4c-3.6,0-6.6-0.4-8.9-1v23.5h-21.4v-73l-1.8-13.6h18.2l1.3,3.6
		c2.9-3,7.2-5.2,12.6-5.2C220.6,318.7,226.6,328.3,226.6,350.9z M203,328c-2.3,0.4-3.7,1.6-6.4,5.6v41.3h6.4V328z"/>
	<path fill="#FBE8E2" d="M257.6,384.2h-2.3c-16.4,0-25.1-11.2-25.2-32.6v-0.7c0.1-21.5,8.6-32.2,25.2-32.2h2.3
		c16.6,0,25.1,10.7,25.2,32.2v0.7C282.7,373.1,274,384.2,257.6,384.2z M259.9,328.2H253v46.7h6.8V328.2z"/>
	<path fill="#FBE8E2" d="M323.9,319.8l-0.8,24l-12.4-9l-2.6,1.3v46.3h-21.4v-62.2h17.9l2,5.2c2.5-4.8,5.9-6.7,10-6.7
		C318.7,318.7,321.7,319.1,323.9,319.8z"/>
	<path fill="#FBE8E2" d="M377.6,321.8v60.6h-16.4l-1.8-3.1c-2.9,3.4-6.7,4.9-12.1,4.9c-14,0-21-10.4-21-33.4
		c0-23.2,7.2-32.2,28.1-32.2C362.1,318.7,368.2,319.6,377.6,321.8z M355.7,371.9V328h-6.2v47C352.4,374.6,354.2,373.8,355.7,371.9z"
		/>
	<path fill="#FBE8E2" d="M433.1,336.7v46.2h-21.2v-53.3h-7v53.3h-21.4v-63.1h17.9l1.1,2.9c4-3.2,9.6-4.8,16.2-4.2
		C431.9,319.4,433.1,327.5,433.1,336.7z"/>
	<path fill="#FBE8E2" d="M492.4,382.9h-22l-7.8-33h8.2v-22.1h-3.1c-0.6,0.1-3.8,1-7.8,4.1v51h-20.8v-87.4h20.8v27
		c3.4-2.3,7.8-3.8,12.8-3.8c11.4,0,18.2,7.3,18.2,19.6c0,10.8-3.6,17.4-10.4,18.7L492.4,382.9z"/>
	<path fill="#FBE8E2" d="M544.6,320.3v60.2c-3.1,1.9-13.2,3.7-22.1,3.7c-19.2,0-26.8-5.3-26.8-18.6v-45.4h21.4v54.6h6.2v-54.6H544.6
		z"/>
</g>
</svg>
