<?xml version="1.0" encoding="utf-8"?>
<!-- Generator: Adobe Illustrator 19.2.1, SVG Export Plug-In . SVG Version: 6.00 Build 0)  -->
<svg version="1.1" id="Layer_1" xmlns="http://www.w3.org/2000/svg" xmlns:xlink="http://www.w3.org/1999/xlink" x="0px" y="0px"
	 viewBox="0 0 646.7 520.7" enable-background="new 0 0 646.7 520.7" xml:space="preserve">
<g>
	<path fill="#474A58" d="M223.9,85.2c-6.6,2.4-11.6,3.5-20.9,3.5c-18,0-25.9-9.6-25.9-42.6c0-30.6,8.3-42.8,25.8-42.8
		c8.3,0,14.5,1,20.5,4.3l-2,21.5l-13.1-15.8h-10.4v65.5h10.6l12.5-14.3L223.9,85.2z"/>
	<path fill="#474A58" d="M271.4,25.2l-15.5,62.2L245.8,114l-15.5-7.9l16.9-18.7h-8.6l-12.5-62.2h17.2l7.6,49.9l7.4-34.4V25.2H271.4z
		"/>
	<path fill="#474A58" d="M312.3,25.1l-2.5,18.1l-11-7.9c-1.2,1.4-2.5,3.5-4.4,7.2v44.9h-16.1V25.2h12.8l2.9,7.7
		c1.9-4.3,5.4-9.1,12-9.1C307.7,23.8,309.8,24.1,312.3,25.1z"/>
	<path fill="#474A58" d="M362.7,25.2v62.2h-13.1l-2-5.8c-2.3,4.4-6.2,7.1-12.7,7.1c-15,0-16.4-8-16.4-17.8V25.2h16.1v55.1h7.2
		l4.4-5.6V25.2H362.7z"/>
	<path fill="#474A58" d="M373.5,87.4V1h16.1v86.4H373.5z"/>
	<path fill="#474A58" d="M402.1,87.4V37.7l-3.6-12.5h19.7v62.2H402.1z M401.7,0h16.1l-0.6,15.4h-15.5V0z"/>
	<path fill="#474A58" d="M474.4,87.4h-17.5L449,58.6h-3.7v28.8h-16.1V1h16.1v49.7l7.3-1l4.7-9.1l0.6-15.4h15.2L461.9,50L474.4,87.4z
		"/>
	<path fill="#474A58" d="M137.6,231.4l-1.7-0.1v0.1h-14.9l-10.8-45.5l-10.2,45.5H83.5L65,147.8h18L94.8,211l9.8-49.1l-3.4-14h18.6
		l12.2,63.8l9.1-47.9l-1.4-16h17.6L137.6,231.4z"/>
	<path fill="#474A58" d="M199.1,186.4v43.6c-6.4,2.4-17.5,2.8-21.1,2.8c-13.8,0-22.8-4.4-22.8-19.3c0-15.6,10.3-19.7,27.4-19.7
		v-17.4h-7.1l-12.6,13l-2.2-20c4.6-0.7,11.2-1.4,18.7-1.4C194.9,167.8,199.1,173.9,199.1,186.4z M182.5,224.3v-22.8h-9.7v22.8H182.5
		z"/>
	<path fill="#474A58" d="M242.5,169.1l-2.5,18.1l-11-7.9c-1.2,1.4-2.5,3.5-4.4,7.2v44.9h-16.1v-62.2h12.8l2.9,7.7
		c1.9-4.3,5.4-9.1,12-9.1C238,167.8,240,168.1,242.5,169.1z"/>
	<path fill="#474A58" d="M284.4,216.4c0,11.4-7.2,16.3-21.8,16.3c-4.7,0-10.1-0.6-16.7-3.4l0.8-22l12.1,16.9h8.4v-4.4
		c-0.1-11.4-21.2-19-21.2-36.6c0-12,8.9-15.5,19.7-15.5c5.5,0,8,0.2,16,1.4l-0.7,20.4l-12.6-13.3h-5.5v5.4
		C262.8,191.5,284.4,198.2,284.4,216.4z"/>
	<path fill="#474A58" d="M330.1,169.2v7.1l-23.6,48h10.7l11.2-17.8l1.9,24.8h-42.1v-5.6l25.4-49.4h-11l-10.2,13.4l-1.8-20.5H330.1z"
		/>
	<path fill="#474A58" d="M379.6,186.4v43.6c-6.4,2.4-17.5,2.8-21.1,2.8c-13.8,0-22.8-4.4-22.8-19.3c0-15.6,10.3-19.7,27.4-19.7
		v-17.4h-7.1l-12.6,13l-2.2-20c4.6-0.7,11.2-1.4,18.7-1.4C375.4,167.8,379.6,173.9,379.6,186.4z M363,224.3v-22.8h-9.7v22.8H363z"/>
	<path fill="#474A58" d="M459.8,169.2l-15.7,62.2h-17.8l-5.3-26.3l-6.6,26.3h-17.9l-12.5-62.2h17.4l5.9,37.1l2,15.2l7.7-36.1
		l-3.2-16.2h17.3l6,37.1l1.9,15.1l7.9-37.1l-0.8-15.1H459.8z"/>
	<path fill="#474A58" d="M501,216.4c0,11.4-7.2,16.3-21.8,16.3c-4.7,0-10.1-0.6-16.7-3.4l0.8-22l12.1,16.9h8.4v-4.4
		c-0.1-11.4-21.2-19-21.2-36.6c0-12,8.9-15.5,19.7-15.5c5.5,0,8,0.2,16,1.4l-0.7,20.4l-12.6-13.3h-5.5v5.4
		C479.4,191.5,501,198.2,501,216.4z"/>
	<path fill="#474A58" d="M553.4,231.4h-17.5l-7.9-28.8h-3.7v28.8h-16.1V145h16.1v49.7l7.3-1l4.7-9.1l0.6-15.4h15.2L541,194
		L553.4,231.4z"/>
	<path fill="#474A58" d="M563,231.4v-49.7l-3.6-12.5h19.7v62.2H563z M562.7,144h16.1l-0.6,15.4h-15.5V144z"/>
	<path fill="#474A58" d="M43.9,330.4v43.6c-6.4,2.4-17.5,2.8-21.1,2.8C9,376.7,0,372.2,0,357.4c0-15.6,10.3-19.7,27.4-19.7v-17.4
		h-7.1l-12.6,13l-2.2-20c4.6-0.7,11.2-1.4,18.7-1.4C39.7,311.8,43.9,317.9,43.9,330.4z M27.4,368.3v-22.8h-9.7v22.8H27.4z"/>
	<path fill="#474A58" d="M132.1,329.6v45.7H116v-55.1h-7.7l-4.7,5.8v49.3H87.6v-62.2h12.8l2.2,5.6c2.6-4.6,7.2-7.1,14.9-7.1
		C130.8,311.8,132.1,319.7,132.1,329.6z"/>
	<path fill="#474A58" d="M143.2,375.4v-49.7l-3.6-12.5h19.7v62.2H143.2z M142.8,288h16.1l-0.6,15.4h-15.5V288z"/>
	<path fill="#474A58" d="M184.8,348.1v20.2h2.6c6.7,0,11.8-0.8,18-2.6l1.3,7.9c-3.2,1.4-9.6,3.1-16.9,3.1
		c-18.4,0-22.9-10.2-22.9-31.8c0-20.6,5.6-33.1,23-33.1c11.4,0,22.7,5,19,36.4H184.8z M184.8,320.3v20.2H195v-20.2H184.8z"/>
	<path fill="#474A58" d="M268.1,313.2v60.4L257.9,402l-15.6-7.9l9.8-15.2v-53.2l-3.8-12.5H268.1z M251.8,303.4l-0.2-15.4h16.1
		l-0.6,15.4H251.8z"/>
	<path fill="#474A58" d="M319,330.4v43.6c-6.4,2.4-17.5,2.8-21.1,2.8c-13.8,0-22.8-4.4-22.8-19.3c0-15.6,10.3-19.7,27.4-19.7v-17.4
		h-7.1l-12.6,13l-2.2-20c4.6-0.7,11.2-1.4,18.7-1.4C314.8,311.8,319,317.9,319,330.4z M302.4,368.3v-22.8h-9.7v22.8H302.4z"/>
	<path fill="#474A58" d="M373.3,375.4h-17.5l-7.9-28.8h-3.7v28.8h-16.1V289h16.1v49.7l7.3-1l4.7-9.1l0.6-15.4H372L360.8,338
		L373.3,375.4z"/>
	<path fill="#474A58" d="M382.9,375.4v-49.7l-3.6-12.5H399v62.2H382.9z M382.6,288h16.1l-0.6,15.4h-15.5V288z"/>
	<path fill="#474A58" d="M445,360.4c0,11.4-7.2,16.3-21.8,16.3c-4.7,0-10.1-0.6-16.7-3.4l0.8-22l12.1,16.9h8.4v-4.4
		c-0.1-11.4-21.2-19-21.2-36.6c0-12,8.9-15.5,19.7-15.5c5.5,0,8,0.2,16,1.4l-0.7,20.4l-12.6-13.3h-5.5v5.4
		C423.4,335.5,445,342.2,445,360.4z M420.8,290.8l0.5-9.4h14.8l-5.5,20.5h-10.7L420.8,290.8z"/>
	<path fill="#474A58" d="M505.6,323.5v44.8l12.5-1.9v9c-7.6,1.1-12.5,1.3-16.9,1.3c-11.4-0.4-11.5-8.9-11.5-14.6v-38.4l-9,0.6v-11
		l9,0.4v-17.3h16v17.3l12.6-0.4v11L505.6,323.5z"/>
	<path fill="#474A58" d="M565.4,330.4v43.6c-6.4,2.4-17.5,2.8-21.1,2.8c-13.8,0-22.8-4.4-22.8-19.3c0-15.6,10.3-19.7,27.4-19.7
		v-17.4h-7.1l-12.6,13l-2.2-20c4.6-0.7,11.2-1.4,18.7-1.4C561.2,311.8,565.4,317.9,565.4,330.4z M548.9,368.3v-22.8h-9.7v22.8H548.9
		z"/>
	<path fill="#474A58" d="M646.7,329.6v45.7h-16.1v-55.1h-7.3l-4.6,6.1v49h-16v-55.1h-7.4l-4.4,5.9v49.2h-16.1v-62.2h12.6l2.4,6.6
		c2-5.2,6.7-8,14.8-8c8.2,0,11.6,3.1,13.1,7.9c2-5,6.8-7.9,14-7.9C645.4,311.8,646.7,319.7,646.7,329.6z"/>
	<path fill="#474A58" d="M233.3,488.2c0,24.4-7.2,32.5-25.7,32.5c-5.9,0-14.8-1-19.1-3V433h15.8v26.8c1.9-1.8,4.8-3.6,10.4-3.6
		C227.4,456.1,233.3,465.8,233.3,488.2z M215.9,512.3v-48c-4.9,0-8.9,1.1-11.5,4.1v43.9H215.9z"/>
	<path fill="#474A58" d="M282.4,474.4v43.6c-6.4,2.4-17.5,2.8-21.1,2.8c-13.8,0-22.8-4.4-22.8-19.3c0-15.6,10.3-19.7,27.4-19.7
		v-17.4h-7.1l-12.6,13l-2.2-20c4.6-0.7,11.2-1.4,18.7-1.4C278.2,455.8,282.4,461.9,282.4,474.4z M265.8,512.3v-22.8h-9.7v22.8H265.8
		z"/>
	<path fill="#474A58" d="M325.8,457.1l-2.5,18.1l-11-7.9c-1.2,1.4-2.5,3.5-4.4,7.2v44.9h-16.1v-62.2h12.8l2.9,7.7
		c1.9-4.3,5.4-9.1,12-9.1C321.2,455.8,323.3,456.1,325.8,457.1z"/>
	<path fill="#474A58" d="M376.6,488.2c0,24.4-7.2,32.5-25.7,32.5c-5.9,0-14.8-1-19.1-3V433h15.8v26.8c1.9-1.8,4.8-3.6,10.4-3.6
		C370.7,456.1,376.6,465.8,376.6,488.2z M359.2,512.3v-48c-4.9,0-8.9,1.1-11.5,4.1v43.9H359.2z"/>
	<path fill="#474A58" d="M401.4,492.1v20.2h2.6c6.7,0,11.8-0.8,18-2.6l1.3,7.9c-3.2,1.4-9.6,3.1-16.9,3.1
		c-18.4,0-22.9-10.2-22.9-31.8c0-20.6,5.6-33.1,23-33.1c11.4,0,22.7,5,19,36.4H401.4z M401.4,464.3v20.2h10.2v-20.2H401.4z"/>
	<path fill="#474A58" d="M467.6,457.1l-2.5,18.1l-11-7.9c-1.2,1.4-2.5,3.5-4.4,7.2v44.9h-16.1v-62.2h12.8l2.9,7.7
		c1.9-4.3,5.4-9.1,12-9.1C463.1,455.8,465.1,456.1,467.6,457.1z"/>
</g>
</svg>
