<?xml version="1.0" encoding="utf-8"?>
<!-- Generator: Adobe Illustrator 19.2.1, SVG Export Plug-In . SVG Version: 6.00 Build 0)  -->
<svg version="1.1" id="Layer_1" xmlns="http://www.w3.org/2000/svg" xmlns:xlink="http://www.w3.org/1999/xlink" x="0px" y="0px"
	 viewBox="0 0 1064.4 535.8" enable-background="new 0 0 1064.4 535.8" xml:space="preserve">
<g>
	<path fill="#474A58" d="M234.9,71.3h-21.2L209,87.4h-12.2l23.8-77.9l-1-5.6h15.1l21.6,83.5h-17.4L234.9,71.3z M232.6,61.4l-7-28.4
		h-1.1l-8.2,28.4H232.6z"/>
	<path fill="#474A58" d="M307.4,56.2c0,24.4-7.2,32.5-25.7,32.5c-5.9,0-14.8-1-19.1-3V1h15.8v26.8c1.9-1.8,4.8-3.6,10.4-3.6
		C301.5,24.1,307.4,33.8,307.4,56.2z M290,80.3v-48c-4.9,0-8.9,1.1-11.5,4.1v43.9H290z"/>
	<path fill="#474A58" d="M352,86.2c-3.7,1.2-7.8,2.5-15,2.5c-20.2,0-22.7-12.7-22.7-32.6c0-20.8,4.6-31.9,20.8-31.9
		c4,0,9.5,0.6,16,2.4l-1.8,19.1l-11.5-13.3H332v48h4.2c5.9,0,9.2-1.2,14-2.8L352,86.2z"/>
	<path fill="#474A58" d="M389.1,87.4l-1.8-5.5c-2,3.8-6.1,6.8-13.3,6.8c-12.1,0-18.2-8.8-18.2-31.8c0-25.2,6-32.8,19.7-32.8
		c4.6,0,7.4,0.7,9.2,1.9V1h16.1v86.4H389.1z M384.7,73.8V32.3h-11.3v48C378.4,80.3,382,78.7,384.7,73.8z"/>
	<path fill="#474A58" d="M424.6,60.1v20.2h2.6c6.7,0,11.8-0.8,18-2.6l1.3,7.9c-3.2,1.4-9.6,3.1-16.9,3.1
		c-18.4,0-22.9-10.2-22.9-31.8c0-20.6,5.6-33.1,23-33.1c11.4,0,22.7,5,19,36.4H424.6z M424.6,32.3v20.2h10.2V32.3H424.6z"/>
	<path fill="#474A58" d="M478.1,7v18.6l13-0.4v11h-13v51.1h-17l1.1-12.2V36.2h-8.6v-11l8.6,0.2v-7.2c0-11.6,4.8-17.8,17-17.8
		c8.2,0,12.8,1,19.3,3.5l-4.9,12.8L481,7H478.1z"/>
	<path fill="#474A58" d="M517.5,113.6c-6.8-0.1-10.9-0.1-18-2.2l0.4-15.6l16.2,11.3h8V85.1c-2.4,2-5.5,3.6-10.6,3.6
		c-12.6,0-19.1-11-19.1-32.9c0-24.5,7.4-32,26.2-32c6.5,0,15.1,1.3,19.9,3.1v69C540.5,107.5,534.3,113.6,517.5,113.6z M524,76.4V32
		h-11.3v48.5C517.6,80.5,521.3,79.4,524,76.4z"/>
	<path fill="#474A58" d="M596.1,41.6v45.7h-16V32.3h-7.6l-4.8,6.2v48.8h-16V1h16v29c2.4-4,7-6.2,13.9-6.2
		C594.9,23.8,596.1,31.7,596.1,41.6z"/>
	<path fill="#474A58" d="M607.1,87.4V37.7l-3.6-12.5h19.7v62.2H607.1z M606.8,0h16.1l-0.6,15.4h-15.5V0z"/>
	<path fill="#474A58" d="M652.1,25.2v60.4L641.9,114l-15.6-7.9l9.8-15.2V37.7l-3.8-12.5H652.1z M635.8,15.4L635.6,0h16.1l-0.6,15.4
		H635.8z"/>
	<path fill="#474A58" d="M708.4,87.4h-17.5L683,58.6h-3.7v28.8h-16.1V1h16.1v49.7l7.3-1l4.7-9.1l0.6-15.4h15.2L695.9,50L708.4,87.4z
		"/>
	<path fill="#474A58" d="M713.9,87.4V1H730v86.4H713.9z"/>
	<path fill="#474A58" d="M811.5,41.6v45.7h-16.1V32.3h-7.3l-4.6,6.1v49h-16V32.3h-7.4l-4.4,5.9v49.2h-16.1V25.2h12.6l2.4,6.6
		c2-5.2,6.7-8,14.8-8c8.2,0,11.6,3.1,13.1,7.9c2-5,6.8-7.9,14-7.9C810.2,23.8,811.5,31.7,811.5,41.6z"/>
	<path fill="#474A58" d="M865.4,41.6v45.7h-16.1V32.3h-7.7l-4.7,5.8v49.3h-16.1V25.2h12.8l2.2,5.6c2.6-4.6,7.2-7.1,14.9-7.1
		C864.1,23.8,865.4,31.7,865.4,41.6z"/>
	<path fill="#474A58" d="M281,200.5c-0.1,15.2-4.4,32.2-22.6,32.2h-2.3c-18.1,0-22.4-16.9-22.6-32.2v-0.4c0-0.1,0-0.2,0-0.4
		c0.1-15.2,4.4-32,22.6-32h2.3c18.1,0,22.4,16.8,22.6,32v0.4V200.5z M263.4,176.3h-12.1v48h12.1V176.3z"/>
	<path fill="#474A58" d="M335.3,199.8c0,23.6-5.9,32.9-19.7,32.9c-4.9,0-8-1-10.3-2v25.1h-16.1v-73l-1.8-13.6h13.2l2.3,6.4
		c2-4.6,6.5-7.8,14-7.8C329.4,167.8,335.3,176.6,335.3,199.8z M316.9,224.3v-48.4c-4.9,0-7.9,0.8-11.6,6.6v41.8H316.9z"/>
	<path fill="#474A58" d="M387.1,255.7h-16V229c-1.9,1.7-4.8,3.5-10.3,3.5c-12.6,0-18.6-9.7-18.6-32c0-24.6,7.2-32.6,25.8-32.6
		c5.9,0,14.8,0.8,19.1,2.9V255.7z M371,220.4V176h-11.3v48.2C364.4,224.3,368.4,223.2,371,220.4z"/>
	<path fill="#474A58" d="M432.5,169.1l-2.5,18.1l-11-7.9c-1.2,1.4-2.5,3.5-4.4,7.2v44.9h-16.1v-62.2h12.8l2.9,7.7
		c1.9-4.3,5.4-9.1,12-9.1C427.9,167.8,430,168.1,432.5,169.1z"/>
	<path fill="#474A58" d="M474.4,216.4c0,11.4-7.2,16.3-21.8,16.3c-4.7,0-10.1-0.6-16.7-3.4l0.8-22l12.1,16.9h8.4v-4.4
		c-0.1-11.4-21.2-19-21.2-36.6c0-12,8.9-15.5,19.7-15.5c5.5,0,8,0.2,16,1.4l-0.7,20.4l-12.6-13.3h-5.5v5.4
		C452.8,191.5,474.4,198.2,474.4,216.4z"/>
	<path fill="#474A58" d="M502.6,179.5v44.8l12.5-1.9v9c-7.6,1.1-12.5,1.3-16.9,1.3c-11.4-0.4-11.5-8.9-11.5-14.6v-38.4l-9,0.6v-11
		l9,0.4v-17.3h16v17.3l12.6-0.4v11L502.6,179.5z"/>
	<path fill="#474A58" d="M566.5,169.2v62.2h-13.1l-2-5.8c-2.3,4.4-6.2,7.1-12.7,7.1c-15,0-16.4-8-16.4-17.8v-45.7h16.1v55.1h7.2
		l4.4-5.6v-49.4H566.5z"/>
	<path fill="#474A58" d="M616.6,169.2L601,231.4h-17.9l-12.5-62.2H588l5.9,37.1l2,15.2l7.9-37.2l-1-15.1H616.6z"/>
	<path fill="#474A58" d="M692,169.2l-15.7,62.2h-17.8l-5.3-26.3l-6.6,26.3h-17.9l-12.5-62.2h17.4l5.9,37.1l2,15.2l7.7-36.1
		l-3.2-16.2h17.3l6,37.1l1.9,15.1l7.9-37.1l-0.8-15.1H692z"/>
	<path fill="#474A58" d="M713.8,209.2l-7.6,15.5l1.8,6.7h-14l15.5-31.4l-14.8-30.7h16.6l10.1,21l6.5-13.9l-1.4-7.1h14l-14.8,30
		l15.4,32.2h-16.6L713.8,209.2z"/>
	<path fill="#474A58" d="M788.9,169.2l-15.5,62.2L763.3,258l-15.5-7.9l16.9-18.7h-8.6l-12.5-62.2h17.2l7.6,49.9l7.4-34.4v-15.5
		H788.9z"/>
	<path fill="#474A58" d="M834.5,169.2v7.1l-23.6,48h10.7l11.2-17.8l1.9,24.8h-42.1v-5.6l25.4-49.4h-11l-10.2,13.4l-1.8-20.5H834.5z"
		/>
	<path fill="#474A58" d="M360.1,330.4v43.6c-6.4,2.4-17.5,2.8-21.1,2.8c-13.8,0-22.8-4.4-22.8-19.3c0-15.6,10.3-19.7,27.4-19.7
		v-17.4h-7.1l-12.6,13l-2.2-20c4.6-0.7,11.2-1.4,18.7-1.4C355.9,311.8,360.1,317.9,360.1,330.4z M343.5,368.3v-22.8h-9.7v22.8H343.5
		z"/>
	<path fill="#474A58" d="M369.2,375.4V289h16.1v86.4H369.2z"/>
	<path fill="#474A58" d="M415.9,323.5v44.8l12.5-1.9v9c-7.6,1.1-12.5,1.3-16.9,1.3c-11.4-0.4-11.5-8.9-11.5-14.6v-38.4l-9,0.6v-11
		l9,0.4v-17.3h16v17.3l12.6-0.4v11L415.9,323.5z"/>
	<path fill="#474A58" d="M450.2,348.1v20.2h2.6c6.7,0,11.8-0.8,18-2.6l1.3,7.9c-3.2,1.4-9.6,3.1-16.9,3.1
		c-18.4,0-22.9-10.2-22.9-31.8c0-20.6,5.6-33.1,23-33.1c11.4,0,22.7,5,19,36.4H450.2z M450.2,320.3v20.2h10.2v-20.2H450.2z"/>
	<path fill="#474A58" d="M516.4,313.1l-2.5,18.1l-11-7.9c-1.2,1.4-2.5,3.5-4.4,7.2v44.9h-16.1v-62.2h12.8l2.9,7.7
		c1.9-4.3,5.4-9.1,12-9.1C511.9,311.8,513.9,312.1,516.4,313.1z"/>
	<path fill="#474A58" d="M566.9,329.6v45.7h-16.1v-55.1h-7.7l-4.7,5.8v49.3h-16.1v-62.2h12.8l2.2,5.6c2.6-4.6,7.2-7.1,14.9-7.1
		C565.6,311.8,566.9,319.7,566.9,329.6z"/>
	<path fill="#474A58" d="M617.8,330.4v43.6c-6.4,2.4-17.5,2.8-21.1,2.8c-13.8,0-22.8-4.4-22.8-19.3c0-15.6,10.3-19.7,27.4-19.7
		v-17.4h-7.1l-12.6,13l-2.2-20c4.6-0.7,11.2-1.4,18.7-1.4C613.6,311.8,617.8,317.9,617.8,330.4z M601.3,368.3v-22.8h-9.7v22.8H601.3
		z"/>
	<path fill="#474A58" d="M647.1,323.5v44.8l12.5-1.9v9c-7.6,1.1-12.5,1.3-16.9,1.3c-11.4-0.4-11.5-8.9-11.5-14.6v-38.4l-9,0.6v-11
		l9,0.4v-17.3h16v17.3l12.6-0.4v11L647.1,323.5z"/>
	<path fill="#474A58" d="M681.4,348.1v20.2h2.6c6.7,0,11.8-0.8,18-2.6l1.3,7.9c-3.2,1.4-9.6,3.1-16.9,3.1
		c-18.4,0-22.9-10.2-22.9-31.8c0-20.6,5.6-33.1,23-33.1c11.4,0,22.7,5,19,36.4H681.4z M681.4,320.3v20.2h10.2v-20.2H681.4z"/>
	<path fill="#474A58" d="M750.5,360.4c0,11.4-7.2,16.3-21.8,16.3c-4.7,0-10.1-0.6-16.7-3.4l0.8-22l12.1,16.9h8.4v-4.4
		c-0.1-11.4-21.2-19-21.2-36.6c0-12,8.9-15.5,19.7-15.5c5.5,0,8,0.2,16,1.4l-0.7,20.4l-12.6-13.3h-5.5v5.4
		C728.9,335.5,750.5,342.2,750.5,360.4z"/>
	<path fill="#474A58" d="M15.1,449.8l-0.2,0.2L1.8,464L0,452.8l17.3-16.9H31v37.8l0.1,45.7H14.8l0.1-50.4L15.1,449.8z"/>
	<path fill="#474A58" d="M69.1,508l13.1-7.2v18.6H39.6v-6.5l25.3-41.6v-28.8h-7.3L45,460.7l-3.5-20.9c5-2.8,10.8-5.4,18.2-5.4
		c10.8,0,23.9,3.4,23.9,19.6c0,18-11.9,31.4-28.6,54H69.1z"/>
	<path fill="#474A58" d="M138.2,496.7c0,16-7.2,24-24.7,24c-11.6,0-17.6-1.9-22.3-3.8l3.1-19.3l13.1,16.2h11.2v-18.5l-0.4-13.6H106
		l-6.6,0.6V473l6.6,0.6h12.5l0.1-31.2h-8.4l-13.3,17.6l-2.8-20.3c5-2.8,11-5.4,19.3-5.4c15.5,0,23,7.3,23,21.4
		c0,7.4-1.7,14.6-8.5,19.7C135.1,478.9,138.2,487.2,138.2,496.7z"/>
	<path fill="#474A58" d="M196.3,500.3l-9.2-0.5v19.6h-17.4v-19.7h-25.8v-7.2c7.6-17.8,15.1-36.8,23.4-56.6H187v55.7l9.4-0.8V500.3z
		 M169.8,491.6v-18.8l-0.1-23.3c-3.8,10.4-11.3,29.9-16.2,42.1H169.8z"/>
	<path fill="#474A58" d="M247.2,495.2c0,11.9-4.3,25.4-22.8,25.4c-11.5,0-18-2.3-22.7-4.2l3.4-19.1l12.6,16.3h9V479h-20.2v-43.2
		h36.7v8l-9.7-0.7h-10.8v27.7h3.5C243.8,470.9,247.2,484.1,247.2,495.2z"/>
	<path fill="#474A58" d="M304.3,494.2c0,20.2-11.2,26.6-25.1,26.6c-11.3,0-23.8-5.3-23.8-25.1c0-16.7,4-27,22.7-59.9H294l-17.8,33.2
		c1-0.1,2.2-0.1,3.4-0.1C289,469,304.3,469.8,304.3,494.2z M286.7,477h-12.6l0.1,35.6h12.5V477z"/>
	<path fill="#474A58" d="M346.9,441.2l-21,78.1h-16.1l21-76.3h-19.2l-7,0.8v-8.3l7.7,0.2h34.6V441.2z"/>
	<path fill="#474A58" d="M376.3,520.7c-15.4,0-25.6-5.2-25.6-22.9c0-12.6,2.5-17.6,11.2-22c-4.2-2.4-8.4-7.6-8.4-17.9
		c0-17.3,8.6-23.5,22.8-23.5c14.4,0,22.8,6.6,22.8,23.5c0,10.3-4.2,15.5-8.4,17.9c8.6,4.3,11.2,9.4,11.2,22
		C401.9,515.9,392.9,520.7,376.3,520.7z M382.9,481h-13.3v32.8h13.3V481z M371,472.7h10.7v-30.2H371V472.7z"/>
	<path fill="#474A58" d="M455.9,459.4c0,14.8-4,25.1-22.7,60h-15.8l17.8-33.2c-1.6,0.1-3.2,0.1-5.2,0.1c-7.6,0-22.9-1-22.9-25.2
		c0-20.2,12.1-26.6,23.3-26.6C443,434.4,455.9,439.9,455.9,459.4z M437.3,478.1l-0.1-35.6h-12.5v35.6H437.3z"/>
	<path fill="#474A58" d="M511.8,479.9c-0.2,26.2-3.8,40.8-23.4,40.8h-3c-19-0.2-22.7-14.9-22.9-40.8v-1.6c0-0.6,0-1.2,0-1.8
		c0.4-22.6,3.8-39.8,21.1-41.2v-0.1h4.8c19.4,0,23,17.8,23.4,41.3v1.8V479.9z M493.8,478.2c0-18.4-0.7-31.3-1.4-35.4h-10.4
		c-0.7,4.1-1.4,17-1.4,35.4c0,17.3,0.7,29.9,1.4,33.7h10.4C493.1,508.1,493.8,495.5,493.8,478.2z"/>
	<path fill="#474A58" d="M517.9,510.7c0-5.6,4.6-10.1,10.1-10.1c5.4,0,10,4.4,10,10.1c0,5.5-4.6,10.1-10,10.1
		C522.5,520.8,517.9,516.2,517.9,510.7z M520.7,490.7v-25.2l-1.4-30.4h16.3l-1.4,30.4v25.2H520.7z"/>
	<path fill="#474A58" d="M592.4,469.2v33.7h7.8v-45.7h-46.7v63.5h59.6v8.5h-72.6v-80.5h72.6v62.8h-20.8c-7.1,0-9.1-1.3-11.2-4.6
		c-1.7,2.5-4.7,4.7-9.4,4.7c-7.9,0-12.6-6.7-12.6-21.5c0-17.8,5.4-23,18.1-23C582.2,467,587.5,467.8,592.4,469.2z M579.8,475.6h-7.4
		v28.7c3.1,0,5.8-0.5,7.4-1.7V475.6z"/>
	<path fill="#474A58" d="M676.6,468l-1.6,20.8l13-0.4l-0.7,11.5l-13-0.5l-1.4,19.9h-14c-0.1,0,0.5-8.6,1.3-20.4H646l-1.4,20.4h-14
		l1.3-19.9l-14.4,0.5l0.7-11.5l14.5,0.4l1.4-20.8l-14.4,0.4l0.7-11.3l14.4,0.4l1.4-19.8h14.3l-1.4,20.3h14l1.4-20.3h14.2l-1.4,19.8
		l12.8-0.4l-0.7,11.3L676.6,468z M660.8,489.2l1.6-21.7h-14l-1.7,21.7H660.8z"/>
	<path fill="#474A58" d="M721.6,520.6l1.6,15.2h-13.6l1.6-15.1c-6.8-0.1-11-1.2-17-3.5l1.8-21.5l16.1,15h9c0.7-2.8,1.1-5.4,1.1-7.2
		c0-8.9-8.9-15.5-15-22c-9.5-10-11.9-18.6-11.9-25.2c0-10.3,5.5-18.6,15.7-20.6l-1.3-13.1h13.6l-1.3,12.7c4.8,0.2,9.2,1.3,14.4,3.8
		l-1.8,21.1l-14.2-15.1H713c-0.2,0.5-0.6,3-0.6,5.5c0,5.8,2.5,11,11.4,19.8c9.1,9,15.2,18,15.2,28.1
		C739.1,509.5,732.6,519.1,721.6,520.6z"/>
	<path fill="#474A58" d="M766.2,481.2h-4.7c-11.9,0-14.3-8.5-14.3-22v-1v-1.1c0-11.5,2.4-21.2,13.3-22.1h5.6
		c12.2,0,14.4,10.1,14.5,22.1v2C780.6,472.9,778.4,481.2,766.2,481.2z M807.7,434.5h14.6l-49,84.8h-14.8L807.7,434.5z M768.4,440.3
		h-8.6v35.2h8.6V440.3z M817.3,520.8h-4.7c-11.9,0-14.3-8.5-14.3-22v-1v-1.1c0-11.5,2.4-21.2,13.3-22.1h5.6
		c12.2,0,14.4,10.1,14.5,22.1v2C831.7,512.5,829.6,520.8,817.3,520.8z M819.5,479.9h-8.6V515h8.6V479.9z"/>
	<path fill="#474A58" d="M867.7,464.3v-14.8h-9.4v14.8h-18.7l16.8-31.3h13.2l16.8,31.3H867.7z"/>
	<path fill="#474A58" d="M937.3,478.1h-3.5c4.2,4.9,5.6,11.4,5.6,18.4c0,17.5-4.7,24.2-20.5,24.2c-17.3,0-24.5-8.2-24.5-24.2
		c0-12.1,3.1-21.1,10.4-24.7c-5.9-4.4-7.2-10.1-7.2-17.4c0-12.4,7-19.6,19.9-19.6c7.8,0,13.9,2.5,19,5l-2.8,20.3l-13.3-17.6h-6.6
		L914,470h23.3l8.4-0.6v9.2L937.3,478.1z M923.3,478.1H914v35.6h9.2V478.1z"/>
	<path fill="#474A58" d="M979.3,453.5c3.5,3.8,7.4,8.4,8.9,10.6l-9.5,6.4c-0.8-1-4.6-7.8-7.4-13.2c-2.8,5.4-6.5,12.2-7.3,13.2
		l-9.7-6.1c1.6-2.3,5.6-6.8,9.2-10.8c-5.2-1.9-11.5-4.4-12.5-5l5.5-10.1c2.2,1.4,6.7,4.6,10.8,7.6c-0.7-5.3-1.4-12.4-1.4-15.8h11.5
		c0,3.5-0.8,10.4-1.7,15.6c4-2.9,8.4-5.9,10.6-7.3l5.5,10.1C990.8,449,984.5,451.6,979.3,453.5z"/>
	<path fill="#474A58" d="M1019.4,438.8c-0.8,7.4-1.9,19.3-1.9,41.2c0,21.8,1.1,33.7,1.9,41.2c5,0.1,7.6,0,9.4,0v10.3
		c-24.2,1.6-28.1-16.2-28.4-51.4V480v-0.1c0.4-35.2,4.2-52.9,28.4-51.2v10.2C1027,438.8,1024.4,438.7,1019.4,438.8z"/>
	<path fill="#474A58" d="M1064.4,480.1c-0.4,35.2-4.1,52.9-28.4,51.4v-10.3c1.8,0,4.3,0.1,9.4,0c1-7.4,2-19.3,2-41.2
		c0-21.8-1.1-33.7-2-41.2c-5-0.1-7.6,0-9.4,0v-10.2c24.4-1.7,28.1,16.1,28.4,51.2v0.1V480.1z"/>
</g>
</svg>
