<svg width="120" height="121" viewBox="0 0 120 121" fill="none" xmlns="http://www.w3.org/2000/svg">
<rect x="41.5" y="42.5" width="77" height="77" stroke="black" stroke-width="3"/>
<rect x="1.5" y="1.5" width="77" height="77" stroke="black" stroke-width="3"/>
<path d="M92.002 108H104.964L105.484 105.728L96.5342 105.791C101.092 103.354 106.068 99.2656 106.995 95.2666C107.744 92.1436 106.005 89.8203 102.615 89.8203C99.0479 89.8203 96.3184 92.3848 95.4932 95.9268L97.918 96.3584C98.5273 94.1621 100.038 92.1309 102.45 92.1309C104.151 92.1309 104.85 93.1465 104.469 94.8984C103.618 98.9609 97.2451 103.087 92.4463 105.778L92.002 108Z" fill="black"/>
<path d="M58.4766 108.254C64.7734 108.254 69.2422 102.706 69.2422 96.6885C69.2422 92.6387 67.2109 89.7949 62.7168 89.7949C56.4199 89.7949 51.9766 95.3682 51.9766 101.386C51.9766 105.436 53.9951 108.254 58.4766 108.254ZM58.7178 105.931C55.7598 105.931 54.5664 104.09 54.5664 101.348C54.5664 96.917 57.6768 92.1309 62.4629 92.1309C65.459 92.1309 66.665 93.9844 66.665 96.7393C66.665 101.183 63.5039 105.931 58.7178 105.931Z" fill="black"/>
<path d="M97.2451 68H99.835L103.453 52.2959H109.293L109.813 50.0615H95.5312L95.0107 52.2959H100.851L97.2451 68Z" fill="black"/>
<path d="M59.1494 68.2031C62.8438 68.2031 65.9033 65.8291 65.9033 62.3379C65.9033 57.1328 59.0605 57.8945 59.0605 54.543C59.0605 52.9434 60.5967 52.0674 62.2344 52.0674C63.5674 52.0674 64.6846 52.6641 65.0527 53.959L67.3125 52.8672C66.6143 50.8994 64.9131 49.7949 62.4629 49.7949C59.2256 49.7949 56.4453 51.7119 56.4453 54.9111C56.4453 59.9258 63.3389 58.8467 63.3389 62.6172C63.3389 64.3438 61.8916 65.8418 59.3525 65.8418C57.1943 65.8418 55.9756 64.8262 55.9756 62.6299L53.373 63.0615C53.373 66.4258 55.9248 68.2031 59.1494 68.2031Z" fill="black"/>
<path d="M10.6182 68H13.4619L15.7471 64.1025H23.1992L23.6816 68H26.4111L23.6436 50.0615H21.6885L10.6182 68ZM17.1436 61.8301L21.8789 53.8574L22.8564 61.8301H17.1436Z" fill="black"/>
<path d="M57.2451 28H59.8223L63.9609 10.0615H61.3838L57.2451 28Z" fill="black"/>
<path d="M9.76758 28H12.2812L15.7471 13.1084L17.5879 26.4385H20.2285L28.2773 13.1084L24.8242 28H27.3252L31.4639 10.0615H27.6553L19.4668 23.6963L17.6514 10.0615H13.9062L9.76758 28Z" fill="black"/>
</svg>
