<?xml version="1.0" encoding="utf-8"?>
<!-- Generator: Adobe Illustrator 19.2.1, SVG Export Plug-In . SVG Version: 6.00 Build 0)  -->
<svg version="1.1" id="Layer_1" xmlns="http://www.w3.org/2000/svg" xmlns:xlink="http://www.w3.org/1999/xlink" x="0px" y="0px"
	 viewBox="0 0 638.5 402" enable-background="new 0 0 638.5 402" xml:space="preserve">
<g>
	<path fill="#474A58" d="M67.8,5.5l-3.6,16.3h-2l-2-12.5H28.3L22.6,44l26.3-0.8l5.5-9.5h2.3l-4.2,24.1h-2.3l-1.6-10.3l-26.4-1
		L16.3,82h33.8l8.3-12.5h2l-3.4,16.1h-5.4H20.4H5.8l-5.5,0.2L0,84l8.5-3.2l11.6-70.2L11,7.3l0.2-1.8l10.2,0.2h10.8h30.1L67.8,5.5z"
		/>
	<path fill="#474A58" d="M93.4,69.4c0,4.1-6.4,16.8-15.4,16.8c-6.5,0-4.2-11.6-2.4-22.4l9.6-58.1l-9.7,0.2l-0.2-1.7l16-4.2h1.6
		L83,59.4c-1.8,10.9-2.5,17-2.8,21.5c5.5-1.6,9.5-7.1,12.1-13L93.4,69.4z"/>
	<path fill="#474A58" d="M109.7,53c-0.7,3.2-1.1,6.5-1.1,9.6c0,9.8,2.8,18.6,10.7,18.6c6.8,0,11.4-6.2,14.6-13.3l1.1,1.4
		c-0.4,5.6-6.7,17-18.1,17c-8.3,0-15.5-6.1-15.5-20.2c0-16.3,10.2-35.6,23.8-35.6c8.3,0,13.1,5.2,12.2,11.5
		C136.1,53.5,122.5,57,109.7,53z M110.1,51.6c12.8,1.1,19.6-1.8,20.3-7.8c0.8-6.7-4.7-9-11.2-8.8C114.9,38.8,111.7,44.9,110.1,51.6z
		"/>
	<path fill="#474A58" d="M183.4,94.7c0,11.4-13.6,19.3-25.6,19.3c-15.6,0-25.8-8.5-22.6-16.7c3.1-4,11.9-11,14.9-12.4
		c-2.4-1.3-4-2.5-4-3.8c0-3,3.5-6.8,7.2-10.1c-4.6-1.9-7.1-6.4-7.1-13.7c0-11.9,7.8-26.8,18.7-26.8c4.3,0,7.8,1.2,10.1,3.7L185,28
		l1.6,4.8L176.3,36c1.4,2.4,2.2,5.4,2.2,9.4c0,11.9-7.7,26.8-18.8,26.8c-1.4,0-2.6-0.1-3.8-0.4l-3.7,7.1
		C164.2,84,183.4,88.3,183.4,94.7z M178.6,99c0-5.3-17.2-9.1-26.5-13.2c-3.1,2.4-9.4,9-12.2,12.8c4.3,6.2,14.2,10.6,24.2,10.6
		C171.9,109.2,178.6,103.3,178.6,99z M152.8,55.3c0,9.1,4.2,13,12.1,12.8c3.8-3.6,7.1-11,7.1-20.6c0-9.2-4.1-13.1-12.1-13
		C156.2,38.2,152.8,45.6,152.8,55.3z"/>
	<path fill="#474A58" d="M233.6,69.4c0,3.4-5.6,16.8-16.9,16.8c-1,0-1.8-0.1-2.8-0.4l4.2-25.8l-0.2-0.1c-3,10.3-14.8,26.5-23.2,26.5
		c-4.8,0-8.4-6.1-8.5-14.2c-0.2-19.4,10.8-41.6,23.6-41.6c2.6,0,8,1.2,12.7,6.4l5.3-6.1h1.8l-8,49.7c4.6-1.8,8.2-6.7,10.9-12.6
		L233.6,69.4z M219.7,50.9l1.7-10c-5.3-3.1-11.4-5.4-18.1-5.3c-6,6.2-10,18.5-9.8,33c0.1,5.5,1,9.5,2.6,12.4
		C204.9,77.5,215.6,64.7,219.7,50.9z"/>
	<path fill="#474A58" d="M277.3,57.6c1.9-11.3,2-18.6-0.1-22.2c-10.8,2.5-21.1,15.8-25.6,33.1l-2.6,15.6l-7.2,2.3l8.2-49.9h-8.2
		l-0.2-1.7l14.8-4h1.6l-4.7,28c4.9-15.5,13.9-28.2,24.7-28.2c7.4,0,9.2,7.2,6.7,22.7l-4.4,26.9h9.4l0.2,1.7l-17.3,4.6L277.3,57.6z"
		/>
	<path fill="#474A58" d="M329.7,67.9l1.1,1.4c0,4.8-6.5,17-18,17c-7.3,0-15.6-4.9-15.6-20.2c0-15.6,9-35.6,24.6-35.6
		c7.9,0,12.7,3.4,13.8,4.6l-5.3,11.6l-1.7,0.5l0.5-8.6c-3-2-8.5-3.8-14.2-3.6c-6.4,5.5-10.6,16.9-10.6,28.8
		c0,10.6,4.4,17.3,10.9,17.3C322.1,81.1,326.8,74.4,329.7,67.9z"/>
	<path fill="#474A58" d="M361,0L347,84.1l-7,2.3l13.3-80.8l-9.7,0.2l-0.2-1.7l16-4.2H361z M382.8,69.4c0,4.3-6.4,16.8-15.5,16.8
		c-1.7,0-3.7-0.8-5.2-6.8l-5.3-21.7c4.2-2.8,10.8-6.8,15.4-13.9c0.2-1.6,0.6-3.4,1-5.4l1.3-7.7c2.2-0.6,7.2,2.2,6.2,7.8
		c-1.4,9-10.6,14.4-17,17.3l5.8,25.2c5.5-1.6,9.6-7.1,12.2-13L382.8,69.4z"/>
	<path fill="#474A58" d="M412.8,69.4c0,3.4-5.8,16.8-15.4,16.8c-6.5,0-4.2-11.5-2.4-22.4l4.4-27.2l-9.7,0.2l-0.2-1.7l16-4.2h1.6
		l-4.7,28.6c-1.8,11-2.5,17.2-2.8,21.5c5.4-1.6,9.5-7.1,12.1-13L412.8,69.4z M400.7,12.8c0.4-3.5,3-6.4,5.9-6.4s5,2.9,4.7,6.4
		c-0.4,3.5-3,6.2-5.9,6.2C402.6,19.1,400.4,16.3,400.7,12.8z"/>
	<path fill="#474A58" d="M506.6,25.4c0,13.3-8.9,28.1-26,28.1c-4.2,0-11.2-0.5-15.2-0.8l-4.6,28l11.9,3.4l-0.4,1.8l-15.4-0.2h-2.4
		l-10.1,0.1l-0.2-1.7l8.5-3.1l11.6-70.3l-9-3.1l0.2-1.7c0,0,9-0.4,18.1-0.4C494.7,5.4,506.6,10.4,506.6,25.4z M498.5,27.2
		c0-12.5-9.4-18.4-25.9-18.7l-6.8,41.3l22.3-0.7C492.8,45.8,498.5,39.6,498.5,27.2z"/>
	<path fill="#474A58" d="M553.2,69.4c0,3.4-5.6,16.8-16.9,16.8c-1,0-1.8-0.1-2.8-0.4l4.2-25.8l-0.2-0.1c-3,10.3-14.8,26.5-23.2,26.5
		c-4.8,0-8.4-6.1-8.5-14.2c-0.2-19.4,10.8-41.6,23.6-41.6c2.6,0,8,1.2,12.7,6.4l5.3-6.1h1.8l-8,49.7c4.6-1.8,8.2-6.7,10.9-12.6
		L553.2,69.4z M539.3,50.9l1.7-10c-5.3-3.1-11.4-5.4-18.1-5.3c-6,6.2-10,18.5-9.8,33c0.1,5.5,1,9.5,2.6,12.4
		C524.5,77.5,535.2,64.7,539.3,50.9z"/>
	<path fill="#474A58" d="M596.9,57.6c1.9-11.3,2-18.6-0.1-22.2c-10.8,2.5-21.1,15.8-25.6,33.1l-2.6,15.6l-7.2,2.3l8.2-49.9h-8.2
		l-0.2-1.7l14.8-4h1.6l-4.7,28c4.9-15.5,13.9-28.2,24.7-28.2c7.4,0,9.2,7.2,6.7,22.7l-4.4,26.9h9.4l0.2,1.7l-17.3,4.6L596.9,57.6z"
		/>
	<path fill="#474A58" d="M627.9,80.9c-0.7,3.1-3.6,5.9-6.4,5.9c-2.5,0-4.1-2.8-3.4-5.9c0.7-3.2,3.6-5.9,6.4-5.9
		C627.2,75,628.6,77.6,627.9,80.9z M638.5,17.8c-0.7,4.8-5,23.3-11.5,48.5l-2.4,0.4c1.9-19,3.8-29,6.8-44.8l-3.8-11.8l1-1
		C633.4,8.8,639.3,12.4,638.5,17.8z"/>
	<path fill="#474A58" d="M77.8,183.1c-4,21.7,6,43.3,33.6,43.3c2.4,0,4.8-0.1,7.4-0.6l12.1-16.3l2.6,0.2l-6.4,17.4
		c-2.9,1.1-11.6,3.6-21.5,3.6c-27.1,0-40.7-20.3-36.4-44.6c3.8-21.1,18.7-37.6,40.8-37.6c13.4,0,24.1,3.2,28,4.8l-3.7,16.2h-1.9
		l-2.4-11.6c-5.4-2.2-14.5-5-28-5.6C92.3,155.4,80.8,166.4,77.8,183.1z"/>
	<path fill="#474A58" d="M177.4,201.6c1.9-11.3,2-18.6-0.1-22.2c-11.3,2.6-21.8,16.8-26,34.9l-0.1-0.2l-2.3,14l-7.1,2.3l13.3-80.8
		l-9.6,0.2l-0.2-1.7l16-4.2h1.6l-10.1,60.7c4.8-16.3,14-30.1,25.3-30.1c7.4,0,9.2,7.2,6.7,22.7l-4.4,26.9h9.4l0.2,1.7l-17.3,4.6
		L177.4,201.6z"/>
	<path fill="#474A58" d="M238.3,194.4c0,16-10,36-23.2,36c-10.9,0-18.2-6.1-18.2-19.8c0-16,10-36,23.8-36
		C231,174.6,238.3,180.7,238.3,194.4z M231.1,197.2c0-12.6-5.4-18.1-16.8-18.1c-4.9,4.9-10.2,15.2-10.2,28.8
		c0,13.2,6.5,18.1,16.9,18.1C226,221,231.1,210.7,231.1,197.2z"/>
	<path fill="#474A58" d="M278.9,211.9l1.1,1.4c0,4.8-6.5,17-18,17c-7.3,0-15.6-4.9-15.6-20.2c0-15.6,9-35.6,24.6-35.6
		c7.9,0,12.7,3.4,13.8,4.6l-5.3,11.6l-1.7,0.5l0.5-8.6c-3-2-8.5-3.8-14.2-3.6c-6.4,5.5-10.6,16.9-10.6,28.8
		c0,10.6,4.4,17.3,10.9,17.3C271.4,225.1,276.1,218.4,278.9,211.9z M269.8,167.4l-1.8-1.2l8.9-17.4l6.2,3.4l-0.5,1.8L269.8,167.4z"
		/>
	<path fill="#474A58" d="M328.4,203.4c-1.8,10.9-2.5,17-2.8,21.5c5.5-1.6,9.5-7.1,12.1-13l1.1,1.4c0,4.1-6.4,16.8-15.4,16.8
		c-6.5,0-4.2-11.6-2.4-22.4l4.6-27.6l-8.9-0.7l0.5-2.8l8.6-0.1l7.2-17.6h2.8l-3,17.6h12.2l-0.4,2.4l-12.5,1.3L328.4,203.4z"/>
	<path fill="#474A58" d="M391.2,176.6l-5.5,14.2l-1.8,0.5l-0.1-10.9c-8.8,4.4-17.6,16.8-21.6,32.5l-2.5,15.2l-7.2,2.3l8.3-49.9h-8.4
		l-0.2-1.7l14.8-4h1.6l-4.7,28.7c4.9-15.7,14.2-28.9,22.4-28.9C389.6,174.6,391.2,176.6,391.2,176.6z"/>
	<path fill="#474A58" d="M432.2,194.4c0,16-10,36-23.2,36c-10.9,0-18.2-6.1-18.2-19.8c0-16,10-36,23.8-36
		C424.8,174.6,432.2,180.7,432.2,194.4z M425,197.2c0-12.6-5.4-18.1-16.8-18.1c-4.9,4.9-10.2,15.2-10.2,28.8
		c0,13.2,6.5,18.1,16.9,18.1C419.8,221,425,210.7,425,197.2z"/>
	<path fill="#474A58" d="M472.6,211.9l1.1,1.4c0,4.8-6.5,17-18,17c-7.3,0-15.6-4.9-15.6-20.2c0-15.6,9-35.6,24.6-35.6
		c7.9,0,12.7,3.4,13.8,4.6l-5.3,11.6l-1.7,0.5l0.5-8.6c-3-2-8.5-3.8-14.2-3.6c-6.4,5.5-10.6,16.9-10.6,28.8
		c0,10.6,4.4,17.3,10.9,17.3C465.1,225.1,469.7,218.4,472.6,211.9z"/>
	<path fill="#474A58" d="M518.6,201.6c1.9-11.3,2-18.6-0.1-22.2c-11.3,2.6-21.8,16.8-26,34.9l-0.1-0.2l-2.3,14l-7.1,2.3l13.3-80.8
		l-9.6,0.2l-0.2-1.7l16-4.2h1.6l-10.1,60.7c4.8-16.3,14-30.1,25.3-30.1c7.4,0,9.2,7.2,6.7,22.7l-4.4,26.9h9.4l0.2,1.7l-17.3,4.6
		L518.6,201.6z"/>
	<path fill="#474A58" d="M547,197c-0.7,3.2-1.1,6.5-1.1,9.6c0,9.8,2.8,18.6,10.7,18.6c6.8,0,11.4-6.2,14.6-13.3l1.1,1.4
		c-0.2,3-2,7.6-5.5,11.3c-3.8,5.3-7.7,10.7-7.7,15.8c0,3.1,1.4,4.4,4.1,4.4c4,0,7-3.1,8.6-6.2l1.1,1.4c-0.5,2.4-4.1,9.7-12.7,9.7
		c-5.5,0-7.6-3.1-7.6-6.8c0-4.6,3-9.1,6.5-13.3c-1.6,0.5-3.1,0.7-4.9,0.7c-8.3,0-15.5-6.1-15.5-20.2c0-16.3,10.2-35.6,23.8-35.6
		c8.3,0,13.1,5.2,12.2,11.5C573.4,197.5,559.8,201,547,197z M547.3,195.6c12.8,1.1,19.6-1.8,20.3-7.8c0.8-6.7-4.7-9-11.2-8.8
		C552.1,182.8,549,188.9,547.3,195.6z"/>
	<path fill="#474A58" d="M14.7,341c-0.7,3.2-1.1,6.5-1.1,9.6c0,9.8,2.8,18.6,10.7,18.6c6.8,0,11.4-6.2,14.6-13.3l1.1,1.4
		c-0.4,5.6-6.7,17-18.1,17c-8.3,0-15.5-6.1-15.5-20.2c0-16.3,10.2-35.6,23.8-35.6c8.3,0,13.1,5.2,12.2,11.5
		C41.1,341.5,27.5,345,14.7,341z M15,339.6c12.8,1.1,19.6-1.8,20.3-7.8c0.8-6.7-4.7-9-11.2-8.8C19.8,326.8,16.7,332.9,15,339.6z"/>
	<path fill="#474A58" d="M75.7,342.8l5.6,26c5.5-1.6,9.5-7.1,12.1-13l1.1,1.4c0,4.1-6.4,16.8-15.2,16.8c-3.4,0-4.1-1.4-5.4-7.4
		l-3.5-16.2c-8.9,16.8-14.6,23.6-21.4,23.6c-0.6,0-1.2,0-1.8-0.1l2.8-16.9l1.8-0.5l1.4,10.9c4.8-2.8,10.6-11.5,16.6-19.8L64.9,324
		c-5.8,1.4-9.6,7.2-12.2,13l-1.1-1.4c0-4.2,6.5-16.8,15.2-16.8c3.7,0,4.3,2.3,5.4,7.6l2.9,13.3c6-12.2,12.8-20.9,20.2-20.9
		c0.7,0,1.3,0.1,2,0.2l-2.4,14.5l-1.8,0.5l-1.7-9.1C86.8,327.6,81.4,335.2,75.7,342.8z"/>
	<path fill="#474A58" d="M135.5,355.9l1.1,1.4c0,4.8-6.5,17-18,17c-7.3,0-15.6-4.9-15.6-20.2c0-15.6,9-35.6,24.6-35.6
		c7.9,0,12.7,3.4,13.8,4.6l-5.3,11.6l-1.7,0.5l0.5-8.6c-3-2-8.5-3.8-14.2-3.6c-6.4,5.5-10.6,16.9-10.6,28.8
		c0,10.6,4.4,17.3,10.9,17.3C127.9,369.1,132.6,362.4,135.5,355.9z"/>
	<path fill="#474A58" d="M153.7,341c-0.7,3.2-1.1,6.5-1.1,9.6c0,9.8,2.8,18.6,10.7,18.6c6.8,0,11.4-6.2,14.6-13.3l1.1,1.4
		c-0.4,5.6-6.7,17-18.1,17c-8.3,0-15.5-6.1-15.5-20.2c0-16.3,10.2-35.6,23.8-35.6c8.3,0,13.1,5.2,12.2,11.5
		C180.1,341.5,166.5,345,153.7,341z M154,339.6c12.8,1.1,19.6-1.8,20.3-7.8c0.8-6.7-4.7-9-11.2-8.8
		C158.8,326.8,155.7,332.9,154,339.6z"/>
	<path fill="#474A58" d="M225.2,345.6c1.9-11.3,2-18.6-0.1-22.2c-10.8,2.5-21.1,15.8-25.6,33.1l-2.6,15.6l-7.2,2.3l8.2-49.9h-8.2
		l-0.2-1.7l14.8-4h1.6l-4.7,28c4.9-15.5,13.9-28.2,24.7-28.2c7.4,0,9.2,7.2,6.7,22.7l-4.4,26.9h9.4l0.2,1.7l-17.3,4.6L225.2,345.6z"
		/>
	<path fill="#474A58" d="M257.1,347.4c-1.8,10.9-2.5,17-2.8,21.5c5.5-1.6,9.5-7.1,12.1-13l1.1,1.4c0,4.1-6.4,16.8-15.4,16.8
		c-6.5,0-4.2-11.6-2.4-22.4l4.6-27.6l-8.9-0.7l0.5-2.8l8.6-0.1l7.2-17.6h2.8l-3,17.6h12.2l-0.4,2.4l-12.5,1.3L257.1,347.4z"/>
	<path fill="#474A58" d="M319.9,320.6l-5.5,14.2l-1.8,0.5l-0.1-10.9c-8.8,4.4-17.6,16.8-21.6,32.5l-2.5,15.2l-7.2,2.3l8.3-49.9h-8.4
		l-0.2-1.7l14.8-4h1.6l-4.7,28.7c4.9-15.7,14.2-28.9,22.4-28.9C318.4,318.6,319.9,320.6,319.9,320.6z"/>
	<path fill="#474A58" d="M347.9,357.4c0,3.4-5.8,16.8-15.4,16.8c-6.5,0-4.2-11.5-2.4-22.4l4.4-27.2l-9.7,0.2l-0.2-1.7l16-4.2h1.6
		l-4.7,28.6c-1.8,11-2.5,17.2-2.8,21.5c5.4-1.6,9.5-7.1,12.1-13L347.9,357.4z M335.7,300.8c0.4-3.5,3-6.4,5.9-6.4s5,2.9,4.7,6.4
		c-0.4,3.5-3,6.2-5.9,6.2C337.7,307.1,335.4,304.3,335.7,300.8z"/>
	<path fill="#474A58" d="M396.8,396.1l0.2,1.7l-17.2,4.2h-1.1l8.9-54l-0.4-0.1c-3,10.3-14.8,26.5-23.2,26.5c-4.8,0-8.4-6.1-8.5-14.2
		c-0.2-19.4,10.8-41.6,23.6-41.6c2.6,0,8,1.2,12.7,6.4l5.3-6.1h1.8l-12.6,77.4L396.8,396.1z M389.1,338.8l1.7-9.8
		c-5.3-3.1-11.4-5.4-18.1-5.3c-6,6.2-10,18.5-9.8,33c0.1,5.5,1,9.5,2.6,12.4C374.3,365.4,385.1,352.6,389.1,338.8z"/>
	<path fill="#474A58" d="M457.5,357.4c0,3.4-5.6,16.8-16.9,16.8c-1,0-1.8-0.1-2.8-0.4l4.6-27.2c-5,15.2-14,27.8-24.4,27.8
		c-7.2,0-8.6-7.2-6.5-20.3l4.9-29.6h-8.4l-0.2-1.7l14.8-4h1.6l-4.7,28.6c-1.9,11.9-2.3,18.5-0.6,21.8c10.6-2.4,20.5-15.2,25.1-32
		l2.6-16.1l7.1-2.3l-8.2,49.7c4.6-1.9,8.2-6.7,10.9-12.6L457.5,357.4z"/>
	<path fill="#474A58" d="M473.7,341c-0.7,3.2-1.1,6.5-1.1,9.6c0,9.8,2.8,18.6,10.7,18.6c6.8,0,11.4-6.2,14.6-13.3l1.1,1.4
		c-0.4,5.6-6.7,17-18.1,17c-8.3,0-15.5-6.1-15.5-20.2c0-16.3,10.2-35.6,23.8-35.6c8.3,0,13.1,5.2,12.2,11.5
		C500.1,341.5,486.5,345,473.7,341z M474.1,339.6c12.8,1.1,19.6-1.8,20.3-7.8c0.8-6.7-4.7-9-11.2-8.8
		C478.9,326.8,475.7,332.9,474.1,339.6z"/>
	<path fill="#474A58" d="M520.6,368.9c-0.7,3.1-3.6,5.9-6.4,5.9c-2.5,0-4.1-2.8-3.4-5.9c0.7-3.2,3.6-5.9,6.4-5.9
		C519.9,363,521.3,365.6,520.6,368.9z M547.8,316.6c-1.9,12.6-22.4,22.6-29.8,29.4c1,4.4,4,6.2,5.6,7.9l-0.7,1
		c-2.8,0.4-10.1-3.5-9.4-10.3c1.1-9.5,28.9-20.9,30.5-30.8c1.3-8.2-9.7-9.2-14.2-9.2c-3.6,0-6.4,0.6-8,1.1l-4,9.2l-1.6-0.5l2.6-17
		C542.7,297.2,549.4,306.4,547.8,316.6z"/>
	<path fill="#474A58" d="M595.6,327.5l-3.8,23.6h14.8v3.6h-15.4l-3.4,20l-4.3-0.8l3.2-19.2h-19.1l-3.2,20l-4.3-0.8l3.2-19.2h-13.8
		v-3.6h14.4l3.8-23.6H555v-3.6h13.3l3.1-18.6l4.2,0.8l-2.9,17.8h19l3.1-18.6l4.3,0.8l-3,17.8H612v3.6H595.6z M591.1,327.5h-19
		l-4,23.6h19.1L591.1,327.5z"/>
	<path fill="#474A58" d="M624.4,368.9c-0.7,3.1-3.6,5.9-6.4,5.9c-2.5,0-4.1-2.8-3.4-5.9c0.7-3.2,3.6-5.9,6.4-5.9
		C623.7,363,625.1,365.6,624.4,368.9z M634.9,305.8c-0.7,4.8-5,23.3-11.5,48.5l-2.4,0.4c1.9-19,3.8-29,6.8-44.8l-3.8-11.8l1-1
		C629.9,296.8,635.8,300.4,634.9,305.8z"/>
</g>
</svg>
