<?xml version="1.0" encoding="utf-8"?>
<!-- Generator: Adobe Illustrator 19.2.1, SVG Export Plug-In . SVG Version: 6.00 Build 0)  -->
<svg version="1.1" id="Layer_1" xmlns="http://www.w3.org/2000/svg" xmlns:xlink="http://www.w3.org/1999/xlink" x="0px" y="0px"
	 viewBox="0 0 925.4 524.3" enable-background="new 0 0 925.4 524.3" xml:space="preserve">
<g>
	<path fill="#474A58" d="M92.8,90.4c-11,0.7-23.5,0.2-37.4-0.5c-2.4-5.4-4.9-11.4-7.4-18.1l-21.1,0.8c-1.7,6.4-3.2,12.2-4.3,17.3
		c-5,0.6-9.6,0.6-15.5,0c1.4-4.8,3.4-10.4,5.6-16.8c-8.8,0-13.2-4.2-12.6-12.4c2.4-0.2,5-0.4,17,0.2c4.7-12.4,10-25.7,14.9-37.8
		c-3.4-6.5-8.4-9.4-13.2-10C21.7,5.4,31.1,0,42.8,0s20.4,5.2,23.8,15.6C79.6,57,86,74.9,92.8,90.4z M44.6,62.5
		c-2.5-7.4-5.2-15.6-7.9-24.6c-2.3,7.9-4.7,16-6.8,23.8C34.1,61.9,38.9,62.2,44.6,62.5z"/>
	<path fill="#474A58" d="M189.5,64.4c0,16.9-18.7,27.8-55.6,27.8c-6.4,0-13.3-0.4-20.6-1.1c-4.3,0-8.5-0.5-12.6-1.3
		c-0.4-7.9-0.6-22.2-0.6-38.6c0-31.1-0.7-39.7-1.9-42.8c14.4-5.3,28.8-8,41.3-8c27.4,0,41,10.1,41,23.3c0,8.5-6.4,15.2-16.6,19
		C181.8,45.7,189.5,53.6,189.5,64.4z M139.1,12.1c-0.8,0-1.7,0-2.5,0.1c-0.2,9.7-0.4,19.7-0.5,29.2c2.6-0.1,5.3-0.2,8.4-0.2h1.3
		c4.2-3.4,6.6-9.1,6.6-14.8C152.5,19.2,148.1,12.1,139.1,12.1z M153.4,66c0-11.2-6.1-15.5-17.3-15c0,12.2,0.1,23.3,0.4,31.2
		C148,83.3,153.4,78.6,153.4,66z"/>
	<path fill="#474A58" d="M272.6,67.2c2.5,1.7,4.7,4.7,5.5,7.9c-7.6,9.6-20.4,17.2-38.8,17.2c-28.7,0-45.6-19.6-45.6-47.4
		c0-28.4,19.1-44.8,48.1-44.8c23.6,0,35.3,10.4,35.4,21.1c0,11.5-13.8,20.5-27.8,16.8c2.8-17.2-2.9-26.6-9.2-26.6
		c-5.5,0-10.7,6.6-10.7,24.1c0,27.7,7.9,39.5,23,39.5C259.6,75,267,71.9,272.6,67.2z"/>
	<path fill="#474A58" d="M376.5,47.4c0,26.2-15.7,45-50.9,45c-13.8,0-27.8-1-40.1-2.5c-0.4-7.9-0.6-22.2-0.6-38.6
		c0-31.1-0.7-39.7-1.9-42.8C295.5,4,313.6,0,329,0C358,0,376.5,19,376.5,47.4z M340.8,48.6c0-27.8-8.6-38-17.2-38
		c-0.7,0-1.6,0-2.3,0.1c-0.6,26-0.6,55.1-0.1,71.3c1.2,0.1,2.3,0.1,3.4,0.1C335.3,82.1,340.8,75.6,340.8,48.6z"/>
	<path fill="#474A58" d="M455.4,90.1c-23.5,1.1-46.6,0.6-69.5-0.6c-0.7-14.2-0.8-50.6-0.1-85.6c28.1-3.6,51.6-4.1,70.3-2.2
		c1,5,0,11.3-1.9,14.9c-10.4-1.6-20.4-2.6-32.5-3.1c-0.2,10-0.2,19.7-0.4,28.8l26-1.1c0.8,5-0.1,11.3-2,14.9l-24-2.9
		c0,8.8,0.1,16.7,0.2,23.3c14.8-0.4,27.4-2,35.9-4.2C458.9,77,458.6,85.8,455.4,90.1z"/>
	<path fill="#474A58" d="M500.9,13.6c-0.2,10.7-0.4,21.4-0.4,31.2l26-1.1c0.8,5-0.1,11.3-2,14.9l-24-2.9c0,14.3,0.2,26.2,0.6,32.9
		c-10.9,2.8-24,3.5-36,1c-0.7-14.2-0.8-50.6-0.1-85.6c28.1-3.6,51.6-4.1,70.3-2.2c1,5,0,11.3-1.9,14.9C523,15.1,513,14,500.9,13.6z"
		/>
	<path fill="#474A58" d="M625,82.4c-15.6,7.6-27.5,9.8-39.7,9.8c-33.4,0-49.3-19.6-49.3-47.4c0-28.4,19.3-44.8,48.7-44.8
		c23.4,0,35.2,10.4,35.2,21.1c0,11.5-13.8,20.5-27.8,16.8c2.8-17.4-2.9-26.9-9.2-26.9c-6,0-11.6,6.6-11.6,24.4
		c0,30.6,8.2,43.4,19.8,43.4c4.8,0,7-2,6.8-7.3c0-4.1-0.1-8.5-0.5-13.6l-9-0.4c-1.3-3.6-1.7-6.8-1.2-9.8c11-3,22.7-4.6,36.5-5
		C623.6,64.4,623.9,76.6,625,82.4z"/>
	<path fill="#474A58" d="M725.3,88.6c-10.9,2.9-24,3.7-36,1.3c-0.4-7.3-0.6-20.3-0.6-36h-16.9c0,15.1,0.2,27.6,0.6,34.7
		c-10.9,2.9-24,3.7-36,1.3c-0.7-14.5-0.8-51-0.1-87.5c6.2-1.3,13.2-2,20.3-2c5.4,0,10.8,0.4,15.8,1.1c-0.4,13.4-0.5,27.2-0.6,39.8
		h16.9c0.1-12.2,0.2-25.6,0.5-38.9c6.2-1.3,13.2-2,20.3-2c5.4,0,10.8,0.4,15.8,1.1C724.5,37,724.6,74.2,725.3,88.6z"/>
	<path fill="#474A58" d="M774.8,88.6c-10.9,2.9-24,3.7-36,1.3c-0.7-14.5-0.8-51-0.1-87.5c6.2-1.3,13.2-2,20.3-2
		c5.4,0,10.8,0.4,15.8,1.1C773.9,37,774,74.2,774.8,88.6z"/>
	<path fill="#474A58" d="M824.2,1.4c-0.4,26.6-0.6,53.9-0.6,76.9c0,25.1-10.8,36.6-27,36.6c-4,0-8.2-0.6-12.2-1.7
		c2.2-8.2,3.2-15.5,3.2-34.6c0-18.8,0.1-47.6,0.5-76.3c6.2-1.3,13.2-2,20.3-2C813.8,0.4,819.2,0.7,824.2,1.4z"/>
	<path fill="#474A58" d="M904.6,92.2c-18.4-0.1-28.3-19.7-28.9-37.3c-0.8,0-1.7-0.1-2.6-0.1c0,14.8,0.2,26.9,0.6,33.8
		c-10.9,2.9-24,3.7-36,1.3c-0.7-14.5-0.8-51-0.1-87.5c6.2-1.3,13.2-2,20.3-2c5.4,0,10.8,0.4,15.8,1.1c-0.4,14.9-0.5,30.1-0.6,43.8
		c13.6-0.6,18.4-12,16.3-42.8c6.8-1.7,26.4-3.1,32.5,1.1c2.9,28.9-10.4,46.1-34.1,50.3c4.8,6.8,24.4,6.7,35,0.8
		C929.4,73.1,923.6,92.3,904.6,92.2z"/>
	<path fill="#474A58" d="M162.1,232.6c-10.6,2.9-23.2,3.7-34.8,1.3c-0.7-15.6-0.8-54.2-0.1-87.5c6.2-1.4,12.6-2,19.2-2
		c5.2,0,10.4,0.4,15.7,1.1C161.3,178.4,161.4,217.6,162.1,232.6z"/>
	<path fill="#474A58" d="M302.4,232.6c-10.9,2.9-24.6,3.5-36.2,1.3c-0.5-13.2-0.5-34.4-0.5-44.8c0-6.5-2.4-9.1-5.9-9.1
		c-2.4,0-4.9,1.7-6.2,4.1v2.6c0,11.8,0,35.6,1.9,45.8c-10.9,2.9-24.6,3.5-36.2,1.3c-0.5-13.2-0.5-34.4-0.5-44.8
		c0-6.5-2.4-9.1-5.9-9.1c-2.3,0-4.7,1.4-6.1,3.7c-0.1,19.8,0.1,40.1,0.6,48.8c-10.6,2.9-23.2,3.7-34.8,1.3
		c-0.6-12.5-1.1-43.3-0.4-69.8c11.2-2.5,22.8-2.4,34.9-1c-0.1,4.4-0.2,9.1-0.2,14c4.3-10.4,15.5-17.6,27-17.6
		c10.8,0,17.4,6.1,19.2,19.4c3.8-11.4,15.6-19.4,27.7-19.4c12.7,0,19.7,8.5,19.7,27.2C300.5,198.5,300.5,222.4,302.4,232.6z"/>
	<path fill="#474A58" d="M394.5,232.6c-10.9,2.9-24.6,3.5-36.2,1.3c-0.5-13.2-0.5-34.4-0.5-44.8c0-6.5-2.4-9.1-5.9-9.1
		c-2.3,0-4.7,1.4-6.1,3.7c-0.1,19.8,0.1,40.1,0.6,48.8c-10.6,2.9-23.2,3.7-34.8,1.3c-0.6-12.5-1.1-43.3-0.4-69.8
		c11.2-2.5,22.8-2.4,34.9-1c-0.1,4.4-0.2,9.1-0.2,14c4.3-10.4,15.5-17.6,27-17.6c12.7,0,19.7,8.5,19.7,27.2
		C392.6,198.5,392.6,222.4,394.5,232.6z"/>
	<path fill="#474A58" d="M441.3,159.5c26.3,0,40.7,14.2,40.7,38.2c0,21-12.7,38.6-41.9,38.6c-26.3,0-40.7-14.2-40.7-38.2
		C399.5,177.1,412.1,159.5,441.3,159.5z M447.6,209.2c0-26.5-3.8-39.5-8.9-39.5c-3.2,0-4.8,5.4-4.8,16.4c0,15.1,2.3,39.8,8.9,39.8
		C446.1,226,447.6,220.4,447.6,209.2z"/>
	<path fill="#474A58" d="M573.1,196.9c0,24.7-13.7,39.4-30.7,39.4c-7.1,0-12.6-2.5-17.9-7.9c0.2,11.3,0.7,20.8,1.4,26.5
		c-11.8,3.1-24.4,4-36,1.6c-0.5-16.6-1-57.4-0.4-92.4c11.2-2.5,22.8-2.4,34.9-1c-0.1,4.7-0.1,9.6-0.2,14.6
		c2.3-9.8,11.3-18.2,22.4-18.2C561.8,159.5,573.1,174.5,573.1,196.9z M538.5,199.9c0-14.5-4.4-20.9-8.6-20.9c-2,0-4.2,1.2-5.6,3
		c-0.1,13-0.1,26.5,0.1,38.6c1.1,0.5,2.2,0.7,3.4,0.7C533.9,221.4,538.5,214.9,538.5,199.9z"/>
	<path fill="#474A58" d="M662,254.9c-11.8,3.1-24.4,4-36,1.6c-0.2-8.2-0.5-22-0.6-38.2c-2.4,9.8-11.3,18-22.3,18
		c-15.1,0-26.4-15-26.4-37.4c0-24.7,13.7-39.4,30.7-39.4c8,0,14.2,3.2,20,10.3c0.8-3.2,2-5.2,3.6-6.6c8.8-1.4,19.2-1.6,29.5-0.1
		C660,195,660.1,239.2,662,254.9z M625.4,213.8v-9.7c0-13.6,0.2-22.4,1-28.6c-1.3-0.8-2.9-1.2-4.3-1.2c-6.1,0-10.8,6.5-10.8,21.5
		c0,14.5,4.4,20.9,8.6,20.9C621.8,216.7,624,215.5,625.4,213.8z"/>
	<path fill="#474A58" d="M737.5,175.9c0,5.5-1.4,12.2-4.8,19.6c-7-3.8-20.3-3.5-27.8,1.2c0,15.6,0.1,28.7,0.6,35.9
		c-10.6,2.9-23.2,3.7-34.8,1.3c-0.6-12.5-1.1-43.3-0.4-69.8c11.2-2.5,22.8-2.4,34.9-1c-0.2,9.1-0.4,18-0.4,26.4
		c3.6-19.9,11.9-30,21.4-30C732.8,159.5,737.5,165.8,737.5,175.9z"/>
	<path fill="#474A58" d="M770.1,228.1c2.2,0,3.5-1.2,3.5-3.2c0-10-33-24.6-33-44.8c0-12.4,12.5-20.6,33.6-20.6
		c20.5,0,27.5,7.2,27.5,13.7c0,6.1-6.2,11.9-11.5,13.6c-5-12.8-13.6-19.9-17.9-19.9c-1.7,0-2.5,1.1-2.5,2.4c0,8.4,35.9,27,35.9,44.6
		c0,15-17.3,22.4-37.3,22.4c-16.2,0-29-5.9-29-15.2c0-6.2,5.8-12.5,12-14.4C759,223.1,765.9,228.1,770.1,228.1z"/>
	<path fill="#474A58" d="M164,366.8c-4.7,7.3-13.7,13.6-27.4,13.6c-18.5,0-27.8-11.5-27.8-31.4v-27.7c-2.3,0.2-4.6,0.4-6.7,0.6
		c-1.2-3-1.4-6.2-1-9.7l9.7-0.7c2-8,4.7-15.8,7.1-21c7.8-2.5,18.2-2.5,26.2-1c-0.2,6.8-0.4,14-0.5,21.1c5.9-0.1,11.9-0.2,18.1-0.5
		c0.8,3.1,1,6.4,0,9.8c-6.2-0.2-12.4-0.4-18.1-0.2c-0.1,12-0.1,23.8,0,33.8c0.1,8.2,2.8,11.6,7.7,11.6c2.8,0,5.4-1.1,7.9-3.5
		C161.2,362.5,163.5,364.7,164,366.8z"/>
	<path fill="#474A58" d="M252.5,377.3c-11.2,2.5-22.8,2.4-34.9,1c0.1-4.4,0.2-9.1,0.2-14c-4.3,10.4-15.5,17.6-27,17.6
		c-12.7,0-19.7-8.5-19.7-27.2c0-11.8,0-35.6-1.9-45.8c10.9-2.9,24.6-3.5,36.2-1.3c0.5,13.2,0.5,34.4,0.5,44.8c0,6.5,2.4,9.1,5.9,9.1
		c2.3,0,4.7-1.4,6.1-3.7c0.1-19.8-0.1-40.1-0.6-48.8c10.6-2.9,23.2-3.7,34.8-1.3C252.8,319.9,253.2,350.8,252.5,377.3z"/>
	<path fill="#474A58" d="M329.9,312.8c0,8.5-7.3,33.2-19,65c-10.2,1.6-20.2,1.9-30.1,1.6l-22.2-70.7c10.8-2.3,23-3.2,36.1-2.9
		c3.1,7.4,9.2,33.5,13.7,59.4c4.6-20.4,6.4-49,2.9-57.8c3.4-1.9,6.5-3,9.8-3C326.8,304.4,329.9,307.3,329.9,312.8z"/>
	<path fill="#474A58" d="M449.7,312.8c0,8.5-7.2,33.2-18.8,65c-10.2,1.6-20.2,1.9-30.1,1.6l-10.8-40.9l-10.4,39.4
		c-10.2,1.6-20.2,1.9-30.1,1.6l-18.6-70.7c10.8-2.3,23-3.2,36.1-2.9c2.3,7.4,6.6,33.1,10,58.9c1.9-23.6,4.2-48.1,5.3-56
		c10.8-2.3,23-3.2,36.1-2.9c2.3,7.4,6.7,33.8,10.1,59.9c4.7-20.4,6.5-49.3,2.9-58.3c3.4-1.9,6.4-3,9.7-3
		C446.7,304.4,449.7,307.3,449.7,312.8z"/>
	<path fill="#474A58" d="M530.6,374.6c-11.5,2.3-24.5,3.2-38.4,2.9c-2.9-3.1-7.6-12.5-11.9-23.2c-4.2,10.4-8.5,19.9-10.2,22.1
		c-5.3,1.4-11.3,1.8-18.7,1.3l23.8-32.4L449,308.8c11.5-2.3,24.5-3.2,38.4-2.9c2.8,3,7.1,11.6,11.3,21.7c4-9.8,8-18.6,9.6-20.6
		c5.3-1.4,11.3-1.8,18.7-1.3l-23.3,31.6L530.6,374.6z"/>
	<path fill="#474A58" d="M602.4,315.8c-0.4,10.7-8.5,39.5-16.7,57.4c-8.6,18.1-19.7,29.8-33.6,29.9c-15.2,0.1-24.4-14.3-19.2-30.1
		c16.6,5.3,35.5,4.6,42.1,0.7c-8.6-0.4-16.4-1.2-24-2.6l-20.6-62.3c10.9-2.3,23.2-3.2,36.2-2.9l13.8,61c6.6-23.4,5.5-49.9,1.3-59.4
		c3.4-1.8,6.7-2.5,9.7-2.5C600.3,304.9,602.7,309.5,602.4,315.8z"/>
	<path fill="#474A58" d="M674.9,377.9h-66.5c-1.8-1.9-3.4-5.3-4-7.7c10-19.8,20.8-39.1,31.8-58.2l-27.7,11.6
		c-2.3-4.4-3.6-12.7-2.8-17.8c22.1-0.7,43.9-0.6,65.6,0c2,2,3.5,4.7,4,7.7c-9.5,19-19.7,37.4-30.4,55.7l30.8-8.6
		C677.7,365.2,677,373.4,674.9,377.9z"/>
	<path fill="#474A58" d="M750.3,377.9h-66.5c-1.8-1.9-3.4-5.3-4-7.7c4.3-8.6,8.9-17.3,13.4-25.7c-3.5-0.8-7.1-1.7-10.7-2.4
		c-0.1-3.2,0.5-6.5,2.4-9.6c4.4,1.4,8.8,2.6,12.8,3.7c4.6-8.2,9.1-16.2,13.8-24.2l-27.7,11.6c-2.3-4.4-3.6-12.7-2.8-17.8
		c22.1-0.7,43.9-0.6,65.6,0c2,2,3.5,4.7,4,7.7c-4.9,9.7-10,19.3-15.1,28.8c3.5,0.6,6.7,1.1,9.8,1.7c0.6,3-0.1,6.2-1.4,9.5
		c-4.2-0.6-8.6-1.3-13.3-2.3c-3.4,6-6.8,12-10.3,18l30.8-8.6C753,365.2,752.3,373.4,750.3,377.9z"/>
	<path fill="#474A58" d="M825.6,377.9h-66.5c-1.8-1.9-3.4-5.3-4-7.7c10-19.8,20.8-39.1,31.8-58.2l-27.7,11.6
		c-2.3-4.4-3.6-12.7-2.8-17.8c22.1-0.7,43.9-0.6,65.6,0c2,2,3.5,4.7,4,7.7c-9.5,19-19.7,37.4-30.4,55.7l30.8-8.6
		C828.4,365.2,827.7,373.4,825.6,377.9z M772.1,302.4c-1.6-2.2-3.2-5.6-3.7-9.4c16.4-4.4,31.8-10.7,43.9-16.9
		c5.5,4.2,7.8,12.2,5.9,19.6C804.6,299.2,788.7,301.2,772.1,302.4z"/>
	<path fill="#474A58" d="M128.5,521.9H63.5c-1.2-2.4-1.6-5.6-1.2-9.6c5.2-0.5,10.6-0.7,16.2-1c-0.5-10.3-1-24.5-1-39.2
		c0-4.2,0.6-8.6,2-13.7c-10.7,9.2-24.7,4.3-20.8-10.7c14.9,2,28.3-1.1,37-9.7l4.6-6c3.1-0.4,7.7,0.1,10.3,1.4
		c0.5,29,1.4,59.2,2.5,77.2l14.9-0.4C129.1,514,129.3,517.3,128.5,521.9z"/>
	<path fill="#474A58" d="M199.4,508.3c0,8.5-5.6,14.8-13,14.6l-51.4-1c-0.8-0.4-1.6-1.1-2-1.9c1.1-23.8,32.8-35.6,32.8-63.1
		c0-11.5-4.1-16.9-7.4-16.9c-4.2,0-8.9,8.3,1,27.6c-14.9,7.6-28.9,1.3-28.9-11.6c0-13.6,13.7-24,31.2-24c23.2,0,37.3,13.1,37.3,27.1
		c0,19.1-26.9,28.6-48.5,39.2c4.9-0.2,11.3-0.5,20.4-0.2c12.2,0.2,17.5-0.8,20.4-3.2C196.2,496.8,199.4,502,199.4,508.3z"/>
	<path fill="#474A58" d="M275.7,497.9c0,19.1-16,26.4-36.7,26.4c-25.1,0-33.2-10.1-33.2-20c0-12,10-17.5,22.9-13.4
		c-3.1,15,1.7,25.7,7.9,25.7c4.9,0,6.6-5.8,6.6-13.9c0-12.6-3.8-20.4-15-19.6c-2.2-2.8-3-5.5-2.9-8.6c11.5-3.4,16.2-7.6,16.2-19.3
		c0-10.9-3.1-15-6.8-15c-4.3,0-7.4,5.5-0.4,24.4c-16.1,6.6-25.6,1-25.8-10.9c-0.2-10.8,10.6-21.5,29.8-21.5c20,0,33.4,8.3,33.2,20.6
		c0.1,8.4-4.8,17.4-18.5,22C267.8,475.2,275.7,483.5,275.7,497.9z"/>
	<path fill="#474A58" d="M351.9,521.9h-69.7c-1.2-2.5-1.6-4.6-1.2-7.8c5.8-0.5,12-0.7,18.6-1c-0.2-2.3-0.5-5.3-0.6-9.4l-18.4,0.4
		c-0.7-2.4-1-4.8-1-6.5c0-21.1,37.1-23.6,32-65.6c20.3-4.4,35.8,6.5,35.8,23.2c0,35.8-55.7,23.4-58.8,39.7c3.2-0.2,6.6-0.4,10.2-0.4
		V492c9.5-4.3,22.7-5.9,34.2-4.6l0.1,6.4l16.6-0.4c1,3,1.2,6.2,0.4,9.6c-5.5,0-11.2,0-16.7,0.1c0.2,4.1,0.4,7,0.6,9.2
		c5.6,0,11.5-0.1,17.5-0.4C352.5,515.2,352.7,518.6,351.9,521.9z"/>
	<path fill="#474A58" d="M425.2,497.2c0,16.9-13.7,27.1-36.5,27.1c-16.9,0-33.1-6.4-33.1-19.1c0-9.7,9.8-15.6,20.3-12.5
		c-1.1,14,3.4,24.6,10.4,24.6c4.1,0,6.4-4,6.4-12.6c0-16.7-8.6-26-21.7-22.1c-2.8-0.4-7.2-2.4-9.8-7.8l3.1-40.4
		c33.5,3,51.8,2.3,56.6-0.4c4.1,19.6-2.9,26.4-20.8,26.4c-7.6,0-16.8-0.7-27-1.9l-1.8,12.4c5.9-1.2,13.6-2,19.8-2
		C413,468.8,425.2,480.5,425.2,497.2z"/>
	<path fill="#474A58" d="M504.9,495.1c0,16.2-13,29.2-36.4,29.2c-24.8,0-38.8-17.2-38.8-41.3c0-28.4,15.1-50.4,43.1-50.4
		c18.1,0,29.2,7.7,29.2,17.5c0,9.1-9.4,14.3-20,13.6c-0.5-14-4-23.6-9.6-23.6c-4.6,0-8.5,5.8-8.5,33v0.1c3.8-3.1,8.9-4.8,14.8-4.8
		C493.1,468.4,504.9,480.1,504.9,495.1z M473.7,500.2c0-12.7-3-19.9-6.4-19.9c-1.1,0-2.2,0.5-3.4,1.6c0.5,22.4,2.9,33.4,6.1,33.4
		C472.4,515.2,473.7,509.6,473.7,500.2z"/>
	<path fill="#474A58" d="M549.6,485.4c0,13.1,9.5,20.6,18.5,16.8c-2.3,13.7-12.1,20.5-23,20.5c-13.7,0-24.1-10-24.1-23.6
		c0-16.9,13.7-31,41.4-42c-28-1.6-43.6,0.5-50.8,3.8c-2.6-22.2,4.4-28.7,25.1-28.7c10.8,0,24.1,0.8,38.5,2.3v0.2
		c1.1,4.4,0.2,19.3-2.6,26.5C554.3,469.8,549.6,475.9,549.6,485.4z"/>
	<path fill="#474A58" d="M615.8,523.1c-21.7,0-34.2-9.8-34.8-24.5c-0.5-10,5.8-19.3,18.2-22.7c-9.1-4.4-14.4-11.4-14.9-20.5
		c-0.7-13.9,10.9-23.9,32.6-23.9c19.9,0,31.1,9.1,31.8,22.9c0.4,7.9-4.6,15.7-14.3,19.1c10.4,5.2,16.6,13.3,17,24
		C652.1,512.4,639.5,523.1,615.8,523.1z M622.1,504.1c0-15.2-3.1-24.1-6.8-24.1c-2.6,0-4.8,4.2-4.8,13.6c0,15.2,3.1,24.1,6.7,24.1
		C620,517.7,622.1,513.5,622.1,504.1z M611,452c0,11.8,2.3,19,5.9,19c2.5,0,4.7-3.6,4.7-13.9c0-11.8-2.3-19-5.9-19
		C613.1,438.1,611,441.7,611,452z"/>
	<path fill="#474A58" d="M732.3,473.9c0,28.4-13.6,50.4-42.1,50.4c-18.2,0-29.8-7.7-29.8-18c0-9.5,9.6-15.8,21-11.8
		c-2.5,13.3,3.5,22.3,9.5,22.3c4.6,0,7.9-5.8,7.4-33c-3.8,3-8.8,4.7-14.6,4.7c-14.5,0-26.4-10.4-26.6-26.4
		c-0.2-16.9,12.7-29.5,35.8-29.5C718.1,432.6,732.3,449.8,732.3,473.9z M698.1,476.6c-0.8-23.5-3.2-34.9-6.5-34.9
		c-2.3,0-3.5,4.7-3.5,12.8c0,13.8,2.8,23.3,6.8,23.3C696,477.8,697.1,477.5,698.1,476.6z"/>
	<path fill="#474A58" d="M817.8,477c0,26.9-13.2,46.1-39.4,46.1c-24,0-38.4-17.6-38.4-44.2c0-27.7,13.2-47.5,39.4-47.5
		C803.4,431.4,817.8,449.6,817.8,477z M779.2,516.5c2.8,0,4.2-8.5,4.2-35.8c0-29.2-1.6-41.5-4.7-41.5c-2.8,0-4.2,8.6-4.2,35.9
		C774.5,504.4,776.1,516.5,779.2,516.5z"/>
	<path fill="#474A58" d="M845.9,489.4c13.3,0,20,6.7,20,16.7c0,10.6-7.4,17-20.4,17c-13.3,0-20-6.7-20-16.7
		C825.5,496,833,489.4,845.9,489.4z M864.9,459.6c-0.2,24.4-9.5,30.6-36,24.1c-0.5-14.9-0.5-32.2-0.5-49.3c6.2-1.3,13.2-2,20.3-2
		c4.8,0,9.6,0.4,14,1.1C864.2,438,865,447,864.9,459.6z"/>
</g>
</svg>
