<?xml version="1.0" encoding="utf-8"?>
<!-- Generator: Adobe Illustrator 19.2.1, SVG Export Plug-In . SVG Version: 6.00 Build 0)  -->
<svg version="1.1" id="Layer_1" xmlns="http://www.w3.org/2000/svg" xmlns:xlink="http://www.w3.org/1999/xlink" x="0px" y="0px"
	 viewBox="0 0 800 200" enable-background="new 0 0 800 200" xml:space="preserve">
<g>
	<path fill="#231F20" d="M139.5,46.9v116.8h-1L48,63.4v84.5l20.9,10.5H22.8l13.9-10.5V46.9L22.8,36.4h24l81.4,90.6V46.9l-20.9-10.5
		h46.2L139.5,46.9z"/>
	<path fill="#231F20" d="M163.9,116.6c0-27,19.3-43.6,42.7-43.6c23.4,0,42.7,16.6,42.7,43.6c0,27-19.3,43.6-42.7,43.6
		C183.3,160.1,163.9,143.6,163.9,116.6z M230.7,120.4c0-23.5-12-40.4-26.8-40.4c-15.9,0-21.6,15.5-21.6,32.8
		c0,23.5,12.4,40.4,27.2,40.4C225.3,153.1,230.7,137.6,230.7,120.4z"/>
	<path fill="#231F20" d="M335.6,135.7l0.9,0.9c-6.1,18.3-19.7,23.5-31.5,23.5c-22,0-39.9-18.3-39.9-44.1c0-29.8,24.1-43,43-43
		c12.2,0,21.4,3.5,28.4,8.7l-11,14.6L306.3,80c-15,0-25.6,11.2-25.6,31.2c0,19.3,9.9,34.2,29.5,34.2
		C317.1,145.3,325.5,143.4,335.6,135.7z"/>
	<path fill="#231F20" d="M411.4,137.5l0.9,0.9c-4.4,15.7-14.8,21.8-26,21.8c-15.3,0-24.7-11.8-24.7-25.3V85.2h-19l34.7-26v15.5h36.6
		l-5.4,10.5h-31.2v42.7c0,8,1.9,17.4,14.8,17.4C398.3,145.3,404.3,143,411.4,137.5z"/>
	<path fill="#231F20" d="M514.9,151.8l-19.9,8.4l-5.4-15.5h-0.9c-5.2,5.2-18.8,15.5-33.8,15.5c-10.3,0-22.8-5.6-22.8-24.2V94.3
		L420,85.2L447.8,73v55.1c0,15.3,7.1,19,15.5,19c5.6,0,14.5-1.4,23.7-8.5V94.3l-12.2-9.1L502.7,73v69.7L514.9,151.8z"/>
	<path fill="#231F20" d="M554.2,96.3v51.6l20.9,10.5h-50.5l13.9-10.5V94.3l-12.2-9.1L554.2,73l-3.3,18.6l0.9,0.3
		c6.3-11.5,19-20.7,34.7-17.3l-6.1,17.1C568.8,88.3,559.4,91.3,554.2,96.3z"/>
	<path fill="#231F20" d="M692.7,158.4h-43.6l13.9-10.5v-42.9c0-15.3-7.1-19-17.3-19c-5.6,0-14.5,1.4-23.7,8.5v53.3l13.9,10.5h-43.6
		l13.9-10.5V94.3l-12.2-9.1L622.1,73l-2.6,14.6l0.9,0.9c8.7-8.7,18.8-15.5,33.8-15.5c12,0,24.6,5.6,24.6,24.2v50.7L692.7,158.4z"/>
	<path fill="#231F20" d="M774.6,135.7l0.9,0.9c-6.1,18.3-19.7,23.5-31.5,23.5c-22,0-39.9-18.1-39.9-44.3c0-27.7,20-42.9,41-42.9
		c16.4,0,30.7,9.4,32.2,32.2h-57.3c-0.2,1.7-0.2,3.5-0.2,5.4c0,20.2,10.1,34.7,29.4,34.7C756.1,145.3,764.5,143.4,774.6,135.7z
		 M720.9,99.1h38c0-10.8-4.5-19.7-16.4-19.7C732.1,79.4,724.1,86.6,720.9,99.1z"/>
</g>
</svg>
