<?xml version="1.0" encoding="utf-8"?>
<!-- Generator: Adobe Illustrator 19.2.1, SVG Export Plug-In . SVG Version: 6.00 Build 0)  -->
<svg version="1.1" id="Layer_1" xmlns="http://www.w3.org/2000/svg" xmlns:xlink="http://www.w3.org/1999/xlink" x="0px" y="0px"
	 viewBox="0 0 800 200" enable-background="new 0 0 800 200" xml:space="preserve">
<g>
	<path fill="#231F20" d="M200.1,69.1c0,37.2-21.8,81.4-69.8,81.4c-39,0-60-27.2-60-60.8c0-37.2,21.8-81.4,69.6-81.4
		C179.2,8.2,200.1,35.4,200.1,69.1z M185.6,72.6c0-27.2-15.4-56.3-59.6-57.9c-20.8,6.2-41.1,36.5-41.1,71.4
		c0,27.2,15.4,56.5,59.6,57.9C165.2,137.8,185.6,107.5,185.6,72.6z"/>
	<path fill="#231F20" d="M253.5,120.3c0,7.1-11,29.1-26.6,29.1c-11.2,0-7.3-20.1-4.2-38.8l16.6-100.5l-16.8,0.4l-0.4-2.9l27.6-7.3
		h2.7l-17,102.8c-3.1,18.9-4.4,29.5-4.8,37.2c9.6-2.7,16.4-12.2,21-22.4L253.5,120.3z"/>
	<path fill="#231F20" d="M298.6,149.2c-6.4,15.4-12,35.1-7.5,48.4l-1.7,2.1c-4.8,0-14.3-4.6-14.3-12.9c0-7.3,8.5-19.7,17.9-38
		c-2.3-22.6-8.1-57.3-13.9-76.8l-9.3,6.6l-2.3-1.9l17.2-21.6l2.1-1.9c5.2,14.1,13.3,55,15.4,80.4c15.4-22.4,26.8-46.5,21.2-74.1
		c3.1-2.7,9.8-4.8,15-4.8c6.2,24.7-21.4,67.7-38.8,93.2L298.6,149.2z"/>
	<path fill="#231F20" d="M467.4,100c3.3-19.5,3.5-32.2-0.2-38.4c-18.7,4.4-36.3,27.2-44.2,56.7c-1.7,10-3.3,19.7-4.8,27.6l-12.3,3.9
		c2.7-15.4,6.2-33.8,8.9-49.8c3.3-19.5,3.5-32.2-0.2-38.4c-18.7,4.4-36.5,27.4-44.2,57.3l-4.6,27l-12.5,3.9l14.1-86.4h-14.1
		l-0.4-2.9l25.5-6.9h2.7l-8.1,48.4c8.5-26.8,24.1-48.8,42.8-48.8c12.9,0,16.2,12.5,11.6,39.2c-0.4,2.5-0.8,5.4-1.5,8.3
		c8.5-26.2,23.9-47.5,42.4-47.5c12.9,0,16,12.5,11.6,39.2l-7.7,46.5h16.2l0.4,2.9l-29.9,7.9L467.4,100z"/>
	<path fill="#231F20" d="M546.9,149.8c-4.4,0-13.3-1.9-21.2-10l-7.7,47.8l17.9-0.2l0.4,2.9l-29.7,7.3h-1.9l22-134.1L510,63.9
		l-0.4-2.9l27.6-7.3h2.7L532.4,99l0.6,0.2c5.2-17.9,25.5-45.9,40.1-45.9c8.3,0,14.5,10.6,14.7,24.5
		C588.2,111.4,569.1,149.8,546.9,149.8z M575.4,84c-0.2-9.6-1.7-16.4-4.6-21.4c-15.4,6-33.8,28.2-40.9,52.1L527,132
		c9.1,5.4,19.7,9.3,31.4,9.1C568.7,130.3,575.6,109.1,575.4,84z"/>
	<path fill="#231F20" d="M645.3,120.3c0,5.8-10,29.1-26.6,29.1c-11.2,0-7.3-19.9-4.2-38.8l7.7-47.1l-16.8,0.4l-0.4-2.9l27.6-7.3h2.7
		l-8.1,49.4c-3.1,19.1-4.4,29.7-4.8,37.2c9.3-2.7,16.4-12.2,21-22.4L645.3,120.3z M624.4,22.6c0.6-6,5.2-11,10.2-11
		c5,0,8.7,5,8.1,11c-0.6,6-5.2,10.8-10.2,10.8C627.7,33.3,623.8,28.6,624.4,22.6z"/>
	<path fill="#231F20" d="M719.5,117.9l1.9,2.5c0,8.3-11.2,29.5-31.1,29.5c-12.7,0-27-8.5-27-34.9c0-27,15.6-61.7,42.6-61.7
		c13.7,0,22,5.8,23.9,7.9l-9.1,20.1l-2.9,0.8l0.8-15c-5.2-3.5-14.7-6.6-24.5-6.2c-11,9.6-18.3,29.3-18.3,49.8
		c0,18.3,7.7,29.9,18.9,29.9C706.4,140.7,714.5,129.1,719.5,117.9z"/>
</g>
</svg>
