<?xml version="1.0" encoding="utf-8"?>
<!-- Generator: Adobe Illustrator 19.2.1, SVG Export Plug-In . SVG Version: 6.00 Build 0)  -->
<svg version="1.1" id="Layer_1" xmlns="http://www.w3.org/2000/svg" xmlns:xlink="http://www.w3.org/1999/xlink" x="0px" y="0px"
	 viewBox="0 0 833.8 259.2" enable-background="new 0 0 833.8 259.2" xml:space="preserve">
<g>
	<path fill="#474A58" d="M199.5,10.2l-11.2,66.7c-2.8,16.4-13.4,23.2-23.5,28.8l-1.6-2.2c10.4-8.4,15-13,17.9-30.5l10.4-62.6
		l-8.9-3.1l0.2-1.8l9.6,0.2h7.4l8.4-0.2l0.2,1.8L199.5,10.2z"/>
	<path fill="#474A58" d="M252.8,69.4c0,3.4-5.6,16.8-16.9,16.8c-1,0-1.8-0.1-2.8-0.4l4.2-25.8l-0.2-0.1c-3,10.3-14.8,26.5-23.2,26.5
		c-4.8,0-8.4-6.1-8.5-14.2c-0.2-19.4,10.8-41.6,23.6-41.6c2.6,0,8,1.2,12.7,6.4l5.3-6.1h1.8l-8,49.7c4.6-1.8,8.2-6.7,10.9-12.6
		L252.8,69.4z M238.9,50.9l1.7-10c-5.3-3.1-11.4-5.4-18.1-5.3c-6,6.2-10,18.5-9.8,33c0.1,5.5,1,9.5,2.6,12.4
		C224.2,77.5,234.8,64.7,238.9,50.9z"/>
	<path fill="#474A58" d="M281.1,0l-13.9,84.1l-7,2.3l13.3-80.8l-9.7,0.2l-0.2-1.7l16-4.2H281.1z M302.9,69.4
		c0,4.3-6.4,16.8-15.5,16.8c-1.7,0-3.7-0.8-5.2-6.8L277,57.6c4.2-2.8,10.8-6.8,15.4-13.9c0.2-1.6,0.6-3.4,1-5.4l1.3-7.7
		c2.2-0.6,7.2,2.2,6.2,7.8c-1.4,9-10.6,14.4-17,17.3l5.8,25.2c5.5-1.6,9.6-7.1,12.2-13L302.9,69.4z"/>
	<path fill="#474A58" d="M333,69.4c0,3.4-5.8,16.8-15.4,16.8c-6.5,0-4.2-11.5-2.4-22.4l4.4-27.2l-9.7,0.2l-0.2-1.7l16-4.2h1.6
		l-4.7,28.6c-1.8,11-2.5,17.2-2.8,21.5c5.4-1.6,9.5-7.1,12.1-13L333,69.4z M320.8,12.8c0.4-3.5,3-6.4,5.9-6.4s5,2.9,4.7,6.4
		s-3,6.2-5.9,6.2C322.8,19.1,320.5,16.3,320.8,12.8z"/>
	<path fill="#474A58" d="M389.2,0l-13.9,84.1l-7,2.3l13.3-80.8L372,5.9l-0.2-1.7l16-4.2H389.2z M411.1,69.4
		c0,4.3-6.4,16.8-15.5,16.8c-1.7,0-3.7-0.8-5.2-6.8l-5.3-21.7c4.2-2.8,10.8-6.8,15.4-13.9c0.2-1.6,0.6-3.4,1-5.4l1.3-7.7
		c2.2-0.6,7.2,2.2,6.2,7.8c-1.4,9-10.6,14.4-17,17.3l5.8,25.2c5.5-1.6,9.6-7.1,12.2-13L411.1,69.4z"/>
	<path fill="#474A58" d="M457.9,32.6l-5.5,14.2l-1.8,0.5l-0.1-10.9c-8.8,4.4-17.6,16.8-21.6,32.5l-2.5,15.2l-7.2,2.3l8.3-49.9H419
		l-0.2-1.7l14.8-4h1.6l-4.7,28.7c4.9-15.7,14.2-28.9,22.4-28.9C456.3,30.6,457.9,32.6,457.9,32.6z"/>
	<path fill="#474A58" d="M504.1,69.4c0,3.4-5.6,16.8-16.9,16.8c-1,0-1.8-0.1-2.8-0.4l4.2-25.8l-0.2-0.1c-3,10.3-14.8,26.5-23.2,26.5
		c-4.8,0-8.4-6.1-8.5-14.2c-0.2-19.4,10.8-41.6,23.6-41.6c2.6,0,8,1.2,12.7,6.4l5.3-6.1h1.8l-8,49.7c4.6-1.8,8.2-6.7,10.9-12.6
		L504.1,69.4z M490.1,50.9l1.7-10c-5.3-3.1-11.4-5.4-18.1-5.3c-6,6.2-10,18.5-9.8,33c0.1,5.5,1,9.5,2.6,12.4
		C475.4,77.5,486.1,64.7,490.1,50.9z"/>
	<path fill="#474A58" d="M554.4,83.8c-2.2,3.1-3.2,3.2-4.4,3.2c-0.8-8.5-2.6-20.5-4.7-31.1c-5.2,10.4-12.2,21.4-17.8,27.8
		c-2.4,2.9-4.1,3.2-5.2,3.2c-1.3-13-4.7-33.8-8-45.6l-5.4,3.8l-1.3-1.1l10-12.5l1.2-1.1c3.1,8.5,7.7,34.6,9,49
		c6.8-9.5,12.7-21.4,15.6-32.5l-1.6-5.6l-5.4,3.8l-1.3-1.1l10-12.5l1.2-1.1c3,8.3,7.8,32.6,8.9,47.3c8.6-13.3,15.6-27.4,12.2-43.7
		c1.8-1.6,5.6-2.8,8.6-2.8C579.6,45.7,563.7,70.1,554.4,83.8z"/>
	<path fill="#474A58" d="M627.1,69.4c0,3.4-5.6,16.8-16.9,16.8c-1,0-1.8-0.1-2.8-0.4l4.2-25.8l-0.2-0.1c-3,10.3-14.8,26.5-23.2,26.5
		c-4.8,0-8.4-6.1-8.5-14.2c-0.2-19.4,10.8-41.6,23.6-41.6c2.6,0,8,1.2,12.7,6.4l5.3-6.1h1.8l-8,49.7c4.6-1.8,8.2-6.7,10.9-12.6
		L627.1,69.4z M613.2,50.9l1.7-10c-5.3-3.1-11.4-5.4-18.1-5.3c-6,6.2-10,18.5-9.8,33c0.1,5.5,1,9.5,2.6,12.4
		C598.5,77.5,609.1,64.7,613.2,50.9z"/>
	<path fill="#474A58" d="M646.4,59.4c-1.8,10.9-2.5,17-2.8,21.5c5.5-1.6,9.5-7.1,12.1-13l1.1,1.4c0,4.1-6.4,16.8-15.4,16.8
		c-6.5,0-4.2-11.6-2.4-22.4l4.6-27.6l-8.9-0.7l0.5-2.8l8.6-0.1l7.2-17.6h2.8l-3,17.6h12.2l-0.4,2.4l-12.5,1.3L646.4,59.4z"/>
	<path fill="#474A58" d="M42.4,175.8l-0.1,0.1v0.8c-7.3,11.8-23.9,30-33.8,45.6c6.5,0,16.8,1.3,24,1.6l6.4-9.5l1.7,0.7l-5,15
		c-10.4,0-23-2.4-30.1-2.4c-0.6,1-1.1,1.9-1.6,2.9L0,229.6c8.2-17.4,24.4-33.5,33.8-47.5c-6.6,0.2-15-0.1-21.4-0.2l-6,9l-1.7-0.7
		l4.8-14.6c3.8,0.1,18.7,1.4,28.1,1l4.7-1.7l-0.1,1.1H42.4z"/>
	<path fill="#474A58" d="M94.8,213.4c0,3.4-5.6,16.8-16.9,16.8c-1,0-1.8-0.1-2.8-0.4l4.2-25.8l-0.2-0.1c-3,10.3-14.8,26.5-23.2,26.5
		c-4.8,0-8.4-6.1-8.5-14.2c-0.2-19.4,10.8-41.6,23.6-41.6c2.6,0,8,1.2,12.7,6.4l5.3-6.1h1.8l-8,49.7c4.6-1.8,8.2-6.7,10.9-12.6
		L94.8,213.4z M80.9,194.9l1.7-10c-5.3-3.1-11.4-5.4-18.1-5.3c-6,6.2-10,18.5-9.8,33c0.1,5.5,1,9.5,2.6,12.4
		C66.2,221.5,76.8,208.7,80.9,194.9z"/>
	<path fill="#474A58" d="M124.3,211.9l1.1,1.4c0,4.1-6.4,16.8-15.4,16.8c-6.5,0-4.2-11.6-2.4-22.4l2.5-15.5l-10.3,8.2l-1.6-2.8
		l12.7-10l6.2-38l-9.7,0.2l-0.2-1.7l16-4.2h1.6l-6.2,37.7l12.1-9.5l1.6,2.6l-14.4,11.4l-2.9,17.2c-1.8,10.9-2.5,17-2.8,21.5
		C117.7,223.3,121.7,217.8,124.3,211.9z"/>
	<path fill="#474A58" d="M175.1,194.4c0,16-10,36-23.2,36c-10.9,0-18.2-6.1-18.2-19.8c0-16,10-36,23.8-36
		C167.8,174.6,175.1,180.7,175.1,194.4z M167.9,197.2c0-12.6-5.4-18.1-16.8-18.1c-4.9,4.9-10.2,15.2-10.2,28.8
		c0,13.2,6.5,18.1,16.9,18.1C162.8,221,167.9,210.7,167.9,197.2z"/>
	<path fill="#474A58" d="M221.6,175.8l-0.1,0.1v0.8c-7.3,11.8-23.9,30-33.8,45.6c6.5,0,16.8,1.3,24,1.6l6.4-9.5l1.7,0.7l-5,15
		c-10.4,0-23-2.4-30.1-2.4c-0.6,1-1.1,1.9-1.6,2.9l-3.7-1.1c8.2-17.4,24.4-33.5,33.8-47.5c-6.6,0.2-15-0.1-21.4-0.2l-6,9l-1.7-0.7
		l4.8-14.6c3.8,0.1,18.7,1.4,28.1,1l4.7-1.7l-0.1,1.1H221.6z M201.3,158.5c0.6-3,3.2-5.4,6-5.4c2.4,0,3.6,2.4,3,5.4
		c-0.6,2.9-3.2,5.4-6,5.4C202,163.9,200.7,161.4,201.3,158.5z"/>
	<path fill="#474A58" d="M241.5,230c-3.7,8.9-7,20.3-4.3,28l-1,1.2c-2.8,0-8.3-2.6-8.3-7.4c0-4.2,4.9-11.4,10.3-22
		c-1.3-13.1-4.7-33.1-8-44.4l-5.4,3.8l-1.3-1.1l10-12.5l1.2-1.1c3,8.2,7.7,31.8,8.9,46.4c8.9-13,15.5-26.9,12.2-42.8
		c1.8-1.6,5.6-2.8,8.6-2.8c3.6,14.3-12.4,39.1-22.4,53.9L241.5,230z"/>
	<path fill="#474A58" d="M301.3,211.9l1.1,1.4c0,4.8-6.5,17-18,17c-7.3,0-15.6-4.9-15.6-20.2c0-15.6,9-35.6,24.6-35.6
		c7.9,0,12.7,3.4,13.8,4.6l-5.3,11.6l-1.7,0.5l0.5-8.6c-3-2-8.5-3.8-14.2-3.6c-6.4,5.5-10.6,16.9-10.6,28.8
		c0,10.6,4.4,17.3,10.9,17.3C293.8,225.1,298.4,218.4,301.3,211.9z M292.2,167.4l-1.8-1.2l8.9-17.4l6.2,3.4L305,154L292.2,167.4z"/>
	<path fill="#474A58" d="M386,213.4c0,4.1-6.4,16.8-15.4,16.8c-6.5,0-4.2-11.6-2.4-22.4l0.6-3.7l-0.2-0.1
		c-3,10.3-14.8,26.5-23.2,26.5c-4.8,0-8.4-6.1-8.5-14.2c-0.2-19.4,10.8-41.6,23.6-41.6c2.5,0,7.7,1.1,12.2,5.8l5-30.7l-9.7,0.2
		l-0.2-1.7l16-4.2h1.6l-9.8,59.4c-1.8,10.9-2.5,17-2.8,21.5c5.5-1.6,9.5-7.1,12.1-13L386,213.4z M370.3,195.2l1.7-10.3
		c-5.2-3.1-11.3-5.4-18-5.3c-6,6.2-10,18.5-9.8,33c0.1,5.5,1,9.5,2.6,12.4C355.6,221.5,366.2,208.9,370.3,195.2z"/>
	<path fill="#474A58" d="M435.6,194.4c0,16-10,36-23.2,36c-10.9,0-18.2-6.1-18.2-19.8c0-16,10-36,23.8-36
		C428.3,174.6,435.6,180.7,435.6,194.4z M428.4,197.2c0-12.6-5.4-18.1-16.8-18.1c-4.9,4.9-10.2,15.2-10.2,28.8
		c0,13.2,6.5,18.1,16.9,18.1C423.2,221,428.4,210.7,428.4,197.2z"/>
	<path fill="#474A58" d="M483,203.4c-1.8,10.9-2.5,17-2.8,21.5c5.5-1.6,9.5-7.1,12.1-13l1.1,1.4c0,4.1-6.4,16.8-15.4,16.8
		c-6.5,0-4.2-11.6-2.4-22.4l4.6-27.6l-8.9-0.7l0.5-2.8l8.6-0.1l7.2-17.6h2.8l-3,17.6h12.2l-0.4,2.4l-12.5,1.3L483,203.4z"/>
	<path fill="#474A58" d="M545.8,176.6l-5.5,14.2l-1.8,0.5l-0.1-10.9c-8.8,4.4-17.6,16.8-21.6,32.5l-2.5,15.2l-7.2,2.3l8.3-49.9h-8.4
		l-0.2-1.7l14.8-4h1.6l-4.7,28.7c4.9-15.7,14.2-28.9,22.4-28.9C544.2,174.6,545.8,176.6,545.8,176.6z"/>
	<path fill="#474A58" d="M600.4,213.4c0,3.4-5.6,16.8-16.9,16.8c-1,0-1.8-0.1-2.8-0.4l4.6-27.2c-5,15.2-14,27.8-24.4,27.8
		c-7.2,0-8.6-7.2-6.5-20.3l4.9-29.6h-8.4l-0.2-1.7l14.8-4h1.6l-4.7,28.6c-1.9,11.9-2.3,18.5-0.6,21.8c10.6-2.4,20.5-15.2,25.1-32
		l2.6-16.1l7.1-2.3l-8.2,49.7c4.6-1.9,8.2-6.7,10.9-12.6L600.4,213.4z"/>
	<path fill="#474A58" d="M674.4,201.6c1.9-11.3,2-18.6-0.1-22.2c-10.8,2.5-21,15.7-25.6,32.8c-1,5.8-1.9,11.4-2.8,16l-7.1,2.3
		c1.6-8.9,3.6-19.6,5.2-28.8c1.9-11.3,2-18.6-0.1-22.2c-10.8,2.5-21.1,15.8-25.6,33.1l-2.6,15.6l-7.2,2.3l8.2-49.9h-8.2l-0.2-1.7
		l14.8-4h1.6l-4.7,28c4.9-15.5,13.9-28.2,24.7-28.2c7.4,0,9.4,7.2,6.7,22.7c-0.2,1.4-0.5,3.1-0.8,4.8c4.9-15.1,13.8-27.5,24.5-27.5
		c7.4,0,9.2,7.2,6.7,22.7l-4.4,26.9h9.4l0.2,1.7l-17.3,4.6L674.4,201.6z"/>
	<path fill="#474A58" d="M731.5,201.6c1.9-11.3,2-18.6-0.1-22.2c-10.8,2.5-21.1,15.8-25.6,33.1l-2.6,15.6l-7.2,2.3l8.2-49.9H696
		l-0.2-1.7l14.8-4h1.6l-4.7,28c4.9-15.5,13.9-28.2,24.7-28.2c7.4,0,9.2,7.2,6.7,22.7l-4.4,26.9h9.4l0.2,1.7l-17.3,4.6L731.5,201.6z"
		/>
	<path fill="#474A58" d="M767,230c-3.7,8.9-7,20.3-4.3,28l-1,1.2c-2.8,0-8.3-2.6-8.3-7.4c0-4.2,4.9-11.4,10.3-22
		c-1.3-13.1-4.7-33.1-8-44.4l-5.4,3.8l-1.3-1.1l10-12.5l1.2-1.1c3,8.2,7.7,31.8,8.9,46.4c8.9-13,15.5-26.9,12.2-42.8
		c1.8-1.6,5.6-2.8,8.6-2.8c3.6,14.3-12.4,39.1-22.4,53.9L767,230z"/>
	<path fill="#474A58" d="M806.3,224.9c-0.7,3.1-3.6,5.9-6.4,5.9c-2.5,0-4.1-2.8-3.4-5.9c0.7-3.2,3.6-5.9,6.4-5.9
		C805.6,219,807.1,221.6,806.3,224.9z M833.6,172.6c-1.9,12.6-22.4,22.6-29.8,29.4c1,4.4,4,6.2,5.6,7.9l-0.7,1
		c-2.8,0.4-10.1-3.5-9.4-10.3c1.1-9.5,28.9-20.9,30.5-30.8c1.3-8.2-9.7-9.2-14.2-9.2c-3.6,0-6.4,0.6-8,1.1l-4,9.2l-1.6-0.5l2.6-17
		C828.4,153.2,835.1,162.4,833.6,172.6z"/>
</g>
</svg>
