<?xml version="1.0" encoding="utf-8"?>
<!-- Generator: Adobe Illustrator 19.2.1, SVG Export Plug-In . SVG Version: 6.00 Build 0)  -->
<svg version="1.1" id="Layer_1" xmlns="http://www.w3.org/2000/svg" xmlns:xlink="http://www.w3.org/1999/xlink" x="0px" y="0px"
	 viewBox="0 0 997.2 544.7" enable-background="new 0 0 997.2 544.7" xml:space="preserve">
<g>
	<g>
		<path fill="#474A58" d="M548.8,72c0,10.4-12.4,24.6-29.4,24.6c-10.9,0-18.6-5.9-22.7-12.7c-5.4,7-13.2,12.6-23.9,12.7
			c-15,0.1-25.7-10.9-25.7-26.4c0-16.7,13.3-25.1,25.2-28.1c-3.4-5.9-6.4-11.9-6.4-19.2c0-13.7,9.1-22.8,22-22.9
			c12.5-0.1,21.5,8.2,21.5,19.4c0,9.6-5.9,17.9-14.9,20.9l12.1,20.9l2.5-8.9c3-10.6,12.1-16.4,21.4-13.1c7,2.5,10.3,8.6,8.4,14
			c-1.7,4.7-6.2,7.2-10.8,5.5c-4.2-1.6-6.8-5.8-5.2-10.3c1.2-3.4,4.2-6,9.5-5.2c0,0-1.4-1-3.4-1.7c-7.6-2.9-14.8,2.8-17.4,11.9
			l-3.1,10.9L525.3,93c9.7-1.7,15.7-8.3,19.4-15.1c-1.2,0.7-2.6,1.2-4.2,1.2c-4.6,0-8.3-3.7-8.3-8.3c0-4.6,3.7-8.3,8.3-8.3
			C545.1,62.5,548.8,66.2,548.8,72z M494.9,80.8l-21-35.9c-11,2.3-23.4,9.6-23.4,25.3c0,13.8,9.4,23.5,22.3,23.4
			C483.1,93.5,489.9,87.7,494.9,80.8z M488,3c-4.9,0-9.2,1.7-12.5,4.6l17.5,30c8.2-2.4,13.1-9.5,13.1-18.1C506.1,10,498.4,2.9,488,3
			z"/>
		<path fill="#474A58" d="M73.9,226.1c-5.5,8.4-12.6,14.5-21.6,14.5c-5.6,0-10-2.4-12-6.7c-3.5,3.1-9.2,6.7-17.3,6.7
			c-13.8,0-23-10.1-23-25.9c0-20.8,12.5-35.3,31.1-35.3c7.6,0,12.5,2.5,15.5,4.9l0.8-4.9l19.9,4.8L62.5,210l-4.8,26.5
			c3.7-0.5,9.1-5.3,13.7-12.5L73.9,226.1z M39.4,230.9c-0.4-2-0.4-4.3,0.1-7L42,210l3.8-21.8c-3.1-2.9-8.5-6.2-17.2-5.6l-9.8,54.2
			C29,238.8,35.6,234.7,39.4,230.9z"/>
		<path fill="#474A58" d="M145.6,205.3c0,20.8-12.5,35.3-31.1,35.3c-7.6,0-12.5-2.6-15.6-5l-0.8,5l-19.9-4.8l4.8-25.8l11.9-66
			l19.9,4.8l-6.5,34.9c3.5-2.3,8.3-4.3,14.3-4.3C136.3,179.4,145.6,189.5,145.6,205.3z M126.7,183.2c-9.1-1.8-15.2,1.2-19.2,4.6
			l-4.1,22.2l-3.8,21.7c3.1,3,8.5,6.4,17.3,5.8L126.7,183.2z"/>
		<path fill="#474A58" d="M221.8,198.2c-2,6.8-12.4,42.4-42.8,42.4c-17.2,0-28.6-9.5-28.6-26.2c0-18.7,14.2-35,34.9-35
			c11.4,0,23.4,4.8,23.4,14.2c0,5.6-4.6,10.2-10.2,10.2c-5.6,0-10.2-4.6-10.2-10.2c0-4.8,3.4-8.5,7.6-9.5c0,0-4.9-1.7-10.6-1.7
			c-4.2,0-6.6,1.1-6.6,1.1L169,236c0,0,4.7,1.6,10.3,1.6c28.1,0,38-35.3,40.1-41.2L221.8,198.2z"/>
		<path fill="#474A58" d="M298.8,198.2c-6.1,18.6-16.3,42.4-34.1,42.4c-5.6,0-10-2.4-11.9-6.6c-3.5,3-9.2,6.6-17.3,6.6
			c-13.8,0-23-10.1-23-25.9c0-20.8,12.5-35.3,31.1-35.3c7.4,0,12.4,2.5,15.5,4.9l7.2-40.3l19.9,4.8L274.9,210l-4.8,26.5
			c9.7-2,21-21.2,26.3-40.1L298.8,198.2z M251.8,231c-0.4-2-0.4-4.4,0.1-7.1l6.5-35.8c-3.1-3-8.5-6.2-17.2-5.6l-9.8,54.2
			C241.4,238.8,248,234.8,251.8,231z"/>
		<path fill="#474A58" d="M361,198.2c-2,6.8-12,42.4-43.4,42.4c-16.2,0-28-9.5-28-26.2c0-18.7,14.2-35,35.6-35c13,0,24,5.9,24,16.7
			c0,15.5-22.6,22.3-37.2,19l-3.8,21c0,0,4.4,1.6,10.3,1.6c28.1,0,38-35.3,40.1-41.2L361,198.2z M317.9,183.5l-5.3,28.6
			c6.8,2.5,15.8,0.2,15.8,0.2l5.4-28.6c0,0-3.7-1.3-8.6-1.3C320.6,182.4,317.9,183.5,317.9,183.5z"/>
		<path fill="#474A58" d="M414.5,157.4l-3.8,1.1c0,0-6.4-8.2-17.3-8.2c-3.5,0-6.2,0.8-6.2,0.8l-4.6,22.6l-1.1,6.2h13.9v3h-14.5
			l-11.4,65c-3.2,18.1-17.5,28-34.6,28c-15.2,0-25.4-8.6-25.4-21.7c0-8.2,4-13.6,8-16.9l4.1,0.8c-4.3,2.9-8.9,7.8-8.8,16
			c0,11,8.9,18.5,22.1,18.5c5.9,0,10-1.6,10-1.6L360,183h-8.4v-3h8.9l1.1-6c3.5-19.7,17.4-26.8,30.6-26.8
			C407.6,147.2,414.5,157.4,414.5,157.4z"/>
		<path fill="#474A58" d="M459.4,184.2L448.1,248c-3.2,18.1-17.5,28-34.6,28c-15.2,0-25.4-8.6-25.4-21.7c0-10.8,6.8-16.6,11.9-19.4
			c-4.8-4.6-7.6-11.5-7.6-20.2c0-20.8,12.5-35.3,31.1-35.3c7.3,0,12.1,2.4,15.1,4.7l0.8-4.7L459.4,184.2z M423.5,271.1l6-34.7
			c-3.4,2.3-8,4.2-14,4.2c-5,0-9.4-1.3-13-3.7c-4.8,2.5-11.2,7.6-11,17.3c0,11,8.9,18.5,22.1,18.5
			C419.4,272.6,423.5,271.1,423.5,271.1z M411.2,236.8c8.9,1.8,15-1.1,19-4.4l7.8-44.4c-3.1-2.9-8.5-6-16.9-5.4L411.2,236.8z"/>
		<path fill="#474A58" d="M554.6,198.2c-6.1,18.6-16.3,42.4-34.1,42.4c-9.1,0-14.8-6.2-12.8-16.7l2.5-13.9l4.6-25.7
			c-10.3,7.3-19.1,20.2-25,34.2l-3.8,22.1l-19.9-4.8l4.8-25.8l11.9-66l19.9,4.8l-10.9,59c6-11.5,13.8-21.4,23.9-28.4l19.9,4.8
			l-4.8,25.8l-4.8,26.5c9.7-2,21-21.2,26.3-40.1L554.6,198.2z"/>
		<path fill="#474A58" d="M592.2,198.2c-6.1,18.6-16.3,42.4-34.1,42.4c-9.1,0-14.8-6.2-12.8-16.7l2.5-13.9l5.4-30.6l19.9,4.8
			l-4.8,25.8l-4.8,26.5c9.7-2,21-21.2,26.3-40.1L592.2,198.2z M555,161c0-6.2,5-11.2,11.4-11.2c6.2,0,11.3,4.9,11.3,11.2
			c0,6.4-5,11.3-11.3,11.3C560,172.3,555,167.4,555,161z"/>
		<path fill="#474A58" d="M595.3,179.4l19.9,4.8l-4.8,25.8l-6.5,36.1c-3.5,19.7-16.1,30.1-31.7,30.1c-15.5,0-22.3-10.2-22.3-10.2
			l3.8-1.1c0,0,6.4,8.2,17.3,8.2c3.5,0,6.2-0.8,6.2-0.8l5.6-25.9l7-36.4L595.3,179.4z M619.9,161c0,6.4-5,11.3-11.3,11.3
			c-6.4,0-11.4-4.9-11.4-11.3c0-6.2,5-11.2,11.4-11.2C614.9,149.9,619.9,154.8,619.9,161z"/>
		<path fill="#474A58" d="M707.7,198.2c-6.1,18.8-12.5,42.4-32.8,42.4c-8.9,0-16.8-5.2-19.1-13.1l-6.6-22.3l-0.8,4.8l-5.4,30.6
			l-19.9-4.8L628,210l11.9-66l19.9,4.8l-9.8,53.6c5.9-9.5,15.4-23,28.1-23c6.5,0,11.8,3.6,11.9,10.2c0,5.8-4.3,10.2-9.8,10.2
			c-5.5,0-10-4.4-10-9.8c0-2.9,1.3-5.3,3.4-7.1c-8.6,2.8-17.2,14.8-20.6,21h16.7l9.6,33.4c16.1-3.8,20.2-22.7,26.3-40.8L707.7,198.2
			z"/>
		<path fill="#474A58" d="M746,198.2c-6.1,18.6-16.3,42.4-34.1,42.4c-9.1,0-14.8-6.2-12.8-16.7l2.5-13.9l11.9-66l19.9,4.8L722.2,210
			l-4.8,26.5c9.7-2,21-21.2,26.3-40.1L746,198.2z"/>
		<path fill="#474A58" d="M864.7,198.2c-6.1,18.6-16.3,42.4-34.1,42.4c-9.1,0-14.8-6.2-12.8-16.7l2.5-13.9l4.6-25.7
			c-10.8,7.8-20,21.5-25.8,36.4l-3.5,19.9l-19.9-4.8l4.8-25.8l4.6-25.7c-10.3,7.3-19.1,20.2-25,34.2l-3.8,22.1l-19.9-4.8l4.8-25.8
			l5.4-30.6l19.9,4.8l-4.4,23.6c6-11.5,13.8-21.4,23.9-28.4l19.9,4.8l-4.7,25.2c6-12.2,14.2-22.7,24.6-30l19.9,4.8l-4.8,25.8
			l-4.8,26.5c9.7-2,21-21.2,26.3-40.1L864.7,198.2z"/>
		<path fill="#474A58" d="M943.5,198.2c-6.1,18.6-16.3,42.4-34.1,42.4c-9.1,0-14.8-6.2-12.8-16.7l2.5-13.9l4.6-25.7
			c-10.3,7.3-19.1,20.2-25,34.2l-3.8,22.1l-19.9-4.8l4.8-25.8l5.4-30.6l19.9,4.8l-4.4,23.6c6-11.5,13.8-21.4,23.9-28.4l19.9,4.8
			l-4.8,25.8l-4.8,26.5c9.7-2,21-21.2,26.3-40.1L943.5,198.2z"/>
		<path fill="#474A58" d="M934.3,214.2c0-20.9,15.6-34.8,35.2-34.8c17,0,27.7,10.6,27.7,26.4c0,20.9-16.1,34.8-35.5,34.8
			C944.5,240.6,934.3,230,934.3,214.2z M970.4,236.4l9.2-52.3c0,0-3.7-1.7-10-1.7c-5.8,0-9.5,1.4-9.5,1.4l-9.1,51.7c0,0,4.4,2,11,2
			C967.2,237.6,970.4,236.4,970.4,236.4z"/>
		<path fill="#474A58" d="M187.3,292.6l-16.7,92l-19.9-4.8l15.7-86.5l-24.2,20.4l-2.4-2.8l27.6-23.2L187.3,292.6z"/>
		<path fill="#474A58" d="M217.4,352.2c4.8,0,8.5,1.2,11.5,3.1l37-52.8c-4.4-7.2-13-11.6-22.6-11.5c-13.9,0.1-25.3,9.4-25.3,21.5
			c0,2.5,0.5,4.4,0.5,4.4c1.2-6.4,5.5-8.6,9.7-8.6c6,0,9.7,4.7,9.7,10.1c0,6-4.8,10.1-10.6,10.1c-7.2,0-12.7-6.4-12.7-15.5
			c0-14.2,12.8-24.8,28.7-25c16.1-0.1,29.3,10.8,29.3,26.4c0,7.7-2.8,14.3-6.8,20l-24.5,34.9c4.6,6.2,9.6,11.9,19.6,11.9
			c11.5-0.1,19.3-7.4,19.3-16.6c0-2.3-0.5-3.7-0.5-3.7c-1.2,6.4-5.5,8.6-9.7,8.6c-6,0-9.7-4.7-9.7-10.1c0-6,4.8-10.1,10.8-10.1
			c7,0,12.5,6.4,12.5,14.9c0,11.4-9.7,20.2-22.7,20.3c-11,0-16.8-5.9-21.7-12.4c-4.6,6.2-11.4,12.2-21.8,12.4H217
			c-10.8,0-18.2-6.5-18.2-16.2C198.7,358.7,206.2,352.2,217.4,352.2z M211.3,380.4l15.5-22.1c-2.8-1.7-5.9-2.8-10-2.8
			c-8.8,0-14.8,5.2-14.8,12.8C202.1,374.3,205.6,378.7,211.3,380.4z"/>
		<path fill="#474A58" d="M305,349.4c6,0,10.8,4.1,10.8,10.1c0,5.4-3.7,10.1-9.7,10.1c-4.2,0-8.5-2.3-9.7-8.6c0,0-0.5,1.4-0.5,3.7
			c0,9.1,8.6,16.4,23,16.6c3.7,0,5.3-0.5,5.3-0.5l8.8-47.5h-20.9v-3.1h21.5l6.7-36.1c0,0-4.8-2.9-12.7-2.9c-8.6,0-15.7,3.1-19.4,8.2
			c0.8-0.2,1.7-0.4,2.6-0.4c5.5,0,10,4.4,10,10c0,5.6-4.4,10.1-10.1,10.1c-5.5,0-10-4.2-10-10.9c0-10.4,10.3-20,27.1-20
			c16.8,0,27.7,8.8,27.7,21.8c0,10.2-7.2,19-17.9,21.7c10,2.4,16.4,12.6,16,25.1c-0.6,16.8-14.6,28-34.1,28
			c-17.5-0.1-27-9.2-27-20.3C292.6,355.8,298.1,349.4,305,349.4z"/>
		<path fill="#474A58" d="M360.4,347.5l46.6-59.3l0.1-0.2l19.8,4.8l-10.2,54.7h15l-0.6,3.6h-15l-6.2,33.5l-19.9-4.8l5.3-28.7h-34.8
			V347.5z M395.9,347.5l9.6-51.8l-40.6,51.8H395.9z"/>
		<path fill="#474A58" d="M449.5,349.4c6,0,10.8,4.1,10.8,10.1c0,5.4-3.7,10.1-9.7,10.1c-4.2,0-8.5-2.3-9.7-8.6c0,0-0.5,1.4-0.5,3.7
			c0,9.1,8.6,16.4,23,16.6c3.7,0,5.3-0.5,5.3-0.5l9.2-51.2h-32.2l8.4-40.7h52.1l-0.6,3.6h-31.4l-6.8,33.5h5.2
			c15.8,0,26.2,11.3,25.6,28.3c-0.5,16.8-14.6,30.4-34.1,30.4c-17.5-0.1-27-9.2-27-20.3C437,355.8,442.6,349.4,449.5,349.4z"/>
		<path fill="#474A58" d="M552.5,288.2c15.8,0,26.5,10.9,26.5,20.6c0,6.2-4.4,10.7-10,10.7c-5.5,0-10-4.4-10-10.1
			c0-5.5,4.4-10,10-10c1.1,0,2,0.1,3,0.5c-4.1-5.2-10.8-8.6-19.7-8.6c-7.7,0-12.2,2.6-12.2,2.6l-7,36.6c0,0,3.7-2.4,10.7-2.4
			c16.1,0,26.9,10.4,26.9,26c0,18.2-14.8,30.4-32.3,30.4c-20.3,0-30.7-16.4-30.7-38.4C507.7,318.1,526.4,288.2,552.5,288.2z
			 M537.7,381.6c4.7,0,7.8-1,7.8-1l8.9-47.2c0,0-4.6-2.3-10.8-2.3c-7.3,0-11,3-11,3l-8.3,43.6C524.3,377.8,529.3,381.6,537.7,381.6z
			"/>
		<path fill="#474A58" d="M583.8,288l56.5,0.1L627.2,324h9.2v3.2H626l-21,57.6l-19.9-4.8l19.2-52.8h-14.5V324h15.7l12-32.9h-33.7
			V288z"/>
		<path fill="#474A58" d="M663.1,330.2l-3.1-5.4c-2.3-4.4-3.5-8.8-3.5-13.9c0-13.7,9.1-22.8,22-22.9c12.5-0.1,21.5,8.2,21.5,19.7
			c0,9.4-6,17.8-15,20.6l7.7,13.3c2.4,4.2,5.4,9.6,5.4,17.4c0,15-11.8,25.4-29.3,25.6c-16.4,0.1-27.5-10.4-27.5-26.4
			C641.3,345.2,650,334.1,663.1,330.2z M668.8,381.6c13-0.1,19.4-7.4,19.4-7.4L664.7,333c-12,2.8-20,12.8-20,25.2
			C644.6,372.4,654.2,381.7,668.8,381.6z M683.4,325.7c8.2-2.4,13.2-9.5,13.2-17.8c0-10-7.7-17-18.1-16.9c-4.9,0-9.2,1.7-12.5,4.6
			L683.4,325.7z"/>
		<path fill="#474A58" d="M731.3,384.6c-15.8,0-26.5-10.9-26.5-20.6c0-6.2,4.4-10.7,10-10.7s10,4.4,10,10.1c0,5.5-4.4,10-10,10
			c-1.1,0-2-0.1-3-0.5c4.1,5.2,10.8,8.6,19.7,8.6c7.7,0,12.2-2.6,12.2-2.6l7-36.6c0,0-3.7,2.4-10.7,2.4c-16.1,0-26.9-10.4-26.9-26
			c0-18.2,14.8-30.4,32.3-30.4c20.3,0,30.7,16.4,30.7,38.4C776,354.7,757.3,384.6,731.3,384.6z M745.7,291.2c-4.3,0-7.4,1-7.4,1
			l-8.9,47.2c0,0,4.6,2.3,10.8,2.3c7.3,0,11-3,11-3l8.3-43.6C759.5,295.1,754.4,291.2,745.7,291.2z"/>
		<path fill="#474A58" d="M779.8,336.4c4.4-28.9,23.2-48.1,45.7-48.1c22.3,0,33.5,19.2,29,48.1c-4.4,28.9-22.1,48.2-44.4,48.2
			C787.5,384.6,775.3,365.3,779.8,336.4z M821.6,379.4l17-84.8c0,0-4.8-3.1-13.4-3.1c-7.4,0-12.1,2.3-12.1,2.3l-16.9,84
			c0,0,6,3.6,14.8,3.6C817.4,381.4,821.6,379.4,821.6,379.4z"/>
		<path fill="#474A58" d="M360.4,517.4c0-6.2,4.9-11,11.3-11c6.2,0,11.2,4.8,11.2,11c0,6.4-4.9,11.2-11.2,11.2
			C365.3,528.6,360.4,523.8,360.4,517.4z M395.8,436.8l-12.4,65.4l-19.7-4.8l12.1-65.4L395.8,436.8z"/>
		<path fill="#474A58" d="M479.9,497.3l-4.1,22.3c10.3-0.8,23-11.5,23-31.1c0-20.2-18.2-37-41.6-37c-25.7,0-45.6,20.2-45.6,46.2
			c0,26.2,20,43.7,45.6,43.7c11.2,0,21.2-3.5,28.9-9l2,2.6c-8.2,6.1-19.6,9.6-30.7,9.6c-27.1,0-49.3-19.6-49.3-46.9
			c0-27.2,22.1-49.3,49.3-49.3c24.8,0,44.9,18.6,44.9,40.1c0,19.9-13.4,34.3-29.9,34.3c-5.6,0-9.5-2.2-11.2-6.1
			c-2.9,2.5-7.6,5.4-14.2,5.4c-11.4,0-19-8.3-19-20.9c0-17.2,10.3-28.7,25.7-28.7c6.2,0,10.2,2,12.7,4.1l0.8-4.6l16.4,4L479.9,497.3
			z M462.9,497.3L466,480c-2.5-2.4-7.1-5.2-14.2-4.7l-8.2,43.3c8.4,1.6,13.8-1.7,16.9-4.8c-0.1-1.4-0.1-3.1,0.2-4.8L462.9,497.3z"/>
		<path fill="#474A58" d="M572.1,471.6l-5.9,32.5h18l-0.7,3.6h-17.9l-3.8,21.1l-3.5-0.8l3.6-20.3h-29.4l-3.8,21.1l-3.5-0.8l3.6-20.3
			h-17.4l0.7-3.6h17.4l5.9-32.5h-18.1l0.6-3.6H536l3.7-20.6l3.5,0.8l-3.6,19.8h29.5l3.7-20.6l3.5,0.8l-3.6,19.8h18.1l-0.7,3.6H572.1
			z M568.5,471.6H539l-5.9,32.5h29.5L568.5,471.6z"/>
		<path fill="#474A58" d="M618.8,438.8l9.6,13.2l-2.9,2.2l-9.6-13.2l-9.6,13.2l-3-2.2l9.7-13.2l-15.7-5l1.1-3.5l15.6,5V419h3.6v16.4
			l15.6-5.2l1.2,3.5L618.8,438.8z"/>
	</g>
</g>
</svg>
