<svg xmlns="http://www.w3.org/2000/svg" width="142" height="35.511" viewBox="0 0 142 35.511">
  <defs>
    <style>
      .cls-1 {
        fill: #020202;
      }
    </style>
  </defs>
  <title>Asset 1</title>
  <g id="Layer_2" data-name="Layer 2">
    <g id="Layer_1-2" data-name="Layer 1">
      <g>
        <path class="cls-1" d="M137.846,30.569l2.041,4.942,2.037-4.942h-.641l-1.4,3.471-1.4-3.471Zm-2.662,4.694h.584V30.571h-.584Zm-6.145-4.694,2.039,4.942,2.039-4.942h-.644l-1.4,3.471-1.4-3.471Zm-3.92,2.981.834-1.9.832,1.9Zm2.445,1.713h.629l-2.24-4.894-2.24,4.894h.629l.533-1.177h2.152Zm-10.63-4.694v4.694h2.009v-.534h-1.425v-4.16Zm-2.415,4.694v-.534h-1.937V32.954h1.882v-.538h-1.882V31.105h1.937v-.536h-2.525v4.694Zm-4.671-4.158v-.536h-2.815v.536h1.113v4.158h.588V31.105Zm-11.727,0a3.723,3.723,0,0,1,.854.093,2.379,2.379,0,0,1,.7.294,1.377,1.377,0,0,1,.491.564,1.956,1.956,0,0,1,.18.859,1.929,1.929,0,0,1-.18.853,1.365,1.365,0,0,1-.49.567,2.218,2.218,0,0,1-.7.3,3.712,3.712,0,0,1-.857.094h-.2V31.105Zm.16,4.158a2.9,2.9,0,0,0,1.911-.61,2.151,2.151,0,0,0,.742-1.763,2.081,2.081,0,0,0-.749-1.722,2.931,2.931,0,0,0-1.886-.6H97.33v4.694Zm-6.95,0v-3.5l3.523,3.689V30.569h-.583v3.466l-3.525-3.688v4.916ZM85.645,33.55l.833-1.9.837,1.9Zm2.447,1.713h.627l-2.241-4.894-2.241,4.894h.63l.535-1.177h2.156ZM71.869,30.569l1.948,4.88,1.327-3.443,1.327,3.443,1.947-4.88h-.636l-1.311,3.36-1.327-3.46-1.327,3.46-1.311-3.36ZM67.857,33.55l.836-1.9.833,1.9ZM70.3,35.263h.631l-2.242-4.894-2.242,4.894h.629l.534-1.177h2.155Zm-7.043-4.794a1.489,1.489,0,0,0-.971.334,1.08,1.08,0,0,0-.412.881.963.963,0,0,0,.271.715,2.438,2.438,0,0,0,.75.474l.325.137a2.007,2.007,0,0,1,.594.35.7.7,0,0,1,.215.539.922.922,0,0,1-.246.643.8.8,0,0,1-.62.272.892.892,0,0,1-.65-.255.817.817,0,0,1-.259-.634l-.591.123a1.492,1.492,0,0,0,.479.943,1.384,1.384,0,0,0,.972.371,1.481,1.481,0,0,0,1.067-.414,1.388,1.388,0,0,0,.434-1.049,1.232,1.232,0,0,0-.3-.871,2.272,2.272,0,0,0-.861-.541l-.336-.132c-.436-.164-.655-.39-.655-.671a.578.578,0,0,1,.243-.48.864.864,0,0,1,.542-.187.825.825,0,0,1,.753.442l.468-.28a1.3,1.3,0,0,0-1.208-.71m-5.674.622c.85,0,1.275.279,1.275.841a.869.869,0,0,1-.105.448.632.632,0,0,1-.3.265,1.592,1.592,0,0,1-.39.114,2.854,2.854,0,0,1-.45.031H57.43v-1.7Zm1.513,1.7a1.382,1.382,0,0,0,.145-1.527,1.19,1.19,0,0,0-.451-.476,1.478,1.478,0,0,0-.407-.149,2.947,2.947,0,0,0-.4-.057c-.109-.006-.254-.01-.433-.01h-.71v4.694h.585V33.275h.244l1.382,1.988h.71L58.284,33.22a1.217,1.217,0,0,0,.816-.432m-7.412.762.835-1.9.834,1.9Zm2.446,1.713h.629l-2.24-4.894-2.242,4.894h.63l.534-1.177H53.6ZM42.8,30.569l1.949,4.88,1.325-3.443L47.4,35.449l1.948-4.88h-.634L47.4,33.929l-1.328-3.46-1.325,3.46-1.313-3.36Zm-9.783,4.694v-3.5l3.522,3.689V30.569h-.585v3.466l-3.523-3.688v4.916Zm-2.942,0v-.534H28.133V32.954h1.881v-.538H28.133V31.105H30.07v-.536H27.548v4.694Zm-4.933,0v-.534H23.2V32.954h1.88v-.538H23.2V31.105h1.937v-.536H22.616v4.694ZM14.008,30.569l1.95,4.88,1.325-3.443,1.327,3.443,1.949-4.88h-.636l-1.313,3.36-1.327-3.46-1.325,3.46-1.314-3.36Zm-1.627.536v-.536H9.567v.536h1.115v4.158h.586V31.105Zm-4.79,4.158v-.534H5.655V32.954h1.88v-.538H5.655V31.105H7.591v-.536H5.07v4.694Zm-6.495,0a1.976,1.976,0,0,0,1.158-.328,1.119,1.119,0,0,0,.473-.989,1.215,1.215,0,0,0-.27-.766,1.068,1.068,0,0,0-.671-.421v-.01a.816.816,0,0,0,.369-.362,1.133,1.133,0,0,0,.135-.529,1.392,1.392,0,0,0-.139-.646.928.928,0,0,0-.392-.4,2.044,2.044,0,0,0-.539-.19,3.42,3.42,0,0,0-.647-.056H0v4.694Zm-.15-2.149a2.246,2.246,0,0,1,.411.036,1.6,1.6,0,0,1,.379.114.66.66,0,0,1,.3.246.7.7,0,0,1,.11.4c0,.55-.369.827-1.109.827H.585V33.114Zm-.2-2.023a1.442,1.442,0,0,1,.738.159.662.662,0,0,1,.258.614.678.678,0,0,1-.261.623,1.427,1.427,0,0,1-.746.162H.585V31.091Z"/>
        <path class="cls-1" d="M127.9,18.3h3.352V6.588l7.519,11.71H142V.446h-3.352V12.193L131.119.446H127.9Zm-13.359-6.986h-4.709L112.2,5.181ZM103.69,18.3h3.484l1.43-3.675h7.183l1.377,3.675h3.48L113.877.446h-3.4ZM92.818.861A10.714,10.714,0,0,0,88.525,0a9.04,9.04,0,0,0-7.131,3.118,9.017,9.017,0,0,0-2.312,6.164,9.71,9.71,0,0,0,1.25,4.817,8.751,8.751,0,0,0,3.4,3.441,9.777,9.777,0,0,0,4.887,1.209,8.744,8.744,0,0,0,4.465-1.105,8.419,8.419,0,0,0,3.1-3.2A8.837,8.837,0,0,0,97.379,10l-.026-.748H88.5v3.192h5.1a5.2,5.2,0,0,1-1.922,2.315,5.444,5.444,0,0,1-2.93.742,6.143,6.143,0,0,1-4.492-1.8,5.923,5.923,0,0,1-1.822-4.381,5.77,5.77,0,0,1,1.757-4.245,5.915,5.915,0,0,1,4.35-1.747,6.931,6.931,0,0,1,5.223,2.4L96.121,3.36a9.853,9.853,0,0,0-3.3-2.5M66.526,11.312H61.818l2.361-6.131ZM55.673,18.3h3.481l1.433-3.675h7.182L69.144,18.3h3.483L65.857.446h-3.4Zm-14.02,0h8.232V15.06h-4.88V.446H41.653ZM28.308,11.312H23.6l2.361-6.131ZM17.452,18.3h3.481l1.433-3.675h7.182L30.925,18.3h3.483L27.638.446h-3.4ZM4.045,10.485a4.645,4.645,0,0,1,2.832.668,2.185,2.185,0,0,1,.852,1.82A1.806,1.806,0,0,1,7,14.525a5.1,5.1,0,0,1-2.813.535H3.35V10.485Zm.171-6.8a2.559,2.559,0,0,1,1.717.493A1.668,1.668,0,0,1,6.5,5.51a1.784,1.784,0,0,1-.6,1.417,2.692,2.692,0,0,1-1.82.524H3.35V3.689ZM4.935,18.3a7.56,7.56,0,0,0,3.342-.608,4.958,4.958,0,0,0,1.976-1.854A5.109,5.109,0,0,0,11.02,13.1a4.891,4.891,0,0,0-.742-2.715A5.538,5.538,0,0,0,7.933,8.469,4.683,4.683,0,0,0,9.314,6.913a4.019,4.019,0,0,0,.425-1.852,4.184,4.184,0,0,0-.934-2.718A4.717,4.717,0,0,0,6.289.764,14.141,14.141,0,0,0,2.766.446H0V18.3Z"/>
      </g>
    </g>
  </g>
</svg>
