<?xml version="1.0" encoding="UTF-8"?>
<svg width="91px" height="26px" viewBox="0 0 91 26" version="1.1" xmlns="http://www.w3.org/2000/svg" xmlns:xlink="http://www.w3.org/1999/xlink">
    <!-- Generator: Sketch 40.3 (33839) - http://www.bohemiancoding.com/sketch -->
    <title>gw</title>
    <desc>Created with Sketch.</desc>
    <defs></defs>
    <g id="Screens" stroke="none" stroke-width="1" fill="none" fill-rule="evenodd">
        <g id="Desktop-Copy-4" transform="translate(-502.000000, -3083.000000)" fill="#000000">
            <g id="gw" transform="translate(502.000000, 3083.000000)">
                <g id="Layer_1" transform="translate(0.000000, 0.000000)">
                    <g id="Group">
                        <rect id="Rectangle-path" x="0" y="0" width="11.0213445" height="16.8083093"></rect>
                        <g transform="translate(23.378610, 20.723737)" id="Shape">
                            <polygon points="3.44834491 1.57976025 3.24795683 0.900293475 3.23125782 0.900293475 3.05591825 1.57976025 2.1959194 4.58640072 1.78679373 4.58640072 0.484271198 0.390693395 0.0166990068 0.237813371 0.0166990068 0.110413351 1.78679373 0.110413351 1.78679373 0.237813371 1.12718296 0.390693395 1.99553132 3.1850005 2.1959194 3.86446728 2.22096791 3.86446728 2.40465698 3.1850005 3.26465583 0.101920016 3.64038349 0.101920016 4.60057638 3.19349384 4.80096446 3.87296061 4.81766347 3.87296061 5.01805155 3.19349384 5.83630288 0.416173399 5.15999311 0.229320036 5.15999311 0.101920016 6.50426316 0.101920016 6.50426316 0.229320036 6.07008898 0.416173399 4.80931396 4.57790739 4.4001883 4.57790739"></polygon>
                            <path d="M8.19921235,2.9641738 L7.72329066,4.22968067 L8.34115391,4.41653403 L8.34115391,4.54393405 L7.05533038,4.54393405 L7.05533038,4.41653403 L7.48950456,4.22968067 L9.09260921,0.0679466774 L9.45998736,0.0679466774 L11.046393,4.27214734 L11.5056157,4.42502736 L11.5056157,4.55242738 L9.76056949,4.55242738 L9.76056949,4.41653403 L10.4034813,4.26365401 L9.91086055,2.9641738 L8.19921235,2.9641738 L8.19921235,2.9641738 Z M9.82736551,2.77732044 L9.2929973,1.35893355 L9.0592112,0.713440113 L9.04251219,0.713440113 L8.8087261,1.35893355 L8.27435788,2.77732044 L9.82736551,2.77732044 L9.82736551,2.77732044 Z"></path>
                            <path d="M13.9436707,4.25516067 L14.661728,4.42502736 L14.661728,4.55242738 L12.7329927,4.55242738 L12.7329927,4.41653403 L13.3341569,4.26365401 L13.3341569,0.390693395 L12.7329927,0.237813371 L12.7329927,0.110413351 L14.578233,0.110413351 C15.3380378,0.110413351 16.0894931,0.373706726 16.0894931,1.23153353 C16.0894931,1.79209362 15.6302704,2.19977368 14.9623101,2.36964037 L14.9623101,2.38662704 C16.1562891,2.5480004 16.1395901,4.45050737 16.9160939,4.42502736 L16.9160939,4.55242738 C16.8075504,4.60338739 16.6489098,4.6288674 16.5069682,4.6288674 C15.2294942,4.6288674 15.5384258,2.49704039 14.5615339,2.49704039 L13.9436707,2.49704039 L13.9436707,4.25516067 L13.9436707,4.25516067 Z M14.3945439,2.29320036 C14.9539606,2.29320036 15.4549308,1.94497364 15.4549308,1.26550687 C15.4549308,0.577546758 15.0040576,0.305760048 14.4195924,0.305760048 L13.9436707,0.305760048 L13.9436707,2.29320036 L14.3945439,2.29320036 L14.3945439,2.29320036 Z"></path>
                            <path d="M18.2102669,3.37185387 L18.3355095,3.37185387 L18.8448292,4.38256069 C19.8384201,4.56941405 20.5397784,4.238174 20.5397784,3.53322722 C20.5397784,2.39512038 18.2102669,2.73485376 18.2102669,1.23153353 C18.2102669,0.390693395 18.9366737,0.0339733387 19.6463815,0.0339733387 C20.0805557,0.0339733387 20.4980309,0.118906685 20.8737585,0.305760048 L20.8737585,1.23153353 L20.748516,1.23153353 L20.2475458,0.27178671 C19.4459934,0.118906685 18.7195866,0.280280044 18.7195866,1.01070683 C18.7195866,2.14032034 21.0991951,1.86004029 21.0991951,3.33788053 C21.0991951,4.212694 20.3393903,4.62037406 19.487741,4.62037406 C19.0702658,4.62037406 18.6110431,4.53544072 18.2186164,4.34858735 L18.2186164,3.37185387 L18.2102669,3.37185387 Z"></path>
                            <polygon points="22.5603582 4.55242738 22.5186107 4.4080407 24.7395786 0.832346798 25.0819082 0.314253383 25.0735587 0.297266714 24.4723945 0.305760048 23.2784155 0.305760048 22.8191928 1.20605352 22.6939503 1.20605352 22.6939503 0.101920016 25.791616 0.101920016 25.8250141 0.229320036 23.6040461 3.8220006 23.253367 4.34858735 23.2617165 4.36557402 23.8712303 4.35708069 25.2238498 4.35708069 25.7164705 3.38884053 25.8417131 3.38884053 25.8417131 4.56092072 22.5603582 4.56092072"></polygon>
                            <path d="M28.0877295,2.9641738 L27.6118078,4.22968067 L28.229671,4.41653403 L28.229671,4.54393405 L26.9438475,4.54393405 L26.9438475,4.41653403 L27.3780217,4.22968067 L28.9811263,0.0679466774 L29.3485045,0.0679466774 L30.9349101,4.27214734 L31.3941328,4.42502736 L31.3941328,4.55242738 L29.6490866,4.55242738 L29.6490866,4.41653403 L30.2919984,4.26365401 L29.7993777,2.9641738 L28.0877295,2.9641738 L28.0877295,2.9641738 Z M29.7242321,2.77732044 L29.1898639,1.35893355 L28.9560778,0.713440113 L28.9393788,0.713440113 L28.7055927,1.35893355 L28.1712245,2.77732044 L29.7242321,2.77732044 L29.7242321,2.77732044 Z"></path>
                            <polygon points="35.393545 1.57976025 35.1931569 0.900293475 35.1764579 0.900293475 35.0011183 1.57976025 34.1327699 4.58640072 33.7236443 4.58640072 32.4211217 0.390693395 31.9535496 0.237813371 31.9535496 0.110413351 33.7236443 0.110413351 33.7236443 0.237813371 33.0640335 0.390693395 33.9323819 3.1850005 34.1327699 3.86446728 34.1578185 3.86446728 34.3415075 3.1850005 35.2015064 0.101920016 35.577234 0.101920016 36.5374269 3.19349384 36.737815 3.87296061 36.754514 3.87296061 36.9549021 3.19349384 37.7731534 0.416173399 37.0968437 0.229320036 37.0968437 0.101920016 38.4411137 0.101920016 38.4411137 0.229320036 38.0069395 0.416173399 36.737815 4.58640072 36.3286893 4.58640072"></polygon>
                            <path d="M40.1360629,2.9641738 L39.6601412,4.22968067 L40.2780045,4.41653403 L40.2780045,4.54393405 L38.9921809,4.54393405 L38.9921809,4.41653403 L39.4263551,4.22968067 L41.0294598,0.0679466774 L41.3968379,0.0679466774 L42.9832436,4.27214734 L43.4424662,4.42502736 L43.4424662,4.55242738 L41.69742,4.55242738 L41.69742,4.41653403 L42.3403318,4.26365401 L41.8477111,2.9641738 L40.1360629,2.9641738 L40.1360629,2.9641738 Z M41.7725656,2.77732044 L41.2381973,1.35893355 L41.0044113,0.713440113 L40.9877122,0.713440113 L40.7539261,1.35893355 L40.2195579,2.77732044 L41.7725656,2.77732044 L41.7725656,2.77732044 Z"></path>
                        </g>
                        <g transform="translate(13.275710, 0.000000)">
                            <rect id="Rectangle-path" x="62.2455479" y="11.2961351" width="2.30446294" height="2.34416037"></rect>
                            <path d="M68.1319478,15.9589759 L69.3342763,16.5704959 L69.3342763,16.7318693 L64.9257385,16.7318693 L64.9257385,16.5620026 L65.8608829,15.9504825 L65.8608829,6.23410765 L64.9257385,5.87738759 L64.9257385,5.74998757 L68.0484528,5.08750747 L68.1319478,5.17244082 L68.1319478,6.27657432 L68.1569963,6.29356099 C68.7080636,5.52916087 69.4678684,5.08750747 70.2777702,5.08750747 C71.5218462,5.08750747 72.8744658,6.41246768 72.8744658,9.2832148 C72.8744658,12.3917753 71.1878661,13.7676955 69.6181594,13.7676955 C69.0921407,13.7676955 68.566122,13.6233088 68.1319478,13.3345354 L68.1319478,15.9589759 L68.1319478,15.9589759 Z M68.1319478,12.8334287 C68.4408795,12.9778154 68.7247626,13.0457621 69.0002962,13.0457621 C69.8519455,13.0457621 70.5032068,12.1284819 70.5032068,9.46157483 C70.5032068,6.82014774 69.9521396,6.39548101 69.1756358,6.39548101 C68.8082576,6.39548101 68.516025,6.5398677 68.1319478,6.86261442 L68.1319478,12.8334287 L68.1319478,12.8334287 Z" id="Shape"></path>
                            <polygon id="Shape" points="75.980481 12.8758954 75.980481 0.0764400121 75.8719375 0 72.7074757 0.645493435 72.7074757 0.772893455 73.6843676 1.10413351 73.6843676 12.8758954 72.7492232 13.4789221 72.7492232 13.6402955 76.9156254 13.6402955 76.9156254 13.4789221"></polygon>
                            <polygon id="Shape" points="16.2898812 5.28285417 16.2898812 5.44422753 17.4588116 6.05574762 15.955901 10.9903751 15.839008 10.9903751 13.9269717 6.04725429 14.8454171 5.44422753 14.8454171 5.28285417 12.240372 5.28285417 10.5955198 5.28285417 9.5351329 5.28285417 9.5351329 5.44422753 10.7708594 6.04725429 9.49338538 10.9903751 9.36814283 10.9903751 7.38931052 5.28285417 6.56270968 5.28285417 5.08484758 10.9903751 4.95960503 10.9903751 3.24795683 6.03876095 4.24154773 5.44422753 4.24154773 5.28285417 0.0751455307 5.28285417 0.0751455307 5.44422753 0.718057293 6.04725429 3.36484987 13.6402955 4.892809 13.6402955 6.1118365 9.00293475 6.23707905 9.00293475 7.85688271 13.6402955 9.19280326 13.6402955 11.4304702 6.25958765 11.4471692 6.25109432 14.6032815 14.4046956 11.6475573 16.5704959 11.6475573 16.7318693 14.4613399 16.7318693 18.1935679 6.05574762 18.9951203 5.44422753 18.9951203 5.28285417"></polygon>
                            <path d="M18.460752,0.772893455 L18.460752,0.645493435 L21.6252138,0 L21.7337574,0.0764400121 L21.7337574,6.24260098 L21.7671554,6.25958765 C22.3599701,5.50368087 23.1030759,5.08750747 23.9547253,5.08750747 C25.2572478,5.08750747 26.6683139,6.55685437 26.6683139,9.33417481 C26.6683139,12.587122 24.5892875,13.8441355 22.5603582,13.8441355 C21.3580297,13.8441355 20.2224973,13.4959088 19.4376439,13.0457621 L19.4376439,1.10413351 L18.460752,0.772893455 L18.460752,0.772893455 Z M21.7337574,13.3515221 C21.9174465,13.4109754 22.1345335,13.4279621 22.3182226,13.4279621 C23.4454056,13.4279621 24.1801619,12.2813619 24.1801619,9.52102817 C24.1801619,6.93056109 23.6290947,6.37849434 22.8191928,6.37849434 C22.4351157,6.37849434 22.126184,6.52288103 21.7337574,6.83713441 L21.7337574,13.3515221 L21.7337574,13.3515221 Z" id="Shape"></path>
                            <path d="M31.0935507,13.8441355 C29.2232619,13.8441355 27.3780217,12.2049219 27.3780217,9.46157483 C27.3780217,6.71822773 29.2232619,5.07901413 31.0935507,5.07901413 C32.9638395,5.07901413 34.8090797,6.71822773 34.8090797,9.46157483 C34.8007302,12.2049219 32.9638395,13.8441355 31.0935507,13.8441355 L31.0935507,13.8441355 Z M31.0935507,5.47820086 C30.2836489,5.47820086 29.8244262,6.7861744 29.8244262,9.47006816 C29.8244262,12.1539619 30.2836489,13.4619355 31.0935507,13.4619355 C31.9034525,13.4619355 32.3626752,12.1539619 32.3626752,9.47006816 C32.3626752,6.7861744 31.9034525,5.47820086 31.0935507,5.47820086 L31.0935507,5.47820086 Z" id="Shape"></path>
                            <polygon id="Shape" points="47.2832378 13.6402955 47.1997428 13.4024821 50.1805155 7.05796111 50.8234273 5.78396091 50.7900292 5.72450757 48.8362455 5.74149424 48.8111969 5.78396091 47.617218 7.91578792 47.4752764 7.91578792 47.4752764 5.28285417 53.5203169 5.28285417 53.6038119 5.52066754 50.6230392 11.8821752 49.9717779 13.1476821 49.9968264 13.2071354 52.0341053 13.1901487 53.3199288 10.9139351 53.4618703 10.9139351 53.4618703 13.6487888"></polygon>
                            <path d="M60.3418612,11.9586152 L60.3418612,8.20456129 C60.3418612,5.86040092 58.9975911,5.08750747 57.50303,5.08750747 C56.4175945,5.08750747 55.3572076,5.39326752 54.6057523,6.03876095 L54.6725483,6.344521 C55.2403146,6.08972096 55.8164303,5.86040092 56.3340995,5.86040092 C57.1773994,5.86040092 57.8704081,6.42945435 58.0290487,7.94976125 C55.1401205,8.16209462 54.0880831,9.70788153 54.0880831,11.2961351 C54.0880831,12.663562 54.8311889,13.8441355 56.1170124,13.8441355 C57.1022538,13.8441355 57.8203111,13.1901487 58.1375923,12.5786287 C58.3797279,13.2241221 59.0643871,13.6487888 59.7323474,13.6402955 L61.118365,13.6402955 L61.118365,13.3770021 C60.8678799,13.3685088 60.3418612,12.9013754 60.3418612,11.9586152 L60.3418612,11.9586152 Z M57.2441954,12.6720553 C56.7766232,12.6805487 56.32575,11.7802552 56.32575,11.0328417 C56.32575,9.61445485 57.0354578,8.61224136 58.0373982,8.34045465 C58.0457477,8.45936133 58.0373982,12.1369752 58.0373982,12.1794419 C57.8453596,12.434242 57.6282725,12.663562 57.2441954,12.6720553 L57.2441954,12.6720553 Z" id="Shape"></path>
                            <path d="M45.3044055,12.816442 C45.8387737,12.816442 46.3230449,12.6210953 46.7739181,12.4512286 L46.8156656,12.5786287 C46.3397439,13.2920688 45.3044055,13.8356422 44.4026591,13.8356422 C42.3904288,13.8356422 40.6537321,12.1879353 40.6537321,9.46157483 C40.6537321,7.22782781 42.1649922,5.0960008 44.7533383,5.0960008 C45.379551,5.0960008 46.3146954,5.19792082 46.7071221,5.33381417 L46.7071221,7.91578792 L46.5651805,7.91578792 L45.195862,5.52916087 C44.3191641,5.52916087 43.1418841,6.32753433 43.1418841,9.29170813 C43.1418841,11.9671086 44.1855721,12.816442 45.3044055,12.816442 L45.3044055,12.816442 Z" id="Shape"></path>
                            <path d="M41.0044113,6.20862765 C40.9793627,5.56313421 40.4616935,5.06202747 39.8354808,5.08750747 C39.7102382,5.0960008 39.5849957,5.12148081 39.4764521,5.16394748 C38.8418899,5.38477418 38.3158712,5.96232094 37.9234445,6.63329438 L37.8900465,6.62480105 L37.8900465,5.17244082 L37.8065514,5.0960008 L34.6170411,5.74149424 L34.6170411,5.86040092 L35.6022825,6.46342769 L35.6022825,12.867402 L34.6170411,13.4789221 L34.6170411,13.6402955 L39.1508215,13.6402955 L39.1508215,13.4789221 L37.898396,12.867402 L37.898396,7.49112118 C38.0403375,7.08344112 38.2908226,6.82014774 38.5914048,6.76918773 C38.9337344,6.71822773 39.259365,6.87110775 39.4764521,7.32974782 C39.6183937,7.38920117 39.7686847,7.41468117 39.9273253,7.40618784 C40.5451886,7.38920117 41.0294598,6.84562775 41.0044113,6.20862765 L41.0044113,6.20862765 Z" id="Shape"></path>
                        </g>
                    </g>
                </g>
            </g>
        </g>
    </g>
</svg>