<?xml version="1.0" encoding="utf-8"?>
<!-- Generator: Adobe Illustrator 19.2.1, SVG Export Plug-In . SVG Version: 6.00 Build 0)  -->
<svg version="1.1" id="Layer_1" xmlns="http://www.w3.org/2000/svg" xmlns:xlink="http://www.w3.org/1999/xlink" x="0px" y="0px"
	 viewBox="0 0 46.1 60.7" enable-background="new 0 0 46.1 60.7" xml:space="preserve">
<g>
	<g>
		<path fill="#0000FF" d="M23.1,46.1L0,23.1L23.1,0l23.1,23.1L23.1,46.1z M0.7,23.1l22.4,22.4l22.4-22.4L23.1,0.7L0.7,23.1z"/>
	</g>
	<g>
		<path fill="#0000FF" d="M23.1,60.7L0,37.6l23.1-23.1l23.1,23.1L23.1,60.7z M0.7,37.6L23.1,60l22.4-22.4L23.1,15.3L0.7,37.6z"/>
	</g>
	<g>
		<g>
			<path fill="#0000FF" d="M5.4,21L5.4,21l2.2,2.2L9.7,21h0.1v4.2h-1v-1.3c0-0.3,0.1-0.8,0.1-0.8s-0.3,0.4-0.5,0.7l-0.6,0.6H7.6
				L7,23.8c-0.3-0.3-0.5-0.7-0.5-0.7s0.1,0.5,0.1,0.8v1.3h-1V21z"/>
		</g>
	</g>
	<g>
		<g>
			<path fill="#0000FF" d="M5.7,38.8l0.8-0.5c0.2,0.3,0.4,0.5,0.9,0.5c0.3,0,0.5-0.1,0.5-0.3c0-0.2-0.2-0.3-0.6-0.5L7.1,38
				C6.5,37.8,6,37.4,6,36.7c0-0.7,0.6-1.2,1.4-1.2c0.6,0,1,0.2,1.4,0.7l-0.8,0.5c-0.1-0.2-0.3-0.3-0.5-0.3c-0.2,0-0.4,0.1-0.4,0.3
				c0,0.2,0.2,0.3,0.4,0.4l0.2,0.1c0.8,0.3,1.3,0.6,1.3,1.4c0,0.8-0.6,1.2-1.6,1.2C6.5,39.8,5.9,39.4,5.7,38.8z"/>
		</g>
	</g>
	<g>
		<g>
			<path fill="#0000FF" d="M22.5,29.9h-1.2V29h3.4v0.9h-1.2v3.2h-1.1V29.9z"/>
		</g>
	</g>
	<g>
		<g>
			<path fill="#0000FF" d="M21.4,53.9l1.7-1.7c0.4-0.4,0.6-0.7,0.6-1c0-0.3-0.2-0.4-0.5-0.4c-0.3,0-0.5,0.2-0.7,0.6l-1-0.3
				c0.2-0.8,0.8-1.3,1.7-1.3c0.9,0,1.5,0.6,1.5,1.4c0,0.5-0.3,0.9-0.7,1.4l-0.3,0.3c-0.1,0.1-0.4,0.3-0.4,0.3s0.3,0,0.5,0h0.9V54
				L21.4,53.9L21.4,53.9z"/>
		</g>
	</g>
	<g>
		<g>
			<path fill="#0000FF" d="M36.2,37.6c0-1.3,1-2.1,2.2-2.1c1.2,0,2.2,0.9,2.2,2.1c0,1.3-1,2.1-2.2,2.1
				C37.2,39.8,36.2,38.9,36.2,37.6z M39.5,37.6c0-0.7-0.5-1.2-1.1-1.2c-0.7,0-1.1,0.5-1.1,1.2c0,0.7,0.5,1.2,1.1,1.2
				C39.1,38.8,39.5,38.4,39.5,37.6z"/>
		</g>
	</g>
	<g>
		<g>
			<path fill="#0000FF" d="M22.5,7.1h1.1v4.1h-1.1V7.1z"/>
		</g>
	</g>
	<g>
		<g>
			<path fill="#0000FF" d="M38.3,21L38.3,21l2,4.2h-1.1l-0.1-0.3h-1.5l-0.1,0.3h-1L38.3,21z M38.8,24.1l-0.2-0.4
				c-0.2-0.4-0.3-0.9-0.3-0.9s-0.1,0.4-0.3,0.9l-0.2,0.4H38.8z"/>
		</g>
	</g>
</g>
</svg>
