<?xml version="1.0" encoding="UTF-8"?>
<svg width="25px" height="31px" viewBox="0 0 25 31" version="1.1" xmlns="http://www.w3.org/2000/svg" xmlns:xlink="http://www.w3.org/1999/xlink">
    <!-- Generator: Sketch 40.3 (33839) - http://www.bohemiancoding.com/sketch -->
    <title>miasta</title>
    <desc>Created with Sketch.</desc>
    <defs></defs>
    <g id="Screens" stroke="none" stroke-width="1" fill="none" fill-rule="evenodd">
        <g id="Desktop-Copy-4" transform="translate(-621.000000, -3081.000000)" fill="#000000">
            <g id="miasta" transform="translate(621.000000, 3081.000000)">
                <g id="Layer_1">
                    <g id="Group">
                        <polygon id="Shape" points="6.49934892 0.237188612 0 0.237188612 0 30.9282918 4.07812765 30.9282918 4.07812765 9.2227758 7.56297592 30.9282918 11.9831746 30.9282918 15.2114696 8.91939502 15.2114696 30.9282918 19.6316682 30.9282918 19.6316682 0.237188612 13.1269745 0.237188612 9.94143831 22.0309609"></polygon>
                        <path d="M21.08547,30.0843416 L21.08547,30.9503559 L24.9123892,30.9503559 L24.9123892,30.4097865 L22.2078904,30.4097865 L24.9123892,29.9464413 L24.9123892,29.3617438 L22.1651316,28.9314947 L24.9123892,28.9314947 L24.9123892,28.3467972 L21.08547,28.3467972 L21.08547,29.2128114 L23.8060034,29.6375445 L21.08547,30.0843416 L21.08547,30.0843416 L21.08547,30.0843416 Z M21.08547,26.4217082 L21.08547,27.3318505 L24.9123892,27.9661922 L24.9123892,27.3980427 L24.2175575,27.2932384 L24.2175575,26.5320285 L24.9123892,26.4272242 L24.9123892,25.7983986 L21.08547,26.4217082 L21.08547,26.4217082 L21.08547,26.4217082 Z M21.7642671,26.9071174 L23.6991062,26.6092527 L23.6991062,27.2049822 L21.7642671,26.9071174 L21.7642671,26.9071174 L21.7642671,26.9071174 Z M23.3303109,24.4911032 L23.3303109,24.2097865 L24.0358323,24.2097865 C24.1266949,24.2097865 24.2015229,24.2208185 24.2549715,24.2483986 C24.3084201,24.2759786 24.351179,24.3090747 24.3725584,24.3587189 C24.3992827,24.408363 24.4099725,24.4635231 24.4099725,24.5297153 C24.4099725,24.5959075 24.3992827,24.6510676 24.3725584,24.7007117 C24.3458341,24.7503559 24.3084201,24.783452 24.2549715,24.811032 C24.2015229,24.8386121 24.1266949,24.8496441 24.0358323,24.8496441 L21.9673718,24.8496441 C21.8337503,24.8496441 21.7375428,24.8220641 21.6734045,24.7613879 C21.614611,24.7062278 21.5878867,24.6234875 21.5878867,24.5241993 C21.5878867,24.424911 21.614611,24.3476868 21.6734045,24.2870107 C21.7321979,24.2318505 21.8284054,24.1987544 21.9673718,24.1987544 L22.3789259,24.1987544 L22.3789259,23.6140569 L22.0047858,23.6140569 C21.8016811,23.6140569 21.6253008,23.647153 21.4809896,23.7188612 C21.3366784,23.7905694 21.2297812,23.8898577 21.1549531,24.027758 C21.0801251,24.1656584 21.0427111,24.3366548 21.0427111,24.5407473 C21.0427111,24.7448399 21.0801251,24.9158363 21.1549531,25.0537367 C21.2297812,25.191637 21.3366784,25.2964413 21.4809896,25.3626335 C21.6253008,25.4343416 21.7963363,25.4674377 22.0047858,25.4674377 L23.9984183,25.4674377 C24.2015229,25.4674377 24.3779033,25.4343416 24.5222145,25.3626335 C24.6665257,25.2909253 24.7734229,25.191637 24.8482509,25.0537367 C24.923079,24.9158363 24.960493,24.7448399 24.960493,24.5407473 C24.960493,24.3366548 24.923079,24.1656584 24.8482509,24.027758 C24.7734229,23.8898577 24.6611808,23.7850534 24.5222145,23.7188612 C24.3779033,23.647153 24.2068678,23.6140569 23.9984183,23.6140569 L22.7851352,23.6140569 L22.7851352,24.4911032 L23.3303109,24.4911032 L23.3303109,24.4911032 L23.3303109,24.4911032 Z M21.08547,21.7606762 L21.08547,22.6708185 L24.9123892,23.3051601 L24.9123892,22.7370107 L24.2175575,22.6322064 L24.2175575,21.8709964 L24.9123892,21.7661922 L24.9123892,21.1373665 L21.08547,21.7606762 L21.08547,21.7606762 L21.08547,21.7606762 Z M21.7642671,22.2460854 L23.6991062,21.9482206 L23.6991062,22.5439502 L21.7642671,22.2460854 L21.7642671,22.2460854 L21.7642671,22.2460854 Z M21.08547,20.7953737 L21.6306456,20.7953737 L21.6306456,19.6701068 L24.3779033,20.8505338 L24.9123892,20.8505338 L24.9123892,19.0357651 L24.3672136,19.0357651 L24.3672136,20.2161922 L21.6199559,19.0357651 L21.08547,19.0357651 L21.08547,20.7953737 L21.08547,20.7953737 L21.08547,20.7953737 Z M24.9177341,17.9987544 L24.9177341,17.3754448 L23.6510024,17.3754448 L21.0908148,16.5921708 L21.0908148,17.1823843 L22.833239,17.6567616 L21.0908148,18.1311388 L21.0908148,18.7820285 L23.6510024,17.9987544 L24.9177341,17.9987544 L24.9177341,17.9987544 L24.9177341,17.9987544 Z M24.9177341,14.9318505 L24.9177341,14.2919929 L21.0908148,14.2919929 L21.0908148,14.8435943 L23.3837595,14.8435943 L21.0908148,15.483452 L21.0908148,16.26121 L24.9177341,16.26121 L24.9177341,15.7040925 L22.1437521,15.7040925 L24.9177341,14.9318505 L24.9177341,14.9318505 L24.9177341,14.9318505 Z M21.08547,11.9421708 L21.08547,12.8081851 L24.9123892,12.8081851 L24.9123892,12.2676157 L22.2078904,12.2676157 L24.9123892,11.8042705 L24.9123892,11.219573 L22.1651316,10.7893238 L24.9123892,10.7893238 L24.9123892,10.2046263 L21.08547,10.2046263 L21.08547,11.0706406 L23.8060034,11.4953737 L21.08547,11.9421708 L21.08547,11.9421708 L21.08547,11.9421708 Z M24.9177341,9.65854093 L24.9177341,9.03523132 L21.0908148,9.03523132 L21.0908148,9.65854093 L24.9177341,9.65854093 L24.9177341,9.65854093 L24.9177341,9.65854093 Z M21.08547,7.12117438 L21.08547,8.03131673 L24.9123892,8.66565836 L24.9123892,8.0975089 L24.2175575,7.99270463 L24.2175575,7.23149466 L24.9123892,7.12669039 L24.9123892,6.49786477 L21.08547,7.12117438 L21.08547,7.12117438 L21.08547,7.12117438 Z M21.7642671,7.60658363 L23.6991062,7.30871886 L23.6991062,7.9044484 L21.7642671,7.60658363 L21.7642671,7.60658363 L21.7642671,7.60658363 Z M22.0047858,6.18896797 C22.1597867,6.18896797 22.298753,6.16690391 22.4216848,6.1227758 C22.5446166,6.07864769 22.6515137,6.02348754 22.7477212,5.95177936 C22.8439287,5.88007117 22.9347913,5.80284698 23.0149642,5.71459075 C23.0951371,5.62633452 23.17531,5.54359431 23.250138,5.45533808 C23.324966,5.36708185 23.3997941,5.28985765 23.4799669,5.21814947 C23.554795,5.14644128 23.6403127,5.08576512 23.7311753,5.04163701 C23.8220379,4.9975089 23.9235903,4.97544484 24.0358323,4.97544484 C24.1266949,4.97544484 24.2015229,4.98647687 24.2549715,5.01405694 C24.3084201,5.04163701 24.351179,5.0747331 24.3725584,5.12437722 C24.3992827,5.17402135 24.4099725,5.22918149 24.4099725,5.29537367 C24.4099725,5.36156584 24.3992827,5.41672598 24.3725584,5.46637011 C24.3458341,5.51601423 24.3084201,5.54911032 24.2549715,5.57669039 C24.2015229,5.60427046 24.1266949,5.61530249 24.0358323,5.61530249 L23.6242781,5.61530249 L23.6242781,6.2 L23.9984183,6.2 C24.2015229,6.2 24.3779033,6.16690391 24.5222145,6.09519573 C24.6665257,6.02348754 24.7734229,5.92419929 24.8482509,5.78629893 C24.923079,5.64839858 24.960493,5.47740214 24.960493,5.27330961 C24.960493,5.06921708 24.923079,4.89822064 24.8482509,4.76032028 C24.7734229,4.62241993 24.6611808,4.51761566 24.5222145,4.45142349 C24.3832482,4.38523132 24.2015229,4.35765125 23.9984183,4.35765125 C23.8434174,4.35765125 23.704451,4.3797153 23.5815193,4.42384342 C23.4585875,4.46797153 23.3516903,4.52313167 23.2554828,4.60035587 C23.1592754,4.67206406 23.0684128,4.74928826 22.9882399,4.83754448 C22.908067,4.92580071 22.8278941,5.00854093 22.7530661,5.09679715 C22.678238,5.18505338 22.60341,5.26227758 22.5232371,5.33398577 C22.4484091,5.40569395 22.3628913,5.46637011 22.2720287,5.51049822 C22.1811661,5.55462633 22.0796138,5.57669039 21.9673718,5.57669039 C21.8337503,5.57669039 21.7375428,5.54911032 21.6734045,5.49395018 C21.614611,5.43879004 21.5878867,5.36156584 21.5878867,5.26227758 C21.5878867,5.16298932 21.614611,5.08576512 21.6734045,5.03060498 C21.7321979,4.97544484 21.8284054,4.95338078 21.9673718,4.94786477 L22.2078904,4.94786477 L22.2078904,4.36316726 L22.0047858,4.36316726 C21.8016811,4.36316726 21.6253008,4.39626335 21.4809896,4.46797153 C21.3366784,4.5341637 21.2297812,4.63896797 21.1549531,4.77686833 C21.0801251,4.91476868 21.0427111,5.08024911 21.0427111,5.28434164 C21.0427111,5.48291815 21.0801251,5.65391459 21.1549531,5.79181495 C21.2297812,5.9297153 21.3366784,6.02900356 21.4809896,6.10071174 C21.6253008,6.15587189 21.8016811,6.18896797 22.0047858,6.18896797 L22.0047858,6.18896797 L22.0047858,6.18896797 Z M21.6359905,4.08185053 L21.6359905,3.43647687 L24.9177341,3.43647687 L24.9177341,2.81316726 L21.6359905,2.81316726 L21.6359905,2.16227758 L21.0908148,2.16227758 L21.0908148,4.08185053 L21.6359905,4.08185053 L21.6359905,4.08185053 L21.6359905,4.08185053 Z M21.08547,0.634341637 L24.9177341,0 L24.9177341,0.628825623 L24.2229024,0.733629893 L24.2229024,1.49483986 L24.9177341,1.59964413 L24.9177341,2.16779359 L21.0908148,1.53345196 L21.0908148,0.634341637 L21.08547,0.634341637 L21.08547,0.634341637 Z M21.7642671,1.11975089 L23.6991062,1.41761566 L23.6991062,0.816370107 L21.7642671,1.11975089 L21.7642671,1.11975089 Z" id="Shape"></path>
                    </g>
                </g>
            </g>
        </g>
    </g>
</svg>