<?xml version="1.0" encoding="UTF-8"?>
<svg width="52px" height="25px" viewBox="0 0 52 25" version="1.1" xmlns="http://www.w3.org/2000/svg" xmlns:xlink="http://www.w3.org/1999/xlink">
    <!-- Generator: Sketch 40.3 (33839) - http://www.bohemiancoding.com/sketch -->
    <title>ps</title>
    <desc>Created with Sketch.</desc>
    <defs></defs>
    <g id="Screens" stroke="none" stroke-width="1" fill="none" fill-rule="evenodd">
        <g id="Desktop-Copy-4" transform="translate(-851.000000, -3084.000000)" fill="#000000">
            <g id="ps" transform="translate(851.000000, 3084.000000)">
                <g id="Layer_1">
                    <g id="Group">
                        <path d="M22.6485054,13.7165096 C22.4175256,13.7165096 22.224002,13.7990627 22.0616919,13.9641688 C21.8993818,14.1292749 21.8182267,14.3261323 21.8182267,14.561091 L21.8182267,19.9016394 C21.8182267,20.1365981 21.8993818,20.3334555 22.0616919,20.4985616 C22.224002,20.6636677 22.4175256,20.7398706 22.6485054,20.7398706 C22.8794852,20.7398706 23.0730088,20.6636677 23.235319,20.4985616 C23.3976291,20.3334555 23.4787842,20.1365981 23.4787842,19.9016394 L23.4787842,14.561091 C23.4787842,14.3261323 23.3976291,14.1292749 23.235319,13.9641688 C23.0730088,13.8054129 22.8794852,13.7165096 22.6485054,13.7165096 L22.6485054,13.7165096 Z" id="Shape"></path>
                        <polygon id="Shape" points="17.3109993 4.34356138 16.7803701 8.18545412 17.8478713 8.18545412"></polygon>
                        <path d="M13.9087294,6.48359089 C14.0710395,6.31848475 14.1459519,6.1152772 14.1459519,5.88666871 L14.1459519,4.45786562 C14.1459519,4.20385619 14.0710395,4.00064864 13.9212148,3.84189274 C13.77139,3.68313684 13.5716237,3.60693401 13.3219158,3.60693401 L12.4479382,3.60693401 L12.4479382,6.73125009 L13.3219158,6.73125009 C13.5466529,6.73125009 13.7464192,6.64869702 13.9087294,6.48359089 L13.9087294,6.48359089 Z" id="Shape"></path>
                        <polygon id="Shape" points="37.2813877 18.4601359 38.3551316 18.4601359 37.8182596 14.6182431"></polygon>
                        <polygon id="Shape" points="37.7121338 4.34356138 37.1752618 8.18545412 38.242763 8.18545412"></polygon>
                        <path d="M27.4990812,13.8816157 L26.6313462,13.8816157 L26.6313462,16.9995816 L27.4990812,16.9995816 C27.730061,16.9995816 27.9235846,16.9170285 28.0858947,16.7519224 C28.2482048,16.5868163 28.3293599,16.3836087 28.3293599,16.14865 L28.3293599,14.7325474 C28.3231172,14.1673764 28.0484385,13.8816157 27.4990812,13.8816157 L27.4990812,13.8816157 Z" id="Shape"></path>
                        <path d="M42.6251365,0 L8.70231989,0 L0,0 L8.72104799,5.96287154 L8.72104799,24.384906 L42.6188938,24.384906 L42.6188938,5.96287154 L51.3212137,0 L42.6251365,0 L42.6251365,0 Z M26.5626766,9.11258856 C26.6251035,9.67140932 26.7749283,10.0841747 27.0059081,10.3381841 C27.0246362,10.3572348 27.0371216,10.3826357 27.0558497,10.3953362 C27.2119171,10.5477419 27.399198,10.6302949 27.5989643,10.6175945 C27.9173419,10.604894 28.1670498,10.4524883 28.3605734,10.1413268 C28.4604565,9.98892112 28.5041554,9.7730131 28.5041554,9.49360272 C28.5041554,9.08718762 28.3168745,8.68712275 27.9610407,8.28705789 C27.9235846,8.24895647 27.8861284,8.21085506 27.8424295,8.17275364 C27.5677508,7.91239397 27.193189,7.55043052 26.718744,7.0868633 C26.7062586,7.07416283 26.6937732,7.06146236 26.6812878,7.04876188 C26.575162,6.94080787 26.4752788,6.8392041 26.3816384,6.74395056 C26.369153,6.73125009 26.3566676,6.71854961 26.3441822,6.70584914 C26.3254541,6.68679844 26.306726,6.66774773 26.2879979,6.64234678 C26.2567844,6.6105956 26.2255709,6.57249419 26.1943574,6.54074301 L26.1943574,6.54074301 C26.1506586,6.48994112 26.100717,6.432789 26.0632608,6.38198711 L26.0570181,6.37563687 C26.0195619,6.32483499 25.975863,6.2740331 25.9446496,6.22323121 C25.832281,6.07082555 25.7386405,5.92477012 25.6637282,5.7787147 C25.4514765,5.35959913 25.3453506,4.90238214 25.3453506,4.40706374 C25.3453506,3.51803071 25.6387574,2.8449057 26.2255709,2.39403895 C26.5876474,2.1209788 27.0371216,1.98127361 27.5739935,1.98127361 C28.0921374,1.98127361 28.5291262,2.10192809 28.8974453,2.33053659 C29.109697,2.47024178 29.296978,2.64169815 29.4468027,2.8639564 C29.4967443,2.933809 29.5466858,3.01636207 29.5903847,3.09891513 C29.7651802,3.42277717 29.8775488,3.80379132 29.9087623,4.22925713 L28.5291262,4.48326657 L28.5291262,4.44516515 L28.5228835,4.44516515 C28.4854273,4.064151 28.3730588,3.75298944 28.1920205,3.53073118 C28.1732925,3.51168047 28.1545644,3.49898 28.1358363,3.48627953 C28.0047396,3.36562504 27.8361868,3.30847292 27.6114497,3.30847292 C27.3492564,3.30847292 27.1432474,3.4291274 27.0059081,3.67043637 C26.8935395,3.86094345 26.8373553,4.10225241 26.8373553,4.38801303 C26.8373553,4.83252954 27.0246362,5.28974653 27.4054407,5.75331375 C27.4865958,5.85491753 27.5927216,5.96287154 27.7238183,6.08352602 C27.8174587,6.17242932 27.9298273,6.26768286 28.0546812,6.37563687 C28.2606902,6.55344348 28.429243,6.69949891 28.5478543,6.81380315 C28.6227667,6.88365575 28.6789509,6.93445764 28.7164071,6.97890929 C29.0722409,7.34087274 29.3469195,7.69648595 29.5466858,8.05209916 C29.6403263,8.21720529 29.7152387,8.36961096 29.7651802,8.50931615 C29.9025196,8.85857912 29.9774319,9.16974068 29.9774319,9.44280083 C29.9899173,10.1222761 29.8151218,10.7001475 29.4592881,11.1827655 C29.2283083,11.5129777 28.8974453,11.7415862 28.4666992,11.8749412 C28.2357194,11.9447938 27.9672834,11.9828952 27.6613913,11.9828952 C27.0995485,11.9828952 26.6313462,11.84319 26.2505417,11.5574294 C26.1381732,11.4685261 26.0258046,11.3732726 25.9321642,11.2589683 C25.769854,11.0748115 25.626272,10.8525532 25.5139034,10.604894 C25.3328652,10.2048291 25.2329821,9.74126192 25.2017686,9.22054257 L26.5626766,9.11258856 L26.5626766,9.11258856 Z M23.6161235,0.361963448 L24.2154224,0.971586097 L22.5985639,2.6162972 L21.9992649,2.00667455 L23.6161235,0.361963448 L23.6161235,0.361963448 Z M18.3160736,2.09557786 L18.3160736,2.09557786 L19.9204468,11.8749412 L19.9204468,11.8749412 L18.4034713,11.8749412 L18.0663657,9.58885626 L16.555633,9.58885626 L16.2060419,11.8749412 L14.7015519,11.8749412 L16.3308959,2.09557786 L18.3160736,2.09557786 L18.3160736,2.09557786 Z M11.0308459,11.8558905 L11.0308459,2.10827833 L11.0308459,2.09557786 L13.2782169,2.09557786 C13.9836417,2.09557786 14.5329991,2.33053659 14.9512598,2.78140334 C15.338307,3.21321938 15.5255879,3.77204014 15.5255879,4.43881492 L15.5255879,4.43881492 L15.5255879,5.85491753 L15.5255879,5.85491753 C15.5255879,6.49629136 15.3133362,7.04876188 14.8763474,7.50597887 C14.4331159,7.96319586 13.9087294,8.19180435 13.2844596,8.19180435 L12.472909,8.19180435 L12.472909,11.8558905 L12.472909,11.8749412 L11.0370886,11.8749412 L11.0370886,11.8558905 L11.0308459,11.8558905 Z M15.1572688,21.451097 C14.9200463,21.774959 14.5891834,22.0035675 14.1646799,22.1432727 C13.9337001,22.2131253 13.6652642,22.2512267 13.359372,22.2512267 C12.7975293,22.2512267 12.3230843,22.1115215 11.9547651,21.8257609 C11.6426303,21.5908022 11.3929224,21.2732904 11.2181269,20.8732255 C11.174428,20.7716217 11.1307291,20.670018 11.0932729,20.5620639 C10.9871471,20.2382019 10.9247201,19.8825887 10.8997493,19.4952243 L12.2731427,19.3936205 C12.2981135,19.64763 12.3418124,19.8571878 12.4042393,20.0476948 C12.4791517,20.2890038 12.5852776,20.4858611 12.7163742,20.6255663 C12.8911697,20.8160734 13.090936,20.9113269 13.3156731,20.9049767 C13.6340507,20.8922762 13.8837586,20.7335203 14.0772822,20.428709 C14.1709226,20.2763033 14.2208642,20.0603953 14.2208642,19.7809849 C14.2208642,19.6539802 14.2021361,19.5269755 14.1709226,19.3999708 C14.0960103,19.1205604 13.9337001,18.8475002 13.6839923,18.5744401 C13.3968282,18.2950297 12.9723248,17.8822644 12.3979966,17.3361441 C11.917309,16.8598764 11.5802033,16.4344106 11.380437,16.0660969 C11.2743111,15.8565391 11.1931561,15.6406311 11.1432145,15.4120226 C11.0870302,15.1834141 11.0620594,14.9484554 11.0620594,14.7007962 C11.0620594,13.8117631 11.3554662,13.1386381 11.9422797,12.6814212 C12.3043562,12.408361 12.7538304,12.2686558 13.2907023,12.2686558 C13.8026035,12.2686558 14.245835,12.3893103 14.6141541,12.6179188 C14.9013182,12.7957254 15.132298,13.0560851 15.3070935,13.3799471 C15.3757632,13.5006016 15.4319475,13.6339565 15.4756464,13.7673115 C15.5505587,13.99592 15.6005003,14.2435792 15.6192284,14.5102891 L14.2333496,14.7706488 L14.2333496,14.7452478 L14.2395923,14.7452478 C14.2271069,14.6182431 14.1958934,14.4658375 14.1646799,14.345183 C14.1084957,14.1356252 14.0210979,13.970519 13.9024867,13.8308139 C13.77139,13.672058 13.5778664,13.5895049 13.3281585,13.5895049 C13.0659652,13.5895049 12.8599562,13.7101594 12.7226169,13.9514683 C12.6102483,14.1419754 12.5540641,14.3832844 12.5540641,14.669045 C12.5540641,14.8659023 12.5915202,15.0627596 12.6601899,15.2596169 C12.7538304,15.5136264 12.9036551,15.7739861 13.1159068,16.0343457 C13.2594888,16.2058021 13.4717406,16.4217101 13.7589046,16.6566688 C14.0960103,16.9424295 14.3145047,17.1392868 14.4268732,17.253591 C14.782707,17.6155545 15.0573856,17.9775179 15.257152,18.3267809 C15.2821227,18.3712325 15.3008508,18.409334 15.3195789,18.4474354 C15.3320643,18.4664861 15.338307,18.491887 15.3507924,18.5109377 C15.3570351,18.5299884 15.3695205,18.5490392 15.3757632,18.5680899 C15.3757632,18.5680899 15.3757632,18.5744401 15.3820059,18.5744401 C15.4194621,18.6506429 15.4506756,18.7204955 15.4756464,18.7839979 C15.5131025,18.8729012 15.5380733,18.9554543 15.5692868,19.0380073 C15.6504419,19.2856665 15.6878981,19.514275 15.6941408,19.7174826 C15.6878981,20.3842573 15.5131025,20.9621288 15.1572688,21.451097 L15.1572688,21.451097 Z M20.8943075,22.098821 L19.1962939,22.098821 L17.6918039,18.1489743 L17.2735431,19.0380073 L17.2735431,22.098821 L15.8002666,22.098821 L15.7752958,22.098821 L15.7752958,12.3829601 L15.8002666,12.3829601 L17.2735431,12.3829601 L17.2735431,15.8565391 L19.009013,12.3829601 L20.5509592,12.3829601 L20.5509592,12.3829601 L18.5720242,16.3391571 L20.8943075,22.098821 L20.8943075,22.098821 L20.8943075,22.098821 Z M25.0769146,11.8749412 L25.0457012,11.8749412 L24.265364,11.8749412 L23.6660651,12.4782136 C23.8096471,12.5480662 23.9532291,12.6306193 24.0843258,12.732223 C24.1654809,12.7957254 24.2279078,12.865578 24.3028202,12.9417808 C24.7522944,13.3989978 24.9583034,13.9451181 24.9583034,14.5864919 L24.9583034,19.9079896 C24.9583034,20.5557137 24.7460517,21.1081842 24.2965775,21.5654012 C23.8471033,22.016268 23.3102313,22.2448765 22.6797189,22.2448765 C22.3238852,22.2448765 21.9992649,22.1750239 21.6996155,22.0289684 C21.4686357,21.9146642 21.256384,21.7622585 21.0628603,21.559051 C20.6196288,21.101834 20.4011344,20.5493635 20.4011344,19.9079896 L20.4011344,14.5864919 C20.4011344,13.9387679 20.6258715,13.3862973 21.0753457,12.9290804 C21.5185772,12.4782136 22.0554492,12.2559553 22.6734762,12.2496051 L23.3976291,11.519328 L21.5248199,5.60725833 L21.5248199,11.8749412 L20.0889996,11.8749412 L20.0889996,2.09557786 L21.6933728,2.09557786 L23.58491,8.65537157 L23.58491,2.09557786 L25.0831573,2.09557786 L25.0831573,11.8749412 L25.0769146,11.8749412 Z M30.0273735,22.098821 L28.4666992,22.098821 L27.5927216,18.4156842 L27.461625,18.4156842 L26.6438316,18.4156842 L26.6438316,22.098821 L25.2080113,22.098821 L25.2080113,12.3829601 L27.461625,12.3829601 C28.2669329,12.3829601 28.8599891,12.6115686 29.234551,13.0624353 C29.2532791,13.0878363 29.2782499,13.1132372 29.296978,13.1386381 C29.315706,13.1640391 29.3344341,13.18944 29.3531622,13.214841 C29.6028701,13.5895049 29.7464521,14.0784731 29.7464521,14.6880957 C29.7464521,14.6944459 29.7589375,14.7071464 29.7589375,14.7134967 L29.7589375,16.1295993 C29.7589375,16.821775 29.4842589,17.386946 28.9723577,17.8695639 L30.0273735,22.098821 L30.0273735,22.098821 L30.0273735,22.098821 Z M30.0710724,11.8558905 L30.0710724,2.09557786 L31.5068928,2.09557786 L31.5068928,5.57550715 L33.2985469,2.09557786 L33.2985469,2.09557786 L33.2985469,2.09557786 L34.8404931,2.09557786 L32.8615581,6.07717579 L35.1276571,11.7034848 L36.7257876,2.09557786 L36.7507584,2.09557786 L38.7109653,2.09557786 L40.3215812,11.8749412 L40.3090958,11.8749412 L38.7983631,11.8749412 L38.4612574,9.58885626 L36.9505247,9.58885626 L36.6009337,11.8749412 L35.1775987,11.8749412 L35.0964436,11.8749412 L33.4795851,11.8749412 L31.9501243,7.90604373 L31.5068928,8.76332558 L31.5068928,11.8749412 L30.0710724,11.8749412 L30.0710724,11.8558905 L30.0710724,11.8558905 Z M38.9357024,22.098821 L38.9357024,22.1305722 L38.5673833,19.8762385 L37.0628933,19.8762385 L36.7133022,22.098821 L36.7133022,22.098821 L35.29621,22.098821 L35.29621,22.098821 L35.2088122,22.098821 L35.2088122,22.098821 L33.5857109,22.098821 L33.5857109,22.098821 L32.0687355,18.1553245 L31.6379894,19.0443576 L31.6379894,22.098821 L30.202169,22.098821 L30.202169,12.3829601 L31.6379894,12.3829601 L31.6379894,15.8565391 L33.4109154,12.3829601 L34.9528616,12.3829601 L32.9739266,16.3582078 L35.233783,21.9845168 L36.8319135,12.3829601 L36.8131854,12.3829601 L36.8131854,12.3766098 L36.8319135,12.3829601 L38.8233339,12.3829601 L40.4277071,22.098821 L38.9357024,22.098821 L38.9357024,22.098821 Z" id="Shape"></path>
                    </g>
                </g>
            </g>
        </g>
    </g>
</svg>