<?xml version="1.0" encoding="UTF-8"?>
<svg width="58px" height="29px" viewBox="0 0 58 29" version="1.1" xmlns="http://www.w3.org/2000/svg" xmlns:xlink="http://www.w3.org/1999/xlink">
    <!-- Generator: Sketch 40.3 (33839) - http://www.bohemiancoding.com/sketch -->
    <title>tsc</title>
    <desc>Created with Sketch.</desc>
    <defs></defs>
    <g id="Screens" stroke="none" stroke-width="1" fill="none" fill-rule="evenodd">
        <g id="Desktop-Copy-4" transform="translate(-616.000000, -3008.000000)" fill="#000000">
            <g id="tsc" transform="translate(616.000000, 3008.000000)">
                <g id="Layer_1">
                    <g id="Group">
                        <path d="M52.8387641,5.86613255 C51.3069768,4.5136631 50.217355,2.94936109 48.7961091,1.64577608 C48.7803175,1.79242939 48.75663,1.92278789 48.75663,2.05314639 L48.75663,5.14101339 C48.75663,5.51579408 48.590818,5.66244739 48.259194,5.59726814 C48.1012778,5.56467852 47.9986322,5.47505705 47.9907364,5.29581411 L47.9907364,5.10027636 L47.9907364,0.301454034 C47.9907364,0.219979971 48.006528,0.138505907 48.0302155,-1.08200722e-15 C48.8671714,0.586613255 49.3646074,1.43394351 50.0278555,2.10203083 C50.6989994,2.77826555 51.3464559,3.46264769 52.0728705,4.21220907 L52.0728705,3.51153212 L52.0728705,0.61920288 C52.0728705,0.277011815 52.2228909,0.146653314 52.5387233,0.195537752 C52.7203269,0.219979971 52.8387641,0.317748846 52.8387641,0.529581411 C52.8387641,2.25683155 52.8387641,3.98408169 52.8387641,5.86613255 L52.8387641,5.86613255 Z" id="Shape"></path>
                        <path d="M19.9132342,4.22035647 L19.9132342,0.211832564 L20.5212116,0.211832564 L20.5212116,5.63800517 C19.2341945,4.30997794 17.9234899,2.95750849 16.6522644,1.64577608 C16.5259314,1.66207089 16.5101398,1.66207089 16.502244,1.6702183 C16.4864524,1.6783657 16.462765,1.70280792 16.462765,1.71910273 L16.462765,5.56467852 L15.8389959,5.56467852 L15.8389959,0.114063688 C15.8468917,0.105916282 15.8626834,0.0814740632 15.878475,0.0733266569 C15.8863708,0.0733266569 15.9100582,0.0896214695 15.9258498,0.0977688758 C17.2365544,1.45023832 18.5393631,2.80270777 19.9132342,4.22035647 L19.9132342,4.22035647 Z" id="Shape"></path>
                        <path d="M35.4679809,11.390074 L35.4679809,16.9791948 C34.0941099,15.5615461 32.7755095,14.2009292 31.4016385,12.7832805 L31.4016385,16.783657 L30.7778694,16.783657 L30.7778694,11.3167474 C32.088574,12.6692168 33.4071744,14.0298337 34.796837,15.4637772 C34.8205244,15.2030602 34.8363161,15.0727017 34.8363161,14.9341958 L34.8363161,11.9766873 C34.8442119,11.4145163 34.8521077,11.4145163 35.4679809,11.390074 L35.4679809,11.390074 Z" id="Shape"></path>
                        <path d="M41.9109623,12.9625235 C41.7451503,12.7914279 41.5635466,12.6040376 41.381943,12.4166472 C41.2950891,12.3270258 41.2003394,12.2374043 41.089798,12.1885199 C40.923986,12.1233406 40.7502782,12.0744562 40.5686745,12.0581614 C40.3791751,12.0337191 40.1817798,12.0826036 39.9922803,12.0500139 C39.4790527,11.9522451 39.0684705,12.2048147 38.7052632,12.4981213 C38.3025769,12.8240175 38.0814942,13.3210093 38.0341193,13.8424433 C38.0025361,14.2742559 37.9709528,14.7142158 38.2394104,15.1378809 C38.4131182,15.4148928 38.6026177,15.700052 38.8552836,15.8467053 C39.2816574,16.0911275 39.7238228,16.3844341 40.2765295,16.2785178 C40.923986,16.1563067 41.4530053,15.8955897 41.7767335,15.2519446 C41.8635874,15.0727017 41.8241084,14.917901 41.8635874,14.7060684 C41.6109215,14.697921 41.3582556,14.6897736 41.1134854,14.6897736 L40.339696,14.6897736 L40.339696,14.0624233 L42.6057936,14.0624233 C42.6926475,15.178618 42.2820654,16.0503904 41.3424639,16.5799719 C40.6792159,16.9547526 39.9370097,17.1177007 39.1948035,16.7510674 C38.8000129,16.5555296 38.3894308,16.3762867 38.0814942,16.0178008 C37.6472246,15.5126616 37.4024545,14.9504906 37.3787671,14.2742559 C37.3629754,13.7365271 37.465621,13.2558301 37.7498701,12.7832805 C38.1683481,12.0744562 39.0684705,11.3982214 39.9370097,11.3982214 C40.5212996,11.3982214 41.0819022,11.4308111 41.5635466,11.8055918 C41.8477958,12.0255717 42.1083576,12.2699939 42.3926067,12.5062687 C42.2188989,12.6610694 42.0688785,12.8158701 41.9109623,12.9625235 L41.9109623,12.9625235 Z" id="Shape"></path>
                        <path d="M14.1966673,11.3982214 C14.9941442,11.2678629 15.5784342,11.7567073 16.1390367,12.2048147 C16.5101398,12.5062687 16.6917435,12.9951131 16.8338681,13.4758101 C16.9049303,13.7120848 16.9759926,13.9728018 16.9523052,14.2090766 C16.920722,14.5512677 16.8338681,14.9016062 16.6996393,15.2112076 C16.5101398,15.6430201 16.210099,16.0096534 15.8468917,16.2866652 C15.2547059,16.7510674 14.5598746,17.044374 13.8176684,16.9058681 C12.9333376,16.74292 12.1200692,16.3436971 11.6857996,15.4637772 C11.4252378,14.9504906 11.2752174,14.3720247 11.3541755,13.7691167 C11.4094462,13.3373041 11.5515708,12.913639 11.8042367,12.5877428 C12.4122142,11.8218866 13.1544203,11.2923052 14.1966673,11.3982214 L14.1966673,11.3982214 Z M14.1492925,12.0581614 C13.2965449,11.9522451 12.6727759,12.392205 12.2542979,13.1417664 C11.7252786,14.0950129 11.9384655,14.9260484 12.6727759,15.6919046 C13.0675664,16.0992749 13.6044815,16.3111075 14.212459,16.2785178 C15.00204,16.2377808 15.5389551,15.8467053 15.9495373,15.178618 C16.1311409,14.8853113 16.2495781,14.5838573 16.2022032,14.2335188 C16.1627242,13.9402122 16.2574739,13.6469056 16.1232451,13.3454516 C15.752142,12.4736791 15.1520604,11.9766873 14.1492925,12.0581614 L14.1492925,12.0581614 Z" id="Shape"></path>
                        <path d="M9.17493184,28.1166992 C7.73789432,28.0841096 6.8219803,27.2449267 6.41139815,25.9494891 C6.30875261,25.6317403 6.31664842,25.2406648 6.39560653,24.9147685 C6.63248085,23.961522 6.92462584,23.4971198 7.8010608,22.9105066 C8.04583093,22.7475584 8.38535078,22.8045903 8.6222251,22.5846103 C9.49866007,22.5275785 10.3435118,22.6090525 10.9988641,23.3260243 C11.0699264,23.4074984 11.1409887,23.4889724 11.2278426,23.5541517 C11.543675,23.8148687 11.7252786,24.1489123 11.8121326,24.5562826 C11.875299,24.8577367 12.0253194,25.1673381 11.9858404,25.4524973 C11.9305697,25.8680151 11.8279242,26.3242698 11.6068415,26.6583135 C11.0225515,27.5219385 10.2882411,28.1737311 9.17493184,28.1166992 L9.17493184,28.1166992 Z M11.2041551,25.3873181 C11.3225923,24.8658841 11.1173012,24.4503664 10.8567395,24.0185538 C10.6435526,23.660068 10.2882411,23.5541517 9.98820032,23.3830561 C9.51445169,23.1141917 8.96174495,23.1712236 8.46430889,23.2852873 C7.95897702,23.4074984 7.52470744,23.7904265 7.28783312,24.2548286 C6.69564733,25.4117603 7.04306299,26.5605446 8.06162255,27.1878949 C8.24322619,27.3019586 8.44851727,27.4160223 8.65380834,27.4404645 C8.96964076,27.4812015 9.30916062,27.5137911 9.60130561,27.4404645 C10.0592626,27.3182534 10.5409071,27.1390105 10.8251562,26.7153453 C11.1015096,26.3324172 11.3857588,25.9168995 11.2041551,25.3873181 L11.2041551,25.3873181 Z" id="Shape"></path>
                        <path d="M8.80382874,16.7592148 L8.80382874,14.3149929 C7.96687283,14.2661085 7.12991691,14.3068455 6.26927356,14.2905507 L6.26927356,16.7673622 L5.62971291,16.7673622 L5.62971291,11.4145163 C5.71656682,11.4063688 5.81921236,11.3982214 5.91396209,11.3982214 C6.14294059,11.3982214 6.25348194,11.5122851 6.25348194,11.7567073 C6.24558613,12.2618465 6.25348194,12.7669857 6.25348194,13.2721249 L6.25348194,13.614316 L8.80382874,13.614316 L8.80382874,11.9522451 C8.80382874,11.4145163 8.81172455,11.4145163 9.41970196,11.4145163 L9.41970196,16.7673622 C9.20651508,16.7592148 9.00911982,16.7592148 8.80382874,16.7592148 L8.80382874,16.7592148 Z" id="Shape"></path>
                        <path d="M38.3104727,0.187390345 C38.8631794,0.228127377 39.3921987,0.138505907 39.9291139,0.30960144 C40.1659882,0.382928097 40.3870709,0.448107348 40.5686745,0.635497693 C40.6871117,0.757708788 40.8055488,0.879919882 40.9318818,1.01027838 C41.0661106,2.41163227 41.1687561,2.46051671 39.8185725,3.28340475 C40.339696,4.01667132 40.8529237,4.74993788 41.3977346,5.52394148 C41.1292771,5.64615258 40.8845069,5.56467852 40.6555284,5.59726814 C40.1028217,4.79067492 39.5659066,4.0003765 38.9342417,3.07971959 L38.9342417,5.58097333 L38.3104727,5.58097333 L38.3104727,0.187390345 L38.3104727,0.187390345 Z M38.9421375,2.7130863 C39.2184909,2.66420187 39.423782,2.68864409 39.6527605,2.59087521 C40.3318002,2.29756858 40.3475918,2.33015821 40.3318002,1.64577608 C40.3318002,1.47468054 40.3712792,1.31173242 40.2054672,1.17322651 C40.0317594,1.0265732 39.8580516,0.879919882 39.6290731,0.86362507 C39.4000945,0.847330257 39.171116,0.86362507 38.9421375,0.86362507 L38.9421375,2.7130863 L38.9421375,2.7130863 Z" id="Shape"></path>
                        <path d="M6.45877301,3.29969956 C6.97989651,4.09814538 7.54049906,4.75808529 7.97476864,5.56467852 C7.52470744,5.62985777 7.24835407,5.60541555 7.00358394,5.16545561 C6.66406409,4.55440013 6.19031546,4.02481872 5.77973331,3.45450028 C5.73235845,3.38932103 5.72446263,3.30784697 5.7007752,3.2263729 C5.67708777,3.25081512 5.65340034,3.25896253 5.64550453,3.27525734 C5.63760872,3.29155215 5.6218171,3.30784697 5.6218171,3.33228918 L5.6218171,5.58097333 L5.03752712,5.58097333 C5.02963131,5.57282592 4.99015226,5.5402363 4.99015226,5.50764667 L4.99015226,0.513286598 L4.99015226,0.203685158 C5.37704697,0.203685158 5.75604588,0.171095533 6.12714897,0.211832564 C6.56141855,0.260717002 7.01937556,0.39922291 7.31152055,0.716971756 C7.65893621,1.10804726 7.77737337,1.61318645 7.61945716,2.17535749 C7.50102,2.59087521 7.2720415,2.85973962 6.9009384,3.03898256 C6.74302219,3.10416181 6.61668922,3.20193068 6.45877301,3.29969956 L6.45877301,3.29969956 Z M5.63760872,0.879919882 L5.63760872,2.7049389 C6.18241965,2.64790705 6.71143895,2.61531743 7.01937556,2.06944121 C7.11412529,1.18137392 6.71933476,0.70882435 5.63760872,0.879919882 L5.63760872,0.879919882 Z" id="Shape"></path>
                        <path d="M43.924394,4.94547564 L45.922034,4.94547564 L45.922034,5.59726814 C45.0929739,5.59726814 44.2481222,5.60541555 43.4111663,5.58097333 C43.3164166,5.58097333 43.2058752,5.4098778 43.1427087,5.29581411 C43.1032297,5.23063486 43.1348129,5.12471857 43.1348129,5.03509711 L43.1348129,0.757708788 L43.1348129,0.562171036 C43.1506046,0.293306627 43.2453543,0.195537752 43.5217076,0.195537752 C44.3112887,0.187390345 45.0929739,0.195537752 45.9062424,0.195537752 L45.9062424,0.839182851 L43.924394,0.839182851 L43.924394,2.28942118 L45.9141382,2.28942118 L45.9141382,2.95750849 L43.9164982,2.95750849 C43.924394,3.61744841 43.924394,4.24479869 43.924394,4.94547564 L43.924394,4.94547564 Z" id="Shape"></path>
                        <path d="M14.2282506,5.58097333 L13.4781486,5.58097333 C13.3676072,5.31210892 13.2570659,5.05139192 13.1465245,4.79067492 C13.0596706,4.58698976 13.0122958,4.30997794 12.8543795,4.21220907 C12.6806717,4.10629278 12.4122142,4.15517722 12.1832356,4.15517722 C11.6779038,4.14702982 11.1646761,4.15517722 10.6593442,4.15517722 C10.4777406,4.52181051 10.2645537,4.87214898 10.1224291,5.24692967 C10.0118878,5.5483837 9.85397154,5.64615258 9.56972236,5.60541555 C9.49076426,5.59726814 9.41180615,5.60541555 9.26968156,5.60541555 C9.38811872,5.34469855 9.48286845,5.14916079 9.57761817,4.95362304 C10.0750542,3.85372319 10.5724903,2.75382334 11.0541347,1.63762867 C11.1646761,1.37691167 11.2357384,1.09989985 11.3620714,0.847330257 C11.4884043,0.594760661 11.6226331,0.342191065 11.7884451,-4.99387946e-16 C11.9463613,0.46440216 12.167444,0.790298413 12.2858812,1.19766873 C12.3964225,1.57244942 12.6806717,1.89834567 12.7596298,2.30571599 C12.7675256,2.33015821 12.751734,2.35460043 12.7596298,2.37089524 C13.2807533,3.2182255 13.5255234,4.18776685 13.9755846,5.07583414 C14.0466469,5.22248745 14.1177092,5.36099336 14.2282506,5.58097333 L14.2282506,5.58097333 Z M12.5227555,3.4789425 C12.42011,2.90047665 11.9463613,1.85760864 11.670008,1.62133386 C11.4805085,2.26497896 11.125197,2.81900259 10.9672808,3.4789425 L12.5227555,3.4789425 L12.5227555,3.4789425 Z" id="Shape"></path>
                        <path d="M31.9069704,5.58912074 C31.9069704,5.45876223 31.8832829,5.36099336 31.9148662,5.2876667 C32.2228028,4.60328457 32.5386352,3.92704985 32.8465718,3.25081512 C33.004488,2.90047665 33.1781959,2.55828558 33.3124246,2.19979971 C33.4308618,1.85760864 33.6440487,1.56430201 33.7309026,1.18952132 C33.8098607,0.806593226 34.0862141,0.472549567 34.2915051,0.0733266569 C34.6941915,0.602908068 34.8442119,1.25470057 35.1047736,1.84946123 C35.3732312,2.46051671 35.6337929,3.07157218 35.8943547,3.68262766 C36.1549164,4.29368313 36.4154782,4.91288601 36.715519,5.58097333 C36.4786447,5.58912074 36.3128326,5.62171036 36.1549164,5.59726814 C36.0680625,5.58912074 35.9180421,5.50764667 35.9101463,5.44246742 C35.8627714,5.04324451 35.5706264,4.74993788 35.4837725,4.36700979 C35.4679809,4.30997794 35.4679809,4.24479869 35.4600851,4.17147204 L33.1229252,4.17147204 C33.0360713,4.3833046 32.965009,4.59513716 32.8781551,4.79882232 C32.838676,4.88844379 32.7834053,4.97806526 32.7439263,5.06768673 C32.5149478,5.59726814 32.5149478,5.59726814 31.9069704,5.58912074 L31.9069704,5.58912074 Z M34.2757135,1.49097536 C33.9914643,2.17535749 33.7230068,2.81085518 33.4466534,3.47079509 L35.1284611,3.47079509 C34.8442119,2.80270777 34.5757543,2.17535749 34.2757135,1.49097536 L34.2757135,1.49097536 Z" id="Shape"></path>
                        <path d="M23.9795766,22.739411 C23.9874724,22.8208851 23.9953682,22.8860644 23.9953682,22.9512436 C23.9716808,23.2934347 23.9006185,23.3749087 23.5926819,23.3749087 C23.0241835,23.3830561 22.4477893,23.3749087 21.8477077,23.3749087 L21.8477077,24.8169996 L23.9874724,24.8169996 C23.9874724,24.9229159 23.9953682,25.00439 23.9874724,25.0777167 C23.9558892,25.3791707 23.8848269,25.4769396 23.6242651,25.4769396 C23.1110374,25.485087 22.6057056,25.4769396 22.0924779,25.4769396 L21.8319161,25.4769396 L21.8319161,27.3182534 L23.4505573,27.3182534 C23.9558892,27.3182534 23.9716808,27.3345482 23.963785,27.9537511 L21.1923555,27.9537511 C21.1528764,27.1145682 21.1765638,26.2427958 21.1765638,25.3791707 C21.168668,24.5073982 21.1765638,23.6274783 21.1765638,22.7312636 C22.1161653,22.739411 23.0241835,22.739411 23.9795766,22.739411 L23.9795766,22.739411 Z" id="Shape"></path>
                        <path d="M45.4482854,23.3830561 L45.4482854,24.8169996 L47.4617171,24.8169996 C47.4696129,24.9392107 47.4775087,25.0369796 47.4775087,25.1428959 C47.4775087,25.3791707 47.3669674,25.4932344 47.1300931,25.4932344 L45.4561812,25.4932344 L45.4561812,27.310106 C45.716743,27.3671378 46.008888,27.3264008 46.2931371,27.3345482 C46.5458031,27.3426956 46.8063648,27.3345482 47.0590308,27.3345482 C47.5880501,27.3426956 47.5880501,27.3426956 47.5959459,27.9618985 L44.8087248,27.9618985 L44.8087248,22.7475584 L47.6038417,22.7475584 C47.6038417,22.8371799 47.6117375,22.918654 47.6038417,23.000128 C47.5722584,23.2934347 47.5011962,23.3749087 47.216947,23.3749087 C46.6484486,23.3830561 46.0720544,23.3830561 45.4482854,23.3830561 L45.4482854,23.3830561 Z" id="Shape"></path>
                        <path d="M30.1225172,23.8230161 C29.9093303,23.7252472 29.7593099,23.700805 29.6566644,23.6111835 C29.2066032,23.2526976 28.6854797,23.1956658 28.1485645,23.2445502 C27.6195452,23.2852873 27.1773798,23.5378569 26.8457558,23.9452272 C26.6641522,24.1733545 26.4746527,24.4666612 26.4430695,24.7518204 C26.3877988,25.2569596 26.3246323,25.8028358 26.5694024,26.267238 C26.7273186,26.5768394 26.9010265,26.8864409 27.256338,27.0982734 C27.7853573,27.4323171 28.3222724,27.4893489 28.8986665,27.4486119 C29.0486869,27.4404645 29.1987073,27.350843 29.3408319,27.2775164 C29.5856021,27.1553053 29.8224764,27.0249468 30.0830381,26.8864409 C30.1541004,27.5871178 30.1462046,27.5789704 29.6329769,27.8478348 C28.6223132,28.3692688 27.3195044,28.1248466 26.6167773,27.3182534 C26.379903,27.049389 26.0798622,26.829409 25.9456334,26.4872179 C25.8193004,26.1694691 25.756134,25.8191306 25.6850717,25.485087 C25.629801,25.2080752 25.7482381,24.8740315 25.8429879,24.5807249 C26.1588203,23.5378569 26.9089223,22.9023592 27.8880028,22.6253473 C28.6065216,22.4216622 29.3408319,22.6171999 29.9882884,23.0327177 C30.0593507,23.0816021 30.1146214,23.2038132 30.130413,23.2934347 C30.1383088,23.4482354 30.1225172,23.5948887 30.1225172,23.8230161 L30.1225172,23.8230161 Z" id="Shape"></path>
                        <path d="M0.268457558,15.5126616 C0.457957011,15.439335 0.623769032,15.3823031 0.829060106,15.3008291 C0.994872127,15.7652312 1.2001632,16.1726015 1.68970345,16.262223 C2.14766046,16.3518445 2.41611802,16.2133386 2.92934571,15.6837572 L2.92934571,14.8934588 C2.73195044,14.5594151 2.36084735,14.4697936 2.04501493,14.2905507 C1.61864116,14.0542759 1.15278834,13.8994752 0.829060106,13.5002523 C0.655352274,13.2884197 0.505331874,13.0765871 0.513227685,12.7751331 C0.521123495,12.5551531 0.702727137,12.0826036 0.821164295,11.9196554 C1.29491293,11.2923052 2.13186884,11.2515681 2.84249179,11.5367273 C3.07936611,11.6344962 3.23728232,11.9685399 3.45836501,12.2292569 C3.38730272,12.2618465 3.3004488,12.2862887 3.23728232,12.3351732 C3.1504284,12.4003524 3.08726192,12.4899739 3.000408,12.571448 C2.84249179,12.392205 2.68457558,12.2211095 2.52665937,12.0418665 L2.06870236,12.0418665 C1.43703752,12.0418665 1.28701712,12.1803724 1.15278834,12.8566072 C1.42914171,13.3617464 1.93447358,13.5409893 2.38453478,13.7283796 C2.82670017,13.9076226 3.15832421,14.1846344 3.47415663,14.5105307 C3.56101055,14.6082995 3.61628122,15.2112076 3.61628122,15.3660083 C3.6004896,15.8222631 3.41099015,16.180749 3.06357449,16.4496134 C2.31347249,17.0280792 1.73707832,17.0362266 1.01066375,16.6125615 C0.576394169,16.3599919 0.473748632,15.9363268 0.268457558,15.5126616 L0.268457558,15.5126616 Z" id="Shape"></path>
                        <path d="M4.57957011,23.1630762 L4.57957011,23.8963427 C4.24005026,23.700805 3.97948851,23.4319406 3.6004896,23.3260243 C3.01619962,23.1712236 2.27399343,23.2119606 1.79234899,23.5704465 C1.50809981,23.782279 1.27912131,24.0348486 1.10541347,24.3770397 C0.947497264,24.6947886 0.915914022,24.9962426 0.876434969,25.3384337 C0.765893621,26.2998276 1.57916211,27.1960423 2.35295154,27.4241697 C3.06357449,27.6278548 3.8215723,27.4974963 4.41375809,26.9190305 C4.45323714,26.8782934 4.49271619,26.8538512 4.56377849,26.788672 L4.56377849,27.5463808 C3.46626082,28.4670377 1.76866156,28.3040896 0.789581053,27.0412416 C6.9388939e-16,26.0309632 0.0552706737,24.6703463 0.781685243,23.6926576 C1.75286994,22.4053674 3.44257339,22.2342718 4.57957011,23.1630762 L4.57957011,23.1630762 Z" id="Shape"></path>
                        <path d="M22.4556851,4.28553572 C22.629393,4.22850388 22.8188924,4.17147204 23.0083919,4.10629278 C23.1899955,4.42404163 23.2610578,4.79067492 23.5768902,4.92918082 C23.7900771,5.0269497 24.0743263,5.11657117 24.2796174,5.04324451 C24.4928043,4.96991785 24.7454702,4.95362304 24.919178,4.72549567 C25.1560524,4.40774682 25.1639482,4.06555575 25.1481565,3.69892247 C24.8481157,3.32414178 24.4691168,3.0960144 23.9953682,2.94936109 C23.5689944,2.81900259 23.1820997,2.54199077 22.9136422,2.16721008 C22.6846637,1.84946123 22.6609762,1.49912276 22.795205,1.09989985 C22.961017,0.594760661 23.3242243,0.358485878 23.7584939,0.203685158 C24.3033048,0.00814740632 24.919178,0.171095533 25.337656,0.594760661 C25.4403015,0.700676943 25.5508429,0.814740632 25.66928,0.936951727 C25.6061136,0.993983571 25.5429471,1.05101542 25.4797806,1.10804726 C25.2508021,1.30358501 25.1639482,1.31173242 24.9586571,1.12434207 C24.9270738,1.09989985 24.9033864,1.05101542 24.8639074,1.0347206 C24.6901995,0.92880432 24.5322833,0.765856194 24.3506797,0.749561381 C24.1453886,0.725119162 23.9164101,0.798445819 23.7032232,0.871772476 C23.505828,0.936951727 23.3873908,1.25470057 23.3558076,1.69466051 C23.6400567,2.09388342 24.0348473,2.31386339 24.4928043,2.4523693 C24.9270738,2.5827278 25.3060728,2.85159221 25.5745303,3.23452031 C25.8666753,3.64189062 25.8271962,4.09814538 25.7087591,4.56254754 C25.503468,5.34469855 24.8402199,5.51579408 24.2243467,5.73577405 C24.1217012,5.76836367 23.9874724,5.71133183 23.8690352,5.6787422 C23.213683,5.48320445 22.6451846,5.17360301 22.4556851,4.28553572 L22.4556851,4.28553572 Z" id="Shape"></path>
                        <path d="M27.714295,0.203685158 C28.1564604,0.203685158 28.5828341,0.171095533 29.0013121,0.211832564 C29.9172261,0.293306627 30.4778286,0.749561381 30.5094119,1.78428198 C30.5173077,2.17535749 30.4067664,2.47681152 30.1462046,2.75382334 C29.8619554,3.05527737 29.5382272,3.23452031 29.127645,3.23452031 L28.3538556,3.23452031 L28.3538556,5.57282592 L27.714295,5.57282592 L27.714295,0.203685158 L27.714295,0.203685158 Z M28.3459598,2.56643299 L29.41979,2.56643299 C29.5619146,2.41163227 29.711935,2.25683155 29.8619554,2.09388342 L29.8619554,1.32802723 C29.4750607,0.741413975 28.9065624,0.839182851 28.338064,0.86362507 C28.3459598,1.44209092 28.3459598,1.97981974 28.3459598,2.56643299 L28.3459598,2.56643299 Z" id="Shape"></path>
                        <path d="M23.9795766,14.5594151 L23.9795766,16.783657 L23.3558076,16.783657 L23.3558076,16.001506 L23.3558076,11.8544762 C23.3558076,11.4796955 23.4347657,11.4063688 23.7821813,11.3982214 C24.0190556,11.390074 24.2480341,11.3819266 24.4849085,11.3982214 C24.7059912,11.4226637 24.919178,11.4715481 25.1323649,11.5285799 C25.8271962,11.6915281 26.3246323,12.652922 26.0956538,13.3780412 C25.8903627,14.0216863 25.503468,14.3801722 24.8165325,14.4534988 C24.5717624,14.4697936 24.3112006,14.5512677 23.9795766,14.5594151 L23.9795766,14.5594151 Z M24.003264,13.8831804 C24.6428247,13.9402122 25.1639482,13.8180011 25.5271554,13.2802723 L25.5271554,12.8973442 C25.5113638,12.4818265 25.3613434,12.3351732 24.9586571,12.172225 C24.6428247,12.0418665 24.3348881,12.0418665 24.003264,12.0581614 L24.003264,13.8831804 L24.003264,13.8831804 Z" id="Shape"></path>
                        <path d="M19.3842149,14.5757099 L19.3842149,16.7755096 L18.7604458,16.7755096 L18.7604458,15.1460283 L18.7604458,11.8544762 C18.7604458,11.4796955 18.8315081,11.3982214 19.1868196,11.390074 C19.4236939,11.3819266 19.6526724,11.3737792 19.8895467,11.390074 C20.1106294,11.4145163 20.3238163,11.4634007 20.5370032,11.5204325 C21.2318345,11.6833807 21.7055831,12.6366272 21.5081879,13.3698938 C21.3660633,13.8913278 21.0265434,14.217224 20.5922739,14.396467 C20.252754,14.5512677 19.8342761,14.5186781 19.3842149,14.5757099 L19.3842149,14.5757099 Z M20.9317937,13.2802723 L20.9317937,12.9299338 C20.9160021,12.5225635 20.7580859,12.2944361 20.3948786,12.1803724 C20.0711504,12.0826036 19.7395263,11.9603925 19.4236939,12.0826036 L19.4236939,13.8831804 C20.0237755,13.9402122 20.544899,13.8342959 20.9317937,13.2802723 L20.9317937,13.2802723 Z" id="Shape"></path>
                        <path d="M38.8079088,22.7231162 L39.5264275,22.7231162 C40.008072,23.9941116 40.4897164,25.2732544 40.9950483,26.6175764 C41.4924843,25.2732544 41.966233,24.0104064 42.4399816,22.7312636 L43.1348129,22.7312636 C42.4320858,24.5807249 41.7293587,26.4138913 41.0029441,28.3285318 C40.1896756,26.4627757 39.6053856,24.5725775 38.8079088,22.7231162 L38.8079088,22.7231162 Z" id="Shape"></path>
                        <path d="M1.27912131,0.855477664 C0.947497264,0.855477664 0.655352274,0.86362507 0.363207284,0.855477664 C0.118437158,0.847330257 0,0.733266569 0,0.521434004 C0,0.325896253 0.126332968,0.203685158 0.371103095,0.203685158 C1.23964225,0.195537752 2.10818141,0.203685158 2.97672057,0.195537752 C3.15832421,0.195537752 3.26886556,0.293306627 3.3004488,0.431812535 C3.32413623,0.529581411 3.26886556,0.684382131 3.19780327,0.765856194 C3.14253259,0.831035445 3.01619962,0.847330257 2.9214499,0.855477664 C2.64509653,0.86362507 2.36874316,0.855477664 2.03711912,0.855477664 L2.03711912,1.42579611 L2.03711912,4.83955935 C2.03711912,4.96991785 2.04501493,5.10027636 2.03711912,5.23063486 C2.0213275,5.49949927 1.91078615,5.59726814 1.64232859,5.58912074 C1.38176684,5.58097333 1.27912131,5.47505705 1.27912131,5.19804523 L1.27912131,1.52356498 C1.27912131,1.31173242 1.27912131,1.09989985 1.27912131,0.855477664 L1.27912131,0.855477664 Z" id="Shape"></path>
                        <path d="M55.7917972,0.855477664 L54.5205717,0.855477664 L54.5205717,0.228127377 L57.6710001,0.228127377 L57.6710001,0.839182851 L56.4313579,0.839182851 L56.4313579,5.56467852 L55.7917972,5.56467852 C55.7917972,4.02481872 55.7917972,2.47681152 55.7917972,0.855477664 L55.7917972,0.855477664 Z" id="Shape"></path>
                        <path d="M34.8205244,23.3830561 L33.5650906,23.3830561 L33.5650906,27.9781933 L32.9334257,27.9781933 L32.9334257,23.3830561 L32.2070112,23.3830561 C31.670096,23.3749087 31.670096,23.3749087 31.6543044,22.7557059 L34.8205244,22.7557059 C34.8205244,22.9268014 34.8205244,23.1223391 34.8205244,23.3830561 L34.8205244,23.3830561 Z" id="Shape"></path>
                        <path d="M14.4019584,27.3264008 L15.8074127,27.3264008 L15.8074127,27.9537511 L13.8097726,27.9537511 L13.8097726,22.739411 C13.9834805,22.7312636 14.1887715,22.7231162 14.4098542,22.7149688 C14.4019584,24.2466812 14.4019584,25.7539514 14.4019584,27.3264008 L14.4019584,27.3264008 Z" id="Shape"></path>
                        <path d="M18.1050935,27.3345482 L19.5105478,27.3345482 L19.5105478,27.9618985 L17.5050119,27.9618985 L17.5050119,22.7557059 L18.1050935,22.7557059 L18.1050935,27.3345482 L18.1050935,27.3345482 Z" id="Shape"></path>
                        <path d="M28.5749383,11.4226637 L28.5749383,16.7592148 L27.9511693,16.7592148 L27.9511693,14.1601922 L27.9511693,11.9929821 C27.9511693,11.3982214 27.9590651,11.3982214 28.5749383,11.4226637 L28.5749383,11.4226637 Z" id="Shape"></path>
                        <path d="M37.1182053,27.9781933 L36.5260195,27.9781933 L36.5260195,22.7475584 C36.6997273,22.739411 36.8971226,22.7312636 37.1182053,22.7149688 L37.1182053,27.9781933 L37.1182053,27.9781933 Z" id="Shape"></path>
                        <path d="M50.6674162,27.6604445 C50.6279371,27.7011815 50.5884581,27.7256237 50.5726665,27.7663607 C50.3278963,28.2144681 50.0989178,28.2470577 49.8304603,27.8478348 C49.6962315,27.6441496 49.8225645,27.3834326 50.0594388,27.3264008 C50.3436879,27.2612215 50.4779167,27.4649067 50.6674162,27.6604445 L50.6674162,27.6604445 Z" id="Shape"></path>
                    </g>
                </g>
            </g>
        </g>
    </g>
</svg>