<?xml version="1.0" encoding="UTF-8"?>
<svg width="78px" height="22px" viewBox="0 0 78 22" version="1.1" xmlns="http://www.w3.org/2000/svg" xmlns:xlink="http://www.w3.org/1999/xlink">
    <!-- Generator: Sketch 40.3 (33839) - http://www.bohemiancoding.com/sketch -->
    <title>warexpo</title>
    <desc>Created with Sketch.</desc>
    <defs></defs>
    <g id="Screens" stroke="none" stroke-width="1" fill="none" fill-rule="evenodd">
        <g id="Desktop-Copy-4" transform="translate(-509.000000, -3012.000000)" fill="#000000">
            <g id="warexpo" transform="translate(509.000000, 3012.000000)">
                <g id="Layer_1">
                    <g id="logo.psd_2_">
                        <g id="Group">
                            <path d="M0,4.26924091 C0.118437158,4.17147204 0.236874316,4.07370316 0.347415663,3.96778688 L4.19267539,0 L16.960201,0 C17.710303,0.7740036 18.4288218,1.51541758 19.1157573,2.22424193 C18.460405,2.90047665 17.7813653,3.60115359 17.0233675,4.3833046 L4.25584188,4.3833046 L4.25584188,4.87214898 C4.25584188,6.56680949 4.24794607,8.2533226 4.26373769,9.94798312 C4.26373769,10.4694171 4.28742512,10.9908511 4.37427903,11.5041377 C4.50850781,12.3188784 4.81644442,13.092882 5.19544333,13.8261485 C5.28229725,13.9890967 5.50337994,14.0542759 5.51127575,14.2742559 C6.04029506,14.917901 6.62458504,15.4882194 7.32731217,15.9200319 C7.8721231,16.2540756 8.4722047,16.4170237 9.05649468,16.6370037 C9.33284805,16.74292 9.64078466,16.74292 9.93292965,16.7755096 C10.4935322,16.8325415 11.0620306,16.7999518 11.5910499,16.6532985 C12.3174644,16.4577608 13.043879,16.2377808 13.667648,15.7733786 C13.9755846,15.5452513 14.2914171,15.3252713 14.5677704,15.0482595 C14.8520196,14.7631003 15.0888939,14.4209092 15.3415599,14.1031603 C15.4284138,13.9972441 15.5073719,13.8913278 15.5942258,13.7772641 C15.9732247,14.5594151 16.3443278,15.3252713 16.7391183,16.1400119 L19.2184028,16.1400119 C19.1552363,16.262223 19.1236531,16.3355497 19.0841741,16.4007289 C18.7446542,16.8814259 18.3419679,17.3213858 18.0182396,17.8183776 C17.9787606,17.8754095 17.9234899,17.9242939 17.876115,17.9731783 C17.1812837,18.5760864 16.5338273,19.2278789 15.7205588,19.7004285 C15.0731023,20.0752092 14.4335417,20.4418425 13.7229187,20.6618224 C13.1781078,20.832918 12.6490885,20.9958661 12.0805901,21.1017824 C11.5673624,21.1914038 11.0699264,21.1588142 10.5645945,21.175109 C10.0513668,21.1995512 9.5223475,21.2321409 9.01701563,21.1669616 C8.55905862,21.1017824 8.09320579,21.0203083 7.63524878,20.873655 C6.9009384,20.6373802 6.18241965,20.3766632 5.49548413,20.0100299 C5.04542293,19.7656077 4.63484078,19.4804485 4.22425863,19.1708471 C4.01107175,19.0078989 3.81367649,18.8205086 3.60838541,18.6412657 C3.45836501,18.5109072 3.33992785,18.3398116 3.14253259,18.2501902 C3.00830381,18.1931583 2.85828341,18.046505 2.82670017,17.9161465 C2.77932531,17.7206087 2.62930491,17.6391347 2.51876356,17.5169236 C2.06080655,16.9873422 1.67391183,16.4007289 1.34228779,15.7733786 C1.00276794,15.1460283 0.726414569,14.5023832 0.513227685,13.8261485 C0.4500612,13.6387582 0.386894716,13.4513678 0.331624042,13.2639775 C0.284249179,13.0847345 0.260561748,12.9054916 0.221082695,12.7181013 C0.189499453,12.571448 0.14212459,12.4247946 0.118437158,12.2781413 C0.0947497264,12.1233406 0.110541347,11.9603925 0.0947497264,11.8055918 C0.0947497264,11.7892969 0.0394790527,11.7811495 0.00789581053,11.7648547 C0,9.26360099 0,6.77049465 0,4.26924091 L0,4.26924091 Z" id="Shape"></path>
                            <path d="M15.2231227,10.5834808 C15.3178724,11.5774644 14.9388735,12.4655317 14.4809165,13.2884197 C14.1571883,13.875033 13.667648,14.3883196 13.0754622,14.7468054 C12.8149005,14.9016062 12.5227555,15.0156698 12.2700896,15.1867654 C12.0174236,15.3660083 11.7173828,15.4148928 11.4489253,15.4637772 C10.9751766,15.5452513 10.4856364,15.7081994 10.0039919,15.5941357 C9.63288885,15.5045142 9.24599413,15.5289564 8.89857847,15.3823031 C8.44062146,15.1949128 7.96687283,15.0238173 7.5720823,14.7060684 C7.27993731,14.4697936 7.00358394,14.217224 6.73512638,13.9483596 C6.32454424,13.5409893 5.70867101,12.3025835 5.56654642,11.6670858 C5.41652602,10.9827037 5.54285899,10.306469 5.47969251,9.62208686 C5.7007752,8.87252548 5.9218579,8.13925891 6.41139815,7.51190863 C6.57721017,7.30007606 6.74302219,7.08009609 6.93252165,6.88455834 C7.46943676,6.34682952 8.07741417,5.93945921 8.78803712,5.71947924 C9.03280725,5.64615258 9.29336899,5.58912074 9.54603493,5.53208889 C9.84607573,5.45876223 10.1382207,5.42617261 10.4382615,5.44246742 C11.4331336,5.49135186 12.3490477,5.77651108 13.170212,6.37127174 C14.0940218,7.03935906 14.6862076,7.94372116 15.0336233,9.03547361 C15.1994353,9.54876021 15.2547059,10.045752 15.2231227,10.5834808 L15.2231227,10.5834808 Z" id="Shape"></path>
                            <path d="M26.1746119,14.8445743 L25.2192188,14.8445743 C24.1927635,12.0500139 23.1742039,9.26360099 22.1398527,6.42830359 C22.3451438,6.42015618 22.5267474,6.41200877 22.7083511,6.41200877 L23.2768494,6.41200877 C23.545307,7.12898053 23.8216604,7.82965747 24.0348473,8.56292404 C24.1217012,8.85623067 24.2243467,9.16583211 24.3506797,9.44284392 C24.6507205,10.1027838 24.8323241,10.8034608 25.1244691,11.4634007 C25.3139686,11.8952132 25.4324057,12.3677628 25.5824261,12.8158701 C25.5982177,12.8647546 25.6613842,12.8973442 25.7008633,12.9380812 C25.7324465,12.9054916 25.7719256,12.872902 25.7877172,12.832165 C26.0009041,12.1885199 26.214091,11.5530222 26.4114862,10.9093771 C26.6009857,10.2820268 26.83786,9.66282389 27.0194636,9.03547361 C27.2721296,8.14740632 27.6432327,7.30007606 27.8880028,6.42015618 L28.5749383,6.42015618 C29.2855613,8.61180848 29.9961842,10.8116082 30.7225988,13.0521449 C30.880515,12.652922 31.046327,12.2699939 31.1805558,11.8789184 C31.4253259,11.1456518 31.6858877,10.4205327 31.9701368,9.70356093 C32.1201572,9.32063283 32.2385944,8.92955733 32.3728232,8.53848182 C32.5781143,7.96816338 32.7834053,7.39784494 32.9965922,6.8275265 C33.0202796,6.76234725 33.0360713,6.69716799 33.0439671,6.63198874 C33.0676545,6.46089321 33.1703,6.39571396 33.3282163,6.40386137 C33.6361529,6.41200877 33.9440895,6.40386137 34.2362345,6.40386137 C34.2599219,6.43645099 34.2836093,6.4445984 34.2836093,6.46089321 C34.2915051,6.47718802 34.2915051,6.50163024 34.2836093,6.50977765 C33.2413623,9.23101136 32.2622818,11.9848347 31.2437223,14.7223632 C31.2279306,14.7712477 31.17266,14.7956899 31.1252851,14.8445743 C30.9120982,14.8445743 30.6910155,14.8364269 30.4699328,14.8445743 C30.2725376,14.8527217 30.2014753,14.7631003 30.130413,14.5594151 C29.8224764,13.6387582 29.5540188,12.7099539 29.2223948,11.7974444 C29.0486869,11.3248948 28.8907707,10.827903 28.7802294,10.3309112 C28.669688,9.83391943 28.4486053,9.36951727 28.2748975,8.88882029 C28.2512101,8.81549364 28.2591059,8.72587217 28.211731,8.6443981 C27.5800662,10.7301341 26.8931307,12.7832805 26.1746119,14.8445743 L26.1746119,14.8445743 Z" id="Shape"></path>
                            <path d="M46.924802,14.8445743 L45.8667634,14.8445743 C45.464077,13.9402122 45.0613907,13.0277027 44.6508086,12.0988984 L41.7451503,12.0988984 L41.7451503,14.4453514 C41.7451503,14.8119847 41.7056712,14.8527217 41.3266723,14.8527217 L40.8608195,14.8527217 C40.7029033,14.8527217 40.6239452,14.7549528 40.6081536,14.5920047 C40.6002577,14.5186781 40.6081536,14.4534988 40.6081536,14.3801722 L40.6081536,6.58310431 C40.6081536,6.53421987 40.6160494,6.48533543 40.6239452,6.40386137 L41.4451095,6.40386137 L44.4455175,6.40386137 C45.3535357,6.39571396 46.0167838,6.85196871 46.506324,7.6015301 C46.75899,7.98445819 46.8616355,8.34294407 46.924802,8.80734623 C46.9484894,8.98658917 47.1064056,9.17397952 47.0116559,9.34507505 C46.8853229,9.56505502 46.964281,9.81762461 46.8695313,10.0294572 C46.7431983,10.3146164 46.6484486,10.6160704 46.4984282,10.8849348 C46.301033,11.2271259 46.0167838,11.4959903 45.6614723,11.7078229 C46.0799503,12.6447746 46.506324,13.5898737 46.9169062,14.5268255 C46.9563852,14.6164469 46.924802,14.7223632 46.924802,14.8445743 L46.924802,14.8445743 Z M41.7451503,11.0071459 L44.3349761,11.0071459 C44.7692457,11.0071459 45.2272027,10.7301341 45.4877645,10.4123853 C45.9615131,9.84206683 45.9773047,9.20656914 45.7799095,8.54662923 C45.6140974,7.9926056 45.0455991,7.49561381 44.548163,7.48746641 C43.6243532,7.47117159 42.6926475,7.479319 41.7451503,7.479319 L41.7451503,7.71559378 L41.7451503,11.0071459 L41.7451503,11.0071459 Z" id="Shape"></path>
                            <path d="M73.2889133,6.30609249 C73.6126416,6.3223873 73.9363698,6.29794508 74.2522022,6.35497693 C74.552243,6.40386137 74.8364922,6.51792506 75.1207414,6.63198874 C75.2944492,6.7053154 75.4523654,6.84382131 75.6181775,6.94973759 C76.1629884,7.29192866 76.5656747,7.78077304 76.8499239,8.35923888 C77.0631108,8.79919882 77.2131312,9.27174839 77.2920893,9.77688758 C77.3394642,10.1027838 77.386839,10.4205327 77.3710474,10.7464289 C77.34736,11.4552533 77.1578605,12.131488 76.8578197,12.7669857 C76.5025082,13.5246945 75.9971764,14.1113077 75.2312827,14.4453514 C75.0259917,14.5349729 74.8364922,14.6653314 74.6233053,14.738658 C74.4259101,14.8038373 74.1890357,14.7793951 73.9995363,14.8608691 C73.6837039,14.999375 73.3678715,14.9667854 73.052039,14.9504906 C72.2308747,14.9097536 71.4255021,14.7060684 70.7859414,14.176487 C70.0437352,13.5654315 69.4594452,12.8077227 69.2857374,11.7811495 C69.2146751,11.3819266 69.0646547,10.9827037 69.096238,10.5834808 C69.1673003,9.64652908 69.3252165,8.73401957 69.9016106,7.93557376 C70.4859006,7.12083312 71.1254613,6.64828356 72.1282292,6.39571396 C72.3177287,6.34682952 72.5072281,6.28165027 72.7046234,6.28979768 C72.9099144,6.3142399 73.0994139,6.30609249 73.2889133,6.30609249 L73.2889133,6.30609249 Z M76.2419465,10.7138393 C76.2419465,10.5345964 76.2340507,10.4449749 76.2419465,10.3553534 C76.3366962,9.57320243 75.9892805,8.92955733 75.5629068,8.35923888 C75.097054,7.72374119 74.4180143,7.41413975 73.6442248,7.37340272 C73.4231421,7.36525531 73.1941636,7.38155013 72.9730809,7.37340272 C72.1992915,7.33266569 71.5755225,7.69929897 71.0386073,8.21258557 C70.5411713,8.69328254 70.304297,9.36136986 70.2411305,10.045752 C70.1937556,10.5183016 70.2016514,11.0071459 70.3121928,11.4959903 C70.470109,12.1640776 70.8096288,12.7018065 71.2517942,13.1662086 C71.4570853,13.3861886 71.7492303,13.5491367 72.0334795,13.655053 C72.3651035,13.7772641 72.7283108,13.8424433 73.0757265,13.8831804 C73.509996,13.9320648 73.928474,13.8098537 74.3311603,13.6713478 C74.9786168,13.435073 75.4997403,13.0439975 75.8313643,12.3759102 C76.1156135,11.8137392 76.3209046,11.2597155 76.2419465,10.7138393 L76.2419465,10.7138393 Z" id="Shape"></path>
                            <path d="M49.009296,11.0967674 L49.009296,13.6713478 L53.841532,13.6713478 L53.841532,14.8445743 L47.9828406,14.8445743 L47.9828406,6.46904062 C48.3855269,6.38756655 52.2465783,6.36312434 53.7625739,6.43645099 L53.7625739,6.957885 L53.7625739,7.479319 L49.009296,7.479319 L49.009296,10.0538994 L53.5414912,10.0538994 L53.5414912,11.1130622 C52.049183,11.0967674 50.548979,11.0967674 49.009296,11.0967674 L49.009296,11.0967674 Z" id="Shape"></path>
                            <path d="M63.4033586,12.0744562 L63.4033586,14.8527217 L62.5269236,14.8527217 C62.3611116,14.8527217 62.2900493,14.7549528 62.2663618,14.6001521 C62.258466,14.5349729 62.2663618,14.4616462 62.2663618,14.3883196 L62.2663618,6.54236727 C62.2663618,6.50977765 62.2742577,6.47718802 62.2900493,6.40386137 L62.7874853,6.40386137 L66.0484551,6.40386137 C66.6564325,6.40386137 67.1696602,6.62384134 67.6828879,6.99047462 C68.1961156,7.35710791 68.385615,7.89483672 68.5751145,8.42441813 C68.6698642,8.70142995 68.7409265,9.01103139 68.7014474,9.33692764 C68.6066977,10.0538994 68.4408857,10.7138393 67.9039706,11.2434207 C67.3512638,11.7974444 66.719599,12.0744562 65.9537054,12.0744562 L63.4033586,12.0744562 L63.4033586,12.0744562 Z M63.3954628,7.479319 L63.3954628,9.23915877 L63.3954628,11.0071459 C64.3113768,11.0071459 65.1878117,11.0234408 66.0642467,10.9989985 C66.6880157,10.9827037 67.1459728,10.6242178 67.4223261,10.0701942 C67.6197214,9.67911871 67.5565549,9.21471655 67.5249717,8.78290401 C67.50918,8.49774479 67.343368,8.2533226 67.177556,8.02519522 C66.9169942,7.65856194 66.5379953,7.48746641 66.1116216,7.479319 C65.2272908,7.47117159 64.3271684,7.479319 63.3954628,7.479319 L63.3954628,7.479319 Z" id="Shape"></path>
                            <path d="M35.8864589,6.42015618 L36.8576436,6.42015618 C37.0708304,7.04750647 37.2840173,7.66670935 37.5051,8.28591223 C37.670912,8.7666092 37.8525157,9.23915877 38.0183277,9.71985574 C38.2630978,10.4123853 38.4999721,11.1130622 38.7447423,11.8137392 C38.9184501,12.3107309 39.0605747,12.8158701 39.2737616,13.2965671 C39.4711568,13.7528219 39.5501149,14.2416662 39.7790935,14.6816262 C39.7948851,14.7223632 39.7711976,14.7793951 39.7711976,14.8445743 L38.6657842,14.8445743 C38.4525973,14.1927818 38.2315146,13.5246945 38.0104319,12.8403124 L34.6152334,12.8403124 C34.2915051,13.4595152 34.1335889,14.176487 33.8414439,14.8445743 L32.7676137,14.8445743 C32.672864,14.6001521 32.8228844,14.4046144 32.9018425,14.2253714 C33.3045288,13.3291567 33.5335073,12.3596154 33.9835685,11.4878429 C34.0625266,10.9419667 34.3467758,10.4694171 34.5204836,9.95613052 C34.6862957,9.46728614 34.8915867,8.97844176 35.0968778,8.49774479 C35.2390024,8.15555373 35.3732312,7.79706785 35.4600851,7.42228716 C35.5311474,7.07194869 35.7364385,6.76234725 35.8864589,6.42015618 L35.8864589,6.42015618 Z M37.6235372,11.7404125 C37.3629754,10.9501141 37.1182053,10.2249949 36.881331,9.48358096 C36.7313106,9.0273262 36.6049776,8.57107145 36.462853,8.11481669 C36.4470614,8.07407966 36.4154782,8.01704782 36.3838949,8.01704782 C36.3444159,8.00890041 36.2733536,8.04149004 36.2654578,8.07407966 C36.131229,8.56292404 35.9180421,9.0273262 35.7522301,9.50802317 C35.5627306,10.045752 35.3732312,10.5916282 35.1679401,11.129357 C35.0968778,11.3167474 34.9547532,11.5122851 35.0416071,11.7404125 L37.6235372,11.7404125 L37.6235372,11.7404125 Z" id="Shape"></path>
                            <path d="M58.7290387,10.4775645 C59.218579,11.2026837 59.6923276,11.9278029 60.1897637,12.6366272 C60.59245,13.2150931 61.0030322,13.7854115 61.4136143,14.3557299 C61.508364,14.4860884 61.5794263,14.6327417 61.6820719,14.8119847 C61.4451976,14.8853113 61.2399065,14.8445743 61.0425112,14.8527217 C60.8372201,14.8608691 60.6319291,14.8527217 60.426638,14.8527217 C59.6449528,13.7120848 58.8711633,12.5877428 58.0736865,11.4226637 C57.757854,11.7567073 57.5367713,12.1396354 57.2841054,12.5062687 C56.9840646,12.9462286 56.676128,13.3861886 56.3681914,13.8261485 C56.1944835,14.0705707 56.0128799,14.3068455 55.8628595,14.5675625 C55.7523182,14.7549528 55.6180894,14.8527217 55.4127983,14.8527217 L54.5363633,14.8527217 C54.4337178,14.7142158 54.4889885,14.6082995 54.5837382,14.4860884 C55.010112,13.9239174 55.4364857,13.3617464 55.8233805,12.7751331 C56.2418584,12.1477828 56.6603364,11.5285799 57.1103976,10.9256719 C57.1972515,10.8034608 57.2683138,10.6731023 57.3788551,10.4938593 C56.4945243,9.18212692 55.5865061,7.84595229 54.6548005,6.46904062 C54.883779,6.37941915 55.0890701,6.42830359 55.2785695,6.42015618 C55.4838606,6.41200877 55.6891517,6.42015618 55.8707553,6.42015618 C56.5971699,7.47117159 57.3077928,8.5058922 58.049999,9.58134983 C58.7922052,8.5058922 59.5028282,7.479319 60.2213469,6.4445984 L61.4767808,6.4445984 C60.5450752,7.81336266 59.6370569,9.14138989 58.7290387,10.4775645 L58.7290387,10.4775645 Z" id="Shape"></path>
                        </g>
                    </g>
                </g>
            </g>
        </g>
    </g>
</svg>