<?xml version="1.0" encoding="UTF-8"?>
<svg width="35px" height="42px" viewBox="0 0 35 42" version="1.1" xmlns="http://www.w3.org/2000/svg" xmlns:xlink="http://www.w3.org/1999/xlink">
    <!-- Generator: Sketch 40.3 (33839) - http://www.bohemiancoding.com/sketch -->
    <title>warszawa</title>
    <desc>Created with Sketch.</desc>
    <defs></defs>
    <g id="Screens" stroke="none" stroke-width="1" fill="none" fill-rule="evenodd">
        <g id="Desktop-Copy-4" transform="translate(-444.000000, -3002.000000)" fill="#130C0E">
            <g id="warszawa" transform="translate(444.000000, 3002.000000)">
                <g id="Layer_1">
                    <g id="Group">
                        <path id="Shape"></path>
                        <path d="M15.7442462,37.2988261 C15.7284546,37.1114358 15.4836845,37.1440254 15.4521012,36.9566351 C15.4678928,36.7040655 15.1836437,36.6307388 15.0888939,36.4433485 C14.8993945,36.31299 14.709895,36.1744841 14.544083,36.0115359 C14.3940626,35.791556 14.1966673,35.6693449 14.0387511,35.4575123 C13.959793,35.3597434 13.9992721,35.2130901 13.8887307,35.1397635 C13.7387103,35.090879 13.6360648,34.9197835 13.501836,34.8383094 C13.3281282,34.8464568 13.1386287,34.7812776 13.0675664,34.610182 C13.0991497,34.4146443 13.0359832,34.2516962 12.9333376,34.1131903 C12.8701712,33.7221148 12.6175052,33.4206607 12.5148597,33.04588 C12.3727351,32.8340475 12.2779854,32.5896253 12.2069231,32.3533505 L11.9542571,32.0763387 C11.8121326,31.8970957 11.7252786,31.6852632 11.6463205,31.481578 C11.5752582,31.1312395 11.2278426,30.9031122 11.1646761,30.5527737 C11.085718,30.1454034 10.8488437,29.8032123 10.7777814,29.3876946 C10.7383023,29.0129139 10.5330112,28.7114599 10.4303657,28.3611214 C10.3593034,28.132994 10.3829908,27.8559822 10.3908867,27.6034126 C10.3514076,27.4486119 10.2250746,27.3264008 10.2250746,27.1553053 C10.0671584,26.8945883 10.0276794,26.5768394 9.91713803,26.2916802 C9.92503384,26.0635528 9.68815952,25.9413417 9.65657628,25.7295092 C9.65657628,25.4932344 9.45128521,25.3465811 9.48286845,25.0940115 C9.38811872,24.8903263 9.29336899,24.6947886 9.21441089,24.4911034 C9.05649468,24.3444501 9.05649468,24.1163227 9.01701563,23.9044901 C8.95384914,23.700805 8.96174495,23.4726776 8.84330779,23.3015821 C8.78803712,23.1304865 8.81172455,22.9268014 8.7722455,22.7557059 C8.7722455,22.5764629 8.67749577,22.4298096 8.68539158,22.2424193 C8.6222251,22.0876185 8.65380834,21.9246704 8.6222251,21.7535749 C8.6222251,21.6883956 8.43272565,21.1832564 8.46430889,21.134372 C8.49589213,21.0854876 8.44062146,21.0447505 8.46430889,20.9958661 C8.40903822,20.8818024 8.4011424,20.7514439 8.36166335,20.6292328 C8.30639268,20.5803484 8.3221843,20.4988743 8.27480944,20.4418425 C8.26691363,20.352221 8.21164295,20.2788943 8.21953876,20.1811255 C8.16426809,20.132241 8.15637228,20.050767 8.14847647,19.9774403 C8.11689323,19.9285559 8.13268485,19.8552292 8.08530998,19.8226396 C8.06162255,19.7167233 7.98266445,19.6271018 7.95897702,19.5293329 C7.91160215,19.4641537 7.88791472,19.3989744 7.83264405,19.3256478 C7.69841527,19.2604685 7.61945716,19.1708471 7.49312419,19.0730782 C7.46943676,18.9916041 7.34310379,18.9834567 7.33520798,18.8856878 C7.20887501,18.7634768 7.04306299,18.7227397 6.94831327,18.5516442 C6.95620908,18.5109072 6.94041746,18.4701701 6.90883421,18.4457279 C6.88514678,18.3805487 6.95620908,18.3561064 6.94831327,18.2990746 C6.90883421,18.2338953 6.94831327,18.1687161 6.94041746,18.0953894 C6.99568813,18.0383576 7.04306299,17.9650309 7.06675043,17.8835569 C7.13781272,17.826525 7.09833367,17.7124613 7.15360434,17.6309873 C7.15360434,17.5576606 7.17729177,17.5169236 7.17729177,17.4517443 C7.18518758,17.3295332 7.23256245,17.223617 7.30362474,17.1258481 C7.33520798,17.0932585 7.30362474,17.0525214 7.29572893,17.0199318 C7.25624988,16.9710474 7.19308339,16.9791948 7.13781272,16.9710474 C7.10622948,16.9954896 7.09833367,17.0199318 7.10622948,17.0525214 C7.09833367,17.1584377 6.95620908,17.1584377 6.94041746,17.2480592 C6.86145935,17.3132384 6.9009384,17.4354495 6.84566773,17.5169236 C6.72723057,17.565808 6.74302219,17.7369036 6.66406409,17.8346724 C6.62458504,17.9161465 6.56141855,17.9976206 6.56141855,18.0953894 C6.53773112,18.1279791 6.56931436,18.1768635 6.53773112,18.2013057 C6.54562693,18.2990746 6.48246045,18.3642538 6.4508772,18.4294331 C6.45877301,18.4457279 6.42718977,18.4701701 6.45877301,18.4864649 C6.42718977,18.5516442 6.46666882,18.6168234 6.49825207,18.6738553 C6.48246045,18.7553293 6.56141855,18.8042138 6.58510598,18.869393 C6.70354314,18.9345723 6.81408449,19.089373 6.93252165,19.1626997 C7.03516718,19.2523211 7.1220211,19.3256478 7.19308339,19.4397115 C7.30362474,19.5048907 7.30362474,19.6189544 7.39837447,19.7085759 C7.57997811,19.7737551 7.61156135,19.9692929 7.68262365,20.132241 C7.70631108,20.2381573 7.76947756,20.3277788 7.77737337,20.4418425 C7.86422729,20.5070217 7.79316499,20.6210854 7.86422729,20.6862646 C7.86422729,20.7514439 7.91160215,20.7758861 7.90370634,20.8410654 L7.89581053,20.8980972 C7.88001891,20.8899498 7.85633148,20.8818024 7.84053986,20.8818024 C7.72999851,20.7921809 7.56418649,20.8492128 7.45364514,20.8899498 C7.31152055,20.9388342 7.20887501,20.8084757 7.07464624,20.7921809 C6.88514678,20.8410654 6.71143895,20.7677387 6.51404369,20.7921809 C6.45877301,20.7677387 6.40350234,20.7351491 6.34033586,20.7188543 C6.20610708,20.8247706 6.10346154,21.0121609 5.92975371,21.0447505 C5.78762912,21.1506668 5.59023386,21.1588142 5.41652602,21.1914038 C5.30598468,21.2647305 5.17965171,21.2728779 5.04542293,21.2810253 C4.83223604,21.3706468 4.56377849,21.2891727 4.3505916,21.3706468 C4.16898796,21.5987742 3.90842621,21.6476586 3.62417703,21.6232164 C3.45836501,21.655806 3.27676137,21.6639534 3.10305354,21.6721008 C2.92934571,21.7209852 2.79511693,21.8920808 2.6214091,21.9491126 C2.49507613,22.0224393 2.57403423,22.1935348 2.46349289,22.2750089 C2.23451438,22.3646303 2.250306,22.6334948 2.13976465,22.8045903 C2.1002856,23.0571599 2.21082695,23.260845 2.1713479,23.5052672 C2.20293114,23.6845102 2.25820181,23.8556057 2.32926411,24.0185538 C2.35295154,24.1163227 2.41611802,24.2140916 2.37663897,24.3281553 C2.3213683,24.482956 2.43980545,24.6051671 2.42401383,24.7518204 C2.37663897,24.7925574 2.41611802,24.8740315 2.36874316,24.9147685 C2.36874316,24.9799478 2.33715992,25.0369796 2.3213683,25.0940115 C2.3213683,25.1754855 2.27399343,25.2406648 2.28188924,25.3221388 C2.31347249,25.5095292 2.39243059,25.6806247 2.42401383,25.8680151 C2.4713887,25.9494891 2.52665937,26.0228158 2.57403423,26.1042898 C2.57403423,26.2835328 2.64509653,26.4301861 2.66088815,26.6012816 C2.7714295,26.7316401 2.6214091,26.8375564 2.57403423,26.9516201 C2.59772166,27.2775164 2.86617922,27.4974963 2.94513733,27.8070978 C3.18201164,28.092257 3.31624042,28.4181532 3.44257339,28.7521969 C3.56101055,29.2003042 3.78209324,29.6076746 3.97948851,30.0313397 C4.19267539,30.4305626 4.44534133,30.8053433 4.65852821,31.2045662 C4.76117375,31.4245462 4.92698577,31.6200839 4.95856901,31.8645061 C4.83223604,32.0681913 5.13227685,32.1415179 5.14017266,32.3126135 L5.13227685,32.5081512 C5.14017266,32.6873942 5.29019306,32.8177527 5.37704697,32.9481112 C5.50337994,33.1843859 5.58233805,33.4369555 5.78762912,33.6243459 C5.88237885,33.9420947 6.23769032,34.1213377 6.37981491,34.4227917 C6.60879341,34.7731302 6.83777192,35.1234686 7.0509588,35.4738071 C7.13781272,35.6041656 7.31152055,35.7019345 7.33520798,35.8567352 C7.72999851,36.4107588 8.28270525,36.7936869 8.66170415,37.3640054 C9.15124441,38.0157979 9.80659668,38.4802 10.3435118,39.1075503 C10.7383023,39.482331 11.1567803,39.8245221 11.4489253,40.2726294 C11.5515708,40.4274302 11.7015912,40.525199 11.8042367,40.6799998 C11.83582,40.8266531 11.9305697,40.9814538 12.0805901,41.0221908 C12.2385063,41.1688441 12.4990681,41.0710753 12.6964633,41.1036649 C12.8070047,41.0629278 12.8543795,40.9325693 12.8859628,40.8348005 C12.9096502,40.6148205 13.1386287,40.525199 13.2886491,40.4111353 C13.4860444,40.2726294 13.7229187,40.484462 13.9124182,40.3296613 C13.9361056,40.264482 13.8966265,40.1993028 13.8966265,40.1422709 C13.9045223,40.0770917 13.9913763,40.0200598 13.9440014,39.963028 C13.9045223,39.8734065 13.7860852,39.8326695 13.7781894,39.7186058 C13.8176684,39.6126895 13.793981,39.5149206 13.7860852,39.4090044 C13.8492517,39.2867933 13.9834805,39.2379088 14.1098134,39.2297614 C14.3072087,39.400857 14.5835621,39.2297614 14.8046447,39.3275303 C14.9388735,39.3193829 15.0257274,39.4660362 15.1599562,39.4252992 C15.2468101,39.3193829 15.3968305,39.3356777 15.4915803,39.2460562 C15.6179132,39.1482874 15.4915803,39.0097815 15.4678928,38.9038652 C15.459997,38.7327696 15.3573515,38.6024111 15.3494557,38.439463 C15.3336641,38.1298616 15.712663,38.1217142 15.7600378,37.8609972 C15.8705792,37.6736068 15.6889755,37.5106587 15.7442462,37.2988261 L15.7442462,37.2988261 Z M7.9510812,33.7547044 C7.68262365,33.7302622 7.46943676,33.567314 7.20887501,33.5184296 C6.95620908,33.3717763 6.79829287,33.1192067 6.59300179,32.8992267 C6.53773112,32.8014578 6.54562693,32.6710993 6.49035626,32.5651831 C6.53773112,32.3207609 6.41139815,32.1333705 6.42718977,31.8889483 C6.44298139,31.8319165 6.49035626,31.7585898 6.55352274,31.742295 C6.64827247,31.701558 6.72723057,31.7748846 6.80618868,31.8319165 C6.92462584,31.962275 6.86145935,32.1659601 6.88514678,32.3289083 C6.95620908,32.6303623 7.09833367,32.9236689 7.3509996,33.1273541 C7.59576973,33.1762385 7.76158175,33.4288081 8.03793512,33.3473341 C8.28270525,33.2984496 8.36166335,33.0214378 8.44851727,32.8259001 C8.46430889,32.3696453 8.28270525,31.9785698 8.22743457,31.5467573 C8.18795552,31.440841 8.1011016,31.3186299 8.1721639,31.2045662 C8.19585133,31.1475344 8.25901782,31.1149447 8.31428849,31.0905025 C8.37745497,31.0742077 8.44851727,31.0905025 8.49589213,31.1230921 C8.61432929,31.2697455 8.58274605,31.4734306 8.63012091,31.6363787 C8.74855807,32.003012 9.04859887,32.3533505 9.39601453,32.5407408 C9.65657628,32.6303623 9.99609613,32.6629519 10.2645537,32.5570357 C10.4224699,32.4022349 10.4303657,32.1741076 10.4382615,31.9459802 C10.3671992,31.4489884 10.3040327,30.9519966 10.1145333,30.5038893 C10.0592626,30.3409411 9.9724087,30.1861404 9.88555478,30.0313397 C9.86186735,29.9661604 9.8934506,29.8846864 9.95661708,29.8602442 C10.0355752,29.8358019 10.1145333,29.876539 10.1619082,29.9498656 C10.169804,29.9824553 10.1855956,30.0150449 10.1619082,30.0476345 C10.2171788,30.1942878 10.2645537,30.3572359 10.3435118,30.5038893 C10.501428,31.1882714 10.8725311,31.8889483 10.6356568,32.6385097 C10.5882819,32.7770156 10.4461573,32.8747845 10.3119286,32.8992267 C9.95661708,32.8992267 9.53024331,32.9807008 9.23809832,32.8014578 C9.08807792,32.6466571 8.94595333,32.5162986 8.76434969,32.4348246 L8.74855807,32.4511194 C8.82751617,32.7118364 8.78014131,33.0132904 8.66170415,33.2414178 C8.55905862,33.5591666 8.24322619,33.7221148 7.9510812,33.7547044 L7.9510812,33.7547044 Z M12.9017544,36.1418944 C12.8149005,36.3618744 12.7912131,36.6633284 12.5227555,36.7448025 C12.2385063,36.7366551 11.9700488,36.6470336 11.6936954,36.5900018 C11.5278834,36.5411173 11.417342,36.353727 11.25153,36.31299 L11.1962593,36.3781692 C11.2357384,36.7366551 11.4015504,37.1195832 11.2436342,37.4862165 C11.1330928,37.6410172 10.9435934,37.6328698 10.8172604,37.7713757 C10.66724,37.8447024 10.5330112,37.7387861 10.375095,37.7550809 C10.1540123,37.6736068 9.94872127,37.5513957 9.71974276,37.4862165 C9.34074386,37.2254995 9.2223067,36.7855395 9.02491144,36.4107588 L8.89068266,36.052273 C8.78803712,35.8241456 8.59853767,35.6367552 8.61432929,35.351596 C8.55905862,35.2456797 8.39324659,35.1397635 8.49589213,35.0012575 C8.56695443,34.8953413 8.68539158,34.789425 8.81172455,34.830162 C9.01701563,35.009405 9.03280725,35.2945642 9.18282765,35.5145441 C9.38811872,35.8648826 9.43549358,36.2804003 9.68815952,36.614444 C9.81449249,36.8099818 9.99609613,36.9729299 10.169804,37.135878 C10.2724495,37.176615 10.4303657,37.1847624 10.5330112,37.1277306 C10.627761,37.135878 10.6988233,37.0544039 10.7383023,36.9729299 C10.7461981,36.573707 10.7225107,36.2152211 10.7067191,35.8241456 C10.6830316,35.6611975 10.461949,35.5389864 10.5803861,35.351596 C10.5803861,35.2130901 10.4145741,35.0664368 10.5566987,34.9442257 C10.6119694,34.8790465 10.6909275,34.8220146 10.7619898,34.8627516 C10.9830724,34.9686679 10.9988641,35.2293849 11.1646761,35.3841856 C11.3699672,35.6693449 11.670008,35.7508189 11.8910907,36.0033885 C11.9937362,36.0604204 12.1200692,36.0685678 12.2385063,36.1011574 C12.3174644,36.0767152 12.3490477,36.0033885 12.3648393,35.9300619 C12.3806309,35.832293 12.3174644,35.7671137 12.2779854,35.6856397 C12.167444,35.3678908 12.2148189,34.9849627 12.0884859,34.6753613 C11.9779446,34.3576124 11.8989865,34.0154214 11.7252786,33.7221148 C11.6936954,33.6080511 11.6384247,33.4532503 11.7252786,33.3473341 C11.8595074,33.1110593 12.0411111,33.3636289 12.1753398,33.4206607 C12.3490477,33.5917563 12.3253602,33.8443259 12.4280058,34.0398636 C12.459589,34.1376325 12.5148597,34.2191065 12.5306513,34.3168754 L12.5464429,34.3331702 C12.5148597,34.4635287 12.6017136,34.5531502 12.625401,34.6672139 C12.7596298,35.1397635 12.9412335,35.612313 12.9017544,36.1418944 L12.9017544,36.1418944 Z" id="Shape"></path>
                        <path d="M15.0336233,2.34645302 C14.9862484,2.28127377 14.8914987,2.21609452 14.8836029,2.12647305 C14.8125406,2.02870417 14.6941034,1.95537752 14.5598746,1.97981974 C14.4414375,1.88205086 14.3072087,1.83316642 14.1966673,1.73539755 C14.0308553,1.75169236 13.9518972,1.57244942 13.793981,1.55615461 C13.6439606,1.47468054 13.4781486,1.42579611 13.2886491,1.44209092 C13.2254826,1.37691167 13.1465245,1.36061686 13.0991497,1.27914279 C13.0359832,1.32802723 12.9412335,1.30358501 12.878067,1.27914279 C12.7359424,1.12434207 12.5227555,1.22211095 12.3569435,1.12434207 C12.1200692,1.13248948 11.9542571,0.953246539 11.7173828,0.936951727 C11.4489253,0.847330257 11.1488845,0.86362507 10.8725311,0.798445819 C10.3908867,0.611055474 9.83817992,0.602908068 9.30916062,0.537728817 C9.00122401,0.480696973 8.69328739,0.496991785 8.37745497,0.472549567 C8.21953876,0.415517722 8.03003931,0.456254754 7.88001891,0.382928097 C7.44574933,0.358485878 7.02727137,0.260717002 6.56931436,0.260717002 C6.49825207,0.285159221 6.41929396,0.285159221 6.34033586,0.285159221 C6.25348194,0.260717002 6.18241965,0.171095533 6.12714897,0.0896214695 C5.97712857,0.0162948126 5.90606628,0.211832564 5.7718375,0.211832564 C5.70867101,0.219979971 5.61392129,0.195537752 5.5507548,0.228127377 C5.36915116,0.162948126 5.1717559,0.211832564 4.98225645,0.228127377 C4.89540253,0.171095533 4.78486118,0.228127377 4.69011146,0.203685158 C4.53219524,0.268864409 4.34269579,0.130358501 4.17688377,0.228127377 C4.02686337,0.24442219 3.90842621,0.187390345 3.77419743,0.171095533 C3.69523933,0.236274783 3.61628122,0.15480072 3.52942731,0.15480072 C3.47415663,0.146653314 3.45836501,0.219979971 3.41888596,0.24442219 C3.35571948,0.260717002 3.3004488,0.325896253 3.22938651,0.285159221 C3.05567868,0.358485878 2.89776246,0.219979971 2.73195044,0.293306627 C2.6214091,0.277011815 2.48718032,0.122211095 2.4003264,0.293306627 C2.34505573,0.325896253 2.30557668,0.277011815 2.25820181,0.260717002 C2.21082695,0.317748846 2.13976465,0.342191065 2.11607722,0.407370316 C1.95816101,0.480696973 1.84761966,0.651792506 1.65812021,0.602908068 C1.5712663,0.635497693 1.60284954,0.733266569 1.57916211,0.790298413 C1.53178724,0.822888038 1.46862076,0.831035445 1.41335009,0.814740632 C1.40545427,0.847330257 1.35807941,0.879919882 1.35807941,0.920656914 C1.43703752,1.04286801 1.28701712,1.09175245 1.25543387,1.18952132 C1.20805901,1.30358501 1.30280874,1.37691167 1.35807941,1.45023832 C1.37387103,1.52356498 1.46072495,1.55615461 1.44493333,1.64577608 C1.53968305,1.74354495 1.55547467,1.87390345 1.61074535,1.98796714 C1.61864116,2.04499899 1.68180764,2.06944121 1.73707832,2.05314639 C1.8002448,1.98796714 1.89499453,2.00426195 1.95816101,1.9309353 C2.02922331,1.92278789 2.12397303,1.91464049 2.17924371,1.96352492 C2.41611802,1.90649308 2.67667977,1.9309353 2.91355409,1.89019827 C3.000408,1.79242939 3.1504284,1.83316642 3.26886556,1.83316642 C3.30834461,1.84946123 3.33992785,1.88205086 3.39519853,1.88205086 C3.5215315,1.86575605 3.63996865,1.84946123 3.75840581,1.82501902 C4.0505508,1.74354495 4.37427903,1.75983976 4.69011146,1.77613458 C4.76906956,1.8087242 4.89540253,1.75983976 4.96646482,1.82501902 C5.06911036,1.75169236 5.17965171,1.84946123 5.29019306,1.81687161 C5.38494278,1.73539755 5.52706737,1.74354495 5.63760872,1.75169236 C5.80342074,1.73539755 5.98502438,1.75169236 6.12714897,1.81687161 C6.14294059,1.77613458 6.16662802,1.73539755 6.20610708,1.71910273 C6.3008568,1.68651311 6.3719191,1.75169236 6.42718977,1.8087242 C6.48246045,1.78428198 6.54562693,1.78428198 6.6008976,1.8087242 C6.76670962,1.9309353 6.97989651,1.82501902 7.16150015,1.89019827 C7.47733257,1.94723011 7.82474824,1.92278789 8.15637228,1.9390827 C8.54326699,1.95537752 8.87489104,2.10203083 9.26178575,2.11832564 C9.60130561,2.19979971 9.96451289,2.20794711 10.2882411,2.30571599 C10.6040735,2.31386339 10.8804269,2.42792708 11.1804677,2.4523693 C11.2673216,2.52569596 11.3936546,2.50125374 11.5041959,2.53384337 C11.583154,2.48495893 11.6463205,2.56643299 11.7252786,2.56643299 C11.7963409,2.59087521 11.8595074,2.65605446 11.9305697,2.68049668 C12.0726943,2.63161224 12.1358608,2.81900259 12.2858812,2.77826555 C12.42011,2.89232924 12.6017136,2.92491887 12.7438382,3.03083515 C12.8385879,2.98195071 12.9254418,3.05527737 13.0280874,3.04712996 C13.0912539,3.06342478 13.1544203,3.12860403 13.2254826,3.10416181 C13.375503,3.18563587 13.5728983,3.12045662 13.6913355,3.29155215 C13.7860852,3.3567314 13.8413559,3.23452031 13.9282098,3.24266772 C14.0466469,3.2182255 14.086126,3.07971959 14.1887715,3.02268774 C14.3308961,3.07971959 14.4572291,2.97380331 14.5993537,2.99824553 C14.7335825,3.02268774 14.7809573,2.85159221 14.8836029,2.80270777 C14.8914987,2.68864409 15.0415191,2.66420187 15.0652065,2.55828558 C15.0099358,2.50940115 15.0415191,2.41163227 15.0336233,2.34645302" id="Shape"></path>
                        <path d="M1.94236939,8.81549364 C1.92657777,8.66884032 1.72918251,8.66884032 1.68970345,8.53033442 C1.58705792,8.45700776 1.5712663,8.31850185 1.44493333,8.2533226 C1.38176684,8.17999594 1.31860036,8.16370113 1.26332968,8.10666929 C1.14489253,8.04963744 1.04224699,7.96001597 0.908018211,7.94372116 C0.757997811,7.91927894 0.757997811,7.75633082 0.710622948,7.64226713 C0.686935516,7.51190863 0.6000816,7.42228716 0.505331874,7.33266569 C0.465852821,7.25119162 0.465852821,7.16157015 0.418477958,7.0882435 C0.44216539,6.99047462 0.363207284,6.93344278 0.394790527,6.84382131 C0.426373769,6.76234725 0.347415663,6.63198874 0.44216539,6.5749569 C0.44216539,6.46089321 0.497436063,6.37127174 0.552706737,6.28165027 C0.655352274,6.20017621 0.584289979,6.03722808 0.647456464,5.93945921 C0.647456464,5.89057477 0.671143895,5.85798514 0.663248085,5.80910071 C0.734310379,5.72762664 0.679039706,5.62171036 0.702727137,5.53208889 C0.757997811,5.48320445 0.718518758,5.38543558 0.773789432,5.33655114 C0.757997811,5.24692967 0.852747537,5.19804523 0.821164295,5.10842376 C0.900122401,5.03509711 0.860643348,4.8965912 0.923809832,4.80696973 C1.04224699,4.75808529 1.06593442,4.52181051 1.10541347,4.40774682 C1.12910091,4.26924091 1.2001632,4.37515719 1.23964225,3.91075503 L1.23964225,3.91075503 L1.23964225,4.0003765 C1.27912131,3.93519725 1.29491293,3.90260763 1.3501836,3.83742838 C1.37387103,3.69892247 1.44493333,3.60115359 1.52389143,3.49523731 C1.57916211,3.41376325 1.43703752,3.38117362 1.50809981,3.29969956 C1.49230819,3.25081512 1.43703752,3.26710993 1.41335009,3.2182255 C1.37387103,3.17748846 1.39755846,3.12860403 1.38966265,3.087867 C1.41335009,2.99009812 1.42914171,2.90047665 1.46072495,2.81085518 C1.44493333,2.74567593 1.36597522,2.77826555 1.31860036,2.75382334 C1.18437158,2.77826555 1.1212051,2.89232924 1.08172604,3.01454034 C1.06593442,3.07157218 0.986976316,3.0960144 1.01066375,3.16934106 C0.947497264,3.25896253 0.939601453,3.37302622 0.860643348,3.46264769 C0.852747537,3.49523731 0.852747537,3.52782694 0.844851727,3.56041656 C0.829060106,3.67448025 0.757997811,3.74780691 0.734310379,3.85372319 C0.726414569,3.94334466 0.663248085,4.00852391 0.663248085,4.09814538 C0.631664842,4.23665129 0.568498358,4.33442016 0.552706737,4.46477866 C0.44216539,4.54625273 0.489540253,4.70920085 0.402686337,4.81511713 C0.402686337,4.9047386 0.307936611,4.92103342 0.315832421,5.01880229 C0.260561748,5.11657117 0.252665937,5.23063486 0.228978505,5.33655114 C0.197395263,5.39358298 0.181603642,5.45061483 0.181603642,5.52394148 C0.157916211,5.58912074 0.110541347,5.63800517 0.126332968,5.71947924 C0.110541347,5.78465849 0.0473748632,5.84169033 0.0789581053,5.91501699 C0.0157916211,5.97204883 0.0631664842,6.0616703 0.0157916211,6.13499696 L0,6.90085315 L0.0157916211,6.93344278 C0.0157916211,7.02306425 0.0394790527,7.10453831 0.0868539158,7.16971756 C0.0631664842,7.23489681 0.0947497264,7.30007606 0.126332968,7.35710791 C0.134228779,7.43858197 0.197395263,7.49561381 0.213186884,7.56894047 C0.213186884,7.6096775 0.213186884,7.64226713 0.228978505,7.66670935 C0.3000408,7.76447822 0.355311474,7.83780488 0.378998905,7.95186857 C0.497436063,8.10666929 0.639560653,8.20443816 0.781685243,8.33479666 C0.829060106,8.39997592 0.923809832,8.47330257 0.963288885,8.55477664 C1.09751766,8.67698773 1.24753806,8.79919882 1.35807941,8.90511511 C1.37387103,8.97029436 1.46072495,9.00288398 1.48441238,9.06806323 C1.56337049,9.12509508 1.65812021,9.23915877 1.76076575,9.27174839 C1.83182804,9.27174839 1.85551547,9.35322245 1.93447358,9.32878024 C2.0213275,9.30433802 2.11607722,9.32063283 2.21082695,9.31248542 C2.28188924,9.30433802 2.33715992,9.23915877 2.36084735,9.17397952 C2.30557668,8.93770473 2.05291074,8.97029436 1.94236939,8.81549364" id="Shape"></path>
                        <path d="M25.377135,4.40774682 C25.3455518,4.31812535 25.463989,4.26109351 25.4245099,4.17147204 L25.211323,3.92704985 C25.1955314,3.87816541 25.211323,3.83742838 25.171844,3.80483875 C25.1086775,3.78854394 25.0297194,3.80483875 24.9823445,3.84557578 C24.8402199,3.89446022 24.7849493,3.71521728 24.6901995,3.65003803 C24.5638666,3.65003803 24.4533252,3.62559581 24.3427839,3.59300619 C24.2322425,3.55226916 24.169076,3.67448025 24.0585347,3.61744841 L23.963785,3.56041656 C23.8611394,3.53597434 23.8216604,3.67448025 23.7505981,3.72336469 C23.6637442,3.78039653 23.6005777,3.69077506 23.5295154,3.65818544 C23.4742447,3.63374322 23.3952866,3.65003803 23.3479117,3.60115359 C23.2610578,3.52782694 23.2057872,3.64189062 23.1347249,3.65818544 C23.0478709,3.71521728 22.9847045,3.61744841 22.8978505,3.63374322 C22.7241427,3.69077506 22.5188516,3.68262766 22.3293522,3.69077506 C22.2503941,3.73151209 22.1793318,3.82928097 22.0766862,3.77224913 C21.8003329,3.74780691 21.5476669,3.870018 21.2634178,3.85372319 C21.0818141,3.91890244 20.8607314,3.8618706 20.7028152,3.97593428 C20.3711912,4.04111353 19.9921923,3.9922291 19.6605682,4.08999797 C19.5421311,4.11444019 19.4079023,4.26924091 19.2894651,4.14702982 L19.1947154,4.20406166 C19.0920699,4.2529461 19.0289034,4.13888241 18.9578411,4.09814538 C18.8867788,4.08999797 18.8078207,4.08999797 18.7367584,4.07370316 C18.6025296,3.93519725 18.4051343,3.96778688 18.2235307,3.96778688 C18.1366768,3.97593428 18.0656145,4.03296613 17.9708648,4.03296613 C17.9076983,4.08185057 17.8998025,4.18776685 17.8129486,4.21220907 C17.6471365,4.15517722 17.5365952,4.28553572 17.378679,4.27738832 C17.3313041,4.30183054 17.2918251,4.36700979 17.2286586,4.35071497 C17.126013,4.32627276 17.0628466,4.43218904 16.960201,4.43218904 C16.8575555,4.52995791 16.7233267,4.47292607 16.5890979,4.48922088 C16.4311817,4.53810532 16.2653697,4.36700979 16.1548283,4.52995791 C16.0521828,4.67661123 15.8863708,4.58698976 15.7442462,4.60328457 C15.6179132,4.66846382 15.459997,4.70920085 15.3257682,4.66846382 C15.2704976,4.72549567 15.128373,4.74179048 15.1757478,4.85585417 C15.167852,4.91288601 15.1204772,4.95362304 15.0731023,4.97806526 C14.8599154,4.98621267 14.6783118,5.05139192 14.4651249,5.07583414 C14.2993129,5.04324451 14.1729799,5.17360301 14.0308553,5.22248745 C13.7308145,5.26322448 13.462357,5.4098778 13.1544203,5.44246742 L12.9491293,5.53208889 C12.6885675,5.62171036 12.4043183,5.65429999 12.1516524,5.76836367 C11.8121326,5.84169033 11.4726127,5.9313118 11.1488845,6.0616703 C11.085718,6.11055474 11.0146557,6.17573399 10.9356976,6.1920288 C10.8014688,6.16758658 10.7225107,6.3142399 10.6040735,6.34682952 C10.501428,6.4527458 10.3593034,6.46089321 10.2408663,6.51792506 C10.2013872,6.52607246 10.1461165,6.55866209 10.169804,6.61569393 C10.1224291,6.64828356 10.0908459,6.69716799 10.0276794,6.68902059 C9.90924222,6.80308428 9.71184695,6.74605243 9.62499304,6.92529537 C9.60130561,6.99047462 9.49866007,7.03121165 9.54603493,7.11268572 C9.5223475,7.16971756 9.45918102,7.18601237 9.41180615,7.16971756 C9.31705643,7.24304422 9.20651508,7.10453831 9.12755697,7.218602 C9.08018211,7.35710791 8.94595333,7.40599234 8.81962036,7.41413975 C8.78803712,7.41413975 8.7722455,7.42228716 8.76434969,7.43858197 C8.74855807,7.43043456 8.73276645,7.42228716 8.72487064,7.41413975 C8.64591253,7.38969753 8.6222251,7.49561381 8.55905862,7.51190863 C8.46430889,7.52005603 8.37745497,7.56079306 8.31428849,7.6096775 C8.05372674,7.81336266 7.74579013,7.90298413 7.54839487,8.17999594 C7.53260325,8.27776482 7.40627028,8.2533226 7.39047866,8.34294407 C7.31152055,8.39997592 7.23256245,8.48144998 7.18518758,8.54662923 C7.10622948,8.58736626 7.04306299,8.6443981 6.98779232,8.71772476 C6.99568813,8.78290401 6.95620908,8.82364104 6.91673003,8.84808326 C6.9009384,8.91326251 6.83777192,8.94585214 6.78250125,8.98658917 C6.74302219,9.08435805 6.63248085,9.14138989 6.57721017,9.21471655 C6.50614788,9.36951727 6.43508558,9.5406128 6.31664842,9.6709713 L6.3008568,9.85021424 C6.3008568,9.87465646 6.33244005,9.89909868 6.33244005,9.9316883 C6.3008568,9.97242533 6.31664842,10.045752 6.31664842,10.0946364 C6.29296099,10.1109312 6.3008568,10.1598157 6.30875261,10.1761105 C6.32454424,10.2494371 6.3008568,10.3390586 6.36402329,10.4042379 C6.41929396,10.5427438 6.47456464,10.6731023 6.51404369,10.8116082 C6.57721017,10.8523452 6.55352274,10.9419667 6.56931436,11.0234408 C6.60879341,11.0804726 6.56931436,11.1619467 6.58510598,11.2271259 C6.47456464,11.349337 6.4508772,11.4878429 6.30875261,11.5937592 C6.27716937,11.6344962 6.26927356,11.6915281 6.22979451,11.7241177 C6.08766992,11.7974444 5.95344114,11.9033606 5.8507956,12.0418665 C5.8507956,12.1070458 5.91396209,12.1640776 5.96923276,12.2048147 C6.01660762,12.1885199 6.09556573,12.2211095 6.13504478,12.172225 C6.20610708,12.1070458 6.3008568,12.0255717 6.38771072,11.9685399 C6.4508772,11.8870658 6.56931436,11.911508 6.64037666,11.830034 C6.6719599,11.7730021 6.76670962,11.8218866 6.79039706,11.7485599 C6.92462584,11.6833807 6.99568813,11.5856118 7.10622948,11.4878429 C7.08254205,11.3982214 7.14570853,11.3330422 7.19308339,11.2841578 C7.18518758,11.2352733 7.2009792,11.1945363 7.21677083,11.1537993 C7.24045826,11.1049148 7.18518758,11.08862 7.16150015,11.0641778 C7.23256245,10.9827037 7.11412529,10.9501141 7.1220211,10.8767874 C7.09043786,10.8360504 7.10622948,10.7790186 7.05885461,10.7464289 C7.06675043,10.6568075 6.9720007,10.607923 6.98779232,10.5101542 C6.93252165,10.4775645 6.95620908,10.4123853 6.93252165,10.3797957 C6.92462584,10.3309112 6.93252165,10.2901742 6.95620908,10.2494371 C6.90883421,10.1679631 6.9720007,10.086489 6.98779232,10.005015 C6.97989651,9.7931824 7.13781272,9.65467649 7.15360434,9.46728614 L7.29572893,9.25545358 C7.39047866,9.12509508 7.59576973,9.13324248 7.69051946,8.97029436 C7.79316499,8.95399955 7.8010608,8.83178845 7.89581053,8.78290401 C7.91160215,8.7666092 7.92739377,8.75031439 7.93528958,8.73401957 C7.96687283,8.78290401 7.99845607,8.84808326 8.06162255,8.85623067 C8.18795552,9.0273262 8.41693403,8.97029436 8.52747537,9.17397952 C8.64591253,9.19842173 8.78014131,9.29619061 8.81962036,9.42654911 C8.88278685,9.57320243 9.04070306,9.58134983 9.15124441,9.66282389 C9.20651508,9.69541352 9.20651508,9.76059277 9.26178575,9.77688758 C9.39601453,9.83391943 9.34863967,9.98872015 9.45918102,10.0701942 C9.42759777,10.1679631 9.56972236,10.2005527 9.53813912,10.2901742 C9.6723679,10.4042379 9.81449249,10.4857119 9.99609613,10.4775645 C10.043471,10.4775645 10.0908459,10.4531223 10.1303249,10.4938593 C10.1855956,10.6568075 10.4066783,10.5997756 10.4303657,10.7953134 C10.4935322,10.86864 10.5882819,10.9338193 10.6988233,10.9256719 C10.9278018,10.8523452 11.0936138,11.0723252 11.3304881,10.9908511 C11.4489253,11.0071459 11.5594666,11.0723252 11.6857996,11.047883 C11.7805493,11.1130622 11.8989865,11.1049148 12.0095278,11.1212096 C12.1753398,11.2597155 12.3174644,11.0641778 12.4832764,11.0641778 C12.625401,11.1375044 12.7438382,11.0234408 12.8622754,10.9908511 C13.0122958,10.9582615 13.0991497,11.1212096 13.2491701,11.0641778 C13.2807533,11.047883 13.3281282,11.0723252 13.3518156,11.0397356 C13.3518156,10.9989985 13.3044407,10.9827037 13.2886491,10.9501141 C13.2728575,10.9093771 13.2965449,10.8767874 13.3123366,10.8441978 C13.5492109,10.7382815 13.8334601,10.7627237 14.0466469,10.607923 C14.2756254,10.3960905 14.6230411,10.4938593 14.8678112,10.3146164 C15.1125814,10.3227638 15.294185,10.2087001 15.5073719,10.1272261 C15.6652881,10.005015 15.8705792,10.005015 16.0521828,9.9235409 C16.3127446,9.88280387 16.5259314,9.71985574 16.8022848,9.72800315 C17.0154717,9.59764464 17.2760334,9.54876021 17.5129078,9.46728614 C17.6629282,9.41840171 17.8445318,9.45913874 17.9866564,9.40210689 C18.3024888,9.27174839 18.7209668,9.38581208 19.0131118,9.19842173 C19.1868196,9.10065286 19.4157981,9.13324248 19.6131934,9.09250545 C19.8026928,9.09250545 19.9369216,8.98658917 20.1185252,8.97844176 C20.3159205,9.03547361 20.4896283,8.93770473 20.6554403,8.85623067 C20.8212524,8.84808326 20.9475853,8.71772476 21.1212932,8.71772476 L21.2871052,8.52218701 C21.3028968,8.3836811 21.4055423,8.27776482 21.4687088,8.15555373 C21.4923963,8.04149004 21.5555627,7.90298413 21.6818957,7.88668932 C21.7292706,7.8622471 21.7766454,7.91113154 21.8240203,7.8703945 C21.91877,7.76447822 22.045103,7.70744638 22.1635402,7.65856194 C22.3056647,7.59338269 22.3530396,7.43858197 22.50306,7.38969753 C22.668872,7.39784494 22.755726,7.18601237 22.9136422,7.17786497 C23.0636626,7.17786497 23.1899955,7.06380128 23.3479117,7.11268572 C23.418974,7.15342275 23.4505573,7.08009609 23.4821405,7.03935906 C23.5295154,6.98232722 23.6005777,6.97417981 23.67164,6.97417981 C23.7190148,6.94159018 23.7584939,6.88455834 23.7900771,6.8356739 C23.7979729,6.75419984 23.9400975,6.69716799 23.8611394,6.60754653 C23.8532436,6.56680949 23.8453478,6.50977765 23.876931,6.47718802 C23.8611394,6.36312434 23.963785,6.29794508 23.9164101,6.1838814 C23.9322017,6.11055474 24.003264,6.10240733 24.0506389,6.0616703 C24.169076,5.98834364 24.25593,6.17573399 24.3664713,6.06981771 C24.4138462,5.96390143 24.295409,5.93945921 24.2480341,5.86613255 C24.1453886,5.79280589 24.2875132,5.71947924 24.2006593,5.63800517 C24.2638258,5.49949927 24.421742,5.49949927 24.5085959,5.38543558 C24.6823037,5.29581411 24.919178,5.31210892 25.1086775,5.32025633 C25.1481565,5.32025633 25.1797398,5.27137189 25.171844,5.23063486 C25.2350105,5.13286598 25.2508021,5.01065489 25.2823853,4.88844379 C25.2508021,4.74993788 25.377135,4.68475863 25.463989,4.61143198 L25.4797806,4.49736829 L25.377135,4.40774682" id="Shape"></path>
                        <path d="M2.82670017,12.9788183 C2.86617922,13.0195553 2.83459598,13.0765871 2.82670017,13.1173242 C2.83459598,13.1417664 2.84249179,13.174356 2.82670017,13.1906508 C2.77932531,13.2150931 2.70826301,13.1987982 2.66878396,13.2476827 C2.59772166,13.3047145 2.58982585,13.4432204 2.47928451,13.4595152 C2.40822221,13.4921049 2.43190964,13.5735789 2.38453478,13.6224634 C2.32926411,13.7283796 2.26609762,13.8424433 2.28978505,13.9646544 C2.19503533,14.0950129 2.26609762,14.2824033 2.23451438,14.437204 C2.24241019,14.5186781 2.28978505,14.6001521 2.250306,14.6816262 C2.30557668,14.738658 2.36874316,14.7793951 2.36874316,14.8690165 C2.4003264,14.9260484 2.46349289,14.9423432 2.50297194,14.9830802 L2.65299234,15.0075224 C2.73984625,15.1134387 2.90565828,15.1052913 3.03199124,15.0971439 C3.13463678,15.0564069 3.2214907,14.9830802 3.33992785,14.958638 C3.40309434,14.9341958 3.38730272,14.8201321 3.48994825,14.8608691 C3.57680217,14.8527217 3.63207284,14.7712477 3.72682257,14.7712477 C3.8215723,14.7223632 3.91632202,14.6816262 3.98738432,14.6001521 C4.03475918,14.5512677 4.10582148,14.5186781 4.14530053,14.4616462 C4.2005712,14.3883196 4.23215444,14.2742559 4.33479998,14.2498137 C4.3505916,14.2253714 4.38217484,14.217224 4.41375809,14.2253714 C4.44534133,14.2824033 4.54798687,14.1846344 4.53219524,14.2905507 C4.56377849,14.3231403 4.60325754,14.3312877 4.59536173,14.3801722 C4.55588268,14.4290566 4.55588268,14.5023832 4.50850781,14.5512677 C4.46113295,14.7468054 4.54009106,14.917901 4.59536173,15.0808491 C4.67431983,15.1623232 4.69800727,15.3089765 4.81644442,15.3578609 C4.91119415,15.3741557 4.99804807,15.4148928 5.07700617,15.480072 C5.1717559,15.4963668 5.23492238,15.6104305 5.3217763,15.6430201 C5.38494278,15.6348727 5.42442183,15.6919046 5.48758832,15.6919046 C5.61392129,15.7570838 5.74815007,15.6919046 5.86658722,15.6593149 C6.1508364,15.5371039 6.40350234,15.3497135 6.53773112,15.0645543 C6.57721017,15.0075224 6.64037666,14.9912276 6.70354314,14.9749328 C6.77460544,14.9830802 6.85356354,15.0075224 6.88514678,15.0889965 C6.93252165,15.178618 6.86145935,15.260092 6.87725097,15.3497135 C6.83777192,15.3985979 6.84566773,15.4719246 6.78250125,15.5045142 C6.77460544,15.6185779 6.63248085,15.6185779 6.6008976,15.7081994 C6.58510598,15.7081994 6.56931436,15.7326416 6.56141855,15.740789 C6.54562693,15.8304105 6.44298139,15.8467053 6.39560653,15.9037371 C6.3008568,15.9281794 6.25348194,16.0259482 6.14294059,16.0178008 C6.08766992,16.0911275 5.98502438,16.0829801 5.89817047,16.1074223 C5.7007752,16.1318645 5.4717967,16.2051912 5.28229725,16.1074223 C5.15596428,16.1400119 5.08490198,16.0503904 4.98225645,16.0340956 C4.88750672,15.9689164 4.73748632,15.9689164 4.69800727,15.8630001 C4.61115335,15.7896734 4.500612,15.6593149 4.39796647,15.5859883 C4.37427903,15.5615461 4.36638322,15.5289564 4.36638322,15.4882194 C4.27952931,15.3904505 4.26373769,15.2356498 4.14530053,15.1623232 C4.04265499,15.1378809 3.97948851,15.2030602 3.89263459,15.2112076 C3.78209324,15.2519446 3.71892676,15.3497135 3.59259379,15.3660083 C3.49784407,15.4719246 3.33992785,15.4230402 3.24517813,15.520809 C3.08726192,15.5533987 2.92934571,15.5533987 2.76353369,15.5696935 C2.63720072,15.6104305 2.51086775,15.5696935 2.40822221,15.5045142 C2.39243059,15.4556298 2.3213683,15.4556298 2.28978505,15.4148928 C2.11607722,15.3171239 2.0213275,15.1378809 1.91868196,14.9749328 C1.91868196,14.9016062 1.86341129,14.8527217 1.85551547,14.7793951 C1.8002448,14.6327417 1.75286994,14.4697936 1.77655737,14.2986981 C1.74497413,14.2009292 1.73707832,14.0542759 1.80814061,13.9728018 C1.8002448,13.9239174 1.85551547,13.8994752 1.86341129,13.8505907 C1.84761966,13.7365271 1.91078615,13.6387582 1.92657777,13.5246945 C1.98974425,13.4513678 2.08449398,13.3698938 2.1002856,13.2639775 C2.19503533,13.1662086 2.28188924,13.0032605 2.43980545,13.0277027 C2.48718032,12.9869657 2.51876356,12.8973442 2.60561748,12.913639 C2.69247139,12.9217864 2.7714295,12.9217864 2.82670017,12.9788183" id="Shape"></path>
                        <path d="M19.1789238,16.2377808 C19.1552363,16.1644541 19.2262986,16.0829801 19.1552363,16.0259482 C19.1394447,15.8874423 19.1473405,15.740789 19.0999657,15.6022831 C19.2420903,15.3985979 18.9262578,15.3008291 19.0052159,15.0971439 C18.9341537,14.9912276 18.9420495,14.8527217 18.8157165,14.7712477 C18.7604458,14.5594151 18.5156757,14.5594151 18.4446134,14.3638773 C18.3024888,14.2824033 18.1524684,14.217224 17.9945522,14.1601922 C17.8524276,14.1846344 17.7418863,14.0542759 17.5918659,14.1113077 C17.5760742,14.176487 17.4734287,14.2009292 17.4892203,14.2579611 C17.6076575,14.3475825 17.7734695,14.3231403 17.8919067,14.4209092 C18.0340313,14.4046144 18.1524684,14.477941 18.2551139,14.5675625 C18.3656553,14.6164469 18.4130302,14.7549528 18.5472589,14.7712477 C18.7367584,14.8038373 18.7367584,15.0156698 18.7920291,15.1541758 C18.7762374,15.2519446 18.6735919,15.2112076 18.626217,15.2682394 C18.586738,15.3578609 18.7209668,15.3985979 18.7604458,15.4556298 C18.8551955,15.5778409 18.9657369,15.7081994 18.9341537,15.8711475 C19.0052159,15.9689164 18.9420495,16.0829801 18.8946746,16.1726015 C18.7920291,16.1726015 18.8551955,16.2866652 18.7841333,16.3111075 C18.6420087,16.2703704 18.5630506,16.1155697 18.4761966,16.001506 C18.420926,15.9200319 18.4683008,15.8385579 18.4840925,15.7570838 C18.4525092,15.7081994 18.420926,15.6430201 18.3577595,15.6267253 C18.1761558,15.5941357 18.1445726,15.3823031 18.002448,15.2926817 C17.9392815,15.2030602 17.7971569,15.1460283 17.8050527,15.0156698 C17.7892611,14.9504906 17.7260946,14.958638 17.6945114,14.917901 C17.5681784,14.9504906 17.4260538,14.9260484 17.3234083,14.8364269 C17.2207628,14.5675625 16.920722,14.6816262 16.7628058,14.5186781 C16.6127854,14.5431203 16.502244,14.4127618 16.3443278,14.4534988 C16.2811613,14.4209092 16.2179948,14.3883196 16.1469325,14.3720247 C15.9811205,14.4453514 15.8468917,14.3312877 15.6810797,14.3394351 C15.625809,14.3231403 15.5705384,14.2661085 15.5152677,14.3068455 C15.4047263,14.2579611 15.2626018,14.2905507 15.1520604,14.2824033 C15.0888939,14.3231403 15.0099358,14.3394351 14.9309777,14.3231403 C14.8599154,14.2742559 14.7572699,14.2905507 14.6783118,14.2335188 C14.5598746,14.2090766 14.4414375,14.1927818 14.3230003,14.1927818 C14.1887715,14.2824033 14.0545427,14.1683396 13.9045223,14.2253714 L13.8018768,14.1276026 C13.7071271,14.1194552 13.6202732,14.0868655 13.5334192,14.0542759 C13.4702528,14.0216863 13.4149821,13.9483596 13.3439198,13.9320648 C13.2333784,13.9646544 13.1149413,13.9646544 13.0201916,13.8913278 C12.9333376,13.91577 12.9096502,13.8017063 12.8306921,13.8098537 C12.7043591,13.8342959 12.585922,13.8098537 12.4516932,13.8261485 L12.3964225,13.8587381 C12.3253602,13.9809492 12.3885267,14.1194552 12.3964225,14.2416662 C12.4437974,14.3475825 12.5543387,14.3883196 12.6332968,14.4616462 C12.6727759,14.4860884 12.712255,14.5268255 12.7201508,14.5757099 C12.7280466,14.697921 12.5938178,14.7223632 12.5148597,14.7631003 C12.3885267,14.8119847 12.333256,14.6408892 12.2069231,14.6653314 C12.1200692,14.5675625 11.9700488,14.657184 11.875299,14.5920047 C11.8042367,14.6653314 11.7173828,14.6082995 11.6305289,14.6164469 C11.4963001,14.6897736 11.3462797,14.7060684 11.2278426,14.8119847 C11.1409887,14.8201321 11.0778222,14.9016062 10.9909683,14.8690165 C10.7856772,14.8608691 10.8409479,15.1704706 10.6198652,15.1215861 C10.3987825,15.2112076 10.3119286,15.4719246 10.2566579,15.6919046 C10.1934914,15.8141157 10.0671584,15.9037371 10.0355752,16.0340956 C10.0908459,16.221486 9.90134641,16.3111075 9.79870087,16.4251711 C9.80659668,16.4984978 9.7434302,16.5718245 9.80659668,16.6288563 C9.79080506,16.7103304 9.86976316,16.8162466 9.76711763,16.8569837 C9.72763857,16.8651311 9.6723679,16.8732785 9.64078466,16.8406889 C9.62499304,16.7999518 9.58551398,16.7755096 9.60130561,16.7266252 C9.71184695,16.6125615 9.55393074,16.4984978 9.60920142,16.3762867 C9.57761817,16.2785178 9.65657628,16.2133386 9.6723679,16.1237171 C9.64868047,16.0911275 9.66447209,15.9933586 9.5934098,16.0178008 C9.48286845,16.0992749 9.49866007,16.2459282 9.48286845,16.3762867 C9.40391034,16.5066452 9.46707683,16.702183 9.40391034,16.8406889 C9.45918102,16.9466051 9.40391034,17.0932585 9.48286845,17.1828799 C9.5223475,17.2806488 9.41180615,17.3539755 9.47497264,17.4435969 C9.39601453,17.5821028 9.60130561,17.6472821 9.53813912,17.7939354 C9.57761817,17.9242939 9.56972236,18.046505 9.56972236,18.1931583 C9.68815952,18.2827798 9.5934098,18.4457279 9.68026371,18.5597916 C9.71974276,18.608676 9.66447209,18.6657079 9.6723679,18.7064449 L9.8223883,18.8449508 C9.81449249,19.1056678 10.0987417,19.2278789 10.0592626,19.4967433 C10.0355752,19.5293329 10.0513668,19.5782174 10.0592626,19.6189544 C10.1776998,19.7004285 10.2013872,19.8389344 10.2408663,19.9448507 C10.209283,20.0263247 10.2803453,20.0833566 10.2566579,20.1648306 C10.3987825,20.3359262 10.4224699,20.5640536 10.5251154,20.7514439 C10.6198652,20.8818024 10.6593442,21.0284557 10.7461981,21.1588142 C10.919906,21.5091527 11.1962593,21.8350489 11.5041959,22.0957659 C11.6779038,22.2098296 11.83582,22.3564829 12.0174236,22.4461044 C12.3095686,22.657937 12.6332968,22.8127377 13.0043999,22.8534747 C13.2570659,22.8616221 13.4939402,22.9430962 13.7387103,23.000128 C13.8650433,23.1141917 13.9913763,23.220108 14.1335009,23.3097295 C14.2045631,23.3097295 14.2993129,23.3178769 14.3624794,23.2771399 C14.3861668,23.2445502 14.3703752,23.2119606 14.3624794,23.179371 C14.41775,23.0653073 14.5677704,23.1141917 14.6625202,23.0897495 C14.7335825,23.1549288 14.8046447,23.0734547 14.875707,23.0816021 C15.0099358,23.179371 15.1599562,23.0734547 15.294185,23.0653073 C15.3573515,23.0164229 15.4363096,22.9838332 15.5073719,23.0082754 L15.7442462,22.918654 C15.8074127,22.8779169 15.8942666,22.9105066 15.9416415,22.8371799 C16.1074535,22.8127377 16.2574739,22.739411 16.3838069,22.6334948 C16.6443686,22.39722 16.9680968,22.3157459 17.2444502,22.1283556 C17.4892203,21.9002282 17.7260946,21.6639534 17.9787606,21.4521208 C18.0893019,21.3706468 18.1998433,21.2647305 18.2156349,21.1262246 C18.2866972,21.0366031 18.2156349,20.8818024 18.3103846,20.8003283 C18.4761966,20.6781172 18.4683008,20.4825795 18.5393631,20.3196314 C18.5788422,20.2055677 18.4761966,20.1403884 18.460405,20.050767 C18.5314673,19.9774403 18.4525092,19.8633766 18.5235715,19.7900499 C18.5077799,19.7330181 18.4288218,19.7167233 18.460405,19.6433966 C18.4761966,19.57007 18.5630506,19.5945122 18.5946338,19.5456278 C18.6183212,19.2604685 18.8236123,19.0567834 18.8946746,18.7960664 C18.9025704,18.7227397 18.8472997,18.6331183 18.918362,18.5760864 C18.9025704,18.4538753 19.0367992,18.3561064 18.9499453,18.2420427 C18.9499453,18.1687161 19.0367992,18.1524213 19.044695,18.0790946 C19.0131118,17.9976206 19.0920699,17.8754095 18.9894243,17.8183776 C18.9578411,17.7369036 19.0052159,17.6635769 19.0525908,17.6065451 C19.0210076,17.5576606 19.044695,17.5087762 19.0683824,17.4680391 C19.0289034,17.3539755 19.1789238,17.2562066 19.0604866,17.1665851 C19.1236531,17.003637 18.8946746,17.0199318 18.8551955,16.9058681 C18.8630914,16.7592148 18.7999249,16.6370037 18.7920291,16.4984978 C18.8078207,16.4333185 18.8867788,16.4333185 18.9262578,16.3762867 C19.0367992,16.3436971 18.9973201,16.52294 19.1078615,16.4984978 C19.1552363,16.4496134 19.0683824,16.4333185 19.0841741,16.3844341 C19.1157573,16.3111075 19.1394447,16.2703704 19.1789238,16.2377808" id="Shape"></path>
                        <path d="M9.80659668,13.6794952 C9.8934506,13.655053 9.98820032,13.6876426 10.0750542,13.69579 C10.1540123,13.6794952 10.2487621,13.6876426 10.3198244,13.6876426 C10.4224699,13.6794952 10.4856364,13.7446745 10.5882819,13.7446745 C10.6751358,13.7935589 10.8014688,13.7528219 10.8883227,13.8098537 C10.959385,13.7935589 10.9909683,13.8587381 11.0541347,13.8587381 C11.0936138,13.8994752 11.1725719,13.8994752 11.2278426,13.875033 C11.2910091,13.8668856 11.3541755,13.875033 11.3936546,13.91577 C11.5041959,13.9076226 11.5673624,13.8180011 11.6779038,13.8505907 C11.7568619,13.8587381 11.8279242,13.8831804 11.9068823,13.8994752 C11.9858404,13.875033 11.9542571,13.8017063 11.9700488,13.7446745 C11.9463613,13.6876426 11.9226739,13.6224634 11.8516116,13.6061686 C11.7805493,13.614316 11.7410703,13.5491367 11.6779038,13.5654315 C11.543675,13.5083997 11.417342,13.4187782 11.2673216,13.3861886 C11.0462389,13.3780412 10.8093646,13.3698938 10.6198652,13.2721249 C10.5803861,13.2639775 10.5409071,13.2721249 10.5093238,13.2476827 C10.3435118,13.2069456 10.1776998,13.174356 9.99609613,13.174356 C9.94082546,13.2069456 9.86186735,13.1987982 9.79870087,13.1987982 C9.69605533,13.1499138 9.5934098,13.2150931 9.48286845,13.2069456 C9.41970196,13.1906508 9.34074386,13.1906508 9.28547318,13.2069456 C9.23020251,13.1906508 9.19861927,13.2476827 9.15124441,13.2150931 C9.02491144,13.2069456 8.87489104,13.2313879 8.81172455,13.3617464 C8.79593293,13.4432204 8.78014131,13.5246945 8.74855807,13.6061686 C8.78803712,13.655053 8.79593293,13.7283796 8.85120361,13.7772641 C8.97753657,13.8424433 9.11176535,13.7691167 9.2223067,13.7283796 C9.39601453,13.6632004 9.61709723,13.614316 9.80659668,13.6794952" id="Shape"></path>
                        <polyline id="Shape" points="3.94790527 19.2767634 3.78998905 19.7737551 3.94790527 19.9937351 4.2716335 19.7737551 4.31900836 19.2767634 4.10582148 19.2197315"></polyline>
                        <path id="Shape"></path>
                        <path d="M28.6617922,19.8063448 C28.7012713,19.9041136 28.7012713,20.0752092 28.8433959,20.0833566 C28.8986665,20.1403884 28.9539372,20.0833566 29.0249995,20.1077988 C29.0644786,20.0670618 29.1355409,20.0996514 29.1671241,20.0426195 C29.1671241,20.0181773 29.1908115,19.9855877 29.1671241,19.9611455 C29.1829157,19.8063448 29.0960618,19.6841337 29.0960618,19.5293329 C29.0013121,19.3745322 29.1750199,19.2523211 29.1434367,19.089373 C29.0802702,18.9671619 28.9381456,18.9508671 28.8118126,18.9508671 C28.7328545,18.9753093 28.6381048,19.0567834 28.630209,19.1545523 C28.6381048,19.3419426 28.5986257,19.6026596 28.6617922,19.8063448" id="Shape"></path>
                        <path d="M33.5256115,20.2625995 C33.6756319,20.0344721 33.920402,19.912261 34.2046512,19.9692929 L34.2678177,20.0100299 C34.3151926,20.0670618 34.3546716,20.132241 34.3309842,20.2137151 C34.3151926,20.392958 34.1335889,20.4825795 33.9914643,20.5396113 C33.8256523,20.5884958 33.6440487,20.653675 33.462445,20.612938 C33.3755911,20.5070217 33.4861325,20.3766632 33.5256115,20.2625995 L33.5256115,20.2625995 L33.5256115,20.2625995 Z M34.9152742,23.0897495 C34.8678993,23.000128 34.92317,22.9105066 34.8994825,22.8127377 C34.8205244,22.6905266 34.8284203,22.5275785 34.6941915,22.437957 C34.6231292,22.3564829 34.5678585,22.2261244 34.4415255,22.2261244 C34.2678177,22.0713237 34.0151518,22.1283556 33.8730272,21.9083756 C33.7466942,21.7046904 33.5650906,21.5417423 33.5256115,21.3054675 C33.5177157,21.2158461 33.4387576,21.1180772 33.4940283,21.0284557 C33.6203612,20.9632765 33.7703816,20.9795713 33.9046104,20.9469816 C34.0625266,20.8492128 34.2599219,20.8410654 34.4099423,20.7188543 C34.5283795,20.6618224 34.6468166,20.5477587 34.7178789,20.4255476 C34.7415663,20.2788943 34.8363161,20.0996514 34.7415663,19.9529981 C34.5757543,19.7248707 34.3467758,19.5782174 34.0625266,19.610807 C33.8256523,19.6352492 33.6124654,19.7248707 33.422966,19.8552292 C33.2650498,19.9774403 33.1229252,20.1240936 33.0202796,20.2951891 C33.004488,20.3685158 32.9571132,20.4418425 32.965009,20.5151691 C32.9176341,20.6047906 32.9571132,20.7270017 32.9018425,20.8166231 C32.9097383,21.1180772 32.9729048,21.4195312 33.0834461,21.6802482 C33.257154,21.95726 33.4545492,22.2668615 33.7466942,22.4298096 C33.7782775,22.4868414 33.8019649,22.5275785 33.8651314,22.5601681 C33.9361937,22.7231162 34.1256931,22.7068214 34.2362345,22.8208851 C34.3151926,22.9838332 34.4257339,23.1304865 34.4494213,23.3178769 C34.4020465,23.4563828 34.2994009,23.6030361 34.1572764,23.6437731 C34.1335889,23.6845102 34.1020057,23.7170998 34.0941099,23.7659842 C34.1177973,23.8230161 34.1809638,23.8230161 34.2283387,23.8474583 C34.504692,23.8474583 34.7257747,23.5948887 34.8363161,23.3504665 C34.8757951,23.260845 34.9310658,23.1875184 34.9152742,23.0897495 L34.9152742,23.0897495 Z" id="Shape"></path>
                        <path d="M32.0175117,20.1159462 C32.0490949,20.4418425 32.0017201,20.7432965 31.962241,21.0366031 C31.9464494,21.2321409 31.9385536,21.4032364 31.9069704,21.5987742 C31.9069704,21.7535749 31.8990745,21.916523 31.962241,22.0387341 C32.0333033,22.1039133 32.1043656,22.0468815 32.1991153,22.0631763 C32.2938651,22.0061445 32.3965106,21.9409652 32.4754687,21.8594912 C32.420198,21.7454275 32.3965106,21.6232164 32.3886148,21.4928579 C32.4359897,21.0854876 32.4675729,20.653675 32.5149478,20.2544521 C32.5386352,20.2055677 32.5544268,20.1485358 32.5544268,20.091504 C32.4675729,19.9855877 32.3333441,19.9529981 32.2070112,19.9367033 C32.1359489,19.9774403 32.0569908,20.0426195 32.0175117,20.1159462" id="Shape"></path>
                        <path d="M30.9436815,20.8573602 C30.8726192,20.7025595 30.7383904,20.572201 30.6989113,20.4092528 C30.8568276,20.2055677 31.1647642,20.4174002 31.338472,20.2300099 C31.3621594,20.2055677 31.4253259,20.2300099 31.4253259,20.172978 C31.2832013,19.8959662 30.9278898,19.9855877 30.714703,20.050767 C30.5330993,20.1403884 30.3041208,20.1811255 30.1856837,20.3848106 C30.1935795,20.5477587 30.2330585,20.7107069 30.3357041,20.832918 C30.5015161,21.1995512 30.7462862,21.5254475 30.8963066,21.8920808 C30.9910563,22.1935348 31.1647642,22.5112837 31.046327,22.8453273 C30.9831605,22.918654 30.9357857,23.0164229 30.8489317,23.0571599 C30.8173485,23.0653073 30.7620778,23.0816021 30.7383904,23.0490125 C30.7225988,23.0327177 30.6752239,23.0327177 30.6515365,23.0571599 C30.627849,23.1549288 30.4462454,23.2038132 30.5330993,23.3178769 C30.6041616,23.4482354 30.754182,23.4074984 30.8647234,23.4074984 C31.0858061,23.3178769 31.2832013,23.1467814 31.4332217,22.9430962 C31.6069296,22.7231162 31.5753463,22.39722 31.5121798,22.136503 C31.4174301,21.6721008 31.1410767,21.2810253 30.9436815,20.8573602" id="Shape"></path>
                        <path d="M25.7087591,23.4156458 C25.6534884,22.8371799 25.6219052,22.2587141 25.3218644,21.7861645 C25.3060728,21.7291327 25.2429063,21.6721008 25.1797398,21.6883956 C25.0849901,21.696543 24.9428655,21.6232164 24.8718032,21.7454275 C24.7454702,21.9735548 24.5638666,22.17724 24.5007001,22.4298096 C24.421742,22.5520207 24.421742,22.7068214 24.3427839,22.8208851 C24.3190964,22.8453273 24.295409,22.8127377 24.2796174,22.7964429 C24.25593,22.3238933 24.2085551,21.8513437 24.169076,21.3706468 C24.1769718,21.2565831 24.1374928,21.1099298 24.2322425,21.0610453 C24.1927635,21.0447505 24.2006593,20.9958661 24.169076,20.9714239 C24.0348473,20.8492128 23.8058688,20.8980972 23.6953274,21.0366031 C23.711119,21.8676386 23.8216604,22.698674 23.9006185,23.5134146 C23.9164101,23.9859642 24.0506389,24.4096293 24.0664305,24.8658841 C24.0822221,24.9310633 24.1374928,24.9555056 24.1848677,24.9880952 C24.3112006,25.0369796 24.3822629,24.9229159 24.4770126,24.8740315 C24.5085959,24.7925574 24.6112414,24.7518204 24.6033456,24.6540515 C24.4691168,24.4259241 24.5322833,24.1244701 24.5243875,23.8637531 C24.5796582,23.3341717 24.7375744,22.8616221 24.8954906,22.3727778 C24.9112822,22.3401881 24.919178,22.2831563 24.9665529,22.2831563 C25.0770942,22.3483355 25.0770942,22.5031363 25.1165733,22.6253473 C25.1481565,22.9105066 25.2271146,23.1875184 25.2271146,23.4889724 C25.2902811,23.7985739 25.2586979,24.1570597 25.3297602,24.4748086 C25.3613434,24.5970197 25.3060728,24.7518204 25.4245099,24.8332945 C25.5745303,24.8821789 25.66928,24.7355256 25.7877172,24.6784937 C25.8035088,24.6214619 25.8903627,24.6051671 25.8824669,24.5399878 C25.7166549,24.2059442 25.7719256,23.782279 25.7087591,23.4156458" id="Shape"></path>
                        <path d="M29.2855613,24.7762626 C29.2066032,24.2059442 29.2223948,23.6030361 29.1908115,23.0164229 C29.1829157,22.8697695 29.1987073,22.7231162 29.1513325,22.5764629 C29.1513325,22.1853874 29.1118534,21.7861645 29.088166,21.3869416 L29.0486869,21.3299097 C28.9381456,21.2810253 28.7802294,21.1914038 28.669688,21.3054675 C28.5986257,21.3706468 28.5591467,21.4521208 28.5512509,21.5417423 C28.6460006,21.7046904 28.5986257,21.9083756 28.6381048,22.0957659 C28.669688,22.7231162 28.7091671,23.3667613 28.7328545,24.0104064 C28.7486461,24.4014819 28.8433959,24.7762626 28.8039168,25.1673381 C28.8197084,25.22437 28.8197084,25.2976966 28.8828749,25.3221388 C28.9934163,25.3221388 29.1197492,25.2814018 29.1829157,25.1754855 C29.4118942,25.1428959 29.2460822,24.9066211 29.2855613,24.7762626" id="Shape"></path>
                        <path d="M27.5563788,23.700805 C27.3589835,23.8881953 27.1221092,23.9941116 26.8852349,24.0918805 C26.7746935,24.1081753 26.6325689,24.1489123 26.5536108,24.0592909 C26.4904443,23.9859642 26.3877988,23.9126375 26.4272778,23.7985739 C26.6483605,23.5052672 26.9562972,23.3586139 27.2642338,23.2364028 C27.4142542,23.2038132 27.4932123,23.3504665 27.5642746,23.4482354 C27.5168997,23.5378569 27.6116494,23.6193309 27.5563788,23.700805 L27.5563788,23.700805 L27.5563788,23.700805 Z M28.1959394,23.2445502 C28.1643562,23.1549288 28.0617106,23.1630762 28.00644,23.0978969 C27.9353777,22.7068214 27.7932531,22.3483355 27.6116494,22.0061445 C27.3984625,21.615069 27.003672,21.3706468 26.5694024,21.3787942 C26.4904443,21.354352 26.4114862,21.4032364 26.3404239,21.3624994 C26.25357,21.4195312 26.0956538,21.5091527 26.127237,21.6476586 C26.1509245,21.696543 26.2061952,21.7454275 26.25357,21.7780171 C26.3088407,21.7943119 26.3641114,21.7943119 26.4114862,21.7535749 C26.5851941,21.7535749 26.7431103,21.8106067 26.877339,21.916523 C27.1773798,22.1527978 27.3116086,22.5112837 27.4379416,22.8453273 C27.4458374,22.8942118 27.5090039,22.9349488 27.4537332,22.9838332 C27.2879212,22.9675384 27.1221092,23.000128 26.9720888,23.0571599 C26.5851941,23.2282554 26.1825077,23.4726776 25.9456334,23.8719005 C25.8666753,24.0592909 26.0087999,24.1896494 26.1193412,24.3037131 C26.3641114,24.4585138 26.6957354,24.4748086 26.9799846,24.3933345 C27.4774206,24.2140916 27.9511693,23.8556057 28.2591059,23.3749087 C28.2512101,23.3097295 28.2038352,23.2934347 28.1959394,23.2445502 L28.1959394,23.2445502 Z" id="Shape"></path>
                        <path d="M23.3715992,25.2080752 C23.2926411,25.2732544 23.1663081,25.2732544 23.0794542,25.2325174 C22.7478301,25.1184537 22.5267474,24.7681152 22.4083103,24.4503664 C22.2661857,23.9452272 22.3846229,23.3993509 22.7399343,23.0327177 C22.8662673,22.9268014 23.0162877,23.1060443 23.1347249,22.9756858 C23.1584123,22.8860644 23.2610578,22.9105066 23.3084327,22.8371799 C23.2452662,22.7312636 23.1347249,22.6742318 23.0399751,22.6334948 C22.6372888,22.5357259 22.3688312,22.918654 22.1793318,23.2119606 C21.8477077,23.6763628 21.8319161,24.4585138 22.1082695,24.9555056 C22.3214564,25.3221388 22.6846637,25.6480351 23.126829,25.6154455 C23.253162,25.5991507 23.3715992,25.5584136 23.4742447,25.4932344 C23.5374112,25.3465811 23.7032232,25.3221388 23.7663897,25.1754855 L23.6163693,25.00439 C23.4742447,24.963653 23.4742447,25.1510433 23.3715992,25.2080752" id="Shape"></path>
                        <path d="M20.0158797,27.090126 C19.3210484,26.5931342 18.626217,26.1042898 17.9708648,25.5095292 L17.9550731,25.4769396 C18.1445726,25.3302862 18.3261762,25.1428959 18.5235715,24.9880952 C18.7604458,24.8414419 18.9578411,24.5970197 19.2341945,24.5562826 C19.3289442,24.4666612 19.502652,24.3933345 19.5105478,24.2385338 C19.4394855,24.1407649 19.3131526,24.0918805 19.2026112,24.1244701 C19.1315489,24.1733545 19.0604866,24.2140916 18.9894243,24.2874182 C18.7051751,24.4666612 18.4367176,24.6866411 18.1603642,24.9066211 C18.0577187,24.9718004 18.0182396,25.1103063 17.8919067,25.1184537 C17.836636,25.0695692 17.8524276,24.9880952 17.8208444,24.9229159 C17.836636,24.7355256 17.7497821,24.5725775 17.7418863,24.3851871 C17.6866156,24.2466812 17.670824,24.0918805 17.6392407,23.9370798 C17.6392407,23.7904265 17.6155533,23.6437731 17.6234491,23.4889724 L17.5918659,23.440088 C17.5050119,23.4237932 17.4102622,23.3586139 17.3234083,23.4237932 C17.2365544,23.4482354 17.1891795,23.5297095 17.1654921,23.6111835 C17.2049711,23.7578368 17.1891795,23.9044901 17.212867,24.0592909 C17.2760334,24.4992508 17.3549915,24.9473582 17.4734287,25.3710233 C17.4813245,25.485087 17.3470957,25.5502662 17.378679,25.6724773 C17.4023664,25.8191306 17.6076575,25.8354254 17.6076575,25.9983736 C17.6945114,26.4953654 17.8445318,26.9597675 17.9392815,27.4567593 C18.002448,27.6034126 17.8998025,27.872277 18.1208852,27.9130141 C18.1840517,27.8641296 18.3261762,27.9130141 18.3340721,27.790803 C18.420926,27.7093289 18.4998841,27.5952652 18.5077799,27.4812015 C18.4288218,27.4160223 18.420926,27.310106 18.4130302,27.2123371 C18.2709056,26.9679149 18.2630098,26.6583135 18.1603642,26.3894491 L18.1761558,26.3650068 C18.1919475,26.3650068 18.2235307,26.3650068 18.2393223,26.3731543 C18.7209668,26.7560824 19.2499861,27.1064208 19.7000473,27.5626756 C19.8658593,27.6360022 19.9764006,27.4730541 20.0790462,27.3752852 C20.1185252,27.3182534 20.1343169,27.2612215 20.1501085,27.1878949 C20.1106294,27.130863 20.0632546,27.1145682 20.0158797,27.090126" id="Shape"></path>
                        <path d="M20.8449398,25.2488122 C20.6396487,25.4280551 20.4501493,25.6887721 20.1659001,25.6235929 C19.960609,25.5421188 19.8105886,25.3221388 19.7869012,25.1103063 C19.7632138,24.8088522 20.0237755,24.5807249 20.2290666,24.3770397 C20.3001289,24.3688923 20.379087,24.4177767 20.4422535,24.3607449 C20.5212116,24.2466812 20.6554403,24.2792708 20.7422943,24.1977968 C20.9554811,24.1977968 21.1133974,24.3933345 21.1923555,24.5725775 C21.2081471,24.8577367 21.0107518,25.0532744 20.8449398,25.2488122 L20.8449398,25.2488122 L20.8449398,25.2488122 Z M20.671232,23.8067213 C20.5685864,23.7985739 20.4975241,23.8719005 20.4106702,23.8719005 C20.2685456,23.9859642 20.1027336,24.0267012 19.9842965,24.1733545 C19.7632138,24.4177767 19.4947562,24.6459041 19.376319,24.9473582 C19.3052567,25.1347485 19.3052567,25.3873181 19.4236939,25.5584136 C19.5500269,25.827278 19.8342761,26.0228158 20.126421,26.006521 C20.3475037,26.0309632 20.5054199,25.9168995 20.671232,25.8191306 C21.0739183,25.5013818 21.4055423,25.0858641 21.6582083,24.6540515 C21.6424167,24.4992508 21.626625,24.3281553 21.5160837,24.2059442 C21.3186884,23.9126375 21.002856,23.8311635 20.671232,23.8067213 L20.671232,23.8067213 Z" id="Shape"></path>
                        <path d="M16.8496597,27.83154 C16.8022848,28.0189303 16.5654105,27.9456037 16.4074943,27.9781933 C16.2337865,28.0270777 16.0521828,27.9700459 15.878475,27.9781933 C15.5152677,27.9130141 15.0967897,27.6930341 14.9783526,27.2856638 C14.9704568,27.0086519 15.2547059,26.9190305 15.4363096,26.8131142 C15.625809,26.7723772 15.8705792,26.5931342 16.0284954,26.8131142 L16.1153493,26.8538512 C16.17062,26.9190305 16.2495781,26.9434727 16.3285362,26.9190305 C16.4469733,26.9027357 16.5259314,26.7560824 16.6522644,26.7968194 C16.7391183,27.0086519 16.7707016,27.2530741 16.8338681,27.4730541 C16.8259722,27.5952652 16.9049303,27.7174763 16.8496597,27.83154 L16.8496597,27.83154 L16.8496597,27.83154 Z M17.086534,26.5523972 C17.086534,26.5198076 17.1102214,26.5198076 17.1181172,26.4872179 C17.1023256,26.4627757 17.0707424,26.4464809 17.0549507,26.4301861 C16.9365136,26.1857639 16.8575555,25.9250469 16.6601602,25.7132143 C16.3522236,25.3384337 15.9653289,25.045127 15.5073719,24.963653 C15.167852,24.9147685 14.836228,24.9880952 14.6151453,25.2406648 C14.5124998,25.4280551 14.3230003,25.6480351 14.4730207,25.8680151 C14.6862076,26.0391106 14.7256866,25.6887721 14.8678112,25.6072981 C14.8599154,25.566561 14.8520196,25.5095292 14.8993945,25.485087 C15.0336233,25.4117603 15.1994353,25.3791707 15.3652473,25.4036129 C15.8389959,25.5013818 16.2653697,25.9087521 16.4943482,26.3568594 C16.4864524,26.3731543 16.4706608,26.3975965 16.4469733,26.3975965 C16.2022032,26.3650068 15.917954,26.3405646 15.6731839,26.3975965 C15.3099766,26.4627757 15.00204,26.6664609 14.709895,26.9027357 C14.5835621,27.090126 14.4651249,27.269369 14.5046039,27.530086 C14.6151453,27.8559822 14.9151861,28.1085518 15.2152269,28.2389103 C15.7758294,28.4507429 16.4785566,28.3203844 17.0707424,28.3203844 L17.1497005,28.2552051 C17.212867,28.1248466 17.4813245,28.0189303 17.3313041,27.8396874 C17.2997209,27.3834326 17.2049711,26.9597675 17.086534,26.5523972 L17.086534,26.5523972 Z" id="Shape"></path>
                        <path d="M14.2361464,28.6299858 C13.9834805,28.6870177 13.7071271,28.6625754 13.462357,28.7033125 C13.1386287,28.7521969 12.8227963,28.8662606 12.4832764,28.8418184 C12.4516932,28.8255236 12.3964225,28.7929339 12.3964225,28.7440495 C12.5622346,28.4344481 12.7201508,28.1166992 12.9333376,27.83154 C13.2017952,27.4323171 13.4702528,27.0412416 13.7150229,26.6338713 C13.8018768,26.4953654 13.920314,26.3650068 13.8966265,26.1776165 L13.8808349,26.1368795 C13.7545019,26.0635528 13.6202732,25.9983736 13.4702528,26.0635528 C13.2965449,26.0635528 13.1465245,26.1368795 12.9807125,26.1531743 C12.6096094,26.2346483 12.2858812,26.4464809 11.8989865,26.5198076 C11.7805493,26.5605446 11.8279242,26.7234927 11.7805493,26.8049668 C11.8200284,26.8538512 11.8042367,26.9190305 11.8516116,26.9597675 C11.8910907,27.0086519 11.9384655,27.0330942 12.0095278,27.0249468 C12.3174644,26.7642298 12.6885675,26.6909031 13.043879,26.5523972 C13.1544203,26.5361024 13.2965449,26.4627757 13.3912947,26.5361024 C13.4149821,26.568692 13.3833988,26.5931342 13.3676072,26.6175764 C12.9570251,27.2612215 12.5148597,27.8885718 12.1200692,28.5485117 C12.0411111,28.6381332 11.9779446,28.7440495 11.9226739,28.8418184 C11.875299,28.9395872 11.9542571,29.0292087 11.9779446,29.1106828 C12.1200692,29.2491887 12.3253602,29.2736309 12.5227555,29.2491887 C12.8859628,29.1840094 13.2649617,29.135125 13.6360648,29.0617983 C13.8255642,29.0780932 14.0545427,29.0129139 14.2282506,29.1188302 C14.3072087,29.1677146 14.3624794,29.094388 14.4256458,29.0536509 C14.4809165,28.9477347 14.6151453,28.9314398 14.6388327,28.8092287 C14.709895,28.6951651 14.5756662,28.6462806 14.544083,28.5566591 C14.4335417,28.4263006 14.3308961,28.5973962 14.2361464,28.6299858" id="Shape"></path>
                        <path d="M30.1462046,25.1021589 C30.169892,25.0614218 30.1935795,25.0288322 30.1856837,24.9718004 C30.1777878,24.9392107 30.1383088,24.9229159 30.1146214,24.9066211 C29.9803926,24.9473582 29.8856429,24.7762626 29.7672057,24.8903263 C29.5698104,24.9880952 29.6803518,25.1917803 29.6408727,25.3628759 C29.6645602,25.4606447 29.6329769,25.5991507 29.7514141,25.6561825 C29.8303722,25.7702462 29.9567052,25.7295092 30.0672465,25.7620988 C30.1462046,25.7376566 30.2093711,25.6643299 30.2172669,25.5828558 C30.1383088,25.4362025 30.0751423,25.265107 30.1462046,25.1021589" id="Shape"></path>
                        <path d="M31.3542636,26.6175764 C31.5121798,26.4627757 31.6385128,26.267238 31.8516997,26.2265009 C31.9859285,26.1613217 32.1280531,26.1205847 32.2938651,26.1287321 C32.3965106,26.1694691 32.5149478,26.2265009 32.5702184,26.3405646 C32.5702184,26.3975965 32.6254891,26.4546283 32.5781143,26.5035128 C32.254386,26.7479349 31.8201164,26.9027357 31.4095343,26.7560824 C31.3700552,26.7153453 31.3068888,26.6746083 31.3542636,26.6175764 L31.3542636,26.6175764 L31.3542636,26.6175764 Z M32.9176341,28.8010813 C32.838676,28.7847865 32.7991969,28.8581132 32.7518221,28.8988502 C32.712343,28.915145 32.6807598,28.9069976 32.6412807,28.8907028 C32.4675729,29.0617983 32.2070112,29.0373561 31.9701368,29.0373561 C31.6622002,28.9477347 31.3542636,28.7114599 31.212139,28.393711 C31.1805558,28.2470577 31.1015977,28.1248466 31.1173893,27.9618985 C31.1252851,27.7582133 31.0700144,27.5463808 31.1015977,27.350843 C31.1331809,27.2938112 31.0937019,27.2041897 31.1647642,27.1634527 C31.3147846,27.1553053 31.4963882,27.1716001 31.6464086,27.1878949 C32.0096159,27.1390105 32.3728232,27.090126 32.6649682,26.870146 C32.8465718,26.7234927 33.1387168,26.568692 33.0834461,26.2835328 C33.0439671,26.1531743 32.9176341,26.0554054 32.8228844,25.9576365 C32.4044064,25.6887721 31.8122206,25.8109832 31.4253259,26.0554054 C31.1173893,26.2102061 30.8647234,26.5116602 30.7699736,26.8375564 C30.5962658,27.1634527 30.5804742,27.530086 30.5804742,27.9293089 L30.5962658,27.9781933 C30.6120574,28.3203844 30.6831197,28.6462806 30.9357857,28.8907028 C31.3147846,29.3632524 31.8911787,29.4691687 32.4438855,29.3388102 C32.4912603,29.3306627 32.5149478,29.2817783 32.5702184,29.3062205 C32.6886556,29.2410413 32.8149886,29.1840094 32.9176341,29.094388 C32.9334257,29.0455035 32.9413215,28.9884717 32.9729048,28.9477347 C33.004488,28.8825554 32.9571132,28.8418184 32.9176341,28.8010813 L32.9176341,28.8010813 Z" id="Shape"></path>
                        <path d="M28.796021,27.2530741 C28.7802294,27.2041897 28.7802294,27.1471579 28.7407503,27.1145682 C28.7170629,26.9434727 28.5749383,26.8049668 28.5591467,26.6338713 C28.4722928,26.5361024 28.3143766,26.4790705 28.1880436,26.5442498 C28.1169813,26.6257239 28.0301274,26.7071979 28.0301274,26.8212616 C28.045919,26.9353253 28.1564604,27.0086519 28.2196268,27.1064208 C28.464397,27.6278548 28.5907299,28.2144681 28.5907299,28.8255236 C28.5749383,29.0373561 28.5749383,29.2247465 28.5117718,29.4121368 C28.4959802,29.436579 28.4486053,29.4284316 28.4249179,29.4202842 C28.1169813,29.2247465 27.753774,29.0047665 27.5642746,28.654428 C27.461629,28.4914799 27.4458374,28.2877947 27.4142542,28.1004044 C27.3668793,27.9700459 27.4063584,27.7989504 27.3195044,27.6848867 C27.2010673,27.6604445 27.003672,27.61156 26.9089223,27.7256237 C26.8615474,27.7826555 26.83786,27.8478348 26.83786,27.9293089 C26.8852349,28.1411414 26.8931307,28.3611214 26.964193,28.5648066 C26.964193,28.6299858 26.9957762,28.6788702 27.0194636,28.7359021 C27.0431511,29.1106828 26.9878804,29.4610213 26.83786,29.7869175 C26.7589019,29.8520968 26.7431103,29.9906027 26.6246731,29.9824553 C26.4114862,29.9091286 26.2456742,29.7054434 26.127237,29.5180531 C25.8587795,28.9966191 25.5982177,28.4751851 25.5824261,27.8478348 C25.5192596,27.7256237 25.3455518,27.7663607 25.2192188,27.7663607 C25.1323649,27.8070978 25.1007817,27.8967192 25.0849901,27.9863407 C25.1323649,28.2307629 25.1560524,28.4914799 25.2192188,28.7277547 C25.3692392,29.1514198 25.5350513,29.5669375 25.7877172,29.9417182 C26.0087999,30.2268774 26.3088407,30.4142678 26.6641522,30.3735308 C26.7431103,30.3490885 26.8141726,30.2920567 26.8852349,30.2431723 C27.0589427,30.0150449 27.295817,29.8113597 27.3431919,29.5262005 C27.3747751,29.4691687 27.3510877,29.395842 27.4063584,29.355105 C27.42215,29.355105 27.4458374,29.355105 27.461629,29.3632524 C27.5800662,29.4854635 27.714295,29.5832323 27.8485237,29.6728538 C28.0143358,29.7298857 28.1643562,29.8439493 28.338064,29.876539 C28.6144174,29.9498656 28.756542,29.6728538 28.8986665,29.5017583 C29.0486869,29.1677146 29.0486869,28.7847865 29.0328953,28.4018584 C29.0171037,27.9944881 28.9460414,27.6034126 28.796021,27.2530741" id="Shape"></path>
                        <path d="M29.8698512,27.1064208 C29.8540596,26.9679149 29.8461638,26.8131142 29.8619554,26.6827557 C29.838268,26.6257239 29.7829973,26.5849868 29.7198308,26.5931342 C29.6092895,26.5605446 29.4908523,26.5768394 29.3961026,26.6420187 C29.3250403,26.7153453 29.2776654,26.8212616 29.3171445,26.9190305 C29.3882068,27.130863 29.3882068,27.3752852 29.41979,27.6034126 C29.3961026,27.7582133 29.4671649,27.8885718 29.4592691,28.0433726 C29.4750607,28.3448266 29.5777062,28.613691 29.5777062,28.9069976 C29.6013937,28.9558821 29.6171853,29.0129139 29.6566644,29.0536509 C29.711935,29.0780932 29.7987889,29.0699457 29.8619554,29.0617983 C29.9409135,28.9477347 30.0672465,28.915145 30.1462046,28.7929339 C30.169892,28.7196073 30.1067256,28.6625754 30.0830381,28.6055436 C29.9567052,28.1411414 29.9014345,27.6278548 29.8698512,27.1064208" id="Shape"></path>
                        <path d="M24.4928043,30.740164 C24.3585755,30.8379329 24.2006593,30.8705225 24.0585347,30.9438492 C23.8137646,31.000881 23.5847861,31.0742077 23.3242243,31.0905025 C23.1110374,31.0742077 22.8978505,30.960144 22.8109966,30.7483114 C22.7636218,30.6342478 22.8741631,30.5772159 22.9057464,30.4957419 C23.2294746,30.2105826 23.6163693,30.0720767 24.0664305,30.0883715 C24.169076,30.1209612 24.2796174,30.1209612 24.3664713,30.2024352 C24.4059504,30.2757619 24.4059504,30.3735308 24.4849085,30.4224152 C24.5322833,30.4305626 24.587554,30.4224152 24.6191372,30.4550048 C24.587554,30.5609211 24.5322833,30.6505426 24.4928043,30.740164 L24.4928043,30.740164 L24.4928043,30.740164 Z M24.8165325,30.3409411 C24.8244283,30.2920567 24.8718032,30.2920567 24.8954906,30.2594671 C24.8875948,30.177993 24.9902403,30.137256 24.9586571,30.0639293 C24.8481157,29.9824553 24.8639074,29.8276545 24.753366,29.7380331 C24.5559708,29.1188302 24.169076,28.4670377 23.5610986,28.1492888 C23.2926411,28.0433726 22.9768086,27.9456037 22.6846637,28.0678148 C22.4714768,28.1900259 22.3135606,28.4263006 22.2740815,28.6707228 C22.3530396,28.7440495 22.4398935,28.7847865 22.5583307,28.7684917 L22.6767678,28.7114599 C22.7320385,28.6381332 22.755726,28.5566591 22.7715176,28.4751851 C22.8031008,28.3855636 22.8978505,28.3855636 22.9689128,28.4018584 C23.5926819,28.5240695 23.9716808,29.1921568 24.2243467,29.7217383 L24.2401383,29.7869175 C24.2322425,29.8113597 24.2085551,29.8195071 24.1848677,29.8276545 C23.8690352,29.8032123 23.545307,29.8276545 23.2610578,29.9254234 C23.0794542,29.9987501 22.9057464,30.0802241 22.7320385,30.1942878 C22.5583307,30.3572359 22.3214564,30.4875944 22.2582899,30.7320166 C22.2582899,30.9764388 22.4319977,31.2045662 22.6451846,31.3023351 C23.1426207,31.5304625 23.7663897,31.400104 24.2480341,31.2290084 C24.3664713,31.1719766 24.4928043,31.1312395 24.6112414,31.0579129 C24.7691576,31.0497655 24.9033864,30.919407 24.9902403,30.7971959 C25.006032,30.7157218 24.9823445,30.6505426 25.006032,30.5772159 C24.9902403,30.4631522 24.8402199,30.4631522 24.8165325,30.3409411 L24.8165325,30.3409411 Z" id="Shape"></path>
                        <path d="M19.1789238,30.5853633 C19.0683824,30.3572359 18.9973201,30.0150449 19.1947154,29.8032123 C19.2815693,29.7787701 19.3605274,29.7461805 19.4394855,29.6891486 C19.463173,29.5913798 19.5816101,29.6076746 19.6052975,29.5180531 C19.5184436,29.4528738 19.4394855,29.3632524 19.3289442,29.355105 C19.2026112,29.3469576 19.1078615,29.4447264 18.9973201,29.4854635 C18.7683416,29.6484116 18.6972793,29.9009812 18.5946338,30.1291086 C18.6025296,30.3409411 18.5630506,30.6016581 18.6814877,30.7809011 C18.8078207,31.1719766 19.1315489,31.4571358 19.3052567,31.8237691 C19.463173,32.0844861 19.6526724,32.3289083 19.7474221,32.6059201 C19.9448174,32.9562586 19.8342761,33.4369555 19.6605682,33.7547044 C19.6131934,33.9583895 19.4000065,34.0968954 19.3605274,34.3005806 C19.3684232,34.3576124 19.4315897,34.3739073 19.463173,34.3739073 C19.9053383,34.3657599 20.0158797,33.8361784 20.1974833,33.5347244 C20.418566,33.0866171 20.3869828,32.442972 20.1027336,32.0356016 C19.8342761,31.5304625 19.4394855,31.0986499 19.1789238,30.5853633" id="Shape"></path>
                        <path d="M22.6214972,32.2066972 C22.4241019,32.3370557 22.1319569,32.2963187 21.9029784,32.2963187 C21.7213748,32.3533505 21.5634586,32.2555816 21.421334,32.182255 C21.0976057,31.9052431 21.3502717,31.4978728 21.4292298,31.1882714 C21.5713544,30.9275544 21.6661041,30.6423952 21.8082287,30.3816782 C21.7924371,30.2431723 21.9029784,30.1535508 21.9029784,30.0313397 C21.9582491,29.9417182 21.9582491,29.8276545 21.9740407,29.7217383 C21.9424575,29.5995272 21.8556035,29.4936109 21.7371664,29.4447264 L21.626625,29.4284316 C21.4292298,29.355105 21.2002513,29.3795472 21.002856,29.436579 C20.710711,29.5180531 20.4343577,29.656559 20.1659001,29.7624753 C20.0711504,29.8032123 20.0158797,29.9091286 19.9921923,29.9987501 C19.9764006,30.0965189 20.086942,30.0883715 20.1343169,30.1535508 C20.2448582,30.2024352 20.3080247,30.1046664 20.3869828,30.0557819 C20.4975241,29.9987501 20.5922739,29.9254234 20.710711,29.8846864 C20.9317937,29.8358019 21.1844597,29.6891486 21.4134382,29.8276545 C21.4687088,29.8846864 21.4687088,29.9498656 21.4766046,30.0231923 C21.3976465,30.3735308 21.2555219,30.699427 21.1133974,31.0253233 C20.9712728,31.3512195 20.7896691,31.6689684 20.7896691,32.0518965 C20.8133566,32.1007809 20.7738775,32.1741076 20.8212524,32.2066972 C20.8449398,32.3452031 20.9791686,32.4266772 21.0739183,32.5000038 C21.168668,32.5570357 21.2713136,32.5814779 21.3739591,32.6140675 C21.7371664,32.6629519 22.1556443,32.6710993 22.5188516,32.6303623 L22.8267882,32.4103823 C22.8346841,32.3859401 22.8188924,32.3696453 22.8188924,32.3452031 C22.755726,32.263729 22.7004553,32.1985498 22.6214972,32.2066972" id="Shape"></path>
                        <path d="M18.0735103,30.9438492 C17.9550731,30.9275544 17.8445318,30.9927336 17.7892611,31.0986499 C17.6945114,31.3430721 17.5208036,31.5549047 17.4339497,31.8074743 C17.3707832,31.921538 17.378679,32.0600439 17.3155125,32.1741076 C17.2918251,32.2148446 17.252346,32.1659601 17.2365544,32.1415179 C17.1654921,31.9704224 17.086534,31.7993269 17.0944298,31.5956417 C17.0628466,31.5467573 17.0470549,31.5060202 17.0312633,31.4571358 C17.0154717,31.3675143 16.920722,31.3430721 16.8417639,31.3430721 C16.7075351,31.3104825 16.6048895,31.4326936 16.5338273,31.5386099 C16.502244,31.6526736 16.5575147,31.742295 16.6048895,31.8319165 C16.794389,32.4266772 17.0786382,32.9807008 17.3313041,33.5510192 C17.3944706,33.6813777 17.4813245,33.8035888 17.5208036,33.9420947 C17.5839701,34.0398636 17.6550323,34.1050429 17.7734695,34.0724532 C17.9076983,34.0154214 17.9945522,33.8606207 18.0656145,33.7384096 C18.0971977,33.6324933 17.9866564,33.5836088 17.9313857,33.5021348 C17.5839701,32.8829319 17.5997617,31.9541276 18.0498229,31.3838091 C18.128781,31.2697455 18.3182804,31.2127136 18.3024888,31.0416181 C18.2630098,30.960144 18.16826,30.9112596 18.0735103,30.9438492" id="Shape"></path>
                        <path d="M16.2495781,34.1213377 C16.2574739,34.349465 16.0758702,34.5124132 15.917954,34.6509191 C15.6416007,34.830162 15.3415599,34.9360783 15.0099358,34.9768153 C14.8283322,34.9686679 14.6862076,34.8138672 14.5914579,34.6590665 C14.5519788,34.5205606 14.6309369,34.4146443 14.6546243,34.2842858 C14.8914987,33.8443259 15.3968305,33.8198836 15.7600378,33.5754614 L15.9653289,33.4369555 C16.044287,33.4206607 16.0363912,33.5102822 16.0758702,33.5510192 C16.1311409,33.7302622 16.3285362,33.9013577 16.2495781,34.1213377 L16.2495781,34.1213377 L16.2495781,34.1213377 Z M16.7549099,33.8361784 C16.7075351,33.6487881 16.5496189,33.5102822 16.4943482,33.3391867 C16.2890571,32.9155215 15.9495373,32.4755616 15.5310593,32.2392868 C15.3415599,32.1252231 15.1125814,32.1007809 14.8914987,32.0681913 C14.4967081,32.0763387 14.1808757,32.2881712 13.8887307,32.5407408 C13.6913355,32.7281312 13.6202732,32.964406 13.4465653,33.1680911 C13.4149821,33.2414178 13.4228779,33.3228918 13.3912947,33.3962185 C13.4386695,33.4776926 13.4939402,33.5754614 13.6044815,33.5754614 C13.8887307,33.4613978 13.8492517,33.1273541 14.0071679,32.9236689 C14.2835213,32.6873942 14.5598746,32.4511194 14.9467693,32.5081512 C15.1757478,32.5733305 15.3810389,32.6873942 15.5784342,32.8503423 L15.8389959,33.1517963 C15.8547875,33.1762385 15.8389959,33.2169756 15.8153085,33.2332704 C15.2389143,33.48584 14.5519788,33.5999037 14.212459,34.267991 C14.1887715,34.3250228 14.1887715,34.3983495 14.1492925,34.4553813 C14.0940218,34.6509191 14.086126,34.9197835 14.2440422,35.0745842 C14.3861668,35.1805005 14.5361872,35.2945642 14.7177908,35.3353012 C15.00204,35.4004805 15.2389143,35.2456797 15.5073719,35.2212375 C15.58633,35.1642057 15.7047671,35.1967953 15.7837253,35.1234686 C16.1469325,34.9523731 16.4548691,34.6590665 16.7628058,34.3739073 C16.9049303,34.3250228 16.8101806,34.1457799 16.8733471,34.0561584 C16.9049303,33.9583895 16.8259722,33.8932103 16.7549099,33.8361784 L16.7549099,33.8361784 Z" id="Shape"></path>
                    </g>
                </g>
            </g>
        </g>
    </g>
</svg>