<?xml version="1.0" encoding="utf-8"?>
<!-- Generator: Adobe Illustrator 18.1.0, SVG Export Plug-In . SVG Version: 6.00 Build 0)  -->
<svg version="1.1" id="Layer_1" xmlns="http://www.w3.org/2000/svg" xmlns:xlink="http://www.w3.org/1999/xlink" x="0px" y="0px"
	 viewBox="0 0 100 100" enable-background="new 0 0 100 100" xml:space="preserve">
<g>
	<path fill="#0433FF" d="M76,48.4c-7.2,0-13.1-5.9-13.1-13.1S68.8,22.2,76,22.2s13.1,5.9,13.1,13.1S83.2,48.4,76,48.4z M76,25.4
		c-5.5,0-9.9,4.5-9.9,9.9s4.5,9.9,9.9,9.9s9.9-4.5,9.9-9.9S81.5,25.4,76,25.4z"/>
</g>
<g>
	<polygon fill="#FF2832" points="27.2,59.2 10.9,36.2 27.2,13.2 43.6,36.2 	"/>
	<g>
		<path fill="#FCEB21" d="M33.8,31.9v9c0,0.9-0.2,1.8-0.5,2.6s-0.8,1.5-1.4,2.1c-0.6,0.6-1.3,1.1-2.1,1.4c-0.8,0.3-1.6,0.5-2.6,0.5
			c-0.9,0-1.8-0.2-2.6-0.5c-0.8-0.3-1.5-0.8-2.1-1.4c-0.6-0.6-1.1-1.3-1.4-2.1c-0.3-0.8-0.5-1.6-0.5-2.6v-8.9l-1.9-2.3h7.4l-1.9,2.3
			v8.4c0,0.8,0.2,1.6,0.5,2.2c0.3,0.7,0.7,1.2,1.2,1.7c0.5,0.5,1.1,0.8,1.7,1c0.6,0.2,1.3,0.4,1.9,0.4c0.1,0,0.2,0,0.4,0
			c0.1,0,0.2,0,0.4,0V31.9l-1.9-2.3h7.4L33.8,31.9z"/>
	</g>
</g>
<g>
	<g>
		<g>
			<path d="M3.8,69.3l-0.3-0.8l3.2-2.3l-3.9,0.4l-0.3-0.8l4.6-3l0.3,0.9L4,65.8l3.5-0.3l0.3,0.8L5,68.4l4-0.7l0.3,0.9L3.8,69.3z"/>
			<path d="M7.6,75.1C7,75,6.3,74.5,5.9,73.8c-0.5-0.8-0.3-1.7,0.6-2.2c1-0.6,2-0.1,2.7,1.3l0.5,1l0.2-0.1c0.7-0.4,0.7-1,0.4-1.6
				c-0.3-0.5-0.9-0.8-1.4-0.7l-0.2-0.8c0.9-0.2,1.8,0.2,2.3,1.1c0.6,1.2,0.5,2.2-0.8,2.9l-3,1.6L7,75.6L7.6,75.1z M6.7,73.6
				c0.2,0.4,0.5,0.7,0.9,0.8C8,74.6,8.5,74.5,9,74.3l0.1-0.1l-0.6-1c-0.4-0.8-1-1.1-1.6-0.8C6.5,72.6,6.4,73.1,6.7,73.6z"/>
			<path d="M14.2,79.5c0.5-0.5,0.5-0.9,0.1-1.4c-0.3-0.4-0.8-0.6-1.4-0.6c-0.6,0-1.2,0.3-1.9,0.8l-1.5,1.2L9,78.7l4.3-3.2l0.5,0.7
				L13,76.8c0.8-0.1,1.5,0.2,2.1,0.9c0.6,0.9,0.5,1.8-0.3,2.5L14.2,79.5z"/>
			<path d="M19.5,84.1l-0.9-0.1c0.2-0.6,0.1-1.1-0.3-1.5c-0.4-0.4-0.8-0.5-1.2-0.1c-0.3,0.3-0.2,0.7,0.3,1.5c0.3,0.4,0.4,0.6,0.6,1
				c0.2,0.5,0.2,1-0.2,1.4c-0.4,0.4-0.8,0.5-1.3,0.5c-0.5-0.1-1-0.3-1.4-0.7c-0.8-0.8-1-1.8-0.6-2.7l0.8,0.4
				c-0.3,0.7-0.2,1.3,0.3,1.8c0.5,0.5,1,0.6,1.4,0.2c0.3-0.3,0.1-0.7-0.4-1.5c-0.6-0.9-0.8-1.7-0.2-2.3c0.3-0.3,0.7-0.5,1.2-0.4
				s0.9,0.2,1.2,0.6C19.5,82.5,19.7,83.2,19.5,84.1z"/>
			<path d="M25.4,87.4l-0.2,0.3l-4.8,1.7l2.4,1.8l-0.5,0.7l-3.5-2.5l0.2-0.3l4.7-1.7l-2.2-1.6l0.5-0.7L25.4,87.4z"/>
			<path d="M28.5,94.3c-0.5,0.3-1.4,0.2-2.1-0.1c-0.8-0.4-1.2-1.3-0.7-2.2c0.5-1,1.6-1.1,3-0.4l1,0.5l0.1-0.2
				c0.4-0.7,0.1-1.2-0.6-1.6c-0.5-0.3-1.2-0.2-1.6,0.2L27,90c0.6-0.7,1.6-0.8,2.5-0.4c1.2,0.6,1.6,1.6,0.9,2.8l-1.6,3l-0.6-0.3
				L28.5,94.3z M26.9,93.5c0.4,0.2,0.8,0.3,1.2,0.2c0.5-0.1,0.8-0.4,1.1-0.8l0.1-0.2l-1-0.5c-0.8-0.4-1.5-0.3-1.7,0.2
				C26.3,92.9,26.4,93.3,26.9,93.5z"/>
			<path d="M35.3,97.8l-0.8-0.3l0.3-3.9l-2.2,3.2l-0.8-0.3l0.6-5.4l0.9,0.3l-0.6,4l2-2.9l0.8,0.3l-0.3,3.5l2-3.5l0.9,0.3L35.3,97.8z
				"/>
			<path d="M42.2,98.6c-0.4,0.4-1.2,0.6-2,0.5c-0.9-0.2-1.5-0.9-1.3-1.9c0.2-1.1,1.2-1.6,2.7-1.3l1.1,0.2l0-0.2
				c0.1-0.8-0.3-1.2-1-1.3c-0.6-0.1-1.2,0.2-1.4,0.7l-0.7-0.4c0.4-0.9,1.3-1.3,2.3-1.1c1.3,0.2,2,1,1.7,2.4l-0.6,3.3l-0.7-0.1
				L42.2,98.6z M40.4,98.3c0.4,0.1,0.8,0,1.2-0.2c0.4-0.2,0.7-0.6,0.8-1.1l0-0.2l-1.2-0.2c-0.9-0.2-1.5,0.1-1.6,0.7
				C39.6,97.9,39.9,98.2,40.4,98.3z"/>
			<path d="M56.2,94.9l-0.3-2.8l0.9-0.1l0.8,7.5l-0.9,0.1l-0.1-0.7c-0.3,0.5-0.9,0.9-1.6,1c-1.5,0.2-2.6-0.8-2.8-2.5
				c-0.2-1.7,0.6-2.8,2.2-3C55.2,94.3,55.9,94.5,56.2,94.9z M53.3,97.2c0.1,0.6,0.3,1,0.6,1.4c0.3,0.3,0.7,0.5,1.3,0.4
				c0.5-0.1,0.9-0.3,1.1-0.7c0.2-0.4,0.4-0.9,0.3-1.5s-0.3-1-0.6-1.4c-0.3-0.3-0.8-0.5-1.3-0.4c-0.5,0.1-0.9,0.3-1.1,0.7
				C53.3,96.2,53.2,96.7,53.3,97.2z"/>
			<path d="M59.1,96.5c-0.2-0.7-0.1-1.4,0.2-2.1c0.3-0.6,0.9-1.1,1.7-1.3c0.8-0.2,1.5-0.1,2.1,0.3c0.6,0.4,1,1,1.2,1.7
				c0.2,0.7,0.1,1.4-0.2,2.1c-0.3,0.6-0.9,1.1-1.7,1.3c-0.8,0.2-1.5,0.1-2.1-0.3S59.3,97.3,59.1,96.5z M60,96.3
				c0.1,0.5,0.4,0.9,0.8,1.2c0.4,0.3,0.9,0.4,1.4,0.2c0.5-0.1,0.9-0.4,1.1-0.9c0.2-0.4,0.2-0.9,0.1-1.5c-0.1-0.5-0.4-0.9-0.8-1.2
				s-0.9-0.4-1.4-0.2c-0.5,0.1-0.9,0.4-1.1,0.9C59.9,95.3,59.9,95.8,60,96.3z"/>
			<path d="M71.9,88.9l1.8,3c0.4,0.6,0.8,0.8,1.4,0.4c0.4-0.2,0.6-0.6,0.6-1.2c0-0.6-0.2-1.1-0.5-1.8l-1.1-1.8l0.8-0.5l2.8,4.6
				l-0.8,0.5l-0.5-0.8c0,0.8-0.4,1.5-1,1.9c-0.9,0.6-1.7,0.3-2.3-0.6l-1.9-3.2L71.9,88.9z"/>
			<path d="M80.5,84.1l-0.2,0.8c-0.6-0.2-1.1-0.2-1.5,0.2c-0.4,0.3-0.6,0.8-0.3,1.1c0.3,0.3,0.7,0.3,1.5-0.2
				c0.4-0.2,0.7-0.4,1.1-0.5c0.5-0.2,1-0.1,1.4,0.3c0.3,0.4,0.5,0.9,0.3,1.4s-0.4,0.9-0.9,1.3c-0.9,0.7-1.9,0.8-2.8,0.3l0.5-0.8
				c0.6,0.4,1.3,0.3,1.8-0.1c0.5-0.4,0.7-1,0.4-1.4c-0.3-0.3-0.7-0.2-1.6,0.3c-1,0.5-1.7,0.6-2.3-0.1c-0.3-0.4-0.4-0.8-0.3-1.2
				c0.1-0.4,0.3-0.8,0.7-1.2C79,83.9,79.7,83.7,80.5,84.1z"/>
			<path d="M79.8,80.5l1.6-1.8l2.3,2l0.2-1l0.8,0.2l-0.3,1.4l1.1,1c0.6,0.6,1.2,0.6,1.7,0c0.5-0.5,0.4-1.1-0.1-1.8l0.7-0.5
				c0.8,1,0.8,2,0,2.8c-0.8,0.9-2,1-2.9,0.1l-0.7-0.6l-0.2,1l-0.8-0.2l0.3-1.4l-2-1.8l-1,1.1L79.8,80.5z"/>
			<path d="M86.4,75.9l2.9,2c0.6,0.4,1.1,0.3,1.5-0.2c0.2-0.4,0.3-0.8,0.1-1.3c-0.2-0.5-0.6-1-1.2-1.4l-1.8-1.2l0.5-0.7l4.4,3
				l-0.5,0.7l-0.8-0.5c0.3,0.7,0.3,1.5-0.1,2.1c-0.6,0.9-1.5,1-2.3,0.4l-3.1-2.1L86.4,75.9z"/>
			<path d="M90.2,70.5c-0.1-0.5-0.1-1,0.1-1.4c0.2-0.3,0.4-0.6,0.7-0.8l0-1.3l0.8-0.1l0,1c0.3,0,0.6,0,0.9,0.2c0.5,0.2,0.8,0.6,1,1
				c0.1,0.5,0.1,0.9-0.1,1.4c-0.2,0.3-0.4,0.6-0.6,0.8c0,0.4,0.1,0.6,0.3,0.7c0.3,0.1,0.5,0,0.7-0.5l0.6-1.3c0.5-1,1.2-1.4,2.1-1
				c0.6,0.3,0.9,0.7,0.9,1.3c0.1,0.6-0.1,1.2-0.4,1.8c-0.7,1.4-1.6,2-2.7,1.5c-0.4-0.2-0.7-0.5-0.8-1c-0.3,0.1-0.6,0.1-0.9,0
				c-0.4-0.2-0.7-0.6-0.6-1.2c-0.4,0.1-0.7,0-1.1-0.2C90.6,71.3,90.3,70.9,90.2,70.5z M91.5,70.7c0.3,0.1,0.6,0.2,0.8,0.1
				c0.3-0.1,0.4-0.3,0.6-0.5c0.1-0.3,0.2-0.5,0.1-0.8c-0.1-0.3-0.3-0.5-0.6-0.6c-0.3-0.1-0.6-0.2-0.8-0.1c-0.2,0.1-0.4,0.3-0.6,0.5
				c-0.1,0.3-0.1,0.5-0.1,0.8C91,70.4,91.2,70.6,91.5,70.7z M94.7,71.8c-0.1,0.2-0.2,0.4-0.3,0.5c0,0.3,0.2,0.6,0.5,0.8
				c0.6,0.3,1.2-0.1,1.6-1c0.4-0.9,0.4-1.6-0.2-1.9c-0.5-0.2-0.8-0.1-1.1,0.5L94.7,71.8z"/>
		</g>
	</g>
	<circle fill="none" cx="50" cy="50" r="50"/>
</g>
</svg>
