<?xml version="1.0" encoding="utf-8"?>
<!-- Generator: Adobe Illustrator 19.2.1, SVG Export Plug-In . SVG Version: 6.00 Build 0)  -->
<svg version="1.1" id="Layer_1" xmlns="http://www.w3.org/2000/svg" xmlns:xlink="http://www.w3.org/1999/xlink" x="0px" y="0px"
	 viewBox="0 0 1091 259.7" enable-background="new 0 0 1091 259.7" xml:space="preserve">
<g>
	<g>
		<path fill="#474A58" d="M53.8,70c0,14.2-11.8,22.5-27.7,22.5c-7,0-13.2-1.5-18.8-3.7L0,92.3V66.7l12.4,16.7
			c4.3,2.1,8.5,3.2,13.3,3.2c14,0,16.4-8.3,16.4-14.4c0-22-41.7-15.2-41.7-42.6c0-12.8,10.8-21.4,26.9-21.4c5.6,0,10.8,1.1,16,3.2
			l6.2-3.2v25.6L35.9,15.4c-2.6-0.9-5.1-1.4-8.1-1.4c-13.6,0-16.3,8.7-16.3,14.2C11.6,46.1,53.8,40.8,53.8,70z"/>
		<path fill="#474A58" d="M121.1,82.5c-2.9,7.7-6.7,9.9-11.6,9.9c-5.8,0-9.7-3.3-10.9-8.7H98c-3.9,5.5-9.5,8.7-16.7,8.7
			c-9.4,0-15.8-5.1-15.8-13.7c0-6.2,3.4-11,8-13.5h24v-9.8c0-9.1-3.6-12.8-11.7-12.8c-5.5,0-11.2,1.6-17.2,5.9L68,48
			c5.6-10.2,15.2-14,23.6-14c10.5,0,16.4,6.1,16.4,17.4v26.4c0,5.5,2.5,6.8,5.6,6.8c2.2,0,4.1-0.6,6.9-2.7L121.1,82.5z M97.5,79.1
			v-9.7H79.2c-1.6,2-2.6,4.4-2.6,7.7c0,6.3,4.1,8.3,8.2,8.3C88.8,85.4,92.9,83.4,97.5,79.1z"/>
		<path fill="#474A58" d="M225.8,91.3h-29.2l9.4-7V55.5c0-10.3-3.6-12.8-10.4-12.8c-3.7,0-8.5,0.9-14.7,5.7v35.8l9.4,7h-29.3l9.4-7
			V55.5c0-10.3-3.6-12.8-10.4-12.8c-3.7,0-8.5,0.9-14.7,5.7v35.8l9.4,7h-29.3l9.4-7v-36l-8.2-6.1l18.7-8.2l-1.8,9.8l0.6,0.6
			c5-5.5,12.1-10.4,21.5-10.4c6.6,0,12.5,2.5,14.5,9.9c5-5.3,11.9-9.9,21.2-9.9c8.1,0,15.3,3.7,15.3,16.3v34L225.8,91.3z"/>
		<path fill="#474A58" d="M293.1,86.8l-13.3,5.6L276.1,82h-0.6c-3.5,3.5-12.6,10.4-22.7,10.4c-6.9,0-15.3-3.7-15.3-16.3v-28
			l-8.2-6.1l18.7-8.2v37c0,10.3,4.8,12.8,10.4,12.8c3.7,0,9.7-0.9,15.9-5.7V48.2l-8.2-6.1l18.7-8.2v46.8L293.1,86.8z"/>
		<path fill="#474A58" d="M349.2,76.1l0.6,0.6c-4.1,12.3-13.2,15.8-21.2,15.8c-14.7,0-26.8-12.2-26.8-29.7
			c0-18.6,13.5-28.8,27.5-28.8c11,0,20.6,6.3,21.6,21.6h-38.5c-0.1,1.2-0.1,2.3-0.1,3.6c0,13.6,6.8,23.3,19.8,23.3
			C336.8,82.5,342.5,81.2,349.2,76.1z M313.2,51.5h25.5c0-7.3-3-13.2-11-13.2C320.7,38.3,315.3,43.1,313.2,51.5z"/>
		<path fill="#474A58" d="M387.9,91.3h-29.3l9.4-7v-70l-8.2-6.1L378.5,0v84.2L387.9,91.3z"/>
		<path fill="#474A58" d="M498.4,84.2l9.4,7h-30.4l9.4-7V50.9h-46.8v33.3l9.4,7h-30.4l9.4-7V16.4l-9.4-7h30.4l-9.4,7V45h46.8V16.4
			l-9.4-7h30.4l-9.4,7V84.2z"/>
		<path fill="#474A58" d="M544,91.3h-29.2l9.4-7v-36l-8.2-6.1l18.7-8.2v50.3L544,91.3z M521.8,15.2c0-3.9,3.2-7,7-7c3.9,0,7,3.2,7,7
			c0,3.9-3.2,7-7,7C525,22.2,521.8,19.1,521.8,15.2z"/>
		<path fill="#474A58" d="M569.2,49.6v34.6l14,7h-33.9l9.4-7v-36l-8.2-6.1l18.7-8.2L567,46.5l0.6,0.2c4.2-7.7,12.8-13.9,23.3-11.6
			l-4.1,11.5C579,44.2,572.7,46.2,569.2,49.6z"/>
		<path fill="#474A58" d="M639.4,75.2c0,11-10.4,17.2-20.7,17.2c-4.6,0-9.1-1.2-13-2.8l-7.3,2.8V72.9l9.2,12.2
			c3.5,1.8,7,2.7,10.3,2.7c6.8,0,10.2-4,10.2-8.9c0-14.5-29.7-10.6-29.7-28.8c0-11.2,11.3-16.1,21.1-16.1c4.1,0,8,0.9,11.5,2.3
			l6.1-2.3v19.5l-10.3-13.7c-2.1-0.7-4.4-1.2-6.8-1.2c-7.7,0-11,4.3-11,8.7C609,60.4,639.4,56.4,639.4,75.2z"/>
		<path fill="#474A58" d="M691.2,86l11.3-15.1v20.4h-55l38.7-50.9h-22.6l-11.3,15.1V32.8l10.3,2.3h40.5L664.6,86H691.2z"/>
		<path fill="#474A58" d="M758.7,76.1l0.6,0.6c-4.1,12.3-13.2,15.8-21.2,15.8c-14.7,0-26.8-12.2-26.8-29.7
			c0-18.6,13.5-28.8,27.5-28.8c11,0,20.6,6.3,21.6,21.6H722c-0.1,1.2-0.1,2.3-0.1,3.6c0,13.6,6.8,23.3,19.8,23.3
			C746.3,82.5,752,81.2,758.7,76.1z M722.7,51.5h25.5c0-7.3-3-13.2-11-13.2C730.2,38.3,724.8,43.1,722.7,51.5z"/>
		<path fill="#474A58" d="M835.4,91.3h-29.3l9.4-7V55.5c0-10.3-4.8-12.8-11.6-12.8c-3.7,0-9.7,0.9-15.9,5.7v35.8l9.4,7h-29.3l9.4-7
			v-36l-8.2-6.1l18.7-8.2l-1.8,9.8l0.6,0.6c5.9-5.9,12.6-10.4,22.7-10.4c8.1,0,16.5,3.7,16.5,16.3v34L835.4,91.3z"/>
		<path fill="#474A58" d="M899.7,61.8c0,20.1-14.9,30.7-30.3,30.7c-4.3,0-11.2-0.8-15.8-3l-7.1,3V14.3l-8.2-6.1L857,0v33.8l-1.8,9.9
			l0.6,0.6c3.4-5.3,10.4-10.4,19.3-10.4C887.1,33.9,899.7,43.2,899.7,61.8z M888,64.4c0-13.5-6.3-21.6-16.6-21.6
			c-5,0-10.4,2-14.4,5.7V77c0,7,6.6,10.8,13.2,10.8C880.5,87.8,888,79,888,64.4z"/>
		<path fill="#474A58" d="M957.6,76.1l0.6,0.6C954.1,88.9,945,92.4,937,92.4c-14.7,0-26.8-12.2-26.8-29.7
			c0-18.6,13.5-28.8,27.5-28.8c11,0,20.6,6.3,21.6,21.6h-38.5c-0.1,1.2-0.1,2.3-0.1,3.6c0,13.6,6.8,23.3,19.8,23.3
			C945.2,82.5,950.8,81.2,957.6,76.1z M921.6,51.5h25.5c0-7.3-3-13.2-11-13.2C929.1,38.3,923.7,43.1,921.6,51.5z"/>
		<path fill="#474A58" d="M986.9,49.6v34.6l14,7H967l9.4-7v-36l-8.2-6.1l18.7-8.2l-2.2,12.5l0.6,0.2c4.2-7.7,12.8-13.9,23.3-11.6
			l-4.1,11.5C996.7,44.2,990.4,46.2,986.9,49.6z"/>
		<path fill="#474A58" d="M1068.8,43.9l-14.2-4.8c4.1,3.2,6.7,7.8,6.7,13.6c0,11.7-10.9,18.7-22.6,18.7c-3.7,0-7.4-0.7-10.6-2.1
			c-3.2,2.6-4.7,5.6-4.7,8.3c0,2.8,1.8,4.9,5.1,4.9h30.3c5.8,2.9,9.9,8.9,9.9,16.3c0,11.9-10.9,21.8-32.1,21.8
			c-17,0-24.7-6.2-24.7-15c0-4.7,2.3-9.6,9.2-13.3c-4.1-2.3-6.3-6.6-6.3-11.2c0-5.9,3.5-10.4,9.1-13.8c-4.8-3.3-8-8.2-8-14.5
			c0-11.7,10.9-18.7,22.6-18.7c3.4,0,6.8,0.6,9.8,1.8l20.2-1.2V43.9z M1026.2,92.4c-2.1,2.6-4.1,6-4.1,10.5c0,7.7,6.1,12.9,17,12.9
			c13.3,0,18.6-6.2,18.6-14c0-5.9-2.9-9.4-9.4-9.4H1026.2z M1050.2,53.6c0-8.5-5.1-15.3-12.4-15.3c-6.8,0-10.5,6.1-10.5,13.5
			c0,8.5,5.1,15.3,12.4,15.3C1046.4,67,1050.2,61,1050.2,53.6z"/>
		<path fill="#474A58" d="M1091,88.3c0,10.6-9.1,18.1-18.5,21.6l-0.2-0.6c6.3-4.1,9-9.2,9-13.9c0-4.1-2.1-7.8-5.5-10.1
			c0-3.5,2.8-7,7.4-7C1087.4,78.4,1091,81,1091,88.3z"/>
		<path fill="#474A58" d="M141.7,216.5l0.6,0.6c-4.1,12.3-13.2,15.8-21.2,15.8c-14.7,0-26.8-12.3-26.8-29.6
			c0-20,16.1-28.9,28.9-28.9c8.2,0,14.4,2.3,19.1,5.9l-7.4,9.8L122,179c-10.1,0-17.2,7.5-17.2,20.9c0,13,6.7,22.9,19.8,22.9
			C129.3,222.9,134.9,221.6,141.7,216.5z"/>
		<path fill="#474A58" d="M191.2,226.4l11.3-15.1v20.4h-55l38.7-50.9h-22.6l-11.3,15.1v-22.7l10.3,2.3h40.5l-38.6,50.9H191.2z"/>
		<path fill="#474A58" d="M231,250.4l16,9.4h-28.4l16.5-34.5l-23.3-43.8l-8.1-6h30.1l-9.4,7l16.3,31l13.3-31l-10.3-7h26.7l-9.4,7
			L231,250.4z"/>
		<path fill="#474A58" d="M368.7,208.7c0,14-13.3,22.9-34.3,22.9H299l9.4-7v-67.9l-9.4-7h34.8c18.6,0,30.2,7.8,30.2,20.9
			c0,8.7-5.5,15.1-14.2,18.4C361.3,191.5,368.7,197.8,368.7,208.7z M320.1,155.6v31h13.7c12.8,0,17.9-6.9,17.9-15.2
			c0-8.9-5.1-15.8-17.9-15.8H320.1z M355.8,209.4c0-10.4-6.3-17-21.4-17h-14.3v33.3h14.3C349.5,225.8,355.8,219.3,355.8,209.4z"/>
		<path fill="#474A58" d="M396.7,190v34.6l14,7h-33.9l9.4-7v-36l-8.2-6.1l18.7-8.2l-2.2,12.5l0.6,0.2c4.2-7.7,12.8-13.9,23.3-11.6
			l-4.1,11.5C406.6,184.6,400.3,186.6,396.7,190z"/>
		<path fill="#474A58" d="M484.5,227.2l-13.3,5.6l-3.6-10.4h-0.6c-3.5,3.5-12.6,10.4-22.7,10.4c-6.9,0-15.3-3.7-15.3-16.3v-28
			l-8.2-6.1l18.7-8.2v37c0,10.3,4.8,12.8,10.4,12.8c3.7,0,9.7-0.9,15.9-5.7v-29.7l-8.2-6.1l18.7-8.2v46.8L484.5,227.2z"/>
		<path fill="#474A58" d="M558.2,231.7H529l9.4-7v-28.8c0-10.3-4.8-12.8-11.6-12.8c-3.7,0-9.7,0.9-15.9,5.7v35.8l9.4,7h-29.2l9.4-7
			v-36l-8.2-6.1l18.7-8.2l-1.8,9.8l0.6,0.6c5.8-5.9,12.6-10.4,22.7-10.4c8.1,0,16.5,3.7,16.5,16.3v34L558.2,231.7z"/>
		<path fill="#474A58" d="M565.8,203.6c0-18.1,13-29.3,28.7-29.3s28.7,11.1,28.7,29.3c0,18.1-13,29.3-28.7,29.3
			S565.8,221.7,565.8,203.6z M610.6,206.2c0-15.8-8.1-27.1-18-27.1c-10.6,0-14.5,10.4-14.5,22c0,15.8,8.3,27.1,18.3,27.1
			C607,228.2,610.6,217.7,610.6,206.2z"/>
		<path fill="#474A58" d="M715,210.4c0,14.2-11.8,22.5-27.7,22.5c-7,0-13.2-1.5-18.8-3.7l-7.3,3.6v-25.6l12.4,16.7
			c4.3,2.1,8.5,3.2,13.3,3.2c14,0,16.4-8.3,16.4-14.4c0-22-41.7-15.2-41.7-42.6c0-12.8,10.8-21.4,26.9-21.4c5.6,0,10.8,1.1,16,3.2
			l6.2-3.2v25.6l-13.7-18.4c-2.6-0.9-5.1-1.4-8.1-1.4c-13.6,0-16.3,8.7-16.3,14.2C672.7,186.5,715,181.2,715,210.4z"/>
		<path fill="#474A58" d="M766.2,226.4l11.3-15.1v20.4h-55l38.7-50.9h-22.6l-11.3,15.1v-22.7l10.3,2.3h40.5l-38.6,50.9H766.2z"/>
		<path fill="#474A58" d="M846,227.2l-13.3,5.6l-3.6-10.4h-0.6c-3.5,3.5-12.6,10.4-22.7,10.4c-6.9,0-15.3-3.7-15.3-16.3v-28
			l-8.2-6.1l18.7-8.2v37c0,10.3,4.8,12.8,10.4,12.8c3.7,0,9.7-0.9,15.9-5.7v-29.7l-8.2-6.1l18.7-8.2v46.8L846,227.2z"/>
		<path fill="#474A58" d="M881.7,231.7h-29.3l9.4-7v-70l-8.2-6.1l18.7-8.2v84.2L881.7,231.7z"/>
		<path fill="#474A58" d="M936.7,216.5l0.6,0.6c-4.1,12.3-13.2,15.8-21.2,15.8c-14.7,0-26.8-12.3-26.8-29.6
			c0-20,16.1-28.9,28.9-28.9c8.2,0,14.4,2.3,19.1,5.9l-7.4,9.8L917,179c-10.1,0-17.2,7.5-17.2,20.9c0,13,6.7,22.9,19.8,22.9
			C924.3,222.9,929.9,221.6,936.7,216.5z"/>
		<path fill="#474A58" d="M980.9,163c0-8.5-5.8-14.5-14-15.6l-14,11l-7.4-9.8c5.8-3.5,14.4-5.9,22.7-5.9c13,0,24.5,5.6,24.5,18.4
			c0,18.1-23.3,23.5-23.3,44.8h-4.7C961,183.2,980.9,178.9,980.9,163z M960.1,225.8c0-3.9,3.2-7,7-7c3.9,0,7,3.2,7,7s-3.2,7-7,7
			C963.2,232.8,960.1,229.7,960.1,225.8z"/>
	</g>
</g>
</svg>
