<?xml version="1.0" encoding="utf-8"?>
<!-- Generator: Adobe Illustrator 19.2.1, SVG Export Plug-In . SVG Version: 6.00 Build 0)  -->
<svg version="1.1" id="Layer_1" xmlns="http://www.w3.org/2000/svg" xmlns:xlink="http://www.w3.org/1999/xlink" x="0px" y="0px"
	 viewBox="0 0 717.3 574.5" enable-background="new 0 0 717.3 574.5" xml:space="preserve">
<g>
	<g>
		<path fill="#B49D4F" d="M132.2,8.1V76h-0.6L79,17.7v49.1l12.2,6.1H64.3l8.1-6.1V8.1L64.3,2h14l47.3,52.7V8.1L113.5,2h26.8
			L132.2,8.1z"/>
		<path fill="#B49D4F" d="M217.8,37.2c0,23-17.1,36.8-35.7,36.8c-18.1,0-35.3-13.2-35.3-36.2c0-23,17.1-36.8,35.7-36.8
			C200.7,1,217.8,14.2,217.8,37.2z M206.7,39.8c0-21-11.7-33.7-26.3-33.7c-13.9,0-22.3,11.2-22.3,29.1c0,21,11.7,33.7,26.3,33.7
			C198.3,68.9,206.7,57.6,206.7,39.8z"/>
		<path fill="#B49D4F" d="M290.7,55.4C284.4,70,272.7,74,263.1,74c-17.8,0-35.2-13.7-35.2-36.1c0-23.1,18.4-36.9,38.8-36.9
			c5,0,10.8,0.8,16.2,2.6l5.8-2.6v23.8L275.7,7.3c-3.1-0.9-6.3-1.2-9.1-1.2c-16.1,0-28,10.2-28,29.4c0,17.8,10.3,30.4,26.5,30.4
			c7.7,0,17-2.8,25.1-10.9L290.7,55.4z"/>
		<path fill="#B49D4F" d="M357.6,0v20.2l-9.8-13.1h-16.5v59.8l8.1,6.1h-26.2l8-6V7.1h-16.5l-9.8,13.1V0l8.9,2h45L357.6,0z"/>
		<path fill="#B49D4F" d="M430,8.1v34.4c0,21-10.9,31.4-28.5,31.4c-16.7,0-30.8-9.4-30.8-30.4V8.1L362.7,2H389l-8.1,6.1v34.4
			c0,17.3,7.7,25.8,21.3,25.8s21.3-8.5,21.3-25.8V8.1L411.3,2h26.8L430,8.1z"/>
		<path fill="#B49D4F" d="M511.1,72.9v0.5c-21.3,2-26.3-10.7-44.7-38c16.6-0.9,20.9-7.9,20.9-15.1c0-8.5-6-13.3-16-13.3h-10.3v59.8
			l8.1,6.1h-26.3l8.1-6.1V8.1L442.7,2h29.6c15.1,0,26.1,5.3,26.1,17.1c0,9.6-7.3,16.4-18,19.1C490.3,53.8,498.7,66.9,511.1,72.9z"/>
		<path fill="#B49D4F" d="M580,8.1V76h-0.6l-52.6-58.2v49.1l12.2,6.1h-26.8l8.1-6.1V8.1L512.1,2h14l47.3,52.7V8.1L561.2,2h26.8
			L580,8.1z"/>
		<path fill="#B49D4F" d="M648.9,54.8v18.1h-54.7l8.1-6.1V8.1L594.2,2h51.7v18.1L636,7.1h-23.6v26.8h18.1l6.9-9.1v23.3l-6.9-9.1
			h-18.1v28.9H639L648.9,54.8z"/>
		<path fill="#B49D4F" d="M48.1,186.9c-2.5,6.7-5.8,8.6-10,8.6c-5.1,0-8.4-2.8-9.4-7.5h-0.5c-3.3,4.8-8.2,7.5-14.5,7.5
			c-8.1,0-13.7-4.5-13.7-11.9c0-5.4,2.9-9.5,6.9-11.6h20.8v-8.5c0-7.9-3.1-11-10.1-11c-4.8,0-9.7,1.4-14.9,5.1L2.1,157
			c4.9-8.8,13.2-12.2,20.5-12.2c9.1,0,14.2,5.3,14.2,15.1v22.9c0,4.8,2.1,5.9,4.9,5.9c1.9,0,3.5-0.5,6-2.3L48.1,186.9z M27.7,184
			v-8.4H11.9c-1.4,1.7-2.2,3.8-2.2,6.7c0,5.5,3.5,7.2,7.1,7.2C20.2,189.4,23.7,187.7,27.7,184z"/>
		<path fill="#B49D4F" d="M102.8,169c0,17.4-12.9,26.5-26.2,26.5c-3.7,0-9.7-0.7-13.7-2.6l-6.2,2.6v-67.7l-7.1-5.3l16.2-7.1v29.3
			l-1.5,8.6l0.5,0.5c2.9-4.6,9-9,16.7-9C91.9,144.9,102.8,152.9,102.8,169z M92.7,171.2c0-11.6-5.5-18.7-14.4-18.7
			c-4.4,0-9,1.7-12.5,5v24.7c0,6.1,5.7,9.3,11.4,9.3C86.2,191.5,92.7,183.9,92.7,171.2z"/>
		<path fill="#B49D4F" d="M153,181.3l0.5,0.5c-3.5,10.6-11.4,13.7-18.3,13.7c-12.8,0-23.2-10.6-23.2-25.6c0-17.3,14-25,25-25
			c7.1,0,12.5,2,16.5,5.1l-6.4,8.5l-11.1-9.5c-8.7,0-14.9,6.5-14.9,18.1c0,11.2,5.8,19.9,17.1,19.9
			C142.2,186.9,147.1,185.8,153,181.3z"/>
		<path fill="#B49D4F" d="M214.3,190.7l-11.5,4.9l-3.1-9h-0.5c-2.9,4.6-9,9-16.7,9c-10.3,0-21.3-8-21.3-24.1
			c0-17.4,12.9-26.5,26.2-26.5c2.8,0,7.1,0.4,10.7,1.5v-18.5l-7.1-5.3l16.2-7.1v69.9L214.3,190.7z M198.1,183v-24.7
			c0-6.1-5.7-9.3-11.4-9.3c-8.9,0-15.4,7.6-15.4,20.3c0,11.6,5.5,18.7,14.4,18.7C189.9,187.9,194.6,186.2,198.1,183z"/>
		<path fill="#B49D4F" d="M262.9,181.3l0.5,0.5c-3.5,10.6-11.4,13.7-18.3,13.7c-12.8,0-23.2-10.5-23.2-25.7
			c0-16.1,11.7-24.9,23.8-24.9c9.5,0,17.8,5.5,18.7,18.7h-33.3c-0.1,1-0.1,2-0.1,3.1c0,11.8,5.9,20.2,17.1,20.2
			C252.2,186.9,257,185.8,262.9,181.3z M231.7,160.1h22.1c0-6.3-2.6-11.4-9.5-11.4C238.2,148.6,233.5,152.8,231.7,160.1z"/>
		<path fill="#B49D4F" d="M288.7,138.3v7.6h16.2l-3.1,6.1h-13.1v36.5l12.2,6.1h-29.4l8.1-6.1V152h-10.1l10.1-7.6v-3
			c0-18.5,10.7-25.8,21.9-25.8c5.4,0,10,1.2,13.6,3l-6.6,8.8l-9-7.8C292.3,120.2,288.7,127.2,288.7,138.3z"/>
		<path fill="#B49D4F" d="M354.1,153.5l-12.3-4.2c3.5,2.7,5.8,6.8,5.8,11.8c0,10.1-9.4,16.2-19.6,16.2c-3.2,0-6.4-0.6-9.2-1.8
			c-2.7,2.2-4.1,4.9-4.1,7.2c0,2.4,1.5,4.3,4.5,4.3h26.2c5.1,2.5,8.6,7.7,8.6,14.1c0,10.3-9.4,18.8-27.8,18.8
			c-14.7,0-21.4-5.4-21.4-13c0-4.1,2-8.3,8-11.5c-3.5-2-5.5-5.7-5.5-9.7c0-5.1,3-9,7.9-12c-4.2-2.8-6.9-7.1-6.9-12.6
			c0-10.1,9.4-16.2,19.6-16.2c2.9,0,5.9,0.5,8.5,1.5l17.5-1V153.5z M317.2,195.5c-1.8,2.2-3.5,5.2-3.5,9.1c0,6.7,5.3,11.1,14.7,11.1
			c11.5,0,16.1-5.4,16.1-12.2c0-5.1-2.5-8.1-8.1-8.1H317.2z M338,161.9c0-7.4-4.5-13.3-10.7-13.3c-5.9,0-9.1,5.3-9.1,11.6
			c0,7.4,4.5,13.3,10.7,13.3C334.7,173.5,338,168.3,338,161.9z"/>
		<path fill="#B49D4F" d="M415.9,194.5h-25.3l8.1-6.1v-24.9c0-8.9-4.2-11-10-11c-3.2,0-8.4,0.8-13.8,5v31l8.1,6.1h-25.3l8.1-6.1
			v-60.6l-7.1-5.3l16.2-7.1v29.3l-1.5,8.6l0.5,0.5c5.1-5.1,10.9-9,19.7-9c7,0,14.3,3.2,14.3,14.1v29.5L415.9,194.5z"/>
		<path fill="#B49D4F" d="M445.7,194.5h-25.3l8.1-6.1v-31.2l-7.1-5.3l16.2-7.1v43.6L445.7,194.5z M426.5,128.7
			c0-3.3,2.7-6.1,6.1-6.1c3.3,0,6.1,2.7,6.1,6.1c0,3.3-2.7,6.1-6.1,6.1C429.2,134.7,426.5,132,426.5,128.7z"/>
		<path fill="#B49D4F" d="M451.3,152l16.2-7.1v50.7c-0.1,12.5-4.7,20-15.7,25.3l-0.5-0.5c5.4-6.9,7.1-14.3,7.1-25.8v-37.3L451.3,152
			z M456.4,128.7c0-3.3,2.7-6.1,6.1-6.1s6.1,2.7,6.1,6.1c0,3.3-2.7,6.1-6.1,6.1S456.4,132,456.4,128.7z"/>
		<path fill="#B49D4F" d="M495.9,188.4l8.1,6.1h-25.3l8.1-6.1v-60.6l-7.1-5.3l16.2-7.1V188.4z M534.9,194.5v0.5
			c-15.9,2-20.6-3.2-34.4-26.2l17.8-16.8l-11.2-6.1h24.4L510,166.7C519.4,181.9,524.1,188.8,534.9,194.5z"/>
		<path fill="#B49D4F" d="M562.8,194.5h-25.3l8.1-6.1v-60.6l-7.1-5.3l16.2-7.1v72.9L562.8,194.5z"/>
		<path fill="#B49D4F" d="M654.4,194.5h-25.3l8.1-6.1v-24.9c0-8.9-3.1-11-9-11c-3.2,0-7.4,0.8-12.8,5v31l8.1,6.1h-25.3l8.1-6.1
			v-24.9c0-8.9-3.1-11-9-11c-3.2,0-7.4,0.8-12.8,5v31l8.1,6.1h-25.3l8.1-6.1v-31.2l-7.1-5.3l16.2-7.1l-1.5,8.5l0.5,0.5
			c4.4-4.8,10.4-9,18.6-9c5.7,0,10.8,2.1,12.6,8.6c4.4-4.6,10.3-8.6,18.3-8.6c7,0,13.3,3.2,13.3,14.1v29.5L654.4,194.5z"/>
		<path fill="#B49D4F" d="M717.3,194.5h-25.3l8.1-6.1v-24.9c0-8.9-4.2-11-10-11c-3.2,0-8.4,0.8-13.8,5v31l8.1,6.1H659l8.1-6.1v-31.2
			L660,152l16.2-7.1l-1.5,8.5l0.5,0.5c5.1-5.1,10.9-9,19.7-9c7,0,14.3,3.2,14.3,14.1v29.5L717.3,194.5z"/>
		<path fill="#B49D4F" d="M25.9,291.8c0-15.7,11.2-25.3,24.8-25.3s24.8,9.6,24.8,25.3c0,15.7-11.2,25.3-24.8,25.3
			S25.9,307.5,25.9,291.8z M64.7,294c0-13.7-7-23.5-15.6-23.5c-9.2,0-12.6,9-12.6,19c0,13.7,7.2,23.5,15.8,23.5
			C61.5,313,64.7,304,64.7,294z"/>
		<path fill="#B49D4F" d="M98.3,315.6v18.8l12.1,6H81.1l8.1-6.1v-55.5l-7.1-5.3l16.2-7.1l-1.5,8.5l0.5,0.5c2.9-4.6,9-9,16.7-9
			c10.3,0,21.3,8,21.3,24.1c0,17.4-12.9,26.5-26.2,26.5C106.2,317.1,102,316.7,98.3,315.6z M98.3,279v24.7c0,6.1,5.7,9.3,11.4,9.3
			c8.9,0,15.4-7.6,15.4-20.3c0-11.6-5.5-18.7-14.4-18.7C106.4,274,101.8,275.8,98.3,279z"/>
		<path fill="#B49D4F" d="M181.4,317.2l1.5-8.6l-0.5-0.5c-2.9,4.6-9,9-16.7,9c-10.3,0-21.3-8-21.3-24.1c0-17.4,12.9-26.5,26.2-26.5
			c3.7,0,9.7,0.7,13.7,2.6l6.2-2.6v63.6l7.1,5.3l-16.2,7.1V317.2z M181.4,304.5v-24.7c0-6.1-5.7-9.3-11.4-9.3
			c-8.9,0-15.4,7.6-15.4,20.3c0,11.6,5.5,18.7,14.4,18.7C173.3,309.5,177.9,307.8,181.4,304.5z"/>
		<path fill="#B49D4F" d="M219.4,280v30l12.2,6.1h-29.4l8.1-6.1v-31.2l-7.1-5.3l16.2-7.1l-1.9,10.8l0.5,0.2c3.6-6.7,11-12.1,20.2-10
			l-3.5,9.9C227.9,275.4,222.4,277.1,219.4,280z"/>
		<path fill="#B49D4F" d="M280.2,302.2c0,9.5-9,14.9-17.9,14.9c-3.9,0-7.9-1-11.2-2.4l-6.3,2.4v-16.9l8,10.5c3,1.5,6.1,2.3,8.9,2.3
			c5.9,0,8.8-3.4,8.8-7.7c0-12.6-25.7-9.2-25.7-24.9c0-9.7,9.8-14,18.2-14c3.5,0,6.9,0.8,9.9,2l5.3-2v16.9l-8.9-11.9
			c-1.8-0.6-3.8-1-5.9-1c-6.7,0-9.5,3.7-9.5,7.5C253.8,289.3,280.2,285.9,280.2,302.2z"/>
		<path fill="#B49D4F" d="M326.3,303.9l0.5,0.5c-2.5,9.1-8.6,12.7-15.1,12.7c-8.9,0-14.4-6.9-14.4-14.7v-28.9h-11l20.2-15.1v9h21.3
			l-3.1,6.1h-18.1v24.8c0,4.7,1.1,10.1,8.6,10.1C318.7,308.5,322.1,307.2,326.3,303.9z"/>
		<path fill="#B49D4F" d="M386.4,312.2l-11.5,4.9l-3.1-9h-0.5c-3,3-10.9,9-19.7,9c-6,0-13.3-3.2-13.3-14.1v-24.2l-7.1-5.3l16.2-7.1
			v32c0,8.9,4.2,11,9,11c3.2,0,8.4-0.8,13.8-5v-25.7l-7.1-5.3l16.2-7.1V307L386.4,312.2z"/>
		<path fill="#B49D4F" d="M437.6,273.5l-19.3,45.6h-0.6l-23.5-46.7l-6.7-5h26l-8.1,6.1l14.2,28.9l12-28.9l-8.9-6.1h23.1L437.6,273.5
			z"/>
		<path fill="#B49D4F" d="M521.7,273.5l-17.3,45.6h-0.6l-15.9-34.2l-16.1,34.2h-0.6l-21.2-47l-6.3-4.7h25.7l-8.1,6.1l12.7,28.4
			l10.8-23.5l-5.1-10.9h16.1l-2.7,6.1l12.6,27.4l9.9-27.4l-8.9-6.1h23.1L521.7,273.5z"/>
		<path fill="#B49D4F" d="M584,316.1h-27l8.1-6.1l-10.5-13.5L543.7,310l8.9,6.1h-23.8l8.1-6.1l14.3-17.6l-15.3-19.6l-7.1-5.4h27.1
			l-8.1,6.1l10.1,13l10.2-13l-8.9-6.1h23.6l-8.1,6.1l-13.6,17.1l15.9,20.3L584,316.1z"/>
		<path fill="#B49D4F" d="M606.6,332.3l13.9,8.1h-24.6l14.3-29.9L590,272.6l-7-5.2h26l-8.1,6.1l14.1,26.8l11.5-26.8l-8.9-6.1h23.1
			l-8.1,6.1L606.6,332.3z"/>
		<path fill="#B49D4F" d="M680,311.5l9.8-13.1v17.6h-47.6l33.5-44.1h-19.6l-9.8,13.1v-19.7l8.9,2h35.1l-33.4,44.1H680z"/>
		<path fill="#B49D4F" d="M114.8,437.6H72.3l16.2-6.1V379l-15.1-5.7l25.2-8.6v66.9L114.8,437.6z"/>
		<path fill="#B49D4F" d="M170.5,419.5v18.1h-48.6c30-27.9,36.8-40.2,36.8-50.3c0-8.6-5-13-13.2-13c-7.8,0-14.9,3.8-20,12.7
			l-0.5-0.5c3.3-13.7,12.5-20.8,24.8-20.8c12.3,0,18.9,7,18.9,17.7c0,14.2-11.8,27.4-29.8,45.1h24.7L170.5,419.5z"/>
		<path fill="#B49D4F" d="M226.6,413.9c0,15.6-15.7,24.7-30.2,24.7c-6.7,0-11.9-1.9-15.7-4.9l6.1-8.1l10.6,7.9
			c10.5,0,20.1-7,20.1-17.1c0-6.8-4.3-13.1-13.1-15.7c-2.6,1.2-5.5,2.3-8.7,3.4l-1.5-4.1c14.3-5.5,17.1-11.1,17.1-16.5
			c0-5.8-3.2-9.8-10.4-9.8c-5.3,0-12.6,2.1-19.7,10.1l-0.5-0.5c5.5-11.9,13.1-17.7,23.7-17.7c11.5,0,17,6.9,17,15.2
			c0,5.4-2.2,9.9-7.2,14C221.5,398.6,226.6,404.9,226.6,413.9z"/>
		<path fill="#B49D4F" d="M281,419.7v11.9l8.1,6.1h-29.4l12.2-6.1v-11.9h-31.1l-4.1-3.3l35.2-49.6l9.1-2v46.9h11.4l-1.6,8.1H281z
			 M271.9,411.6v-36.1l-25.4,36.1H271.9z"/>
		<path fill="#B49D4F" d="M347.1,413.6c0,17.3-17,25-31.1,25c-7.1,0-12.5-2-16.5-5.1l6.4-8.5l11.1,8.5c10.7,0,21-5.8,21-17.4
			c0-10.3-8.1-18.2-32.2-20.3l6-29.2h34.9l-1.9,9.1h-28.9l-2.4,11.8C336.2,389.6,347.1,399.7,347.1,413.6z"/>
		<path fill="#B49D4F" d="M407.9,417.2c0,12.4-9.2,21.5-23.4,21.5c-14,0-25.2-8.8-25.2-28.1c0-22.7,15.8-42.1,42.8-47.9l1.5,4.1
			c-22.3,6.4-33.6,19.8-33.6,42c0,19,8.3,24.8,15.2,24.8c8.1,0,12.2-8.2,12.2-16.5c0-12.8-9.3-17-21.5-13.5l-1.5-4.1
			C391.3,392.6,407.9,400.7,407.9,417.2z"/>
		<path fill="#B49D4F" d="M466.2,366.7c-16.4,27.7-23.9,46.9-23.9,70.9h-10.6c1.5-24,13.3-44.3,23.9-61.8h-31.7l-8.3,11v-20.2H466.2
			z"/>
		<path fill="#B49D4F" d="M522.9,418.2c0,13.6-11.4,20.5-24.6,20.5c-12.9,0-24-6.1-24-18.1c0-9.2,6.3-15.4,14.4-19.7
			c-6.5-3.2-11.9-7.6-11.9-16.4c0-12.3,10.3-18.7,22.2-18.7c12.2,0,21.4,6.5,21.4,16.9c0,8-5.4,13.2-12.6,16.4
			C515.7,402.7,522.9,407.6,522.9,418.2z M512.3,419.8c0-9.8-9.1-13-18.1-16.6c-7.3,4.6-9.7,9.8-9.7,15.6c0,7.3,4.4,14.8,14.5,14.8
			C508.3,433.6,512.3,425.9,512.3,419.8z M486.9,382.5c0,7.5,6.9,10.6,14.7,13.9c6.3-3.2,9.1-8.4,9.1-13.6c0-5.3-2.9-12.1-12.1-12.1
			C489.5,370.8,486.9,377.8,486.9,382.5z"/>
		<path fill="#B49D4F" d="M533.5,388.4c0-12.7,10.1-22.7,24.6-22.7c13.7,0,24,8.8,24,28.1c0,22.7-15.8,42.1-42.8,47.9l-1.5-4.1
			c22.3-6.4,33.6-19.8,33.6-42c0-19-7.3-24.8-14.2-24.8c-8.1,0-13,8.1-13,16.8c0,13.1,8.8,17.8,21.3,14.2l1.5,4.1
			C550.2,412.8,533.5,405.6,533.5,388.4z"/>
		<path fill="#B49D4F" d="M641.9,402.2c0,23-11,36.5-24.8,36.5s-24.8-13.5-24.8-36.5s11-36.5,24.8-36.5S641.9,379.2,641.9,402.2z
			 M630.8,402.2c0-19.3-4-31.4-13.7-31.4s-13.7,12.1-13.7,31.4c0,19.3,4,31.4,13.7,31.4S630.8,421.5,630.8,402.2z"/>
		<path fill="#B49D4F" d="M110.6,554.2c0-3.3,2.7-6.1,6.1-6.1c3.3,0,6.1,2.7,6.1,6.1c0,3.3-2.7,6.1-6.1,6.1
			C113.3,560.2,110.6,557.5,110.6,554.2z M118.7,536.9h-4.1l-3-53.7h10.1L118.7,536.9z"/>
		<path fill="#B49D4F" d="M220.3,526.7c0,15.7-9.1,29.9-22.2,29.9c-4.8,0-12-1.9-10.8-11.2l0.8-6.6h-0.4c-3.4,9.5-10,17.8-18.7,17.8
			c-6.2,0-11-4.2-11-13c0-12.7,9.9-32.6,40.2-29.6l-3.4,30.3c-0.7,6.2,1.8,8,4.9,8c7.7,0,16-11.2,16-25.3
			c0-16.7-11.7-27.3-29.7-27.3c-22,0-41.8,15.6-41.8,39.4c0,25.6,23.1,34.8,47.8,30.7l-0.3,3.5c-24.8,4.6-52.6-4.5-52.6-33.8
			c0-26.9,22.4-44.2,47.3-44.2C207.6,495.4,220.3,508.2,220.3,526.7z M190.9,518.3c-14.6-0.2-24.2,9.8-24.2,23.6
			c0,4.7,1.1,7.6,4.5,7.6C177.7,549.5,187.3,537.8,190.9,518.3z"/>
		<path fill="#B49D4F" d="M275.7,510.6l-2.3,26.3h11.1l-0.4,5.1H273l-1.5,17.2h-6.6l1.5-17.2h-21.8l-1.5,17.2h-6.6L238,542h-11.1
			l0.4-5.1h11.1l2.3-26.3h-11.1l0.4-5.1h11.1l1.5-17.2h6.6l-1.5,17.2h21.8l1.5-17.2h6.6l-1.5,17.2h11.1l-0.4,5.1H275.7z
			 M269.1,510.6h-21.8l-2.3,26.3h21.8L269.1,510.6z"/>
		<path fill="#B49D4F" d="M344.5,540.8c0,12.3-10.2,19.5-24,19.5h-0.9l-0.7,8.2l-5.1-0.5l0.7-8.1c-6.2-0.9-11.5-3.1-16.6-5.8v-16.1
			l6.8,12.2c3.4,2.3,6.8,3.7,10.2,4.6l2.5-28.7c-9.4-3.8-19.1-7.9-19.1-20.2c0-10.8,8.9-18.2,22.5-18.5l0.7-8.2l5.1,0.5l-0.7,7.9
			c5.1,0.6,9.7,2.2,15,5v17l-7.8-14.2c-2.6-1.4-5.1-2.2-7.6-2.6l-2.2,25.6C333.2,522.3,344.5,526.9,344.5,540.8z M318.3,516.3
			l2.1-23.8c-10.4,0.6-13,7.6-13,12.2C307.4,510.5,312.2,513.6,318.3,516.3z M334.9,542.7c0-7.9-5.7-11.6-12.5-14.7l-2.4,27.1h0.2
			C332.3,555.2,334.9,548,334.9,542.7z"/>
		<path fill="#B49D4F" d="M372.5,528.4c-10.2,0-17.8-9.2-17.8-20.6c0-11.3,7.6-20.6,17.8-20.6c10.2,0,17.8,9.2,17.8,20.6
			C390.3,519.2,382.7,528.4,372.5,528.4z M381.2,507.9c0-8.9-2.2-16.5-8.7-16.5c-6.5,0-8.7,7.6-8.7,16.5c0,8.9,2.2,16.5,8.7,16.5
			C378.9,524.4,381.2,516.8,381.2,507.9z M416.4,488.3l-36.3,70.9h-6.1l36.3-70.9H416.4z M435.9,539.7c0,11.3-7.6,20.6-17.8,20.6
			s-17.8-9.2-17.8-20.6c0-11.3,7.6-20.6,17.8-20.6S435.9,528.3,435.9,539.7z M426.8,539.7c0-8.9-2.2-16.5-8.7-16.5
			c-6.5,0-8.7,7.6-8.7,16.5c0,8.9,2.2,16.5,8.7,16.5C424.5,556.2,426.8,548.6,426.8,539.7z"/>
		<path fill="#B49D4F" d="M488.2,523.8l-18.8-29.9l-18.8,29.9h-6.1l25-39.3l-0.1-0.2l24.9,39.5H488.2z"/>
		<path fill="#B49D4F" d="M579.9,559.2v1c-12.2,1.8-18.2,1.2-28.3-7.2c-5.8,4.8-13.2,7.2-21.3,7.2c-14.6,0-28-7.9-28-23.1
			c0-10.1,5.9-17.5,14.8-23.2c-2-4.2-3.1-8.3-3.1-12.8c0-12.1,9.3-20,22.2-20c4.1,0,8.4,1,12.8,3l5.9-3v22.2l-11.9-15.9
			c-2.1-0.9-4.1-1.2-6.5-1.2c-8.3,0-12.9,3.8-12.9,12.6c0,10.7,8.2,19.2,18,29.4c5.1,5.2,9,9.3,12.5,12.7c2.9-4.7,4.6-10.9,4.3-18.9
			l-14.6-7.3h26.9l-7.4,7.2c0.4,9.4-1.5,17.2-5.1,23.3C567.5,554.1,570.9,556.1,579.9,559.2z M546.5,548.4c-3.5-3.4-7.7-7.7-12.7-13
			c-6-6.3-11-12.1-14.6-17.8c-6.1,5.6-8.2,11.2-8.2,16.7c0,10.9,8.6,17.8,21.1,17.8C537.3,552.1,542.3,550.9,546.5,548.4z"/>
		<path fill="#B49D4F" d="M582.2,508l11.3-10.9l-17.1-2.1l4.3-7.4l13.9,7.3l-3.2-17.3l8.2,1.8l-2.9,15.5l15.4-7.9l0.8,8.4l-15.2,1.7
			l12.4,12.4l-7.7,3.4l-6.7-14.4l-7.6,15.9L582.2,508z"/>
	</g>
</g>
</svg>
