<?xml version="1.0" encoding="utf-8"?>
<!-- Generator: Adobe Illustrator 19.2.1, SVG Export Plug-In . SVG Version: 6.00 Build 0)  -->
<svg version="1.1" id="Layer_1" xmlns="http://www.w3.org/2000/svg" xmlns:xlink="http://www.w3.org/1999/xlink" x="0px" y="0px"
	 viewBox="0 0 1017.3 185.2" enable-background="new 0 0 1017.3 185.2" xml:space="preserve">
<g>
	<g>
		<path fill="#474A58" d="M32.8,37.6v9.3H1.3l23.5-33.8H9l-5,6.7V9.4l4.6,1h24L9.1,44.3h18.6L32.8,37.6z M15.6,3.1
			C15.6,1.4,17,0,18.7,0c1.7,0,3.1,1.4,3.1,3.1c0,1.7-1.4,3.1-3.1,3.1C17,6.2,15.6,4.8,15.6,3.1z"/>
		<path fill="#474A58" d="M58.5,40.1l0.3,0.3c-1.8,5.5-5.9,7-9.4,7c-6.6,0-11.9-5.4-11.9-13.2c0-8.3,6-12.8,12.2-12.8
			c4.9,0,9.2,2.8,9.6,9.6H42.2c-0.1,0.5-0.1,1-0.1,1.6c0,6,3,10.4,8.8,10.4C53,43,55.5,42.4,58.5,40.1z M42.5,29.2h11.3
			c0-3.2-1.4-5.9-4.9-5.9C45.8,23.3,43.4,25.4,42.5,29.2z"/>
		<path fill="#474A58" d="M89,33.8c0,8.9-6.6,13.6-13.5,13.6c-1.9,0-5-0.4-7-1.4l-3.2,1.4V12.6l-3.6-2.7L70,6.3v15l-0.8,4.4l0.3,0.3
			c1.5-2.3,4.6-4.6,8.6-4.6C83.3,21.4,89,25.5,89,33.8z M83.8,34.9c0-6-2.8-9.6-7.4-9.6c-2.2,0-4.6,0.9-6.4,2.5v12.7
			c0,3.1,2.9,4.8,5.9,4.8C80.4,45.3,83.8,41.4,83.8,34.9z"/>
		<path fill="#474A58" d="M101.3,55.2l7.1,4.2H95.8l7.3-15.3L92.8,24.6l-3.6-2.7h13.4L98.4,25l7.2,13.8l5.9-13.8l-4.6-3.1h11.9
			l-4.2,3.1L101.3,55.2z"/>
		<path fill="#474A58" d="M175.8,46.9h-13l4.2-3.1V31c0-4.6-1.6-5.7-4.6-5.7c-1.7,0-3.8,0.4-6.6,2.5v15.9l4.2,3.1h-13l4.2-3.1V31
			c0-4.6-1.6-5.7-4.6-5.7c-1.7,0-3.8,0.4-6.6,2.5v15.9l4.2,3.1h-13l4.2-3.1v-16l-3.6-2.7l8.3-3.6l-0.8,4.4l0.3,0.3
			c2.2-2.4,5.4-4.6,9.6-4.6c2.9,0,5.6,1.1,6.5,4.4c2.2-2.3,5.3-4.4,9.4-4.4c3.6,0,6.8,1.7,6.8,7.2v15.1L175.8,46.9z"/>
		<path fill="#474A58" d="M179.2,34.4c0-8.1,5.8-13,12.7-13s12.7,4.9,12.7,13c0,8.1-5.8,13-12.7,13S179.2,42.4,179.2,34.4z
			 M199.1,35.5c0-7-3.6-12.1-8-12.1c-4.7,0-6.5,4.6-6.5,9.8c0,7,3.7,12.1,8.1,12.1C197.5,45.3,199.1,40.7,199.1,35.5z M189.9,17
			l4.7-10.1h5.7l-10.1,10.4L189.9,17z"/>
		<path fill="#474A58" d="M230.4,40.1l0.3,0.3c-1.8,5.5-5.9,7-9.4,7c-6.6,0-11.9-5.5-11.9-13.2c0-8.9,7.2-12.8,12.8-12.8
			c3.6,0,6.4,1,8.5,2.6l-3.3,4.4l-5.7-4.9c-4.5,0-7.6,3.3-7.6,9.3c0,5.8,3,10.2,8.8,10.2C224.9,43,227.4,42.4,230.4,40.1z"/>
		<path fill="#474A58" d="M245.5,34.4c0-8.1,5.8-13,12.7-13s12.7,4.9,12.7,13c0,8.1-5.8,13-12.7,13S245.5,42.4,245.5,34.4z
			 M265.5,35.5c0-7-3.6-12.1-8-12.1c-4.7,0-6.5,4.6-6.5,9.8c0,7,3.7,12.1,8.1,12.1C263.8,45.3,265.5,40.7,265.5,35.5z"/>
		<path fill="#474A58" d="M303,44.9l-5.9,2.5l-1.6-4.6h-0.3c-1.5,2.3-4.6,4.6-8.6,4.6c-5.3,0-10.9-4.1-10.9-12.4
			c0-8.9,6.6-13.6,13.5-13.6c1.5,0,3.6,0.2,5.5,0.8v-9.5L291,9.9l8.3-3.6v35.9L303,44.9z M294.7,40.9V28.2c0-3.1-2.9-4.8-5.9-4.8
			c-4.6,0-7.9,3.9-7.9,10.4c0,6,2.8,9.6,7.4,9.6C290.5,43.5,292.9,42.6,294.7,40.9z"/>
		<path fill="#474A58" d="M325.4,40.6l0.3,0.3c-1.3,4.7-4.4,6.5-7.8,6.5c-4.6,0-7.4-3.5-7.4-7.5V25h-5.7l10.4-7.8v4.6h10.9l-1.6,3.1
			h-9.3v12.7c0,2.4,0.6,5.2,4.4,5.2C321.5,43,323.2,42.3,325.4,40.6z"/>
		<path fill="#474A58" d="M367.5,25l-8.9,23.4h-0.3l-8.2-17.6l-8.3,17.6h-0.3l-10.9-24.1l-3.2-2.4h13.2l-4.2,3.1l6.5,14.6l5.6-12.1
			l-2.6-5.6h8.3l-1.4,3.1l6.5,14l5.1-14l-4.6-3.1h11.9L367.5,25z"/>
		<path fill="#474A58" d="M371.9,34.4c0-8.1,5.8-13,12.7-13s12.7,4.9,12.7,13c0,8.1-5.8,13-12.7,13S371.9,42.4,371.9,34.4z
			 M391.8,35.5c0-7-3.6-12.1-8-12.1c-4.7,0-6.5,4.6-6.5,9.8c0,7,3.7,12.1,8.1,12.1C390.2,45.3,391.8,40.7,391.8,35.5z"/>
		<path fill="#474A58" d="M409.9,28.3v15.4l6.2,3.1H401l4.2-3.1v-16l-3.6-2.7l8.3-3.6l-1,5.6l0.3,0.1c1.9-3.4,5.7-6.2,10.4-5.1
			l-1.8,5.1C414.2,26,411.4,26.8,409.9,28.3z"/>
		<path fill="#474A58" d="M440.2,44.5l5-6.7v9.1h-24.4L438,24.2h-10l-5,6.7V20.9l4.6,1h18l-17.2,22.6H440.2z"/>
		<path fill="#474A58" d="M457.9,55.2l7.1,4.2h-12.6l7.3-15.3l-10.4-19.5l-3.6-2.7h13.4L455,25l7.2,13.8l5.9-13.8l-4.6-3.1h11.9
			l-4.2,3.1L457.9,55.2z"/>
		<path fill="#474A58" d="M496.7,40.1l0.3,0.3c-1.8,5.5-5.9,7-9.4,7c-6.6,0-11.9-5.5-11.9-13.2c0-8.9,7.2-12.8,12.8-12.8
			c3.6,0,6.4,1,8.5,2.6l-3.3,4.4l-5.7-4.9c-4.5,0-7.6,3.3-7.6,9.3c0,5.8,3,10.2,8.8,10.2C491.2,43,493.7,42.4,496.7,40.1z
			 M485.9,17.2l-0.3-0.3l4.7-10.1h5.7L485.9,17.2z"/>
		<path fill="#474A58" d="M549.5,25l-8.9,23.4h-0.3l-8.2-17.6l-8.3,17.6h-0.3l-10.9-24.1l-3.2-2.4h13.2l-4.2,3.1l6.5,14.6l5.6-12.1
			l-2.6-5.6h8.3l-1.4,3.1l6.5,14l5.1-14l-4.6-3.1h11.9L549.5,25z"/>
		<path fill="#474A58" d="M568,46.9h-13l4.2-3.1v-16l-3.6-2.7l8.3-3.6v22.4L568,46.9z M558.1,13.1c0-1.7,1.4-3.1,3.1-3.1
			c1.7,0,3.1,1.4,3.1,3.1c0,1.7-1.4,3.1-3.1,3.1C559.5,16.2,558.1,14.8,558.1,13.1z"/>
		<path fill="#474A58" d="M592.5,40.1l0.3,0.3c-1.8,5.5-5.9,7-9.4,7c-6.6,0-11.9-5.4-11.9-13.2c0-8.3,6-12.8,12.2-12.8
			c4.9,0,9.2,2.8,9.6,9.6h-17.1c-0.1,0.5-0.1,1-0.1,1.6c0,6,3,10.4,8.8,10.4C586.9,43,589.4,42.4,592.5,40.1z M576.4,29.2h11.3
			c0-3.2-1.4-5.9-4.9-5.9C579.8,23.3,577.4,25.4,576.4,29.2z"/>
		<path fill="#474A58" d="M605.5,28.3v15.4l6.2,3.1h-15.1l4.2-3.1v-16l-3.6-2.7l8.3-3.6l-1,5.6l0.3,0.1c1.9-3.4,5.7-6.2,10.4-5.1
			l-1.8,5.1C609.8,26,607,26.8,605.5,28.3z"/>
		<path fill="#474A58" d="M646.8,46.9h-13l4.2-3.1V31c0-4.6-2.1-5.7-5.1-5.7c-1.7,0-4.3,0.4-7.1,2.5v15.9l4.2,3.1h-13l4.2-3.1v-16
			l-3.6-2.7l8.3-3.6l-0.8,4.4l0.3,0.3c2.6-2.6,5.6-4.6,10.1-4.6c3.6,0,7.3,1.7,7.3,7.2v15.1L646.8,46.9z"/>
		<path fill="#474A58" d="M662.2,46.9h-13l4.2-3.1v-16l-3.6-2.7l8.3-3.6v22.4L662.2,46.9z M652.3,13.1c0-1.7,1.4-3.1,3.1-3.1
			c1.7,0,3.1,1.4,3.1,3.1c0,1.7-1.4,3.1-3.1,3.1C653.7,16.2,652.3,14.8,652.3,13.1z"/>
		<path fill="#474A58" d="M686.6,40.1l0.3,0.3c-1.8,5.5-5.9,7-9.4,7c-6.6,0-11.9-5.4-11.9-13.2c0-8.3,6-12.8,12.2-12.8
			c4.9,0,9.2,2.8,9.6,9.6h-17.1c-0.1,0.5-0.1,1-0.1,1.6c0,6,3,10.4,8.8,10.4C681.1,43,683.6,42.4,686.6,40.1z M670.6,29.2h11.3
			c0-3.2-1.4-5.9-4.9-5.9C673.9,23.3,671.5,25.4,670.6,29.2z"/>
		<path fill="#474A58" d="M702.2,25l8.3-3.6v26c-0.1,6.4-2.4,10.2-8.1,13l-0.3-0.3c2.8-3.5,3.6-7.3,3.6-13.3V27.7L702.2,25z
			 M704.8,13.1c0-1.7,1.4-3.1,3.1-3.1c1.7,0,3.1,1.4,3.1,3.1c0,1.7-1.4,3.1-3.1,3.1C706.2,16.2,704.8,14.8,704.8,13.1z"/>
		<path fill="#474A58" d="M738.4,40.1l0.3,0.3c-1.8,5.5-5.9,7-9.4,7c-6.6,0-11.9-5.4-11.9-13.2c0-8.3,6-12.8,12.2-12.8
			c4.9,0,9.2,2.8,9.6,9.6H722c-0.1,0.5-0.1,1-0.1,1.6c0,6,3,10.4,8.8,10.4C732.9,43,735.4,42.4,738.4,40.1z M722.3,29.2h11.3
			c0-3.2-1.4-5.9-4.9-5.9C725.7,23.3,723.3,25.4,722.3,29.2z"/>
		<path fill="#474A58" d="M768,25.8l-6.3-2.1c1.8,1.4,3,3.5,3,6c0,5.2-4.8,8.3-10,8.3c-1.7,0-3.3-0.3-4.7-0.9
			c-1.4,1.1-2.1,2.5-2.1,3.7c0,1.2,0.8,2.2,2.3,2.2h13.5c2.6,1.3,4.4,4,4.4,7.2c0,5.3-4.8,9.7-14.3,9.7c-7.5,0-11-2.8-11-6.7
			c0-2.1,1-4.3,4.1-5.9c-1.8-1-2.8-2.9-2.8-5c0-2.6,1.6-4.6,4.1-6.1c-2.1-1.5-3.5-3.6-3.5-6.5c0-5.2,4.8-8.3,10-8.3
			c1.5,0,3,0.3,4.4,0.8l9-0.5V25.8z M749.1,47.4c-0.9,1.1-1.8,2.7-1.8,4.7c0,3.4,2.7,5.7,7.5,5.7c5.9,0,8.3-2.8,8.3-6.2
			c0-2.6-1.3-4.2-4.2-4.2H749.1z M759.7,30.1c0-3.8-2.3-6.8-5.5-6.8c-3,0-4.7,2.7-4.7,6c0,3.8,2.3,6.8,5.5,6.8
			C758.1,36.1,759.7,33.4,759.7,30.1z"/>
		<path fill="#474A58" d="M770.9,34.4c0-8.1,5.8-13,12.7-13s12.7,4.9,12.7,13c0,8.1-5.8,13-12.7,13S770.9,42.4,770.9,34.4z
			 M790.8,35.5c0-7-3.6-12.1-8-12.1c-4.7,0-6.5,4.6-6.5,9.8c0,7,3.7,12.1,8.1,12.1C789.2,45.3,790.8,40.7,790.8,35.5z"/>
		<path fill="#474A58" d="M812,34.4c0-8.1,5.8-13,12.7-13s12.7,4.9,12.7,13c0,8.1-5.8,13-12.7,13S812,42.4,812,34.4z M831.9,35.5
			c0-7-3.6-12.1-8-12.1c-4.7,0-6.5,4.6-6.5,9.8c0,7,3.7,12.1,8.1,12.1C830.3,45.3,831.9,40.7,831.9,35.5z"/>
		<path fill="#474A58" d="M867.4,33.8c0,8.9-6.6,13.6-13.5,13.6c-1.9,0-5-0.4-7-1.4l-3.2,1.4V12.6l-3.6-2.7l8.3-3.6v15l-0.8,4.4
			l0.3,0.3c1.5-2.3,4.6-4.6,8.6-4.6C861.8,21.4,867.4,25.5,867.4,33.8z M862.2,34.9c0-6-2.8-9.6-7.4-9.6c-2.2,0-4.6,0.9-6.4,2.5
			v12.7c0,3.1,2.9,4.8,5.9,4.8C858.8,45.3,862.2,41.4,862.2,34.9z"/>
		<path fill="#474A58" d="M879.9,28.3v15.4l6.2,3.1H871l4.2-3.1v-16l-3.6-2.7l8.3-3.6l-1,5.6l0.3,0.1c1.9-3.4,5.7-6.2,10.4-5.1
			l-1.8,5.1C884.2,26,881.4,26.8,879.9,28.3z"/>
		<path fill="#474A58" d="M916.8,43c-1.3,3.4-3,4.4-5.1,4.4c-2.6,0-4.3-1.5-4.8-3.8h-0.3c-1.7,2.4-4.2,3.8-7.4,3.8
			c-4.2,0-7-2.3-7-6.1c0-2.8,1.5-4.9,3.5-6h10.7V31c0-4.1-1.6-5.7-5.2-5.7c-2.4,0-5,0.7-7.6,2.6l-0.3-0.3c2.5-4.5,6.8-6.2,10.5-6.2
			c4.7,0,7.3,2.7,7.3,7.8v11.8c0,2.4,1.1,3,2.5,3c1,0,1.8-0.3,3.1-1.2L916.8,43z M906.3,41.5v-4.3h-8.1c-0.7,0.9-1.1,2-1.1,3.4
			c0,2.8,1.8,3.7,3.6,3.7C902.4,44.3,904.3,43.4,906.3,41.5z"/>
		<path fill="#474A58" d="M937.5,44.5l5-6.7v9.1h-24.4l17.2-22.6h-10l-5,6.7V20.9l4.6,1h18l-17.2,22.6H937.5z"/>
		<path fill="#474A58" d="M953.5,45.6c0,4.7-4.1,8.1-8.2,9.6l-0.1-0.3c2.8-1.8,4-4.1,4-6.2c0-1.8-0.9-3.5-2.4-4.5
			c0-1.6,1.2-3.1,3.3-3.1C951.9,41.1,953.5,42.3,953.5,45.6z"/>
		<path fill="#474A58" d="M1.8,87.4l8.3-3.6v26c-0.1,6.4-2.4,10.2-8.1,13l-0.3-0.3c2.8-3.5,3.6-7.3,3.6-13.3V90.1L1.8,87.4z
			 M4.4,75.5c0-1.7,1.4-3.1,3.1-3.1c1.7,0,3.1,1.4,3.1,3.1c0,1.7-1.4,3.1-3.1,3.1C5.8,78.6,4.4,77.2,4.4,75.5z"/>
		<path fill="#474A58" d="M38,102.5l0.3,0.3c-1.8,5.5-5.9,7-9.4,7c-6.6,0-11.9-5.4-11.9-13.2c0-8.3,6-12.8,12.2-12.8
			c4.9,0,9.2,2.8,9.6,9.6H21.6c-0.1,0.5-0.1,1-0.1,1.6c0,6,3,10.4,8.8,10.4C32.5,105.4,35,104.8,38,102.5z M22,91.6h11.3
			c0-3.2-1.4-5.9-4.9-5.9C25.3,85.7,22.9,87.9,22,91.6z"/>
		<path fill="#474A58" d="M61.9,102.2c0,4.9-4.6,7.6-9.2,7.6c-2,0-4.1-0.5-5.8-1.2l-3.2,1.2v-8.7l4.1,5.4c1.6,0.8,3.1,1.2,4.6,1.2
			c3,0,4.5-1.8,4.5-4c0-6.5-13.2-4.7-13.2-12.8c0-5,5-7.2,9.4-7.2c1.8,0,3.5,0.4,5.1,1l2.7-1v8.7l-4.6-6.1c-0.9-0.3-2-0.5-3-0.5
			c-3.4,0-4.9,1.9-4.9,3.8C48.4,95.6,61.9,93.8,61.9,102.2z"/>
		<path fill="#474A58" d="M85.6,103l0.3,0.3c-1.3,4.7-4.4,6.5-7.8,6.5c-4.6,0-7.4-3.5-7.4-7.5V87.4H65l10.4-7.8v4.6h10.9l-1.6,3.1
			h-9.3v12.7c0,2.4,0.6,5.2,4.4,5.2C81.7,105.4,83.4,104.7,85.6,103z"/>
		<path fill="#474A58" d="M100.9,96.8c0-8.1,5.8-13,12.7-13s12.7,4.9,12.7,13c0,8.1-5.8,13-12.7,13S100.9,104.9,100.9,96.8z
			 M120.8,98c0-7-3.6-12.1-8-12.1c-4.7,0-6.5,4.6-6.5,9.8c0,7,3.7,12.1,8.1,12.1C119.2,107.7,120.8,103.1,120.8,98z"/>
		<path fill="#474A58" d="M152.1,102.5l0.3,0.3c-1.8,5.5-5.9,7-9.4,7c-6.6,0-11.9-5.5-11.9-13.2c0-8.9,7.2-12.8,12.8-12.8
			c3.6,0,6.4,1,8.5,2.6l-3.3,4.4l-5.7-4.9c-4.5,0-7.6,3.3-7.6,9.3c0,5.8,3,10.2,8.8,10.2C146.6,105.4,149.1,104.8,152.1,102.5z"/>
		<path fill="#474A58" d="M174.1,107l5-6.7v9.1h-24.4l17.2-22.6h-10l-5,6.7V83.3l4.6,1h18L162.2,107H174.1z"/>
		<path fill="#474A58" d="M191.8,117.6l7.1,4.2h-12.6l7.3-15.3L183.3,87l-3.6-2.7H193l-4.2,3.1l7.2,13.8l5.9-13.8l-4.6-3.1h11.9
			l-4.2,3.1L191.8,117.6z"/>
		<path fill="#474A58" d="M248.3,87.4l-8.9,23.4h-0.3L231,93.3l-8.3,17.6h-0.3l-10.9-24.1l-3.2-2.4h13.2l-4.2,3.1l6.5,14.6l5.6-12.1
			l-2.6-5.6h8.3l-1.4,3.1l6.5,14l5.1-14l-4.6-3.1h11.9L248.3,87.4z"/>
		<path fill="#474A58" d="M266.8,109.3h-13l4.2-3.1v-16l-3.6-2.7l8.3-3.6v22.4L266.8,109.3z M256.9,75.5c0-1.7,1.4-3.1,3.1-3.1
			c1.7,0,3.1,1.4,3.1,3.1c0,1.7-1.4,3.1-3.1,3.1C258.3,78.6,256.9,77.2,256.9,75.5z"/>
		<path fill="#474A58" d="M288.9,102.2c0,4.9-4.6,7.6-9.2,7.6c-2,0-4.1-0.5-5.8-1.2l-3.2,1.2v-8.7l4.1,5.4c1.6,0.8,3.1,1.2,4.6,1.2
			c3,0,4.5-1.8,4.5-4c0-6.5-13.2-4.7-13.2-12.8c0-5,5-7.2,9.4-7.2c1.8,0,3.5,0.4,5.1,1l2.7-1v8.7l-4.6-6.1c-0.9-0.3-2-0.5-3-0.5
			c-3.4,0-4.9,1.9-4.9,3.8C275.4,95.6,288.9,93.8,288.9,102.2z"/>
		<path fill="#474A58" d="M312.6,103l0.3,0.3c-1.3,4.7-4.4,6.5-7.8,6.5c-4.6,0-7.4-3.5-7.4-7.5V87.4H292l10.4-7.8v4.6h10.9l-1.6,3.1
			h-9.3v12.7c0,2.4,0.6,5.2,4.4,5.2C308.7,105.4,310.5,104.7,312.6,103z"/>
		<path fill="#474A58" d="M338,102.5l0.3,0.3c-1.8,5.5-5.9,7-9.4,7c-6.6,0-11.9-5.4-11.9-13.2c0-8.3,6-12.8,12.2-12.8
			c4.9,0,9.2,2.8,9.6,9.6h-17.1c-0.1,0.5-0.1,1-0.1,1.6c0,6,3,10.4,8.8,10.4C332.5,105.4,335,104.8,338,102.5z M322,91.6h11.3
			c0-3.2-1.4-5.9-4.9-5.9C325.3,85.7,322.9,87.9,322,91.6z"/>
		<path fill="#474A58" d="M350.2,108c0,4.7-4.1,8.1-8.2,9.6l-0.1-0.3c2.8-1.8,4-4.1,4-6.2c0-1.8-0.9-3.5-2.4-4.5
			c0-1.6,1.2-3.1,3.3-3.1C348.6,103.6,350.2,104.7,350.2,108z"/>
		<path fill="#474A58" d="M384,107l5-6.7v9.1h-24.4l17.2-22.6h-10l-5,6.7V83.3l4.6,1h18L372.1,107H384z M375.2,75.4
			c0-1.7,1.4-3.1,3.1-3.1s3.1,1.4,3.1,3.1c0,1.7-1.4,3.1-3.1,3.1S375.2,77.1,375.2,75.4z"/>
		<path fill="#474A58" d="M414,102.5l0.3,0.3c-1.8,5.5-5.9,7-9.4,7c-6.6,0-11.9-5.4-11.9-13.2c0-8.3,6-12.8,12.2-12.8
			c4.9,0,9.2,2.8,9.6,9.6h-17.1c-0.1,0.5-0.1,1-0.1,1.6c0,6,3,10.4,8.8,10.4C408.5,105.4,411,104.8,414,102.5z M398,91.6h11.3
			c0-3.2-1.4-5.9-4.9-5.9C401.3,85.7,398.9,87.9,398,91.6z"/>
		<path fill="#474A58" d="M455.1,105.4c-1.3,3.4-3,4.4-5.1,4.4c-2.6,0-4.3-1.5-4.8-3.8h-0.3c-1.7,2.4-4.2,3.8-7.4,3.8
			c-4.2,0-7-2.3-7-6.1c0-2.8,1.5-4.9,3.5-6h10.7v-4.4c0-4.1-1.6-5.7-5.2-5.7c-2.4,0-5,0.7-7.6,2.6l-0.3-0.3
			c2.5-4.5,6.8-6.2,10.5-6.2c4.7,0,7.3,2.7,7.3,7.8v11.8c0,2.4,1.1,3,2.5,3c1,0,1.8-0.3,3.1-1.2L455.1,105.4z M444.6,103.9v-4.3
			h-8.1c-0.7,0.9-1.1,2-1.1,3.4c0,2.8,1.8,3.7,3.6,3.7C440.7,106.7,442.5,105.8,444.6,103.9z"/>
		<path fill="#474A58" d="M465.7,90.8v15.4l6.2,3.1h-15.1l4.2-3.1v-16l-3.6-2.7l8.3-3.6l-1,5.6l0.3,0.1c1.9-3.4,5.7-6.2,10.4-5.1
			l-1.8,5.1C470.1,88.4,467.3,89.3,465.7,90.8z"/>
		<path fill="#474A58" d="M496.7,103l0.3,0.3c-1.3,4.7-4.4,6.5-7.8,6.5c-4.6,0-7.4-3.5-7.4-7.5V87.4h-5.7l10.4-7.8v4.6h10.9
			l-1.6,3.1h-9.3v12.7c0,2.4,0.6,5.2,4.4,5.2C492.8,105.4,494.5,104.7,496.7,103z"/>
		<path fill="#474A58" d="M510.8,117.6l7.1,4.2h-12.6l7.3-15.3L502.3,87l-3.6-2.7h13.4l-4.2,3.1l7.2,13.8l5.9-13.8l-4.6-3.1h11.9
			l-4.2,3.1L510.8,117.6z"/>
		<path fill="#474A58" d="M549.4,102.2c0,4.9-4.6,7.6-9.2,7.6c-2,0-4.1-0.5-5.8-1.2l-3.2,1.2v-8.7l4.1,5.4c1.6,0.8,3.1,1.2,4.6,1.2
			c3,0,4.5-1.8,4.5-4c0-6.5-13.2-4.7-13.2-12.8c0-5,5-7.2,9.4-7.2c1.8,0,3.5,0.4,5.1,1l2.7-1v8.7l-4.6-6.1c-0.9-0.3-2-0.5-3-0.5
			c-3.4,0-4.9,1.9-4.9,3.8C535.9,95.6,549.4,93.8,549.4,102.2z"/>
		<path fill="#474A58" d="M573.1,103l0.3,0.3c-1.3,4.7-4.4,6.5-7.8,6.5c-4.6,0-7.4-3.5-7.4-7.5V87.4h-5.7l10.4-7.8v4.6h10.9
			l-1.6,3.1h-9.3v12.7c0,2.4,0.6,5.2,4.4,5.2C569.2,105.4,571,104.7,573.1,103z"/>
		<path fill="#474A58" d="M602.4,105.4c-1.3,3.4-3,4.4-5.1,4.4c-2.6,0-4.3-1.5-4.8-3.8h-0.3c-1.7,2.4-4.2,3.8-7.4,3.8
			c-4.2,0-7-2.3-7-6.1c0-2.8,1.5-4.9,3.5-6h10.7v-4.4c0-4.1-1.6-5.7-5.2-5.7c-2.4,0-5,0.7-7.6,2.6l-0.3-0.3
			c2.5-4.5,6.8-6.2,10.5-6.2c4.7,0,7.3,2.7,7.3,7.8v11.8c0,2.4,1.1,3,2.5,3c1,0,1.8-0.3,3.1-1.2L602.4,105.4z M591.9,103.9v-4.3
			h-8.1c-0.7,0.9-1.1,2-1.1,3.4c0,2.8,1.8,3.7,3.6,3.7C588.1,106.7,589.9,105.8,591.9,103.9z"/>
		<path fill="#474A58" d="M659.9,109.3h-13l4.2-3.1V93.4c0-4.6-1.6-5.7-4.6-5.7c-1.7,0-3.8,0.4-6.6,2.5v15.9l4.2,3.1h-13l4.2-3.1
			V93.4c0-4.6-1.6-5.7-4.6-5.7c-1.7,0-3.8,0.4-6.6,2.5v15.9l4.2,3.1h-13l4.2-3.1v-16l-3.6-2.7l8.3-3.6l-0.8,4.4l0.3,0.3
			c2.2-2.4,5.4-4.6,9.6-4.6c2.9,0,5.6,1.1,6.5,4.4c2.2-2.3,5.3-4.4,9.4-4.4c3.6,0,6.8,1.7,6.8,7.2v15.1L659.9,109.3z"/>
		<path fill="#474A58" d="M689.8,107.3l-5.9,2.5l-1.6-4.6H682c-1.6,1.6-5.6,4.6-10.1,4.6c-3.1,0-6.8-1.7-6.8-7.2V90.1l-3.6-2.7
			l8.3-3.6v16.4c0,4.6,2.1,5.7,4.6,5.7c1.7,0,4.3-0.4,7.1-2.5V90.1l-3.6-2.7l8.3-3.6v20.8L689.8,107.3z"/>
		<path fill="#474A58" d="M712.5,102.2c0,4.9-4.6,7.6-9.2,7.6c-2,0-4.1-0.5-5.8-1.2l-3.2,1.2v-8.7l4.1,5.4c1.6,0.8,3.1,1.2,4.6,1.2
			c3,0,4.5-1.8,4.5-4c0-6.5-13.2-4.7-13.2-12.8c0-5,5-7.2,9.4-7.2c1.8,0,3.5,0.4,5.1,1l2.7-1v8.7l-4.6-6.1c-0.9-0.3-2-0.5-3-0.5
			c-3.4,0-4.9,1.9-4.9,3.8C698.9,95.6,712.5,93.8,712.5,102.2z"/>
		<path fill="#474A58" d="M729.6,109.3h-13l4.2-3.1v-16l-3.6-2.7l8.3-3.6v22.4L729.6,109.3z M719.7,75.5c0-1.7,1.4-3.1,3.1-3.1
			c1.7,0,3.1,1.4,3.1,3.1c0,1.7-1.4,3.1-3.1,3.1C721.1,78.6,719.7,77.2,719.7,75.5z"/>
		<path fill="#474A58" d="M758,105.4c-1.3,3.4-3,4.4-5.1,4.4c-2.6,0-4.3-1.5-4.8-3.8h-0.3c-1.7,2.4-4.2,3.8-7.4,3.8
			c-4.2,0-7-2.3-7-6.1c0-2.8,1.5-4.9,3.5-6h10.7v-4.4c0-4.1-1.6-5.7-5.2-5.7c-2.4,0-5,0.7-7.6,2.6l-0.3-0.3
			c2.5-4.5,6.8-6.2,10.5-6.2c4.7,0,7.3,2.7,7.3,7.8v11.8c0,2.4,1.1,3,2.5,3c1,0,1.8-0.3,3.1-1.2L758,105.4z M747.5,103.9v-4.3h-8.1
			c-0.7,0.9-1.1,2-1.1,3.4c0,2.8,1.8,3.7,3.6,3.7C743.6,106.7,745.4,105.8,747.5,103.9z"/>
		<path fill="#474A58" d="M769.4,89.5v16.7l4.2,3.1h-13l4.2-3.1V92.8l-4.9,3.5v-3.1l4.9-3.5V75.1l-3.6-2.7l8.3-3.6v17.6l4.9-3.4V86
			L769.4,89.5z"/>
		<path fill="#474A58" d="M826.9,87.4l-8.9,23.4h-0.3l-8.2-17.6l-8.3,17.6h-0.3l-10.9-24.1l-3.2-2.4h13.2l-4.2,3.1l6.5,14.6
			l5.6-12.1l-2.6-5.6h8.3l-1.4,3.1l6.5,14l5.1-14l-4.6-3.1h11.9L826.9,87.4z"/>
		<path fill="#474A58" d="M842.1,117.6l7.1,4.2h-12.6l7.3-15.3L833.6,87l-3.6-2.7h13.4l-4.2,3.1l7.2,13.8l5.9-13.8l-4.6-3.1h11.9
			l-4.2,3.1L842.1,117.6z"/>
		<path fill="#474A58" d="M869.8,90.8v15.4l6.2,3.1H861l4.2-3.1v-16l-3.6-2.7l8.3-3.6l-1,5.6l0.3,0.1c1.9-3.4,5.7-6.2,10.4-5.1
			l-1.8,5.1C874.2,88.4,871.4,89.3,869.8,90.8z"/>
		<path fill="#474A58" d="M881.8,96.8c0-8.1,5.8-13,12.7-13s12.7,4.9,12.7,13c0,8.1-5.8,13-12.7,13S881.8,104.9,881.8,96.8z
			 M901.7,98c0-7-3.6-12.1-8-12.1c-4.7,0-6.5,4.6-6.5,9.8c0,7,3.7,12.1,8.1,12.1C900.1,107.7,901.7,103.1,901.7,98z"/>
		<path fill="#474A58" d="M930.7,102.2c0,4.9-4.6,7.6-9.2,7.6c-2,0-4.1-0.5-5.8-1.2l-3.2,1.2v-8.7l4.1,5.4c1.6,0.8,3.1,1.2,4.6,1.2
			c3,0,4.5-1.8,4.5-4c0-6.5-13.2-4.7-13.2-12.8c0-5,5-7.2,9.4-7.2c1.8,0,3.5,0.4,5.1,1l2.7-1v8.7l-4.6-6.1c-0.9-0.3-2-0.5-3-0.5
			c-3.4,0-4.9,1.9-4.9,3.8C917.2,95.6,930.7,93.8,930.7,102.2z"/>
		<path fill="#474A58" d="M964.8,109.3h-13l4.2-3.1V93.4c0-4.6-2.1-5.7-5.1-5.7c-1.7,0-4.3,0.4-7.1,2.5v15.9l4.2,3.1h-13l4.2-3.1
			v-16l-3.6-2.7l8.3-3.6l-0.8,4.4l0.3,0.3c2.6-2.6,5.6-4.6,10.1-4.6c3.6,0,7.3,1.7,7.3,7.2v15.1L964.8,109.3z"/>
		<path fill="#474A58" d="M992.8,117.2l0.3,0.3c-0.6,2.1-2.3,4.3-5.5,4.3c-3.1,0-4.9-2.1-4.9-5c0-2.5,1.9-4.8,4.8-6.9
			c-2.3-0.2-3.9-1.6-4.4-3.8h-0.3c-1.7,2.4-4.2,3.8-7.4,3.8c-4.2,0-7-2.3-7-6.1c0-2.8,1.5-4.9,3.5-6h10.7v-4.4
			c0-4.1-1.6-5.7-5.2-5.7c-2.4,0-5,0.7-7.6,2.6l-0.3-0.3c2.5-4.5,6.8-6.2,10.5-6.2c4.7,0,7.3,2.7,7.3,7.8v11.8c0,2.4,1.1,3,2.5,3
			c1,0,1.8-0.3,3.1-1.2l0.3,0.3c-0.9,2.4-2,3.6-3.3,4.1c-1.9,1.9-3.2,4-3.2,5.8c0,2.4,1.3,3.1,2.9,3.1
			C990.7,118.4,991.7,118,992.8,117.2z M982.6,103.9v-4.3h-8.1c-0.7,0.9-1.1,2-1.1,3.4c0,2.8,1.8,3.7,3.6,3.7
			C978.8,106.7,980.6,105.8,982.6,103.9z"/>
		<path fill="#474A58" d="M1017,102.5l0.3,0.3c-1.8,5.5-5.9,7-9.4,7c-6.6,0-11.9-5.5-11.9-13.2c0-8.9,7.2-12.8,12.8-12.8
			c3.6,0,6.4,1,8.5,2.6l-3.3,4.4l-5.7-4.9c-4.5,0-7.6,3.3-7.6,9.3c0,5.8,3,10.2,8.8,10.2C1011.5,105.4,1014,104.8,1017,102.5z
			 M1006.2,79.6l-0.3-0.3l4.7-10.1h5.7L1006.2,79.6z"/>
		<path fill="#474A58" d="M40.1,149.9l-8.9,23.4h-0.3l-8.2-17.6l-8.3,17.6h-0.3L3.2,149.1L0,146.7h13.2l-4.2,3.1l6.5,14.6l5.6-12.1
			l-2.6-5.6h8.3l-1.4,3.1l6.5,14l5.1-14l-4.6-3.1h11.9L40.1,149.9z"/>
		<path fill="#474A58" d="M65.3,168.6l4.2,3.1h-13l4.2-3.1v-31.1l-3.6-2.7l8.3-3.6V168.6z M85.3,171.7v0.3
			c-8.2,1-10.6-1.7-17.7-13.5l9.2-8.6l-5.8-3.1h12.5l-11,10.7C77.4,165.3,79.7,168.8,85.3,171.7z"/>
		<path fill="#474A58" d="M95.5,153.2v15.4l6.2,3.1H86.6l4.2-3.1v-16l-3.6-2.7l8.3-3.6l-1,5.6l0.3,0.1c1.9-3.4,5.7-6.2,10.4-5.1
			l-1.8,5.1C99.8,150.8,97,151.7,95.5,153.2z"/>
		<path fill="#474A58" d="M128.5,165l0.3,0.3c-0.9,2.9-2.5,4.7-4.4,5.7c-2.8,2.3-4.9,5-4.9,7.3c0,2.4,1.3,3.1,2.9,3.1
			c1.1,0,2.1-0.4,3.3-1.2l0.3,0.3c-0.6,2.1-2.3,4.3-5.5,4.3c-3.1,0-4.9-2.1-4.9-5c0-2.8,2.3-5.3,5.7-7.6c-0.7,0.1-1.4,0.2-2,0.2
			c-6.6,0-11.9-5.4-11.9-13.2c0-8.3,6-12.8,12.2-12.8c4.9,0,9.2,2.8,9.6,9.6h-17.1c-0.1,0.5-0.1,1-0.1,1.6c0,6,3,10.4,8.8,10.4
			C123,167.8,125.5,167.2,128.5,165z M112.5,154h11.3c0-3.2-1.4-5.9-4.9-5.9C115.8,148.2,113.4,150.3,112.5,154z"/>
		<path fill="#474A58" d="M158.1,150.6l-6.3-2.1c1.8,1.4,3,3.5,3,6c0,5.2-4.8,8.3-10,8.3c-1.7,0-3.3-0.3-4.7-0.9
			c-1.4,1.1-2.1,2.5-2.1,3.7c0,1.2,0.8,2.2,2.3,2.2h13.5c2.6,1.3,4.4,4,4.4,7.2c0,5.3-4.8,9.7-14.3,9.7c-7.5,0-11-2.8-11-6.7
			c0-2.1,1-4.3,4.1-5.9c-1.8-1-2.8-2.9-2.8-5c0-2.6,1.6-4.6,4.1-6.1c-2.1-1.5-3.5-3.6-3.5-6.5c0-5.2,4.8-8.3,10-8.3
			c1.5,0,3,0.3,4.4,0.8l9-0.5V150.6z M139.2,172.2c-0.9,1.1-1.8,2.7-1.8,4.7c0,3.4,2.7,5.7,7.5,5.7c5.9,0,8.3-2.8,8.3-6.2
			c0-2.6-1.3-4.2-4.2-4.2H139.2z M149.9,155c0-3.8-2.3-6.8-5.5-6.8c-3,0-4.7,2.7-4.7,6c0,3.8,2.3,6.8,5.5,6.8
			C148.2,160.9,149.9,158.2,149.9,155z"/>
		<path fill="#474A58" d="M187.5,169.7l-5.9,2.5l-1.6-4.6h-0.3c-1.6,1.6-5.6,4.6-10.1,4.6c-3.1,0-6.8-1.7-6.8-7.2v-12.4l-3.6-2.7
			l8.3-3.6v16.4c0,4.6,2.1,5.7,4.6,5.7c1.7,0,4.3-0.4,7.1-2.5v-13.2l-3.6-2.7l8.3-3.6V167L187.5,169.7z"/>
		<path fill="#474A58" d="M220.8,165.5l0.3,0.3c-1.3,4.7-4.4,6.5-7.8,6.5c-4.6,0-7.4-3.5-7.4-7.5v-14.8h-5.7l10.4-7.8v4.6h10.9
			l-1.6,3.1h-9.3v12.7c0,2.4,0.6,5.2,4.4,5.2C216.9,167.8,218.7,167.1,220.8,165.5z"/>
		<path fill="#474A58" d="M235,180l7.1,4.2h-12.6l7.3-15.3l-10.4-19.5l-3.6-2.7h13.4l-4.2,3.1l7.2,13.8l5.9-13.8l-4.6-3.1h11.9
			l-4.2,3.1L235,180z"/>
		<path fill="#474A58" d="M273.8,165l0.3,0.3c-1.8,5.5-5.9,7-9.4,7c-6.6,0-11.9-5.5-11.9-13.2c0-8.9,7.2-12.8,12.8-12.8
			c3.6,0,6.4,1,8.5,2.6l-3.3,4.4l-5.7-4.9c-4.5,0-7.6,3.3-7.6,9.3c0,5.8,3,10.2,8.8,10.2C268.3,167.8,270.8,167.2,273.8,165z"/>
		<path fill="#474A58" d="M306.9,171.7h-13l4.2-3.1v-12.8c0-4.6-2.1-5.7-5.1-5.7c-1.7,0-4.3,0.4-7.1,2.5v15.9l4.2,3.1h-13l4.2-3.1
			v-31.1l-3.6-2.7l8.3-3.6v15l-0.8,4.4l0.3,0.3c2.6-2.6,5.6-4.6,10.1-4.6c3.6,0,7.3,1.7,7.3,7.2v15.1L306.9,171.7z"/>
		<path fill="#474A58" d="M321.2,159.2c0-8.1,5.8-13,12.7-13s12.7,4.9,12.7,13c0,8.1-5.8,13-12.7,13S321.2,167.3,321.2,159.2z
			 M341.1,160.4c0-7-3.6-12.1-8-12.1c-4.7,0-6.5,4.6-6.5,9.8c0,7,3.7,12.1,8.1,12.1C339.5,170.2,341.1,165.5,341.1,160.4z"/>
		<path fill="#474A58" d="M376.6,158.6c0,8.9-6.6,13.6-13.5,13.6c-1.9,0-5-0.4-7-1.4l-3.2,1.4v-34.7l-3.6-2.7l8.3-3.6v15l-0.8,4.4
			l0.3,0.3c1.5-2.3,4.6-4.6,8.6-4.6C371,146.2,376.6,150.3,376.6,158.6z M371.4,159.8c0-6-2.8-9.6-7.4-9.6c-2.2,0-4.6,0.9-6.4,2.5
			v12.7c0,3.1,2.9,4.8,5.9,4.8C368,170.2,371.4,166.3,371.4,159.8z"/>
		<path fill="#474A58" d="M389,180l7.1,4.2h-12.6l7.3-15.3l-10.4-19.5l-3.6-2.7h13.4l-4.2,3.1l7.2,13.8l5.9-13.8l-4.6-3.1h11.9
			l-4.2,3.1L389,180z"/>
		<path fill="#474A58" d="M427.8,165l0.3,0.3c-1.8,5.5-5.9,7-9.4,7c-6.6,0-11.9-5.5-11.9-13.2c0-8.9,7.2-12.8,12.8-12.8
			c3.6,0,6.4,1,8.5,2.6l-3.3,4.4l-5.7-4.9c-4.5,0-7.6,3.3-7.6,9.3c0,5.8,3,10.2,8.8,10.2C422.3,167.8,424.8,167.2,427.8,165z"/>
		<path fill="#474A58" d="M449.8,169.4l5-6.7v9.1h-24.4l17.2-22.6h-10l-5,6.7v-10.1l4.6,1h18L438,169.4H449.8z"/>
		<path fill="#474A58" d="M483.7,167.8c-1.3,3.4-3,4.4-5.1,4.4c-2.6,0-4.3-1.5-4.8-3.8h-0.3c-1.7,2.4-4.2,3.8-7.4,3.8
			c-4.2,0-7-2.3-7-6.1c0-2.8,1.5-4.9,3.5-6h10.7v-4.4c0-4.1-1.6-5.7-5.2-5.7c-2.4,0-5,0.7-7.6,2.6l-0.3-0.3
			c2.5-4.5,6.8-6.2,10.5-6.2c4.7,0,7.3,2.7,7.3,7.8v11.8c0,2.4,1.1,3,2.5,3c1,0,1.8-0.3,3.1-1.2L483.7,167.8z M473.2,166.3V162h-8.1
			c-0.7,0.9-1.1,2-1.1,3.4c0,2.8,1.8,3.7,3.6,3.7C469.4,169.1,471.2,168.2,473.2,166.3z"/>
		<path fill="#474A58" d="M486.1,149.9l8.3-3.6v26c-0.1,6.4-2.4,10.2-8.1,13l-0.3-0.3c2.8-3.5,3.6-7.3,3.6-13.3v-19.1L486.1,149.9z
			 M488.7,137.9c0-1.7,1.4-3.1,3.1-3.1c1.7,0,3.1,1.4,3.1,3.1c0,1.7-1.4,3.1-3.1,3.1C490.1,141,488.7,139.6,488.7,137.9z"/>
		<path fill="#474A58" d="M501.2,159.2c0-8.1,5.8-13,12.7-13s12.7,4.9,12.7,13c0,8.1-5.8,13-12.7,13S501.2,167.3,501.2,159.2z
			 M521.1,160.4c0-7-3.6-12.1-8-12.1c-4.7,0-6.5,4.6-6.5,9.8c0,7,3.7,12.1,8.1,12.1C519.5,170.2,521.1,165.5,521.1,160.4z
			 M511.9,141.8l4.7-10.1h5.7l-10.1,10.4L511.9,141.8z"/>
		<path fill="#474A58" d="M567,149.9l-8.9,23.4h-0.3l-8.2-17.6l-8.3,17.6H541l-10.9-24.1l-3.2-2.4h13.2l-4.2,3.1l6.5,14.6l5.6-12.1
			l-2.6-5.6h8.3l-1.4,3.1l6.5,14l5.1-14l-4.6-3.1h11.9L567,149.9z"/>
		<path fill="#474A58" d="M569.6,169.1c0-1.7,1.4-3.1,3.1-3.1s3.1,1.4,3.1,3.1c0,1.7-1.4,3.1-3.1,3.1S569.6,170.8,569.6,169.1z"/>
		<path fill="#474A58" d="M581,169.1c0-1.7,1.4-3.1,3.1-3.1s3.1,1.4,3.1,3.1c0,1.7-1.4,3.1-3.1,3.1S581,170.8,581,169.1z"/>
		<path fill="#474A58" d="M592.5,169.1c0-1.7,1.4-3.1,3.1-3.1s3.1,1.4,3.1,3.1c0,1.7-1.4,3.1-3.1,3.1S592.5,170.8,592.5,169.1z"/>
	</g>
</g>
</svg>
