<?xml version="1.0" encoding="utf-8"?>
<!-- Generator: Adobe Illustrator 19.2.1, SVG Export Plug-In . SVG Version: 6.00 Build 0)  -->
<svg version="1.1" id="Layer_1" xmlns="http://www.w3.org/2000/svg" xmlns:xlink="http://www.w3.org/1999/xlink" x="0px" y="0px"
	 viewBox="0 0 1172.6 430" enable-background="new 0 0 1172.6 430" xml:space="preserve">
<g>
	<g>
		<path fill="#B49D4F" d="M410,7v78.4h-0.7l-60.7-67.3v56.7l14,7h-31l9.4-7V7l-9.4-7h16.1l54.6,60.8V7l-14-7h31L410,7z"/>
		<path fill="#B49D4F" d="M426.3,53.8c0-18.1,13-29.3,28.7-29.3c15.7,0,28.7,11.1,28.7,29.3s-13,29.3-28.7,29.3
			C439.3,83.1,426.3,72,426.3,53.8z M471.2,56.4c0-15.8-8.1-27.1-18-27.1c-10.6,0-14.5,10.4-14.5,22c0,15.8,8.3,27.1,18.3,27.1
			C467.5,78.4,471.2,68,471.2,56.4z"/>
		<path fill="#B49D4F" d="M541.6,66.7l0.6,0.6C538.1,79.6,529,83.1,521,83.1c-14.7,0-26.8-12.3-26.8-29.6c0-20,16.1-28.9,28.9-28.9
			c8.2,0,14.4,2.3,19.1,5.9l-7.4,9.8l-12.9-11c-10.1,0-17.2,7.5-17.2,20.9c0,13,6.7,22.9,19.8,22.9
			C529.2,73.1,534.8,71.8,541.6,66.7z"/>
		<path fill="#B49D4F" d="M592.5,67.9l0.6,0.6c-2.9,10.5-9.9,14.6-17.4,14.6c-10.3,0-16.6-8-16.6-17V32.8h-12.8l23.3-17.4v10.4h24.6
			l-3.6,7h-20.9v28.7c0,5.4,1.3,11.7,9.9,11.7C583.7,73.1,587.7,71.6,592.5,67.9z"/>
		<path fill="#B49D4F" d="M662,77.5l-13.3,5.6L645,72.7h-0.6c-3.5,3.5-12.6,10.4-22.7,10.4c-6.9,0-15.3-3.7-15.3-16.3v-28l-8.2-6.1
			l18.7-8.2v37c0,10.3,4.8,12.8,10.4,12.8c3.7,0,9.7-0.9,15.9-5.7V38.8l-8.2-6.1l18.7-8.2v46.8L662,77.5z"/>
		<path fill="#B49D4F" d="M688.3,40.2v34.6l14,7h-33.9l9.4-7v-36l-8.2-6.1l18.7-8.2l-2.2,12.5l0.6,0.2c4.2-7.7,12.8-13.9,23.3-11.6
			l-4.1,11.5C698.1,34.9,691.8,36.9,688.3,40.2z"/>
		<path fill="#B49D4F" d="M781.3,81.9h-29.3l9.4-7V46.1c0-10.3-4.8-12.8-11.6-12.8c-3.7,0-9.7,0.9-15.9,5.7v35.8l9.4,7H714l9.4-7
			v-36l-8.2-6.1l18.7-8.2l-1.8,9.8l0.6,0.6c5.8-5.9,12.6-10.4,22.7-10.4c8.1,0,16.5,3.7,16.5,16.3v34L781.3,81.9z"/>
		<path fill="#B49D4F" d="M836.3,66.7l0.6,0.6c-4.1,12.3-13.2,15.8-21.2,15.8c-14.7,0-26.8-12.2-26.8-29.7
			c0-18.6,13.5-28.8,27.5-28.8c11,0,20.6,6.3,21.6,21.6h-38.5c-0.1,1.2-0.1,2.3-0.1,3.6c0,13.6,6.8,23.3,19.8,23.3
			C823.9,73.1,829.5,71.8,836.3,66.7z M800.3,42.1h25.5c0-7.3-3-13.2-11-13.2C807.8,28.9,802.4,33.7,800.3,42.1z"/>
		<path fill="#B49D4F" d="M76.2,180.9l-11.3-15.1H38.7v34.5h24.7l8.9-11.7v29.3l-8.9-11.7H38.7v28.7l14,7H17.7l9.4-7V167l-9.4-7
			h58.5V180.9z"/>
		<path fill="#B49D4F" d="M162.7,241.9v0.6c-24.6,2.3-30.4-12.4-51.6-43.9c19.2-1.1,24.1-9.1,24.1-17.4c0-9.8-6.9-15.3-18.5-15.3
			h-11.9v69l9.4,7H83.8l9.4-7V167l-9.4-7h34.2c17.4,0,30.2,6.1,30.2,19.8c0,11.1-8.4,19-20.8,22.1
			C138.8,219.8,148.5,234.9,162.7,241.9z M118,154.1l-19.3-21.1l0.6-0.6L118,143l18.7-10.5l0.6,0.6L118,154.1z"/>
		<path fill="#B49D4F" d="M208.3,205.9v29l9.4,7h-30.3l9.2-6.9v-29.1l-27.4-39.7L161,160h32.2l-9.4,7l21.3,31.7l22-31.7v-0.1
			l-13.9-6.9h31.5l-9.4,7L208.3,205.9z M186,139.2c0-3.4,2.8-6.1,6.1-6.1c3.4,0,6.1,2.7,6.1,6.1c0,3.3-2.7,6.1-6.1,6.1
			C188.8,145.3,186,142.4,186,139.2z M209.5,139.2c0-3.4,2.8-6.1,6.1-6.1c3.4,0,6.1,2.7,6.1,6.1c0,3.3-2.7,6.1-6.1,6.1
			C212.4,145.3,209.5,142.4,209.5,139.2z"/>
		<path fill="#B49D4F" d="M329.5,199.2c0,26.6-19.8,42.7-40.7,42.7h-40l9.4-7V201H247v-5.3h11.1V167l-9.4-7h40
			C309.7,160,329.5,171.5,329.5,199.2z M316.6,200.4c0-23.5-11.6-34.5-29-34.5h-17.8v29.8h17v5.3h-17v35.1h17.8
			C305,236.1,316.6,222.7,316.6,200.4z"/>
		<path fill="#B49D4F" d="M402.6,221v20.9h-63.2l9.4-7V167l-9.4-7h59.7v20.9l-11.3-15.1h-27.3v31h20.9l8-10.5v26.9l-8-10.5h-20.9
			v33.3h30.8L402.6,221z M391.9,147.6h-40.5V140h40.5V147.6z"/>
		<path fill="#B49D4F" d="M490.9,241.9v0.6c-24.6,2.3-30.4-12.4-51.6-43.9c19.2-1.1,24.1-9.1,24.1-17.4c0-9.8-6.9-15.3-18.5-15.3
			H433v69l9.4,7H412l9.4-7V167l-9.4-7h34.2c17.4,0,30.2,6.1,30.2,19.8c0,11.1-8.4,19-20.8,22.1C466.9,219.8,476.7,234.9,490.9,241.9
			z M454.5,257c0,8.1-6.8,13.7-13.8,16.3l-0.2-0.5c4.8-3,6.8-6.9,6.8-10.4c0-3-1.6-5.9-4.1-7.6c0-2.6,2.1-5.3,5.5-5.3
			C451.8,249.5,454.5,251.5,454.5,257z"/>
		<path fill="#B49D4F" d="M530.6,205.9v29l9.4,7h-30.3l9.2-6.9v-29.1l-27.4-39.7l-8.2-6.2h32.2l-9.4,7l21.3,31.7l22-31.7v-0.1
			l-13.9-6.9H567l-9.4,7L530.6,205.9z M522.2,151.8l-0.6-0.6l15.2-18.1h14L522.2,151.8z"/>
		<path fill="#B49D4F" d="M601.5,241.9h-30.4l9.4-7V167l-9.4-7h30.4l-9.4,7v67.9L601.5,241.9z M654.1,241.9v0.6
			c-24.6,2.3-30.5-6.7-55.1-42.8l32.9-32.6l-12.4-7h28.9l-37,36.9C629.8,223.2,636.7,235.6,654.1,241.9z M615.4,257
			c0,8.1-6.8,13.7-13.8,16.3l-0.2-0.5c4.8-3,6.8-6.9,6.8-10.4c0-3-1.6-5.9-4.1-7.6c0-2.6,2.1-5.3,5.5-5.3
			C612.7,249.5,615.4,251.5,615.4,257z"/>
		<path fill="#B49D4F" d="M726.1,242.8l-2.8,6.9c8.4,2.7,11.5,6.6,11.5,11.5c0,6.4-5.4,9.9-11.6,9.9c-7.6,0-11-5.1-12.4-9.7l0.6-0.6
			c2.7,1.9,5.8,3.3,9.1,3.3c3.2,0,5.5-1.4,5.5-5c0-2.8-1.4-5.1-7.7-7.8l3.3-8.2c-20.4-0.4-39.9-16.1-39.9-41.7
			c0-26.7,21.3-42.6,44.8-42.6c5.7,0,12.5,0.9,18.7,3l6.7-3v27.5l-15.1-20.2c-3.6-1.1-7.3-1.4-10.5-1.4c-18.6,0-32.3,11.8-32.3,33.9
			c0,20.6,11.9,35.1,30.7,35.1c8.9,0,19.7-3.3,29-12.6l0.6,0.6C747.6,236.6,736.3,241.9,726.1,242.8z"/>
		<path fill="#B49D4F" d="M842.5,182.8v52.1l9.4,7h-30.4l9.4-7v-33.3H784v33.3l9.4,7h-30.4l9.4-7v-52.1h-9.9V177h9.9V167l-9.4-7
			h30.4l-9.4,7v9.9h46.8V167l-9.4-7h30.4l-9.4,7v9.9h9.9v5.9H842.5z M830.8,182.8H784v12.9h46.8V182.8z"/>
		<path fill="#B49D4F" d="M943.7,200.6c0,26.6-19.8,42.5-41.2,42.5c-20.9,0-40.7-15.2-40.7-41.8c0-26.6,19.8-42.5,41.2-42.5
			C923.9,158.8,943.7,174,943.7,200.6z M930.8,203.6c0-24.2-13.5-39-30.4-39c-16,0-25.7,13-25.7,33.6c0,24.2,13.5,39,30.4,39
			C921.1,237.2,930.8,224.2,930.8,203.6z M890,151.2l10.5-18.1h14l-24,18.7L890,151.2z M912.2,151.2l10.5-18.1h14l-24,18.7
			L912.2,151.2z"/>
		<path fill="#B49D4F" d="M974.7,208v26.9l14,7h-35.1l9.4-7V167l-9.4-7h34.2c18.6,0,31.4,6.6,31.4,22c0,15.4-12.8,26-31.4,26H974.7z
			 M974.7,202.1h11.9c12.8,0,19.7-7.5,19.7-18.7s-6.9-17.6-19.7-17.6h-11.9V202.1z"/>
		<path fill="#B49D4F" d="M1062.3,140v7.6h-40.5V140H1062.3z M1047.8,167v67.9l9.4,7h-30.4l9.4-7V167l-9.4-7h30.4L1047.8,167z"/>
		<path fill="#B49D4F" d="M1144.4,167v78.4h-0.7l-60.7-67.3v56.7l14,7h-31l9.4-7V167l-9.4-7h16.1l54.6,60.8V167l-14-7h31L1144.4,167
			z M1088.8,136.6h0.6c2.2,5.3,6.1,6.7,9,6.7c6.4,0,13.7-6.7,21.1-6.7s11.1,6.6,11.5,14.9h-0.6c-2.2-5.3-6.1-6.7-9-6.7
			c-6.4,0-13.7,6.7-21.1,6.7S1089.1,144.9,1088.8,136.6z"/>
		<path fill="#B49D4F" d="M72.5,317.7v23.3l-11.3-15.1H42.1v69l9.4,7H21.2l9.2-6.9v-69.1H11.3L0,340.9v-23.3l10.3,2.3h52L72.5,317.7
			z"/>
		<path fill="#B49D4F" d="M87.8,401.3v21.8l13.9,6.9H67.9l9.4-7v-64.1l-8.2-6.1l18.7-8.2l-1.8,9.8l0.6,0.6
			c3.4-5.3,10.4-10.4,19.3-10.4c11.9,0,24.6,9.2,24.6,27.8c0,20.1-14.9,30.7-30.3,30.7C96.9,403.1,92,402.6,87.8,401.3z M87.8,359.1
			v28.5c0,7,6.6,10.8,13.2,10.8c10.3,0,17.8-8.8,17.8-23.4c0-13.5-6.3-21.6-16.6-21.6C97.1,353.3,91.7,355.3,87.8,359.1z"/>
		<path fill="#B49D4F" d="M188.4,386.7l0.6,0.6c-4.1,12.3-13.2,15.8-21.2,15.8c-14.7,0-26.8-12.2-26.8-29.7
			c0-18.6,13.5-28.8,27.5-28.8c11,0,20.6,6.3,21.6,21.6h-38.5c-0.1,1.2-0.1,2.3-0.1,3.6c0,13.6,6.8,23.3,19.8,23.3
			C176,393.1,181.6,391.8,188.4,386.7z M152.3,362.1h25.5c0-7.3-3-13.2-11-13.2C159.8,348.9,154.4,353.7,152.3,362.1z"/>
		<path fill="#B49D4F" d="M255.1,401.9h-31.2l9.4-7L221,379.3l-12.5,15.6l10.3,7h-27.5l9.4-7l16.5-20.4l-17.7-22.6l-8.2-6.2h31.4
			l-9.4,7l11.7,15l11.8-15l-10.3-7h27.3l-9.4,7l-15.7,19.8l18.4,23.4L255.1,401.9z"/>
		<path fill="#B49D4F" d="M307.1,366.1L295.8,351h-19.1v43.9l13.9,7h-33.8l9.4-7v-42.1l-9.4-7h50.3V366.1z"/>
		<path fill="#B49D4F" d="M330.5,401.3v21.8l13.9,6.9h-33.8l9.4-7v-64.1l-8.2-6.1l18.7-8.2l-1.8,9.8l0.6,0.6
			c3.4-5.3,10.4-10.4,19.3-10.4c11.9,0,24.6,9.2,24.6,27.8c0,20.1-14.9,30.7-30.3,30.7C339.7,403.1,334.7,402.6,330.5,401.3z
			 M330.5,359.1v28.5c0,7,6.6,10.8,13.2,10.8c10.3,0,17.8-8.8,17.8-23.4c0-13.5-6.3-21.6-16.6-21.6
			C339.9,353.3,334.5,355.3,330.5,359.1z"/>
		<path fill="#B49D4F" d="M383.8,373.8c0-18.1,13-29.3,28.7-29.3s28.7,11.1,28.7,29.3s-13,29.3-28.7,29.3S383.8,392,383.8,373.8z
			 M428.6,376.4c0-15.8-8.1-27.1-18-27.1c-10.6,0-14.5,10.4-14.5,22c0,15.8,8.3,27.1,18.3,27.1C424.9,398.4,428.6,388,428.6,376.4z"
			/>
		<path fill="#B49D4F" d="M539.4,394.9l9.4,7h-99.5l9.4-7v-42.1l-9.4-7h29.3l-9.4,7v43.3h24.6v-43.3l-9.4-7h29.3l-9.4,7v43.3h24.6
			v-43.3l-9.4-7h29.3l-9.4,7V394.9z"/>
		<path fill="#B49D4F" d="M556.9,373.8c0-18.1,13-29.3,28.7-29.3c15.7,0,28.7,11.1,28.7,29.3s-13,29.3-28.7,29.3
			C569.9,403.1,556.9,392,556.9,373.8z M601.7,376.4c0-15.8-8.1-27.1-18-27.1c-10.6,0-14.5,10.4-14.5,22c0,15.8,8.3,27.1,18.3,27.1
			C598.1,398.4,601.7,388,601.7,376.4z"/>
		<path fill="#B49D4F" d="M682.1,385.3c0,9.9-9.2,16.6-23.8,16.6h-35.9l9.4-7v-42.1l-9.4-7H656c14.5,0,23.8,4.7,23.8,14.6
			c0,6.4-4,10.5-11,12.3C677.2,374.1,682.1,378.2,682.1,385.3z M642.3,370.9H656c8.1,0,12.1-3.4,12.1-9.9s-4-9.9-12.1-9.9h-13.7
			V370.9z M670.4,386.3c0-6.6-4-10.2-12.1-10.2h-16v20.5h16C666.4,396.6,670.4,392.9,670.4,386.3z"/>
		<path fill="#B49D4F" d="M748.8,393.1c-2.9,7.7-6.7,9.9-11.6,9.9c-5.9,0-9.7-3.3-10.9-8.7h-0.6c-3.9,5.5-9.5,8.7-16.7,8.7
			c-9.4,0-15.8-5.1-15.8-13.7c0-6.2,3.4-11,8-13.5h24v-9.8c0-9.1-3.6-12.8-11.7-12.8c-5.5,0-11.2,1.6-17.2,5.9l-0.6-0.6
			c5.6-10.2,15.2-14,23.6-14c10.5,0,16.4,6.1,16.4,17.4v26.4c0,5.5,2.5,6.8,5.6,6.8c2.2,0,4.1-0.6,6.9-2.7L748.8,393.1z
			 M725.2,389.7V380h-18.3c-1.6,2-2.6,4.4-2.6,7.7c0,6.3,4.1,8.3,8.2,8.3C716.5,396.1,720.6,394.1,725.2,389.7z"/>
		<path fill="#B49D4F" d="M806.4,394.9l9.4,7h-29.3l9.4-7v-17.6H782c-10.2,21.8-15.2,27.4-31.8,25.2l-0.2-0.6
			c9.6-5.5,15-12.6,20.9-25.4c-8.3-1.6-14.9-6-14.9-14.5c0-11.3,11.6-16.3,23.8-16.3h35.9l-9.4,7V394.9z M795.8,351h-13.7
			c-9.2,0-14.4,2.2-14.4,10.5c0,8.3,5.1,10.5,14.4,10.5h13.7V351z"/>
		<path fill="#B49D4F" d="M848.5,373.8c0-18.1,13-29.3,28.7-29.3c15.7,0,28.7,11.1,28.7,29.3s-13,29.3-28.7,29.3
			C861.5,403.1,848.5,392,848.5,373.8z M893.3,376.4c0-15.8-8.1-27.1-18-27.1c-10.6,0-14.5,10.4-14.5,22c0,15.8,8.3,27.1,18.3,27.1
			C889.7,398.4,893.3,388,893.3,376.4z"/>
		<path fill="#B49D4F" d="M970.7,394.9l9.4,7h-29.3l9.4-7v-43.3h-26.3v43.3l9.4,7H914l9.4-7v-42.1l-9.4-7h66.1l-9.4,7V394.9z"/>
		<path fill="#B49D4F" d="M1035.7,386.7l0.6,0.6c-4.1,12.3-13.2,15.8-21.2,15.8c-14.7,0-26.8-12.2-26.8-29.7
			c0-18.6,13.5-28.8,27.5-28.8c11,0,20.6,6.3,21.6,21.6h-38.5c-0.1,1.2-0.1,2.3-0.1,3.6c0,13.6,6.8,23.3,19.8,23.3
			C1023.3,393.1,1028.9,391.8,1035.7,386.7z M999.6,362.1h25.5c0-7.3-3-13.2-11-13.2C1007.1,348.9,1001.7,353.7,999.6,362.1z"/>
		<path fill="#B49D4F" d="M1063.2,401.3v21.8l13.9,6.9h-33.8l9.4-7v-64.1l-8.2-6.1l18.7-8.2l-1.8,9.8l0.6,0.6
			c3.4-5.3,10.4-10.4,19.3-10.4c11.9,0,24.6,9.2,24.6,27.8c0,20.1-14.9,30.7-30.3,30.7C1072.3,403.1,1067.4,402.6,1063.2,401.3z
			 M1063.2,359.1v28.5c0,7,6.6,10.8,13.2,10.8c10.3,0,17.8-8.8,17.8-23.4c0-13.5-6.3-21.6-16.6-21.6
			C1072.5,353.3,1067.1,355.3,1063.2,359.1z"/>
		<path fill="#B49D4F" d="M1172.6,393.1c-2.9,7.7-6.7,9.9-11.6,9.9c-5.9,0-9.7-3.3-10.9-8.7h-0.6c-3.9,5.5-9.5,8.7-16.7,8.7
			c-9.4,0-15.8-5.1-15.8-13.7c0-6.2,3.4-11,8-13.5h24v-9.8c0-9.1-3.6-12.8-11.7-12.8c-5.5,0-11.2,1.6-17.2,5.9l-0.6-0.6
			c5.6-10.2,15.2-14,23.6-14c10.5,0,16.4,6.1,16.4,17.4v26.4c0,5.5,2.5,6.8,5.6,6.8c2.2,0,4.1-0.6,6.9-2.7L1172.6,393.1z
			 M1148.9,389.7V380h-18.3c-1.6,2-2.6,4.4-2.6,7.7c0,6.3,4.1,8.3,8.2,8.3C1140.3,396.1,1144.4,394.1,1148.9,389.7z"/>
	</g>
</g>
</svg>
