<?xml version="1.0" encoding="UTF-8"?>
<svg xmlns="http://www.w3.org/2000/svg" xmlns:xlink="http://www.w3.org/1999/xlink" version="1.2" >
<font id="SC 300">
<font-face  font-family="SC" units-per-em="1000" ascent="750" descent="-250" font-style="normal" font-weight="300" font-stretch="normal" cap-height="660" x-height="480" underline-position="-75" underline-thickness="50" />
<missing-glyph  horiz-adv-x="600" d="M78 660 L522 660 L522 0 L78 0 L78 660 Z M270 340 L123 600 L123 84 L270 340 Z M475 84 L475 600 L330 340 L475 84 Z M454 39 L361 203 L302 308 L298 308 L237 203 L142 39 L454 39 Z M302 372 L355 464 L441 619 L157 619 L244 464 L298 372 L302 372 Z " />
<glyph glyph-name="NULL" d="" />
<glyph glyph-name="CR" unicode="&#xd;" horiz-adv-x="600" d="" />
<glyph glyph-name="space" unicode="&#x20;" horiz-adv-x="600" d="" />
<glyph glyph-name="A" unicode="A" horiz-adv-x="600" d="M417 265 L375 388 Q355 447 337 501 Q319 555 302 616 L298 616 Q281 555 263 501 Q245 447 225 388 L183 265 L417 265 Z M430 226 L169 226 L91 0 L45 0 L277 659 L323 659 L555 0 L506 0 L430 226 Z " />
<glyph glyph-name="B" unicode="B" horiz-adv-x="600" d="M115 659 L280 659 Q380 659 438.5 620.5 Q497 582 497 499 Q497 447 468 408.5 Q439 370 380 355 L380 351 Q453 340 495.5 300.5 Q538 261 538 192 Q538 144 520.5 108 Q503 72 471 48 Q439 24 394 12 Q349 0 293 0 L115 0 L115 659 Z M262 369 Q363 369 407 402 Q451 435 451 500 Q451 564 404.5 592.5 Q358 621 267 621 L161 621 L161 369 L262 369 Z M281 38 Q380 38 436 75 Q492 112 492 192 Q492 263 437 297.5 Q382 332 281 332 L161 332 L161 38 L281 38 Z " />
<glyph glyph-name="C" unicode="C" horiz-adv-x="600" d="M72 331 Q72 409 92.5 472 Q113 535 150 579.5 Q187 624 239.5 647.5 Q292 671 355 671 Q412 671 455.5 647 Q499 623 526 592 L498 562 Q472 592 436 610.5 Q400 629 355 629 Q301 629 257.5 608 Q214 587 183.5 548.5 Q153 510 136.5 455 Q120 400 120 331 Q120 262 136.5 206.5 Q153 151 183 112 Q213 73 256 51.5 Q299 30 352 30 Q403 30 442 50 Q481 70 517 111 L544 82 Q506 38 459.5 13 Q413 -12 349 -12 Q288 -12 237 12 Q186 36 149.5 80.5 Q113 125 92.5 188.5 Q72 252 72 331 Z " />
<glyph glyph-name="D" unicode="D" horiz-adv-x="600" d="M96 659 L247 659 Q323 659 379 636 Q435 613 472 570 Q509 527 527 467 Q545 407 545 332 Q545 257 527 195.5 Q509 134 472 90.5 Q435 47 379 23.5 Q323 0 248 0 L96 0 L96 659 Z M243 39 Q309 39 357 60.5 Q405 82 436 121 Q467 160 482 213.5 Q497 267 497 332 Q497 396 482 449 Q467 502 436 540 Q405 578 357 599 Q309 620 243 620 L142 620 L142 39 L243 39 Z " />
<glyph glyph-name="E" unicode="E" horiz-adv-x="600" d="M127 659 L517 659 L517 619 L173 619 L173 370 L463 370 L463 330 L173 330 L173 40 L527 40 L527 0 L127 0 L127 659 Z " />
<glyph glyph-name="F" unicode="F" horiz-adv-x="600" d="M150 659 L535 659 L535 619 L195 619 L195 357 L481 357 L481 317 L195 317 L195 0 L150 0 L150 659 Z " />
<glyph glyph-name="G" unicode="G" horiz-adv-x="600" d="M59 331 Q59 409 79.5 472 Q100 535 137.5 579.5 Q175 624 227 647.5 Q279 671 343 671 Q376 671 402.5 664 Q429 657 450.5 645.5 Q472 634 488.5 620 Q505 606 518 592 L491 562 Q466 590 431 609.5 Q396 629 343 629 Q289 629 245 608 Q201 587 170.5 548.5 Q140 510 123.5 455 Q107 400 107 331 Q107 262 122.5 206.5 Q138 151 168 112 Q198 73 240.5 51.5 Q283 30 337 30 Q381 30 419 43 Q457 56 480 80 L480 285 L328 285 L328 324 L525 324 L525 63 Q495 30 446.5 9 Q398 -12 334 -12 Q272 -12 221.5 12 Q171 36 135 80.5 Q99 125 79 188.5 Q59 252 59 331 Z " />
<glyph glyph-name="H" unicode="H" horiz-adv-x="600" d="M89 659 L135 659 L135 370 L465 370 L465 659 L511 659 L511 0 L465 0 L465 330 L135 330 L135 0 L89 0 L89 659 Z " />
<glyph glyph-name="I" unicode="I" horiz-adv-x="600" d="M107 40 L277 40 L277 619 L107 619 L107 659 L493 659 L493 619 L323 619 L323 40 L493 40 L493 0 L107 0 L107 40 Z " />
<glyph glyph-name="J" unicode="J" horiz-adv-x="600" d="M130 124 Q159 75 197.5 52 Q236 29 278 29 Q360 29 397 73 Q434 117 434 208 L434 621 L147 621 L147 660 L480 660 L480 204 Q480 159 470 119.5 Q460 80 436 51 Q412 22 373 5 Q334 -12 277 -12 Q221 -12 171.5 15 Q122 42 93 98 L130 124 Z " />
<glyph glyph-name="K" unicode="K" horiz-adv-x="600" d="M115 659 L162 659 L162 293 L164 293 L489 659 L543 659 L330 415 L571 0 L518 0 L298 380 L162 227 L162 0 L115 0 L115 659 Z " />
<glyph glyph-name="L" unicode="L" horiz-adv-x="600" d="M150 659 L194 659 L194 40 L539 40 L539 0 L150 0 L150 659 Z " />
<glyph glyph-name="M" unicode="M" horiz-adv-x="600" d="M91 659 L150 659 L260 352 L299 235 L303 235 L341 352 L450 659 L509 659 L509 0 L466 0 L466 461 Q466 494 467.5 534.5 Q469 575 471 609 L468 609 L430 491 L316 180 L284 180 L169 491 L129 609 L127 609 Q129 575 131 534.5 Q133 494 133 461 L133 0 L91 0 L91 659 Z " />
<glyph glyph-name="N" unicode="N" horiz-adv-x="600" d="M92 659 L140 659 L397 193 L468 63 L470 63 Q468 111 466 158.5 Q464 206 464 254 L464 659 L508 659 L508 0 L460 0 L203 466 L132 596 L130 596 Q132 548 134 502 Q136 456 136 408 L136 0 L92 0 L92 659 Z " />
<glyph glyph-name="O" unicode="O" horiz-adv-x="600" d="M300 -12 Q246 -12 201 12.5 Q156 37 123 82 Q90 127 72 190.5 Q54 254 54 332 Q54 410 72 472.5 Q90 535 123 579.5 Q156 624 201 647.5 Q246 671 300 671 Q354 671 399 647.5 Q444 624 477 579.5 Q510 535 528 472.5 Q546 410 546 332 Q546 254 528 190.5 Q510 127 477 82 Q444 37 399 12.5 Q354 -12 300 -12 Z M300 30 Q344 30 380.5 51.5 Q417 73 443 112.5 Q469 152 483.5 207.5 Q498 263 498 332 Q498 400 483.5 455 Q469 510 443 548.5 Q417 587 380.5 608 Q344 629 300 629 Q256 629 219.5 608 Q183 587 157 548.5 Q131 510 116.5 455 Q102 400 102 332 Q102 263 116.5 207.5 Q131 152 157 112.5 Q183 73 219.5 51.5 Q256 30 300 30 Z " />
<glyph glyph-name="P" unicode="P" horiz-adv-x="600" d="M118 659 L298 659 Q353 659 396.5 649.5 Q440 640 470.5 618 Q501 596 517 561 Q533 526 533 475 Q533 378 471 330.5 Q409 283 298 283 L164 283 L164 0 L118 0 L118 659 Z M286 322 Q388 322 436.5 358 Q485 394 485 475 Q485 517 472.5 544.5 Q460 572 435.5 589 Q411 606 373.5 613 Q336 620 286 620 L164 620 L164 322 L286 322 Z " />
<glyph glyph-name="Q" unicode="Q" horiz-adv-x="600" d="M104 332 Q104 264 117.5 208 Q131 152 156.5 112 Q182 72 218.5 50 Q255 28 300 28 Q345 28 381 50 Q417 72 442.5 112 Q468 152 482 208 Q496 264 496 332 Q496 400 482 455.5 Q468 511 442.5 550 Q417 589 381 610.5 Q345 632 300 632 Q255 632 218.5 610.5 Q182 589 156.5 550 Q131 511 117.5 455.5 Q104 400 104 332 Z M538 -144 Q522 -149 507.5 -151 Q493 -153 476 -153 Q435 -153 402.5 -142 Q370 -131 345 -112 Q320 -93 302.5 -67 Q285 -41 274 -11 Q225 -5 185 22 Q145 49 116.5 93.5 Q88 138 72.5 198.5 Q57 259 57 332 Q57 410 74.5 473 Q92 536 124 580 Q156 624 201 648 Q246 672 300 672 Q354 672 398.5 648 Q443 624 475 580 Q507 536 524.5 473 Q542 410 542 332 Q542 258 526.5 197.5 Q511 137 482.5 92.5 Q454 48 414 21.5 Q374 -5 325 -11 Q342 -59 381 -84.5 Q420 -110 482 -110 Q510 -110 529 -102 L538 -144 Z " />
<glyph glyph-name="R" unicode="R" horiz-adv-x="600" d="M293 341 Q381 341 428 376.5 Q475 412 475 485 Q475 559 428 589.5 Q381 620 293 620 L163 620 L163 341 L293 341 Z M481 0 L303 303 L163 303 L163 0 L117 0 L117 659 L305 659 Q354 659 394 649.5 Q434 640 462.5 619 Q491 598 506.5 565 Q522 532 522 485 Q522 406 476.5 361.5 Q431 317 353 306 L535 0 L481 0 Z " />
<glyph glyph-name="S" unicode="S" horiz-adv-x="600" d="M106 119 Q144 78 196 54 Q248 30 309 30 Q390 30 436.5 66.5 Q483 103 483 162 Q483 193 472.5 214 Q462 235 444.5 250.5 Q427 266 403.5 277.5 Q380 289 354 300 L254 345 Q231 354 206 367 Q181 380 160 399.5 Q139 419 125 445.5 Q111 472 111 509 Q111 545 126 574.5 Q141 604 168 625.5 Q195 647 232 659 Q269 671 312 671 Q375 671 424.5 647.5 Q474 624 506 592 L479 561 Q448 592 406.5 610.5 Q365 629 312 629 Q242 629 199.5 597 Q157 565 157 511 Q157 482 169 462 Q181 442 199.5 427.5 Q218 413 239.5 402.5 Q261 392 281 384 L380 340 Q410 328 437 313 Q464 298 484.5 278 Q505 258 517 230.5 Q529 203 529 165 Q529 127 513.5 94.5 Q498 62 469 38.5 Q440 15 399.5 1.5 Q359 -12 309 -12 Q233 -12 175 15.5 Q117 43 76 87 L106 119 Z " />
<glyph glyph-name="T" unicode="T" horiz-adv-x="600" d="M277 619 L48 619 L48 659 L552 659 L552 619 L323 619 L323 0 L277 0 L277 619 Z " />
<glyph glyph-name="U" unicode="U" horiz-adv-x="600" d="M89 659 L135 659 L135 252 Q135 188 148.5 145.5 Q162 103 184.5 77.5 Q207 52 237 41 Q267 30 300 30 Q334 30 364.5 41 Q395 52 418 77.5 Q441 103 454.5 145.5 Q468 188 468 252 L468 659 L511 659 L511 247 Q511 172 493.5 122 Q476 72 447 42.5 Q418 13 380 0.5 Q342 -12 300 -12 Q259 -12 220.5 0.5 Q182 13 153 42.5 Q124 72 106.5 122 Q89 172 89 247 L89 659 Z " />
<glyph glyph-name="V" unicode="V" horiz-adv-x="600" d="M59 659 L108 659 L230 274 Q239 244 247.5 217 Q256 190 264 163.5 Q272 137 280.5 110 Q289 83 299 53 L303 53 Q323 113 338.5 163.5 Q354 214 373 274 L495 659 L541 659 L326 0 L276 0 L59 659 Z " />
<glyph glyph-name="W" unicode="W" horiz-adv-x="600" d="M14 660 L57 660 L128 209 Q133 169 138.5 130 Q144 91 149 50 L151 50 Q163 91 175 130 Q187 169 198 209 L280 488 L322 488 L406 209 Q417 169 428.5 129.5 Q440 90 451 50 L455 50 Q460 90 465.5 129.5 Q471 169 476 209 L544 660 L586 660 L480 0 L424 0 L330 316 Q322 345 316 373.5 Q310 402 302 431 L299 431 Q291 402 284 373.5 Q277 345 269 316 L178 0 L123 0 L14 660 Z " />
<glyph glyph-name="X" unicode="X" horiz-adv-x="600" d="M274 341 L89 659 L139 659 L248 465 Q262 442 273.5 422 Q285 402 302 375 L306 375 Q320 402 331 422 Q342 442 355 465 L464 659 L511 659 L326 339 L525 0 L475 0 L359 202 Q345 227 330.5 252 Q316 277 298 307 L294 307 Q278 277 265 252 Q252 227 238 202 L122 0 L75 0 L274 341 Z " />
<glyph glyph-name="Y" unicode="Y" horiz-adv-x="600" d="M277 242 L51 659 L98 659 L215 441 Q238 403 257.5 364.5 Q277 326 300 286 L304 286 Q327 326 348 365 Q369 404 390 442 L504 659 L549 659 L323 242 L323 0 L277 0 L277 242 Z " />
<glyph glyph-name="Z" unicode="Z" horiz-adv-x="600" d="M70 28 L473 621 L104 621 L104 660 L528 660 L528 632 L125 40 L535 40 L535 0 L70 0 L70 28 Z " />
<glyph glyph-name="a" unicode="a" horiz-adv-x="600" d="M92 120 Q92 160 113 190 Q134 220 178.5 242 Q223 264 292.5 278 Q362 292 460 301 Q460 331 453 358.5 Q446 386 429.5 407 Q413 428 385.5 440.5 Q358 453 317 453 Q290 453 264 447 Q238 441 214 431 Q190 421 170 409.5 Q150 398 135 388 L115 421 Q129 431 151.5 443.5 Q174 456 201 466.5 Q228 477 259 484.5 Q290 492 322 492 Q370 492 404.5 477.5 Q439 463 461 438 Q483 413 493.5 379.5 Q504 346 504 307 L504 0 L467 0 L462 72 L460 72 Q418 39 365.5 13.5 Q313 -12 259 -12 Q227 -12 196.5 -4 Q166 4 143 20 Q120 36 106 61 Q92 86 92 120 Z M137 122 Q137 96 148 78 Q159 60 177.5 48.5 Q196 37 219.5 31.5 Q243 26 267 26 Q356 26 460 113 L460 267 Q368 259 306.5 246 Q245 233 207 215 Q169 197 153 174 Q137 151 137 122 Z " />
<glyph glyph-name="b" unicode="b" horiz-adv-x="600" d="M105 719 L150 719 L150 511 L147 408 Q186 446 234 469 Q282 492 329 492 Q431 492 482 425.5 Q533 359 533 247 Q533 186 514.5 138 Q496 90 465.5 56.5 Q435 23 394.5 5.5 Q354 -12 310 -12 Q273 -12 229 6 Q185 24 149 54 L147 54 L142 0 L105 0 L105 719 Z M150 98 Q192 60 235 43.5 Q278 27 308 27 Q347 27 379.5 43 Q412 59 435.5 88 Q459 117 472.5 157.5 Q486 198 486 247 Q486 291 477 329 Q468 367 448.5 394.5 Q429 422 397.5 437.5 Q366 453 322 453 Q284 453 239.5 431.5 Q195 410 150 365 L150 98 Z " />
<glyph glyph-name="c" unicode="c" horiz-adv-x="600" d="M87 239 Q87 299 107.5 346.5 Q128 394 164 426 Q200 458 247.5 475 Q295 492 349 492 Q409 492 450.5 470 Q492 448 522 419 L496 389 Q465 418 430 435.5 Q395 453 350 453 Q302 453 262 437.5 Q222 422 193.5 393.5 Q165 365 149.5 326 Q134 287 134 239 Q134 192 149.5 153 Q165 114 193 86 Q221 58 261 42.5 Q301 27 349 27 Q398 27 438.5 46.5 Q479 66 511 96 L534 65 Q497 30 450.5 9 Q404 -12 347 -12 Q291 -12 243.5 5 Q196 22 161 54 Q126 86 106.5 132.5 Q87 179 87 239 Z " />
<glyph glyph-name="d" unicode="d" horiz-adv-x="600" d="M67 239 Q67 297 85.5 344 Q104 391 135.5 424 Q167 457 207.5 474.5 Q248 492 293 492 Q340 492 377.5 474 Q415 456 453 424 L450 521 L450 719 L495 719 L495 0 L457 0 L452 71 L450 71 Q418 38 374 13 Q330 -12 279 -12 Q232 -12 193 4.5 Q154 21 126 53 Q98 85 82.5 131.5 Q67 178 67 239 Z M114 239 Q114 191 125.5 152 Q137 113 159 85.5 Q181 58 213 42.5 Q245 27 285 27 Q327 27 368.5 50 Q410 73 450 115 L450 382 Q409 420 371.5 436.5 Q334 453 296 453 Q258 453 225 436.5 Q192 420 167 391.5 Q142 363 128 323.5 Q114 284 114 239 Z " />
<glyph glyph-name="e" unicode="e" horiz-adv-x="600" d="M77 239 Q77 298 97.5 345 Q118 392 151.5 424.5 Q185 457 228 474.5 Q271 492 317 492 Q366 492 406 476.5 Q446 461 474 432.5 Q502 404 517 363 Q532 322 532 270 Q532 261 532 252 Q532 243 530 234 L123 234 Q124 189 139.5 150.5 Q155 112 182.5 84.5 Q210 57 248.5 41.5 Q287 26 334 26 Q382 26 421 40.5 Q460 55 494 78 L512 44 Q479 23 436 5.5 Q393 -12 330 -12 Q278 -12 232 5 Q186 22 151.5 54.5 Q117 87 97 133.5 Q77 180 77 239 Z M489 270 Q489 361 442.5 407.5 Q396 454 318 454 Q282 454 249 441.5 Q216 429 190 405 Q164 381 146 347 Q128 313 123 270 L489 270 Z " />
<glyph glyph-name="f" unicode="f" horiz-adv-x="600" d="M560 668 Q526 683 501 688 Q476 693 442 693 Q404 693 377.5 682 Q351 671 334 651 Q317 631 309.5 603 Q302 575 302 542 L302 480 L525 480 L525 442 L302 442 L302 0 L260 0 L260 442 L115 442 L115 476 L260 480 L260 538 Q260 629 304 680 Q348 731 439 731 Q471 731 504 725 Q537 719 574 702 L560 668 Z " />
<glyph glyph-name="g" unicode="g" horiz-adv-x="600" d="M126 -93 Q126 -137 170 -166 Q214 -195 305 -195 Q354 -195 393.5 -184 Q433 -173 460 -156 Q487 -139 501.5 -117 Q516 -95 516 -72 Q516 -31 485 -16 Q454 -1 391 -1 L277 -1 Q259 -1 240 1 Q221 3 204 8 Q160 -15 143 -41 Q126 -67 126 -93 Z M84 -92 Q84 -63 105 -33 Q126 -3 165 21 L165 25 Q147 34 131 53 Q115 72 115 102 Q115 125 129.5 149 Q144 173 173 193 L173 197 Q150 216 133 246.5 Q116 277 116 321 Q116 358 130 389.5 Q144 421 168.5 443.5 Q193 466 225.5 479 Q258 492 295 492 Q332 492 361 480 L561 480 L561 443 L415 443 Q438 421 455 390 Q472 359 472 320 Q472 283 458 252.5 Q444 222 420 200 Q396 178 364 165.5 Q332 153 295 153 Q273 153 249.5 158.5 Q226 164 204 175 Q183 162 170 145 Q157 128 157 108 Q157 73 187 57 Q217 41 268 41 L387 41 Q479 41 520.5 16 Q562 -9 562 -67 Q562 -98 544 -127.5 Q526 -157 493 -180 Q460 -203 413 -217 Q366 -231 308 -231 Q195 -231 139.5 -193 Q84 -155 84 -92 Z M295 188 Q322 188 346.5 197.5 Q371 207 389.5 224.5 Q408 242 418.5 266.5 Q429 291 429 321 Q429 350 418.5 375 Q408 400 389.5 418 Q371 436 346.5 446 Q322 456 295 456 Q267 456 242.5 446 Q218 436 200 418 Q182 400 171.5 375 Q161 350 161 321 Q161 291 171.5 266.5 Q182 242 200 224.5 Q218 207 242.5 197.5 Q267 188 295 188 Z " />
<glyph glyph-name="h" unicode="h" horiz-adv-x="600" d="M105 719 L150 719 L150 511 L147 385 Q192 432 237.5 462 Q283 492 341 492 Q514 492 514 299 L514 0 L469 0 L469 293 Q469 374 437.5 413 Q406 452 334 452 Q308 452 286 445.5 Q264 439 242.5 425.5 Q221 412 198.5 391.5 Q176 371 150 344 L150 0 L105 0 L105 719 Z " />
<glyph glyph-name="i" unicode="i" horiz-adv-x="600" d="M97 480 L382 480 L382 0 L338 0 L338 442 L97 442 L97 480 Z M349 596 Q329 596 315.5 609 Q302 622 302 644 Q302 666 315.5 679 Q329 692 349 692 Q369 692 382.5 679 Q396 666 396 644 Q396 622 382.5 609 Q369 596 349 596 Z " />
<glyph glyph-name="j" unicode="j" horiz-adv-x="600" d="M97 480 L382 480 L382 -37 Q382 -81 372.5 -116.5 Q363 -152 341.5 -177 Q320 -202 284 -215.5 Q248 -229 194 -229 Q160 -229 125 -220 Q90 -211 63 -197 L81 -162 Q105 -174 135.5 -182.5 Q166 -191 197 -191 Q239 -191 266.5 -180.5 Q294 -170 309.5 -150.5 Q325 -131 331.5 -103.5 Q338 -76 338 -43 L338 442 L97 442 L97 480 Z M349 596 Q329 596 315.5 609 Q302 622 302 644 Q302 666 315.5 679 Q329 692 349 692 Q369 692 382.5 679 Q396 666 396 644 Q396 622 382.5 609 Q369 596 349 596 Z " />
<glyph glyph-name="k" unicode="k" horiz-adv-x="600" d="M123 719 L168 719 L168 191 L172 191 L480 480 L535 480 L338 294 L567 0 L516 0 L307 267 L168 136 L168 0 L123 0 L123 719 Z " />
<glyph glyph-name="l" unicode="l" horiz-adv-x="600" d="M93 719 L315 719 L315 139 Q315 27 419 27 Q463 27 519 53 L533 18 Q504 6 476 -3 Q448 -12 413 -12 Q344 -12 307.5 25.5 Q271 63 271 145 L271 681 L93 681 L93 719 Z " />
<glyph glyph-name="m" unicode="m" horiz-adv-x="600" d="M75 480 L111 480 L116 415 L118 415 Q139 450 163.5 471 Q188 492 228 492 Q305 492 324 407 Q350 448 376 470 Q402 492 442 492 Q492 492 519 456 Q546 420 546 348 L546 0 L503 0 L503 343 Q503 452 433 452 Q401 452 377.5 429.5 Q354 407 330 362 L330 0 L290 0 L290 343 Q290 452 221 452 Q188 452 164.5 429.5 Q141 407 118 362 L118 0 L75 0 L75 480 Z " />
<glyph glyph-name="n" unicode="n" horiz-adv-x="600" d="M105 480 L143 480 L148 388 L152 388 Q194 433 238.5 462.5 Q283 492 341 492 Q514 492 514 299 L514 0 L469 0 L469 293 Q469 374 437.5 413 Q406 452 334 452 Q308 452 286 445.5 Q264 439 242.5 425.5 Q221 412 198.5 391.5 Q176 371 150 344 L150 0 L105 0 L105 480 Z " />
<glyph glyph-name="o" unicode="o" horiz-adv-x="600" d="M67 239 Q67 299 85.5 346.5 Q104 394 136 426 Q168 458 210.5 475 Q253 492 300 492 Q347 492 389.5 475 Q432 458 464 426 Q496 394 514.5 346.5 Q533 299 533 239 Q533 179 514.5 132.5 Q496 86 464 54 Q432 22 389.5 5 Q347 -12 300 -12 Q253 -12 210.5 5 Q168 22 136 54 Q104 86 85.5 132.5 Q67 179 67 239 Z M114 239 Q114 192 128 153 Q142 114 166.5 86 Q191 58 225 42.5 Q259 27 300 27 Q340 27 374.5 42.5 Q409 58 433.5 86 Q458 114 472 153 Q486 192 486 239 Q486 287 472 326 Q458 365 433.5 393.5 Q409 422 374.5 437.5 Q340 453 300 453 Q259 453 225 437.5 Q191 422 166.5 393.5 Q142 365 128 326 Q114 287 114 239 Z " />
<glyph glyph-name="p" unicode="p" horiz-adv-x="600" d="M150 -42 L150 -217 L105 -217 L105 480 L143 480 L148 411 L150 411 Q186 446 234 469 Q282 492 329 492 Q431 492 482 425.5 Q533 359 533 247 Q533 186 514.5 138 Q496 90 465.5 56.5 Q435 23 394 5.5 Q353 -12 308 -12 Q273 -12 229.5 6 Q186 24 149 56 L150 -42 Z M150 98 Q192 60 234.5 43.5 Q277 27 306 27 Q345 27 378 43 Q411 59 435 88 Q459 117 472.5 157.5 Q486 198 486 247 Q486 291 477 329 Q468 367 448.5 394.5 Q429 422 397.5 437.5 Q366 453 322 453 Q284 453 239.5 431.5 Q195 410 150 365 L150 98 Z " />
<glyph glyph-name="q" unicode="q" horiz-adv-x="600" d="M67 239 Q67 297 85.5 344 Q104 391 135.5 424 Q167 457 207.5 474.5 Q248 492 293 492 Q339 492 377 474.5 Q415 457 451 425 L453 425 L458 480 L495 480 L495 -217 L450 -217 L450 -23 L453 72 Q418 37 374 12.5 Q330 -12 279 -12 Q232 -12 193 4.5 Q154 21 126 53 Q98 85 82.5 131.5 Q67 178 67 239 Z M114 239 Q114 191 125.5 152 Q137 113 159 85.5 Q181 58 213 42.5 Q245 27 285 27 Q327 27 368.5 50 Q410 73 450 115 L450 382 Q409 420 371.5 436.5 Q334 453 296 453 Q258 453 225 436.5 Q192 420 167 391.5 Q142 363 128 323.5 Q114 284 114 239 Z " />
<glyph glyph-name="r" unicode="r" horiz-adv-x="600" d="M163 480 L201 480 L206 362 L208 362 Q247 419 304.5 455.5 Q362 492 434 492 Q458 492 482.5 488 Q507 484 530 472 L518 433 Q492 442 473.5 446 Q455 450 427 450 Q367 450 312.5 416 Q258 382 208 300 L208 0 L163 0 L163 480 Z " />
<glyph glyph-name="s" unicode="s" horiz-adv-x="600" d="M108 96 Q147 64 197 45 Q247 26 321 26 Q396 26 433.5 54.5 Q471 83 471 121 Q471 137 464 151.5 Q457 166 438 179.5 Q419 193 385.5 205.5 Q352 218 299 231 Q258 241 223.5 254 Q189 267 164 283.5 Q139 300 124.5 320 Q110 340 110 364 Q110 390 121 413.5 Q132 437 155.5 454.5 Q179 472 214.5 482 Q250 492 298 492 Q346 492 396.5 475 Q447 458 482 433 L458 401 Q426 425 386 439.5 Q346 454 297 454 Q257 454 230 446.5 Q203 439 186.5 427 Q170 415 163 399.5 Q156 384 156 367 Q156 332 199.5 308.5 Q243 285 318 267 Q374 253 412 238.5 Q450 224 473.5 207 Q497 190 507 169.5 Q517 149 517 123 Q517 96 504 71.5 Q491 47 465.5 28.5 Q440 10 403 -1 Q366 -12 319 -12 Q244 -12 185 10.5 Q126 33 83 64 L108 96 Z " />
<glyph glyph-name="t" unicode="t" horiz-adv-x="600" d="M225 442 L80 442 L80 476 L226 480 L232 619 L269 619 L269 480 L525 480 L525 442 L269 442 L269 176 Q269 141 275 113.5 Q281 86 296 66.5 Q311 47 336.5 37 Q362 27 402 27 Q440 27 471 33.5 Q502 40 531 52 L543 18 Q511 4 471 -4 Q431 -12 396 -12 Q347 -12 314 2 Q281 16 261.5 41 Q242 66 233.5 101.5 Q225 137 225 180 L225 442 Z " />
<glyph glyph-name="u" unicode="u" horiz-adv-x="600" d="M494 0 L457 0 L452 93 L448 93 Q409 47 363 17.5 Q317 -12 259 -12 Q171 -12 129 35.5 Q87 83 87 181 L87 480 L131 480 L131 187 Q131 106 162.5 67 Q194 28 266 28 Q291 28 314 34.5 Q337 41 359 54.5 Q381 68 403 88.5 Q425 109 450 137 L450 480 L494 480 L494 0 Z " />
<glyph glyph-name="v" unicode="v" horiz-adv-x="600" d="M62 480 L108 480 L240 179 Q273 107 300 41 L304 41 Q318 74 332 108.5 Q346 143 362 179 L495 480 L538 480 L325 0 L278 0 L62 480 Z " />
<glyph glyph-name="w" unicode="w" horiz-adv-x="600" d="M11 480 L58 480 L135 169 Q143 136 150.5 104.5 Q158 73 164 41 L168 41 Q176 73 184 104.5 Q192 136 200 169 L277 472 L326 472 L403 169 Q411 136 419 104.5 Q427 73 435 41 L439 41 Q447 73 454 104.5 Q461 136 469 169 L545 480 L589 480 L467 0 L410 0 L334 294 Q326 329 318.5 362.5 Q311 396 302 431 L298 431 Q290 398 283 363.5 Q276 329 266 292 L192 0 L135 0 L11 480 Z " />
<glyph glyph-name="x" unicode="x" horiz-adv-x="600" d="M272 249 L95 480 L146 480 L239 358 Q253 338 268 317.5 Q283 297 299 277 L303 277 Q319 297 335.5 318.5 Q352 340 366 360 L456 480 L505 480 L326 247 L520 0 L469 0 L367 130 Q351 150 333.5 174 Q316 198 299 219 L295 219 Q278 196 261.5 174.5 Q245 153 228 129 L129 0 L80 0 L272 249 Z " />
<glyph glyph-name="y" unicode="y" horiz-adv-x="600" d="M79 -170 Q88 -173 100.5 -175.5 Q113 -178 126 -178 Q182 -178 218 -142 Q254 -106 276 -51 L293 -9 L60 480 L106 480 L246 178 Q260 148 277.5 111.5 Q295 75 312 43 L316 43 Q330 75 344.5 111 Q359 147 372 178 L497 480 L540 480 L314 -60 Q303 -90 286.5 -118.5 Q270 -147 247 -169.5 Q224 -192 193.5 -205.5 Q163 -219 125 -219 Q110 -219 94 -216.5 Q78 -214 67 -209 L79 -170 L79 -170 Z " />
<glyph glyph-name="z" unicode="z" horiz-adv-x="600" d="M72 24 L448 442 L112 442 L112 480 L515 480 L515 457 L139 39 L526 39 L526 0 L72 0 L72 24 Z " />
<glyph glyph-name="Agrave" unicode="&#xc0;" horiz-adv-x="600" d="M417 265 L375 388 Q355 447 337 501 Q319 555 302 616 L298 616 Q281 555 263 501 Q245 447 225 388 L183 265 L417 265 Z M430 226 L169 226 L91 0 L45 0 L277 659 L323 659 L555 0 L506 0 L430 226 Z M187 815 L245 815 L337 709 L297 709 L187 815 Z " />
<glyph glyph-name="Aacute" unicode="&#xc1;" horiz-adv-x="600" d="M417 265 L375 388 Q355 447 337 501 Q319 555 302 616 L298 616 Q281 555 263 501 Q245 447 225 388 L183 265 L417 265 Z M430 226 L169 226 L91 0 L45 0 L277 659 L323 659 L555 0 L506 0 L430 226 Z M303 709 L263 709 L355 815 L413 815 L303 709 Z " />
<glyph glyph-name="Acircumflex" unicode="&#xc2;" horiz-adv-x="600" d="M417 265 L375 388 Q355 447 337 501 Q319 555 302 616 L298 616 Q281 555 263 501 Q245 447 225 388 L183 265 L417 265 Z M430 226 L169 226 L91 0 L45 0 L277 659 L323 659 L555 0 L506 0 L430 226 Z M183 709 L279 815 L321 815 L417 709 L377 709 L302 781 L298 781 L223 709 L183 709 Z " />
<glyph glyph-name="Atilde" unicode="&#xc3;" horiz-adv-x="600" d="M417 265 L375 388 Q355 447 337 501 Q319 555 302 616 L298 616 Q281 555 263 501 Q245 447 225 388 L183 265 L417 265 Z M430 226 L169 226 L91 0 L45 0 L277 659 L323 659 L555 0 L506 0 L430 226 Z M359 716 Q339 716 323.5 725 Q308 734 294.5 744.5 Q281 755 268 764 Q255 773 240 773 Q224 773 213 757.5 Q202 742 199 716 L170 716 Q171 733 176 749.5 Q181 766 190 779 Q199 792 211.5 800 Q224 808 241 808 Q261 808 276 799 Q291 790 304.5 779.5 Q318 769 331.5 760.5 Q345 752 360 752 Q376 752 387 767 Q398 782 401 808 L430 808 Q429 791 424 775 Q419 759 410 745.5 Q401 732 388.5 724 Q376 716 359 716 Z " />
<glyph glyph-name="Adieresis" unicode="&#xc4;" horiz-adv-x="600" d="M417 265 L375 388 Q355 447 337 501 Q319 555 302 616 L298 616 Q281 555 263 501 Q245 447 225 388 L183 265 L417 265 Z M430 226 L169 226 L91 0 L45 0 L277 659 L323 659 L555 0 L506 0 L430 226 Z M221 725 Q205 725 195 734.5 Q185 744 185 761 Q185 778 195 788 Q205 798 221 798 Q237 798 247.5 788 Q258 778 258 761 Q258 744 247.5 734.5 Q237 725 221 725 Z M379 725 Q363 725 352.5 734.5 Q342 744 342 761 Q342 778 352.5 788 Q363 798 379 798 Q395 798 405 788 Q415 778 415 761 Q415 744 405 734.5 Q395 725 379 725 Z " />
<glyph glyph-name="Amacron" unicode="&#x100;" horiz-adv-x="600" d="M417 265 L375 388 Q355 447 337 501 Q319 555 302 616 L298 616 Q281 555 263 501 Q245 447 225 388 L183 265 L417 265 Z M430 226 L169 226 L91 0 L45 0 L277 659 L323 659 L555 0 L506 0 L430 226 Z M186 770 L414 770 L414 734 L186 734 L186 770 Z " />
<glyph glyph-name="Abreve" unicode="&#x102;" horiz-adv-x="600" d="M417 265 L375 388 Q355 447 337 501 Q319 555 302 616 L298 616 Q281 555 263 501 Q245 447 225 388 L183 265 L417 265 Z M430 226 L169 226 L91 0 L45 0 L277 659 L323 659 L555 0 L506 0 L430 226 Z M300 711 Q271 711 250.5 721 Q230 731 216 746 Q202 761 194.5 779.5 Q187 798 185 815 L218 815 Q222 789 241.5 766 Q261 743 300 743 Q319 743 333.5 749.5 Q348 756 358 766 Q368 776 374 789 Q380 802 382 815 L415 815 Q413 798 405.5 779.5 Q398 761 384 746 Q370 731 349 721 Q328 711 300 711 Z " />
<glyph glyph-name="Aring" unicode="&#xc5;" horiz-adv-x="600" d="M417 265 L375 388 Q355 447 337 501 Q319 555 302 616 L298 616 Q281 555 263 501 Q245 447 225 388 L183 265 L417 265 Z M430 226 L169 226 L91 0 L45 0 L277 659 L323 659 L555 0 L506 0 L430 226 Z M300 700 Q265 700 241.5 722 Q218 744 218 782 Q218 819 241.5 841.5 Q265 864 300 864 Q334 864 358 841.5 Q382 819 382 782 Q382 744 358 722 Q334 700 300 700 Z M300 726 Q320 726 335.5 740 Q351 754 351 782 Q351 808 335.5 823 Q320 838 300 838 Q278 838 263 823 Q248 808 248 782 Q248 754 263 740 Q278 726 300 726 Z " />
<glyph glyph-name="uni01CD" unicode="&#x1cd;" horiz-adv-x="600" d="M417 265 L375 388 Q355 447 337 501 Q319 555 302 616 L298 616 Q281 555 263 501 Q245 447 225 388 L183 265 L417 265 Z M430 226 L169 226 L91 0 L45 0 L277 659 L323 659 L555 0 L506 0 L430 226 Z M417 815 L321 709 L279 709 L183 815 L223 815 L298 743 L302 743 L377 815 L417 815 Z " />
<glyph glyph-name="uni1EA0" unicode="&#x1ea0;" horiz-adv-x="600" d="M417 265 L375 388 Q355 447 337 501 Q319 555 302 616 L298 616 Q281 555 263 501 Q245 447 225 388 L183 265 L417 265 Z M430 226 L169 226 L91 0 L45 0 L277 659 L323 659 L555 0 L506 0 L430 226 Z M300 -210 Q280 -210 266.5 -197.5 Q253 -185 253 -162 Q253 -140 266.5 -127 Q280 -114 300 -114 Q320 -114 333.5 -127 Q347 -140 347 -162 Q347 -185 333.5 -197.5 Q320 -210 300 -210 Z " />
<glyph glyph-name="uni1EA2" unicode="&#x1ea2;" horiz-adv-x="600" d="M417 265 L375 388 Q355 447 337 501 Q319 555 302 616 L298 616 Q281 555 263 501 Q245 447 225 388 L183 265 L417 265 Z M430 226 L169 226 L91 0 L45 0 L277 659 L323 659 L555 0 L506 0 L430 226 Z M268 729 Q295 737 313 749.5 Q331 762 331 783 Q331 828 246 831 L250 863 Q275 862 297 857.5 Q319 853 335.5 844 Q352 835 361.5 821.5 Q371 808 371 789 Q371 769 363 755 Q355 741 341.5 731 Q328 721 311 714 Q294 707 276 702 L268 729 Z " />
<glyph glyph-name="uni1EA4" unicode="&#x1ea4;" horiz-adv-x="600" d="M417 265 L375 388 Q355 447 337 501 Q319 555 302 616 L298 616 Q281 555 263 501 Q245 447 225 388 L183 265 L417 265 Z M430 226 L169 226 L91 0 L45 0 L277 659 L323 659 L555 0 L506 0 L430 226 Z M450 876 L498 876 L412 770 L379 770 L450 876 Z M280 809 L320 809 L411 709 L372 709 L302 775 L298 775 L228 709 L189 709 L280 809 Z " />
<glyph glyph-name="uni1EA6" unicode="&#x1ea6;" horiz-adv-x="600" d="M417 265 L375 388 Q355 447 337 501 Q319 555 302 616 L298 616 Q281 555 263 501 Q245 447 225 388 L183 265 L417 265 Z M430 226 L169 226 L91 0 L45 0 L277 659 L323 659 L555 0 L506 0 L430 226 Z M452 770 L419 770 L333 876 L380 876 L452 770 Z M280 809 L320 809 L411 709 L372 709 L302 775 L298 775 L228 709 L189 709 L280 809 Z " />
<glyph glyph-name="uni1EA8" unicode="&#x1ea8;" horiz-adv-x="600" d="M417 265 L375 388 Q355 447 337 501 Q319 555 302 616 L298 616 Q281 555 263 501 Q245 447 225 388 L183 265 L417 265 Z M430 226 L169 226 L91 0 L45 0 L277 659 L323 659 L555 0 L506 0 L430 226 Z M392 784 Q413 789 428 799 Q443 809 443 826 Q443 849 424.5 857.5 Q406 866 370 868 L375 899 Q420 897 450.5 881.5 Q481 866 481 831 Q481 814 474 801.5 Q467 789 455.5 780 Q444 771 430 765.5 Q416 760 402 757 L392 784 Z M280 809 L320 809 L411 709 L372 709 L302 775 L298 775 L228 709 L189 709 L280 809 Z " />
<glyph glyph-name="uni1EAA" unicode="&#x1eaa;" horiz-adv-x="600" d="M417 265 L375 388 Q355 447 337 501 Q319 555 302 616 L298 616 Q281 555 263 501 Q245 447 225 388 L183 265 L417 265 Z M430 226 L169 226 L91 0 L45 0 L277 659 L323 659 L555 0 L506 0 L430 226 Z M280 809 L320 809 L411 709 L372 709 L302 775 L298 775 L228 709 L189 709 L280 809 Z M178 845 Q180 874 197 898 Q214 922 249 922 Q267 922 280.5 915 Q294 908 305.5 899.5 Q317 891 328 884 Q339 877 352 877 Q368 877 379 888 Q390 899 393 922 L422 922 Q420 893 403 869 Q386 845 351 845 Q333 845 319.5 852 Q306 859 294.5 867.5 Q283 876 272 883 Q261 890 248 890 Q232 890 221 879 Q210 868 207 845 L178 845 Z " />
<glyph glyph-name="uni1EAC" unicode="&#x1eac;" horiz-adv-x="600" d="M417 265 L375 388 Q355 447 337 501 Q319 555 302 616 L298 616 Q281 555 263 501 Q245 447 225 388 L183 265 L417 265 Z M430 226 L169 226 L91 0 L45 0 L277 659 L323 659 L555 0 L506 0 L430 226 Z M183 709 L279 815 L321 815 L417 709 L377 709 L302 781 L298 781 L223 709 L183 709 Z M300 -210 Q280 -210 266.5 -197.5 Q253 -185 253 -162 Q253 -140 266.5 -127 Q280 -114 300 -114 Q320 -114 333.5 -127 Q347 -140 347 -162 Q347 -185 333.5 -197.5 Q320 -210 300 -210 Z " />
<glyph glyph-name="uni1EAE" unicode="&#x1eae;" horiz-adv-x="600" d="M417 265 L375 388 Q355 447 337 501 Q319 555 302 616 L298 616 Q281 555 263 501 Q245 447 225 388 L183 265 L417 265 Z M430 226 L169 226 L91 0 L45 0 L277 659 L323 659 L555 0 L506 0 L430 226 Z M344 896 L393 896 L298 799 L265 799 L344 896 Z M300 711 Q273 711 253 720.5 Q233 730 219 744.5 Q205 759 197 776.5 Q189 794 187 811 L218 811 Q224 785 243 763.5 Q262 742 300 742 Q338 742 357 763.5 Q376 785 382 811 L413 811 Q411 794 403 776.5 Q395 759 381 744.5 Q367 730 347 720.5 Q327 711 300 711 Z " />
<glyph glyph-name="uni1EB0" unicode="&#x1eb0;" horiz-adv-x="600" d="M417 265 L375 388 Q355 447 337 501 Q319 555 302 616 L298 616 Q281 555 263 501 Q245 447 225 388 L183 265 L417 265 Z M430 226 L169 226 L91 0 L45 0 L277 659 L323 659 L555 0 L506 0 L430 226 Z M335 799 L302 799 L207 896 L256 896 L335 799 Z M300 711 Q273 711 253 720.5 Q233 730 219 744.5 Q205 759 197 776.5 Q189 794 187 811 L218 811 Q224 785 243 763.5 Q262 742 300 742 Q338 742 357 763.5 Q376 785 382 811 L413 811 Q411 794 403 776.5 Q395 759 381 744.5 Q367 730 347 720.5 Q327 711 300 711 Z " />
<glyph glyph-name="uni1EB2" unicode="&#x1eb2;" horiz-adv-x="600" d="M417 265 L375 388 Q355 447 337 501 Q319 555 302 616 L298 616 Q281 555 263 501 Q245 447 225 388 L183 265 L417 265 Z M430 226 L169 226 L91 0 L45 0 L277 659 L323 659 L555 0 L506 0 L430 226 Z M273 824 Q294 830 309 839.5 Q324 849 324 866 Q324 889 305.5 898 Q287 907 251 909 L256 939 Q301 937 331.5 922 Q362 907 362 871 Q362 854 355 841.5 Q348 829 336.5 820.5 Q325 812 311 806.5 Q297 801 283 797 L273 824 Z M300 711 Q273 711 253 720.5 Q233 730 219 744.5 Q205 759 197 776.5 Q189 794 187 811 L218 811 Q224 785 243 763.5 Q262 742 300 742 Q338 742 357 763.5 Q376 785 382 811 L413 811 Q411 794 403 776.5 Q395 759 381 744.5 Q367 730 347 720.5 Q327 711 300 711 Z " />
<glyph glyph-name="uni1EB4" unicode="&#x1eb4;" horiz-adv-x="600" d="M417 265 L375 388 Q355 447 337 501 Q319 555 302 616 L298 616 Q281 555 263 501 Q245 447 225 388 L183 265 L417 265 Z M430 226 L169 226 L91 0 L45 0 L277 659 L323 659 L555 0 L506 0 L430 226 Z M300 711 Q273 711 253 720.5 Q233 730 219 744.5 Q205 759 197 776.5 Q189 794 187 811 L218 811 Q224 785 243 763.5 Q262 742 300 742 Q338 742 357 763.5 Q376 785 382 811 L413 811 Q411 794 403 776.5 Q395 759 381 744.5 Q367 730 347 720.5 Q327 711 300 711 Z M178 843 Q179 857 183.5 871.5 Q188 886 197 897.5 Q206 909 218.5 916.5 Q231 924 249 924 Q267 924 280 916.5 Q293 909 304.5 899.5 Q316 890 327 882.5 Q338 875 351 875 Q368 875 378.5 888 Q389 901 393 924 L422 924 Q421 910 416 895.5 Q411 881 402.5 869.5 Q394 858 381 850.5 Q368 843 351 843 Q333 843 319.5 850.5 Q306 858 294.5 867.5 Q283 877 272 884.5 Q261 892 248 892 Q232 892 221 879 Q210 866 207 843 L178 843 Z " />
<glyph glyph-name="uni1EB6" unicode="&#x1eb6;" horiz-adv-x="600" d="M417 265 L375 388 Q355 447 337 501 Q319 555 302 616 L298 616 Q281 555 263 501 Q245 447 225 388 L183 265 L417 265 Z M430 226 L169 226 L91 0 L45 0 L277 659 L323 659 L555 0 L506 0 L430 226 Z M300 711 Q271 711 250.5 721 Q230 731 216 746 Q202 761 194.5 779.5 Q187 798 185 815 L218 815 Q222 789 241.5 766 Q261 743 300 743 Q319 743 333.5 749.5 Q348 756 358 766 Q368 776 374 789 Q380 802 382 815 L415 815 Q413 798 405.5 779.5 Q398 761 384 746 Q370 731 349 721 Q328 711 300 711 Z M300 -210 Q280 -210 266.5 -197.5 Q253 -185 253 -162 Q253 -140 266.5 -127 Q280 -114 300 -114 Q320 -114 333.5 -127 Q347 -140 347 -162 Q347 -185 333.5 -197.5 Q320 -210 300 -210 Z " />
<glyph glyph-name="Aogonek" unicode="&#x104;" horiz-adv-x="600" d="M417 265 L375 388 Q355 447 337 501 Q319 555 302 616 L298 616 Q281 555 263 501 Q245 447 225 388 L183 265 L417 265 Z M591 -181 Q580 -191 561 -198 Q542 -205 526 -205 Q491 -205 466 -185 Q441 -165 441 -123 Q441 -85 463.5 -52 Q486 -19 513 0 L506 0 L430 226 L169 226 L91 0 L45 0 L277 659 L323 659 L555 0 Q523 -20 502 -52.5 Q481 -85 481 -116 Q481 -142 496.5 -155 Q512 -168 531 -168 Q545 -168 554.5 -165 Q564 -162 575 -154 L591 -181 Z " />
<glyph glyph-name="AE" unicode="&#xc6;" horiz-adv-x="600" d="M321 255 L321 619 L317 619 Q293 562 268 505.5 Q243 449 217 389 L159 255 L321 255 Z M589 40 L589 0 L321 0 L321 217 L143 217 L50 0 L0 0 L290 659 L579 659 L579 619 L365 619 L365 370 L528 370 L528 330 L365 330 L365 40 L589 40 Z " />
<glyph glyph-name="uni0243" unicode="&#x243;" horiz-adv-x="600" d="M293 37 Q391 37 447.5 74.5 Q504 112 504 193 Q504 265 449 300 Q394 335 293 335 L162 335 L162 211 L326 211 L326 178 L162 178 L162 37 L293 37 Z M162 370 L273 370 Q375 370 419 402.5 Q463 435 463 501 Q463 565 416.5 593.5 Q370 622 279 622 L162 622 L162 370 Z M392 353 Q465 342 507 302 Q549 262 549 193 Q549 97 483 48.5 Q417 0 305 0 L116 0 L116 178 L38 178 L38 207 L116 211 L116 659 L292 659 Q391 659 450 620 Q509 581 509 499 Q509 448 479.5 410 Q450 372 392 357 L392 353 Z " />
<glyph glyph-name="Ccedilla" unicode="&#xc7;" horiz-adv-x="600" d="M72 331 Q72 409 92.5 472 Q113 535 150 579.5 Q187 624 239.5 647.5 Q292 671 355 671 Q412 671 455.5 647 Q499 623 526 592 L498 562 Q472 592 436 610.5 Q400 629 355 629 Q301 629 257.5 608 Q214 587 183.5 548.5 Q153 510 136.5 455 Q120 400 120 331 Q120 262 136.5 206.5 Q153 151 183 112 Q213 73 256 51.5 Q299 30 352 30 Q403 30 442 50 Q481 70 517 111 L544 82 Q506 38 459.5 13 Q413 -12 349 -12 Q288 -12 237 12 Q186 36 149.5 80.5 Q113 125 92.5 188.5 Q72 252 72 331 Z M331 2 L366 2 L337 -54 Q361 -62 379 -77.5 Q397 -93 397 -123 Q397 -143 386.5 -157.5 Q376 -172 358.5 -182 Q341 -192 318 -198.5 Q295 -205 271 -208 L265 -178 Q307 -172 332 -160 Q357 -148 357 -127 Q357 -104 338.5 -93 Q320 -82 291 -74 L331 2 Z " />
<glyph glyph-name="Cacute" unicode="&#x106;" horiz-adv-x="600" d="M72 331 Q72 409 92.5 472 Q113 535 150 579.5 Q187 624 239.5 647.5 Q292 671 355 671 Q412 671 455.5 647 Q499 623 526 592 L498 562 Q472 592 436 610.5 Q400 629 355 629 Q301 629 257.5 608 Q214 587 183.5 548.5 Q153 510 136.5 455 Q120 400 120 331 Q120 262 136.5 206.5 Q153 151 183 112 Q213 73 256 51.5 Q299 30 352 30 Q403 30 442 50 Q481 70 517 111 L544 82 Q506 38 459.5 13 Q413 -12 349 -12 Q288 -12 237 12 Q186 36 149.5 80.5 Q113 125 92.5 188.5 Q72 252 72 331 Z M346 709 L306 709 L398 815 L456 815 L346 709 Z " />
<glyph glyph-name="Ccircumflex" unicode="&#x108;" horiz-adv-x="600" d="M72 331 Q72 409 92.5 472 Q113 535 150 579.5 Q187 624 239.5 647.5 Q292 671 355 671 Q412 671 455.5 647 Q499 623 526 592 L498 562 Q472 592 436 610.5 Q400 629 355 629 Q301 629 257.5 608 Q214 587 183.5 548.5 Q153 510 136.5 455 Q120 400 120 331 Q120 262 136.5 206.5 Q153 151 183 112 Q213 73 256 51.5 Q299 30 352 30 Q403 30 442 50 Q481 70 517 111 L544 82 Q506 38 459.5 13 Q413 -12 349 -12 Q288 -12 237 12 Q186 36 149.5 80.5 Q113 125 92.5 188.5 Q72 252 72 331 Z M226 709 L322 815 L364 815 L460 709 L420 709 L345 781 L341 781 L266 709 L226 709 Z " />
<glyph glyph-name="Ccaron" unicode="&#x10c;" horiz-adv-x="600" d="M72 331 Q72 409 92.5 472 Q113 535 150 579.5 Q187 624 239.5 647.5 Q292 671 355 671 Q412 671 455.5 647 Q499 623 526 592 L498 562 Q472 592 436 610.5 Q400 629 355 629 Q301 629 257.5 608 Q214 587 183.5 548.5 Q153 510 136.5 455 Q120 400 120 331 Q120 262 136.5 206.5 Q153 151 183 112 Q213 73 256 51.5 Q299 30 352 30 Q403 30 442 50 Q481 70 517 111 L544 82 Q506 38 459.5 13 Q413 -12 349 -12 Q288 -12 237 12 Q186 36 149.5 80.5 Q113 125 92.5 188.5 Q72 252 72 331 Z M460 815 L364 709 L322 709 L226 815 L266 815 L341 743 L345 743 L420 815 L460 815 Z " />
<glyph glyph-name="Cdotaccent" unicode="&#x10a;" horiz-adv-x="600" d="M72 331 Q72 409 92.5 472 Q113 535 150 579.5 Q187 624 239.5 647.5 Q292 671 355 671 Q412 671 455.5 647 Q499 623 526 592 L498 562 Q472 592 436 610.5 Q400 629 355 629 Q301 629 257.5 608 Q214 587 183.5 548.5 Q153 510 136.5 455 Q120 400 120 331 Q120 262 136.5 206.5 Q153 151 183 112 Q213 73 256 51.5 Q299 30 352 30 Q403 30 442 50 Q481 70 517 111 L544 82 Q506 38 459.5 13 Q413 -12 349 -12 Q288 -12 237 12 Q186 36 149.5 80.5 Q113 125 92.5 188.5 Q72 252 72 331 Z M343 721 Q326 721 314.5 732 Q303 743 303 762 Q303 779 314.5 790 Q326 801 343 801 Q360 801 371.5 790 Q383 779 383 762 Q383 743 371.5 732 Q360 721 343 721 Z " />
<glyph glyph-name="Dcaron" unicode="&#x10e;" horiz-adv-x="600" d="M96 659 L247 659 Q323 659 379 636 Q435 613 472 570 Q509 527 527 467 Q545 407 545 332 Q545 257 527 195.5 Q509 134 472 90.5 Q435 47 379 23.5 Q323 0 248 0 L96 0 L96 659 Z M243 39 Q309 39 357 60.5 Q405 82 436 121 Q467 160 482 213.5 Q497 267 497 332 Q497 396 482 449 Q467 502 436 540 Q405 578 357 599 Q309 620 243 620 L142 620 L142 39 L243 39 Z M417 815 L321 709 L279 709 L183 815 L223 815 L298 743 L302 743 L377 815 L417 815 Z " />
<glyph glyph-name="uni1E0C" unicode="&#x1e0c;" horiz-adv-x="600" d="M96 659 L247 659 Q323 659 379 636 Q435 613 472 570 Q509 527 527 467 Q545 407 545 332 Q545 257 527 195.5 Q509 134 472 90.5 Q435 47 379 23.5 Q323 0 248 0 L96 0 L96 659 Z M243 39 Q309 39 357 60.5 Q405 82 436 121 Q467 160 482 213.5 Q497 267 497 332 Q497 396 482 449 Q467 502 436 540 Q405 578 357 599 Q309 620 243 620 L142 620 L142 39 L243 39 Z M291 -210 Q271 -210 257.5 -197.5 Q244 -185 244 -162 Q244 -140 257.5 -127 Q271 -114 291 -114 Q311 -114 324.5 -127 Q338 -140 338 -162 Q338 -185 324.5 -197.5 Q311 -210 291 -210 Z " />
<glyph glyph-name="uni1E0E" unicode="&#x1e0e;" horiz-adv-x="600" d="M96 659 L247 659 Q323 659 379 636 Q435 613 472 570 Q509 527 527 467 Q545 407 545 332 Q545 257 527 195.5 Q509 134 472 90.5 Q435 47 379 23.5 Q323 0 248 0 L96 0 L96 659 Z M243 39 Q309 39 357 60.5 Q405 82 436 121 Q467 160 482 213.5 Q497 267 497 332 Q497 396 482 449 Q467 502 436 540 Q405 578 357 599 Q309 620 243 620 L142 620 L142 39 L243 39 Z M404 -160 L176 -160 L176 -124 L404 -124 L404 -160 Z " />
<glyph glyph-name="Dcroat" unicode="&#x110;" horiz-adv-x="600" d="M102 332 L25 332 L25 361 L102 365 L102 659 L253 659 Q329 659 385 636 Q441 613 478 570 Q515 527 533 467 Q551 407 551 332 Q551 257 533 195.5 Q515 134 478 90.5 Q441 47 385 23.5 Q329 0 254 0 L102 0 L102 332 Z M249 39 Q315 39 363 60.5 Q411 82 442 121 Q473 160 488 213.5 Q503 267 503 332 Q503 396 488 449 Q473 502 442 540 Q411 578 363 599 Q315 620 249 620 L148 620 L148 365 L312 365 L312 332 L148 332 L148 39 L249 39 Z " />
<glyph glyph-name="Egrave" unicode="&#xc8;" horiz-adv-x="600" d="M127 659 L517 659 L517 619 L173 619 L173 370 L463 370 L463 330 L173 330 L173 40 L527 40 L527 0 L127 0 L127 659 Z M223 815 L281 815 L373 709 L333 709 L223 815 Z " />
<glyph glyph-name="Eacute" unicode="&#xc9;" horiz-adv-x="600" d="M127 659 L517 659 L517 619 L173 619 L173 370 L463 370 L463 330 L173 330 L173 40 L527 40 L527 0 L127 0 L127 659 Z M339 709 L299 709 L391 815 L449 815 L339 709 Z " />
<glyph glyph-name="Ecircumflex" unicode="&#xca;" horiz-adv-x="600" d="M127 659 L517 659 L517 619 L173 619 L173 370 L463 370 L463 330 L173 330 L173 40 L527 40 L527 0 L127 0 L127 659 Z M219 709 L315 815 L357 815 L453 709 L413 709 L338 781 L334 781 L259 709 L219 709 Z " />
<glyph glyph-name="Ecaron" unicode="&#x11a;" horiz-adv-x="600" d="M127 659 L517 659 L517 619 L173 619 L173 370 L463 370 L463 330 L173 330 L173 40 L527 40 L527 0 L127 0 L127 659 Z M453 815 L357 709 L315 709 L219 815 L259 815 L334 743 L338 743 L413 815 L453 815 Z " />
<glyph glyph-name="Edieresis" unicode="&#xcb;" horiz-adv-x="600" d="M127 659 L517 659 L517 619 L173 619 L173 370 L463 370 L463 330 L173 330 L173 40 L527 40 L527 0 L127 0 L127 659 Z M257 725 Q241 725 231 734.5 Q221 744 221 761 Q221 778 231 788 Q241 798 257 798 Q273 798 283.5 788 Q294 778 294 761 Q294 744 283.5 734.5 Q273 725 257 725 Z M415 725 Q399 725 388.5 734.5 Q378 744 378 761 Q378 778 388.5 788 Q399 798 415 798 Q431 798 441 788 Q451 778 451 761 Q451 744 441 734.5 Q431 725 415 725 Z " />
<glyph glyph-name="Emacron" unicode="&#x112;" horiz-adv-x="600" d="M127 659 L517 659 L517 619 L173 619 L173 370 L463 370 L463 330 L173 330 L173 40 L527 40 L527 0 L127 0 L127 659 Z M222 770 L450 770 L450 734 L222 734 L222 770 Z " />
<glyph glyph-name="Ebreve" unicode="&#x114;" horiz-adv-x="600" d="M127 659 L517 659 L517 619 L173 619 L173 370 L463 370 L463 330 L173 330 L173 40 L527 40 L527 0 L127 0 L127 659 Z M336 711 Q307 711 286.5 721 Q266 731 252 746 Q238 761 230.5 779.5 Q223 798 221 815 L254 815 Q258 789 277.5 766 Q297 743 336 743 Q355 743 369.5 749.5 Q384 756 394 766 Q404 776 410 789 Q416 802 418 815 L451 815 Q449 798 441.5 779.5 Q434 761 420 746 Q406 731 385 721 Q364 711 336 711 Z " />
<glyph glyph-name="Edotaccent" unicode="&#x116;" horiz-adv-x="600" d="M127 659 L517 659 L517 619 L173 619 L173 370 L463 370 L463 330 L173 330 L173 40 L527 40 L527 0 L127 0 L127 659 Z M336 721 Q319 721 307.5 732 Q296 743 296 762 Q296 779 307.5 790 Q319 801 336 801 Q353 801 364.5 790 Q376 779 376 762 Q376 743 364.5 732 Q353 721 336 721 Z " />
<glyph glyph-name="uni1EB8" unicode="&#x1eb8;" horiz-adv-x="600" d="M127 659 L517 659 L517 619 L173 619 L173 370 L463 370 L463 330 L173 330 L173 40 L527 40 L527 0 L127 0 L127 659 Z M339 -210 Q319 -210 305.5 -197.5 Q292 -185 292 -162 Q292 -140 305.5 -127 Q319 -114 339 -114 Q359 -114 372.5 -127 Q386 -140 386 -162 Q386 -185 372.5 -197.5 Q359 -210 339 -210 Z " />
<glyph glyph-name="uni1EBA" unicode="&#x1eba;" horiz-adv-x="600" d="M127 659 L517 659 L517 619 L173 619 L173 370 L463 370 L463 330 L173 330 L173 40 L527 40 L527 0 L127 0 L127 659 Z M304 729 Q331 737 349 749.5 Q367 762 367 783 Q367 828 282 831 L286 863 Q311 862 333 857.5 Q355 853 371.5 844 Q388 835 397.5 821.5 Q407 808 407 789 Q407 769 399 755 Q391 741 377.5 731 Q364 721 347 714 Q330 707 312 702 L304 729 Z " />
<glyph glyph-name="uni1EBC" unicode="&#x1ebc;" horiz-adv-x="600" d="M127 659 L517 659 L517 619 L173 619 L173 370 L463 370 L463 330 L173 330 L173 40 L527 40 L527 0 L127 0 L127 659 Z M395 716 Q375 716 359.5 725 Q344 734 330.5 744.5 Q317 755 304 764 Q291 773 276 773 Q260 773 249 757.5 Q238 742 235 716 L206 716 Q207 733 212 749.5 Q217 766 226 779 Q235 792 247.5 800 Q260 808 277 808 Q297 808 312 799 Q327 790 340.5 779.5 Q354 769 367.5 760.5 Q381 752 396 752 Q412 752 423 767 Q434 782 437 808 L466 808 Q465 791 460 775 Q455 759 446 745.5 Q437 732 424.5 724 Q412 716 395 716 Z " />
<glyph glyph-name="uni1EBE" unicode="&#x1ebe;" horiz-adv-x="600" d="M127 659 L517 659 L517 619 L173 619 L173 370 L463 370 L463 330 L173 330 L173 40 L527 40 L527 0 L127 0 L127 659 Z M486 876 L534 876 L448 770 L415 770 L486 876 Z M316 809 L356 809 L447 709 L408 709 L338 775 L334 775 L264 709 L225 709 L316 809 Z " />
<glyph glyph-name="uni1EC0" unicode="&#x1ec0;" horiz-adv-x="600" d="M127 659 L517 659 L517 619 L173 619 L173 370 L463 370 L463 330 L173 330 L173 40 L527 40 L527 0 L127 0 L127 659 Z M488 770 L455 770 L369 876 L416 876 L488 770 Z M316 809 L356 809 L447 709 L408 709 L338 775 L334 775 L264 709 L225 709 L316 809 Z " />
<glyph glyph-name="uni1EC2" unicode="&#x1ec2;" horiz-adv-x="600" d="M127 659 L517 659 L517 619 L173 619 L173 370 L463 370 L463 330 L173 330 L173 40 L527 40 L527 0 L127 0 L127 659 Z M428 784 Q449 789 464 799 Q479 809 479 826 Q479 849 460.5 857.5 Q442 866 406 868 L411 899 Q456 897 486.5 881.5 Q517 866 517 831 Q517 814 510 801.5 Q503 789 491.5 780 Q480 771 466 765.5 Q452 760 438 757 L428 784 Z M316 809 L356 809 L447 709 L408 709 L338 775 L334 775 L264 709 L225 709 L316 809 Z " />
<glyph glyph-name="uni1EC4" unicode="&#x1ec4;" horiz-adv-x="600" d="M127 659 L517 659 L517 619 L173 619 L173 370 L463 370 L463 330 L173 330 L173 40 L527 40 L527 0 L127 0 L127 659 Z M316 809 L356 809 L447 709 L408 709 L338 775 L334 775 L264 709 L225 709 L316 809 Z M214 845 Q216 874 233 898 Q250 922 285 922 Q303 922 316.5 915 Q330 908 341.5 899.5 Q353 891 364 884 Q375 877 388 877 Q404 877 415 888 Q426 899 429 922 L458 922 Q456 893 439 869 Q422 845 387 845 Q369 845 355.5 852 Q342 859 330.5 867.5 Q319 876 308 883 Q297 890 284 890 Q268 890 257 879 Q246 868 243 845 L214 845 Z " />
<glyph glyph-name="uni1EC6" unicode="&#x1ec6;" horiz-adv-x="600" d="M127 659 L517 659 L517 619 L173 619 L173 370 L463 370 L463 330 L173 330 L173 40 L527 40 L527 0 L127 0 L127 659 Z M219 709 L315 815 L357 815 L453 709 L413 709 L338 781 L334 781 L259 709 L219 709 Z M339 -210 Q319 -210 305.5 -197.5 Q292 -185 292 -162 Q292 -140 305.5 -127 Q319 -114 339 -114 Q359 -114 372.5 -127 Q386 -140 386 -162 Q386 -185 372.5 -197.5 Q359 -210 339 -210 Z " />
<glyph glyph-name="Eogonek" unicode="&#x118;" horiz-adv-x="600" d="M127 659 L517 659 L517 619 L173 619 L173 370 L463 370 L463 330 L173 330 L173 40 L527 40 L527 0 L525 0 Q508 -3 491 -13.5 Q474 -24 460.5 -39.5 Q447 -55 438.5 -74.5 Q430 -94 430 -116 Q430 -142 445.5 -155 Q461 -168 481 -168 Q504 -168 524 -154 L540 -181 Q529 -191 510 -198 Q491 -205 475 -205 Q440 -205 415 -185 Q390 -165 390 -123 Q390 -84 412 -51.5 Q434 -19 463 0 L127 0 L127 659 Z " />
<glyph glyph-name="Gcircumflex" unicode="&#x11c;" horiz-adv-x="600" d="M59 331 Q59 409 79.5 472 Q100 535 137.5 579.5 Q175 624 227 647.5 Q279 671 343 671 Q376 671 402.5 664 Q429 657 450.5 645.5 Q472 634 488.5 620 Q505 606 518 592 L491 562 Q466 590 431 609.5 Q396 629 343 629 Q289 629 245 608 Q201 587 170.5 548.5 Q140 510 123.5 455 Q107 400 107 331 Q107 262 122.5 206.5 Q138 151 168 112 Q198 73 240.5 51.5 Q283 30 337 30 Q381 30 419 43 Q457 56 480 80 L480 285 L328 285 L328 324 L525 324 L525 63 Q495 30 446.5 9 Q398 -12 334 -12 Q272 -12 221.5 12 Q171 36 135 80.5 Q99 125 79 188.5 Q59 252 59 331 Z M215 709 L311 815 L353 815 L449 709 L409 709 L334 781 L330 781 L255 709 L215 709 Z " />
<glyph glyph-name="Gbreve" unicode="&#x11e;" horiz-adv-x="600" d="M59 331 Q59 409 79.5 472 Q100 535 137.5 579.5 Q175 624 227 647.5 Q279 671 343 671 Q376 671 402.5 664 Q429 657 450.5 645.5 Q472 634 488.5 620 Q505 606 518 592 L491 562 Q466 590 431 609.5 Q396 629 343 629 Q289 629 245 608 Q201 587 170.5 548.5 Q140 510 123.5 455 Q107 400 107 331 Q107 262 122.5 206.5 Q138 151 168 112 Q198 73 240.5 51.5 Q283 30 337 30 Q381 30 419 43 Q457 56 480 80 L480 285 L328 285 L328 324 L525 324 L525 63 Q495 30 446.5 9 Q398 -12 334 -12 Q272 -12 221.5 12 Q171 36 135 80.5 Q99 125 79 188.5 Q59 252 59 331 Z M332 711 Q303 711 282.5 721 Q262 731 248 746 Q234 761 226.5 779.5 Q219 798 217 815 L250 815 Q254 789 273.5 766 Q293 743 332 743 Q351 743 365.5 749.5 Q380 756 390 766 Q400 776 406 789 Q412 802 414 815 L447 815 Q445 798 437.5 779.5 Q430 761 416 746 Q402 731 381 721 Q360 711 332 711 Z " />
<glyph glyph-name="Gdotaccent" unicode="&#x120;" horiz-adv-x="600" d="M59 331 Q59 409 79.5 472 Q100 535 137.5 579.5 Q175 624 227 647.5 Q279 671 343 671 Q376 671 402.5 664 Q429 657 450.5 645.5 Q472 634 488.5 620 Q505 606 518 592 L491 562 Q466 590 431 609.5 Q396 629 343 629 Q289 629 245 608 Q201 587 170.5 548.5 Q140 510 123.5 455 Q107 400 107 331 Q107 262 122.5 206.5 Q138 151 168 112 Q198 73 240.5 51.5 Q283 30 337 30 Q381 30 419 43 Q457 56 480 80 L480 285 L328 285 L328 324 L525 324 L525 63 Q495 30 446.5 9 Q398 -12 334 -12 Q272 -12 221.5 12 Q171 36 135 80.5 Q99 125 79 188.5 Q59 252 59 331 Z M332 721 Q315 721 303.5 732 Q292 743 292 762 Q292 779 303.5 790 Q315 801 332 801 Q349 801 360.5 790 Q372 779 372 762 Q372 743 360.5 732 Q349 721 332 721 Z " />
<glyph glyph-name="uni0122" unicode="&#x122;" horiz-adv-x="600" d="M59 331 Q59 409 79.5 472 Q100 535 137.5 579.5 Q175 624 227 647.5 Q279 671 343 671 Q376 671 402.5 664 Q429 657 450.5 645.5 Q472 634 488.5 620 Q505 606 518 592 L491 562 Q466 590 431 609.5 Q396 629 343 629 Q289 629 245 608 Q201 587 170.5 548.5 Q140 510 123.5 455 Q107 400 107 331 Q107 262 122.5 206.5 Q138 151 168 112 Q198 73 240.5 51.5 Q283 30 337 30 Q381 30 419 43 Q457 56 480 80 L480 285 L328 285 L328 324 L525 324 L525 63 Q495 30 446.5 9 Q398 -12 334 -12 Q272 -12 221.5 12 Q171 36 135 80.5 Q99 125 79 188.5 Q59 252 59 331 Z M311 -51 Q352 -59 373 -76 Q394 -93 394 -124 Q394 -144 383.5 -158.5 Q373 -173 355.5 -183 Q338 -193 315.5 -199.5 Q293 -206 269 -209 L262 -179 Q304 -173 329.5 -161 Q355 -149 355 -129 Q355 -106 337.5 -95.5 Q320 -85 298 -80 L311 -51 L311 -51 Z " />
<glyph glyph-name="Gcaron" unicode="&#x1e6;" horiz-adv-x="600" d="M59 331 Q59 409 79.5 472 Q100 535 137.5 579.5 Q175 624 227 647.5 Q279 671 343 671 Q376 671 402.5 664 Q429 657 450.5 645.5 Q472 634 488.5 620 Q505 606 518 592 L491 562 Q466 590 431 609.5 Q396 629 343 629 Q289 629 245 608 Q201 587 170.5 548.5 Q140 510 123.5 455 Q107 400 107 331 Q107 262 122.5 206.5 Q138 151 168 112 Q198 73 240.5 51.5 Q283 30 337 30 Q381 30 419 43 Q457 56 480 80 L480 285 L328 285 L328 324 L525 324 L525 63 Q495 30 446.5 9 Q398 -12 334 -12 Q272 -12 221.5 12 Q171 36 135 80.5 Q99 125 79 188.5 Q59 252 59 331 Z M449 815 L353 709 L311 709 L215 815 L255 815 L330 743 L334 743 L409 815 L449 815 Z " />
<glyph glyph-name="uni1E20" unicode="&#x1e20;" horiz-adv-x="600" d="M59 331 Q59 409 79.5 472 Q100 535 137.5 579.5 Q175 624 227 647.5 Q279 671 343 671 Q376 671 402.5 664 Q429 657 450.5 645.5 Q472 634 488.5 620 Q505 606 518 592 L491 562 Q466 590 431 609.5 Q396 629 343 629 Q289 629 245 608 Q201 587 170.5 548.5 Q140 510 123.5 455 Q107 400 107 331 Q107 262 122.5 206.5 Q138 151 168 112 Q198 73 240.5 51.5 Q283 30 337 30 Q381 30 419 43 Q457 56 480 80 L480 285 L328 285 L328 324 L525 324 L525 63 Q495 30 446.5 9 Q398 -12 334 -12 Q272 -12 221.5 12 Q171 36 135 80.5 Q99 125 79 188.5 Q59 252 59 331 Z M218 770 L446 770 L446 734 L218 734 L218 770 Z " />
<glyph glyph-name="Hcircumflex" unicode="&#x124;" horiz-adv-x="600" d="M89 659 L135 659 L135 370 L465 370 L465 659 L511 659 L511 0 L465 0 L465 330 L135 330 L135 0 L89 0 L89 659 Z M183 709 L279 815 L321 815 L417 709 L377 709 L302 781 L298 781 L223 709 L183 709 Z " />
<glyph glyph-name="uni1E24" unicode="&#x1e24;" horiz-adv-x="600" d="M89 659 L135 659 L135 370 L465 370 L465 659 L511 659 L511 0 L465 0 L465 330 L135 330 L135 0 L89 0 L89 659 Z M300 -210 Q280 -210 266.5 -197.5 Q253 -185 253 -162 Q253 -140 266.5 -127 Q280 -114 300 -114 Q320 -114 333.5 -127 Q347 -140 347 -162 Q347 -185 333.5 -197.5 Q320 -210 300 -210 Z " />
<glyph glyph-name="uni1E2A" unicode="&#x1e2a;" horiz-adv-x="600" d="M89 659 L135 659 L135 370 L465 370 L465 659 L511 659 L511 0 L465 0 L465 330 L135 330 L135 0 L89 0 L89 659 Z M300 -203 Q269 -203 247.5 -191.5 Q226 -180 212 -162.5 Q198 -145 190.5 -124 Q183 -103 181 -84 L214 -84 Q216 -100 222.5 -115.5 Q229 -131 239.5 -143 Q250 -155 265 -162.5 Q280 -170 300 -170 Q320 -170 335 -162.5 Q350 -155 360.5 -143 Q371 -131 377.5 -115.5 Q384 -100 386 -84 L419 -84 Q417 -103 409.5 -124 Q402 -145 388 -162.5 Q374 -180 352.5 -191.5 Q331 -203 300 -203 Z " />
<glyph glyph-name="Hbar" unicode="&#x126;" horiz-adv-x="600" d="M465 495 L135 495 L135 370 L465 370 L465 495 Z M586 495 L511 495 L511 0 L465 0 L465 330 L135 330 L135 0 L89 0 L89 495 L14 495 L14 524 L89 528 L89 659 L135 659 L135 528 L465 528 L465 659 L511 659 L511 528 L586 528 L586 495 Z " />
<glyph glyph-name="Igrave" unicode="&#xcc;" horiz-adv-x="600" d="M107 40 L277 40 L277 619 L107 619 L107 659 L493 659 L493 619 L323 619 L323 40 L493 40 L493 0 L107 0 L107 40 Z M187 815 L245 815 L337 709 L297 709 L187 815 Z " />
<glyph glyph-name="Iacute" unicode="&#xcd;" horiz-adv-x="600" d="M107 40 L277 40 L277 619 L107 619 L107 659 L493 659 L493 619 L323 619 L323 40 L493 40 L493 0 L107 0 L107 40 Z M303 709 L263 709 L355 815 L413 815 L303 709 Z " />
<glyph glyph-name="Icircumflex" unicode="&#xce;" horiz-adv-x="600" d="M107 40 L277 40 L277 619 L107 619 L107 659 L493 659 L493 619 L323 619 L323 40 L493 40 L493 0 L107 0 L107 40 Z M183 709 L279 815 L321 815 L417 709 L377 709 L302 781 L298 781 L223 709 L183 709 Z " />
<glyph glyph-name="Itilde" unicode="&#x128;" horiz-adv-x="600" d="M107 40 L277 40 L277 619 L107 619 L107 659 L493 659 L493 619 L323 619 L323 40 L493 40 L493 0 L107 0 L107 40 Z M359 716 Q339 716 323.5 725 Q308 734 294.5 744.5 Q281 755 268 764 Q255 773 240 773 Q224 773 213 757.5 Q202 742 199 716 L170 716 Q171 733 176 749.5 Q181 766 190 779 Q199 792 211.5 800 Q224 808 241 808 Q261 808 276 799 Q291 790 304.5 779.5 Q318 769 331.5 760.5 Q345 752 360 752 Q376 752 387 767 Q398 782 401 808 L430 808 Q429 791 424 775 Q419 759 410 745.5 Q401 732 388.5 724 Q376 716 359 716 Z " />
<glyph glyph-name="Idieresis" unicode="&#xcf;" horiz-adv-x="600" d="M107 40 L277 40 L277 619 L107 619 L107 659 L493 659 L493 619 L323 619 L323 40 L493 40 L493 0 L107 0 L107 40 Z M221 725 Q205 725 195 734.5 Q185 744 185 761 Q185 778 195 788 Q205 798 221 798 Q237 798 247.5 788 Q258 778 258 761 Q258 744 247.5 734.5 Q237 725 221 725 Z M379 725 Q363 725 352.5 734.5 Q342 744 342 761 Q342 778 352.5 788 Q363 798 379 798 Q395 798 405 788 Q415 778 415 761 Q415 744 405 734.5 Q395 725 379 725 Z " />
<glyph glyph-name="Imacron" unicode="&#x12a;" horiz-adv-x="600" d="M107 40 L277 40 L277 619 L107 619 L107 659 L493 659 L493 619 L323 619 L323 40 L493 40 L493 0 L107 0 L107 40 Z M186 770 L414 770 L414 734 L186 734 L186 770 Z " />
<glyph glyph-name="uni012C" unicode="&#x12c;" horiz-adv-x="600" d="M107 40 L277 40 L277 619 L107 619 L107 659 L493 659 L493 619 L323 619 L323 40 L493 40 L493 0 L107 0 L107 40 Z M300 711 Q271 711 250.5 721 Q230 731 216 746 Q202 761 194.5 779.5 Q187 798 185 815 L218 815 Q222 789 241.5 766 Q261 743 300 743 Q319 743 333.5 749.5 Q348 756 358 766 Q368 776 374 789 Q380 802 382 815 L415 815 Q413 798 405.5 779.5 Q398 761 384 746 Q370 731 349 721 Q328 711 300 711 Z " />
<glyph glyph-name="Idot" unicode="&#x130;" horiz-adv-x="600" d="M107 40 L277 40 L277 619 L107 619 L107 659 L493 659 L493 619 L323 619 L323 40 L493 40 L493 0 L107 0 L107 40 Z M300 721 Q283 721 271.5 732 Q260 743 260 762 Q260 779 271.5 790 Q283 801 300 801 Q317 801 328.5 790 Q340 779 340 762 Q340 743 328.5 732 Q317 721 300 721 Z " />
<glyph glyph-name="uni01CF" unicode="&#x1cf;" horiz-adv-x="600" d="M107 40 L277 40 L277 619 L107 619 L107 659 L493 659 L493 619 L323 619 L323 40 L493 40 L493 0 L107 0 L107 40 Z M417 815 L321 709 L279 709 L183 815 L223 815 L298 743 L302 743 L377 815 L417 815 Z " />
<glyph glyph-name="uni1EC8" unicode="&#x1ec8;" horiz-adv-x="600" d="M107 40 L277 40 L277 619 L107 619 L107 659 L493 659 L493 619 L323 619 L323 40 L493 40 L493 0 L107 0 L107 40 Z M268 729 Q295 737 313 749.5 Q331 762 331 783 Q331 828 246 831 L250 863 Q275 862 297 857.5 Q319 853 335.5 844 Q352 835 361.5 821.5 Q371 808 371 789 Q371 769 363 755 Q355 741 341.5 731 Q328 721 311 714 Q294 707 276 702 L268 729 Z " />
<glyph glyph-name="uni1ECA" unicode="&#x1eca;" horiz-adv-x="600" d="M107 40 L277 40 L277 619 L107 619 L107 659 L493 659 L493 619 L323 619 L323 40 L493 40 L493 0 L107 0 L107 40 Z M301 -210 Q281 -210 267.5 -197.5 Q254 -185 254 -162 Q254 -140 267.5 -127 Q281 -114 301 -114 Q321 -114 334.5 -127 Q348 -140 348 -162 Q348 -185 334.5 -197.5 Q321 -210 301 -210 Z " />
<glyph glyph-name="Iogonek" unicode="&#x12e;" horiz-adv-x="600" d="M107 40 L277 40 L277 619 L107 619 L107 659 L493 659 L493 619 L323 619 L323 40 L493 40 L493 0 L323 0 Q297 -29 280 -56 Q263 -83 263 -116 Q263 -142 278.5 -155 Q294 -168 314 -168 Q337 -168 357 -154 L373 -181 Q362 -191 343.5 -198 Q325 -205 308 -205 Q273 -205 248.5 -185 Q224 -165 224 -123 Q224 -82 242 -54 Q260 -26 285 0 L107 0 L107 40 Z " />
<glyph glyph-name="Jcircumflex" unicode="&#x134;" horiz-adv-x="600" d="M130 124 Q159 75 197.5 52 Q236 29 278 29 Q360 29 397 73 Q434 117 434 208 L434 621 L147 621 L147 660 L480 660 L480 204 Q480 159 470 119.5 Q460 80 436 51 Q412 22 373 5 Q334 -12 277 -12 Q221 -12 171.5 15 Q122 42 93 98 L130 124 Z M203 709 L299 815 L341 815 L437 709 L397 709 L322 781 L318 781 L243 709 L203 709 Z " />
<glyph glyph-name="uni0136" unicode="&#x136;" horiz-adv-x="600" d="M115 659 L162 659 L162 293 L164 293 L489 659 L543 659 L330 415 L571 0 L518 0 L298 380 L162 227 L162 0 L115 0 L115 659 Z M321 -51 Q362 -59 383 -76 Q404 -93 404 -124 Q404 -144 393.5 -158.5 Q383 -173 365.5 -183 Q348 -193 325.5 -199.5 Q303 -206 279 -209 L272 -179 Q314 -173 339.5 -161 Q365 -149 365 -129 Q365 -106 347.5 -95.5 Q330 -85 308 -80 L321 -51 L321 -51 Z " />
<glyph glyph-name="Lacute" unicode="&#x139;" horiz-adv-x="600" d="M150 659 L194 659 L194 40 L539 40 L539 0 L150 0 L150 659 Z M191 709 L151 709 L243 815 L301 815 L191 709 Z " />
<glyph glyph-name="Lcaron" unicode="&#x13d;" horiz-adv-x="600" d="M150 659 L194 659 L194 40 L539 40 L539 0 L150 0 L150 659 Z M391 518 L389 724 L427 724 L427 674 L418 518 L391 518 Z " />
<glyph glyph-name="uni013B" unicode="&#x13b;" horiz-adv-x="600" d="M150 659 L194 659 L194 40 L539 40 L539 0 L150 0 L150 659 Z M330 -51 Q371 -59 392 -76 Q413 -93 413 -124 Q413 -144 402.5 -158.5 Q392 -173 374.5 -183 Q357 -193 334.5 -199.5 Q312 -206 288 -209 L281 -179 Q323 -173 348.5 -161 Q374 -149 374 -129 Q374 -106 356.5 -95.5 Q339 -85 317 -80 L330 -51 L330 -51 Z " />
<glyph glyph-name="Ldot" unicode="&#x13f;" horiz-adv-x="600" d="M150 659 L194 659 L194 40 L539 40 L539 0 L150 0 L150 659 Z M417 296 Q397 296 383.5 309 Q370 322 370 344 Q370 366 383.5 379 Q397 392 417 392 Q437 392 450.5 379 Q464 366 464 344 Q464 322 450.5 309 Q437 296 417 296 Z " />
<glyph glyph-name="uni1E36" unicode="&#x1e36;" horiz-adv-x="600" d="M150 659 L194 659 L194 40 L539 40 L539 0 L150 0 L150 659 Z M355 -210 Q335 -210 321.5 -197.5 Q308 -185 308 -162 Q308 -140 321.5 -127 Q335 -114 355 -114 Q375 -114 388.5 -127 Q402 -140 402 -162 Q402 -185 388.5 -197.5 Q375 -210 355 -210 Z " />
<glyph glyph-name="uni1E38" unicode="&#x1e38;" horiz-adv-x="600" d="M150 659 L194 659 L194 40 L539 40 L539 0 L150 0 L150 659 Z M74 770 L302 770 L302 734 L74 734 L74 770 Z M355 -210 Q335 -210 321.5 -197.5 Q308 -185 308 -162 Q308 -140 321.5 -127 Q335 -114 355 -114 Q375 -114 388.5 -127 Q402 -140 402 -162 Q402 -185 388.5 -197.5 Q375 -210 355 -210 Z " />
<glyph glyph-name="uni1E3A" unicode="&#x1e3a;" horiz-adv-x="600" d="M150 659 L194 659 L194 40 L539 40 L539 0 L150 0 L150 659 Z M468 -160 L240 -160 L240 -124 L468 -124 L468 -160 Z " />
<glyph glyph-name="Lslash" unicode="&#x141;" horiz-adv-x="600" d="M539 40 L539 0 L150 0 L150 245 L65 200 L65 240 L150 285 L150 659 L194 659 L194 306 L431 429 L431 389 L194 266 L194 40 L539 40 Z " />
<glyph glyph-name="uni1E42" unicode="&#x1e42;" horiz-adv-x="600" d="M91 659 L150 659 L260 352 L299 235 L303 235 L341 352 L450 659 L509 659 L509 0 L466 0 L466 461 Q466 494 467.5 534.5 Q469 575 471 609 L468 609 L430 491 L316 180 L284 180 L169 491 L129 609 L127 609 Q129 575 131 534.5 Q133 494 133 461 L133 0 L91 0 L91 659 Z M300 -210 Q280 -210 266.5 -197.5 Q253 -185 253 -162 Q253 -140 266.5 -127 Q280 -114 300 -114 Q320 -114 333.5 -127 Q347 -140 347 -162 Q347 -185 333.5 -197.5 Q320 -210 300 -210 Z " />
<glyph glyph-name="Nacute" unicode="&#x143;" horiz-adv-x="600" d="M92 659 L140 659 L397 193 L468 63 L470 63 Q468 111 466 158.5 Q464 206 464 254 L464 659 L508 659 L508 0 L460 0 L203 466 L132 596 L130 596 Q132 548 134 502 Q136 456 136 408 L136 0 L92 0 L92 659 Z M309 709 L269 709 L361 815 L419 815 L309 709 Z " />
<glyph glyph-name="Ncaron" unicode="&#x147;" horiz-adv-x="600" d="M92 659 L140 659 L397 193 L468 63 L470 63 Q468 111 466 158.5 Q464 206 464 254 L464 659 L508 659 L508 0 L460 0 L203 466 L132 596 L130 596 Q132 548 134 502 Q136 456 136 408 L136 0 L92 0 L92 659 Z M423 815 L327 709 L285 709 L189 815 L229 815 L304 743 L308 743 L383 815 L423 815 Z " />
<glyph glyph-name="Ntilde" unicode="&#xd1;" horiz-adv-x="600" d="M92 659 L140 659 L397 193 L468 63 L470 63 Q468 111 466 158.5 Q464 206 464 254 L464 659 L508 659 L508 0 L460 0 L203 466 L132 596 L130 596 Q132 548 134 502 Q136 456 136 408 L136 0 L92 0 L92 659 Z M365 716 Q345 716 329.5 725 Q314 734 300.5 744.5 Q287 755 274 764 Q261 773 246 773 Q230 773 219 757.5 Q208 742 205 716 L176 716 Q177 733 182 749.5 Q187 766 196 779 Q205 792 217.5 800 Q230 808 247 808 Q267 808 282 799 Q297 790 310.5 779.5 Q324 769 337.5 760.5 Q351 752 366 752 Q382 752 393 767 Q404 782 407 808 L436 808 Q435 791 430 775 Q425 759 416 745.5 Q407 732 394.5 724 Q382 716 365 716 Z " />
<glyph glyph-name="uni0145" unicode="&#x145;" horiz-adv-x="600" d="M92 659 L140 659 L397 193 L468 63 L470 63 Q468 111 466 158.5 Q464 206 464 254 L464 659 L508 659 L508 0 L460 0 L203 466 L132 596 L130 596 Q132 548 134 502 Q136 456 136 408 L136 0 L92 0 L92 659 Z M275 -51 Q316 -59 337 -76 Q358 -93 358 -124 Q358 -144 347.5 -158.5 Q337 -173 319.5 -183 Q302 -193 279.5 -199.5 Q257 -206 233 -209 L226 -179 Q268 -173 293.5 -161 Q319 -149 319 -129 Q319 -106 301.5 -95.5 Q284 -85 262 -80 L275 -51 L275 -51 Z " />
<glyph glyph-name="uni1E44" unicode="&#x1e44;" horiz-adv-x="600" d="M92 659 L140 659 L397 193 L468 63 L470 63 Q468 111 466 158.5 Q464 206 464 254 L464 659 L508 659 L508 0 L460 0 L203 466 L132 596 L130 596 Q132 548 134 502 Q136 456 136 408 L136 0 L92 0 L92 659 Z M306 721 Q289 721 277.5 732 Q266 743 266 762 Q266 779 277.5 790 Q289 801 306 801 Q323 801 334.5 790 Q346 779 346 762 Q346 743 334.5 732 Q323 721 306 721 Z " />
<glyph glyph-name="uni1E46" unicode="&#x1e46;" horiz-adv-x="600" d="M92 659 L140 659 L397 193 L468 63 L470 63 Q468 111 466 158.5 Q464 206 464 254 L464 659 L508 659 L508 0 L460 0 L203 466 L132 596 L130 596 Q132 548 134 502 Q136 456 136 408 L136 0 L92 0 L92 659 Z M300 -210 Q280 -210 266.5 -197.5 Q253 -185 253 -162 Q253 -140 266.5 -127 Q280 -114 300 -114 Q320 -114 333.5 -127 Q347 -140 347 -162 Q347 -185 333.5 -197.5 Q320 -210 300 -210 Z " />
<glyph glyph-name="uni1E48" unicode="&#x1e48;" horiz-adv-x="600" d="M92 659 L140 659 L397 193 L468 63 L470 63 Q468 111 466 158.5 Q464 206 464 254 L464 659 L508 659 L508 0 L460 0 L203 466 L132 596 L130 596 Q132 548 134 502 Q136 456 136 408 L136 0 L92 0 L92 659 Z M413 -160 L185 -160 L185 -124 L413 -124 L413 -160 Z " />
<glyph glyph-name="Ograve" unicode="&#xd2;" horiz-adv-x="600" d="M300 -12 Q246 -12 201 12.5 Q156 37 123 82 Q90 127 72 190.5 Q54 254 54 332 Q54 410 72 472.5 Q90 535 123 579.5 Q156 624 201 647.5 Q246 671 300 671 Q354 671 399 647.5 Q444 624 477 579.5 Q510 535 528 472.5 Q546 410 546 332 Q546 254 528 190.5 Q510 127 477 82 Q444 37 399 12.5 Q354 -12 300 -12 Z M300 30 Q344 30 380.5 51.5 Q417 73 443 112.5 Q469 152 483.5 207.5 Q498 263 498 332 Q498 400 483.5 455 Q469 510 443 548.5 Q417 587 380.5 608 Q344 629 300 629 Q256 629 219.5 608 Q183 587 157 548.5 Q131 510 116.5 455 Q102 400 102 332 Q102 263 116.5 207.5 Q131 152 157 112.5 Q183 73 219.5 51.5 Q256 30 300 30 Z M187 815 L245 815 L337 709 L297 709 L187 815 Z " />
<glyph glyph-name="Oacute" unicode="&#xd3;" horiz-adv-x="600" d="M300 -12 Q246 -12 201 12.5 Q156 37 123 82 Q90 127 72 190.5 Q54 254 54 332 Q54 410 72 472.5 Q90 535 123 579.5 Q156 624 201 647.5 Q246 671 300 671 Q354 671 399 647.5 Q444 624 477 579.5 Q510 535 528 472.5 Q546 410 546 332 Q546 254 528 190.5 Q510 127 477 82 Q444 37 399 12.5 Q354 -12 300 -12 Z M300 30 Q344 30 380.5 51.5 Q417 73 443 112.5 Q469 152 483.5 207.5 Q498 263 498 332 Q498 400 483.5 455 Q469 510 443 548.5 Q417 587 380.5 608 Q344 629 300 629 Q256 629 219.5 608 Q183 587 157 548.5 Q131 510 116.5 455 Q102 400 102 332 Q102 263 116.5 207.5 Q131 152 157 112.5 Q183 73 219.5 51.5 Q256 30 300 30 Z M303 709 L263 709 L355 815 L413 815 L303 709 Z " />
<glyph glyph-name="Ocircumflex" unicode="&#xd4;" horiz-adv-x="600" d="M300 -12 Q246 -12 201 12.5 Q156 37 123 82 Q90 127 72 190.5 Q54 254 54 332 Q54 410 72 472.5 Q90 535 123 579.5 Q156 624 201 647.5 Q246 671 300 671 Q354 671 399 647.5 Q444 624 477 579.5 Q510 535 528 472.5 Q546 410 546 332 Q546 254 528 190.5 Q510 127 477 82 Q444 37 399 12.5 Q354 -12 300 -12 Z M300 30 Q344 30 380.5 51.5 Q417 73 443 112.5 Q469 152 483.5 207.5 Q498 263 498 332 Q498 400 483.5 455 Q469 510 443 548.5 Q417 587 380.5 608 Q344 629 300 629 Q256 629 219.5 608 Q183 587 157 548.5 Q131 510 116.5 455 Q102 400 102 332 Q102 263 116.5 207.5 Q131 152 157 112.5 Q183 73 219.5 51.5 Q256 30 300 30 Z M183 709 L279 815 L321 815 L417 709 L377 709 L302 781 L298 781 L223 709 L183 709 Z " />
<glyph glyph-name="Otilde" unicode="&#xd5;" horiz-adv-x="600" d="M300 -12 Q246 -12 201 12.5 Q156 37 123 82 Q90 127 72 190.5 Q54 254 54 332 Q54 410 72 472.5 Q90 535 123 579.5 Q156 624 201 647.5 Q246 671 300 671 Q354 671 399 647.5 Q444 624 477 579.5 Q510 535 528 472.5 Q546 410 546 332 Q546 254 528 190.5 Q510 127 477 82 Q444 37 399 12.5 Q354 -12 300 -12 Z M300 30 Q344 30 380.5 51.5 Q417 73 443 112.5 Q469 152 483.5 207.5 Q498 263 498 332 Q498 400 483.5 455 Q469 510 443 548.5 Q417 587 380.5 608 Q344 629 300 629 Q256 629 219.5 608 Q183 587 157 548.5 Q131 510 116.5 455 Q102 400 102 332 Q102 263 116.5 207.5 Q131 152 157 112.5 Q183 73 219.5 51.5 Q256 30 300 30 Z M359 716 Q339 716 323.5 725 Q308 734 294.5 744.5 Q281 755 268 764 Q255 773 240 773 Q224 773 213 757.5 Q202 742 199 716 L170 716 Q171 733 176 749.5 Q181 766 190 779 Q199 792 211.5 800 Q224 808 241 808 Q261 808 276 799 Q291 790 304.5 779.5 Q318 769 331.5 760.5 Q345 752 360 752 Q376 752 387 767 Q398 782 401 808 L430 808 Q429 791 424 775 Q419 759 410 745.5 Q401 732 388.5 724 Q376 716 359 716 Z " />
<glyph glyph-name="Odieresis" unicode="&#xd6;" horiz-adv-x="600" d="M300 -12 Q246 -12 201 12.5 Q156 37 123 82 Q90 127 72 190.5 Q54 254 54 332 Q54 410 72 472.5 Q90 535 123 579.5 Q156 624 201 647.5 Q246 671 300 671 Q354 671 399 647.5 Q444 624 477 579.5 Q510 535 528 472.5 Q546 410 546 332 Q546 254 528 190.5 Q510 127 477 82 Q444 37 399 12.5 Q354 -12 300 -12 Z M300 30 Q344 30 380.5 51.5 Q417 73 443 112.5 Q469 152 483.5 207.5 Q498 263 498 332 Q498 400 483.5 455 Q469 510 443 548.5 Q417 587 380.5 608 Q344 629 300 629 Q256 629 219.5 608 Q183 587 157 548.5 Q131 510 116.5 455 Q102 400 102 332 Q102 263 116.5 207.5 Q131 152 157 112.5 Q183 73 219.5 51.5 Q256 30 300 30 Z M221 725 Q205 725 195 734.5 Q185 744 185 761 Q185 778 195 788 Q205 798 221 798 Q237 798 247.5 788 Q258 778 258 761 Q258 744 247.5 734.5 Q237 725 221 725 Z M379 725 Q363 725 352.5 734.5 Q342 744 342 761 Q342 778 352.5 788 Q363 798 379 798 Q395 798 405 788 Q415 778 415 761 Q415 744 405 734.5 Q395 725 379 725 Z " />
<glyph glyph-name="Omacron" unicode="&#x14c;" horiz-adv-x="600" d="M300 -12 Q246 -12 201 12.5 Q156 37 123 82 Q90 127 72 190.5 Q54 254 54 332 Q54 410 72 472.5 Q90 535 123 579.5 Q156 624 201 647.5 Q246 671 300 671 Q354 671 399 647.5 Q444 624 477 579.5 Q510 535 528 472.5 Q546 410 546 332 Q546 254 528 190.5 Q510 127 477 82 Q444 37 399 12.5 Q354 -12 300 -12 Z M300 30 Q344 30 380.5 51.5 Q417 73 443 112.5 Q469 152 483.5 207.5 Q498 263 498 332 Q498 400 483.5 455 Q469 510 443 548.5 Q417 587 380.5 608 Q344 629 300 629 Q256 629 219.5 608 Q183 587 157 548.5 Q131 510 116.5 455 Q102 400 102 332 Q102 263 116.5 207.5 Q131 152 157 112.5 Q183 73 219.5 51.5 Q256 30 300 30 Z M186 770 L414 770 L414 734 L186 734 L186 770 Z " />
<glyph glyph-name="uni014E" unicode="&#x14e;" horiz-adv-x="600" d="M300 -12 Q246 -12 201 12.5 Q156 37 123 82 Q90 127 72 190.5 Q54 254 54 332 Q54 410 72 472.5 Q90 535 123 579.5 Q156 624 201 647.5 Q246 671 300 671 Q354 671 399 647.5 Q444 624 477 579.5 Q510 535 528 472.5 Q546 410 546 332 Q546 254 528 190.5 Q510 127 477 82 Q444 37 399 12.5 Q354 -12 300 -12 Z M300 30 Q344 30 380.5 51.5 Q417 73 443 112.5 Q469 152 483.5 207.5 Q498 263 498 332 Q498 400 483.5 455 Q469 510 443 548.5 Q417 587 380.5 608 Q344 629 300 629 Q256 629 219.5 608 Q183 587 157 548.5 Q131 510 116.5 455 Q102 400 102 332 Q102 263 116.5 207.5 Q131 152 157 112.5 Q183 73 219.5 51.5 Q256 30 300 30 Z M300 711 Q271 711 250.5 721 Q230 731 216 746 Q202 761 194.5 779.5 Q187 798 185 815 L218 815 Q222 789 241.5 766 Q261 743 300 743 Q319 743 333.5 749.5 Q348 756 358 766 Q368 776 374 789 Q380 802 382 815 L415 815 Q413 798 405.5 779.5 Q398 761 384 746 Q370 731 349 721 Q328 711 300 711 Z " />
<glyph glyph-name="Ohungarumlaut" unicode="&#x150;" horiz-adv-x="600" d="M300 -12 Q246 -12 201 12.5 Q156 37 123 82 Q90 127 72 190.5 Q54 254 54 332 Q54 410 72 472.5 Q90 535 123 579.5 Q156 624 201 647.5 Q246 671 300 671 Q354 671 399 647.5 Q444 624 477 579.5 Q510 535 528 472.5 Q546 410 546 332 Q546 254 528 190.5 Q510 127 477 82 Q444 37 399 12.5 Q354 -12 300 -12 Z M300 30 Q344 30 380.5 51.5 Q417 73 443 112.5 Q469 152 483.5 207.5 Q498 263 498 332 Q498 400 483.5 455 Q469 510 443 548.5 Q417 587 380.5 608 Q344 629 300 629 Q256 629 219.5 608 Q183 587 157 548.5 Q131 510 116.5 455 Q102 400 102 332 Q102 263 116.5 207.5 Q131 152 157 112.5 Q183 73 219.5 51.5 Q256 30 300 30 Z M208 709 L275 815 L324 815 L244 709 L208 709 Z M420 815 L469 815 L389 709 L353 709 L420 815 Z " />
<glyph glyph-name="uni01D1" unicode="&#x1d1;" horiz-adv-x="600" d="M300 -12 Q246 -12 201 12.5 Q156 37 123 82 Q90 127 72 190.5 Q54 254 54 332 Q54 410 72 472.5 Q90 535 123 579.5 Q156 624 201 647.5 Q246 671 300 671 Q354 671 399 647.5 Q444 624 477 579.5 Q510 535 528 472.5 Q546 410 546 332 Q546 254 528 190.5 Q510 127 477 82 Q444 37 399 12.5 Q354 -12 300 -12 Z M300 30 Q344 30 380.5 51.5 Q417 73 443 112.5 Q469 152 483.5 207.5 Q498 263 498 332 Q498 400 483.5 455 Q469 510 443 548.5 Q417 587 380.5 608 Q344 629 300 629 Q256 629 219.5 608 Q183 587 157 548.5 Q131 510 116.5 455 Q102 400 102 332 Q102 263 116.5 207.5 Q131 152 157 112.5 Q183 73 219.5 51.5 Q256 30 300 30 Z M417 815 L321 709 L279 709 L183 815 L223 815 L298 743 L302 743 L377 815 L417 815 Z " />
<glyph glyph-name="uni1ECC" unicode="&#x1ecc;" horiz-adv-x="600" d="M300 -12 Q246 -12 201 12.5 Q156 37 123 82 Q90 127 72 190.5 Q54 254 54 332 Q54 410 72 472.5 Q90 535 123 579.5 Q156 624 201 647.5 Q246 671 300 671 Q354 671 399 647.5 Q444 624 477 579.5 Q510 535 528 472.5 Q546 410 546 332 Q546 254 528 190.5 Q510 127 477 82 Q444 37 399 12.5 Q354 -12 300 -12 Z M300 30 Q344 30 380.5 51.5 Q417 73 443 112.5 Q469 152 483.5 207.5 Q498 263 498 332 Q498 400 483.5 455 Q469 510 443 548.5 Q417 587 380.5 608 Q344 629 300 629 Q256 629 219.5 608 Q183 587 157 548.5 Q131 510 116.5 455 Q102 400 102 332 Q102 263 116.5 207.5 Q131 152 157 112.5 Q183 73 219.5 51.5 Q256 30 300 30 Z M300 -210 Q280 -210 266.5 -197.5 Q253 -185 253 -162 Q253 -140 266.5 -127 Q280 -114 300 -114 Q320 -114 333.5 -127 Q347 -140 347 -162 Q347 -185 333.5 -197.5 Q320 -210 300 -210 Z " />
<glyph glyph-name="uni1ECE" unicode="&#x1ece;" horiz-adv-x="600" d="M300 -12 Q246 -12 201 12.5 Q156 37 123 82 Q90 127 72 190.5 Q54 254 54 332 Q54 410 72 472.5 Q90 535 123 579.5 Q156 624 201 647.5 Q246 671 300 671 Q354 671 399 647.5 Q444 624 477 579.5 Q510 535 528 472.5 Q546 410 546 332 Q546 254 528 190.5 Q510 127 477 82 Q444 37 399 12.5 Q354 -12 300 -12 Z M300 30 Q344 30 380.5 51.5 Q417 73 443 112.5 Q469 152 483.5 207.5 Q498 263 498 332 Q498 400 483.5 455 Q469 510 443 548.5 Q417 587 380.5 608 Q344 629 300 629 Q256 629 219.5 608 Q183 587 157 548.5 Q131 510 116.5 455 Q102 400 102 332 Q102 263 116.5 207.5 Q131 152 157 112.5 Q183 73 219.5 51.5 Q256 30 300 30 Z M268 729 Q295 737 313 749.5 Q331 762 331 783 Q331 828 246 831 L250 863 Q275 862 297 857.5 Q319 853 335.5 844 Q352 835 361.5 821.5 Q371 808 371 789 Q371 769 363 755 Q355 741 341.5 731 Q328 721 311 714 Q294 707 276 702 L268 729 Z " />
<glyph glyph-name="uni1ED0" unicode="&#x1ed0;" horiz-adv-x="600" d="M300 -12 Q246 -12 201 12.5 Q156 37 123 82 Q90 127 72 190.5 Q54 254 54 332 Q54 410 72 472.5 Q90 535 123 579.5 Q156 624 201 647.5 Q246 671 300 671 Q354 671 399 647.5 Q444 624 477 579.5 Q510 535 528 472.5 Q546 410 546 332 Q546 254 528 190.5 Q510 127 477 82 Q444 37 399 12.5 Q354 -12 300 -12 Z M300 30 Q344 30 380.5 51.5 Q417 73 443 112.5 Q469 152 483.5 207.5 Q498 263 498 332 Q498 400 483.5 455 Q469 510 443 548.5 Q417 587 380.5 608 Q344 629 300 629 Q256 629 219.5 608 Q183 587 157 548.5 Q131 510 116.5 455 Q102 400 102 332 Q102 263 116.5 207.5 Q131 152 157 112.5 Q183 73 219.5 51.5 Q256 30 300 30 Z M450 876 L498 876 L412 770 L379 770 L450 876 Z M280 809 L320 809 L411 709 L372 709 L302 775 L298 775 L228 709 L189 709 L280 809 Z " />
<glyph glyph-name="uni1ED2" unicode="&#x1ed2;" horiz-adv-x="600" d="M300 -12 Q246 -12 201 12.5 Q156 37 123 82 Q90 127 72 190.5 Q54 254 54 332 Q54 410 72 472.5 Q90 535 123 579.5 Q156 624 201 647.5 Q246 671 300 671 Q354 671 399 647.5 Q444 624 477 579.5 Q510 535 528 472.5 Q546 410 546 332 Q546 254 528 190.5 Q510 127 477 82 Q444 37 399 12.5 Q354 -12 300 -12 Z M300 30 Q344 30 380.5 51.5 Q417 73 443 112.5 Q469 152 483.5 207.5 Q498 263 498 332 Q498 400 483.5 455 Q469 510 443 548.5 Q417 587 380.5 608 Q344 629 300 629 Q256 629 219.5 608 Q183 587 157 548.5 Q131 510 116.5 455 Q102 400 102 332 Q102 263 116.5 207.5 Q131 152 157 112.5 Q183 73 219.5 51.5 Q256 30 300 30 Z M452 770 L419 770 L333 876 L380 876 L452 770 Z M280 809 L320 809 L411 709 L372 709 L302 775 L298 775 L228 709 L189 709 L280 809 Z " />
<glyph glyph-name="uni1ED4" unicode="&#x1ed4;" horiz-adv-x="600" d="M300 -12 Q246 -12 201 12.5 Q156 37 123 82 Q90 127 72 190.5 Q54 254 54 332 Q54 410 72 472.5 Q90 535 123 579.5 Q156 624 201 647.5 Q246 671 300 671 Q354 671 399 647.5 Q444 624 477 579.5 Q510 535 528 472.5 Q546 410 546 332 Q546 254 528 190.5 Q510 127 477 82 Q444 37 399 12.5 Q354 -12 300 -12 Z M300 30 Q344 30 380.5 51.5 Q417 73 443 112.5 Q469 152 483.5 207.5 Q498 263 498 332 Q498 400 483.5 455 Q469 510 443 548.5 Q417 587 380.5 608 Q344 629 300 629 Q256 629 219.5 608 Q183 587 157 548.5 Q131 510 116.5 455 Q102 400 102 332 Q102 263 116.5 207.5 Q131 152 157 112.5 Q183 73 219.5 51.5 Q256 30 300 30 Z M392 784 Q413 789 428 799 Q443 809 443 826 Q443 849 424.5 857.5 Q406 866 370 868 L375 899 Q420 897 450.5 881.5 Q481 866 481 831 Q481 814 474 801.5 Q467 789 455.5 780 Q444 771 430 765.5 Q416 760 402 757 L392 784 Z M280 809 L320 809 L411 709 L372 709 L302 775 L298 775 L228 709 L189 709 L280 809 Z " />
<glyph glyph-name="uni1ED6" unicode="&#x1ed6;" horiz-adv-x="600" d="M300 -12 Q246 -12 201 12.5 Q156 37 123 82 Q90 127 72 190.5 Q54 254 54 332 Q54 410 72 472.5 Q90 535 123 579.5 Q156 624 201 647.5 Q246 671 300 671 Q354 671 399 647.5 Q444 624 477 579.5 Q510 535 528 472.5 Q546 410 546 332 Q546 254 528 190.5 Q510 127 477 82 Q444 37 399 12.5 Q354 -12 300 -12 Z M300 30 Q344 30 380.5 51.5 Q417 73 443 112.5 Q469 152 483.5 207.5 Q498 263 498 332 Q498 400 483.5 455 Q469 510 443 548.5 Q417 587 380.5 608 Q344 629 300 629 Q256 629 219.5 608 Q183 587 157 548.5 Q131 510 116.5 455 Q102 400 102 332 Q102 263 116.5 207.5 Q131 152 157 112.5 Q183 73 219.5 51.5 Q256 30 300 30 Z M280 809 L320 809 L411 709 L372 709 L302 775 L298 775 L228 709 L189 709 L280 809 Z M178 845 Q180 874 197 898 Q214 922 249 922 Q267 922 280.5 915 Q294 908 305.5 899.5 Q317 891 328 884 Q339 877 352 877 Q368 877 379 888 Q390 899 393 922 L422 922 Q420 893 403 869 Q386 845 351 845 Q333 845 319.5 852 Q306 859 294.5 867.5 Q283 876 272 883 Q261 890 248 890 Q232 890 221 879 Q210 868 207 845 L178 845 Z " />
<glyph glyph-name="uni1ED8" unicode="&#x1ed8;" horiz-adv-x="600" d="M300 -12 Q246 -12 201 12.5 Q156 37 123 82 Q90 127 72 190.5 Q54 254 54 332 Q54 410 72 472.5 Q90 535 123 579.5 Q156 624 201 647.5 Q246 671 300 671 Q354 671 399 647.5 Q444 624 477 579.5 Q510 535 528 472.5 Q546 410 546 332 Q546 254 528 190.5 Q510 127 477 82 Q444 37 399 12.5 Q354 -12 300 -12 Z M300 30 Q344 30 380.5 51.5 Q417 73 443 112.5 Q469 152 483.5 207.5 Q498 263 498 332 Q498 400 483.5 455 Q469 510 443 548.5 Q417 587 380.5 608 Q344 629 300 629 Q256 629 219.5 608 Q183 587 157 548.5 Q131 510 116.5 455 Q102 400 102 332 Q102 263 116.5 207.5 Q131 152 157 112.5 Q183 73 219.5 51.5 Q256 30 300 30 Z M183 709 L279 815 L321 815 L417 709 L377 709 L302 781 L298 781 L223 709 L183 709 Z M300 -210 Q280 -210 266.5 -197.5 Q253 -185 253 -162 Q253 -140 266.5 -127 Q280 -114 300 -114 Q320 -114 333.5 -127 Q347 -140 347 -162 Q347 -185 333.5 -197.5 Q320 -210 300 -210 Z " />
<glyph glyph-name="Oslash" unicode="&#xd8;" horiz-adv-x="600" d="M166 100 Q192 66 225.5 48 Q259 30 300 30 Q344 30 380.5 51.5 Q417 73 443 112.5 Q469 152 483.5 207.5 Q498 263 498 332 Q498 392 486.5 442 Q475 492 455 530 L166 100 Z M434 562 Q408 594 374.5 611.5 Q341 629 300 629 Q256 629 219.5 608 Q183 587 157 548.5 Q131 510 116.5 455 Q102 400 102 332 Q102 271 113.5 220.5 Q125 170 145 132 L434 562 Z M483 571 Q513 527 529.5 467 Q546 407 546 332 Q546 254 528 190.5 Q510 127 477 82 Q444 37 399 12.5 Q354 -12 300 -12 Q252 -12 212 7 Q172 26 140 61 L83 -23 L55 -2 L117 90 Q87 135 70.5 196 Q54 257 54 332 Q54 410 72 472.5 Q90 535 123 579.5 Q156 624 201 647.5 Q246 671 300 671 Q348 671 388 653 Q428 635 459 601 L514 682 L543 661 L483 571 Z " />
<glyph glyph-name="OE" unicode="&#x152;" horiz-adv-x="600" d="M41 332 Q41 407 57.5 467.5 Q74 528 107 571 Q140 614 188.5 637 Q237 660 301 660 L579 660 L579 621 L364 621 L364 370 L528 370 L528 330 L364 330 L364 40 L589 40 L589 0 L301 0 Q237 0 188.5 23.5 Q140 47 107 90.5 Q74 134 57.5 195.5 Q41 257 41 332 Z M88 332 Q88 267 100 213.5 Q112 160 137.5 121 Q163 82 202.5 60.5 Q242 39 296 39 L319 39 L319 621 L296 621 Q242 621 202.5 600 Q163 579 137.5 541 Q112 503 100 449.5 Q88 396 88 332 Z " />
<glyph glyph-name="Ohorn" unicode="&#x1a0;" horiz-adv-x="600" d="M300 30 Q344 30 380.5 51.5 Q417 73 443 112.5 Q469 152 483.5 207.5 Q498 263 498 332 Q498 400 483.5 455 Q469 510 443 548.5 Q417 587 380.5 608 Q344 629 300 629 Q256 629 219.5 608 Q183 587 157 548.5 Q131 510 116.5 455 Q102 400 102 332 Q102 263 116.5 207.5 Q131 152 157 112.5 Q183 73 219.5 51.5 Q256 30 300 30 Z M524 766 Q533 752 538 739 Q543 726 543 711 Q543 670 516.5 647 Q490 624 446 614 Q493 571 519.5 499.5 Q546 428 546 332 Q546 254 528 190.5 Q510 127 477 82 Q444 37 399 12.5 Q354 -12 300 -12 Q246 -12 201 12.5 Q156 37 123 82 Q90 127 72 190.5 Q54 254 54 332 Q54 410 72 472.5 Q90 535 123 579.5 Q156 624 201 647.5 Q246 671 300 671 Q362 671 413 640 Q503 652 503 708 Q503 725 489 747 L524 766 Z " />
<glyph glyph-name="uni1EDA" unicode="&#x1eda;" horiz-adv-x="600" d="M300 30 Q344 30 380.5 51.5 Q417 73 443 112.5 Q469 152 483.5 207.5 Q498 263 498 332 Q498 400 483.5 455 Q469 510 443 548.5 Q417 587 380.5 608 Q344 629 300 629 Q256 629 219.5 608 Q183 587 157 548.5 Q131 510 116.5 455 Q102 400 102 332 Q102 263 116.5 207.5 Q131 152 157 112.5 Q183 73 219.5 51.5 Q256 30 300 30 Z M524 766 Q533 752 538 739 Q543 726 543 711 Q543 670 516.5 647 Q490 624 446 614 Q493 571 519.5 499.5 Q546 428 546 332 Q546 254 528 190.5 Q510 127 477 82 Q444 37 399 12.5 Q354 -12 300 -12 Q246 -12 201 12.5 Q156 37 123 82 Q90 127 72 190.5 Q54 254 54 332 Q54 410 72 472.5 Q90 535 123 579.5 Q156 624 201 647.5 Q246 671 300 671 Q362 671 413 640 Q503 652 503 708 Q503 725 489 747 L524 766 Z M303 709 L263 709 L355 815 L413 815 L303 709 Z " />
<glyph glyph-name="uni1EDC" unicode="&#x1edc;" horiz-adv-x="600" d="M300 30 Q344 30 380.5 51.5 Q417 73 443 112.5 Q469 152 483.5 207.5 Q498 263 498 332 Q498 400 483.5 455 Q469 510 443 548.5 Q417 587 380.5 608 Q344 629 300 629 Q256 629 219.5 608 Q183 587 157 548.5 Q131 510 116.5 455 Q102 400 102 332 Q102 263 116.5 207.5 Q131 152 157 112.5 Q183 73 219.5 51.5 Q256 30 300 30 Z M524 766 Q533 752 538 739 Q543 726 543 711 Q543 670 516.5 647 Q490 624 446 614 Q493 571 519.5 499.5 Q546 428 546 332 Q546 254 528 190.5 Q510 127 477 82 Q444 37 399 12.5 Q354 -12 300 -12 Q246 -12 201 12.5 Q156 37 123 82 Q90 127 72 190.5 Q54 254 54 332 Q54 410 72 472.5 Q90 535 123 579.5 Q156 624 201 647.5 Q246 671 300 671 Q362 671 413 640 Q503 652 503 708 Q503 725 489 747 L524 766 Z M187 815 L245 815 L337 709 L297 709 L187 815 Z " />
<glyph glyph-name="uni1EDE" unicode="&#x1ede;" horiz-adv-x="600" d="M300 30 Q344 30 380.5 51.5 Q417 73 443 112.5 Q469 152 483.5 207.5 Q498 263 498 332 Q498 400 483.5 455 Q469 510 443 548.5 Q417 587 380.5 608 Q344 629 300 629 Q256 629 219.5 608 Q183 587 157 548.5 Q131 510 116.5 455 Q102 400 102 332 Q102 263 116.5 207.5 Q131 152 157 112.5 Q183 73 219.5 51.5 Q256 30 300 30 Z M524 766 Q533 752 538 739 Q543 726 543 711 Q543 670 516.5 647 Q490 624 446 614 Q493 571 519.5 499.5 Q546 428 546 332 Q546 254 528 190.5 Q510 127 477 82 Q444 37 399 12.5 Q354 -12 300 -12 Q246 -12 201 12.5 Q156 37 123 82 Q90 127 72 190.5 Q54 254 54 332 Q54 410 72 472.5 Q90 535 123 579.5 Q156 624 201 647.5 Q246 671 300 671 Q362 671 413 640 Q503 652 503 708 Q503 725 489 747 L524 766 Z M268 729 Q295 737 313 749.5 Q331 762 331 783 Q331 828 246 831 L250 863 Q275 862 297 857.5 Q319 853 335.5 844 Q352 835 361.5 821.5 Q371 808 371 789 Q371 769 363 755 Q355 741 341.5 731 Q328 721 311 714 Q294 707 276 702 L268 729 Z " />
<glyph glyph-name="uni1EE0" unicode="&#x1ee0;" horiz-adv-x="600" d="M300 30 Q344 30 380.5 51.5 Q417 73 443 112.5 Q469 152 483.5 207.5 Q498 263 498 332 Q498 400 483.5 455 Q469 510 443 548.5 Q417 587 380.5 608 Q344 629 300 629 Q256 629 219.5 608 Q183 587 157 548.5 Q131 510 116.5 455 Q102 400 102 332 Q102 263 116.5 207.5 Q131 152 157 112.5 Q183 73 219.5 51.5 Q256 30 300 30 Z M524 766 Q533 752 538 739 Q543 726 543 711 Q543 670 516.5 647 Q490 624 446 614 Q493 571 519.5 499.5 Q546 428 546 332 Q546 254 528 190.5 Q510 127 477 82 Q444 37 399 12.5 Q354 -12 300 -12 Q246 -12 201 12.5 Q156 37 123 82 Q90 127 72 190.5 Q54 254 54 332 Q54 410 72 472.5 Q90 535 123 579.5 Q156 624 201 647.5 Q246 671 300 671 Q362 671 413 640 Q503 652 503 708 Q503 725 489 747 L524 766 Z M359 716 Q339 716 323.5 725 Q308 734 294.5 744.5 Q281 755 268 764 Q255 773 240 773 Q224 773 213 757.5 Q202 742 199 716 L170 716 Q171 733 176 749.5 Q181 766 190 779 Q199 792 211.5 800 Q224 808 241 808 Q261 808 276 799 Q291 790 304.5 779.5 Q318 769 331.5 760.5 Q345 752 360 752 Q376 752 387 767 Q398 782 401 808 L430 808 Q429 791 424 775 Q419 759 410 745.5 Q401 732 388.5 724 Q376 716 359 716 Z " />
<glyph glyph-name="uni1EE2" unicode="&#x1ee2;" horiz-adv-x="600" d="M300 30 Q344 30 380.5 51.5 Q417 73 443 112.5 Q469 152 483.5 207.5 Q498 263 498 332 Q498 400 483.5 455 Q469 510 443 548.5 Q417 587 380.5 608 Q344 629 300 629 Q256 629 219.5 608 Q183 587 157 548.5 Q131 510 116.5 455 Q102 400 102 332 Q102 263 116.5 207.5 Q131 152 157 112.5 Q183 73 219.5 51.5 Q256 30 300 30 Z M524 766 Q533 752 538 739 Q543 726 543 711 Q543 670 516.5 647 Q490 624 446 614 Q493 571 519.5 499.5 Q546 428 546 332 Q546 254 528 190.5 Q510 127 477 82 Q444 37 399 12.5 Q354 -12 300 -12 Q246 -12 201 12.5 Q156 37 123 82 Q90 127 72 190.5 Q54 254 54 332 Q54 410 72 472.5 Q90 535 123 579.5 Q156 624 201 647.5 Q246 671 300 671 Q362 671 413 640 Q503 652 503 708 Q503 725 489 747 L524 766 Z M300 -210 Q280 -210 266.5 -197.5 Q253 -185 253 -162 Q253 -140 266.5 -127 Q280 -114 300 -114 Q320 -114 333.5 -127 Q347 -140 347 -162 Q347 -185 333.5 -197.5 Q320 -210 300 -210 Z " />
<glyph glyph-name="uni01EA" unicode="&#x1ea;" horiz-adv-x="600" d="M398 -181 Q386 -191 367.5 -198 Q349 -205 332 -205 Q297 -205 272.5 -185 Q248 -165 248 -123 Q248 -93 263.5 -64 Q279 -35 308 -12 Q242 -12 194 17 Q146 46 115 94.5 Q84 143 69 205 Q54 267 54 332 Q54 410 72 472.5 Q90 535 123 579.5 Q156 624 201 647.5 Q246 671 300 671 Q354 671 399 647.5 Q444 624 477 579.5 Q510 535 528 472.5 Q546 410 546 332 Q546 198 498.5 116 Q451 34 370 -1 Q349 -10 333.5 -23.5 Q318 -37 307.5 -53 Q297 -69 292 -85 Q287 -101 287 -116 Q287 -142 303 -155 Q319 -168 338 -168 Q363 -168 381 -154 L398 -181 Z M300 30 Q344 30 380.5 51.5 Q417 73 443 112.5 Q469 152 483.5 207.5 Q498 263 498 332 Q498 400 483.5 455 Q469 510 443 548.5 Q417 587 380.5 608 Q344 629 300 629 Q256 629 219.5 608 Q183 587 157 548.5 Q131 510 116.5 455 Q102 400 102 332 Q102 263 116.5 207.5 Q131 152 157 112.5 Q183 73 219.5 51.5 Q256 30 300 30 Z " />
<glyph glyph-name="Racute" unicode="&#x154;" horiz-adv-x="600" d="M293 341 Q381 341 428 376.5 Q475 412 475 485 Q475 559 428 589.5 Q381 620 293 620 L163 620 L163 341 L293 341 Z M481 0 L303 303 L163 303 L163 0 L117 0 L117 659 L305 659 Q354 659 394 649.5 Q434 640 462.5 619 Q491 598 506.5 565 Q522 532 522 485 Q522 406 476.5 361.5 Q431 317 353 306 L535 0 L481 0 Z M309 709 L269 709 L361 815 L419 815 L309 709 Z " />
<glyph glyph-name="Rcaron" unicode="&#x158;" horiz-adv-x="600" d="M293 341 Q381 341 428 376.5 Q475 412 475 485 Q475 559 428 589.5 Q381 620 293 620 L163 620 L163 341 L293 341 Z M481 0 L303 303 L163 303 L163 0 L117 0 L117 659 L305 659 Q354 659 394 649.5 Q434 640 462.5 619 Q491 598 506.5 565 Q522 532 522 485 Q522 406 476.5 361.5 Q431 317 353 306 L535 0 L481 0 Z M423 815 L327 709 L285 709 L189 815 L229 815 L304 743 L308 743 L383 815 L423 815 Z " />
<glyph glyph-name="uni0156" unicode="&#x156;" horiz-adv-x="600" d="M293 341 Q381 341 428 376.5 Q475 412 475 485 Q475 559 428 589.5 Q381 620 293 620 L163 620 L163 341 L293 341 Z M481 0 L303 303 L163 303 L163 0 L117 0 L117 659 L305 659 Q354 659 394 649.5 Q434 640 462.5 619 Q491 598 506.5 565 Q522 532 522 485 Q522 406 476.5 361.5 Q431 317 353 306 L535 0 L481 0 Z M295 -51 Q336 -59 357 -76 Q378 -93 378 -124 Q378 -144 367.5 -158.5 Q357 -173 339.5 -183 Q322 -193 299.5 -199.5 Q277 -206 253 -209 L246 -179 Q288 -173 313.5 -161 Q339 -149 339 -129 Q339 -106 321.5 -95.5 Q304 -85 282 -80 L295 -51 L295 -51 Z " />
<glyph glyph-name="uni1E5A" unicode="&#x1e5a;" horiz-adv-x="600" d="M293 341 Q381 341 428 376.5 Q475 412 475 485 Q475 559 428 589.5 Q381 620 293 620 L163 620 L163 341 L293 341 Z M481 0 L303 303 L163 303 L163 0 L117 0 L117 659 L305 659 Q354 659 394 649.5 Q434 640 462.5 619 Q491 598 506.5 565 Q522 532 522 485 Q522 406 476.5 361.5 Q431 317 353 306 L535 0 L481 0 Z M320 -210 Q300 -210 286.5 -197.5 Q273 -185 273 -162 Q273 -140 286.5 -127 Q300 -114 320 -114 Q340 -114 353.5 -127 Q367 -140 367 -162 Q367 -185 353.5 -197.5 Q340 -210 320 -210 Z " />
<glyph glyph-name="uni1E5C" unicode="&#x1e5c;" horiz-adv-x="600" d="M293 341 Q381 341 428 376.5 Q475 412 475 485 Q475 559 428 589.5 Q381 620 293 620 L163 620 L163 341 L293 341 Z M481 0 L303 303 L163 303 L163 0 L117 0 L117 659 L305 659 Q354 659 394 649.5 Q434 640 462.5 619 Q491 598 506.5 565 Q522 532 522 485 Q522 406 476.5 361.5 Q431 317 353 306 L535 0 L481 0 Z M192 770 L420 770 L420 734 L192 734 L192 770 Z M320 -210 Q300 -210 286.5 -197.5 Q273 -185 273 -162 Q273 -140 286.5 -127 Q300 -114 320 -114 Q340 -114 353.5 -127 Q367 -140 367 -162 Q367 -185 353.5 -197.5 Q340 -210 320 -210 Z " />
<glyph glyph-name="uni1E5E" unicode="&#x1e5e;" horiz-adv-x="600" d="M293 341 Q381 341 428 376.5 Q475 412 475 485 Q475 559 428 589.5 Q381 620 293 620 L163 620 L163 341 L293 341 Z M481 0 L303 303 L163 303 L163 0 L117 0 L117 659 L305 659 Q354 659 394 649.5 Q434 640 462.5 619 Q491 598 506.5 565 Q522 532 522 485 Q522 406 476.5 361.5 Q431 317 353 306 L535 0 L481 0 Z M433 -160 L205 -160 L205 -124 L433 -124 L433 -160 Z " />
<glyph glyph-name="Sacute" unicode="&#x15a;" horiz-adv-x="600" d="M106 119 Q144 78 196 54 Q248 30 309 30 Q390 30 436.5 66.5 Q483 103 483 162 Q483 193 472.5 214 Q462 235 444.5 250.5 Q427 266 403.5 277.5 Q380 289 354 300 L254 345 Q231 354 206 367 Q181 380 160 399.5 Q139 419 125 445.5 Q111 472 111 509 Q111 545 126 574.5 Q141 604 168 625.5 Q195 647 232 659 Q269 671 312 671 Q375 671 424.5 647.5 Q474 624 506 592 L479 561 Q448 592 406.5 610.5 Q365 629 312 629 Q242 629 199.5 597 Q157 565 157 511 Q157 482 169 462 Q181 442 199.5 427.5 Q218 413 239.5 402.5 Q261 392 281 384 L380 340 Q410 328 437 313 Q464 298 484.5 278 Q505 258 517 230.5 Q529 203 529 165 Q529 127 513.5 94.5 Q498 62 469 38.5 Q440 15 399.5 1.5 Q359 -12 309 -12 Q233 -12 175 15.5 Q117 43 76 87 L106 119 Z M316 709 L276 709 L368 815 L426 815 L316 709 Z " />
<glyph glyph-name="Scircumflex" unicode="&#x15c;" horiz-adv-x="600" d="M106 119 Q144 78 196 54 Q248 30 309 30 Q390 30 436.5 66.5 Q483 103 483 162 Q483 193 472.5 214 Q462 235 444.5 250.5 Q427 266 403.5 277.5 Q380 289 354 300 L254 345 Q231 354 206 367 Q181 380 160 399.5 Q139 419 125 445.5 Q111 472 111 509 Q111 545 126 574.5 Q141 604 168 625.5 Q195 647 232 659 Q269 671 312 671 Q375 671 424.5 647.5 Q474 624 506 592 L479 561 Q448 592 406.5 610.5 Q365 629 312 629 Q242 629 199.5 597 Q157 565 157 511 Q157 482 169 462 Q181 442 199.5 427.5 Q218 413 239.5 402.5 Q261 392 281 384 L380 340 Q410 328 437 313 Q464 298 484.5 278 Q505 258 517 230.5 Q529 203 529 165 Q529 127 513.5 94.5 Q498 62 469 38.5 Q440 15 399.5 1.5 Q359 -12 309 -12 Q233 -12 175 15.5 Q117 43 76 87 L106 119 Z M196 709 L292 815 L334 815 L430 709 L390 709 L315 781 L311 781 L236 709 L196 709 Z " />
<glyph glyph-name="Scaron" unicode="&#x160;" horiz-adv-x="600" d="M106 119 Q144 78 196 54 Q248 30 309 30 Q390 30 436.5 66.5 Q483 103 483 162 Q483 193 472.5 214 Q462 235 444.5 250.5 Q427 266 403.5 277.5 Q380 289 354 300 L254 345 Q231 354 206 367 Q181 380 160 399.5 Q139 419 125 445.5 Q111 472 111 509 Q111 545 126 574.5 Q141 604 168 625.5 Q195 647 232 659 Q269 671 312 671 Q375 671 424.5 647.5 Q474 624 506 592 L479 561 Q448 592 406.5 610.5 Q365 629 312 629 Q242 629 199.5 597 Q157 565 157 511 Q157 482 169 462 Q181 442 199.5 427.5 Q218 413 239.5 402.5 Q261 392 281 384 L380 340 Q410 328 437 313 Q464 298 484.5 278 Q505 258 517 230.5 Q529 203 529 165 Q529 127 513.5 94.5 Q498 62 469 38.5 Q440 15 399.5 1.5 Q359 -12 309 -12 Q233 -12 175 15.5 Q117 43 76 87 L106 119 Z M430 815 L334 709 L292 709 L196 815 L236 815 L311 743 L315 743 L390 815 L430 815 Z " />
<glyph glyph-name="uni015E" unicode="&#x15e;" horiz-adv-x="600" d="M106 119 Q144 78 196 54 Q248 30 309 30 Q390 30 436.5 66.5 Q483 103 483 162 Q483 193 472.5 214 Q462 235 444.5 250.5 Q427 266 403.5 277.5 Q380 289 354 300 L254 345 Q231 354 206 367 Q181 380 160 399.5 Q139 419 125 445.5 Q111 472 111 509 Q111 545 126 574.5 Q141 604 168 625.5 Q195 647 232 659 Q269 671 312 671 Q375 671 424.5 647.5 Q474 624 506 592 L479 561 Q448 592 406.5 610.5 Q365 629 312 629 Q242 629 199.5 597 Q157 565 157 511 Q157 482 169 462 Q181 442 199.5 427.5 Q218 413 239.5 402.5 Q261 392 281 384 L380 340 Q410 328 437 313 Q464 298 484.5 278 Q505 258 517 230.5 Q529 203 529 165 Q529 127 513.5 94.5 Q498 62 469 38.5 Q440 15 399.5 1.5 Q359 -12 309 -12 Q233 -12 175 15.5 Q117 43 76 87 L106 119 Z M303 2 L338 2 L309 -54 Q333 -62 351 -77.5 Q369 -93 369 -123 Q369 -143 358.5 -157.5 Q348 -172 330.5 -182 Q313 -192 290 -198.5 Q267 -205 243 -208 L237 -178 Q279 -172 304 -160 Q329 -148 329 -127 Q329 -104 310.5 -93 Q292 -82 263 -74 L303 2 Z " />
<glyph glyph-name="uni0218" unicode="&#x218;" horiz-adv-x="600" d="M106 119 Q144 78 196 54 Q248 30 309 30 Q390 30 436.5 66.5 Q483 103 483 162 Q483 193 472.5 214 Q462 235 444.5 250.5 Q427 266 403.5 277.5 Q380 289 354 300 L254 345 Q231 354 206 367 Q181 380 160 399.5 Q139 419 125 445.5 Q111 472 111 509 Q111 545 126 574.5 Q141 604 168 625.5 Q195 647 232 659 Q269 671 312 671 Q375 671 424.5 647.5 Q474 624 506 592 L479 561 Q448 592 406.5 610.5 Q365 629 312 629 Q242 629 199.5 597 Q157 565 157 511 Q157 482 169 462 Q181 442 199.5 427.5 Q218 413 239.5 402.5 Q261 392 281 384 L380 340 Q410 328 437 313 Q464 298 484.5 278 Q505 258 517 230.5 Q529 203 529 165 Q529 127 513.5 94.5 Q498 62 469 38.5 Q440 15 399.5 1.5 Q359 -12 309 -12 Q233 -12 175 15.5 Q117 43 76 87 L106 119 Z M285 -51 Q326 -59 347 -76 Q368 -93 368 -124 Q368 -144 357.5 -158.5 Q347 -173 329.5 -183 Q312 -193 289.5 -199.5 Q267 -206 243 -209 L236 -179 Q278 -173 303.5 -161 Q329 -149 329 -129 Q329 -106 311.5 -95.5 Q294 -85 272 -80 L285 -51 L285 -51 Z " />
<glyph glyph-name="uni1E60" unicode="&#x1e60;" horiz-adv-x="600" d="M106 119 Q144 78 196 54 Q248 30 309 30 Q390 30 436.5 66.5 Q483 103 483 162 Q483 193 472.5 214 Q462 235 444.5 250.5 Q427 266 403.5 277.5 Q380 289 354 300 L254 345 Q231 354 206 367 Q181 380 160 399.5 Q139 419 125 445.5 Q111 472 111 509 Q111 545 126 574.5 Q141 604 168 625.5 Q195 647 232 659 Q269 671 312 671 Q375 671 424.5 647.5 Q474 624 506 592 L479 561 Q448 592 406.5 610.5 Q365 629 312 629 Q242 629 199.5 597 Q157 565 157 511 Q157 482 169 462 Q181 442 199.5 427.5 Q218 413 239.5 402.5 Q261 392 281 384 L380 340 Q410 328 437 313 Q464 298 484.5 278 Q505 258 517 230.5 Q529 203 529 165 Q529 127 513.5 94.5 Q498 62 469 38.5 Q440 15 399.5 1.5 Q359 -12 309 -12 Q233 -12 175 15.5 Q117 43 76 87 L106 119 Z M313 721 Q296 721 284.5 732 Q273 743 273 762 Q273 779 284.5 790 Q296 801 313 801 Q330 801 341.5 790 Q353 779 353 762 Q353 743 341.5 732 Q330 721 313 721 Z " />
<glyph glyph-name="uni1E62" unicode="&#x1e62;" horiz-adv-x="600" d="M106 119 Q144 78 196 54 Q248 30 309 30 Q390 30 436.5 66.5 Q483 103 483 162 Q483 193 472.5 214 Q462 235 444.5 250.5 Q427 266 403.5 277.5 Q380 289 354 300 L254 345 Q231 354 206 367 Q181 380 160 399.5 Q139 419 125 445.5 Q111 472 111 509 Q111 545 126 574.5 Q141 604 168 625.5 Q195 647 232 659 Q269 671 312 671 Q375 671 424.5 647.5 Q474 624 506 592 L479 561 Q448 592 406.5 610.5 Q365 629 312 629 Q242 629 199.5 597 Q157 565 157 511 Q157 482 169 462 Q181 442 199.5 427.5 Q218 413 239.5 402.5 Q261 392 281 384 L380 340 Q410 328 437 313 Q464 298 484.5 278 Q505 258 517 230.5 Q529 203 529 165 Q529 127 513.5 94.5 Q498 62 469 38.5 Q440 15 399.5 1.5 Q359 -12 309 -12 Q233 -12 175 15.5 Q117 43 76 87 L106 119 Z M310 -210 Q290 -210 276.5 -197.5 Q263 -185 263 -162 Q263 -140 276.5 -127 Q290 -114 310 -114 Q330 -114 343.5 -127 Q357 -140 357 -162 Q357 -185 343.5 -197.5 Q330 -210 310 -210 Z " />
<glyph glyph-name="uni1E9E" unicode="&#x1e9e;" horiz-adv-x="600" d="M87 426 Q87 478 101.5 523 Q116 568 144.5 601 Q173 634 216 652.5 Q259 671 315 671 Q387 671 432 633.5 Q477 596 504 533 L360 363 Q416 353 454.5 334.5 Q493 316 517 290.5 Q541 265 551.5 233.5 Q562 202 562 167 Q562 129 549 96 Q536 63 513 39 Q490 15 458.5 1.5 Q427 -12 389 -12 Q339 -12 295.5 8 Q252 28 223 66 L253 98 Q282 63 314 46 Q346 29 388 29 Q448 29 480 67.5 Q512 106 512 166 Q512 194 504 219.5 Q496 245 473.5 266 Q451 287 412 303 Q373 319 311 330 L308 365 L451 535 Q434 575 400 602.5 Q366 630 313 630 Q231 630 182.5 578 Q134 526 134 413 L134 0 L87 0 L87 426 Z " />
<glyph glyph-name="Tcaron" unicode="&#x164;" horiz-adv-x="600" d="M277 619 L48 619 L48 659 L552 659 L552 619 L323 619 L323 0 L277 0 L277 619 Z M417 815 L321 709 L279 709 L183 815 L223 815 L298 743 L302 743 L377 815 L417 815 Z " />
<glyph glyph-name="uni0162" unicode="&#x162;" horiz-adv-x="600" d="M277 619 L48 619 L48 659 L552 659 L552 619 L323 619 L323 0 L277 0 L277 619 Z M285 2 L320 2 L291 -54 Q315 -62 333 -77.5 Q351 -93 351 -123 Q351 -143 340.5 -157.5 Q330 -172 312.5 -182 Q295 -192 272 -198.5 Q249 -205 225 -208 L219 -178 Q261 -172 286 -160 Q311 -148 311 -127 Q311 -104 292.5 -93 Q274 -82 245 -74 L285 2 Z " />
<glyph glyph-name="uni021A" unicode="&#x21a;" horiz-adv-x="600" d="M277 619 L48 619 L48 659 L552 659 L552 619 L323 619 L323 0 L277 0 L277 619 Z M276 -51 Q317 -59 338 -76 Q359 -93 359 -124 Q359 -144 348.5 -158.5 Q338 -173 320.5 -183 Q303 -193 280.5 -199.5 Q258 -206 234 -209 L227 -179 Q269 -173 294.5 -161 Q320 -149 320 -129 Q320 -106 302.5 -95.5 Q285 -85 263 -80 L276 -51 L276 -51 Z " />
<glyph glyph-name="uni1E6C" unicode="&#x1e6c;" horiz-adv-x="600" d="M277 619 L48 619 L48 659 L552 659 L552 619 L323 619 L323 0 L277 0 L277 619 Z M301 -210 Q281 -210 267.5 -197.5 Q254 -185 254 -162 Q254 -140 267.5 -127 Q281 -114 301 -114 Q321 -114 334.5 -127 Q348 -140 348 -162 Q348 -185 334.5 -197.5 Q321 -210 301 -210 Z " />
<glyph glyph-name="uni1E6E" unicode="&#x1e6e;" horiz-adv-x="600" d="M277 619 L48 619 L48 659 L552 659 L552 619 L323 619 L323 0 L277 0 L277 619 Z M414 -160 L186 -160 L186 -124 L414 -124 L414 -160 Z " />
<glyph glyph-name="Ugrave" unicode="&#xd9;" horiz-adv-x="600" d="M89 659 L135 659 L135 252 Q135 188 148.5 145.5 Q162 103 184.5 77.5 Q207 52 237 41 Q267 30 300 30 Q334 30 364.5 41 Q395 52 418 77.5 Q441 103 454.5 145.5 Q468 188 468 252 L468 659 L511 659 L511 247 Q511 172 493.5 122 Q476 72 447 42.5 Q418 13 380 0.5 Q342 -12 300 -12 Q259 -12 220.5 0.5 Q182 13 153 42.5 Q124 72 106.5 122 Q89 172 89 247 L89 659 Z M187 815 L245 815 L337 709 L297 709 L187 815 Z " />
<glyph glyph-name="Uacute" unicode="&#xda;" horiz-adv-x="600" d="M89 659 L135 659 L135 252 Q135 188 148.5 145.5 Q162 103 184.5 77.5 Q207 52 237 41 Q267 30 300 30 Q334 30 364.5 41 Q395 52 418 77.5 Q441 103 454.5 145.5 Q468 188 468 252 L468 659 L511 659 L511 247 Q511 172 493.5 122 Q476 72 447 42.5 Q418 13 380 0.5 Q342 -12 300 -12 Q259 -12 220.5 0.5 Q182 13 153 42.5 Q124 72 106.5 122 Q89 172 89 247 L89 659 Z M303 709 L263 709 L355 815 L413 815 L303 709 Z " />
<glyph glyph-name="Ucircumflex" unicode="&#xdb;" horiz-adv-x="600" d="M89 659 L135 659 L135 252 Q135 188 148.5 145.5 Q162 103 184.5 77.5 Q207 52 237 41 Q267 30 300 30 Q334 30 364.5 41 Q395 52 418 77.5 Q441 103 454.5 145.5 Q468 188 468 252 L468 659 L511 659 L511 247 Q511 172 493.5 122 Q476 72 447 42.5 Q418 13 380 0.5 Q342 -12 300 -12 Q259 -12 220.5 0.5 Q182 13 153 42.5 Q124 72 106.5 122 Q89 172 89 247 L89 659 Z M183 709 L279 815 L321 815 L417 709 L377 709 L302 781 L298 781 L223 709 L183 709 Z " />
<glyph glyph-name="Utilde" unicode="&#x168;" horiz-adv-x="600" d="M89 659 L135 659 L135 252 Q135 188 148.5 145.5 Q162 103 184.5 77.5 Q207 52 237 41 Q267 30 300 30 Q334 30 364.5 41 Q395 52 418 77.5 Q441 103 454.5 145.5 Q468 188 468 252 L468 659 L511 659 L511 247 Q511 172 493.5 122 Q476 72 447 42.5 Q418 13 380 0.5 Q342 -12 300 -12 Q259 -12 220.5 0.5 Q182 13 153 42.5 Q124 72 106.5 122 Q89 172 89 247 L89 659 Z M359 716 Q339 716 323.5 725 Q308 734 294.5 744.5 Q281 755 268 764 Q255 773 240 773 Q224 773 213 757.5 Q202 742 199 716 L170 716 Q171 733 176 749.5 Q181 766 190 779 Q199 792 211.5 800 Q224 808 241 808 Q261 808 276 799 Q291 790 304.5 779.5 Q318 769 331.5 760.5 Q345 752 360 752 Q376 752 387 767 Q398 782 401 808 L430 808 Q429 791 424 775 Q419 759 410 745.5 Q401 732 388.5 724 Q376 716 359 716 Z " />
<glyph glyph-name="Udieresis" unicode="&#xdc;" horiz-adv-x="600" d="M89 659 L135 659 L135 252 Q135 188 148.5 145.5 Q162 103 184.5 77.5 Q207 52 237 41 Q267 30 300 30 Q334 30 364.5 41 Q395 52 418 77.5 Q441 103 454.5 145.5 Q468 188 468 252 L468 659 L511 659 L511 247 Q511 172 493.5 122 Q476 72 447 42.5 Q418 13 380 0.5 Q342 -12 300 -12 Q259 -12 220.5 0.5 Q182 13 153 42.5 Q124 72 106.5 122 Q89 172 89 247 L89 659 Z M221 725 Q205 725 195 734.5 Q185 744 185 761 Q185 778 195 788 Q205 798 221 798 Q237 798 247.5 788 Q258 778 258 761 Q258 744 247.5 734.5 Q237 725 221 725 Z M379 725 Q363 725 352.5 734.5 Q342 744 342 761 Q342 778 352.5 788 Q363 798 379 798 Q395 798 405 788 Q415 778 415 761 Q415 744 405 734.5 Q395 725 379 725 Z " />
<glyph glyph-name="Umacron" unicode="&#x16a;" horiz-adv-x="600" d="M89 659 L135 659 L135 252 Q135 188 148.5 145.5 Q162 103 184.5 77.5 Q207 52 237 41 Q267 30 300 30 Q334 30 364.5 41 Q395 52 418 77.5 Q441 103 454.5 145.5 Q468 188 468 252 L468 659 L511 659 L511 247 Q511 172 493.5 122 Q476 72 447 42.5 Q418 13 380 0.5 Q342 -12 300 -12 Q259 -12 220.5 0.5 Q182 13 153 42.5 Q124 72 106.5 122 Q89 172 89 247 L89 659 Z M186 770 L414 770 L414 734 L186 734 L186 770 Z " />
<glyph glyph-name="Ubreve" unicode="&#x16c;" horiz-adv-x="600" d="M89 659 L135 659 L135 252 Q135 188 148.5 145.5 Q162 103 184.5 77.5 Q207 52 237 41 Q267 30 300 30 Q334 30 364.5 41 Q395 52 418 77.5 Q441 103 454.5 145.5 Q468 188 468 252 L468 659 L511 659 L511 247 Q511 172 493.5 122 Q476 72 447 42.5 Q418 13 380 0.5 Q342 -12 300 -12 Q259 -12 220.5 0.5 Q182 13 153 42.5 Q124 72 106.5 122 Q89 172 89 247 L89 659 Z M300 711 Q271 711 250.5 721 Q230 731 216 746 Q202 761 194.5 779.5 Q187 798 185 815 L218 815 Q222 789 241.5 766 Q261 743 300 743 Q319 743 333.5 749.5 Q348 756 358 766 Q368 776 374 789 Q380 802 382 815 L415 815 Q413 798 405.5 779.5 Q398 761 384 746 Q370 731 349 721 Q328 711 300 711 Z " />
<glyph glyph-name="Uring" unicode="&#x16e;" horiz-adv-x="600" d="M89 659 L135 659 L135 252 Q135 188 148.5 145.5 Q162 103 184.5 77.5 Q207 52 237 41 Q267 30 300 30 Q334 30 364.5 41 Q395 52 418 77.5 Q441 103 454.5 145.5 Q468 188 468 252 L468 659 L511 659 L511 247 Q511 172 493.5 122 Q476 72 447 42.5 Q418 13 380 0.5 Q342 -12 300 -12 Q259 -12 220.5 0.5 Q182 13 153 42.5 Q124 72 106.5 122 Q89 172 89 247 L89 659 Z M300 700 Q265 700 241.5 722 Q218 744 218 782 Q218 819 241.5 841.5 Q265 864 300 864 Q334 864 358 841.5 Q382 819 382 782 Q382 744 358 722 Q334 700 300 700 Z M300 726 Q320 726 335.5 740 Q351 754 351 782 Q351 808 335.5 823 Q320 838 300 838 Q278 838 263 823 Q248 808 248 782 Q248 754 263 740 Q278 726 300 726 Z " />
<glyph glyph-name="Uhungarumlaut" unicode="&#x170;" horiz-adv-x="600" d="M89 659 L135 659 L135 252 Q135 188 148.5 145.5 Q162 103 184.5 77.5 Q207 52 237 41 Q267 30 300 30 Q334 30 364.5 41 Q395 52 418 77.5 Q441 103 454.5 145.5 Q468 188 468 252 L468 659 L511 659 L511 247 Q511 172 493.5 122 Q476 72 447 42.5 Q418 13 380 0.5 Q342 -12 300 -12 Q259 -12 220.5 0.5 Q182 13 153 42.5 Q124 72 106.5 122 Q89 172 89 247 L89 659 Z M208 709 L275 815 L324 815 L244 709 L208 709 Z M420 815 L469 815 L389 709 L353 709 L420 815 Z " />
<glyph glyph-name="uni01D3" unicode="&#x1d3;" horiz-adv-x="600" d="M89 659 L135 659 L135 252 Q135 188 148.5 145.5 Q162 103 184.5 77.5 Q207 52 237 41 Q267 30 300 30 Q334 30 364.5 41 Q395 52 418 77.5 Q441 103 454.5 145.5 Q468 188 468 252 L468 659 L511 659 L511 247 Q511 172 493.5 122 Q476 72 447 42.5 Q418 13 380 0.5 Q342 -12 300 -12 Q259 -12 220.5 0.5 Q182 13 153 42.5 Q124 72 106.5 122 Q89 172 89 247 L89 659 Z M417 815 L321 709 L279 709 L183 815 L223 815 L298 743 L302 743 L377 815 L417 815 Z " />
<glyph glyph-name="uni01D5" unicode="&#x1d5;" horiz-adv-x="600" d="M89 659 L135 659 L135 252 Q135 188 148.5 145.5 Q162 103 184.5 77.5 Q207 52 237 41 Q267 30 300 30 Q334 30 364.5 41 Q395 52 418 77.5 Q441 103 454.5 145.5 Q468 188 468 252 L468 659 L511 659 L511 247 Q511 172 493.5 122 Q476 72 447 42.5 Q418 13 380 0.5 Q342 -12 300 -12 Q259 -12 220.5 0.5 Q182 13 153 42.5 Q124 72 106.5 122 Q89 172 89 247 L89 659 Z M186 887 L414 887 L414 854 L186 854 L186 887 Z M221 725 Q206 725 196 734 Q186 743 186 760 Q186 777 196 786.5 Q206 796 221 796 Q236 796 246.5 786.5 Q257 777 257 760 Q257 743 246.5 734 Q236 725 221 725 Z M379 725 Q364 725 353.5 734 Q343 743 343 760 Q343 777 353.5 786.5 Q364 796 379 796 Q394 796 404 786.5 Q414 777 414 760 Q414 743 404 734 Q394 725 379 725 Z " />
<glyph glyph-name="uni01D7" unicode="&#x1d7;" horiz-adv-x="600" d="M89 659 L135 659 L135 252 Q135 188 148.5 145.5 Q162 103 184.5 77.5 Q207 52 237 41 Q267 30 300 30 Q334 30 364.5 41 Q395 52 418 77.5 Q441 103 454.5 145.5 Q468 188 468 252 L468 659 L511 659 L511 247 Q511 172 493.5 122 Q476 72 447 42.5 Q418 13 380 0.5 Q342 -12 300 -12 Q259 -12 220.5 0.5 Q182 13 153 42.5 Q124 72 106.5 122 Q89 172 89 247 L89 659 Z M357 935 L411 935 L302 829 L263 829 L357 935 Z M221 725 Q206 725 196 734 Q186 743 186 760 Q186 777 196 786.5 Q206 796 221 796 Q236 796 246.5 786.5 Q257 777 257 760 Q257 743 246.5 734 Q236 725 221 725 Z M379 725 Q364 725 353.5 734 Q343 743 343 760 Q343 777 353.5 786.5 Q364 796 379 796 Q394 796 404 786.5 Q414 777 414 760 Q414 743 404 734 Q394 725 379 725 Z " />
<glyph glyph-name="uni01D9" unicode="&#x1d9;" horiz-adv-x="600" d="M89 659 L135 659 L135 252 Q135 188 148.5 145.5 Q162 103 184.5 77.5 Q207 52 237 41 Q267 30 300 30 Q334 30 364.5 41 Q395 52 418 77.5 Q441 103 454.5 145.5 Q468 188 468 252 L468 659 L511 659 L511 247 Q511 172 493.5 122 Q476 72 447 42.5 Q418 13 380 0.5 Q342 -12 300 -12 Q259 -12 220.5 0.5 Q182 13 153 42.5 Q124 72 106.5 122 Q89 172 89 247 L89 659 Z M221 725 Q206 725 196 734 Q186 743 186 760 Q186 777 196 786.5 Q206 796 221 796 Q236 796 246.5 786.5 Q257 777 257 760 Q257 743 246.5 734 Q236 725 221 725 Z M379 725 Q364 725 353.5 734 Q343 743 343 760 Q343 777 353.5 786.5 Q364 796 379 796 Q394 796 404 786.5 Q414 777 414 760 Q414 743 404 734 Q394 725 379 725 Z M417 935 L321 829 L279 829 L183 935 L223 935 L298 863 L302 863 L377 935 L417 935 Z " />
<glyph glyph-name="uni01DB" unicode="&#x1db;" horiz-adv-x="600" d="M89 659 L135 659 L135 252 Q135 188 148.5 145.5 Q162 103 184.5 77.5 Q207 52 237 41 Q267 30 300 30 Q334 30 364.5 41 Q395 52 418 77.5 Q441 103 454.5 145.5 Q468 188 468 252 L468 659 L511 659 L511 247 Q511 172 493.5 122 Q476 72 447 42.5 Q418 13 380 0.5 Q342 -12 300 -12 Q259 -12 220.5 0.5 Q182 13 153 42.5 Q124 72 106.5 122 Q89 172 89 247 L89 659 Z M337 829 L298 829 L189 935 L243 935 L337 829 Z M379 725 Q364 725 353.5 734 Q343 743 343 760 Q343 777 353.5 786.5 Q364 796 379 796 Q394 796 404 786.5 Q414 777 414 760 Q414 743 404 734 Q394 725 379 725 Z M221 725 Q206 725 196 734 Q186 743 186 760 Q186 777 196 786.5 Q206 796 221 796 Q236 796 246.5 786.5 Q257 777 257 760 Q257 743 246.5 734 Q236 725 221 725 Z " />
<glyph glyph-name="uni1EE4" unicode="&#x1ee4;" horiz-adv-x="600" d="M89 659 L135 659 L135 252 Q135 188 148.5 145.5 Q162 103 184.5 77.5 Q207 52 237 41 Q267 30 300 30 Q334 30 364.5 41 Q395 52 418 77.5 Q441 103 454.5 145.5 Q468 188 468 252 L468 659 L511 659 L511 247 Q511 172 493.5 122 Q476 72 447 42.5 Q418 13 380 0.5 Q342 -12 300 -12 Q259 -12 220.5 0.5 Q182 13 153 42.5 Q124 72 106.5 122 Q89 172 89 247 L89 659 Z M300 -210 Q280 -210 266.5 -197.5 Q253 -185 253 -162 Q253 -140 266.5 -127 Q280 -114 300 -114 Q320 -114 333.5 -127 Q347 -140 347 -162 Q347 -185 333.5 -197.5 Q320 -210 300 -210 Z " />
<glyph glyph-name="uni1EE6" unicode="&#x1ee6;" horiz-adv-x="600" d="M89 659 L135 659 L135 252 Q135 188 148.5 145.5 Q162 103 184.5 77.5 Q207 52 237 41 Q267 30 300 30 Q334 30 364.5 41 Q395 52 418 77.5 Q441 103 454.5 145.5 Q468 188 468 252 L468 659 L511 659 L511 247 Q511 172 493.5 122 Q476 72 447 42.5 Q418 13 380 0.5 Q342 -12 300 -12 Q259 -12 220.5 0.5 Q182 13 153 42.5 Q124 72 106.5 122 Q89 172 89 247 L89 659 Z M268 729 Q295 737 313 749.5 Q331 762 331 783 Q331 828 246 831 L250 863 Q275 862 297 857.5 Q319 853 335.5 844 Q352 835 361.5 821.5 Q371 808 371 789 Q371 769 363 755 Q355 741 341.5 731 Q328 721 311 714 Q294 707 276 702 L268 729 Z " />
<glyph glyph-name="Uogonek" unicode="&#x172;" horiz-adv-x="600" d="M89 659 L135 659 L135 252 Q135 188 148 145.5 Q161 103 183.5 77.5 Q206 52 236 41 Q266 30 299 30 Q332 30 363 41 Q394 52 417 77.5 Q440 103 454 145.5 Q468 188 468 252 L468 659 L511 659 L511 247 Q511 193 501.5 152 Q492 111 475.5 82 Q459 53 436 34 Q413 15 387 3 Q338 -19 310.5 -52.5 Q283 -86 283 -116 Q283 -142 298.5 -155 Q314 -168 334 -168 Q357 -168 377 -154 L393 -181 Q382 -191 363 -198 Q344 -205 328 -205 Q293 -205 268 -185 Q243 -165 243 -123 Q243 -104 249 -88 Q255 -72 264.5 -58.5 Q274 -45 286 -33.5 Q298 -22 309 -11 Q197 -13 143 52.5 Q89 118 89 247 L89 659 Z " />
<glyph glyph-name="Uhorn" unicode="&#x1af;" horiz-adv-x="600" d="M593 786 Q603 772 608 759 Q613 746 613 731 Q613 708 604.5 691.5 Q596 675 582 663.5 Q568 652 549.5 644.5 Q531 637 511 633 L511 247 Q511 172 493.5 122 Q476 72 447 42.5 Q418 13 380 0.5 Q342 -12 300 -12 Q259 -12 220.5 0.5 Q182 13 153 42.5 Q124 72 106.5 122 Q89 172 89 247 L89 659 L135 659 L135 252 Q135 188 148.5 145.5 Q162 103 184.5 77.5 Q207 52 237 41 Q267 30 300 30 Q334 30 364.5 41 Q395 52 418 77.5 Q441 103 454.5 145.5 Q468 188 468 252 L468 659 L482 659 Q528 666 550 681.5 Q572 697 572 728 Q572 747 558 767 L593 786 Z " />
<glyph glyph-name="uni1EE8" unicode="&#x1ee8;" horiz-adv-x="600" d="M593 786 Q603 772 608 759 Q613 746 613 731 Q613 708 604.5 691.5 Q596 675 582 663.5 Q568 652 549.5 644.5 Q531 637 511 633 L511 247 Q511 172 493.5 122 Q476 72 447 42.5 Q418 13 380 0.5 Q342 -12 300 -12 Q259 -12 220.5 0.5 Q182 13 153 42.5 Q124 72 106.5 122 Q89 172 89 247 L89 659 L135 659 L135 252 Q135 188 148.5 145.5 Q162 103 184.5 77.5 Q207 52 237 41 Q267 30 300 30 Q334 30 364.5 41 Q395 52 418 77.5 Q441 103 454.5 145.5 Q468 188 468 252 L468 659 L482 659 Q528 666 550 681.5 Q572 697 572 728 Q572 747 558 767 L593 786 Z M303 709 L263 709 L355 815 L413 815 L303 709 Z " />
<glyph glyph-name="uni1EEA" unicode="&#x1eea;" horiz-adv-x="600" d="M593 786 Q603 772 608 759 Q613 746 613 731 Q613 708 604.5 691.5 Q596 675 582 663.5 Q568 652 549.5 644.5 Q531 637 511 633 L511 247 Q511 172 493.5 122 Q476 72 447 42.5 Q418 13 380 0.5 Q342 -12 300 -12 Q259 -12 220.5 0.5 Q182 13 153 42.5 Q124 72 106.5 122 Q89 172 89 247 L89 659 L135 659 L135 252 Q135 188 148.5 145.5 Q162 103 184.5 77.5 Q207 52 237 41 Q267 30 300 30 Q334 30 364.5 41 Q395 52 418 77.5 Q441 103 454.5 145.5 Q468 188 468 252 L468 659 L482 659 Q528 666 550 681.5 Q572 697 572 728 Q572 747 558 767 L593 786 Z M187 815 L245 815 L337 709 L297 709 L187 815 Z " />
<glyph glyph-name="uni1EEC" unicode="&#x1eec;" horiz-adv-x="600" d="M593 786 Q603 772 608 759 Q613 746 613 731 Q613 708 604.5 691.5 Q596 675 582 663.5 Q568 652 549.5 644.5 Q531 637 511 633 L511 247 Q511 172 493.5 122 Q476 72 447 42.5 Q418 13 380 0.5 Q342 -12 300 -12 Q259 -12 220.5 0.5 Q182 13 153 42.5 Q124 72 106.5 122 Q89 172 89 247 L89 659 L135 659 L135 252 Q135 188 148.5 145.5 Q162 103 184.5 77.5 Q207 52 237 41 Q267 30 300 30 Q334 30 364.5 41 Q395 52 418 77.5 Q441 103 454.5 145.5 Q468 188 468 252 L468 659 L482 659 Q528 666 550 681.5 Q572 697 572 728 Q572 747 558 767 L593 786 Z M268 729 Q295 737 313 749.5 Q331 762 331 783 Q331 828 246 831 L250 863 Q275 862 297 857.5 Q319 853 335.5 844 Q352 835 361.5 821.5 Q371 808 371 789 Q371 769 363 755 Q355 741 341.5 731 Q328 721 311 714 Q294 707 276 702 L268 729 Z " />
<glyph glyph-name="uni1EEE" unicode="&#x1eee;" horiz-adv-x="600" d="M593 786 Q603 772 608 759 Q613 746 613 731 Q613 708 604.5 691.5 Q596 675 582 663.5 Q568 652 549.5 644.5 Q531 637 511 633 L511 247 Q511 172 493.5 122 Q476 72 447 42.5 Q418 13 380 0.5 Q342 -12 300 -12 Q259 -12 220.5 0.5 Q182 13 153 42.5 Q124 72 106.5 122 Q89 172 89 247 L89 659 L135 659 L135 252 Q135 188 148.5 145.5 Q162 103 184.5 77.5 Q207 52 237 41 Q267 30 300 30 Q334 30 364.5 41 Q395 52 418 77.5 Q441 103 454.5 145.5 Q468 188 468 252 L468 659 L482 659 Q528 666 550 681.5 Q572 697 572 728 Q572 747 558 767 L593 786 Z M359 716 Q339 716 323.5 725 Q308 734 294.5 744.5 Q281 755 268 764 Q255 773 240 773 Q224 773 213 757.5 Q202 742 199 716 L170 716 Q171 733 176 749.5 Q181 766 190 779 Q199 792 211.5 800 Q224 808 241 808 Q261 808 276 799 Q291 790 304.5 779.5 Q318 769 331.5 760.5 Q345 752 360 752 Q376 752 387 767 Q398 782 401 808 L430 808 Q429 791 424 775 Q419 759 410 745.5 Q401 732 388.5 724 Q376 716 359 716 Z " />
<glyph glyph-name="uni1EF0" unicode="&#x1ef0;" horiz-adv-x="600" d="M593 786 Q603 772 608 759 Q613 746 613 731 Q613 708 604.5 691.5 Q596 675 582 663.5 Q568 652 549.5 644.5 Q531 637 511 633 L511 247 Q511 172 493.5 122 Q476 72 447 42.5 Q418 13 380 0.5 Q342 -12 300 -12 Q259 -12 220.5 0.5 Q182 13 153 42.5 Q124 72 106.5 122 Q89 172 89 247 L89 659 L135 659 L135 252 Q135 188 148.5 145.5 Q162 103 184.5 77.5 Q207 52 237 41 Q267 30 300 30 Q334 30 364.5 41 Q395 52 418 77.5 Q441 103 454.5 145.5 Q468 188 468 252 L468 659 L482 659 Q528 666 550 681.5 Q572 697 572 728 Q572 747 558 767 L593 786 Z M300 -210 Q280 -210 266.5 -197.5 Q253 -185 253 -162 Q253 -140 266.5 -127 Q280 -114 300 -114 Q320 -114 333.5 -127 Q347 -140 347 -162 Q347 -185 333.5 -197.5 Q320 -210 300 -210 Z " />
<glyph glyph-name="Wgrave" unicode="&#x1e80;" horiz-adv-x="600" d="M14 660 L57 660 L128 209 Q133 169 138.5 130 Q144 91 149 50 L151 50 Q163 91 175 130 Q187 169 198 209 L280 488 L322 488 L406 209 Q417 169 428.5 129.5 Q440 90 451 50 L455 50 Q460 90 465.5 129.5 Q471 169 476 209 L544 660 L586 660 L480 0 L424 0 L330 316 Q322 345 316 373.5 Q310 402 302 431 L299 431 Q291 402 284 373.5 Q277 345 269 316 L178 0 L123 0 L14 660 Z M187 815 L245 815 L337 709 L297 709 L187 815 Z " />
<glyph glyph-name="Wacute" unicode="&#x1e82;" horiz-adv-x="600" d="M14 660 L57 660 L128 209 Q133 169 138.5 130 Q144 91 149 50 L151 50 Q163 91 175 130 Q187 169 198 209 L280 488 L322 488 L406 209 Q417 169 428.5 129.5 Q440 90 451 50 L455 50 Q460 90 465.5 129.5 Q471 169 476 209 L544 660 L586 660 L480 0 L424 0 L330 316 Q322 345 316 373.5 Q310 402 302 431 L299 431 Q291 402 284 373.5 Q277 345 269 316 L178 0 L123 0 L14 660 Z M303 709 L263 709 L355 815 L413 815 L303 709 Z " />
<glyph glyph-name="Wcircumflex" unicode="&#x174;" horiz-adv-x="600" d="M14 660 L57 660 L128 209 Q133 169 138.5 130 Q144 91 149 50 L151 50 Q163 91 175 130 Q187 169 198 209 L280 488 L322 488 L406 209 Q417 169 428.5 129.5 Q440 90 451 50 L455 50 Q460 90 465.5 129.5 Q471 169 476 209 L544 660 L586 660 L480 0 L424 0 L330 316 Q322 345 316 373.5 Q310 402 302 431 L299 431 Q291 402 284 373.5 Q277 345 269 316 L178 0 L123 0 L14 660 Z M183 709 L279 815 L321 815 L417 709 L377 709 L302 781 L298 781 L223 709 L183 709 Z " />
<glyph glyph-name="Wdieresis" unicode="&#x1e84;" horiz-adv-x="600" d="M14 660 L57 660 L128 209 Q133 169 138.5 130 Q144 91 149 50 L151 50 Q163 91 175 130 Q187 169 198 209 L280 488 L322 488 L406 209 Q417 169 428.5 129.5 Q440 90 451 50 L455 50 Q460 90 465.5 129.5 Q471 169 476 209 L544 660 L586 660 L480 0 L424 0 L330 316 Q322 345 316 373.5 Q310 402 302 431 L299 431 Q291 402 284 373.5 Q277 345 269 316 L178 0 L123 0 L14 660 Z M221 725 Q205 725 195 734.5 Q185 744 185 761 Q185 778 195 788 Q205 798 221 798 Q237 798 247.5 788 Q258 778 258 761 Q258 744 247.5 734.5 Q237 725 221 725 Z M379 725 Q363 725 352.5 734.5 Q342 744 342 761 Q342 778 352.5 788 Q363 798 379 798 Q395 798 405 788 Q415 778 415 761 Q415 744 405 734.5 Q395 725 379 725 Z " />
<glyph glyph-name="Ygrave" unicode="&#x1ef2;" horiz-adv-x="600" d="M277 242 L51 659 L98 659 L215 441 Q238 403 257.5 364.5 Q277 326 300 286 L304 286 Q327 326 348 365 Q369 404 390 442 L504 659 L549 659 L323 242 L323 0 L277 0 L277 242 Z M187 815 L245 815 L337 709 L297 709 L187 815 Z " />
<glyph glyph-name="Yacute" unicode="&#xdd;" horiz-adv-x="600" d="M277 242 L51 659 L98 659 L215 441 Q238 403 257.5 364.5 Q277 326 300 286 L304 286 Q327 326 348 365 Q369 404 390 442 L504 659 L549 659 L323 242 L323 0 L277 0 L277 242 Z M303 709 L263 709 L355 815 L413 815 L303 709 Z " />
<glyph glyph-name="Ycircumflex" unicode="&#x176;" horiz-adv-x="600" d="M277 242 L51 659 L98 659 L215 441 Q238 403 257.5 364.5 Q277 326 300 286 L304 286 Q327 326 348 365 Q369 404 390 442 L504 659 L549 659 L323 242 L323 0 L277 0 L277 242 Z M183 709 L279 815 L321 815 L417 709 L377 709 L302 781 L298 781 L223 709 L183 709 Z " />
<glyph glyph-name="Ydieresis" unicode="&#x178;" horiz-adv-x="600" d="M277 242 L51 659 L98 659 L215 441 Q238 403 257.5 364.5 Q277 326 300 286 L304 286 Q327 326 348 365 Q369 404 390 442 L504 659 L549 659 L323 242 L323 0 L277 0 L277 242 Z M221 725 Q205 725 195 734.5 Q185 744 185 761 Q185 778 195 788 Q205 798 221 798 Q237 798 247.5 788 Q258 778 258 761 Q258 744 247.5 734.5 Q237 725 221 725 Z M379 725 Q363 725 352.5 734.5 Q342 744 342 761 Q342 778 352.5 788 Q363 798 379 798 Q395 798 405 788 Q415 778 415 761 Q415 744 405 734.5 Q395 725 379 725 Z " />
<glyph glyph-name="uni1E8E" unicode="&#x1e8e;" horiz-adv-x="600" d="M277 242 L51 659 L98 659 L215 441 Q238 403 257.5 364.5 Q277 326 300 286 L304 286 Q327 326 348 365 Q369 404 390 442 L504 659 L549 659 L323 242 L323 0 L277 0 L277 242 Z M300 721 Q283 721 271.5 732 Q260 743 260 762 Q260 779 271.5 790 Q283 801 300 801 Q317 801 328.5 790 Q340 779 340 762 Q340 743 328.5 732 Q317 721 300 721 Z " />
<glyph glyph-name="uni1EF4" unicode="&#x1ef4;" horiz-adv-x="600" d="M277 242 L51 659 L98 659 L215 441 Q238 403 257.5 364.5 Q277 326 300 286 L304 286 Q327 326 348 365 Q369 404 390 442 L504 659 L549 659 L323 242 L323 0 L277 0 L277 242 Z M300 -210 Q280 -210 266.5 -197.5 Q253 -185 253 -162 Q253 -140 266.5 -127 Q280 -114 300 -114 Q320 -114 333.5 -127 Q347 -140 347 -162 Q347 -185 333.5 -197.5 Q320 -210 300 -210 Z " />
<glyph glyph-name="uni1EF6" unicode="&#x1ef6;" horiz-adv-x="600" d="M277 242 L51 659 L98 659 L215 441 Q238 403 257.5 364.5 Q277 326 300 286 L304 286 Q327 326 348 365 Q369 404 390 442 L504 659 L549 659 L323 242 L323 0 L277 0 L277 242 Z M268 729 Q295 737 313 749.5 Q331 762 331 783 Q331 828 246 831 L250 863 Q275 862 297 857.5 Q319 853 335.5 844 Q352 835 361.5 821.5 Q371 808 371 789 Q371 769 363 755 Q355 741 341.5 731 Q328 721 311 714 Q294 707 276 702 L268 729 Z " />
<glyph glyph-name="uni1EF8" unicode="&#x1ef8;" horiz-adv-x="600" d="M277 242 L51 659 L98 659 L215 441 Q238 403 257.5 364.5 Q277 326 300 286 L304 286 Q327 326 348 365 Q369 404 390 442 L504 659 L549 659 L323 242 L323 0 L277 0 L277 242 Z M359 716 Q339 716 323.5 725 Q308 734 294.5 744.5 Q281 755 268 764 Q255 773 240 773 Q224 773 213 757.5 Q202 742 199 716 L170 716 Q171 733 176 749.5 Q181 766 190 779 Q199 792 211.5 800 Q224 808 241 808 Q261 808 276 799 Q291 790 304.5 779.5 Q318 769 331.5 760.5 Q345 752 360 752 Q376 752 387 767 Q398 782 401 808 L430 808 Q429 791 424 775 Q419 759 410 745.5 Q401 732 388.5 724 Q376 716 359 716 Z " />
<glyph glyph-name="Zacute" unicode="&#x179;" horiz-adv-x="600" d="M70 28 L473 621 L104 621 L104 660 L528 660 L528 632 L125 40 L535 40 L535 0 L70 0 L70 28 Z M319 709 L279 709 L371 815 L429 815 L319 709 Z " />
<glyph glyph-name="Zcaron" unicode="&#x17d;" horiz-adv-x="600" d="M70 28 L473 621 L104 621 L104 660 L528 660 L528 632 L125 40 L535 40 L535 0 L70 0 L70 28 Z M433 815 L337 709 L295 709 L199 815 L239 815 L314 743 L318 743 L393 815 L433 815 Z " />
<glyph glyph-name="Zdotaccent" unicode="&#x17b;" horiz-adv-x="600" d="M70 28 L473 621 L104 621 L104 660 L528 660 L528 632 L125 40 L535 40 L535 0 L70 0 L70 28 Z M316 721 Q299 721 287.5 732 Q276 743 276 762 Q276 779 287.5 790 Q299 801 316 801 Q333 801 344.5 790 Q356 779 356 762 Q356 743 344.5 732 Q333 721 316 721 Z " />
<glyph glyph-name="uni1E92" unicode="&#x1e92;" horiz-adv-x="600" d="M70 28 L473 621 L104 621 L104 660 L528 660 L528 632 L125 40 L535 40 L535 0 L70 0 L70 28 Z M312 -210 Q292 -210 278.5 -197.5 Q265 -185 265 -162 Q265 -140 278.5 -127 Q292 -114 312 -114 Q332 -114 345.5 -127 Q359 -140 359 -162 Q359 -185 345.5 -197.5 Q332 -210 312 -210 Z " />
<glyph glyph-name="Eth" unicode="&#xd0;" horiz-adv-x="600" d="M102 332 L25 332 L25 361 L102 365 L102 659 L253 659 Q329 659 385 636 Q441 613 478 570 Q515 527 533 467 Q551 407 551 332 Q551 257 533 195.5 Q515 134 478 90.5 Q441 47 385 23.5 Q329 0 254 0 L102 0 L102 332 Z M249 39 Q315 39 363 60.5 Q411 82 442 121 Q473 160 488 213.5 Q503 267 503 332 Q503 396 488 449 Q473 502 442 540 Q411 578 363 599 Q315 620 249 620 L148 620 L148 365 L312 365 L312 332 L148 332 L148 39 L249 39 Z " />
<glyph glyph-name="Thorn" unicode="&#xde;" horiz-adv-x="600" d="M118 659 L164 659 L164 542 L298 542 Q353 542 396.5 532 Q440 522 470.5 500.5 Q501 479 517 444 Q533 409 533 358 Q533 261 471 213.5 Q409 166 298 166 L164 166 L164 0 L118 0 L118 659 Z M286 205 Q388 205 436.5 241 Q485 277 485 358 Q485 440 435.5 471.5 Q386 503 286 503 L164 503 L164 205 L286 205 Z " />
<glyph glyph-name="uni018F" unicode="&#x18f;" horiz-adv-x="600" d="M111 294 Q115 233 129.5 183.5 Q144 134 168 99.5 Q192 65 225 46.5 Q258 28 299 28 Q342 28 377 47 Q412 66 437.5 101 Q463 136 478.5 185.5 Q494 235 497 296 L111 296 L111 294 Z M135 597 Q164 629 206 650 Q248 671 303 671 Q360 671 405 647.5 Q450 624 481 579.5 Q512 535 528 472 Q544 409 544 331 Q544 253 526.5 189.5 Q509 126 476.5 81.5 Q444 37 399 12.5 Q354 -12 299 -12 Q244 -12 200.5 13 Q157 38 127 83 Q97 128 81 190 Q65 252 65 326 L65 333 L498 333 Q498 401 485.5 456 Q473 511 448 550 Q423 589 387 610 Q351 631 303 631 Q259 631 222.5 613.5 Q186 596 158 566 L135 597 Z " />
<glyph glyph-name="agrave" unicode="&#xe0;" horiz-adv-x="600" d="M92 120 Q92 160 113 190 Q134 220 178.5 242 Q223 264 292.5 278 Q362 292 460 301 Q460 331 453 358.5 Q446 386 429.5 407 Q413 428 385.5 440.5 Q358 453 317 453 Q290 453 264 447 Q238 441 214 431 Q190 421 170 409.5 Q150 398 135 388 L115 421 Q129 431 151.5 443.5 Q174 456 201 466.5 Q228 477 259 484.5 Q290 492 322 492 Q370 492 404.5 477.5 Q439 463 461 438 Q483 413 493.5 379.5 Q504 346 504 307 L504 0 L467 0 L462 72 L460 72 Q418 39 365.5 13.5 Q313 -12 259 -12 Q227 -12 196.5 -4 Q166 4 143 20 Q120 36 106 61 Q92 86 92 120 Z M137 122 Q137 96 148 78 Q159 60 177.5 48.5 Q196 37 219.5 31.5 Q243 26 267 26 Q356 26 460 113 L460 267 Q368 259 306.5 246 Q245 233 207 215 Q169 197 153 174 Q137 151 137 122 Z M228 710 L281 710 L373 572 L335 572 L228 710 Z " />
<glyph glyph-name="aacute" unicode="&#xe1;" horiz-adv-x="600" d="M92 120 Q92 160 113 190 Q134 220 178.5 242 Q223 264 292.5 278 Q362 292 460 301 Q460 331 453 358.5 Q446 386 429.5 407 Q413 428 385.5 440.5 Q358 453 317 453 Q290 453 264 447 Q238 441 214 431 Q190 421 170 409.5 Q150 398 135 388 L115 421 Q129 431 151.5 443.5 Q174 456 201 466.5 Q228 477 259 484.5 Q290 492 322 492 Q370 492 404.5 477.5 Q439 463 461 438 Q483 413 493.5 379.5 Q504 346 504 307 L504 0 L467 0 L462 72 L460 72 Q418 39 365.5 13.5 Q313 -12 259 -12 Q227 -12 196.5 -4 Q166 4 143 20 Q120 36 106 61 Q92 86 92 120 Z M137 122 Q137 96 148 78 Q159 60 177.5 48.5 Q196 37 219.5 31.5 Q243 26 267 26 Q356 26 460 113 L460 267 Q368 259 306.5 246 Q245 233 207 215 Q169 197 153 174 Q137 151 137 122 Z M299 572 L261 572 L353 710 L406 710 L299 572 Z " />
<glyph glyph-name="acircumflex" unicode="&#xe2;" horiz-adv-x="600" d="M92 120 Q92 160 113 190 Q134 220 178.5 242 Q223 264 292.5 278 Q362 292 460 301 Q460 331 453 358.5 Q446 386 429.5 407 Q413 428 385.5 440.5 Q358 453 317 453 Q290 453 264 447 Q238 441 214 431 Q190 421 170 409.5 Q150 398 135 388 L115 421 Q129 431 151.5 443.5 Q174 456 201 466.5 Q228 477 259 484.5 Q290 492 322 492 Q370 492 404.5 477.5 Q439 463 461 438 Q483 413 493.5 379.5 Q504 346 504 307 L504 0 L467 0 L462 72 L460 72 Q418 39 365.5 13.5 Q313 -12 259 -12 Q227 -12 196.5 -4 Q166 4 143 20 Q120 36 106 61 Q92 86 92 120 Z M137 122 Q137 96 148 78 Q159 60 177.5 48.5 Q196 37 219.5 31.5 Q243 26 267 26 Q356 26 460 113 L460 267 Q368 259 306.5 246 Q245 233 207 215 Q169 197 153 174 Q137 151 137 122 Z M297 710 L337 710 L432 572 L394 572 L319 673 L315 673 L240 572 L202 572 L297 710 Z " />
<glyph glyph-name="atilde" unicode="&#xe3;" horiz-adv-x="600" d="M92 120 Q92 160 113 190 Q134 220 178.5 242 Q223 264 292.5 278 Q362 292 460 301 Q460 331 453 358.5 Q446 386 429.5 407 Q413 428 385.5 440.5 Q358 453 317 453 Q290 453 264 447 Q238 441 214 431 Q190 421 170 409.5 Q150 398 135 388 L115 421 Q129 431 151.5 443.5 Q174 456 201 466.5 Q228 477 259 484.5 Q290 492 322 492 Q370 492 404.5 477.5 Q439 463 461 438 Q483 413 493.5 379.5 Q504 346 504 307 L504 0 L467 0 L462 72 L460 72 Q418 39 365.5 13.5 Q313 -12 259 -12 Q227 -12 196.5 -4 Q166 4 143 20 Q120 36 106 61 Q92 86 92 120 Z M137 122 Q137 96 148 78 Q159 60 177.5 48.5 Q196 37 219.5 31.5 Q243 26 267 26 Q356 26 460 113 L460 267 Q368 259 306.5 246 Q245 233 207 215 Q169 197 153 174 Q137 151 137 122 Z M193 581 Q194 597 198 613.5 Q202 630 210.5 642.5 Q219 655 232 663 Q245 671 263 671 Q281 671 295.5 662 Q310 653 323 642.5 Q336 632 348 623.5 Q360 615 373 615 Q389 615 398.5 630 Q408 645 411 671 L441 671 Q440 655 435.5 639 Q431 623 423 610 Q415 597 402 589 Q389 581 371 581 Q353 581 338.5 589.5 Q324 598 311.5 608.5 Q299 619 286.5 628 Q274 637 261 637 Q229 637 223 581 L193 581 L193 581 Z " />
<glyph glyph-name="adieresis" unicode="&#xe4;" horiz-adv-x="600" d="M92 120 Q92 160 113 190 Q134 220 178.5 242 Q223 264 292.5 278 Q362 292 460 301 Q460 331 453 358.5 Q446 386 429.5 407 Q413 428 385.5 440.5 Q358 453 317 453 Q290 453 264 447 Q238 441 214 431 Q190 421 170 409.5 Q150 398 135 388 L115 421 Q129 431 151.5 443.5 Q174 456 201 466.5 Q228 477 259 484.5 Q290 492 322 492 Q370 492 404.5 477.5 Q439 463 461 438 Q483 413 493.5 379.5 Q504 346 504 307 L504 0 L467 0 L462 72 L460 72 Q418 39 365.5 13.5 Q313 -12 259 -12 Q227 -12 196.5 -4 Q166 4 143 20 Q120 36 106 61 Q92 86 92 120 Z M137 122 Q137 96 148 78 Q159 60 177.5 48.5 Q196 37 219.5 31.5 Q243 26 267 26 Q356 26 460 113 L460 267 Q368 259 306.5 246 Q245 233 207 215 Q169 197 153 174 Q137 151 137 122 Z M228 598 Q211 598 200 610 Q189 622 189 639 Q189 656 200 668.5 Q211 681 228 681 Q245 681 256.5 668.5 Q268 656 268 639 Q268 622 256.5 610 Q245 598 228 598 Z M406 598 Q389 598 377.5 610 Q366 622 366 639 Q366 656 377.5 668.5 Q389 681 406 681 Q423 681 434 668.5 Q445 656 445 639 Q445 622 434 610 Q423 598 406 598 Z " />
<glyph glyph-name="amacron" unicode="&#x101;" horiz-adv-x="600" d="M92 120 Q92 160 113 190 Q134 220 178.5 242 Q223 264 292.5 278 Q362 292 460 301 Q460 331 453 358.5 Q446 386 429.5 407 Q413 428 385.5 440.5 Q358 453 317 453 Q290 453 264 447 Q238 441 214 431 Q190 421 170 409.5 Q150 398 135 388 L115 421 Q129 431 151.5 443.5 Q174 456 201 466.5 Q228 477 259 484.5 Q290 492 322 492 Q370 492 404.5 477.5 Q439 463 461 438 Q483 413 493.5 379.5 Q504 346 504 307 L504 0 L467 0 L462 72 L460 72 Q418 39 365.5 13.5 Q313 -12 259 -12 Q227 -12 196.5 -4 Q166 4 143 20 Q120 36 106 61 Q92 86 92 120 Z M137 122 Q137 96 148 78 Q159 60 177.5 48.5 Q196 37 219.5 31.5 Q243 26 267 26 Q356 26 460 113 L460 267 Q368 259 306.5 246 Q245 233 207 215 Q169 197 153 174 Q137 151 137 122 Z M204 642 L430 642 L430 606 L204 606 L204 642 Z " />
<glyph glyph-name="abreve" unicode="&#x103;" horiz-adv-x="600" d="M92 120 Q92 160 113 190 Q134 220 178.5 242 Q223 264 292.5 278 Q362 292 460 301 Q460 331 453 358.5 Q446 386 429.5 407 Q413 428 385.5 440.5 Q358 453 317 453 Q290 453 264 447 Q238 441 214 431 Q190 421 170 409.5 Q150 398 135 388 L115 421 Q129 431 151.5 443.5 Q174 456 201 466.5 Q228 477 259 484.5 Q290 492 322 492 Q370 492 404.5 477.5 Q439 463 461 438 Q483 413 493.5 379.5 Q504 346 504 307 L504 0 L467 0 L462 72 L460 72 Q418 39 365.5 13.5 Q313 -12 259 -12 Q227 -12 196.5 -4 Q166 4 143 20 Q120 36 106 61 Q92 86 92 120 Z M137 122 Q137 96 148 78 Q159 60 177.5 48.5 Q196 37 219.5 31.5 Q243 26 267 26 Q356 26 460 113 L460 267 Q368 259 306.5 246 Q245 233 207 215 Q169 197 153 174 Q137 151 137 122 Z M317 576 Q286 576 264.5 587.5 Q243 599 228.5 617 Q214 635 206.5 656 Q199 677 197 697 L230 697 Q232 680 238.5 664.5 Q245 649 255.5 636 Q266 623 281.5 615.5 Q297 608 317 608 Q337 608 352.5 615.5 Q368 623 378.5 636 Q389 649 395.5 664.5 Q402 680 404 697 L437 697 Q435 677 427.5 656 Q420 635 405.5 617 Q391 599 369.5 587.5 Q348 576 317 576 Z " />
<glyph glyph-name="aring" unicode="&#xe5;" horiz-adv-x="600" d="M92 120 Q92 160 113 190 Q134 220 178.5 242 Q223 264 292.5 278 Q362 292 460 301 Q460 331 453 358.5 Q446 386 429.5 407 Q413 428 385.5 440.5 Q358 453 317 453 Q290 453 264 447 Q238 441 214 431 Q190 421 170 409.5 Q150 398 135 388 L115 421 Q129 431 151.5 443.5 Q174 456 201 466.5 Q228 477 259 484.5 Q290 492 322 492 Q370 492 404.5 477.5 Q439 463 461 438 Q483 413 493.5 379.5 Q504 346 504 307 L504 0 L467 0 L462 72 L460 72 Q418 39 365.5 13.5 Q313 -12 259 -12 Q227 -12 196.5 -4 Q166 4 143 20 Q120 36 106 61 Q92 86 92 120 Z M137 122 Q137 96 148 78 Q159 60 177.5 48.5 Q196 37 219.5 31.5 Q243 26 267 26 Q356 26 460 113 L460 267 Q368 259 306.5 246 Q245 233 207 215 Q169 197 153 174 Q137 151 137 122 Z M317 539 Q282 539 258.5 563 Q235 587 235 625 Q235 664 258.5 688 Q282 712 317 712 Q352 712 375.5 688 Q399 664 399 625 Q399 587 375.5 563 Q352 539 317 539 Z M317 565 Q339 565 354 581.5 Q369 598 369 625 Q369 653 354 669.5 Q339 686 317 686 Q295 686 280 669.5 Q265 653 265 625 Q265 598 280 581.5 Q295 565 317 565 Z " />
<glyph glyph-name="uni01CE" unicode="&#x1ce;" horiz-adv-x="600" d="M92 120 Q92 160 113 190 Q134 220 178.5 242 Q223 264 292.5 278 Q362 292 460 301 Q460 331 453 358.5 Q446 386 429.5 407 Q413 428 385.5 440.5 Q358 453 317 453 Q290 453 264 447 Q238 441 214 431 Q190 421 170 409.5 Q150 398 135 388 L115 421 Q129 431 151.5 443.5 Q174 456 201 466.5 Q228 477 259 484.5 Q290 492 322 492 Q370 492 404.5 477.5 Q439 463 461 438 Q483 413 493.5 379.5 Q504 346 504 307 L504 0 L467 0 L462 72 L460 72 Q418 39 365.5 13.5 Q313 -12 259 -12 Q227 -12 196.5 -4 Q166 4 143 20 Q120 36 106 61 Q92 86 92 120 Z M137 122 Q137 96 148 78 Q159 60 177.5 48.5 Q196 37 219.5 31.5 Q243 26 267 26 Q356 26 460 113 L460 267 Q368 259 306.5 246 Q245 233 207 215 Q169 197 153 174 Q137 151 137 122 Z M202 710 L240 710 L315 609 L319 609 L394 710 L432 710 L337 572 L297 572 L202 710 Z " />
<glyph glyph-name="uni1EA1" unicode="&#x1ea1;" horiz-adv-x="600" d="M92 120 Q92 160 113 190 Q134 220 178.5 242 Q223 264 292.5 278 Q362 292 460 301 Q460 331 453 358.5 Q446 386 429.5 407 Q413 428 385.5 440.5 Q358 453 317 453 Q290 453 264 447 Q238 441 214 431 Q190 421 170 409.5 Q150 398 135 388 L115 421 Q129 431 151.5 443.5 Q174 456 201 466.5 Q228 477 259 484.5 Q290 492 322 492 Q370 492 404.5 477.5 Q439 463 461 438 Q483 413 493.5 379.5 Q504 346 504 307 L504 0 L467 0 L462 72 L460 72 Q418 39 365.5 13.5 Q313 -12 259 -12 Q227 -12 196.5 -4 Q166 4 143 20 Q120 36 106 61 Q92 86 92 120 Z M137 122 Q137 96 148 78 Q159 60 177.5 48.5 Q196 37 219.5 31.5 Q243 26 267 26 Q356 26 460 113 L460 267 Q368 259 306.5 246 Q245 233 207 215 Q169 197 153 174 Q137 151 137 122 Z M300 -210 Q280 -210 266.5 -197.5 Q253 -185 253 -162 Q253 -140 266.5 -127 Q280 -114 300 -114 Q320 -114 333.5 -127 Q347 -140 347 -162 Q347 -185 333.5 -197.5 Q320 -210 300 -210 Z " />
<glyph glyph-name="uni1EA3" unicode="&#x1ea3;" horiz-adv-x="600" d="M92 120 Q92 160 113 190 Q134 220 178.5 242 Q223 264 292.5 278 Q362 292 460 301 Q460 331 453 358.5 Q446 386 429.5 407 Q413 428 385.5 440.5 Q358 453 317 453 Q290 453 264 447 Q238 441 214 431 Q190 421 170 409.5 Q150 398 135 388 L115 421 Q129 431 151.5 443.5 Q174 456 201 466.5 Q228 477 259 484.5 Q290 492 322 492 Q370 492 404.5 477.5 Q439 463 461 438 Q483 413 493.5 379.5 Q504 346 504 307 L504 0 L467 0 L462 72 L460 72 Q418 39 365.5 13.5 Q313 -12 259 -12 Q227 -12 196.5 -4 Q166 4 143 20 Q120 36 106 61 Q92 86 92 120 Z M137 122 Q137 96 148 78 Q159 60 177.5 48.5 Q196 37 219.5 31.5 Q243 26 267 26 Q356 26 460 113 L460 267 Q368 259 306.5 246 Q245 233 207 215 Q169 197 153 174 Q137 151 137 122 Z M285 577 Q312 585 330 597.5 Q348 610 348 632 Q348 677 263 680 L267 712 Q292 711 314 706 Q336 701 352.5 692 Q369 683 378.5 669.5 Q388 656 388 637 Q388 617 380 603 Q372 589 358.5 579 Q345 569 328 562.5 Q311 556 293 551 L285 577 Z " />
<glyph glyph-name="uni1EA5" unicode="&#x1ea5;" horiz-adv-x="600" d="M92 120 Q92 160 113 190 Q134 220 178.5 242 Q223 264 292.5 278 Q362 292 460 301 Q460 331 453 358.5 Q446 386 429.5 407 Q413 428 385.5 440.5 Q358 453 317 453 Q290 453 264 447 Q238 441 214 431 Q190 421 170 409.5 Q150 398 135 388 L115 421 Q129 431 151.5 443.5 Q174 456 201 466.5 Q228 477 259 484.5 Q290 492 322 492 Q370 492 404.5 477.5 Q439 463 461 438 Q483 413 493.5 379.5 Q504 346 504 307 L504 0 L467 0 L462 72 L460 72 Q418 39 365.5 13.5 Q313 -12 259 -12 Q227 -12 196.5 -4 Q166 4 143 20 Q120 36 106 61 Q92 86 92 120 Z M137 122 Q137 96 148 78 Q159 60 177.5 48.5 Q196 37 219.5 31.5 Q243 26 267 26 Q356 26 460 113 L460 267 Q368 259 306.5 246 Q245 233 207 215 Q169 197 153 174 Q137 151 137 122 Z M298 686 L336 686 L420 572 L384 572 L319 650 L315 650 L250 572 L214 572 L298 686 Z M472 748 L518 748 L428 637 L395 637 L472 748 Z " />
<glyph glyph-name="uni1EA7" unicode="&#x1ea7;" horiz-adv-x="600" d="M92 120 Q92 160 113 190 Q134 220 178.5 242 Q223 264 292.5 278 Q362 292 460 301 Q460 331 453 358.5 Q446 386 429.5 407 Q413 428 385.5 440.5 Q358 453 317 453 Q290 453 264 447 Q238 441 214 431 Q190 421 170 409.5 Q150 398 135 388 L115 421 Q129 431 151.5 443.5 Q174 456 201 466.5 Q228 477 259 484.5 Q290 492 322 492 Q370 492 404.5 477.5 Q439 463 461 438 Q483 413 493.5 379.5 Q504 346 504 307 L504 0 L467 0 L462 72 L460 72 Q418 39 365.5 13.5 Q313 -12 259 -12 Q227 -12 196.5 -4 Q166 4 143 20 Q120 36 106 61 Q92 86 92 120 Z M137 122 Q137 96 148 78 Q159 60 177.5 48.5 Q196 37 219.5 31.5 Q243 26 267 26 Q356 26 460 113 L460 267 Q368 259 306.5 246 Q245 233 207 215 Q169 197 153 174 Q137 151 137 122 Z M298 686 L336 686 L420 572 L384 572 L319 650 L315 650 L250 572 L214 572 L298 686 Z M490 637 L457 637 L366 748 L413 748 L490 637 Z " />
<glyph glyph-name="uni1EA9" unicode="&#x1ea9;" horiz-adv-x="600" d="M92 120 Q92 160 113 190 Q134 220 178.5 242 Q223 264 292.5 278 Q362 292 460 301 Q460 331 453 358.5 Q446 386 429.5 407 Q413 428 385.5 440.5 Q358 453 317 453 Q290 453 264 447 Q238 441 214 431 Q190 421 170 409.5 Q150 398 135 388 L115 421 Q129 431 151.5 443.5 Q174 456 201 466.5 Q228 477 259 484.5 Q290 492 322 492 Q370 492 404.5 477.5 Q439 463 461 438 Q483 413 493.5 379.5 Q504 346 504 307 L504 0 L467 0 L462 72 L460 72 Q418 39 365.5 13.5 Q313 -12 259 -12 Q227 -12 196.5 -4 Q166 4 143 20 Q120 36 106 61 Q92 86 92 120 Z M137 122 Q137 96 148 78 Q159 60 177.5 48.5 Q196 37 219.5 31.5 Q243 26 267 26 Q356 26 460 113 L460 267 Q368 259 306.5 246 Q245 233 207 215 Q169 197 153 174 Q137 151 137 122 Z M298 686 L336 686 L420 572 L384 572 L319 650 L315 650 L250 572 L214 572 L298 686 Z M412 653 Q433 661 447 671.5 Q461 682 461 699 Q461 742 390 745 L393 774 Q438 772 468.5 756 Q499 740 499 704 Q499 687 492 674.5 Q485 662 473.5 653 Q462 644 448 638 Q434 632 420 628 L412 653 Z " />
<glyph glyph-name="uni1EAB" unicode="&#x1eab;" horiz-adv-x="600" d="M92 120 Q92 160 113 190 Q134 220 178.5 242 Q223 264 292.5 278 Q362 292 460 301 Q460 331 453 358.5 Q446 386 429.5 407 Q413 428 385.5 440.5 Q358 453 317 453 Q290 453 264 447 Q238 441 214 431 Q190 421 170 409.5 Q150 398 135 388 L115 421 Q129 431 151.5 443.5 Q174 456 201 466.5 Q228 477 259 484.5 Q290 492 322 492 Q370 492 404.5 477.5 Q439 463 461 438 Q483 413 493.5 379.5 Q504 346 504 307 L504 0 L467 0 L462 72 L460 72 Q418 39 365.5 13.5 Q313 -12 259 -12 Q227 -12 196.5 -4 Q166 4 143 20 Q120 36 106 61 Q92 86 92 120 Z M137 122 Q137 96 148 78 Q159 60 177.5 48.5 Q196 37 219.5 31.5 Q243 26 267 26 Q356 26 460 113 L460 267 Q368 259 306.5 246 Q245 233 207 215 Q169 197 153 174 Q137 151 137 122 Z M297 670 L337 670 L428 570 L392 570 L319 639 L315 639 L242 570 L206 570 L297 670 Z M196 706 Q197 720 201.5 734 Q206 748 214.5 759 Q223 770 236 776.5 Q249 783 266 783 Q284 783 297.5 776 Q311 769 322 760.5 Q333 752 344 745 Q355 738 368 738 Q402 738 410 783 L438 783 Q437 769 432.5 755 Q428 741 419.5 730 Q411 719 398 712.5 Q385 706 368 706 Q350 706 336.5 713 Q323 720 311.5 728.5 Q300 737 289.5 744 Q279 751 266 751 Q231 751 224 706 L196 706 Z " />
<glyph glyph-name="uni1EAD" unicode="&#x1ead;" horiz-adv-x="600" d="M92 120 Q92 160 113 190 Q134 220 178.5 242 Q223 264 292.5 278 Q362 292 460 301 Q460 331 453 358.5 Q446 386 429.5 407 Q413 428 385.5 440.5 Q358 453 317 453 Q290 453 264 447 Q238 441 214 431 Q190 421 170 409.5 Q150 398 135 388 L115 421 Q129 431 151.5 443.5 Q174 456 201 466.5 Q228 477 259 484.5 Q290 492 322 492 Q370 492 404.5 477.5 Q439 463 461 438 Q483 413 493.5 379.5 Q504 346 504 307 L504 0 L467 0 L462 72 L460 72 Q418 39 365.5 13.5 Q313 -12 259 -12 Q227 -12 196.5 -4 Q166 4 143 20 Q120 36 106 61 Q92 86 92 120 Z M137 122 Q137 96 148 78 Q159 60 177.5 48.5 Q196 37 219.5 31.5 Q243 26 267 26 Q356 26 460 113 L460 267 Q368 259 306.5 246 Q245 233 207 215 Q169 197 153 174 Q137 151 137 122 Z M297 710 L337 710 L432 572 L394 572 L319 673 L315 673 L240 572 L202 572 L297 710 Z M300 -210 Q280 -210 266.5 -197.5 Q253 -185 253 -162 Q253 -140 266.5 -127 Q280 -114 300 -114 Q320 -114 333.5 -127 Q347 -140 347 -162 Q347 -185 333.5 -197.5 Q320 -210 300 -210 Z " />
<glyph glyph-name="uni1EAF" unicode="&#x1eaf;" horiz-adv-x="600" d="M92 120 Q92 160 113 190 Q134 220 178.5 242 Q223 264 292.5 278 Q362 292 460 301 Q460 331 453 358.5 Q446 386 429.5 407 Q413 428 385.5 440.5 Q358 453 317 453 Q290 453 264 447 Q238 441 214 431 Q190 421 170 409.5 Q150 398 135 388 L115 421 Q129 431 151.5 443.5 Q174 456 201 466.5 Q228 477 259 484.5 Q290 492 322 492 Q370 492 404.5 477.5 Q439 463 461 438 Q483 413 493.5 379.5 Q504 346 504 307 L504 0 L467 0 L462 72 L460 72 Q418 39 365.5 13.5 Q313 -12 259 -12 Q227 -12 196.5 -4 Q166 4 143 20 Q120 36 106 61 Q92 86 92 120 Z M137 122 Q137 96 148 78 Q159 60 177.5 48.5 Q196 37 219.5 31.5 Q243 26 267 26 Q356 26 460 113 L460 267 Q368 259 306.5 246 Q245 233 207 215 Q169 197 153 174 Q137 151 137 122 Z M359 777 L405 777 L319 667 L285 667 L359 777 Z M317 576 Q286 576 264.5 587.5 Q243 599 229 616.5 Q215 634 207.5 655 Q200 676 198 695 L229 695 Q233 662 254.5 634.5 Q276 607 317 607 Q338 607 353.5 614.5 Q369 622 379.5 634.5 Q390 647 396.5 662.5 Q403 678 405 695 L436 695 Q434 676 426.5 655 Q419 634 405 616.5 Q391 599 369.5 587.5 Q348 576 317 576 Z " />
<glyph glyph-name="uni1EB1" unicode="&#x1eb1;" horiz-adv-x="600" d="M92 120 Q92 160 113 190 Q134 220 178.5 242 Q223 264 292.5 278 Q362 292 460 301 Q460 331 453 358.5 Q446 386 429.5 407 Q413 428 385.5 440.5 Q358 453 317 453 Q290 453 264 447 Q238 441 214 431 Q190 421 170 409.5 Q150 398 135 388 L115 421 Q129 431 151.5 443.5 Q174 456 201 466.5 Q228 477 259 484.5 Q290 492 322 492 Q370 492 404.5 477.5 Q439 463 461 438 Q483 413 493.5 379.5 Q504 346 504 307 L504 0 L467 0 L462 72 L460 72 Q418 39 365.5 13.5 Q313 -12 259 -12 Q227 -12 196.5 -4 Q166 4 143 20 Q120 36 106 61 Q92 86 92 120 Z M137 122 Q137 96 148 78 Q159 60 177.5 48.5 Q196 37 219.5 31.5 Q243 26 267 26 Q356 26 460 113 L460 267 Q368 259 306.5 246 Q245 233 207 215 Q169 197 153 174 Q137 151 137 122 Z M349 667 L315 667 L229 777 L275 777 L349 667 Z M317 576 Q286 576 264.5 587.5 Q243 599 229 616.5 Q215 634 207.5 655 Q200 676 198 695 L229 695 Q233 662 254.5 634.5 Q276 607 317 607 Q338 607 353.5 614.5 Q369 622 379.5 634.5 Q390 647 396.5 662.5 Q403 678 405 695 L436 695 Q434 676 426.5 655 Q419 634 405 616.5 Q391 599 369.5 587.5 Q348 576 317 576 Z " />
<glyph glyph-name="uni1EB3" unicode="&#x1eb3;" horiz-adv-x="600" d="M92 120 Q92 160 113 190 Q134 220 178.5 242 Q223 264 292.5 278 Q362 292 460 301 Q460 331 453 358.5 Q446 386 429.5 407 Q413 428 385.5 440.5 Q358 453 317 453 Q290 453 264 447 Q238 441 214 431 Q190 421 170 409.5 Q150 398 135 388 L115 421 Q129 431 151.5 443.5 Q174 456 201 466.5 Q228 477 259 484.5 Q290 492 322 492 Q370 492 404.5 477.5 Q439 463 461 438 Q483 413 493.5 379.5 Q504 346 504 307 L504 0 L467 0 L462 72 L460 72 Q418 39 365.5 13.5 Q313 -12 259 -12 Q227 -12 196.5 -4 Q166 4 143 20 Q120 36 106 61 Q92 86 92 120 Z M137 122 Q137 96 148 78 Q159 60 177.5 48.5 Q196 37 219.5 31.5 Q243 26 267 26 Q356 26 460 113 L460 267 Q368 259 306.5 246 Q245 233 207 215 Q169 197 153 174 Q137 151 137 122 Z M317 576 Q286 576 264.5 587.5 Q243 599 229 616.5 Q215 634 207.5 655 Q200 676 198 695 L229 695 Q233 662 254.5 634.5 Q276 607 317 607 Q338 607 353.5 614.5 Q369 622 379.5 634.5 Q390 647 396.5 662.5 Q403 678 405 695 L436 695 Q434 676 426.5 655 Q419 634 405 616.5 Q391 599 369.5 587.5 Q348 576 317 576 Z M287 701 Q309 708 322.5 718.5 Q336 729 336 746 Q336 769 318.5 779.5 Q301 790 265 792 L269 821 Q314 819 344 803 Q374 787 374 752 Q374 734 367 721.5 Q360 709 348.5 700 Q337 691 323 685 Q309 679 295 675 L287 701 Z " />
<glyph glyph-name="uni1EB5" unicode="&#x1eb5;" horiz-adv-x="600" d="M92 120 Q92 160 113 190 Q134 220 178.5 242 Q223 264 292.5 278 Q362 292 460 301 Q460 331 453 358.5 Q446 386 429.5 407 Q413 428 385.5 440.5 Q358 453 317 453 Q290 453 264 447 Q238 441 214 431 Q190 421 170 409.5 Q150 398 135 388 L115 421 Q129 431 151.5 443.5 Q174 456 201 466.5 Q228 477 259 484.5 Q290 492 322 492 Q370 492 404.5 477.5 Q439 463 461 438 Q483 413 493.5 379.5 Q504 346 504 307 L504 0 L467 0 L462 72 L460 72 Q418 39 365.5 13.5 Q313 -12 259 -12 Q227 -12 196.5 -4 Q166 4 143 20 Q120 36 106 61 Q92 86 92 120 Z M137 122 Q137 96 148 78 Q159 60 177.5 48.5 Q196 37 219.5 31.5 Q243 26 267 26 Q356 26 460 113 L460 267 Q368 259 306.5 246 Q245 233 207 215 Q169 197 153 174 Q137 151 137 122 Z M317 576 Q286 576 265 585 Q244 594 230 608 Q216 622 209 639.5 Q202 657 200 675 L231 675 Q236 649 256.5 628 Q277 607 317 607 Q357 607 377.5 628 Q398 649 403 675 L434 675 Q432 657 425 639.5 Q418 622 404 608 Q390 594 369 585 Q348 576 317 576 Z M196 706 Q197 720 201.5 734 Q206 748 214.5 759 Q223 770 236 776.5 Q249 783 266 783 Q284 783 297.5 776 Q311 769 322 760.5 Q333 752 344 745 Q355 738 368 738 Q402 738 410 783 L438 783 Q437 769 432.5 755 Q428 741 419.5 730 Q411 719 398 712.5 Q385 706 368 706 Q350 706 336.5 713 Q323 720 311.5 728.5 Q300 737 289.5 744 Q279 751 266 751 Q231 751 224 706 L196 706 Z " />
<glyph glyph-name="uni1EB7" unicode="&#x1eb7;" horiz-adv-x="600" d="M92 120 Q92 160 113 190 Q134 220 178.5 242 Q223 264 292.5 278 Q362 292 460 301 Q460 331 453 358.5 Q446 386 429.5 407 Q413 428 385.5 440.5 Q358 453 317 453 Q290 453 264 447 Q238 441 214 431 Q190 421 170 409.5 Q150 398 135 388 L115 421 Q129 431 151.5 443.5 Q174 456 201 466.5 Q228 477 259 484.5 Q290 492 322 492 Q370 492 404.5 477.5 Q439 463 461 438 Q483 413 493.5 379.5 Q504 346 504 307 L504 0 L467 0 L462 72 L460 72 Q418 39 365.5 13.5 Q313 -12 259 -12 Q227 -12 196.5 -4 Q166 4 143 20 Q120 36 106 61 Q92 86 92 120 Z M137 122 Q137 96 148 78 Q159 60 177.5 48.5 Q196 37 219.5 31.5 Q243 26 267 26 Q356 26 460 113 L460 267 Q368 259 306.5 246 Q245 233 207 215 Q169 197 153 174 Q137 151 137 122 Z M317 576 Q286 576 264.5 587.5 Q243 599 228.5 617 Q214 635 206.5 656 Q199 677 197 697 L230 697 Q232 680 238.5 664.5 Q245 649 255.5 636 Q266 623 281.5 615.5 Q297 608 317 608 Q337 608 352.5 615.5 Q368 623 378.5 636 Q389 649 395.5 664.5 Q402 680 404 697 L437 697 Q435 677 427.5 656 Q420 635 405.5 617 Q391 599 369.5 587.5 Q348 576 317 576 Z M300 -210 Q280 -210 266.5 -197.5 Q253 -185 253 -162 Q253 -140 266.5 -127 Q280 -114 300 -114 Q320 -114 333.5 -127 Q347 -140 347 -162 Q347 -185 333.5 -197.5 Q320 -210 300 -210 Z " />
<glyph glyph-name="aogonek" unicode="&#x105;" horiz-adv-x="600" d="M92 120 Q92 160 113 190 Q134 220 178.5 242 Q223 264 292.5 278 Q362 292 460 301 Q460 331 453 358.5 Q446 386 429.5 407 Q413 428 385.5 440.5 Q358 453 317 453 Q290 453 264 447 Q238 441 214 431 Q190 421 170 409.5 Q150 398 135 388 L115 421 Q129 431 151.5 443.5 Q174 456 201 466.5 Q228 477 259 484.5 Q290 492 322 492 Q370 492 404.5 477.5 Q439 463 461 438 Q483 413 493.5 379.5 Q504 346 504 307 L504 0 Q466 -19 442 -51.5 Q418 -84 418 -116 Q418 -142 433 -155 Q448 -168 467 -168 Q492 -168 510 -154 L526 -180 Q515 -190 496 -196.5 Q477 -203 461 -203 Q426 -203 403 -183 Q380 -163 380 -122 Q380 -84 406 -49.5 Q432 -15 467 7 L462 72 L460 72 Q418 39 365.5 13.5 Q313 -12 259 -12 Q227 -12 196.5 -4 Q166 4 143 20 Q120 36 106 61 Q92 86 92 120 Z M137 122 Q137 96 148 78 Q159 60 177.5 48.5 Q196 37 219.5 31.5 Q243 26 267 26 Q356 26 460 113 L460 267 Q368 259 306.5 246 Q245 233 207 215 Q169 197 153 174 Q137 151 137 122 Z " />
<glyph glyph-name="ae" unicode="&#xe6;" horiz-adv-x="600" d="M17 124 Q17 194 83 239 Q149 284 279 301 Q279 334 273.5 362 Q268 390 256 410.5 Q244 431 224 442.5 Q204 454 175 454 Q160 454 143.5 450 Q127 446 110.5 440 Q94 434 79.5 426 Q65 418 54 410 L35 442 Q59 458 98 475 Q137 492 184 492 Q235 492 266 460 Q297 428 308 380 Q331 432 368.5 462 Q406 492 457 492 Q493 492 520 475 Q547 458 564.5 428.5 Q582 399 590.5 360.5 Q599 322 599 280 Q599 270 599 259 Q599 248 597 234 L320 234 Q320 189 329 151 Q338 113 355 85 Q372 57 398.5 41.5 Q425 26 461 26 Q493 26 520 36.5 Q547 47 567 60 L585 29 Q562 14 531.5 1 Q501 -12 459 -12 Q407 -12 371 14 Q335 40 312 87 Q270 40 227 14 Q184 -12 143 -12 Q88 -12 52.5 22 Q17 56 17 124 Z M559 268 Q559 305 554 339 Q549 373 536.5 398.5 Q524 424 504 439 Q484 454 454 454 Q394 454 359 404 Q324 354 321 268 L559 268 Z M61 124 Q61 75 85.5 50.5 Q110 26 151 26 Q183 26 223 49.5 Q263 73 296 118 Q288 144 283.5 175 Q279 206 279 240 L279 267 Q162 249 111.5 214.5 Q61 180 61 124 Z " />
<glyph glyph-name="uni0180" unicode="&#x180;" horiz-adv-x="600" d="M150 98 Q192 60 235 43.5 Q278 27 308 27 Q347 27 379.5 42.5 Q412 58 435.5 85.5 Q459 113 472.5 151.5 Q486 190 486 237 Q486 279 477 315 Q468 351 448.5 377 Q429 403 397.5 418 Q366 433 322 433 Q284 433 239.5 411.5 Q195 390 150 345 L150 98 Z M147 388 Q186 426 234 449 Q282 472 329 472 Q380 472 418 455.5 Q456 439 481.5 408 Q507 377 520 334 Q533 291 533 237 Q533 178 514.5 132 Q496 86 465.5 54 Q435 22 394.5 5 Q354 -12 310 -12 Q273 -12 229 6 Q185 24 149 54 L147 54 L142 0 L105 0 L105 581 L29 581 L29 610 L105 614 L105 719 L150 719 L150 614 L379 614 L379 581 L150 581 L150 491 L147 388 Z " />
<glyph glyph-name="ccedilla" unicode="&#xe7;" horiz-adv-x="600" d="M87 239 Q87 299 107.5 346.5 Q128 394 164 426 Q200 458 247.5 475 Q295 492 349 492 Q409 492 450.5 470 Q492 448 522 419 L496 389 Q465 418 430 435.5 Q395 453 350 453 Q302 453 262 437.5 Q222 422 193.5 393.5 Q165 365 149.5 326 Q134 287 134 239 Q134 192 149.5 153 Q165 114 193 86 Q221 58 261 42.5 Q301 27 349 27 Q398 27 438.5 46.5 Q479 66 511 96 L534 65 Q497 30 450.5 9 Q404 -12 347 -12 Q291 -12 243.5 5 Q196 22 161 54 Q126 86 106.5 132.5 Q87 179 87 239 Z M335 2 L370 2 L341 -54 Q365 -62 383 -77.5 Q401 -93 401 -123 Q401 -143 390.5 -157.5 Q380 -172 362.5 -182 Q345 -192 322.5 -198.5 Q300 -205 276 -208 L269 -178 Q311 -172 336.5 -160 Q362 -148 362 -127 Q362 -104 343 -93 Q324 -82 295 -74 L335 2 Z " />
<glyph glyph-name="cacute" unicode="&#x107;" horiz-adv-x="600" d="M87 239 Q87 299 107.5 346.5 Q128 394 164 426 Q200 458 247.5 475 Q295 492 349 492 Q409 492 450.5 470 Q492 448 522 419 L496 389 Q465 418 430 435.5 Q395 453 350 453 Q302 453 262 437.5 Q222 422 193.5 393.5 Q165 365 149.5 326 Q134 287 134 239 Q134 192 149.5 153 Q165 114 193 86 Q221 58 261 42.5 Q301 27 349 27 Q398 27 438.5 46.5 Q479 66 511 96 L534 65 Q497 30 450.5 9 Q404 -12 347 -12 Q291 -12 243.5 5 Q196 22 161 54 Q126 86 106.5 132.5 Q87 179 87 239 Z M327 572 L289 572 L381 710 L434 710 L327 572 Z " />
<glyph glyph-name="ccircumflex" unicode="&#x109;" horiz-adv-x="600" d="M87 239 Q87 299 107.5 346.5 Q128 394 164 426 Q200 458 247.5 475 Q295 492 349 492 Q409 492 450.5 470 Q492 448 522 419 L496 389 Q465 418 430 435.5 Q395 453 350 453 Q302 453 262 437.5 Q222 422 193.5 393.5 Q165 365 149.5 326 Q134 287 134 239 Q134 192 149.5 153 Q165 114 193 86 Q221 58 261 42.5 Q301 27 349 27 Q398 27 438.5 46.5 Q479 66 511 96 L534 65 Q497 30 450.5 9 Q404 -12 347 -12 Q291 -12 243.5 5 Q196 22 161 54 Q126 86 106.5 132.5 Q87 179 87 239 Z M325 710 L365 710 L460 572 L422 572 L347 673 L343 673 L268 572 L230 572 L325 710 Z " />
<glyph glyph-name="ccaron" unicode="&#x10d;" horiz-adv-x="600" d="M87 239 Q87 299 107.5 346.5 Q128 394 164 426 Q200 458 247.5 475 Q295 492 349 492 Q409 492 450.5 470 Q492 448 522 419 L496 389 Q465 418 430 435.5 Q395 453 350 453 Q302 453 262 437.5 Q222 422 193.5 393.5 Q165 365 149.5 326 Q134 287 134 239 Q134 192 149.5 153 Q165 114 193 86 Q221 58 261 42.5 Q301 27 349 27 Q398 27 438.5 46.5 Q479 66 511 96 L534 65 Q497 30 450.5 9 Q404 -12 347 -12 Q291 -12 243.5 5 Q196 22 161 54 Q126 86 106.5 132.5 Q87 179 87 239 Z M230 710 L268 710 L343 609 L347 609 L422 710 L460 710 L365 572 L325 572 L230 710 Z " />
<glyph glyph-name="cdotaccent" unicode="&#x10b;" horiz-adv-x="600" d="M87 239 Q87 299 107.5 346.5 Q128 394 164 426 Q200 458 247.5 475 Q295 492 349 492 Q409 492 450.5 470 Q492 448 522 419 L496 389 Q465 418 430 435.5 Q395 453 350 453 Q302 453 262 437.5 Q222 422 193.5 393.5 Q165 365 149.5 326 Q134 287 134 239 Q134 192 149.5 153 Q165 114 193 86 Q221 58 261 42.5 Q301 27 349 27 Q398 27 438.5 46.5 Q479 66 511 96 L534 65 Q497 30 450.5 9 Q404 -12 347 -12 Q291 -12 243.5 5 Q196 22 161 54 Q126 86 106.5 132.5 Q87 179 87 239 Z M345 596 Q325 596 311.5 609 Q298 622 298 644 Q298 666 311.5 679 Q325 692 345 692 Q365 692 378.5 679 Q392 666 392 644 Q392 622 378.5 609 Q365 596 345 596 Z " />
<glyph glyph-name="dcaron" unicode="&#x10f;" horiz-adv-x="600" d="M65 239 Q65 297 83.5 344 Q102 391 133.5 424 Q165 457 205.5 474.5 Q246 492 291 492 Q338 492 375.5 474 Q413 456 451 424 L448 521 L448 719 L493 719 L493 0 L455 0 L450 71 L448 71 Q416 38 372 13 Q328 -12 277 -12 Q230 -12 191 4.5 Q152 21 124 53 Q96 85 80.5 131.5 Q65 178 65 239 Z M112 239 Q112 191 123.5 152 Q135 113 157 85.5 Q179 58 211 42.5 Q243 27 283 27 Q325 27 366.5 50 Q408 73 448 115 L448 382 Q407 420 369.5 436.5 Q332 453 294 453 Q256 453 223 436.5 Q190 420 165 391.5 Q140 363 126 323.5 Q112 284 112 239 Z M539 548 L537 754 L575 754 L575 704 L566 548 L539 548 Z " />
<glyph glyph-name="uni1E0D" unicode="&#x1e0d;" horiz-adv-x="600" d="M67 239 Q67 297 85.5 344 Q104 391 135.5 424 Q167 457 207.5 474.5 Q248 492 293 492 Q340 492 377.5 474 Q415 456 453 424 L450 521 L450 719 L495 719 L495 0 L457 0 L452 71 L450 71 Q418 38 374 13 Q330 -12 279 -12 Q232 -12 193 4.5 Q154 21 126 53 Q98 85 82.5 131.5 Q67 178 67 239 Z M114 239 Q114 191 125.5 152 Q137 113 159 85.5 Q181 58 213 42.5 Q245 27 285 27 Q327 27 368.5 50 Q410 73 450 115 L450 382 Q409 420 371.5 436.5 Q334 453 296 453 Q258 453 225 436.5 Q192 420 167 391.5 Q142 363 128 323.5 Q114 284 114 239 Z M305 -210 Q285 -210 271.5 -197.5 Q258 -185 258 -162 Q258 -140 271.5 -127 Q285 -114 305 -114 Q325 -114 338.5 -127 Q352 -140 352 -162 Q352 -185 338.5 -197.5 Q325 -210 305 -210 Z " />
<glyph glyph-name="uni1E0F" unicode="&#x1e0f;" horiz-adv-x="600" d="M67 239 Q67 297 85.5 344 Q104 391 135.5 424 Q167 457 207.5 474.5 Q248 492 293 492 Q340 492 377.5 474 Q415 456 453 424 L450 521 L450 719 L495 719 L495 0 L457 0 L452 71 L450 71 Q418 38 374 13 Q330 -12 279 -12 Q232 -12 193 4.5 Q154 21 126 53 Q98 85 82.5 131.5 Q67 178 67 239 Z M114 239 Q114 191 125.5 152 Q137 113 159 85.5 Q181 58 213 42.5 Q245 27 285 27 Q327 27 368.5 50 Q410 73 450 115 L450 382 Q409 420 371.5 436.5 Q334 453 296 453 Q258 453 225 436.5 Q192 420 167 391.5 Q142 363 128 323.5 Q114 284 114 239 Z M418 -160 L190 -160 L190 -124 L418 -124 L418 -160 Z " />
<glyph glyph-name="dslash" unicode="&#x111;" horiz-adv-x="600" d="M450 362 Q409 400 371.5 416.5 Q334 433 297 433 Q259 433 225.5 417 Q192 401 167 373.5 Q142 346 128 309 Q114 272 114 229 Q114 138 159 82.5 Q204 27 285 27 Q327 27 368.5 50 Q410 73 450 115 L450 362 Z M569 585 L495 581 L495 0 L457 0 L452 71 L450 71 Q418 38 374 13 Q330 -12 279 -12 Q232 -12 193 3.5 Q154 19 126 50 Q98 81 82.5 125.5 Q67 170 67 229 Q67 285 85.5 330 Q104 375 135.5 406.5 Q167 438 207.5 455 Q248 472 293 472 Q340 472 377.5 454 Q415 436 453 404 L450 501 L450 581 L266 581 L266 614 L450 614 L450 719 L495 719 L495 614 L569 614 L569 585 Z " />
<glyph glyph-name="egrave" unicode="&#xe8;" horiz-adv-x="600" d="M77 239 Q77 298 97.5 345 Q118 392 151.5 424.5 Q185 457 228 474.5 Q271 492 317 492 Q366 492 406 476.5 Q446 461 474 432.5 Q502 404 517 363 Q532 322 532 270 Q532 261 532 252 Q532 243 530 234 L123 234 Q124 189 139.5 150.5 Q155 112 182.5 84.5 Q210 57 248.5 41.5 Q287 26 334 26 Q382 26 421 40.5 Q460 55 494 78 L512 44 Q479 23 436 5.5 Q393 -12 330 -12 Q278 -12 232 5 Q186 22 151.5 54.5 Q117 87 97 133.5 Q77 180 77 239 Z M489 270 Q489 361 442.5 407.5 Q396 454 318 454 Q282 454 249 441.5 Q216 429 190 405 Q164 381 146 347 Q128 313 123 270 L489 270 Z M227 710 L280 710 L372 572 L334 572 L227 710 Z " />
<glyph glyph-name="eacute" unicode="&#xe9;" horiz-adv-x="600" d="M77 239 Q77 298 97.5 345 Q118 392 151.5 424.5 Q185 457 228 474.5 Q271 492 317 492 Q366 492 406 476.5 Q446 461 474 432.5 Q502 404 517 363 Q532 322 532 270 Q532 261 532 252 Q532 243 530 234 L123 234 Q124 189 139.5 150.5 Q155 112 182.5 84.5 Q210 57 248.5 41.5 Q287 26 334 26 Q382 26 421 40.5 Q460 55 494 78 L512 44 Q479 23 436 5.5 Q393 -12 330 -12 Q278 -12 232 5 Q186 22 151.5 54.5 Q117 87 97 133.5 Q77 180 77 239 Z M489 270 Q489 361 442.5 407.5 Q396 454 318 454 Q282 454 249 441.5 Q216 429 190 405 Q164 381 146 347 Q128 313 123 270 L489 270 Z M298 572 L260 572 L352 710 L405 710 L298 572 Z " />
<glyph glyph-name="ecircumflex" unicode="&#xea;" horiz-adv-x="600" d="M77 239 Q77 298 97.5 345 Q118 392 151.5 424.5 Q185 457 228 474.5 Q271 492 317 492 Q366 492 406 476.5 Q446 461 474 432.5 Q502 404 517 363 Q532 322 532 270 Q532 261 532 252 Q532 243 530 234 L123 234 Q124 189 139.5 150.5 Q155 112 182.5 84.5 Q210 57 248.5 41.5 Q287 26 334 26 Q382 26 421 40.5 Q460 55 494 78 L512 44 Q479 23 436 5.5 Q393 -12 330 -12 Q278 -12 232 5 Q186 22 151.5 54.5 Q117 87 97 133.5 Q77 180 77 239 Z M489 270 Q489 361 442.5 407.5 Q396 454 318 454 Q282 454 249 441.5 Q216 429 190 405 Q164 381 146 347 Q128 313 123 270 L489 270 Z M296 710 L336 710 L431 572 L393 572 L318 673 L314 673 L239 572 L201 572 L296 710 Z " />
<glyph glyph-name="ecaron" unicode="&#x11b;" horiz-adv-x="600" d="M77 239 Q77 298 97.5 345 Q118 392 151.5 424.5 Q185 457 228 474.5 Q271 492 317 492 Q366 492 406 476.5 Q446 461 474 432.5 Q502 404 517 363 Q532 322 532 270 Q532 261 532 252 Q532 243 530 234 L123 234 Q124 189 139.5 150.5 Q155 112 182.5 84.5 Q210 57 248.5 41.5 Q287 26 334 26 Q382 26 421 40.5 Q460 55 494 78 L512 44 Q479 23 436 5.5 Q393 -12 330 -12 Q278 -12 232 5 Q186 22 151.5 54.5 Q117 87 97 133.5 Q77 180 77 239 Z M489 270 Q489 361 442.5 407.5 Q396 454 318 454 Q282 454 249 441.5 Q216 429 190 405 Q164 381 146 347 Q128 313 123 270 L489 270 Z M201 710 L239 710 L314 609 L318 609 L393 710 L431 710 L336 572 L296 572 L201 710 Z " />
<glyph glyph-name="edieresis" unicode="&#xeb;" horiz-adv-x="600" d="M77 239 Q77 298 97.5 345 Q118 392 151.5 424.5 Q185 457 228 474.5 Q271 492 317 492 Q366 492 406 476.5 Q446 461 474 432.5 Q502 404 517 363 Q532 322 532 270 Q532 261 532 252 Q532 243 530 234 L123 234 Q124 189 139.5 150.5 Q155 112 182.5 84.5 Q210 57 248.5 41.5 Q287 26 334 26 Q382 26 421 40.5 Q460 55 494 78 L512 44 Q479 23 436 5.5 Q393 -12 330 -12 Q278 -12 232 5 Q186 22 151.5 54.5 Q117 87 97 133.5 Q77 180 77 239 Z M489 270 Q489 361 442.5 407.5 Q396 454 318 454 Q282 454 249 441.5 Q216 429 190 405 Q164 381 146 347 Q128 313 123 270 L489 270 Z M227 598 Q210 598 199 610 Q188 622 188 639 Q188 656 199 668.5 Q210 681 227 681 Q244 681 255.5 668.5 Q267 656 267 639 Q267 622 255.5 610 Q244 598 227 598 Z M405 598 Q388 598 376.5 610 Q365 622 365 639 Q365 656 376.5 668.5 Q388 681 405 681 Q422 681 433 668.5 Q444 656 444 639 Q444 622 433 610 Q422 598 405 598 Z " />
<glyph glyph-name="emacron" unicode="&#x113;" horiz-adv-x="600" d="M77 239 Q77 298 97.5 345 Q118 392 151.5 424.5 Q185 457 228 474.5 Q271 492 317 492 Q366 492 406 476.5 Q446 461 474 432.5 Q502 404 517 363 Q532 322 532 270 Q532 261 532 252 Q532 243 530 234 L123 234 Q124 189 139.5 150.5 Q155 112 182.5 84.5 Q210 57 248.5 41.5 Q287 26 334 26 Q382 26 421 40.5 Q460 55 494 78 L512 44 Q479 23 436 5.5 Q393 -12 330 -12 Q278 -12 232 5 Q186 22 151.5 54.5 Q117 87 97 133.5 Q77 180 77 239 Z M489 270 Q489 361 442.5 407.5 Q396 454 318 454 Q282 454 249 441.5 Q216 429 190 405 Q164 381 146 347 Q128 313 123 270 L489 270 Z M203 642 L429 642 L429 606 L203 606 L203 642 Z " />
<glyph glyph-name="ebreve" unicode="&#x115;" horiz-adv-x="600" d="M77 239 Q77 298 97.5 345 Q118 392 151.5 424.5 Q185 457 228 474.5 Q271 492 317 492 Q366 492 406 476.5 Q446 461 474 432.5 Q502 404 517 363 Q532 322 532 270 Q532 261 532 252 Q532 243 530 234 L123 234 Q124 189 139.5 150.5 Q155 112 182.5 84.5 Q210 57 248.5 41.5 Q287 26 334 26 Q382 26 421 40.5 Q460 55 494 78 L512 44 Q479 23 436 5.5 Q393 -12 330 -12 Q278 -12 232 5 Q186 22 151.5 54.5 Q117 87 97 133.5 Q77 180 77 239 Z M489 270 Q489 361 442.5 407.5 Q396 454 318 454 Q282 454 249 441.5 Q216 429 190 405 Q164 381 146 347 Q128 313 123 270 L489 270 Z M316 576 Q285 576 263.5 587.5 Q242 599 227.5 617 Q213 635 205.5 656 Q198 677 196 697 L229 697 Q231 680 237.5 664.5 Q244 649 254.5 636 Q265 623 280.5 615.5 Q296 608 316 608 Q336 608 351.5 615.5 Q367 623 377.5 636 Q388 649 394.5 664.5 Q401 680 403 697 L436 697 Q434 677 426.5 656 Q419 635 404.5 617 Q390 599 368.5 587.5 Q347 576 316 576 Z " />
<glyph glyph-name="edotaccent" unicode="&#x117;" horiz-adv-x="600" d="M77 239 Q77 298 97.5 345 Q118 392 151.5 424.5 Q185 457 228 474.5 Q271 492 317 492 Q366 492 406 476.5 Q446 461 474 432.5 Q502 404 517 363 Q532 322 532 270 Q532 261 532 252 Q532 243 530 234 L123 234 Q124 189 139.5 150.5 Q155 112 182.5 84.5 Q210 57 248.5 41.5 Q287 26 334 26 Q382 26 421 40.5 Q460 55 494 78 L512 44 Q479 23 436 5.5 Q393 -12 330 -12 Q278 -12 232 5 Q186 22 151.5 54.5 Q117 87 97 133.5 Q77 180 77 239 Z M489 270 Q489 361 442.5 407.5 Q396 454 318 454 Q282 454 249 441.5 Q216 429 190 405 Q164 381 146 347 Q128 313 123 270 L489 270 Z M316 596 Q296 596 282.5 609 Q269 622 269 644 Q269 666 282.5 679 Q296 692 316 692 Q336 692 349.5 679 Q363 666 363 644 Q363 622 349.5 609 Q336 596 316 596 Z " />
<glyph glyph-name="uni1EB9" unicode="&#x1eb9;" horiz-adv-x="600" d="M77 239 Q77 298 97.5 345 Q118 392 151.5 424.5 Q185 457 228 474.5 Q271 492 317 492 Q366 492 406 476.5 Q446 461 474 432.5 Q502 404 517 363 Q532 322 532 270 Q532 261 532 252 Q532 243 530 234 L123 234 Q124 189 139.5 150.5 Q155 112 182.5 84.5 Q210 57 248.5 41.5 Q287 26 334 26 Q382 26 421 40.5 Q460 55 494 78 L512 44 Q479 23 436 5.5 Q393 -12 330 -12 Q278 -12 232 5 Q186 22 151.5 54.5 Q117 87 97 133.5 Q77 180 77 239 Z M489 270 Q489 361 442.5 407.5 Q396 454 318 454 Q282 454 249 441.5 Q216 429 190 405 Q164 381 146 347 Q128 313 123 270 L489 270 Z M316 -210 Q296 -210 282.5 -197.5 Q269 -185 269 -162 Q269 -140 282.5 -127 Q296 -114 316 -114 Q336 -114 349.5 -127 Q363 -140 363 -162 Q363 -185 349.5 -197.5 Q336 -210 316 -210 Z " />
<glyph glyph-name="uni1EBB" unicode="&#x1ebb;" horiz-adv-x="600" d="M77 239 Q77 298 97.5 345 Q118 392 151.5 424.5 Q185 457 228 474.5 Q271 492 317 492 Q366 492 406 476.5 Q446 461 474 432.5 Q502 404 517 363 Q532 322 532 270 Q532 261 532 252 Q532 243 530 234 L123 234 Q124 189 139.5 150.5 Q155 112 182.5 84.5 Q210 57 248.5 41.5 Q287 26 334 26 Q382 26 421 40.5 Q460 55 494 78 L512 44 Q479 23 436 5.5 Q393 -12 330 -12 Q278 -12 232 5 Q186 22 151.5 54.5 Q117 87 97 133.5 Q77 180 77 239 Z M489 270 Q489 361 442.5 407.5 Q396 454 318 454 Q282 454 249 441.5 Q216 429 190 405 Q164 381 146 347 Q128 313 123 270 L489 270 Z M284 577 Q311 585 329 597.5 Q347 610 347 632 Q347 677 262 680 L266 712 Q291 711 313 706 Q335 701 351.5 692 Q368 683 377.5 669.5 Q387 656 387 637 Q387 617 379 603 Q371 589 357.5 579 Q344 569 327 562.5 Q310 556 292 551 L284 577 Z " />
<glyph glyph-name="uni1EBD" unicode="&#x1ebd;" horiz-adv-x="600" d="M77 239 Q77 298 97.5 345 Q118 392 151.5 424.5 Q185 457 228 474.5 Q271 492 317 492 Q366 492 406 476.5 Q446 461 474 432.5 Q502 404 517 363 Q532 322 532 270 Q532 261 532 252 Q532 243 530 234 L123 234 Q124 189 139.5 150.5 Q155 112 182.5 84.5 Q210 57 248.5 41.5 Q287 26 334 26 Q382 26 421 40.5 Q460 55 494 78 L512 44 Q479 23 436 5.5 Q393 -12 330 -12 Q278 -12 232 5 Q186 22 151.5 54.5 Q117 87 97 133.5 Q77 180 77 239 Z M489 270 Q489 361 442.5 407.5 Q396 454 318 454 Q282 454 249 441.5 Q216 429 190 405 Q164 381 146 347 Q128 313 123 270 L489 270 Z M192 581 Q193 597 197 613.5 Q201 630 209.5 642.5 Q218 655 231 663 Q244 671 262 671 Q280 671 294.5 662 Q309 653 322 642.5 Q335 632 347 623.5 Q359 615 372 615 Q388 615 397.5 630 Q407 645 410 671 L440 671 Q439 655 434.5 639 Q430 623 422 610 Q414 597 401 589 Q388 581 370 581 Q352 581 337.5 589.5 Q323 598 310.5 608.5 Q298 619 285.5 628 Q273 637 260 637 Q228 637 222 581 L192 581 L192 581 Z " />
<glyph glyph-name="uni1EBF" unicode="&#x1ebf;" horiz-adv-x="600" d="M77 239 Q77 298 97.5 345 Q118 392 151.5 424.5 Q185 457 228 474.5 Q271 492 317 492 Q366 492 406 476.5 Q446 461 474 432.5 Q502 404 517 363 Q532 322 532 270 Q532 261 532 252 Q532 243 530 234 L123 234 Q124 189 139.5 150.5 Q155 112 182.5 84.5 Q210 57 248.5 41.5 Q287 26 334 26 Q382 26 421 40.5 Q460 55 494 78 L512 44 Q479 23 436 5.5 Q393 -12 330 -12 Q278 -12 232 5 Q186 22 151.5 54.5 Q117 87 97 133.5 Q77 180 77 239 Z M489 270 Q489 361 442.5 407.5 Q396 454 318 454 Q282 454 249 441.5 Q216 429 190 405 Q164 381 146 347 Q128 313 123 270 L489 270 Z M297 686 L335 686 L419 572 L383 572 L318 650 L314 650 L249 572 L213 572 L297 686 Z M471 748 L517 748 L427 637 L394 637 L471 748 Z " />
<glyph glyph-name="uni1EC1" unicode="&#x1ec1;" horiz-adv-x="600" d="M77 239 Q77 298 97.5 345 Q118 392 151.5 424.5 Q185 457 228 474.5 Q271 492 317 492 Q366 492 406 476.5 Q446 461 474 432.5 Q502 404 517 363 Q532 322 532 270 Q532 261 532 252 Q532 243 530 234 L123 234 Q124 189 139.5 150.5 Q155 112 182.5 84.5 Q210 57 248.5 41.5 Q287 26 334 26 Q382 26 421 40.5 Q460 55 494 78 L512 44 Q479 23 436 5.5 Q393 -12 330 -12 Q278 -12 232 5 Q186 22 151.5 54.5 Q117 87 97 133.5 Q77 180 77 239 Z M489 270 Q489 361 442.5 407.5 Q396 454 318 454 Q282 454 249 441.5 Q216 429 190 405 Q164 381 146 347 Q128 313 123 270 L489 270 Z M297 686 L335 686 L419 572 L383 572 L318 650 L314 650 L249 572 L213 572 L297 686 Z M489 637 L456 637 L365 748 L412 748 L489 637 Z " />
<glyph glyph-name="uni1EC3" unicode="&#x1ec3;" horiz-adv-x="600" d="M77 239 Q77 298 97.5 345 Q118 392 151.5 424.5 Q185 457 228 474.5 Q271 492 317 492 Q366 492 406 476.5 Q446 461 474 432.5 Q502 404 517 363 Q532 322 532 270 Q532 261 532 252 Q532 243 530 234 L123 234 Q124 189 139.5 150.5 Q155 112 182.5 84.5 Q210 57 248.5 41.5 Q287 26 334 26 Q382 26 421 40.5 Q460 55 494 78 L512 44 Q479 23 436 5.5 Q393 -12 330 -12 Q278 -12 232 5 Q186 22 151.5 54.5 Q117 87 97 133.5 Q77 180 77 239 Z M489 270 Q489 361 442.5 407.5 Q396 454 318 454 Q282 454 249 441.5 Q216 429 190 405 Q164 381 146 347 Q128 313 123 270 L489 270 Z M297 686 L335 686 L419 572 L383 572 L318 650 L314 650 L249 572 L213 572 L297 686 Z M411 653 Q432 661 446 671.5 Q460 682 460 699 Q460 742 389 745 L392 774 Q437 772 467.5 756 Q498 740 498 704 Q498 687 491 674.5 Q484 662 472.5 653 Q461 644 447 638 Q433 632 419 628 L411 653 Z " />
<glyph glyph-name="uni1EC5" unicode="&#x1ec5;" horiz-adv-x="600" d="M77 239 Q77 298 97.5 345 Q118 392 151.5 424.5 Q185 457 228 474.5 Q271 492 317 492 Q366 492 406 476.5 Q446 461 474 432.5 Q502 404 517 363 Q532 322 532 270 Q532 261 532 252 Q532 243 530 234 L123 234 Q124 189 139.5 150.5 Q155 112 182.5 84.5 Q210 57 248.5 41.5 Q287 26 334 26 Q382 26 421 40.5 Q460 55 494 78 L512 44 Q479 23 436 5.5 Q393 -12 330 -12 Q278 -12 232 5 Q186 22 151.5 54.5 Q117 87 97 133.5 Q77 180 77 239 Z M489 270 Q489 361 442.5 407.5 Q396 454 318 454 Q282 454 249 441.5 Q216 429 190 405 Q164 381 146 347 Q128 313 123 270 L489 270 Z M296 670 L336 670 L427 570 L391 570 L318 639 L314 639 L241 570 L205 570 L296 670 Z M195 706 Q196 720 200.5 734 Q205 748 213.5 759 Q222 770 235 776.5 Q248 783 265 783 Q283 783 296.5 776 Q310 769 321 760.5 Q332 752 343 745 Q354 738 367 738 Q401 738 409 783 L437 783 Q436 769 431.5 755 Q427 741 418.5 730 Q410 719 397 712.5 Q384 706 367 706 Q349 706 335.5 713 Q322 720 310.5 728.5 Q299 737 288.5 744 Q278 751 265 751 Q230 751 223 706 L195 706 Z " />
<glyph glyph-name="uni1EC7" unicode="&#x1ec7;" horiz-adv-x="600" d="M77 239 Q77 298 97.5 345 Q118 392 151.5 424.5 Q185 457 228 474.5 Q271 492 317 492 Q366 492 406 476.5 Q446 461 474 432.5 Q502 404 517 363 Q532 322 532 270 Q532 261 532 252 Q532 243 530 234 L123 234 Q124 189 139.5 150.5 Q155 112 182.5 84.5 Q210 57 248.5 41.5 Q287 26 334 26 Q382 26 421 40.5 Q460 55 494 78 L512 44 Q479 23 436 5.5 Q393 -12 330 -12 Q278 -12 232 5 Q186 22 151.5 54.5 Q117 87 97 133.5 Q77 180 77 239 Z M489 270 Q489 361 442.5 407.5 Q396 454 318 454 Q282 454 249 441.5 Q216 429 190 405 Q164 381 146 347 Q128 313 123 270 L489 270 Z M296 710 L336 710 L431 572 L393 572 L318 673 L314 673 L239 572 L201 572 L296 710 Z M316 -210 Q296 -210 282.5 -197.5 Q269 -185 269 -162 Q269 -140 282.5 -127 Q296 -114 316 -114 Q336 -114 349.5 -127 Q363 -140 363 -162 Q363 -185 349.5 -197.5 Q336 -210 316 -210 Z " />
<glyph glyph-name="eogonek" unicode="&#x119;" horiz-adv-x="600" d="M512 44 Q442 -6 416 -44 Q390 -82 390 -116 Q390 -142 404.5 -155 Q419 -168 439 -168 Q462 -168 482 -154 L498 -180 Q486 -190 467.5 -196.5 Q449 -203 433 -203 Q398 -203 375 -183 Q352 -163 352 -122 Q352 -102 358.5 -83 Q365 -64 375.5 -48 Q386 -32 399 -18.5 Q412 -5 424 4 Q398 -7 376 -9.5 Q354 -12 330 -12 Q278 -12 232 5 Q186 22 151.5 54.5 Q117 87 97 133.5 Q77 180 77 239 Q77 298 97.5 345 Q118 392 151.5 424.5 Q185 457 228 474.5 Q271 492 317 492 Q366 492 406 476.5 Q446 461 474 432.5 Q502 404 517 363 Q532 322 532 270 Q532 261 532 252 Q532 243 530 234 L123 234 Q124 189 139.5 150.5 Q155 112 182.5 84.5 Q210 57 248.5 41.5 Q287 26 334 26 Q382 26 421 40.5 Q460 55 494 78 L512 44 Z M489 270 Q489 361 442.5 407.5 Q396 454 318 454 Q282 454 249 441.5 Q216 429 190 405 Q164 381 146 347 Q128 313 123 270 L489 270 Z " />
<glyph glyph-name="gcircumflex" unicode="&#x11d;" horiz-adv-x="600" d="M126 -93 Q126 -137 170 -166 Q214 -195 305 -195 Q354 -195 393.5 -184 Q433 -173 460 -156 Q487 -139 501.5 -117 Q516 -95 516 -72 Q516 -31 485 -16 Q454 -1 391 -1 L277 -1 Q259 -1 240 1 Q221 3 204 8 Q160 -15 143 -41 Q126 -67 126 -93 Z M84 -92 Q84 -63 105 -33 Q126 -3 165 21 L165 25 Q147 34 131 53 Q115 72 115 102 Q115 125 129.5 149 Q144 173 173 193 L173 197 Q150 216 133 246.5 Q116 277 116 321 Q116 358 130 389.5 Q144 421 168.5 443.5 Q193 466 225.5 479 Q258 492 295 492 Q332 492 361 480 L561 480 L561 443 L415 443 Q438 421 455 390 Q472 359 472 320 Q472 283 458 252.5 Q444 222 420 200 Q396 178 364 165.5 Q332 153 295 153 Q273 153 249.5 158.5 Q226 164 204 175 Q183 162 170 145 Q157 128 157 108 Q157 73 187 57 Q217 41 268 41 L387 41 Q479 41 520.5 16 Q562 -9 562 -67 Q562 -98 544 -127.5 Q526 -157 493 -180 Q460 -203 413 -217 Q366 -231 308 -231 Q195 -231 139.5 -193 Q84 -155 84 -92 Z M295 188 Q322 188 346.5 197.5 Q371 207 389.5 224.5 Q408 242 418.5 266.5 Q429 291 429 321 Q429 350 418.5 375 Q408 400 389.5 418 Q371 436 346.5 446 Q322 456 295 456 Q267 456 242.5 446 Q218 436 200 418 Q182 400 171.5 375 Q161 350 161 321 Q161 291 171.5 266.5 Q182 242 200 224.5 Q218 207 242.5 197.5 Q267 188 295 188 Z M289 710 L329 710 L424 572 L386 572 L311 673 L307 673 L232 572 L194 572 L289 710 Z " />
<glyph glyph-name="gbreve" unicode="&#x11f;" horiz-adv-x="600" d="M126 -93 Q126 -137 170 -166 Q214 -195 305 -195 Q354 -195 393.5 -184 Q433 -173 460 -156 Q487 -139 501.5 -117 Q516 -95 516 -72 Q516 -31 485 -16 Q454 -1 391 -1 L277 -1 Q259 -1 240 1 Q221 3 204 8 Q160 -15 143 -41 Q126 -67 126 -93 Z M84 -92 Q84 -63 105 -33 Q126 -3 165 21 L165 25 Q147 34 131 53 Q115 72 115 102 Q115 125 129.5 149 Q144 173 173 193 L173 197 Q150 216 133 246.5 Q116 277 116 321 Q116 358 130 389.5 Q144 421 168.5 443.5 Q193 466 225.5 479 Q258 492 295 492 Q332 492 361 480 L561 480 L561 443 L415 443 Q438 421 455 390 Q472 359 472 320 Q472 283 458 252.5 Q444 222 420 200 Q396 178 364 165.5 Q332 153 295 153 Q273 153 249.5 158.5 Q226 164 204 175 Q183 162 170 145 Q157 128 157 108 Q157 73 187 57 Q217 41 268 41 L387 41 Q479 41 520.5 16 Q562 -9 562 -67 Q562 -98 544 -127.5 Q526 -157 493 -180 Q460 -203 413 -217 Q366 -231 308 -231 Q195 -231 139.5 -193 Q84 -155 84 -92 Z M295 188 Q322 188 346.5 197.5 Q371 207 389.5 224.5 Q408 242 418.5 266.5 Q429 291 429 321 Q429 350 418.5 375 Q408 400 389.5 418 Q371 436 346.5 446 Q322 456 295 456 Q267 456 242.5 446 Q218 436 200 418 Q182 400 171.5 375 Q161 350 161 321 Q161 291 171.5 266.5 Q182 242 200 224.5 Q218 207 242.5 197.5 Q267 188 295 188 Z M309 576 Q278 576 256.5 587.5 Q235 599 220.5 617 Q206 635 198.5 656 Q191 677 189 697 L222 697 Q224 680 230.5 664.5 Q237 649 247.5 636 Q258 623 273.5 615.5 Q289 608 309 608 Q329 608 344.5 615.5 Q360 623 370.5 636 Q381 649 387.5 664.5 Q394 680 396 697 L429 697 Q427 677 419.5 656 Q412 635 397.5 617 Q383 599 361.5 587.5 Q340 576 309 576 Z " />
<glyph glyph-name="gdotaccent" unicode="&#x121;" horiz-adv-x="600" d="M126 -93 Q126 -137 170 -166 Q214 -195 305 -195 Q354 -195 393.5 -184 Q433 -173 460 -156 Q487 -139 501.5 -117 Q516 -95 516 -72 Q516 -31 485 -16 Q454 -1 391 -1 L277 -1 Q259 -1 240 1 Q221 3 204 8 Q160 -15 143 -41 Q126 -67 126 -93 Z M84 -92 Q84 -63 105 -33 Q126 -3 165 21 L165 25 Q147 34 131 53 Q115 72 115 102 Q115 125 129.5 149 Q144 173 173 193 L173 197 Q150 216 133 246.5 Q116 277 116 321 Q116 358 130 389.5 Q144 421 168.5 443.5 Q193 466 225.5 479 Q258 492 295 492 Q332 492 361 480 L561 480 L561 443 L415 443 Q438 421 455 390 Q472 359 472 320 Q472 283 458 252.5 Q444 222 420 200 Q396 178 364 165.5 Q332 153 295 153 Q273 153 249.5 158.5 Q226 164 204 175 Q183 162 170 145 Q157 128 157 108 Q157 73 187 57 Q217 41 268 41 L387 41 Q479 41 520.5 16 Q562 -9 562 -67 Q562 -98 544 -127.5 Q526 -157 493 -180 Q460 -203 413 -217 Q366 -231 308 -231 Q195 -231 139.5 -193 Q84 -155 84 -92 Z M295 188 Q322 188 346.5 197.5 Q371 207 389.5 224.5 Q408 242 418.5 266.5 Q429 291 429 321 Q429 350 418.5 375 Q408 400 389.5 418 Q371 436 346.5 446 Q322 456 295 456 Q267 456 242.5 446 Q218 436 200 418 Q182 400 171.5 375 Q161 350 161 321 Q161 291 171.5 266.5 Q182 242 200 224.5 Q218 207 242.5 197.5 Q267 188 295 188 Z M309 596 Q289 596 275.5 609 Q262 622 262 644 Q262 666 275.5 679 Q289 692 309 692 Q329 692 342.5 679 Q356 666 356 644 Q356 622 342.5 609 Q329 596 309 596 Z " />
<glyph glyph-name="uni0123" unicode="&#x123;" horiz-adv-x="600" d="M126 -93 Q126 -137 170 -166 Q214 -195 305 -195 Q354 -195 393.5 -184 Q433 -173 460 -156 Q487 -139 501.5 -117 Q516 -95 516 -72 Q516 -31 485 -16 Q454 -1 391 -1 L277 -1 Q259 -1 240 1 Q221 3 204 8 Q160 -15 143 -41 Q126 -67 126 -93 Z M84 -92 Q84 -63 105 -33 Q126 -3 165 21 L165 25 Q147 34 131 53 Q115 72 115 102 Q115 125 129.5 149 Q144 173 173 193 L173 197 Q150 216 133 246.5 Q116 277 116 321 Q116 358 130 389.5 Q144 421 168.5 443.5 Q193 466 225.5 479 Q258 492 295 492 Q332 492 361 480 L561 480 L561 443 L415 443 Q438 421 455 390 Q472 359 472 320 Q472 283 458 252.5 Q444 222 420 200 Q396 178 364 165.5 Q332 153 295 153 Q273 153 249.5 158.5 Q226 164 204 175 Q183 162 170 145 Q157 128 157 108 Q157 73 187 57 Q217 41 268 41 L387 41 Q479 41 520.5 16 Q562 -9 562 -67 Q562 -98 544 -127.5 Q526 -157 493 -180 Q460 -203 413 -217 Q366 -231 308 -231 Q195 -231 139.5 -193 Q84 -155 84 -92 Z M295 188 Q322 188 346.5 197.5 Q371 207 389.5 224.5 Q408 242 418.5 266.5 Q429 291 429 321 Q429 350 418.5 375 Q408 400 389.5 418 Q371 436 346.5 446 Q322 456 295 456 Q267 456 242.5 446 Q218 436 200 418 Q182 400 171.5 375 Q161 350 161 321 Q161 291 171.5 266.5 Q182 242 200 224.5 Q218 207 242.5 197.5 Q267 188 295 188 Z M333 539 Q291 547 270 564 Q249 581 249 612 Q249 631 259.5 646 Q270 661 287.5 671 Q305 681 328 687.5 Q351 694 375 697 L381 667 Q339 661 314 649 Q289 637 289 617 Q289 594 306.5 583.5 Q324 573 345 568 L333 539 L333 539 Z " />
<glyph glyph-name="gcaron" unicode="&#x1e7;" horiz-adv-x="600" d="M126 -93 Q126 -137 170 -166 Q214 -195 305 -195 Q354 -195 393.5 -184 Q433 -173 460 -156 Q487 -139 501.5 -117 Q516 -95 516 -72 Q516 -31 485 -16 Q454 -1 391 -1 L277 -1 Q259 -1 240 1 Q221 3 204 8 Q160 -15 143 -41 Q126 -67 126 -93 Z M84 -92 Q84 -63 105 -33 Q126 -3 165 21 L165 25 Q147 34 131 53 Q115 72 115 102 Q115 125 129.5 149 Q144 173 173 193 L173 197 Q150 216 133 246.5 Q116 277 116 321 Q116 358 130 389.5 Q144 421 168.5 443.5 Q193 466 225.5 479 Q258 492 295 492 Q332 492 361 480 L561 480 L561 443 L415 443 Q438 421 455 390 Q472 359 472 320 Q472 283 458 252.5 Q444 222 420 200 Q396 178 364 165.5 Q332 153 295 153 Q273 153 249.5 158.5 Q226 164 204 175 Q183 162 170 145 Q157 128 157 108 Q157 73 187 57 Q217 41 268 41 L387 41 Q479 41 520.5 16 Q562 -9 562 -67 Q562 -98 544 -127.5 Q526 -157 493 -180 Q460 -203 413 -217 Q366 -231 308 -231 Q195 -231 139.5 -193 Q84 -155 84 -92 Z M295 188 Q322 188 346.5 197.5 Q371 207 389.5 224.5 Q408 242 418.5 266.5 Q429 291 429 321 Q429 350 418.5 375 Q408 400 389.5 418 Q371 436 346.5 446 Q322 456 295 456 Q267 456 242.5 446 Q218 436 200 418 Q182 400 171.5 375 Q161 350 161 321 Q161 291 171.5 266.5 Q182 242 200 224.5 Q218 207 242.5 197.5 Q267 188 295 188 Z M194 710 L232 710 L307 609 L311 609 L386 710 L424 710 L329 572 L289 572 L194 710 Z " />
<glyph glyph-name="uni1E21" unicode="&#x1e21;" horiz-adv-x="600" d="M126 -93 Q126 -137 170 -166 Q214 -195 305 -195 Q354 -195 393.5 -184 Q433 -173 460 -156 Q487 -139 501.5 -117 Q516 -95 516 -72 Q516 -31 485 -16 Q454 -1 391 -1 L277 -1 Q259 -1 240 1 Q221 3 204 8 Q160 -15 143 -41 Q126 -67 126 -93 Z M84 -92 Q84 -63 105 -33 Q126 -3 165 21 L165 25 Q147 34 131 53 Q115 72 115 102 Q115 125 129.5 149 Q144 173 173 193 L173 197 Q150 216 133 246.5 Q116 277 116 321 Q116 358 130 389.5 Q144 421 168.5 443.5 Q193 466 225.5 479 Q258 492 295 492 Q332 492 361 480 L561 480 L561 443 L415 443 Q438 421 455 390 Q472 359 472 320 Q472 283 458 252.5 Q444 222 420 200 Q396 178 364 165.5 Q332 153 295 153 Q273 153 249.5 158.5 Q226 164 204 175 Q183 162 170 145 Q157 128 157 108 Q157 73 187 57 Q217 41 268 41 L387 41 Q479 41 520.5 16 Q562 -9 562 -67 Q562 -98 544 -127.5 Q526 -157 493 -180 Q460 -203 413 -217 Q366 -231 308 -231 Q195 -231 139.5 -193 Q84 -155 84 -92 Z M295 188 Q322 188 346.5 197.5 Q371 207 389.5 224.5 Q408 242 418.5 266.5 Q429 291 429 321 Q429 350 418.5 375 Q408 400 389.5 418 Q371 436 346.5 446 Q322 456 295 456 Q267 456 242.5 446 Q218 436 200 418 Q182 400 171.5 375 Q161 350 161 321 Q161 291 171.5 266.5 Q182 242 200 224.5 Q218 207 242.5 197.5 Q267 188 295 188 Z M196 642 L422 642 L422 606 L196 606 L196 642 Z " />
<glyph glyph-name="hcircumflex" unicode="&#x125;" horiz-adv-x="600" d="M105 719 L150 719 L150 511 L147 385 Q192 432 237.5 462 Q283 492 341 492 Q514 492 514 299 L514 0 L469 0 L469 293 Q469 374 437.5 413 Q406 452 334 452 Q308 452 286 445.5 Q264 439 242.5 425.5 Q221 412 198.5 391.5 Q176 371 150 344 L150 0 L105 0 L105 719 Z M27 748 L123 854 L165 854 L261 748 L221 748 L146 820 L142 820 L67 748 L27 748 Z " />
<glyph glyph-name="uni1E25" unicode="&#x1e25;" horiz-adv-x="600" d="M105 719 L150 719 L150 511 L147 385 Q192 432 237.5 462 Q283 492 341 492 Q514 492 514 299 L514 0 L469 0 L469 293 Q469 374 437.5 413 Q406 452 334 452 Q308 452 286 445.5 Q264 439 242.5 425.5 Q221 412 198.5 391.5 Q176 371 150 344 L150 0 L105 0 L105 719 Z M318 -210 Q298 -210 284.5 -197.5 Q271 -185 271 -162 Q271 -140 284.5 -127 Q298 -114 318 -114 Q338 -114 351.5 -127 Q365 -140 365 -162 Q365 -185 351.5 -197.5 Q338 -210 318 -210 Z " />
<glyph glyph-name="uni1E2B" unicode="&#x1e2b;" horiz-adv-x="600" d="M105 719 L150 719 L150 511 L147 385 Q192 432 237.5 462 Q283 492 341 492 Q514 492 514 299 L514 0 L469 0 L469 293 Q469 374 437.5 413 Q406 452 334 452 Q308 452 286 445.5 Q264 439 242.5 425.5 Q221 412 198.5 391.5 Q176 371 150 344 L150 0 L105 0 L105 719 Z M317 -203 Q286 -203 264.5 -191.5 Q243 -180 229 -162.5 Q215 -145 207.5 -124 Q200 -103 198 -84 L231 -84 Q233 -100 239.5 -115.5 Q246 -131 256.5 -143 Q267 -155 282 -162.5 Q297 -170 317 -170 Q337 -170 352 -162.5 Q367 -155 377.5 -143 Q388 -131 394.5 -115.5 Q401 -100 403 -84 L436 -84 Q434 -103 426.5 -124 Q419 -145 405 -162.5 Q391 -180 369.5 -191.5 Q348 -203 317 -203 Z " />
<glyph glyph-name="hbar" unicode="&#x127;" horiz-adv-x="600" d="M147 365 Q192 412 237.5 442 Q283 472 341 472 Q514 472 514 279 L514 0 L469 0 L469 273 Q469 354 437.5 393 Q406 432 334 432 Q308 432 286 425.5 Q264 419 242.5 405.5 Q221 392 198.5 371.5 Q176 351 150 324 L150 0 L105 0 L105 581 L29 581 L29 610 L105 614 L105 719 L150 719 L150 614 L379 614 L379 581 L150 581 L150 491 L147 365 Z " />
<glyph glyph-name="igrave" unicode="&#xec;" horiz-adv-x="600" d="M97 480 L382 480 L382 0 L338 0 L338 442 L97 442 L97 480 Z M260 710 L313 710 L405 572 L367 572 L260 710 Z " />
<glyph glyph-name="iacute" unicode="&#xed;" horiz-adv-x="600" d="M97 480 L382 480 L382 0 L338 0 L338 442 L97 442 L97 480 Z M331 572 L293 572 L385 710 L438 710 L331 572 Z " />
<glyph glyph-name="icircumflex" unicode="&#xee;" horiz-adv-x="600" d="M97 480 L382 480 L382 0 L338 0 L338 442 L97 442 L97 480 Z M329 710 L369 710 L464 572 L426 572 L351 673 L347 673 L272 572 L234 572 L329 710 Z " />
<glyph glyph-name="itilde" unicode="&#x129;" horiz-adv-x="600" d="M97 480 L382 480 L382 0 L338 0 L338 442 L97 442 L97 480 Z M225 581 Q226 597 230 613.5 Q234 630 242.5 642.5 Q251 655 264 663 Q277 671 295 671 Q313 671 327.5 662 Q342 653 355 642.5 Q368 632 380 623.5 Q392 615 405 615 Q421 615 430.5 630 Q440 645 443 671 L473 671 Q472 655 467.5 639 Q463 623 455 610 Q447 597 434 589 Q421 581 403 581 Q385 581 370.5 589.5 Q356 598 343.5 608.5 Q331 619 318.5 628 Q306 637 293 637 Q261 637 255 581 L225 581 L225 581 Z " />
<glyph glyph-name="idieresis" unicode="&#xef;" horiz-adv-x="600" d="M97 480 L382 480 L382 0 L338 0 L338 442 L97 442 L97 480 Z M260 598 Q243 598 232 610 Q221 622 221 639 Q221 656 232 668.5 Q243 681 260 681 Q277 681 288.5 668.5 Q300 656 300 639 Q300 622 288.5 610 Q277 598 260 598 Z M438 598 Q421 598 409.5 610 Q398 622 398 639 Q398 656 409.5 668.5 Q421 681 438 681 Q455 681 466 668.5 Q477 656 477 639 Q477 622 466 610 Q455 598 438 598 Z " />
<glyph glyph-name="imacron" unicode="&#x12b;" horiz-adv-x="600" d="M97 480 L382 480 L382 0 L338 0 L338 442 L97 442 L97 480 Z M236 642 L462 642 L462 606 L236 606 L236 642 Z " />
<glyph glyph-name="uni012D" unicode="&#x12d;" horiz-adv-x="600" d="M97 480 L382 480 L382 0 L338 0 L338 442 L97 442 L97 480 Z M349 576 Q318 576 296.5 587.5 Q275 599 260.5 617 Q246 635 238.5 656 Q231 677 229 697 L262 697 Q264 680 270.5 664.5 Q277 649 287.5 636 Q298 623 313.5 615.5 Q329 608 349 608 Q369 608 384.5 615.5 Q400 623 410.5 636 Q421 649 427.5 664.5 Q434 680 436 697 L469 697 Q467 677 459.5 656 Q452 635 437.5 617 Q423 599 401.5 587.5 Q380 576 349 576 Z " />
<glyph glyph-name="uni01D0" unicode="&#x1d0;" horiz-adv-x="600" d="M97 480 L382 480 L382 0 L338 0 L338 442 L97 442 L97 480 Z M234 710 L272 710 L347 609 L351 609 L426 710 L464 710 L369 572 L329 572 L234 710 Z " />
<glyph glyph-name="uni1EC9" unicode="&#x1ec9;" horiz-adv-x="600" d="M97 480 L382 480 L382 0 L338 0 L338 442 L97 442 L97 480 Z M317 577 Q344 585 362 597.5 Q380 610 380 632 Q380 677 295 680 L299 712 Q324 711 346 706 Q368 701 384.5 692 Q401 683 410.5 669.5 Q420 656 420 637 Q420 617 412 603 Q404 589 390.5 579 Q377 569 360 562.5 Q343 556 325 551 L317 577 Z " />
<glyph glyph-name="uni1ECB" unicode="&#x1ecb;" horiz-adv-x="600" d="M97 480 L382 480 L382 0 L338 0 L338 442 L97 442 L97 480 Z M349 596 Q329 596 315.5 609 Q302 622 302 644 Q302 666 315.5 679 Q329 692 349 692 Q369 692 382.5 679 Q396 666 396 644 Q396 622 382.5 609 Q369 596 349 596 Z M349 -210 Q329 -210 315.5 -197.5 Q302 -185 302 -162 Q302 -140 315.5 -127 Q329 -114 349 -114 Q369 -114 382.5 -127 Q396 -140 396 -162 Q396 -185 382.5 -197.5 Q369 -210 349 -210 Z " />
<glyph glyph-name="iogonek" unicode="&#x12f;" horiz-adv-x="600" d="M338 442 L97 442 L97 480 L382 480 L382 0 Q357 -26 339 -55 Q321 -84 321 -116 Q321 -142 335.5 -155 Q350 -168 370 -168 Q393 -168 413 -154 L429 -180 Q417 -190 398.5 -196.5 Q380 -203 364 -203 Q329 -203 305.5 -183 Q282 -163 282 -122 Q282 -84 302 -54 Q322 -24 345 0 L338 0 L338 442 Z M349 596 Q329 596 315.5 609 Q302 622 302 644 Q302 666 315.5 679 Q329 692 349 692 Q369 692 382.5 679 Q396 666 396 644 Q396 622 382.5 609 Q369 596 349 596 Z " />
<glyph glyph-name="dotlessi" unicode="&#x131;" horiz-adv-x="600" d="M97 480 L382 480 L382 0 L338 0 L338 442 L97 442 L97 480 Z " />
<glyph glyph-name="jcircumflex" unicode="&#x135;" horiz-adv-x="600" d="M97 480 L382 480 L382 -37 Q382 -81 372.5 -116.5 Q363 -152 341.5 -177 Q320 -202 284 -215.5 Q248 -229 194 -229 Q160 -229 125 -220 Q90 -211 63 -197 L81 -162 Q105 -174 135.5 -182.5 Q166 -191 197 -191 Q239 -191 266.5 -180.5 Q294 -170 309.5 -150.5 Q325 -131 331.5 -103.5 Q338 -76 338 -43 L338 442 L97 442 L97 480 Z M329 710 L369 710 L464 572 L426 572 L351 673 L347 673 L272 572 L234 572 L329 710 Z " />
<glyph glyph-name="uni0137" unicode="&#x137;" horiz-adv-x="600" d="M123 719 L168 719 L168 191 L172 191 L480 480 L535 480 L338 294 L567 0 L516 0 L307 267 L168 136 L168 0 L123 0 L123 719 Z M317 -51 Q358 -59 379 -76 Q400 -93 400 -124 Q400 -144 389.5 -158.5 Q379 -173 361.5 -183 Q344 -193 321.5 -199.5 Q299 -206 275 -209 L268 -179 Q310 -173 335.5 -161 Q361 -149 361 -129 Q361 -106 343.5 -95.5 Q326 -85 304 -80 L317 -51 L317 -51 Z " />
<glyph glyph-name="kgreenlandic" unicode="&#x138;" horiz-adv-x="600" d="M123 480 L168 480 L168 189 L170 191 L480 480 L535 480 L338 294 L567 0 L516 0 L307 266 L168 134 L168 0 L123 0 L123 480 Z " />
<glyph glyph-name="lacute" unicode="&#x13a;" horiz-adv-x="600" d="M93 719 L315 719 L315 139 Q315 27 419 27 Q463 27 519 53 L533 18 Q504 6 476 -3 Q448 -12 413 -12 Q344 -12 307.5 25.5 Q271 63 271 145 L271 681 L93 681 L93 719 Z M287 760 L247 760 L339 866 L397 866 L287 760 Z " />
<glyph glyph-name="lcaron" unicode="&#x13e;" horiz-adv-x="600" d="M93 719 L315 719 L315 139 Q315 27 419 27 Q463 27 519 53 L533 18 Q504 6 476 -3 Q448 -12 413 -12 Q344 -12 307.5 25.5 Q271 63 271 145 L271 681 L93 681 L93 719 Z M394 548 L392 754 L430 754 L430 704 L421 548 L394 548 Z " />
<glyph glyph-name="ldot" unicode="&#x140;" horiz-adv-x="600" d="M62 719 L284 719 L284 139 Q284 27 388 27 Q432 27 488 53 L502 18 Q473 6 445 -3 Q417 -12 382 -12 Q313 -12 276.5 25.5 Q240 63 240 145 L240 681 L62 681 L62 719 Z M417 296 Q397 296 383.5 309 Q370 322 370 344 Q370 366 383.5 379 Q397 392 417 392 Q437 392 450.5 379 Q464 366 464 344 Q464 322 450.5 309 Q437 296 417 296 Z " />
<glyph glyph-name="uni013C" unicode="&#x13c;" horiz-adv-x="600" d="M93 719 L315 719 L315 139 Q315 27 419 27 Q463 27 519 53 L533 18 Q504 6 476 -3 Q448 -12 413 -12 Q344 -12 307.5 25.5 Q271 63 271 145 L271 681 L93 681 L93 719 Z M351 -51 Q392 -59 413 -76 Q434 -93 434 -124 Q434 -144 423.5 -158.5 Q413 -173 395.5 -183 Q378 -193 355.5 -199.5 Q333 -206 309 -209 L302 -179 Q344 -173 369.5 -161 Q395 -149 395 -129 Q395 -106 377.5 -95.5 Q360 -85 338 -80 L351 -51 L351 -51 Z " />
<glyph glyph-name="uni1E37" unicode="&#x1e37;" horiz-adv-x="600" d="M93 719 L315 719 L315 139 Q315 27 419 27 Q463 27 519 53 L533 18 Q504 6 476 -3 Q448 -12 413 -12 Q344 -12 307.5 25.5 Q271 63 271 145 L271 681 L93 681 L93 719 Z M376 -210 Q356 -210 342.5 -197.5 Q329 -185 329 -162 Q329 -140 342.5 -127 Q356 -114 376 -114 Q396 -114 409.5 -127 Q423 -140 423 -162 Q423 -185 409.5 -197.5 Q396 -210 376 -210 Z " />
<glyph glyph-name="uni1E39" unicode="&#x1e39;" horiz-adv-x="600" d="M93 719 L315 719 L315 139 Q315 27 419 27 Q463 27 519 53 L533 18 Q504 6 476 -3 Q448 -12 413 -12 Q344 -12 307.5 25.5 Q271 63 271 145 L271 681 L93 681 L93 719 Z M179 870 L405 870 L405 834 L179 834 L179 870 Z M376 -210 Q356 -210 342.5 -197.5 Q329 -185 329 -162 Q329 -140 342.5 -127 Q356 -114 376 -114 Q396 -114 409.5 -127 Q423 -140 423 -162 Q423 -185 409.5 -197.5 Q396 -210 376 -210 Z " />
<glyph glyph-name="uni1E3B" unicode="&#x1e3b;" horiz-adv-x="600" d="M93 719 L315 719 L315 139 Q315 27 419 27 Q463 27 519 53 L533 18 Q504 6 476 -3 Q448 -12 413 -12 Q344 -12 307.5 25.5 Q271 63 271 145 L271 681 L93 681 L93 719 Z M489 -160 L261 -160 L261 -124 L489 -124 L489 -160 Z " />
<glyph glyph-name="lslash" unicode="&#x142;" horiz-adv-x="600" d="M533 18 Q504 6 476 -3 Q448 -12 413 -12 Q344 -12 307.5 25.5 Q271 63 271 145 L271 365 L141 289 L141 332 L271 407 L271 681 L93 681 L93 719 L315 719 L315 432 L486 529 L486 486 L315 389 L315 139 Q315 27 419 27 Q463 27 519 53 L533 18 Z " />
<glyph glyph-name="uni1E43" unicode="&#x1e43;" horiz-adv-x="600" d="M75 480 L111 480 L116 415 L118 415 Q139 450 163.5 471 Q188 492 228 492 Q305 492 324 407 Q350 448 376 470 Q402 492 442 492 Q492 492 519 456 Q546 420 546 348 L546 0 L503 0 L503 343 Q503 452 433 452 Q401 452 377.5 429.5 Q354 407 330 362 L330 0 L290 0 L290 343 Q290 452 221 452 Q188 452 164.5 429.5 Q141 407 118 362 L118 0 L75 0 L75 480 Z M307 -210 Q287 -210 273.5 -197.5 Q260 -185 260 -162 Q260 -140 273.5 -127 Q287 -114 307 -114 Q327 -114 340.5 -127 Q354 -140 354 -162 Q354 -185 340.5 -197.5 Q327 -210 307 -210 Z " />
<glyph glyph-name="nacute" unicode="&#x144;" horiz-adv-x="600" d="M105 480 L143 480 L148 388 L152 388 Q194 433 238.5 462.5 Q283 492 341 492 Q514 492 514 299 L514 0 L469 0 L469 293 Q469 374 437.5 413 Q406 452 334 452 Q308 452 286 445.5 Q264 439 242.5 425.5 Q221 412 198.5 391.5 Q176 371 150 344 L150 0 L105 0 L105 480 Z M301 572 L263 572 L355 710 L408 710 L301 572 Z " />
<glyph glyph-name="ncaron" unicode="&#x148;" horiz-adv-x="600" d="M105 480 L143 480 L148 388 L152 388 Q194 433 238.5 462.5 Q283 492 341 492 Q514 492 514 299 L514 0 L469 0 L469 293 Q469 374 437.5 413 Q406 452 334 452 Q308 452 286 445.5 Q264 439 242.5 425.5 Q221 412 198.5 391.5 Q176 371 150 344 L150 0 L105 0 L105 480 Z M204 710 L242 710 L317 609 L321 609 L396 710 L434 710 L339 572 L299 572 L204 710 Z " />
<glyph glyph-name="ntilde" unicode="&#xf1;" horiz-adv-x="600" d="M105 480 L143 480 L148 388 L152 388 Q194 433 238.5 462.5 Q283 492 341 492 Q514 492 514 299 L514 0 L469 0 L469 293 Q469 374 437.5 413 Q406 452 334 452 Q308 452 286 445.5 Q264 439 242.5 425.5 Q221 412 198.5 391.5 Q176 371 150 344 L150 0 L105 0 L105 480 Z M195 581 Q196 597 200 613.5 Q204 630 212.5 642.5 Q221 655 234 663 Q247 671 265 671 Q283 671 297.5 662 Q312 653 325 642.5 Q338 632 350 623.5 Q362 615 375 615 Q391 615 400.5 630 Q410 645 413 671 L443 671 Q442 655 437.5 639 Q433 623 425 610 Q417 597 404 589 Q391 581 373 581 Q355 581 340.5 589.5 Q326 598 313.5 608.5 Q301 619 288.5 628 Q276 637 263 637 Q231 637 225 581 L195 581 L195 581 Z " />
<glyph glyph-name="uni0146" unicode="&#x146;" horiz-adv-x="600" d="M105 480 L143 480 L148 388 L152 388 Q194 433 238.5 462.5 Q283 492 341 492 Q514 492 514 299 L514 0 L469 0 L469 293 Q469 374 437.5 413 Q406 452 334 452 Q308 452 286 445.5 Q264 439 242.5 425.5 Q221 412 198.5 391.5 Q176 371 150 344 L150 0 L105 0 L105 480 Z M292 -51 Q333 -59 354 -76 Q375 -93 375 -124 Q375 -144 364.5 -158.5 Q354 -173 336.5 -183 Q319 -193 296.5 -199.5 Q274 -206 250 -209 L243 -179 Q285 -173 310.5 -161 Q336 -149 336 -129 Q336 -106 318.5 -95.5 Q301 -85 279 -80 L292 -51 L292 -51 Z " />
<glyph glyph-name="uni1E45" unicode="&#x1e45;" horiz-adv-x="600" d="M105 480 L143 480 L148 388 L152 388 Q194 433 238.5 462.5 Q283 492 341 492 Q514 492 514 299 L514 0 L469 0 L469 293 Q469 374 437.5 413 Q406 452 334 452 Q308 452 286 445.5 Q264 439 242.5 425.5 Q221 412 198.5 391.5 Q176 371 150 344 L150 0 L105 0 L105 480 Z M319 596 Q299 596 285.5 609 Q272 622 272 644 Q272 666 285.5 679 Q299 692 319 692 Q339 692 352.5 679 Q366 666 366 644 Q366 622 352.5 609 Q339 596 319 596 Z " />
<glyph glyph-name="uni1E47" unicode="&#x1e47;" horiz-adv-x="600" d="M105 480 L143 480 L148 388 L152 388 Q194 433 238.5 462.5 Q283 492 341 492 Q514 492 514 299 L514 0 L469 0 L469 293 Q469 374 437.5 413 Q406 452 334 452 Q308 452 286 445.5 Q264 439 242.5 425.5 Q221 412 198.5 391.5 Q176 371 150 344 L150 0 L105 0 L105 480 Z M317 -210 Q297 -210 283.5 -197.5 Q270 -185 270 -162 Q270 -140 283.5 -127 Q297 -114 317 -114 Q337 -114 350.5 -127 Q364 -140 364 -162 Q364 -185 350.5 -197.5 Q337 -210 317 -210 Z " />
<glyph glyph-name="uni1E49" unicode="&#x1e49;" horiz-adv-x="600" d="M105 480 L143 480 L148 388 L152 388 Q194 433 238.5 462.5 Q283 492 341 492 Q514 492 514 299 L514 0 L469 0 L469 293 Q469 374 437.5 413 Q406 452 334 452 Q308 452 286 445.5 Q264 439 242.5 425.5 Q221 412 198.5 391.5 Q176 371 150 344 L150 0 L105 0 L105 480 Z M430 -160 L202 -160 L202 -124 L430 -124 L430 -160 Z " />
<glyph glyph-name="napostrophe" unicode="&#x149;" horiz-adv-x="600" d="M-7 415 Q36 444 62 487 Q88 530 92 586 Q75 576 62 576 Q36 576 19.5 593 Q3 610 3 636 Q3 664 20 682 Q37 700 64 700 Q94 700 116 674 Q138 648 138 602 Q138 530 103.5 473 Q69 416 13 385 L-7 415 Z M231 397 Q270 438 312 465 Q354 492 409 492 Q570 492 570 308 L570 0 L526 0 L526 302 Q526 378 497 415 Q468 452 402 452 Q378 452 357 446 Q336 440 316 427.5 Q296 415 274.5 396.5 Q253 378 229 353 L229 0 L184 0 L184 480 L222 480 L227 397 L231 397 Z " />
<glyph glyph-name="ograve" unicode="&#xf2;" horiz-adv-x="600" d="M67 239 Q67 299 85.5 346.5 Q104 394 136 426 Q168 458 210.5 475 Q253 492 300 492 Q347 492 389.5 475 Q432 458 464 426 Q496 394 514.5 346.5 Q533 299 533 239 Q533 179 514.5 132.5 Q496 86 464 54 Q432 22 389.5 5 Q347 -12 300 -12 Q253 -12 210.5 5 Q168 22 136 54 Q104 86 85.5 132.5 Q67 179 67 239 Z M114 239 Q114 192 128 153 Q142 114 166.5 86 Q191 58 225 42.5 Q259 27 300 27 Q340 27 374.5 42.5 Q409 58 433.5 86 Q458 114 472 153 Q486 192 486 239 Q486 287 472 326 Q458 365 433.5 393.5 Q409 422 374.5 437.5 Q340 453 300 453 Q259 453 225 437.5 Q191 422 166.5 393.5 Q142 365 128 326 Q114 287 114 239 Z M211 710 L264 710 L356 572 L318 572 L211 710 Z " />
<glyph glyph-name="oacute" unicode="&#xf3;" horiz-adv-x="600" d="M67 239 Q67 299 85.5 346.5 Q104 394 136 426 Q168 458 210.5 475 Q253 492 300 492 Q347 492 389.5 475 Q432 458 464 426 Q496 394 514.5 346.5 Q533 299 533 239 Q533 179 514.5 132.5 Q496 86 464 54 Q432 22 389.5 5 Q347 -12 300 -12 Q253 -12 210.5 5 Q168 22 136 54 Q104 86 85.5 132.5 Q67 179 67 239 Z M114 239 Q114 192 128 153 Q142 114 166.5 86 Q191 58 225 42.5 Q259 27 300 27 Q340 27 374.5 42.5 Q409 58 433.5 86 Q458 114 472 153 Q486 192 486 239 Q486 287 472 326 Q458 365 433.5 393.5 Q409 422 374.5 437.5 Q340 453 300 453 Q259 453 225 437.5 Q191 422 166.5 393.5 Q142 365 128 326 Q114 287 114 239 Z M282 572 L244 572 L336 710 L389 710 L282 572 Z " />
<glyph glyph-name="ocircumflex" unicode="&#xf4;" horiz-adv-x="600" d="M67 239 Q67 299 85.5 346.5 Q104 394 136 426 Q168 458 210.5 475 Q253 492 300 492 Q347 492 389.5 475 Q432 458 464 426 Q496 394 514.5 346.5 Q533 299 533 239 Q533 179 514.5 132.5 Q496 86 464 54 Q432 22 389.5 5 Q347 -12 300 -12 Q253 -12 210.5 5 Q168 22 136 54 Q104 86 85.5 132.5 Q67 179 67 239 Z M114 239 Q114 192 128 153 Q142 114 166.5 86 Q191 58 225 42.5 Q259 27 300 27 Q340 27 374.5 42.5 Q409 58 433.5 86 Q458 114 472 153 Q486 192 486 239 Q486 287 472 326 Q458 365 433.5 393.5 Q409 422 374.5 437.5 Q340 453 300 453 Q259 453 225 437.5 Q191 422 166.5 393.5 Q142 365 128 326 Q114 287 114 239 Z M280 710 L320 710 L415 572 L377 572 L302 673 L298 673 L223 572 L185 572 L280 710 Z " />
<glyph glyph-name="otilde" unicode="&#xf5;" horiz-adv-x="600" d="M67 239 Q67 299 85.5 346.5 Q104 394 136 426 Q168 458 210.5 475 Q253 492 300 492 Q347 492 389.5 475 Q432 458 464 426 Q496 394 514.5 346.5 Q533 299 533 239 Q533 179 514.5 132.5 Q496 86 464 54 Q432 22 389.5 5 Q347 -12 300 -12 Q253 -12 210.5 5 Q168 22 136 54 Q104 86 85.5 132.5 Q67 179 67 239 Z M114 239 Q114 192 128 153 Q142 114 166.5 86 Q191 58 225 42.5 Q259 27 300 27 Q340 27 374.5 42.5 Q409 58 433.5 86 Q458 114 472 153 Q486 192 486 239 Q486 287 472 326 Q458 365 433.5 393.5 Q409 422 374.5 437.5 Q340 453 300 453 Q259 453 225 437.5 Q191 422 166.5 393.5 Q142 365 128 326 Q114 287 114 239 Z M176 581 Q177 597 181 613.5 Q185 630 193.5 642.5 Q202 655 215 663 Q228 671 246 671 Q264 671 278.5 662 Q293 653 306 642.5 Q319 632 331 623.5 Q343 615 356 615 Q372 615 381.5 630 Q391 645 394 671 L424 671 Q423 655 418.5 639 Q414 623 406 610 Q398 597 385 589 Q372 581 354 581 Q336 581 321.5 589.5 Q307 598 294.5 608.5 Q282 619 269.5 628 Q257 637 244 637 Q212 637 206 581 L176 581 L176 581 Z " />
<glyph glyph-name="odieresis" unicode="&#xf6;" horiz-adv-x="600" d="M67 239 Q67 299 85.5 346.5 Q104 394 136 426 Q168 458 210.5 475 Q253 492 300 492 Q347 492 389.5 475 Q432 458 464 426 Q496 394 514.5 346.5 Q533 299 533 239 Q533 179 514.5 132.5 Q496 86 464 54 Q432 22 389.5 5 Q347 -12 300 -12 Q253 -12 210.5 5 Q168 22 136 54 Q104 86 85.5 132.5 Q67 179 67 239 Z M114 239 Q114 192 128 153 Q142 114 166.5 86 Q191 58 225 42.5 Q259 27 300 27 Q340 27 374.5 42.5 Q409 58 433.5 86 Q458 114 472 153 Q486 192 486 239 Q486 287 472 326 Q458 365 433.5 393.5 Q409 422 374.5 437.5 Q340 453 300 453 Q259 453 225 437.5 Q191 422 166.5 393.5 Q142 365 128 326 Q114 287 114 239 Z M211 598 Q194 598 183 610 Q172 622 172 639 Q172 656 183 668.5 Q194 681 211 681 Q228 681 239.5 668.5 Q251 656 251 639 Q251 622 239.5 610 Q228 598 211 598 Z M389 598 Q372 598 360.5 610 Q349 622 349 639 Q349 656 360.5 668.5 Q372 681 389 681 Q406 681 417 668.5 Q428 656 428 639 Q428 622 417 610 Q406 598 389 598 Z " />
<glyph glyph-name="omacron" unicode="&#x14d;" horiz-adv-x="600" d="M67 239 Q67 299 85.5 346.5 Q104 394 136 426 Q168 458 210.5 475 Q253 492 300 492 Q347 492 389.5 475 Q432 458 464 426 Q496 394 514.5 346.5 Q533 299 533 239 Q533 179 514.5 132.5 Q496 86 464 54 Q432 22 389.5 5 Q347 -12 300 -12 Q253 -12 210.5 5 Q168 22 136 54 Q104 86 85.5 132.5 Q67 179 67 239 Z M114 239 Q114 192 128 153 Q142 114 166.5 86 Q191 58 225 42.5 Q259 27 300 27 Q340 27 374.5 42.5 Q409 58 433.5 86 Q458 114 472 153 Q486 192 486 239 Q486 287 472 326 Q458 365 433.5 393.5 Q409 422 374.5 437.5 Q340 453 300 453 Q259 453 225 437.5 Q191 422 166.5 393.5 Q142 365 128 326 Q114 287 114 239 Z M187 642 L413 642 L413 606 L187 606 L187 642 Z " />
<glyph glyph-name="uni014F" unicode="&#x14f;" horiz-adv-x="600" d="M67 239 Q67 299 85.5 346.5 Q104 394 136 426 Q168 458 210.5 475 Q253 492 300 492 Q347 492 389.5 475 Q432 458 464 426 Q496 394 514.5 346.5 Q533 299 533 239 Q533 179 514.5 132.5 Q496 86 464 54 Q432 22 389.5 5 Q347 -12 300 -12 Q253 -12 210.5 5 Q168 22 136 54 Q104 86 85.5 132.5 Q67 179 67 239 Z M114 239 Q114 192 128 153 Q142 114 166.5 86 Q191 58 225 42.5 Q259 27 300 27 Q340 27 374.5 42.5 Q409 58 433.5 86 Q458 114 472 153 Q486 192 486 239 Q486 287 472 326 Q458 365 433.5 393.5 Q409 422 374.5 437.5 Q340 453 300 453 Q259 453 225 437.5 Q191 422 166.5 393.5 Q142 365 128 326 Q114 287 114 239 Z M300 576 Q269 576 247.5 587.5 Q226 599 211.5 617 Q197 635 189.5 656 Q182 677 180 697 L213 697 Q215 680 221.5 664.5 Q228 649 238.5 636 Q249 623 264.5 615.5 Q280 608 300 608 Q320 608 335.5 615.5 Q351 623 361.5 636 Q372 649 378.5 664.5 Q385 680 387 697 L420 697 Q418 677 410.5 656 Q403 635 388.5 617 Q374 599 352.5 587.5 Q331 576 300 576 Z " />
<glyph glyph-name="ohungarumlaut" unicode="&#x151;" horiz-adv-x="600" d="M67 239 Q67 299 85.5 346.5 Q104 394 136 426 Q168 458 210.5 475 Q253 492 300 492 Q347 492 389.5 475 Q432 458 464 426 Q496 394 514.5 346.5 Q533 299 533 239 Q533 179 514.5 132.5 Q496 86 464 54 Q432 22 389.5 5 Q347 -12 300 -12 Q253 -12 210.5 5 Q168 22 136 54 Q104 86 85.5 132.5 Q67 179 67 239 Z M114 239 Q114 192 128 153 Q142 114 166.5 86 Q191 58 225 42.5 Q259 27 300 27 Q340 27 374.5 42.5 Q409 58 433.5 86 Q458 114 472 153 Q486 192 486 239 Q486 287 472 326 Q458 365 433.5 393.5 Q409 422 374.5 437.5 Q340 453 300 453 Q259 453 225 437.5 Q191 422 166.5 393.5 Q142 365 128 326 Q114 287 114 239 Z M290 708 L335 708 L252 570 L218 570 L290 708 Z M423 708 L469 708 L385 570 L351 570 L423 708 Z " />
<glyph glyph-name="uni01D2" unicode="&#x1d2;" horiz-adv-x="600" d="M67 239 Q67 299 85.5 346.5 Q104 394 136 426 Q168 458 210.5 475 Q253 492 300 492 Q347 492 389.5 475 Q432 458 464 426 Q496 394 514.5 346.5 Q533 299 533 239 Q533 179 514.5 132.5 Q496 86 464 54 Q432 22 389.5 5 Q347 -12 300 -12 Q253 -12 210.5 5 Q168 22 136 54 Q104 86 85.5 132.5 Q67 179 67 239 Z M114 239 Q114 192 128 153 Q142 114 166.5 86 Q191 58 225 42.5 Q259 27 300 27 Q340 27 374.5 42.5 Q409 58 433.5 86 Q458 114 472 153 Q486 192 486 239 Q486 287 472 326 Q458 365 433.5 393.5 Q409 422 374.5 437.5 Q340 453 300 453 Q259 453 225 437.5 Q191 422 166.5 393.5 Q142 365 128 326 Q114 287 114 239 Z M185 710 L223 710 L298 609 L302 609 L377 710 L415 710 L320 572 L280 572 L185 710 Z " />
<glyph glyph-name="uni1ECD" unicode="&#x1ecd;" horiz-adv-x="600" d="M67 239 Q67 299 85.5 346.5 Q104 394 136 426 Q168 458 210.5 475 Q253 492 300 492 Q347 492 389.5 475 Q432 458 464 426 Q496 394 514.5 346.5 Q533 299 533 239 Q533 179 514.5 132.5 Q496 86 464 54 Q432 22 389.5 5 Q347 -12 300 -12 Q253 -12 210.5 5 Q168 22 136 54 Q104 86 85.5 132.5 Q67 179 67 239 Z M114 239 Q114 192 128 153 Q142 114 166.5 86 Q191 58 225 42.5 Q259 27 300 27 Q340 27 374.5 42.5 Q409 58 433.5 86 Q458 114 472 153 Q486 192 486 239 Q486 287 472 326 Q458 365 433.5 393.5 Q409 422 374.5 437.5 Q340 453 300 453 Q259 453 225 437.5 Q191 422 166.5 393.5 Q142 365 128 326 Q114 287 114 239 Z M301 -210 Q281 -210 267.5 -197.5 Q254 -185 254 -162 Q254 -140 267.5 -127 Q281 -114 301 -114 Q321 -114 334.5 -127 Q348 -140 348 -162 Q348 -185 334.5 -197.5 Q321 -210 301 -210 Z " />
<glyph glyph-name="uni1ECF" unicode="&#x1ecf;" horiz-adv-x="600" d="M67 239 Q67 299 85.5 346.5 Q104 394 136 426 Q168 458 210.5 475 Q253 492 300 492 Q347 492 389.5 475 Q432 458 464 426 Q496 394 514.5 346.5 Q533 299 533 239 Q533 179 514.5 132.5 Q496 86 464 54 Q432 22 389.5 5 Q347 -12 300 -12 Q253 -12 210.5 5 Q168 22 136 54 Q104 86 85.5 132.5 Q67 179 67 239 Z M114 239 Q114 192 128 153 Q142 114 166.5 86 Q191 58 225 42.5 Q259 27 300 27 Q340 27 374.5 42.5 Q409 58 433.5 86 Q458 114 472 153 Q486 192 486 239 Q486 287 472 326 Q458 365 433.5 393.5 Q409 422 374.5 437.5 Q340 453 300 453 Q259 453 225 437.5 Q191 422 166.5 393.5 Q142 365 128 326 Q114 287 114 239 Z M268 577 Q295 585 313 597.5 Q331 610 331 632 Q331 677 246 680 L250 712 Q275 711 297 706 Q319 701 335.5 692 Q352 683 361.5 669.5 Q371 656 371 637 Q371 617 363 603 Q355 589 341.5 579 Q328 569 311 562.5 Q294 556 276 551 L268 577 Z " />
<glyph glyph-name="uni1ED1" unicode="&#x1ed1;" horiz-adv-x="600" d="M67 239 Q67 299 85.5 346.5 Q104 394 136 426 Q168 458 210.5 475 Q253 492 300 492 Q347 492 389.5 475 Q432 458 464 426 Q496 394 514.5 346.5 Q533 299 533 239 Q533 179 514.5 132.5 Q496 86 464 54 Q432 22 389.5 5 Q347 -12 300 -12 Q253 -12 210.5 5 Q168 22 136 54 Q104 86 85.5 132.5 Q67 179 67 239 Z M114 239 Q114 192 128 153 Q142 114 166.5 86 Q191 58 225 42.5 Q259 27 300 27 Q340 27 374.5 42.5 Q409 58 433.5 86 Q458 114 472 153 Q486 192 486 239 Q486 287 472 326 Q458 365 433.5 393.5 Q409 422 374.5 437.5 Q340 453 300 453 Q259 453 225 437.5 Q191 422 166.5 393.5 Q142 365 128 326 Q114 287 114 239 Z M281 686 L319 686 L403 572 L367 572 L302 650 L298 650 L233 572 L197 572 L281 686 Z M455 748 L501 748 L411 637 L378 637 L455 748 Z " />
<glyph glyph-name="uni1ED3" unicode="&#x1ed3;" horiz-adv-x="600" d="M67 239 Q67 299 85.5 346.5 Q104 394 136 426 Q168 458 210.5 475 Q253 492 300 492 Q347 492 389.5 475 Q432 458 464 426 Q496 394 514.5 346.5 Q533 299 533 239 Q533 179 514.5 132.5 Q496 86 464 54 Q432 22 389.5 5 Q347 -12 300 -12 Q253 -12 210.5 5 Q168 22 136 54 Q104 86 85.5 132.5 Q67 179 67 239 Z M114 239 Q114 192 128 153 Q142 114 166.5 86 Q191 58 225 42.5 Q259 27 300 27 Q340 27 374.5 42.5 Q409 58 433.5 86 Q458 114 472 153 Q486 192 486 239 Q486 287 472 326 Q458 365 433.5 393.5 Q409 422 374.5 437.5 Q340 453 300 453 Q259 453 225 437.5 Q191 422 166.5 393.5 Q142 365 128 326 Q114 287 114 239 Z M281 686 L319 686 L403 572 L367 572 L302 650 L298 650 L233 572 L197 572 L281 686 Z M473 637 L440 637 L349 748 L396 748 L473 637 Z " />
<glyph glyph-name="uni1ED5" unicode="&#x1ed5;" horiz-adv-x="600" d="M67 239 Q67 299 85.5 346.5 Q104 394 136 426 Q168 458 210.5 475 Q253 492 300 492 Q347 492 389.5 475 Q432 458 464 426 Q496 394 514.5 346.5 Q533 299 533 239 Q533 179 514.5 132.5 Q496 86 464 54 Q432 22 389.5 5 Q347 -12 300 -12 Q253 -12 210.5 5 Q168 22 136 54 Q104 86 85.5 132.5 Q67 179 67 239 Z M114 239 Q114 192 128 153 Q142 114 166.5 86 Q191 58 225 42.5 Q259 27 300 27 Q340 27 374.5 42.5 Q409 58 433.5 86 Q458 114 472 153 Q486 192 486 239 Q486 287 472 326 Q458 365 433.5 393.5 Q409 422 374.5 437.5 Q340 453 300 453 Q259 453 225 437.5 Q191 422 166.5 393.5 Q142 365 128 326 Q114 287 114 239 Z M281 686 L319 686 L403 572 L367 572 L302 650 L298 650 L233 572 L197 572 L281 686 Z M395 653 Q416 661 430 671.5 Q444 682 444 699 Q444 742 373 745 L376 774 Q421 772 451.5 756 Q482 740 482 704 Q482 687 475 674.5 Q468 662 456.5 653 Q445 644 431 638 Q417 632 403 628 L395 653 Z " />
<glyph glyph-name="uni1ED7" unicode="&#x1ed7;" horiz-adv-x="600" d="M67 239 Q67 299 85.5 346.5 Q104 394 136 426 Q168 458 210.5 475 Q253 492 300 492 Q347 492 389.5 475 Q432 458 464 426 Q496 394 514.5 346.5 Q533 299 533 239 Q533 179 514.5 132.5 Q496 86 464 54 Q432 22 389.5 5 Q347 -12 300 -12 Q253 -12 210.5 5 Q168 22 136 54 Q104 86 85.5 132.5 Q67 179 67 239 Z M114 239 Q114 192 128 153 Q142 114 166.5 86 Q191 58 225 42.5 Q259 27 300 27 Q340 27 374.5 42.5 Q409 58 433.5 86 Q458 114 472 153 Q486 192 486 239 Q486 287 472 326 Q458 365 433.5 393.5 Q409 422 374.5 437.5 Q340 453 300 453 Q259 453 225 437.5 Q191 422 166.5 393.5 Q142 365 128 326 Q114 287 114 239 Z M280 670 L320 670 L411 570 L375 570 L302 639 L298 639 L225 570 L189 570 L280 670 Z M179 706 Q180 720 184.5 734 Q189 748 197.5 759 Q206 770 219 776.5 Q232 783 249 783 Q267 783 280.5 776 Q294 769 305 760.5 Q316 752 327 745 Q338 738 351 738 Q385 738 393 783 L421 783 Q420 769 415.5 755 Q411 741 402.5 730 Q394 719 381 712.5 Q368 706 351 706 Q333 706 319.5 713 Q306 720 294.5 728.5 Q283 737 272.5 744 Q262 751 249 751 Q214 751 207 706 L179 706 Z " />
<glyph glyph-name="uni1ED9" unicode="&#x1ed9;" horiz-adv-x="600" d="M67 239 Q67 299 85.5 346.5 Q104 394 136 426 Q168 458 210.5 475 Q253 492 300 492 Q347 492 389.5 475 Q432 458 464 426 Q496 394 514.5 346.5 Q533 299 533 239 Q533 179 514.5 132.5 Q496 86 464 54 Q432 22 389.5 5 Q347 -12 300 -12 Q253 -12 210.5 5 Q168 22 136 54 Q104 86 85.5 132.5 Q67 179 67 239 Z M114 239 Q114 192 128 153 Q142 114 166.5 86 Q191 58 225 42.5 Q259 27 300 27 Q340 27 374.5 42.5 Q409 58 433.5 86 Q458 114 472 153 Q486 192 486 239 Q486 287 472 326 Q458 365 433.5 393.5 Q409 422 374.5 437.5 Q340 453 300 453 Q259 453 225 437.5 Q191 422 166.5 393.5 Q142 365 128 326 Q114 287 114 239 Z M280 710 L320 710 L415 572 L377 572 L302 673 L298 673 L223 572 L185 572 L280 710 Z M300 -210 Q280 -210 266.5 -197.5 Q253 -185 253 -162 Q253 -140 266.5 -127 Q280 -114 300 -114 Q320 -114 333.5 -127 Q347 -140 347 -162 Q347 -185 333.5 -197.5 Q320 -210 300 -210 Z " />
<glyph glyph-name="oslash" unicode="&#xf8;" horiz-adv-x="600" d="M178 73 Q228 26 300 26 Q340 26 374.5 41.5 Q409 57 433.5 85 Q458 113 472 152.5 Q486 192 486 239 Q486 324 444 380 L178 73 Z M422 406 Q398 429 367 441.5 Q336 454 300 454 Q259 454 225 438.5 Q191 423 166.5 394.5 Q142 366 128 326.5 Q114 287 114 239 Q114 155 156 99 L422 406 Z M474 415 Q502 383 517.5 339 Q533 295 533 239 Q533 179 514.5 132.5 Q496 86 464 54 Q432 22 389.5 5 Q347 -12 300 -12 Q258 -12 219.5 1.5 Q181 15 150 41 L95 -22 L69 -1 L126 65 Q99 97 83 140.5 Q67 184 67 239 Q67 299 85.5 346.5 Q104 394 136 426 Q168 458 210.5 475 Q253 492 300 492 Q388 492 450 438 L505 501 L531 480 L474 415 Z " />
</font>
</svg>
