<?xml version="1.0" encoding="utf-8"?>
<!-- Generator: Adobe Illustrator 19.2.1, SVG Export Plug-In . SVG Version: 6.00 Build 0)  -->
<svg version="1.1" id="Layer_1" xmlns="http://www.w3.org/2000/svg" xmlns:xlink="http://www.w3.org/1999/xlink" x="0px" y="0px"
	 viewBox="0 0 416.6 535.4" enable-background="new 0 0 416.6 535.4" xml:space="preserve">
<g>
	<g>
		<path fill="#F9E276" d="M416.6,239.6c0,15.3-14.5,25.4-35.4,22c0.1,7.2,0.2,13.3,0.4,17c-7.2,1.9-15.8,2.4-23.7,0.9
			c-0.2-5.2-0.4-14.6-0.4-25.4c0-20.5-0.5-26.1-1.3-28.4c10.3-3.2,20.7-5.1,31-5.1C406.3,220.4,416.6,226.6,416.6,239.6z
			 M392.8,241.2c0-8.4-3.4-12.6-8.3-12.6c-1,0-2.2,0.2-3.1,0.4c-0.2,8.7-0.2,17.9-0.2,26C388.5,254.9,392.8,250.7,392.8,241.2z"/>
		<path fill="#F9E276" d="M397.5,363.4c-7.2,1.9-15.8,2.4-23.7,0.9c-0.5-9.6-0.6-33.6-0.1-57.6c4.1-0.9,8.7-1.3,13.4-1.3
			c3.6,0,7.1,0.2,10.4,0.7C396.9,329.5,397,353.9,397.5,363.4z"/>
		<path fill="#F9E276" d="M416.4,419.8c0,18.1-10.6,31-31.5,31c-19.2,0-30.7-11.9-30.7-29.8c0-18.1,10.6-31,31.5-31
			C404.9,390,416.4,402,416.4,419.8z M386.6,444.1c4.1,0,6.2-7.1,6.2-18.6c0-16.1-3.6-28.7-8.7-28.7c-4.1,0-6.2,7.2-6.2,18.6
			C377.9,431.6,381.4,444.1,386.6,444.1z"/>
		<path fill="#F9E276" d="M410.6,534.7c-3.2,0.6-6.6,0.7-10.8,0.2c-10.1-10.6-19.9-21.4-29.1-32.5c0.5,11.9,1.3,23.9,3,32.2
			c-4.3,0.9-8.5,1.1-12.6,0.2c-0.8-10.9-0.9-28.7-0.2-44.6c-3.1-3.5-6.2-5.7-7.9-6.5c1.1-3.8,4.7-7,8.7-8.2h0.1
			c1.3-0.4,2.6-0.6,3.9-0.6c5.9,0,12.6,3.5,18,10.4c5.7,7.2,11.8,14.5,17.3,20.9c-1-11.6-2.4-22.4-3.5-30.3c4.7-0.9,8.7-1,12.6-0.5
			C411.2,488.7,411.4,516.8,410.6,534.7z"/>
	</g>
	<g>
		<path fill="#F9E276" d="M291.9,49.6c-4.2-0.9-8.3-1.6-12.5-2.1c-0.4,20.6-0.2,40.9,0.2,49.3c-7.2,1.9-15.8,2.4-23.7,0.9
			c-0.4-8.6-0.6-29-0.2-50.4c-4.6,0.5-8.9,1.3-13.2,2.4c-3-2.6-3.7-5.8-3.2-9.6c18.9-1.7,37.5-1.4,56.2-0.2
			C296.2,43.3,295.4,46.6,291.9,49.6z"/>
		<path fill="#F9E276" d="M284.9,186.1c-13-0.1-19.1-12.3-19.7-23.7l-2.5-0.4c0,9.3,0.2,17.2,0.4,21.7c-7.2,1.9-15.8,2.4-23.7,0.9
			c-0.2-5.2-0.4-14.6-0.4-25.4c0-20.5-0.5-26.1-1.3-28.4c11-3.7,19.4-5.1,29.1-5.1c21.7,0,30.2,7,30.2,17.1c0,11.3-8.9,19-22.8,19.9
			c4.7,4.4,16.7,3.2,22.7-1.3C301.3,173.5,296.7,186.1,284.9,186.1z M265,133.8c-0.6,0-1.4,0.1-2.1,0.2c-0.1,7.1-0.2,14.5-0.2,21.3
			c6.7-0.1,10.6-3.6,10.6-11.2C273.2,137.2,269.4,133.8,265,133.8z"/>
		<path fill="#F9E276" d="M292.6,271.5h-48.6c-1.3-1.6-2.4-4.3-2.9-6.2c8.1-15.6,16.4-30.7,25-45.9l-21.2,6.6
			c-1.7-3.2-2.7-9.2-2.1-12.9c16.2-0.6,32.2-0.5,48,0c1.5,1.6,2.5,3.7,2.9,6.1c-7.9,15.2-16,30.1-24.4,44.9l23.9-5.1
			C294.7,262.3,294.1,268.2,292.6,271.5z"/>
		<path fill="#F9E276" d="M294.6,338.1c-1.3,0.5-2.7,0.6-14.5-0.6c-0.3,8.5-0.2,16.5,0.2,19.9c-7.2,1.9-15.8,2.4-23.7,0.9
			c-0.4-3.6-0.6-11.6-0.2-20.4l-3.2,0.2c-6.3,0.5-9.7-1.9-9.7-7.4c1.1-0.5,2.3-0.6,10.7,0.2l-16.2-29.5c8.5-1.8,17.7-2.6,28-2.4
			l9.6,27.7l7.3-26.8c3.9-1.2,8.5-1.5,14.1-1.1l-15.5,32l3.2-0.2C291.2,330.2,294.6,332.6,294.6,338.1z"/>
		<path fill="#F9E276" d="M300.3,444.4c-7.2,1.9-15.8,2.4-23.7,0.9c-0.3-4.2-0.5-12.3-0.4-21.9c-3.2,8.1-6.6,15.9-9.4,22.4
			c-3.2,0.6-5.1,0.7-10.3,0.2c-4.5-7.9-8.7-16-12.4-25.5c0.9,9.5,2.3,18.4,4,25.2c-4.3,0.9-8.4,1.1-12.4,0.2
			c-0.5-10.3-0.5-27.4-0.2-42.3c-2.1-4.7-4.7-7.5-7.7-7.3c3.6-6.4,9.6-10.3,17.1-10.3c7.3,0,13.2,3.7,16.2,12.2
			c2.5,7.2,5.7,16.2,8.1,23.9c4.7-13.4,8.7-26.1,11.4-35c4.1-0.9,10.7-1.3,19.7-0.2C299.8,410.4,299.9,434.9,300.3,444.4z"/>
		<path fill="#F9E276" d="M297.1,532.5c-7.3,0.5-15.5,0.2-24.6-0.3c-1.6-3.6-3.2-7.5-4.9-11.9l-13.9,0.6c-1.1,4.2-2.1,8.1-2.8,11.4
			c-3.3,0.4-6.3,0.4-10.2,0c0.9-3.2,2.2-6.9,3.7-11.1c-5.8,0-8.7-2.8-8.3-8.1c1.6-0.2,3.3-0.2,11.2,0.2c3.1-8.1,6.6-16.9,9.8-24.9
			c-2.2-4.3-5.5-6.2-8.7-6.6c1.9-5.1,8.1-8.7,15.8-8.7c7.7,0,13.4,3.4,15.6,10.3C288.5,510.5,292.6,522.3,297.1,532.5z M265.4,514.2
			c-1.7-4.9-3.4-10.3-5.2-16.2c-1.5,5.2-3.1,10.5-4.5,15.6C258.5,513.8,261.7,513.9,265.4,514.2z"/>
	</g>
	<g>
		<path fill="#F9E276" d="M172,136.1h-43.8c-1.2-1.3-2.2-3.5-2.6-5.1c6.6-13,13.7-25.8,20.9-38.3l-18.2,7.7
			c-1.5-2.9-2.4-8.4-1.8-11.7c14.5-0.5,28.9-0.4,43.2,0c1.3,1.3,2.3,3.1,2.6,5.1c-6.2,12.5-13,24.6-20,36.7l20.3-5.7
			C173.8,127.7,173.3,133.2,172,136.1z"/>
		<path fill="#F9E276" d="M175.9,214.1c-6.7,2.4-16.2,2.7-23.7,1c-0.2-2.4-0.4-4.7-0.5-9c-2.4,7-9.6,10.6-15.6,10.6
			c-7.7,0-13.7-5.4-13.7-13.6c0-8.8,7.5-14.5,18.4-14.5c4.3,0,8,0.7,10.9,1.9v-1.4c0-13.4-2.2-16.4-4.6-16.4c-3,0-6.1,4.6-6.2,12.5
			c-11.1-0.1-15.9-4.7-15.9-8.5c0-5,8-10.5,25.8-10.5c15.6,0,23.8,7.3,23.8,23.4C174.5,203,174.8,210.5,175.9,214.1z M151.6,199.7
			v-4.3c-0.9-0.3-2-0.6-2.9-0.6c-3.2,0-5.1,2.1-5.1,5c0,2.4,1.3,4.3,3.5,4.3C149,204.1,151.1,202.8,151.6,199.7z"/>
		<path fill="#F9E276" d="M188,251.3c0,5.6-4.7,21.9-12.4,42.8c-6.7,1-13.3,1.3-19.8,1l-7.1-26.9l-6.9,25.9c-6.7,1-13.3,1.3-19.8,1
			l-12.2-46.5c7.1-1.5,15.2-2.1,23.8-1.9c1.5,4.9,4.3,21.8,6.6,38.8c1.3-15.6,2.8-31.7,3.5-36.9c7.1-1.5,15.2-2.1,23.8-1.9
			c1.5,4.9,4.4,22.3,6.6,39.4c3.1-13.4,4.3-32.5,1.9-38.4c2.2-1.3,4.2-2,6.4-2C186.1,245.8,188,247.7,188,251.3z"/>
		<path fill="#F9E276" d="M148.1,369.4c1.4,0,2.3-0.8,2.3-2.1c0-6.6-21.7-16.2-21.7-29.5c0-8.1,8.2-13.6,22.1-13.6
			c13.5,0,18.1,4.7,18.1,9c0,4-4.1,7.8-7.6,8.9c-3.3-8.5-8.9-13.1-11.8-13.1c-1.1,0-1.7,0.7-1.7,1.6c0,5.5,23.6,17.8,23.6,29.4
			c0,9.9-11.4,14.8-24.6,14.8c-10.7,0-19.1-3.9-19.1-10c0-4.1,3.8-8.2,7.9-9.5C140.7,366.1,145.3,369.4,148.1,369.4z"/>
		<path fill="#F9E276" d="M172,452.1h-43.8c-1.2-1.3-2.2-3.5-2.6-5.1c6.6-13,13.7-25.8,20.9-38.3l-18.2,7.7
			c-1.5-2.9-2.4-8.4-1.8-11.7c14.5-0.5,28.9-0.4,43.2,0c1.3,1.3,2.3,3.1,2.6,5.1c-6.2,12.5-13,24.6-20,36.7l20.3-5.7
			C173.8,443.7,173.3,449.2,172,452.1z"/>
		<path fill="#F9E276" d="M174.1,522.6c-4.1,5.4-11.6,10.1-22.4,10.1c-16.6,0-26.4-10.5-26.4-25.5c0-14.1,8.6-25,26.5-25
			c15.6,0,23.8,8.1,21.6,23.9h-25.2c0.7,10.8,4.7,16.4,11.7,16.4c3.8,0,7.9-1.6,11.3-4C172.5,519.4,173.7,521,174.1,522.6z
			 M148,500.8h6.4c1.1-11.1-1.2-12.6-3-12.6C149.2,488.2,148.1,490.6,148,500.8z"/>
	</g>
	<g>
		<path fill="#F9E276" d="M61.1,59.5c-7.3,0.5-15.5,0.2-24.6-0.3c-1.6-3.6-3.2-7.5-4.9-11.9l-13.9,0.6c-1.1,4.2-2.1,8.1-2.8,11.4
			c-3.3,0.4-6.3,0.4-10.2,0c0.9-3.2,2.2-6.9,3.7-11.1c-5.8,0-8.7-2.8-8.3-8.1c1.6-0.2,3.3-0.2,11.2,0.2c3.1-8.1,6.6-16.9,9.8-24.9
			c-2.2-4.3-5.5-6.2-8.7-6.6C14.3,3.6,20.5,0,28.2,0c7.7,0,13.4,3.4,15.6,10.3C52.4,37.5,56.6,49.3,61.1,59.5z M29.3,41.2
			c-1.7-4.9-3.4-10.3-5.2-16.2c-1.5,5.2-3.1,10.5-4.5,15.6C22.5,40.8,25.6,40.9,29.3,41.2z"/>
		<path fill="#F9E276" d="M60.2,113.8c0,16.3-9,25.9-20.2,25.9c-4.7,0-8.3-1.7-11.8-5.2c0.2,7.4,0.5,13.7,0.9,17.5
			c-7.7,2.1-16,2.6-23.7,1c-0.3-10.9-0.6-37.8-0.2-60.8c7.3-1.7,15-1.6,23-0.6c-0.1,3.1-0.1,6.3-0.2,9.6c1.5-6.5,7.4-12,14.8-12
			C52.8,89.2,60.2,99.1,60.2,113.8z M37.4,115.8c0-9.6-2.9-13.7-5.7-13.7c-1.3,0-2.8,0.8-3.7,2c-0.1,8.5-0.1,17.5,0.1,25.4
			c0.7,0.3,1.4,0.5,2.2,0.5C34.4,130,37.4,125.7,37.4,115.8z"/>
		<path fill="#F9E276" d="M55.3,179c0,3.6-0.9,8.1-3.2,12.9c-4.6-2.5-13.4-2.3-18.3,0.8c0,10.3,0.1,18.9,0.4,23.6
			c-7,1.9-15.2,2.4-22.9,0.9c-0.4-8.2-0.7-28.5-0.2-46c7.3-1.7,15-1.6,23-0.6c-0.2,6-0.2,11.8-0.2,17.4c2.4-13.1,7.8-19.7,14.1-19.7
			C52.3,168.2,55.3,172.4,55.3,179z"/>
		<path fill="#F9E276" d="M31.8,247.2c17.3,0,26.8,9.3,26.8,25.1c0,13.8-8.4,25.4-27.6,25.4c-17.3,0-26.8-9.3-26.8-25.1
			C4.2,258.8,12.5,247.2,31.8,247.2z M35.9,279.9c0-17.5-2.5-26-5.8-26c-2.1,0-3.2,3.6-3.2,10.8c0,10,1.5,26.2,5.8,26.2
			C35,291,35.9,287.3,35.9,279.9z"/>
		<path fill="#F9E276" d="M60.2,350.8c0,16.3-9,25.9-20.2,25.9c-4.7,0-8.3-1.7-11.8-5.2c0.2,7.4,0.5,13.7,0.9,17.5
			c-7.7,2.1-16,2.6-23.7,1c-0.3-10.9-0.6-37.8-0.2-60.8c7.3-1.7,15-1.6,23-0.6c-0.1,3.1-0.1,6.3-0.2,9.6c1.5-6.5,7.4-12,14.8-12
			C52.8,326.2,60.2,336.1,60.2,350.8z M37.4,352.8c0-9.6-2.9-13.7-5.7-13.7c-1.3,0-2.8,0.8-3.7,2c-0.1,8.5-0.1,17.5,0.1,25.4
			c0.7,0.3,1.4,0.5,2.2,0.5C34.4,367,37.4,362.7,37.4,352.8z"/>
		<path fill="#F9E276" d="M57.8,453.1c-6.7,2.4-16.2,2.7-23.7,1c-0.2-2.4-0.4-4.7-0.5-9c-2.4,7-9.6,10.6-15.6,10.6
			c-7.7,0-13.7-5.4-13.7-13.6c0-8.8,7.5-14.5,18.4-14.5c4.3,0,8,0.7,10.9,1.9v-1.4c0-13.4-2.2-16.4-4.6-16.4c-3,0-6.1,4.6-6.2,12.5
			c-11.1-0.1-15.9-4.7-15.9-8.5c0-5,8-10.5,25.8-10.5c15.6,0,23.8,7.3,23.8,23.4C56.4,442,56.8,449.5,57.8,453.1z M33.5,438.7v-4.3
			c-0.9-0.3-2-0.6-2.9-0.6c-3.2,0-5.1,2.1-5.1,5c0,2.4,1.3,4.3,3.5,4.3C30.9,443.1,33.1,441.8,33.5,438.7z"/>
		<path fill="#F9E276" d="M43.2,532.3c-7,1.9-15.2,2.4-22.9,0.9c-0.5-10.3-0.6-35.7-0.1-57.6c4.1-0.9,8.3-1.3,12.6-1.3
			c3.4,0,6.9,0.2,10.3,0.7C42.7,496.7,42.8,522.4,43.2,532.3z"/>
	</g>
</g>
</svg>
