<?xml version="1.0" encoding="utf-8"?>
<!-- Generator: Adobe Illustrator 19.2.1, SVG Export Plug-In . SVG Version: 6.00 Build 0)  -->
<svg version="1.1" id="Layer_1" xmlns="http://www.w3.org/2000/svg" xmlns:xlink="http://www.w3.org/1999/xlink" x="0px" y="0px"
	 viewBox="0 0 931.6 339.3" enable-background="new 0 0 931.6 339.3" xml:space="preserve">
<g>
	<path fill="#522D84" d="M71.5,97.4c0.6,9,1.5,18,3.1,26.8c-3.9,0-9.3-2.1-10.6-11.2c-0.4-2.8-0.8-7.9-1.1-14.2
		c-11.1,1.8-23.2,3.6-33.3,5.1c-5.8,8.7-10.3,15.1-12.1,17.2c-2.5,3.2-7.5,2.2-8.2,0.2c0,0,4.3-6.5,10.6-16c-6,0.9-10,1.4-11.1,1.4
		c-4.9,0-8.8-3.3-8.8-7.2c2.1,0,12.7-1.6,26.2-3.6c15.4-23.7,37-57.4,43.9-72C72,14.6,75.6-0.3,78,0c3.1,0.3,8.8,4,8.1,9.6
		c-0.3,3.5-2.8,8.5-5.7,13.5c-0.9,1.5-1.8,3-2.7,4.5c-3.4,9.6-7.2,34.2-6.4,61.9c6.3-0.8,11.7-1.2,15.1-1.2c6.4,0,7.9,4.3,7.9,5.5
		L71.5,97.4z M62.8,90.5c0-13.3,0.6-30.1,3.1-44.7C57.7,60.9,46,79.2,36.1,94.2C45,92.9,54.4,91.5,62.8,90.5z M80.7,23.1h-0.3H80.7z
		"/>
	<path fill="#522D84" d="M195.7,65.6c0,4-13.9,22.3-30.6,22.3c-5.4,0-10.3-2.1-14.7-5.5c-4,23.1-22.2,41.8-30.6,41.8
		c-9.3,0-21-8.7-21-32.4c0-30.7,18.9-86.4,27.6-86.4c6.6,0,16,6.5,16,17.8c0,18.7-18.4,40-31.2,46.2c-1.9,10.3-3.3,21.1-3.3,31.2
		c0,16.2,9.7,17.5,9.7,17.5c10.8,0,22.6-27.3,25.9-43c-4.8-6.6-7.8-14.7-7.8-21.3c0-1.6,4.5-5.7,10.2-5.7c4.8,0,6.1,15.9,5.5,25.2
		c2.4,4.8,6.9,9,15.4,9c9.9,0,25.5-19.5,25.5-19.5C195,62.9,195.7,65.1,195.7,65.6z M113.2,60c9.9-7.2,22.3-25.3,22.3-37.9
		c0-7.5-3.1-10.2-5.1-10.2C128.7,11.9,119.4,33.8,113.2,60z"/>
	<path fill="#522D84" d="M182.1,92.7c0-29.8,22.3-59.7,38.1-59.7c10.8,0,16.3,6.7,16.3,16.8c0,12.8-4.5,19.9-5.5,19.9
		c-3.6,0-7.3-3.3-7.3-5c0-0.4,4-7.9,4-15c0-7.9-1.8-11.1-4.6-11.1c-10.9,0-30.7,33.6-30.7,57.4c0,16.5,10,22,13.3,22
		c26.1-0.3,61.5-55.3,61.8-55.3c1.3,0,3.3,1.2,3.3,3.6c0,4.3-34.6,57.9-62.5,57.9C195.6,124.3,182.1,112.9,182.1,92.7z"/>
	<path fill="#522D84" d="M356.4,68.6c-1.9,3.6-35.4,54.3-42.7,54.3c-14.2,0-18.1-13.3-16.6-28.8c-8.2,14.5-17.5,30.1-19.5,30.1
		c-10.9,0-21.1-9.6-21.1-24.1v-2.7c-6.6-4.8-10.6-13.8-10.6-21.4c0-20.7,17.4-42.9,40-42.9c18.4,0,21.4,13,20.5,26.4
		c4-16.6,17.7-51.6,19.8-51.6c2.1,0,7.2,2.1,7.2,6c0,2.5-11.2,28.9-21.4,53.1c-3.7,12-6.6,25.5-6.6,39.9c0,8.5,4.6,10.5,7,10.5
		s41.4-54.1,41.4-54.1C355.5,63.2,357.9,65.9,356.4,68.6z M257.1,89.6c2.7-16.5,10.6-26.7,10.6-26.7c3.4,0.1,8.1,2.2,8.1,5.5
		c0,1.2-7.8,13.8-10.5,26.1c0.6,0.2,1.3,0.2,1.9,0.2c7.6,0,21.6-12.3,31.8-23.2c1.2-12.1,2.5-32.2-9.6-32.2
		c-20.7,0-35.2,21.3-35.2,36.7C254.2,82.1,255.3,86.6,257.1,89.6z M295.5,83.4c-8.7,9.3-18.9,17.5-28.5,17.5c-0.9,0-1.6,0-2.6-0.2
		v1.5c0,14.5,10,15.9,10.2,15.9C276.3,118.2,286.8,99.8,295.5,83.4z"/>
	<path fill="#522D84" d="M430,66.5c0,3.1-33.3,57.9-64.2,57.9c-11.1,0-24.1-11.4-24.1-31.6c0-27.1,21.3-59.7,33.7-59.7
		c13.5,0,22,6.1,22,18.4c0,21.4-22.2,40-45.7,41.8c-0.1,1.4-0.1,2.7-0.1,4c0.1,15.1,10.3,20.8,13.6,20.8c25.2,0,60.9-55.3,61.5-55.3
		C428.1,62.9,430,64.1,430,66.5z M352.3,86.9c21.3-4.8,36.7-23.1,36.7-37.3c0-8.7-5.1-10.8-9.6-10.8
		C375.1,38.7,356.5,60.9,352.3,86.9z"/>
	<path fill="#522D84" d="M492,68.6c-12.9,15.9-35.7,31.8-54.4,37.6c7.8,1.8,19.2,8.1,19.2,26.7c0,21.6-14.1,42.7-20.5,42.7
		c-12.9,0-23.2-6.9-23.2-32.8c0-9,1-19.9,2.7-31.6c-4-0.2-7.2-0.6-7.3-1.7c-0.4-3,1.5-9.1,6.7-9.9c0.8-0.1,1.6-0.1,2.5-0.1
		c7.9-43.8,24.3-92.7,34.8-92.7c6.6,0,17.1,4.6,17.1,19.5c0,21.6-27,47.1-38.1,52.2c-1.8,7.5-3.4,15.1-4.8,22.5
		c0.9,0.3,1.8,0.4,2.8,0.8c16.6-4.8,40-17.8,61.3-38.8C492.1,62.9,493.9,66.2,492,68.6z M430.8,110.7l-6,0.5
		c-2.1,13-3.4,25-3.4,34.2c0,20.5,6.9,24.4,9.9,24.4c11.1,0,15.9-26.7,15.9-33.3C447.1,121.8,443.4,112.9,430.8,110.7z M433.6,69.3
		c8.1-7,27.4-30.6,27.4-45.3c0-9.1-3.1-11.1-5.1-11.1C450.7,12.9,441.3,38.9,433.6,69.3z"/>
	<path fill="#522D84" d="M533.3,120.7c0,21.9-32.1,38.5-46.2,38.5c-17.8,0-23.5-8.8-23.5-19.6c0-11.4,11.5-23.5,12.3-23.5
		c2.7,0,7.2,3.3,6.6,7.5c-0.3,2.4-10.8,9.6-10.8,19c0,6,3,10.8,10.9,10.8c13.8,0,44.5-20.8,44.5-37.2c0-6.4-5.5-10.3-13.2-13.8
		c-6.7,8.1-13,13.8-15.6,13.8c-9.4,0-16.8-10.3-16.8-22.6c0-2.7,0.1-5.2,0.4-7.6c-6.1-5.7-10.5-13.3-10.5-24.7
		c0-12,12.9-28.3,38.8-28.3c16,0,24.4,9.4,24.4,27.1c0,10.3-7.6,24.7-16.2,36.3C527,101.3,533.3,108.3,533.3,120.7z M484,77.1
		c2.7-9.1,6.9-14.2,6.9-14.2c3.1,0,8.2,2.4,8.2,5.7c0,0.9-3.9,8.1-6.7,15.4c5.7,3.2,12.4,5.7,18.7,8.5c7.8-11.8,16-27.1,16-38.4
		c0-7.9-2.8-14.8-12.6-14.8c-22.3,0-34.8,15-34.8,25.5C479.8,69.9,481.3,74,484,77.1z M506.5,99.3c-5.4-2.1-11.2-4.5-16.5-7.6
		c-0.4,1.6-0.6,3-0.6,4.3c0,13.6,7.8,14.4,7.9,14.4C497.8,110.4,501.7,106.1,506.5,99.3z"/>
	<path fill="#522D84" d="M649.4,66.6c0,2.8-36.3,56.1-43.2,56.1c-15.1,0-20.1-15.6-20.1-33.7c0-16.3,3.1-29.8,5.4-40.6
		c-14.1,22.3-45.4,74.5-45.4,74.5c-1.6,0-7.5-2.7-7.5-9.9c0-24.7,27.6-110.8,28.8-110.8c3.9,0,8.7,1.8,8.7,6.8
		c0,4-28.6,81.3-30.1,102.1c9.6-15.6,42.7-77.1,47.7-77.1c4.2,0,9.6,2.7,9.6,7.5c0,10.8-7.3,35.1-7.3,54.3c0,9.6,2.1,20.8,8.5,20.8
		c3.1,0,41.2-53.7,41.2-53.7C647.6,62.9,649.4,63.2,649.4,66.6z"/>
	<path fill="#522D84" d="M693.2,68.4c-1.8,3.9-35.5,54.4-42.9,54.6c-7.5,0-16.9-5-16.9-20.7c0-13.9,4.2-31.6,7.6-43
		c2-7.2,4.4-13.8,5.9-13.5c3.1,0.5,8.8,4.3,7.9,9.9c-0.5,2.9-2.2,6.8-4.6,10.8c-3.6,11.1-8.2,27.3-8.2,40.3c0,8.7,5.2,10.5,7,10.5
		c2.4,0,41.5-54.4,41.5-54.4C691.9,62.9,694.4,65.9,693.2,68.4z M637.7,25.1c1.1-8.2,21.7-13.6,25.8-9.6c0.9,0.9,1.5,2,1.7,2.8
		c1.2,1.4,2.4,3.8,1.9,5.2c-3.1,10.6-21.1,12.8-25,10.2C638.8,31.7,637.3,27,637.7,25.1z M644.6,27.9c0,1.7,12.7-1.8,17.7-7.2
		C656,19.5,644.6,23.9,644.6,27.9z"/>
	<path fill="#522D84" d="M705.7,110.4c1.8,3.1-1,5.1-4.8,6.5c-2.8,1-6.1,2.1-9.9,3.4c-5.2,25.5-11.8,48.7-17.8,48.7
		c-10.2,0-20.4-8.4-20.4-20.4c0-15.6,15-25.5,29.1-31.2c4.2-23.4,7.9-49.8,10.2-62.4c0.8-5.5,1.8-9.9,3.1-9.9c3.1,0,9.4,3,9.4,8.5
		c0,3.6-2.1,9.4-4.5,14.8c-1.7,11.7-4.5,28.5-7.8,45.1C698.8,111.7,703.9,110.7,705.7,110.4z M680.5,124.5
		c-10.5,5.1-20.1,12.7-20.1,25.6c0,5.7,5.5,12,9,12C672.7,162.1,676.7,145.3,680.5,124.5z M713.3,23.6c-2.2,8-13,11.2-19.9,11.2
		c-2.2,0-4.2-0.5-5.1-1c-3.3-2.1-4.8-6.8-4.4-8.7c0.8-6.3,13.2-10.9,20.7-10.9c2.2,0,4.2,0.5,5.1,1.3c0.9,0.9,1.5,2,1.6,2.8
		C712.6,19.5,713.8,22.1,713.3,23.6z M708.5,20.9c-0.8-0.3-1.6-0.3-2.5-0.3c-6.3,0-15.1,3.8-15.1,7.3
		C690.8,29.6,703.4,26.3,708.5,20.9z"/>
	<path fill="#522D84" d="M820.7,67.8c-1.2,4.8-26.5,56.5-43.8,56.5c-14.2,0-25.8-18.4-28.2-34c-11.2,17.2-20.4,32.5-21.7,32.5
		c-5.1,0-8.2-5.2-8.2-9.9c0-24.7,25.3-105,26.5-105c3.9,0,8.4,1.8,8.4,6.7c0,4.2-27.4,80.8-27.4,99c0.3,0,8.4-14.7,21.9-33.9
		c1.8-13.9,15.6-39.4,22.6-39.4c5.7,0,8.2,5.4,8.2,7c0,0.8-12.9,17.8-22,30.3c-0.3,0.6-0.6,1-1.1,1.6c1.5,17.2,10.2,39.3,19.3,39.3
		c12.3,0,42-55.9,42-55.9C819.2,62.7,821.6,64.1,820.7,67.8z"/>
	<path fill="#522D84" d="M874.6,68.4c-0.8,1.6-31,54.7-43.8,54.7c-13,0-21.1-11.8-21.1-28.8c0-36.6,19.9-87,28.6-88.9
		c6.4-1.5,18.9,4.7,18,19.5c-1.5,24.7-27.1,43.6-34.5,46.5c-1.8,9.7-3,19.8-3,29.2c0,15.8,7.5,16.6,11.5,16.6
		c5.5,0,41.4-54,41.7-54.4C873.2,62.9,875.8,65.9,874.6,68.4z M823.4,63c5.8-3,26.2-23.1,26.2-40.5c0-9.1-5-11.5-6.9-10.9
		C839.6,12.5,829.4,35.9,823.4,63z"/>
	<path fill="#522D84" d="M881,96.6c0-7.8,43.2-35.2,43.2-60.4c0-8.2-6.3-10.8-10.8-10.8c-23.1,0-38.5,16.3-38.5,34
		c0,6.6,1.9,11.2,3.3,14.4c-6.1,2.4-12.9-1.2-12.9-17.4c0-19.8,21.7-38.5,40.3-38.5c16,0,25.9,9.3,25.9,22.8
		c0,29.5-37.9,45.3-46.2,60.1C883,100.8,881,99.6,881,96.6z M873.1,121.9c0-3.2,4.5-13,8.2-13c2.7,0,6.1,3.9,6.1,6.8
		c0,6.6-5.7,13.6-8.8,13.6C876.1,129.3,873.1,126,873.1,121.9z"/>
	<path fill="#522D84" d="M31.9,252.9c6.3-0.9,27.3-5.2,41.1-5.2c6.7,0,7.2,5.2,7.2,6.5c0,0-36.4,6.3-41.4,6.1
		C33.8,260.1,31.7,256.8,31.9,252.9z M52.6,201.7c-1.5-2.4-1.6-8.1,3.3-10.8c9.4,11.4,15.9,20.1,23.2,29.5c3.1,4,3.4,6-0.1,7.8
		C72.4,225.4,55.9,207.1,52.6,201.7z M82.7,273.7c2.1,2.4,3.1,4.3,2.2,8.2c-0.9,4.2-17.5,21.7-21,24.6c-3.4,2.8-7.8,3.3-10.2,1
		C59,299.5,79.1,276.1,82.7,273.7z"/>
	<path fill="#522D84" d="M138.1,271c4.3,4.8,7.3,9.7,7.3,14.8c0,12.6-12.9,22.6-22.9,22.6c-8.2,0-15.1-5.5-15.1-15.4
		c0-8.1,7.3-15.7,17.5-22.5c-9.3-9.7-21-19.8-21-31.2c0-12.1,10.3-27.6,34.2-27.6c8.1,0,18.4,3.3,21.9,12.5
		c2.8-6.2,5.8-11.2,6.6-11.2c3.3,0,4.5,3,4.5,5.7c0,3.3-11.2,29.4-12.9,28.3c-1.7,0-3.4-1.3-3.4-6.1c0-1.4,0.4-3.3,1.1-5.5
		c0-1.2,0.1-2.7,0.1-4.5c0-7.5-7.8-11-16.9-11c-18.6,0-27.9,10.5-27.9,18.3c0,9.1,12,18.1,21.7,27.6c24.6-13.6,58-22.9,58.6-22.9
		c2.2,0,2.8,0.9,2.8,3.5C194.2,247.5,161.8,257.5,138.1,271z M130,276c-9.7,6.6-16.6,13.8-16.6,21.1c0,5.2,5.5,5.7,7.8,5.7
		c5.2,0,15.3-7.2,15.3-13.6C136.4,284.8,133.7,280.5,130,276z"/>
	<path fill="#522D84" d="M314.4,246.6c0,5.8-37,57.7-43.9,57.7c-15.1,0-18.6-15.6-18.6-25.9c0-18.7,3.4-32.8,6.3-43.6
		c-13.2,23.7-35.8,69.6-36.9,69.6c-5.7,0-7.3-4.5-7.3-11.8c0-20.4,4.8-45.4,8.5-61.9c-12.6,24.1-25.2,48.3-37.8,72.3
		c-2.8,0-7.6-1-7.6-6.8c0-19.6,10.2-61.2,12.7-68.2c3.1,0,9.7,1.6,9.7,6c0,1.9-10,28.6-13.5,53.2c10.5-21.1,37.2-74.1,40.9-74.1
		c2.2,0,9.6,2.7,9.6,7.6c0,4.8-12.9,38.1-15,69.1c15.9-32.5,38.2-73.8,40.8-74.2c4.2,0,9.6,2.7,9.6,7.5c0,10.8-10.3,35.1-10.3,62.1
		c0,1.8,0.6,13,7,13c3.1,0,42-55.3,42-55.3C312.6,242.8,314.4,243.1,314.4,246.6z"/>
	<path fill="#522D84" d="M396.3,248.1c-1.2,3.6-35.1,54.7-42.4,54.7c-10.5,0-15.7-7.2-15.7-19.6c0-2.8,0.4-6.8,1.1-11.1
		c-8.1,14.8-18,32.1-20.1,32.1c-9.4,0-19.6-9.4-19.6-23.2c0-5.5,0.6-10.8,1.7-15.3c-6.7-1.8-11.5-7-11.5-18.9
		c0-14.8,17.2-33.9,44.4-33.9c29.4,0,19.9,24.4,17.8,32.5c2.4,1.1,4.2,2.7,4.2,4.2c0,2.1-9.7,19.3-9.7,39.7c0,6.3,3.9,8,6.3,8
		s40.8-54.4,40.8-54.4C395.6,242.8,397.5,244.5,396.3,248.1z M302.9,258.7c3.1-9.9,7.3-15.9,7.3-15.9c3.1,0,8.8,2.4,8.8,5.7
		c0,0.6-2.2,4.9-4.8,10.6c11.5-2.5,25.9-11.1,30.1-13.3c0.4-3,10.8-26.8-5.5-26.8c-23.5,0-40.5,16.8-40.5,30.6
		C298.4,254.5,300.2,257.4,302.9,258.7z M342.8,253.2c-6.4,4-19.6,11-31.2,12.6c-2.1,5.5-3.9,11.7-3.9,16.8
		c0,13.5,9.1,15.1,9.3,15.1C317.9,297.7,336.5,264.4,342.8,253.2z"/>
	<path fill="#522D84" d="M448.7,248.4c-0.8,1.7-31,54.7-43.8,54.7c-13,0-21.1-11.8-21.1-28.8c0-36.6,19.9-87,28.6-88.9
		c6.4-1.5,18.9,4.6,18,19.5c-1.5,24.7-27.1,43.6-34.5,46.5c-1.8,9.7-3,19.8-3,29.2c0,15.7,7.5,16.6,11.5,16.6
		c5.5,0,41.4-54,41.7-54.4C447.3,242.8,449.9,245.8,448.7,248.4z M397.5,243c5.8-3,26.2-23.1,26.2-40.5c0-9.2-4.9-11.5-6.9-11
		C413.7,192.4,403.5,215.8,397.5,243z"/>
	<path fill="#522D84" d="M501.2,248.4c-0.8,1.7-31,54.7-43.8,54.7c-13,0-21.1-11.8-21.1-28.8c0-36.6,19.9-87,28.6-88.9
		c6.4-1.5,18.9,4.6,18,19.5c-1.5,24.7-27.1,43.6-34.5,46.5c-1.8,9.7-3,19.8-3,29.2c0,15.7,7.5,16.6,11.5,16.6
		c5.5,0,41.4-54,41.7-54.4C499.8,242.8,502.4,245.8,501.2,248.4z M450,243c5.8-3,26.2-23.1,26.2-40.5c0-9.2-4.9-11.5-6.9-11
		C466.2,192.4,456,215.8,450,243z"/>
	<path fill="#522D84" d="M588.9,245.5c0,4-13.9,22.3-30.6,22.3c-5.4,0-10.3-2.1-14.7-5.5c-4,23.1-22.2,41.8-30.6,41.8
		c-9.3,0-21-8.7-21-32.4c0-30.7,18.9-86.4,27.6-86.4c6.6,0,16,6.4,16,17.8c0,18.7-18.4,40-31.2,46.2c-1.9,10.3-3.3,21.1-3.3,31.2
		c0,16.2,9.7,17.5,9.7,17.5c10.8,0,22.6-27.3,25.9-43c-4.8-6.6-7.8-14.7-7.8-21.3c0-1.7,4.5-5.7,10.2-5.7c4.8,0,6.1,15.9,5.5,25.2
		c2.4,4.8,6.9,9,15.4,9c9.9,0,25.5-19.5,25.5-19.5C588.2,242.8,588.9,245.1,588.9,245.5z M506.4,240c9.9-7.2,22.3-25.3,22.3-37.9
		c0-7.5-3.1-10.2-5.1-10.2C521.9,191.8,512.6,213.7,506.4,240z"/>
	<path fill="#522D84" d="M672.5,248.1c-1.2,3.6-35.1,54.7-42.4,54.7c-10.5,0-15.7-7.2-15.7-19.6c0-2.8,0.5-6.8,1.1-11.1
		c-8.1,14.8-18,32.1-20.1,32.1c-9.4,0-19.6-9.4-19.6-23.2c0-5.5,0.6-10.8,1.6-15.3c-6.7-1.8-11.5-7-11.5-18.9
		c0-14.8,17.2-33.9,44.4-33.9c29.4,0,19.9,24.4,17.8,32.5c2.4,1.1,4.2,2.7,4.2,4.2c0,2.1-9.7,19.3-9.7,39.7c0,6.3,3.9,8,6.3,8
		s40.8-54.4,40.8-54.4C671.7,242.8,673.7,244.5,672.5,248.1z M579,258.7c3.1-9.9,7.4-15.9,7.4-15.9c3.1,0,8.8,2.4,8.8,5.7
		c0,0.6-2.2,4.9-4.8,10.6c11.5-2.5,25.9-11.1,30.1-13.3c0.5-3,10.8-26.8-5.5-26.8c-23.5,0-40.5,16.8-40.5,30.6
		C574.5,254.5,576.3,257.4,579,258.7z M618.9,253.2c-6.4,4-19.6,11-31.2,12.6c-2.1,5.5-3.9,11.7-3.9,16.8c0,13.5,9.1,15.1,9.3,15.1
		C594,297.7,612.6,264.4,618.9,253.2z"/>
	<path fill="#522D84" d="M766.3,246.6c0,2.8-36.3,56.1-43.2,56.1c-15.1,0-20.1-15.6-20.1-33.7c0-16.3,3.1-30,5.4-40.8
		c-10.5,16.8-45,74.5-45,74.7c-2.9,0-6.9-1-6.9-6.8c0-19.6,10.2-61.2,12.7-68.2c3.1,0,9,1.6,9,6c0,1.9-10.3,29.5-13.8,54.6
		c10.5-18.1,40-72.6,46-74.5c0.1,0,0.1,0,0.3,0c4.2,0.1,9.3,2.8,9.3,7.5c0,10.8-7.3,35.1-7.3,54.3c0,9.6,2.1,20.8,8.5,20.8
		c3.1,0,41.2-53.7,41.2-53.7C764.5,242.8,766.3,243.1,766.3,246.6z"/>
	<path fill="#522D84" d="M805.9,300.7c0,21.9-32.1,38.5-46.2,38.5c-17.8,0-23.5-8.8-23.5-19.6c0-11.4,11.5-23.5,12.3-23.5
		c2.7,0,7.2,3.3,6.6,7.5c-0.3,2.4-10.8,9.6-10.8,19c0,6,3,10.8,10.9,10.8c13.8,0,44.5-20.8,44.5-37.2c0-6.5-5.5-10.3-13.2-13.8
		c-6.8,8.1-13,13.8-15.6,13.8c-9.4,0-16.8-10.3-16.8-22.6c0-2.7,0.1-5.2,0.5-7.6c-6.1-5.7-10.5-13.3-10.5-24.7
		c0-12,12.9-28.3,38.8-28.3c16,0,24.4,9.4,24.4,27.1c0,10.3-7.6,24.7-16.2,36.3C799.6,281.2,805.9,288.3,805.9,300.7z M756.6,257.1
		c2.7-9.2,6.9-14.2,6.9-14.2c3.1,0,8.2,2.4,8.2,5.7c0,0.9-3.9,8.1-6.7,15.4c5.7,3.1,12.4,5.7,18.7,8.5c7.8-11.8,16-27.1,16-38.4
		c0-8-2.8-14.8-12.6-14.8c-22.3,0-34.8,15-34.8,25.5C752.4,249.9,753.9,253.9,756.6,257.1z M779.1,279.3c-5.4-2.1-11.2-4.5-16.5-7.7
		c-0.5,1.7-0.6,3-0.6,4.3c0,13.7,7.8,14.4,7.9,14.4C770.4,290.4,774.3,286,779.1,279.3z"/>
	<path fill="#522D84" d="M839.5,226.3c-2.1-2.4-3.1-4.3-2.2-8.2c0.9-4.2,17.5-21.7,21-24.6c3.4-2.8,7.8-3.3,10.2-1
		C863.2,200.5,843.1,223.9,839.5,226.3z M869.7,298.3c1.5,2.4,1.6,8.1-3.3,10.8c-9.4-11.4-15.9-20.1-23.2-29.5c-3.1-4-3.4-6,0.1-7.8
		C849.9,274.6,866.4,292.9,869.7,298.3z M890.4,247.2c-6.3,0.9-27.3,5.2-41.1,5.2c-6.8,0-7.2-5.2-7.2-6.4c0,0,36.4-6.3,41.4-6.2
		C888.4,240,890.5,243.3,890.4,247.2z"/>
</g>
</svg>
