<?xml version="1.0" encoding="utf-8"?>
<!-- Generator: Adobe Illustrator 19.2.1, SVG Export Plug-In . SVG Version: 6.00 Build 0)  -->
<svg version="1.1" id="Layer_1" xmlns="http://www.w3.org/2000/svg" xmlns:xlink="http://www.w3.org/1999/xlink" x="0px" y="0px"
	 viewBox="0 0 1053.5 224.2" enable-background="new 0 0 1053.5 224.2" xml:space="preserve">
<g>
	<path fill="#E2E8E9" d="M50.9,6.6V80h-6.7L11,26.1c-1.5-2.5-2.8-5.1-4.3-7.6C6.9,22,7,25.6,7.1,29.1v51H0V6.6h6.9l32.7,53.1
		l4.9,8.9c-0.2-4.1-0.4-8.1-0.6-12.3V6.6H50.9z"/>
	<path fill="#E2E8E9" d="M112.5,40.6V80h-6.2v-7.6c-7.3,6.6-12.4,9-19.1,9c-11.9,0-17.5-7.8-17.5-16.6c0-11.6,9.4-17.4,21.8-17.4
		c2.3,0,6.3,0.2,13.9,0.7v-7.5c0-9.1-5-13.1-13.9-13.1c-6.2,0-12.9,1.6-18.7,4.9h-0.5v-6.4c5.2-3.1,11.8-4.7,20-4.7
		C104.9,21.4,112.5,27.3,112.5,40.6z M105.6,65.5V53.9c-6.1-0.5-11.8-0.8-14.3-0.8c-8.9,0-14.1,4-14.1,11.4
		c0,6.1,3.5,10.8,11.2,10.8C94.9,75.3,99.6,71.8,105.6,65.5z"/>
	<path fill="#E2E8E9" d="M130.7,76.3v-7.2h0.5c4.8,3.3,10.4,6.3,16.8,6.3c8.7,0.1,13-4,13-9.9c0-5.7-3.5-8.5-12.7-12
		c-7-2.7-16.2-5.5-16.2-16.2c0-9.2,6.7-15.9,18-15.9c6.5,0,11.5,1.5,15.3,4l-1.2,6.3h-0.6c-4.3-3-9.9-4.2-14.5-4.2
		c-7.9,0-10,5.2-10,9.1c0,5,3.4,7.4,12.6,11.2c9.7,4,16.3,7.2,16.3,17c0,9.6-7,16.7-21,16.7C140.6,81.4,134.4,79.2,130.7,76.3z"/>
	<path fill="#E2E8E9" d="M210.2,73.2v6.2c-3.1,1.5-6.6,2-10.5,2c-9.6,0-12.5-5.8-12.5-13.5V29.2h-9.3v-6.3h9.3V10.3l6.5-1.1h0.5
		v13.7h16v6.3h-16v37.2c0,4.8,0.9,8.8,6.8,8.8c3.3,0,6-0.5,8.7-1.9H210.2z"/>
	<path fill="#E2E8E9" d="M268.7,52.9h-38.2c0.5,14.8,5.5,22.5,19.2,22.5c5.8,0,10.3-1.2,15.9-4.4h0.6v6.4
		C258.9,84.9,256,89.2,256,93c0,2.8,1.3,4.1,4.1,4.1c2.3,0,5.5-0.6,7.1-1.5v5.5c-1.3,0.5-4.4,1.7-8.3,1.7c-5.9,0-9.8-2.7-9.8-7.9
		c0-5.8,5.1-11.2,8.8-14.3c-2.7,0.6-5.9,0.9-9.5,0.9c-17.7,0-25.5-10.9-25.5-28.7c0-20.1,9.4-31.3,24.3-31.3
		c14.3,0,21.3,9.8,21.3,27.9V52.9z M230.6,47.2h31.2c-0.4-13.2-5.1-19.8-15-19.8C237.4,27.5,231.4,34.5,230.6,47.2z"/>
	<path fill="#E2E8E9" d="M334,50.3c0,19.5-8.9,31.1-24.6,31.1c-5.5,0-10.7-1.3-14.6-2.8v22.8h-7V22.8h6.7v8.7
		c6.8-7.2,12-10.1,18.7-10.1C326.7,21.4,334,32,334,50.3z M326.7,51.2c0-15.9-5.3-23.8-14.2-23.8c-5.8,0-10.6,3.3-17.6,11.6v33
		c4.2,2,9.4,3.3,14.7,3.3C319.7,75.4,326.7,68.7,326.7,51.2z"/>
	<path fill="#E2E8E9" d="M395.1,39.8V80h-7V40.2c0-6.9-3-12.7-10.7-12.7c-5.3,0-10.2,2.8-17.7,11.7V80h-7V22.8h6.7v8.8
		c8-8.2,12.9-10.2,18.7-10.2C389.7,21.4,395.1,29.1,395.1,39.8z"/>
	<path fill="#E2E8E9" d="M437.1,79.3l-1.7,10.5c-1.2,7.5-6.6,13-14.8,13c-2.1,0-4.6-0.3-7.8-1.9l1.5-5.6h0.4c2.2,1,3.5,1.3,5.6,1.4
		c4.6,0.1,8.3-2.8,9.1-8.9l1-8.2L408,22.8h7.5l16,41.3c0.4,1,1.4,4.2,2.4,7.5c0.9-3.3,1.9-6.4,2.3-7.5l15.2-41.3h7.1L437.1,79.3z"/>
	<path fill="#E2E8E9" d="M546.8,50.3c0,19.5-8.9,31.1-24.6,31.1c-5.5,0-10.8-1.3-14.6-2.8v22.8h-7V22.8h6.7v8.7
		c6.8-7.2,12-10.1,18.7-10.1C539.5,21.4,546.8,32,546.8,50.3z M539.5,51.2c0-15.9-5.3-23.8-14.2-23.8c-5.8,0-10.6,3.3-17.6,11.6v33
		c4.2,2,9.4,3.3,14.7,3.3C532.5,75.4,539.5,68.7,539.5,51.2z"/>
	<path fill="#E2E8E9" d="M595.9,23.4l-1.3,6.6H594c-2.2-0.9-4.2-1.3-6.3-1.3c-6,0-10.1,5.2-15.2,13.9V80h-7V22.8h6.7v10.7
		c5.9-8.1,10.6-12.1,16.4-12.1C591.2,21.4,593.7,22.3,595.9,23.4z"/>
	<path fill="#E2E8E9" d="M640.3,73.7l-0.6,6.3h-38.1v-6.1l29.3-44.7h-28.4v-6.3h36.1v6.1l-29.3,44.7H640.3z"/>
	<path fill="#E2E8E9" d="M675.8,79.3l-1.7,10.5c-1.2,7.5-6.6,13-14.8,13c-2.2,0-4.6-0.3-7.8-1.9l1.5-5.6h0.4c2.1,1,3.5,1.3,5.6,1.4
		c4.6,0.1,8.2-2.8,9.1-8.9l1-8.2l-22.3-56.7h7.5l16,41.3c0.4,1,1.4,4.2,2.4,7.5c0.9-3.3,1.9-6.4,2.3-7.5l15.2-41.3h7.1L675.8,79.3z"
		/>
	<path fill="#E2E8E9" d="M705.3,76.3v-7.2h0.5c4.8,3.3,10.4,6.3,16.8,6.3c8.7,0.1,13-4,13-9.9c0-5.7-3.5-8.5-12.7-12
		c-7-2.7-16.2-5.5-16.2-16.2c0-9.2,6.7-15.9,18-15.9c6.5,0,11.5,1.5,15.3,4l-1.2,6.3h-0.6c-4.3-3-9.9-4.2-14.5-4.2
		c-7.9,0-10,5.2-10,9.1c0,5,3.4,7.4,12.6,11.2c9.7,4,16.3,7.2,16.3,17c0,9.6-7,16.7-21,16.7C715.3,81.4,709.1,79.2,705.3,76.3z"/>
	<path fill="#E2E8E9" d="M784.8,73.2v6.2c-3.1,1.5-6.6,2-10.5,2c-9.6,0-12.5-5.8-12.5-13.5V29.2h-9.3v-6.3h9.3V10.3l6.5-1.1h0.5
		v13.7h16v6.3h-16v37.2c0,4.8,0.9,8.8,6.8,8.8c3.3,0,6-0.5,8.7-1.9H784.8z"/>
	<path fill="#E2E8E9" d="M840.1,40.6V80h-6.2v-7.6c-7.3,6.6-12.4,9-19.1,9c-11.9,0-17.5-7.8-17.5-16.6c0-11.6,9.4-17.4,21.8-17.4
		c2.3,0,6.3,0.2,13.9,0.7v-7.5c0-9.1-5-13.1-13.9-13.1c-6.2,0-12.9,1.6-18.7,4.9h-0.5v-6.4c5.2-3.1,11.8-4.7,20-4.7
		C832.4,21.4,840.1,27.3,840.1,40.6z M833.1,65.5V53.9c-6.1-0.5-11.8-0.8-14.3-0.8c-8.9,0-14.1,4-14.1,11.4
		c0,6.1,3.5,10.8,11.2,10.8C822.4,75.3,827.1,71.8,833.1,65.5z"/>
	<path fill="#E2E8E9" d="M905.2,39.8V80h-7V40.2c0-6.9-3-12.7-10.7-12.7c-5.3,0-10.2,2.8-17.7,11.7V80h-7V22.8h6.7v8.8
		c8-8.2,12.9-10.2,18.7-10.2C899.8,21.4,905.2,29.1,905.2,39.8z"/>
	<path fill="#E2E8E9" d="M969,52.9h-38.2c0.5,14.8,5.5,22.5,19.2,22.5c5.8,0,10.3-1.2,15.9-4.4h0.6v6.4c-3.9,2.4-9.8,4-17.7,4
		c-17.7,0-25.5-10.9-25.5-28.7c0-20.1,9.4-31.3,24.3-31.3c14.3,0,21.3,9.8,21.3,27.9V52.9z M930.9,47.2h31.2
		c-0.4-13.2-5.1-19.8-15-19.8C937.8,27.5,931.7,34.5,930.9,47.2z"/>
	<path fill="#E2E8E9" d="M1030.1,79.5V80h-8.1l-19.6-25.4l-7.3,1.1V80h-7V0h7v49.3l5.5-0.9l19.1-25.6h7.6v0.4l-16,21
		c-1.2,1.5-2.7,3.4-4.4,5.2c1.7,2,4.3,5.2,7.3,9.1L1030.1,79.5z"/>
	<path fill="#E2E8E9" d="M1040.8,32.2c0-4.1,2.6-6.4,6.5-6.4c3.7,0,6.2,2.3,6.2,6.1c0,4-2.7,6.3-6.4,6.3
		C1043.2,38.2,1040.8,36,1040.8,32.2z M1040.8,75.4c0-4.1,2.6-6.4,6.5-6.4c3.7,0,6.2,2.3,6.2,6.1c0,4-2.7,6.3-6.4,6.3
		C1043.2,81.4,1040.8,79.1,1040.8,75.4z"/>
	<path fill="#E2E8E9" d="M203.6,149.4l-19.3,73.4h-6.8l-13.9-49.3c-0.4-1.4-2-7.4-3.6-13.8c-1.6,6.3-3.1,12.4-3.5,13.8l-13.9,49.2
		h-6.7l-19.4-73.4h7.6l11.9,44.8l4,17.3c1.7-7.2,3.6-15.2,4.2-17.5l12.7-44.6h6.7l12.7,44.8c0.6,2.1,2.7,10.7,4.5,18.2l4.1-18.1
		l11.8-44.9H203.6z"/>
	<path fill="#E2E8E9" d="M215.3,186.9c0-24.4,11.1-38.9,30.9-38.9c19.4,0,29.3,14.1,29.3,37.2c0,24.3-11,39-30.9,39
		C225.1,224.2,215.3,210,215.3,186.9z M267.8,186.3c0-22.1-9.1-31.9-22.5-31.9c-13.4,0-22.5,9.6-22.5,31.8
		c0,21.8,8.8,31.7,22.6,31.7C259.1,217.8,267.8,208,267.8,186.3z"/>
	<path fill="#E2E8E9" d="M334.3,216.3v6.5h-39.1v-73.4h7.1v66.9H334.3z"/>
	<path fill="#E2E8E9" d="M384,198.9h-29.5l-8.8,23.9h-7.4l27.7-73.4h6.7l27.8,73.4h-7.6L384,198.9z M381.8,192.9l-8.8-23.2
		l-3.9-11.4l-3.8,11.4l-8.6,23.2H381.8z"/>
	<path fill="#E2E8E9" d="M504,186.3h-11.8v36.5h-6.8v-6c-4.4,3.7-10.5,7.4-19.8,7.4c-13,0-22.3-7.4-22.3-20
		c0-9.5,5.2-19.2,17.1-21.1c-10.2-2.3-13.5-8.5-13.5-15.6c0-9.6,6-19.5,22.3-19.5c6.3,0,13.1,1.5,17.7,5.3l-1.2,6.4H485
		c-3.7-2.8-9.9-5.5-16.9-5.5c-10.8,0-13.8,6.2-13.8,12.6c0,7.6,4.1,12,14.9,13.5h35.4L504,186.3z M485.4,186.3h-14.3
		c-15.1,0-20.2,8.4-20.2,17.1c0,10.5,7.8,14.6,15.3,14.6c8.6,0,15.8-5.4,19.2-9.6V186.3z"/>
	<path fill="#E2E8E9" d="M542.7,186.9c0-24.4,11.1-38.9,30.9-38.9c19.4,0,29.3,14.1,29.3,37.2c0,24.3-11,39-30.9,39
		C552.6,224.2,542.7,210,542.7,186.9z M595.3,186.3c0-22.1-9.1-31.9-22.5-31.9c-13.4,0-22.5,9.6-22.5,31.8
		c0,21.8,8.8,31.7,22.6,31.7C586.5,217.8,595.3,208,595.3,186.3z"/>
	<path fill="#E2E8E9" d="M618,187.5c0-25.3,11.3-39.5,30-39.5c7.8,0,15.2,2.9,20,6.4l-2,6.5h-0.6c-5.8-3.8-11.4-6.5-18.2-6.5
		c-13.8,0-21.6,10.7-21.6,31.8c0,20.7,7.6,31.3,21.8,31.3c6.9,0,14.4-2.5,20.2-6.5h0.6v7.1c-4.7,3.4-13,6-21.2,6
		C628.4,224.2,618,211.9,618,187.5z"/>
	<path fill="#E2E8E9" d="M736,149.4v73.4h-7.1v-35.1h-35.4v35.1h-7.1v-73.4h7.1v32h35.4v-32H736z"/>
	<path fill="#E2E8E9" d="M755.7,186.9c0-24.4,11.1-38.9,30.9-38.9c19.4,0,29.3,14.1,29.3,37.2c0,24.3-11,39-30.9,39
		C765.6,224.2,755.7,210,755.7,186.9z M808.3,186.3c0-22.1-9.1-31.9-22.5-31.9c-13.4,0-22.5,9.6-22.5,31.8
		c0,21.8,8.8,31.7,22.6,31.7C799.6,217.8,808.3,208,808.3,186.3z"/>
	<path fill="#E2E8E9" d="M875,155.7h-21.7v67.1h-7.1v-67.1H824v-6.3h51.7L875,155.7z"/>
	<path fill="#E2E8E9" d="M921.4,198.9h-29.5l-8.8,23.9h-7.4l27.7-73.4h6.7l27.8,73.4h-7.6L921.4,198.9z M919.2,192.9l-8.8-23.2
		l-3.9-11.4l-3.8,11.4l-8.6,23.2H919.2z"/>
</g>
</svg>
