<?xml version="1.0" encoding="utf-8"?>
<!-- Generator: Adobe Illustrator 19.2.1, SVG Export Plug-In . SVG Version: 6.00 Build 0)  -->
<svg version="1.1" id="Layer_1" xmlns="http://www.w3.org/2000/svg" xmlns:xlink="http://www.w3.org/1999/xlink" x="0px" y="0px"
	 viewBox="0 0 601.4 384.3" enable-background="new 0 0 601.4 384.3" xml:space="preserve">
<g>
	<path fill="#FBE8E2" d="M165.7,84.1L145.9,0.6h19.2l16.4,83.5H165.7z M185.5,28.3l5.2,22.9l-4.9,17.3l-4.9-25.2L185.5,28.3z
		 M203.2,84.1L183.4,0.6h19.3l16.3,83.5H203.2z M224,16.6l-1.4-16h17.6l-17.5,66.6l-4.2-23.6L224,16.6z"/>
	<path fill="#FBE8E2" d="M240.9,82.1l1.8-20.8l15.7,13.4v10.1C251.2,84.8,247,84.2,240.9,82.1z M259.3,14.9
		c0,5.5,2.3,11.4,11.4,19.7c9.6,8.9,15.2,18.4,15.2,28.4c0,13-6.8,21.8-18.4,21.8v-9.7c0.8-2.5,1.3-4.3,1.3-7.2
		c0-8.2-8.9-15.8-15-22.3c-9.5-9.7-11.9-18-11.9-24.4C242,9.8,248.3,0,259.9,0v9.4C259.6,9.8,259.3,12.4,259.3,14.9z M283,4.3
		l-1.8,21.5L267.1,9.4h-0.2V0C272.6,0,277.1,0.6,283,4.3z"/>
	<path fill="#FBE8E2" d="M303.1,9l-10.2,17.4l-2.4-25.8h12.6V9z M329.5,84.1h-16.9V0.6h16.9V84.1z M351.2,0.6l-2.4,25.8L338.6,9V0.6
		H351.2z"/>
	<path fill="#FBE8E2" d="M377,84.1h-17.2V0.6H377V84.1z M398.2,98.2v10.3c-1.8,0.7-4.2,1.8-8.5,1.8c-5.8,0-13-2.9-13-12.8
		c0-6.8,4.8-11.2,10.4-13.3h-1.8V76l11-15.4l1.4,23.5c-4.6,1.1-8.3,2.6-8.3,2.9v11.4L398.2,98.2z M395.1,48.6l-10.8-1.8V37l10.8-1.8
		V48.6z M396.4,25.8l-11-17.2v-8h12.5L396.4,25.8z"/>
	<path fill="#FBE8E2" d="M407.3,84.1V0.6h17.2v83.5H407.3z M454.3,30.6c0,13.7-6,29.2-18.6,29.2V0.6
		C451.5,0.6,454.3,18.4,454.3,30.6z"/>
	<path fill="#FBE8E2" d="M19.8,228.1L0,144.6h19.2l16.4,83.5H19.8z M39.6,172.3l5.2,22.9l-4.9,17.3l-4.9-25.2L39.6,172.3z
		 M57.4,228.1l-19.8-83.5h19.3l16.3,83.5H57.4z M78.1,160.6l-1.4-16h17.6l-17.5,66.6l-4.2-23.6L78.1,160.6z"/>
	<path fill="#FBE8E2" d="M143.6,144.6v9.8l-32.5,73.7H95.4v-8.6l33.7-74.9H143.6z M100,169.8l-2.2-25.2h16.6v8.8L100,169.8z
		 M141.8,200.9l2,27.2h-16.8V218L141.8,200.9z"/>
	<path fill="#FBE8E2" d="M170.8,144.6v83.5h-17.2v-83.5H170.8z M198.4,166.2c0,11.6-5.3,16.3-11.4,17.8c10.7,3.6,13.6,11,13.6,22.4
		c0,17.5-9.6,21.7-20.4,21.7v-83.5C192.2,144.6,198.4,153,198.4,166.2z"/>
	<path fill="#FBE8E2" d="M226.1,144.6l0.2,83.5h-17.5v-83.5H226.1z M260.6,228.1h-18.5l-12.2-35.6l7.7-2.3v-45.6
		c13.6,0,17.9,11.9,17.9,26c0,8.6-2.5,17.2-9.4,22L260.6,228.1z"/>
	<path fill="#FBE8E2" d="M283.9,154.1v64.7h2.2v10.1c-17,0-21.1-21.1-21.7-40.2v-1.8v-1.6c0.6-19.9,4.7-41.3,21.7-41.3v10.1H283.9z
		 M317.4,185.3v3.4c-0.5,19.1-4.6,40.2-21.6,40.2v-10.1h2.2v-64.7h-2.2V144C312.8,144,316.9,165.4,317.4,185.3z"/>
	<path fill="#FBE8E2" d="M364.3,228.1l-37.7-83.5h15.7l37.9,83.5H364.3z M340,228.1h-12.4v-64.3l12.4,27.5V228.1z M380.3,144.6v68.9
		l-13.1-29.6v-39.2H380.3z"/>
	<path fill="#FBE8E2" d="M393.2,228.1v-83.5h17.2v83.5H393.2z"/>
	<path fill="#FBE8E2" d="M440.4,154.1v64.7h2.2v10.1c-17,0-21.1-21.1-21.7-40.2v-1.8v-1.6c0.6-19.9,4.7-41.3,21.7-41.3v10.1H440.4z
		 M473.9,185.3v3.4c-0.5,19.1-4.6,40.2-21.6,40.2v-10.1h2.2v-64.7h-2.2V144C469.3,144,473.4,165.4,473.9,185.3z"/>
	<path fill="#FBE8E2" d="M520.8,228.1l-37.7-83.5h15.7l37.9,83.5H520.8z M496.4,228.1h-12.4v-64.3l12.4,27.5V228.1z M536.8,144.6
		v68.9l-13.1-29.6v-39.2H536.8z"/>
	<path fill="#FBE8E2" d="M563.6,144.6l19.2,53v30.5h-17.2v-27.7l-20.8-55.8H563.6z M601.4,144.6L585.6,186l-4.7-13.8l4-11.8
		l-0.7-15.8H601.4z"/>
	<path fill="#FBE8E2" d="M98.4,291.6c-0.8,7.4-1.9,19.3-1.9,41.2s1.1,33.7,1.9,41.2c5,0.1,7.6,0,9.4,0v10.3
		c-24.2,1.6-28.1-16.2-28.4-51.4v-0.1v-0.1c0.4-35.2,4.2-52.9,28.4-51.2v10.2C106,291.6,103.4,291.5,98.4,291.6z"/>
	<path fill="#FBE8E2" d="M112.8,370.1l1.8-20.8l15.7,13.4v10.1C123.1,372.8,118.9,372.2,112.8,370.1z M131.2,302.9
		c0,5.5,2.3,11.4,11.4,19.7c9.6,8.9,15.2,18.4,15.2,28.4c0,13-6.8,21.8-18.4,21.8v-9.7c0.8-2.5,1.3-4.3,1.3-7.2
		c0-8.2-8.9-15.8-15-22.3c-9.5-9.7-11.9-18-11.9-24.4c0-11.4,6.4-21.2,17.9-21.2v9.4C131.5,297.8,131.2,300.4,131.2,302.9z
		 M154.9,292.3l-1.8,21.5L139,297.4h-0.2V288C144.5,288,149,288.6,154.9,292.3z"/>
	<path fill="#FBE8E2" d="M167.4,342.8v-54.2h18.2v73.9h4.3v10.3C172.3,372.1,167.4,363.7,167.4,342.8z M201.1,362.5v-73.9h15.1v52.8
		c0,20.5-4,30.5-18.7,31.4v-10.3H201.1z"/>
	<path fill="#FBE8E2" d="M244.8,288.6l0.2,83.5h-17.5v-83.5H244.8z M279.4,372.1h-18.5l-12.2-35.6l7.7-2.3v-45.6
		c13.6,0,17.9,11.9,17.9,26c0,8.6-2.5,17.2-9.4,22L279.4,372.1z"/>
	<path fill="#FBE8E2" d="M302.6,298.1v64.7h2.2v10.1c-17,0-21.1-21.1-21.7-40.2v-1.8v-1.6c0.6-19.9,4.7-41.3,21.7-41.3v10.1H302.6z
		 M336.1,329.3v3.4c-0.5,19.1-4.6,40.2-21.6,40.2v-10.1h2.2v-64.7h-2.2V288C331.6,288,335.6,309.4,336.1,329.3z"/>
	<path fill="#FBE8E2" d="M358.7,372.1l-19.8-83.5h19.2l16.4,83.5H358.7z M378.5,316.3l5.2,22.9l-4.9,17.3l-4.9-25.2L378.5,316.3z
		 M396.2,372.1l-19.8-83.5h19.3l16.3,83.5H396.2z M417,304.6l-1.4-16h17.6l-17.5,66.6l-4.2-23.6L417,304.6z"/>
	<path fill="#FBE8E2" d="M453.2,298.1v64.7h2.2v10.1c-17,0-21.1-21.1-21.7-40.2v-1.8v-1.6c0.6-19.9,4.7-41.3,21.7-41.3v10.1H453.2z
		 M486.7,329.3v3.4c-0.5,19.1-4.6,40.2-21.6,40.2v-10.1h2.2v-64.7h-2.2V288C482.2,288,486.2,309.4,486.7,329.3z"/>
	<path fill="#FBE8E2" d="M522.4,332.9c-0.4,35.2-4.1,52.9-28.4,51.4v-10.3c1.8,0,4.3,0.1,9.4,0c1-7.4,2-19.3,2-41.2
		s-1.1-33.7-2-41.2c-5-0.1-7.6,0-9.4,0v-10.2c24.4-1.7,28.1,16.1,28.4,51.2v0.1V332.9z"/>
</g>
</svg>
