<?xml version="1.0" encoding="utf-8"?>
<!-- Generator: Adobe Illustrator 19.2.1, SVG Export Plug-In . SVG Version: 6.00 Build 0)  -->
<svg version="1.1" id="Layer_1" xmlns="http://www.w3.org/2000/svg" xmlns:xlink="http://www.w3.org/1999/xlink" x="0px" y="0px"
	 viewBox="0 0 849.3 428.7" style="enable-background:new 0 0 849.3 428.7;" xml:space="preserve">
<style type="text/css">
	.st0{enable-background:new    ;}
	.st1{fill:#522D84;}
</style>
<g class="st0">
	<path class="st1" d="M110.5,39.2c0,0.6-0.4,1.1-0.7,1.1c-1.1-1.3-4.1-1.9-6.5-1.9c-9.7,0-18.7,3.4-24.8,11.9
		c22.2-0.7,28.9,13.4,28.9,25.6c0,22-21.6,40.7-44,46.1c2.1,13.1,2.2,34.2,6.9,34.2c7.3,0,20.3-14.9,23.3-24.6
		c0.9,0,1.3,0.6,1.3,1.7c0,5.8-12.5,25-24.3,25c-9.1,0-9.7-22.4-11.4-35.5c-2.8,0.6-5.4,0.7-8.2,0.7c-2.6,0-3.9-1.9-3.9-3.7
		c0-2.6,4.7-8.2,11.8-8.2c2.2,0,3.2,3.5,4.1,8.8c20.3-6,39.9-24.6,39.9-44.4c0-20.3-15.7-24.6-26.1-23.7
		c-28.6,33.2-37,107.7-63.8,107.7c-8.2,0-12.9-8.2-12.9-22.2c0-19,19.2-82.7,73.5-87c8.2-8.6,16.8-14.4,30.8-14.4
		C108.6,36.4,110.5,38.1,110.5,39.2z M72,52.6c-50.6,5.2-70.2,66.2-70.2,85.5c0,12.9,3.7,20,11.2,20C32.8,158.1,43.5,85.7,72,52.6z
		 M59,121.3c-0.7-4.7-1.3-7.8-3.2-7.8c-3,0-7.5,4.3-7.5,6.5c0,0.9,0.6,2.2,2.2,2.2C53.4,122.2,56,121.9,59,121.3z"/>
	<path class="st1" d="M124.3,160.3c-6.3,0,1.7-20.3,6.5-30.4c-8.6,11.2-24.4,30.6-34.5,30.6c-13.1,0,27.4-60.8,29.1-75.4
		c15.5-2.8-35.5,73.3-28.4,73.3c7.8,0,31.9-29.5,38.6-38.3c8-16,16.2-35.1,17.9-35.1c1.7,0,2.6,2.6,2.2,5c-0.7,6-9.1,18.1-14.6,27.2
		c-9.1,17.9-19.2,40.9-16,40.9c6.2,0,20-17.5,21.6-21.3C153.2,137,136.6,160.3,124.3,160.3z"/>
	<path class="st1" d="M193,124.8c-5.8,0-4.9-13.6-3.5-17.5c-9.5,8.4-18.8,19.4-27.8,33.6c-2.2,4.7-3.7,7.7-5.6,12.5
		c3-0.6,6.3-0.9,9.5-0.9c6.7,0,5.8,3,5.4,3.7c-3.4-1.3-18.1-0.4-28.6,2.6c-0.7,0-1.3-0.7-0.9-1.1c0.6-0.9,5.2-2.2,11.2-3.5
		c10.1-31.9,30.4-62.9,32.1-65.7c2.8-3.4,7.3-2.4,6-0.4c-7.8,9.9-17.4,26.9-25.2,43.7c7.8-12.5,18.8-22.6,25-28.7
		c5.2-17,16.4-30.8,23.3-30.8c7.1,0-1.1,14.7-19.6,31.7c-2.4,5.6-3.9,19-1.1,19c3.2,0,9-8.8,11.6-13.2
		C209.4,110.3,198.7,124.8,193,124.8z M195,100.2c13.2-12.7,22.2-26.1,18.8-26.1C211.1,74.1,201.7,83.6,195,100.2z"/>
	<path class="st1" d="M268,90.7c-2.1,0-2.1-2.4-1.7-3.2c-9.3,2.1-29.9,17.9-44,34.7c7.3-6.7,17.2-12.9,20.7-12.9c9,0-19,47-14,47
		c5.6,0,23.5-18.1,29.1-29.5c8.8,0-18.3,31.5-29.3,31.5c-12.1,0,16.2-46.3,12.7-46.3c-2.6,0-22,13.4-29.5,22
		c-4.1,7.5-8.2,16-11.6,23.1c-0.9,2.2-4.3,2.1-3.9,0.9c23.7-55.4,59-106.9,63.6-111.4c1.7-1.1,2.4,2.2,2.6,4.3
		c-8.8,10.5-30,43.3-48,76.1c-0.4,0.6-0.7,1.5-0.4,1.3c17-22.4,42.9-44.2,55.2-44.2C273.8,84.3,271.7,90.7,268,90.7z"/>
	<path class="st1" d="M291.3,159.4c-4.7,0-2.2-10.5,3-22.8c-5.6,8.4-20.5,23-28,23c-9,0-2.2-24.4,7.5-41.6
		c11-19.2,25.8-33.6,34.7-33.6c7.1,0,4.3,13.6,0.4,24.1c8.2-13.4,16.6-24.1,21.3-24.1c9.1,0-8.6,25.2-27.1,43.5
		c-7.5,15.7-13.2,29.9-10.5,29.3c5.8-0.7,23.3-17.4,31-28C330.1,129.1,304.7,159.4,291.3,159.4z M296.3,131.9
		c2.6-5.4,4.5-10.5,7.7-16.2c4.1-10.1,9.1-29.5,4.3-29.5c-6.3,0-20,15.9-30.6,34.5c-8.8,15.1-14.6,36.6-10.6,36.6
		C270.6,157.3,283.5,147.2,296.3,131.9z M305.7,122.4c15.7-16.8,28.4-36.2,24.4-36.2C327.5,86.2,314.6,104.5,305.7,122.4z"/>
	<path class="st1" d="M416.3,101.7c-4.5,6.3-11.8,16.2-17,22.8c1.3-0.4,3-0.9,4.3-0.9c12.1,0-11.2,35.1-4.7,35.1
		c4.5,0,15.1-15.3,17.2-19.8c5.6,0-8.4,21.3-17.2,21.3c-12.7,0,8.8-34.3,4.3-34.3c-1.7,0-3.7,0.4-5.8,1.3
		c-13.1,16.8-23.3,33.6-28.6,33.6c-10.3,0,6.5-27.8,27.2-35.1c5.6-7.7,11.8-15.9,16.4-22.4c-2.6,1.1-5.4,2.4-7.7,2.4
		c-8.8,0,3.7-22.8,0.6-22.8c-8.2,0-22.2,25.4-23.5,30.6c-5.2,0,9-32.5,23.5-32.5c10.1,0-3.7,22.6,0.2,22.6c1.9,0,5.8-1.9,9.9-4.7
		c5.4-7.3,9.7-13.1,12.3-13.1C432.6,85.8,425.5,96.1,416.3,101.7z M394.3,128.2c-14,7.7-29.5,30.8-25.4,30.8
		C372.1,159,383.3,142.6,394.3,128.2z"/>
	<path class="st1" d="M531.1,90.7c-2.1,0-2.1-2.4-1.7-3.2c-9.3,2.1-29.9,17.9-44,34.7c7.3-6.7,17.2-12.9,20.7-12.9c9,0-19,47-14,47
		c5.6,0,23.5-18.1,29.1-29.5c8.8,0-18.3,31.5-29.3,31.5c-12.1,0,16.2-46.3,12.7-46.3c-2.6,0-22,13.4-29.5,22
		c-4.1,7.5-8.2,16-11.6,23.1c-0.9,2.2-4.3,2.1-3.9,0.9c23.7-55.4,59-106.9,63.6-111.4c1.7-1.1,2.4,2.2,2.6,4.3
		c-8.8,10.5-30,43.3-48,76.1c-0.4,0.6-0.7,1.5-0.4,1.3c17-22.4,42.9-44.2,55.2-44.2C536.9,84.3,534.8,90.7,531.1,90.7z"/>
	<path class="st1" d="M564.3,124.8c-5.8,0-4.9-13.6-3.5-17.5c-9.5,8.4-18.8,19.4-27.8,33.6c-2.2,4.7-3.7,7.7-5.6,12.5
		c3-0.6,6.3-0.9,9.5-0.9c6.7,0,5.8,3,5.4,3.7c-3.4-1.3-18.1-0.4-28.6,2.6c-0.7,0-1.3-0.7-0.9-1.1c0.6-0.9,5.2-2.2,11.2-3.5
		c10.1-31.9,30.4-62.9,32.1-65.7c2.8-3.4,7.3-2.4,6-0.4c-7.8,9.9-17.4,26.9-25.2,43.7c7.8-12.5,18.8-22.6,25-28.7
		c5.2-17,16.4-30.8,23.3-30.8c7.1,0-1.1,14.7-19.6,31.7c-2.4,5.6-3.9,19-1.1,19c3.2,0,9-8.8,11.6-13.2
		C580.7,110.3,570.1,124.8,564.3,124.8z M566.4,100.2c13.2-12.7,22.2-26.1,18.8-26.1C582.4,74.1,573.1,83.6,566.4,100.2z"/>
	<path class="st1" d="M593,126.9c12.3,0,37.3-39.9,26.9-39.9c-19,0-55.8,71.1-38.8,71.1c14,0,34-30,37.3-36.6
		c8.8,0-17.9,38.6-37.1,38.6c-12.3,0-8.2-21.6,2.2-41.1c9.3-17.5,24.1-34,36.4-34c17.4,0-8.4,44.4-26.9,44.4c-4.9,0-5-5.6-3.2-6.5
		C590.1,125.6,591.7,126.9,593,126.9z"/>
	<path class="st1" d="M681.7,158.6c-14.2,0,23-62.9,24.1-65.1c-4.1,0.2-24.8,15.1-40.3,36c-6,10.5-11.9,24.6-12.5,26.7
		c-6,3.2-4.5-10.1,10.1-28.6c12.5-27.1,20.9-42,19.6-42c-4.3,0-32.5,23.9-51.3,53c-2.4,5-5,10.5-6.7,14.7c1.5-0.2,4.5-0.9,9.3-0.9
		c5.6,0,4.7,3,4.3,3.7c-1.7-0.7-17-0.9-28.6,3.4c-0.7,0-1.3-0.7-0.9-1.1c0.7-1.1,7.3-3.5,11.9-4.5c15.7-39.2,39-74.3,39.6-75
		c2.8-2.1,3.2,3.9,3.2,3.9c-6.2,8.6-16.2,25.8-25.2,42.5c19.6-25.8,40.3-42.7,45.3-42.7c2.2,0,3.2,1.1,3.2,2.8
		c0,3.5-8,18.7-16.2,34.2c16.6-18.8,32.7-30.2,36.8-30.2c6.3,0,1.5,8-2.2,14.7c-10.5,18.8-28.4,52.4-23,52.4c3.9,0,14.4-6.7,22.6-20
		C711,136.6,695.7,158.6,681.7,158.6z"/>
	<path class="st1" d="M729.1,126.9c12.3,0,37.3-39.9,26.9-39.9c-19,0-55.8,71.1-38.8,71.1c14,0,34-30,37.3-36.6
		c8.8,0-17.9,38.6-37.1,38.6c-12.3,0-8.2-21.6,2.2-41.1c9.3-17.5,24.1-34,36.4-34c17.4,0-8.4,44.4-26.9,44.4c-4.9,0-5-5.6-3.2-6.5
		C726.1,125.6,727.8,126.9,729.1,126.9z"/>
	<path class="st1" d="M817.7,158.6c-14.2,0,23-62.9,24.1-65.1c-4.1,0.2-24.8,15.1-40.3,36c-6,10.5-11.9,24.6-12.5,26.7
		c-6,3.2-4.5-10.1,10.1-28.6c12.5-27.1,20.9-42,19.6-42c-4.3,0-32.5,23.9-51.3,53c-2.4,5-5,10.5-6.7,14.7c1.5-0.2,4.5-0.9,9.3-0.9
		c5.6,0,4.7,3,4.3,3.7c-1.7-0.7-17-0.9-28.6,3.4c-0.7,0-1.3-0.7-0.9-1.1c0.7-1.1,7.3-3.5,11.9-4.5c15.7-39.2,39-74.3,39.6-75
		c2.8-2.1,3.2,3.9,3.2,3.9c-6.2,8.6-16.2,25.8-25.2,42.5c19.6-25.8,40.3-42.7,45.3-42.7c2.2,0,3.2,1.1,3.2,2.8
		c0,3.5-8,18.7-16.2,34.2c16.6-18.8,32.7-30.2,36.8-30.2c6.3,0,1.5,8-2.2,14.7c-10.5,18.8-28.4,52.4-23,52.4c3.9,0,14.4-6.7,22.6-20
		C847,136.6,831.7,158.6,817.7,158.6z"/>
</g>
<g class="st0">
	<path class="st1" d="M153.1,315c-0.9,1.9-14.4,23.1-21.5,36c-9,16.2-15.3,29.7-12.1,29.7c4.5,0,23-15.7,29.5-27.6
		c7.8,0.6-17.2,29.5-29.9,29.5c-7.7,0,0.7-18.1,10.6-36.8c7.1-13.6,20-32.5,21.3-35.8C152.7,309.2,154.2,313.3,153.1,315z
		 M158.7,295.6c0-2.8,2.4-6.2,5.6-6.2c2.1,0,2.8,1.5,2.8,3.4c0,2.8-2.8,6.5-5.4,6.5C159.8,299.3,158.7,297.8,158.7,295.6z"/>
	<path class="st1" d="M240.8,325.6c-4.5,6.3-11.8,16.2-17,22.8c1.3-0.4,3-0.9,4.3-0.9c12.1,0-11.2,35.1-4.7,35.1
		c4.5,0,15.1-15.3,17.2-19.8c5.6,0-8.4,21.3-17.2,21.3c-12.7,0,8.8-34.3,4.3-34.3c-1.7,0-3.7,0.4-5.8,1.3
		c-13.1,16.8-23.3,33.6-28.6,33.6c-10.3,0,6.5-27.8,27.2-35.1c5.6-7.7,11.8-15.9,16.4-22.4c-2.6,1.1-5.4,2.4-7.7,2.4
		c-8.8,0,3.7-22.8,0.6-22.8c-8.2,0-22.2,25.4-23.5,30.6c-5.2,0,9-32.5,23.5-32.5c10.1,0-3.7,22.6,0.2,22.6c1.9,0,5.8-1.9,9.9-4.7
		c5.4-7.3,9.7-13.1,12.3-13.1C257,309.7,250,320,240.8,325.6z M218.8,352.1c-14,7.7-29.5,30.8-25.4,30.8
		C196.6,382.9,207.8,366.5,218.8,352.1z"/>
	<path class="st1" d="M355.6,314.6c-2.1,0-2.1-2.4-1.7-3.2c-9.3,2.1-29.9,17.9-44,34.7c7.3-6.7,17.2-12.9,20.7-12.9c9,0-19,47-14,47
		c5.6,0,23.5-18.1,29.1-29.5c8.8,0-18.3,31.5-29.3,31.5c-12.1,0,16.2-46.3,12.7-46.3c-2.6,0-22,13.4-29.5,22
		c-4.1,7.5-8.2,16-11.6,23.1c-0.9,2.2-4.3,2.1-3.9,0.9c23.7-55.4,59-106.9,63.6-111.4c1.7-1.1,2.4,2.2,2.6,4.3
		c-8.8,10.5-30,43.3-48,76.1c-0.4,0.6-0.7,1.5-0.4,1.3c17-22.4,42.9-44.2,55.2-44.2C361.4,308.2,359.3,314.6,355.6,314.6z"/>
	<path class="st1" d="M369,350.8c12.3,0,37.3-39.9,26.9-39.9c-19,0-55.8,71.1-38.8,71.1c14,0,34-30,37.3-36.6
		c8.8,0-17.9,38.6-37.1,38.6c-12.3,0-8.2-21.6,2.2-41.1c9.3-17.5,24.1-34,36.4-34c17.4,0-8.4,44.4-26.9,44.4c-4.9,0-5-5.6-3.2-6.5
		C366,349.5,367.7,350.8,369,350.8z"/>
	<path class="st1" d="M429.1,336.6c10.6-3.7,18.8-26.1,12.1-26.1c-8.6,0-23,17.7-32.3,36c-9,17.5-12.5,35.8-5,35.8
		c14,0,31.5-29.3,35.8-38.3c8.2,0-15.9,40.1-35.8,40.1c-10.5,0-9-19.4-0.2-37.7c9-18.7,25-37.9,37.5-37.9c14.6,0-0.7,29.9-12.7,29.9
		c-3.2,0-4.7-3.9-2.2-5.8C428.7,330.6,431.9,334.2,429.1,336.6z"/>
	<path class="st1" d="M489,325.6c-4.5,6.3-11.8,16.2-17,22.8c1.3-0.4,3-0.9,4.3-0.9c12.1,0-11.2,35.1-4.7,35.1
		c4.5,0,15.1-15.3,17.2-19.8c5.6,0-8.4,21.3-17.2,21.3c-12.7,0,8.8-34.3,4.3-34.3c-1.7,0-3.7,0.4-5.8,1.3
		c-13.1,16.8-23.3,33.6-28.6,33.6c-10.3,0,6.5-27.8,27.2-35.1c5.6-7.7,11.8-15.9,16.4-22.4c-2.6,1.1-5.4,2.4-7.7,2.4
		c-8.8,0,3.7-22.8,0.6-22.8c-8.2,0-22.2,25.4-23.5,30.6c-5.2,0,9-32.5,23.5-32.5c10.1,0-3.7,22.6,0.2,22.6c1.9,0,5.8-1.9,9.9-4.7
		c5.4-7.3,9.7-13.1,12.3-13.1C505.2,309.7,498.1,320,489,325.6z M467,352.1c-14,7.7-29.5,30.8-25.4,30.8
		C444.8,382.9,456,366.5,467,352.1z"/>
	<path class="st1" d="M523.5,384.2c-6.3,0,1.7-20.3,6.5-30.4c-8.6,11.2-24.4,30.6-34.5,30.6c-13.1,0,27.4-60.8,29.1-75.4
		c15.5-2.8-35.5,73.3-28.4,73.3c7.8,0,31.9-29.5,38.6-38.3c8-16,16.2-35.1,17.9-35.1s2.6,2.6,2.2,5c-0.7,6-9.1,18.1-14.6,27.2
		c-9.1,17.9-19.2,40.9-16,40.9c6.2,0,20-17.5,21.6-21.3C552.5,360.9,535.8,384.2,523.5,384.2z"/>
	<path class="st1" d="M599.7,354.2c-8.6,14.4-24.4,28.4-31.5,28.4c-11.8,0,5.4-31.2,23-39c3-1.1,4.3-0.9,4.5-0.2
		c-18.3,6.7-34,37-28.4,37c5.2,0,19-12.7,29.1-30c10.8-18.5,14.4-38.6,9-38.6c-7.5,0-24.4,17.9-32.5,30.4
		c-15.3,28-34.5,66.1-42,84.5c-1.1,2.1-4.1,2.1-3.4,0.7c20.3-53.9,55.4-112,56.5-113.8c2.4-3.4,7.8-3.9,6.9-1.1
		c-2.8,3.2-6.7,9.5-11.6,17.9c9.1-11,20.5-20.7,26.3-20.7C615,309.6,612.7,332.7,599.7,354.2z"/>
	<path class="st1" d="M624.7,350.8c12.3,0,37.3-39.9,26.9-39.9c-19,0-55.8,71.1-38.8,71.1c14,0,34-30,37.3-36.6
		c8.8,0-17.9,38.6-37.1,38.6c-12.3,0-8.2-21.6,2.2-41.1c9.3-17.5,24.1-34,36.4-34c17.4,0-8.4,44.4-26.9,44.4c-4.9,0-5-5.6-3.2-6.5
		C621.7,349.5,623.4,350.8,624.7,350.8z"/>
	<path class="st1" d="M713.3,382.5c-14.2,0,23-62.9,24.1-65.1c-4.1,0.2-24.8,15.1-40.3,36c-6,10.5-11.9,24.6-12.5,26.7
		c-6,3.2-4.5-10.1,10.1-28.6c12.5-27.1,20.9-42,19.6-42c-4.3,0-32.5,23.9-51.3,53c-2.4,5-5,10.5-6.7,14.7c1.5-0.2,4.5-0.9,9.3-0.9
		c5.6,0,4.7,3,4.3,3.7c-1.7-0.7-17-0.9-28.6,3.4c-0.7,0-1.3-0.7-0.9-1.1c0.7-1.1,7.3-3.5,11.9-4.5c15.7-39.2,39-74.3,39.6-75
		c2.8-2.1,3.2,3.9,3.2,3.9c-6.2,8.6-16.2,25.8-25.2,42.5c19.6-25.8,40.3-42.7,45.3-42.7c2.2,0,3.2,1.1,3.2,2.8
		c0,3.5-8,18.7-16.2,34.2c16.6-18.8,32.7-30.2,36.8-30.2c6.3,0,1.5,8-2.2,14.7c-10.5,18.8-28.4,52.4-23,52.4c3.9,0,14.4-6.7,22.6-20
		C742.6,360.5,727.3,382.5,713.3,382.5z"/>
</g>
</svg>
