<?xml version="1.0" encoding="utf-8"?>
<!-- Generator: Adobe Illustrator 19.2.1, SVG Export Plug-In . SVG Version: 6.00 Build 0)  -->
<svg version="1.1" id="Layer_1" xmlns="http://www.w3.org/2000/svg" xmlns:xlink="http://www.w3.org/1999/xlink" x="0px" y="0px"
	 viewBox="0 0 1045.9 519.4" enable-background="new 0 0 1045.9 519.4" xml:space="preserve">
<g>
	<path fill="#522D84" d="M50.2,81.2c-6.8,0,0.4-15.7,8.5-32.3c-6.2,0.2-11,0.6-16.3,1.2c-14,16.2-26.5,31-35.9,31
		c-3.7,0-6.5-3-6.5-8.3C0,58,16.4,42,27,42c3.4,0,3.1,2.2,2.8,2.2C20.6,42.2,1.7,59.5,1.7,73.6c0,4.7,2.2,6.6,4.9,6.6
		c7,0,20.4-13.9,34-30c-1.9,0.2-4.1,0.4-5.9,0.7c-1.1-1.2,1.9-2.4,7.8-3c17.2-20,28.4-33.6,34.1-38.6c0.5-0.5,2.4-1.1,1.8,3.8
		c-1.4,4-7,17.3-14.8,32.9c7.7-0.6,10,0.1,9,2.8c-3.6,0-7.3,0-10.4,0.2c-8.3,16.1-15.4,31.3-12,31.3c3.2,0,13.3-9.1,17.3-19.1
		C72.8,61.2,58.8,81.2,50.2,81.2z M59.9,46.3c7.9-15.8,14.3-30.1,16-34.8c-8.2,8.3-17.2,19.7-31.3,36.1
		C49.6,46.9,53.5,46.7,59.9,46.3z"/>
	<path fill="#522D84" d="M91,81.6c-3,0-1.4-6.7,1.9-14.6c-3.6,5.4-13.2,14.8-18,14.8c-5.8,0-1.4-15.7,4.8-26.8
		c7.1-12.4,16.6-21.6,22.3-21.6c4.6,0,2.8,8.8,0.2,15.5c5.3-8.6,10.7-15.5,13.7-15.5c5.9,0-5.5,16.2-17.4,28
		c-4.8,10.1-8.5,19.2-6.7,18.8c3.7-0.5,15-11.2,19.9-18C115.9,62.2,99.6,81.6,91,81.6z M94.2,64c1.7-3.5,2.9-6.7,4.9-10.4
		c2.6-6.5,5.9-19,2.8-19c-4.1,0-12.8,10.2-19.7,22.2c-5.6,9.7-9.4,23.5-6.8,23.5C77.6,80.3,85.9,73.8,94.2,64z M100.2,57.8
		c10.1-10.8,18.2-23.3,15.7-23.3C114.2,34.6,106,46.3,100.2,57.8z"/>
	<path fill="#522D84" d="M214,5.3c-0.8-1.1-2.3-2-4.9-2c-4,0-8,2.3-11.2,5c-1.6,1.3-3,2.9-4.4,4.6c24,0.5,19.6,30.5,0.5,40.2
		c0.6,1,1.1,2,1.4,3.2c0.8-0.1,1.7-0.1,2.5-0.1c8.2,0,8.3,4.6,6.7,4.6c0-0.5-1-3.6-7.2-3.6l-1.9,0.1c0.1,0.5,0.1,1,0.1,1.4
		c0,10.4-9.2,23.2-19.8,23.2c-7.1,0-7.1-8.5-1.1-15c4.7-5,10.9-8.9,17.9-10.2c-0.1-1-0.5-1.8-0.8-2.6c-3.1,1.2-6.6,1.9-10.3,1.9
		c-3.6,0-4.7-1.7-4.7-2.6c0-2.4,3.1-4.7,8.5-4.7c3.2,0,5.9,1.3,7.7,3.2c16.2-9.8,20.6-37.9-0.2-38c-17.6,22.1-26.2,68.4-42.5,68.4
		c-6.2,0-10.4-5.2-10.4-15.4c0-20,20.4-52.4,50.9-54c2-2.3,4.2-4.3,6.5-6c4-2.9,7.4-4.6,11.9-4.6C214.8,2.3,215.4,5.5,214,5.3z
		 M165.8,60.6c6.6-15.1,13.9-34.6,24-46.7C161.4,15.8,141,46.6,141,66.6c0,9.7,3.6,14.6,9.2,14.6C155.5,81.2,160.6,72.6,165.8,60.6z
		 M192.7,57.6c-6.8,1.3-13.1,5.5-17.6,10.4c-5,5.6-4.9,12.8,0.7,12.8c8,0,16.9-13,16.9-22.4V57.6z M191.2,52.8
		c-1.3-1.9-3.2-3.2-5.9-3.2c-4.7,0-7.6,1.7-7.6,3.7c0,0.6,0.8,1.8,3.6,1.8C184.9,55.1,188.2,54.2,191.2,52.8z"/>
	<path fill="#522D84" d="M244.3,9.1c4.9,0-2.5,14.6-20.5,32.4l-9.1,16c-6,10.7-10.1,22.4-6.4,22.4c7.7,0,23.6-19.6,27.5-30
		c-2.9-1.2-5-3.2-5-5.8c0-4.4,5.3-11.8,9.1-11.8c2.9,0,2.3,8.4-0.6,16.1c2.6,0.7,7.8-0.7,10.4-2.9c1.1,1.4-3.8,5.3-11.3,4.7
		c-2.6,7.6-17.3,30.8-30.2,30.8c-6.6,0-1.8-14.8,5.8-28.7C227.3,27.8,240.2,9.1,244.3,9.1z M226.3,37.1c13.2-14,19.9-26,18-26
		S235.3,21.6,226.3,37.1z M236.6,47.9c2.4-5.2,4-13.9,2.6-13.9c-1.8,0-6.6,5.6-6.6,10.1C232.7,45.6,234.5,47.5,236.6,47.9z"/>
	<path fill="#522D84" d="M280.9,53.9c-1.7,5-2.6,10.1-2.6,14.8c0,9.6,4.1,12.4,9.4,12.4c11.2,0,24.7-14,30.1-24.5
		c5.3,0-10.9,25.7-30.2,25.7c-9.4,0-11.9-7.3-11.9-15.1c0-4.6,1-9.4,2.5-14.3c-5-2.3-7.6-6-7.6-10c0-6.5,6.4-13.1,16.9-13.1
		c1.2,0,2.3,0,3.2,0.1c9.8-12.5,22.8-21.7,33.6-21.7c23.6,0,4.9,47.2-33.1,47.2C287.3,55.3,283.8,54.8,280.9,53.9z M278.5,51.8
		c2.5-7.2,6.5-14.4,11.4-20.8l-2.6-0.1c-9.8,0-15.5,5.9-15.6,11.6C271.6,46.1,273.7,49.7,278.5,51.8z M294.2,30.4
		c14.3,2.4,18.6,12,14.2,12c-0.4-3.7-4.8-9.4-15-10.9c-5,6.6-9.4,14-12.1,21.5c2.8,0.8,6.2,1.3,10.3,1.3c33.6,0,51.8-45.1,33.8-45.1
		C316.2,9.1,304,18.1,294.2,30.4z"/>
	<path fill="#522D84" d="M342.4,51.6c6.8-2.4,12.1-16.8,7.8-16.8c-5.5,0-14.8,11.4-20.8,23.2c-5.8,11.3-8,23-3.2,23
		c9,0,20.3-18.8,23-24.6c5.3,0-10.2,25.8-23,25.8c-6.7,0-5.8-12.5-0.1-24.2c5.8-12,16.1-24.4,24.1-24.4c9.4,0-0.5,19.2-8.2,19.2
		c-2,0-3-2.5-1.4-3.7C342.1,47.8,344.2,50,342.4,51.6z"/>
	<path fill="#522D84" d="M462,3.5c-3.7-3.8-10.9-2.9-16.2,1.7c-1.9,1.7-3.8,3.6-5.6,5.9c23,11.4,3.5,70.1-31.2,70.1
		c-5.6,0-10-1.6-13.9-3c-2.8,2-5.6,3.1-8.6,3.2c-5.2,0.1-8-1.6-8.3-3.7c-0.1-1.4,1.4-3.4,6-3.4c3.8,0,7,1.1,10.3,2.4
		c13.6-11.5,26.3-47.4,42.4-65.8c-1.7-0.5-3.7-0.8-6-0.8c-31,0-48.5,49.1-36.2,49.1c11,0,24.8-31.9,22.8-36.2
		c7.6,0-7.8,37.2-22.2,37.2c-17.4,0,0.4-51,36-51c2.4,0,4.6,0.4,6.5,1C443.3,4,449.3,0,455.9,0C462,0,463.8,3.5,462,3.5z
		 M393.3,77.5c-3-1.2-6-2.2-9.4-2.2c-2.9,0-4.8,1.1-4.8,2.2c0,1.7,3.4,2.9,7.2,2.8C388.8,80.2,391.1,79.2,393.3,77.5z M439.3,12
		c-15.2,18.8-28.4,53.4-43.2,65.3c3.6,1.3,7.6,2.6,12.7,2.6C437.9,79.9,459.8,23.4,439.3,12z"/>
	<path fill="#522D84" d="M465.5,81.1c-2.6,0-2.9-5.6,1-14.4c-7,8.8-14.4,14.5-18.8,14.5c-5.3,0-3.1-13.1,4.8-27.2
		c7-12.4,16.6-19.8,22.3-19.8c4.4,0,4.3,6.4,1.9,13.1C488.3,26.9,501.1,9,505.1,9c6.1,0-7.4,20.5-23.9,36.4c-2.3,4-4.9,8.2-7.2,12.1
		c-6.1,11.2-10.1,22.3-7.9,22.3c4.7,0,20-14.4,28.2-28.1C500.6,51.7,477,81.1,465.5,81.1z M468.2,62.4c1.8-3,3.7-6.6,5.2-9.5
		c2.8-6.2,4.9-17.5,1.2-17.5c-4.1,0-12.8,8.4-19.7,20.3c-7.1,12.4-9.4,24-6.8,24C451.4,79.7,461,72.2,468.2,62.4z M482,43
		c14.5-14.9,25.6-32.4,23.2-32.4C503,10.6,492.2,25.9,482,43z"/>
	<path fill="#522D84" d="M560.6,31.9c11.5,0,18.8-7,18.8-12.7c0-4.9-4.4-10-16.8-10c-16.4,0-26.3,10.9-26.3,20.2
		c0,7.4,5.8,11.9,10.6,12.6c11.3-3.6,19.6-2.6,19.6-0.4c0,4.7-12.7,4.1-19.8,2c-14.8,1.1-27.1,10.9-27.1,22.9
		c0,7.3,5.5,14.3,17.5,14.3c18.4,0,28.9-12.2,28.9-22.8c0-4.1-1.4-6.2-2.5-7.1c0-1.7,5.8-1.9,5.8,7.1c0,7.4-7.9,24-32,24
		c-13,0-21-6.2-21-15.6c0-12.7,13.7-23.2,28.1-23.6c-3.6-0.4-11.3-4.2-11.3-13C533,19.1,544.8,8,562.7,8c12.5,0,18.6,4.9,18.6,11.4
		c0,6.8-6.7,15-21.2,15c-13.1,0-14.3-9-10.7-9.4C549.9,29.3,554.4,31.9,560.6,31.9z M548.7,42.4c2.8,1.1,16.7,1.8,16.7-0.6
		C565.4,40.1,556.2,40.2,548.7,42.4z"/>
	<path fill="#522D84" d="M584.6,60.7c7.9,0,24-25.7,17.3-25.7c-12.2,0-35.9,45.7-25,45.7c9,0,21.8-19.3,24-23.5
		c5.6,0-11.5,24.8-23.9,24.8c-7.9,0-5.3-13.9,1.4-26.4c6-11.3,15.5-21.8,23.4-21.8c11.2,0-5.4,28.6-17.3,28.6c-3.1,0-3.2-3.6-2-4.2
		C582.7,59.9,583.8,60.7,584.6,60.7z"/>
	<path fill="#522D84" d="M704.1,16.6c-20.8,0-30.5-4.6-43.3-4.6c-17.5,0-22.6,6.2-22.6,10c0,6.1,7.9,10.4,17.6,10.4
		c8.6,0,19.2-4.4,21.1-8.3c2.8,0-3.8,9.8-22.2,9.8c-8.8,0-17.5-4-17.5-12c0-9,11.4-12.8,24.4-12.8c16.9,0,45.4,11.3,52.9,2.8
		C716,12.2,712.1,16.6,704.1,16.6z M696.1,41.4c-2.6-0.4-7.9-0.2-13.7,0.1c-8.6,17.6-18.7,39.6-29.3,39.6c-5.5,0-8.2-5.2-8.2-10
		c0-15.5,13.2-24.5,21.5-24.5c2.3,0,2.2,1.3,1.6,1.3c-7.4,0-21.1,10.1-21.1,23.9c0,3.8,1.6,8.4,6,8.4c7.9,0,17.5-21.4,26.2-38.5
		c-4.4,0.5-8.9,1-12.1,1.6c-0.6,0-0.4-0.8,0-1.1c1.1-0.7,6.6-1.9,13.3-2.8c4.2-8,8-14.8,11.5-17.5c1-0.7,3.1-1.2,3-0.5
		c-3.4,2.9-7.1,9.6-11,17.6c2.5-0.2,5.2-0.4,7.7-0.4C696.7,38.8,696.6,40.8,696.1,41.4z"/>
	<path fill="#522D84" d="M725,43.4c-2.8-0.7-8.5,0-14.8,2c1.1,18.8-22.6,58.6-29.4,58.6c-12.5,0,37-94.9,47-94.9
		c7.2,0-10,25.7-21.5,33.7c-12.4,20.8-29.3,60-25.7,60c4.4,0,27-37,28.4-57.1c-0.7,0.4-1.6,0.6-2.4,1c-0.5,0-0.5-0.6,0.5-1.1
		c3.1-1.8,9.8-4.2,14.3-4.2S725.4,43.1,725,43.4z M707.3,41.3c17.3-16.6,22.9-31.2,20.4-31.2C725.7,10.1,711.8,31.9,707.3,41.3z"/>
	<path fill="#522D84" d="M755.1,46.2c-4.3,12.2-2.9,23.2,7.3,23.2c4.3,0,8.5-1.4,12.1-3.6c6-11.2,11.4-20,15.1-20
		c4.3,0-1.6,12-12,19.3c-9.6,18.8-22.8,45.2-33.8,45.2c-4.4,0-8.2-3.2-8.2-10c0-10.4,10.3-22.3,20.9-22.3c3.5,0,4,2.5,3.2,2.5
		c-0.2-0.6-1.1-1.2-2.9-1.2c-9,0-19.3,12.5-19.3,22.1c0,5.8,3.1,8,6,8c8.6,0,20.2-23.4,30-41.9c-3.6,1.9-7.7,3.1-11.9,3.1
		c-11.5,0-13.8-12-9.5-25.3c-7-2.2-10.7-6.4-10.7-11.9c0-8.5,11-13.4,17.9-13.4c3.1,0,5.9,0.5,8.3,1.2c7.3-6.8,16.6-11.6,27.1-11.6
		c6.2,0,11.3,3,11.3,8.5c0,10.7-16.8,29-40.3,29C761.9,47.2,758.3,46.8,755.1,46.2z M752.6,44.3c2.8-7.7,7.6-15.7,14-22.1
		c-2.2-0.6-4.6-1-7.2-1c-6.4,0-16.8,4.4-16.8,12.1C742.7,38.3,746,42.1,752.6,44.3z M770.6,22.2c5.5,2.4,8.5,6.2,8.5,8.2
		c0,0.7-0.6,1.2-1.4,1.2c-0.1-2.4-2.9-6.1-8-8.3c-6.4,6.2-11.3,14.3-14,21.7c2.9,0.6,6.1,1,10,1c20.9,0,38.2-18.2,38.2-28
		c0-5.9-3.6-7-8.4-7C786.1,11,777.6,15.6,770.6,22.2z M778.9,62.9c8.4-6.7,13.2-16.3,10.7-16.3C787.5,46.6,783.7,53.5,778.9,62.9z"
		/>
	<path fill="#522D84" d="M831.1,37.9c-6.2,13.4-35.2,71.8-45.5,71.8c-9.4,0,2.5-22.2,21.2-30.8c2.5-4.3,5.4-9.7,8.2-15.2
		c-4.2,7-16.7,17.4-21.6,17.4c-4.4,0-1.4-14,4.9-25.1c7-12.4,16.8-21.8,22.6-21.8c4.8,0,3.2,9.5,1.1,16.1c4.2-8.4,7.3-14.9,7.7-15.6
		C830.7,34.1,831.6,36.7,831.1,37.9z M806.1,80.5c-17.2,9.7-25.8,28.2-20.6,28.2C790.5,108.7,805.9,81,806.1,80.5z M816.3,61.2
		l2.5-4.8h-0.1c2.3-3.5,6.5-21.1,2-21.1c-4,0-12.8,10.2-19.8,22.3c-5.4,9.6-9.2,22.2-6.7,22.2C796.5,79.8,809,70.3,816.3,61.2z"/>
	<path fill="#522D84" d="M931.5,10.3c-5.3,2.6-13.1,14.9-20.2,28.6h2.2c6,0,5.2,2.3,4.7,3c-1.9-0.4-4.8-0.4-8.2-0.2
		c-7.9,15.6-14.5,32.6-15.2,39.4c-1,0.5-1.4-0.5-1.4-2.2c0-6,6-22,13.4-37.1c-5.9,0.4-12.7,1.1-18.7,1.9
		c-9.7,19-20.8,38.5-29.8,38.5c-15.1,0-1-34.4,15.1-34.4c2.6,0,3.4,1.9,2.6,2.3c-0.7-0.7-2.3-1-3.6-0.6
		c-13.8,3.7-25.3,31.9-14.2,31.9c6.8,0,16.4-18.7,26-37.2l-4.2,0.7c-0.7,0-0.5-0.7,0-1.1c0.5-0.4,2.3-1,5.2-1.6
		c2.9-5.5,5.6-10.8,8.3-15.6c-2.4,1.1-4.9,1.8-7.3,1.8c-8.9,0,1.3-20.9-3-20.9c-14,0-36.4,38.8-23.8,38.8c7.4,0,16.6-14.2,16-19
		c5.5-1.6-5,19.6-16.1,19.6c-15.5,0,4.2-40.2,24.5-40.2c7.3,0-2.6,20.8,2.6,20.8c2.5,0,5.3-1,8-2.4c5.6-9.8,10.8-17,14.9-17
		s-2.5,10.1-11.4,16.1c-2.6,5.2-5.6,11.2-8.8,17.3c5.2-1.1,11.9-2,18.8-2.4c7.9-16,17.2-30.2,21.8-30.2
		C931.3,8.8,931.8,10,931.5,10.3z M899.1,22.1c7.3-5.5,12.8-13.3,10.2-13.3C906.9,8.8,903.5,14.2,899.1,22.1z"/>
	<path fill="#522D84" d="M951,34.9c0,5-25.7,44.9-20.8,44.9c2.5,0,9-4.3,14.4-13c4.1,0-6.2,14.3-14.6,14.3
		c-6.8,0,4.7-19.8,11.9-33.5c3.8-7.3,6.8-12.6,6.4-12.6c-3,0-18.7,11.3-30.2,26.3c-2.6,5-5.3,9.7-7.9,16.3c1.2-0.1,2.8-0.4,4-0.4
		c4.3,0,3.7,1.9,3.5,2.4c-1.1-0.5-11-0.6-18.4,2.2c-0.6,0-1-0.5-0.7-0.7c0.6-0.7,4.4-2.2,9-3.1c8.3-21,35.9-69.1,44-69.1
		c5.9,0-4.6,15.5-21.5,31.7c-2.8,4.7-5.8,9.1-8.5,14.2C932.7,40.9,945.9,33,948.8,33C950.3,33,951,34,951,34.9z M931.1,37.4
		c13.9-13.6,22.7-27.4,20.4-27.4C949.2,10.1,939.9,22.9,931.1,37.4z"/>
	<path fill="#522D84" d="M1024.1,24.5c-10.9,21.2-26.2,56.6-39,56.6c-14.9,0-1.3-34.6,15-34.6c2.8,0,3.6,1.8,3,2.3
		c-1-0.6-2-1-4.2-0.4c-13.9,3.8-24.8,31.8-13.8,31.8c9.7,0,22.9-32,34.7-53.4c-2.3,1-4.6,1.6-6.8,1.6c-8.9,0-0.6-19.7-4.9-19.7
		c-12.7,0-33.7,37.9-22.7,37.9c7.4,0,17.5-14.5,16.9-19.3c5.2-1.6-6,19.9-17.2,19.9c-14.2,0,4.3-39.4,23.5-39.4
		c7.2,0-0.8,19.6,4.7,19.6c2.3,0,4.8-0.7,7.2-1.9c5.5-10,10.7-17.3,14.9-17.3C1039.4,8.3,1032.9,18.6,1024.1,24.5z M1035.2,9
		c-2.4,0-6,5.6-10.2,13.7C1032.3,17.2,1038,9,1035.2,9z"/>
	<path fill="#522D84" d="M1036.9,37.7c-0.6,1.2-9.2,14.9-13.8,23.2c-5.8,10.4-9.8,19.1-7.8,19.1c2.9,0,14.8-10.1,19-17.8
		c5,0.4-11,19-19.2,19c-4.9,0,0.5-11.6,6.8-23.6c4.6-8.8,12.8-20.9,13.7-23C1036.6,34,1037.6,36.6,1036.9,37.7z M1040.5,25.2
		c0-1.8,1.6-4,3.6-4c1.3,0,1.8,1,1.8,2.2c0,1.8-1.8,4.2-3.5,4.2C1041.2,27.6,1040.5,26.6,1040.5,25.2z"/>
	<path fill="#522D84" d="M88.9,171.8c-4.3,8.2-9.4,18.1-14.5,28.3c7.7,0.6,9.5,5,6.8,5c0-0.6-1.1-3.6-7.4-4
		c-13.2,25.9-27.8,52.7-37.3,52.7c-15.2,0,1.1-52,34.4-53.8c4.7-8.9,9.1-17.6,13.4-25.2c-2.9,1.7-5.9,2.6-8.5,2.6
		c-9,0,2.9-24.8-1.4-24.8c-15.2,0-40.3,43.1-25.7,43.1c7.4,0,17.4-14.5,16.9-19.4c5.2-1.4-6.1,20-17.2,20
		c-17.8,0,4.9-44.5,26.5-44.5c7.2,0-3.6,24.7,1.1,24.7c2.9,0,6-1.3,9.2-3.4c6.7-11.9,12.5-20.2,16.3-20.2
		C105.7,153.1,98.2,164.6,88.9,171.8z M70.3,201.4c-31.3,2.3-46,51.7-34.2,51.7C43.6,253.1,57.2,226.9,70.3,201.4z M90.1,169.6
		c7.8-6.6,14-15.6,11.5-15.6C99.3,154,95.2,160.2,90.1,169.6z"/>
	<path fill="#522D84" d="M105.1,181.3c-1.4,3-4.7,10-9.2,18.8c-11.3,22-28.3,53.9-41.9,53.9c-12,0-3.1-21.2,8.9-21.2
		c2.9,0,1.8,4.2-0.6,4.2c-1.3,0-2.3-1.9-0.5-3.2c-7.8,2-17,19.2-8.2,19.2c10,0,23.5-21.8,39.7-53.8c3.5-6.8,8.6-17.5,10.1-20.9
		C104.1,177.5,105.4,179.4,105.1,181.3z M106.4,169.2c0-1.8,1.6-4,3.6-4c1.3,0,1.8,1,1.8,2.2c0,1.8-1.8,4.2-3.5,4.2
		C107.1,171.6,106.4,170.6,106.4,169.2z"/>
	<path fill="#522D84" d="M170,169.4c-11.8,22.7-26.3,56-38.9,56c-14.6,0-1.3-34.7,15.1-34.7c2.9,0,3.6,1.7,2.9,2.5
		c-0.7-1.1-2.6-1.1-4-0.7c-14.5,4-24.7,32-14,32c8.8,0,23.3-30.7,35.2-53.9c-2.6,1.4-5.4,2.3-7.9,2.3c-8.6,0,0.1-20.3-4.3-20.3
		c-13.9,0-33.2,38.3-22.7,38.3c7.4,0,17.5-14.5,16.9-19.3c5.2-1.6-6,19.9-17.2,19.9c-13.3,0,3.1-39.7,23.5-39.7
		c7.2,0-0.7,20.2,4.1,20.2c2.5,0,5.5-1.2,8.5-3c5.9-10.9,10.3-17.3,14.8-17.3C186.3,151.8,179.8,162.2,170,169.4z M170.8,225.1
		c-6.4,0-6-16.2-6-24.4c-1.7,0.7-3.2,1.2-4.9,1.2c-4.8,0-1.3-8.2,5.8-8.2c1.1,0,1.3,1.7,1.6,3.7c13.8-10.8,29.4-44,41.6-44
		c5.3,0,5.6,4.4,4.6,4.4c-0.6-2.8-2-3.4-4.3-3.4c-10,0-26,34.9-41.9,44.8c0.1,8.5,0.1,24.6,3.5,24.6c4.6,0,12.1-9.7,14.2-16
		C188.6,207.7,179.8,225.1,170.8,225.1z M164.8,199.1c-0.1-2-0.2-3.8-1.1-3.8c-3.6,0-6.7,5.6-3.8,5.6
		C161.6,200.9,163.1,200,164.8,199.1z M170.8,167.6c8.2-6.2,13.6-15.1,11-15.1C179.3,152.5,175,159.2,170.8,167.6z"/>
	<path fill="#522D84" d="M231.5,181.4c-1.3,0-1.3-1.6-1.1-2c-6,1.3-19.2,11.5-28.3,22.3c4.7-4.3,11-8.3,13.3-8.3
		c5.8,0-12.2,30.2-9,30.2c3.6,0,15.1-11.6,18.7-19c5.6,0-11.8,20.3-18.8,20.3c-7.8,0,10.4-29.8,8.2-29.8c-1.7,0-14.2,8.6-19,14.2
		c-2.6,4.8-5.3,10.3-7.4,14.9c-0.6,1.4-2.8,1.3-2.5,0.6c15.2-35.6,37.9-68.8,40.9-71.6c1.1-0.7,1.6,1.4,1.7,2.8
		c-5.6,6.7-19.3,27.8-30.8,49c-0.2,0.4-0.5,1-0.2,0.8c10.9-14.4,27.6-28.4,35.5-28.4C235.3,177.4,233.9,181.4,231.5,181.4z"/>
	<path fill="#522D84" d="M272.7,218.6c8.3,1.8,17,3.7,23.6,3.7c10.8,0,15.1-3,15.1-6.2c0-2.4-3.4-4.4-7.7-4.4c-6.1,0-9.2,1.9-10.2,3
		c-1.9-0.5,0.1-4.4,10.2-4.4c4.3,0,8.6,2.3,8.6,5.6c0,4-4.3,9-16.1,9c-8.8,0-18-2.2-26.3-4.1c-3.7,2.8-7.7,4.3-11.8,4.3
		c-7.8,0-13.6-3-13.6-5.4c0-2,3.7-3.8,9.6-3.8c4.2,0,10,1.1,16.1,2.3c3.5-3.2,7-7.8,10.2-13c-3,0.6-5.9,0.8-8.5,0.8
		c-9.8,0-13.4-5.6-13.4-10.3c0.1-9.6,10-20.2,21.7-20.2c2,0,3.2,1,2.5,1.8C272,176,260,187.1,260,196.2c0,3.8,3.1,9.1,12.2,9.1
		c2.8,0,5.9-0.5,9.1-1.2c13.2-21.4,24.2-52.2,35.4-52.2c3.8,0,5.5,3.8,5.5,9c-0.1,6.8-3.5,15.5-9,23.5
		c-7.1,10.4-18.1,16.9-28.7,19.8C280.9,209.9,276.9,215,272.7,218.6z M267.9,220.3c-5.3-1.2-10.1-2.2-13.8-2.2
		c-4.6,0-7.9,0.8-7.9,1.9c0,2.2,6.2,4,12,4C261.5,224,264.8,222.7,267.9,220.3z M285.5,202.8c10-3.5,20.4-10.3,26.3-19.3
		c5.8-8.9,9.1-17.6,9.1-24.2c0-3.8-1.1-6.4-4.1-6.4C309.2,152.9,299,181.6,285.5,202.8z"/>
	<path fill="#522D84" d="M316.5,225.2c-4.9,0-0.1-11.4,6.6-24.1c12.7-24.2,29-48,33.8-48c6.1,0-7.8,21.2-24.2,37
		c-4.8,7.2-20,34-16,34c5.3,0,20.6-15.4,29.2-28.3C351.6,195.7,327.7,225.2,316.5,225.2z M334.3,186.6
		c14.9-14.9,25.1-32.3,22.7-32.3C354.8,154.3,344.5,169.6,334.3,186.6z"/>
	<path fill="#522D84" d="M473.9,170.9c-9,16.1-29,53.4-22.2,53.4c3,0,11.8-6.7,15.5-16.2c4.6,0-6,17-15.5,17
		c-13.4,0,19-54.4,20-56.4c-5.9,2.5-24.8,19.1-37.7,37.6c-3.7,7.3-6.5,13.4-7.2,16.6c-0.2,1.2-2.5,3-3.4,2.2
		c-1.2-0.5,0.2-4.2,2.4-8.2c7.4-17.8,25-48.7,27.4-54.2c-4.1,0-25.7,18.1-41.4,40.4c-3.2,6.4-6.4,12.8-9,19.6
		c1.8-0.4,3.7-0.5,5.5-0.5c5.4,0,4.7,2.3,4.3,2.9c-1.3-0.6-13.8-0.8-23.2,2.8c-0.6,0-1.1-0.6-0.7-1c0.6-0.8,5.2-2.5,10.7-3.7
		c14.2-36.1,38.2-70,30.5-70c-18.4,0-44.6,40.2-31.2,40.2c5.8,0,16.6-14.5,16-19.3c5.3-1.6-6,19.9-16.2,19.9
		c-15.5,0,6.6-41.8,32-41.8c9.5,0-3,20-16,45.1c17.6-24,35.9-36.7,40.1-36.7c1,0,2,2.4,1.2,4.1c-4,7.6-11.8,21.8-18.2,34.6
		c12.6-16.6,31.3-32,35.4-32C473.9,167.2,474.9,169,473.9,170.9z"/>
	<path fill="#522D84" d="M510,225.1c-9.1,0,14.8-40.4,15.5-41.9c-2.6,0.1-16,9.7-25.9,23.2c-3.8,6.7-7.7,15.8-8,17.2
		c-3.8,2-2.9-6.5,6.5-18.4c8-17.4,13.4-27,12.6-27c-2.8,0-20.9,15.4-33,34.1c-1.6,3.2-3.2,6.7-4.3,9.5c1-0.1,2.9-0.6,6-0.6
		c3.6,0,3,1.9,2.8,2.4c-1.1-0.5-10.9-0.6-18.4,2.2c-0.5,0-0.8-0.5-0.6-0.7c0.5-0.7,4.7-2.3,7.7-2.9c10.1-25.2,25.1-47.8,25.4-48.2
		c1.8-1.3,2,2.5,2,2.5c-4,5.5-10.4,16.6-16.2,27.4c12.6-16.6,25.9-27.5,29.2-27.5c1.4,0,2,0.7,2,1.8c0,2.3-5.2,12-10.4,22
		c10.7-12.1,21-19.4,23.6-19.4c4.1,0,1,5.2-1.4,9.5c-6.7,12.1-18.2,33.7-14.8,33.7c2.5,0,9.2-4.3,14.5-12.8
		C528.9,211,519,225.1,510,225.1z"/>
	<path fill="#522D84" d="M620.1,165.2c-11.2,17.8-33.4,60.5-27.2,60.5c3,0,11.8-6.7,15.4-16.1c4.7,0-5.9,16.9-15.4,16.9
		c-13.9,0,23.4-61.2,24.5-63.2c-8.9,3.5-35.9,26.8-48.1,49.7c-1.3,3-2.6,6-3.8,9c1.8-0.4,3.7-0.5,5.5-0.5c5.4,0,4.7,2.3,4.3,2.9
		c-1.3-0.6-13.8-0.7-23.2,2.8c-0.6,0-1.1-0.5-0.7-0.8c0.6-0.8,5.2-2.6,10.7-3.8c14.2-36,37.3-69.4,29.6-69.4
		c-18.4,0-44.6,40.2-31.2,40.2c5.8,0,16.7-14.5,16-19.4c5.3-1.6-6,20-16.2,20c-15.5,0,6.7-41.8,32-41.8c10.1,0-4.1,22.2-17.5,49.4
		l0.1-0.2c11.9-19.1,39.6-40.4,44.2-40.4C620.3,160.9,620.7,163.1,620.1,165.2z"/>
	<path fill="#522D84" d="M634.7,226.2c-6.1,0,5.2-21.5,12.1-35.3c3.7-7.3,5.8-11.5,5.4-11.5c-2.8,0-20.5,15.2-32.4,33
		c-1.9,3.7-3.6,7.2-4.9,10.2c1.3-0.1,3.5-0.5,6.5-0.5c3.2,0,3,2,2.6,2.5c-1.1-0.5-10.9-1-18.4,1.8c-0.5,0-0.8-0.5-0.6-0.7
		c0.7-0.7,4.2-2,7.4-2.6c10.1-25.3,25-47.6,25.3-48c1.8-1.4,2,2.5,2,2.5c-4,5.4-10.4,16.4-16.2,27.2c12.6-16.6,25.9-27.5,29.2-27.5
		c1.4,0,2.2,0.8,2.2,1.9c0,4.9-25,45.7-20,45.7c2.5,0,9.4-4.4,14.4-13C653.6,212,643.7,226.2,634.7,226.2z"/>
	<path fill="#522D84" d="M748.5,167.8c0,21.6-22.4,58.3-45.2,58.3c-11.5,0-15.8-7.8-15.8-17.5c0-21.2,23-56.2,48.1-56.2
		C744.6,152.4,748.5,158.9,748.5,167.8z M690.4,210c0,8,3.5,15,12.8,15c19.6,0,42.6-38.2,42.6-58.7c0-7.6-3.1-13-10.6-13
		C715.2,153.4,690.4,188.6,690.4,210z"/>
	<path fill="#522D84" d="M744.2,225.2c-14.9,0,7.8-47.8,25.1-47.8C784.6,177.5,761.1,225.2,744.2,225.2z M769.5,178.8
		c-12.5,0-36.2,45.1-25.1,45.1C756.4,223.9,780.8,178.8,769.5,178.8z"/>
	<path fill="#522D84" d="M872.3,148c-1.6-2-4.2-2.2-6.7-2c-3.8,0.1-8,1.9-12,5.9c-0.8,0.8-1.7,1.8-2.5,3h1.7
		c9.7,0.1,16.3,6.7,16.3,15.4c0,19-18.4,31.7-30.6,31.7c-3.6,0-5.9-2.3-5.9-5c0-7.2,10.8-15,19.3-15c3.5,0,4.1,1.3,3.2,1.9
		c-8.8-2.3-21.7,6-21.7,13.1c0,2.2,1.9,3.8,4.8,3.8c9.8,0,28.2-11.4,28.2-30.4c0-10.1-7.1-14.3-14.5-14.4h-1.6
		c-8.8,13-20,42.6-31.4,58.7c-4.8,6.7-9.1,10.6-14.3,10.6c-13.9,0-2.6-30.8,13.7-30.8c1.8,0,3.5,0.8,2.8,1.9
		c-0.7-0.5-1.9-0.8-3.8-0.4c-13.9,3.5-23.2,28.4-12.5,28.4c5.2,0,10.3-7.2,15.6-16.3c9-15.6,17.6-38.4,27.7-52
		c-30.8,2-41.4,32.3-32.6,32.3c8.2,0,16.3-11.5,17-15.4c3.8,0-5.9,16.1-17,16.1c-10.7,0,0.2-32.2,33.5-34.1c1-1.2,1.9-2.4,2.9-3.4
		c4.2-4.3,9.4-7,16.3-7C873,144.6,873.5,148,872.3,148z"/>
	<path fill="#522D84" d="M885.4,206.9c-5.5,9.2-15.7,18.2-20.3,18.2c-7.6,0,3.5-20,14.8-25.1c1.9-0.7,2.8-0.6,2.9-0.1
		c-11.8,4.3-21.8,23.8-18.2,23.8c3.4,0,12.2-8.2,18.7-19.3c7-11.9,9.2-24.8,5.8-24.8c-4.8,0-15.7,11.5-20.9,19.6
		c-9.8,18-22.2,42.5-27,54.4c-0.7,1.3-2.6,1.3-2.2,0.5c13.1-34.7,35.6-72,36.4-73.2c1.6-2.2,5-2.5,4.4-0.7c-1.8,2-4.3,6.1-7.4,11.5
		c5.9-7.1,13.2-13.3,16.9-13.3C895.2,178.2,893.8,193.1,885.4,206.9z"/>
	<path fill="#522D84" d="M935.8,226.2c2.2,2.3,4.3,4.8,6.7,6.8c3.5-1.1,6.8-1.7,9.7-1.7c4.4,0,8.9,1.8,8.9,3.8c0,2.2-2.3,4.1-8,4.1
		c-4.3,0-8-1.8-11.5-4.6c-9.1,3-19.4,8.4-31,8.4c-7.8,0-9.7-3.8-9.7-5.4c0-3,5.9-6.2,13.2-6.2c6.4,0,11.5,1.1,10.9,3.7
		c-2.4-1.6-7.8-2.2-10.9-2c-5,0.2-12.2,2-12.2,4.4c0,2.5,6.2,3.4,8.9,3.4c9,0,19.7-4.4,29.4-7.3c-2.8-2.2-4.9-4.7-7.3-7.4
		c-36.7-0.5-2.8-73.8,33.1-73.8C996.4,152.4,967.3,222.6,935.8,226.2z M931.7,225.1c-3.1-3.7-6.1-7-8.8-8.2
		c-0.8-0.1,0.6-2.2,4.1,0.2c2.6,1.8,5.3,4.9,7.9,7.9c26.6-2.6,58-71.6,30.8-71.6C938.1,153.5,899.4,223.3,931.7,225.1z M943.8,234.1
		c2.8,2.2,5.9,3.5,9.2,3.5c4.2,0,7.1-1.1,7.1-2.4c0-1.6-3.7-2.5-7.9-2.5C949.5,232.7,946.7,233.2,943.8,234.1z"/>
	<path fill="#522D84" d="M1009.9,179.8c-7.2,8.8-31.4,55.8-38.6,73.4c-0.7,1.4-2.6,1.4-2.2,0.6c5.6-15,13.1-30,19.7-43
		c-5.4,6.6-15.1,14.3-19.3,14.3c-4.6,0-1.4-14,4.8-25.1c7.1-12.4,16.9-22,22.7-22c4.6,0,3.4,8.4,1.4,14.9c4.1-7.3,6.8-12,7.2-12.4
		C1007.1,178.3,1010.7,178.1,1009.9,179.8z M990.7,207.4c2-4,3.8-7.4,5.6-10.7c2-6.4,4-17.3,0.5-17.3c-4.1,0-12.8,10.2-19.7,22.2
		c-5.6,9.6-9.4,22.3-6.8,22.3C972.4,223.9,983.3,215.8,990.7,207.4z"/>
	<path fill="#522D84" d="M94.7,292.3c0,0.4-0.2,0.7-0.5,0.7c-0.7-0.8-2.6-1.2-4.2-1.2c-6.2,0-12,2.2-16,7.7
		c14.3-0.5,18.6,8.6,18.6,16.4c0,14.2-13.9,26.2-28.3,29.6c1.3,8.4,1.4,22,4.4,22c4.7,0,13.1-9.6,15-15.8c0.6,0,0.8,0.4,0.8,1.1
		c0,3.7-8,16.1-15.6,16.1c-5.9,0-6.2-14.4-7.3-22.8c-1.8,0.4-3.5,0.5-5.3,0.5c-1.7,0-2.5-1.2-2.5-2.4c0-1.7,3-5.3,7.6-5.3
		c1.4,0,2,2.3,2.6,5.6c13.1-3.8,25.7-15.8,25.7-28.6c0-13.1-10.1-15.8-16.8-15.2c-18.4,21.4-23.8,69.2-41,69.2
		c-5.3,0-8.3-5.3-8.3-14.3c0-12.2,12.4-53.2,47.3-55.9c5.3-5.5,10.8-9.2,19.8-9.2C93.5,290.5,94.7,291.6,94.7,292.3z M70,301
		c-32.5,3.4-45.1,42.6-45.1,55c0,8.3,2.4,12.8,7.2,12.8C44.8,368.8,51.6,322.2,70,301z M61.6,345.1c-0.5-3-0.8-5-2-5
		c-1.9,0-4.8,2.8-4.8,4.2c0,0.6,0.4,1.4,1.4,1.4C58,345.7,59.6,345.5,61.6,345.1z"/>
	<path fill="#522D84" d="M111.7,347.4c-3.7,0-3.1-8.8-2.3-11.3c-6.1,5.4-12.1,12.5-17.9,21.6c-1.4,3-2.4,4.9-3.6,8
		c1.9-0.4,4.1-0.6,6.1-0.6c4.3,0,3.7,1.9,3.5,2.4c-2.2-0.8-11.6-0.2-18.4,1.7c-0.5,0-0.8-0.5-0.6-0.7c0.4-0.6,3.4-1.4,7.2-2.3
		c6.5-20.5,19.6-40.4,20.6-42.2c1.8-2.2,4.7-1.6,3.8-0.2c-5,6.4-11.2,17.3-16.2,28.1c5-8,12.1-14.5,16.1-18.5
		c3.4-10.9,10.6-19.8,15-19.8c4.6,0-0.7,9.5-12.6,20.4c-1.6,3.6-2.5,12.2-0.7,12.2c2,0,5.8-5.6,7.4-8.5
		C122.3,338,115.4,347.4,111.7,347.4z M113,331.6c8.5-8.2,14.3-16.8,12.1-16.8C123.4,314.8,117.4,320.9,113,331.6z"/>
	<path fill="#522D84" d="M193.3,295.8C205.8,296,211,302,211,309c0,7.6-7.6,14.9-17,14.9c-2.8,0-4-1.4-3.5-2
		c11.2,0,17.4-6.4,17.4-13.3c0-7.4-6.7-11.4-14.6-11.4c-9.6,0-20.3,5.2-20.3,14.6c0,13.6,21.5,14.2,21.5,32.2
		c0,12.7-11.3,26.2-30,26.2c-16.9,0-23-10.3-23-18.5c0-12.1,10.9-21.8,25.3-21.8c5.4,0,5.9,3.4,4.2,3.8
		c-10.4-3.6-26.9,4.8-26.9,18.7c0,9.6,9,16.4,20.5,16.4c15,0,26.6-10.9,26.6-24.6c0-15.6-21.1-17-21.1-31.7
		C170,302.8,180.4,295.6,193.3,295.8z"/>
	<path fill="#522D84" d="M233.3,328.8c0,5-4.9,10.7-10,10.7c-1.4,0-2.4-1.1-2.4-2c0-1.2,0.8-2.3,2.3-2.3s2.2,2,0.8,3.1
		c4-0.7,6.8-5.8,6.8-9.6c0-3.2-1.8-6.2-5.8-6.2c-5.6,0-10.6,4.9-9.5,14c0.5,4.6,2.5,11.6,2.6,16c0.4,9.1-4.2,17.8-13.2,17.8
		c-4.6,0-9-3.5-9-9.5c0-8.5,7.7-15,13-15c1.2,0,2.3,0.5,2.3,1c0,0.1-0.1,0.1-0.1,0.2c-5.2,0-12.7,6-12.7,14.2c0,5.4,3.4,7.7,6.5,7.7
		c7.3,0,11-7.9,10.6-16.6c-0.2-4.3-1.9-10.4-2.4-15.1c-1-8.8,3.6-16,12.5-16C230.9,321.1,233.3,325,233.3,328.8z"/>
	<path fill="#522D84" d="M279,297.4c-17.5,0-22.6,6.5-22.6,10.2c0,6.1,8.2,10,16.6,10.1c10.1,0.1,20.3-4.1,22.2-7.9
		c2.8,0-3.8,10-22.2,10c-8.8,0-17.5-4.1-17.5-12.1c0-9,11.4-12.8,24.4-12.8c16.9,0,43.6,6.8,52.9-0.8c1.4,0.4-2.8,5.8-15.7,5.8
		C297.8,299.6,291.8,297.4,279,297.4z M285,336c-7.4,0-22,10.1-22,23.9c0,4.4,2.2,7.9,6,7.9c14.8,0,31.1-53.2,42.2-61.7
		c2-1.6,3-1.2,2.9-0.5c-10.8,9.1-27.7,63.5-44.9,63.5c-5.5,0-8.2-5.2-8.2-10c0-15.5,14-24.6,22.3-24.6
		C285.7,334.6,285.6,336,285,336z"/>
	<path fill="#522D84" d="M299.1,369.1c-4.2,0,0.5-13.6,10.2-32c4.9-9.2,7.2-12.8,11.6-19c-1.9,0.1-8,0.2-10.6,0.5
		c-1.1,0-0.1-1.3,0.6-1.4c2-0.4,6.2-0.5,11.3-0.8c4.4-5.9,8.4-9.4,10.4-9.4c2.6,0,1.6,3.6-1.8,8.8c2.6-0.1,7.6-0.4,9.2-0.4
		c3,0,2,1.8,1.7,1.9c-5.2,0.1-9.5,0.4-11.9,0.5c-5.2,7.1-9.2,11.8-17.8,20.2c-0.7,1.3-1.4,2.6-2.3,4c-6.4,11.5-12.4,26-10.1,26
		c4.8,0,22.6-17.2,27.4-27C333,340.9,310.8,369.1,299.1,369.1z M312.7,335.9c7.4-7.8,11.5-12.1,15.8-18.1c-0.5,0-3.1,0.1-4.2,0.2
		C320.7,323.2,317.9,326.9,312.7,335.9z M325.5,316.1l4.1-0.2c3-4.6,4.3-7.8,3.4-7.8C331.9,308,329,311.2,325.5,316.1z"/>
	<path fill="#522D84" d="M389.7,370c-5,0-3-9.8,2-22.1c-11.5,12.4-23.3,22.3-30,22.3c-16.1,0,41.4-78.2,28.6-78.2
		c-20.5,0-43.6,39.5-32.4,39.5c6,0,16.6-13.6,16.6-19.2c6.2,0-7.4,20.4-16.1,20.4c-15.2,0,6.7-42.1,31.9-42.1c19,0-37.4,78-28.1,78
		c4.3,0,19.8-12.2,31.6-25.3c8.9-20.4,24.1-45,28.9-45c6.6,0-7.4,22.3-24.2,42c-7.1,15.1-12,28.6-8.6,28.6c3.1,0,11.5-6.8,15.2-16.3
		C409.7,352.4,399.1,370,389.7,370z M401.9,333.2c14.2-17.9,23.6-33.7,21-33.7C420.2,299.5,410.4,316.2,401.9,333.2z"/>
	<path fill="#522D84" d="M428.3,370.2c-4.1,0,1.1-13.1,4.2-19.6c-5.5,7.2-15.7,19.7-22.2,19.7c-8.4,0,17.6-39.1,18.7-48.5
		c10-1.8-22.8,47.2-18.2,47.2c5,0,20.5-19,24.8-24.6c5.2-10.3,10.4-22.6,11.5-22.6s1.7,1.7,1.4,3.2c-0.5,3.8-5.9,11.6-9.4,17.5
		c-5.9,11.5-12.4,26.3-10.3,26.3c4,0,12.8-11.3,13.9-13.7C446.9,355.2,436.2,370.2,428.3,370.2z"/>
	<path fill="#522D84" d="M490.7,369.6c-1.1,1.2-2.2-1-2.3-1.9c0-12.7,29.9-69.6,17.3-69.6c-21.5,0-42.6,42.7-28.2,42.7
		c7.3,0,17.2-14.6,17.9-21.6c5.2-1.4-5.8,22.6-18.1,22.6c-16.2,0,0.4-44.8,28.7-44.8c14.9,0-4.9,38.3-13.4,63
		c8-20.2,34.8-64.7,56.9-64.7c4,0,3.6,2.4,2.6,2.4c-2.9-3-13.2,0.1-22,8.5c-18.6,17.9-34.4,45.7-39.4,63.1V369.6z"/>
	<path fill="#522D84" d="M562.5,322.8c-6.8,5.4-26.8,27.1-38.2,46.4c-0.6,0.7-2.3,0.1-2.6-2.5c4.6-23.9,15-42.8,15-42.8
		c1-1.3,4-2.3,3.8-0.5c-7.6,14.8-13.2,30.7-16.2,42.8c10.2-18.4,29.2-37.8,35.9-43.6C561.8,321.4,562.5,322.8,562.5,322.8z"/>
	<path fill="#522D84" d="M613.5,369.1c-10,0,1.9-32.6,7.6-42.2c-7.6,6.8-25.3,27.8-32,39.5c1.6-0.2,4.4-0.5,6-0.5
		c4.3,0,3.8,2.3,3.6,2.8c-4.4-0.8-16.8,0.4-22.7,2.4c-1.1-0.2-1.1-1.1-0.6-1.3c2.4-1.2,7.8-2.5,9.8-3c15.6-39.7,34.4-64.9,34.4-64.9
		c1.3-1.4,2.3,1,2.2,2.5c-6.4,7.4-24.8,40.2-34.4,62.2c0,0.2,0.2-0.1,0.4-0.4c6.1-11.9,28.4-36.8,35.5-44.4c1.6-1.8,4.1-1.8,4.1-0.7
		c-6.4,8.6-20.2,46.8-13.6,46.8c3.4,0,20.8-19.4,28.9-36.8c-2.9-17.4,8-34.3,12.6-34.3c4.4,0-4.1,22.3-9.8,33.2
		c0.5,3.7,3.1,6.1,5,6.1c0.5,2.2-4.8,3.5-6.8-2.6C636.9,347.8,619.8,369.1,613.5,369.1z M644.6,328.1c6.5-12.6,12.2-30,10.4-30
		C653,298.1,643.7,310.7,644.6,328.1z"/>
	<path fill="#522D84" d="M665.4,370.2c-6.8,0-0.4-19.2,4.6-29.9c-7.9,8.9-15.1,16.4-21,26.6c1.6-0.2,3.4-0.5,4.9-0.5
		c4.3,0,3.8,1.9,3.6,2.4c-1.3-0.8-11.5-0.5-17.4,1.6c-0.5,0-1-0.6-0.6-0.8c0.5-0.6,3.8-1.6,5.9-2c8.3-23.4,23.9-45.6,23.9-45.6
		c1.3-1.4,2.2,0.8,2,2.4c-5.6,7-16.9,26.4-24.1,43c0,0.2,0.2-0.1,0.4-0.4c6.1-11.9,18.1-24.1,25.2-32.2c1.6-1.8,3.7-1.8,3.7-0.7
		c-4.6,4.9-16.4,34.8-10.8,34.8c3.4,0,16.1-14.5,24.2-31.9c-2.4-9.1,1.2-23.9,5.8-23.9c3.7,0,1.1,12.2-3.6,23.5
		c0.5,3.7,2.8,6.6,4.7,6.6c0.5,1-3.8,2.3-5.9-3.8C684.1,353.8,671.6,370.2,665.4,370.2z M691.4,334.1c4.1-10.6,5.8-19.8,4-19.8
		C693.3,314.3,690.2,326.2,691.4,334.1z"/>
	<path fill="#522D84" d="M798.6,318.7c-3,4.2-7,6.2-8.9,6.2c-1.2,0-1.7-0.6-1.6-1c3.5-0.4,7-3.5,8.6-6.2c2.9-4.6,3-9.7-0.4-9.7
		c-8.5,0-22.6,20.2-31.4,37.7c-5.2,10.2-8.5,23.3-2.2,23.3c8.5,0,22.1-17.4,25-26c5.5,0-11.4,27.1-25.4,27.1c-6.8,0-6-10.7-1.4-20.8
		c-8,11.9-16.4,21-25.2,21c-14.5,0-3.7-27.5,12.7-27.5c5,0,4.8,3,4,3c-0.6-1.8-3.2-2-5-1.6c-14.2,3.7-22.4,25-11.8,25
		c8,0,17.6-11.6,29-30.7c10.7-17.9,17-41.3,1.7-41.3c-21.5,0-41.8,39.5-22.2,39.5c11.9,0,23.6-19.7,20.9-24.6
		c8.5-0.7-2.8,25.7-20.6,25.7c-22.8,0-4.1-41.8,22-41.8c15.1,0,13.3,19.7,6,33.7c6.1-10.7,16.3-23.2,24.2-23.2
		C801.5,306.6,802.5,313.1,798.6,318.7z"/>
	<path fill="#522D84" d="M804.3,322.9c0,0,4-3,3.8,0l-0.5,17.9c8-9.2,16.7-17.9,18.2-19.1c2-1.2,2.5,0.5,2.5,0.5
		c-3.8,3.2-12.7,12.6-20.6,21.7c-0.2,11.2-0.6,23-0.6,24.7c0,2.2-2.4,0.1-2.5,0.1v-21.5c-7.9,9.1-15.2,19.1-17,22.9
		c-0.4,0.6-1.4-0.1-1.1-1.1c1.8-4.7,9.8-15.2,18-24.7L804.3,322.9z"/>
	<path fill="#522D84" d="M883.2,324.7c-1.6,4.7-19.4,39.6-28.1,52.1c-9.4,13.1-16.6,21.6-24.7,21.6c-14.4,0-3.5-25.4,10-25.4
		c3,0,1.6,4.2-1.1,4.2c-1.7,0-1.6-2.3-0.4-3.2c-12,4.4-18.6,23.5-8.8,23.5c5.8,0,14-8,23.2-21.8c6.1-9.6,15-25.7,15.7-27.6
		c-3.2,4.4-17.2,21.1-24.7,21.1c-8.4,0,17.5-37.6,18.6-46.9c10-1.9-22.6,45.7-18,45.7c4.3,0,21.6-18.2,25.8-23.6
		c5.2-10.3,9.8-22.2,10.9-22.2C882.3,322.1,883.1,323,883.2,324.7z"/>
	<path fill="#522D84" d="M916.2,324.7c-1.6,4.7-19.4,39.6-28.1,52.1c-9.4,13.1-16.6,21.6-24.7,21.6c-14.4,0-3.5-25.4,10-25.4
		c3,0,1.6,4.2-1.1,4.2c-1.7,0-1.6-2.3-0.4-3.2c-12,4.4-18.6,23.5-8.8,23.5c5.8,0,14-8,23.2-21.8c6.1-9.6,15-25.7,15.7-27.6
		c-3.2,4.4-17.2,21.1-24.7,21.1c-8.4,0,17.5-37.6,18.6-46.9c10-1.9-22.6,45.7-18,45.7c4.3,0,21.6-18.2,25.8-23.6
		c5.2-10.3,9.8-22.2,10.9-22.2C915.3,322.1,916.1,323,916.2,324.7z"/>
	<path fill="#522D84" d="M992.8,320.3c-4.6,6.6-9.8,14.9-15,22.8c1.4-0.4,3-0.6,4.4-0.6c9.4,0-8.4,26.9-4.7,26.9
		c3.6,0,10.2-7.6,11.2-10.4c3.5,0-5.6,11.4-12,11.4c-7.8,0,10.2-26.6,4.8-26.6c-1.6,0-3.1,0.2-4.6,0.7c-9,13.6-17.6,25.6-22.2,25.6
		c-8.4,0,5-19.2,19.2-25.4c5.2-7.9,10.8-16.3,15.8-23.3c-1.3,0.2-2.8,0.5-4.2,0.5c-8.9,0,1.9-27.4-2.4-27.4c-6.6,0-15,8.5-21.2,18.5
		c13.2,5.2,4.1,30.2-5.5,30.2c-9.8,0-6.5-16.2,2.2-30.2c-0.8-0.1-1.6-0.1-2.4-0.1c-3.8,0-7.7,1.7-9,3.5c-2.2,0,1.4-4.3,9.4-4.3
		c0.8,0,1.7,0,2.5,0.1c6.4-10.1,15.6-18.8,24.4-18.8c6.1,0-2.3,27.6,2.5,27.6c1.6,0,3.2-0.2,4.7-0.7c6.1-8.2,11.3-14,14.4-14
		C1009.5,306,1002.7,316.3,992.8,320.3z M961.5,313.7c-8.3,13.3-12.7,28.6-4.6,28.6C965,342.2,973.6,318.7,961.5,313.7z M973,346
		c-12.5,6.2-23.4,23.2-18.6,23.2C957.3,369.1,964.6,358.6,973,346z M993.8,318.7c7.9-3.7,13.8-11.6,10.9-11.6
		C1002.7,307.1,998.7,311.9,993.8,318.7z"/>
	<path fill="#522D84" d="M1024.9,332.5c-2.9,4.1-7.6,10.4-10.9,14.6c0.8-0.2,1.9-0.6,2.8-0.6c7.8,0-7.2,22.6-3,22.6
		c2.9,0,9.7-9.8,11-12.7c3.6,0-5.4,13.7-11,13.7c-8.2,0,5.6-22.1,2.8-22.1c-1.1,0-2.4,0.2-3.7,0.8c-8.4,10.8-15,21.6-18.4,21.6
		c-6.6,0,4.2-17.9,17.5-22.6c3.6-4.9,7.6-10.2,10.6-14.4c-1.7,0.7-3.5,1.6-4.9,1.6c-5.6,0,2.4-14.6,0.4-14.6
		c-5.3,0-14.3,16.3-15.1,19.7c-3.4,0,5.8-20.9,15.1-20.9c6.5,0-2.4,14.5,0.1,14.5c1.2,0,3.7-1.2,6.4-3c3.5-4.7,6.2-8.4,7.9-8.4
		C1035.3,322.3,1030.8,328.9,1024.9,332.5z M1010.7,349.6c-9,4.9-19,19.8-16.3,19.8C996.4,369.4,1003.6,358.8,1010.7,349.6z"/>
	<path fill="#522D84" d="M218.4,468.6c-6,10.1-18.4,26.6-23.3,42c2.6-0.5,5.4-0.7,8.3-0.7c6.7,0,6.5,2.5,5.9,3.2
		c-1.6-0.7-13.4-2-27.8,2.9c-0.7,0-0.6-0.8,0.2-1.4c1.1-0.8,6-2.8,12.2-3.8c-0.4-0.7-0.4-2-0.1-2.9c3.6-12.1,12.4-24.2,17.6-32.9
		c-9.1,8.2-23.8,18.5-30.6,18.5c-1.4,0-3.5-1.4-2.3-2c11.3-2,26.9-13.7,36.2-22.3c6.6-10.4,9.2-13.4,9.2-13.4s3.4-2.8,5.4-2.8
		C231.8,452.9,225.7,460.4,218.4,468.6z"/>
	<path fill="#522D84" d="M225.9,511.7c5.8-1.6,16.2-3.1,24.2-3.1c8.2,0,8.6,2.8,8.2,3.5c-1.7-1.1-17.3-2.4-36.4,2.3
		c-0.2,0-0.8-0.6,0.5-1.3c0.4-0.2,1-0.5,1.6-0.7c5.2-11.5,53.6-28,53.6-46.1c0-7.3-5.2-11-13.3-11c-16,0-30.4,13.3-30.4,24
		c0,1.6,0.5,2.9,1.3,3.7c1,1,2.4,1.4,4.3,1.4c7.2,0,16.3-7.7,17-14.5c0.6,0.1,1.1,0.2,1.4,0.6c0.4,0.5,0.5,1,0.5,1.8
		c0,5-8.6,13.9-19.1,13.9c-6.8,0-7.6-5.8-7.6-8c0-11.5,13.9-24.5,32.2-24.5c10.2,0,16,5.2,16,12.6
		C280.1,487.4,236.4,499.7,225.9,511.7z"/>
	<path fill="#522D84" d="M324.5,457.1c-5.2,0.8-12.5,1.2-22.8,0c-7.2-0.8-6.5-3.1-5.9-3.8c1.6,0.8,21.4,4.3,39.8-0.7
		c0.7,0,0.1,1-1.3,1.7c-0.7,0.4-2.5,1.2-5.8,2c-3,2.3-13.1,9.7-21.6,14.8c10.9-2.5,16.1,4.4,16.2,10.9c0,13.1-12,32.4-32,32.4
		c-8.3,0-13.8-5.8-13.8-12.4c0-10.1,8-13.7,8.9-10.8c-8.2,2.8-9,21.8,5.6,21.8c16.1,0,28.4-18.6,28.4-31c0-6.7-5.8-12.6-15.8-8.6
		c-4.9,3.7-9.1,6.6-10.2,6.6c-3,0-2.2-1.9-2.2-1.9s2.6-2.5,10.9-6L324.5,457.1z"/>
	<path fill="#522D84" d="M368.3,469.4c-3.6,3.6-11.8,16-14.6,22.7c8.2-0.6,8.5,1.7,7.4,2.6c-1.7-0.4-7.2-0.4-8.6-0.2
		c-2.3,3.7-5,10.7-6.4,15.6l4.2-0.1c7.2,0,7.2,2.6,6.6,3.4c-1.6-1.1-16.7-1.8-31.8,1.3c-0.5,0.1-0.8-0.6,1-1.6
		c4.1-1.2,10.6-2.5,18.4-3c0.6-4,4.4-13.9,5.4-15.5c-1.3,0-15.4,0.4-25.9,4.7c-0.5,0.2-0.8-0.7-0.1-1.3c0.4-0.4,1.6-1,1.6-1
		c18.8-20,26.5-39.2,28.4-44.9c0.4-1.2,2.2,0.7,1,4.9c-1.1,3.8-10.6,24.2-26.2,39.1c10.3-3.8,22.3-3.8,22.3-3.8
		c1.6-3.4,7.8-15.7,13.7-22.6C365.4,468.7,368.6,467.9,368.3,469.4z"/>
	<path fill="#522D84" d="M400.2,458.9c-1.6,3.4-5.3,10.2-8.9,15.1c4.7-4.1,10.9-6.1,14.8-6.1c10,0,12.4,6.2,12.4,13.3
		c0,13.9-12.7,32.9-31.4,32.9c-8.2,0-11.5-5.5-11.5-10.3c0-8.3,7.2-14.6,13.9-14.6c1.3,0,3.1,0.4,2.4,2.2c-8.8,0-14.5,7.2-14.5,13.2
		c0,4.7,3.7,8.2,9.5,8.2c16.8,0,28.8-18.7,28.8-31.7c0-7.1-3-11.4-9.8-11.4c-6.5,0-13.6,5.5-16.4,8.3c-2.8,3.7-3.4,4.4-3.8,4.4
		c-1.7,0-1.2-3.1-0.7-3.6c0.2-0.1,2.4-2.6,3.6-3.8c3.6-5.2,8.5-13.2,10-16.2l-3.5-0.4c-1.7-0.5-2.4-1.4-2.4-2.3c0-0.2,0-0.5,0.2-0.6
		c3.6,0.6,8.6,1.1,17.3,1.1c7.9,0,16.8-1.2,21.7-2.2c0.1,0.1,0.1,0.2,0.1,0.4c0,2-13.2,4.3-28.2,4.3
		C402.5,459,401.4,459,400.2,458.9z"/>
	<path fill="#522D84" d="M469.7,454.8c-15.2,0-36.5,19.6-36.5,43.3c0,9,4.6,14.8,10.9,14.8c13.6,0,24.5-16.3,24.5-28.8
		c0-6.5-2.6-12-9.1-12c-9,0-17.5,9.6-18.7,16.1c-0.7,0.1-1.6-0.2-1.6-1.6c0-4,7.4-16.1,19.7-16.1c11.4,0,12.6,10.1,12.6,13.8
		c0,12.7-10.8,29.9-27.4,29.9c-9.4,0-13.7-7.4-13.7-16.3c0-22.7,19-44.6,38.6-44.6c10,0,12.1,5.9,12.1,9.7c0,2.2-1.2,3.6-2.4,2.6
		C480.3,461.9,478.3,454.8,469.7,454.8z"/>
	<path fill="#522D84" d="M507.7,479.4c4.6,0,8.6-0.1,11.5-0.4c0,0,0.1,0.1,0.1,0.4c0,0.4-0.6,1.1-2,1.3c-2.9,0.5-7.1,0.6-11.5,0.7
		c-7.8,8.3-15.8,18.6-22.2,31.4c-1.1,0.6-1.4-1.3-0.6-3c5.6-11.3,12.5-20.6,19.3-28.4c-4.4,0.1-8.8,0-11.9-0.1
		c-1.6,0-0.2-2.3,1.9-2.3c3.7,0.2,7.8,0.4,11.8,0.4c11-12,21.7-19.6,27.4-23.2c-4.6,1.4-12.8,3.6-22.7,3.6c-6.5,0-14.4-1-14.4-3.6
		c0-0.6,0.2-1.1,0.5-1.3c1,0.6,5.5,2.4,16.4,2.4c5.9,0,17.6-1.6,24.2-3.5c0,0,1,0.4,1,1.6c0,0.5-0.2,1-0.8,1.6
		C534.3,458.3,521.6,465.4,507.7,479.4z"/>
	<path fill="#522D84" d="M579.9,462.5c0,5.2-5.5,12.7-20,15.7c8.9,3.7,12.5,10.9,12.5,15.6c0,10.1-9.4,20.6-26.4,20.6
		c-13.6,0-18.6-6.7-18.6-13.6c0-9.2,9.2-20.6,27.4-22.9c-5.8-1.7-9.5-6.5-9.5-11.2c0-7.2,8.3-14.2,20.8-14.2
		C575.3,452.6,579.9,457.1,579.9,462.5z M569.4,494.2c0-5.2-4.2-11.4-12.8-14.9c-17.6,2.6-26.5,12.5-26.5,21.2
		c0,6.4,5,12.4,15.8,12.4C558.6,512.9,569.4,504.4,569.4,494.2z M577.8,462.2c0-5.4-5.3-8.3-12.1-8.3c-8.2,0-17.5,5.3-17.5,12
		c0,3.7,1.8,7.7,9.7,11C571.7,474,577.8,467.8,577.8,462.2z"/>
	<path fill="#522D84" d="M632,466.6c0,19.1-16,47.6-35.6,47.6c-8.9,0-12.2-6.7-12.2-11.2c0-2.5,1-4.4,2.5-4.4c0.2,0,0.6,0.1,1,0.2
		c-0.6,1-0.8,2.4-0.8,4c0,4.3,2.8,10.1,9.2,10.1c12.8,0,26.8-18.1,29.9-30.5c-4.4,6.5-13.2,15.1-23.2,15.1
		c-8.9,0-12.5-6.8-12.5-13.7c0-12.8,11.3-30.8,29-30.8C626.7,453,632,458.4,632,466.6z M629.3,466.4c0-7.4-4-11.9-10.4-11.9
		c-13.4,0-25.8,17.5-25.8,29.4c0,6.6,3.2,12,9.7,12c10.4,0,20.3-10.9,24.7-18C628.4,475.6,629.3,471.1,629.3,466.4z"/>
	<path fill="#522D84" d="M686.7,468.1c0,18.1-19.3,46-39.1,46c-9.1,0-13.2-6.7-13.2-15.4c0-18.1,19-45.8,39-45.8
		C682.5,452.9,686.7,459.6,686.7,468.1z M684.2,467c0-7-3.2-12.4-10.3-12.4c-17.3,0-36.7,27.4-36.7,44.4c0,7.1,3.1,13.4,10.7,13.4
		C665,512.5,684.2,484.1,684.2,467z"/>
	<path fill="#522D84" d="M680.4,511.9c0-1.4,1.2-3.1,2.9-3.1c1,0,1.4,0.7,1.4,1.7c0,1.4-1.4,3.4-2.9,3.4
		C680.9,513.8,680.4,513.1,680.4,511.9z M720.9,447.4c-11.2,17.4-22,36.1-31,51c-0.8,1.1-1.7-0.2-0.8-2
		c12.5-23.8,29.2-50.6,29.9-51.7C720,442.9,721.9,445.7,720.9,447.4z"/>
	<path fill="#522D84" d="M748.7,507.1c0.7-0.1,0.7,0.8,0.2,1.9c-0.7,1.7-9.6,10.3-22.7,10.3c-10.3,0-16.4-7-16.4-17.5
		c0-14.9,14-37.6,35.5-37.6c10.8,0,14.3,5.9,14.3,13.6c0,14.2-13.8,28.9-23.3,28.9c-4.1,0-2.9-5.8-1.4-9.2c-3,4.6-8.9,9.1-11.2,9.1
		c-3,0-2-7.8,1.8-15.4c3.5-7.3,10-14.4,14.2-14.4c3.1,0,2,5.9,0.2,11c2.3-4.6,6.1-11,7.1-11s1.2,2,1.2,2c-9,13-13.6,20.9-13.6,24.5
		c0,1.3,0.1,2.5,1.7,2.5c7.2,0,21.4-14.4,21.4-28.6c0-6.7-3.6-12-11.6-12c-18.4,0-33.8,21-33.8,37c0,11.3,6,16.1,13.7,16.1
		C737,518.4,746.7,510.1,748.7,507.1z M736.7,493.2c2.6-4.6,5.8-15.4,3-15.4c-2.4,0-8.5,7.1-12.1,14c-3.7,7-4.6,13.8-3.4,13.8
		C725.7,505.7,731.9,501,736.7,493.2z"/>
	<path fill="#522D84" d="M795.3,485.3l-7.9-0.2c-1.6,2.5-3.1,5.2-4.7,7.9c2.4,0.1,5.2,0.2,8,0.6c0.5,0.1,0.1,1-0.8,1.1
		c-3.1-0.1-5.8-0.2-8-0.2c-1.6,2.8-3.2,5.6-4.9,8.9c-0.6,0.7-1.1-0.5-1-0.8c1.2-2.9,2.3-5.5,3.5-8c-2.8,0.1-5.3,0.2-7.8,0.4
		l-4.7,8.2c-0.5,0.7-1-0.5-0.8-0.8c1-2.4,2.2-4.8,3.2-7.1l-5.2,0.6c-1.3,0,0.1-1.9,1.4-2c0.4,0,1.9-0.2,4.7-0.5
		c1.4-2.8,2.9-5.4,4.2-7.7c-2.4,0.1-5.2,0.4-8.3,0.6c-1.3,0.1-0.6-1.2,1-1.8c0.8,0,3.8-0.5,8.4-0.6c2.8-4.9,5-8.2,5.3-8.5
		c1.3-1.2,3.5-1.1,2.8,0l-5.2,8.4c2-0.1,4.3-0.1,6.8,0c2.6-4.2,4.6-6.7,4.8-7c1.3-1.3,3.4-1.1,2.8-0.1l-4.7,7.2
		c2.5,0.1,5.2,0.4,7.9,0.6C796.7,484.3,796.3,485.2,795.3,485.3z M772.8,493c2.2-0.1,4.6-0.1,7.4-0.1c1.6-3,3-5.6,4.3-7.8
		c-2.4,0-4.7,0-7.1,0.1L772.8,493z"/>
	<path fill="#522D84" d="M834.8,461.8c5.6,1.2,8.5,4.6,8.5,8.9c0,5-4.8,10-10.4,10c-2.2,0-2.6-1.4-2.2-1.7c6.8,0,10.7-4.2,10.7-8.6
		c0-3.8-2.9-6.4-7.3-7.3l-11.3,21.2c4.1,3.6,8.5,7.3,8.5,12.7c0,8-7.9,14.5-19,14.5c-1.3,0-2.6-0.1-3.7-0.4L806,516
		c-0.6,1-1.9,1.1-1.3,0l2.6-5.2c-6.1-1.4-9.2-5.8-9.2-10.2c0-6.5,6.5-12.4,13.6-12.4c1.8,0,2.5,0.7,2.2,1.6
		c-6.8,0-13.6,5.2-13.6,10.8c0,4.2,2.9,7.7,7.8,8.9l12.4-23.9c-3.6-3-7.1-6.2-7.1-11.6c0-5.4,5.8-12.7,16.6-12.7c1.1,0,2,0,3,0.1
		l2.5-4.7c0.7-1.2,2.9-1.7,2.3-0.5L834.8,461.8z M821.6,486.6l-12.2,23.2c0.8,0.1,1.7,0.2,2.6,0.2c9.1,0,16.7-5.4,16.7-12.7
		C828.7,492.5,825.2,489.6,821.6,486.6z M832.3,462.6c-0.8-0.1-1.7-0.1-2.5-0.1c-8.8,0-13.8,6.6-13.8,11.6c0,3.5,2.6,6.2,5.8,9
		L832.3,462.6z"/>
	<path fill="#522D84" d="M891.6,467.2c-11.5,9.5-24.1,20.3-39.8,35.5c-0.8,0.6-2.5,0.6-1.4-0.6c19.8-20.3,36.1-33.4,38.8-35.6
		C891.3,465.2,892.4,466.3,891.6,467.2z M869.7,471.2c0,5.4-4.9,9.1-8.2,9.1c-3.4,0-5.2-2.3-5.2-5.2c0-4.4,3.7-8.6,8.4-8.6
		C868.1,466.6,869.7,468.5,869.7,471.2z M867.8,471.4c0-1.7-0.7-3.6-3.2-3.6c-2.9,0-6.4,3.7-6.4,7.8c0,2.4,1.3,3.5,3.2,3.5
		C864.7,479,867.8,474.8,867.8,471.4z M887.9,490.8c0,5.4-4.9,9.1-8.3,9.1c-3.2,0-5.2-2.3-5.2-5.2c0-4.4,3.7-8.6,8.5-8.6
		C886.2,486.1,887.9,488,887.9,490.8z M885.9,490.9c0-1.7-0.7-3.6-3.2-3.6c-2.6,0-6.5,3.5-6.5,7.8c0,2.4,1.4,3.5,3.4,3.5
		C882.8,498.6,885.9,494.4,885.9,490.9z"/>
</g>
</svg>
