<?xml version="1.0" encoding="utf-8"?>
<!-- Generator: Adobe Illustrator 19.2.1, SVG Export Plug-In . SVG Version: 6.00 Build 0)  -->
<svg version="1.1" id="Layer_1" xmlns="http://www.w3.org/2000/svg" xmlns:xlink="http://www.w3.org/1999/xlink" x="0px" y="0px"
	 viewBox="0 0 1106.4 407.2" enable-background="new 0 0 1106.4 407.2" xml:space="preserve">
<g>
	<path fill="#FBE8E2" d="M45.7,0c11,0.2,15.5,5.5,15.5,11.6c0,6.7-6.7,13.1-15,13.1c-2.4,0-3.5-1.3-3.1-1.8
		c9.8,0,15.3-5.6,15.3-11.7c0-6.5-5.9-10-12.9-10c-8.5,0-17.9,4.5-17.9,12.9c0,11.9,18.9,12.5,18.9,28.3c0,11.2-9.9,23-26.4,23
		C5.4,65.4,0,56.3,0,49.1c0-10.7,9.6-19.2,22.3-19.2c4.8,0,5.2,3,3.7,3.4c-9.2-3.2-23.7,4.2-23.7,16.5c0,8.5,7.9,14.5,18.1,14.5
		c13.2,0,23.5-9.6,23.5-21.7c0-13.7-18.6-15-18.6-27.9C25.2,6.1,34.3-0.2,45.7,0z"/>
	<path fill="#FBE8E2" d="M61.2,46.6c7,0,21.1-22.6,15.2-22.6c-10.8,0-31.6,40.2-22,40.2c7.9,0,19.2-17,21.1-20.7
		c5,0-10.1,21.9-21,21.9c-7,0-4.6-12.3,1.3-23.2c5.3-9.9,13.6-19.2,20.6-19.2c9.8,0-4.8,25.1-15.2,25.1c-2.7,0-2.9-3.2-1.8-3.7
		C59.5,45.9,60.4,46.6,61.2,46.6z"/>
	<path fill="#FBE8E2" d="M103,48.5c-4.9,8.1-13.8,16.1-17.9,16.1c-6.7,0,3.1-17.6,13-22.1c1.7-0.6,2.4-0.5,2.5-0.1
		c-10.4,3.8-19.2,20.9-16.1,20.9c3,0,10.8-7.2,16.5-17c6.1-10.5,8.1-21.9,5.1-21.9c-4.2,0-13.8,10.1-18.4,17.2
		C79.1,57.5,68.2,79,64,89.5c-0.6,1.2-2.3,1.2-1.9,0.4c11.5-30.5,31.4-63.4,32-64.4c1.4-1.9,4.4-2.2,3.9-0.6
		c-1.6,1.8-3.8,5.4-6.5,10.1c5.2-6.2,11.6-11.7,14.9-11.7C111.7,23.2,110.4,36.3,103,48.5z"/>
	<path fill="#FBE8E2" d="M122.7,65c-2.6,0-1.3-5.9,1.7-12.9c-3.2,4.8-11.6,13-15.8,13c-5.1,0-1.3-13.8,4.2-23.6
		c6.2-10.9,14.6-19,19.6-19c4,0,2.4,7.7,0.2,13.6c4.6-7.6,9.4-13.6,12-13.6c5.2,0-4.9,14.3-15.3,24.6c-4.2,8.9-7.5,16.9-5.9,16.6
		c3.3-0.4,13.2-9.8,17.5-15.8C144.7,47.9,130.3,65,122.7,65z M125.6,49.4c1.5-3.1,2.5-5.9,4.3-9.2c2.3-5.7,5.2-16.7,2.4-16.7
		c-3.6,0-11.3,9-17.3,19.5c-5,8.6-8.2,20.7-6,20.7C111,63.8,118.3,58.1,125.6,49.4z M130.9,44.1c8.9-9.5,16.1-20.5,13.8-20.5
		C143.2,23.6,135.9,33.9,130.9,44.1z"/>
	<path fill="#FBE8E2" d="M166.4,45.4c-3.3,0-2.7-7.7-2-9.9c-5.4,4.8-10.7,11-15.7,19c-1.3,2.6-2.1,4.3-3.2,7.1
		c1.7-0.3,3.6-0.5,5.4-0.5c3.8,0,3.3,1.7,3.1,2.1c-1.9-0.7-10.2-0.2-16.2,1.5c-0.4,0-0.7-0.4-0.5-0.6c0.3-0.5,3-1.3,6.3-2
		c5.7-18.1,17.2-35.6,18.2-37.2c1.6-1.9,4.1-1.4,3.4-0.2c-4.4,5.6-9.8,15.2-14.3,24.7c4.4-7.1,10.7-12.8,14.2-16.3
		c3-9.6,9.3-17.4,13.2-17.4c4,0-0.6,8.3-11.1,18c-1.4,3.2-2.2,10.8-0.6,10.8c1.8,0,5.1-5,6.5-7.5C175.7,37.2,169.6,45.4,166.4,45.4z
		 M167.5,31.5c7.5-7.2,12.6-14.8,10.7-14.8C176.6,16.7,171.3,22.1,167.5,31.5z"/>
	<path fill="#FBE8E2" d="M188.2,65c-2.6,0-1.3-5.9,1.7-12.9c-3.2,4.8-11.6,13-15.8,13c-5.1,0-1.3-13.8,4.2-23.6
		c6.2-10.9,14.6-19,19.6-19c4,0,2.4,7.7,0.2,13.6c4.6-7.6,9.4-13.6,12-13.6c5.2,0-4.9,14.3-15.3,24.6c-4.2,8.9-7.5,16.9-5.9,16.6
		c3.3-0.4,13.2-9.8,17.5-15.8C210.2,47.9,195.8,65,188.2,65z M191.1,49.4c1.5-3.1,2.5-5.9,4.3-9.2c2.3-5.7,5.2-16.7,2.4-16.7
		c-3.6,0-11.3,9-17.3,19.5c-5,8.6-8.2,20.7-6,20.7C176.5,63.8,183.8,58.1,191.1,49.4z M196.4,44.1c8.9-9.5,16.1-20.5,13.8-20.5
		C208.7,23.6,201.4,33.9,196.4,44.1z"/>
	<path fill="#FBE8E2" d="M211.8,64.5c-3.7,0,0.4-11.9,9-28.2c4.3-8.1,6.3-11.3,10.2-16.7c-1.7,0.1-7.1,0.2-9.3,0.4
		c-1,0-0.1-1.2,0.5-1.3c1.8-0.3,5.5-0.4,9.9-0.7c3.9-5.2,7.4-8.2,9.2-8.2c2.3,0,1.4,3.2-1.6,7.7c2.3-0.1,6.7-0.3,8.1-0.3
		c2.6,0,1.8,1.6,1.5,1.7c-4.5,0.1-8.3,0.3-10.5,0.4c-4.5,6.2-8.1,10.4-15.6,17.7c-0.6,1.2-1.3,2.3-2,3.5
		c-5.6,10.1-10.9,22.9-8.9,22.9c4.2,0,19.9-15.1,24.1-23.8C241.6,39.7,222,64.5,211.8,64.5z M223.7,35.3c6.5-6.9,10.1-10.7,13.9-16
		c-0.4,0-2.7,0.1-3.7,0.2C230.8,24.1,228.3,27.4,223.7,35.3z M235,17.9l3.6-0.2c2.6-4,3.8-6.9,3-6.9C240.6,10.8,238.1,13.5,235,17.9
		z"/>
	<path fill="#FBE8E2" d="M248.2,46.6c7,0,21.1-22.6,15.2-22.6c-10.8,0-31.6,40.2-22,40.2c7.9,0,19.2-17,21.1-20.7
		c5,0-10.1,21.9-21,21.9c-7,0-4.6-12.3,1.3-23.2c5.3-9.9,13.6-19.2,20.6-19.2c9.8,0-4.8,25.1-15.2,25.1c-2.7,0-2.9-3.2-1.8-3.7
		C246.5,45.9,247.5,46.6,248.2,46.6z"/>
	<path fill="#FBE8E2" d="M297.9,46.6c7,0,21.1-22.6,15.2-22.6c-10.8,0-31.6,40.2-22,40.2c7.9,0,19.2-17,21.1-20.7
		c5,0-10.1,21.9-21,21.9c-7,0-4.6-12.3,1.3-23.2c5.3-9.9,13.6-19.2,20.6-19.2c9.8,0-4.8,25.1-15.2,25.1c-2.7,0-2.9-3.2-1.8-3.7
		C296.2,45.9,297.1,46.6,297.9,46.6z"/>
	<path fill="#FBE8E2" d="M349.4,26.5c-5.5,11.8-31,63.2-40,63.2c-8.2,0,2.2-19.5,18.7-27.1c2.2-3.8,4.8-8.6,7.2-13.4
		c-3.7,6.1-14.7,15.3-19,15.3c-3.9,0-1.3-12.4,4.3-22.1c6.1-10.9,14.8-19.2,19.9-19.2c4.2,0,2.9,8.3,1,14.2
		c3.7-7.4,6.4-13.1,6.8-13.7C349.1,23.1,349.8,25.5,349.4,26.5z M327.5,64c-15.1,8.6-22.7,24.8-18.2,24.8
		C313.7,88.8,327.2,64.4,327.5,64z M336.4,47l2.2-4.2h-0.1c2-3.1,5.7-18.6,1.8-18.6c-3.5,0-11.3,9-17.4,19.6
		c-4.8,8.5-8.1,19.5-5.9,19.5C319,63.4,330,55,336.4,47z"/>
	<path fill="#FBE8E2" d="M379,26.5c-5.5,11.8-31,63.2-40,63.2c-8.2,0,2.2-19.5,18.7-27.1c2.2-3.8,4.8-8.6,7.2-13.4
		c-3.7,6.1-14.7,15.3-19,15.3c-3.9,0-1.3-12.4,4.3-22.1c6.1-10.9,14.8-19.2,19.9-19.2c4.2,0,2.9,8.3,1,14.2
		c3.7-7.4,6.4-13.1,6.8-13.7C378.7,23.1,379.4,25.5,379,26.5z M357,64c-15.1,8.6-22.7,24.8-18.2,24.8C343.3,88.8,356.8,64.4,357,64z
		 M366,47l2.2-4.2h-0.1c2-3.1,5.7-18.6,1.8-18.6c-3.5,0-11.3,9-17.4,19.6c-4.8,8.5-8.1,19.5-5.9,19.5C348.6,63.4,359.6,55,366,47z"
		/>
	<path fill="#FBE8E2" d="M403.2,29.1c0,4.4-4.3,9.4-8.8,9.4c-1.3,0-2.1-1-2.1-1.8c0-1.1,0.7-2,2-2s1.9,1.8,0.7,2.7
		c3.5-0.6,6-5.1,6-8.5c0-2.9-1.6-5.5-5.1-5.5c-5,0-9.3,4.3-8.3,12.4c0.4,4,2.2,10.2,2.3,14c0.3,8-3.7,15.6-11.6,15.6
		c-4,0-7.9-3.1-7.9-8.3c0-7.5,6.8-13.2,11.4-13.2c1.1,0,2,0.4,2,0.8c0,0.1-0.1,0.1-0.1,0.2c-4.5,0-11.2,5.3-11.2,12.5
		c0,4.8,3,6.8,5.7,6.8c6.4,0,9.7-7,9.3-14.6c-0.2-3.8-1.7-9.2-2.1-13.3c-0.8-7.7,3.2-14,11-14C401.1,22.3,403.2,25.7,403.2,29.1z"/>
	<path fill="#FBE8E2" d="M396,64.5c-1,0-0.5-1.4,0.4-3.2c0.6-1.1,1.4-1.4,2-1.4C400.7,60,397.8,64.5,396,64.5z"/>
	<path fill="#FBE8E2" d="M502.3,16.8c-7.9,14.2-25.6,47-19.5,47c2.6,0,10.4-5.9,13.6-14.3c4,0-5.3,15-13.6,15
		c-11.8,0,16.7-47.9,17.6-49.6c-5.2,2.2-21.9,16.8-33.2,33.1c-3.3,6.4-5.7,11.8-6.3,14.6c-0.2,1.1-2.2,2.6-3,1.9
		c-1.1-0.4,0.2-3.7,2.1-7.2c6.5-15.6,22-42.9,24.1-47.7c-3.6,0-22.6,16-36.4,35.6c-2.9,5.6-5.6,11.3-7.9,17.2
		c1.6-0.3,3.3-0.4,4.9-0.4c4.8,0,4.1,2,3.8,2.5c-1.2-0.5-12.1-0.7-20.4,2.4c-0.5,0-1-0.5-0.6-0.8c0.5-0.7,4.5-2.2,9.4-3.3
		C449.2,31,470.4,1.2,463.6,1.2c-16.2,0-39.3,35.4-27.5,35.4c5.1,0,14.6-12.8,14-17c4.6-1.4-5.3,17.5-14.3,17.5
		c-13.6,0,5.8-36.8,28.2-36.8c8.3,0-2.6,17.6-14,39.7c15.5-21.1,31.6-32.3,35.3-32.3c0.8,0,1.8,2.1,1.1,3.6
		c-3.5,6.7-10.4,19.2-16.1,30.4c11.1-14.6,27.6-28.2,31.2-28.2C502.3,13.5,503.1,15.1,502.3,16.8z"/>
	<path fill="#FBE8E2" d="M519.1,26.3c-0.5,1.1-8.1,13.1-12.1,20.4c-5.1,9.2-8.7,16.8-6.9,16.8c2.5,0,13-8.9,16.7-15.6
		c4.4,0.3-9.7,16.7-16.9,16.7c-4.3,0,0.4-10.2,6-20.8c4-7.7,11.3-18.4,12-20.3C518.8,23,519.7,25.4,519.1,26.3z M522.2,15.3
		c0-1.6,1.4-3.5,3.2-3.5c1.2,0,1.6,0.8,1.6,1.9c0,1.6-1.6,3.7-3.1,3.7C522.9,17.4,522.2,16.6,522.2,15.3z"/>
	<path fill="#FBE8E2" d="M532.6,23.9c0,0,3.5-2.6,3.4,0l-0.4,15.7c7.1-8.1,14.7-15.7,16.1-16.8c1.8-1.1,2.2,0.4,2.2,0.4
		c-3.4,2.9-11.2,11.1-18.2,19.1c-0.2,9.8-0.5,20.3-0.5,21.8c0,1.9-2.1,0.1-2.2,0.1V45.3c-7,8-13.4,16.8-15,20.2
		c-0.3,0.5-1.3-0.1-1-1c1.6-4.1,8.7-13.4,15.8-21.8L532.6,23.9z"/>
	<path fill="#FBE8E2" d="M583.1,65c-2.6,0-1.3-5.9,1.7-12.9c-3.2,4.8-11.6,13-15.8,13c-5.1,0-1.3-13.8,4.2-23.6
		c6.2-10.9,14.6-19,19.6-19c4,0,2.4,7.7,0.2,13.6c4.6-7.6,9.4-13.6,12-13.6c5.2,0-4.9,14.3-15.3,24.6c-4.2,8.9-7.5,16.9-5.9,16.6
		c3.3-0.4,13.2-9.8,17.5-15.8C605,47.9,590.7,65,583.1,65z M585.9,49.4c1.5-3.1,2.5-5.9,4.3-9.2c2.3-5.7,5.2-16.7,2.4-16.7
		c-3.6,0-11.3,9-17.3,19.5c-5,8.6-8.2,20.7-6,20.7C571.3,63.8,578.6,58.1,585.9,49.4z M591.2,44.1c8.9-9.5,16.1-20.5,13.8-20.5
		C603.6,23.6,596.3,33.9,591.2,44.1z"/>
	<path fill="#FBE8E2" d="M604.2,64.7c-4.3,0-0.1-10,5.8-21.2c11.2-21.3,25.6-42.3,29.8-42.3c5.4,0-6.9,18.7-21.3,32.5
		c-4.2,6.3-17.6,29.9-14,29.9c4.6,0,18.2-13.5,25.7-24.9C635.1,38.7,614,64.7,604.2,64.7z M619.8,30.6c13.1-13.1,22.1-28.4,20-28.4
		C637.9,2.2,628.8,15.6,619.8,30.6z"/>
	<path fill="#FBE8E2" d="M627.4,64.7c-4.3,0-0.1-10,5.8-21.2C644.4,22.1,658.8,1.2,663,1.2c5.4,0-6.9,18.7-21.3,32.5
		c-4.2,6.3-17.6,29.9-14,29.9c4.6,0,18.2-13.5,25.7-24.9C658.4,38.7,637.3,64.7,627.4,64.7z M643.1,30.6
		c13.1-13.1,22.1-28.4,20-28.4C661.1,2.2,652,15.6,643.1,30.6z"/>
	<path fill="#FBE8E2" d="M676.3,64.5c-3.7,0,0.4-11.9,9-28.2c4.3-8.1,6.3-11.3,10.2-16.7c-1.7,0.1-7.1,0.2-9.3,0.4
		c-1,0-0.1-1.2,0.5-1.3c1.8-0.3,5.5-0.4,9.9-0.7c3.9-5.2,7.4-8.2,9.2-8.2c2.3,0,1.4,3.2-1.6,7.7c2.3-0.1,6.7-0.3,8.1-0.3
		c2.6,0,1.8,1.6,1.5,1.7c-4.5,0.1-8.3,0.3-10.5,0.4c-4.5,6.2-8.1,10.4-15.6,17.7c-0.6,1.2-1.3,2.3-2,3.5
		c-5.6,10.1-10.9,22.9-8.9,22.9c4.2,0,19.9-15.1,24.1-23.8C706.1,39.7,686.6,64.5,676.3,64.5z M688.3,35.3
		c6.5-6.9,10.1-10.7,13.9-16c-0.4,0-2.7,0.1-3.7,0.2C695.4,24.1,692.8,27.4,688.3,35.3z M699.6,17.9l3.6-0.2c2.6-4,3.8-6.9,3-6.9
		C705.2,10.8,702.6,13.5,699.6,17.9z"/>
	<path fill="#FBE8E2" d="M737.5,23.9c0,4.4-22.6,39.5-18.3,39.5c2.2,0,7.9-3.8,12.7-11.4c3.6,0-5.5,12.6-12.9,12.6
		c-6,0,4.1-17.4,10.5-29.5c3.4-6.4,6-11.1,5.6-11.1c-2.6,0-16.5,9.9-26.6,23.1c-2.3,4.4-4.6,8.6-7,14.4c1.1-0.1,2.4-0.3,3.5-0.3
		c3.8,0,3.3,1.7,3.1,2.1c-1-0.4-9.7-0.5-16.2,1.9c-0.5,0-0.8-0.4-0.6-0.6c0.5-0.6,3.9-1.9,7.9-2.7C706.4,43.3,730.7,1,737.9,1
		c5.2,0-4,13.6-18.9,27.9c-2.4,4.1-5.1,8-7.5,12.5c9.9-12.1,21.5-19.1,24.1-19.1C736.9,22.2,737.5,23,737.5,23.9z M720,26.1
		c12.3-11.9,20-24.1,18-24.1C735.9,2,727.8,13.3,720,26.1z"/>
	<path fill="#FBE8E2" d="M747.6,46.6c7,0,21.1-22.6,15.2-22.6c-10.8,0-31.6,40.2-22,40.2c7.9,0,19.2-17,21.1-20.7
		c5,0-10.1,21.9-21,21.9c-7,0-4.6-12.3,1.3-23.2c5.3-9.9,13.6-19.2,20.6-19.2c9.8,0-4.8,25.1-15.2,25.1c-2.7,0-2.9-3.2-1.8-3.7
		C745.9,45.9,746.9,46.6,747.6,46.6z"/>
	<path fill="#FBE8E2" d="M806,26.3c-0.5,1.1-8.1,13.1-12.1,20.4c-5.1,9.2-8.7,16.8-6.9,16.8c2.5,0,13-8.9,16.7-15.6
		c4.4,0.3-9.7,16.7-16.9,16.7c-4.3,0,0.4-10.2,6-20.8c4-7.7,11.3-18.4,12-20.3C805.8,23,806.7,25.4,806,26.3z M809.2,15.3
		c0-1.6,1.4-3.5,3.2-3.5c1.2,0,1.6,0.8,1.6,1.9c0,1.6-1.6,3.7-3.1,3.7C809.9,17.4,809.2,16.6,809.2,15.3z"/>
	<path fill="#FBE8E2" d="M825.5,65.5c-5.4,0,4.5-18.9,10.7-31.1c3.3-6.4,5.1-10.1,4.8-10.1c-2.4,0-18.1,13.4-28.5,29
		c-1.7,3.3-3.2,6.3-4.3,9c1.2-0.1,3.1-0.4,5.7-0.4c2.9,0,2.6,1.8,2.3,2.2c-1-0.4-9.6-0.8-16.2,1.6c-0.4,0-0.7-0.4-0.5-0.6
		c0.6-0.6,3.7-1.8,6.5-2.3c8.9-22.3,22-41.9,22.3-42.3c1.6-1.3,1.8,2.2,1.8,2.2c-3.5,4.8-9.2,14.5-14.3,24
		c11.1-14.6,22.8-24.2,25.7-24.2c1.3,0,1.9,0.7,1.9,1.7c0,4.3-22,40.2-17.6,40.2c2.2,0,8.2-3.9,12.7-11.4
		C842.1,53,833.4,65.5,825.5,65.5z"/>
	<path fill="#FBE8E2" d="M878.8,26.5c-5.5,11.8-31,63.2-40,63.2c-8.2,0,2.2-19.5,18.7-27.1c2.2-3.8,4.8-8.6,7.2-13.4
		c-3.7,6.1-14.7,15.3-19,15.3c-3.9,0-1.3-12.4,4.3-22.1c6.1-10.9,14.8-19.2,19.9-19.2c4.2,0,2.9,8.3,1,14.2
		c3.7-7.4,6.4-13.1,6.8-13.7C878.5,23.1,879.2,25.5,878.8,26.5z M856.9,64c-15.1,8.6-22.7,24.8-18.2,24.8
		C843.1,88.8,856.6,64.4,856.9,64z M865.8,47l2.2-4.2h-0.1c2-3.1,5.7-18.6,1.8-18.6c-3.5,0-11.3,9-17.4,19.6
		c-4.8,8.5-8.1,19.5-5.9,19.5C848.4,63.4,859.4,55,865.8,47z"/>
	<path fill="#FBE8E2" d="M894.5,45.4c-3.3,0-2.7-7.7-2-9.9c-5.4,4.8-10.7,11-15.7,19c-1.3,2.6-2.1,4.3-3.2,7.1
		c1.7-0.3,3.6-0.5,5.4-0.5c3.8,0,3.3,1.7,3.1,2.1c-1.9-0.7-10.2-0.2-16.2,1.5c-0.4,0-0.7-0.4-0.5-0.6c0.3-0.5,3-1.3,6.3-2
		c5.7-18.1,17.2-35.6,18.2-37.2c1.6-1.9,4.1-1.4,3.4-0.2c-4.4,5.6-9.8,15.2-14.3,24.7c4.4-7.1,10.7-12.8,14.2-16.3
		c3-9.6,9.3-17.4,13.2-17.4c4,0-0.6,8.3-11.1,18c-1.4,3.2-2.2,10.8-0.6,10.8c1.8,0,5.1-5,6.5-7.5C903.8,37.2,897.7,45.4,894.5,45.4z
		 M895.6,31.5c7.5-7.2,12.6-14.8,10.7-14.8C904.7,16.7,899.4,22.1,895.6,31.5z"/>
	<path fill="#FBE8E2" d="M910.7,46.6c7,0,21.1-22.6,15.2-22.6c-10.8,0-31.6,40.2-22,40.2c7.9,0,19.2-17,21.1-20.7
		c5,0-10.1,21.9-21,21.9c-7,0-4.6-12.3,1.3-23.2c5.3-9.9,13.6-19.2,20.6-19.2c9.8,0-4.8,25.1-15.2,25.1c-2.7,0-2.9-3.2-1.8-3.7
		C909,45.9,910,46.6,910.7,46.6z"/>
	<path fill="#FBE8E2" d="M943.6,64.5c-2.3,0-2.5-5,0.8-12.7c-6.1,7.7-12.7,12.8-16.6,12.8c-4.6,0-2.7-11.5,4.2-24
		c6.1-10.9,14.6-17.4,19.6-17.4c3.9,0,3.8,5.6,1.7,11.5c10.2-18,21.5-33.7,25-33.7c5.4,0-6.5,18.1-21,32c-2,3.5-4.3,7.2-6.3,10.7
		c-5.4,9.8-8.9,19.6-7,19.6c4.1,0,17.6-12.7,24.8-24.7C974.5,38.7,953.7,64.5,943.6,64.5z M946,48.1c1.6-2.6,3.3-5.8,4.5-8.3
		c2.4-5.5,4.3-15.4,1.1-15.4c-3.6,0-11.3,7.4-17.3,17.9c-6.2,10.9-8.2,21.1-6,21.1C931.2,63.3,939.7,56.7,946,48.1z M958.2,31
		c12.8-13.1,22.5-28.5,20.4-28.5C976.6,2.4,967.1,16,958.2,31z"/>
	<path fill="#FBE8E2" d="M985,26.3c-0.5,1.1-8.1,13.1-12.1,20.4c-5.1,9.2-8.7,16.8-6.9,16.8c2.5,0,13-8.9,16.7-15.6
		c4.4,0.3-9.7,16.7-16.9,16.7c-4.3,0,0.4-10.2,6-20.8c4-7.7,11.3-18.4,12-20.3C984.8,23,985.6,25.4,985,26.3z M988.2,15.3
		c0-1.6,1.4-3.5,3.2-3.5c1.2,0,1.6,0.8,1.6,1.9c0,1.6-1.6,3.7-3.1,3.7C988.8,17.4,988.2,16.6,988.2,15.3z"/>
	<path fill="#FBE8E2" d="M996.3,46.6c7,0,21.1-22.6,15.2-22.6c-10.8,0-31.6,40.2-22,40.2c7.9,0,19.2-17,21.1-20.7
		c5,0-10.1,21.9-21,21.9c-7,0-4.6-12.3,1.3-23.2c5.3-9.9,13.6-19.2,20.6-19.2c9.8,0-4.8,25.1-15.2,25.1c-2.7,0-2.9-3.2-1.8-3.7
		C994.6,45.9,995.5,46.6,996.3,46.6z"/>
	<path fill="#FBE8E2" d="M1030.8,65.5c-5.4,0,4.5-18.9,10.7-31.1c3.3-6.4,5.1-10.1,4.8-10.1c-2.4,0-18.1,13.4-28.5,29
		c-1.7,3.3-3.2,6.3-4.3,9c1.2-0.1,3.1-0.4,5.7-0.4c2.9,0,2.6,1.8,2.3,2.2c-1-0.4-9.6-0.8-16.2,1.6c-0.4,0-0.7-0.4-0.5-0.6
		c0.6-0.6,3.7-1.8,6.5-2.3c8.9-22.3,22-41.9,22.3-42.3c1.6-1.3,1.8,2.2,1.8,2.2c-3.5,4.8-9.2,14.5-14.3,24
		c11.1-14.6,22.8-24.2,25.7-24.2c1.3,0,1.9,0.7,1.9,1.7c0,4.3-22,40.2-17.6,40.2c2.2,0,8.2-3.9,12.7-11.4
		C1047.4,53,1038.7,65.5,1030.8,65.5z"/>
	<path fill="#FBE8E2" d="M1050.2,64.5c-3.7,0,0.4-11.9,9-28.2c4.3-8.1,6.3-11.3,10.2-16.7c-1.7,0.1-7.1,0.2-9.3,0.4
		c-1,0-0.1-1.2,0.5-1.3c1.8-0.3,5.5-0.4,9.9-0.7c3.9-5.2,7.4-8.2,9.2-8.2c2.3,0,1.4,3.2-1.6,7.7c2.3-0.1,6.7-0.3,8.1-0.3
		c2.6,0,1.8,1.6,1.5,1.7c-4.5,0.1-8.3,0.3-10.5,0.4c-4.5,6.2-8.1,10.4-15.6,17.7c-0.6,1.2-1.3,2.3-2,3.5
		c-5.6,10.1-10.9,22.9-8.9,22.9c4.2,0,19.9-15.1,24.1-23.8C1079.9,39.7,1060.4,64.5,1050.2,64.5z M1062.1,35.3
		c6.5-6.9,10.1-10.7,13.9-16c-0.4,0-2.7,0.1-3.7,0.2C1069.2,24.1,1066.6,27.4,1062.1,35.3z M1073.4,17.9l3.6-0.2
		c2.6-4,3.8-6.9,3-6.9C1079,10.8,1076.5,13.5,1073.4,17.9z"/>
	<path fill="#FBE8E2" d="M1106.4,29.1c0,4.4-4.3,9.4-8.8,9.4c-1.3,0-2.1-1-2.1-1.8c0-1.1,0.7-2,2-2s1.9,1.8,0.7,2.7
		c3.5-0.6,6-5.1,6-8.5c0-2.9-1.6-5.5-5.1-5.5c-5,0-9.3,4.3-8.3,12.4c0.4,4,2.2,10.2,2.3,14c0.3,8-3.7,15.6-11.6,15.6
		c-4,0-7.9-3.1-7.9-8.3c0-7.5,6.8-13.2,11.4-13.2c1.1,0,2,0.4,2,0.8c0,0.1-0.1,0.1-0.1,0.2c-4.5,0-11.2,5.3-11.2,12.5
		c0,4.8,3,6.8,5.7,6.8c6.4,0,9.7-7,9.3-14.6c-0.2-3.8-1.7-9.2-2.1-13.3c-0.8-7.7,3.2-14,11-14C1104.2,22.3,1106.4,25.7,1106.4,29.1z
		"/>
	<path fill="#FBE8E2" d="M144.2,99.3c-18.7,0-48.2,31.9-48.2,64.1c0,10.5,5.3,16.5,8.9,17.1c0.3,0.3,0,0.7-0.7,0.7
		c-3.9,0-9.9-6.3-9.9-18.5c0-31.5,28.8-64.6,49-64.6C144.8,98.1,144.8,99.2,144.2,99.3z"/>
	<path fill="#FBE8E2" d="M122.2,152.2c7,0,21.1-22.6,15.2-22.6c-10.8,0-31.6,40.2-22,40.2c7.9,0,19.2-17,21.1-20.7
		c5,0-10.1,21.9-21,21.9c-7,0-4.6-12.3,1.3-23.2c5.3-9.9,13.6-19.2,20.6-19.2c9.8,0-4.8,25.1-15.2,25.1c-2.7,0-2.9-3.2-1.8-3.7
		C120.5,151.5,121.4,152.2,122.2,152.2z"/>
	<path fill="#FBE8E2" d="M150.8,129.5c0,0,3.5-2.6,3.4,0l-0.4,15.7c7.1-8.1,14.7-15.7,16.1-16.8c1.8-1.1,2.2,0.4,2.2,0.4
		c-3.4,2.9-11.2,11.1-18.2,19.1c-0.2,9.8-0.5,20.3-0.5,21.8c0,1.9-2.1,0.1-2.2,0.1V151c-7,8-13.4,16.8-15,20.2c-0.3,0.5-1.3-0.1-1-1
		c1.6-4.1,8.7-13.4,15.8-21.8L150.8,129.5z"/>
	<path fill="#FBE8E2" d="M180,144.2c6-2.1,10.7-14.8,6.9-14.8c-4.9,0-13,10-18.3,20.4c-5.1,9.9-7.1,20.3-2.9,20.3
		c7.9,0,17.9-16.6,20.3-21.7c4.6,0-9,22.7-20.3,22.7c-5.9,0-5.1-11-0.1-21.3c5.1-10.6,14.2-21.4,21.2-21.4c8.2,0-0.4,16.9-7.2,16.9
		c-1.8,0-2.6-2.2-1.3-3.3C179.8,140.8,181.6,142.8,180,144.2z"/>
	<path fill="#FBE8E2" d="M198.8,152.2c7,0,21.1-22.6,15.2-22.6c-10.8,0-31.6,40.2-22,40.2c7.9,0,19.2-17,21.1-20.7
		c5,0-10.1,21.9-21,21.9c-7,0-4.6-12.3,1.3-23.2c5.3-9.9,13.6-19.2,20.6-19.2c9.8,0-4.8,25.1-15.2,25.1c-2.7,0-2.9-3.2-1.8-3.7
		C197.2,151.5,198.1,152.2,198.8,152.2z"/>
	<path fill="#FBE8E2" d="M240.7,154.1c-4.9,8.1-13.8,16.1-17.9,16.1c-6.7,0,3.1-17.6,13-22.1c1.7-0.6,2.4-0.5,2.5-0.1
		c-10.4,3.8-19.2,20.9-16.1,20.9c3,0,10.8-7.2,16.5-17c6.1-10.5,8.1-21.9,5.1-21.9c-4.2,0-13.8,10.1-18.4,17.2
		c-8.7,15.8-19.5,37.4-23.8,47.9c-0.6,1.2-2.3,1.2-1.9,0.4c11.5-30.5,31.4-63.4,32-64.4c1.4-1.9,4.4-2.2,3.9-0.6
		c-1.6,1.8-3.8,5.4-6.5,10.1c5.2-6.2,11.6-11.7,14.9-11.7C249.3,128.9,248.1,142,240.7,154.1z"/>
	<path fill="#FBE8E2" d="M246,170.2c-3.7,0,0.4-11.9,9-28.2c4.3-8.1,6.3-11.3,10.2-16.7c-1.7,0.1-7.1,0.2-9.3,0.4
		c-1,0-0.1-1.2,0.5-1.3c1.8-0.3,5.5-0.4,9.9-0.7c3.9-5.2,7.4-8.2,9.2-8.2c2.3,0,1.4,3.2-1.6,7.7c2.3-0.1,6.7-0.3,8.1-0.3
		c2.6,0,1.8,1.6,1.5,1.7c-4.5,0.1-8.3,0.3-10.5,0.4c-4.5,6.2-8.1,10.4-15.6,17.7c-0.6,1.2-1.3,2.3-2,3.5
		c-5.6,10.1-10.9,22.9-8.9,22.9c4.2,0,19.9-15.1,24.1-23.8C275.7,145.4,256.2,170.2,246,170.2z M257.9,140.9
		c6.5-6.9,10.1-10.7,13.9-16c-0.4,0-2.7,0.1-3.7,0.2C265,129.7,262.4,133,257.9,140.9z M269.2,123.5l3.6-0.2c2.6-4,3.8-6.9,3-6.9
		C274.8,116.4,272.3,119.2,269.2,123.5z"/>
	<path fill="#FBE8E2" d="M305.6,152.2c7,0,21.1-22.6,15.2-22.6c-10.8,0-31.6,40.2-22,40.2c7.9,0,19.2-17,21.1-20.7
		c5,0-10.1,21.9-21,21.9c-7,0-4.6-12.3,1.3-23.2c5.3-9.9,13.6-19.2,20.6-19.2c9.8,0-4.8,25.1-15.2,25.1c-2.7,0-2.9-3.2-1.8-3.7
		C303.9,151.5,304.9,152.2,305.6,152.2z"/>
	<path fill="#FBE8E2" d="M357.2,132.2c-5.5,11.8-31,63.2-40,63.2c-8.2,0,2.2-19.5,18.7-27.1c2.2-3.8,4.8-8.6,7.2-13.4
		c-3.7,6.1-14.7,15.3-19,15.3c-3.9,0-1.3-12.4,4.3-22.1c6.1-10.9,14.8-19.2,19.9-19.2c4.2,0,2.9,8.3,1,14.2
		c3.7-7.4,6.4-13.1,6.8-13.7C356.9,128.8,357.6,131.1,357.2,132.2z M335.2,169.7c-15.1,8.6-22.7,24.8-18.2,24.8
		C321.5,194.5,335,170.1,335.2,169.7z M344.2,152.6l2.2-4.2h-0.1c2-3.1,5.7-18.6,1.8-18.6c-3.5,0-11.3,9-17.4,19.6
		c-4.8,8.5-8.1,19.5-5.9,19.5C326.8,169,337.7,160.7,344.2,152.6z"/>
	<path fill="#FBE8E2" d="M386.8,132.2c-5.5,11.8-31,63.2-40,63.2c-8.2,0,2.2-19.5,18.7-27.1c2.2-3.8,4.8-8.6,7.2-13.4
		c-3.7,6.1-14.7,15.3-19,15.3c-3.9,0-1.3-12.4,4.3-22.1c6.1-10.9,14.8-19.2,19.9-19.2c4.2,0,2.9,8.3,1,14.2
		c3.7-7.4,6.4-13.1,6.8-13.7C386.4,128.8,387.2,131.1,386.8,132.2z M364.8,169.7c-15.1,8.6-22.7,24.8-18.2,24.8
		C351.1,194.5,364.6,170.1,364.8,169.7z M373.8,152.6l2.2-4.2h-0.1c2-3.1,5.7-18.6,1.8-18.6c-3.5,0-11.3,9-17.4,19.6
		c-4.8,8.5-8.1,19.5-5.9,19.5C356.3,169,367.3,160.7,373.8,152.6z"/>
	<path fill="#FBE8E2" d="M418.2,171.1c-6,0-0.3-16.9,4-26.3c-7,7.8-13.3,14.5-18.5,23.5c1.4-0.2,3-0.4,4.3-0.4
		c3.8,0,3.4,1.7,3.2,2.1c-1.2-0.7-10.1-0.4-15.3,1.4c-0.4,0-0.8-0.5-0.5-0.7c0.4-0.5,3.4-1.4,5.2-1.8c7.3-20.6,21-40.1,21-40.1
		c1.2-1.3,1.9,0.7,1.8,2.1c-5,6.1-14.9,23.2-21.2,37.8c0,0.2,0.2-0.1,0.3-0.3c5.4-10.5,16-21.2,22.2-28.3c1.4-1.6,3.3-1.6,3.3-0.6
		c-4,4.3-14.5,30.6-9.5,30.6c3,0,14.2-12.8,21.3-28.1c-2.1-8,1.1-21,5.1-21c3.3,0,1,10.8-3.2,20.7c0.4,3.3,2.4,5.8,4.1,5.8
		c0.4,0.8-3.4,2-5.2-3.4C434.7,156.7,423.7,171.1,418.2,171.1z M441.2,139.3c3.6-9.3,5.1-17.4,3.5-17.4
		C442.9,121.9,440.1,132.4,441.2,139.3z"/>
	<path fill="#FBE8E2" d="M478.7,129.5c0,4.4-22.6,39.5-18.3,39.5c2.2,0,7.9-3.8,12.7-11.4c3.6,0-5.5,12.6-12.9,12.6
		c-6,0,4.1-17.4,10.5-29.5c3.4-6.4,6-11.1,5.6-11.1c-2.6,0-16.5,9.9-26.6,23.1c-2.3,4.4-4.6,8.6-7,14.4c1.1-0.1,2.4-0.3,3.5-0.3
		c3.8,0,3.3,1.7,3.1,2.1c-1-0.4-9.7-0.5-16.2,1.9c-0.5,0-0.8-0.4-0.6-0.6c0.5-0.6,3.9-1.9,7.9-2.7c7.3-18.5,31.6-60.8,38.8-60.8
		c5.2,0-4,13.6-18.9,27.9c-2.4,4.1-5.1,8-7.5,12.5c9.9-12.1,21.5-19.1,24.1-19.1C478,127.8,478.7,128.7,478.7,129.5z M461.1,131.7
		c12.3-11.9,20-24.1,18-24.1C477.1,107.6,468.9,118.9,461.1,131.7z"/>
	<path fill="#FBE8E2" d="M497.6,131.9c-0.5,1.1-8.1,13.1-12.1,20.4c-5.1,9.2-8.7,16.8-6.9,16.8c2.5,0,13-8.9,16.7-15.6
		c4.4,0.3-9.7,16.7-16.9,16.7c-4.3,0,0.4-10.2,6-20.8c4-7.7,11.3-18.4,12-20.3C497.4,128.7,498.2,131,497.6,131.9z M500.7,121
		c0-1.6,1.4-3.5,3.2-3.5c1.2,0,1.6,0.8,1.6,1.9c0,1.6-1.6,3.7-3.1,3.7C501.4,123.1,500.7,122.2,500.7,121z"/>
	<path fill="#FBE8E2" d="M500,170.2c-3.7,0,0.4-11.9,9-28.2c4.3-8.1,6.3-11.3,10.2-16.7c-1.7,0.1-7.1,0.2-9.3,0.4
		c-1,0-0.1-1.2,0.5-1.3c1.8-0.3,5.5-0.4,9.9-0.7c3.9-5.2,7.4-8.2,9.2-8.2c2.3,0,1.4,3.2-1.6,7.7c2.3-0.1,6.7-0.3,8.1-0.3
		c2.6,0,1.8,1.6,1.5,1.7c-4.5,0.1-8.3,0.3-10.5,0.4c-4.5,6.2-8.1,10.4-15.6,17.7c-0.6,1.2-1.3,2.3-2,3.5
		c-5.6,10.1-10.9,22.9-8.9,22.9c4.2,0,19.9-15.1,24.1-23.8C529.8,145.4,510.2,170.2,500,170.2z M511.9,140.9
		c6.5-6.9,10.1-10.7,13.9-16c-0.4,0-2.7,0.1-3.7,0.2C519,129.7,516.5,133,511.9,140.9z M523.2,123.5l3.6-0.2c2.6-4,3.8-6.9,3-6.9
		C528.8,116.4,526.3,119.2,523.2,123.5z"/>
	<path fill="#FBE8E2" d="M536.4,152.2c7,0,21.1-22.6,15.2-22.6c-10.8,0-31.6,40.2-22,40.2c7.9,0,19.2-17,21.1-20.7
		c5,0-10.1,21.9-21,21.9c-7,0-4.6-12.3,1.3-23.2c5.3-9.9,13.6-19.2,20.6-19.2c9.8,0-4.8,25.1-15.2,25.1c-2.7,0-2.9-3.2-1.8-3.7
		C534.7,151.5,535.7,152.2,536.4,152.2z"/>
	<path fill="#FBE8E2" d="M582.6,134.7c0,4.4-4.3,9.4-8.8,9.4c-1.3,0-2.1-1-2.1-1.8c0-1.1,0.7-2,2-2s1.9,1.8,0.7,2.7
		c3.5-0.6,6-5.1,6-8.5c0-2.9-1.6-5.5-5.1-5.5c-5,0-9.3,4.3-8.3,12.4c0.4,4,2.2,10.2,2.3,14c0.3,8-3.7,15.6-11.6,15.6
		c-4,0-7.9-3.1-7.9-8.3c0-7.5,6.8-13.2,11.4-13.2c1.1,0,2,0.4,2,0.8c0,0.1-0.1,0.1-0.1,0.2c-4.5,0-11.2,5.3-11.2,12.5
		c0,4.8,3,6.8,5.7,6.8c6.4,0,9.7-7,9.3-14.6c-0.2-3.8-1.7-9.2-2.1-13.3c-0.8-7.7,3.2-14,11-14C580.5,127.9,582.6,131.3,582.6,134.7z
		"/>
	<path fill="#FBE8E2" d="M559.5,181.9c17-1.5,44.6-38.5,44.6-67c0-9.4-2.2-14.4-5.3-15.7c-0.5-0.2-0.7-1,0.1-1
		c4.1,0,7.4,7.3,7.4,17.7c0,27-27.7,66.8-46,66.8C558.9,182.8,558.9,182,559.5,181.9z"/>
	<path fill="#FBE8E2" d="M634.5,171.1c-3.6,0,1-11.5,3.7-17.2c-4.9,6.3-13.8,17.3-19.5,17.3c-7.4,0,15.5-34.4,16.5-42.7
		c8.8-1.6-20.1,41.5-16.1,41.5c4.4,0,18.1-16.7,21.9-21.7c4.5-9.1,9.2-19.9,10.1-19.9s1.5,1.5,1.3,2.9c-0.4,3.4-5.2,10.2-8.2,15.4
		C638.9,157,633.2,170,635,170c3.5,0,11.3-9.9,12.3-12C650.8,157.9,641.4,171.1,634.5,171.1z"/>
	<path fill="#FBE8E2" d="M681.9,134.7c0,4.4-4.3,9.4-8.8,9.4c-1.3,0-2.1-1-2.1-1.8c0-1.1,0.7-2,2-2s1.9,1.8,0.7,2.7
		c3.5-0.6,6-5.1,6-8.5c0-2.9-1.6-5.5-5.1-5.5c-5,0-9.3,4.3-8.3,12.4c0.4,4,2.2,10.2,2.3,14c0.3,8-3.7,15.6-11.6,15.6
		c-4,0-7.9-3.1-7.9-8.3c0-7.5,6.8-13.2,11.4-13.2c1.1,0,2,0.4,2,0.8c0,0.1-0.1,0.1-0.1,0.2c-4.5,0-11.2,5.3-11.2,12.5
		c0,4.8,3,6.8,5.7,6.8c6.4,0,9.7-7,9.3-14.6c-0.2-3.8-1.7-9.2-2.1-13.3c-0.8-7.7,3.2-14,11-14C679.8,127.9,681.9,131.3,681.9,134.7z
		"/>
	<path fill="#FBE8E2" d="M696.2,131.9c-0.5,1.1-8.1,13.1-12.1,20.4c-5.1,9.2-8.7,16.8-6.9,16.8c2.5,0,13-8.9,16.7-15.6
		c4.4,0.3-9.7,16.7-16.9,16.7c-4.3,0,0.4-10.2,6-20.8c4-7.7,11.3-18.4,12-20.3C696,128.7,696.9,131,696.2,131.9z M699.4,121
		c0-1.6,1.4-3.5,3.2-3.5c1.2,0,1.6,0.8,1.6,1.9c0,1.6-1.6,3.7-3.1,3.7C700.1,123.1,699.4,122.2,699.4,121z"/>
	<path fill="#FBE8E2" d="M715.7,171.1c-5.4,0,4.5-18.9,10.7-31.1c3.3-6.4,5.1-10.1,4.8-10.1c-2.4,0-18.1,13.4-28.5,29
		c-1.7,3.3-3.2,6.3-4.3,9c1.2-0.1,3.1-0.4,5.7-0.4c2.9,0,2.6,1.8,2.3,2.2c-1-0.4-9.6-0.8-16.2,1.6c-0.4,0-0.7-0.4-0.5-0.6
		c0.6-0.6,3.7-1.8,6.5-2.3c8.9-22.3,22-41.9,22.3-42.3c1.6-1.3,1.8,2.2,1.8,2.2c-3.5,4.8-9.2,14.5-14.3,24
		c11.1-14.6,22.8-24.2,25.7-24.2c1.3,0,1.9,0.7,1.9,1.7c0,4.3-22,40.2-17.6,40.2c2.2,0,8.2-3.9,12.7-11.4
		C732.3,158.7,723.6,171.1,715.7,171.1z"/>
	<path fill="#FBE8E2" d="M769,132.2c-5.5,11.8-31,63.2-40,63.2c-8.2,0,2.2-19.5,18.7-27.1c2.2-3.8,4.8-8.6,7.2-13.4
		c-3.7,6.1-14.7,15.3-19,15.3c-3.9,0-1.3-12.4,4.3-22.1c6.1-10.9,14.8-19.2,19.9-19.2c4.2,0,2.9,8.3,1,14.2
		c3.7-7.4,6.4-13.1,6.8-13.7C768.7,128.8,769.5,131.1,769,132.2z M747.1,169.7c-15.1,8.6-22.7,24.8-18.2,24.8
		C733.3,194.5,746.8,170.1,747.1,169.7z M756,152.6l2.2-4.2h-0.1c2-3.1,5.7-18.6,1.8-18.6c-3.5,0-11.3,9-17.4,19.6
		c-4.8,8.5-8.1,19.5-5.9,19.5C738.6,169,749.6,160.7,756,152.6z"/>
	<path fill="#FBE8E2" d="M802.3,170.6c-2.6,0-1.3-5.9,1.7-12.9c-3.2,4.8-11.6,13-15.8,13c-5.1,0-1.3-13.8,4.2-23.6
		c6.2-10.9,14.6-19,19.6-19c4,0,2.4,7.7,0.2,13.6c4.6-7.6,9.4-13.6,12-13.6c5.2,0-4.9,14.3-15.3,24.6c-4.2,8.9-7.5,16.9-5.9,16.6
		c3.3-0.4,13.2-9.8,17.5-15.8C824.3,153.5,809.9,170.6,802.3,170.6z M805.2,155.1c1.5-3.1,2.5-5.9,4.3-9.2
		c2.3-5.7,5.2-16.7,2.4-16.7c-3.6,0-11.3,9-17.3,19.5c-5,8.6-8.2,20.7-6,20.7C790.6,169.4,797.9,163.7,805.2,155.1z M810.4,149.7
		c8.9-9.5,16.1-20.5,13.8-20.5C822.8,129.2,815.5,139.5,810.4,149.7z"/>
	<path fill="#FBE8E2" d="M881.7,170.2c-8,0,13-35.6,13.6-36.9c-2.3,0.1-14,8.6-22.8,20.4c-3.4,5.9-6.8,13.9-7.1,15.1
		c-3.4,1.8-2.5-5.7,5.7-16.2c7.1-15.3,11.8-23.8,11.1-23.8c-2.4,0-18.4,13.5-29.1,30c-1.4,2.9-2.9,5.9-3.8,8.3
		c0.8-0.1,2.5-0.5,5.3-0.5c3.2,0,2.6,1.7,2.4,2.1c-1-0.4-9.6-0.5-16.2,1.9c-0.4,0-0.7-0.4-0.5-0.6c0.4-0.6,4.1-2,6.8-2.5
		c8.9-22.2,22.1-42,22.4-42.5c1.6-1.2,1.8,2.2,1.8,2.2c-3.5,4.9-9.2,14.6-14.3,24.1c11.1-14.6,22.8-24.2,25.7-24.2
		c1.3,0,1.8,0.6,1.8,1.6c0,2-4.5,10.6-9.2,19.3c9.4-10.7,18.5-17.1,20.8-17.1c3.6,0,0.8,4.5-1.3,8.3c-5.9,10.7-16.1,29.7-13,29.7
		c2.2,0,8.1-3.8,12.8-11.3C898.3,157.7,889.7,170.2,881.7,170.2z"/>
	<path fill="#FBE8E2" d="M917.3,131.9c-0.5,1.1-8.1,13.1-12.1,20.4c-5.1,9.2-8.7,16.8-6.9,16.8c2.5,0,13-8.9,16.7-15.6
		c4.4,0.3-9.7,16.7-16.9,16.7c-4.3,0,0.4-10.2,6-20.8c4-7.7,11.3-18.4,12-20.3C917.1,128.7,918,131,917.3,131.9z M920.5,121
		c0-1.6,1.4-3.5,3.2-3.5c1.2,0,1.6,0.8,1.6,1.9c0,1.6-1.6,3.7-3.1,3.7C921.1,123.1,920.5,122.2,920.5,121z"/>
	<path fill="#FBE8E2" d="M930.8,129.5c0,0,3.5-2.6,3.4,0l-0.4,15.7c7.1-8.1,14.7-15.7,16.1-16.8c1.8-1.1,2.2,0.4,2.2,0.4
		c-3.4,2.9-11.2,11.1-18.2,19.1c-0.2,9.8-0.5,20.3-0.5,21.8c0,1.9-2.1,0.1-2.2,0.1V151c-7,8-13.4,16.8-15,20.2c-0.3,0.5-1.3-0.1-1-1
		c1.6-4.1,8.7-13.4,15.8-21.8L930.8,129.5z"/>
	<path fill="#FBE8E2" d="M952.5,152.2c7,0,21.1-22.6,15.2-22.6c-10.8,0-31.6,40.2-22,40.2c7.9,0,19.2-17,21.1-20.7
		c5,0-10.1,21.9-21,21.9c-7,0-4.6-12.3,1.3-23.2c5.3-9.9,13.6-19.2,20.6-19.2c9.8,0-4.8,25.1-15.2,25.1c-2.7,0-2.9-3.2-1.8-3.7
		C950.8,151.5,951.8,152.2,952.5,152.2z"/>
	<path fill="#FBE8E2" d="M990.1,151.1c-3.3,0-2.7-7.7-2-9.9c-5.4,4.8-10.7,11-15.7,19c-1.3,2.6-2.1,4.3-3.2,7.1
		c1.7-0.3,3.6-0.5,5.4-0.5c3.8,0,3.3,1.7,3.1,2.1c-1.9-0.7-10.2-0.2-16.2,1.5c-0.4,0-0.7-0.4-0.5-0.6c0.3-0.5,3-1.3,6.3-2
		c5.7-18.1,17.2-35.6,18.2-37.2c1.6-1.9,4.1-1.4,3.4-0.2c-4.4,5.6-9.8,15.2-14.3,24.7c4.4-7.1,10.7-12.8,14.2-16.3
		c3-9.6,9.3-17.4,13.2-17.4c4,0-0.6,8.3-11.1,18c-1.4,3.2-2.2,10.8-0.6,10.8c1.8,0,5.1-5,6.5-7.5
		C999.4,142.8,993.4,151.1,990.1,151.1z M991.3,137.1c7.5-7.2,12.6-14.8,10.7-14.8C1000.4,122.3,995.1,127.7,991.3,137.1z"/>
	<path fill="#FBE8E2" d="M993.6,170.2c-1,0-0.5-1.4,0.4-3.2c0.6-1.1,1.4-1.4,2-1.4C998.2,165.6,995.4,170.2,993.6,170.2z"/>
	<path fill="#FBE8E2" d="M96.9,209c-0.7-1-2-1.8-4.3-1.8c-3.5,0-7.1,2-9.8,4.4c-1.4,1.2-2.6,2.5-3.9,4c21.1,0.4,17.2,26.8,0.4,35.4
		c0.5,0.8,1,1.8,1.3,2.9c0.7-0.1,1.5-0.1,2.2-0.1c7.2,0,7.3,4,5.9,4c0-0.4-0.8-3.2-6.3-3.2l-1.7,0.1c0.1,0.4,0.1,0.8,0.1,1.3
		c0,9.2-8.1,20.4-17.4,20.4c-6.2,0-6.2-7.5-1-13.2c4.1-4.4,9.6-7.8,15.7-9c-0.1-0.8-0.4-1.6-0.7-2.3c-2.7,1.1-5.8,1.7-9.1,1.7
		c-3.2,0-4.1-1.5-4.1-2.3c0-2.1,2.7-4.1,7.5-4.1c2.9,0,5.2,1.2,6.8,2.9c14.3-8.7,18.2-33.4-0.2-33.5c-15.5,19.4-23,60.2-37.4,60.2
		c-5.5,0-9.2-4.5-9.2-13.5c0-17.6,18-46.2,44.8-47.5c1.8-2,3.7-3.8,5.7-5.3c3.5-2.5,6.5-4,10.5-4C97.6,206.4,98.1,209.3,96.9,209z
		 M54.5,257.7c5.8-13.3,12.3-30.4,21.1-41.1c-25,1.7-43,28.7-43,46.4c0,8.6,3.2,12.9,8.1,12.9C45.4,275.9,49.9,268.3,54.5,257.7z
		 M78.2,255.1c-6,1.2-11.5,4.9-15.5,9.2c-4.4,5-4.3,11.3,0.6,11.3c7.1,0,14.9-11.4,14.9-19.8V255.1z M76.8,250.9
		c-1.2-1.7-2.9-2.9-5.2-2.9c-4.1,0-6.7,1.5-6.7,3.3c0,0.5,0.7,1.6,3.2,1.6C71.3,252.9,74.2,252.1,76.8,250.9z"/>
	<path fill="#FBE8E2" d="M97.8,257.9c7,0,21.1-22.6,15.2-22.6c-10.8,0-31.6,40.2-22,40.2c7.9,0,19.2-17,21.1-20.7
		c5,0-10.1,21.9-21,21.9c-7,0-4.6-12.3,1.3-23.2c5.3-9.9,13.6-19.2,20.6-19.2c9.8,0-4.8,25.1-15.2,25.1c-2.7,0-2.9-3.2-1.8-3.7
		C96.1,257.1,97.1,257.9,97.8,257.9z"/>
	<path fill="#FBE8E2" d="M129.8,276.2c-2.6,0-1.3-5.9,1.7-12.9c-3.2,4.8-11.6,13-15.8,13c-5.1,0-1.3-13.8,4.2-23.6
		c6.2-10.9,14.6-19,19.6-19c4,0,2.4,7.7,0.2,13.6c4.6-7.6,9.4-13.6,12-13.6c5.2,0-4.9,14.3-15.3,24.6c-4.2,8.9-7.5,16.9-5.9,16.6
		c3.3-0.4,13.2-9.8,17.5-15.8C151.8,259.1,137.4,276.2,129.8,276.2z M132.7,260.7c1.5-3.1,2.5-5.9,4.3-9.2
		c2.3-5.7,5.2-16.7,2.4-16.7c-3.6,0-11.3,9-17.3,19.5c-5,8.6-8.2,20.7-6,20.7C118.1,275.1,125.4,269.4,132.7,260.7z M138,255.3
		c8.9-9.5,16.1-20.5,13.8-20.5C150.3,234.8,143,245.2,138,255.3z"/>
	<path fill="#FBE8E2" d="M153.4,275.8c-3.7,0,0.4-11.9,9-28.2c4.3-8.1,6.3-11.3,10.2-16.7c-1.7,0.1-7.1,0.2-9.3,0.4
		c-1,0-0.1-1.2,0.5-1.3c1.8-0.3,5.5-0.4,9.9-0.7c3.9-5.2,7.4-8.2,9.2-8.2c2.3,0,1.4,3.2-1.6,7.7c2.3-0.1,6.7-0.3,8.1-0.3
		c2.6,0,1.8,1.6,1.5,1.7c-4.5,0.1-8.3,0.3-10.5,0.4c-4.5,6.2-8.1,10.4-15.6,17.7c-0.6,1.2-1.3,2.3-2,3.5
		c-5.6,10.1-10.9,22.9-8.9,22.9c4.2,0,19.9-15.1,24.1-23.8C183.2,251,163.6,275.8,153.4,275.8z M165.3,246.6
		c6.5-6.9,10.1-10.7,13.9-16c-0.4,0-2.7,0.1-3.7,0.2C172.4,235.4,169.9,238.6,165.3,246.6z M176.6,229.1l3.6-0.2
		c2.6-4,3.8-6.9,3-6.9C182.2,222,179.7,224.8,176.6,229.1z"/>
	<path fill="#FBE8E2" d="M204.2,275.8c-3.7,0,0.4-11.9,9-28.2c4.3-8.1,6.3-11.3,10.2-16.7c-1.7,0.1-7.1,0.2-9.3,0.4
		c-1,0-0.1-1.2,0.5-1.3c1.8-0.3,5.5-0.4,9.9-0.7c3.9-5.2,7.4-8.2,9.2-8.2c2.3,0,1.4,3.2-1.6,7.7c2.3-0.1,6.7-0.3,8.1-0.3
		c2.6,0,1.8,1.6,1.5,1.7c-4.5,0.1-8.3,0.3-10.5,0.4c-4.5,6.2-8.1,10.4-15.6,17.7c-0.6,1.2-1.3,2.3-2,3.5
		c-5.6,10.1-10.9,22.9-8.9,22.9c4.2,0,19.9-15.1,24.1-23.8C234,251,214.4,275.8,204.2,275.8z M216.1,246.6
		c6.5-6.9,10.1-10.7,13.9-16c-0.4,0-2.7,0.1-3.7,0.2C223.2,235.4,220.7,238.6,216.1,246.6z M227.4,229.1l3.6-0.2
		c2.6-4,3.8-6.9,3-6.9C233,222,230.5,224.8,227.4,229.1z"/>
	<path fill="#FBE8E2" d="M265.3,235.1c0,4.4-22.6,39.5-18.3,39.5c2.2,0,7.9-3.8,12.7-11.4c3.6,0-5.5,12.6-12.9,12.6
		c-6,0,4.1-17.4,10.5-29.5c3.4-6.4,6-11.1,5.6-11.1c-2.6,0-16.5,9.9-26.6,23.1c-2.3,4.4-4.6,8.6-7,14.4c1.1-0.1,2.4-0.3,3.5-0.3
		c3.8,0,3.3,1.7,3.1,2.1c-1-0.4-9.7-0.5-16.2,1.9c-0.5,0-0.8-0.4-0.6-0.6c0.5-0.6,3.9-1.9,7.9-2.7c7.3-18.5,31.6-60.8,38.8-60.8
		c5.2,0-4,13.6-18.9,27.9c-2.4,4.1-5.1,8-7.5,12.5c9.9-12.1,21.5-19.1,24.1-19.1C264.7,233.5,265.3,234.3,265.3,235.1z M247.8,237.4
		c12.3-11.9,20-24.1,18-24.1C263.8,213.3,255.6,224.6,247.8,237.4z"/>
	<path fill="#FBE8E2" d="M275.5,257.9c7,0,21.1-22.6,15.2-22.6c-10.8,0-31.6,40.2-22,40.2c7.9,0,19.2-17,21.1-20.7
		c5,0-10.1,21.9-21,21.9c-7,0-4.6-12.3,1.3-23.2c5.3-9.9,13.6-19.2,20.6-19.2c9.8,0-4.8,25.1-15.2,25.1c-2.7,0-2.9-3.2-1.8-3.7
		C273.8,257.1,274.7,257.9,275.5,257.9z"/>
	<path fill="#FBE8E2" d="M325.1,257.9c7,0,21.1-22.6,15.2-22.6c-10.8,0-31.6,40.2-22,40.2c7.9,0,19.2-17,21.1-20.7
		c5,0-10.1,21.9-21,21.9c-7,0-4.6-12.3,1.3-23.2c5.3-9.9,13.6-19.2,20.6-19.2c9.8,0-4.8,25.1-15.2,25.1c-2.7,0-2.9-3.2-1.8-3.7
		C323.4,257.1,324.4,257.9,325.1,257.9z"/>
	<path fill="#FBE8E2" d="M376.7,237.8c-5.5,11.8-31,63.2-40,63.2c-8.2,0,2.2-19.5,18.7-27.1c2.2-3.8,4.8-8.6,7.2-13.4
		c-3.7,6.1-14.7,15.3-19,15.3c-3.9,0-1.3-12.4,4.3-22.1c6.1-10.9,14.8-19.2,19.9-19.2c4.2,0,2.9,8.3,1,14.2
		c3.7-7.4,6.4-13.1,6.8-13.7C376.4,234.4,377.1,236.7,376.7,237.8z M354.7,275.3c-15.1,8.6-22.7,24.8-18.2,24.8
		C341,300.1,354.5,275.7,354.7,275.3z M363.7,258.3l2.2-4.2h-0.1c2-3.1,5.7-18.6,1.8-18.6c-3.5,0-11.3,9-17.4,19.6
		c-4.8,8.5-8.1,19.5-5.9,19.5C346.3,274.6,357.2,266.3,363.7,258.3z"/>
	<path fill="#FBE8E2" d="M406.3,237.8c-5.5,11.8-31,63.2-40,63.2c-8.2,0,2.2-19.5,18.7-27.1c2.2-3.8,4.8-8.6,7.2-13.4
		c-3.7,6.1-14.7,15.3-19,15.3c-3.9,0-1.3-12.4,4.3-22.1c6.1-10.9,14.8-19.2,19.9-19.2c4.2,0,2.9,8.3,1,14.2
		c3.7-7.4,6.4-13.1,6.8-13.7C405.9,234.4,406.7,236.7,406.3,237.8z M384.3,275.3c-15.1,8.6-22.7,24.8-18.2,24.8
		C370.5,300.1,384.1,275.7,384.3,275.3z M393.3,258.3l2.2-4.2h-0.1c2-3.1,5.7-18.6,1.8-18.6c-3.5,0-11.3,9-17.4,19.6
		c-4.8,8.5-8.1,19.5-5.9,19.5C375.8,274.6,386.8,266.3,393.3,258.3z"/>
	<path fill="#FBE8E2" d="M437.7,276.8c-6,0-0.3-16.9,4-26.3c-7,7.8-13.3,14.5-18.5,23.5c1.4-0.2,3-0.4,4.3-0.4
		c3.8,0,3.4,1.7,3.2,2.1c-1.2-0.7-10.1-0.4-15.3,1.4c-0.4,0-0.8-0.5-0.5-0.7c0.4-0.5,3.4-1.4,5.2-1.8c7.3-20.6,21-40.1,21-40.1
		c1.2-1.3,1.9,0.7,1.8,2.1c-5,6.1-14.9,23.2-21.2,37.8c0,0.2,0.2-0.1,0.3-0.3c5.4-10.5,16-21.2,22.2-28.3c1.4-1.6,3.3-1.6,3.3-0.6
		c-4,4.3-14.5,30.6-9.5,30.6c3,0,14.2-12.8,21.3-28.1c-2.1-8,1.1-21,5.1-21c3.3,0,1,10.8-3.2,20.7c0.4,3.3,2.4,5.8,4.1,5.8
		c0.4,0.8-3.4,2-5.2-3.4C454.2,262.3,443.2,276.8,437.7,276.8z M460.6,245c3.6-9.3,5.1-17.4,3.5-17.4
		C462.3,227.5,459.6,238,460.6,245z"/>
	<path fill="#FBE8E2" d="M498.1,235.1c0,4.4-22.6,39.5-18.3,39.5c2.2,0,7.9-3.8,12.7-11.4c3.6,0-5.5,12.6-12.9,12.6
		c-6,0,4.1-17.4,10.5-29.5c3.4-6.4,6-11.1,5.6-11.1c-2.6,0-16.5,9.9-26.6,23.1c-2.3,4.4-4.6,8.6-7,14.4c1.1-0.1,2.4-0.3,3.5-0.3
		c3.8,0,3.3,1.7,3.1,2.1c-1-0.4-9.7-0.5-16.2,1.9c-0.5,0-0.8-0.4-0.6-0.6c0.5-0.6,3.9-1.9,7.9-2.7c7.3-18.5,31.6-60.8,38.8-60.8
		c5.2,0-4,13.6-18.9,27.9c-2.4,4.1-5.1,8-7.5,12.5c9.9-12.1,21.5-19.1,24.1-19.1C497.5,233.5,498.1,234.3,498.1,235.1z M480.6,237.4
		c12.3-11.9,20-24.1,18-24.1C496.6,213.3,488.4,224.6,480.6,237.4z"/>
	<path fill="#FBE8E2" d="M517.1,237.6c-0.5,1.1-8.1,13.1-12.1,20.4c-5.1,9.2-8.7,16.8-6.9,16.8c2.5,0,13-8.9,16.7-15.6
		c4.4,0.3-9.7,16.7-16.9,16.7c-4.3,0,0.4-10.2,6-20.8c4-7.7,11.3-18.4,12-20.3C516.8,234.3,517.7,236.6,517.1,237.6z M520.2,226.6
		c0-1.6,1.4-3.5,3.2-3.5c1.2,0,1.6,0.8,1.6,1.9c0,1.6-1.6,3.7-3.1,3.7C520.9,228.7,520.2,227.9,520.2,226.6z"/>
	<path fill="#FBE8E2" d="M519.5,275.8c-3.7,0,0.4-11.9,9-28.2c4.3-8.1,6.3-11.3,10.2-16.7c-1.7,0.1-7.1,0.2-9.3,0.4
		c-1,0-0.1-1.2,0.5-1.3c1.8-0.3,5.5-0.4,9.9-0.7c3.9-5.2,7.4-8.2,9.2-8.2c2.3,0,1.4,3.2-1.6,7.7c2.3-0.1,6.7-0.3,8.1-0.3
		c2.6,0,1.8,1.6,1.5,1.7c-4.5,0.1-8.3,0.3-10.5,0.4c-4.5,6.2-8.1,10.4-15.6,17.7c-0.6,1.2-1.3,2.3-2,3.5
		c-5.6,10.1-10.9,22.9-8.9,22.9c4.2,0,19.9-15.1,24.1-23.8C549.3,251,529.7,275.8,519.5,275.8z M531.4,246.6
		c6.5-6.9,10.1-10.7,13.9-16c-0.4,0-2.7,0.1-3.7,0.2C538.5,235.4,536,238.6,531.4,246.6z M542.7,229.1l3.6-0.2c2.6-4,3.8-6.9,3-6.9
		C548.3,222,545.8,224.8,542.7,229.1z"/>
	<path fill="#FBE8E2" d="M555.9,257.9c7,0,21.1-22.6,15.2-22.6c-10.8,0-31.6,40.2-22,40.2c7.9,0,19.2-17,21.1-20.7
		c5,0-10.1,21.9-21,21.9c-7,0-4.6-12.3,1.3-23.2c5.3-9.9,13.6-19.2,20.6-19.2c9.8,0-4.8,25.1-15.2,25.1c-2.7,0-2.9-3.2-1.8-3.7
		C554.2,257.1,555.2,257.9,555.9,257.9z"/>
	<path fill="#FBE8E2" d="M602.1,240.3c0,4.4-4.3,9.4-8.8,9.4c-1.3,0-2.1-1-2.1-1.8c0-1.1,0.7-2,2-2s1.9,1.8,0.7,2.7
		c3.5-0.6,6-5.1,6-8.5c0-2.9-1.6-5.5-5.1-5.5c-5,0-9.3,4.3-8.3,12.4c0.4,4,2.2,10.2,2.3,14c0.3,8-3.7,15.6-11.6,15.6
		c-4,0-7.9-3.1-7.9-8.3c0-7.5,6.8-13.2,11.4-13.2c1.1,0,2,0.4,2,0.8c0,0.1-0.1,0.1-0.1,0.2c-4.5,0-11.2,5.3-11.2,12.5
		c0,4.8,3,6.8,5.7,6.8c6.4,0,9.7-7,9.3-14.6c-0.2-3.8-1.7-9.2-2.1-13.3c-0.8-7.7,3.2-14,11-14C600,233.6,602.1,236.9,602.1,240.3z"
		/>
	<path fill="#FBE8E2" d="M639.7,237.6c-0.5,1.1-8.1,13.1-12.1,20.4c-5.1,9.2-8.7,16.8-6.9,16.8c2.5,0,13-8.9,16.7-15.6
		c4.4,0.3-9.7,16.7-16.9,16.7c-4.3,0,0.4-10.2,6-20.8c4-7.7,11.3-18.4,12-20.3C639.5,234.3,640.3,236.6,639.7,237.6z M642.9,226.6
		c0-1.6,1.4-3.5,3.2-3.5c1.2,0,1.6,0.8,1.6,1.9c0,1.6-1.6,3.7-3.1,3.7C643.5,228.7,642.9,227.9,642.9,226.6z"/>
	<path fill="#FBE8E2" d="M659.1,276.8c-5.4,0,4.5-18.9,10.7-31.1c3.3-6.4,5.1-10.1,4.8-10.1c-2.4,0-18.1,13.4-28.5,29
		c-1.7,3.3-3.2,6.3-4.3,9c1.2-0.1,3.1-0.4,5.7-0.4c2.9,0,2.6,1.8,2.3,2.2c-1-0.4-9.6-0.8-16.2,1.6c-0.4,0-0.7-0.4-0.5-0.6
		c0.6-0.6,3.7-1.8,6.5-2.3c8.9-22.3,22-41.9,22.3-42.3c1.6-1.3,1.8,2.2,1.8,2.2c-3.5,4.8-9.2,14.5-14.3,24
		c11.1-14.6,22.8-24.2,25.7-24.2c1.3,0,1.9,0.7,1.9,1.7c0,4.3-22,40.2-17.6,40.2c2.2,0,8.2-3.9,12.7-11.4
		C675.7,264.3,667,276.8,659.1,276.8z"/>
	<path fill="#FBE8E2" d="M678.4,275.8c-3.7,0,0.4-11.9,9-28.2c4.3-8.1,6.3-11.3,10.2-16.7c-1.7,0.1-7.1,0.2-9.3,0.4
		c-1,0-0.1-1.2,0.5-1.3c1.8-0.3,5.5-0.4,9.9-0.7c3.9-5.2,7.4-8.2,9.2-8.2c2.3,0,1.4,3.2-1.6,7.7c2.3-0.1,6.7-0.3,8.1-0.3
		c2.6,0,1.8,1.6,1.5,1.7c-4.5,0.1-8.3,0.3-10.5,0.4c-4.5,6.2-8.1,10.4-15.6,17.7c-0.6,1.2-1.3,2.3-2,3.5
		c-5.6,10.1-10.9,22.9-8.9,22.9c4.2,0,19.9-15.1,24.1-23.8C708.2,251,688.7,275.8,678.4,275.8z M690.4,246.6
		c6.5-6.9,10.1-10.7,13.9-16c-0.4,0-2.7,0.1-3.7,0.2C697.5,235.4,694.9,238.6,690.4,246.6z M701.7,229.1l3.6-0.2
		c2.6-4,3.8-6.9,3-6.9C707.3,222,704.8,224.8,701.7,229.1z"/>
	<path fill="#FBE8E2" d="M709.1,275.9c-13.1,0,6.9-42,22.1-42C744.7,233.9,724,275.9,709.1,275.9z M731.4,235
		c-11,0-31.9,39.7-22.1,39.7C719.9,274.8,741.3,235,731.4,235z"/>
	<path fill="#FBE8E2" d="M785.3,240.3c0,4.4-4.3,9.4-8.8,9.4c-1.3,0-2.1-1-2.1-1.8c0-1.1,0.7-2,2-2s1.9,1.8,0.7,2.7
		c3.5-0.6,6-5.1,6-8.5c0-2.9-1.6-5.5-5.1-5.5c-5,0-9.3,4.3-8.3,12.4c0.4,4,2.2,10.2,2.3,14c0.3,8-3.7,15.6-11.6,15.6
		c-4,0-7.9-3.1-7.9-8.3c0-7.5,6.8-13.2,11.4-13.2c1.1,0,2,0.4,2,0.8c0,0.1-0.1,0.1-0.1,0.2c-4.5,0-11.2,5.3-11.2,12.5
		c0,4.8,3,6.8,5.7,6.8c6.4,0,9.7-7,9.3-14.6c-0.2-3.8-1.7-9.2-2.1-13.3c-0.8-7.7,3.2-14,11-14C783.2,233.6,785.3,236.9,785.3,240.3z
		"/>
	<path fill="#FBE8E2" d="M782.1,275.8c-3.7,0,0.4-11.9,9-28.2c4.3-8.1,6.3-11.3,10.2-16.7c-1.7,0.1-7.1,0.2-9.3,0.4
		c-1,0-0.1-1.2,0.5-1.3c1.8-0.3,5.5-0.4,9.9-0.7c3.9-5.2,7.4-8.2,9.2-8.2c2.3,0,1.4,3.2-1.6,7.7c2.3-0.1,6.7-0.3,8.1-0.3
		c2.6,0,1.8,1.6,1.5,1.7c-4.5,0.1-8.3,0.3-10.5,0.4c-4.5,6.2-8.1,10.4-15.6,17.7c-0.6,1.2-1.3,2.3-2,3.5
		c-5.6,10.1-10.9,22.9-8.9,22.9c4.2,0,19.9-15.1,24.1-23.8C811.9,251,792.3,275.8,782.1,275.8z M794,246.6
		c6.5-6.9,10.1-10.7,13.9-16c-0.4,0-2.7,0.1-3.7,0.2C801.1,235.4,798.5,238.6,794,246.6z M805.3,229.1l3.6-0.2c2.6-4,3.8-6.9,3-6.9
		C810.9,222,808.4,224.8,805.3,229.1z"/>
	<path fill="#FBE8E2" d="M827.3,237.6c-0.5,1.1-8.1,13.1-12.1,20.4c-5.1,9.2-8.7,16.8-6.9,16.8c2.5,0,13-8.9,16.7-15.6
		c4.4,0.3-9.7,16.7-16.9,16.7c-4.3,0,0.4-10.2,6-20.8c4-7.7,11.3-18.4,12-20.3C827.1,234.3,827.9,236.6,827.3,237.6z M830.4,226.6
		c0-1.6,1.4-3.5,3.2-3.5c1.2,0,1.6,0.8,1.6,1.9c0,1.6-1.6,3.7-3.1,3.7C831.1,228.7,830.4,227.9,830.4,226.6z"/>
	<path fill="#FBE8E2" d="M862,242.6c-2.4-0.6-7.5,0-13,1.8c1,16.6-19.9,51.6-25.9,51.6c-11,0,32.5-83.6,41.4-83.6
		c6.3,0-8.8,22.6-18.9,29.7c-10.9,18.3-25.8,52.8-22.6,52.8c3.9,0,23.8-32.5,25-50.3c-0.6,0.3-1.4,0.5-2.1,0.8c-0.4,0-0.4-0.5,0.4-1
		c2.7-1.6,8.7-3.7,12.6-3.7S862.3,242.3,862,242.6z M846.4,240.7c15.2-14.6,20.2-27.5,18-27.5C862.7,213.3,850.4,232.5,846.4,240.7z
		"/>
	<path fill="#FBE8E2" d="M888.8,242.6c-2.4-0.6-7.5,0-13,1.8c1,16.6-19.9,51.6-25.9,51.6c-11,0,32.5-83.6,41.4-83.6
		c6.3,0-8.8,22.6-18.9,29.7c-10.9,18.3-25.8,52.8-22.6,52.8c3.9,0,23.8-32.5,25-50.3c-0.6,0.3-1.4,0.5-2.1,0.8c-0.4,0-0.4-0.5,0.4-1
		c2.7-1.6,8.7-3.7,12.6-3.7S889.1,242.3,888.8,242.6z M873.1,240.7c15.2-14.6,20.2-27.5,18-27.5
		C889.4,213.3,877.1,232.5,873.1,240.7z"/>
	<path fill="#FBE8E2" d="M930.7,259.8c-4.9,8.1-13.8,16.1-17.9,16.1c-6.7,0,3.1-17.6,13-22.1c1.7-0.6,2.4-0.5,2.5-0.1
		c-10.4,3.8-19.2,20.9-16.1,20.9c3,0,10.8-7.2,16.5-17c6.1-10.5,8.1-21.9,5.1-21.9c-4.2,0-13.8,10.1-18.4,17.2
		c-8.7,15.8-19.5,37.4-23.8,47.9c-0.6,1.2-2.3,1.2-1.9,0.4c11.5-30.5,31.4-63.4,32-64.4c1.4-1.9,4.4-2.2,3.9-0.6
		c-1.6,1.8-3.8,5.4-6.5,10.1c5.2-6.2,11.6-11.7,14.9-11.7C939.3,234.5,938.1,247.6,930.7,259.8z"/>
	<path fill="#FBE8E2" d="M944.8,257.9c7,0,21.1-22.6,15.2-22.6c-10.8,0-31.6,40.2-22,40.2c7.9,0,19.2-17,21.1-20.7
		c5,0-10.1,21.9-21,21.9c-7,0-4.6-12.3,1.3-23.2c5.3-9.9,13.6-19.2,20.6-19.2c9.8,0-4.8,25.1-15.2,25.1c-2.7,0-2.9-3.2-1.8-3.7
		C943.2,257.1,944.1,257.9,944.8,257.9z"/>
	<path fill="#FBE8E2" d="M976.8,276.2c-2.6,0-1.3-5.9,1.7-12.9c-3.2,4.8-11.6,13-15.8,13c-5.1,0-1.3-13.8,4.2-23.6
		c6.2-10.9,14.6-19,19.6-19c4,0,2.4,7.7,0.2,13.6c4.6-7.6,9.4-13.6,12-13.6c5.2,0-4.9,14.3-15.3,24.6c-4.2,8.9-7.5,16.9-5.9,16.6
		c3.3-0.4,13.2-9.8,17.5-15.8C998.8,259.1,984.5,276.2,976.8,276.2z M979.7,260.7c1.5-3.1,2.5-5.9,4.3-9.2
		c2.3-5.7,5.2-16.7,2.4-16.7c-3.6,0-11.3,9-17.3,19.5c-5,8.6-8.2,20.7-6,20.7C965.1,275.1,972.4,269.4,979.7,260.7z M985,255.3
		c8.9-9.5,16.1-20.5,13.8-20.5C997.3,234.8,990.1,245.2,985,255.3z"/>
	<path fill="#FBE8E2" d="M1035.5,237.4c-1.2,0-1.2-1.4-1-1.8c-5.3,1.2-16.9,10.1-24.9,19.6c4.1-3.8,9.7-7.3,11.7-7.3
		c5.1,0-10.8,26.6-7.9,26.6c3.2,0,13.3-10.2,16.5-16.7c5,0-10.4,17.9-16.6,17.9c-6.9,0,9.2-26.2,7.2-26.2c-1.5,0-12.5,7.6-16.7,12.5
		c-2.3,4.2-4.6,9.1-6.5,13.1c-0.5,1.3-2.4,1.2-2.2,0.5c13.4-31.4,33.4-60.5,36-63.1c1-0.6,1.4,1.3,1.5,2.4c-5,5.9-17,24.5-27.1,43.1
		c-0.2,0.3-0.4,0.8-0.2,0.7c9.6-12.7,24.3-25,31.3-25C1038.7,233.8,1037.6,237.4,1035.5,237.4z"/>
	<path fill="#FBE8E2" d="M1062.8,240.3c0,4.4-4.3,9.4-8.8,9.4c-1.3,0-2.1-1-2.1-1.8c0-1.1,0.7-2,2-2s1.9,1.8,0.7,2.7
		c3.5-0.6,6-5.1,6-8.5c0-2.9-1.6-5.5-5.1-5.5c-5,0-9.3,4.3-8.3,12.4c0.4,4,2.2,10.2,2.3,14c0.3,8-3.7,15.6-11.6,15.6
		c-4,0-7.9-3.1-7.9-8.3c0-7.5,6.8-13.2,11.4-13.2c1.1,0,2,0.4,2,0.8c0,0.1-0.1,0.1-0.1,0.2c-4.5,0-11.2,5.3-11.2,12.5
		c0,4.8,3,6.8,5.7,6.8c6.4,0,9.7-7,9.3-14.6c-0.2-3.8-1.7-9.2-2.1-13.3c-0.8-7.7,3.2-14,11-14
		C1060.7,233.6,1062.8,236.9,1062.8,240.3z"/>
	<path fill="#FBE8E2" d="M1055.6,275.8c-1,0-0.5-1.4,0.4-3.2c0.6-1.1,1.4-1.4,2-1.4C1060.3,271.3,1057.4,275.8,1055.6,275.8z"/>
	<path fill="#FBE8E2" d="M232.9,350.7c-3.8,10.8-2.5,20.4,6.4,20.4c3.8,0,7.5-1.3,10.7-3.2c5.3-9.8,10-17.6,13.3-17.6
		c3.8,0-1.4,10.6-10.6,17c-8.5,16.6-20.1,39.8-29.8,39.8c-3.9,0-7.2-2.9-7.2-8.8c0-9.2,9.1-19.6,18.4-19.6c3.1,0,3.5,2.2,2.9,2.2
		c-0.2-0.5-1-1.1-2.5-1.1c-7.9,0-17,11-17,19.4c0,5.1,2.7,7.1,5.3,7.1c7.6,0,17.7-20.6,26.4-36.9c-3.2,1.7-6.8,2.7-10.5,2.7
		c-10.1,0-12.1-10.6-8.3-22.3c-6.1-1.9-9.4-5.6-9.4-10.5c0-7.5,9.7-11.8,15.7-11.8c2.7,0,5.2,0.4,7.3,1.1c6.4-6,14.6-10.2,23.9-10.2
		c5.5,0,9.9,2.6,9.9,7.5c0,9.4-14.8,25.6-35.5,25.6C238.8,351.5,235.7,351.2,232.9,350.7z M230.7,349c2.4-6.8,6.7-13.8,12.4-19.4
		c-1.9-0.5-4-0.8-6.3-0.8c-5.6,0-14.8,3.9-14.8,10.7C221.9,343.7,224.9,347.1,230.7,349z M246.5,329.6c4.9,2.1,7.5,5.5,7.5,7.2
		c0,0.6-0.5,1.1-1.3,1.1c-0.1-2.1-2.5-5.4-7.1-7.3c-5.6,5.5-9.9,12.6-12.4,19.1c2.5,0.5,5.4,0.8,8.8,0.8c18.4,0,33.6-16.1,33.6-24.6
		c0-5.2-3.2-6.1-7.4-6.1C260.2,319.8,252.7,323.8,246.5,329.6z M253.8,365.4c7.4-5.9,11.6-14.4,9.4-14.4
		C261.4,351,258.1,357.1,253.8,365.4z"/>
	<path fill="#FBE8E2" d="M274.6,363.5c7,0,21.1-22.6,15.2-22.6c-10.8,0-31.6,40.2-22,40.2c7.9,0,19.2-17,21.1-20.7
		c5,0-10.1,21.9-21,21.9c-7,0-4.6-12.3,1.3-23.2c5.3-9.9,13.6-19.2,20.6-19.2c9.8,0-4.8,25.1-15.2,25.1c-2.7,0-2.9-3.2-1.8-3.7
		C272.9,362.7,273.9,363.5,274.6,363.5z"/>
	<path fill="#FBE8E2" d="M309.2,382.4c-5.4,0,4.5-18.9,10.7-31.1c3.3-6.4,5.1-10.1,4.8-10.1c-2.4,0-18.1,13.4-28.5,29
		c-1.7,3.3-3.2,6.3-4.3,9c1.2-0.1,3.1-0.4,5.7-0.4c2.9,0,2.6,1.8,2.3,2.2c-1-0.4-9.6-0.8-16.2,1.6c-0.4,0-0.7-0.4-0.5-0.6
		c0.6-0.6,3.7-1.8,6.5-2.3c8.9-22.3,22-41.9,22.3-42.3c1.6-1.3,1.8,2.2,1.8,2.2c-3.5,4.8-9.2,14.5-14.3,24
		c11.1-14.6,22.8-24.2,25.7-24.2c1.3,0,1.9,0.7,1.9,1.7c0,4.3-22,40.2-17.6,40.2c2.2,0,8.2-3.9,12.7-11.4
		C325.8,369.9,317.1,382.4,309.2,382.4z"/>
	<path fill="#FBE8E2" d="M328.5,381.4c-3.7,0,0.4-11.9,9-28.2c4.3-8.1,6.3-11.3,10.2-16.7c-1.7,0.1-7.1,0.2-9.3,0.4
		c-1,0-0.1-1.2,0.5-1.3c1.8-0.3,5.5-0.4,9.9-0.7c3.9-5.2,7.4-8.2,9.2-8.2c2.3,0,1.4,3.2-1.6,7.7c2.3-0.1,6.7-0.3,8.1-0.3
		c2.6,0,1.8,1.6,1.5,1.7c-4.5,0.1-8.3,0.3-10.5,0.4c-4.5,6.2-8.1,10.4-15.6,17.7c-0.6,1.2-1.3,2.3-2,3.5
		c-5.6,10.1-10.9,22.9-8.9,22.9c4.2,0,19.9-15.1,24.1-23.8C358.3,356.6,338.8,381.4,328.5,381.4z M340.4,352.2
		c6.5-6.9,10.1-10.7,13.9-16c-0.4,0-2.7,0.1-3.7,0.2C347.5,341,345,344.3,340.4,352.2z M351.7,334.8l3.6-0.2c2.6-4,3.8-6.9,3-6.9
		C357.3,327.7,354.8,330.4,351.7,334.8z"/>
	<path fill="#FBE8E2" d="M353.6,381.5c-4.3,0-0.1-10,5.8-21.2c11.2-21.3,25.6-42.3,29.8-42.3c5.4,0-6.9,18.7-21.3,32.5
		c-4.2,6.3-17.6,29.9-14,29.9c4.6,0,18.2-13.5,25.7-24.9C384.6,355.6,363.5,381.5,353.6,381.5z M369.3,347.5
		c13.1-13.1,22.1-28.4,20-28.4C387.3,319.1,378.3,332.5,369.3,347.5z"/>
	<path fill="#FBE8E2" d="M412.7,342.4c-1.4,4.1-17.1,34.9-24.7,45.8c-8.2,11.5-14.6,19-21.8,19c-12.7,0-3.1-22.4,8.8-22.4
		c2.6,0,1.4,3.7-1,3.7c-1.5,0-1.4-2-0.3-2.9c-10.6,3.9-16.4,20.7-7.7,20.7c5.1,0,12.4-7.1,20.4-19.2c5.4-8.5,13.2-22.6,13.8-24.3
		c-2.9,3.9-15.1,18.6-21.8,18.6c-7.4,0,15.4-33.1,16.4-41.3c8.8-1.7-19.9,40.2-15.8,40.2c3.8,0,19-16.1,22.7-20.8
		c4.5-9.1,8.7-19.5,9.6-19.5C412,340,412.6,340.9,412.7,342.4z"/>
	<path fill="#FBE8E2" d="M460.2,345.9c0,4.4-4.3,9.4-8.8,9.4c-1.3,0-2.1-1-2.1-1.8c0-1.1,0.7-2,2-2s1.9,1.8,0.7,2.7
		c3.5-0.6,6-5.1,6-8.5c0-2.9-1.6-5.5-5.1-5.5c-5,0-9.3,4.3-8.3,12.4c0.4,4,2.2,10.2,2.3,14c0.3,8-3.7,15.6-11.6,15.6
		c-4,0-7.9-3.1-7.9-8.3c0-7.5,6.8-13.2,11.4-13.2c1.1,0,2,0.4,2,0.8c0,0.1-0.1,0.1-0.1,0.2c-4.5,0-11.2,5.3-11.2,12.5
		c0,4.8,3,6.8,5.7,6.8c6.4,0,9.7-7,9.3-14.6c-0.2-3.8-1.7-9.2-2.1-13.3c-0.8-7.7,3.2-14,11-14C458.1,339.2,460.2,342.6,460.2,345.9z
		"/>
	<path fill="#FBE8E2" d="M456.9,381.4c-3.7,0,0.4-11.9,9-28.2c4.3-8.1,6.3-11.3,10.2-16.7c-1.7,0.1-7.1,0.2-9.3,0.4
		c-1,0-0.1-1.2,0.5-1.3c1.8-0.3,5.5-0.4,9.9-0.7c3.9-5.2,7.4-8.2,9.2-8.2c2.3,0,1.4,3.2-1.6,7.7c2.3-0.1,6.7-0.3,8.1-0.3
		c2.6,0,1.8,1.6,1.5,1.7c-4.5,0.1-8.3,0.3-10.5,0.4c-4.5,6.2-8.1,10.4-15.6,17.7c-0.6,1.2-1.3,2.3-2,3.5
		c-5.6,10.1-10.9,22.9-8.9,22.9c4.2,0,19.9-15.1,24.1-23.8C486.7,356.6,467.2,381.4,456.9,381.4z M468.9,352.2
		c6.5-6.9,10.1-10.7,13.9-16c-0.4,0-2.7,0.1-3.7,0.2C476,341,473.4,344.3,468.9,352.2z M480.2,334.8l3.6-0.2c2.6-4,3.8-6.9,3-6.9
		C485.8,327.7,483.3,330.4,480.2,334.8z"/>
	<path fill="#FBE8E2" d="M502.2,343.2c-0.5,1.1-8.1,13.1-12.1,20.4c-5.1,9.2-8.7,16.8-6.9,16.8c2.5,0,13-8.9,16.7-15.6
		c4.4,0.3-9.7,16.7-16.9,16.7c-4.3,0,0.4-10.2,6-20.8c4-7.7,11.3-18.4,12-20.3C501.9,339.9,502.8,342.3,502.2,343.2z M505.3,332.2
		c0-1.6,1.4-3.5,3.2-3.5c1.2,0,1.6,0.8,1.6,1.9c0,1.6-1.6,3.7-3.1,3.7C506,334.3,505.3,333.5,505.3,332.2z"/>
	<path fill="#FBE8E2" d="M524.7,362.3c-3.3,0-2.7-7.7-2-9.9c-5.4,4.8-10.7,11-15.7,19c-1.3,2.6-2.1,4.3-3.2,7.1
		c1.7-0.3,3.6-0.5,5.4-0.5c3.8,0,3.3,1.7,3.1,2.1c-1.9-0.7-10.2-0.2-16.2,1.5c-0.4,0-0.7-0.4-0.5-0.6c0.3-0.5,3-1.3,6.3-2
		c5.7-18.1,17.2-35.6,18.2-37.2c1.6-1.9,4.1-1.4,3.4-0.2c-4.4,5.6-9.8,15.2-14.3,24.7c4.4-7.1,10.7-12.8,14.2-16.3
		c3-9.6,9.3-17.4,13.2-17.4c4,0-0.6,8.3-11.1,18c-1.4,3.2-2.2,10.8-0.6,10.8c1.8,0,5.1-5,6.5-7.5C534,354.1,527.9,362.3,524.7,362.3
		z M525.8,348.4c7.5-7.2,12.6-14.8,10.7-14.8C534.9,333.6,529.6,339,525.8,348.4z"/>
	<path fill="#FBE8E2" d="M572.9,343.2c-0.5,1.1-8.1,13.1-12.1,20.4c-5.1,9.2-8.7,16.8-6.9,16.8c2.5,0,13-8.9,16.7-15.6
		c4.4,0.3-9.7,16.7-16.9,16.7c-4.3,0,0.4-10.2,6-20.8c4-7.7,11.3-18.4,12-20.3C572.7,339.9,573.6,342.3,572.9,343.2z M576.1,332.2
		c0-1.6,1.4-3.5,3.2-3.5c1.2,0,1.6,0.8,1.6,1.9c0,1.6-1.6,3.7-3.1,3.7C576.7,334.3,576.1,333.5,576.1,332.2z"/>
	<path fill="#FBE8E2" d="M592.4,382.4c-5.4,0,4.5-18.9,10.7-31.1c3.3-6.4,5.1-10.1,4.8-10.1c-2.4,0-18.1,13.4-28.5,29
		c-1.7,3.3-3.2,6.3-4.3,9c1.2-0.1,3.1-0.4,5.7-0.4c2.9,0,2.6,1.8,2.3,2.2c-1-0.4-9.6-0.8-16.2,1.6c-0.4,0-0.7-0.4-0.5-0.6
		c0.6-0.6,3.7-1.8,6.5-2.3c8.9-22.3,22-41.9,22.3-42.3c1.6-1.3,1.8,2.2,1.8,2.2c-3.5,4.8-9.2,14.5-14.3,24
		c11.1-14.6,22.8-24.2,25.7-24.2c1.3,0,1.9,0.7,1.9,1.7c0,4.3-22,40.2-17.6,40.2c2.2,0,8.2-3.9,12.7-11.4
		C608.9,369.9,600.3,382.4,592.4,382.4z"/>
	<path fill="#FBE8E2" d="M611.7,381.4c-3.7,0,0.4-11.9,9-28.2c4.3-8.1,6.3-11.3,10.2-16.7c-1.7,0.1-7.1,0.2-9.3,0.4
		c-1,0-0.1-1.2,0.5-1.3c1.8-0.3,5.5-0.4,9.9-0.7c3.9-5.2,7.4-8.2,9.2-8.2c2.3,0,1.4,3.2-1.6,7.7c2.3-0.1,6.7-0.3,8.1-0.3
		c2.6,0,1.8,1.6,1.5,1.7c-4.5,0.1-8.3,0.3-10.5,0.4c-4.5,6.2-8.1,10.4-15.6,17.7c-0.6,1.2-1.3,2.3-2,3.5
		c-5.6,10.1-10.9,22.9-8.9,22.9c4.2,0,19.9-15.1,24.1-23.8C641.5,356.6,621.9,381.4,611.7,381.4z M623.6,352.2
		c6.5-6.9,10.1-10.7,13.9-16c-0.4,0-2.7,0.1-3.7,0.2C630.7,341,628.2,344.3,623.6,352.2z M634.9,334.8l3.6-0.2c2.6-4,3.8-6.9,3-6.9
		C640.5,327.7,638,330.4,634.9,334.8z"/>
	<path fill="#FBE8E2" d="M642.3,381.5c-13.1,0,6.9-42,22.1-42C677.9,339.5,657.2,381.5,642.3,381.5z M664.6,340.7
		c-11,0-31.9,39.7-22.1,39.7C653.1,380.4,674.5,340.7,664.6,340.7z"/>
	<path fill="#FBE8E2" d="M724.6,318.1c4.3,0-2.2,12.9-18.1,28.5l-8,14c-5.3,9.4-8.9,19.8-5.6,19.8c6.8,0,20.8-17.2,24.2-26.4
		c-2.5-1.1-4.4-2.9-4.4-5.1c0-3.9,4.6-10.4,8-10.4c2.5,0,2,7.4-0.5,14.2c2.3,0.6,6.9-0.6,9.2-2.5c1,1.3-3.4,4.6-9.9,4.1
		c-2.3,6.7-15.2,27.1-26.6,27.1c-5.8,0-1.6-13,5.1-25.2C709.6,334.5,721,318.1,724.6,318.1z M708.8,342.7
		c11.6-12.4,17.5-22.9,15.8-22.9C722.9,319.8,716.7,329,708.8,342.7z M717.8,352.2c2.1-4.5,3.5-12.3,2.3-12.3c-1.6,0-5.8,5-5.8,8.9
		C714.4,350.2,715.9,351.9,717.8,352.2z"/>
	<path fill="#FBE8E2" d="M738.3,381.9c-2.6,0-1.3-5.9,1.7-12.9c-3.2,4.8-11.6,13-15.8,13c-5.1,0-1.3-13.8,4.2-23.6
		c6.2-10.9,14.6-19,19.6-19c4,0,2.4,7.7,0.2,13.6c4.6-7.6,9.4-13.6,12-13.6c5.2,0-4.9,14.3-15.3,24.6c-4.2,8.9-7.5,16.9-5.9,16.6
		c3.3-0.4,13.2-9.8,17.5-15.8C760.3,364.8,745.9,381.9,738.3,381.9z M741.2,366.3c1.5-3.1,2.5-5.9,4.3-9.2
		c2.3-5.7,5.2-16.7,2.4-16.7c-3.6,0-11.3,9-17.3,19.5c-5,8.6-8.2,20.7-6,20.7C726.6,380.7,733.9,375,741.2,366.3z M746.5,360.9
		c8.9-9.5,16.1-20.5,13.8-20.5C758.8,340.5,751.5,350.8,746.5,360.9z"/>
	<path fill="#FBE8E2" d="M761.9,381.4c-3.7,0,0.4-11.9,9-28.2c4.3-8.1,6.3-11.3,10.2-16.7c-1.7,0.1-7.1,0.2-9.3,0.4
		c-1,0-0.1-1.2,0.5-1.3c1.8-0.3,5.5-0.4,9.9-0.7c3.9-5.2,7.4-8.2,9.2-8.2c2.3,0,1.4,3.2-1.6,7.7c2.3-0.1,6.7-0.3,8.1-0.3
		c2.6,0,1.8,1.6,1.5,1.7c-4.5,0.1-8.3,0.3-10.5,0.4c-4.5,6.2-8.1,10.4-15.6,17.7c-0.6,1.2-1.3,2.3-2,3.5
		c-5.6,10.1-10.9,22.9-8.9,22.9c4.2,0,19.9-15.1,24.1-23.8C791.7,356.6,772.1,381.4,761.9,381.4z M773.8,352.2
		c6.5-6.9,10.1-10.7,13.9-16c-0.4,0-2.7,0.1-3.7,0.2C780.9,341,778.4,344.3,773.8,352.2z M785.1,334.8l3.6-0.2c2.6-4,3.8-6.9,3-6.9
		C790.7,327.7,788.2,330.4,785.1,334.8z"/>
	<path fill="#FBE8E2" d="M789.5,381.4c-3.7,0,0.4-11.9,9-28.2c4.3-8.1,6.3-11.3,10.2-16.7c-1.7,0.1-7.1,0.2-9.3,0.4
		c-1,0-0.1-1.2,0.5-1.3c1.8-0.3,5.5-0.4,9.9-0.7c3.9-5.2,7.4-8.2,9.2-8.2c2.3,0,1.4,3.2-1.6,7.7c2.3-0.1,6.7-0.3,8.1-0.3
		c2.6,0,1.8,1.6,1.5,1.7c-4.5,0.1-8.3,0.3-10.5,0.4c-4.5,6.2-8.1,10.4-15.6,17.7c-0.6,1.2-1.3,2.3-2,3.5
		c-5.6,10.1-10.9,22.9-8.9,22.9c4.2,0,19.9-15.1,24.1-23.8C819.3,356.6,799.7,381.4,789.5,381.4z M801.4,352.2
		c6.5-6.9,10.1-10.7,13.9-16c-0.4,0-2.7,0.1-3.7,0.2C808.5,341,805.9,344.3,801.4,352.2z M812.7,334.8l3.6-0.2c2.6-4,3.8-6.9,3-6.9
		C818.3,327.7,815.8,330.4,812.7,334.8z"/>
	<path fill="#FBE8E2" d="M825.9,363.5c7,0,21.1-22.6,15.2-22.6c-10.8,0-31.6,40.2-22,40.2c7.9,0,19.2-17,21.1-20.7
		c5,0-10.1,21.9-21,21.9c-7,0-4.6-12.3,1.3-23.2c5.3-9.9,13.6-19.2,20.6-19.2c9.8,0-4.8,25.1-15.2,25.1c-2.7,0-2.9-3.2-1.8-3.7
		C824.2,362.7,825.2,363.5,825.9,363.5z"/>
	<path fill="#FBE8E2" d="M863.5,362.3c-3.3,0-2.7-7.7-2-9.9c-5.4,4.8-10.7,11-15.7,19c-1.3,2.6-2.1,4.3-3.2,7.1
		c1.7-0.3,3.6-0.5,5.4-0.5c3.8,0,3.3,1.7,3.1,2.1c-1.9-0.7-10.2-0.2-16.2,1.5c-0.4,0-0.7-0.4-0.5-0.6c0.3-0.5,3-1.3,6.3-2
		c5.7-18.1,17.2-35.6,18.2-37.2c1.6-1.9,4.1-1.4,3.4-0.2c-4.4,5.6-9.8,15.2-14.3,24.7c4.4-7.1,10.7-12.8,14.2-16.3
		c3-9.6,9.3-17.4,13.2-17.4c4,0-0.6,8.3-11.1,18c-1.4,3.2-2.2,10.8-0.6,10.8c1.8,0,5.1-5,6.5-7.5
		C872.8,354.1,866.8,362.3,863.5,362.3z M864.7,348.4c7.5-7.2,12.6-14.8,10.7-14.8C873.8,333.6,868.5,339,864.7,348.4z"/>
	<path fill="#FBE8E2" d="M867,381.4c-1,0-0.5-1.4,0.4-3.2c0.6-1.1,1.4-1.4,2-1.4C871.6,376.9,868.8,381.4,867,381.4z"/>
</g>
</svg>
