<?xml version="1.0" encoding="UTF-8"?>
<svg xmlns="http://www.w3.org/2000/svg" xmlns:xlink="http://www.w3.org/1999/xlink" version="1.2" >
<font id="Bajaderka">
<font-face  font-family="Bajaderka" units-per-em="1000" ascent="740" descent="-260" font-style="normal" font-weight="400" font-stretch="normal" slope="-30" cap-height="700" x-height="390" underline-position="-75" underline-thickness="50" />
<missing-glyph  horiz-adv-x="250" d="" />
<glyph glyph-name="NULL" d="" />
<glyph glyph-name="CR" unicode="&#xd;" horiz-adv-x="250" d="" />
<glyph glyph-name="space" unicode="&#x20;" horiz-adv-x="220" d="" />
<glyph glyph-name="exclam" unicode="&#x21;" horiz-adv-x="180" d="M302 571 C296 562 157 338 53 140 C46 125 53 114 60 123 C135 247 225 403 318 548 C326 562 310 585 302 571 L302 571 Z M-8 -6 C4 -6 16 10 16 22 C16 30 12 36 4 36 C-10 36 -20 22 -20 10 C-20 0 -16 -6 -8 -6 L-8 -6 Z " />
<glyph glyph-name="numbersign" unicode="&#x23;" horiz-adv-x="240" d="M265 241 C242 243 220 245 199 246 L238 306 C243 314 226 316 215 305 C213 303 197 282 175 247 C154 248 135 248 118 247 L161 317 C167 326 149 327 138 317 C136 314 117 287 94 246 C56 245 31 241 24 241 C11 236 5 225 16 226 C42 228 65 230 85 231 C74 212 62 190 50 167 C27 165 14 163 11 163 C0 162 -12 146 -1 146 L42 151 C33 132 23 112 15 92 C14 89 18 79 22 85 L61 153 C82 154 103 155 126 156 C116 135 107 113 97 89 C96 86 100 76 105 82 C119 109 133 133 146 156 C165 156 187 155 213 154 C221 155 224 162 220 163 C196 166 173 167 153 168 C166 191 179 213 192 234 L258 232 C266 233 269 240 265 241 L265 241 Z M109 233 C129 234 148 234 168 234 C157 216 145 194 132 169 C108 169 88 169 70 168 L109 233 Z " />
<glyph glyph-name="dollar" unicode="&#x24;" horiz-adv-x="428" d="M371 474 C376 484 358 480 352 470 L331 431 C323 432 315 432 306 432 C216 432 168 371 168 326 C168 281 197 254 227 229 L124 30 C83 40 59 69 59 104 C59 151 115 194 172 194 C175 201 169 207 154 207 C95 207 41 158 41 104 C41 67 67 31 118 19 L96 -24 C91 -33 102 -32 107 -24 L129 17 C138 15 149 14 160 14 C252 14 318 68 318 135 C318 180 281 211 247 241 L341 418 C378 410 402 389 402 357 C402 320 370 285 313 285 C309 283 313 271 331 271 C378 271 418 312 418 354 C418 390 394 418 347 428 L371 474 Z M238 250 C212 273 190 296 190 325 C190 367 232 422 305 422 C312 422 319 422 326 421 L238 250 L238 250 Z M296 132 C296 71 233 26 157 26 C149 26 142 27 135 28 L237 221 C267 196 296 172 296 132 L296 132 Z " />
<glyph glyph-name="percent" unicode="&#x25;" horiz-adv-x="400" d="M371 389 C349 370 213 261 48 92 C39 82 53 82 60 87 C191 214 296 304 392 383 C399 390 390 399 371 389 L371 389 Z M169 388 C130 388 99 353 99 316 C99 292 114 273 142 273 C169 273 210 304 210 349 C210 372 196 388 169 388 L169 388 Z M141 284 C125 284 114 293 114 313 C114 347 143 378 167 378 C188 378 194 362 194 348 C194 319 168 284 141 284 L141 284 Z M320 225 C280 225 249 190 249 153 C249 129 265 110 292 110 C320 110 361 141 361 186 C361 209 347 225 320 225 L320 225 Z M292 121 C276 121 264 130 264 150 C264 186 296 215 318 215 C339 215 345 199 345 185 C345 156 319 121 292 121 L292 121 Z " />
<glyph glyph-name="ampersand" unicode="&#x26;" horiz-adv-x="500" d="M244 285 C355 366 474 445 474 504 C474 539 443 573 386 573 C315 573 208 504 208 392 C208 359 211 328 217 298 C121 228 32 152 32 79 C32 32 66 -6 124 -6 C199 -6 265 34 313 84 C346 39 379 9 399 -2 C403 -4 411 -2 409 4 C387 18 357 52 327 99 C367 145 391 197 391 230 C391 278 361 282 359 272 C363 265 370 261 370 233 C370 200 348 157 316 117 C287 165 260 224 244 285 L244 285 Z M227 403 C227 503 325 563 381 563 C426 563 456 542 456 509 C456 459 345 390 237 312 C231 343 227 373 227 403 L227 403 Z M130 6 C81 6 53 33 53 74 C53 135 133 203 224 270 C241 204 270 146 301 101 C253 48 187 6 130 6 L130 6 Z " />
<glyph glyph-name="quotesingle" unicode="&#x27;" horiz-adv-x="80" d="M244 580 C248 582 257 578 255 565 C250 531 167 431 151 431 C148 431 146 433 146 434 C180 469 228 538 244 580 L244 580 Z " />
<glyph glyph-name="parenleft" unicode="&#x28;" horiz-adv-x="150" d="M444 671 C267 671 -12 369 -12 64 C-12 -35 38 -92 72 -98 C75 -101 72 -105 65 -105 C28 -105 -29 -45 -29 70 C-29 368 244 682 435 682 C449 682 449 672 444 671 L444 671 Z " />
<glyph glyph-name="parenright" unicode="&#x29;" horiz-adv-x="180" d="M-187 -111 C-26 -97 235 253 235 523 C235 612 214 659 185 672 C180 674 178 681 186 681 C225 681 256 612 256 513 C256 257 -6 -119 -179 -119 C-192 -119 -192 -112 -187 -111 L-187 -111 Z " />
<glyph glyph-name="asterisk" unicode="&#x2a;" horiz-adv-x="200" d="M364 529 C361 529 335 530 292 520 C307 547 323 570 337 585 C342 594 323 592 323 592 C323 592 303 567 279 522 C265 548 256 566 249 584 C244 592 236 575 236 575 C236 575 244 555 268 516 C247 511 234 508 209 500 C203 498 209 493 213 491 C236 498 248 501 270 506 C260 484 253 468 243 440 C241 435 246 436 251 439 C261 463 269 478 280 499 C292 481 305 464 323 443 C327 439 329 443 329 449 C311 472 299 487 288 508 C326 514 347 517 371 515 C376 519 367 529 364 529 L364 529 Z " />
<glyph glyph-name="plus" unicode="&#x2b;" horiz-adv-x="300" d="M270 249 C252 249 220 249 186 248 C200 275 213 299 224 320 C226 329 210 333 195 312 C186 296 175 272 164 248 C127 247 91 245 69 242 C62 239 68 229 75 229 L156 229 C144 201 133 173 126 152 C123 141 129 136 134 139 C149 171 163 201 177 229 L289 228 C296 234 289 249 270 249 L270 249 Z " />
<glyph glyph-name="comma" unicode="&#x2c;" horiz-adv-x="140" d="M-22 65 C-13 65 -9 58 -11 45 C-17 2 -105 -95 -120 -81 C-79 -44 -37 10 -22 65 L-22 65 Z " />
<glyph glyph-name="hyphen" unicode="&#x2d;" horiz-adv-x="151" d="M35 238 C48 242 94 247 129 247 C168 247 163 232 160 228 C95 228 85 229 44 227 C37 228 31 235 35 238 L35 238 Z " />
<glyph glyph-name="period" unicode="&#x2e;" horiz-adv-x="140" d="M-13 43 C-19 43 -26 40 -32 30 C-41 13 -45 0 -36 0 C-19 0 8 43 -13 43 L-13 43 Z " />
<glyph glyph-name="slash" unicode="&#x2f;" horiz-adv-x="200" d="M309 481 C302 473 104 262 -48 -21 C-52 -27 -47 -41 -42 -34 C39 117 238 381 343 487 C355 499 324 499 309 481 L309 481 Z " />
<glyph glyph-name="zero" unicode="0" horiz-adv-x="444" d="M366 502 C199 502 41 271 41 120 C41 48 75 -8 151 -8 C316 -8 477 224 477 375 C477 446 442 502 366 502 L366 502 Z M153 5 C90 5 64 58 64 117 C64 259 226 487 370 487 C429 487 456 442 456 384 C456 242 296 5 153 5 L153 5 Z " />
<glyph glyph-name="one" unicode="1" horiz-adv-x="381" d="M457 502 C440 502 412 479 412 479 C412 479 390 454 335 367 C257 295 127 198 33 181 C23 176 40 164 52 164 C109 164 231 250 307 318 C263 246 190 145 160 44 C158 37 158 26 161 20 C109 11 68 -5 59 -12 C52 -17 51 -24 57 -24 C177 17 276 6 289 0 C294 6 296 27 240 27 C216 27 193 25 171 21 C212 149 315 287 365 371 C426 439 477 502 457 502 L457 502 Z " />
<glyph glyph-name="two" unicode="2" horiz-adv-x="453" d="M498 391 C498 453 450 496 365 496 C213 496 97 388 97 292 C97 273 103 225 160 225 C247 225 319 299 319 341 C319 348 318 352 315 356 C312 359 308 360 303 361 C297 304 221 240 161 240 C145 240 133 244 125 252 C118 259 114 270 114 283 C114 372 234 483 367 483 C435 483 478 452 478 391 C478 240 74 103 31 7 C26 5 21 3 18 1 C7 -5 12 -10 14 -10 C173 29 303 18 317 9 C321 15 317 38 249 38 C182 38 95 25 47 12 C134 112 498 214 498 391 L498 391 Z " />
<glyph glyph-name="three" unicode="3" horiz-adv-x="407" d="M236 342 C167 313 145 292 145 292 C145 292 138 276 163 276 C172 276 207 300 248 331 C332 364 380 315 380 259 C380 156 277 1 143 1 C21 1 28 160 96 183 C89 207 22 177 22 93 C22 38 68 -10 137 -10 C304 -10 404 151 404 260 C403 314 360 372 269 351 C340 393 424 455 449 474 C476 481 491 488 497 491 C509 497 514 505 508 505 C354 463 189 492 176 499 C171 493 165 474 225 467 C311 457 372 460 415 467 L236 342 Z " />
<glyph glyph-name="four" unicode="4" horiz-adv-x="400" d="M342 361 C293 304 241 201 228 173 C228 173 128 173 42 141 C172 265 251 435 260 467 C270 502 255 518 252 508 C236 461 172 301 15 134 C15 134 5 129 2 126 C-4 121 -1 113 3 115 C91 151 208 154 219 154 C211 141 179 58 174 25 C109 21 55 10 21 0 C6 -8 9 -14 13 -13 C139 13 265 7 278 -2 C283 4 283 26 223 26 L188 25 C199 66 222 124 241 155 C253 156 299 156 313 153 C322 161 319 180 251 175 C275 231 343 334 373 364 C376 377 349 370 342 361 L342 361 Z " />
<glyph glyph-name="five" unicode="5" horiz-adv-x="418" d="M267 451 C392 451 502 470 502 487 C502 488 502 489 501 490 C460 482 386 472 320 472 C248 472 206 476 176 481 C174 480 174 478 174 476 C174 469 180 461 194 457 L223 454 C211 429 170 362 140 319 C130 309 112 288 110 287 C106 283 102 257 116 257 C120 257 125 263 148 294 C172 317 231 363 285 363 C342 363 367 327 367 268 C367 160 267 4 127 4 C79 4 48 33 48 72 C48 122 96 182 169 182 C175 197 160 200 149 200 C93 200 33 147 33 78 C33 38 61 -8 129 -8 C285 -8 391 150 391 266 C391 325 371 377 288 377 C256 377 204 360 165 326 C195 367 226 424 239 452 C249 451 258 451 267 451 L267 451 Z " />
<glyph glyph-name="six" unicode="6" horiz-adv-x="453" d="M476 396 C486 388 496 400 496 418 C496 450 478 499 395 499 C231 499 73 316 73 127 C73 53 109 -9 187 -9 C325 -9 415 134 415 240 C415 271 405 355 310 355 C208 355 146 254 146 221 C146 210 153 207 159 208 C169 262 240 342 315 342 C369 342 391 296 391 242 C391 138 300 2 187 2 C134 2 96 50 96 125 C96 323 273 486 400 486 C472 486 489 427 476 396 L476 396 Z " />
<glyph glyph-name="seven" unicode="7" horiz-adv-x="400" d="M497 468 C502 473 504 477 504 481 C504 491 496 494 496 494 C441 478 343 465 294 465 C203 465 165 480 157 485 C155 483 153 479 153 474 C153 452 219 444 273 444 C355 444 424 462 462 474 C415 444 326 381 234 281 C201 281 167 282 136 284 C118 284 107 265 120 265 C146 264 182 263 219 264 C162 199 105 121 58 27 C51 13 54 -3 63 2 C116 109 183 195 248 264 C285 265 320 266 344 270 C356 272 361 278 361 281 C361 283 360 284 360 284 C336 282 302 281 264 281 C380 398 486 457 497 468 L497 468 Z " />
<glyph glyph-name="eight" unicode="8" horiz-adv-x="447" d="M350 504 C246 504 177 446 177 386 C177 347 208 307 256 293 C105 274 28 179 28 102 C28 45 70 -11 183 -11 C325 -11 403 77 403 161 C403 200 373 260 299 291 C420 316 466 379 466 422 C466 467 427 504 350 504 L350 504 Z M282 301 C216 329 201 362 201 393 C201 449 279 493 347 493 C404 493 448 469 448 424 C448 378 397 326 282 301 L282 301 Z M182 2 C92 2 50 52 50 105 C50 178 124 260 271 282 C343 253 378 201 378 158 C378 73 288 2 182 2 L182 2 Z " />
<glyph glyph-name="nine" unicode="9" horiz-adv-x="432" d="M347 501 C199 501 105 351 105 244 C105 187 135 130 209 130 C292 130 365 202 402 256 C376 153 260 2 153 2 C99 2 76 50 76 86 C76 99 78 111 83 119 C80 120 77 121 75 121 C62 121 54 105 54 84 C54 47 82 -9 156 -9 C320 -9 453 229 453 388 C453 456 409 501 347 501 L347 501 Z M415 293 C378 234 296 143 209 143 C155 143 128 188 128 243 C128 342 231 488 343 488 C397 488 430 451 430 389 C430 350 423 313 415 293 L415 293 Z " />
<glyph glyph-name="colon" unicode="&#x3a;" horiz-adv-x="150" d="M155 341 C149 341 142 338 137 328 C128 311 123 298 132 298 C149 298 176 341 155 341 L155 341 Z M6 80 C0 80 -7 77 -13 67 C-22 50 -26 37 -17 37 C0 37 27 80 6 80 L6 80 Z " />
<glyph glyph-name="semicolon" unicode="&#x3b;" horiz-adv-x="150" d="M153 338 C147 338 140 335 135 325 C126 308 121 295 130 295 C147 295 174 338 153 338 L153 338 Z M-20 46 C-11 46 -3 41 -6 28 C-12 -5 -77 -89 -90 -78 C-62 -42 -36 -4 -20 46 L-20 46 Z " />
<glyph glyph-name="less" unicode="&#x3c;" horiz-adv-x="260" d="M253 327 C234 327 92 266 36 217 C29 210 27 193 33 192 C106 177 165 155 210 129 C217 127 216 136 210 141 C190 154 128 189 51 204 C94 236 214 293 248 304 C255 308 266 327 253 327 L253 327 Z " />
<glyph glyph-name="equal" unicode="&#x3d;" horiz-adv-x="300" d="M80 263 C92 267 158 277 229 277 C269 277 267 260 264 255 C199 260 129 256 88 254 C82 254 76 260 80 263 L80 263 Z M43 177 C56 181 151 191 193 191 C232 191 227 174 224 170 C159 170 96 168 51 168 C44 169 39 174 43 177 L43 177 Z " />
<glyph glyph-name="greater" unicode="&#x3e;" horiz-adv-x="260" d="M93 320 C111 320 206 272 262 223 C269 216 254 199 247 198 C183 191 72 152 27 127 C20 124 21 134 26 138 C50 156 159 206 237 215 C193 247 127 284 75 301 C69 305 75 320 93 320 L93 320 Z " />
<glyph glyph-name="question" unicode="&#x3f;" horiz-adv-x="330" d="M201 318 C61 318 161 575 351 575 C426 575 463 531 463 474 C463 328 198 212 150 115 C146 114 143 117 143 121 C143 198 434 339 438 476 C440 539 396 564 349 564 C197 564 97 328 198 328 C264 328 317 421 314 457 C358 457 303 318 201 318 L201 318 Z M111 -6 C123 -6 135 10 135 22 C135 30 131 36 123 36 C109 36 99 22 99 10 C99 0 103 -6 111 -6 L111 -6 Z " />
<glyph glyph-name="at" unicode="&#x40;" horiz-adv-x="500" d="M179 -44 C115 -44 65 -4 65 90 C65 223 194 398 347 398 C414 398 444 354 444 298 C444 180 326 60 266 60 C253 60 252 70 252 81 C252 111 290 177 365 285 C365 285 363 302 355 302 C347 302 315 248 296 210 C311 253 320 302 294 302 C259 302 205 243 176 182 C144 119 136 54 161 54 C180 54 229 92 254 130 C242 101 232 53 266 53 C345 53 460 176 460 294 C460 358 431 407 341 407 C162 407 45 218 45 94 C45 6 96 -52 182 -52 C291 -52 365 20 371 34 C375 43 375 51 369 50 C353 25 272 -44 179 -44 L179 -44 Z M165 62 C155 62 162 119 193 177 C223 235 274 294 294 294 C317 294 291 204 269 166 C229 101 178 62 165 62 L165 62 Z " />
<glyph glyph-name="A" unicode="A" horiz-adv-x="610" d="M552 166 C519 83 435 7 408 7 C380 7 439 134 508 268 C534 270 565 270 595 270 C603 292 584 298 520 293 C585 423 631 534 643 567 C648 608 632 603 628 599 C581 557 487 444 344 277 C295 272 270 262 279 252 C294 255 312 256 328 258 C215 124 103 8 45 8 C22 8 4 24 4 63 C4 180 162 324 238 308 C241 308 243 326 215 326 C127 326 -10 193 -10 69 C-10 25 13 0 44 0 C122 0 226 123 343 258 C387 263 427 266 479 268 C411 130 351 -1 408 -1 C480 -1 597 166 552 166 L552 166 Z M361 279 C479 416 554 511 622 580 C608 541 555 422 489 290 C436 287 403 285 361 279 L361 279 Z " />
<glyph glyph-name="B" unicode="B" horiz-adv-x="507" d="M542 657 C505 657 476 643 443 619 C424 605 406 588 389 569 C135 556 -35 286 -35 119 C-35 34 0 -9 52 -9 C188 -9 259 377 406 561 C580 560 543 326 408 244 C393 260 371 271 344 271 C299 271 273 252 273 232 C273 224 282 210 312 210 C343 210 372 216 398 226 C401 219 404 212 405 204 C347 193 295 161 256 119 C206 65 206 -6 265 -6 C353 -6 430 100 430 187 C430 191 430 195 429 199 L445 200 C497 200 505 174 505 170 C518 170 517 208 449 208 C442 208 435 208 428 207 C425 217 421 226 416 234 C575 315 612 565 412 569 C424 583 436 596 449 607 C475 630 509 649 542 649 C564 649 576 641 583 632 C595 630 590 657 542 657 L542 657 Z M52 -1 C5 -1 -25 40 -25 121 C-25 288 145 544 382 560 C298 459 237 297 182 171 C138 71 96 -1 52 -1 L52 -1 Z M311 217 C288 217 281 227 281 232 C281 249 305 263 344 263 C366 263 382 252 393 236 C368 224 341 217 311 217 L311 217 Z M406 189 C406 110 332 2 265 2 C218 2 217 62 259 109 C297 150 349 185 406 196 L406 189 L406 189 Z " />
<glyph glyph-name="C" unicode="C" horiz-adv-x="448" d="M179 215 C496 215 652 608 455 608 C365 608 257 531 175 427 C167 428 158 428 148 428 C60 428 7 373 7 319 C7 286 28 255 70 236 C57 195 49 155 49 117 C49 52 70 -9 148 -9 C309 -9 444 205 400 205 C355 118 242 1 149 1 C105 1 71 24 71 104 C71 143 79 185 93 227 C117 219 146 215 179 215 L179 215 Z M464 600 C614 600 462 224 182 224 C148 224 119 228 96 235 C119 297 155 359 197 414 C282 401 319 354 322 323 C359 323 323 403 204 423 C285 525 387 600 464 600 L464 600 Z M16 321 C17 369 64 418 146 418 L168 417 C127 364 94 304 73 244 C33 262 15 292 16 321 L16 321 Z " />
<glyph glyph-name="D" unicode="D" horiz-adv-x="567" d="M633 676 C578 676 528 643 481 592 C465 597 447 600 427 600 C130 600 -18 175 127 175 C247 175 375 485 312 485 C329 449 214 183 122 183 C20 183 166 592 424 592 C443 592 460 589 474 585 C340 432 234 133 121 37 C93 48 67 57 35 57 C-3 57 -16 41 -15 29 C-13 11 11 -3 54 -2 C79 -1 103 8 126 25 C159 13 195 0 242 0 C531 0 694 489 502 584 C517 603 533 619 549 633 C593 671 653 679 684 647 C699 647 684 676 633 676 L633 676 Z M241 10 C198 10 165 21 135 32 C258 131 368 419 495 576 C666 481 483 10 241 10 L241 10 Z M54 7 C22 6 -6 16 -6 30 C-6 39 10 48 34 48 C62 48 87 40 112 30 C93 16 74 8 54 7 L54 7 Z " />
<glyph glyph-name="E" unicode="E" horiz-adv-x="464" d="M255 467 C225 464 235 389 344 389 C465 389 521 457 521 514 C521 568 470 609 366 609 C217 609 119 517 119 427 C119 354 183 322 213 319 C93 315 -21 228 -21 122 C-21 44 46 -8 154 -8 C355 -8 421 130 421 192 C421 267 373 265 373 251 C382 244 394 226 394 192 C394 104 306 2 153 2 C53 2 7 60 7 121 C7 221 110 303 233 312 C292 295 398 290 398 329 C398 348 329 356 235 326 C195 332 147 369 147 431 C147 508 229 599 366 599 C469 599 506 557 506 516 C506 468 445 410 349 410 C297 410 260 432 255 467 L255 467 Z M389 328 C389 308 273 314 250 323 C312 341 389 342 389 328 L389 328 Z " />
<glyph glyph-name="F" unicode="F" horiz-adv-x="478" d="M698 577 C635 506 398 600 257 600 C149 600 54 568 54 493 C54 426 127 393 200 393 C353 393 408 475 385 475 C369 443 281 406 209 406 C128 406 62 442 62 493 C62 524 104 576 250 576 C357 576 438 538 611 538 C677 538 710 574 698 577 L698 577 Z M505 353 C484 353 462 352 441 350 C474 417 505 473 533 497 C534 503 516 499 508 493 C479 470 447 414 412 347 C356 340 310 330 301 324 C298 322 296 315 301 315 C328 320 365 324 402 328 C330 185 250 7 184 7 C147 7 134 45 134 77 C134 192 248 276 310 276 C315 276 316 287 297 287 C228 287 118 212 118 83 C118 43 140 0 186 0 C274 0 358 183 430 330 C478 333 522 334 544 331 C548 336 549 353 505 353 L505 353 Z " />
<glyph glyph-name="G" unicode="G" horiz-adv-x="395" d="M174 283 C370 283 510 436 510 525 C510 571 468 596 416 596 C328 596 251 556 190 499 C170 505 147 509 121 509 C64 509 -28 468 -28 397 C-28 351 3 316 61 298 C25 187 44 87 140 87 C175 87 209 97 239 113 C157 -41 61 -236 -11 -236 C-35 -236 -61 -217 -61 -169 C-61 -89 25 15 100 15 C115 15 122 10 124 5 C130 5 126 26 97 26 C9 26 -77 -73 -77 -160 C-77 -216 -46 -243 -9 -243 C83 -243 193 -23 273 134 C360 195 409 295 373 295 C342 295 297 221 247 128 C217 110 182 98 146 98 C61 98 49 189 85 291 C111 286 141 283 174 283 L174 283 Z M420 584 C460 584 490 575 490 526 C490 445 346 293 172 293 C140 293 113 296 89 301 C112 363 153 430 206 482 C249 464 272 433 273 413 C280 413 285 417 285 423 C285 439 260 471 214 491 C272 546 343 584 420 584 L420 584 Z M-19 398 C-19 462 68 499 121 499 C143 499 163 496 181 491 C127 438 87 371 64 307 C9 325 -19 357 -19 398 L-19 398 Z M372 288 C393 288 353 208 283 152 C323 230 355 288 372 288 L372 288 Z " />
<glyph glyph-name="H" unicode="H" horiz-adv-x="503" d="M647 603 C608 603 531 484 465 351 C407 348 351 340 308 331 C334 382 359 432 381 475 C455 525 510 609 476 609 C442 609 399 549 352 467 C329 455 306 447 285 447 C241 447 324 620 263 620 C94 620 -70 285 59 285 C151 285 239 461 193 448 C198 408 122 290 60 290 C-45 290 141 613 258 613 C294 613 209 439 283 439 C303 439 324 445 344 454 C322 414 299 370 275 324 C251 319 236 314 232 311 C228 308 226 302 232 302 L267 308 C187 154 107 -2 50 -2 C-43 -2 53 233 168 264 C179 267 192 265 198 259 C204 262 198 278 176 278 C42 278 -76 -9 50 -9 C125 -9 217 154 298 312 C348 319 405 325 454 328 C392 202 342 69 342 19 C342 5 346 -3 354 1 C360 57 415 199 481 329 C509 330 533 330 549 327 C553 333 560 352 510 352 L492 352 C551 466 616 568 660 590 C662 593 658 603 647 603 L647 603 Z M475 603 C497 603 451 538 390 492 C426 558 455 603 475 603 L475 603 Z " />
<glyph glyph-name="I" unicode="I" horiz-adv-x="317" d="M472 607 C437 607 394 546 348 463 C328 453 307 447 288 447 C242 447 309 610 249 610 C89 610 -65 282 53 282 C146 282 239 461 196 448 C201 408 117 287 55 287 C-37 287 138 603 244 603 C280 603 211 439 285 439 C304 439 323 444 342 452 C244 274 134 7 53 7 C-39 7 52 240 168 272 C186 277 195 274 203 269 C208 273 201 288 178 288 C42 288 -71 0 53 0 C160 0 287 295 378 472 C452 521 506 607 472 607 L472 607 Z M386 487 C421 554 451 601 471 601 C494 601 447 533 386 487 L386 487 Z " />
<glyph glyph-name="J" unicode="J" horiz-adv-x="383" d="M519 600 C487 600 439 531 383 432 C356 415 330 404 306 404 C267 404 357 610 297 610 C117 610 -72 239 76 239 C168 239 262 418 219 406 C223 365 140 244 78 244 C-44 244 165 603 292 603 C328 603 229 396 304 396 C326 396 351 404 375 418 C339 355 302 282 263 208 C-15 193 -151 -240 -24 -240 C55 -240 177 -17 287 199 C340 196 349 171 349 166 C371 166 356 203 292 208 C335 293 377 376 413 444 C491 504 553 600 519 600 L519 600 Z M519 593 C540 593 488 518 423 463 C466 541 500 593 519 593 L519 593 Z M-27 -233 C-125 -233 -3 179 258 198 C149 -15 36 -233 -27 -233 L-27 -233 Z " />
<glyph glyph-name="K" unicode="K" horiz-adv-x="546" d="M466 611 C429 611 392 558 343 467 C318 452 293 442 272 442 C232 442 298 610 238 610 C68 610 -69 279 42 279 C135 279 228 458 185 445 C190 405 106 284 44 284 C-44 284 117 603 233 603 C270 603 197 434 269 434 C290 434 313 441 335 453 C236 260 115 4 42 4 C-47 4 38 238 159 271 C170 274 186 274 192 265 C198 272 192 286 168 286 C31 286 -80 -3 42 -3 C147 -3 268 275 366 464 C448 524 502 611 466 611 L466 611 Z M465 605 C486 605 441 531 373 479 C408 549 444 605 465 605 L465 605 Z M490 143 C473 91 410 10 372 10 C344 10 344 144 343 215 C475 297 609 588 692 588 C711 588 723 583 728 560 C737 560 734 597 690 597 C588 597 458 320 343 230 C341 247 339 261 330 261 C271 261 242 193 282 193 C296 193 309 197 323 203 C323 135 320 0 373 0 C448 0 521 145 490 143 L490 143 Z M282 202 C258 202 284 249 314 249 C321 249 322 234 323 217 C309 209 296 202 282 202 L282 202 Z " />
<glyph glyph-name="L" unicode="L" horiz-adv-x="523" d="M235 174 C323 198 415 252 474 339 C520 406 548 478 549 535 C549 578 535 610 503 610 C410 610 318 353 208 175 C181 169 155 165 132 165 C56 165 30 209 30 241 C30 317 130 409 221 398 C227 405 217 413 200 413 C102 413 20 325 19 245 C19 206 49 159 131 159 C153 159 177 161 202 166 C175 123 146 85 117 58 C66 68 18 77 -17 77 C-66 77 -97 62 -97 45 C-97 25 -49 0 16 0 C50 0 83 13 114 36 C183 20 260 2 333 2 C431 2 467 44 467 77 C467 105 431 124 395 124 C311 124 294 91 310 87 C318 96 344 112 395 112 C431 112 459 95 459 75 C459 48 423 23 333 23 C278 23 205 39 136 54 C171 84 204 127 235 174 L235 174 Z M504 602 C529 602 538 581 538 549 C538 494 510 421 462 347 C413 272 326 215 243 186 C355 363 440 602 504 602 L504 602 Z M15 9 C-33 9 -85 24 -85 42 C-85 51 -57 58 -19 58 C12 58 52 50 96 40 C70 20 43 9 15 9 L15 9 Z " />
<glyph glyph-name="M" unicode="M" horiz-adv-x="621" d="M623 483 C589 483 433 354 328 216 C382 322 447 441 480 504 C487 518 478 538 470 538 C435 538 283 432 136 232 C244 441 348 608 269 608 C57 608 -127 260 2 260 C87 260 181 439 137 426 C142 386 52 265 4 265 C-108 265 111 600 264 600 C328 600 128 318 10 17 C-36 7 -74 -7 -79 -14 C-82 -17 -78 -22 -73 -22 C5 8 109 6 120 1 C123 6 129 25 84 25 C69 25 53 24 38 21 C60 77 86 131 113 184 C244 370 424 521 458 521 C438 475 292 217 230 69 C212 36 200 5 210 1 C217 -6 236 9 238 19 C244 45 267 96 298 157 C405 311 563 449 612 470 C603 453 333 0 445 0 C524 0 612 142 574 142 C543 63 470 7 445 7 C388 7 555 318 630 452 C638 468 630 483 623 483 L623 483 Z " />
<glyph glyph-name="N" unicode="N" horiz-adv-x="488" d="M519 535 C481 535 250 357 151 198 L150 196 C262 423 380 608 296 608 C85 608 -100 260 29 260 C114 260 208 440 164 427 C170 386 79 265 31 265 C-81 265 138 600 291 600 C355 600 162 322 44 22 C-2 12 -40 -3 -45 -10 C-48 -13 -44 -17 -39 -17 C39 12 143 11 154 6 C157 11 163 30 118 30 C103 30 87 29 72 26 C82 51 93 76 104 101 C206 292 431 486 505 515 C496 498 185 -12 301 -12 C380 -12 468 129 429 129 C399 51 326 -5 301 -5 C250 -5 435 351 528 499 C533 517 530 535 519 535 L519 535 Z " />
<glyph glyph-name="O" unicode="O" horiz-adv-x="480" d="M438 606 C229 606 37 315 37 138 C37 57 73 -8 169 -8 C359 -8 546 298 546 478 C546 552 514 606 438 606 L438 606 Z M436 598 C498 598 524 553 524 490 C524 319 332 1 169 1 C91 1 62 59 62 126 C62 304 269 598 436 598 L436 598 Z " />
<glyph glyph-name="P" unicode="P" horiz-adv-x="496" d="M583 671 C525 671 482 649 447 613 C439 605 431 595 423 585 C146 569 55 301 144 301 C237 301 318 435 286 435 C280 403 212 307 144 307 C71 307 159 559 416 576 C332 463 260 273 185 143 C141 67 98 7 55 7 C-34 7 43 215 159 244 C175 248 185 245 191 241 C197 250 183 257 168 257 C32 257 -62 0 54 0 C97 0 133 32 173 88 C268 222 362 469 435 577 L448 577 C510 576 569 541 569 457 C569 299 416 204 334 204 C310 204 294 218 294 236 C294 295 402 364 475 345 C482 350 477 361 448 361 C377 361 287 296 287 236 C287 213 306 194 336 194 C438 194 591 300 591 458 C591 530 536 585 455 586 L441 586 C448 596 455 604 462 611 C495 644 530 659 562 660 C583 661 605 660 618 643 C628 643 624 671 583 671 L583 671 Z " />
<glyph glyph-name="Q" unicode="Q" horiz-adv-x="414" d="M294 -50 C270 -50 242 -55 213 -63 C194 -47 176 -27 158 -7 C420 23 660 606 407 606 C110 606 -171 -2 134 -8 C152 -29 172 -50 194 -69 C114 -93 24 -130 -50 -130 C-72 -130 -123 -121 -123 -102 C-123 -82 -63 -65 -21 -64 C4 -63 48 -69 68 -82 C73 -59 30 -51 -23 -51 C-83 -51 -132 -78 -132 -103 C-132 -116 -116 -147 -51 -147 C45 -147 130 -104 205 -78 C233 -100 265 -116 300 -116 C349 -116 368 -99 368 -82 C368 -64 331 -50 294 -50 L294 -50 Z M301 -102 C273 -102 248 -90 224 -72 C248 -65 272 -60 294 -60 C328 -60 361 -69 361 -82 C361 -93 337 -102 301 -102 L301 -102 Z " />
<glyph glyph-name="R" unicode="R" horiz-adv-x="450" d="M466 655 C391 655 345 624 301 578 C10 555 -93 214 -93 112 C-93 37 -68 -7 -24 -7 C120 -7 165 392 318 570 C374 575 458 552 458 443 C458 337 353 237 244 205 C239 233 234 252 222 252 C184 252 159 222 159 208 C159 198 166 188 180 188 C195 188 209 189 224 192 C233 122 236 2 285 2 C348 2 415 105 415 136 C415 142 413 145 408 145 C392 93 322 13 283 13 C258 13 257 126 246 196 C366 225 482 325 482 443 C482 508 446 584 327 580 C360 626 408 644 460 644 C473 644 489 641 495 634 C497 634 499 637 499 640 C499 646 489 655 466 655 L466 655 Z M-23 3 C-63 3 -83 41 -83 110 C-83 213 22 540 293 568 C140 391 83 3 -23 3 L-23 3 Z M178 195 C169 195 166 202 166 207 C166 219 190 242 206 242 C216 242 219 225 223 200 C207 197 193 195 178 195 L178 195 Z " />
<glyph glyph-name="S" unicode="S" horiz-adv-x="452" d="M391 611 C495 609 538 559 538 501 C538 438 475 377 396 377 C373 377 363 389 367 394 C460 394 512 447 512 505 C512 567 456 600 390 600 C310 600 221 557 221 478 C221 365 400 360 400 210 C400 104 306 -8 150 -8 C9 -8 -42 78 -42 146 C-42 247 49 328 169 328 C214 328 218 300 204 296 C117 326 -20 256 -20 140 C-20 60 55 3 151 3 C276 3 373 94 373 208 C373 338 197 350 197 472 C197 553 283 613 391 611 L391 611 Z " />
<glyph glyph-name="T" unicode="T" horiz-adv-x="360" d="M193 598 C47 598 5 544 5 513 C5 462 73 430 143 429 C227 428 312 463 328 495 C351 495 296 412 143 412 C70 412 -3 446 -3 513 C-3 588 92 620 200 620 C341 620 563 563 641 627 C653 624 618 579 510 579 C350 579 300 598 193 598 L193 598 Z M243 276 C181 276 60 192 60 77 C60 40 78 11 110 11 C233 11 369 454 462 525 C479 538 487 535 486 529 C396 453 255 0 112 0 C66 0 44 43 44 83 C44 212 161 288 230 288 C249 288 248 276 243 276 L243 276 Z " />
<glyph glyph-name="U" unicode="U" horiz-adv-x="473" d="M403 139 C372 60 302 3 276 3 C248 3 283 116 334 242 C465 406 569 591 516 591 C477 591 366 393 300 225 C206 110 84 2 40 2 C-38 2 413 655 268 655 C57 655 -101 304 18 304 C103 304 182 487 139 474 C142 433 67 312 19 312 C-82 312 102 646 264 646 C363 646 -88 -9 36 -9 C96 -9 192 75 283 180 C246 76 233 -7 275 -7 C353 -7 441 139 403 139 L403 139 Z M515 578 C535 578 471 445 359 300 C420 440 493 578 515 578 L515 578 Z " />
<glyph glyph-name="V" unicode="V" horiz-adv-x="360" d="M123 -2 C164 143 296 375 451 524 C524 594 610 620 634 595 C642 595 645 615 612 615 C428 615 205 244 138 76 C209 282 374 601 250 601 C14 601 -124 228 11 228 C114 228 205 428 162 416 C156 358 74 236 13 236 C-107 236 69 592 248 592 C353 592 104 118 104 12 C105 4 114 -14 123 -4 L123 -2 Z " />
<glyph glyph-name="W" unicode="W" horiz-adv-x="598" d="M538 298 C555 247 599 258 595 276 C579 276 557 296 553 327 C601 418 672 604 635 604 C597 604 506 463 530 318 C462 173 317 11 289 11 C234 11 349 329 402 401 C402 410 381 410 368 395 C309 332 123 124 72 25 C71 23 69 20 69 22 C149 205 303 478 356 540 C357 553 349 573 338 561 C338 561 181 351 51 20 C34 16 -11 5 -31 -5 C-35 -7 -35 -14 -26 -16 C23 1 126 11 163 4 C165 8 169 27 133 27 C120 27 96 25 83 23 C139 120 287 295 350 352 C303 272 204 0 287 0 C339 0 482 178 538 298 L538 298 Z M633 592 C648 592 600 447 546 342 C538 487 616 592 633 592 L633 592 Z " />
<glyph glyph-name="X" unicode="X" horiz-adv-x="579" d="M620 521 C554 521 469 417 418 328 C479 445 494 609 368 609 C151 609 -5 261 185 261 C334 261 428 481 357 475 C380 434 282 270 183 270 C20 270 189 599 368 599 C496 599 443 404 354 255 C259 96 179 -1 112 -1 C23 -1 92 176 210 207 C225 211 247 209 252 194 C259 194 261 219 219 219 C82 219 -8 -10 113 -10 C186 -10 256 66 323 165 C285 81 278 -8 335 -8 C452 -8 593 218 547 218 C523 146 410 1 339 1 C286 1 314 110 357 195 C431 341 548 509 619 509 C647 509 646 466 622 428 C608 405 579 379 550 376 C549 373 553 368 563 368 C579 368 612 385 637 420 C670 467 661 521 620 521 L620 521 Z " />
<glyph glyph-name="Y" unicode="Y" horiz-adv-x="530" d="M663 591 C615 591 551 465 479 312 C383 205 274 107 217 107 C157 107 514 604 392 604 C143 604 -84 179 73 179 C182 179 284 409 229 393 C235 341 137 185 76 185 C-68 185 194 595 389 595 C481 595 102 95 213 95 C270 95 370 177 462 274 C355 42 235 -232 131 -232 C35 -232 88 -18 229 12 C248 16 264 9 265 3 C270 14 256 24 238 24 C80 24 -1 -239 134 -239 C266 -239 407 91 515 333 C626 460 709 591 663 591 L663 591 Z M662 582 C689 582 624 483 534 375 C588 494 632 582 662 582 L662 582 Z " />
<glyph glyph-name="Z" unicode="Z" horiz-adv-x="500" d="M563 526 C537 526 494 477 443 409 C431 405 417 403 404 403 C364 403 434 633 383 633 C310 633 233 560 180 476 C173 477 166 477 159 477 C93 477 63 441 81 441 C92 456 124 470 156 470 C163 470 169 470 176 469 C104 352 76 217 158 217 C238 217 314 426 204 469 C256 552 326 623 381 623 C417 623 327 395 401 395 C413 395 425 397 436 399 C394 341 347 271 304 205 C186 153 74 -7 144 -7 C182 -7 254 93 329 206 C341 210 354 212 367 212 C412 212 262 -10 327 -10 C380 -10 456 85 427 85 C419 61 364 -2 334 -2 C303 -2 451 222 373 222 C361 222 348 220 336 217 C379 283 423 352 461 407 C543 440 600 526 563 526 L563 526 Z M560 517 C584 517 535 451 469 420 C510 477 543 517 560 517 L560 517 Z M162 224 C94 224 131 351 200 462 C301 420 229 224 162 224 L162 224 Z M141 0 C101 0 192 141 296 193 C226 88 165 0 141 0 L141 0 Z " />
<glyph glyph-name="backslash" unicode="&#x5c;" horiz-adv-x="260" d="M98 481 C106 473 143 261 131 -22 C131 -34 124 -45 121 -38 C114 23 126 292 71 485 C71 493 83 496 98 481 L98 481 Z " />
<glyph glyph-name="underscore" unicode="&#x5f;" horiz-adv-x="300" d="M-67 -1 C-62 0 1 22 126 22 C166 22 164 4 161 0 C105 9 -31 -4 -70 -11 C-76 -10 -72 -3 -67 -1 L-67 -1 Z " />
<glyph glyph-name="a" unicode="a" horiz-adv-x="360" d="M311 158 C270 101 176 12 145 8 C130 5 161 81 201 165 C300 263 395 398 346 398 C321 398 276 341 232 269 C253 325 268 398 230 398 C182 398 103 321 44 218 C-8 126 -44 -5 4 -5 C44 -5 124 73 154 118 C126 52 113 -4 138 -4 C210 -4 346 158 311 158 L311 158 Z M8 7 C-13 7 18 122 65 203 C122 303 195 388 229 388 C255 388 228 284 206 230 C189 199 179 172 165 143 C96 61 27 7 8 7 L8 7 Z M346 388 C367 388 299 284 215 194 C263 290 332 388 346 388 L346 388 Z " />
<glyph glyph-name="b" unicode="b" horiz-adv-x="321" d="M76 239 C13 123 -27 0 28 0 C136 0 258 194 280 257 C342 252 383 284 374 296 C352 278 309 266 287 272 C311 336 316 406 292 406 C260 406 216 345 216 308 C216 287 234 270 258 260 C226 173 93 10 29 10 C-2 10 32 108 82 197 L158 330 C308 478 370 600 329 600 C295 600 187 444 76 239 L76 239 Z M329 584 C345 584 289 484 179 367 C254 496 313 584 329 584 L329 584 Z M232 309 C232 346 272 393 287 393 C298 393 285 320 265 277 C247 280 232 296 232 309 L232 309 Z " />
<glyph glyph-name="c" unicode="c" horiz-adv-x="240" d="M139 267 C126 257 134 236 151 236 C215 236 297 396 219 396 C152 396 66 293 18 193 C-29 95 -37 -9 19 -9 C126 -9 255 206 211 206 C188 158 94 1 19 1 C-21 1 -2 99 46 193 C96 291 173 386 219 386 C255 386 211 266 154 246 C169 259 152 278 139 267 L139 267 Z " />
<glyph glyph-name="d" unicode="d" horiz-adv-x="390" d="M399 245 C331 131 203 11 164 11 C146 11 179 104 230 197 C249 230 271 265 290 298 C427 430 540 601 489 601 C456 601 349 452 252 282 C272 338 273 391 236 391 C188 391 108 329 50 226 C-16 108 -34 -1 10 -1 C47 -1 109 47 167 120 C135 47 137 0 159 0 C255 0 452 245 399 245 L399 245 Z M490 588 C510 588 418 442 297 318 C382 460 472 588 490 588 L490 588 Z M14 12 C-7 12 12 109 71 212 C128 311 201 381 235 381 C266 381 248 287 225 235 C213 211 197 181 182 156 C122 74 42 12 14 12 L14 12 Z " />
<glyph glyph-name="e" unicode="e" horiz-adv-x="240" d="M56 191 C46 186 47 156 73 156 C172 156 310 394 217 394 C151 394 72 306 22 212 C-34 108 -56 -8 10 -8 C113 -8 256 199 209 199 C191 164 84 3 9 3 C-82 3 115 384 217 384 C273 384 139 170 73 170 C66 170 57 177 56 191 L56 191 Z " />
<glyph glyph-name="f" unicode="f" horiz-adv-x="253" d="M278 331 C241 331 185 311 159 296 C151 292 151 287 155 287 C162 290 169 292 175 295 C163 127 -25 -181 -62 -181 C-92 -181 49 146 152 319 C248 386 391 600 331 600 C247 600 -165 -191 -61 -191 C-4 -191 193 140 184 297 C236 314 284 320 307 314 C310 317 315 331 278 331 L278 331 Z M329 592 C350 592 303 470 159 332 C197 410 313 592 329 592 L329 592 Z " />
<glyph glyph-name="g" unicode="g" horiz-adv-x="308" d="M328 388 C325 382 299 328 264 258 C282 313 295 392 255 392 C207 392 125 313 67 210 C14 118 -11 1 26 1 C67 1 171 88 206 146 C183 100 159 55 138 19 C-18 -53 -117 -238 -39 -238 C47 -238 288 248 340 360 C344 370 337 392 328 388 L328 388 Z M33 11 C12 11 44 116 89 196 C147 297 221 382 254 382 C291 382 256 235 237 206 C237 206 238 206 238 206 L217 166 C156 90 52 11 33 11 L33 11 Z M-40 -230 C-83 -230 -11 -76 132 5 C130 1 2 -230 -40 -230 L-40 -230 Z " />
<glyph glyph-name="h" unicode="h" horiz-adv-x="359" d="M338 401 C314 401 207 333 113 218 C136 260 162 302 185 341 C326 476 409 602 360 602 C292 602 62 201 -7 26 C-45 18 -77 6 -82 0 C-84 -2 -81 -6 -76 -6 C-15 17 68 16 77 12 C79 16 84 32 48 32 C38 32 25 30 15 29 C37 84 62 121 84 163 C180 288 308 384 333 384 C337 384 312 340 280 279 C220 165 124 0 181 0 C251 0 337 119 303 119 C258 47 204 11 183 11 C142 11 356 343 356 385 C356 393 350 401 338 401 L338 401 Z M362 592 C381 592 310 477 194 364 C268 485 340 592 362 592 L362 592 Z " />
<glyph glyph-name="i" unicode="i" horiz-adv-x="210" d="M219 446 C233 446 248 466 248 481 C248 491 244 499 233 499 C216 499 203 481 203 466 C203 454 209 446 219 446 L219 446 Z M162 389 C155 371 94 270 56 197 C3 97 -42 0 -1 0 C67 0 201 155 159 158 C124 94 25 10 1 10 C-16 10 18 82 66 169 C104 238 168 352 173 362 C179 371 171 393 162 389 L162 389 Z " />
<glyph glyph-name="j" unicode="j" horiz-adv-x="110" d="M198 446 C212 446 227 466 227 481 C227 491 223 499 212 499 C195 499 182 481 182 466 C182 454 188 446 198 446 L198 446 Z M157 390 C145 362 102 273 73 216 C-62 -50 -171 -232 -254 -232 C-328 -232 -251 -89 -186 -72 C-201 -83 -193 -99 -182 -99 C-162 -99 -153 -64 -177 -64 C-277 -64 -351 -241 -251 -241 C-138 -241 0 25 94 208 C132 282 159 340 171 365 C174 381 163 397 157 390 L157 390 Z " />
<glyph glyph-name="k" unicode="k" horiz-adv-x="354" d="M367 398 C301 398 162 281 71 161 C69 160 71 165 73 168 C169 344 283 520 330 576 C329 587 325 605 316 599 C291 575 102 299 -25 2 C-27 -4 -9 -5 -4 7 C14 45 36 91 58 131 C98 177 202 249 216 249 C235 249 83 1 148 1 C207 1 352 170 305 170 C275 109 179 12 149 12 C122 12 272 264 224 264 C205 264 152 231 113 195 C189 285 299 370 349 381 C347 377 347 364 358 364 C378 364 389 398 367 398 L367 398 Z " />
<glyph glyph-name="l" unicode="l" horiz-adv-x="260" d="M251 245 C180 137 52 9 8 9 C-26 9 101 232 141 292 C278 423 394 600 343 600 C303 600 167 402 61 200 C5 94 -35 -1 6 -1 C99 -1 299 245 251 245 L251 245 Z M343 590 C363 590 278 445 154 321 C239 463 325 590 343 590 L343 590 Z " />
<glyph glyph-name="m" unicode="m" horiz-adv-x="479" d="M433 118 C389 47 333 11 312 11 C283 11 379 191 435 292 C455 328 481 371 447 371 C425 371 339 310 250 209 C294 292 337 373 337 392 C337 401 332 407 320 407 C293 407 182 316 77 178 C125 268 179 360 212 406 C212 406 210 438 195 427 C192 423 67 235 -17 25 C-42 20 -77 7 -81 1 C-83 -1 -80 -5 -76 -5 C-14 18 68 17 77 13 C79 17 84 33 54 33 C28 33 12 29 4 28 C13 51 27 80 40 107 C141 263 292 391 315 391 C322 391 277 311 210 166 C132 67 124 -4 156 13 C159 24 191 100 223 156 C306 268 417 348 439 349 C433 337 234 0 310 0 C385 0 467 118 433 118 L433 118 Z " />
<glyph glyph-name="n" unicode="n" horiz-adv-x="344" d="M284 109 C242 38 185 1 164 1 C123 1 331 341 331 382 C331 391 325 398 313 398 C286 398 175 307 70 169 C118 259 172 351 205 396 C205 396 203 429 188 417 C185 414 61 228 -23 17 C-50 12 -79 1 -85 -5 C-87 -7 -84 -11 -80 -11 C-18 12 64 8 73 4 C76 8 78 25 51 25 C26 25 8 22 -3 21 C8 46 22 75 38 106 C137 254 285 381 308 381 C311 381 294 346 263 285 C205 170 111 -9 162 -9 C237 -9 319 109 284 109 L284 109 Z " />
<glyph glyph-name="o" unicode="o" horiz-adv-x="260" d="M239 397 C95 397 -94 -1 30 -1 C171 -1 367 397 239 397 L239 397 Z M32 10 C-61 10 137 386 241 386 C335 386 132 10 32 10 L32 10 Z " />
<glyph glyph-name="p" unicode="p" horiz-adv-x="321" d="M288 391 C257 391 196 339 147 280 C173 325 194 359 209 376 C214 391 185 388 172 370 C166 360 -22 49 -131 -240 C-135 -247 -119 -247 -113 -236 C-73 -137 30 67 112 217 C155 284 246 380 286 380 C315 380 296 272 238 173 C184 80 110 12 82 12 C52 12 136 174 234 210 C233 214 226 215 210 209 C116 167 24 0 87 0 C125 0 210 75 256 152 C326 267 338 391 288 391 L288 391 Z " />
<glyph glyph-name="q" unicode="q" horiz-adv-x="284" d="M319 371 C316 368 293 329 259 268 C275 322 285 392 247 392 C199 392 117 312 58 209 C6 117 -20 0 18 0 C53 0 134 64 179 119 C124 11 62 -114 15 -239 C11 -246 27 -246 33 -234 C93 -87 295 305 355 378 C361 392 331 390 319 371 L319 371 Z M25 10 C4 10 35 116 82 196 C139 296 212 381 246 381 C275 381 259 290 242 237 C227 210 212 181 195 148 C133 78 42 10 25 10 L25 10 Z " />
<glyph glyph-name="r" unicode="r" horiz-adv-x="251" d="M272 262 C258 241 219 193 202 193 C187 193 195 260 208 290 C307 381 355 463 317 463 C282 463 220 389 192 298 C159 265 102 214 60 147 C102 237 151 325 193 378 C200 389 176 394 161 376 C152 361 43 195 -11 24 C-43 17 -68 10 -71 5 C-73 3 -70 -1 -66 -1 C-10 15 69 20 87 13 C89 17 94 33 58 33 C41 33 23 31 7 28 C17 54 25 70 37 95 C85 171 138 227 186 272 C179 251 171 183 202 183 C233 183 297 262 272 262 L272 262 Z M317 453 C335 453 283 378 212 310 C248 399 300 453 317 453 L317 453 Z " />
<glyph glyph-name="s" unicode="s" horiz-adv-x="271" d="M239 398 C165 398 128 341 136 267 C140 228 159 167 161 131 C165 59 122 1 61 1 C35 1 4 23 4 74 C4 126 50 194 116 194 C116 195 117 195 117 196 C117 200 108 204 98 204 C37 204 -18 140 -18 79 C-18 17 25 -9 64 -9 C142 -9 188 55 185 131 C184 167 161 234 157 272 C148 348 190 388 239 388 C272 388 288 363 288 336 C288 304 262 262 229 254 C240 263 236 281 224 281 C212 281 205 272 205 262 C205 254 212 245 224 245 C266 245 308 293 308 335 C308 367 283 398 239 398 L239 398 Z " />
<glyph glyph-name="t" unicode="t" horiz-adv-x="261" d="M235 235 C195 153 47 10 7 10 C-12 10 38 131 91 227 C98 238 104 249 110 260 C181 330 215 369 258 428 C278 429 314 431 357 432 C360 433 368 448 343 448 C329 448 288 446 266 445 C294 488 303 518 281 518 C264 518 231 489 194 440 C152 437 117 436 100 433 C94 432 86 421 95 421 C116 423 167 424 183 425 C146 374 127 344 86 267 C5 113 -34 0 1 0 C98 0 283 235 235 235 L235 235 Z M283 509 C291 509 280 482 255 444 L221 442 C250 483 274 509 283 509 L283 509 Z M211 426 C220 427 242 428 246 428 C210 378 176 342 114 277 C157 352 181 383 211 426 L211 426 Z " />
<glyph glyph-name="u" unicode="u" horiz-adv-x="357" d="M283 116 C274 96 200 2 167 2 C150 2 204 125 253 221 C282 270 327 335 331 367 C333 380 328 394 319 394 C310 394 266 292 223 206 C187 159 58 1 16 1 C-22 1 251 409 168 394 C159 316 -58 -10 12 -10 C66 -10 151 94 197 154 C171 100 128 -9 162 -9 C228 -9 317 116 283 116 L283 116 Z " />
<glyph glyph-name="v" unicode="v" horiz-adv-x="280" d="M343 387 C287 339 129 177 44 24 C69 125 116 258 179 381 C180 396 155 388 147 377 C147 377 60 219 22 20 C25 -2 39 -7 44 -1 C139 160 305 341 362 386 C362 386 356 398 343 387 L343 387 Z " />
<glyph glyph-name="w" unicode="w" horiz-adv-x="374" d="M333 248 C350 197 386 208 382 216 C366 216 347 240 343 271 C382 365 404 467 373 467 C335 467 305 344 325 268 C257 123 151 2 123 2 C76 2 175 251 213 292 C213 301 195 301 182 286 C123 219 23 117 -28 18 C-29 16 -31 13 -31 15 C29 153 123 315 170 373 C171 386 164 405 153 393 C153 393 23 208 -46 13 C-63 9 -91 1 -95 -4 C-98 -6 -94 -11 -90 -11 C-41 6 44 9 55 2 C57 6 61 22 25 22 C12 22 -3 20 -16 18 C33 103 93 166 159 240 C118 151 64 -9 121 -9 C173 -9 277 128 333 248 L333 248 Z M371 457 C386 457 372 380 338 292 C328 358 354 457 371 457 L371 457 Z " />
<glyph glyph-name="x" unicode="x" horiz-adv-x="226" d="M108 206 C40 127 -27 39 -42 0 C-45 -8 -36 -14 -33 -9 C-18 23 43 106 109 182 L109 3 C110 3 130 -14 130 4 C130 18 133 117 135 210 C201 286 275 364 307 391 C307 391 303 405 286 395 C273 385 201 313 134 236 L138 385 C139 410 106 385 106 385 L108 206 Z " />
<glyph glyph-name="y" unicode="y" horiz-adv-x="275" d="M304 392 C295 392 256 293 213 207 C178 162 34 10 -2 10 C-40 10 231 407 148 391 C139 313 -77 0 -7 0 C56 0 172 139 199 176 C193 160 119 26 68 -54 C-8 -169 -77 -236 -125 -236 C-207 -236 -152 -77 -52 -40 C-62 -48 -63 -67 -49 -67 C-27 -67 -15 -32 -40 -32 C-152 -32 -243 -244 -123 -244 C-55 -244 5 -173 83 -64 C155 40 304 331 317 370 C316 384 310 392 304 392 L304 392 Z " />
<glyph glyph-name="z" unicode="z" horiz-adv-x="300" d="M290 390 C276 390 253 359 224 320 C202 305 181 295 171 295 C150 295 224 416 170 416 C92 416 5 242 44 242 C51 270 126 406 170 406 C187 406 120 284 167 284 C179 284 194 291 208 297 C183 262 150 218 120 177 C9 138 -81 -11 -26 -11 C2 -11 57 79 127 169 C138 174 149 176 158 176 C182 176 67 -8 135 -8 C186 -8 263 106 227 106 C216 82 159 0 135 0 C100 0 225 188 160 188 C153 188 144 185 137 183 C165 218 204 271 228 305 C277 335 315 390 290 390 L290 390 Z M-26 -2 C-48 -2 35 122 110 163 C51 86 -9 -2 -26 -2 L-26 -2 Z " />
<glyph glyph-name="bar" unicode="&#x7c;" horiz-adv-x="123" d="M-129 -115 L-112 -125 L283 559 L266 569 L-129 -115 Z " />
<glyph glyph-name="asciitilde" unicode="&#x7e;" horiz-adv-x="320" d="M76 263 C68 263 67 274 82 287 C98 298 124 308 160 308 C209 308 240 288 278 288 C314 288 333 298 343 305 C349 307 354 296 336 283 C322 275 309 268 275 268 C235 268 209 288 162 288 C102 288 76 263 76 263 L76 263 Z " />
<glyph glyph-name="cent" unicode="&#xa2;" horiz-adv-x="300" d="M298 442 C299 443 299 445 299 445 C299 447 298 448 296 448 C291 448 283 444 280 438 L245 375 C148 370 59 250 59 168 C59 135 74 111 98 103 L62 36 C61 34 60 33 60 32 C60 31 61 30 63 30 C65 30 68 32 71 36 C72 38 87 63 107 101 L117 100 C188 100 236 162 236 186 C236 192 233 196 227 196 C219 168 171 107 117 107 C115 107 113 107 111 107 L257 368 C276 365 284 350 284 333 C284 311 273 287 259 276 L258 275 C258 273 262 271 266 271 C268 271 271 272 273 273 C289 281 300 304 300 327 C300 350 289 371 261 374 L298 442 Z M77 158 C77 241 162 358 241 367 L102 110 C85 118 77 139 77 158 L77 158 Z " />
<glyph glyph-name="section" unicode="&#xa7;" horiz-adv-x="350" d="M300 369 C296 368 299 356 317 356 C364 356 404 394 404 430 C404 471 367 500 297 500 C216 500 153 447 153 402 C153 359 184 343 204 334 C121 328 68 276 68 231 C68 134 215 158 215 70 C215 34 163 -15 87 -15 C34 -15 -14 3 -14 49 C-14 79 19 118 76 114 C79 121 73 127 58 127 C0 127 -32 80 -32 49 C-32 3 16 -27 86 -27 C183 -27 237 26 237 73 C237 111 207 141 174 152 C259 147 338 199 338 258 C338 301 301 330 239 341 C210 345 171 366 171 402 C171 444 228 489 299 489 C348 489 386 470 386 433 C386 402 351 369 300 369 L300 369 Z M315 258 C315 212 249 164 159 164 C134 171 89 187 89 232 C89 277 149 323 225 326 C249 321 315 308 315 258 L315 258 Z " />
<glyph glyph-name="copyright" unicode="&#xa9;" horiz-adv-x="160" d="M237 506 C175 506 127 457 127 405 C127 372 154 349 188 349 C231 349 294 388 294 451 C294 484 266 506 237 506 L237 506 Z M185 356 C161 356 136 371 136 404 C136 462 196 499 234 499 C267 499 285 477 285 453 C285 403 235 356 185 356 L185 356 Z M228 472 C196 472 176 437 176 413 C177 400 183 390 196 390 C220 390 234 414 226 414 C221 409 209 398 197 398 C190 398 187 404 187 412 C187 432 205 463 228 463 C240 463 240 452 238 446 C241 443 247 447 247 457 C247 463 242 472 228 472 L228 472 Z " />
<glyph glyph-name="guillemotleft" unicode="&#xab;" horiz-adv-x="250" d="M222 312 C213 312 144 281 100 243 C96 239 94 228 100 226 C148 206 192 186 235 160 C242 160 241 168 235 172 C209 193 149 224 117 237 C157 266 209 285 237 297 C243 302 235 312 222 312 L222 312 Z M126 311 C117 311 58 275 14 237 C10 233 6 220 13 219 C63 204 108 184 153 158 C161 158 160 166 155 171 C134 184 62 222 31 230 C71 259 114 284 141 296 C148 300 139 311 126 311 L126 311 Z " />
<glyph glyph-name="registered" unicode="&#xae;" horiz-adv-x="160" d="M237 506 C175 506 127 457 127 405 C127 372 154 349 188 349 C231 349 294 388 294 451 C294 484 266 506 237 506 L237 506 Z M185 356 C161 356 136 371 136 404 C136 462 196 499 234 499 C267 499 285 477 285 453 C285 403 235 356 185 356 L185 356 Z M194 439 C205 452 218 460 231 460 C236 460 242 457 242 451 C242 439 220 426 194 428 C194 407 222 380 230 390 C214 401 207 417 206 422 C225 419 252 432 252 451 C252 462 243 469 233 469 C223 469 212 463 202 453 C206 459 209 465 213 470 C210 476 201 472 197 466 C193 459 177 437 159 392 C160 389 166 390 170 396 C172 399 181 418 192 437 L194 439 Z " />
<glyph glyph-name="degree" unicode="&#xb0;" horiz-adv-x="111" d="M233 520 C190 520 159 489 159 454 C159 432 177 417 200 417 C229 417 269 443 269 485 C269 507 251 520 233 520 L233 520 Z M199 424 C183 424 169 435 169 455 C169 489 205 513 229 513 C250 513 259 499 259 485 C259 456 229 424 199 424 L199 424 Z " />
<glyph glyph-name="uni00B5" unicode="&#xb5;" horiz-adv-x="300" d="M-71 -45 C-74 -52 -84 -57 -84 -49 C-84 -44 29 160 102 289 C136 358 160 394 161 395 C169 400 182 385 177 368 C167 347 125 289 118 279 C112 268 70 158 88 158 C120 158 215 287 215 287 C215 287 270 390 279 390 C288 390 296 377 289 362 C287 356 267 324 237 284 C201 212 178 155 188 155 C211 155 277 234 292 253 C313 253 227 147 187 147 C152 147 197 238 197 238 C197 238 127 150 88 150 C56 150 80 221 80 221 C80 221 -67 -39 -71 -45 L-71 -45 Z " />
<glyph glyph-name="guillemotright" unicode="&#xbb;" horiz-adv-x="250" d="M68 328 C77 328 154 297 199 259 C202 255 205 244 199 242 C150 221 110 203 67 178 C60 177 54 181 60 186 C86 206 149 240 182 252 C141 281 99 295 71 307 C65 312 55 328 68 328 L68 328 Z M164 327 C173 327 240 290 284 253 C288 249 292 236 286 234 C235 220 194 201 149 176 C141 176 134 179 140 184 C160 197 236 238 268 246 C227 275 195 294 167 306 C161 310 151 326 164 327 L164 327 Z " />
<glyph glyph-name="Oacute" unicode="&#xd3;" horiz-adv-x="480" d="M497 589 C515 616 529 646 533 674 C535 690 524 695 517 692 C511 661 496 629 477 600 C465 604 452 606 438 606 C229 606 37 315 37 138 C37 57 73 -8 169 -8 C359 -8 552 288 552 468 C552 519 534 566 497 589 L497 589 Z M169 1 C91 1 62 59 62 126 C62 304 269 598 436 598 C449 598 461 596 471 591 C441 546 403 508 376 490 C387 475 447 519 490 579 C517 558 530 521 530 480 C530 309 332 1 169 1 L169 1 Z " />
<glyph glyph-name="multiply" unicode="&#xd7;" horiz-adv-x="300" d="M236 313 C217 299 187 275 157 248 C139 274 126 295 116 313 C108 321 99 304 102 295 C105 288 121 264 142 234 C115 210 88 184 67 163 C64 154 69 150 72 153 L153 219 C170 196 190 172 210 151 C216 144 225 149 222 153 L168 232 C206 263 240 290 259 305 C265 309 254 321 236 313 L236 313 Z " />
<glyph glyph-name="oacute" unicode="&#xf3;" horiz-adv-x="250" d="M306 525 C282 479 255 447 237 427 C248 409 311 477 317 506 C320 518 312 527 306 525 L306 525 Z M232 395 C88 395 -94 -1 29 -1 C170 -1 352 395 232 395 L232 395 Z M29 9 C-59 9 133 385 232 385 C320 385 130 9 29 9 L29 9 Z " />
<glyph glyph-name="divide" unicode="&#xf7;" horiz-adv-x="270" d="M184 316 C163 316 157 287 173 287 C192 287 201 316 184 316 L184 316 Z M55 242 C48 239 54 229 61 229 C124 229 191 228 265 228 C272 234 265 249 246 249 C206 249 101 248 55 242 L55 242 Z M137 189 C117 189 110 158 125 158 C144 158 154 189 137 189 L137 189 Z " />
<glyph glyph-name="Aogonek" unicode="&#x104;" horiz-adv-x="610" d="M552 166 C519 83 435 7 408 7 C380 7 439 134 508 268 C534 270 565 270 595 270 C603 292 584 298 520 293 C585 423 631 534 643 567 C648 608 632 603 628 599 C581 557 487 444 344 277 C295 272 270 262 279 252 C294 255 312 256 328 258 C215 124 103 8 45 8 C22 8 4 24 4 63 C4 180 162 324 238 308 C241 308 243 326 215 326 C127 326 -10 193 -10 69 C-10 25 13 0 44 0 C122 0 226 123 343 258 C387 263 427 266 479 268 C411 130 351 -1 408 -1 C480 -1 597 166 552 166 L552 166 Z M361 279 C479 416 554 511 622 580 C608 541 555 422 489 290 C436 287 403 285 361 279 L361 279 Z M430 -19 C429 -14 416 -16 408 -19 C327 -53 266 -169 331 -169 C375 -169 423 -94 399 -94 C387 -118 351 -161 327 -161 C296 -161 348 -62 430 -19 L430 -19 Z " />
<glyph glyph-name="aogonek" unicode="&#x105;" horiz-adv-x="360" d="M311 151 C270 100 178 8 147 2 C132 0 161 74 201 158 C300 265 395 392 346 392 C321 392 276 334 232 262 C253 319 268 392 230 392 C182 392 100 312 41 209 C-12 117 -37 0 0 0 C29 0 90 38 154 111 C126 45 114 -7 140 -7 C206 -7 333 151 311 151 L311 151 Z M345 383 C373 385 299 277 215 187 C263 284 321 382 345 383 L345 383 Z M8 10 C-13 10 18 116 64 196 C122 296 195 381 229 381 C258 381 234 281 212 227 C195 197 179 166 165 136 C88 55 26 10 8 10 L8 10 Z M220 -4 C219 1 205 -3 197 -7 C122 -42 67 -149 130 -149 C167 -149 213 -80 191 -80 C179 -104 145 -138 125 -138 C94 -138 148 -43 220 -4 L220 -4 Z " />
<glyph glyph-name="Cacute" unicode="&#x106;" horiz-adv-x="448" d="M541 692 C534 660 517 629 496 601 C485 605 471 608 455 608 C365 608 257 531 175 427 C167 428 158 428 148 428 C60 428 7 373 7 319 C7 286 28 255 70 236 C57 195 49 155 49 117 C49 52 70 -9 148 -9 C309 -9 444 205 400 205 C355 118 242 1 149 1 C105 1 71 24 71 104 C71 143 79 185 93 227 C117 219 146 215 179 215 C453 215 607 509 516 589 C537 615 553 645 557 674 C559 690 548 695 541 692 L541 692 Z M182 224 C148 224 119 228 96 235 C119 297 155 359 197 414 C282 401 319 354 322 323 C359 323 323 403 204 423 C285 525 387 600 464 600 C475 600 484 598 492 594 C458 550 414 515 383 499 C394 484 461 524 509 581 C570 504 423 224 182 224 L182 224 Z M16 321 C17 369 64 418 146 418 L168 417 C127 364 94 304 73 244 C33 262 15 292 16 321 L16 321 Z " />
<glyph glyph-name="cacute" unicode="&#x107;" horiz-adv-x="240" d="M296 525 C272 479 245 447 227 427 C238 409 301 477 307 506 C310 518 302 527 296 525 L296 525 Z M139 267 C126 257 134 236 151 236 C215 236 297 396 219 396 C152 396 66 293 18 193 C-29 95 -37 -9 19 -9 C126 -9 255 206 211 206 C188 158 94 1 19 1 C-21 1 -2 99 46 193 C96 291 173 386 219 386 C255 386 211 266 154 246 C169 259 152 278 139 267 L139 267 Z " />
<glyph glyph-name="Eogonek" unicode="&#x118;" horiz-adv-x="464" d="M259 467 C225 464 239 388 348 388 C469 388 525 457 525 514 C525 568 474 609 370 609 C208 609 117 523 117 433 C117 360 187 322 217 319 C89 315 -23 234 -23 128 C-23 50 41 -8 158 -8 C359 -8 425 130 425 192 C425 267 377 265 377 251 C386 244 398 226 398 192 C398 104 310 2 157 2 C57 2 5 62 5 123 C5 223 114 303 237 312 C296 295 402 290 402 329 C402 348 333 356 239 326 C199 332 145 371 145 433 C145 510 233 599 370 599 C473 599 507 559 507 518 C507 470 449 410 353 410 C301 410 266 435 259 467 L259 467 Z M393 328 C393 308 277 314 254 323 C316 341 393 342 393 328 L393 328 Z M251 -15 C250 -10 237 -12 229 -15 C148 -49 87 -165 152 -165 C196 -165 244 -90 220 -90 C208 -114 172 -157 148 -157 C117 -157 169 -58 251 -15 L251 -15 Z " />
<glyph glyph-name="eogonek" unicode="&#x119;" horiz-adv-x="240" d="M59 191 C49 186 50 156 76 156 C175 156 313 394 220 394 C154 394 75 306 25 212 C-31 108 -53 -8 13 -8 C116 -8 259 199 212 199 C194 164 87 3 12 3 C-79 3 118 384 220 384 C276 384 142 170 76 170 C69 170 60 177 59 191 L59 191 Z M97 -4 C96 1 82 -3 74 -7 C-1 -42 -56 -149 7 -149 C44 -149 90 -80 68 -80 C56 -104 22 -138 2 -138 C-29 -138 26 -43 97 -4 L97 -4 Z " />
<glyph glyph-name="Lslash" unicode="&#x141;" horiz-adv-x="557" d="M417 362 C413 354 424 347 436 347 C526 350 589 470 584 547 C581 583 563 609 529 609 C450 609 374 423 286 258 C226 251 175 240 159 235 C154 233 151 224 158 224 C196 229 236 234 276 238 C237 166 195 100 150 58 C100 68 52 77 17 77 C-32 77 -63 62 -63 45 C-63 25 -15 0 50 0 C85 0 117 13 148 36 C216 20 294 2 367 2 C465 2 501 44 501 77 C501 105 465 124 429 124 C345 124 328 91 344 87 C352 96 378 112 429 112 C465 112 493 95 493 75 C493 48 457 23 367 23 C312 23 239 39 170 54 C220 99 266 168 307 241 C363 246 413 248 445 244 C450 251 454 268 419 268 C387 268 352 266 318 262 C406 424 475 601 530 601 C560 601 573 576 574 543 C575 471 510 355 417 362 L417 362 Z M49 9 C1 9 -51 24 -51 42 C-51 51 -23 58 15 58 C46 58 86 50 130 40 C104 20 77 9 49 9 L49 9 Z " />
<glyph glyph-name="lslash" unicode="&#x142;" horiz-adv-x="250" d="M451 534 C451 534 449 514 382 514 C361 514 342 515 324 516 C335 540 335 555 319 555 C308 555 290 542 267 518 L229 519 C176 519 160 494 167 489 C177 500 203 505 230 505 L254 504 C200 442 125 330 55 197 C-1 91 -35 -1 6 -1 C99 -1 299 245 251 245 C180 137 52 9 8 9 C-26 9 80 203 120 263 C207 346 284 441 316 499 C333 498 354 497 379 497 C441 497 456 522 456 531 C456 534 453 536 451 534 L451 534 Z M319 545 C325 545 322 534 312 516 L288 517 C303 535 314 545 319 545 L319 545 Z M128 285 C183 375 238 456 275 503 L303 500 C272 450 208 365 128 285 L128 285 Z " />
<glyph glyph-name="Nacute" unicode="&#x143;" horiz-adv-x="488" d="M410 516 C427 516 497 585 503 618 C505 631 501 636 491 636 C449 550 396 516 410 516 L410 516 Z M557 535 C519 535 288 357 189 198 L188 196 C300 423 418 608 334 608 C123 608 -62 260 67 260 C152 260 246 440 202 427 C208 386 117 265 69 265 C-43 265 176 600 329 600 C393 600 200 322 82 22 C36 12 -2 -3 -7 -10 C-10 -13 -6 -17 -1 -17 C77 12 181 11 192 6 C195 11 201 30 156 30 C141 30 125 29 110 26 C120 51 131 76 142 101 C244 292 469 486 543 515 C534 498 223 -12 339 -12 C418 -12 506 129 467 129 C437 51 364 -5 339 -5 C288 -5 473 351 566 499 C571 517 568 535 557 535 L557 535 Z " />
<glyph glyph-name="nacute" unicode="&#x144;" horiz-adv-x="360" d="M336 525 C312 479 285 447 267 427 C278 409 341 477 347 506 C350 518 342 527 336 525 L336 525 Z M329 402 C303 402 191 310 86 173 C134 263 188 354 221 400 C221 400 219 432 205 421 C201 418 77 232 -7 21 C-45 14 -78 1 -82 -4 C-84 -7 -81 -10 -77 -10 C-15 13 67 12 76 8 C79 12 83 27 48 27 C37 27 25 26 13 24 C24 50 38 79 53 110 C154 258 301 385 324 385 C327 385 310 351 279 289 C219 175 127 -5 178 -5 C258 -5 335 113 300 113 C254 41 201 5 180 5 C139 5 347 345 347 387 C347 395 341 402 329 402 L329 402 Z " />
<glyph glyph-name="Sacute" unicode="&#x15a;" horiz-adv-x="422" d="M508 718 C489 673 449 633 436 621 C452 609 513 670 521 702 C524 714 515 718 508 718 L508 718 Z M391 611 C495 609 538 559 538 501 C538 438 475 377 396 377 C373 377 363 389 367 394 C460 394 512 447 512 505 C512 567 456 600 390 600 C310 600 221 557 221 478 C221 365 400 360 400 210 C400 104 306 -8 150 -8 C9 -8 -42 78 -42 146 C-42 247 49 328 169 328 C214 328 218 300 204 296 C117 326 -20 256 -20 140 C-20 60 55 3 151 3 C276 3 373 94 373 208 C373 338 197 350 197 472 C197 553 283 613 391 611 L391 611 Z " />
<glyph glyph-name="sacute" unicode="&#x15b;" horiz-adv-x="270" d="M329 525 C305 479 278 447 260 427 C271 409 334 477 340 506 C343 518 335 527 329 525 L329 525 Z M244 397 C183 397 134 353 137 269 C138 230 153 182 153 146 C155 74 122 1 50 1 C27 1 -7 22 -7 73 C-7 125 40 194 106 194 C106 195 107 195 107 196 C107 200 97 205 87 205 C26 205 -28 140 -28 79 C-28 17 13 -9 51 -9 C137 -9 178 67 177 145 C177 181 161 234 160 272 C157 348 201 387 244 387 C277 387 294 365 294 338 C294 306 271 265 233 254 C238 258 240 266 240 270 C240 277 234 282 228 282 C216 282 209 272 209 262 C209 254 215 244 227 244 C271 244 313 293 313 335 C313 368 288 397 244 397 L244 397 Z " />
<glyph glyph-name="Zacute" unicode="&#x179;" horiz-adv-x="500" d="M447 516 C464 516 534 585 540 618 C542 631 538 636 528 636 C486 550 433 516 447 516 L447 516 Z M563 526 C537 526 494 477 443 409 C431 405 417 403 404 403 C364 403 434 633 383 633 C310 633 233 560 180 476 C173 477 166 477 159 477 C93 477 63 441 81 441 C92 456 124 470 156 470 C163 470 169 470 176 469 C104 352 76 217 158 217 C238 217 314 426 204 469 C256 552 326 623 381 623 C417 623 327 395 401 395 C413 395 425 397 436 399 C394 341 347 271 304 205 C186 153 74 -7 144 -7 C182 -7 254 93 329 206 C341 210 354 212 367 212 C412 212 262 -10 327 -10 C380 -10 456 85 427 85 C419 61 364 -2 334 -2 C303 -2 451 222 373 222 C361 222 348 220 336 217 C379 283 423 352 461 407 C543 440 600 526 563 526 L563 526 Z M560 517 C584 517 535 451 469 420 C510 477 543 517 560 517 L560 517 Z M162 224 C94 224 131 351 200 462 C301 420 229 224 162 224 L162 224 Z M141 0 C101 0 192 141 296 193 C226 88 165 0 141 0 L141 0 Z " />
<glyph glyph-name="zacute" unicode="&#x17a;" horiz-adv-x="300" d="M304 525 C280 479 253 447 235 427 C246 409 309 477 315 506 C318 518 310 527 304 525 L304 525 Z M290 390 C276 390 253 359 224 320 C202 305 181 295 171 295 C150 295 224 416 170 416 C92 416 5 242 44 242 C51 270 126 406 170 406 C187 406 120 284 167 284 C179 284 194 291 208 297 C183 262 150 218 120 177 C9 138 -81 -11 -26 -11 C2 -11 57 79 127 169 C138 174 149 176 158 176 C182 176 67 -8 135 -8 C186 -8 263 106 227 106 C216 82 159 0 135 0 C100 0 225 188 160 188 C153 188 144 185 137 183 C165 218 204 271 228 305 C277 335 315 390 290 390 L290 390 Z M-26 -2 C-48 -2 35 122 110 163 C51 86 -9 -2 -26 -2 L-26 -2 Z " />
<glyph glyph-name="Zdotaccent" unicode="&#x17b;" horiz-adv-x="500" d="M559 526 C533 526 490 477 439 409 C427 405 413 403 400 403 C360 403 430 633 379 633 C306 633 229 560 176 476 C169 477 162 477 155 477 C89 477 59 441 77 441 C88 456 120 470 152 470 C159 470 165 470 172 469 C100 352 72 217 154 217 C234 217 310 426 200 469 C252 552 322 623 377 623 C413 623 323 395 397 395 C409 395 421 397 432 399 C390 341 343 271 300 205 C182 153 70 -7 140 -7 C178 -7 250 93 325 206 C337 210 350 212 363 212 C408 212 258 -10 323 -10 C376 -10 452 85 423 85 C415 61 360 -2 330 -2 C299 -2 447 222 369 222 C357 222 344 220 332 217 C375 283 419 352 457 407 C539 440 596 526 559 526 L559 526 Z M484 564 C493 564 504 577 504 587 C504 594 501 599 493 599 C482 599 473 587 473 577 C473 569 477 564 484 564 L484 564 Z M556 517 C580 517 531 451 465 420 C506 477 539 517 556 517 L556 517 Z M158 224 C90 224 127 351 196 462 C297 420 225 224 158 224 L158 224 Z M137 0 C97 0 188 141 292 193 C222 88 161 0 137 0 L137 0 Z " />
<glyph glyph-name="zdotaccent" unicode="&#x17c;" horiz-adv-x="300" d="M257 443 C271 443 286 463 286 478 C286 488 282 496 271 496 C254 496 241 478 241 463 C241 451 247 443 257 443 L257 443 Z M290 390 C276 390 253 359 224 320 C202 305 181 295 171 295 C150 295 224 416 170 416 C92 416 5 242 44 242 C51 270 126 406 170 406 C187 406 120 284 167 284 C179 284 194 291 208 297 C183 262 150 218 120 177 C9 138 -81 -11 -26 -11 C2 -11 57 79 127 169 C138 174 149 176 158 176 C182 176 67 -8 135 -8 C186 -8 263 106 227 106 C216 82 159 0 135 0 C100 0 225 188 160 188 C153 188 144 185 137 183 C165 218 204 271 228 305 C277 335 315 390 290 390 L290 390 Z M-26 -2 C-48 -2 35 122 110 163 C51 86 -9 -2 -26 -2 L-26 -2 Z " />
<glyph glyph-name="endash" unicode="&#x2013;" horiz-adv-x="230" d="M47 236 C60 240 128 249 190 249 C229 249 224 232 221 228 C156 232 97 228 56 226 C49 227 43 233 47 236 L47 236 Z " />
<glyph glyph-name="emdash" unicode="&#x2014;" horiz-adv-x="300" d="M31 234 C39 236 156 250 281 250 C311 250 317 231 308 227 C243 231 80 225 40 222 C29 223 24 232 31 234 L31 234 Z " />
<glyph glyph-name="quoteleft" unicode="&#x2018;" horiz-adv-x="50" d="M258 578 C263 585 244 588 234 573 C199 521 160 444 160 436 C160 431 163 428 166 431 C192 474 233 543 258 578 L258 578 Z " />
<glyph glyph-name="quoteright" unicode="&#x2019;" horiz-adv-x="50" d="M243 580 C247 582 256 578 254 565 C254 555 166 431 150 431 C147 431 145 433 145 434 C172 472 220 541 243 580 L243 580 Z " />
<glyph glyph-name="quotedblleft" unicode="&#x201c;" horiz-adv-x="100" d="M258 578 C263 585 244 588 234 573 C199 521 160 444 160 436 C160 431 163 428 166 431 C192 474 233 543 258 578 L258 578 Z M313 578 C318 585 299 588 289 573 C254 521 215 444 215 436 C215 431 218 428 221 431 C247 474 288 543 313 578 L313 578 Z " />
<glyph glyph-name="quotedblright" unicode="&#x201d;" horiz-adv-x="100" d="M244 580 C248 582 257 578 255 565 C255 555 167 431 151 431 C148 431 146 433 146 434 C173 472 221 541 244 580 L244 580 Z M304 580 C308 582 317 578 315 565 C315 555 227 431 211 431 C208 431 206 433 206 434 C233 472 281 541 304 580 L304 580 Z " />
<glyph glyph-name="dagger" unicode="&#x2020;" horiz-adv-x="280" d="M304 353 C282 353 256 352 232 350 L281 438 C289 451 267 455 253 436 C242 414 225 384 207 348 L138 343 C128 341 125 330 130 330 C136 329 156 331 198 332 C155 252 100 148 50 51 C43 33 54 26 58 34 C118 142 170 239 222 333 L294 334 C305 335 319 353 304 353 L304 353 Z " />
<glyph glyph-name="guilsinglleft" unicode="&#x2039;" horiz-adv-x="245" d="M235 314 C227 314 68 254 19 209 C14 205 12 192 19 190 C64 178 135 150 176 128 C185 127 181 140 175 144 C146 164 72 193 38 202 C83 235 203 279 234 288 C240 293 250 314 235 314 L235 314 Z " />
<glyph glyph-name="guilsinglright" unicode="&#x203a;" horiz-adv-x="200" d="M82 347 C90 347 173 305 217 267 C221 263 223 251 217 250 C171 239 81 211 28 185 C22 184 24 193 30 197 C56 218 168 252 200 260 C159 290 112 314 85 326 C78 331 69 347 82 347 L82 347 Z " />
<glyph glyph-name="franc" unicode="&#x20a3;" horiz-adv-x="250" d="M320 402 C293 402 225 397 175 392 L196 427 C194 441 187 456 176 445 C173 442 161 421 143 389 L117 387 C109 387 114 373 126 373 L134 374 C100 310 48 213 -5 112 C-25 110 -42 108 -47 107 C-52 105 -48 98 -41 97 C-31 97 -22 97 -13 97 L-54 19 C-60 4 -52 -6 -46 4 C-29 33 -11 65 7 97 L98 98 C106 102 97 116 81 116 C73 116 45 115 16 113 L75 219 C109 222 237 229 251 227 C262 233 251 249 232 249 C221 249 123 239 85 236 C111 283 138 331 165 375 C220 377 315 381 344 379 C351 381 351 402 320 402 L320 402 Z " />
<glyph glyph-name="Euro" unicode="&#x20ac;" horiz-adv-x="575" d="M440 417 C343 417 227 347 166 249 L77 249 C66 249 77 236 90 236 L158 235 C149 219 142 203 136 186 L87 186 C75 186 89 173 102 173 L132 173 C127 153 124 132 124 111 C124 55 164 0 239 0 C399 0 486 136 461 133 C399 58 314 12 241 12 C182 12 149 53 149 111 C149 131 153 151 160 172 L350 170 C363 170 378 188 366 188 L165 187 C172 203 180 219 190 234 L389 231 C402 231 418 249 406 249 L199 249 C257 334 357 405 449 405 C554 405 533 292 508 270 C559 258 594 417 440 417 L440 417 Z " />
<glyph glyph-name="uni2117" unicode="&#x2117;" horiz-adv-x="203" d="M280 506 C218 506 170 457 170 405 C170 372 197 349 231 349 C274 349 337 388 337 451 C337 484 309 506 280 506 L280 506 Z M228 356 C204 356 179 371 179 404 C179 462 239 499 277 499 C310 499 328 477 328 453 C328 403 278 356 228 356 L228 356 Z M243 438 C254 450 263 459 275 459 C295 459 278 415 252 415 C246 415 242 419 242 424 C233 422 235 405 252 405 C292 405 309 468 278 468 C267 468 257 462 247 450 L258 466 C262 472 249 472 245 465 C240 456 228 435 207 390 C208 387 215 388 219 394 C221 398 229 415 239 433 L243 438 Z " />
<glyph glyph-name="uni2120" unicode="&#x2120;" horiz-adv-x="200" d="M278 499 L275 540 C274 543 264 554 259 543 C248 521 247 521 217 456 C215 451 226 451 231 460 C236 468 247 490 263 521 C263 511 265 494 265 492 C266 486 272 482 275 484 C284 491 301 505 319 521 C313 510 306 495 286 453 C284 447 295 447 300 456 C305 465 335 521 341 537 C341 540 335 551 329 545 L278 499 Z M206 515 C203 512 205 507 213 507 C222 507 234 515 234 528 C234 537 225 548 203 548 C182 548 168 533 168 520 C168 497 196 492 196 478 C196 470 189 460 171 460 C163 460 155 465 155 473 C155 481 162 484 165 485 C166 486 165 490 161 490 C152 490 143 482 143 471 C143 459 155 449 170 449 C204 449 209 470 209 479 C209 499 182 502 182 520 C182 530 194 538 206 538 C215 538 222 534 222 527 C222 520 213 515 206 515 L206 515 Z " />
<glyph glyph-name="trademark" unicode="&#x2122;" horiz-adv-x="200" d="M282 497 L279 538 C278 540 269 551 263 541 C253 519 251 519 221 454 C219 449 230 449 236 458 C240 465 251 487 266 518 C267 509 270 492 270 489 C270 484 277 480 280 482 L323 519 C317 508 310 495 290 451 C287 445 299 445 305 453 C310 462 338 517 344 533 C344 536 339 548 333 543 L282 497 Z M237 529 C245 530 252 543 246 543 C234 543 227 542 154 541 C147 540 153 530 165 530 C170 530 178 530 190 530 L152 454 C149 449 161 448 167 456 C172 465 186 492 209 530 L237 529 L237 529 Z " />
<glyph glyph-name="minus" unicode="&#x2212;" horiz-adv-x="300" d="M66 237 C79 241 168 250 243 250 C282 250 277 233 274 229 C209 233 116 229 75 227 C68 228 62 234 66 237 L66 237 Z " />
</font>
</svg>
