<?xml version="1.0" encoding="utf-8"?>
<!-- Generator: Adobe Illustrator 19.2.1, SVG Export Plug-In . SVG Version: 6.00 Build 0)  -->
<svg version="1.1" id="Layer_1" xmlns="http://www.w3.org/2000/svg" xmlns:xlink="http://www.w3.org/1999/xlink" x="0px" y="0px"
	 viewBox="0 0 733.7 518.4" enable-background="new 0 0 733.7 518.4" xml:space="preserve">
<g>
	<g>
		<path fill="#474A58" d="M121,82.3v2.9H77.9v-2.9h8.8l-6-20.6H54.5l-2.8,9.6l13.8,11.5v2.4H34.5v-2.4l11.9-11.4L63.8,9.7l-2.2-8.5
			h29.2l25.3,81.1H121z M79.4,57.2L67.3,15.6L55.7,57.2H79.4z"/>
		<path fill="#474A58" d="M205.6,61.8c0,12.8-12.1,23.4-40.3,23.4h-43.1v-2.9h10V4.1h-10V1.2h40.7c24.6,0,37.1,6.5,37.1,18.5
			c0,11.5-11.4,19.9-29.5,20.9C191.5,41.9,205.6,48,205.6,61.8z M159.8,4.1v35h1.9c8.4,0,10.6-6.5,10.6-16.2
			C172.3,11.9,169.5,4.3,159.8,4.1z M177.9,62.3c0-12.5-3.5-19.6-16.7-19.6h-1.4v39.6h1.9C175,82.3,177.9,73.6,177.9,62.3z"/>
		<path fill="#474A58" d="M239.8,42.2c0,31,4,40.8,14.4,40.8c2.8,0,5-0.6,5.2-0.6l18-24.1h1.8v23.9c-0.1,0-12.1,4.2-28.6,4.2
			c-26.4,0-39.6-10.7-39.6-39.6c0-35,19.4-46.8,43.3-46.8c12.8,0,24.8,3.5,24.8,3.5v23.9h-2L259.4,4.1c0,0-1.9-0.6-4.8-0.6
			C243.3,3.5,239.8,13.4,239.8,42.2z"/>
		<path fill="#474A58" d="M370.6,39.8c0,26-13.4,45.4-45.7,45.4h-41.4v-2.9h10V4.1h-10V1.2h41.4C357.2,1.2,370.6,10.3,370.6,39.8z
			 M341.8,40.9c0-24.5-3.8-36.8-19.3-36.8h-1.4v78.2h1.4C338,82.3,341.8,65.4,341.8,40.9z"/>
		<path fill="#474A58" d="M445,59.9v25.3h-70.2v-2.9h10V4.1h-10V1.2h67.1v22.6h-2.2L424,4.1h-11.6v36.1h7.6l12.8-10.6h1.9v24h-1.9
			l-12.8-10.6h-7.6v39.2h12.5l17.8-22.4H445z"/>
		<path fill="#474A58" d="M516.9,23.8h-2.2L499,4.1h-12V42h6.8l12.8-10.6h1.9v24h-1.9l-12.8-10.6H487v37.4h14.5v2.9h-52.1v-2.9h10
			V4.1h-10V1.2h67.4V23.8z"/>
		<path fill="#474A58" d="M602.7,46.3l-5.6,2v36.8h-2.5l-7.2-9.1c-6,5.2-15.5,10.3-29.8,10.3c-20.5,0-34.4-10.9-34.4-40
			C523.1,12,542.6,0,567.1,0c12.2,0,27.2,3,27.2,3v23.9h-1.8L576.3,4.7c0,0-2.8-1.2-7.1-1.2c-10.6,0-17.3,9.7-17.3,41.8
			c0,30.5,3.8,37,12.1,37c3.1,0,6.6-0.7,6.6-0.7V48.4l-9.4-2v-1.9h41.4V46.3z"/>
		<path fill="#474A58" d="M689.2,4.1v78.2h10v2.9H656v-2.9h5.6V45.2h-18.7v37.1h5.6v2.9h-43.2v-2.9h10V4.1h-10V1.2h43.2v2.9h-5.6
			v36.7h18.7V4.1H656V1.2h43.2v2.9H689.2z"/>
		<path fill="#474A58" d="M41.3,226.8v2.4H0v-2.4h7.4v-60H0v-2.4c12.6,0,23.9-0.4,32.2-1.2l1.7,0.7v62.9H41.3z M6.5,145.3
			c0-7.7,5.3-12.8,14.2-12.8c8.8,0,14,5.2,14,12.8c0,7.8-5.3,13-14,13C11.8,158.3,6.5,153.1,6.5,145.3z"/>
		<path fill="#474A58" d="M51.6,229.6v-62.8h-7.4v-2.4c12.6,0,23.9-0.4,32.2-1.2l1.7,0.7V216c0,34-25.7,37.2-35.5,37.2
			c-2.8,0-3.6-0.2-3.6-0.2v-2.6c0,0,0.6,0.1,1.3,0.1C43.7,250.4,51.6,248.5,51.6,229.6z M50.6,145.3c0-7.7,5.3-12.8,14.2-12.8
			c8.8,0,14,5.2,14,12.8c0,7.8-5.3,13-14,13C55.9,158.3,50.6,153.1,50.6,145.3z"/>
		<path fill="#474A58" d="M120.6,226.8h4.4v2.4H87.4v-2.4h6.8v-79.2h-7.4v-2.4c11.5-1,22.2-3.8,31.6-10.8l2.3,0.8V226.8z
			 M163.4,226.8v2.4h-32.9l-8.2-39.5l15.4-11.8l-7.8-11.9v-1.7c10,0,19.9-0.2,29.6-1.2l1,2.6l-32.3,23.9h20.5l8.8,37.1H163.4z"/>
		<path fill="#474A58" d="M206.5,226.8v2.4h-41.3v-2.4h7.4v-79.2h-7.4v-2.4c11.5-1,22.2-3.8,31.6-10.8l2.3,0.8v91.6H206.5z"/>
		<path fill="#474A58" d="M320.3,226.8v2.4h-33.4v-45c0-5.9-0.8-9.7-3.1-9.7c-3.2,0-5.4,7.8-5.4,16.1v0.5v35.8h4v2.4H252v-45
			c0-5.9-0.8-9.7-3.1-9.7c-3.2,0-5.4,7.8-5.4,16.1v36.2h2.9v2.4h-36.7v-2.4h7.4v-60h-7.4v-2.4c11.4,0,21.7-0.4,29.3-1.2l1.7,0.7
			l0.6,16c3.4-13,11-16.7,19.3-16.7c9.4,0,14.3,4.7,16.6,13.7c3.6-10.6,10.7-13.7,18.4-13.7c13.3,0,17.9,9.6,17.9,27.8v35.8H320.3z"
			/>
		<path fill="#474A58" d="M397.8,226.8v2.4h-33v-45c0-5.9-0.8-9.7-3.1-9.7c-3.2,0-5.4,7.8-5.4,16.1v36.2h2.9v2.4h-36.7v-2.4h7.4v-60
			h-7.4v-2.4c11.4,0,21.7-0.4,29.3-1.2l1.7,0.7l0.6,16c3.4-13,11-16.7,19.3-16.7c13.3,0,17.9,9.6,17.9,27.8v35.8H397.8z"/>
		<path fill="#474A58" d="M401.5,197.9c0-22.2,11.4-34.7,34-34.7c20.8,0,31.8,10.6,31.8,32.5c0,22.2-11.4,34.7-34,34.7
			C412.6,230.4,401.5,219.8,401.5,197.9z M439.6,199.7c0-21.2-1.7-32.9-5.6-32.9c-3.2,0-4.7,7.4-4.7,27.1c0,21.2,1.7,32.9,5.6,32.9
			C438.1,226.8,439.6,219.4,439.6,199.7z"/>
		<path fill="#474A58" d="M505.8,230.3v19.3h7.7v2.4H472v-2.4h7.4v-82.8H472v-2.4c11.4,0,21.6-0.4,29.2-1.2l1.7,0.7l0.6,14.2
			c2.8-8.6,8.9-14.9,18-14.9c11.5,0,20.8,10.2,20.8,29.9c0,21.5-11.3,37.3-32.5,37.3C508.3,230.4,507,230.3,505.8,230.3z M505.8,189
			v37.7c8.4-0.8,9.6-13,9.6-27.4c0-19.7-2.3-25.1-4.8-25.1C508.1,174.2,505.8,179.6,505.8,189z"/>
		<path fill="#474A58" d="M618.8,249.6v2.4h-45.1v-2.4h11v-16.1c0-5.2,0.4-10.1,0.8-14c-3,6.1-8.2,10.9-16.3,10.9
			c-12,0-20.9-10.4-20.9-29.4c0-22.3,12.4-37.8,41.8-37.8c12.6,0,21,2.9,21,2.9v83.5H618.8z M584.8,204.8v-38.2
			c-8.4,3.6-9.6,15.6-9.6,28.6c0,18.5,2.4,24.1,5,24.1C582.7,219.4,584.8,214.1,584.8,204.8z"/>
		<path fill="#474A58" d="M681.9,176c0,7.6-5,12.7-12.7,12.7c-2,0-4-0.4-4-0.4l-1.2-18.8c0,0-0.5-0.1-1-0.1
			c-4.4,0-7.9,11.5-7.9,26.2v31.2h10.1v2.4h-43.9v-2.4h7.4v-60h-7.4v-2.4c11.2,0,21.2-0.4,28.6-1.2l1.7,0.7l0.6,21.8
			c2-17.2,7.7-22.6,16.1-22.6C676.4,163.2,681.9,168.2,681.9,176z"/>
		<path fill="#474A58" d="M733.7,209.8c0,10.9-8.5,20.6-26.6,20.6c-12,0-23.5-4.3-23.5-13.9c0-5.9,4.2-7.1,6.7-7.1
			c1.1,0,1.8,0.2,1.8,0.2l9.4,16.8c0,0,2.2,0.7,4,0.7c3.8,0,5.5-3.1,5.5-6.6c0-4.1-2.4-7.8-8.5-12.2l-7-5
			c-7.4-5.4-10.3-11.3-10.3-17.8c0-12.2,10.3-22.3,26.8-22.3c10.8,0,20,4.3,20,13.1c0,6-4.3,6.8-6.8,6.8c-1,0-1.7-0.1-1.7-0.1
			l-8.4-17.4c0,0-0.7-0.1-1.3-0.1c-3,0-6.1,3.6-6.1,9.1c0,5.9,3.6,8.9,9.5,13.1l5.6,4.1C731.3,198,733.7,204,733.7,209.8z"/>
		<path fill="#474A58" d="M160.6,357.2c0,0-2.9,17-20.6,17c-11.5,0-19.3-7.4-19.3-21.6v-41.9h-8.9v-2.4h8.9v-9.1
			c11.3-0.5,19.1-3,24.8-7.9l1.6,0.6v16.4h12.2v2.4h-12.2v47.4c0,5.8,1.4,7.1,3.1,7.1c4.6,0,6.8-9.2,6.8-9.2L160.6,357.2z"/>
		<path fill="#474A58" d="M237.8,370.8v2.4h-28.4l-2-16.6c-3.2,13.8-11,17.8-19.6,17.8c-13.3,0-17.9-9.6-17.9-27.8v-35.8h-7.4v-2.4
			c12.6,0,23.9-0.4,32.2-1.2l1.7,0.7v45.5c0,5.9,0.8,9.7,3.1,9.7c3.2,0,5.4-7.8,5.4-16.1v-36.2h-2.9v-2.4h29.3v62.4H237.8z"/>
		<path fill="#474A58" d="M306.8,307.2l2,1.2L287,373.2h-24.2l-17.6-62.4h-7v-2.4c11.3,0.1,22.4-0.1,33.4-1.2l2,0.7l12.8,54.4
			l12.5-36.7l-16.6-15.5v-1.7C290.3,308.4,298.7,308.4,306.8,307.2z"/>
		<path fill="#474A58" d="M412.1,307.2l2,0.7l-21.2,65.3h-20.5l-10.9-37.9l-8.6,37.9h-20.2l-18-62.3h-6.2v-2.5
			c10.7,0,20.9-0.4,31-1.2l2,0.7l11.8,44.4l10.3-43.9h18l13.3,46.1l9.1-28.9l-15.4-15.5v-1.7C396.4,308.5,404.3,308.3,412.1,307.2z"
			/>
		<path fill="#474A58" d="M487.1,370.8v2.4h-32.4l-15.4-28.6l-7.7,12.2l10.9,14.6v1.7h-24.8v-2.4l19.3-30.4l-16-29.6h-5.9v-2.4
			c10.2,0,20-0.2,29.8-1.2l2.5,0.7l15.8,29.2l8.2-13l-10.8-14v-1.7c8.3,0.1,16.4-0.2,24.2-1.2l0.8,0.7l-20.2,33.4l16,29.5H487.1z"/>
		<path fill="#474A58" d="M556,307.9l-29.8,89.3l-21.1-4.4l25.9-25h-22.6l-16.1-57h-7.1v-2.4c11.2,0,22.2-0.1,33.4-1.2l1.9,0.7
			l13.1,54.5l12.4-36.8l-16.6-15.5v-1.7c8.5,0,17-0.1,25.6-1.2L556,307.9z"/>
		<path fill="#474A58" d="M616,348.4h1.9v24.8h-57.6l-0.8-2.4l29.6-59.2h-9.6l-16,20.5h-1.9v-23.8h57l0.8,2.4L588.3,370h10.2
			L616,348.4z"/>
		<path fill="#474A58" d="M67.7,514.6v2.6H13.2v-2.6h14.2v-69.1l-16.6,1.9l-0.5-4.2C25.4,441,40,437.3,54,432v82.6H67.7z"/>
		<path fill="#474A58" d="M140.9,484.8l-2.2,32.4H72l-0.8-2l14.4-17c11.9-14,20.3-27.6,20.3-41.8c0-9.1-3.5-19-11.8-19
			c-2.2,0-3.8,0.6-3.8,0.6l-15.8,22.2H72V436c0,0,12.4-4,28.1-4c21.6,0,33.6,7.6,33.6,21.6c0,18-19.7,28.1-31.3,34.8l-4.6,2.6h36.4
			l4.3-6.2H140.9z"/>
		<path fill="#474A58" d="M210.7,492.5c0,21.7-26,25.9-37.9,25.9c-11.2,0-23.5-3.7-23.5-3.7v-22.1h2.4l15.4,21.1c0,0,2,0.6,4.1,0.6
			c5.4,0,11.8-4.3,11.8-18.4c0-13.2-5.5-18.4-13-18.4c-5.4,0-9.7,2.8-9.7,2.8l-2.3-4.1l31.7-20.2h-30.1l-6.8,9.1h-1.9v-32h56.6
			l0.5,17.6l-36.6,22.4c3-0.8,6.7-1.4,11.5-1.4C195.7,471.8,210.7,476,210.7,492.5z"/>
		<path fill="#474A58" d="M276,493.4v20.9h10.7v2.9H238v-2.9h10.7v-20.8h-32.5l-1.3-2.4L248,432l28.8,4.8l-47,53h18.8v-13.9
			c10.8-2.9,19.2-8.2,25.2-16.4l2.2,0.4v30h10.7v3.6H276z"/>
		<path fill="#474A58" d="M351.7,491.5c0,17-13.1,26.9-36.2,26.9c-14.3,0-24.2-3.7-24.2-3.7v-22.1h2.4l15.4,21.1c0,0,1.9,0.6,4,0.6
			c6.4,0,10.8-6.6,10.8-17.5c0-12.2-5.6-19.2-15.4-19.2c-6.8,0-13.4,3.4-13.4,3.4l3.6-47.8h41.2l6.1-4.8h2.4l-2.8,29.2l-44.4,0.1
			l-1.2,14.6c4.1-2.6,12.2-6.7,23.4-6.7C340.7,465.6,351.7,475.8,351.7,491.5z"/>
		<path fill="#474A58" d="M426.2,488.6c0,18-11.9,29.8-33.6,29.8c-19.1,0-34.3-8.8-34.3-38.9c0-37.7,20.5-47.5,43.1-47.5
			c12.5,0,21.4,2.8,21.4,2.8v21.8h-2.5l-14.8-20.4c0,0-1.3-0.4-3.2-0.4c-10.7,0-15.4,14.6-16.3,37.9c3.6-5.2,9.4-8.8,18.2-8.8
			C418,465,426.2,474.4,426.2,488.6z M398.9,494.3c0-10-1.3-19.8-6.4-19.8c-2.5,0-5.2,1.7-6.8,6v3c0,21,2.5,31,7.2,31
			C396.8,514.4,398.9,507,398.9,494.3z"/>
		<path fill="#474A58" d="M476,514.3h10.8v2.9h-47.8v-2.9h9.1v-7.2c0-19,10.9-34.7,28.4-49.8h-32.3l-7.4,9.4h-2.4v-33.5h56.9
			l1.4,2.6c-10.4,24.1-17.2,47.5-16.9,70.1L476,514.3z"/>
		<path fill="#474A58" d="M566,493.4c0,15.4-12.5,25-34.8,25c-19.6,0-31.2-7.3-31.2-19.7c0-10.8,8.9-16.3,17-19.2l-3.1-2.2
			c-9.5-6.6-11.2-13.8-11.2-19.6c0-15.5,12.2-25.8,31.6-25.8c16.4,0,28.3,7.4,28.3,18.8c0,9.6-8.4,14.2-16,16.3l6.5,4.4
			C562.7,478.2,566,485.4,566,493.4z M540.5,504.6c0-7.1-4.4-11.9-9.8-15.6l-3.8-2.6c-1.1,3.6-2,8-2,12.6c0,8,3,15.5,8.8,15.5
			C538,514.4,540.5,510,540.5,504.6z M526.4,445.1c0,5.2,2.9,10.1,8,13.7l4.7,3.2c1.8-3.4,2.5-6.5,2.5-10.8c0-8.6-3-15.2-8.2-15.2
			C529.6,436,526.4,439.8,526.4,445.1z"/>
		<path fill="#474A58" d="M640.8,470.9c0,37.7-20.5,47.5-43.1,47.5c-12.5,0-21.4-2.8-21.4-2.8v-21.8h2.5l14.8,20.4
			c0,0,1.3,0.4,3.2,0.4c10.7,0,15.4-14.6,16.3-37.9c-3.6,5.2-9.4,8.8-18.2,8.8c-13.8,0-22.1-9.4-22.1-23.6c0-18,11.9-29.8,33.6-29.8
			C625.6,432,640.8,440.8,640.8,470.9z M613.4,469.9v-3c0-21-2.5-31-7.2-31c-4,0-6,7.4-6,20.2c0,10,1.3,19.8,6.4,19.8
			C609.1,475.9,611.8,474.2,613.4,469.9z"/>
		<path fill="#474A58" d="M648,476.4c0-29.2,12.7-44.4,37.1-44.4c23.4,0,35.5,14.6,35.5,42.7c0,28.7-12.7,43.7-37.2,43.7
			C660.1,518.4,648,504,648,476.4z M692.4,477c0-29.2-2.4-40.8-8.5-40.8c-5.5,0-7.7,10.8-7.7,37.7c0,28.8,2.4,40.3,8.5,40.3
			C690.2,514.2,692.4,503.5,692.4,477z"/>
	</g>
</g>
</svg>
