<?xml version="1.0" encoding="UTF-8"?>
<svg width="32px" height="32px" viewBox="0 0 32 32" version="1.1" xmlns="http://www.w3.org/2000/svg" xmlns:xlink="http://www.w3.org/1999/xlink">
    <!-- Generator: Sketch 40.3 (33839) - http://www.bohemiancoding.com/sketch -->
    <title>dm</title>
    <desc>Created with Sketch.</desc>
    <defs></defs>
    <g id="Screens" stroke="none" stroke-width="1" fill="none" fill-rule="evenodd">
        <g id="Desktop-Copy-4" transform="translate(-442.000000, -3081.000000)" fill="#000000">
            <g id="dm" transform="translate(442.000000, 3081.000000)">
                <g id="Layer_1">
                    <path d="M15.7191115,0 C7.04176244,0 0,7.16306613 0,15.9898941 C0,24.816722 7.04176244,31.9797881 15.7191115,31.9797881 C24.3964606,31.9797881 31.4382231,24.816722 31.4382231,15.9898941 C31.4382231,7.16306613 24.4027033,0 15.7191115,0 L15.7191115,0 Z M6.74835567,21.4637974 L6.74835567,18.7204955 C8.2341176,18.7204955 9.44520086,17.4885498 9.44520086,15.9771936 C9.44520086,14.4658375 8.2341176,13.2338917 6.74835567,13.2338917 L6.74835567,10.4905898 C9.71987954,10.4905898 12.1420461,12.9354306 12.1420461,15.9771936 C12.123318,19.0126064 9.71987954,21.4637974 6.74835567,21.4637974 L6.74835567,21.4637974 Z M16.6180599,21.4637974 L13.9212148,21.4637974 L13.9212148,14.1419754 L16.6180599,17.7997113 L16.6180599,21.4637974 L16.6180599,21.4637974 Z M24.7148382,21.4637974 L22.017993,21.4637974 L22.017993,14.1419754 L19.3211478,17.7997113 L13.9212148,10.4842395 L16.6180599,10.4842395 L19.3149051,14.1419754 L22.0117503,10.4842395 L24.7085955,10.4842395 L24.7085955,21.4637974 L24.7148382,21.4637974 Z" id="Shape"></path>
                </g>
            </g>
        </g>
    </g>
</svg>