<?xml version="1.0" encoding="UTF-8"?>
<svg width="84px" height="21px" viewBox="0 0 84 21" version="1.1" xmlns="http://www.w3.org/2000/svg" xmlns:xlink="http://www.w3.org/1999/xlink">
    <!-- Generator: Sketch 40.3 (33839) - http://www.bohemiancoding.com/sketch -->
    <title>monitor</title>
    <desc>Created with Sketch.</desc>
    <defs></defs>
    <g id="Screens" stroke="none" stroke-width="1" fill="none" fill-rule="evenodd">
        <g id="Desktop-Copy-4" transform="translate(-674.000000, -3086.000000)" fill="#000000">
            <g id="monitor" transform="translate(674.000000, 3086.000000)">
                <g id="Layer_1">
                    <g id="Group">
                        <path d="M32.2949805,20.4266087 L32.6719647,18.3302609 L32.6719647,18.3302609 L33.6269914,20.4010435 L33.6269914,20.4010435 L34.5568858,18.3302609 L34.5568858,18.3302609 L34.9590022,20.4266087 L35.4113833,20.3754783 L34.757944,17.0008696 L34.757944,17.0008696 L33.6521237,19.5318261 L32.521171,17.0008696 L32.521171,17.0008696 L31.8677317,20.3754783 L32.2949805,20.4266087 L32.2949805,20.4266087 Z M36.0648226,20.4521739 L36.6177328,19.3273043 L37.9246113,19.3273043 L38.4775215,20.4521739 L38.9299026,20.349913 L37.2711721,16.9753043 L37.2711721,16.9753043 L35.6124415,20.349913 L36.0648226,20.4521739 L36.0648226,20.4521739 Z M36.818791,18.8671304 L37.2711721,17.9212174 L37.7235531,18.8671304 L36.818791,18.8671304 L36.818791,18.8671304 Z M41.8201148,18.4836522 L40.5383685,18.4836522 L40.3875748,18.9182609 L41.3677338,18.9182609 L41.3677338,19.7107826 C41.1666755,19.9153043 40.8399559,19.992 40.5383685,19.992 C39.859797,19.992 39.3822836,19.3017391 39.3822836,18.7393043 C39.3822836,17.9723478 39.9603261,17.409913 40.6137654,17.409913 C40.9907496,17.409913 41.2420724,17.5633043 41.4933952,17.7422609 L41.7698503,17.409913 C41.4933952,17.1031304 41.0410141,16.9497391 40.5886331,16.9497391 C39.6336064,16.9497391 38.9047703,17.7422609 38.9047703,18.7137391 C38.9047703,19.6085217 39.683871,20.4010435 40.5383685,20.4010435 C41.116411,20.4010435 41.6190566,20.1709565 41.8201148,19.9153043 L41.8201148,18.4836522 L41.8201148,18.4836522 Z M42.548951,20.4521739 L43.1018611,19.3273043 L44.4087397,19.3273043 L44.9616499,20.4521739 L45.414031,20.349913 L43.7553004,16.9753043 L43.7553004,16.9753043 L42.0965699,20.349913 L42.548951,20.4521739 L42.548951,20.4521739 Z M43.2777871,18.8671304 L43.7301682,17.9212174 L44.1825492,18.8671304 L43.2777871,18.8671304 L43.2777871,18.8671304 Z M48.1283173,19.9408696 L46.3439253,19.9408696 L48.0529204,17.0775652 L45.7910152,17.0775652 L45.690486,17.5121739 L47.3492166,17.5121739 L45.6150892,20.3754783 L48.0026559,20.3754783 L48.1283173,19.9408696 L48.1283173,19.9408696 Z M48.9828148,20.3754783 L48.9828148,16.9753043 L48.5304337,17.052 L48.5304337,20.4010435 L48.9828148,20.3754783 L48.9828148,20.3754783 Z M50.164032,20.3754783 L50.164032,18.1513043 L52.2500113,20.4521739 L52.2500113,20.4521739 L52.2500113,17.052 L51.7976302,17.1286957 L51.7976302,19.2761739 L49.7116509,16.9753043 L49.7116509,16.9753043 L49.7116509,20.4266087 L50.164032,20.3754783 L50.164032,20.3754783 Z M54.7883716,20.3754783 L54.914033,19.9408696 L53.4312284,19.9408696 L53.4312284,18.8671304 L54.5370488,18.8671304 L54.5370488,18.4325217 L53.4312284,18.4325217 L53.4312284,17.4866087 L54.7883716,17.4866087 L54.6878425,17.052 L52.9537151,17.052 L52.9537151,20.349913 L54.7883716,20.349913 L54.7883716,20.3754783 Z" id="Shape"></path>
                        <path d="M1.91005332,14.6744348 L3.54365156,5.75217391 L3.59391612,5.75217391 L7.64021329,14.5977391 L7.69047785,14.5977391 L11.6362459,5.75217391 L11.6865105,5.75217391 L13.3201087,14.6744348 L15.230162,14.4187826 L12.4153466,0 L12.365082,0 L7.64021329,10.7629565 L2.8399477,0 L2.78968314,0 L0,14.4443478 L1.91005332,14.6744348 L1.91005332,14.6744348 Z M16.0595273,7.38834783 C16.0595273,11.529913 19.3267237,14.7766957 23.3478886,14.7766957 C27.3439212,14.7766957 30.63625,11.5554783 30.63625,7.38834783 C30.63625,3.24678261 27.3690535,0 23.3478886,0 C19.351856,0 16.0595273,3.22121739 16.0595273,7.38834783 L16.0595273,7.38834783 Z M18.0449774,7.38834783 C18.0449774,4.44834783 20.4325441,1.86626087 23.3478886,1.86626087 C26.2632332,1.86626087 28.6507998,4.44834783 28.6507998,7.38834783 C28.6507998,10.3283478 26.2632332,12.9104348 23.3478886,12.9104348 C20.4325441,12.9104348 18.0449774,10.3283478 18.0449774,7.38834783 L18.0449774,7.38834783 Z M34.4814889,14.4443478 L34.4814889,4.88295652 L43.3783162,14.7511304 L43.4285808,14.7511304 L43.4285808,0.332347826 L41.4431306,0.664695652 L41.4431306,9.86817391 L32.5463033,0 L32.4960388,0 L32.4960388,14.6744348 L34.4814889,14.4443478 L34.4814889,14.4443478 Z M47.927259,14.4443478 L47.927259,0 L45.9418088,0.332347826 L45.9418088,14.5977391 L47.927259,14.4443478 L47.927259,14.4443478 Z M52.67726,2.17304348 L52.67726,14.6744348 L54.6627102,14.4187826 L54.6627102,2.17304348 L57.9047744,2.17304348 L57.9047744,0.332347826 L49.7116509,0.332347826 L49.0833439,2.17304348 L52.67726,2.17304348 L52.67726,2.17304348 Z M58.0304358,7.38834783 C58.0304358,11.529913 61.2976323,14.7766957 65.3187971,14.7766957 C69.3148298,14.7766957 72.6071585,11.5554783 72.6071585,7.38834783 C72.6071585,3.24678261 69.339962,0 65.3187971,0 C61.2976323,0 58.0304358,3.22121739 58.0304358,7.38834783 L58.0304358,7.38834783 Z M60.015886,7.38834783 C60.015886,4.44834783 62.4034526,1.86626087 65.3187971,1.86626087 C68.2341417,1.86626087 70.6217083,4.44834783 70.6217083,7.38834783 C70.6217083,10.3283478 68.2341417,12.9104348 65.3187971,12.9104348 C62.4034526,12.9104348 60.015886,10.3283478 60.015886,7.38834783 L60.015886,7.38834783 Z M76.3016037,14.4443478 L76.3016037,7.59286957 L76.3518683,7.59286957 L81.1772662,14.7766957 L83.3889069,14.1886957 L79.191816,8.28313043 C81.1018693,7.84852174 82.2579542,6.69808696 82.2579542,4.60173913 C82.2579542,1.40608696 79.7698585,0.332347826 77.7090115,0.332347826 L74.2910213,0.332347826 L74.2910213,14.6744348 L76.3016037,14.4443478 L76.3016037,14.4443478 Z M76.3016037,2.17304348 L77.7090115,2.17304348 C79.2420806,2.17304348 80.2976364,2.94 80.2976364,4.60173913 C80.2976364,6.13565217 79.0661546,7.13269565 77.7090115,7.13269565 L76.3016037,7.13269565 L76.3016037,2.17304348 L76.3016037,2.17304348 Z" id="Shape"></path>
                    </g>
                </g>
            </g>
        </g>
    </g>
</svg>