<?xml version="1.0" encoding="UTF-8"?>
<svg width="77px" height="28px" viewBox="0 0 77 28" version="1.1" xmlns="http://www.w3.org/2000/svg" xmlns:xlink="http://www.w3.org/1999/xlink">
    <!-- Generator: Sketch 40.3 (33839) - http://www.bohemiancoding.com/sketch -->
    <title>mw</title>
    <desc>Created with Sketch.</desc>
    <defs></defs>
    <g id="Screens" stroke="none" stroke-width="1" fill="none" fill-rule="evenodd">
        <g id="Desktop-Copy-4" transform="translate(-703.000000, -3008.000000)" fill="#000000">
            <g id="mw" transform="translate(703.000000, 3008.000000)">
                <g id="Layer_1">
                    <g id="Group">
                        <polygon id="Shape" points="43.3795831 7.56894047 40.8292363 7.56894047 43.3953747 3.25896253 43.3953747 2.41977968 39.2105951 2.41977968 39.2105951 3.62559581 41.713567 3.62559581 39.1000537 7.94372116 39.1000537 8.78290401 43.3795831 8.78290401"></polygon>
                        <polygon id="Shape" points="58.4368937 5.13286598 58.4605812 5.13286598 59.8581396 7.82965747 60.5134919 7.82965747 61.926842 5.13286598 61.9505294 5.13286598 61.9505294 8.78290401 63.300713 8.78290401 63.300713 2.41977968 61.8952588 2.41977968 60.2055553 5.99649105 60.1818679 5.99649105 58.4842686 2.41977968 57.0867101 2.41977968 57.0867101 8.78290401 58.4368937 8.78290401"></polygon>
                        <polygon id="Shape" points="26.1588203 5.13286598 26.1746119 5.13286598 27.5800662 7.82965747 28.2354185 7.82965747 29.6487685 5.13286598 29.6645602 5.13286598 29.6645602 8.78290401 31.0147438 8.78290401 31.0147438 2.41977968 29.6171853 2.41977968 27.919586 5.99649105 27.9037944 5.99649105 26.2061952 2.41977968 24.8086367 2.41977968 24.8086367 8.78290401 26.1588203 8.78290401"></polygon>
                        <path d="M35.2074192,8.86437808 C36.7234148,8.86437808 37.5998497,8.00890041 37.5998497,6.61569393 L37.5998497,2.41977968 L36.1154374,2.41977968 L36.1154374,6.68902059 C36.1154374,7.33266569 35.7917091,7.6096775 35.2074192,7.6096775 C34.6547124,7.6096775 34.2915051,7.34081309 34.2915051,6.68902059 L34.2915051,2.41977968 L32.7991969,2.41977968 L32.7991969,6.68902059 C32.7991969,8.04149004 33.6756319,8.86437808 35.2074192,8.86437808 L35.2074192,8.86437808 L35.2074192,8.86437808 Z" id="Shape"></path>
                        <path d="M55.3101528,6.62384134 L55.3101528,2.41977968 L53.8336362,2.41977968 L53.8336362,6.68902059 C53.8336362,7.33266569 53.509908,7.6096775 52.925618,7.6096775 C52.3729113,7.6096775 52.009704,7.34081309 52.009704,6.68902059 L52.009704,2.41977968 L50.5173958,2.41977968 L50.5173958,6.68902059 C50.5173958,8.04149004 51.3938307,8.86437808 52.925618,8.86437808 C54.4337178,8.86437808 55.3101528,8.00890041 55.3101528,6.62384134 L55.3101528,6.62384134 L55.3101528,6.62384134 Z" id="Shape"></path>
                        <polygon id="Shape" points="49.0171918 7.57708788 46.506324 7.57708788 46.506324 6.0616703 48.3144646 6.0616703 48.3144646 4.99436007 46.506324 4.99436007 46.506324 3.63374322 48.9382337 3.63374322 48.9382337 2.41977968 45.0219116 2.41977968 45.0219116 8.78290401 49.0171918 8.78290401"></polygon>
                        <polygon id="Shape" points="75.3970948 13.2639775 74.3074729 16.3192549 74.2837855 16.3192549 73.2178511 13.2639775 71.5755225 13.2639775 73.5573709 17.6961665 73.5573709 19.6189544 75.0338875 19.6189544 75.0338875 17.7287562 77.0315275 13.2639775"></polygon>
                        <polygon id="Shape" points="30.3199124 17.9650309 30.3041208 17.9650309 29.253978 13.2639775 27.880107 13.2639775 26.8299642 17.9487361 26.8141726 17.9487361 25.8587795 13.2639775 24.3822629 13.2639775 25.9930083 19.6189544 27.5800662 19.6189544 28.5670425 15.4719246 28.5907299 15.4719246 29.5382272 19.6189544 31.1252851 19.6189544 32.7439263 13.2639775 31.2832013 13.2639775"></polygon>
                        <path d="M35.1521485,17.2806488 L35.839084,14.5757099 L35.8627714,14.5757099 L36.5497069,17.2806488 L35.1521485,17.2806488 L35.1521485,17.2806488 L35.1521485,17.2806488 Z M35.0179197,13.2639775 L33.0597587,19.6189544 L34.5520669,19.6189544 L34.8836909,18.3235168 L36.8102687,18.3235168 L37.1497885,19.6189544 L38.6499925,19.6189544 L36.6918315,13.2639775 L35.0179197,13.2639775 L35.0179197,13.2639775 L35.0179197,13.2639775 Z" id="Shape"></path>
                        <path d="M42.1557324,16.0992749 L41.4293179,16.0992749 L41.4293179,14.4046144 L42.1478366,14.4046144 C42.7005434,14.4046144 42.882147,14.6245943 42.882147,15.2437972 C42.882147,15.7896734 42.7321266,16.0992749 42.1557324,16.0992749 L42.1557324,16.0992749 L42.1557324,16.0992749 Z M44.3428719,15.1378809 C44.3428719,14.0135389 43.7112071,13.2639775 42.1873157,13.2639775 L39.9528013,13.2639775 L39.9528013,19.6189544 L41.4372137,19.6189544 L41.4372137,17.1584377 L42.0215036,17.1584377 L43.1111255,19.6189544 L44.6902876,19.6189544 L43.3164166,16.8488363 C43.9954563,16.5962667 44.3428719,15.9689164 44.3428719,15.1378809 L44.3428719,15.1378809 L44.3428719,15.1378809 Z" id="Shape"></path>
                        <path d="M47.3116967,14.8771639 C47.3116967,14.5105307 47.5169878,14.2905507 48.0223196,14.2905507 C48.4960683,14.2905507 48.8908588,14.4942358 49.0803583,14.9830802 L50.0752304,14.4942358 C49.7041273,13.6794952 49.0171918,13.174356 47.8880909,13.174356 C46.6405528,13.174356 45.8509718,13.9483596 45.8509718,14.9423432 C45.8509718,16.9547526 48.7013594,16.8488363 48.7013594,18.005768 C48.7013594,18.4049909 48.4802767,18.6005286 47.9354657,18.6005286 C47.5011962,18.6005286 47.0195517,18.347959 46.8300523,17.7939354 L45.7325346,18.1687161 C45.9930963,19.1138152 46.924802,19.7004285 47.9512574,19.7004285 C49.2619619,19.7004285 50.0989178,19.0323412 50.0989178,17.8346724 C50.0989178,15.7652312 47.3116967,15.8792949 47.3116967,14.8771639 L47.3116967,14.8771639 L47.3116967,14.8771639 Z" id="Shape"></path>
                        <polygon id="Shape" points="51.3701433 14.4697936 53.8731153 14.4697936 51.259602 18.787919 51.259602 19.6189544 55.5312355 19.6189544 55.5312355 18.4049909 52.9808887 18.4049909 55.5549229 14.1031603 55.5549229 13.2639775 51.3701433 13.2639775"></polygon>
                        <path d="M58.800101,17.2806488 L59.4870365,14.5757099 L59.510724,14.5757099 L60.1976595,17.2806488 L58.800101,17.2806488 L58.800101,17.2806488 L58.800101,17.2806488 Z M58.6658722,13.2639775 L56.7077112,19.6189544 L58.2000194,19.6189544 L58.5316435,18.3235168 L60.4582212,18.3235168 L60.7977411,19.6189544 L62.2979451,19.6189544 L60.3397841,13.2639775 L58.6658722,13.2639775 L58.6658722,13.2639775 L58.6658722,13.2639775 Z" id="Shape"></path>
                        <polygon id="Shape" points="68.5356354 17.9650309 68.5198438 17.9650309 67.469701 13.2639775 66.09583 13.2639775 65.0456872 17.9487361 65.0298955 17.9487361 64.0666066 13.2639775 62.5979859 13.2639775 64.2087312 19.6189544 65.7957892 19.6189544 66.7827655 15.4719246 66.7985571 15.4719246 67.7460544 19.6189544 69.3410081 19.6189544 70.9596492 13.2639775 69.4910285 13.2639775"></polygon>
                        <path d="M5.21913076,17.0851111 C3.24517813,17.0851111 1.6502244,15.439335 1.6502244,13.4024834 C1.6502244,11.3656318 3.24517813,9.71985574 5.21913076,9.71985574 C7.19308339,9.71985574 8.78803712,11.3656318 8.78803712,13.4024834 C8.78803712,15.4311876 7.18518758,17.0851111 5.21913076,17.0851111 L5.21913076,17.0851111 L5.21913076,17.0851111 Z M11.583154,13.2802723 L11.583154,19.0241938 C11.583154,19.8389344 10.9356976,20.5070217 10.1461165,20.5070217 C9.35653548,20.5070217 8.70907902,19.8389344 8.70907902,19.0241938 L8.70907902,17.4028599 C9.76711763,16.4170237 10.4303657,14.9912276 10.4303657,13.4024834 C10.4303657,11.4471059 9.41970196,9.73615055 7.91160215,8.79919882 L14.5756662,8.79919882 L9.56972236,3.63374322 L4.2005712,3.63374322 C4.15319634,3.63374322 4.10582148,3.63374322 4.05844661,3.64189062 L4.05844661,1.82501902 L16.0758702,1.82501902 L18.0419271,0 L1.69759926,0 L1.69759926,5.91501699 L1.69759926,6.20832362 C1.69759926,7.21045459 2.250306,8.07407966 3.05567868,8.5058922 C1.25543387,9.35322245 0,11.2189785 0,13.4024834 C0,14.9749328 0.655352274,16.3925815 1.69759926,17.3784177 L1.69759926,19.0241938 C1.69759926,23.8311635 5.48758832,27.7419185 10.1461165,27.7419185 C14.8046447,27.7419185 18.5946338,23.8311635 18.5946338,19.0241938 L18.5946338,13.2884197 L15.0967897,16.8977207 L11.583154,13.2802723 L11.583154,13.2802723 L11.583154,13.2802723 Z" id="Shape"></path>
                    </g>
                </g>
            </g>
        </g>
    </g>
</svg>