<?xml version="1.0" encoding="UTF-8"?>
<svg width="38px" height="25px" viewBox="0 0 38 25" version="1.1" xmlns="http://www.w3.org/2000/svg" xmlns:xlink="http://www.w3.org/1999/xlink">
    <!-- Generator: Sketch 40.3 (33839) - http://www.bohemiancoding.com/sketch -->
    <title>nn6t</title>
    <desc>Created with Sketch.</desc>
    <defs></defs>
    <g id="Screens" stroke="none" stroke-width="1" fill="none" fill-rule="evenodd">
        <g id="Desktop-Copy-4" transform="translate(-786.000000, -3084.000000)" fill="#000000">
            <g id="nn6t" transform="translate(786.000000, 3084.000000)">
                <g id="Layer_1">
                    <g id="Group">
                        <path d="M36.9193112,17.6727066 L35.6083448,17.6727066 L35.6083448,24.3023529 L36.9193112,24.3023529 L36.9193112,17.6727066 L36.9193112,17.6727066 Z M33.1799356,24.2960027 L34.4784166,24.2960027 L34.4784166,17.6727066 L33.2049064,17.6727066 L33.2049064,22.1178717 L30.4081781,17.6727066 L29.0535128,17.6727066 L29.0535128,24.3023529 L30.3207803,24.3023529 L30.3207803,19.9397408 L33.1799356,24.2960027 L33.1799356,24.2960027 Z M23.4600561,17.6727066 L23.4600561,24.3023529 L24.7772652,24.3023529 C26.9060249,24.3023529 28.1920205,23.0196052 28.1920205,20.9811795 C28.1920205,18.9173528 26.9122676,17.6727066 24.7772652,17.6727066 L23.4600561,17.6727066 L23.4600561,17.6727066 Z M24.7647798,18.8475002 L24.8396922,18.8475002 C26.0819889,18.84115 26.8248699,19.5968281 26.8248699,20.9748293 C26.8248699,22.3718812 26.0632608,23.1275593 24.8396922,23.1148588 L24.7647798,23.1148588 L24.7647798,18.8475002 L24.7647798,18.8475002 Z M17.1986308,20.9875298 C17.1986308,19.7428835 17.9415117,18.7839979 19.2025366,18.7839979 C20.4448333,18.7839979 21.2251705,19.7428835 21.2251705,20.9875298 C21.2251705,22.2448765 20.4760468,23.1783611 19.215022,23.1783611 C17.997696,23.1783611 17.1986308,22.2448765 17.1986308,20.9875298 L17.1986308,20.9875298 Z M15.8252374,20.99388 C15.8252374,22.9561029 17.1424465,24.4230074 19.215022,24.4230074 C21.256384,24.4230074 22.6048066,22.9180015 22.6048066,20.9748293 C22.6048066,19.0189566 21.2626267,17.5457019 19.1900512,17.5457019 C17.2048735,17.5457019 15.8252374,19.0443576 15.8252374,20.99388 L15.8252374,20.99388 Z M15.0948418,20.7398706 L12.7538304,20.7398706 L12.7538304,21.8511618 L13.8150889,21.8511618 L13.8150889,22.6068399 C13.5404102,22.8926005 13.0160237,23.1910616 12.2606573,23.1910616 C11.0807875,23.1910616 10.2192953,22.3210793 10.2192953,20.9811795 C10.2192953,19.6857314 11.0308459,18.7903481 12.204473,18.7903481 C13.0722079,18.7903481 13.5591383,19.2221642 13.8587878,19.6285793 L14.8763474,18.866551 C14.4268732,18.1553245 13.5778664,17.5520521 12.204473,17.5520521 C10.1880818,17.5520521 8.85214463,19.0951594 8.85214463,20.9811795 C8.85214463,23.038656 10.2130526,24.4166572 12.204473,24.4166572 C12.947354,24.4166572 13.4904686,24.1880487 13.833817,23.9086383 L13.833817,24.3023529 L15.0948418,24.3023529 L15.0948418,20.7398706 L15.0948418,20.7398706 L15.0948418,20.7398706 Z M5.93056234,20.9875298 L5.93056234,24.2960027 L7.23528605,24.2960027 L7.23528605,20.968479 L9.08312442,17.6727066 L7.69724565,17.6727066 L6.62350173,19.6857314 L5.5684859,17.6727066 L4.11393745,17.6727066 L5.93056234,20.9875298 L5.93056234,20.9875298 Z M3.67694865,18.9173528 L3.67694865,17.6727066 L0,17.6727066 L0,18.9173528 L1.18611247,18.9173528 L1.18611247,24.2960027 L2.49083618,24.2960027 L2.49083618,18.9173528 L3.67694865,18.9173528 L3.67694865,18.9173528 L3.67694865,18.9173528 Z" id="Shape"></path>
                        <path d="M34.9903178,12.2686558 C35.5646459,12.2686558 35.789383,12.6369695 35.789383,13.1767396 L35.789383,13.4752006 C35.789383,13.9895698 35.5459178,14.4023351 34.9778324,14.4023351 C34.4035043,14.4023351 34.1787672,14.0022702 34.1787672,13.4752006 L34.1787672,13.1576888 C34.1787672,12.6560202 34.4159897,12.2686558 34.9903178,12.2686558 L34.9903178,12.2686558 Z M36.863127,9.39834918 C36.5884483,9.1189388 36.0827898,8.77602606 35.1775987,8.77602606 C33.4920705,8.77602606 32.8802861,9.87461687 32.8802861,11.1891157 L32.8802861,13.4625002 C32.8802861,14.776999 33.5295267,15.6469813 34.9715897,15.6469813 C36.3512258,15.6469813 37.0878641,14.6880957 37.0878641,13.4752006 L37.0878641,13.1830898 C37.0878641,11.7606369 36.4948078,11.0303598 35.2649965,11.0303598 C34.7093964,11.0303598 34.3098638,11.2589683 34.1850099,11.4240744 L34.1850099,11.1573645 C34.1725245,10.5159907 34.4222323,10.0270225 35.2275403,10.0270225 C35.6707718,10.0270225 35.9641786,10.2302301 36.1389741,10.3826357 L36.863127,9.39834918 L36.863127,9.39834918 Z M31.5568343,12.2813563 L23.1916201,12.2813563 L23.1916201,13.3354955 L31.5568343,13.3354955 L31.5568343,12.2813563 L31.5568343,12.2813563 L31.5568343,12.2813563 Z M19.3773321,10.5858433 L20.0889996,12.5798174 L18.6656646,12.5798174 L19.3773321,10.5858433 L19.3773321,10.5858433 Z M21.1440154,15.5199766 L22.5298942,15.5199766 L20.0640288,8.89668054 L18.6906354,8.89668054 L16.3371386,15.5199766 L17.6293769,15.5199766 L18.266132,13.7038091 L20.4947749,13.7038091 L21.1440154,15.5199766 L21.1440154,15.5199766 Z M13.9961271,15.5199766 L15.2946081,15.5199766 L15.2946081,8.89668054 L14.0210979,8.89668054 L14.0210979,13.3418457 L11.2243696,8.89668054 L9.86970427,8.89668054 L9.86970427,15.5199766 L11.1369718,15.5199766 L11.1369718,11.1573645 L13.9961271,15.5199766 L13.9961271,15.5199766 Z M8.49631089,12.2813563 L0.131096641,12.2813563 L0.131096641,13.3354955 L8.49631089,13.3354955 L8.49631089,12.2813563 L8.49631089,12.2813563 Z" id="Shape"></path>
                        <path d="M37.0566506,3.50533023 L28.6914363,3.50533023 L28.6914363,4.5594694 L37.0566506,4.5594694 L37.0566506,3.50533023 L37.0566506,3.50533023 Z M24.677382,1.803467 C24.677382,1.42880308 24.9208472,1.14304247 25.3765641,1.14304247 C25.8572518,1.14304247 26.1069597,1.49865568 26.1069597,1.98762385 L27.3118002,1.98762385 C27.3617418,0.908083738 26.843598,0.00635023593 25.3765641,0.00635023593 C24.1529955,0.00635023593 23.378901,0.793779491 23.378901,1.8733196 C23.378901,2.66709909 23.7160067,3.2703715 24.3465191,3.60693401 C24.7210809,3.82919227 25.1081281,3.94349651 25.4764473,4.11495288 C25.9009507,4.29910973 26.1756294,4.52771822 26.1756294,4.9658845 C26.1756294,5.4612029 25.8385237,5.72791281 25.3765641,5.72791281 C24.739809,5.72791281 24.5213146,5.25164511 24.5275573,4.71187506 L23.2852605,4.71187506 C23.2415617,5.73426305 23.6535797,6.87730551 25.3765641,6.87730551 C26.6375889,6.87730551 27.5240519,6.08352602 27.5240519,4.81982907 C27.5240519,3.87999415 27.0558497,3.32752363 26.2692698,2.97191042 C25.9134361,2.80680428 25.6013012,2.69250003 25.2891663,2.55914508 C24.8709056,2.37498824 24.677382,2.14637974 24.677382,1.803467 L24.677382,1.803467 Z M22.1990312,6.75030079 L22.1990312,5.50565455 L20.4947749,5.50565455 L20.4947749,3.97524769 L22.1241189,3.97524769 L22.1241189,2.74965216 L20.4947749,2.74965216 L20.4947749,1.36530073 L22.1678178,1.36530073 L22.1678178,0.127004719 L19.1838085,0.127004719 L19.1838085,6.75030079 L22.1990312,6.75030079 L22.1990312,6.75030079 Z M17.9914533,1.36530073 L17.9914533,0.127004719 L14.3145047,0.127004719 L14.3145047,1.37165096 L15.5006171,1.37165096 L15.5006171,6.75665103 L16.8053409,6.75665103 L16.8053409,1.36530073 L17.9914533,1.36530073 L17.9914533,1.36530073 Z M8.31527267,3.43547764 C8.31527267,2.1908314 9.05815363,1.23194577 10.3191785,1.23194577 C11.5614752,1.23194577 12.3418124,2.1908314 12.3418124,3.43547764 C12.3418124,4.69282435 11.5926887,5.62630903 10.3316639,5.62630903 C9.11433791,5.62630903 8.31527267,4.69282435 8.31527267,3.43547764 L8.31527267,3.43547764 Z M6.94187928,3.44817811 C6.94187928,5.41040101 8.25908839,6.87730551 10.3316639,6.87730551 C12.3730258,6.87730551 13.7214484,5.3722996 13.7214484,3.4291274 C13.7214484,1.47960497 12.3730258,0 10.3066931,0 C8.32151536,0 6.94187928,1.49230544 6.94187928,3.44817811 L6.94187928,3.44817811 Z M4.39485883,6.75030079 L5.69333984,6.75030079 L5.69333984,0.127004719 L4.41982962,0.127004719 L4.41982962,4.56581963 L1.62934397,0.127004719 L0.274678677,0.127004719 L0.274678677,6.75030079 L1.54194621,6.75030079 L1.54194621,2.38768871 L4.39485883,6.75030079 L4.39485883,6.75030079 Z" id="Shape"></path>
                    </g>
                </g>
            </g>
        </g>
    </g>
</svg>