<?xml version="1.0" encoding="UTF-8"?>
<svg xmlns="http://www.w3.org/2000/svg" xmlns:xlink="http://www.w3.org/1999/xlink" version="1.2" >
<font id="Apropal Bold">
<font-face  font-family="Apropal" units-per-em="1000" ascent="800" descent="-200" font-style="normal" font-weight="400" font-stretch="normal" cap-height="800" x-height="600" underline-position="-75" underline-thickness="50" />
<missing-glyph  horiz-adv-x="500" d="M410 800 L93 800 L93 -200 L410 -200 L410 800 Z M333 733 L333 700 L267 700 L267 663 L333 663 L333 630 L167 630 L167 663 L233 663 L233 700 L168 700 L168 733 L333 733 Z M267 604 L267 534 L333 534 L333 500 L167 500 L167 604 L267 604 Z M233 570 L200 570 L200 534 L233 534 L233 570 Z M333 473 L333 440 L267 440 L267 370 L167 370 L167 403 L233 403 L233 440 L167 440 L167 473 L333 473 Z M333 413 L333 313 L167 313 L167 347 L300 347 L300 413 L333 413 Z M333 291 L333 178 L167 178 L167 291 L200 291 L200 211 L300 211 L300 258 L267 258 L267 235 L233 235 L233 291 L333 291 Z M333 118 L333 5 L167 5 L167 118 L333 118 Z M300 85 L200 85 L200 38 L300 38 L300 85 Z M333 -18 L333 -51 L301 -51 L231 -98 L333 -98 L333 -131 L167 -131 L167 -98 L237 -51 L167 -51 L167 -18 L333 -18 Z " />
<glyph glyph-name="NULL" d="" />
<glyph glyph-name="CR" unicode="&#xd;" horiz-adv-x="250" d="" />
<glyph glyph-name="space" unicode="&#x20;" horiz-adv-x="202" d="" />
<glyph glyph-name="exclam" unicode="&#x21;" horiz-adv-x="385" d="M334 737 C297 743 257 746 217 746 C158 746 100 740 48 729 C48 586 48 442 52 318 C273 264 350 316 352 519 C353 624 346 699 334 737 L334 737 Z M24 129 C24 46 80 -10 191 -10 C299 -10 361 44 361 132 C361 215 305 271 194 271 C86 271 24 216 24 129 L24 129 Z " />
<glyph glyph-name="quotedbl" unicode="&#x22;" horiz-adv-x="423" d="M56 739 L65 467 C99 453 132 454 162 467 L185 739 C146 758 103 761 56 739 L56 739 Z M244 739 L253 467 C287 453 320 454 350 467 L373 739 C334 758 291 761 244 739 L244 739 Z " />
<glyph glyph-name="numbersign" unicode="&#x23;" horiz-adv-x="740" d="M722 390 C739 410 751 462 745 485 L649 485 L675 583 C646 597 610 601 570 589 L542 485 L380 485 L406 583 C377 597 341 601 301 589 L273 485 L171 485 C154 465 142 413 148 390 L248 390 L199 208 L103 208 C85 188 74 136 80 113 L174 113 L145 5 C174 -9 210 -13 250 -1 L280 113 L443 113 L414 5 C443 -9 479 -13 519 -1 L549 113 L654 113 C671 133 683 185 677 208 L575 208 L623 390 L722 390 Z M468 208 L306 208 L354 390 L517 390 L468 208 Z " />
<glyph glyph-name="dollar" unicode="&#x24;" horiz-adv-x="564" d="M539 199 C539 339 260 486 260 552 C260 562 267 571 281 571 C317 571 388 519 430 425 C465 438 506 482 506 528 C506 572 463 622 337 631 L328 747 C284 759 235 756 203 742 C206 704 213 666 222 627 C104 610 37 551 37 469 C37 310 292 194 292 116 C292 99 281 90 263 90 C228 90 170 130 106 259 C64 244 26 194 26 144 C26 76 108 31 218 23 L222 -68 C266 -80 315 -78 348 -64 C345 -33 339 -3 333 28 C450 46 539 103 539 199 L539 199 Z " />
<glyph glyph-name="percent" unicode="&#x25;" horiz-adv-x="920" d="M238 754 C111 754 43 658 43 530 C43 414 117 330 233 330 C360 330 427 422 427 544 C427 666 353 754 238 754 L238 754 Z M750 749 L640 749 L140 0 L250 0 L750 749 Z M209 555 C209 657 218 689 233 689 C252 689 261 638 261 518 C261 416 253 385 237 385 C219 385 209 435 209 555 L209 555 Z M667 424 C540 424 472 328 472 200 C472 84 546 0 662 0 C789 0 856 92 856 214 C856 336 782 424 667 424 L667 424 Z M638 225 C638 327 647 359 662 359 C681 359 690 308 690 188 C690 86 682 55 666 55 C648 55 638 105 638 225 L638 225 Z " />
<glyph glyph-name="ampersand" unicode="&#x26;" horiz-adv-x="755" d="M748 99 C747 122 738 144 723 162 C709 151 695 146 679 146 C640 146 600 175 556 217 C550 222 545 228 539 233 C556 250 582 258 610 258 C640 258 673 249 701 230 C715 250 721 273 721 297 C721 366 676 425 611 425 C547 425 501 369 494 282 C465 317 437 354 414 393 C521 417 596 480 596 561 C596 675 498 748 354 748 C217 748 134 670 134 538 C134 486 149 427 173 369 C37 350 -23 281 -23 193 C-23 73 75 -10 198 -10 C273 -10 339 15 394 65 C457 14 529 -10 600 -10 C715 -10 749 45 748 99 L748 99 Z M370 669 C392 669 407 622 407 550 C407 498 397 472 379 459 C358 507 345 556 345 602 C345 651 357 669 370 669 L370 669 Z M187 242 C187 268 193 289 203 304 C242 230 293 160 344 109 C327 99 310 94 293 94 C227 94 187 163 187 242 L187 242 Z " />
<glyph glyph-name="quotesingle" unicode="&#x27;" horiz-adv-x="235" d="M56 739 L65 467 C99 453 132 454 162 467 L185 739 C146 758 103 761 56 739 L56 739 Z " />
<glyph glyph-name="parenleft" unicode="&#x28;" horiz-adv-x="440" d="M322 324 C322 602 373 713 443 744 C450 753 450 765 439 777 C232 782 60 590 60 304 C60 30 232 -154 439 -149 C450 -137 450 -125 443 -116 C373 -84 322 36 322 324 L322 324 Z " />
<glyph glyph-name="parenright" unicode="&#x29;" horiz-adv-x="440" d="M156 305 C156 27 105 -84 35 -115 C28 -124 28 -136 39 -148 C246 -153 418 39 418 325 C418 599 246 783 39 778 C28 766 28 754 35 745 C105 713 156 593 156 305 L156 305 Z " />
<glyph glyph-name="asterisk" unicode="&#x2a;" horiz-adv-x="500" d="M493 612 C467 657 410 644 366 619 C329 597 307 570 283 544 C308 610 335 684 326 738 C310 751 290 759 270 759 C218 759 201 703 201 652 C201 609 213 576 224 542 C180 597 129 657 78 677 C58 669 42 656 32 639 C6 594 46 551 90 525 C122 506 153 499 184 493 C116 482 44 468 3 435 C-1 414 3 393 13 376 C39 331 96 344 140 369 C176 390 198 416 221 442 C196 377 170 304 179 250 C195 237 215 229 235 229 C287 229 304 285 304 336 C304 380 292 414 280 448 C325 393 376 331 428 311 C448 319 464 332 474 349 C500 394 460 437 416 463 C384 482 353 489 322 495 C390 506 462 520 503 553 C507 574 503 595 493 612 L493 612 Z " />
<glyph glyph-name="plus" unicode="&#x2b;" horiz-adv-x="660" d="M559 440 L390 440 L390 617 C342 625 306 622 269 614 L269 440 L100 440 C92 398 95 367 103 334 L269 334 L269 158 C317 150 360 151 390 158 L390 334 L559 334 C567 376 566 415 559 440 L559 440 Z " />
<glyph glyph-name="comma" unicode="&#x2c;" horiz-adv-x="374" d="M22 127 C22 48 66 27 102 11 C127 -1 148 -11 148 -37 C148 -68 117 -122 74 -145 C77 -167 93 -187 108 -198 C242 -164 359 -14 359 124 C359 228 297 300 196 300 C92 300 22 229 22 127 L22 127 Z " />
<glyph glyph-name="hyphen" unicode="&#x2d;" horiz-adv-x="400" d="M23 252 L379 252 C387 297 386 338 379 366 L20 366 C12 321 15 287 23 252 L23 252 Z " />
<glyph glyph-name="period" unicode="&#x2e;" horiz-adv-x="380" d="M28 143 C28 51 84 -11 195 -11 C303 -11 365 49 365 146 C365 238 309 300 198 300 C90 300 28 239 28 143 L28 143 Z " />
<glyph glyph-name="slash" unicode="&#x2f;" horiz-adv-x="500" d="M426 744 C392 772 351 784 305 774 L35 -170 C69 -198 110 -210 156 -200 L426 744 Z " />
<glyph glyph-name="zero" unicode="0" horiz-adv-x="728" d="M368 754 C150 754 40 589 40 358 C40 137 160 -10 360 -10 C578 -10 688 150 688 374 C688 602 568 754 368 754 L368 754 Z M327 390 C327 617 339 689 362 689 C388 689 401 586 401 343 C401 116 389 45 366 45 C340 45 327 146 327 390 L327 390 Z " />
<glyph glyph-name="one" unicode="1" horiz-adv-x="580" d="M570 97 L446 94 C437 244 429 495 425 737 C403 748 365 752 339 749 L301 699 C229 627 117 601 -7 618 C-40 493 77 452 166 529 C154 487 149 450 149 415 C149 292 153 174 157 88 C110 86 65 84 22 80 C19 47 22 20 32 0 L573 0 C580 38 578 66 570 97 L570 97 Z " />
<glyph glyph-name="two" unicode="2" horiz-adv-x="619" d="M516 225 C492 205 448 196 346 198 C270 200 217 198 176 196 C356 285 580 364 580 523 C580 640 462 749 269 749 C123 749 9 662 9 549 C9 441 126 389 250 452 C168 613 207 682 242 682 C270 682 304 637 304 541 C304 312 40 213 31 15 C35 8 41 2 48 -1 L476 -9 C537 -10 584 42 584 113 C584 166 558 209 516 225 L516 225 Z " />
<glyph glyph-name="three" unicode="3" horiz-adv-x="620" d="M412 394 C526 432 567 507 566 577 C567 680 456 749 289 749 C129 749 39 660 41 570 C43 471 122 424 256 479 C197 636 223 682 259 682 C290 682 316 648 316 557 C316 459 277 424 181 396 C180 370 187 347 205 324 C298 331 330 266 330 161 C330 93 316 45 275 45 C223 45 183 134 209 259 C101 293 18 247 18 147 C18 64 86 -20 295 -20 C468 -20 601 41 601 200 C601 320 535 389 412 394 L412 394 Z " />
<glyph glyph-name="four" unicode="4" horiz-adv-x="633" d="M613 82 C563 80 514 79 467 79 C465 98 464 122 462 156 C508 157 555 157 601 157 C608 185 606 212 598 237 L460 234 L459 287 C363 298 253 285 174 249 L174 228 C144 228 116 227 89 225 C115 361 579 258 579 556 C579 695 450 786 281 749 C323 399 14 378 14 202 C14 188 16 168 22 148 L175 151 C176 117 178 92 180 73 C125 71 73 69 25 65 C22 38 25 21 35 0 L616 0 C623 27 621 56 613 82 L613 82 Z " />
<glyph glyph-name="five" unicode="5" horiz-adv-x="609" d="M310 442 C258 442 194 435 145 425 L160 528 C245 518 322 512 385 512 C534 512 592 569 558 732 C518 710 365 704 86 729 L60 392 C82 347 119 330 142 327 C251 360 323 282 323 143 C323 71 304 38 270 38 C211 38 174 126 183 243 C96 269 14 220 14 139 C14 33 149 -20 290 -20 C480 -20 594 65 594 206 C594 345 492 442 310 442 L310 442 Z " />
<glyph glyph-name="six" unicode="6" horiz-adv-x="679" d="M430 446 C381 446 339 432 307 406 L307 407 C307 634 340 682 378 682 C425 682 454 602 458 485 C547 479 625 522 625 598 C625 680 533 744 382 744 C149 744 23 561 23 324 C23 123 139 -20 346 -20 C541 -20 649 88 649 223 C649 348 551 446 430 446 L430 446 Z M359 56 C332 56 312 147 308 334 C318 343 327 347 336 347 C364 347 389 287 389 181 C389 102 378 56 359 56 L359 56 Z " />
<glyph glyph-name="seven" unicode="7" horiz-adv-x="580" d="M534 505 C558 565 565 689 556 726 L556 728 C436 740 325 747 235 747 C63 747 4 693 26 508 C86 536 216 553 449 540 C218 448 104 331 104 190 C104 76 191 -7 305 -7 C396 -7 478 50 497 164 C422 132 343 195 343 304 C343 383 382 434 534 505 L534 505 Z " />
<glyph glyph-name="eight" unicode="8" horiz-adv-x="630" d="M612 203 C608 292 557 360 470 403 C551 431 592 496 589 562 C583 677 490 753 324 753 C143 753 46 670 52 554 C56 478 100 420 176 383 C72 355 20 277 24 194 C29 72 133 -10 314 -10 C512 -10 617 79 612 203 L612 203 Z M313 698 C343 698 362 638 362 540 C362 454 344 424 323 424 C293 424 274 484 274 582 C274 668 292 698 313 698 L313 698 Z M326 35 C296 35 270 109 270 236 C270 314 288 349 310 349 C341 349 367 275 367 148 C367 70 349 35 326 35 L326 35 Z " />
<glyph glyph-name="nine" unicode="9" horiz-adv-x="680" d="M326 744 C134 744 26 639 28 498 C30 365 129 278 250 278 C299 278 340 292 372 317 C376 90 348 42 310 42 C260 42 210 117 231 228 C136 262 56 209 56 130 C56 44 152 -20 304 -20 C542 -20 655 163 655 400 C655 601 537 744 326 744 L326 744 Z M344 367 C310 367 287 446 287 561 C287 629 297 668 316 668 C343 668 363 573 370 377 C362 370 353 367 344 367 L344 367 Z " />
<glyph glyph-name="colon" unicode="&#x3a;" horiz-adv-x="380" d="M38 463 C38 377 91 319 195 319 C297 319 355 375 355 466 C355 552 302 610 198 610 C96 610 38 553 38 463 L38 463 Z M38 133 C38 47 91 -11 195 -11 C297 -11 355 45 355 136 C355 222 302 280 198 280 C96 280 38 223 38 133 L38 133 Z " />
<glyph glyph-name="semicolon" unicode="&#x3b;" horiz-adv-x="380" d="M38 463 C38 377 91 319 195 319 C297 319 355 375 355 466 C355 552 302 610 198 610 C96 610 38 553 38 463 L38 463 Z M38 127 C38 59 78 31 113 17 C140 5 164 -6 164 -37 C164 -68 139 -117 80 -145 C83 -167 99 -187 114 -198 C249 -162 355 -7 355 124 C355 217 292 280 209 280 C109 280 38 216 38 127 L38 127 Z " />
<glyph glyph-name="less" unicode="&#x3c;" horiz-adv-x="600" d="" />
<glyph glyph-name="equal" unicode="&#x3d;" horiz-adv-x="660" d="M103 445 L559 445 C567 487 566 526 559 551 L100 551 C92 509 95 478 103 445 L103 445 Z M103 197 L559 197 C567 239 566 278 559 303 L100 303 C92 261 95 230 103 197 L103 197 Z " />
<glyph glyph-name="greater" unicode="&#x3e;" horiz-adv-x="600" d="" />
<glyph glyph-name="question" unicode="&#x3f;" horiz-adv-x="565" d="M164 400 C163 332 237 266 332 266 C448 266 557 365 557 513 C557 664 445 754 247 754 C76 754 -12 676 -12 584 C-12 474 100 417 236 468 C184 570 186 674 239 674 C264 674 278 647 278 597 C278 459 236 400 164 400 L164 400 Z M97 119 C97 42 153 -10 264 -10 C372 -10 434 40 434 122 C434 199 378 251 267 251 C159 251 97 200 97 119 L97 119 Z " />
<glyph glyph-name="at" unicode="&#x40;" horiz-adv-x="920" d="M682 465 C625 473 567 473 517 464 C509 457 503 449 497 437 C468 465 432 479 395 479 C300 479 214 376 214 209 C214 104 260 33 330 33 C385 33 433 77 458 130 C469 65 514 33 602 33 C755 33 851 170 851 329 C851 519 712 646 479 646 C207 646 51 473 51 241 C51 17 195 -136 410 -136 C486 -136 553 -116 613 -87 C619 -67 613 -36 601 -23 C547 -48 486 -65 426 -65 C247 -65 152 62 152 240 C152 422 255 572 478 572 C656 572 763 476 763 294 C763 182 723 109 678 109 C654 109 645 133 652 191 C663 283 672 381 682 465 L682 465 Z M431 155 C418 155 410 174 410 225 C410 330 443 395 474 395 C477 395 481 395 484 394 C475 355 467 294 457 196 C456 190 456 184 456 179 C449 163 440 155 431 155 L431 155 Z " />
<glyph glyph-name="A" unicode="A" horiz-adv-x="764" d="M539 619 C511 706 438 749 341 749 C244 749 165 704 141 639 C181 634 223 610 251 556 C210 455 166 344 127 241 C27 246 5 245 -15 243 C-20 175 17 140 90 140 C71 87 55 40 43 0 C92 -5 130 -5 172 0 C181 42 194 91 208 144 L384 151 C405 95 426 45 446 0 C562 -6 666 -10 758 -4 C701 125 648 274 539 619 L539 619 Z M233 235 C251 300 271 367 290 433 C313 358 335 290 356 228 C309 231 269 233 233 235 L233 235 Z " />
<glyph glyph-name="B" unicode="B" horiz-adv-x="816" d="M587 394 C672 425 725 481 725 552 C725 662 611 746 383 746 C279 746 159 723 39 679 C49 653 55 581 55 322 C55 185 57 66 60 0 C94 -7 129 -11 165 -11 C226 -17 284 -20 337 -20 C644 -20 800 71 800 212 C800 302 736 368 587 394 L587 394 Z M491 529 C491 482 471 434 436 406 L425 406 C399 406 377 405 355 404 C356 483 357 566 359 647 C366 648 373 648 380 648 C455 648 491 589 491 529 L491 529 Z M358 64 C356 130 355 222 355 324 C448 328 499 292 499 199 C499 94 454 55 358 64 L358 64 Z " />
<glyph glyph-name="C" unicode="C" horiz-adv-x="724" d="M509 124 C383 124 317 222 317 453 C317 599 360 654 406 654 C459 654 506 575 483 432 C600 401 715 476 715 572 C714 661 617 748 420 748 C178 748 19 612 19 375 C19 143 160 -20 399 -20 C552 -20 659 43 722 123 C715 150 697 175 676 189 C630 150 568 124 509 124 L509 124 Z " />
<glyph glyph-name="D" unicode="D" horiz-adv-x="837" d="M422 749 C294 749 143 716 39 679 C49 653 55 581 55 322 C55 185 57 66 60 0 C162 -13 279 -21 394 -21 C687 -21 818 136 818 354 C818 591 664 749 422 749 L422 749 Z M386 65 C377 65 368 65 358 66 C354 201 354 443 359 660 C365 661 372 661 378 661 C449 661 521 576 521 344 C521 119 475 65 386 65 L386 65 Z " />
<glyph glyph-name="E" unicode="E" horiz-adv-x="660" d="M656 146 C585 128 480 114 357 111 C356 166 355 232 355 305 L555 281 C571 311 579 363 572 405 L355 396 C356 472 356 553 358 636 C459 632 542 623 629 610 C645 640 653 692 645 734 C489 750 293 746 59 716 C53 425 54 121 60 3 C251 -7 443 -11 639 -2 C665 34 668 107 656 146 L656 146 Z " />
<glyph glyph-name="F" unicode="F" horiz-adv-x="631" d="M629 610 C645 640 653 692 645 734 C489 750 293 746 59 716 C53 425 54 121 60 3 C160 -18 269 -12 360 11 C357 67 355 166 355 285 L555 261 C571 291 579 343 572 385 L355 376 C355 458 356 547 358 636 C459 632 542 623 629 610 L629 610 Z " />
<glyph glyph-name="G" unicode="G" horiz-adv-x="796" d="M749 392 C634 388 537 375 445 350 C441 325 444 298 455 268 L530 265 C533 223 534 186 534 152 C535 108 517 91 477 91 C380 91 312 198 312 453 C312 601 359 656 409 656 C462 656 509 577 486 432 C603 401 718 476 718 572 C718 661 620 748 425 748 C180 748 19 612 19 375 C19 143 152 -20 430 -20 C532 -20 631 -1 761 62 C752 111 749 212 749 392 L749 392 Z " />
<glyph glyph-name="H" unicode="H" horiz-adv-x="853" d="M801 737 C759 743 714 746 669 746 C610 746 552 740 500 729 C498 618 497 507 496 405 L355 405 C356 510 357 625 360 737 C318 743 273 746 228 746 C169 746 111 740 59 729 C53 425 54 121 60 0 C160 -20 269 -13 360 11 C357 70 355 174 355 300 L496 300 C496 169 498 61 501 0 C601 -20 710 -13 801 11 C795 131 794 441 801 737 L801 737 Z " />
<glyph glyph-name="I" unicode="I" horiz-adv-x="412" d="M360 737 C318 743 273 746 228 746 C169 746 111 740 59 729 C53 425 54 121 60 0 C160 -20 269 -13 360 11 C354 131 353 441 360 737 L360 737 Z " />
<glyph glyph-name="J" unicode="J" horiz-adv-x="412" d="M228 746 C169 746 111 740 59 729 C56 490 55 250 55 93 C55 -66 46 -127 28 -195 C62 -204 97 -209 130 -209 C265 -209 355 -113 355 96 C355 288 357 515 360 737 C318 743 273 746 228 746 L228 746 Z " />
<glyph glyph-name="K" unicode="K" horiz-adv-x="802" d="M770 294 C681 245 518 244 478 301 C675 336 786 479 762 720 C711 755 548 743 491 729 C508 472 468 377 355 372 C356 486 357 613 360 737 C318 743 273 746 228 746 C169 746 111 740 59 729 C53 425 54 121 60 0 C160 -20 269 -13 360 11 C357 69 355 170 355 293 C363 293 370 292 377 292 C382 145 465 -18 618 -19 C776 -20 825 140 770 294 L770 294 Z " />
<glyph glyph-name="L" unicode="L" horiz-adv-x="660" d="M656 143 C585 125 480 111 357 108 C354 259 354 502 360 737 C318 743 273 746 228 746 C169 746 111 740 59 729 C53 425 54 121 60 0 C251 -10 443 -14 639 -5 C665 31 668 104 656 143 L656 143 Z " />
<glyph glyph-name="M" unicode="M" horiz-adv-x="923" d="M878 737 C765 751 681 747 629 735 C595 622 545 461 485 292 C454 390 414 504 382 595 C344 702 270 749 177 749 C81 749 5 700 -40 619 C-1 622 31 587 58 527 C54 338 54 122 60 -9 C111 -20 162 -18 217 -6 C195 80 178 193 166 313 C213 193 266 90 323 -10 C390 -16 413 -15 454 -7 C490 76 532 175 573 277 C572 156 574 53 578 0 C678 -20 787 -13 878 11 C872 131 871 441 878 737 L878 737 Z " />
<glyph glyph-name="N" unicode="N" horiz-adv-x="746" d="M688 743 C639 750 588 749 529 737 C542 637 560 500 573 353 C504 434 426 526 354 617 C285 705 201 749 126 749 C109 749 92 746 76 741 L75 741 C24 725 -21 685 -35 637 C-13 627 26 599 65 555 C57 354 58 129 68 -9 C119 -20 172 -18 227 -6 C205 99 195 250 189 401 C305 261 429 124 557 -10 C610 -16 654 -15 694 -7 C703 220 701 575 688 743 L688 743 Z " />
<glyph glyph-name="O" unicode="O" horiz-adv-x="826" d="M418 749 C153 749 19 585 19 356 C19 130 165 -21 408 -21 C673 -21 807 143 807 372 C807 598 661 749 418 749 L418 749 Z M319 428 C319 573 345 664 397 664 C462 664 507 505 507 301 C507 155 481 65 429 65 C364 65 319 223 319 428 L319 428 Z " />
<glyph glyph-name="P" unicode="P" horiz-adv-x="814" d="M431 746 C301 746 170 723 39 682 C49 653 55 581 55 322 C55 185 57 66 60 0 C160 -20 269 -13 360 11 C358 58 356 135 355 226 C620 182 803 310 803 504 C803 668 673 746 431 746 L431 746 Z M355 308 C355 411 356 527 358 637 C369 640 384 642 397 642 C459 642 502 589 502 483 C502 363 448 310 355 308 L355 308 Z " />
<glyph glyph-name="Q" unicode="Q" horiz-adv-x="826" d="M466 -18 C693 4 807 161 807 372 C807 598 661 749 418 749 C153 749 19 585 19 356 C19 138 155 -11 383 -20 C385 -143 460 -215 584 -215 C732 -215 780 -112 731 0 C624 -68 487 -47 466 -18 L466 -18 Z M397 664 C462 664 507 505 507 301 C507 155 481 65 429 65 C364 65 319 223 319 428 C319 573 345 664 397 664 L397 664 Z " />
<glyph glyph-name="R" unicode="R" horiz-adv-x="832" d="M789 294 C714 237 561 221 502 277 C677 288 790 386 790 529 C790 658 683 746 408 746 C285 746 178 729 39 682 C49 653 55 581 55 322 C55 185 57 66 60 0 C160 -20 269 -13 360 11 C357 68 355 168 355 286 L387 281 C395 137 473 -18 637 -19 C786 -20 844 140 789 294 L789 294 Z M489 511 C489 415 440 370 355 369 C355 456 357 549 358 639 C367 641 377 642 385 642 C441 642 489 600 489 511 L489 511 Z " />
<glyph glyph-name="S" unicode="S" horiz-adv-x="646" d="M128 275 C57 268 16 213 16 148 C16 37 135 -24 287 -24 C474 -24 635 51 635 202 C635 369 294 542 294 640 C294 658 304 665 323 665 C375 665 448 594 492 468 C559 472 605 528 604 593 C603 674 528 750 338 750 C141 750 28 667 28 542 C28 337 336 213 336 105 C336 84 323 70 299 70 C240 70 164 175 128 275 L128 275 Z " />
<glyph glyph-name="T" unicode="T" horiz-adv-x="709" d="M710 732 C474 747 238 750 -1 729 C-8 681 1 640 39 607 C93 622 148 632 206 638 C201 367 203 109 208 0 C308 -20 417 -13 508 11 C503 117 501 374 506 635 C559 629 611 621 664 609 C708 646 718 688 710 732 L710 732 Z " />
<glyph glyph-name="U" unicode="U" horiz-adv-x="781" d="M743 743 C696 750 647 749 591 737 C602 643 616 482 615 370 C615 209 568 123 479 123 C384 123 351 221 351 370 C351 479 353 612 361 737 C319 743 274 746 229 746 C170 746 112 740 60 729 C55 618 51 498 51 350 C51 129 173 -3 394 -3 C609 -3 726 115 735 379 C742 521 744 657 743 743 L743 743 Z " />
<glyph glyph-name="V" unicode="V" horiz-adv-x="702" d="M701 665 C701 727 672 757 616 757 C582 757 550 746 516 726 C550 636 509 349 456 141 C402 407 332 673 298 749 C184 753 78 743 -15 719 L233 -12 C317 -16 401 -12 486 4 L485 6 L487 4 C615 330 701 558 701 665 L701 665 Z " />
<glyph glyph-name="W" unicode="W" horiz-adv-x="1087" d="M1086 665 C1084 727 1054 757 998 757 C964 757 932 746 899 726 C937 640 909 380 867 176 C827 430 775 676 746 749 C653 752 565 746 484 731 L419 183 C381 430 339 621 299 749 C186 753 79 743 -15 719 L195 -12 C278 -16 363 -12 448 4 L534 360 L641 -12 C725 -16 809 -12 895 4 C1012 330 1090 558 1086 665 L1086 665 Z " />
<glyph glyph-name="X" unicode="X" horiz-adv-x="750" d="M514 428 L733 751 C662 756 604 752 554 737 C539 717 495 626 454 523 C414 628 372 717 346 749 C216 752 94 742 -14 719 L240 334 L242 334 L16 2 C88 -3 145 1 196 16 C212 38 263 146 307 260 C351 143 399 39 427 4 C553 1 670 11 774 34 L514 428 Z " />
<glyph glyph-name="Y" unicode="Y" horiz-adv-x="722" d="M582 349 L541 346 L737 751 C666 756 608 752 558 737 L466 398 L344 749 C214 752 98 742 -10 719 L195 346 C88 357 73 355 59 349 C59 279 102 249 182 255 L222 258 C218 147 220 45 225 0 C325 -20 434 -13 525 11 C520 54 518 155 522 263 C671 247 689 249 705 255 C705 325 662 355 582 349 L582 349 Z " />
<glyph glyph-name="Z" unicode="Z" horiz-adv-x="690" d="M673 158 L370 93 C477 281 579 470 679 662 C674 692 661 719 642 739 C441 745 239 746 34 739 C26 693 39 616 60 576 L329 660 C219 468 114 276 12 79 C18 54 32 20 49 0 L664 0 C683 41 690 116 673 158 L673 158 Z " />
<glyph glyph-name="bracketleft" unicode="&#x5b;" horiz-adv-x="470" d="M92 307 C92 196 94 120 113 36 C129 -32 292 -130 440 -160 C450 -153 454 -141 453 -126 C406 -103 360 -60 346 -32 C329 0 329 162 329 313 C329 459 329 615 346 646 C360 674 405 717 451 740 C452 755 448 767 439 774 C291 744 128 646 113 578 C94 494 92 418 92 307 L92 307 Z " />
<glyph glyph-name="backslash" unicode="&#x5c;" horiz-adv-x="480" d="M35 744 L305 -200 C351 -210 392 -198 426 -170 L156 774 C110 784 69 772 35 744 L35 744 Z " />
<glyph glyph-name="bracketright" unicode="&#x5d;" horiz-adv-x="470" d="M378 307 C378 418 376 494 357 578 C341 646 178 744 30 774 C20 767 16 755 17 740 C64 717 110 674 124 646 C141 614 141 452 141 301 C141 155 141 -1 124 -32 C110 -60 65 -103 19 -126 C18 -141 22 -153 31 -160 C179 -130 342 -32 357 36 C376 120 378 196 378 307 L378 307 Z " />
<glyph glyph-name="asciicircum" unicode="&#x5e;" horiz-adv-x="600" d="" />
<glyph glyph-name="underscore" unicode="&#x5f;" horiz-adv-x="500" d="M22 -220 L478 -220 C486 -180 485 -144 478 -119 L19 -119 C11 -159 14 -189 22 -220 L22 -220 Z " />
<glyph glyph-name="a" unicode="a" horiz-adv-x="718" d="M676 324 C676 528 573 620 375 620 C150 620 49 550 49 487 C49 438 110 380 250 379 C251 479 290 537 328 537 C358 537 386 499 386 329 L386 311 C349 326 302 335 248 335 C110 335 15 263 15 152 C15 48 91 -20 189 -20 C265 -20 356 25 387 114 C388 60 390 30 393 0 C488 -21 608 -18 693 13 C680 59 676 154 676 324 L676 324 Z M328 140 C300 140 284 163 284 194 C284 231 309 257 349 257 C361 257 374 254 386 250 L386 196 C380 157 353 140 328 140 L328 140 Z " />
<glyph glyph-name="b" unicode="b" horiz-adv-x="753" d="M518 620 C425 620 351 551 332 469 C332 558 334 650 336 737 C235 750 138 750 45 729 C41 452 42 130 40 0 C124 -15 211 -14 286 1 C296 11 304 22 310 39 C359 0 416 -20 478 -20 C624 -20 738 102 738 308 C738 495 644 620 518 620 L518 620 Z M360 97 C348 97 335 100 323 105 C329 155 331 229 331 342 L331 426 C343 440 362 450 378 450 C413 450 450 397 450 276 C450 151 411 97 360 97 L360 97 Z " />
<glyph glyph-name="c" unicode="c" horiz-adv-x="640" d="M453 109 C358 109 303 186 303 369 C303 497 329 544 367 544 C406 544 439 496 441 354 C537 344 626 392 626 466 C626 539 538 620 371 620 C152 620 15 504 15 303 C15 113 139 -20 349 -20 C486 -20 581 40 633 108 C628 129 613 149 596 160 C554 128 501 109 453 109 L453 109 Z " />
<glyph glyph-name="d" unicode="d" horiz-adv-x="741" d="M705 344 C705 470 707 609 710 737 C606 750 515 750 419 729 C417 685 416 625 416 558 C373 600 328 620 271 620 C129 620 15 498 15 292 C15 105 109 -20 235 -20 C322 -20 392 40 417 115 L420 0 C518 -21 632 -18 720 13 C706 88 705 258 705 344 L705 344 Z M375 143 C340 143 303 196 303 317 C303 442 342 496 393 496 C401 496 408 495 415 492 C415 382 415 260 416 162 C405 151 389 143 375 143 L375 143 Z " />
<glyph glyph-name="e" unicode="e" horiz-adv-x="643" d="M596 160 C553 129 501 109 453 109 C364 109 314 180 305 317 L624 317 C652 517 549 620 351 620 C124 620 15 482 15 303 C15 113 139 -20 349 -20 C486 -20 581 40 633 108 C628 129 613 149 596 160 L596 160 Z M346 544 C369 544 398 526 384 385 L303 385 C304 513 318 544 346 544 L346 544 Z " />
<glyph glyph-name="f" unicode="f" horiz-adv-x="487" d="M192 468 C191 471 191 474 191 476 C191 516 307 548 443 508 C463 550 474 599 474 644 C474 723 436 791 349 791 C211 791 93 631 97 465 C67 463 39 461 13 458 C9 429 11 402 21 377 C39 379 58 381 77 382 C79 257 82 85 82 0 C179 -20 284 -13 372 11 C369 72 368 200 368 392 C400 392 433 393 468 393 C476 422 475 449 468 475 C361 471 271 470 192 468 L192 468 Z " />
<glyph glyph-name="g" unicode="g" horiz-adv-x="669" d="M424 86 C290 86 186 76 186 119 C186 133 198 148 223 158 C252 152 284 149 319 149 C534 149 619 251 618 385 C617 481 575 552 474 587 C563 592 651 636 651 707 C651 775 561 825 502 823 C492 736 422 620 325 620 C110 620 26 518 26 384 C27 283 73 209 168 173 C76 134 17 71 17 -22 C17 -126 90 -194 313 -194 C412 -194 527 -180 604 -210 C644 -174 670 -119 670 -65 C670 34 584 86 424 86 L424 86 Z M311 554 C340 554 367 478 368 341 C368 271 357 215 333 215 C304 215 277 292 276 428 C276 499 287 554 311 554 L311 554 Z " />
<glyph glyph-name="h" unicode="h" horiz-adv-x="763" d="M721 393 C721 549 663 620 557 620 C461 620 368 560 332 473 C332 561 334 651 336 737 C235 750 138 750 45 729 C39 452 40 130 46 0 C143 -20 248 -13 336 11 C332 89 330 245 331 418 C343 437 363 449 382 449 C411 449 431 427 431 373 C431 287 431 110 435 0 C532 -18 646 -13 737 11 C721 96 721 295 721 393 L721 393 Z " />
<glyph glyph-name="i" unicode="i" horiz-adv-x="377" d="M25 664 C25 572 81 510 192 510 C300 510 362 570 362 667 C362 759 306 821 195 821 C87 821 25 760 25 664 L25 664 Z M334 479 C233 491 136 492 43 471 C40 281 44 87 48 0 C145 -20 250 -13 338 11 C333 94 332 297 334 479 L334 479 Z " />
<glyph glyph-name="j" unicode="j" horiz-adv-x="377" d="M25 664 C25 572 81 510 192 510 C300 510 362 570 362 667 C362 759 306 821 195 821 C87 821 25 760 25 664 L25 664 Z M334 479 C233 491 136 492 43 471 C42 327 42 181 42 40 C42 -95 35 -145 15 -196 C48 -205 80 -210 109 -210 C243 -210 333 -114 333 91 C333 222 334 353 334 479 L334 479 Z " />
<glyph glyph-name="k" unicode="k" horiz-adv-x="733" d="M690 294 C596 239 468 239 415 274 C604 304 727 419 685 600 C621 623 499 604 442 568 C472 438 436 319 331 310 C331 443 332 597 336 737 C292 743 248 746 205 746 C150 746 97 741 45 729 C39 452 40 130 46 0 C143 -20 248 -13 336 11 C333 65 332 157 331 266 C336 266 340 267 345 267 C352 131 414 -18 550 -19 C709 -20 764 181 690 294 L690 294 Z " />
<glyph glyph-name="l" unicode="l" horiz-adv-x="372" d="M336 737 C292 743 248 746 205 746 C150 746 97 741 45 729 C39 452 40 130 46 0 C143 -20 248 -13 336 11 C330 136 329 462 336 737 L336 737 Z " />
<glyph glyph-name="m" unicode="m" horiz-adv-x="1159" d="M1117 393 C1117 549 1059 620 953 620 C852 620 754 553 722 458 C707 569 652 620 562 620 C466 620 373 560 337 473 C337 514 338 553 339 590 C238 602 141 603 48 582 C42 361 46 104 51 0 C148 -20 253 -13 341 11 C337 84 335 253 336 418 C348 437 368 449 387 449 C416 449 436 427 436 373 C436 287 436 110 440 0 C537 -18 651 -13 742 11 C726 96 726 295 726 393 L726 415 C737 435 758 449 778 449 C807 449 827 427 827 373 C827 287 827 110 831 0 C928 -18 1042 -13 1133 11 C1117 96 1117 295 1117 393 L1117 393 Z " />
<glyph glyph-name="n" unicode="n" horiz-adv-x="768" d="M726 393 C726 549 668 620 562 620 C466 620 373 560 337 473 C337 514 338 553 339 590 C238 602 141 603 48 582 C42 361 46 104 51 0 C148 -20 253 -13 341 11 C337 84 335 253 336 418 C348 437 368 449 387 449 C416 449 436 427 436 373 C436 287 436 110 440 0 C537 -18 651 -13 742 11 C726 96 726 295 726 393 L726 393 Z " />
<glyph glyph-name="o" unicode="o" horiz-adv-x="718" d="M15 298 C15 98 135 -20 354 -20 C597 -20 703 127 703 302 C703 502 583 620 364 620 C120 620 15 473 15 298 L15 298 Z M376 66 C321 66 302 272 302 398 C302 490 315 535 342 535 C384 535 416 427 416 206 C416 112 404 66 376 66 L376 66 Z " />
<glyph glyph-name="p" unicode="p" horiz-adv-x="759" d="M524 620 C431 620 356 550 337 468 C338 510 338 551 339 590 C238 602 141 603 48 582 C43 290 47 -50 51 -188 C148 -208 253 -201 351 -175 C345 -127 341 -48 339 46 C383 1 429 -20 488 -20 C630 -20 744 102 744 308 C744 495 650 620 524 620 L524 620 Z M366 104 C356 104 347 106 338 110 C336 211 336 324 337 432 C349 447 367 457 384 457 C419 457 456 404 456 283 C456 158 417 104 366 104 L366 104 Z " />
<glyph glyph-name="q" unicode="q" horiz-adv-x="747" d="M714 590 C628 602 541 601 468 589 C455 577 445 561 438 534 C389 593 338 620 271 620 C129 620 15 498 15 292 C15 105 109 -20 235 -20 C327 -20 401 48 421 130 C422 -5 424 -120 426 -188 C523 -208 628 -201 726 -175 C710 -44 709 324 714 590 L714 590 Z M375 143 C340 143 303 196 303 317 C303 442 342 496 393 496 C405 496 418 493 429 486 C423 435 421 361 421 248 L421 167 C409 153 391 143 375 143 L375 143 Z " />
<glyph glyph-name="r" unicode="r" horiz-adv-x="610" d="M514 620 C435 620 366 536 336 370 C336 440 337 514 339 590 C238 602 141 603 48 582 C42 361 46 104 51 0 C148 -20 253 -13 341 11 C337 71 336 180 336 310 C399 349 510 352 568 320 C596 381 608 437 608 483 C608 567 569 620 514 620 L514 620 Z " />
<glyph glyph-name="s" unicode="s" horiz-adv-x="575" d="M113 227 C61 211 13 159 13 107 C13 29 120 -20 255 -20 C422 -20 566 42 566 167 C566 314 267 469 267 539 C267 550 274 559 288 559 C324 559 395 500 437 393 C481 407 533 455 533 506 C533 560 475 620 304 620 C128 620 24 551 24 448 C24 280 299 158 299 75 C299 58 288 48 270 48 C235 48 177 90 113 227 L113 227 Z " />
<glyph glyph-name="t" unicode="t" horiz-adv-x="556" d="M498 135 C477 115 455 106 432 106 C391 106 369 135 368 203 C367 287 367 385 368 485 C416 486 467 485 519 483 C527 512 526 539 519 565 C467 563 417 562 368 561 C369 620 370 680 372 737 C306 750 219 750 154 729 C134 686 112 621 95 554 L14 548 C10 519 12 492 22 467 C40 469 59 470 78 472 L78 241 C78 75 156 -21 310 -21 C424 -21 499 31 538 92 C534 110 515 128 498 135 L498 135 Z " />
<glyph glyph-name="u" unicode="u" horiz-adv-x="768" d="M717 587 C620 607 515 600 427 576 C431 503 433 334 432 169 C420 150 400 138 381 138 C352 138 332 160 332 214 C332 300 332 477 328 587 C231 605 117 600 26 576 C42 491 42 292 42 194 C42 38 100 -33 206 -33 C302 -33 395 27 431 114 C431 73 430 34 429 -3 C530 -15 627 -16 720 5 C726 226 722 483 717 587 L717 587 Z " />
<glyph glyph-name="v" unicode="v" horiz-adv-x="602" d="M524 612 C496 612 470 603 442 587 C471 513 456 275 418 105 C381 321 330 538 304 600 C195 603 93 595 3 576 L188 -13 C271 -16 354 -13 439 0 C536 265 597 471 597 542 C597 588 571 612 524 612 L524 612 Z " />
<glyph glyph-name="w" unicode="w" horiz-adv-x="1010" d="M920 612 C892 612 867 603 839 587 C869 512 854 271 815 101 C787 318 750 538 731 600 C622 603 520 595 430 576 C421 510 402 306 386 109 C358 324 322 538 303 600 C194 603 92 595 2 576 L157 -13 C240 -16 323 -13 408 0 L495 328 L585 -13 C668 -16 751 -13 836 0 C933 265 993 471 993 542 C993 588 968 612 920 612 L920 612 Z " />
<glyph glyph-name="x" unicode="x" horiz-adv-x="645" d="M433 339 L627 602 C565 606 515 603 471 591 C458 574 424 501 391 419 C356 503 320 575 297 600 C181 603 73 595 -23 576 L195 271 L-3 1 C59 -3 109 0 153 12 C167 30 203 109 238 196 C274 107 313 29 337 3 C453 0 561 8 657 27 L433 339 Z " />
<glyph glyph-name="y" unicode="y" horiz-adv-x="616" d="M520 608 C495 608 467 602 439 587 C474 508 483 287 428 92 L313 600 C204 603 102 595 11 576 L183 57 C246 45 311 38 383 35 C328 3 170 -3 32 41 C-11 -91 65 -211 192 -210 C308 -209 400 -112 472 39 C540 188 608 428 611 517 C613 570 593 608 520 608 L520 608 Z " />
<glyph glyph-name="z" unicode="z" horiz-adv-x="628" d="M607 144 L350 72 C439 224 524 378 603 536 C599 561 587 583 570 600 C389 605 207 606 23 600 C16 558 27 489 46 452 L277 549 C185 390 95 229 12 64 C17 44 30 16 45 0 L599 0 C616 37 622 106 607 144 L607 144 Z " />
<glyph glyph-name="braceleft" unicode="&#x7b;" horiz-adv-x="460" d="M419 -81 C382 -90 356 -44 356 32 C356 215 299 285 189 307 C298 329 356 399 356 582 C356 658 382 704 419 695 C426 700 430 708 429 720 C380 759 327 778 274 778 C183 778 100 698 106 562 C115 386 81 317 23 323 C17 311 16 301 22 290 C86 271 115 226 105 52 C99 -84 182 -164 274 -164 C327 -164 380 -145 429 -106 C430 -94 426 -86 419 -81 L419 -81 Z " />
<glyph glyph-name="bar" unicode="&#x7c;" horiz-adv-x="191" d="M156 744 L35 744 L35 -200 L156 -200 L156 744 Z " />
<glyph glyph-name="braceright" unicode="&#x7d;" horiz-adv-x="460" d="M438 324 C374 343 345 388 355 562 C361 698 278 778 186 778 C133 778 80 759 31 720 C30 708 34 700 41 695 C78 704 104 658 104 582 C104 399 161 329 271 307 C162 285 104 215 104 32 C104 -44 78 -90 41 -81 C34 -86 30 -94 31 -106 C80 -145 133 -164 186 -164 C277 -164 360 -84 354 52 C345 228 379 297 437 291 C443 303 444 313 438 324 L438 324 Z " />
<glyph glyph-name="asciitilde" unicode="&#x7e;" horiz-adv-x="680" d="M184 364 C259 367 379 304 456 307 C550 310 593 404 566 540 C548 548 526 550 503 549 C502 501 485 481 449 480 C376 477 256 540 177 537 C83 534 40 440 67 304 C85 296 107 295 130 295 C131 343 148 363 184 364 L184 364 Z " />
<glyph glyph-name="exclamdown" unicode="&#xa1;" horiz-adv-x="385" d="M361 517 C361 600 305 656 194 656 C86 656 24 602 24 514 C24 431 80 375 191 375 C299 375 361 430 361 517 L361 517 Z M51 -91 C88 -97 128 -100 168 -100 C227 -100 285 -94 337 -83 C337 60 337 204 333 328 C112 382 35 330 33 127 C32 22 39 -53 51 -91 L51 -91 Z " />
<glyph glyph-name="cent" unicode="&#xa2;" horiz-adv-x="639" d="M601 169 C596 190 581 210 564 221 C523 189 474 170 430 170 C342 170 291 242 291 413 C291 536 311 581 341 581 C372 581 397 527 399 365 C490 354 594 406 594 486 C594 562 518 645 375 652 L373 747 C330 760 281 758 248 745 C250 711 255 676 261 642 C122 611 39 508 39 350 C39 185 130 65 286 44 L287 -68 C330 -81 380 -80 413 -67 C411 -29 406 8 400 47 C493 63 561 113 601 169 L601 169 Z " />
<glyph glyph-name="sterling" unicode="&#xa3;" horiz-adv-x="660" d="M539 251 C422 251 338 123 228 131 C274 175 316 246 338 345 C387 345 442 344 499 342 C507 371 506 398 499 424 C446 422 396 421 350 420 C353 444 354 470 354 496 C354 537 351 589 351 609 C351 658 373 680 395 680 C428 680 462 633 483 494 C587 519 641 564 641 615 C641 693 568 749 423 749 C200 749 47 668 47 483 C47 460 49 436 53 412 C32 410 13 408 -6 407 C-10 378 -8 351 2 326 C23 329 47 329 69 332 C85 272 109 209 135 145 C76 133 11 97 11 47 C11 16 32 -9 68 -9 C107 -9 157 17 191 68 C218 -1 269 -19 330 -19 C446 -19 525 46 593 -3 C704 108 655 251 539 251 L539 251 Z " />
<glyph glyph-name="currency" unicode="&#xa4;" horiz-adv-x="660" d="M549 353 C549 395 537 433 517 466 L591 539 C569 572 543 597 521 609 L446 535 C413 554 375 565 333 565 C292 565 254 554 221 535 L147 610 C114 588 89 562 77 540 L150 467 C129 434 117 395 117 353 C117 311 129 272 150 239 L76 166 C98 133 124 108 146 96 L221 171 C254 152 292 141 333 141 C374 141 412 152 445 171 L520 95 C553 117 578 143 590 165 L516 239 C537 272 549 311 549 353 L549 353 Z M193 353 C193 430 255 491 333 491 C411 491 472 430 473 353 C473 275 411 214 333 214 C255 214 194 275 193 353 L193 353 Z " />
<glyph glyph-name="yen" unicode="&#xa5;" horiz-adv-x="722" d="M650 300 C658 329 658 356 651 382 C611 381 573 381 536 380 L737 751 C666 756 608 752 558 737 L466 423 L344 749 C214 752 98 742 -10 719 L202 375 C164 373 129 371 95 368 C91 339 93 312 103 287 C140 290 179 293 221 295 C221 275 221 255 220 236 C176 234 134 232 95 228 C91 199 93 172 103 147 C140 150 178 153 220 155 C220 88 222 30 225 0 C325 -20 434 -13 525 11 C522 40 520 96 520 160 L650 160 C658 189 658 216 651 242 C605 241 562 241 521 240 C521 260 521 280 522 300 L650 300 Z " />
<glyph glyph-name="brokenbar" unicode="&#xa6;" horiz-adv-x="191" d="M156 744 L35 744 L35 439 L156 439 L156 744 Z M156 105 L35 105 L35 -200 L156 -200 L156 105 Z " />
<glyph glyph-name="section" unicode="&#xa7;" horiz-adv-x="712" d="M568 200 C638 215 695 273 695 354 C695 529 348 684 340 790 C339 809 348 817 363 817 C419 817 489 747 538 622 C595 626 633 672 633 729 L633 739 C627 815 554 886 369 886 C200 886 106 818 106 710 C106 550 448 329 568 200 L568 200 Z M143 92 C81 86 48 39 48 -17 C48 -120 167 -188 317 -188 C480 -188 614 -124 614 4 C614 162 258 392 147 513 C73 499 24 435 24 359 C24 159 350 31 350 -73 C350 -96 340 -111 320 -111 C276 -111 182 -7 143 92 L143 92 Z " />
<glyph glyph-name="copyright" unicode="&#xa9;" horiz-adv-x="1188" d="M594 -155 C907 -155 1152 85 1152 393 C1152 701 907 941 594 941 C281 941 36 701 36 393 C36 85 281 -155 594 -155 L594 -155 Z M594 -85 C323 -85 112 124 112 393 C112 662 323 871 594 871 C865 871 1076 662 1076 393 C1076 124 865 -85 594 -85 L594 -85 Z M709 185 C590 185 528 270 528 468 C528 597 566 646 606 646 C653 646 694 570 674 432 C791 403 906 473 906 563 C905 647 814 728 628 728 C400 728 250 608 250 399 C250 194 383 50 608 50 C753 50 854 113 913 193 C907 216 890 238 871 250 C827 211 766 185 709 185 L709 185 Z " />
<glyph glyph-name="guillemotleft" unicode="&#xab;" horiz-adv-x="838" d="M317 556 C231 448 117 351 54 310 C48 306 48 294 54 290 C117 249 231 152 317 44 C398 94 423 212 262 300 C422 388 400 506 317 556 L317 556 Z M580 300 C792 388 763 506 657 556 C571 448 457 351 394 310 C388 306 388 294 394 290 C457 249 571 152 657 44 C760 94 794 212 580 300 L580 300 Z " />
<glyph glyph-name="logicalnot" unicode="&#xac;" horiz-adv-x="660" d="M566 421 L100 421 C92 379 95 348 103 315 L467 315 L467 188 C500 180 533 181 566 188 L566 421 Z " />
<glyph glyph-name="uni00AD" unicode="&#xad;" horiz-adv-x="400" d="M23 252 L379 252 C387 297 386 338 379 366 L20 366 C12 321 15 287 23 252 L23 252 Z " />
<glyph glyph-name="registered" unicode="&#xae;" horiz-adv-x="701" d="M343 974 C176 974 45 845 45 681 C45 517 176 388 343 388 C510 388 641 517 641 681 C641 845 510 974 343 974 L343 974 Z M343 435 C204 435 96 543 95 681 C94 819 204 926 343 926 C482 926 590 819 591 681 C592 543 482 435 343 435 L343 435 Z M510 745 C510 807 464 848 344 848 C291 848 245 840 182 818 C187 806 190 776 190 667 C190 609 191 559 192 528 C240 518 286 521 325 533 C324 557 323 594 323 637 L337 634 C339 579 359 519 425 519 C485 518 526 581 497 637 C458 612 406 600 379 631 C459 633 510 676 510 745 L510 745 Z M323 665 C323 709 323 756 324 802 C329 803 335 804 339 804 C365 804 386 782 386 737 C386 688 362 666 323 665 L323 665 Z " />
<glyph glyph-name="degree" unicode="&#xb0;" horiz-adv-x="510" d="M257 784 C143 784 64 717 64 609 C64 505 136 429 253 429 C366 429 446 497 446 606 C446 709 373 784 257 784 L257 784 Z M255 716 C313 716 347 675 347 605 C347 539 310 498 255 498 C196 498 163 543 163 610 C163 677 199 716 255 716 L255 716 Z " />
<glyph glyph-name="plusminus" unicode="&#xb1;" horiz-adv-x="660" d="M269 414 L269 238 C317 230 360 231 390 238 L390 414 L559 414 C567 456 566 495 559 520 L390 520 L390 697 C342 705 306 702 269 694 L269 520 L100 520 C92 478 95 447 103 414 L269 414 Z M560 181 L101 181 C93 141 96 111 104 80 L560 80 C568 120 567 156 560 181 L560 181 Z " />
<glyph glyph-name="uni00B5" unicode="&#xb5;" horiz-adv-x="768" d="M717 600 C620 620 515 613 427 589 C431 516 433 347 432 182 C420 163 400 151 381 151 C352 151 332 173 332 227 C332 313 331 490 328 600 C231 618 117 613 26 589 C42 504 42 305 42 207 C42 114 43 -78 46 -197 C129 -215 234 -210 312 -186 C298 -147 288 -85 281 -19 C286 -20 291 -20 296 -20 C351 -20 405 31 431 108 C430 74 430 41 429 10 C530 -2 627 -3 720 18 C726 239 722 496 717 600 L717 600 Z " />
<glyph glyph-name="paragraph" unicode="&#xb6;" horiz-adv-x="710" d="M710 710 C597 735 490 751 384 751 C132 751 -11 660 -11 465 C-11 266 126 206 303 239 L303 0 C341 -13 382 -13 424 0 L424 654 C455 652 484 650 514 647 L514 0 C552 -13 593 -13 635 0 L635 629 C654 626 672 622 691 618 C708 644 716 674 710 710 L710 710 Z " />
<glyph glyph-name="periodcentered" unicode="&#xb7;" horiz-adv-x="380" d="M28 294 C28 202 84 140 195 140 C303 140 365 200 365 297 C365 389 309 451 198 451 C90 451 28 390 28 294 L28 294 Z " />
<glyph glyph-name="guillemotright" unicode="&#xbb;" horiz-adv-x="838" d="M444 310 C381 351 267 448 181 556 C78 506 44 388 258 300 C46 212 75 94 181 44 C267 152 381 249 444 290 C450 294 450 306 444 310 L444 310 Z M784 310 C721 351 607 448 521 556 C440 506 415 388 576 300 C416 212 438 94 521 44 C607 152 721 249 784 290 C790 294 790 306 784 310 L784 310 Z " />
<glyph glyph-name="questiondown" unicode="&#xbf;" horiz-adv-x="565" d="M448 525 C448 602 392 654 281 654 C173 654 111 604 111 522 C111 445 167 393 278 393 C386 393 448 444 448 525 L448 525 Z M381 244 C382 312 308 378 213 378 C97 378 -12 279 -12 131 C-12 -20 100 -110 298 -110 C469 -110 557 -32 557 60 C557 170 445 227 309 176 C361 74 359 -30 306 -30 C281 -30 267 -3 267 47 C267 185 309 244 381 244 L381 244 Z " />
<glyph glyph-name="Agrave" unicode="&#xc0;" horiz-adv-x="764" d="M521 768 C534 786 548 815 552 846 C415 883 287 935 186 987 C140 952 121 885 137 824 C250 795 383 778 521 768 L521 768 Z M539 619 C511 706 438 749 341 749 C244 749 165 704 141 639 C181 634 223 610 251 556 C210 455 166 344 127 241 C27 246 5 245 -15 243 C-20 175 17 140 90 140 C71 87 55 40 43 0 C92 -5 130 -5 172 0 C181 42 194 91 208 144 L384 151 C405 95 426 45 446 0 C562 -6 666 -10 758 -4 C701 125 648 274 539 619 L539 619 Z M233 235 C251 300 271 367 290 433 C313 358 335 290 356 228 C309 231 269 233 233 235 L233 235 Z " />
<glyph glyph-name="Aacute" unicode="&#xc1;" horiz-adv-x="764" d="M546 824 C562 885 543 952 497 987 C396 935 268 883 131 846 C135 815 149 786 162 768 C300 778 433 795 546 824 L546 824 Z M539 619 C511 706 438 749 341 749 C244 749 165 704 141 639 C181 634 223 610 251 556 C210 455 166 344 127 241 C27 246 5 245 -15 243 C-20 175 17 140 90 140 C71 87 55 40 43 0 C92 -5 130 -5 172 0 C181 42 194 91 208 144 L384 151 C405 95 426 45 446 0 C562 -6 666 -10 758 -4 C701 125 648 274 539 619 L539 619 Z M233 235 C251 300 271 367 290 433 C313 358 335 290 356 228 C309 231 269 233 233 235 L233 235 Z " />
<glyph glyph-name="Acircumflex" unicode="&#xc2;" horiz-adv-x="764" d="M138 760 C194 799 265 840 341 875 C416 840 487 799 543 760 C589 783 609 846 594 903 C531 927 459 944 383 956 C355 961 326 960 298 956 C222 944 151 927 87 903 C72 846 92 783 138 760 L138 760 Z M539 619 C511 706 438 749 341 749 C244 749 165 704 141 639 C181 634 223 610 251 556 C210 455 166 344 127 241 C27 246 5 245 -15 243 C-20 175 17 140 90 140 C71 87 55 40 43 0 C92 -5 130 -5 172 0 C181 42 194 91 208 144 L384 151 C405 95 426 45 446 0 C562 -6 666 -10 758 -4 C701 125 648 274 539 619 L539 619 Z M233 235 C251 300 271 367 290 433 C313 358 335 290 356 228 C309 231 269 233 233 235 L233 235 Z " />
<glyph glyph-name="Atilde" unicode="&#xc3;" horiz-adv-x="764" d="M207 776 C208 812 220 826 247 826 C298 826 381 785 434 785 C505 785 535 856 512 952 C499 958 483 960 466 959 C465 924 450 910 423 910 C374 910 296 951 242 951 C171 951 138 880 161 784 C174 777 190 776 207 776 L207 776 Z M539 619 C511 706 438 749 341 749 C244 749 165 704 141 639 C181 634 223 610 251 556 C210 455 166 344 127 241 C27 246 5 245 -15 243 C-20 175 17 140 90 140 C71 87 55 40 43 0 C92 -5 130 -5 172 0 C181 42 194 91 208 144 L384 151 C405 95 426 45 446 0 C562 -6 666 -10 758 -4 C701 125 648 274 539 619 L539 619 Z M233 235 C251 300 271 367 290 433 C313 358 335 290 356 228 C309 231 269 233 233 235 L233 235 Z " />
<glyph glyph-name="Adieresis" unicode="&#xc4;" horiz-adv-x="764" d="M457 777 C516 777 551 811 551 864 C551 915 520 950 458 950 C399 950 364 917 364 863 C364 812 395 777 457 777 L457 777 Z M224 776 C283 776 318 810 318 863 C318 914 287 949 225 949 C166 949 131 916 131 862 C131 811 162 776 224 776 L224 776 Z M539 619 C511 706 438 749 341 749 C244 749 165 704 141 639 C181 634 223 610 251 556 C210 455 166 344 127 241 C27 246 5 245 -15 243 C-20 175 17 140 90 140 C71 87 55 40 43 0 C92 -5 130 -5 172 0 C181 42 194 91 208 144 L384 151 C405 95 426 45 446 0 C562 -6 666 -10 758 -4 C701 125 648 274 539 619 L539 619 Z M233 235 C251 300 271 367 290 433 C313 358 335 290 356 228 C309 231 269 233 233 235 L233 235 Z " />
<glyph glyph-name="Aring" unicode="&#xc5;" horiz-adv-x="764" d="M340 771 C394 771 434 809 434 858 C434 905 399 944 341 944 C283 944 247 911 247 857 C247 810 282 771 340 771 L340 771 Z M341 906 C372 906 392 883 392 858 C392 831 370 809 340 809 C309 809 289 832 289 857 C289 885 311 906 341 906 L341 906 Z M539 619 C511 706 438 749 341 749 C244 749 165 704 141 639 C181 634 223 610 251 556 C210 455 166 344 127 241 C27 246 5 245 -15 243 C-20 175 17 140 90 140 C71 87 55 40 43 0 C92 -5 130 -5 172 0 C181 42 194 91 208 144 L384 151 C405 95 426 45 446 0 C562 -6 666 -10 758 -4 C701 125 648 274 539 619 L539 619 Z M233 235 C251 300 271 367 290 433 C313 358 335 290 356 228 C309 231 269 233 233 235 L233 235 Z " />
<glyph glyph-name="AE" unicode="&#xc6;" horiz-adv-x="979" d="M975 146 C908 128 809 115 692 112 C679 170 665 239 650 327 L874 301 C890 331 898 383 891 425 L635 414 C625 474 614 542 602 619 C600 629 598 638 595 647 C763 641 853 629 947 610 C963 640 971 692 963 734 C820 741 639 749 424 749 C292 749 234 720 188 639 C236 634 280 596 301 553 C245 453 184 343 130 241 C28 246 5 245 -15 243 C-19 179 13 145 77 140 C50 88 26 40 8 0 C56 -5 94 -5 137 0 C153 41 173 90 195 144 L373 150 C385 95 398 45 411 0 L410 0 C591 -4 773 -6 958 -2 C984 34 987 107 975 146 L975 146 Z M235 235 C263 300 293 367 323 434 C334 358 345 290 357 228 C310 231 270 233 235 235 L235 235 Z " />
<glyph glyph-name="Egrave" unicode="&#xc8;" horiz-adv-x="660" d="M530 768 C543 786 557 815 561 846 C424 883 296 935 195 987 C149 952 130 885 146 824 C259 795 392 778 530 768 L530 768 Z M656 146 C585 128 480 114 357 111 C356 166 355 232 355 305 L555 281 C571 311 579 363 572 405 L355 396 C356 472 356 553 358 636 C459 632 542 623 629 610 C645 640 653 692 645 734 C489 750 293 746 59 716 C53 425 54 121 60 3 C251 -7 443 -11 639 -2 C665 34 668 107 656 146 L656 146 Z " />
<glyph glyph-name="Eacute" unicode="&#xc9;" horiz-adv-x="660" d="M555 824 C571 885 552 952 506 987 C405 935 277 883 140 846 C144 815 158 786 171 768 C309 778 442 795 555 824 L555 824 Z M656 146 C585 128 480 114 357 111 C356 166 355 232 355 305 L555 281 C571 311 579 363 572 405 L355 396 C356 472 356 553 358 636 C459 632 542 623 629 610 C645 640 653 692 645 734 C489 750 293 746 59 716 C53 425 54 121 60 3 C251 -7 443 -11 639 -2 C665 34 668 107 656 146 L656 146 Z " />
<glyph glyph-name="Ecircumflex" unicode="&#xca;" horiz-adv-x="660" d="M147 760 C203 799 274 840 350 875 C425 840 496 799 552 760 C598 783 618 846 603 903 C540 927 468 944 392 956 C364 961 335 960 307 956 C231 944 160 927 96 903 C81 846 101 783 147 760 L147 760 Z M656 146 C585 128 480 114 357 111 C356 166 355 232 355 305 L555 281 C571 311 579 363 572 405 L355 396 C356 472 356 553 358 636 C459 632 542 623 629 610 C645 640 653 692 645 734 C489 750 293 746 59 716 C53 425 54 121 60 3 C251 -7 443 -11 639 -2 C665 34 668 107 656 146 L656 146 Z " />
<glyph glyph-name="Edieresis" unicode="&#xcb;" horiz-adv-x="660" d="M466 777 C525 777 560 811 560 864 C560 915 529 950 467 950 C408 950 373 917 373 863 C373 812 404 777 466 777 L466 777 Z M233 776 C292 776 327 810 327 863 C327 914 296 949 234 949 C175 949 140 916 140 862 C140 811 171 776 233 776 L233 776 Z M656 146 C585 128 480 114 357 111 C356 166 355 232 355 305 L555 281 C571 311 579 363 572 405 L355 396 C356 472 356 553 358 636 C459 632 542 623 629 610 C645 640 653 692 645 734 C489 750 293 746 59 716 C53 425 54 121 60 3 C251 -7 443 -11 639 -2 C665 34 668 107 656 146 L656 146 Z " />
<glyph glyph-name="Iacute" unicode="&#xcd;" horiz-adv-x="412" d="M-4 846 C0 815 14 786 27 768 C165 778 298 795 411 824 C427 885 408 952 362 987 C261 935 133 883 -4 846 L-4 846 Z M360 737 C318 743 273 746 228 746 C169 746 111 740 59 729 C53 425 54 121 60 0 C160 -20 269 -13 360 11 C354 131 353 441 360 737 L360 737 Z " />
<glyph glyph-name="Icircumflex" unicode="&#xce;" horiz-adv-x="412" d="M459 903 C396 927 324 944 248 956 C220 961 191 960 163 956 C87 944 16 927 -48 903 C-63 846 -43 783 3 760 C59 799 130 840 206 875 C281 840 352 799 408 760 C454 783 474 846 459 903 L459 903 Z M228 746 C169 746 111 740 59 729 C53 425 54 121 60 0 C160 -20 269 -13 360 11 C354 131 353 441 360 737 C318 743 273 746 228 746 L228 746 Z " />
<glyph glyph-name="Idieresis" unicode="&#xcf;" horiz-adv-x="412" d="M229 863 C229 812 260 777 322 777 C381 777 416 811 416 864 C416 915 385 950 323 950 C264 950 229 917 229 863 L229 863 Z M-4 862 C-4 811 27 776 89 776 C148 776 183 810 183 863 C183 914 152 949 90 949 C31 949 -4 916 -4 862 L-4 862 Z M360 737 C318 743 273 746 228 746 C169 746 111 740 59 729 C53 425 54 121 60 0 C160 -20 269 -13 360 11 C354 131 353 441 360 737 L360 737 Z " />
<glyph glyph-name="Eth" unicode="&#xd0;" horiz-adv-x="837" d="M422 749 C294 749 143 716 39 679 C48 655 54 592 55 381 C40 379 26 378 12 377 C8 348 10 321 20 296 L55 299 C55 172 57 62 60 0 C162 -13 279 -21 394 -21 C687 -21 818 136 818 354 C818 591 664 749 422 749 L422 749 Z M386 65 C377 65 368 65 358 66 C356 130 355 217 355 315 L457 312 C465 341 464 368 457 394 L355 391 C356 479 357 572 359 660 C365 661 372 661 378 661 C449 661 521 576 521 344 C521 119 475 65 386 65 L386 65 Z " />
<glyph glyph-name="Ntilde" unicode="&#xd1;" horiz-adv-x="746" d="M222 776 C223 812 235 826 262 826 C313 826 396 785 449 785 C520 785 550 856 527 952 C514 958 498 960 481 959 C480 924 465 910 438 910 C389 910 311 951 257 951 C186 951 153 880 176 784 C189 777 205 776 222 776 L222 776 Z M688 743 C639 750 588 749 529 737 C542 637 560 500 573 353 C504 434 426 526 354 617 C285 705 201 749 126 749 C109 749 92 746 76 741 L75 741 C24 725 -21 685 -35 637 C-13 627 26 599 65 555 C57 354 58 129 68 -9 C119 -20 172 -18 227 -6 C205 99 195 250 189 401 C305 261 429 124 557 -10 C610 -16 654 -15 694 -7 C703 220 701 575 688 743 L688 743 Z " />
<glyph glyph-name="Ograve" unicode="&#xd2;" horiz-adv-x="826" d="M615 846 C478 883 350 935 249 987 C203 952 184 885 200 824 C313 795 446 778 584 768 C597 786 611 815 615 846 L615 846 Z M418 749 C153 749 19 585 19 356 C19 130 165 -21 408 -21 C673 -21 807 143 807 372 C807 598 661 749 418 749 L418 749 Z M319 428 C319 573 345 664 397 664 C462 664 507 505 507 301 C507 155 481 65 429 65 C364 65 319 223 319 428 L319 428 Z " />
<glyph glyph-name="Oacute" unicode="&#xd3;" horiz-adv-x="826" d="M194 846 C198 815 212 786 225 768 C363 778 496 795 609 824 C625 885 606 952 560 987 C459 935 331 883 194 846 L194 846 Z M418 749 C153 749 19 585 19 356 C19 130 165 -21 408 -21 C673 -21 807 143 807 372 C807 598 661 749 418 749 L418 749 Z M319 428 C319 573 345 664 397 664 C462 664 507 505 507 301 C507 155 481 65 429 65 C364 65 319 223 319 428 L319 428 Z " />
<glyph glyph-name="Ocircumflex" unicode="&#xd4;" horiz-adv-x="826" d="M201 760 C257 799 328 840 404 875 C479 840 550 799 606 760 C652 783 672 846 657 903 C594 927 522 944 446 956 C418 961 389 960 361 956 C285 944 214 927 150 903 C135 846 155 783 201 760 L201 760 Z M418 749 C153 749 19 585 19 356 C19 130 165 -21 408 -21 C673 -21 807 143 807 372 C807 598 661 749 418 749 L418 749 Z M429 65 C364 65 319 223 319 428 C319 573 345 664 397 664 C462 664 507 505 507 301 C507 155 481 65 429 65 L429 65 Z " />
<glyph glyph-name="Otilde" unicode="&#xd5;" horiz-adv-x="826" d="M310 826 C361 826 444 785 497 785 C568 785 598 856 575 952 C562 958 546 960 529 959 C528 924 513 910 486 910 C437 910 359 951 305 951 C234 951 201 880 224 784 C237 777 253 776 270 776 C271 812 283 826 310 826 L310 826 Z M418 749 C153 749 19 585 19 356 C19 130 165 -21 408 -21 C673 -21 807 143 807 372 C807 598 661 749 418 749 L418 749 Z M319 428 C319 573 345 664 397 664 C462 664 507 505 507 301 C507 155 481 65 429 65 C364 65 319 223 319 428 L319 428 Z " />
<glyph glyph-name="Odieresis" unicode="&#xd6;" horiz-adv-x="826" d="M427 863 C427 812 458 777 520 777 C579 777 614 811 614 864 C614 915 583 950 521 950 C462 950 427 917 427 863 L427 863 Z M194 862 C194 811 225 776 287 776 C346 776 381 810 381 863 C381 914 350 949 288 949 C229 949 194 916 194 862 L194 862 Z M418 749 C153 749 19 585 19 356 C19 130 165 -21 408 -21 C673 -21 807 143 807 372 C807 598 661 749 418 749 L418 749 Z M319 428 C319 573 345 664 397 664 C462 664 507 505 507 301 C507 155 481 65 429 65 C364 65 319 223 319 428 L319 428 Z " />
<glyph glyph-name="multiply" unicode="&#xd7;" horiz-adv-x="660" d="M554 513 C528 550 503 571 473 590 L330 440 L185 592 C148 566 127 541 108 511 L258 368 L107 224 C133 187 161 158 186 145 L330 296 L474 145 C511 171 540 199 553 224 L402 368 L554 513 Z " />
<glyph glyph-name="Ugrave" unicode="&#xd9;" horiz-adv-x="781" d="M652 846 C515 883 387 935 286 987 C240 952 221 885 237 824 C350 795 483 778 621 768 C634 786 648 815 652 846 L652 846 Z M743 743 C696 750 647 749 591 737 C602 643 616 482 615 370 C615 209 568 123 479 123 C384 123 351 221 351 370 C351 479 353 612 361 737 C319 743 274 746 229 746 C170 746 112 740 60 729 C55 618 51 498 51 350 C51 129 173 -3 394 -3 C609 -3 726 115 735 379 C742 521 744 657 743 743 L743 743 Z " />
<glyph glyph-name="Uacute" unicode="&#xda;" horiz-adv-x="781" d="M231 846 C235 815 249 786 262 768 C400 778 533 795 646 824 C662 885 643 952 597 987 C496 935 368 883 231 846 L231 846 Z M743 743 C696 750 647 749 591 737 C602 643 616 482 615 370 C615 209 568 123 479 123 C384 123 351 221 351 370 C351 479 353 612 361 737 C319 743 274 746 229 746 C170 746 112 740 60 729 C55 618 51 498 51 350 C51 129 173 -3 394 -3 C609 -3 726 115 735 379 C742 521 744 657 743 743 L743 743 Z " />
<glyph glyph-name="Ucircumflex" unicode="&#xdb;" horiz-adv-x="781" d="M238 760 C294 799 365 840 441 875 C516 840 587 799 643 760 C689 783 709 846 694 903 C631 927 559 944 483 956 C455 961 426 960 398 956 C322 944 251 927 187 903 C172 846 192 783 238 760 L238 760 Z M743 743 C696 750 647 749 591 737 C602 643 616 482 615 370 C615 209 568 123 479 123 C384 123 351 221 351 370 C351 479 353 612 361 737 C319 743 274 746 229 746 C170 746 112 740 60 729 C55 618 51 498 51 350 C51 129 173 -3 394 -3 C609 -3 726 115 735 379 C742 521 744 657 743 743 L743 743 Z " />
<glyph glyph-name="Udieresis" unicode="&#xdc;" horiz-adv-x="781" d="M464 863 C464 812 495 777 557 777 C616 777 651 811 651 864 C651 915 620 950 558 950 C499 950 464 917 464 863 L464 863 Z M231 862 C231 811 262 776 324 776 C383 776 418 810 418 863 C418 914 387 949 325 949 C266 949 231 916 231 862 L231 862 Z M743 743 C696 750 647 749 591 737 C602 643 616 482 615 370 C615 209 568 123 479 123 C384 123 351 221 351 370 C351 479 353 612 361 737 C319 743 274 746 229 746 C170 746 112 740 60 729 C55 618 51 498 51 350 C51 129 173 -3 394 -3 C609 -3 726 115 735 379 C742 521 744 657 743 743 L743 743 Z " />
<glyph glyph-name="Yacute" unicode="&#xdd;" horiz-adv-x="722" d="M598 824 C614 885 595 952 549 987 C448 935 320 883 183 846 C187 815 201 786 214 768 C352 778 485 795 598 824 L598 824 Z M582 349 L541 346 L737 751 C666 756 608 752 558 737 L466 398 L344 749 C214 752 98 742 -10 719 L195 346 C88 357 73 355 59 349 C59 279 102 249 182 255 L222 258 C218 147 220 45 225 0 C325 -20 434 -13 525 11 C520 54 518 155 522 263 C671 247 689 249 705 255 C705 325 662 355 582 349 L582 349 Z " />
<glyph glyph-name="Thorn" unicode="&#xde;" horiz-adv-x="852" d="M358 613 C358 654 359 696 360 737 C318 743 273 746 228 746 C169 746 111 740 59 729 C53 425 54 121 60 0 C160 -20 269 -13 360 11 C359 39 357 78 357 125 C637 63 832 191 832 389 C832 589 657 675 358 613 L358 613 Z M356 201 C355 297 355 413 356 534 C444 555 511 505 511 373 C511 248 453 197 356 201 L356 201 Z " />
<glyph glyph-name="germandbls" unicode="&#xdf;" horiz-adv-x="921" d="M916 218 C913 354 803 435 615 430 C715 450 763 502 763 577 C763 687 658 766 460 766 C223 766 81 654 77 483 C55 482 34 480 13 478 C9 449 11 422 21 397 C39 398 58 400 77 402 C77 253 79 86 82 0 C179 -20 284 -13 372 11 C369 93 368 269 369 500 C370 660 399 697 437 697 C489 697 523 627 523 557 C523 502 503 448 453 424 C443 390 448 361 465 334 C563 362 649 314 649 147 C649 86 639 38 606 38 C565 38 552 114 571 243 C489 268 395 223 396 137 C397 61 441 -20 624 -20 C828 -20 919 91 916 218 L916 218 Z " />
<glyph glyph-name="agrave" unicode="&#xe0;" horiz-adv-x="718" d="M535 629 C548 647 562 676 566 707 C429 744 301 796 200 848 C154 813 135 746 151 685 C264 656 397 639 535 629 L535 629 Z M676 324 C676 528 573 620 375 620 C150 620 49 550 49 487 C49 438 110 380 250 379 C251 479 290 537 328 537 C358 537 386 499 386 329 L386 311 C349 326 302 335 248 335 C110 335 15 263 15 152 C15 48 91 -20 189 -20 C265 -20 356 25 387 114 C388 60 390 30 393 0 C488 -21 608 -18 693 13 C680 59 676 154 676 324 L676 324 Z M328 140 C300 140 284 163 284 194 C284 231 309 257 349 257 C361 257 374 254 386 250 L386 196 C380 157 353 140 328 140 L328 140 Z " />
<glyph glyph-name="aacute" unicode="&#xe1;" horiz-adv-x="718" d="M565 685 C581 746 562 813 516 848 C415 796 287 744 150 707 C154 676 168 647 181 629 C319 639 452 656 565 685 L565 685 Z M676 324 C676 528 573 620 375 620 C150 620 49 550 49 487 C49 438 110 380 250 379 C251 479 290 537 328 537 C358 537 386 499 386 329 L386 311 C349 326 302 335 248 335 C110 335 15 263 15 152 C15 48 91 -20 189 -20 C265 -20 356 25 387 114 C388 60 390 30 393 0 C488 -21 608 -18 693 13 C680 59 676 154 676 324 L676 324 Z M328 140 C300 140 284 163 284 194 C284 231 309 257 349 257 C361 257 374 254 386 250 L386 196 C380 157 353 140 328 140 L328 140 Z " />
<glyph glyph-name="acircumflex" unicode="&#xe2;" horiz-adv-x="718" d="M155 614 C211 653 282 694 358 729 C433 694 504 653 560 614 C606 637 626 700 611 757 C548 781 476 798 400 810 C372 815 343 814 315 810 C239 798 168 781 104 757 C89 700 109 637 155 614 L155 614 Z M676 324 C676 528 573 620 375 620 C150 620 49 550 49 487 C49 438 110 380 250 379 C251 479 290 537 328 537 C358 537 386 499 386 329 L386 311 C349 326 302 335 248 335 C110 335 15 263 15 152 C15 48 91 -20 189 -20 C265 -20 356 25 387 114 C388 60 390 30 393 0 C488 -21 608 -18 693 13 C680 59 676 154 676 324 L676 324 Z M328 140 C300 140 284 163 284 194 C284 231 309 257 349 257 C361 257 374 254 386 250 L386 196 C380 157 353 140 328 140 L328 140 Z " />
<glyph glyph-name="atilde" unicode="&#xe3;" horiz-adv-x="718" d="M242 643 C243 679 255 693 282 693 C333 693 416 652 469 652 C540 652 570 723 547 819 C534 825 518 827 501 826 C500 791 485 777 458 777 C409 777 331 818 277 818 C206 818 173 747 196 651 C209 644 225 643 242 643 L242 643 Z M676 324 C676 528 573 620 375 620 C150 620 49 550 49 487 C49 438 110 380 250 379 C251 479 290 537 328 537 C358 537 386 499 386 329 L386 311 C349 326 302 335 248 335 C110 335 15 263 15 152 C15 48 91 -20 189 -20 C265 -20 356 25 387 114 C388 60 390 30 393 0 C488 -21 608 -18 693 13 C680 59 676 154 676 324 L676 324 Z M328 140 C300 140 284 163 284 194 C284 231 309 257 349 257 C361 257 374 254 386 250 L386 196 C380 157 353 140 328 140 L328 140 Z " />
<glyph glyph-name="adieresis" unicode="&#xe4;" horiz-adv-x="718" d="M240 627 C299 627 334 661 334 714 C334 765 303 800 241 800 C182 800 147 767 147 713 C147 662 178 627 240 627 L240 627 Z M475 627 C534 627 569 661 569 714 C569 765 538 800 476 800 C417 800 382 767 382 713 C382 662 413 627 475 627 L475 627 Z M676 324 C676 528 573 620 375 620 C150 620 49 550 49 487 C49 438 110 380 250 379 C251 479 290 537 328 537 C358 537 386 499 386 329 L386 311 C349 326 302 335 248 335 C110 335 15 263 15 152 C15 48 91 -20 189 -20 C265 -20 356 25 387 114 C388 60 390 30 393 0 C488 -21 608 -18 693 13 C680 59 676 154 676 324 L676 324 Z M328 140 C300 140 284 163 284 194 C284 231 309 257 349 257 C361 257 374 254 386 250 L386 196 C380 157 353 140 328 140 L328 140 Z " />
<glyph glyph-name="aring" unicode="&#xe5;" horiz-adv-x="718" d="M357 634 C411 634 451 672 451 721 C451 768 416 807 358 807 C300 807 264 774 264 720 C264 673 299 634 357 634 L357 634 Z M358 769 C389 769 409 746 409 721 C409 694 387 672 357 672 C326 672 306 695 306 720 C306 748 328 769 358 769 L358 769 Z M676 324 C676 528 573 620 375 620 C150 620 49 550 49 487 C49 438 110 380 250 379 C251 479 290 537 328 537 C358 537 386 499 386 329 L386 311 C349 326 302 335 248 335 C110 335 15 263 15 152 C15 48 91 -20 189 -20 C265 -20 356 25 387 114 C388 60 390 30 393 0 C488 -21 608 -18 693 13 C680 59 676 154 676 324 L676 324 Z M328 140 C300 140 284 163 284 194 C284 231 309 257 349 257 C361 257 374 254 386 250 L386 196 C380 157 353 140 328 140 L328 140 Z " />
<glyph glyph-name="ae" unicode="&#xe6;" horiz-adv-x="1013" d="M966 160 C923 129 871 109 823 109 C734 109 684 180 675 317 L994 317 C1022 517 919 620 721 620 C647 620 586 599 540 559 C496 600 430 620 341 620 C150 620 49 550 49 487 C49 438 110 380 250 379 C251 479 290 537 328 537 C358 537 386 499 386 329 L386 311 C349 326 302 335 248 335 C110 335 15 263 15 152 C15 48 91 -20 197 -20 C292 -20 395 36 425 135 C477 39 579 -20 719 -20 C856 -20 951 40 1003 108 C998 129 983 149 966 160 L966 160 Z M716 544 C739 544 768 526 754 385 L673 385 C674 513 688 544 716 544 L716 544 Z M328 140 C300 140 284 163 284 194 C284 231 309 257 349 257 C361 257 374 254 386 250 L386 194 C379 157 352 140 328 140 L328 140 Z " />
<glyph glyph-name="egrave" unicode="&#xe8;" horiz-adv-x="643" d="M513 629 C526 647 540 676 544 707 C407 744 279 796 178 848 C132 813 113 746 129 685 C242 656 375 639 513 629 L513 629 Z M596 160 C553 129 501 109 453 109 C364 109 314 180 305 317 L624 317 C652 517 549 620 351 620 C124 620 15 482 15 303 C15 113 139 -20 349 -20 C486 -20 581 40 633 108 C628 129 613 149 596 160 L596 160 Z M346 544 C369 544 398 526 384 385 L303 385 C304 513 318 544 346 544 L346 544 Z " />
<glyph glyph-name="eacute" unicode="&#xe9;" horiz-adv-x="643" d="M543 685 C559 746 540 813 494 848 C393 796 265 744 128 707 C132 676 146 647 159 629 C297 639 430 656 543 685 L543 685 Z M596 160 C553 129 501 109 453 109 C364 109 314 180 305 317 L624 317 C652 517 549 620 351 620 C124 620 15 482 15 303 C15 113 139 -20 349 -20 C486 -20 581 40 633 108 C628 129 613 149 596 160 L596 160 Z M346 544 C369 544 398 526 384 385 L303 385 C304 513 318 544 346 544 L346 544 Z " />
<glyph glyph-name="ecircumflex" unicode="&#xea;" horiz-adv-x="643" d="M133 614 C189 653 260 694 336 729 C411 694 482 653 538 614 C584 637 604 700 589 757 C526 781 454 798 378 810 C350 815 321 814 293 810 C217 798 146 781 82 757 C67 700 87 637 133 614 L133 614 Z M596 160 C553 129 501 109 453 109 C364 109 314 180 305 317 L624 317 C652 517 549 620 351 620 C124 620 15 482 15 303 C15 113 139 -20 349 -20 C486 -20 581 40 633 108 C628 129 613 149 596 160 L596 160 Z M346 544 C369 544 398 526 384 385 L303 385 C304 513 318 544 346 544 L346 544 Z " />
<glyph glyph-name="edieresis" unicode="&#xeb;" horiz-adv-x="643" d="M218 627 C277 627 312 661 312 714 C312 765 281 800 219 800 C160 800 125 767 125 713 C125 662 156 627 218 627 L218 627 Z M453 627 C512 627 547 661 547 714 C547 765 516 800 454 800 C395 800 360 767 360 713 C360 662 391 627 453 627 L453 627 Z M596 160 C553 129 501 109 453 109 C364 109 314 180 305 317 L624 317 C652 517 549 620 351 620 C124 620 15 482 15 303 C15 113 139 -20 349 -20 C486 -20 581 40 633 108 C628 129 613 149 596 160 L596 160 Z M346 544 C369 544 398 526 384 385 L303 385 C304 513 318 544 346 544 L346 544 Z " />
<glyph glyph-name="igrave" unicode="&#xec;" horiz-adv-x="377" d="M397 707 C260 744 132 796 31 848 C-15 813 -34 746 -18 685 C95 656 228 639 366 629 C379 647 393 676 397 707 L397 707 Z M337 590 C236 602 139 603 46 582 C40 361 44 104 49 0 C146 -20 251 -13 339 11 C333 111 332 389 337 590 L337 590 Z " />
<glyph glyph-name="iacute" unicode="&#xed;" horiz-adv-x="377" d="M-19 707 C-15 676 -1 647 12 629 C150 639 283 656 396 685 C412 746 393 813 347 848 C246 796 118 744 -19 707 L-19 707 Z M337 590 C236 602 139 603 46 582 C40 361 44 104 49 0 C146 -20 251 -13 339 11 C333 111 332 389 337 590 L337 590 Z " />
<glyph glyph-name="icircumflex" unicode="&#xee;" horiz-adv-x="377" d="M422 757 C362 781 296 798 227 810 C202 814 175 814 150 810 C81 799 16 781 -45 757 C-60 700 -40 637 6 614 C60 651 123 691 189 725 C255 691 317 651 371 614 C417 637 437 700 422 757 L422 757 Z M337 590 C236 602 139 603 46 582 C40 361 44 104 49 0 C146 -20 251 -13 339 11 C333 111 332 389 337 590 L337 590 Z " />
<glyph glyph-name="idieresis" unicode="&#xef;" horiz-adv-x="377" d="M-22 713 C-22 662 9 627 71 627 C130 627 165 661 165 714 C165 765 134 800 72 800 C13 800 -22 767 -22 713 L-22 713 Z M213 713 C213 662 244 627 306 627 C365 627 400 661 400 714 C400 765 369 800 307 800 C248 800 213 767 213 713 L213 713 Z M337 590 C236 602 139 603 46 582 C40 361 44 104 49 0 C146 -20 251 -13 339 11 C333 111 332 389 337 590 L337 590 Z " />
<glyph glyph-name="eth" unicode="&#xf0;" horiz-adv-x="718" d="M400 766 C422 782 446 799 473 817 C465 838 451 854 436 866 C401 839 367 813 335 789 C294 800 252 807 208 811 C195 800 193 789 200 778 C228 768 253 755 276 738 C253 721 232 705 213 689 C224 670 237 654 254 644 C275 660 297 678 321 696 C343 671 362 640 376 603 C359 614 339 620 316 620 C120 620 15 473 15 298 C15 98 135 -20 354 -20 C597 -20 703 127 703 302 C703 527 583 690 400 766 L400 766 Z M376 66 C321 66 302 272 302 398 C302 490 315 535 342 535 C384 535 416 427 416 206 C416 112 404 66 376 66 L376 66 Z " />
<glyph glyph-name="ntilde" unicode="&#xf1;" horiz-adv-x="768" d="M277 643 C278 679 290 693 317 693 C368 693 451 652 504 652 C575 652 605 723 582 819 C569 825 553 827 536 826 C535 791 520 777 493 777 C444 777 366 818 312 818 C241 818 208 747 231 651 C244 644 260 643 277 643 L277 643 Z M726 393 C726 549 668 620 562 620 C466 620 373 560 337 473 C337 514 338 553 339 590 C238 602 141 603 48 582 C42 361 46 104 51 0 C148 -20 253 -13 341 11 C337 84 335 253 336 418 C348 437 368 449 387 449 C416 449 436 427 436 373 C436 287 436 110 440 0 C537 -18 651 -13 742 11 C726 96 726 295 726 393 L726 393 Z " />
<glyph glyph-name="ograve" unicode="&#xf2;" horiz-adv-x="718" d="M555 707 C418 744 290 796 189 848 C143 813 124 746 140 685 C253 656 386 639 524 629 C537 647 551 676 555 707 L555 707 Z M15 298 C15 98 135 -20 354 -20 C597 -20 703 127 703 302 C703 502 583 620 364 620 C120 620 15 473 15 298 L15 298 Z M376 66 C321 66 302 272 302 398 C302 490 315 535 342 535 C384 535 416 427 416 206 C416 112 404 66 376 66 L376 66 Z " />
<glyph glyph-name="oacute" unicode="&#xf3;" horiz-adv-x="718" d="M139 707 C143 676 157 647 170 629 C308 639 441 656 554 685 C570 746 551 813 505 848 C404 796 276 744 139 707 L139 707 Z M15 298 C15 98 135 -20 354 -20 C597 -20 703 127 703 302 C703 502 583 620 364 620 C120 620 15 473 15 298 L15 298 Z M376 66 C321 66 302 272 302 398 C302 490 315 535 342 535 C384 535 416 427 416 206 C416 112 404 66 376 66 L376 66 Z " />
<glyph glyph-name="ocircumflex" unicode="&#xf4;" horiz-adv-x="718" d="M144 614 C200 653 271 694 347 729 C422 694 493 653 549 614 C595 637 615 700 600 757 C537 781 465 798 389 810 C361 815 332 814 304 810 C228 798 157 781 93 757 C78 700 98 637 144 614 L144 614 Z M364 620 C120 620 15 473 15 298 C15 98 135 -20 354 -20 C597 -20 703 127 703 302 C703 502 583 620 364 620 L364 620 Z M376 66 C321 66 302 272 302 398 C302 490 315 535 342 535 C384 535 416 427 416 206 C416 112 404 66 376 66 L376 66 Z " />
<glyph glyph-name="otilde" unicode="&#xf5;" horiz-adv-x="718" d="M271 693 C322 693 405 652 458 652 C529 652 559 723 536 819 C523 825 507 827 490 826 C489 791 474 777 447 777 C398 777 320 818 266 818 C195 818 162 747 185 651 C198 644 214 643 231 643 C232 679 244 693 271 693 L271 693 Z M15 298 C15 98 135 -20 354 -20 C597 -20 703 127 703 302 C703 502 583 620 364 620 C120 620 15 473 15 298 L15 298 Z M376 66 C321 66 302 272 302 398 C302 490 315 535 342 535 C384 535 416 427 416 206 C416 112 404 66 376 66 L376 66 Z " />
<glyph glyph-name="odieresis" unicode="&#xf6;" horiz-adv-x="718" d="M136 713 C136 662 167 627 229 627 C288 627 323 661 323 714 C323 765 292 800 230 800 C171 800 136 767 136 713 L136 713 Z M371 713 C371 662 402 627 464 627 C523 627 558 661 558 714 C558 765 527 800 465 800 C406 800 371 767 371 713 L371 713 Z M15 298 C15 98 135 -20 354 -20 C597 -20 703 127 703 302 C703 502 583 620 364 620 C120 620 15 473 15 298 L15 298 Z M376 66 C321 66 302 272 302 398 C302 490 315 535 342 535 C384 535 416 427 416 206 C416 112 404 66 376 66 L376 66 Z " />
<glyph glyph-name="divide" unicode="&#xf7;" horiz-adv-x="660" d="M259 566 C259 527 283 500 330 500 C376 500 402 526 402 567 C402 606 378 632 331 632 C285 632 259 606 259 566 L259 566 Z M103 334 L559 334 C567 376 566 415 559 440 L100 440 C92 398 95 367 103 334 L103 334 Z M259 206 C259 167 283 140 330 140 C376 140 402 166 402 207 C402 246 378 272 331 272 C285 272 259 246 259 206 L259 206 Z " />
<glyph glyph-name="ugrave" unicode="&#xf9;" horiz-adv-x="768" d="M561 629 C574 647 588 676 592 707 C455 744 327 796 226 848 C180 813 161 746 177 685 C290 656 423 639 561 629 L561 629 Z M717 587 C620 607 515 600 427 576 C431 503 433 334 432 169 C420 150 400 138 381 138 C352 138 332 160 332 214 C332 300 332 477 328 587 C231 605 117 600 26 576 C42 491 42 292 42 194 C42 38 100 -33 206 -33 C302 -33 395 27 431 114 C431 73 430 34 429 -3 C530 -15 627 -16 720 5 C726 226 722 483 717 587 L717 587 Z " />
<glyph glyph-name="uacute" unicode="&#xfa;" horiz-adv-x="768" d="M591 685 C607 746 588 813 542 848 C441 796 313 744 176 707 C180 676 194 647 207 629 C345 639 478 656 591 685 L591 685 Z M717 587 C620 607 515 600 427 576 C431 503 433 334 432 169 C420 150 400 138 381 138 C352 138 332 160 332 214 C332 300 332 477 328 587 C231 605 117 600 26 576 C42 491 42 292 42 194 C42 38 100 -33 206 -33 C302 -33 395 27 431 114 C431 73 430 34 429 -3 C530 -15 627 -16 720 5 C726 226 722 483 717 587 L717 587 Z " />
<glyph glyph-name="ucircumflex" unicode="&#xfb;" horiz-adv-x="768" d="M181 614 C237 653 308 694 384 729 C459 694 530 653 586 614 C632 637 652 700 637 757 C574 781 502 798 426 810 C398 815 369 814 341 810 C265 798 194 781 130 757 C115 700 135 637 181 614 L181 614 Z M717 587 C620 607 515 600 427 576 C431 503 433 334 432 169 C420 150 400 138 381 138 C352 138 332 160 332 214 C332 300 332 477 328 587 C231 605 117 600 26 576 C42 491 42 292 42 194 C42 38 100 -33 206 -33 C302 -33 395 27 431 114 C431 73 430 34 429 -3 C530 -15 627 -16 720 5 C726 226 722 483 717 587 L717 587 Z " />
<glyph glyph-name="udieresis" unicode="&#xfc;" horiz-adv-x="768" d="M266 627 C325 627 360 661 360 714 C360 765 329 800 267 800 C208 800 173 767 173 713 C173 662 204 627 266 627 L266 627 Z M501 627 C560 627 595 661 595 714 C595 765 564 800 502 800 C443 800 408 767 408 713 C408 662 439 627 501 627 L501 627 Z M717 587 C620 607 515 600 427 576 C431 503 433 334 432 169 C420 150 400 138 381 138 C352 138 332 160 332 214 C332 300 332 477 328 587 C231 605 117 600 26 576 C42 491 42 292 42 194 C42 38 100 -33 206 -33 C302 -33 395 27 431 114 C431 73 430 34 429 -3 C530 -15 627 -16 720 5 C726 226 722 483 717 587 L717 587 Z " />
<glyph glyph-name="yacute" unicode="&#xfd;" horiz-adv-x="616" d="M556 685 C572 746 553 813 507 848 C406 796 278 744 141 707 C145 676 159 647 172 629 C310 639 443 656 556 685 L556 685 Z M520 608 C495 608 467 602 439 587 C474 508 483 287 428 92 L313 600 C204 603 102 595 11 576 L183 57 C246 45 311 38 383 35 C328 3 170 -3 32 41 C-11 -91 65 -211 192 -210 C308 -209 400 -112 472 39 C540 188 608 428 611 517 C613 570 593 608 520 608 L520 608 Z " />
<glyph glyph-name="thorn" unicode="&#xfe;" horiz-adv-x="759" d="M524 620 C431 620 356 550 337 468 C338 510 338 551 339 590 L342 737 C298 743 254 746 211 746 C156 746 103 741 51 729 C50 681 49 632 48 582 C47 545 47 508 47 470 C44 288 44 116 47 20 C48 -67 50 -140 51 -188 C148 -208 253 -201 351 -175 C345 -127 341 -48 339 46 C383 1 429 -20 488 -20 C630 -20 744 102 744 308 C744 495 650 620 524 620 L524 620 Z M366 104 C356 104 347 106 338 110 C336 211 336 324 337 432 C349 447 367 457 384 457 C419 457 456 404 456 283 C456 158 417 104 366 104 L366 104 Z " />
<glyph glyph-name="ydieresis" unicode="&#xff;" horiz-adv-x="616" d="M231 627 C290 627 325 661 325 714 C325 765 294 800 232 800 C173 800 138 767 138 713 C138 662 169 627 231 627 L231 627 Z M466 627 C525 627 560 661 560 714 C560 765 529 800 467 800 C408 800 373 767 373 713 C373 662 404 627 466 627 L466 627 Z M520 608 C495 608 467 602 439 587 C474 508 483 287 428 92 L313 600 C204 603 102 595 11 576 L183 57 C246 45 311 38 383 35 C328 3 170 -3 32 41 C-11 -91 65 -211 192 -210 C308 -209 400 -112 472 39 C540 188 608 428 611 517 C613 570 593 608 520 608 L520 608 Z " />
<glyph glyph-name="Amacron" unicode="&#x100;" horiz-adv-x="764" d="M520 806 C528 851 527 892 520 920 L161 920 C153 875 156 841 164 806 L520 806 Z M539 619 C511 706 438 749 341 749 C244 749 165 704 141 639 C181 634 223 610 251 556 C210 455 166 344 127 241 C27 246 5 245 -15 243 C-20 175 17 140 90 140 C71 87 55 40 43 0 C92 -5 130 -5 172 0 C181 42 194 91 208 144 L384 151 C405 95 426 45 446 0 C562 -6 666 -10 758 -4 C701 125 648 274 539 619 L539 619 Z M233 235 C251 300 271 367 290 433 C313 358 335 290 356 228 C309 231 269 233 233 235 L233 235 Z " />
<glyph glyph-name="amacron" unicode="&#x101;" horiz-adv-x="718" d="M537 656 C545 701 544 742 537 770 L178 770 C170 725 173 691 181 656 L537 656 Z M676 324 C676 528 573 620 375 620 C150 620 49 550 49 487 C49 438 110 380 250 379 C251 479 290 537 328 537 C358 537 386 499 386 329 L386 311 C349 326 302 335 248 335 C110 335 15 263 15 152 C15 48 91 -20 189 -20 C265 -20 356 25 387 114 C388 60 390 30 393 0 C488 -21 608 -18 693 13 C680 59 676 154 676 324 L676 324 Z M328 140 C300 140 284 163 284 194 C284 231 309 257 349 257 C361 257 374 254 386 250 L386 196 C380 157 353 140 328 140 L328 140 Z " />
<glyph glyph-name="Aogonek" unicode="&#x104;" horiz-adv-x="764" d="M652 -7 C689 -7 724 -6 758 -4 C701 125 648 274 539 619 C511 706 438 749 341 749 C244 749 165 704 141 639 C181 634 223 610 251 556 C210 455 166 344 127 241 C27 246 5 245 -15 243 C-20 175 17 140 90 140 C71 87 55 40 43 0 C92 -5 130 -5 172 0 C181 42 194 91 208 144 L384 151 C405 95 426 45 446 0 C479 -2 512 -3 543 -5 C411 -38 356 -89 356 -144 C356 -171 370 -198 393 -224 C486 -214 578 -180 623 -148 C603 -120 591 -93 591 -67 C591 -42 602 -15 652 -7 L652 -7 Z M233 235 C251 300 271 367 290 433 C313 358 335 290 356 228 C309 231 269 233 233 235 L233 235 Z " />
<glyph glyph-name="aogonek" unicode="&#x105;" horiz-adv-x="718" d="M693 13 C680 59 676 154 676 324 C676 528 573 620 375 620 C150 620 49 550 49 487 C49 438 110 380 250 379 C251 479 290 537 328 537 C358 537 386 499 386 329 L386 311 C349 326 302 335 248 335 C110 335 15 263 15 152 C15 48 91 -20 189 -20 C265 -20 356 25 387 114 C388 60 390 30 393 0 C443 -11 501 -16 556 -13 C458 -45 417 -90 417 -138 C417 -165 431 -192 454 -218 C547 -208 639 -174 684 -142 C664 -114 652 -87 652 -61 C652 -35 664 -10 693 13 L693 13 Z M328 140 C300 140 284 163 284 194 C284 231 309 257 349 257 C361 257 374 254 386 250 L386 196 C380 157 353 140 328 140 L328 140 Z " />
<glyph glyph-name="Cacute" unicode="&#x106;" horiz-adv-x="724" d="M203 846 C207 815 221 786 234 768 C372 778 505 795 618 824 C634 885 615 952 569 987 C468 935 340 883 203 846 L203 846 Z M509 124 C383 124 317 222 317 453 C317 599 360 654 406 654 C459 654 506 575 483 432 C600 401 715 476 715 572 C714 661 617 748 420 748 C178 748 19 612 19 375 C19 143 160 -20 399 -20 C552 -20 659 43 722 123 C715 150 697 175 676 189 C630 150 568 124 509 124 L509 124 Z " />
<glyph glyph-name="cacute" unicode="&#x107;" horiz-adv-x="640" d="M152 707 C156 676 170 647 183 629 C321 639 454 656 567 685 C583 746 564 813 518 848 C417 796 289 744 152 707 L152 707 Z M453 109 C358 109 303 186 303 369 C303 497 329 544 367 544 C406 544 439 496 441 354 C537 344 626 392 626 466 C626 539 538 620 371 620 C152 620 15 504 15 303 C15 113 139 -20 349 -20 C486 -20 581 40 633 108 C628 129 613 149 596 160 C554 128 501 109 453 109 L453 109 Z " />
<glyph glyph-name="Cdotaccent" unicode="&#x10a;" horiz-adv-x="724" d="M319 865 C319 814 350 779 412 779 C471 779 506 813 506 866 C506 917 475 952 413 952 C354 952 319 919 319 865 L319 865 Z M509 124 C383 124 317 222 317 453 C317 599 360 654 406 654 C459 654 506 575 483 432 C600 401 715 476 715 572 C714 661 617 748 420 748 C178 748 19 612 19 375 C19 143 160 -20 399 -20 C552 -20 659 43 722 123 C715 150 697 175 676 189 C630 150 568 124 509 124 L509 124 Z " />
<glyph glyph-name="cdotaccent" unicode="&#x10b;" horiz-adv-x="640" d="M266 713 C266 662 297 627 359 627 C418 627 453 661 453 714 C453 765 422 800 360 800 C301 800 266 767 266 713 L266 713 Z M453 109 C358 109 303 186 303 369 C303 497 329 544 367 544 C406 544 439 496 441 354 C537 344 626 392 626 466 C626 539 538 620 371 620 C152 620 15 504 15 303 C15 113 139 -20 349 -20 C486 -20 581 40 633 108 C628 129 613 149 596 160 C554 128 501 109 453 109 L453 109 Z " />
<glyph glyph-name="Ccaron" unicode="&#x10c;" horiz-adv-x="724" d="M370 783 C398 778 427 779 455 783 C531 795 602 812 666 836 C681 893 661 956 615 979 C559 940 488 899 412 864 C337 899 266 940 210 979 C164 956 144 893 159 836 C222 812 294 795 370 783 L370 783 Z M676 189 C630 150 568 124 509 124 C383 124 317 222 317 453 C317 599 360 654 406 654 C459 654 506 575 483 432 C600 401 715 476 715 572 C714 661 617 748 420 748 C178 748 19 612 19 375 C19 143 160 -20 399 -20 C552 -20 659 43 722 123 C715 150 697 175 676 189 L676 189 Z " />
<glyph glyph-name="ccaron" unicode="&#x10d;" horiz-adv-x="640" d="M317 637 C345 632 374 633 402 637 C478 649 549 666 613 690 C628 747 608 810 562 833 C506 794 435 753 359 718 C284 753 213 794 157 833 C111 810 91 747 106 690 C169 666 241 649 317 637 L317 637 Z M596 160 C554 128 501 109 453 109 C358 109 303 186 303 369 C303 497 329 544 367 544 C406 544 439 496 441 354 C537 344 626 392 626 466 C626 539 538 620 371 620 C152 620 15 504 15 303 C15 113 139 -20 349 -20 C486 -20 581 40 633 108 C628 129 613 149 596 160 L596 160 Z " />
<glyph glyph-name="Dcaron" unicode="&#x10e;" horiz-adv-x="837" d="M369 786 C397 781 426 782 454 786 C530 798 601 815 665 839 C680 896 660 959 614 982 C558 943 487 902 411 867 C336 902 265 943 209 982 C163 959 143 896 158 839 C221 815 293 798 369 786 L369 786 Z M422 749 C294 749 143 716 39 679 C49 653 55 581 55 322 C55 185 57 66 60 0 C162 -13 279 -21 394 -21 C687 -21 818 136 818 354 C818 591 664 749 422 749 L422 749 Z M386 65 C377 65 368 65 358 66 C354 201 354 443 359 660 C365 661 372 661 378 661 C449 661 521 576 521 344 C521 119 475 65 386 65 L386 65 Z " />
<glyph glyph-name="Emacron" unicode="&#x112;" horiz-adv-x="660" d="M529 806 C537 851 536 892 529 920 L170 920 C162 875 165 841 173 806 L529 806 Z M656 146 C585 128 480 114 357 111 C356 166 355 232 355 305 L555 281 C571 311 579 363 572 405 L355 396 C356 472 356 553 358 636 C459 632 542 623 629 610 C645 640 653 692 645 734 C489 750 293 746 59 716 C53 425 54 121 60 3 C251 -7 443 -11 639 -2 C665 34 668 107 656 146 L656 146 Z " />
<glyph glyph-name="emacron" unicode="&#x113;" horiz-adv-x="643" d="M515 656 C523 701 522 742 515 770 L156 770 C148 725 151 691 159 656 L515 656 Z M596 160 C553 129 501 109 453 109 C364 109 314 180 305 317 L624 317 C652 517 549 620 351 620 C124 620 15 482 15 303 C15 113 139 -20 349 -20 C486 -20 581 40 633 108 C628 129 613 149 596 160 L596 160 Z M346 544 C369 544 398 526 384 385 L303 385 C304 513 318 544 346 544 L346 544 Z " />
<glyph glyph-name="Edotaccent" unicode="&#x116;" horiz-adv-x="660" d="M349 779 C408 779 443 813 443 866 C443 917 412 952 350 952 C291 952 256 919 256 865 C256 814 287 779 349 779 L349 779 Z M656 146 C585 128 480 114 357 111 C356 166 355 232 355 305 L555 281 C571 311 579 363 572 405 L355 396 C356 472 356 553 358 636 C459 632 542 623 629 610 C645 640 653 692 645 734 C489 750 293 746 59 716 C53 425 54 121 60 3 C251 -7 443 -11 639 -2 C665 34 668 107 656 146 L656 146 Z " />
<glyph glyph-name="edotaccent" unicode="&#x117;" horiz-adv-x="643" d="M335 627 C394 627 429 661 429 714 C429 765 398 800 336 800 C277 800 242 767 242 713 C242 662 273 627 335 627 L335 627 Z M596 160 C553 129 501 109 453 109 C364 109 314 180 305 317 L624 317 C652 517 549 620 351 620 C124 620 15 482 15 303 C15 113 139 -20 349 -20 C486 -20 581 40 633 108 C628 129 613 149 596 160 L596 160 Z M346 544 C369 544 398 526 384 385 L303 385 C304 513 318 544 346 544 L346 544 Z " />
<glyph glyph-name="Eogonek" unicode="&#x118;" horiz-adv-x="660" d="M639 -2 C665 34 668 107 656 146 C585 128 480 114 357 111 C356 166 355 232 355 305 L555 281 C571 311 579 363 572 405 L355 396 C356 472 356 553 358 636 C459 632 542 623 629 610 C645 640 653 692 645 734 C489 750 293 746 59 716 C53 425 54 121 60 3 C194 -4 328 -8 464 -7 C354 -40 307 -87 307 -138 C307 -165 321 -192 344 -218 C437 -208 529 -174 574 -142 C554 -114 542 -87 542 -61 C542 -42 549 -23 564 -5 L639 -2 Z " />
<glyph glyph-name="eogonek" unicode="&#x119;" horiz-adv-x="643" d="M518 16 C568 40 606 73 633 108 C628 129 613 149 596 160 C553 129 501 109 453 109 C364 109 314 180 305 317 L624 317 C652 517 549 620 351 620 C124 620 15 482 15 303 C15 113 139 -20 349 -20 L364 -20 C281 -52 245 -94 245 -138 C245 -165 259 -192 282 -218 C375 -208 467 -174 512 -142 C492 -113 477 -82 477 -53 C477 -28 488 -3 518 16 L518 16 Z M346 544 C369 544 398 526 384 385 L303 385 C304 513 318 544 346 544 L346 544 Z " />
<glyph glyph-name="Ecaron" unicode="&#x11a;" horiz-adv-x="660" d="M307 783 C335 778 364 779 392 783 C468 795 539 812 603 836 C618 893 598 956 552 979 C496 940 425 899 349 864 C274 899 203 940 147 979 C101 956 81 893 96 836 C159 812 231 795 307 783 L307 783 Z M656 146 C585 128 480 114 357 111 C356 166 355 232 355 305 L555 281 C571 311 579 363 572 405 L355 396 C356 472 356 553 358 636 C459 632 542 623 629 610 C645 640 653 692 645 734 C489 750 293 746 59 716 C53 425 54 121 60 3 C251 -7 443 -11 639 -2 C665 34 668 107 656 146 L656 146 Z " />
<glyph glyph-name="ecaron" unicode="&#x11b;" horiz-adv-x="643" d="M293 637 C321 632 350 633 378 637 C454 649 525 666 589 690 C604 747 584 810 538 833 C482 794 411 753 335 718 C260 753 189 794 133 833 C87 810 67 747 82 690 C145 666 217 649 293 637 L293 637 Z M596 160 C553 129 501 109 453 109 C364 109 314 180 305 317 L624 317 C652 517 549 620 351 620 C124 620 15 482 15 303 C15 113 139 -20 349 -20 C486 -20 581 40 633 108 C628 129 613 149 596 160 L596 160 Z M346 544 C369 544 398 526 384 385 L303 385 C304 513 318 544 346 544 L346 544 Z " />
<glyph glyph-name="Gdotaccent" unicode="&#x120;" horiz-adv-x="796" d="M397 779 C456 779 491 813 491 866 C491 917 460 952 398 952 C339 952 304 919 304 865 C304 814 335 779 397 779 L397 779 Z M749 392 C634 388 537 375 445 350 C441 325 444 298 455 268 L530 265 C533 223 534 186 534 152 C535 108 517 91 477 91 C380 91 312 198 312 453 C312 601 359 656 409 656 C462 656 509 577 486 432 C603 401 718 476 718 572 C718 661 620 748 425 748 C180 748 19 612 19 375 C19 143 152 -20 430 -20 C532 -20 631 -1 761 62 C752 111 749 212 749 392 L749 392 Z " />
<glyph glyph-name="gdotaccent" unicode="&#x121;" horiz-adv-x="669" d="M319 627 C378 627 413 661 413 714 C413 765 382 800 320 800 C261 800 226 767 226 713 C226 662 257 627 319 627 L319 627 Z M424 86 C290 86 186 76 186 119 C186 133 198 148 223 158 C252 152 284 149 319 149 C534 149 619 251 618 385 C617 489 567 565 445 595 C552 591 651 622 651 695 C651 749 594 776 530 779 C516 697 422 620 325 620 C110 620 26 518 26 384 C27 283 73 209 168 173 C76 134 17 71 17 -22 C17 -126 90 -194 313 -194 C412 -194 527 -180 604 -210 C644 -174 670 -119 670 -65 C670 34 584 86 424 86 L424 86 Z M311 554 C340 554 367 478 368 341 C368 271 357 215 333 215 C304 215 277 292 276 428 C276 499 287 554 311 554 L311 554 Z " />
<glyph glyph-name="Imacron" unicode="&#x12a;" horiz-adv-x="412" d="M29 806 L385 806 C393 851 392 892 385 920 L26 920 C18 875 21 841 29 806 L29 806 Z M360 737 C318 743 273 746 228 746 C169 746 111 740 59 729 C53 425 54 121 60 0 C160 -20 269 -13 360 11 C354 131 353 441 360 737 L360 737 Z " />
<glyph glyph-name="imacron" unicode="&#x12b;" horiz-adv-x="377" d="M12 656 L368 656 C376 701 375 742 368 770 L9 770 C1 725 4 691 12 656 L12 656 Z M337 590 C236 602 139 603 46 582 C40 361 44 104 49 0 C146 -20 251 -13 339 11 C333 111 332 389 337 590 L337 590 Z " />
<glyph glyph-name="Iogonek" unicode="&#x12e;" horiz-adv-x="412" d="M330 -51 C330 -29 339 -8 360 11 C354 131 353 441 360 737 C318 743 273 746 228 746 C169 746 111 740 59 729 C53 425 54 121 60 0 C118 -12 179 -14 238 -10 C137 -40 95 -83 95 -128 C95 -155 109 -182 132 -208 C225 -198 317 -164 362 -132 C342 -104 330 -77 330 -51 L330 -51 Z " />
<glyph glyph-name="iogonek" unicode="&#x12f;" horiz-adv-x="377" d="M192 510 C300 510 362 570 362 667 C362 759 306 821 195 821 C87 821 25 760 25 664 C25 572 81 510 192 510 L192 510 Z M339 11 L337 11 L338 11 C333 94 332 297 334 479 C233 491 136 492 43 471 C40 281 44 87 48 0 C102 -11 158 -14 212 -10 C107 -40 63 -83 63 -128 C63 -155 77 -182 100 -208 C193 -198 285 -164 330 -132 C310 -104 298 -77 298 -51 C298 -29 310 -8 339 11 L339 11 Z " />
<glyph glyph-name="dotlessi" unicode="&#x131;" horiz-adv-x="377" d="M337 590 C236 602 139 603 46 582 C40 361 44 104 49 0 C146 -20 251 -13 339 11 C333 111 332 389 337 590 L337 590 Z " />
<glyph glyph-name="Ldot" unicode="&#x13f;" horiz-adv-x="736" d="M357 108 C354 259 354 502 360 737 C318 743 273 746 228 746 C169 746 111 740 59 729 C53 425 54 121 60 0 C251 -10 443 -14 639 -5 C665 31 668 104 656 143 C585 125 480 111 357 108 L357 108 Z M566 510 C458 510 396 449 396 353 C396 261 452 199 563 199 C671 199 733 259 733 356 C733 448 677 510 566 510 L566 510 Z " />
<glyph glyph-name="ldot" unicode="&#x140;" horiz-adv-x="710" d="M336 737 C292 743 248 746 205 746 C150 746 97 741 45 729 C39 452 40 130 46 0 C143 -20 248 -13 336 11 C330 136 329 462 336 737 L336 737 Z M370 294 C370 202 426 140 537 140 C645 140 707 200 707 297 C707 389 651 451 540 451 C432 451 370 390 370 294 L370 294 Z " />
<glyph glyph-name="Lslash" unicode="&#x141;" horiz-adv-x="671" d="M667 143 C596 125 491 111 368 108 C367 176 366 262 366 358 C407 379 450 399 495 419 C490 449 476 473 459 493 C428 476 397 460 367 445 C367 539 369 639 371 737 C329 743 284 746 239 746 C180 746 122 740 70 729 C67 572 66 416 66 284 C38 268 10 253 -15 237 C-6 209 7 185 27 168 C40 175 53 183 67 191 C67 110 69 43 71 0 C262 -10 454 -14 650 -5 C676 31 679 104 667 143 L667 143 Z " />
<glyph glyph-name="lslash" unicode="&#x142;" horiz-adv-x="435" d="M365 426 C392 443 421 461 452 478 C444 507 427 529 408 547 L366 518 C367 592 368 666 370 737 C326 743 282 746 239 746 C184 746 131 741 79 729 C76 588 75 436 75 303 C44 281 15 260 -12 238 C1 211 16 189 38 174 L76 203 C76 118 78 47 80 0 C177 -20 282 -13 370 11 C366 90 364 250 365 426 L365 426 Z " />
<glyph glyph-name="Nacute" unicode="&#x143;" horiz-adv-x="746" d="M561 824 C577 885 558 952 512 987 C411 935 283 883 146 846 C150 815 164 786 177 768 C315 778 448 795 561 824 L561 824 Z M688 743 C639 750 588 749 529 737 C542 637 560 500 573 353 C504 434 426 526 354 617 C285 705 201 749 126 749 C109 749 92 746 76 741 L75 741 C24 725 -21 685 -35 637 C-13 627 26 599 65 555 C57 354 58 129 68 -9 C119 -20 172 -18 227 -6 C205 99 195 250 189 401 C305 261 429 124 557 -10 C610 -16 654 -15 694 -7 C703 220 701 575 688 743 L688 743 Z " />
<glyph glyph-name="nacute" unicode="&#x144;" horiz-adv-x="768" d="M600 685 C616 746 597 813 551 848 C450 796 322 744 185 707 C189 676 203 647 216 629 C354 639 487 656 600 685 L600 685 Z M726 393 C726 549 668 620 562 620 C466 620 373 560 337 473 C337 514 338 553 339 590 C238 602 141 603 48 582 C42 361 46 104 51 0 C148 -20 253 -13 341 11 C337 84 335 253 336 418 C348 437 368 449 387 449 C416 449 436 427 436 373 C436 287 436 110 440 0 C537 -18 651 -13 742 11 C726 96 726 295 726 393 L726 393 Z " />
<glyph glyph-name="Ncaron" unicode="&#x147;" horiz-adv-x="746" d="M313 783 C341 778 370 779 398 783 C474 795 545 812 609 836 C624 893 604 956 558 979 C502 940 431 899 355 864 C280 899 209 940 153 979 C107 956 87 893 102 836 C165 812 237 795 313 783 L313 783 Z M688 743 C639 750 588 749 529 737 C542 637 560 500 573 353 C504 434 426 526 354 617 C285 705 201 749 126 749 C109 749 92 746 76 741 L75 741 C24 725 -21 685 -35 637 C-13 627 26 599 65 555 C57 354 58 129 68 -9 C119 -20 172 -18 227 -6 C205 99 195 250 189 401 C305 261 429 124 557 -10 C610 -16 654 -15 694 -7 C703 220 701 575 688 743 L688 743 Z " />
<glyph glyph-name="ncaron" unicode="&#x148;" horiz-adv-x="768" d="M350 637 C378 632 407 633 435 637 C511 649 582 666 646 690 C661 747 641 810 595 833 C539 794 468 753 392 718 C317 753 246 794 190 833 C144 810 124 747 139 690 C202 666 274 649 350 637 L350 637 Z M726 393 C726 549 668 620 562 620 C466 620 373 560 337 473 C337 514 338 553 339 590 C238 602 141 603 48 582 C42 361 46 104 51 0 C148 -20 253 -13 341 11 C337 84 335 253 336 418 C348 437 368 449 387 449 C416 449 436 427 436 373 C436 287 436 110 440 0 C537 -18 651 -13 742 11 C726 96 726 295 726 393 L726 393 Z " />
<glyph glyph-name="Omacron" unicode="&#x14c;" horiz-adv-x="826" d="M227 806 L583 806 C591 851 590 892 583 920 L224 920 C216 875 219 841 227 806 L227 806 Z M418 749 C153 749 19 585 19 356 C19 130 165 -21 408 -21 C673 -21 807 143 807 372 C807 598 661 749 418 749 L418 749 Z M319 428 C319 573 345 664 397 664 C462 664 507 505 507 301 C507 155 481 65 429 65 C364 65 319 223 319 428 L319 428 Z " />
<glyph glyph-name="omacron" unicode="&#x14d;" horiz-adv-x="718" d="M170 656 L526 656 C534 701 533 742 526 770 L167 770 C159 725 162 691 170 656 L170 656 Z M15 298 C15 98 135 -20 354 -20 C597 -20 703 127 703 302 C703 502 583 620 364 620 C120 620 15 473 15 298 L15 298 Z M376 66 C321 66 302 272 302 398 C302 490 315 535 342 535 C384 535 416 427 416 206 C416 112 404 66 376 66 L376 66 Z " />
<glyph glyph-name="Rcaron" unicode="&#x158;" horiz-adv-x="832" d="M368 783 C396 778 425 779 453 783 C529 795 600 812 664 836 C679 893 659 956 613 979 C557 940 486 899 410 864 C335 899 264 940 208 979 C162 956 142 893 157 836 C220 812 292 795 368 783 L368 783 Z M789 294 C714 237 561 221 502 277 C677 288 790 386 790 529 C790 658 683 746 408 746 C285 746 178 729 39 682 C49 653 55 581 55 322 C55 185 57 66 60 0 C160 -20 269 -13 360 11 C357 68 355 168 355 286 L387 281 C395 137 473 -18 637 -19 C786 -20 844 140 789 294 L789 294 Z M489 511 C489 415 440 370 355 369 C355 456 357 549 358 639 C367 641 377 642 385 642 C441 642 489 600 489 511 L489 511 Z " />
<glyph glyph-name="rcaron" unicode="&#x159;" horiz-adv-x="600" d="M263 637 C291 632 320 633 348 637 C424 649 495 666 559 690 C574 747 554 810 508 833 C452 794 381 753 305 718 C230 753 159 794 103 833 C57 810 37 747 52 690 C115 666 187 649 263 637 L263 637 Z M514 620 C435 620 366 536 336 370 C336 440 337 514 339 590 C238 602 141 603 48 582 C42 361 46 104 51 0 C148 -20 253 -13 341 11 C337 71 336 180 336 310 C399 349 510 352 568 320 C596 381 608 437 608 483 C608 567 569 620 514 620 L514 620 Z " />
<glyph glyph-name="Sacute" unicode="&#x15a;" horiz-adv-x="646" d="M108 846 C112 815 126 786 139 768 C277 778 410 795 523 824 C539 885 520 952 474 987 C373 935 245 883 108 846 L108 846 Z M128 275 C57 268 16 213 16 148 C16 37 135 -24 287 -24 C474 -24 635 51 635 202 C635 369 294 542 294 640 C294 658 304 665 323 665 C375 665 448 594 492 468 C559 472 605 528 604 593 C603 674 528 750 338 750 C141 750 28 667 28 542 C28 337 336 213 336 105 C336 84 323 70 299 70 C240 70 164 175 128 275 L128 275 Z " />
<glyph glyph-name="sacute" unicode="&#x15b;" horiz-adv-x="575" d="M75 707 C79 676 93 647 106 629 C244 639 377 656 490 685 C506 746 487 813 441 848 C340 796 212 744 75 707 L75 707 Z M113 227 C61 211 13 159 13 107 C13 29 120 -20 255 -20 C422 -20 566 42 566 167 C566 314 267 469 267 539 C267 550 274 559 288 559 C324 559 395 500 437 393 C481 407 533 455 533 506 C533 560 475 620 304 620 C128 620 24 551 24 448 C24 280 299 158 299 75 C299 58 288 48 270 48 C235 48 177 90 113 227 L113 227 Z " />
<glyph glyph-name="Scaron" unicode="&#x160;" horiz-adv-x="646" d="M275 783 C303 778 332 779 360 783 C436 795 507 812 571 836 C586 893 566 956 520 979 C464 940 393 899 317 864 C242 899 171 940 115 979 C69 956 49 893 64 836 C127 812 199 795 275 783 L275 783 Z M294 640 C294 658 304 665 323 665 C375 665 448 594 492 468 C559 472 605 528 604 593 C603 674 528 750 338 750 C141 750 28 667 28 542 C28 337 336 213 336 105 C336 84 323 70 299 70 C240 70 164 175 128 275 C57 268 16 213 16 148 C16 37 135 -24 287 -24 C474 -24 635 51 635 202 C635 369 294 542 294 640 L294 640 Z " />
<glyph glyph-name="scaron" unicode="&#x161;" horiz-adv-x="575" d="M240 637 C268 632 297 633 325 637 C401 649 472 666 536 690 C551 747 531 810 485 833 C429 794 358 753 282 718 C207 753 136 794 80 833 C34 810 14 747 29 690 C92 666 164 649 240 637 L240 637 Z M267 539 C267 550 274 559 288 559 C324 559 395 500 437 393 C481 407 533 455 533 506 C533 560 475 620 304 620 C128 620 24 551 24 448 C24 280 299 158 299 75 C299 58 288 48 270 48 C235 48 177 90 113 227 C61 211 13 159 13 107 C13 29 120 -20 255 -20 C422 -20 566 42 566 167 C566 314 267 469 267 539 L267 539 Z " />
<glyph glyph-name="Tcaron" unicode="&#x164;" horiz-adv-x="709" d="M311 783 C339 778 368 779 396 783 C472 795 543 812 607 836 C622 893 602 956 556 979 C500 940 429 899 353 864 C278 899 207 940 151 979 C105 956 85 893 100 836 C163 812 235 795 311 783 L311 783 Z M710 732 C474 747 238 750 -1 729 C-8 681 1 640 39 607 C93 622 148 632 206 638 C201 367 203 109 208 0 C308 -20 417 -13 508 11 C503 117 501 374 506 635 C559 629 611 621 664 609 C708 646 718 688 710 732 L710 732 Z " />
<glyph glyph-name="Umacron" unicode="&#x16a;" horiz-adv-x="781" d="M264 806 L620 806 C628 851 627 892 620 920 L261 920 C253 875 256 841 264 806 L264 806 Z M743 743 C696 750 647 749 591 737 C602 643 616 482 615 370 C615 209 568 123 479 123 C384 123 351 221 351 370 C351 479 353 612 361 737 C319 743 274 746 229 746 C170 746 112 740 60 729 C55 618 51 498 51 350 C51 129 173 -3 394 -3 C609 -3 726 115 735 379 C742 521 744 657 743 743 L743 743 Z " />
<glyph glyph-name="umacron" unicode="&#x16b;" horiz-adv-x="768" d="M563 656 C571 701 570 742 563 770 L204 770 C196 725 199 691 207 656 L563 656 Z M717 587 C620 607 515 600 427 576 C431 503 433 334 432 169 C420 150 400 138 381 138 C352 138 332 160 332 214 C332 300 332 477 328 587 C231 605 117 600 26 576 C42 491 42 292 42 194 C42 38 100 -33 206 -33 C302 -33 395 27 431 114 C431 73 430 34 429 -3 C530 -15 627 -16 720 5 C726 226 722 483 717 587 L717 587 Z " />
<glyph glyph-name="Uring" unicode="&#x16e;" horiz-adv-x="781" d="M347 857 C347 810 382 771 440 771 C494 771 534 809 534 858 C534 905 499 944 441 944 C383 944 347 911 347 857 L347 857 Z M389 857 C389 885 411 906 441 906 C472 906 492 883 492 858 C492 831 470 809 440 809 C409 809 389 832 389 857 L389 857 Z M743 743 C696 750 647 749 591 737 C602 643 616 482 615 370 C615 209 568 123 479 123 C384 123 351 221 351 370 C351 479 353 612 361 737 C319 743 274 746 229 746 C170 746 112 740 60 729 C55 618 51 498 51 350 C51 129 173 -3 394 -3 C609 -3 726 115 735 379 C742 521 744 657 743 743 L743 743 Z " />
<glyph glyph-name="uring" unicode="&#x16f;" horiz-adv-x="768" d="M383 634 C437 634 477 672 477 721 C477 768 442 807 384 807 C326 807 290 774 290 720 C290 673 325 634 383 634 L383 634 Z M384 769 C415 769 435 746 435 721 C435 694 413 672 383 672 C352 672 332 695 332 720 C332 748 354 769 384 769 L384 769 Z M717 587 C620 607 515 600 427 576 C431 503 433 334 432 169 C420 150 400 138 381 138 C352 138 332 160 332 214 C332 300 332 477 328 587 C231 605 117 600 26 576 C42 491 42 292 42 194 C42 38 100 -33 206 -33 C302 -33 395 27 431 114 C431 73 430 34 429 -3 C530 -15 627 -16 720 5 C726 226 722 483 717 587 L717 587 Z " />
<glyph glyph-name="Uogonek" unicode="&#x172;" horiz-adv-x="781" d="M743 743 C696 750 647 749 591 737 C602 643 616 482 615 370 C615 209 568 123 479 123 C384 123 351 221 351 370 C351 479 353 612 361 737 C319 743 274 746 229 746 C170 746 112 740 60 729 C55 618 51 498 51 350 C51 129 173 -3 394 -3 C423 -3 451 -1 476 4 C356 -36 305 -85 305 -138 C305 -165 319 -192 342 -218 C435 -208 527 -174 572 -142 C552 -113 541 -78 541 -45 C541 -11 552 20 577 38 C675 93 729 204 735 379 C742 521 744 657 743 743 L743 743 Z " />
<glyph glyph-name="uogonek" unicode="&#x173;" horiz-adv-x="768" d="M720 5 C726 226 722 483 717 587 C620 607 515 600 427 576 C431 503 433 334 432 169 C420 150 400 138 381 138 C352 138 332 160 332 214 C332 300 332 477 328 587 C231 605 117 600 26 576 C42 491 42 292 42 194 C42 38 100 -33 206 -33 C302 -33 395 27 431 114 C431 73 430 34 429 -3 C463 -7 497 -10 531 -11 C450 -43 415 -84 415 -128 C415 -155 429 -182 452 -208 C545 -198 637 -164 682 -132 C662 -104 650 -77 650 -51 C650 -35 654 -20 664 -5 C683 -2 702 1 720 5 L720 5 Z " />
<glyph glyph-name="Wcircumflex" unicode="&#x174;" horiz-adv-x="1087" d="M371 760 C427 799 498 840 574 875 C649 840 720 799 776 760 C822 783 842 846 827 903 C764 927 692 944 616 956 C588 961 559 960 531 956 C455 944 384 927 320 903 C305 846 325 783 371 760 L371 760 Z M1086 665 C1084 727 1054 757 998 757 C964 757 932 746 899 726 C937 640 909 380 867 176 C827 430 775 676 746 749 C653 752 565 746 484 731 L419 183 C381 430 339 621 299 749 C186 753 79 743 -15 719 L195 -12 C278 -16 363 -12 448 4 L534 360 L641 -12 C725 -16 809 -12 895 4 C1012 330 1090 558 1086 665 L1086 665 Z " />
<glyph glyph-name="wcircumflex" unicode="&#x175;" horiz-adv-x="1010" d="M314 614 C370 653 441 694 517 729 C592 694 663 653 719 614 C765 637 785 700 770 757 C707 781 635 798 559 810 C531 815 502 814 474 810 C398 798 327 781 263 757 C248 700 268 637 314 614 L314 614 Z M920 612 C892 612 867 603 839 587 C869 512 854 271 815 101 C787 318 750 538 731 600 C622 603 520 595 430 576 C421 510 402 306 386 109 C358 324 322 538 303 600 C194 603 92 595 2 576 L157 -13 C240 -16 323 -13 408 0 L495 328 L585 -13 C668 -16 751 -13 836 0 C933 265 993 471 993 542 C993 588 968 612 920 612 L920 612 Z " />
<glyph glyph-name="Ycircumflex" unicode="&#x176;" horiz-adv-x="722" d="M190 760 C246 799 317 840 393 875 C468 840 539 799 595 760 C641 783 661 846 646 903 C583 927 511 944 435 956 C407 961 378 960 350 956 C274 944 203 927 139 903 C124 846 144 783 190 760 L190 760 Z M582 349 L541 346 L737 751 C666 756 608 752 558 737 L466 398 L344 749 C214 752 98 742 -10 719 L195 346 C88 357 73 355 59 349 C59 279 102 249 182 255 L222 258 C218 147 220 45 225 0 C325 -20 434 -13 525 11 C520 54 518 155 522 263 C671 247 689 249 705 255 C705 325 662 355 582 349 L582 349 Z " />
<glyph glyph-name="ycircumflex" unicode="&#x177;" horiz-adv-x="616" d="M146 614 C202 653 273 694 349 729 C424 694 495 653 551 614 C597 637 617 700 602 757 C539 781 467 798 391 810 C363 815 334 814 306 810 C230 798 159 781 95 757 C80 700 100 637 146 614 L146 614 Z M520 608 C495 608 467 602 439 587 C474 508 483 287 428 92 L313 600 C204 603 102 595 11 576 L183 57 C246 45 311 38 383 35 C328 3 170 -3 32 41 C-11 -91 65 -211 192 -210 C308 -209 400 -112 472 39 C540 188 608 428 611 517 C613 570 593 608 520 608 L520 608 Z " />
<glyph glyph-name="Ydieresis" unicode="&#x178;" horiz-adv-x="722" d="M509 777 C568 777 603 811 603 864 C603 915 572 950 510 950 C451 950 416 917 416 863 C416 812 447 777 509 777 L509 777 Z M276 776 C335 776 370 810 370 863 C370 914 339 949 277 949 C218 949 183 916 183 862 C183 811 214 776 276 776 L276 776 Z M582 349 L541 346 L737 751 C666 756 608 752 558 737 L466 398 L344 749 C214 752 98 742 -10 719 L195 346 C88 357 73 355 59 349 C59 279 102 249 182 255 L222 258 C218 147 220 45 225 0 C325 -20 434 -13 525 11 C520 54 518 155 522 263 C671 247 689 249 705 255 C705 325 662 355 582 349 L582 349 Z " />
<glyph glyph-name="Zacute" unicode="&#x179;" horiz-adv-x="690" d="M577 824 C593 885 574 952 528 987 C427 935 299 883 162 846 C166 815 180 786 193 768 C331 778 464 795 577 824 L577 824 Z M673 158 L370 93 C477 281 579 470 679 662 C674 692 661 719 642 739 C441 745 239 746 34 739 C26 693 39 616 60 576 L329 660 C219 468 114 276 12 79 C18 54 32 20 49 0 L664 0 C683 41 690 116 673 158 L673 158 Z " />
<glyph glyph-name="zacute" unicode="&#x17a;" horiz-adv-x="628" d="M537 685 C553 746 534 813 488 848 C387 796 259 744 122 707 C126 676 140 647 153 629 C291 639 424 656 537 685 L537 685 Z M607 144 L350 72 C439 224 524 378 603 536 C599 561 587 583 570 600 C389 605 207 606 23 600 C16 558 27 489 46 452 L277 549 C185 390 95 229 12 64 C17 44 30 16 45 0 L599 0 C616 37 622 106 607 144 L607 144 Z " />
<glyph glyph-name="Zdotaccent" unicode="&#x17b;" horiz-adv-x="690" d="M673 158 L370 93 C408 160 446 226 482 293 C526 285 567 277 606 272 C617 299 623 326 618 351 C588 357 556 362 523 368 C576 465 628 563 679 662 C674 692 661 719 642 739 C441 745 239 746 34 739 C26 693 39 616 60 576 L329 660 C282 579 237 498 192 416 C158 425 122 435 84 447 C68 421 63 394 64 367 C94 361 125 354 154 347 C106 259 59 169 12 79 C18 54 32 20 49 0 L664 0 C683 41 690 116 673 158 L673 158 Z " />
<glyph glyph-name="zdotaccent" unicode="&#x17c;" horiz-adv-x="628" d="M607 144 L350 72 C379 122 408 172 436 222 C475 214 512 208 547 203 C558 230 564 257 559 282 C533 287 506 291 477 296 C520 375 562 455 603 536 C599 561 587 583 570 600 C389 605 207 606 23 600 C16 558 27 489 46 452 L277 549 C238 482 200 415 162 347 C128 356 92 366 55 378 C39 352 34 325 35 298 C65 292 95 285 124 278 C86 208 48 136 12 64 C17 44 30 16 45 0 L599 0 C616 37 622 106 607 144 L607 144 Z " />
<glyph glyph-name="Zcaron" unicode="&#x17d;" horiz-adv-x="690" d="M329 783 C357 778 386 779 414 783 C490 795 561 812 625 836 C640 893 620 956 574 979 C518 940 447 899 371 864 C296 899 225 940 169 979 C123 956 103 893 118 836 C181 812 253 795 329 783 L329 783 Z M673 158 L370 93 C477 281 579 470 679 662 C674 692 661 719 642 739 C441 745 239 746 34 739 C26 693 39 616 60 576 L329 660 C219 468 114 276 12 79 C18 54 32 20 49 0 L664 0 C683 41 690 116 673 158 L673 158 Z " />
<glyph glyph-name="zcaron" unicode="&#x17e;" horiz-adv-x="628" d="M287 637 C315 632 344 633 372 637 C448 649 519 666 583 690 C598 747 578 810 532 833 C476 794 405 753 329 718 C254 753 183 794 127 833 C81 810 61 747 76 690 C139 666 211 649 287 637 L287 637 Z M607 144 L350 72 C439 224 524 378 603 536 C599 561 587 583 570 600 C389 605 207 606 23 600 C16 558 27 489 46 452 L277 549 C185 390 95 229 12 64 C17 44 30 16 45 0 L599 0 C616 37 622 106 607 144 L607 144 Z " />
<glyph glyph-name="florin" unicode="&#x192;" horiz-adv-x="730" d="M617 766 C388 766 241 647 214 484 L142 478 C138 449 140 422 150 397 C167 399 185 400 203 402 C187 284 172 171 158 61 C137 -101 111 -136 88 -136 C60 -136 27 -101 6 -13 C-24 -18 -84 -64 -84 -121 C-84 -192 16 -205 53 -205 C290 -205 439 -78 458 94 C470 192 483 297 500 416 C547 416 596 415 647 413 C655 442 654 469 647 495 C600 493 554 492 511 492 L512 500 C533 662 559 697 582 697 C610 697 643 649 664 526 C720 533 831 591 831 664 C831 750 674 766 617 766 L617 766 Z " />
<glyph glyph-name="gravecomb" unicode="&#x300;" d="M-7 707 C-144 744 -272 796 -373 848 C-419 813 -438 746 -422 685 C-309 656 -176 639 -38 629 C-25 647 -11 676 -7 707 L-7 707 Z " />
<glyph glyph-name="acutecomb" unicode="&#x301;" d="M-468 707 C-464 676 -450 647 -437 629 C-299 639 -166 656 -53 685 C-37 746 -56 813 -102 848 C-203 796 -331 744 -468 707 L-468 707 Z " />
<glyph glyph-name="uni0302" unicode="&#x302;" d="M-61 757 C-124 781 -196 798 -272 810 C-300 815 -329 814 -357 810 C-433 798 -504 781 -568 757 C-583 700 -563 637 -517 614 C-461 653 -390 694 -314 729 C-239 694 -168 653 -112 614 C-66 637 -46 700 -61 757 L-61 757 Z " />
<glyph glyph-name="tildecomb" unicode="&#x303;" d="M-395 693 C-344 693 -261 652 -208 652 C-137 652 -107 723 -130 819 C-143 825 -159 827 -176 826 C-177 791 -192 777 -219 777 C-268 777 -346 818 -400 818 C-471 818 -504 747 -481 651 C-468 644 -452 643 -435 643 C-434 679 -422 693 -395 693 L-395 693 Z " />
<glyph glyph-name="uni0304" unicode="&#x304;" d="M-377 656 L-21 656 C-13 701 -14 742 -21 770 L-380 770 C-388 725 -385 691 -377 656 L-377 656 Z " />
<glyph glyph-name="uni0307" unicode="&#x307;" d="M-287 713 C-287 662 -256 627 -194 627 C-135 627 -100 661 -100 714 C-100 765 -131 800 -193 800 C-252 800 -287 767 -287 713 L-287 713 Z " />
<glyph glyph-name="uni0308" unicode="&#x308;" d="M-522 713 C-522 662 -491 627 -429 627 C-370 627 -335 661 -335 714 C-335 765 -366 800 -428 800 C-487 800 -522 767 -522 713 L-522 713 Z M-287 713 C-287 662 -256 627 -194 627 C-135 627 -100 661 -100 714 C-100 765 -131 800 -193 800 C-252 800 -287 767 -287 713 L-287 713 Z " />
<glyph glyph-name="uni030A" unicode="&#x30a;" d="M-280 720 C-280 673 -245 634 -187 634 C-133 634 -93 672 -93 721 C-93 768 -128 807 -186 807 C-244 807 -280 774 -280 720 L-280 720 Z M-238 720 C-238 748 -216 769 -186 769 C-155 769 -135 746 -135 721 C-135 694 -157 672 -187 672 C-218 672 -238 695 -238 720 L-238 720 Z " />
<glyph glyph-name="uni030C" unicode="&#x30c;" d="M-103 833 C-159 794 -230 753 -306 718 C-381 753 -452 794 -508 833 C-554 810 -574 747 -559 690 C-496 666 -424 649 -348 637 C-320 632 -291 633 -263 637 C-187 649 -116 666 -52 690 C-37 747 -57 810 -103 833 L-103 833 Z " />
<glyph glyph-name="uni0328" unicode="&#x328;" d="M-153 5 C-296 -28 -355 -81 -355 -138 C-355 -165 -341 -192 -318 -218 C-225 -208 -133 -174 -88 -142 C-108 -114 -120 -87 -120 -61 C-120 -35 -108 -10 -79 13 L-153 5 Z " />
<glyph glyph-name="uni1E02" unicode="&#x1e02;" horiz-adv-x="816" d="M397 779 C456 779 491 813 491 866 C491 917 460 952 398 952 C339 952 304 919 304 865 C304 814 335 779 397 779 L397 779 Z M587 394 C672 425 725 481 725 552 C725 662 611 746 383 746 C279 746 159 723 39 679 C49 653 55 581 55 322 C55 185 57 66 60 0 C94 -7 129 -11 165 -11 C226 -17 284 -20 337 -20 C644 -20 800 71 800 212 C800 302 736 368 587 394 L587 394 Z M491 529 C491 482 471 434 436 406 L425 406 C399 406 377 405 355 404 C356 483 357 566 359 647 C366 648 373 648 380 648 C455 648 491 589 491 529 L491 529 Z M358 64 C356 130 355 222 355 324 C448 328 499 292 499 199 C499 94 454 55 358 64 L358 64 Z " />
<glyph glyph-name="uni1E03" unicode="&#x1e03;" horiz-adv-x="753" d="M517 627 C576 627 611 661 611 714 C611 765 580 800 518 800 C459 800 424 767 424 713 C424 662 455 627 517 627 L517 627 Z M518 620 C425 620 351 551 332 469 C332 558 334 650 336 737 C235 750 138 750 45 729 C41 452 42 130 40 0 C124 -15 211 -14 286 1 C296 11 304 22 310 39 C359 0 416 -20 478 -20 C624 -20 738 102 738 308 C738 495 644 620 518 620 L518 620 Z M360 97 C348 97 335 100 323 105 C329 155 331 229 331 342 L331 426 C343 440 362 450 378 450 C413 450 450 397 450 276 C450 151 411 97 360 97 L360 97 Z " />
<glyph glyph-name="uni1E0A" unicode="&#x1e0a;" horiz-adv-x="837" d="M411 782 C470 782 505 816 505 869 C505 920 474 955 412 955 C353 955 318 922 318 868 C318 817 349 782 411 782 L411 782 Z M422 749 C294 749 143 716 39 679 C49 653 55 581 55 322 C55 185 57 66 60 0 C162 -13 279 -21 394 -21 C687 -21 818 136 818 354 C818 591 664 749 422 749 L422 749 Z M386 65 C377 65 368 65 358 66 C354 201 354 443 359 660 C365 661 372 661 378 661 C449 661 521 576 521 344 C521 119 475 65 386 65 L386 65 Z " />
<glyph glyph-name="uni1E0B" unicode="&#x1e0b;" horiz-adv-x="741" d="M263 627 C322 627 357 661 357 714 C357 765 326 800 264 800 C205 800 170 767 170 713 C170 662 201 627 263 627 L263 627 Z M705 344 C705 470 707 609 710 737 C606 750 515 750 419 729 C417 685 416 625 416 558 C373 600 328 620 271 620 C129 620 15 498 15 292 C15 105 109 -20 235 -20 C322 -20 392 40 417 115 L420 0 C518 -21 632 -18 720 13 C706 88 705 258 705 344 L705 344 Z M375 143 C340 143 303 196 303 317 C303 442 342 496 393 496 C401 496 408 495 415 492 C415 382 415 260 416 162 C405 151 389 143 375 143 L375 143 Z " />
<glyph glyph-name="uni1E1E" unicode="&#x1e1e;" horiz-adv-x="631" d="M359 779 C418 779 453 813 453 866 C453 917 422 952 360 952 C301 952 266 919 266 865 C266 814 297 779 359 779 L359 779 Z M629 610 C645 640 653 692 645 734 C489 750 293 746 59 716 C53 425 54 121 60 3 C160 -18 269 -12 360 11 C357 67 355 166 355 285 L555 261 C571 291 579 343 572 385 L355 376 C355 458 356 547 358 636 C459 632 542 623 629 610 L629 610 Z " />
<glyph glyph-name="uni1E1F" unicode="&#x1e1f;" horiz-adv-x="487" d="M155 884 C155 833 186 798 248 798 C307 798 342 832 342 885 C342 936 311 971 249 971 C190 971 155 938 155 884 L155 884 Z M192 468 C191 471 191 474 191 476 C191 516 307 548 443 508 C463 550 474 599 474 644 C474 723 436 791 349 791 C211 791 93 631 97 465 C67 463 39 461 13 458 C9 429 11 402 21 377 C39 379 58 381 77 382 C79 257 82 85 82 0 C179 -20 284 -13 372 11 C369 72 368 200 368 392 C400 392 433 393 468 393 C476 422 475 449 468 475 C361 471 271 470 192 468 L192 468 Z " />
<glyph glyph-name="uni1E22" unicode="&#x1e22;" horiz-adv-x="853" d="M426 779 C485 779 520 813 520 866 C520 917 489 952 427 952 C368 952 333 919 333 865 C333 814 364 779 426 779 L426 779 Z M801 737 C759 743 714 746 669 746 C610 746 552 740 500 729 C498 618 497 507 496 405 L355 405 C356 510 357 625 360 737 C318 743 273 746 228 746 C169 746 111 740 59 729 C53 425 54 121 60 0 C160 -20 269 -13 360 11 C357 70 355 174 355 300 L496 300 C496 169 498 61 501 0 C601 -20 710 -13 801 11 C795 131 794 441 801 737 L801 737 Z " />
<glyph glyph-name="uni1E23" unicode="&#x1e23;" horiz-adv-x="763" d="M472 627 C531 627 566 661 566 714 C566 765 535 800 473 800 C414 800 379 767 379 713 C379 662 410 627 472 627 L472 627 Z M721 393 C721 549 663 620 557 620 C461 620 368 560 332 473 C332 561 334 651 336 737 C235 750 138 750 45 729 C39 452 40 130 46 0 C143 -20 248 -13 336 11 C332 89 330 245 331 418 C343 437 363 449 382 449 C411 449 431 427 431 373 C431 287 431 110 435 0 C532 -18 646 -13 737 11 C721 96 721 295 721 393 L721 393 Z " />
<glyph glyph-name="uni1E40" unicode="&#x1e40;" horiz-adv-x="923" d="M461 779 C520 779 555 813 555 866 C555 917 524 952 462 952 C403 952 368 919 368 865 C368 814 399 779 461 779 L461 779 Z M878 737 C765 751 681 747 629 735 C595 622 545 461 485 292 C454 390 414 504 382 595 C344 702 270 749 177 749 C81 749 5 700 -40 619 C-1 622 31 587 58 527 C54 338 54 122 60 -9 C111 -20 162 -18 217 -6 C195 80 178 193 166 313 C213 193 266 90 323 -10 C390 -16 413 -15 454 -7 C490 76 532 175 573 277 C572 156 574 53 578 0 C678 -20 787 -13 878 11 C872 131 871 441 878 737 L878 737 Z " />
<glyph glyph-name="uni1E41" unicode="&#x1e41;" horiz-adv-x="1159" d="M579 627 C638 627 673 661 673 714 C673 765 642 800 580 800 C521 800 486 767 486 713 C486 662 517 627 579 627 L579 627 Z M1117 393 C1117 549 1059 620 953 620 C852 620 754 553 722 458 C707 569 652 620 562 620 C466 620 373 560 337 473 C337 514 338 553 339 590 C238 602 141 603 48 582 C42 361 46 104 51 0 C148 -20 253 -13 341 11 C337 84 335 253 336 418 C348 437 368 449 387 449 C416 449 436 427 436 373 C436 287 436 110 440 0 C537 -18 651 -13 742 11 C726 96 726 295 726 393 L726 415 C737 435 758 449 778 449 C807 449 827 427 827 373 C827 287 827 110 831 0 C928 -18 1042 -13 1133 11 C1117 96 1117 295 1117 393 L1117 393 Z " />
<glyph glyph-name="uni1E56" unicode="&#x1e56;" horiz-adv-x="814" d="M407 779 C466 779 501 813 501 866 C501 917 470 952 408 952 C349 952 314 919 314 865 C314 814 345 779 407 779 L407 779 Z M431 746 C301 746 170 723 39 682 C49 653 55 581 55 322 C55 185 57 66 60 0 C160 -20 269 -13 360 11 C358 58 356 135 355 226 C620 182 803 310 803 504 C803 668 673 746 431 746 L431 746 Z M355 308 C355 411 356 527 358 637 C369 640 384 642 397 642 C459 642 502 589 502 483 C502 363 448 310 355 308 L355 308 Z " />
<glyph glyph-name="uni1E57" unicode="&#x1e57;" horiz-adv-x="759" d="M519 627 C578 627 613 661 613 714 C613 765 582 800 520 800 C461 800 426 767 426 713 C426 662 457 627 519 627 L519 627 Z M524 620 C431 620 356 550 337 468 C338 510 338 551 339 590 C238 602 141 603 48 582 C43 290 47 -50 51 -188 C148 -208 253 -201 351 -175 C345 -127 341 -48 339 46 C383 1 429 -20 488 -20 C630 -20 744 102 744 308 C744 495 650 620 524 620 L524 620 Z M366 104 C356 104 347 106 338 110 C336 211 336 324 337 432 C349 447 367 457 384 457 C419 457 456 404 456 283 C456 158 417 104 366 104 L366 104 Z " />
<glyph glyph-name="uni1E60" unicode="&#x1e60;" horiz-adv-x="646" d="M224 865 C224 814 255 779 317 779 C376 779 411 813 411 866 C411 917 380 952 318 952 C259 952 224 919 224 865 L224 865 Z M128 275 C57 268 16 213 16 148 C16 37 135 -24 287 -24 C474 -24 635 51 635 202 C635 369 294 542 294 640 C294 658 304 665 323 665 C375 665 448 594 492 468 C559 472 605 528 604 593 C603 674 528 750 338 750 C141 750 28 667 28 542 C28 337 336 213 336 105 C336 84 323 70 299 70 C240 70 164 175 128 275 L128 275 Z " />
<glyph glyph-name="uni1E61" unicode="&#x1e61;" horiz-adv-x="575" d="M189 713 C189 662 220 627 282 627 C341 627 376 661 376 714 C376 765 345 800 283 800 C224 800 189 767 189 713 L189 713 Z M113 227 C61 211 13 159 13 107 C13 29 120 -20 255 -20 C422 -20 566 42 566 167 C566 314 267 469 267 539 C267 550 274 559 288 559 C324 559 395 500 437 393 C481 407 533 455 533 506 C533 560 475 620 304 620 C128 620 24 551 24 448 C24 280 299 158 299 75 C299 58 288 48 270 48 C235 48 177 90 113 227 L113 227 Z " />
<glyph glyph-name="uni1E6A" unicode="&#x1e6a;" horiz-adv-x="709" d="M353 779 C412 779 447 813 447 866 C447 917 416 952 354 952 C295 952 260 919 260 865 C260 814 291 779 353 779 L353 779 Z M710 732 C474 747 238 750 -1 729 C-8 681 1 640 39 607 C93 622 148 632 206 638 C201 367 203 109 208 0 C308 -20 417 -13 508 11 C503 117 501 374 506 635 C559 629 611 621 664 609 C708 646 718 688 710 732 L710 732 Z " />
<glyph glyph-name="uni1E6B" unicode="&#x1e6b;" horiz-adv-x="556" d="M277 763 C336 763 371 797 371 850 C371 901 340 936 278 936 C219 936 184 903 184 849 C184 798 215 763 277 763 L277 763 Z M498 135 C477 115 455 106 432 106 C391 106 369 135 368 203 C367 287 367 385 368 485 C416 486 467 485 519 483 C527 512 526 539 519 565 C467 563 417 562 368 561 C369 620 370 680 372 737 C306 750 219 750 154 729 C134 686 112 621 95 554 L14 548 C10 519 12 492 22 467 C40 469 59 470 78 472 L78 241 C78 75 156 -21 310 -21 C424 -21 499 31 538 92 C534 110 515 128 498 135 L498 135 Z " />
<glyph glyph-name="Wgrave" unicode="&#x1e80;" horiz-adv-x="1087" d="M754 768 C767 786 781 815 785 846 C648 883 520 935 419 987 C373 952 354 885 370 824 C483 795 616 778 754 768 L754 768 Z M1086 665 C1084 727 1054 757 998 757 C964 757 932 746 899 726 C937 640 909 380 867 176 C827 430 775 676 746 749 C653 752 565 746 484 731 L419 183 C381 430 339 621 299 749 C186 753 79 743 -15 719 L195 -12 C278 -16 363 -12 448 4 L534 360 L641 -12 C725 -16 809 -12 895 4 C1012 330 1090 558 1086 665 L1086 665 Z " />
<glyph glyph-name="wgrave" unicode="&#x1e81;" horiz-adv-x="1010" d="M694 629 C707 647 721 676 725 707 C588 744 460 796 359 848 C313 813 294 746 310 685 C423 656 556 639 694 629 L694 629 Z M920 612 C892 612 867 603 839 587 C869 512 854 271 815 101 C787 318 750 538 731 600 C622 603 520 595 430 576 C421 510 402 306 386 109 C358 324 322 538 303 600 C194 603 92 595 2 576 L157 -13 C240 -16 323 -13 408 0 L495 328 L585 -13 C668 -16 751 -13 836 0 C933 265 993 471 993 542 C993 588 968 612 920 612 L920 612 Z " />
<glyph glyph-name="Wacute" unicode="&#x1e82;" horiz-adv-x="1087" d="M779 824 C795 885 776 952 730 987 C629 935 501 883 364 846 C368 815 382 786 395 768 C533 778 666 795 779 824 L779 824 Z M1086 665 C1084 727 1054 757 998 757 C964 757 932 746 899 726 C937 640 909 380 867 176 C827 430 775 676 746 749 C653 752 565 746 484 731 L419 183 C381 430 339 621 299 749 C186 753 79 743 -15 719 L195 -12 C278 -16 363 -12 448 4 L534 360 L641 -12 C725 -16 809 -12 895 4 C1012 330 1090 558 1086 665 L1086 665 Z " />
<glyph glyph-name="wacute" unicode="&#x1e83;" horiz-adv-x="1010" d="M724 685 C740 746 721 813 675 848 C574 796 446 744 309 707 C313 676 327 647 340 629 C478 639 611 656 724 685 L724 685 Z M920 612 C892 612 867 603 839 587 C869 512 854 271 815 101 C787 318 750 538 731 600 C622 603 520 595 430 576 C421 510 402 306 386 109 C358 324 322 538 303 600 C194 603 92 595 2 576 L157 -13 C240 -16 323 -13 408 0 L495 328 L585 -13 C668 -16 751 -13 836 0 C933 265 993 471 993 542 C993 588 968 612 920 612 L920 612 Z " />
<glyph glyph-name="Wdieresis" unicode="&#x1e84;" horiz-adv-x="1087" d="M690 777 C749 777 784 811 784 864 C784 915 753 950 691 950 C632 950 597 917 597 863 C597 812 628 777 690 777 L690 777 Z M457 776 C516 776 551 810 551 863 C551 914 520 949 458 949 C399 949 364 916 364 862 C364 811 395 776 457 776 L457 776 Z M1086 665 C1084 727 1054 757 998 757 C964 757 932 746 899 726 C937 640 909 380 867 176 C827 430 775 676 746 749 C653 752 565 746 484 731 L419 183 C381 430 339 621 299 749 C186 753 79 743 -15 719 L195 -12 C278 -16 363 -12 448 4 L534 360 L641 -12 C725 -16 809 -12 895 4 C1012 330 1090 558 1086 665 L1086 665 Z " />
<glyph glyph-name="wdieresis" unicode="&#x1e85;" horiz-adv-x="1010" d="M399 627 C458 627 493 661 493 714 C493 765 462 800 400 800 C341 800 306 767 306 713 C306 662 337 627 399 627 L399 627 Z M634 627 C693 627 728 661 728 714 C728 765 697 800 635 800 C576 800 541 767 541 713 C541 662 572 627 634 627 L634 627 Z M920 612 C892 612 867 603 839 587 C869 512 854 271 815 101 C787 318 750 538 731 600 C622 603 520 595 430 576 C421 510 402 306 386 109 C358 324 322 538 303 600 C194 603 92 595 2 576 L157 -13 C240 -16 323 -13 408 0 L495 328 L585 -13 C668 -16 751 -13 836 0 C933 265 993 471 993 542 C993 588 968 612 920 612 L920 612 Z " />
<glyph glyph-name="Ygrave" unicode="&#x1ef2;" horiz-adv-x="722" d="M573 768 C586 786 600 815 604 846 C467 883 339 935 238 987 C192 952 173 885 189 824 C302 795 435 778 573 768 L573 768 Z M582 349 L541 346 L737 751 C666 756 608 752 558 737 L466 398 L344 749 C214 752 98 742 -10 719 L195 346 C88 357 73 355 59 349 C59 279 102 249 182 255 L222 258 C218 147 220 45 225 0 C325 -20 434 -13 525 11 C520 54 518 155 522 263 C671 247 689 249 705 255 C705 325 662 355 582 349 L582 349 Z " />
<glyph glyph-name="ygrave" unicode="&#x1ef3;" horiz-adv-x="616" d="M526 629 C539 647 553 676 557 707 C420 744 292 796 191 848 C145 813 126 746 142 685 C255 656 388 639 526 629 L526 629 Z M520 608 C495 608 467 602 439 587 C474 508 483 287 428 92 L313 600 C204 603 102 595 11 576 L183 57 C246 45 311 38 383 35 C328 3 170 -3 32 41 C-11 -91 65 -211 192 -210 C308 -209 400 -112 472 39 C540 188 608 428 611 517 C613 570 593 608 520 608 L520 608 Z " />
<glyph glyph-name="endash" unicode="&#x2013;" horiz-adv-x="500" d="M23 285 L479 285 C487 325 486 361 479 386 L20 386 C12 346 15 316 23 285 L23 285 Z " />
<glyph glyph-name="emdash" unicode="&#x2014;" horiz-adv-x="1000" d="M23 285 L979 285 C987 325 986 361 979 386 L20 386 C12 346 15 316 23 285 L23 285 Z " />
<glyph glyph-name="quoteleft" unicode="&#x2018;" horiz-adv-x="410" d="M352 446 C352 568 237 535 237 600 C237 639 272 682 320 702 C317 724 301 744 286 755 C151 721 55 574 55 455 C55 362 114 302 200 302 C285 302 352 362 352 446 L352 446 Z " />
<glyph glyph-name="quoteright" unicode="&#x2019;" horiz-adv-x="410" d="M58 610 C58 488 173 521 173 456 C173 417 138 374 90 354 C93 332 109 312 124 301 C259 335 355 482 355 601 C355 694 296 754 210 754 C125 754 58 694 58 610 L58 610 Z " />
<glyph glyph-name="quotesinglbase" unicode="&#x201a;" horiz-adv-x="410" d="M58 111 C58 -11 173 22 173 -43 C173 -82 138 -125 90 -145 C93 -167 109 -187 124 -198 C259 -164 355 -17 355 102 C355 195 296 255 210 255 C125 255 58 195 58 111 L58 111 Z " />
<glyph glyph-name="quotedblleft" unicode="&#x201c;" horiz-adv-x="736" d="M352 447 C352 569 237 536 237 601 C237 640 272 683 320 703 C317 725 301 745 286 756 C151 722 55 575 55 456 C55 363 114 303 200 303 C285 303 352 363 352 447 L352 447 Z M678 447 C678 569 563 536 563 601 C563 640 598 683 646 703 C643 725 627 745 612 756 C477 722 381 575 381 456 C381 363 440 303 526 303 C611 303 678 363 678 447 L678 447 Z " />
<glyph glyph-name="quotedblright" unicode="&#x201d;" horiz-adv-x="736" d="M58 610 C58 488 173 521 173 456 C173 417 138 374 90 354 C93 332 109 312 124 301 C259 335 355 482 355 601 C355 694 296 754 210 754 C125 754 58 694 58 610 L58 610 Z M384 610 C384 488 499 521 499 456 C499 417 464 374 416 354 C419 332 435 312 450 301 C585 335 681 482 681 601 C681 694 622 754 536 754 C451 754 384 694 384 610 L384 610 Z " />
<glyph glyph-name="quotedblbase" unicode="&#x201e;" horiz-adv-x="736" d="M58 111 C58 -11 173 22 173 -43 C173 -82 138 -125 90 -145 C93 -167 109 -187 124 -198 C259 -164 355 -17 355 102 C355 195 296 255 210 255 C125 255 58 195 58 111 L58 111 Z M384 111 C384 -11 499 22 499 -43 C499 -82 464 -125 416 -145 C419 -167 435 -187 450 -198 C585 -164 681 -17 681 102 C681 195 622 255 536 255 C451 255 384 195 384 111 L384 111 Z " />
<glyph glyph-name="dagger" unicode="&#x2020;" horiz-adv-x="500" d="M479 511 L310 511 L310 667 C262 675 226 672 189 664 L189 511 L20 511 C12 469 15 438 23 405 L189 405 L189 -2 C237 -10 280 -9 310 -2 L310 405 L479 405 C487 447 486 486 479 511 L479 511 Z " />
<glyph glyph-name="daggerdbl" unicode="&#x2021;" horiz-adv-x="500" d="M310 276 L310 405 L479 405 C487 447 486 486 479 511 L310 511 L310 667 C262 675 226 672 189 664 L189 511 L20 511 C12 469 15 438 23 405 L189 405 L189 276 L20 276 C12 234 15 203 23 170 L189 170 L189 -2 C237 -10 280 -9 310 -2 L310 170 L479 170 C487 212 486 251 479 276 L310 276 Z " />
<glyph glyph-name="bullet" unicode="&#x2022;" horiz-adv-x="540" d="M23 294 C23 160 105 69 267 69 C426 69 516 157 516 299 C516 433 434 524 272 524 C114 524 23 435 23 294 L23 294 Z " />
<glyph glyph-name="ellipsis" unicode="&#x2026;" horiz-adv-x="1136" d="M28 143 C28 51 84 -11 195 -11 C303 -11 365 49 365 146 C365 238 309 300 198 300 C90 300 28 239 28 143 L28 143 Z M409 143 C409 51 465 -11 576 -11 C684 -11 746 49 746 146 C746 238 690 300 579 300 C471 300 409 239 409 143 L409 143 Z M784 143 C784 51 840 -11 951 -11 C1059 -11 1121 49 1121 146 C1121 238 1065 300 954 300 C846 300 784 239 784 143 L784 143 Z " />
<glyph glyph-name="perthousand" unicode="&#x2030;" horiz-adv-x="1363" d="M238 754 C111 754 43 658 43 530 C43 414 117 330 233 330 C360 330 427 422 427 544 C427 666 353 754 238 754 L238 754 Z M750 749 L640 749 L140 0 L250 0 L750 749 Z M209 555 C209 657 218 689 233 689 C252 689 261 638 261 518 C261 416 253 385 237 385 C219 385 209 435 209 555 L209 555 Z M667 424 C540 424 472 328 472 200 C472 84 546 0 662 0 C789 0 856 92 856 214 C856 336 782 424 667 424 L667 424 Z M1110 424 C983 424 915 328 915 200 C915 84 989 0 1105 0 C1232 0 1299 92 1299 214 C1299 336 1225 424 1110 424 L1110 424 Z M638 225 C638 327 647 359 662 359 C681 359 690 308 690 188 C690 86 682 55 666 55 C648 55 638 105 638 225 L638 225 Z M1081 225 C1081 327 1090 359 1105 359 C1124 359 1133 308 1133 188 C1133 86 1125 55 1109 55 C1091 55 1081 105 1081 225 L1081 225 Z " />
<glyph glyph-name="guilsinglleft" unicode="&#x2039;" horiz-adv-x="480" d="M262 300 C422 388 400 506 317 556 C231 448 117 351 54 310 C48 306 48 294 54 290 C117 249 231 152 317 44 C398 94 423 212 262 300 L262 300 Z " />
<glyph glyph-name="guilsinglright" unicode="&#x203a;" horiz-adv-x="480" d="M426 310 C363 351 249 448 163 556 C82 506 57 388 218 300 C58 212 80 94 163 44 C249 152 363 249 426 290 C432 294 432 306 426 310 L426 310 Z " />
<glyph glyph-name="franc" unicode="&#x20a3;" horiz-adv-x="663" d="M641 620 C657 648 665 695 657 734 C501 750 305 746 71 716 C67 532 66 342 68 198 C43 197 19 195 -4 192 C-8 163 -6 136 4 111 L69 117 C69 70 71 31 72 3 C172 -18 281 -12 372 11 C371 40 369 79 369 126 C395 126 422 127 451 127 C459 156 458 183 451 209 C422 208 394 207 368 207 C367 243 367 283 367 325 L567 301 C583 329 591 376 584 415 L367 406 L370 646 C471 642 554 633 641 620 L641 620 Z " />
<glyph glyph-name="Euro" unicode="&#x20ac;" horiz-adv-x="724" d="M680 180 C633 141 569 115 509 115 C423 115 365 162 337 266 C367 267 398 267 431 267 C439 293 438 318 431 341 L323 338 C321 360 319 383 318 408 C353 409 391 409 431 409 C439 435 438 460 431 483 L317 480 C322 615 363 666 406 666 C459 666 506 590 483 452 C595 425 705 490 705 572 C704 661 610 748 420 748 C220 748 77 649 40 473 C18 471 -4 470 -24 468 C-28 442 -26 417 -16 395 C-1 396 15 398 31 399 C30 391 30 383 30 375 C30 360 31 345 32 330 C12 329 -6 328 -24 326 C-28 300 -26 275 -16 253 C3 255 22 256 43 258 C82 90 208 -20 399 -20 C552 -20 659 43 722 123 C716 146 699 168 680 180 L680 180 Z " />
<glyph glyph-name="uni2117" unicode="&#x2117;" horiz-adv-x="1188" d="M594 941 C281 941 36 701 36 393 C36 85 281 -155 594 -155 C907 -155 1152 85 1152 393 C1152 701 907 941 594 941 L594 941 Z M594 -85 C323 -85 112 124 112 393 C112 662 323 871 594 871 C865 871 1076 662 1076 393 C1076 124 865 -85 594 -85 L594 -85 Z M647 735 C530 735 411 716 289 682 C299 656 305 592 305 363 C305 241 307 136 310 70 C410 50 508 57 590 81 C588 121 587 179 586 246 C821 204 983 324 983 507 C983 662 866 735 647 735 L647 735 Z M585 320 C585 422 586 537 588 647 C598 650 612 652 624 652 C682 652 722 599 722 492 C722 375 671 322 585 320 L585 320 Z " />
<glyph glyph-name="uni2120" unicode="&#x2120;" horiz-adv-x="526" d="M118 716 C118 723 122 726 129 726 C142 726 160 706 171 671 C190 672 202 688 202 706 C202 728 182 749 133 749 C82 749 51 728 51 698 C51 641 137 607 137 577 C137 565 131 558 123 558 C106 558 85 588 75 618 C56 616 44 601 44 583 C44 552 77 535 119 535 C169 535 213 555 213 594 C213 641 118 689 118 716 L118 716 Z M470 746 C441 750 419 748 406 745 C395 710 379 658 360 604 L327 701 C318 734 299 749 276 749 C249 749 228 735 216 715 C227 714 235 705 243 688 C242 635 241 575 243 539 C257 536 271 537 286 540 C275 568 270 608 267 649 C281 606 298 572 316 539 C335 537 341 537 353 540 C366 569 381 605 395 640 C394 597 395 559 396 542 C421 536 448 538 470 545 C468 578 468 664 470 746 L470 746 Z " />
<glyph glyph-name="trademark" unicode="&#x2122;" horiz-adv-x="526" d="M217 747 C151 751 86 752 20 746 C18 732 20 720 31 710 C47 716 64 719 82 721 C81 645 81 572 83 541 C107 536 135 538 157 544 C155 574 155 647 156 720 C172 718 188 715 204 711 C216 721 219 734 217 747 L217 747 Z M470 746 C441 750 419 748 406 745 C395 710 379 658 360 604 L327 701 C318 734 299 749 276 749 C249 749 228 735 216 715 C227 714 235 705 243 688 C242 635 241 575 243 539 C257 536 271 537 286 540 C275 568 270 608 267 649 C281 606 298 572 316 539 C335 537 341 537 353 540 C366 569 381 605 395 640 C394 597 395 559 396 542 C421 536 448 538 470 545 C468 578 468 664 470 746 L470 746 Z " />
<glyph glyph-name="partialdiff" unicode="&#x2202;" horiz-adv-x="718" d="M208 811 C195 800 193 789 200 778 C280 748 340 695 376 603 C359 614 339 620 316 620 C120 620 15 473 15 298 C15 98 135 -20 354 -20 C597 -20 703 127 703 302 C703 599 493 788 208 811 L208 811 Z M376 66 C321 66 302 272 302 398 C302 490 315 535 342 535 C384 535 416 427 416 206 C416 112 404 66 376 66 L376 66 Z " />
<glyph glyph-name="product" unicode="&#x220f;" horiz-adv-x="600" d="" />
<glyph glyph-name="summation" unicode="&#x2211;" horiz-adv-x="600" d="M573 113 C478 95 339 82 175 79 L415 399 C349 489 288 582 236 680 C357 676 451 666 550 648 C566 678 574 730 566 772 C442 788 286 784 100 754 C58 727 33 692 22 649 C90 530 166 421 251 317 L22 25 C26 -24 56 -56 100 -80 C250 -90 402 -94 556 -85 C582 -37 585 61 573 113 L573 113 Z " />
<glyph glyph-name="minus" unicode="&#x2212;" horiz-adv-x="660" d="M103 315 L559 315 C567 357 566 396 559 421 L100 421 C92 379 95 348 103 315 L103 315 Z " />
<glyph glyph-name="radical" unicode="&#x221a;" horiz-adv-x="600" d="" />
<glyph glyph-name="infinity" unicode="&#x221e;" horiz-adv-x="600" d="" />
<glyph glyph-name="integral" unicode="&#x222b;" horiz-adv-x="660" d="M417 697 C445 697 487 662 495 549 C560 549 628 592 628 656 C628 749 486 766 435 766 C189 766 81 639 124 467 C158 326 184 192 213 61 C250 -101 236 -136 213 -136 C185 -136 152 -101 131 -13 C81 0 25 -49 25 -106 C25 -177 141 -205 191 -205 C439 -205 543 -78 502 94 C471 224 445 341 413 500 C379 662 394 697 417 697 L417 697 Z " />
<glyph glyph-name="approxequal" unicode="&#x2248;" horiz-adv-x="660" d="M224 435 C283 435 379 395 440 395 C520 395 554 464 528 556 C515 562 499 564 482 563 C481 529 464 516 434 516 C377 516 287 555 224 555 C144 555 107 487 133 394 C146 388 162 387 179 387 C180 421 193 435 224 435 L224 435 Z M224 212 C283 212 379 173 440 173 C520 173 554 241 528 334 C515 340 499 341 482 341 C481 307 464 293 434 293 C377 293 287 333 224 333 C144 333 107 264 133 172 C146 165 162 164 179 164 C180 199 193 212 224 212 L224 212 Z " />
<glyph glyph-name="notequal" unicode="&#x2260;" horiz-adv-x="660" d="M344 303 L388 445 L559 445 C567 487 566 526 559 551 L428 551 L469 686 C444 705 414 713 380 707 L333 551 L100 551 C92 509 95 478 103 445 L293 445 L249 303 L100 303 C92 261 95 230 103 197 L209 197 L168 62 C193 43 223 35 257 41 L304 197 L559 197 C567 239 566 278 559 303 L344 303 Z " />
<glyph glyph-name="lessequal" unicode="&#x2264;" horiz-adv-x="600" d="" />
<glyph glyph-name="greaterequal" unicode="&#x2265;" horiz-adv-x="600" d="" />
<glyph glyph-name="lozenge" unicode="&#x25ca;" horiz-adv-x="600" d="" />
</font>
</svg>
