<?xml version="1.0" encoding="utf-8"?>
<!-- Generator: Adobe Illustrator 19.2.1, SVG Export Plug-In . SVG Version: 6.00 Build 0)  -->
<svg version="1.1" id="Layer_1" xmlns="http://www.w3.org/2000/svg" xmlns:xlink="http://www.w3.org/1999/xlink" x="0px" y="0px"
	 viewBox="0 0 800 200" enable-background="new 0 0 800 200" xml:space="preserve">
<g>
	<path fill="#231F20" d="M190.5,82.8c0-23.3-8.1-37.1-22.3-39.1v128.5H187v4.7h-80.5v-4.7h16.4V43.6h-16.4v-4.7h61.8
		c42.6,0,67.7,13.2,67.7,41.2c0,25.5-20.9,43.8-52.9,43.8c-5.7,0-8.9-0.6-8.9-0.6v-3.7c0,0,2.6-0.4,5.5-2.8
		C184.4,112.8,190.5,103.6,190.5,82.8z"/>
	<path fill="#231F20" d="M340.7,89.5c0,12.4-8.3,20.9-20.9,20.9c-3.4,0-6.5-0.6-6.5-0.6l-2-31c0,0-0.8-0.2-1.6-0.2
		c-7.3,0-13,18.9-13,43V173h16.6v3.9H241V173h12.2V74.3H241v-3.9c18.4,0,34.9-0.6,47-2l2.8,1.2l1,35.9c3.4-28.2,12.6-37.1,26.4-37.1
		C331.6,68.4,340.7,76.7,340.7,89.5z"/>
	<path fill="#231F20" d="M453.8,150.9c-2.2,12-9.5,28-31,28c-15.8,0-23.5-8.7-26-16.6c-5.3,10.5-15.2,16.6-28,16.6
		c-15.4,0-26.2-8.9-26.2-24.3c0-20.7,19.9-32.4,42.6-34.1l10.9-0.8V116c0-22.3-0.6-40.8-12.6-40.8c-2.4,0-4.5,0.8-4.5,0.8
		l-10.5,33.9c0,0-2.2,0.4-4.7,0.4c-6.1,0-14.8-2.2-14.8-12.8c0-16,19.7-29,47.4-29c27.4,0,43.2,12.8,43.2,45.8v42.4
		c0,2.4,0.2,5.5,2,5.5c2.8,0,5.7-7.1,6.3-12.4L453.8,150.9z M396,144v-19.7l-0.4,0.2c-4.9,1.8-9.1,7.7-9.1,22.7
		c0,7.3,1,15.2,3.9,15.2C393,162.4,396,156.2,396,144z"/>
	<path fill="#231F20" d="M579.3,173v3.9H525v-74c0-9.7-1.4-16-5.1-16c-5.3,0-8.9,12.8-8.9,26.4V173h8.3v3.9h-63.9V173h12.2V42.8
		h-12.2v-3.9c18.7-1.6,36.5-6.3,51.9-17.8l3.8,1.4v40.8c0,8.5,0,17.4-2,26.2c7.9-16.2,18.9-21.1,30.6-21.1
		c21.3,0,28.8,16.4,28.8,45.8V173H579.3z"/>
	<path fill="#231F20" d="M585.4,125.5c0-36.5,18.7-57,55.8-57c34.1,0,52.3,17.4,52.3,53.5c0,36.5-18.7,57-55.8,57
		C603.6,178.9,585.4,161.6,585.4,125.5z M648,128.4c0-34.9-2.8-54.1-9.3-54.1c-5.3,0-7.7,12.2-7.7,44.6c0,34.9,2.8,54.1,9.3,54.1
		C645.6,173,648,160.8,648,128.4z"/>
</g>
</svg>
