<?xml version="1.0" encoding="utf-8"?>
<!-- Generator: Adobe Illustrator 19.2.1, SVG Export Plug-In . SVG Version: 6.00 Build 0)  -->
<svg version="1.1" id="Layer_1" xmlns="http://www.w3.org/2000/svg" xmlns:xlink="http://www.w3.org/1999/xlink" x="0px" y="0px"
	 viewBox="0 0 800 200" enable-background="new 0 0 800 200" xml:space="preserve">
<g>
	<path fill="#231F20" d="M243.6,177.1h-15.9c-11.7-20.1-18.9-34.2-24.6-44c-9.2-15.8-14.3-20.5-27.9-20.5h-13.3v64.5h-13.6V37.8
		h39.6c25.4,0,44.5,11.2,44.5,35.3c0,18.4-12.8,31.9-33,35.7c6.2,4.1,11.2,10.7,17.3,20.8C223.5,140.8,231.4,156.3,243.6,177.1z
		 M161.9,49.9v50.7h23.9c20.8,0,32.3-9.4,32.3-25.8s-9.2-24.9-33.1-24.9H161.9z"/>
	<path fill="#231F20" d="M349.1,125.7h-72.4c0.9,28.1,10.4,42.7,36.4,42.7c11.1,0,19.6-2.2,30.3-8.6h1.1v12.3
		c-7.4,4.6-18.6,7.6-33.6,7.6c-33.6,0-48.3-20.6-48.3-54.5c0-38.1,17.7-59.3,46.2-59.3c27.1,0,40.3,18.5,40.3,52.9V125.7z
		 M276.7,114.9h59.2c-0.8-25-9.6-37.5-28.4-37.5C289.8,77.5,278.3,90.8,276.7,114.9z"/>
	<path fill="#231F20" d="M507.9,68.6l-30.8,108.5H465l-19.6-65c-2.5-8.3-4.4-17.9-5.8-26.2c-1.8,8.6-3.9,18.3-6.3,26.2l-20.2,65H401
		L370.2,68.6h13.9l19.1,69.7c1.4,5.3,3,14.2,4.5,23.2c1.8-8.7,3.6-17.4,5.4-23.2l21.6-69.7h10.8l20.4,69.7
		c1.7,5.5,3.5,14.6,5.3,23.7c1.5-9,3.1-18.2,4.6-23.7l19.1-69.7H507.9z"/>
	<path fill="#231F20" d="M533.1,30.7c0-6.6,4.2-10.5,10.6-10.5c6.1,0,10,3.7,10,10c0,6.6-4.4,10.4-10.6,10.4S533.1,37,533.1,30.7z
		 M536.8,68.6H550v108.5h-13.2V68.6z"/>
	<path fill="#231F20" d="M651.7,69.6l-2.5,12.6h-1c-4.2-1.7-8-2.5-11.9-2.5c-11.4,0-19.2,9.9-28.9,26.5v71h-13.2V68.6h12.8v20.3
		C618.2,73.6,627.1,66,638,66C642.8,66,647.6,67.5,651.7,69.6z"/>
</g>
</svg>
