<?xml version="1.0" encoding="UTF-8"?>
<svg width="96px" height="60px" viewBox="0 0 96 60" version="1.1" xmlns="http://www.w3.org/2000/svg" xmlns:xlink="http://www.w3.org/1999/xlink">
    <!-- Generator: Sketch 41 (35326) - http://www.bohemiancoding.com/sketch -->
    <title>be</title>
    <desc>Created with Sketch.</desc>
    <defs></defs>
    <g id="Screens" stroke="none" stroke-width="1" fill="none" fill-rule="evenodd">
        <path d="M39.4942348,27.1174004 C41.4858491,26.1163522 42.9926625,25.0026205 44.0199161,23.7893082 C45.8542977,21.6168763 46.7636268,18.7368973 46.7636268,15.1677149 C46.7636268,11.7007338 45.8542977,8.72641509 44.043501,6.23689727 C41.0246331,2.18291405 35.9040881,0.107442348 28.6687631,0 L0,0 L0,58.5246331 L26.7321803,58.5246331 C29.7458071,58.5246331 32.5340671,58.2678197 35.1126834,57.7384696 C37.6939203,57.2038784 39.9240042,56.2290356 41.8134172,54.798218 C43.4958071,53.5508386 44.8951782,52.0151992 46.0115304,50.1939203 C47.7803983,47.442348 48.6609015,44.3291405 48.6609015,40.8621593 C48.6609015,37.4973795 47.8878407,34.6357442 46.3522013,32.2851153 C44.8008386,29.9292453 42.5183438,28.2101677 39.4942348,27.1174004 L39.4942348,27.1174004 Z M11.8265199,10.1624738 L24.740566,10.1624738 C27.5786164,10.1624738 29.9161426,10.4690776 31.7557652,11.077044 C33.8784067,11.9549266 34.9397275,13.7552411 34.9397275,16.4884696 C34.9397275,18.9386792 34.1325996,20.6525157 32.528826,21.6221174 C30.9145702,22.5917191 28.8207547,23.0765199 26.2526205,23.0765199 L11.8265199,23.0765199 L11.8265199,10.1624738 L11.8265199,10.1624738 Z M32.240566,47.3375262 C30.812369,48.0214885 28.8024109,48.3674004 26.2290356,48.3674004 L11.8265199,48.3674004 L11.8265199,32.759434 L26.4334382,32.759434 C28.9727463,32.7803983 30.9538784,33.1158281 32.3663522,33.75 C34.8873166,34.8925577 36.1399371,36.9811321 36.1399371,40.0314465 C36.1399371,43.6294549 34.8427673,46.0560797 32.240566,47.3375262 Z M61.3417191,2.72798742 L86.7636268,2.72798742 L86.7636268,10.0104822 L61.3417191,10.0104822 L61.3417191,2.72798742 Z M92.0990566,22.528826 C90.1126834,19.6121593 87.5890985,17.4737945 84.5230608,16.1268344 C81.4648847,14.7746331 78.0267296,14.0932914 74.2059748,14.0932914 C67.7777778,14.0932914 62.557652,16.1032495 58.5220126,20.0969602 C54.4968553,24.101153 52.4816562,29.8532495 52.4816562,37.3532495 C52.4816562,45.3485325 54.706499,51.1294549 59.1823899,54.6750524 C63.634696,58.2285115 68.7866876,60 74.6305031,60 C81.7033543,60 87.2038784,57.8957023 91.134696,53.6897275 C93.6504193,51.0403564 95.0733753,48.427673 95.3825996,45.8674004 L83.6713836,45.8674004 C82.995283,47.1357442 82.2038784,48.1263103 81.307652,48.8469602 C79.6750524,50.1650943 77.5471698,50.8280922 74.9449686,50.8280922 C72.4737945,50.8280922 70.3668763,50.2830189 68.6189727,49.1981132 C65.7285115,47.4528302 64.216457,44.4077568 64.0251572,40.0707547 L95.9879455,40.0707547 C96.0377358,36.3338574 95.9145702,33.46174 95.6027254,31.4779874 C95.0733753,28.0870021 93.9098532,25.1022013 92.0990566,22.528826 Z M64.3055556,32.6022013 C64.7248428,29.7851153 65.7468553,27.5524109 67.3663522,25.9040881 C68.9858491,24.2557652 71.2762055,23.432914 74.2112159,23.432914 C76.9208595,23.432914 79.1850105,24.2059748 81.0246331,25.7599581 C82.8432914,27.3244235 83.8705451,29.5964361 84.0775681,32.6022013 L64.3055556,32.6022013 L64.3055556,32.6022013 Z" id="be" fill="#5200CC"></path>
    </g>
</svg>