<?xml version="1.0" encoding="UTF-8"?>
<svg width="16px" height="8px" viewBox="0 0 16 8" version="1.1" xmlns="http://www.w3.org/2000/svg" xmlns:xlink="http://www.w3.org/1999/xlink">
    <!-- Generator: Sketch 40.3 (33839) - http://www.bohemiancoding.com/sketch -->
    <title>case-upper</title>
    <desc>Created with Sketch.</desc>
    <defs></defs>
    <g id="Screens" stroke="none" stroke-width="1" fill="none" fill-rule="evenodd">
        <g id="Desktop-Copy-5" transform="translate(-733.000000, -1038.000000)" fill="#151424">
            <path d="M739.026367,1046 L740.041504,1046 L737.184082,1038.24951 L736.228027,1038.24951 L733.370605,1046 L734.385742,1046 L735.164551,1043.78174 L738.247559,1043.78174 L739.026367,1046 Z M736.663086,1039.50098 L736.749023,1039.50098 L737.962891,1042.95996 L735.449219,1042.95996 L736.663086,1039.50098 Z M747.438477,1046 L748.453613,1046 L745.596192,1038.24951 L744.640137,1038.24951 L741.782715,1046 L742.797852,1046 L743.57666,1043.78174 L746.659668,1043.78174 L747.438477,1046 Z M745.075195,1039.50098 L745.161133,1039.50098 L746.375,1042.95996 L743.861328,1042.95996 L745.075195,1039.50098 Z" id="case-upper"></path>
        </g>
    </g>
</svg>