<?xml version="1.0" encoding="utf-8"?>
<!-- Generator: Adobe Illustrator 19.2.1, SVG Export Plug-In . SVG Version: 6.00 Build 0)  -->
<svg version="1.1" id="Layer_1" xmlns="http://www.w3.org/2000/svg" xmlns:xlink="http://www.w3.org/1999/xlink" x="0px" y="0px"
	 viewBox="0 0 957 412.8" style="enable-background:new 0 0 957 412.8;" xml:space="preserve">
<style type="text/css">
	.st0{fill:#474A58;}
</style>
<g>
	<path class="st0" d="M93.3,70.1c0,14.4-13.7,23.5-35.2,23.5H21.9l9.6-7.2V16.8l-9.6-7.2h35.6c19.1,0,31,8,31,21.5
		c0,8.9-5.6,15.5-14.5,18.8C85.7,52.4,93.3,58.9,93.3,70.1z M43.5,15.6v31.8h14c13.1,0,18.4-7.1,18.4-15.6c0-9.1-5.3-16.2-18.4-16.2
		H43.5z M80.1,70.8c0-10.7-6.5-17.4-22-17.4H43.5v34.2h14.6C73.6,87.6,80.1,80.9,80.1,70.8z"/>
	<path class="st0" d="M122.1,50.9v35.5l14.4,7.2h-34.8l9.6-7.2v-37l-8.4-6.2l19.2-8.4l-2.3,12.8l0.6,0.2
		c4.3-7.9,13.1-14.3,23.9-11.9l-4.2,11.8C132.2,45.4,125.7,47.4,122.1,50.9z"/>
	<path class="st0" d="M212.1,89l-13.7,5.8l-3.7-10.7h-0.6c-3.6,3.6-13,10.7-23.3,10.7c-7.1,0-15.7-3.8-15.7-16.7V49.4l-8.4-6.2
		l19.2-8.4v37.9c0,10.6,4.9,13.1,10.7,13.1c3.8,0,10-1,16.3-5.9V49.4l-8.4-6.2l19.2-8.4v48L212.1,89z"/>
	<path class="st0" d="M287.7,93.6h-30l9.6-7.2V56.9c0-10.6-4.9-13.1-11.9-13.1c-3.8,0-10,1-16.3,5.9v36.7l9.6,7.2h-30l9.6-7.2v-37
		l-8.4-6.2l19.2-8.4l-1.8,10.1l0.6,0.6c6-6,13-10.7,23.3-10.7c8.3,0,16.9,3.8,16.9,16.7v34.9L287.7,93.6z"/>
	<path class="st0" d="M295.5,64.8c0-18.6,13.3-30,29.4-30c16.1,0,29.4,11.4,29.4,30c0,18.6-13.3,30-29.4,30
		C308.8,94.8,295.5,83.4,295.5,64.8z M341.5,67.4c0-16.2-8.3-27.8-18.5-27.8c-10.9,0-14.9,10.7-14.9,22.6c0,16.2,8.5,27.8,18.7,27.8
		C337.7,90,341.5,79.3,341.5,67.4z"/>
	<path class="st0" d="M431.7,93.6h-30l9.6-7.2V56.9c0-10.6-4.9-13.1-11.9-13.1c-3.8,0-10,1-16.3,5.9v36.7l9.6,7.2h-30l9.6-7.2v-37
		l-8.4-6.2l19.2-8.4l-1.8,10.1l0.6,0.6c6-6,13-10.7,23.3-10.7c8.3,0,16.9,3.8,16.9,16.7v34.9L431.7,93.6z"/>
	<path class="st0" d="M467.1,93.6h-30l9.6-7.2v-37l-8.4-6.2l19.2-8.4v51.6L467.1,93.6z M444.3,15.6c0-4,3.2-7.2,7.2-7.2
		s7.2,3.2,7.2,7.2s-3.2,7.2-7.2,7.2S444.3,19.6,444.3,15.6z"/>
	<path class="st0" d="M523.5,78l0.6,0.6c-4.2,12.6-13.6,16.2-21.7,16.2c-15.1,0-27.5-12.5-27.5-30.5c0-19.1,13.8-29.5,28.2-29.5
		c11.3,0,21.1,6.5,22.2,22.2h-39.5c-0.1,1.2-0.1,2.4-0.1,3.7c0,13.9,7,23.9,20.3,23.9C510.8,84.6,516.5,83.3,523.5,78z M486.5,52.8
		h26.2c0-7.4-3.1-13.6-11.3-13.6C494.2,39.2,488.7,44.2,486.5,52.8z"/>
	<path class="st0" d="M618.9,71.8c0,14.5-12.1,23-28.4,23c-7.2,0-13.6-1.6-19.3-3.8l-7.4,3.7V68.4l12.7,17.2
		c4.4,2.2,8.8,3.2,13.7,3.2c14.4,0,16.8-8.5,16.8-14.8c0-22.6-42.7-15.6-42.7-43.7c0-13.1,11-22,27.6-22c5.8,0,11,1.1,16.4,3.2
		l6.4-3.2v26.3l-14-18.8c-2.6-1-5.3-1.4-8.3-1.4c-13.9,0-16.7,8.9-16.7,14.5C575.6,47.3,618.9,41.9,618.9,71.8z"/>
	<path class="st0" d="M671.4,88.2l11.6-15.5v20.9h-56.4l39.7-52.2h-23.2l-11.6,15.5V33.6l10.6,2.4h41.5l-39.6,52.2H671.4z"/>
	<path class="st0" d="M753.3,89l-13.7,5.8l-3.7-10.7h-0.6c-3.6,3.6-13,10.7-23.3,10.7c-7.1,0-15.7-3.8-15.7-16.7V49.4l-8.4-6.2
		l19.2-8.4v37.9c0,10.6,4.9,13.1,10.7,13.1c3.8,0,10-1,16.3-5.9V49.4l-8.4-6.2l19.2-8.4v48L753.3,89z"/>
	<path class="st0" d="M789.9,93.6h-30l9.6-7.2V14.6l-8.4-6.2L780.3,0v86.4L789.9,93.6z"/>
	<path class="st0" d="M846.3,78l0.6,0.6c-4.2,12.6-13.6,16.2-21.7,16.2c-15.1,0-27.5-12.6-27.5-30.4c0-20.5,16.6-29.6,29.6-29.6
		c8.4,0,14.8,2.4,19.6,6l-7.6,10.1l-13.2-11.3c-10.3,0-17.6,7.7-17.6,21.5c0,13.3,6.8,23.5,20.3,23.5
		C833.6,84.6,839.3,83.3,846.3,78z"/>
	<path class="st0" d="M917.1,89l-13.7,5.8l-3.7-10.7h-0.6c-3.6,3.6-13,10.7-23.3,10.7c-7.1,0-15.7-3.8-15.7-16.7V49.4l-8.4-6.2
		l19.2-8.4v37.9c0,10.6,4.9,13.1,10.7,13.1c3.8,0,10-1,16.3-5.9V49.4l-8.4-6.2l19.2-8.4v48L917.1,89z"/>
	<path class="st0" d="M942.3,90.6c0,10.9-9.4,18.6-19,22.2l-0.2-0.6c6.5-4.2,9.2-9.5,9.2-14.3c0-4.2-2.2-8-5.6-10.3
		c0-3.6,2.9-7.2,7.6-7.2C938.6,80.4,942.3,83,942.3,90.6z"/>
	<path class="st0" d="M141.7,223.2l0.6,0.6c-3,10.8-10.2,15-17.9,15c-10.6,0-17-8.2-17-17.4v-34.2H94.3l23.9-17.9V180h25.2l-3.7,7.2
		h-21.5v29.4c0,5.5,1.3,12,10.2,12C132.7,228.6,136.8,227,141.7,223.2z"/>
	<path class="st0" d="M151.8,208.8c0-18.6,13.3-30,29.4-30c16.1,0,29.4,11.4,29.4,30s-13.3,30-29.4,30
		C165.1,238.8,151.8,227.4,151.8,208.8z M197.8,211.4c0-16.2-8.3-27.8-18.5-27.8c-10.9,0-14.9,10.7-14.9,22.6
		c0,16.2,8.5,27.8,18.7,27.8C194,234,197.8,223.3,197.8,211.4z"/>
	<path class="st0" d="M262.6,232.2l11.6-15.5v20.9h-56.4l39.7-52.2h-23.2l-11.6,15.5v-23.3l10.6,2.4h41.5l-39.6,52.2H262.6z
		 M242.3,159.5c0-4,3.2-7.2,7.2-7.2s7.2,3.2,7.2,7.2c0,4-3.2,7.2-7.2,7.2S242.3,163.4,242.3,159.5z"/>
	<path class="st0" d="M351,223.2l0.6,0.6c-3,10.8-10.2,15-17.9,15c-10.6,0-17-8.2-17-17.4v-34.2h-13.1l23.9-17.9V180h25.2l-3.7,7.2
		h-21.5v29.4c0,5.5,1.3,12,10.2,12C342,228.6,346.1,227,351,223.2z"/>
	<path class="st0" d="M361.1,208.8c0-18.6,13.3-30,29.4-30c16.1,0,29.4,11.4,29.4,30s-13.3,30-29.4,30
		C374.4,238.8,361.1,227.4,361.1,208.8z M407,211.4c0-16.2-8.3-27.8-18.5-27.8c-10.9,0-14.9,10.7-14.9,22.6
		c0,16.2,8.5,27.8,18.7,27.8C403.3,234,407,223.3,407,211.4z"/>
	<path class="st0" d="M519.5,216.1v21.5h-64.8l9.6-7.2v-69.6l-9.6-7.2h31.2l-9.6,7.2v70.8h31.6L519.5,216.1z"/>
	<path class="st0" d="M589.7,233l-13.7,5.8l-3.7-10.7h-0.6c-3.6,3.6-13,10.7-23.3,10.7c-7.1,0-15.7-3.8-15.7-16.7v-28.7l-8.4-6.2
		l19.2-8.4v37.9c0,10.6,4.9,13.1,10.7,13.1c3.8,0,10-1,16.3-5.9v-30.5l-8.4-6.2l19.2-8.4v48L589.7,233z"/>
	<path class="st0" d="M661.7,233l-13.7,5.8l-3.7-10.7h-0.6c-3.5,5.4-10.7,10.7-19.8,10.7c-12.2,0-25.2-9.5-25.2-28.6
		c0-20.6,15.2-31.4,31.1-31.4c3.4,0,8.4,0.5,12.7,1.8v-22l-8.4-6.2l19.2-8.4v82.8L661.7,233z M642.5,223.9v-29.3
		c0-7.2-6.7-11-13.6-11c-10.6,0-18.2,9-18.2,24c0,13.8,6.5,22.2,17,22.2C632.9,229.8,638.4,227.8,642.5,223.9z"/>
	<path class="st0" d="M757.7,187.2l-20.5,54h-0.7l-18.8-40.6l-19.1,40.6h-0.7l-25.1-55.7l-7.4-5.5h30.5l-9.6,7.2l15,33.6L714,193
		l-6-13h19.1l-3.2,7.2l14.9,32.4l11.8-32.4l-10.6-7.2h27.4L757.7,187.2z"/>
	<path class="st0" d="M800.3,237.6h-30l9.6-7.2v-37l-8.4-6.2l19.2-8.4v51.6L800.3,237.6z M777.5,159.6c0-4,3.2-7.2,7.2-7.2
		s7.2,3.2,7.2,7.2s-3.2,7.2-7.2,7.2S777.5,163.6,777.5,159.6z"/>
	<path class="st0" d="M826.1,230.4l9.6,7.2h-30l9.6-7.2v-71.8l-8.4-6.2l19.2-8.4V230.4z M872.3,237.6v0.6
		c-18.8,2.4-24.4-3.8-40.8-31.1l21.1-19.9l-13.3-7.2h28.9l-25.4,24.6C853.9,222.7,859.4,230.9,872.3,237.6z"/>
	<path class="st0" d="M64.8,360.1v21.5H0l9.6-7.2v-69.6L0,297.6h31.2l-9.6,7.2v70.8h31.6L64.8,360.1z"/>
	<path class="st0" d="M122.4,366l0.6,0.6c-4.2,12.6-13.6,16.2-21.7,16.2c-15.1,0-27.5-12.5-27.5-30.5c0-19.1,13.8-29.5,28.2-29.5
		c11.3,0,21.1,6.5,22.2,22.2H84.7c-0.1,1.2-0.1,2.4-0.1,3.7c0,13.9,7,23.9,20.3,23.9C109.7,372.6,115.4,371.3,122.4,366z
		 M85.4,340.8h26.2c0-7.4-3.1-13.6-11.3-13.6C93.1,327.2,87.6,332.2,85.4,340.8z"/>
	<path class="st0" d="M133.2,331.2l19.2-8.4v60c-0.1,14.8-5.5,23.6-18.6,30l-0.6-0.6c6.4-8.2,8.4-16.9,8.4-30.6v-44.2L133.2,331.2z
		 M139.2,303.6c0-4,3.2-7.2,7.2-7.2s7.2,3.2,7.2,7.2s-3.2,7.2-7.2,7.2S139.2,307.6,139.2,303.6z"/>
	<path class="st0" d="M209.2,376.2l11.6-15.5v20.9h-56.4l39.7-52.2H181l-11.6,15.5v-23.3l10.6,2.4h41.5l-39.6,52.2H209.2z"/>
	<path class="st0" d="M278.4,366l0.6,0.6c-4.2,12.6-13.6,16.2-21.7,16.2c-15.1,0-27.5-12.5-27.5-30.5c0-19.1,13.8-29.5,28.2-29.5
		c11.3,0,21.1,6.5,22.2,22.2h-39.5c-0.1,1.2-0.1,2.4-0.1,3.7c0,13.9,7,23.9,20.3,23.9C265.7,372.6,271.4,371.3,278.4,366z
		 M241.4,340.8h26.2c0-7.4-3.1-13.6-11.3-13.6C249.1,327.2,243.6,332.2,241.4,340.8z"/>
	<path class="st0" d="M308.4,338.9v35.5l14.4,7.2H288l9.6-7.2v-37l-8.4-6.2l19.2-8.4l-2.3,12.8l0.6,0.2c4.3-7.9,13.1-14.3,23.9-11.9
		l-4.2,11.8C318.5,333.4,312,335.4,308.4,338.9z"/>
	<path class="st0" d="M432.6,360.1v21.5H360l54.1-78h-36.4l-11.6,15.5v-23.9l10.6,2.4h55.4l-54.1,78h43L432.6,360.1z"/>
	<path class="st0" d="M501,372.6c-3,7.9-6.8,10.2-11.9,10.2c-6,0-10-3.4-11.2-8.9h-0.6c-4,5.6-9.7,8.9-17.2,8.9
		c-9.6,0-16.2-5.3-16.2-14c0-6.4,3.5-11.3,8.2-13.8h24.6v-10.1c0-9.4-3.7-13.1-12-13.1c-5.6,0-11.5,1.7-17.6,6l-0.6-0.6
		c5.8-10.4,15.6-14.4,24.2-14.4c10.8,0,16.8,6.2,16.8,17.9v27.1c0,5.6,2.5,7,5.8,7c2.3,0,4.2-0.6,7.1-2.8L501,372.6z M476.8,369.1
		v-10H458c-1.7,2-2.6,4.6-2.6,7.9c0,6.5,4.2,8.5,8.4,8.5C467.9,375.6,472.1,373.6,476.8,369.1z"/>
	<path class="st0" d="M608.4,381.6h-30l9.6-7.2v-29.5c0-10.6-3.7-13.1-10.7-13.1c-3.8,0-8.8,1-15.1,5.9v36.7l9.6,7.2h-30l9.6-7.2
		v-29.5c0-10.6-3.7-13.1-10.7-13.1c-3.8,0-8.8,1-15.1,5.9v36.7l9.6,7.2h-30l9.6-7.2v-37l-8.4-6.2l19.2-8.4l-1.8,10.1l0.6,0.6
		c5.2-5.6,12.4-10.7,22.1-10.7c6.7,0,12.8,2.5,14.9,10.2c5.2-5.4,12.2-10.2,21.7-10.2c8.3,0,15.7,3.8,15.7,16.7v34.9L608.4,381.6z"
		/>
	<path class="st0" d="M664.8,366l0.6,0.6c-4.2,12.6-13.6,16.2-21.7,16.2c-15.1,0-27.5-12.5-27.5-30.5c0-19.1,13.8-29.5,28.2-29.5
		c11.3,0,21.1,6.5,22.2,22.2h-39.5c-0.1,1.2-0.1,2.4-0.1,3.7c0,13.9,7,23.9,20.3,23.9C652.1,372.6,657.8,371.3,664.8,366z
		 M627.8,340.8H654c0-7.4-3.1-13.6-11.3-13.6C635.5,327.2,630,332.2,627.8,340.8z"/>
	<path class="st0" d="M743.4,381.6h-30l9.6-7.2v-29.5c0-10.6-4.9-13.1-11.9-13.1c-3.8,0-10,1-16.3,5.9v36.7l9.6,7.2h-30l9.6-7.2v-37
		l-8.4-6.2l19.2-8.4l-1.8,10.1l0.6,0.6c6-6,13-10.7,23.3-10.7c8.3,0,16.9,3.8,16.9,16.7v34.9L743.4,381.6z"/>
	<path class="st0" d="M817.8,381.6h-30l9.6-7.2v-29.5c0-10.6-4.9-13.1-11.9-13.1c-3.8,0-10,1-16.3,5.9v36.7l9.6,7.2h-30l9.6-7.2
		v-71.8l-8.4-6.2l19.2-8.4v34.7l-1.8,10.2l0.6,0.6c6-6,13-10.7,23.3-10.7c8.3,0,16.9,3.8,16.9,16.7v34.9L817.8,381.6z"/>
	<path class="st0" d="M825.6,352.8c0-18.6,13.3-30,29.4-30s29.4,11.4,29.4,30s-13.3,30-29.4,30S825.6,371.4,825.6,352.8z
		 M871.5,355.4c0-16.2-8.3-27.8-18.5-27.8c-10.9,0-14.9,10.7-14.9,22.6c0,16.2,8.5,27.8,18.7,27.8
		C867.8,378,871.5,367.3,871.5,355.4z"/>
	<path class="st0" d="M913.8,315v9H933l-3.7,7.2h-15.5v43.2l14.4,7.2h-34.8l9.6-7.2v-43.2h-12l12-9v-3.6c0-22,12.7-30.6,25.9-30.6
		c6.4,0,11.9,1.4,16.1,3.6l-7.8,10.4l-10.7-9.2C918,293.5,913.8,301.9,913.8,315z"/>
	<path class="st0" d="M942.6,375.6c0-4,3.2-7.2,7.2-7.2s7.2,3.2,7.2,7.2s-3.2,7.2-7.2,7.2S942.6,379.6,942.6,375.6z M952.2,355.2
		h-4.8l-3.6-63.6h12L952.2,355.2z"/>
</g>
</svg>
