<?xml version="1.0" encoding="UTF-8"?>
<svg xmlns="http://www.w3.org/2000/svg" xmlns:xlink="http://www.w3.org/1999/xlink" version="1.2" >
<font id="Zaklad Regular">
<font-face  font-family="Zaklad" units-per-em="1000" ascent="750" descent="-250" font-style="normal" font-weight="400" font-stretch="normal" cap-height="680" x-height="474" underline-position="-75" underline-thickness="50" />
<missing-glyph  horiz-adv-x="636" d="M80 680 L80 0 L556 0 L556 680 L80 680 Z M352 339 L485 583 L485 96 L352 339 Z M284 339 L151 96 L151 583 L284 339 Z M199 619 L437 619 L318 401 L199 619 Z M318 277 L436 61 L199 61 L318 277 Z " />
<glyph glyph-name="NULL" d="" />
<glyph glyph-name="&amp;#x0;" d="" />
<glyph glyph-name="&amp;#xd;" unicode="&#xd;" d="" />
<glyph glyph-name="space" unicode="&#x20;" horiz-adv-x="220" d="" />
<glyph glyph-name="exclam" unicode="&#x21;" horiz-adv-x="375" d="M25 611 L15 601 L15 473 L55 245 L65 235 L310 235 L320 245 L360 473 L360 601 L350 611 L25 611 Z M113 200 L60 149 L60 51 L113 0 L262 0 L314 51 L314 149 L262 200 L113 200 Z " />
<glyph glyph-name="numbersign" unicode="&#x23;" horiz-adv-x="645" d="M95 611 L85 601 L85 509 L20 509 L10 499 L10 368 L20 358 L85 358 L85 274 L20 274 L10 264 L10 133 L20 123 L85 123 L85 10 L95 0 L280 0 L290 10 L290 123 L355 123 L355 10 L365 0 L550 0 L560 10 L560 123 L625 123 L635 133 L635 264 L625 274 L560 274 L560 358 L625 358 L635 368 L635 499 L625 509 L560 509 L560 600 L550 611 L365 611 L355 601 L355 509 L290 509 L290 600 L280 611 L95 611 Z M290 358 L355 358 L355 274 L290 274 L290 358 Z " />
<glyph glyph-name="dollar" unicode="&#x24;" horiz-adv-x="735" d="M115 611 L20 522 L20 296 L116 206 L400 206 L400 161 L30 161 L20 151 L20 10 L30 0 L291 0 L286 -127 L296 -137 L436 -137 L446 -127 L441 0 L620 0 L715 90 L715 266 L620 356 L335 356 L335 516 L400 516 L400 406 L410 396 L695 396 L705 406 L705 571 L665 611 L441 611 L446 728 L436 738 L296 738 L286 728 L291 611 L115 611 Z " />
<glyph glyph-name="percent" unicode="&#x25;" horiz-adv-x="1206" d="M104 611 L5 516 L5 330 L104 235 L383 235 L482 330 L482 516 L383 611 L104 611 Z M212 536 L275 536 L275 310 L212 310 L212 536 Z M823 376 L724 281 L724 95 L823 0 L1102 0 L1201 95 L1201 281 L1102 376 L823 376 Z M931 301 L994 301 L994 75 L931 75 L931 301 Z M607 611 L597 601 L432 95 L432 10 L442 0 L599 0 L609 10 L774 516 L774 601 L764 611 L607 611 Z " />
<glyph glyph-name="ampersand" unicode="&#x26;" horiz-adv-x="930" d="M525 611 L515 601 L515 388 L335 388 L335 460 L440 460 L450 470 L450 601 L440 611 L40 611 L30 601 L30 10 L40 0 L440 0 L450 10 L450 141 L440 151 L335 151 L335 237 L515 237 L515 10 L525 0 L820 0 L830 10 L830 227 L915 227 L925 237 L925 398 L915 408 L830 408 L830 600 L820 611 L525 611 Z " />
<glyph glyph-name="parenleft" unicode="&#x28;" horiz-adv-x="275" d="M155 651 L30 531 L30 -47 L154 -167 L235 -167 L245 -157 L245 640 L235 651 L155 651 Z " />
<glyph glyph-name="parenright" unicode="&#x29;" horiz-adv-x="275" d="M40 651 L30 640 L30 -157 L40 -167 L121 -167 L245 -47 L245 531 L120 651 L40 651 Z " />
<glyph glyph-name="asterisk" unicode="&#x2a;" horiz-adv-x="457" d="M374 380 L436 406 L436 473 L372 500 L397 561 L349 610 L286 583 L262 641 L190 641 L166 581 L105 607 L56 558 L82 495 L20 469 L20 401 L84 375 L59 314 L108 265 L171 291 L194 234 L266 234 L291 293 L352 268 L400 317 L374 380 Z " />
<glyph glyph-name="plus" unicode="&#x2b;" horiz-adv-x="595" d="M387 527 L377 537 L217 537 L207 527 L207 364 L25 364 L15 354 L15 194 L25 184 L207 184 L207 10 L217 0 L377 0 L387 10 L387 184 L570 184 L580 194 L580 354 L570 364 L387 364 L387 527 Z " />
<glyph glyph-name="comma" unicode="&#x2c;" horiz-adv-x="274" d="M63 200 L10 149 L10 51 L63 0 L98 0 L98 -117 L108 -127 L202 -127 L264 51 L264 149 L212 200 L63 200 Z " />
<glyph glyph-name="hyphen" unicode="&#x2d;" horiz-adv-x="355" d="M25 364 L15 354 L15 194 L25 184 L330 184 L340 194 L340 354 L330 364 L25 364 Z " />
<glyph glyph-name="period" unicode="&#x2e;" horiz-adv-x="274" d="M63 200 L10 149 L10 51 L63 0 L212 0 L264 51 L264 149 L212 200 L63 200 Z " />
<glyph glyph-name="slash" unicode="&#x2f;" horiz-adv-x="339" d="M157 651 L147 641 L-5 -72 L-5 -157 L5 -167 L182 -167 L192 -157 L344 556 L344 641 L334 651 L157 651 Z " />
<glyph glyph-name="zero" unicode="0" horiz-adv-x="735" d="M145 611 L20 491 L20 120 L145 0 L590 0 L715 120 L715 491 L590 611 L145 611 Z M335 516 L400 516 L400 95 L335 95 L335 516 Z " />
<glyph glyph-name="one" unicode="1" horiz-adv-x="470" d="M20 611 L10 601 L10 470 L20 460 L85 460 L85 151 L20 151 L10 141 L10 10 L20 0 L455 0 L465 10 L465 141 L455 151 L390 151 L390 601 L380 611 L20 611 Z " />
<glyph glyph-name="two" unicode="2" horiz-adv-x="617" d="M287 385 L25 244 L25 10 L35 0 L582 0 L592 10 L592 171 L582 181 L344 181 L592 315 L592 601 L582 611 L35 611 L25 601 L25 440 L35 430 L287 430 L287 385 Z " />
<glyph glyph-name="three" unicode="3" horiz-adv-x="485" d="M35 611 L25 601 L25 470 L35 460 L160 460 L160 388 L85 388 L75 378 L75 247 L85 237 L160 237 L160 151 L35 151 L25 141 L25 10 L35 0 L455 0 L465 10 L465 207 L347 315 L465 423 L465 601 L455 611 L35 611 Z " />
<glyph glyph-name="four" unicode="4" horiz-adv-x="780" d="M685 601 L675 611 L400 611 L390 601 L390 248 L325 248 L325 601 L315 611 L135 611 L10 298 L10 106 L20 96 L380 96 L380 10 L390 0 L675 0 L685 10 L685 96 L750 96 L760 106 L760 237 L750 247 L685 247 L685 601 Z " />
<glyph glyph-name="five" unicode="5" horiz-adv-x="705" d="M25 244 L35 234 L380 234 L380 125 L315 125 L315 179 L305 189 L35 189 L25 179 L25 10 L35 0 L555 0 L680 120 L680 375 L670 385 L315 385 L315 430 L670 430 L680 440 L680 601 L670 611 L35 611 L25 601 L25 244 Z " />
<glyph glyph-name="six" unicode="6" horiz-adv-x="705" d="M25 10 L35 0 L670 0 L680 10 L680 375 L670 385 L315 385 L315 430 L670 430 L680 440 L680 601 L670 611 L35 611 L25 601 L25 10 Z M380 290 L380 151 L315 151 L315 290 L380 290 Z " />
<glyph glyph-name="seven" unicode="7" horiz-adv-x="518" d="M403 251 L503 315 L503 601 L493 611 L15 611 L5 601 L5 440 L15 430 L198 430 L198 385 L98 321 L98 10 L108 0 L393 0 L403 10 L403 251 Z " />
<glyph glyph-name="eight" unicode="8" horiz-adv-x="725" d="M35 611 L25 601 L25 423 L143 315 L25 207 L25 10 L35 0 L690 0 L700 10 L700 207 L582 315 L700 423 L700 601 L690 611 L35 611 Z M330 265 L395 265 L395 151 L330 151 L330 265 Z M330 460 L395 460 L395 360 L330 360 L330 460 Z " />
<glyph glyph-name="nine" unicode="9" horiz-adv-x="705" d="M680 601 L670 611 L35 611 L25 601 L25 236 L35 226 L390 226 L390 181 L35 181 L25 171 L25 10 L35 0 L670 0 L680 10 L680 601 Z M325 321 L325 460 L390 460 L390 321 L325 321 Z " />
<glyph glyph-name="colon" unicode="&#x3a;" horiz-adv-x="274" d="M63 200 L10 149 L10 51 L63 0 L212 0 L264 51 L264 149 L212 200 L63 200 Z M63 474 L10 423 L10 325 L63 274 L212 274 L264 325 L264 423 L212 474 L63 474 Z " />
<glyph glyph-name="semicolon" unicode="&#x3b;" horiz-adv-x="274" d="M63 200 L10 149 L10 51 L63 0 L98 0 L98 -117 L108 -127 L202 -127 L264 51 L264 149 L212 200 L63 200 Z M63 474 L10 423 L10 325 L63 274 L212 274 L264 325 L264 423 L212 474 L63 474 Z " />
<glyph glyph-name="less" unicode="&#x3c;" horiz-adv-x="596" d="M570 37 L580 47 L580 185 L262 277 L580 369 L580 501 L570 511 L391 511 L15 376 L15 173 L391 37 L570 37 Z " />
<glyph glyph-name="equal" unicode="&#x3d;" horiz-adv-x="596" d="M25 252 L15 242 L15 102 L25 92 L570 92 L580 102 L580 242 L570 252 L25 252 Z M25 457 L15 447 L15 307 L25 297 L570 297 L580 307 L580 447 L570 457 L25 457 Z " />
<glyph glyph-name="greater" unicode="&#x3e;" horiz-adv-x="596" d="M205 37 L581 173 L581 376 L205 511 L26 511 L16 501 L16 369 L334 277 L16 185 L16 47 L26 37 L205 37 Z " />
<glyph glyph-name="question" unicode="&#x3f;" horiz-adv-x="488" d="M478 337 L478 513 L354 611 L20 611 L10 601 L10 440 L20 430 L183 430 L183 385 L93 321 L93 245 L103 235 L352 235 L478 337 Z M146 200 L93 149 L93 51 L146 0 L295 0 L347 51 L347 149 L295 200 L146 200 Z " />
<glyph glyph-name="at" unicode="&#x40;" horiz-adv-x="787" d="M375 347 L375 177 L426 177 L426 347 L375 347 Z M209 573 L20 417 L20 94 L209 -62 L757 -62 L767 -52 L767 67 L757 77 L458 77 L428 146 L359 77 L227 77 L129 167 L129 357 L227 448 L359 448 L428 378 L458 448 L655 448 L665 438 L665 147 L675 137 L757 137 L767 147 L767 417 L606 573 L209 573 Z " />
<glyph glyph-name="A" unicode="A" horiz-adv-x="735" d="M175 611 L20 299 L20 10 L30 0 L325 0 L335 10 L335 132 L400 132 L400 10 L410 0 L705 0 L715 10 L715 299 L560 611 L175 611 Z M335 486 L400 486 L400 283 L335 283 L335 486 Z " />
<glyph glyph-name="B" unicode="B" horiz-adv-x="735" d="M40 611 L30 601 L30 10 L40 0 L600 0 L715 110 L715 248 L646 316 L715 384 L715 501 L600 611 L40 611 Z M335 259 L400 259 L400 94 L335 94 L335 259 Z M335 516 L400 516 L400 374 L335 374 L335 516 Z " />
<glyph glyph-name="C" unicode="C" horiz-adv-x="450" d="M175 611 L20 461 L20 150 L175 0 L430 0 L440 10 L440 131 L430 141 L355 141 L355 470 L430 470 L440 480 L440 601 L430 611 L175 611 Z " />
<glyph glyph-name="D" unicode="D" horiz-adv-x="735" d="M40 611 L30 601 L30 10 L40 0 L560 0 L715 150 L715 461 L560 611 L40 611 Z M400 516 L400 95 L335 95 L335 516 L400 516 Z " />
<glyph glyph-name="E" unicode="E" horiz-adv-x="470" d="M40 611 L30 601 L30 10 L40 0 L440 0 L450 10 L450 141 L440 151 L335 151 L335 237 L430 237 L440 247 L440 378 L430 388 L335 388 L335 460 L440 460 L450 470 L450 601 L440 611 L40 611 Z " />
<glyph glyph-name="F" unicode="F" horiz-adv-x="455" d="M40 611 L30 601 L30 10 L40 0 L325 0 L335 10 L335 182 L430 182 L440 192 L440 323 L430 333 L335 333 L335 460 L440 460 L450 470 L450 601 L440 611 L40 611 Z " />
<glyph glyph-name="G" unicode="G" horiz-adv-x="730" d="M410 393 L400 383 L400 141 L335 141 L335 470 L695 470 L705 480 L705 601 L695 611 L175 611 L20 461 L20 150 L175 0 L400 0 L400 -118 L410 -128 L695 -128 L705 -118 L705 382 L695 393 L410 393 Z " />
<glyph glyph-name="H" unicode="H" horiz-adv-x="735" d="M410 611 L400 601 L400 393 L335 393 L335 600 L325 611 L40 611 L30 601 L30 10 L40 0 L325 0 L335 10 L335 242 L400 242 L400 10 L410 0 L695 0 L705 10 L705 600 L695 611 L410 611 Z " />
<glyph glyph-name="I" unicode="I" horiz-adv-x="375" d="M40 611 L30 601 L30 10 L40 0 L335 0 L345 10 L345 600 L335 611 L40 611 Z " />
<glyph glyph-name="J" unicode="J" horiz-adv-x="375" d="M40 611 L30 601 L30 0 L-20 -117 L-10 -127 L285 -127 L295 -117 L345 0 L345 600 L335 611 L40 611 Z " />
<glyph glyph-name="K" unicode="K" horiz-adv-x="725" d="M410 611 L400 601 L400 393 L335 393 L335 600 L325 611 L40 611 L30 601 L30 10 L40 0 L325 0 L335 10 L335 242 L388 242 L430 -116 L440 -126 L695 -126 L705 -116 L705 216 L612 320 L705 423 L705 601 L695 611 L410 611 Z " />
<glyph glyph-name="L" unicode="L" horiz-adv-x="463" d="M40 611 L30 601 L30 10 L40 0 L450 0 L460 10 L460 141 L450 151 L345 151 L345 600 L335 611 L40 611 Z " />
<glyph glyph-name="M" unicode="M" horiz-adv-x="947" d="M612 611 L477 365 L335 611 L40 611 L30 601 L30 10 L40 0 L305 0 L315 10 L315 194 L397 0 L550 0 L632 194 L632 10 L642 0 L907 0 L917 10 L917 600 L907 611 L612 611 Z " />
<glyph glyph-name="N" unicode="N" horiz-adv-x="735" d="M40 611 L30 601 L30 10 L40 0 L325 0 L335 10 L335 375 L400 336 L400 10 L410 0 L695 0 L705 10 L705 600 L695 611 L440 611 L402 501 L245 611 L40 611 Z " />
<glyph glyph-name="O" unicode="O" horiz-adv-x="735" d="M175 611 L20 461 L20 150 L175 0 L560 0 L715 150 L715 461 L560 611 L175 611 Z M400 516 L400 95 L335 95 L335 516 L400 516 Z " />
<glyph glyph-name="P" unicode="P" horiz-adv-x="725" d="M40 611 L30 601 L30 10 L40 0 L325 0 L335 10 L335 147 L580 147 L715 277 L715 491 L590 611 L40 611 Z M335 516 L400 516 L400 252 L335 252 L335 516 Z " />
<glyph glyph-name="Q" unicode="Q" horiz-adv-x="735" d="M457 -127 L687 -127 L687 -97 L560 0 L715 150 L715 461 L560 611 L175 611 L20 461 L20 150 L175 0 L330 0 L457 -127 Z M400 516 L400 95 L335 95 L335 516 L400 516 Z " />
<glyph glyph-name="R" unicode="R" horiz-adv-x="735" d="M468 0 L705 0 L715 10 L715 212 L636 222 L715 300 L715 491 L590 611 L40 611 L30 601 L30 10 L40 0 L325 0 L335 10 L335 147 L468 0 Z M335 516 L400 516 L400 242 L335 242 L335 516 Z " />
<glyph glyph-name="S" unicode="S" horiz-adv-x="735" d="M115 611 L20 522 L20 296 L116 206 L400 206 L400 161 L30 161 L20 151 L20 10 L30 0 L620 0 L715 90 L715 266 L620 356 L335 356 L335 516 L400 516 L400 406 L410 396 L695 396 L705 406 L705 571 L665 611 L115 611 Z " />
<glyph glyph-name="T" unicode="T" horiz-adv-x="555" d="M15 611 L5 601 L5 460 L15 450 L120 450 L120 10 L130 0 L425 0 L435 10 L435 450 L540 450 L550 460 L550 601 L540 611 L15 611 Z " />
<glyph glyph-name="U" unicode="U" horiz-adv-x="725" d="M35 611 L25 601 L25 150 L180 0 L545 0 L700 150 L700 600 L690 611 L405 611 L395 601 L395 95 L330 95 L330 600 L320 611 L35 611 Z " />
<glyph glyph-name="V" unicode="V" horiz-adv-x="731" d="M30 611 L20 601 L20 312 L175 0 L556 0 L711 312 L711 601 L701 611 L406 611 L396 601 L396 125 L335 125 L335 601 L325 611 L30 611 Z " />
<glyph glyph-name="W" unicode="W" horiz-adv-x="1097" d="M30 611 L20 601 L20 150 L175 0 L482 0 L548 116 L615 0 L922 0 L1077 150 L1077 600 L1067 611 L406 611 L396 601 L396 470 L406 460 L762 460 L762 105 L701 105 L701 404 L691 415 L406 415 L396 405 L396 105 L335 105 L335 600 L325 611 L30 611 Z " />
<glyph glyph-name="X" unicode="X" horiz-adv-x="734" d="M20 212 L20 10 L30 0 L324 0 L334 10 L334 242 L399 242 L399 10 L409 0 L704 0 L714 10 L714 212 L595 320 L714 428 L714 601 L704 611 L409 611 L399 601 L399 398 L334 398 L334 601 L324 611 L30 611 L20 601 L20 428 L138 320 L20 212 Z " />
<glyph glyph-name="Y" unicode="Y" horiz-adv-x="715" d="M25 611 L15 601 L15 347 L141 127 L185 127 L185 10 L195 0 L520 0 L530 10 L530 127 L574 127 L700 347 L700 601 L690 611 L398 611 L388 601 L388 232 L327 232 L327 601 L317 611 L25 611 Z " />
<glyph glyph-name="Z" unicode="Z" horiz-adv-x="510" d="M30 611 L20 601 L20 440 L30 430 L176 430 L20 168 L20 10 L30 0 L480 0 L490 10 L490 171 L480 181 L334 181 L490 443 L490 601 L480 611 L30 611 Z " />
<glyph glyph-name="backslash" unicode="&#x5c;" horiz-adv-x="339" d="M5 651 L-5 641 L-5 556 L147 -157 L157 -167 L334 -167 L344 -157 L344 -72 L192 641 L182 651 L5 651 Z " />
<glyph glyph-name="underscore" unicode="&#x5f;" horiz-adv-x="596" d="M25 52 L15 42 L15 -118 L25 -128 L570 -128 L580 -118 L580 42 L570 52 L25 52 Z " />
<glyph glyph-name="a" unicode="a" horiz-adv-x="730" d="M402 385 L314 474 L145 474 L20 354 L20 120 L145 0 L314 0 L402 88 L441 0 L695 0 L705 10 L705 464 L695 474 L441 474 L402 385 Z M335 346 L400 346 L400 128 L335 128 L335 346 Z " />
<glyph glyph-name="b" unicode="b" horiz-adv-x="730" d="M416 474 L330 388 L330 601 L320 611 L35 611 L25 601 L25 10 L35 0 L289 0 L327 88 L416 0 L585 0 L710 120 L710 354 L585 474 L416 474 Z M395 346 L395 128 L330 128 L330 346 L395 346 Z " />
<glyph glyph-name="c" unicode="c" horiz-adv-x="707" d="M145 474 L20 354 L20 120 L145 0 L675 0 L685 10 L685 141 L675 151 L335 151 L335 384 L400 384 L400 206 L410 196 L675 196 L685 206 L685 424 L635 474 L145 474 Z " />
<glyph glyph-name="d" unicode="d" horiz-adv-x="730" d="M150 474 L25 354 L25 120 L150 0 L319 0 L407 88 L446 0 L700 0 L710 10 L710 601 L700 611 L415 611 L405 601 L405 388 L319 474 L150 474 Z M340 346 L405 346 L405 128 L340 128 L340 346 Z " />
<glyph glyph-name="e" unicode="e" horiz-adv-x="725" d="M145 0 L695 0 L705 10 L705 141 L695 151 L335 151 L335 196 L695 196 L705 206 L705 354 L580 474 L145 474 L20 354 L20 120 L145 0 Z M335 384 L400 384 L400 256 L335 256 L335 384 Z " />
<glyph glyph-name="f" unicode="f" horiz-adv-x="455" d="M15 386 L5 376 L5 245 L15 235 L60 235 L60 -117 L70 -127 L365 -127 L375 -117 L375 235 L440 235 L450 245 L450 376 L440 386 L310 386 L310 431 L440 431 L450 441 L450 601 L440 611 L185 611 L60 386 L15 386 Z " />
<glyph glyph-name="g" unicode="g" horiz-adv-x="710" d="M122 474 L25 381 L25 222 L110 141 L455 141 L455 101 L110 101 L15 30 L15 -56 L110 -127 L593 -127 L690 -34 L690 227 L502 283 L502 313 L680 303 L690 313 L690 464 L680 474 L122 474 Z M306 389 L371 389 L371 236 L306 236 L306 389 Z M246 21 L455 21 L455 -34 L246 -34 L246 21 Z " />
<glyph glyph-name="h" unicode="h" horiz-adv-x="732" d="M35 611 L25 601 L25 10 L35 0 L320 0 L330 10 L330 326 L395 326 L395 10 L405 0 L700 0 L710 10 L710 354 L585 474 L416 474 L330 370 L330 600 L320 611 L35 611 Z " />
<glyph glyph-name="i" unicode="i" horiz-adv-x="470" d="M20 386 L10 376 L10 245 L20 235 L85 235 L85 151 L20 151 L10 141 L10 10 L20 0 L455 0 L465 10 L465 141 L455 151 L390 151 L390 376 L380 386 L20 386 Z M85 611 L75 601 L75 441 L85 431 L380 431 L390 441 L390 601 L380 611 L85 611 Z " />
<glyph glyph-name="j" unicode="j" horiz-adv-x="410" d="M80 611 L70 601 L70 441 L80 431 L375 431 L385 441 L385 601 L375 611 L80 611 Z M15 386 L5 376 L5 245 L15 235 L80 235 L80 -117 L90 -127 L375 -127 L385 -117 L385 376 L375 386 L15 386 Z " />
<glyph glyph-name="k" unicode="k" horiz-adv-x="720" d="M405 474 L395 464 L395 315 L330 315 L330 601 L320 611 L35 611 L25 601 L25 10 L35 0 L320 0 L330 10 L330 165 L383 165 L425 -117 L435 -127 L690 -127 L700 -117 L700 138 L607 242 L700 345 L700 464 L690 474 L405 474 Z " />
<glyph glyph-name="l" unicode="l" horiz-adv-x="355" d="M35 611 L25 601 L25 10 L35 0 L320 0 L330 10 L330 600 L320 611 L35 611 Z " />
<glyph glyph-name="m" unicode="m" horiz-adv-x="1112" d="M35 474 L25 464 L25 10 L35 0 L320 0 L330 10 L330 326 L395 326 L395 10 L405 0 L700 0 L710 10 L710 326 L775 326 L775 10 L785 0 L1080 0 L1090 10 L1090 354 L965 474 L796 474 L702 361 L585 474 L416 474 L327 366 L290 474 L35 474 Z " />
<glyph glyph-name="n" unicode="n" horiz-adv-x="732" d="M35 474 L25 464 L25 10 L35 0 L320 0 L330 10 L330 326 L395 326 L395 10 L405 0 L700 0 L710 10 L710 354 L585 474 L416 474 L327 366 L290 474 L35 474 Z " />
<glyph glyph-name="o" unicode="o" horiz-adv-x="735" d="M145 474 L20 354 L20 120 L145 0 L590 0 L715 120 L715 354 L590 474 L145 474 Z M335 379 L400 379 L400 95 L335 95 L335 379 Z " />
<glyph glyph-name="p" unicode="p" horiz-adv-x="730" d="M416 474 L327 385 L289 474 L35 474 L25 464 L25 -117 L35 -127 L320 -127 L330 -117 L330 86 L416 0 L585 0 L710 120 L710 354 L585 474 L416 474 Z M395 346 L395 128 L330 128 L330 346 L395 346 Z " />
<glyph glyph-name="q" unicode="q" horiz-adv-x="730" d="M145 474 L20 354 L20 120 L145 0 L314 0 L400 86 L400 -117 L410 -127 L695 -127 L705 -117 L705 464 L695 474 L441 474 L402 385 L314 474 L145 474 Z M335 346 L400 346 L400 128 L335 128 L335 346 Z " />
<glyph glyph-name="r" unicode="r" horiz-adv-x="663" d="M80 464 L80 151 L15 151 L5 141 L5 10 L15 0 L630 0 L640 10 L640 141 L630 151 L385 151 L385 196 L630 196 L640 206 L640 464 L628 474 L471 474 L382 348 L345 474 L90 474 L80 464 Z " />
<glyph glyph-name="s" unicode="s" horiz-adv-x="725" d="M120 474 L25 385 L25 281 L121 191 L395 191 L395 95 L330 95 L330 140 L320 151 L25 151 L15 141 L15 40 L56 0 L615 0 L710 90 L710 193 L615 283 L330 283 L330 379 L395 379 L395 333 L405 323 L690 323 L700 333 L700 434 L660 474 L120 474 Z " />
<glyph glyph-name="t" unicode="t" horiz-adv-x="440" d="M360 386 L360 513 L350 523 L95 523 L85 513 L55 386 L10 386 L0 376 L0 245 L10 235 L55 235 L55 120 L180 0 L425 0 L435 10 L435 141 L360 206 L360 235 L425 235 L435 245 L435 376 L425 386 L360 386 Z " />
<glyph glyph-name="u" unicode="u" horiz-adv-x="735" d="M415 474 L405 464 L405 148 L340 148 L340 464 L330 474 L35 474 L25 464 L25 120 L150 0 L319 0 L407 107 L445 0 L700 0 L710 10 L710 464 L700 474 L415 474 Z " />
<glyph glyph-name="v" unicode="v" horiz-adv-x="715" d="M25 474 L15 464 L15 220 L141 0 L574 0 L700 220 L700 464 L690 474 L398 474 L388 464 L388 105 L327 105 L327 464 L317 474 L25 474 Z " />
<glyph glyph-name="w" unicode="w" horiz-adv-x="1088" d="M25 474 L15 464 L15 220 L141 0 L477 0 L543 116 L610 0 L947 0 L1073 220 L1073 464 L1063 474 L771 474 L761 464 L761 105 L700 105 L700 464 L690 474 L398 474 L388 464 L388 105 L327 105 L327 464 L317 474 L25 474 Z " />
<glyph glyph-name="x" unicode="x" horiz-adv-x="725" d="M20 129 L20 10 L30 0 L322 0 L332 10 L332 159 L393 159 L393 10 L403 0 L695 0 L705 10 L705 129 L586 237 L705 345 L705 464 L695 474 L403 474 L393 464 L393 315 L332 315 L332 464 L322 474 L30 474 L20 464 L20 345 L138 237 L20 129 Z " />
<glyph glyph-name="y" unicode="y" horiz-adv-x="715" d="M25 474 L15 464 L15 220 L141 0 L185 0 L185 -117 L195 -127 L520 -127 L530 -117 L530 0 L574 0 L700 220 L700 464 L690 474 L398 474 L388 464 L388 105 L327 105 L327 464 L317 474 L25 474 Z " />
<glyph glyph-name="z" unicode="z" horiz-adv-x="500" d="M30 474 L20 464 L20 303 L30 293 L146 293 L20 168 L20 10 L30 0 L470 0 L480 10 L480 171 L470 181 L354 181 L480 306 L480 464 L470 474 L30 474 Z " />
<glyph glyph-name="braceleft" unicode="&#x7b;" horiz-adv-x="335" d="M215 651 L90 531 L90 384 L5 306 L5 195 L90 117 L90 -47 L214 -167 L295 -167 L305 -157 L305 640 L295 651 L215 651 Z " />
<glyph glyph-name="bar" unicode="&#x7c;" horiz-adv-x="275" d="M40 651 L30 641 L30 -157 L40 -167 L235 -167 L245 -157 L245 640 L235 651 L40 651 Z " />
<glyph glyph-name="braceright" unicode="&#x7d;" horiz-adv-x="336" d="M40 651 L30 640 L30 -157 L40 -167 L121 -167 L245 -47 L245 117 L330 195 L330 306 L245 384 L245 531 L120 651 L40 651 Z " />
<glyph glyph-name="cent" unicode="&#xa2;" horiz-adv-x="707" d="M436 -137 L446 -127 L441 0 L675 0 L685 10 L685 141 L675 151 L335 151 L335 384 L400 384 L400 206 L410 196 L675 196 L685 206 L685 424 L635 474 L441 474 L446 591 L436 601 L296 601 L286 591 L291 474 L145 474 L20 354 L20 120 L145 0 L291 0 L286 -127 L296 -137 L436 -137 Z " />
<glyph glyph-name="section" unicode="&#xa7;" horiz-adv-x="725" d="M120 611 L25 522 L25 417 L93 354 L25 291 L25 154 L121 64 L395 64 L395 -32 L330 -32 L330 13 L320 24 L25 24 L15 14 L15 -87 L56 -127 L615 -127 L710 -37 L710 66 L642 129 L710 192 L710 330 L615 420 L330 420 L330 516 L395 516 L395 470 L405 460 L690 460 L700 470 L700 571 L660 611 L120 611 Z M330 156 L330 328 L395 328 L395 156 L330 156 Z " />
<glyph glyph-name="copyright" unicode="&#xa9;" horiz-adv-x="757" d="M209 611 L20 446 L20 103 L209 -62 L548 -62 L737 103 L737 446 L548 611 L209 611 Z M261 503 L515 503 L524 493 L524 377 L515 368 L453 368 L453 184 L515 184 L524 175 L524 59 L515 49 L261 49 L142 164 L142 388 L261 503 Z " />
<glyph glyph-name="guillemotleft" unicode="&#xab;" horiz-adv-x="663" d="M324 0 L334 10 L334 108 L212 240 L334 372 L334 464 L324 474 L145 474 L5 304 L5 171 L145 0 L324 0 Z M648 0 L658 10 L658 108 L536 240 L658 372 L658 464 L648 474 L469 474 L329 304 L329 171 L469 0 L648 0 Z " />
<glyph glyph-name="registered" unicode="&#xae;" horiz-adv-x="887" d="M209 611 L20 446 L20 103 L209 -62 L678 -62 L867 103 L867 446 L678 611 L209 611 Z M530 55 L431 164 L431 62 L424 55 L212 55 L205 62 L205 501 L212 508 L620 508 L713 419 L713 278 L655 220 L713 212 L713 62 L706 55 L530 55 Z M431 438 L431 235 L479 235 L479 438 L431 438 Z " />
<glyph glyph-name="degree" unicode="&#xb0;" horiz-adv-x="487" d="M104 611 L5 516 L5 330 L104 235 L383 235 L482 330 L482 516 L383 611 L104 611 Z M212 536 L275 536 L275 310 L212 310 L212 536 Z " />
<glyph glyph-name="acute" unicode="&#xb4;" horiz-adv-x="500" d="M188 704 L137 504 L347 504 L398 674 L398 704 L188 704 Z " />
<glyph glyph-name="mu" unicode="&#xb5;" horiz-adv-x="735" d="M415 474 L405 464 L405 148 L340 148 L340 464 L330 474 L35 474 L25 464 L25 -117 L35 -127 L309 -127 L319 -117 L319 0 L407 107 L445 0 L700 0 L710 10 L710 464 L700 474 L415 474 Z " />
<glyph glyph-name="paragraph" unicode="&#xb6;" horiz-adv-x="825" d="M810 460 L820 470 L820 601 L810 611 L130 611 L5 491 L5 237 L140 107 L210 107 L210 10 L220 0 L465 0 L475 10 L475 460 L540 460 L540 10 L550 0 L735 0 L745 10 L745 460 L810 460 Z " />
<glyph glyph-name="guillemotright" unicode="&#xbb;" horiz-adv-x="663" d="M15 474 L5 464 L5 366 L127 234 L5 102 L5 10 L15 0 L194 0 L334 170 L334 303 L194 474 L15 474 Z M339 474 L329 464 L329 366 L451 234 L329 102 L329 10 L339 0 L518 0 L658 170 L658 303 L518 474 L339 474 Z " />
<glyph glyph-name="Oacute" unicode="&#xd3;" horiz-adv-x="735" d="M175 611 L20 461 L20 150 L175 0 L560 0 L715 150 L715 461 L560 611 L175 611 Z M400 516 L400 95 L335 95 L335 516 L400 516 Z M287 841 L236 641 L446 641 L497 811 L497 841 L287 841 Z " />
<glyph glyph-name="multiply" unicode="&#xd7;" horiz-adv-x="543" d="M538 414 L538 428 L424 541 L410 541 L271 402 L132 541 L118 541 L5 428 L5 414 L144 275 L5 136 L5 121 L118 8 L132 8 L271 147 L410 8 L424 8 L538 121 L538 136 L399 275 L538 414 Z " />
<glyph glyph-name="oacute" unicode="&#xf3;" horiz-adv-x="735" d="M145 474 L20 354 L20 120 L145 0 L590 0 L715 120 L715 354 L590 474 L145 474 Z M335 379 L400 379 L400 95 L335 95 L335 379 Z M291 704 L240 504 L450 504 L501 674 L501 704 L291 704 Z " />
<glyph glyph-name="divide" unicode="&#xf7;" horiz-adv-x="596" d="M25 364 L15 354 L15 194 L25 184 L570 184 L580 194 L580 354 L570 364 L25 364 Z M242 150 L202 112 L202 39 L242 0 L353 0 L392 39 L392 112 L353 150 L242 150 Z M242 548 L202 510 L202 437 L242 398 L353 398 L392 437 L392 510 L353 548 L242 548 Z " />
<glyph glyph-name="Aogonek" unicode="&#x104;" horiz-adv-x="735" d="M175 611 L20 299 L20 10 L30 0 L325 0 L335 10 L335 132 L400 132 L400 10 L410 0 L495 0 L368 -97 L368 -127 L578 -127 L715 10 L715 299 L560 611 L175 611 Z M335 486 L400 486 L400 283 L335 283 L335 486 Z " />
<glyph glyph-name="aogonek" unicode="&#x105;" horiz-adv-x="723" d="M395 385 L307 474 L138 474 L13 354 L13 120 L138 0 L307 0 L395 88 L434 0 L688 0 L698 10 L698 464 L688 474 L434 474 L395 385 Z M688 0 L478 0 L351 -97 L351 -127 L561 -127 L688 0 Z M328 346 L393 346 L393 128 L328 128 L328 346 Z " />
<glyph glyph-name="Cacute" unicode="&#x106;" horiz-adv-x="450" d="M175 611 L20 461 L20 150 L175 0 L430 0 L440 10 L440 131 L430 141 L355 141 L355 470 L430 470 L440 480 L440 601 L430 611 L175 611 Z M238 841 L187 641 L397 641 L448 811 L448 841 L238 841 Z " />
<glyph glyph-name="cacute" unicode="&#x107;" horiz-adv-x="707" d="M145 474 L20 354 L20 120 L145 0 L675 0 L685 10 L685 141 L675 151 L335 151 L335 384 L400 384 L400 206 L410 196 L675 196 L685 206 L685 424 L635 474 L145 474 Z M299 704 L248 504 L458 504 L509 674 L509 704 L299 704 Z " />
<glyph glyph-name="Eogonek" unicode="&#x118;" horiz-adv-x="470" d="M40 611 L30 601 L30 10 L40 0 L230 0 L103 -97 L103 -127 L313 -127 L450 10 L450 141 L440 151 L335 151 L335 237 L430 237 L440 247 L440 378 L430 388 L335 388 L335 460 L440 460 L450 470 L450 601 L440 611 L40 611 Z " />
<glyph glyph-name="eogonek" unicode="&#x119;" horiz-adv-x="725" d="M145 0 L485 0 L358 -97 L358 -127 L568 -127 L705 10 L705 141 L695 151 L335 151 L335 196 L695 196 L705 206 L705 354 L580 474 L145 474 L20 354 L20 120 L145 0 Z M335 384 L400 384 L400 256 L335 256 L335 384 Z " />
<glyph glyph-name="Lslash" unicode="&#x141;" horiz-adv-x="515" d="M90 611 L80 601 L80 372 L10 354 L0 344 L0 174 L10 164 L80 182 L80 10 L90 0 L500 0 L510 10 L510 141 L500 151 L395 151 L395 266 L500 294 L510 304 L510 474 L500 484 L395 456 L395 600 L385 611 L90 611 Z " />
<glyph glyph-name="lslash" unicode="&#x142;" horiz-adv-x="485" d="M100 611 L90 601 L90 375 L15 354 L5 344 L5 174 L15 164 L90 185 L90 10 L100 0 L385 0 L395 10 L395 272 L470 294 L480 304 L480 474 L470 484 L395 462 L395 600 L385 611 L100 611 Z " />
<glyph glyph-name="Nacute" unicode="&#x143;" horiz-adv-x="735" d="M40 611 L30 601 L30 10 L40 0 L325 0 L335 10 L335 375 L400 336 L400 10 L410 0 L695 0 L705 10 L705 600 L695 611 L440 611 L402 501 L245 611 L40 611 Z M288 841 L237 641 L447 641 L498 811 L498 841 L288 841 Z " />
<glyph glyph-name="nacute" unicode="&#x144;" horiz-adv-x="732" d="M35 474 L25 464 L25 10 L35 0 L320 0 L330 10 L330 326 L395 326 L395 10 L405 0 L700 0 L710 10 L710 354 L585 474 L416 474 L327 366 L290 474 L35 474 Z M323 704 L272 504 L482 504 L533 674 L533 704 L323 704 Z " />
<glyph glyph-name="Sacute" unicode="&#x15a;" horiz-adv-x="735" d="M115 611 L20 522 L20 296 L116 206 L400 206 L400 161 L30 161 L20 151 L20 10 L30 0 L620 0 L715 90 L715 266 L620 356 L335 356 L335 516 L400 516 L400 406 L410 396 L695 396 L705 406 L705 571 L665 611 L115 611 Z M288 841 L237 641 L447 641 L498 811 L498 841 L288 841 Z " />
<glyph glyph-name="sacute" unicode="&#x15b;" horiz-adv-x="725" d="M120 474 L25 385 L25 281 L121 191 L395 191 L395 95 L330 95 L330 140 L320 151 L25 151 L15 141 L15 40 L56 0 L615 0 L710 90 L710 193 L615 283 L330 283 L330 379 L395 379 L395 333 L405 323 L690 323 L700 333 L700 434 L660 474 L120 474 Z M287 704 L236 504 L446 504 L497 674 L497 704 L287 704 Z " />
<glyph glyph-name="Zacute" unicode="&#x179;" horiz-adv-x="510" d="M30 611 L20 601 L20 440 L30 430 L176 430 L20 168 L20 10 L30 0 L480 0 L490 10 L490 171 L480 181 L334 181 L490 443 L490 601 L480 611 L30 611 Z M185 841 L134 641 L344 641 L395 811 L395 841 L185 841 Z " />
<glyph glyph-name="zacute" unicode="&#x17a;" horiz-adv-x="500" d="M30 474 L20 464 L20 303 L30 293 L146 293 L20 168 L20 10 L30 0 L470 0 L480 10 L480 171 L470 181 L354 181 L480 306 L480 464 L470 474 L30 474 Z M188 704 L137 504 L347 504 L398 674 L398 704 L188 704 Z " />
<glyph glyph-name="Zdotaccent" unicode="&#x17b;" horiz-adv-x="510" d="M30 611 L20 601 L20 440 L30 430 L176 430 L20 168 L20 10 L30 0 L480 0 L490 10 L490 171 L480 181 L334 181 L490 443 L490 601 L480 611 L30 611 Z M180 841 L127 790 L127 692 L180 641 L329 641 L381 692 L381 790 L329 841 L180 841 Z " />
<glyph glyph-name="zdotaccent" unicode="&#x17c;" horiz-adv-x="500" d="M30 474 L20 464 L20 303 L30 293 L146 293 L20 168 L20 10 L30 0 L470 0 L480 10 L480 171 L470 181 L354 181 L480 306 L480 464 L470 474 L30 474 Z M180 704 L127 653 L127 555 L180 504 L329 504 L381 555 L381 653 L329 704 L180 704 Z " />
<glyph glyph-name="dotaccent" unicode="&#x2d9;" horiz-adv-x="500" d="M175 704 L122 653 L122 555 L175 504 L324 504 L376 555 L376 653 L324 704 L175 704 Z " />
<glyph glyph-name="ogonek" unicode="&#x2db;" horiz-adv-x="400" d="M695 0 L485 0 L358 -97 L358 -127 L568 -127 L695 0 Z " />
<glyph glyph-name="endash" unicode="&#x2013;" horiz-adv-x="595" d="M25 364 L15 354 L15 194 L25 184 L570 184 L580 194 L580 354 L570 364 L25 364 Z " />
<glyph glyph-name="emdash" unicode="&#x2014;" horiz-adv-x="825" d="M25 364 L15 354 L15 194 L25 184 L800 184 L810 194 L810 354 L800 364 L25 364 Z " />
<glyph glyph-name="quoteleft" unicode="&#x2018;" horiz-adv-x="274" d="M211 337 L264 388 L264 486 L211 537 L176 537 L176 654 L166 664 L72 664 L10 486 L10 388 L62 337 L211 337 Z " />
<glyph glyph-name="quoteright" unicode="&#x2019;" horiz-adv-x="274" d="M63 611 L10 560 L10 462 L63 411 L98 411 L98 294 L108 284 L202 284 L264 462 L264 560 L212 611 L63 611 Z " />
<glyph glyph-name="quotesinglbase" unicode="&#x201a;" horiz-adv-x="274" d="M63 200 L10 149 L10 51 L63 0 L98 0 L98 -117 L108 -127 L202 -127 L264 51 L264 149 L212 200 L63 200 Z " />
<glyph glyph-name="quotedblleft" unicode="&#x201c;" horiz-adv-x="548" d="M211 337 L264 388 L264 486 L211 537 L176 537 L176 654 L166 664 L72 664 L10 486 L10 388 L62 337 L211 337 Z M485 337 L538 388 L538 486 L485 537 L450 537 L450 654 L440 664 L346 664 L284 486 L284 388 L336 337 L485 337 Z " />
<glyph glyph-name="quotedblright" unicode="&#x201d;" horiz-adv-x="548" d="M63 611 L10 560 L10 462 L63 411 L98 411 L98 294 L108 284 L202 284 L264 462 L264 560 L212 611 L63 611 Z M337 611 L284 560 L284 462 L337 411 L372 411 L372 294 L382 284 L476 284 L538 462 L538 560 L486 611 L337 611 Z " />
<glyph glyph-name="quotedblbase" unicode="&#x201e;" horiz-adv-x="548" d="M63 200 L10 149 L10 51 L63 0 L98 0 L98 -117 L108 -127 L202 -127 L264 51 L264 149 L212 200 L63 200 Z M337 200 L284 149 L284 51 L337 0 L372 0 L372 -117 L382 -127 L476 -127 L538 51 L538 149 L486 200 L337 200 Z " />
<glyph glyph-name="dagger" unicode="&#x2020;" horiz-adv-x="525" d="M165 651 L155 641 L155 364 L15 364 L5 354 L5 193 L15 183 L155 183 L155 -157 L165 -167 L360 -167 L370 -157 L370 183 L510 183 L520 193 L520 354 L510 364 L370 364 L370 640 L360 651 L165 651 Z " />
<glyph glyph-name="bullet" unicode="&#x2022;" horiz-adv-x="274" d="M63 374 L10 323 L10 225 L63 174 L212 174 L264 225 L264 323 L212 374 L63 374 Z " />
<glyph glyph-name="ellipsis" unicode="&#x2026;" horiz-adv-x="822" d="M63 200 L10 149 L10 51 L63 0 L212 0 L264 51 L264 149 L212 200 L63 200 Z M337 200 L284 149 L284 51 L337 0 L486 0 L538 51 L538 149 L486 200 L337 200 Z M611 200 L558 149 L558 51 L611 0 L760 0 L812 51 L812 149 L760 200 L611 200 Z " />
<glyph glyph-name="guilsinglleft" unicode="&#x2039;" horiz-adv-x="339" d="M324 0 L334 10 L334 108 L212 240 L334 372 L334 464 L324 474 L145 474 L5 304 L5 171 L145 0 L324 0 Z " />
<glyph glyph-name="guilsinglright" unicode="&#x203a;" horiz-adv-x="339" d="M15 474 L5 464 L5 366 L127 234 L5 102 L5 10 L15 0 L194 0 L334 170 L334 303 L194 474 L15 474 Z " />
<glyph glyph-name="franc" unicode="&#x20a3;" horiz-adv-x="500" d="M0 72 L10 62 L75 62 L75 10 L85 0 L370 0 L380 10 L380 62 L455 62 L465 72 L465 142 L455 152 L380 152 L380 202 L475 202 L485 212 L485 343 L475 353 L380 353 L380 460 L485 460 L495 470 L495 601 L485 611 L85 611 L75 601 L75 152 L10 152 L0 142 L0 72 Z " />
<glyph glyph-name="Euro" unicode="&#x20ac;" horiz-adv-x="505" d="M0 339 L10 329 L75 329 L75 284 L10 284 L0 274 L0 204 L10 194 L75 194 L75 140 L230 0 L485 0 L495 10 L495 131 L485 141 L410 141 L410 194 L485 194 L495 204 L495 274 L485 284 L410 284 L410 329 L485 329 L495 339 L495 409 L485 419 L410 419 L410 470 L485 470 L495 480 L495 601 L485 611 L230 611 L75 471 L75 419 L10 419 L0 409 L0 339 Z " />
<glyph glyph-name="uni2117" unicode="&#x2117;" horiz-adv-x="857" d="M209 611 L20 446 L20 103 L209 -62 L648 -62 L837 103 L837 446 L648 611 L209 611 Z M215 503 L623 503 L716 414 L716 255 L615 159 L434 159 L434 57 L426 50 L215 50 L207 57 L207 496 L215 503 Z M434 433 L434 237 L482 237 L482 433 L434 433 Z " />
<glyph glyph-name="uni2120" unicode="&#x2120;" horiz-adv-x="1029" d="M68 611 L10 556 L10 417 L69 362 L244 362 L244 334 L16 334 L10 328 L10 241 L16 235 L379 235 L438 290 L438 399 L379 454 L204 454 L204 553 L244 553 L244 485 L250 479 L425 479 L431 485 L431 586 L407 611 L68 611 Z M827 611 L743 460 L656 611 L475 611 L468 605 L468 241 L475 235 L638 235 L644 241 L644 354 L694 235 L788 235 L839 354 L839 241 L845 235 L1008 235 L1014 241 L1014 604 L1008 611 L827 611 Z " />
<glyph glyph-name="trademark" unicode="&#x2122;" horiz-adv-x="926" d="M723 611 L640 460 L553 611 L371 611 L365 605 L365 241 L371 235 L534 235 L540 241 L540 354 L591 235 L685 235 L735 354 L735 241 L742 235 L905 235 L911 241 L911 604 L905 611 L723 611 Z M11 611 L5 605 L5 518 L11 512 L76 512 L76 241 L82 235 L263 235 L270 241 L270 512 L334 512 L340 518 L340 605 L334 611 L11 611 Z " />
<glyph glyph-name="minus" unicode="&#x2212;" horiz-adv-x="596" d="M25 364 L15 354 L15 194 L25 184 L570 184 L580 194 L580 354 L570 364 L25 364 Z " />
</font>
</svg>
