<?xml version="1.0" encoding="utf-8"?>
<!-- Generator: Adobe Illustrator 19.2.1, SVG Export Plug-In . SVG Version: 6.00 Build 0)  -->
<svg version="1.1" xmlns="http://www.w3.org/2000/svg" xmlns:xlink="http://www.w3.org/1999/xlink" x="0px" y="0px"
	 viewBox="0 0 828.4 663.5" enable-background="new 0 0 828.4 663.5" xml:space="preserve">
<g id="Layer_1">
	<g>
		<g>
			<path fill="#B59D44" d="M152.7,9.4v78.4H152L91.3,20.5v56.7l14,7h-31l9.4-7V9.4l-9.4-7h16.1l54.6,60.8V9.4l-14-7h31L152.7,9.4z"
				/>
			<path fill="#B59D44" d="M251.6,42.9c0,26.6-19.8,42.5-41.2,42.5c-20.9,0-40.7-15.2-40.7-41.8c0-26.6,19.8-42.5,41.2-42.5
				C231.8,1.2,251.6,16.4,251.6,42.9z M238.7,46c0-24.2-13.5-39-30.4-39c-16,0-25.7,13-25.7,33.6c0,24.2,13.5,39,30.4,39
				C229,79.6,238.7,66.6,238.7,46z"/>
			<path fill="#B59D44" d="M335.8,64c-7.4,16.8-20.8,21.4-31.9,21.4c-20.6,0-40.6-15.8-40.6-41.7c0-26.7,21.3-42.6,44.8-42.6
				c5.7,0,12.5,0.9,18.7,3l6.7-3v27.5L318.4,8.4c-3.6-1.1-7.3-1.4-10.5-1.4c-18.6,0-32.3,11.8-32.3,33.9c0,20.6,11.9,35.1,30.7,35.1
				c8.9,0,19.7-3.3,29-12.6L335.8,64z"/>
			<path fill="#B59D44" d="M413,0v23.3L401.7,8.2h-19.1v69l9.4,7h-30.3l9.2-6.9V8.2h-19.1l-11.3,15.1V0l10.3,2.3h52L413,0z"/>
			<path fill="#B59D44" d="M496.7,9.4v39.8c0,24.2-12.6,36.3-32.9,36.3c-19.3,0-35.6-10.9-35.6-35.1v-41l-9.4-7h30.4l-9.4,7v39.8
				c0,20,8.9,29.8,24.6,29.8s24.6-9.8,24.6-29.8V9.4l-14-7h31L496.7,9.4z"/>
			<path fill="#B59D44" d="M590.3,84.2v0.6c-24.6,2.3-30.4-12.4-51.6-43.9c19.2-1.1,24.1-9.1,24.1-17.4c0-9.8-6.9-15.3-18.5-15.3
				h-11.9v69l9.4,7h-30.4l9.4-7V9.4l-9.4-7h34.2c17.4,0,30.2,6.1,30.2,19.8c0,11.1-8.4,19-20.8,22.1C566.3,62.1,576,77.2,590.3,84.2
				z"/>
			<path fill="#B59D44" d="M669.8,9.4v78.4h-0.7l-60.7-67.3v56.7l14,7h-31l9.4-7V9.4l-9.4-7h16.1l54.6,60.8V9.4l-14-7h31L669.8,9.4z
				"/>
			<path fill="#B59D44" d="M749.4,63.3v20.9h-63.2l9.4-7V9.4l-9.4-7h59.7v20.9L734.5,8.2h-27.3v31h20.9l8-10.5v26.9l-8-10.5h-20.9
				v33.3H738L749.4,63.3z"/>
			<path fill="#B59D44" d="M55.6,215.9c-2.9,7.7-6.7,9.9-11.6,9.9c-5.8,0-9.7-3.3-10.9-8.7h-0.6c-3.9,5.5-9.5,8.7-16.7,8.7
				c-9.4,0-15.8-5.1-15.8-13.7c0-6.2,3.4-11,8-13.5h24v-9.8c0-9.1-3.6-12.8-11.7-12.8c-5.5,0-11.2,1.6-17.2,5.9l-0.6-0.6
				c5.6-10.2,15.2-14,23.6-14c10.5,0,16.4,6.1,16.4,17.4v26.4c0,5.5,2.5,6.8,5.6,6.8c2.2,0,4.1-0.6,6.9-2.7L55.6,215.9z M31.9,212.5
				v-9.7H13.7c-1.6,2-2.6,4.4-2.6,7.7c0,6.3,4.1,8.3,8.2,8.3C23.3,218.8,27.4,216.8,31.9,212.5z"/>
			<path fill="#B59D44" d="M118.8,195.2c0,20.1-14.9,30.7-30.3,30.7c-4.3,0-11.2-0.8-15.8-3l-7.1,3v-78.2l-8.2-6.1l18.7-8.2v33.8
				l-1.8,9.9l0.6,0.6c3.4-5.3,10.4-10.4,19.3-10.4C106.1,167.3,118.8,176.6,118.8,195.2z M107.1,197.7c0-13.5-6.3-21.6-16.6-21.6
				c-5,0-10.4,2-14.4,5.7v28.5c0,7,6.6,10.8,13.2,10.8C99.6,221.1,107.1,212.4,107.1,197.7z"/>
			<path fill="#B59D44" d="M176.7,209.4l0.6,0.6c-4.1,12.3-13.2,15.8-21.2,15.8c-14.7,0-26.8-12.3-26.8-29.6
				c0-20,16.1-28.9,28.9-28.9c8.2,0,14.4,2.3,19.1,5.9l-7.4,9.8L157,172c-10.1,0-17.2,7.5-17.2,20.9c0,13,6.7,22.9,19.8,22.9
				C164.3,215.9,169.9,214.6,176.7,209.4z"/>
			<path fill="#B59D44" d="M247.5,220.2l-13.3,5.6l-3.6-10.4h-0.6c-3.4,5.3-10.4,10.4-19.3,10.4c-11.9,0-24.6-9.2-24.6-27.8
				c0-20.1,14.9-30.7,30.3-30.7c3.3,0,8.2,0.5,12.4,1.8v-21.4l-8.2-6.1l18.7-8.2v80.7L247.5,220.2z M228.7,211.3v-28.5
				c0-7-6.6-10.8-13.2-10.8c-10.3,0-17.8,8.8-17.8,23.4c0,13.5,6.3,21.6,16.6,21.6C219.4,217,224.8,215,228.7,211.3z"/>
			<path fill="#B59D44" d="M303.6,209.4l0.6,0.6c-4.1,12.3-13.2,15.8-21.2,15.8c-14.7,0-26.8-12.2-26.8-29.7
				c0-18.6,13.5-28.8,27.5-28.8c11,0,20.6,6.3,21.6,21.6h-38.5c-0.1,1.2-0.1,2.3-0.1,3.6c0,13.6,6.8,23.3,19.8,23.3
				C291.2,215.9,296.8,214.6,303.6,209.4z M267.6,184.9h25.5c0-7.3-3-13.2-11-13.2C275.1,171.6,269.7,176.4,267.6,184.9z"/>
			<path fill="#B59D44" d="M333.4,159.7v8.8h18.7l-3.6,7h-15.1v42.1l14,7h-33.9l9.4-7v-42.1h-11.7l11.7-8.8v-3.5
				c0-21.4,12.4-29.8,25.3-29.8c6.2,0,11.6,1.4,15.7,3.5l-7.6,10.2l-10.4-9C337.5,138.8,333.4,147,333.4,159.7z"/>
			<path fill="#B59D44" d="M408.9,177.3l-14.2-4.8c4.1,3.2,6.7,7.8,6.7,13.6c0,11.7-10.9,18.7-22.6,18.7c-3.7,0-7.4-0.7-10.6-2.1
				c-3.2,2.6-4.7,5.6-4.7,8.3c0,2.8,1.8,4.9,5.1,4.9H399c5.8,2.9,9.9,8.9,9.9,16.3c0,11.9-10.9,21.8-32.1,21.8
				c-17,0-24.7-6.2-24.7-15c0-4.7,2.3-9.6,9.2-13.3c-4.1-2.3-6.3-6.6-6.3-11.2c0-5.9,3.5-10.4,9.1-13.8c-4.8-3.3-8-8.2-8-14.5
				c0-11.7,10.9-18.7,22.6-18.7c3.4,0,6.8,0.6,9.8,1.8l20.2-1.2V177.3z M366.3,225.8c-2.1,2.6-4.1,6-4.1,10.5
				c0,7.7,6.1,12.9,17,12.9c13.3,0,18.6-6.2,18.6-14c0-5.9-2.9-9.4-9.4-9.4H366.3z M390.3,187c0-8.5-5.1-15.3-12.4-15.3
				c-6.8,0-10.5,6.1-10.5,13.5c0,8.5,5.1,15.3,12.4,15.3C386.6,200.4,390.3,194.3,390.3,187z"/>
			<path fill="#B59D44" d="M480.3,224.6H451l9.4-7v-28.8c0-10.3-4.8-12.8-11.6-12.8c-3.7,0-9.7,0.9-15.9,5.7v35.8l9.4,7H413l9.4-7
				v-70l-8.2-6.1l18.7-8.2v33.8l-1.8,9.9l0.6,0.6c5.8-5.9,12.6-10.4,22.7-10.4c8.1,0,16.5,3.7,16.5,16.3v34L480.3,224.6z"/>
			<path fill="#B59D44" d="M514.8,224.6h-29.3l9.4-7v-36l-8.2-6.1l18.7-8.2v50.3L514.8,224.6z M492.6,148.6c0-3.9,3.2-7,7-7
				c3.9,0,7,3.2,7,7s-3.2,7-7,7C495.7,155.6,492.6,152.5,492.6,148.6z"/>
			<path fill="#B59D44" d="M521.2,175.5l18.7-8.2v58.5c-0.1,14.4-5.4,23.1-18.1,29.3l-0.6-0.6c6.2-8,8.2-16.5,8.2-29.8v-43.1
				L521.2,175.5z M527.1,148.6c0-3.9,3.2-7,7-7s7,3.2,7,7s-3.2,7-7,7S527.1,152.5,527.1,148.6z"/>
			<path fill="#B59D44" d="M572.7,217.6l9.4,7h-29.3l9.4-7v-70l-8.2-6.1l18.7-8.2V217.6z M617.8,224.6v0.6
				c-18.4,2.3-23.8-3.7-39.8-30.3l20.6-19.4l-13-7h28.2l-24.8,24C599.9,210.1,605.2,218.1,617.8,224.6z"/>
			<path fill="#B59D44" d="M649.9,224.6h-29.3l9.4-7v-70l-8.2-6.1l18.7-8.2v84.2L649.9,224.6z"/>
			<path fill="#B59D44" d="M755.8,224.6h-29.3l9.4-7v-28.8c0-10.3-3.6-12.8-10.4-12.8c-3.7,0-8.5,0.9-14.7,5.7v35.8l9.4,7h-29.3
				l9.4-7v-28.8c0-10.3-3.6-12.8-10.4-12.8c-3.7,0-8.5,0.9-14.7,5.7v35.8l9.4,7h-29.3l9.4-7v-36l-8.2-6.1l18.7-8.2l-1.8,9.8l0.6,0.6
				c5-5.5,12.1-10.4,21.5-10.4c6.6,0,12.5,2.5,14.5,9.9c5-5.3,11.9-9.9,21.2-9.9c8.1,0,15.3,3.7,15.3,16.3v34L755.8,224.6z"/>
			<path fill="#B59D44" d="M828.4,224.6h-29.3l9.4-7v-28.8c0-10.3-4.8-12.8-11.6-12.8c-3.7,0-9.7,0.9-15.9,5.7v35.8l9.4,7h-29.3
				l9.4-7v-36l-8.2-6.1l18.7-8.2l-1.8,9.8l0.6,0.6c5.8-5.9,12.6-10.4,22.7-10.4c8.1,0,16.5,3.7,16.5,16.3v34L828.4,224.6z"/>
			<path fill="#B59D44" d="M29.9,337c0-18.1,13-29.3,28.7-29.3s28.7,11.1,28.7,29.3s-13,29.3-28.7,29.3S29.9,355.1,29.9,337z
				 M74.7,339.5c0-15.8-8.1-27.1-18-27.1c-10.6,0-14.5,10.4-14.5,22c0,15.8,8.3,27.1,18.3,27.1C71.1,361.5,74.7,351.1,74.7,339.5z"
				/>
			<path fill="#B59D44" d="M113.5,364.5v21.8l13.9,6.9H93.7l9.4-7V322l-8.2-6.1l18.7-8.2l-1.8,9.8l0.6,0.6
				c3.4-5.3,10.4-10.4,19.3-10.4c11.9,0,24.6,9.2,24.6,27.8c0,20.1-14.9,30.7-30.3,30.7C122.7,366.2,117.8,365.7,113.5,364.5z
				 M113.5,322.2v28.5c0,7,6.6,10.8,13.2,10.8c10.3,0,17.8-8.8,17.8-23.4c0-13.5-6.3-21.6-16.6-21.6
				C122.9,316.5,117.5,318.5,113.5,322.2z"/>
			<path fill="#B59D44" d="M209.5,366.3l1.8-9.9l-0.6-0.6c-3.4,5.3-10.4,10.4-19.3,10.4c-11.9,0-24.6-9.2-24.6-27.8
				c0-20.1,14.9-30.7,30.3-30.7c4.3,0,11.2,0.8,15.8,3l7.1-3v73.5l8.2,6.1l-18.7,8.2V366.3z M209.5,351.7v-28.5
				c0-7-6.6-10.8-13.2-10.8c-10.3,0-17.8,8.8-17.8,23.4c0,13.5,6.3,21.6,16.6,21.6C200.1,357.4,205.5,355.4,209.5,351.7z"/>
			<path fill="#B59D44" d="M253.4,323.4V358l14,7h-33.9l9.4-7v-36l-8.2-6.1l18.7-8.2l-2.2,12.5l0.6,0.2c4.2-7.7,12.8-13.9,23.3-11.6
				l-4.1,11.5C263.2,318,256.9,320,253.4,323.4z"/>
			<path fill="#B59D44" d="M323.6,349c0,11-10.4,17.2-20.7,17.2c-4.6,0-9.1-1.2-13-2.8l-7.3,2.8v-19.5l9.2,12.2
				c3.5,1.8,7,2.7,10.3,2.7c6.8,0,10.2-4,10.2-8.9c0-14.5-29.7-10.6-29.7-28.8c0-11.2,11.3-16.1,21.1-16.1c4.1,0,8,0.9,11.5,2.3
				l6.1-2.3v19.5l-10.3-13.7c-2.1-0.7-4.4-1.2-6.8-1.2c-7.7,0-11,4.3-11,8.7C293.1,334.2,323.6,330.2,323.6,349z"/>
			<path fill="#B59D44" d="M376.8,351l0.6,0.6c-2.9,10.5-9.9,14.6-17.4,14.6c-10.3,0-16.6-8-16.6-17v-33.3h-12.8l23.3-17.4v10.4
				h24.6l-3.6,7h-20.9v28.7c0,5.4,1.3,11.7,9.9,11.7C368,356.3,372,354.7,376.8,351z"/>
			<path fill="#B59D44" d="M446.3,360.6l-13.3,5.6l-3.6-10.4h-0.6c-3.5,3.5-12.6,10.4-22.7,10.4c-6.9,0-15.3-3.7-15.3-16.3v-28
				l-8.2-6.1l18.7-8.2v37c0,10.3,4.8,12.8,10.4,12.8c3.7,0,9.7-0.9,15.9-5.7V322l-8.2-6.1l18.7-8.2v46.8L446.3,360.6z"/>
			<path fill="#B59D44" d="M505.4,315.9L483,368.6h-0.7l-27.1-53.9l-7.7-5.7h30.1l-9.4,7l16.4,33.3l13.8-33.3l-10.3-7h26.7
				L505.4,315.9z"/>
			<path fill="#B59D44" d="M602.5,315.9l-20,52.7h-0.7L563.4,329l-18.6,39.5h-0.7l-24.5-54.3l-7.3-5.4h29.7l-9.4,7l14.6,32.8
				l12.5-27.1l-5.9-12.6h18.6l-3.2,7l14.5,31.6l11.5-31.6l-10.3-7h26.7L602.5,315.9z"/>
			<path fill="#B59D44" d="M674.4,365h-31.2l9.4-7l-12.2-15.6L627.9,358l10.3,7h-27.5l9.4-7l16.5-20.4l-17.7-22.6l-8.2-6.2H642
				l-9.4,7l11.7,15l11.8-15l-10.3-7h27.3l-9.4,7l-15.7,19.8l18.4,23.4L674.4,365z"/>
			<path fill="#B59D44" d="M700.5,383.8l16,9.4h-28.4l16.5-34.5l-23.3-43.8l-8.1-6h30.1l-9.4,7l16.3,31l13.3-31l-10.3-7H740l-9.4,7
				L700.5,383.8z"/>
			<path fill="#B59D44" d="M785.4,359.8l11.3-15.1V365h-55l38.7-50.9h-22.6l-11.3,15.1v-22.7l10.3,2.3h40.5l-38.6,50.9H785.4z"/>
			<path fill="#B59D44" d="M132.6,505.4H83.5l18.7-7v-60.7l-17.4-6.6l29.1-9.9v77.2L132.6,505.4z"/>
			<path fill="#B59D44" d="M197,484.5v20.9h-56.2c34.6-32.2,42.5-46.5,42.5-58.2c0-9.9-5.7-15-15.2-15c-9,0-17.2,4.4-23,14.6
				l-0.6-0.6c3.9-15.8,14.4-24,28.7-24c14.2,0,21.9,8.1,21.9,20.5c0,16.4-13.6,31.6-34.4,52.1h28.5L197,484.5z"/>
			<path fill="#B59D44" d="M261.7,478.1c0,18-18.1,28.5-34.9,28.5c-7.7,0-13.7-2.2-18.1-5.6l7-9.4l12.3,9.1
				c12.2,0,23.2-8.1,23.2-19.8c0-7.8-4.9-15.1-15.1-18.1c-3,1.4-6.3,2.7-10.1,4l-1.8-4.7c16.5-6.3,19.8-12.9,19.8-19.1
				c0-6.7-3.7-11.3-12.1-11.3c-6.1,0-14.5,2.5-22.7,11.7l-0.6-0.6c6.3-13.7,15.1-20.5,27.4-20.5c13.3,0,19.7,8,19.7,17.5
				c0,6.2-2.6,11.5-8.3,16.1C255.8,460.4,261.7,467.7,261.7,478.1z"/>
			<path fill="#B59D44" d="M324.5,484.7v13.7l9.4,7h-33.9l14-7v-13.7H278l-4.7-3.9l40.6-57.3l10.5-2.3v54.2h13.2l-1.9,9.4H324.5z
				 M314,475.4v-41.7l-29.4,41.7H314z"/>
			<path fill="#B59D44" d="M400.9,477.7c0,20-19.7,28.9-35.9,28.9c-8.2,0-14.4-2.3-19.1-5.9l7.4-9.8l12.9,9.8
				c12.4,0,24.2-6.7,24.2-20.1c0-11.9-9.4-21.1-37.2-23.4l6.9-33.7h40.4l-2.2,10.5h-33.3l-2.8,13.6
				C388.3,450,400.9,461.6,400.9,477.7z"/>
			<path fill="#B59D44" d="M471.1,481.8c0,14.3-10.6,24.8-27,24.8c-16.1,0-29.1-10.2-29.1-32.4c0-26.2,18.3-48.7,49.4-55.3l1.8,4.7
				c-25.7,7.4-38.8,22.8-38.8,48.6c0,22,9.6,28.7,17.6,28.7c9.4,0,14-9.5,14-19.1c0-14.7-10.8-19.7-24.8-15.6l-1.8-4.7
				C451.9,453.4,471.1,462.7,471.1,481.8z"/>
			<path fill="#B59D44" d="M538.4,423.5c-19,31.9-27.6,54.2-27.6,81.9h-12.3c1.8-27.7,15.3-51.1,27.6-71.4h-36.6l-9.6,12.8v-23.3
				H538.4z"/>
			<path fill="#B59D44" d="M603.9,483c0,15.7-13.2,23.6-28.4,23.6c-14.9,0-27.7-7-27.7-20.9c0-10.6,7.3-17.8,16.6-22.7
				c-7.5-3.7-13.7-8.8-13.7-19c0-14.2,11.9-21.6,25.6-21.6c14,0,24.7,7.5,24.7,19.5c0,9.2-6.2,15.2-14.5,19
				C595.6,465.1,603.9,470.7,603.9,483z M591.6,484.8c0-11.3-10.5-15-20.9-19.2c-8.4,5.3-11.2,11.3-11.2,18c0,8.4,5,17.1,16.7,17.1
				C587,500.8,591.6,491.9,591.6,484.8z M562.4,441.8c0,8.7,8,12.3,17,16c7.3-3.7,10.5-9.7,10.5-15.7c0-6.1-3.4-13.9-13.9-13.9
				C565.3,428.2,562.4,436.3,562.4,441.8z"/>
			<path fill="#B59D44" d="M616.2,448.6c0-14.6,11.7-26.2,28.4-26.2c15.8,0,27.7,10.2,27.7,32.4c0,26.2-18.3,48.7-49.4,55.3
				l-1.8-4.7c25.7-7.4,38.8-22.8,38.8-48.6c0-22-8.4-28.7-16.4-28.7c-9.4,0-15,9.4-15,19.4c0,15.1,10.2,20.6,24.6,16.4l1.8,4.7
				C635.5,476.8,616.2,468.5,616.2,448.6z"/>
			<path fill="#B59D44" d="M741.4,464.5c0,26.6-12.8,42.1-28.7,42.1c-15.9,0-28.7-15.6-28.7-42.1s12.8-42.1,28.7-42.1
				C728.6,422.4,741.4,437.9,741.4,464.5z M728.5,464.5c0-22.3-4.6-36.3-15.8-36.3s-15.8,13.9-15.8,36.3s4.6,36.3,15.8,36.3
				S728.5,486.8,728.5,464.5z"/>
			<path fill="#B59D44" d="M127.7,640c0-3.9,3.2-7,7-7s7,3.2,7,7c0,3.9-3.2,7-7,7S127.7,643.9,127.7,640z M137.1,620.1h-4.7l-3.5-62
				h11.7L137.1,620.1z"/>
			<path fill="#B59D44" d="M254.4,608.3c0,18.1-10.5,34.5-25.6,34.5c-5.5,0-13.8-2.2-12.5-13l0.9-7.6h-0.5
				c-4,11-11.6,20.6-21.6,20.6c-7.1,0-12.8-4.8-12.8-15c0-14.6,11.5-37.7,46.5-34.2l-4,35c-0.8,7.1,2.1,9.2,5.6,9.2
				c8.9,0,18.5-13,18.5-29.3c0-19.3-13.5-31.5-34.3-31.5c-25.4,0-48.3,18-48.3,45.5c0,29.6,26.7,40.2,55.2,35.5l-0.4,4.1
				c-28.7,5.3-60.7-5.1-60.7-39.1c0-31.1,25.9-51,54.6-51C239.8,572.1,254.4,586.9,254.4,608.3z M220.5,598.6
				c-16.8-0.2-28,11.3-28,27.3c0,5.4,1.3,8.8,5.1,8.8C205.3,634.6,216.3,621.2,220.5,598.6z"/>
			<path fill="#B59D44" d="M318.4,589.7l-2.7,30.4h12.9l-0.5,5.9h-12.9l-1.8,19.9h-7.6l1.8-19.9h-25.2l-1.8,19.9h-7.6l1.8-19.9H262
				l0.5-5.9h12.9l2.7-30.4h-12.9l0.5-5.8h12.9l1.8-19.9h7.6l-1.8,19.9h25.2l1.8-19.9h7.6l-1.8,19.9h12.9l-0.5,5.8H318.4z
				 M310.8,589.7h-25.2l-2.7,30.4h25.2L310.8,589.7z"/>
			<path fill="#B59D44" d="M397.9,624.5c0,14.2-11.8,22.5-27.7,22.5h-1.1l-0.8,9.5l-5.8-0.6l0.8-9.4c-7.1-1.1-13.3-3.6-19.2-6.7
				v-18.6l7.8,14c4,2.7,7.8,4.3,11.8,5.3l2.9-33.1c-10.9-4.4-22.1-9.1-22.1-23.3c0-12.5,10.3-21.1,26-21.4l0.8-9.5l5.9,0.6l-0.8,9.1
				c5.9,0.7,11.2,2.6,17.3,5.7v19.7l-9-16.4c-3-1.6-5.9-2.6-8.8-3l-2.6,29.6C384.9,603.3,397.9,608.5,397.9,624.5z M367.6,596.2
				l2.5-27.5c-12.1,0.7-15,8.8-15,14C355,589.6,360.5,593.2,367.6,596.2z M386.7,626.8c0-9.1-6.6-13.5-14.4-17l-2.8,31.4h0.2
				C383.8,641.2,386.7,632.9,386.7,626.8z"/>
			<path fill="#B59D44" d="M430.1,610.3c-11.8,0-20.6-10.6-20.6-23.8s8.8-23.8,20.6-23.8s20.6,10.6,20.6,23.8S442,610.3,430.1,610.3
				z M440.2,586.5c0-10.3-2.6-19.1-10.1-19.1s-10.1,8.8-10.1,19.1c0,10.3,2.6,19.1,10.1,19.1S440.2,596.8,440.2,586.5z M480.9,563.9
				L439,645.8h-7l41.9-81.9H480.9z M503.4,623.3c0,13.1-8.8,23.8-20.6,23.8c-11.8,0-20.6-10.6-20.6-23.8c0-13.1,8.8-23.8,20.6-23.8
				C494.6,599.5,503.4,610.2,503.4,623.3z M492.9,623.3c0-10.3-2.6-19.1-10.1-19.1s-10.1,8.8-10.1,19.1c0,10.3,2.6,19.1,10.1,19.1
				S492.9,633.6,492.9,623.3z"/>
			<path fill="#B59D44" d="M563.9,604.9l-21.8-34.5l-21.8,34.5h-7l28.9-45.4l-0.1-0.2l28.8,45.6H563.9z"/>
			<path fill="#B59D44" d="M669.8,645.8v1.2c-14,2.1-21.1,1.4-32.6-8.3c-6.7,5.5-15.2,8.3-24.6,8.3c-16.8,0-32.3-9.1-32.3-26.7
				c0-11.7,6.8-20.2,17.1-26.8c-2.3-4.8-3.6-9.6-3.6-14.7c0-13.9,10.8-23,25.6-23c4.7,0,9.7,1.2,14.7,3.5l6.8-3.5v25.6L627.2,563
				c-2.5-1.1-4.7-1.4-7.5-1.4c-9.6,0-14.9,4.4-14.9,14.5c0,12.4,9.5,22.2,20.8,33.9c5.9,6,10.4,10.8,14.4,14.6
				c3.4-5.4,5.3-12.6,4.9-21.9l-16.8-8.4h31.1l-8.5,8.3c0.5,10.9-1.8,19.9-5.9,26.9C655.4,639.9,659.3,642.2,669.8,645.8z
				 M631.2,633.3c-4.1-4-8.9-8.9-14.6-15c-6.9-7.3-12.8-13.9-16.8-20.6c-7,6.4-9.5,13-9.5,19.3c0,12.6,9.9,20.6,24.3,20.6
				C620.5,637.7,626.4,636.2,631.2,633.3z"/>
			<path fill="#B59D44" d="M672.3,586.6l13.1-12.6l-19.8-2.5l4.9-8.5l16,8.4l-3.7-20l9.5,2.1l-3.4,17.9l17.8-9.1l0.9,9.7l-17.6,2
				l14.3,14.3l-8.9,4l-7.7-16.6L679,594L672.3,586.6z"/>
		</g>
	</g>
</g>
<g id="Layer_2">
</g>
</svg>
