<?xml version="1.0" encoding="utf-8"?>
<!-- Generator: Adobe Illustrator 19.2.1, SVG Export Plug-In . SVG Version: 6.00 Build 0)  -->
<svg version="1.1" xmlns="http://www.w3.org/2000/svg" xmlns:xlink="http://www.w3.org/1999/xlink" x="0px" y="0px"
	 viewBox="0 0 1453.5 245.8" enable-background="new 0 0 1453.5 245.8" xml:space="preserve">
<g id="Layer_1">
	<g>
		<g>
			<path fill="#FCE7E0" d="M25.7,75.7c9.5,6.4,23.6,17.3,38.5,18.6c0,3.8-3.2,5.3-6.4,5.3c-14.4,0-26.6-11.2-36.6-18.8
				C13,90.1,7.1,96.6,6.6,96.6c-4.1,0-6.6-4.2-6.6-7.9c0-19.8,20.3-84,21.2-84c3.1,0,6.7,1.4,6.7,5.4c0,3.4-22,64.7-22,79.2
				c0.1,0,4.1-4.8,10.1-12.1c-1.4-1-2.8-1.7-4.1-2.3c0-1.8,1.6-3.8,4.2-3.8c1.1,0,2.3,0.5,3.8,1.2c15.8-19.7,41-51.5,52.2-68.5
				c3,0,4.7,3,4.7,5.8C76.9,14.6,46.4,51.6,25.7,75.7z"/>
			<path fill="#FCE7E0" d="M155.5,52.8c-1,2.9-28.1,43.8-34,43.8c-8.4,0-12.6-5.8-12.6-15.7c0-2.3,0.4-5.4,0.8-8.9
				c-6.5,11.9-14.4,25.7-16.1,25.7c-7.6,0-15.7-7.6-15.7-18.6c0-4.4,0.5-8.6,1.3-12.2c-5.4-1.4-9.2-5.6-9.2-15.1
				c0-11.9,13.8-27.1,35.5-27.1c23.5,0,16,19.6,14.3,26c1.9,0.8,3.4,2.2,3.4,3.4c0,1.7-7.8,15.5-7.8,31.8c0,5,3.1,6.4,5,6.4
				s32.6-43.6,32.6-43.6C154.9,48.6,156.5,49.9,155.5,52.8z M80.8,61.3c2.5-7.9,5.9-12.7,5.9-12.7c2.5,0,7.1,1.9,7.1,4.6
				c0,0.5-1.8,4-3.8,8.5c9.2-2,20.8-8.9,24.1-10.7c0.4-2.4,8.6-21.5-4.4-21.5C90.7,29.5,77.2,43,77.2,54
				C77.2,58,78.6,60.2,80.8,61.3z M112.7,56.9c-5.2,3.2-15.7,8.8-25,10.1c-1.7,4.4-3.1,9.4-3.1,13.4c0,10.8,7.3,12.1,7.4,12.1
				C92.8,92.5,107.6,65.9,112.7,56.9z"/>
			<path fill="#FCE7E0" d="M230.6,51.6c0,2.3-29,44.9-34.6,44.9C184,96.5,180,84,180,69.5c0-13.1,2.5-24,4.3-32.6
				c-8.4,13.4-36,59.6-36,59.8c-2.3,0-5.5-0.8-5.5-5.4c0-15.7,8.2-49,10.2-54.6c2.5,0,7.2,1.3,7.2,4.8c0,1.6-8.3,23.6-11,43.7
				c8.4-14.5,32-58.1,36.8-59.6c0.1,0,0.1,0,0.2,0c3.4,0.1,7.4,2.3,7.4,6c0,8.6-5.9,28.1-5.9,43.4c0,7.7,1.7,16.7,6.8,16.7
				c2.5,0,33-43,33-43C229.2,48.6,230.6,48.8,230.6,51.6z"/>
			<path fill="#FCE7E0" d="M296.3,52.8c-1,2.9-28.1,43.8-34,43.8c-8.4,0-12.6-5.8-12.6-15.7c0-2.3,0.4-5.4,0.8-8.9
				c-6.5,11.9-14.4,25.7-16.1,25.7c-7.6,0-15.7-7.6-15.7-18.6c0-4.4,0.5-8.6,1.3-12.2c-5.4-1.4-9.2-5.6-9.2-15.1
				c0-11.9,13.8-27.1,35.5-27.1c23.5,0,16,19.6,14.3,26c1.9,0.8,3.4,2.2,3.4,3.4c0,1.7-7.8,15.5-7.8,31.8c0,5,3.1,6.4,5,6.4
				s32.6-43.6,32.6-43.6C295.7,48.6,297.2,49.9,296.3,52.8z M221.5,61.3c2.5-7.9,5.9-12.7,5.9-12.7c2.5,0,7.1,1.9,7.1,4.6
				c0,0.5-1.8,4-3.8,8.5c9.2-2,20.8-8.9,24.1-10.7c0.4-2.4,8.6-21.5-4.4-21.5c-18.8,0-32.4,13.4-32.4,24.5
				C217.9,58,219.4,60.2,221.5,61.3z M253.4,56.9c-5.2,3.2-15.7,8.8-25,10.1c-1.7,4.4-3.1,9.4-3.1,13.4c0,10.8,7.3,12.1,7.4,12.1
				C233.5,92.5,248.4,65.9,253.4,56.9z"/>
			<path fill="#FCE7E0" d="M372.2,52.4c-12.1,0.8-23.5,3-33.4,6.2c-6.2,19.2-22.4,38.2-28.6,38.2c-5.3,0-11-5.4-11-12.8
				c0-11.4,14.5-21.6,32-28.1c1.6-5.2,2.6-10.2,2.6-14.8c0-6.7-3.6-11.2-8-11.2c-1.9,0-20.2,14.8-33.8,54.5c-4.3,16.9-7.8,33-6.8,39
				c-3.5,0-6-2.2-6-6.7c0-19.7,18.7-87.2,19.7-87.4c3.1-0.5,7.3,1.2,7.1,4.7c-0.1,1.2-4.8,12.4-8.9,26.4
				c11.5-24.6,23-35.6,28.6-35.6c9.5,0,15.2,8.2,15.6,18.8c0.1,3-0.2,6.1-1,9.4c10-2.9,20-4.4,28.7-4.4
				C370.8,48.6,373.2,50.2,372.2,52.4z M328.9,62.5c-14.4,6.4-23.5,14.9-23.5,23.3c0,3,1.8,6.2,3.5,6.2
				C312.4,92,322.7,77.9,328.9,62.5z"/>
			<path fill="#FCE7E0" d="M441.7,52.6c-1,3.8-21.2,45.2-35,45.2c-11.4,0-20.6-14.8-22.6-27.2c-9,13.8-16.3,26-17.4,26
				c-4.1,0-6.6-4.2-6.6-7.9c0-19.8,20.3-84,21.2-84c3.1,0,6.7,1.4,6.7,5.4c0,3.4-22,64.7-22,79.2c0.2,0,6.7-11.8,17.5-27.1
				c1.4-11.2,12.5-31.6,18.1-31.6c4.6,0,6.6,4.3,6.6,5.6c0,0.6-10.3,14.3-17.6,24.2c-0.2,0.5-0.5,0.8-0.8,1.3
				c1.2,13.8,8.2,31.4,15.5,31.4c9.8,0,33.6-44.8,33.6-44.8C440.5,48.5,442.4,49.6,441.7,52.6z"/>
			<path fill="#FCE7E0" d="M477.6,53c-1.4,3.1-28.4,43.6-34.3,43.7c-6,0-13.6-4-13.6-16.6c0-11.2,3.4-25.3,6.1-34.4
				c1.6-5.8,3.5-11,4.7-10.8c2.5,0.4,7.1,3.5,6.4,7.9c-0.4,2.3-1.8,5.4-3.7,8.6c-2.9,8.9-6.6,21.8-6.6,32.3c0,7,4.2,8.4,5.6,8.4
				c1.9,0,33.2-43.6,33.2-43.6C476.5,48.6,478.6,51,477.6,53z M433.2,18.4c0.8-6.6,17.4-10.9,20.6-7.7c0.7,0.7,1.2,1.6,1.3,2.3
				c1,1.1,1.9,3,1.6,4.2c-2.5,8.5-16.9,10.2-20,8.2C434,23.6,432.8,19.9,433.2,18.4z M438.7,20.6c0,1.3,10.2-1.4,14.2-5.8
				C447.8,13.9,438.7,17.4,438.7,20.6z"/>
			<path fill="#FCE7E0" d="M573.5,88.9c-2,4.4-7.8,8.5-16.1,8.5c-14.4,0-21.4-8.3-30.5-11c-0.4,0.2-0.6,0.6-1,0.8h-0.1
				c-4.3,4.7-8.3,9.4-9.1,9.4c-2.9,0-6.6-3.5-6.6-7.9c0-2.6,5.3-8.4,15.5-8.8c8-8.4,18.6-20,26-28.4c-10.4,2-20.3,1.2-27.2-3.5
				l-8.2,11.8c-1,0-2.5-4.6,0.2-8.6c1.4-2.2,2.9-4.3,4.1-6.2c-4-4.2-6.4-10.3-6.4-18.5c0-10.2,7.8-16.3,13.2-16.3c4.7,0,9,5,9,10.4
				c0,7.9-2.6,13.4-8.2,21.8c7.2,4.9,18,5.5,27.1,3c4.6-6.5,12.8-17.6,14.6-16.6c2.4,1.4,5.5,6.2,3.1,10.3
				c-1.8,3.1-7.2,7.2-11.9,10.6c-7.1,8.2-19.3,22-29.5,32c7.9,2.6,16,9.6,25,9.6c8,0,13.4-4.3,15.2-7
				C574.2,86.4,574.2,87.4,573.5,88.9z M524.3,38.8c4.4-7.3,7-13.4,7-19.1c0-3.5-0.7-4.4-2.6-4.4c-4.1,0-8,5.3-8,12.1
				C520.6,32,522,35.9,524.3,38.8z"/>
			<path fill="#FCE7E0" d="M719.6,51.6c0,2.3-29,44.9-34.6,44.9c-12.1,0-16.1-12.5-16.1-27c0-13.1,2.5-23.9,4.3-32.5
				C662,54.8,637,96.6,637,96.6c-1.3,0-6-2.2-6-7.9C631,68.9,653,0,654,0c3.1,0,7,1.4,7,5.4c0,3.2-22.9,65-24.1,81.7
				c7.7-12.5,34.2-61.7,38.2-61.7c3.4,0,7.7,2.2,7.7,6c0,8.6-5.9,28.1-5.9,43.4c0,7.7,1.7,16.7,6.8,16.7c2.5,0,33-43,33-43
				C718.2,48.6,719.6,48.8,719.6,51.6z"/>
			<path fill="#FCE7E0" d="M785.5,52.8c-1,2.9-28.1,43.8-34,43.8c-8.4,0-12.6-5.8-12.6-15.7c0-2.3,0.4-5.4,0.8-8.9
				c-6.5,11.9-14.4,25.7-16.1,25.7c-7.6,0-15.7-7.6-15.7-18.6c0-4.4,0.5-8.6,1.3-12.2c-5.4-1.4-9.2-5.6-9.2-15.1
				c0-11.9,13.8-27.1,35.5-27.1c23.5,0,16,19.6,14.3,26c1.9,0.8,3.4,2.2,3.4,3.4c0,1.7-7.8,15.5-7.8,31.8c0,5,3.1,6.4,5,6.4
				s32.6-43.6,32.6-43.6C784.9,48.6,786.5,49.9,785.5,52.8z M710.7,61.3c2.5-7.9,5.9-12.7,5.9-12.7c2.5,0,7.1,1.9,7.1,4.6
				c0,0.5-1.8,4-3.8,8.5c9.2-2,20.8-8.9,24.1-10.7c0.4-2.4,8.6-21.5-4.4-21.5c-18.8,0-32.4,13.4-32.4,24.5
				C707.1,58,708.6,60.2,710.7,61.3z M742.7,56.9c-5.2,3.2-15.7,8.8-25,10.1c-1.7,4.4-3.1,9.4-3.1,13.4c0,10.8,7.3,12.1,7.4,12.1
				C722.7,92.5,737.6,65.9,742.7,56.9z"/>
			<path fill="#FCE7E0" d="M793.9,86.6c1.4,2.5-0.8,4.1-3.8,5.2c-2.3,0.8-4.9,1.7-7.9,2.8c-4.2,20.4-9.5,39-14.3,39
				c-8.2,0-16.3-6.7-16.3-16.3c0-12.5,12-20.4,23.3-25c3.4-18.7,6.4-39.8,8.2-49.9c0.6-4.4,1.4-7.9,2.5-7.9c2.5,0,7.6,2.4,7.6,6.8
				c0,2.9-1.7,7.6-3.6,11.9c-1.3,9.4-3.6,22.8-6.2,36.1C788.4,87.7,792.5,86.9,793.9,86.6z M773.7,97.9
				c-8.4,4.1-16.1,10.2-16.1,20.5c0,4.6,4.4,9.6,7.2,9.6C767.5,128,770.7,114.6,773.7,97.9z M800,17.2c-1.8,6.4-10.4,9-16,9
				c-1.8,0-3.4-0.4-4.1-0.8c-2.6-1.7-3.8-5.4-3.5-7c0.6-5,10.6-8.8,16.6-8.8c1.8,0,3.4,0.4,4.1,1.1c0.7,0.7,1.2,1.6,1.3,2.3
				C799.4,13.9,800.4,16,800,17.2z M796.2,15c-0.6-0.2-1.3-0.2-2-0.2c-5,0-12.1,3-12.1,5.9C782,22,792.1,19.3,796.2,15z"/>
			<path fill="#FCE7E0" d="M832.9,71.2c3.5,3.8,5.9,7.8,5.9,11.9c0,10.1-10.3,18.1-18.4,18.1c-6.6,0-12.1-4.4-12.1-12.4
				c0-6.5,5.9-12.6,14-18c-7.4-7.8-16.8-15.8-16.8-25c0-9.7,8.3-22.1,27.4-22.1c6.5,0,14.8,2.6,17.5,10c2.3-4.9,4.7-9,5.3-9
				c2.6,0,3.6,2.4,3.6,4.6c0,2.6-9,23.5-10.3,22.7c-1.3,0-2.8-1.1-2.8-4.9c0-1.1,0.4-2.6,0.8-4.4c0-1,0.1-2.2,0.1-3.6
				c0-6-6.2-8.8-13.6-8.8c-14.9,0-22.3,8.4-22.3,14.6c0,7.3,9.6,14.5,17.4,22.1c19.7-10.9,46.4-18.4,46.9-18.4
				c1.8,0,2.3,0.7,2.3,2.8C877.8,52.3,851.9,60.4,832.9,71.2z M826.4,75.1c-7.8,5.3-13.3,11-13.3,16.9c0,4.2,4.4,4.6,6.2,4.6
				c4.2,0,12.2-5.8,12.2-10.9C831.6,82.2,829.4,78.7,826.4,75.1z"/>
			<path fill="#FCE7E0" d="M936.3,51.5c0,2.5-26.6,46.3-51.4,46.3c-8.9,0-19.3-9.1-19.3-25.3c0-21.7,17-47.8,27-47.8
				c10.8,0,17.6,4.9,17.6,14.8c0,17.2-17.8,32-36.6,33.5c-0.1,1.1-0.1,2.2-0.1,3.2c0.1,12.1,8.3,16.7,10.9,16.7
				c20.2,0,48.7-44.3,49.2-44.3C934.8,48.6,936.3,49.6,936.3,51.5z M874.2,67.8c17-3.8,29.4-18.5,29.4-29.9c0-7-4.1-8.6-7.7-8.6
				C892.4,29.3,877.5,47,874.2,67.8z"/>
			<path fill="#FCE7E0" d="M1032.2,51.6c0,4.7-29.6,46.2-35.2,46.2c-12.1,0-14.9-12.5-14.9-20.8c0-15,2.8-26.3,5-34.9
				c-10.6,19-28.7,55.7-29.5,55.7c-4.6,0-5.9-3.6-5.9-9.5c0-16.3,3.8-36.4,6.8-49.6c-10.1,19.3-20.2,38.6-30.2,57.8
				c-2.3,0-6.1-0.8-6.1-5.4c0-15.7,8.2-49,10.2-54.6c2.5,0,7.8,1.3,7.8,4.8c0,1.6-8,22.9-10.8,42.6c8.4-16.9,29.8-59.3,32.8-59.3
				c1.8,0,7.7,2.2,7.7,6.1c0,3.8-10.3,30.5-12,55.3c12.7-26,30.6-59,32.6-59.4c3.4,0,7.7,2.2,7.7,6c0,8.6-8.3,28.1-8.3,49.7
				c0,1.4,0.5,10.4,5.6,10.4c2.5,0,33.6-44.3,33.6-44.3C1030.8,48.6,1032.2,48.8,1032.2,51.6z"/>
			<path fill="#FCE7E0" d="M1058.4,95.9c0-2.5,3.6-10.4,6.6-10.4c2.2,0,4.9,3.1,4.9,5.4c0,5.3-4.6,10.9-7.1,10.9
				C1060.8,101.8,1058.4,99.1,1058.4,95.9z"/>
			<path fill="#FCE7E0" d="M1076.6,95.9c0-2.5,3.6-10.4,6.6-10.4c2.2,0,4.9,3.1,4.9,5.4c0,5.3-4.6,10.9-7.1,10.9
				C1079,101.8,1076.6,99.1,1076.6,95.9z"/>
			<path fill="#FCE7E0" d="M1094.9,95.9c0-2.5,3.6-10.4,6.6-10.4c2.2,0,4.9,3.1,4.9,5.4c0,5.3-4.6,10.9-7.1,10.9
				C1097.3,101.8,1094.9,99.1,1094.9,95.9z"/>
			<path fill="#FCE7E0" d="M1113.1,95.9c0-2.5,3.6-10.4,6.6-10.4c2.2,0,4.9,3.1,4.9,5.4c0,5.3-4.6,10.9-7.1,10.9
				C1115.5,101.8,1113.1,99.1,1113.1,95.9z"/>
			<path fill="#FCE7E0" d="M1131.3,95.9c0-2.5,3.6-10.4,6.6-10.4c2.2,0,4.9,3.1,4.9,5.4c0,5.3-4.6,10.9-7.1,10.9
				C1133.7,101.8,1131.3,99.1,1131.3,95.9z"/>
			<path fill="#FCE7E0" d="M1149.6,95.9c0-2.5,3.6-10.4,6.6-10.4c2.2,0,4.9,3.1,4.9,5.4c0,5.3-4.6,10.9-7.1,10.9
				C1152,101.8,1149.6,99.1,1149.6,95.9z"/>
			<path fill="#FCE7E0" d="M1167.8,95.9c0-2.5,3.6-10.4,6.6-10.4c2.2,0,4.9,3.1,4.9,5.4c0,5.3-4.6,10.9-7.1,10.9
				C1170.2,101.8,1167.8,99.1,1167.8,95.9z"/>
			<path fill="#FCE7E0" d="M1186.1,95.9c0-2.5,3.6-10.4,6.6-10.4c2.2,0,4.9,3.1,4.9,5.4c0,5.3-4.6,10.9-7.1,10.9
				C1188.5,101.8,1186.1,99.1,1186.1,95.9z"/>
			<path fill="#FCE7E0" d="M1204.3,95.9c0-2.5,3.6-10.4,6.6-10.4c2.2,0,4.9,3.1,4.9,5.4c0,5.3-4.6,10.9-7.1,10.9
				C1206.7,101.8,1204.3,99.1,1204.3,95.9z"/>
			<path fill="#FCE7E0" d="M1306.2,37.3c-4.8,11.6-11.4,30-13.1,51.6c6.5-1.1,13-1.8,17.2-1.8c5.4,0,5.8,3.1,5.8,4.1
				c0,0-37.9,6.6-41.9,6.5s-5.6-1.6-5.5-4.7c2.5-0.4,10.4-1.9,19.1-3.2v-1c0.6-18.1,6-35.2,11.5-48c-6.8,7.8-15.5,15.1-21.2,16
				c-3.5,0.5-5.2-1.1-5.4-2.8c9.1-4.1,22.2-15,30.4-23.5c3.1-7.3,8.8-19.3,10.7-18.7c2.5,0.8,6.6,4.9,5.2,9.5
				C1317.2,25.7,1310.5,32.8,1306.2,37.3z"/>
			<path fill="#FCE7E0" d="M1320,68.8c0-28.8,16.3-56.2,38.9-56.2c9,0,18.4,8.4,18.4,23.2c0,33.5-20.5,60.8-38.9,60.8
				C1324.8,96.6,1320,80.9,1320,68.8z M1370.4,31.7c0-7.8-2.8-14-9.5-14c-15.8,0-33.5,25.7-33.5,54.6c0,9.1,2.5,19.2,8,19.2
				C1351.7,91.4,1370.4,60.4,1370.4,31.7z"/>
			<path fill="#FCE7E0" d="M1416.1,34c0,11.3-10.4,24.1-21.1,24.1c-10.4,0-12.9-6.9-12.9-9.9c0-3.6,1-4.9,3.2-4.9
				c0,4.9,1.8,11.8,8.6,11.8c11.6,0,18.6-15.9,18.6-24.5c0-3.6-2.1-7.3-5.8-7.3c-11.1,0-16.7,12-18.1,12c-1.8,0-2.1-2-2.1-3.1
				c0-0.7,2.8-10.1,5-17.3c-1.3-0.5-2.3-1.6-2.2-2.4c0.6-0.1,1.7-0.3,3.2-0.6c0.9-2.9,1.6-4.9,1.7-4.9c2,0,2.9,0.9,2.9,2.6
				c0,0.2-0.1,0.7-0.3,1.4c7.8-1.6,19.2-3.9,23.6-4c3.1-0.1,3.4,2.3,3.4,2.9c0,0-20.4,3.8-28.3,5c-1.4,4.1-3.6,9.7-5,14.1
				c2.8-3.9,8-8.7,14.3-8.7C1409.3,20.3,1416.1,23.3,1416.1,34z"/>
			<path fill="#FCE7E0" d="M1420.1,40.4c0-16.8,9.5-32.7,22.7-32.7c5.2,0,10.7,4.9,10.7,13.5c0,19.5-12,35.5-22.7,35.5
				C1422.9,56.6,1420.1,47.5,1420.1,40.4z M1449.5,18.8c0-4.5-1.6-8.2-5.5-8.2c-9.2,0-19.5,15-19.5,31.8c0,5.3,1.5,11.2,4.7,11.2
				C1438.6,53.6,1449.5,35.5,1449.5,18.8z"/>
			<path fill="#FCE7E0" d="M108.4,160.2c0,2.2-12.5,29.9-13.8,29.9c-1.3,0-2.9-0.7-2.9-4.6c0-1.8,0.7-4.6,1.9-7.7
				c-2.6-12-21.7-19.8-37-19.8C24.2,158,8,175.9,8,187.2c0,28.1,72.4,9.6,72.4,40c0,8.6-8.8,14-29,14c-22.4,0-29.4-11.9-30.5-13.3
				c-1.9-2.6-0.7-4.3,0.2-4.3c4.8,4.9,16.2,11.3,30.7,11.3c11.9,0,23.2-2.9,23.2-7c0-20-72.5-3.6-72.5-41.6
				c0-19.8,18.2-36.5,47.3-36.5c32.5,0,43.2,13.1,46.3,22.2c3.6-8,8.3-16,9.1-16C106.8,156,108.4,158,108.4,160.2z"/>
			<path fill="#FCE7E0" d="M190.3,196.8c-1,2.9-28.1,43.8-34,43.8c-8.4,0-12.6-5.8-12.6-15.7c0-2.3,0.4-5.4,0.8-8.9
				c-6.5,11.9-14.4,25.7-16.1,25.7c-7.6,0-15.7-7.6-15.7-18.6c0-4.4,0.5-8.6,1.3-12.2c-5.4-1.4-9.2-5.6-9.2-15.1
				c0-11.9,13.8-27.1,35.5-27.1c23.5,0,16,19.6,14.3,26c1.9,0.8,3.4,2.2,3.4,3.4c0,1.7-7.8,15.5-7.8,31.8c0,5,3.1,6.4,5,6.4
				s32.6-43.6,32.6-43.6C189.7,192.6,191.3,193.9,190.3,196.8z M115.6,205.3c2.5-7.9,5.9-12.7,5.9-12.7c2.5,0,7.1,1.9,7.1,4.6
				c0,0.5-1.8,4-3.8,8.5c9.2-2,20.8-8.9,24.1-10.7c0.4-2.4,8.6-21.5-4.4-21.5c-18.8,0-32.4,13.4-32.4,24.5
				C112,202,113.4,204.2,115.6,205.3z M147.5,200.9c-5.2,3.2-15.7,8.8-25,10.1c-1.7,4.4-3.1,9.4-3.1,13.4c0,10.8,7.3,12.1,7.4,12.1
				C127.6,236.5,142.4,209.9,147.5,200.9z"/>
			<path fill="#FCE7E0" d="M234.2,197c-0.6,1.3-24.8,43.8-35,43.8c-10.4,0-16.9-9.5-16.9-23c0-17.6,7.9-46.4,14.8-62.6
				c-5.3,0.7-9.8,1.2-13.1,1.2c-5.8,0-6.5-3.6-6.4-5.5c5.6,0,13.9-1.1,22.7-2.4c1.3-2.5,2.5-4.2,3.6-4.9c1.1,0,3.7,1.4,4.6,3.6
				c10.6-1.7,20.8-3.2,26.5-3.2c5.3,0,7.8,2,7.8,4.9c-11.4,1.1-24.5,3.2-35.8,5c-5,12.2-17.4,41.4-17.4,69c0,12.6,6,13.3,9.2,13.3
				c4.4,0,33.2-43.6,33.2-43.6h0.1C233.2,192.6,235.2,195,234.2,197z"/>
			<path fill="#FCE7E0" d="M301.1,196.8c-1,2.9-28.1,43.8-34,43.8c-8.4,0-12.6-5.8-12.6-15.7c0-2.3,0.4-5.4,0.8-8.9
				c-6.5,11.9-14.4,25.7-16.1,25.7c-7.6,0-15.7-7.6-15.7-18.6c0-4.4,0.5-8.6,1.3-12.2c-5.4-1.4-9.2-5.6-9.2-15.1
				c0-11.9,13.8-27.1,35.5-27.1c23.5,0,16,19.6,14.3,26c1.9,0.8,3.4,2.2,3.4,3.4c0,1.7-7.8,15.5-7.8,31.8c0,5,3.1,6.4,5,6.4
				s32.6-43.6,32.6-43.6C300.5,192.6,302,193.9,301.1,196.8z M226.3,205.3c2.5-7.9,5.9-12.7,5.9-12.7c2.5,0,7.1,1.9,7.1,4.6
				c0,0.5-1.8,4-3.8,8.5c9.2-2,20.8-8.9,24.1-10.7c0.4-2.4,8.6-21.5-4.4-21.5c-18.8,0-32.4,13.4-32.4,24.5
				C222.7,202,224.2,204.2,226.3,205.3z M258.2,200.9c-5.2,3.2-15.7,8.8-25,10.1c-1.7,4.4-3.1,9.4-3.1,13.4
				c0,10.8,7.3,12.1,7.4,12.1C238.3,236.5,253.2,209.9,258.2,200.9z"/>
			<path fill="#FCE7E0" d="M336.5,197c-1.4,3.1-28.4,43.6-34.3,43.7c-6,0-13.6-4-13.6-16.6c0-13.7,5.8-34.2,13.1-55.4
				c-8.5,1.6-13,2.8-14.4,2.8c-2.8,0-5.8-2.6-5.6-4.6c2.6-0.5,9.8-2.5,22.3-4.8c2.4-6.7,4.9-13.3,7.4-19.8c1.8,0,6,1.9,6,5.5
				c0,0.7-1.8,5.6-4.3,12.8c8-1.1,13.6-1.3,17.6-1.4c5.3-0.1,5.8,3,5.8,4c0,0-11.2,1.4-25.7,3.8c-6.4,18.8-15.4,46.4-15.4,60.7
				c0,7,4.2,8.4,5.6,8.4c1.9,0,33.2-43.6,33.2-43.6C335.4,192.6,337.4,195,336.5,197z"/>
			<path fill="#FCE7E0" d="M403.3,196.8c-1,2.9-28.1,43.8-34,43.8c-8.4,0-12.6-5.8-12.6-15.7c0-2.3,0.4-5.4,0.8-8.9
				c-6.5,11.9-14.4,25.7-16.1,25.7c-7.6,0-15.7-7.6-15.7-18.6c0-4.4,0.5-8.6,1.3-12.2c-5.4-1.4-9.2-5.6-9.2-15.1
				c0-11.9,13.8-27.1,35.5-27.1c23.5,0,16,19.6,14.3,26c1.9,0.8,3.4,2.2,3.4,3.4c0,1.7-7.8,15.5-7.8,31.8c0,5,3.1,6.4,5,6.4
				s32.6-43.6,32.6-43.6C402.7,192.6,404.3,193.9,403.3,196.8z M328.6,205.3c2.5-7.9,5.9-12.7,5.9-12.7c2.5,0,7.1,1.9,7.1,4.6
				c0,0.5-1.8,4-3.8,8.5c9.2-2,20.8-8.9,24.1-10.7c0.4-2.4,8.6-21.5-4.4-21.5c-18.8,0-32.4,13.4-32.4,24.5
				C325,202,326.4,204.2,328.6,205.3z M360.5,200.9c-5.2,3.2-15.7,8.8-25,10.1c-1.7,4.4-3.1,9.4-3.1,13.4c0,10.8,7.3,12.1,7.4,12.1
				C340.6,236.5,355.4,209.9,360.5,200.9z"/>
			<path fill="#FCE7E0" d="M504.8,232.9c-2,4.4-7.8,8.5-16.1,8.5c-14.4,0-21.4-8.3-30.5-11c-0.4,0.2-0.6,0.6-1,0.8h-0.1
				c-4.3,4.7-8.3,9.4-9.1,9.4c-2.9,0-6.6-3.5-6.6-7.9c0-2.6,5.3-8.4,15.5-8.8c8-8.4,18.6-20,26-28.4c-10.4,2-20.3,1.2-27.2-3.5
				l-8.2,11.8c-1,0-2.5-4.6,0.2-8.6c1.4-2.2,2.9-4.3,4.1-6.2c-4-4.2-6.4-10.3-6.4-18.5c0-10.2,7.8-16.3,13.2-16.3c4.7,0,9,5,9,10.4
				c0,7.9-2.6,13.4-8.2,21.8c7.2,4.9,18,5.5,27.1,3c4.6-6.5,12.8-17.6,14.6-16.6c2.4,1.4,5.5,6.2,3.1,10.3
				c-1.8,3.1-7.2,7.2-11.9,10.6c-7.1,8.2-19.3,22-29.5,32c7.9,2.6,16,9.6,25,9.6c8,0,13.4-4.3,15.2-7
				C505.6,230.4,505.6,231.4,504.8,232.9z M455.6,182.8c4.4-7.3,7-13.4,7-19.1c0-3.5-0.7-4.4-2.6-4.4c-4.1,0-8,5.3-8,12.1
				C451.9,176,453.4,179.9,455.6,182.8z"/>
			<path fill="#FCE7E0" d="M561.2,197c-1.4,3.1-28.4,43.6-34.3,43.7c-6,0-13.6-4-13.6-16.6c0-11.2,3.4-25.3,6.1-34.4
				c1.6-5.8,3.5-11,4.7-10.8c2.5,0.4,7.1,3.5,6.4,7.9c-0.4,2.3-1.8,5.4-3.7,8.6c-2.9,8.9-6.6,21.8-6.6,32.3c0,7,4.2,8.4,5.6,8.4
				c1.9,0,33.2-43.6,33.2-43.6C560.2,192.6,562.2,195,561.2,197z M516.8,162.4c0.8-6.6,17.4-10.9,20.6-7.7c0.7,0.7,1.2,1.6,1.3,2.3
				c1,1.1,1.9,3,1.6,4.2c-2.5,8.5-16.9,10.2-20,8.2C517.7,167.6,516.5,163.9,516.8,162.4z M522.4,164.6c0,1.3,10.2-1.4,14.2-5.8
				C531.5,157.9,522.4,161.4,522.4,164.6z"/>
			<path fill="#FCE7E0" d="M623.5,195.5c0,2.5-26.6,46.3-51.4,46.3c-8.9,0-19.3-9.1-19.3-25.3c0-21.7,17-47.8,27-47.8
				c10.8,0,17.6,4.9,17.6,14.8c0,17.2-17.8,32-36.6,33.5c-0.1,1.1-0.1,2.2-0.1,3.2c0.1,12.1,8.3,16.7,10.9,16.7
				c20.2,0,48.7-44.3,49.2-44.3C622,192.6,623.5,193.6,623.5,195.5z M561.4,211.8c17-3.8,29.4-18.5,29.4-29.9c0-7-4.1-8.6-7.7-8.6
				C579.6,173.3,564.7,191,561.4,211.8z"/>
			<path fill="#FCE7E0" d="M664.9,197c-0.6,1.3-24.8,43.8-35,43.8c-10.4,0-16.9-9.5-16.9-23c0-29.3,16-69.6,22.9-71.2
				c5.2-1.2,15.1,3.7,14.4,15.6c-1.2,19.8-21.7,34.9-27.6,37.2c-1.4,7.8-2.4,15.8-2.4,23.4c0,12.6,6,13.3,9.2,13.3
				c4.4,0,33.1-43.2,33.4-43.6C663.8,192.6,665.9,195,664.9,197z M624,192.7c4.7-2.4,21-18.5,21-32.4c0-7.3-4-9.2-5.5-8.8
				C637,152.3,628.8,171,624,192.7z"/>
			<path fill="#FCE7E0" d="M724.8,197.2c-1.7,2.9-12.7,13.7-32.4,18.7c-7.8,14-19.4,25.8-22.8,25.8c-7.6,0-15.7-7.7-15.7-19.7
				c0-2.8,0.2-5.3,0.6-7.7c-6.1-3.6-9.8-9.5-9.8-16.7c0-15.1,16.2-29,34.3-29c14.9,0,20.8,10.4,20.8,23.9c0,5.2-1.4,10.8-3.8,16.3
				c17.2-6.2,28.2-16.2,28.2-16.2C724.8,192.6,726.4,194.5,724.8,197.2z M655.4,209.4c2.6-10.4,7.6-16.8,7.6-16.8
				c2.5,0,6.6,1.9,6.6,4.6c0,0.8-4.1,7.9-6.8,15.6c2.2,0.5,4.4,0.7,7,0.7c6,0,11.6-0.7,16.8-1.9c4-7.9,7.1-16.6,7.1-24
				c0-6-1.7-13.6-11.4-13.6c-13.6,0-30.7,11-30.7,26.2C651.5,204.2,652.9,207.2,655.4,209.4z M683.2,217.7
				c-3.8,0.6-7.9,0.8-12.2,0.8c-3.4,0-6.6-0.5-9.6-1.2c-0.6,2.4-1,4.7-1,6.8c0,11.6,7.6,12.7,8.6,12.7
				C669.7,237,676.8,228.6,683.2,217.7z"/>
			<path fill="#FCE7E0" d="M799.6,195.6c0,2.3-29,44.9-34.6,44.9c-12.1,0-16.1-12.5-16.1-27c0-13.1,2.5-24,4.3-32.6
				c-8.4,13.4-36,59.6-36,59.8c-2.3,0-5.5-0.8-5.5-5.4c0-15.7,8.2-49,10.2-54.6c2.5,0,7.2,1.3,7.2,4.8c0,1.6-8.3,23.6-11,43.7
				c8.4-14.5,32-58.1,36.8-59.6c0.1,0,0.1,0,0.2,0c3.4,0.1,7.4,2.3,7.4,6c0,8.6-5.9,28.1-5.9,43.4c0,7.7,1.7,16.7,6.8,16.7
				c2.5,0,33-43,33-43C798.1,192.6,799.6,192.8,799.6,195.6z"/>
			<path fill="#FCE7E0" d="M865.2,196.8c-1,2.9-28.1,43.8-34,43.8c-8.4,0-12.6-5.8-12.6-15.7c0-2.3,0.4-5.4,0.8-8.9
				c-6.5,11.9-14.4,25.7-16.1,25.7c-7.6,0-15.7-7.6-15.7-18.6c0-4.4,0.5-8.6,1.3-12.2c-5.4-1.4-9.2-5.6-9.2-15.1
				c0-11.9,13.8-27.1,35.5-27.1c23.5,0,16,19.6,14.3,26c1.9,0.8,3.4,2.2,3.4,3.4c0,1.7-7.8,15.5-7.8,31.8c0,5,3.1,6.4,5,6.4
				s32.6-43.6,32.6-43.6C864.6,192.6,866.2,193.9,865.2,196.8z M790.4,205.3c2.5-7.9,5.9-12.7,5.9-12.7c2.5,0,7.1,1.9,7.1,4.6
				c0,0.5-1.8,4-3.8,8.5c9.2-2,20.8-8.9,24.1-10.7c0.4-2.4,8.6-21.5-4.4-21.5c-18.8,0-32.4,13.4-32.4,24.5
				C786.8,202,788.3,204.2,790.4,205.3z M822.4,200.9c-5.2,3.2-15.7,8.8-25,10.1c-1.7,4.4-3.1,9.4-3.1,13.4
				c0,10.8,7.3,12.1,7.4,12.1C802.4,236.5,817.3,209.9,822.4,200.9z"/>
			<path fill="#FCE7E0" d="M898.1,239.9c0-2.5,3.6-10.4,6.6-10.4c2.2,0,4.9,3.1,4.9,5.4c0,5.3-4.6,10.9-7.1,10.9
				C900.5,245.8,898.1,243.1,898.1,239.9z"/>
			<path fill="#FCE7E0" d="M916.3,239.9c0-2.5,3.6-10.4,6.6-10.4c2.2,0,4.9,3.1,4.9,5.4c0,5.3-4.6,10.9-7.1,10.9
				C918.7,245.8,916.3,243.1,916.3,239.9z"/>
			<path fill="#FCE7E0" d="M934.6,239.9c0-2.5,3.6-10.4,6.6-10.4c2.2,0,4.9,3.1,4.9,5.4c0,5.3-4.6,10.9-7.1,10.9
				C937,245.8,934.6,243.1,934.6,239.9z"/>
			<path fill="#FCE7E0" d="M952.8,239.9c0-2.5,3.6-10.4,6.6-10.4c2.2,0,4.9,3.1,4.9,5.4c0,5.3-4.6,10.9-7.1,10.9
				C955.2,245.8,952.8,243.1,952.8,239.9z"/>
			<path fill="#FCE7E0" d="M971,239.9c0-2.5,3.6-10.4,6.6-10.4c2.2,0,4.9,3.1,4.9,5.4c0,5.3-4.6,10.9-7.1,10.9
				C973.4,245.8,971,243.1,971,239.9z"/>
			<path fill="#FCE7E0" d="M989.3,239.9c0-2.5,3.6-10.4,6.6-10.4c2.2,0,4.9,3.1,4.9,5.4c0,5.3-4.6,10.9-7.1,10.9
				C991.7,245.8,989.3,243.1,989.3,239.9z"/>
			<path fill="#FCE7E0" d="M1007.5,239.9c0-2.5,3.6-10.4,6.6-10.4c2.2,0,4.9,3.1,4.9,5.4c0,5.3-4.6,10.9-7.1,10.9
				C1009.9,245.8,1007.5,243.1,1007.5,239.9z"/>
			<path fill="#FCE7E0" d="M1025.7,239.9c0-2.5,3.6-10.4,6.6-10.4c2.2,0,4.9,3.1,4.9,5.4c0,5.3-4.6,10.9-7.1,10.9
				C1028.1,245.8,1025.7,243.1,1025.7,239.9z"/>
			<path fill="#FCE7E0" d="M1044,239.9c0-2.5,3.6-10.4,6.6-10.4c2.2,0,4.9,3.1,4.9,5.4c0,5.3-4.6,10.9-7.1,10.9
				C1046.4,245.8,1044,243.1,1044,239.9z"/>
			<path fill="#FCE7E0" d="M1062.2,239.9c0-2.5,3.6-10.4,6.6-10.4c2.2,0,4.9,3.1,4.9,5.4c0,5.3-4.6,10.9-7.1,10.9
				C1064.6,245.8,1062.2,243.1,1062.2,239.9z"/>
			<path fill="#FCE7E0" d="M1080.5,239.9c0-2.5,3.6-10.4,6.6-10.4c2.2,0,4.9,3.1,4.9,5.4c0,5.3-4.6,10.9-7.1,10.9
				C1082.9,245.8,1080.5,243.1,1080.5,239.9z"/>
			<path fill="#FCE7E0" d="M1098.7,239.9c0-2.5,3.6-10.4,6.6-10.4c2.2,0,4.9,3.1,4.9,5.4c0,5.3-4.6,10.9-7.1,10.9
				C1101.1,245.8,1098.7,243.1,1098.7,239.9z"/>
			<path fill="#FCE7E0" d="M1116.9,239.9c0-2.5,3.6-10.4,6.6-10.4c2.2,0,4.9,3.1,4.9,5.4c0,5.3-4.6,10.9-7.1,10.9
				C1119.3,245.8,1116.9,243.1,1116.9,239.9z"/>
			<path fill="#FCE7E0" d="M1135.2,239.9c0-2.5,3.6-10.4,6.6-10.4c2.2,0,4.9,3.1,4.9,5.4c0,5.3-4.6,10.9-7.1,10.9
				C1137.6,245.8,1135.2,243.1,1135.2,239.9z"/>
			<path fill="#FCE7E0" d="M1153.4,239.9c0-2.5,3.6-10.4,6.6-10.4c2.2,0,4.9,3.1,4.9,5.4c0,5.3-4.6,10.9-7.1,10.9
				C1155.8,245.8,1153.4,243.1,1153.4,239.9z"/>
			<path fill="#FCE7E0" d="M1171.7,239.9c0-2.5,3.6-10.4,6.6-10.4c2.2,0,4.9,3.1,4.9,5.4c0,5.3-4.6,10.9-7.1,10.9
				C1174.1,245.8,1171.7,243.1,1171.7,239.9z"/>
			<path fill="#FCE7E0" d="M1189.9,239.9c0-2.5,3.6-10.4,6.6-10.4c2.2,0,4.9,3.1,4.9,5.4c0,5.3-4.6,10.9-7.1,10.9
				C1192.3,245.8,1189.9,243.1,1189.9,239.9z"/>
			<path fill="#FCE7E0" d="M1288.9,189.2c3-1,6.1-1.6,9.4-1.6c10.4,0,16.8,5.3,16.8,18.8c0,12.8-13.2,36.6-37,36.6
				c-18.5,0-22.2-13.2-22.2-17.5c0-4.3,3.6-6,6.6-6c0,3,2.8,19,13.6,19c13.1,0,32.3-15.5,32.3-35.9c0-6.1-1.7-10.1-5.9-10.1
				c-7.6,0-15.2,2.8-20.9,6c-4,4.3-8.8,9.1-9.8,8.4c-1.7-1.2-3.7-5.3-1.6-8.2c1.6-2.2,5.6-4.7,9.4-6.8c9-9.7,22.9-23.8,31.1-32.3
				c-13.1,4.9-29.8,10.6-37.2,10.6c-7.1,0-8.2-3.7-7.7-5.9c1.9,0,30.4-4.3,51.5-11.8c1.8,0.2,3.5,2,3.5,4.9
				C1320.7,158.9,1302,176,1288.9,189.2z"/>
			<path fill="#FCE7E0" d="M1343.7,170.7c1.7-0.6,3.6-0.9,5.5-0.9c6.1,0,9.8,3.1,9.8,11c0,7.5-7.7,21.3-21.5,21.3
				c-10.8,0-12.9-7.7-12.9-10.2s2.1-3.5,3.8-3.5c0,1.7,1.6,11.1,7.9,11.1c7.6,0,18.8-9,18.8-20.9c0-3.6-1-5.9-3.4-5.9
				c-4.4,0-8.9,1.6-12.2,3.5c-2.3,2.5-5.1,5.3-5.7,4.9c-1-0.7-2.2-3.1-0.9-4.8c0.9-1.3,3.3-2.7,5.5-4c5.2-5.7,13.4-13.9,18.1-18.8
				c-7.6,2.9-17.4,6.2-21.7,6.2c-4.1,0-4.8-2.2-4.5-3.4c1.1,0,17.7-2.5,30-6.9c1,0.1,2,1.2,2,2.9
				C1362.2,153,1351.3,163,1343.7,170.7z"/>
			<path fill="#FCE7E0" d="M1384.3,170.7c1.7-0.6,3.6-0.9,5.5-0.9c6.1,0,9.8,3.1,9.8,11c0,7.5-7.7,21.3-21.5,21.3
				c-10.8,0-12.9-7.7-12.9-10.2s2.1-3.5,3.8-3.5c0,1.7,1.6,11.1,7.9,11.1c7.6,0,18.8-9,18.8-20.9c0-3.6-1-5.9-3.4-5.9
				c-4.4,0-8.9,1.6-12.2,3.5c-2.3,2.5-5.1,5.3-5.7,4.9c-1-0.7-2.2-3.1-0.9-4.8c0.9-1.3,3.3-2.7,5.5-4c5.2-5.7,13.4-13.9,18.1-18.8
				c-7.6,2.9-17.4,6.2-21.7,6.2c-4.1,0-4.8-2.2-4.5-3.4c1.1,0,17.7-2.5,30-6.9c1,0.1,2,1.2,2,2.9
				C1402.8,153,1391.9,163,1384.3,170.7z"/>
		</g>
	</g>
</g>
<g id="Layer_2">
</g>
</svg>
