<?xml version="1.0" encoding="utf-8"?>
<!-- Generator: Adobe Illustrator 19.2.1, SVG Export Plug-In . SVG Version: 6.00 Build 0)  -->
<svg version="1.1" xmlns="http://www.w3.org/2000/svg" xmlns:xlink="http://www.w3.org/1999/xlink" x="0px" y="0px"
	 viewBox="0 0 819.1 248.9" enable-background="new 0 0 819.1 248.9" xml:space="preserve">
<g id="Layer_1">
	<g>
		<g>
			<path fill="#FBE069" d="M98.6,62.6c-7.6,17.9-17,25.4-26.9,25.6c-8.4,0-12.4-5.8-12.4-13.7c0-16.1,10.9-51,5.2-51
				c-5,0-25,23.4-33.1,59.3c-0.7,3.2-2.4,4.8-4.3,4.8c-2.5,0-4.2-1.8-3.4-5.8C27,67.1,40.4,12.2,34.1,12.2c-6.7,0-22,24.5-26.9,42.7
				c-1.6,5.9-8.5,3.1-7-2.3c7-24.2,23.2-47.5,34.6-47.5c6.8,0,8.5,7.2,8.5,11.2c0,7.6-1.1,13.7-4.2,27.4
				C48.2,26,58.2,16.4,65.5,16.4c5.4,0,8.2,3.8,8.3,11.8c0.1,10.3-6.8,34-6.8,45.1c0,6.5,1.7,8.2,5,8.2c4.9-0.1,13.1-5.9,20.2-22.6
				C94.4,53.5,101.4,56,98.6,62.6z"/>
			<path fill="#FBE069" d="M155.3,62c-4.9,14.6-14.5,26.4-24.1,26.4c-4.7,0-9.8-1.9-11.3-13c-3.4,6.7-8,12.5-15,12.5
				c-8.8,0-13.1-7.8-13.1-18.8c0-18.5,7.6-38.5,21.7-38.5c5.6,0,9.4,3.7,11,8.6c0.6-2.4,1.3-4.6,2-6.4c0.8-2.5,2.5-3.7,4.2-3.7
				c2.2,0,4.2,2.3,3,6c-5.2,16.1-7.1,29.2-7.1,35.8c0,9.1,2.3,11.2,4.4,11.2c3.8,0,11.3-4.9,18.5-23.6c0.8-2.2,1.9-2.9,3.2-2.9
				C154.7,55.6,156.8,57.5,155.3,62z M120.3,56.9l0.2-1.1c-1.8,0.4-3.6-0.2-3.1-2.3c2.4-9.5,0.6-16.3-4-16.3
				c-8.5,0-14.4,18.5-14.4,30.1c0,10.4,2.5,14.2,5.8,14.2C110.5,81.5,117.8,69,120.3,56.9z"/>
			<path fill="#FBE069" d="M191.1,35.2c-3.7,17.8-11.5,64-11.8,65.3c-2,14-7.1,18.1-13.2,18.1c-7.6,0-11.4-5.3-11.4-11.6
				c0-9.7,9.2-15.8,19.2-18.1l1.6-9.7c-3.2,5-7.7,8.9-13.3,8.9c-8.8,0-13.1-7.8-13.1-18.8c0-18.5,7.6-38.5,21.7-38.5
				c6.1,0,10,4.3,11.4,9.7l1.7-7.4c0.6-2.5,2.5-3.7,4.2-3.7C190.3,29.2,192.1,31.4,191.1,35.2z M178.4,55.6c-1.9,0.7-4.1,0.2-3.6-2
				c2.4-9.5,0.6-16.3-4-16.3c-8.5,0-14.4,18.5-14.4,30.1c0,10.4,2.5,14.2,5.8,14.2C169.7,81.5,174.7,69.2,178.4,55.6z M172.2,100.6
				l0.7-4.7c-5.9,2-11,5.9-11,10.8c0,2.6,1.3,4.9,3.8,4.9C168.6,111.6,170.7,108.6,172.2,100.6z"/>
			<path fill="#FBE069" d="M246,57.4c-11.8,4.4-20.2,0.1-22.1-8.4c-5.2,10.9-12.8,27-15.6,32.5c-2.4,4.9-4.4,6.1-6.4,6.1
				c-4.9,0-5.3-5.6-5.3-7.8c0-13.1,2.6-31.7,6.6-46.1c0.6-2.3,2.3-3.5,4-3.5c2.2,0,4,1.9,2.9,6c-2.8,10.6-6.2,28.6-6.7,40.1
				c5.5-12.1,17-35.9,19.8-42c1.8-4.1,3.1-5.4,5.3-5.4c1.7,0,4,1.1,3.5,4.7c-0.4,2.8-1.6,5.8-1.6,10.1c0,4,1.7,8.3,7,8.3
				c1.9,0,4.3-0.5,7.2-1.4C249,48.7,251.4,55.3,246,57.4z"/>
			<path fill="#FBE069" d="M306.5,62c-4.9,14.6-14.5,26.4-24.1,26.4c-4.7,0-9.8-1.9-11.3-13c-3.4,6.7-8,12.5-15,12.5
				c-8.8,0-13.1-7.8-13.1-18.8c0-18.5,7.6-38.5,21.7-38.5c5.6,0,9.4,3.7,11,8.6c0.6-2.4,1.3-4.6,2-6.4c0.8-2.5,2.5-3.7,4.2-3.7
				c2.2,0,4.2,2.3,3,6c-5.2,16.1-7.1,29.2-7.1,35.8c0,9.1,2.3,11.2,4.4,11.2c3.8,0,11.3-4.9,18.5-23.6c0.8-2.2,1.9-2.9,3.2-2.9
				C305.9,55.6,308,57.5,306.5,62z M271.5,56.9l0.2-1.1c-1.8,0.4-3.6-0.2-3.1-2.3c2.4-9.5,0.6-16.3-4-16.3
				c-8.5,0-14.4,18.5-14.4,30.1c0,10.4,2.5,14.2,5.8,14.2C261.7,81.5,269,69,271.5,56.9z"/>
			<path fill="#FBE069" d="M363.2,60.2c-8.4,16.9-17.4,27.5-26.9,27.5c-7.7,0-9.8-5.5-9.8-11.8c0-6.4,1.6-15.8,3.5-24.2
				c-3.8,7.1-7.8,14.4-10.2,18.4c-6.5,10.4-10.6,17.6-15.4,17.6c-5.2,0-5.6-4.4-5.6-9.7c0-12.5,5-35,8.6-45.8
				c0.5-1.4,2.2-2.8,3.6-2.8c2.3,0,4.4,1.8,3.2,5.6c-4.6,14.9-8,35.6-8.5,44.2c5.8-8.9,15.4-26,21.1-35.9c1.9-3.4,4-5.8,6.7-5.8
				c2.5,0,5,1.9,5,6.1c0,3.4-5,23.2-5,31.7c0,4,1,6,2.8,6c3.1,0,11.5-6.2,21.2-24.5C360.1,52.2,366.1,54.5,363.2,60.2z"/>
			<path fill="#FBE069" d="M364.1,72.1c0,6,1.6,9,3.8,9c2.9,0,9.8-2.2,19.8-24.8c0.7-1.7,1.9-2.6,3.4-2.6c1.8,0,3.8,1.9,2.5,5.4
				c-9.2,24.6-20,28.7-26.2,28.7c-8.2,0-10.7-7.2-10.7-14.5c0-12,2.6-24.8,6-37.4c1.7-6.1,9.1-4.6,7.3,2
				C366.1,51.8,364.1,64.6,364.1,72.1z M371.7,22.3c4.3,0,9.2-3.1,9.2-9.1c0-4.4-3.1-8.6-8.9-8.5c-5.3,0.1-8.6,4.1-8.6,9
				C363.5,19.4,367.3,22.3,371.7,22.3z M372.1,10c2,0,3.2,1.4,3.2,3.4c0,2.2-1.7,3.4-3.2,3.4c-2.4,0-3.2-1.6-3.2-3.4
				C368.9,11,370.7,10,372.1,10z"/>
			<path fill="#FBE069" d="M450,62c-4.9,14.6-14.5,26.4-24.1,26.4c-4.7,0-9.8-1.9-11.3-13c-3.4,6.7-8,12.5-15,12.5
				c-8.8,0-13.1-7.8-13.1-18.8c0-18.5,7.6-38.5,21.7-38.5c5.6,0,9.4,3.7,11,8.6c0.6-2.4,1.3-4.6,2-6.4c0.8-2.5,2.5-3.7,4.2-3.7
				c2.2,0,4.2,2.3,3,6c-5.2,16.1-7.1,29.2-7.1,35.8c0,9.1,2.3,11.2,4.4,11.2c3.8,0,11.3-4.9,18.5-23.6c0.8-2.2,1.9-2.9,3.2-2.9
				C449.4,55.6,451.5,57.5,450,62z M415.1,56.9l0.2-1.1c-1.8,0.4-3.6-0.2-3.1-2.3c2.4-9.5,0.6-16.3-4-16.3
				c-8.5,0-14.4,18.5-14.4,30.1c0,10.4,2.5,14.2,5.8,14.2C405.2,81.5,412.5,69,415.1,56.9z"/>
			<path fill="#FBE069" d="M561.5,31c0,9.8-5.9,23.9-21,34.2c-4.9,3.4-9.5-2-4.2-5.9c11.2-8.2,17.6-18.4,17.6-28.6
				c0-10.3-8.2-18.6-23.2-18.6c-23.6,0-50.3,18.8-50.3,41.8c0,9.4,7.2,13.7,16.8,13.7c8.5,0,16.8-6,23.2-13.9
				c1.4-1.8,1.8-3.7,4.3-3.7c1.2,0,3,0.8,2.2,5.3c-0.7,4-4.9,29.9-5.4,32.5c-0.4,2.5-2.4,3.7-4.2,3.7c-1.9,0-3.6-1.3-3.2-4.1
				c0.4-3.2,2.2-13.6,3.4-20.3c-5.8,5-14,7.4-20.9,7.4c-13.8,0-23.6-7.4-23.6-21.6c0-26,29.5-47.8,58.6-47.8
				C549.6,5.2,561.5,15.6,561.5,31z"/>
			<path fill="#FBE069" d="M600.8,51.6c0,18.6-8.3,36.1-21.5,36.1c-9.4,0-13.1-7.9-13.1-16.9c0-5.3,0.8-11,2.2-15.8
				c-0.4,0.1-0.7,0.2-1.1,0.2c-1.6,0-3.1-1.6-2.8-4.1c1.3-10.6,10.6-21.8,21.1-21.8C594.7,29.3,600.8,37.2,600.8,51.6z M593.6,50.9
				c0-9.2-3.1-15.1-8.9-15.1c-4.3,0-9.5,5.2-12.2,11.5c0.5-0.2,1-0.4,1.4-0.4c2.2,0,4,2.2,2.8,5.2c-2.3,7.4-3.2,13.6-3.2,18.4
				c0,6.8,2.2,10.8,6.5,10.8C587.1,81.2,593.6,66.4,593.6,50.9z"/>
			<path fill="#FBE069" d="M626.3,7c-4.8,19.7-12.4,52.9-12.4,66.5c0,5.3,1.1,7.7,4.3,7.7c2.8,0,11.5-3.5,22.9-26
				c0.7-1.3,2-2.4,3.5-2.4c2.2,0,4.3,2.3,2.4,6.1c-13.4,26.9-24.1,28.9-30,28.9c-7.4,0-10.6-5.9-10.6-12.6c0-19.6,9.8-59.5,12.8-71
				C620.4-0.2,627.9,0,626.3,7z"/>
			<path fill="#FBE069" d="M684.9,59.3c-7.6,1.2-13.4,3.1-18,5.3c1.9,3.7,2.8,7.2,2.8,10.8c0,8.3-5.3,13.1-12.1,13.1
				c-4.9,0-10.1-4-10.1-10.9c0-2.9,1.2-9.4,9.1-15c-3.8-5.2-8-10-8.2-15.8c0-9.5,8-17.9,18.5-17.9c5,0,10.3,3,10.3,12
				c0,3.6-1.1,6.8-4.2,6.8c-3.5-0.1-2.9-3.5-2.9-6.8c0-3.7-1.8-4.9-3.8-4.9c-5.8,0-10.7,5-10.7,10.7c0,3.7,3.6,7.2,6.7,11l0.8,1.1
				c5-2.5,11.8-4.9,20.9-6.4C688.9,51.6,690.3,58.4,684.9,59.3z M662.5,76.7c0-3-0.8-5.6-2-8.2c-4,3.2-5.8,6.6-5.8,9.1
				c0,2.3,1.2,4.3,3.7,4.3C661.7,82,662.5,78.5,662.5,76.7z"/>
			<path fill="#FBE069" d="M747.6,58c-5.9,16.6-16,29.9-26.3,29.9c-7.8,0-12.5-11.4-12.5-23c-10.3,17.6-14.9,23-19.9,23
				c-4.4,0-5.5-3.6-5.5-8c0-16.6,9.7-60.5,14.9-76.4c0.8-2.5,2.6-3.4,4.3-3.4c2.4,0,4,2.4,3,5.4c-7.6,24.7-14.5,61.7-15.2,75.1
				c5.8-7.1,15.7-23.4,24.1-43.9c0.4-0.7,2.3-1.3,4.4-1.3c3,0,6.4,1.2,6.4,4.7c0,4.9-7.2,11.3-9.8,15.7c-0.8,1.3,1.6,25.7,6.2,25.7
				c2.9,0,10-4.3,19.7-25.6c0.6-1.2,1.8-3,3.8-3C746.9,52.8,748.8,54.6,747.6,58z"/>
			<path fill="#FBE069" d="M748.2,72.1c0,6,1.6,9,3.8,9c2.9,0,9.8-2.2,19.8-24.8c0.7-1.7,1.9-2.6,3.4-2.6c1.8,0,3.8,1.9,2.5,5.4
				c-9.2,24.6-20,28.7-26.2,28.7c-8.2,0-10.7-7.2-10.7-14.5c0-12,2.6-24.8,6-37.4c1.7-6.1,9.1-4.6,7.3,2
				C750.2,51.8,748.2,64.6,748.2,72.1z M755.9,22.3c4.3,0,9.2-3.1,9.2-9.1c0-4.4-3.1-8.6-8.9-8.5c-5.3,0.1-8.6,4.1-8.6,9
				C747.6,19.4,751.4,22.3,755.9,22.3z M756.2,10c2,0,3.2,1.4,3.2,3.4c0,2.2-1.7,3.4-3.2,3.4c-2.4,0-3.2-1.6-3.2-3.4
				C753,11,754.8,10,756.2,10z"/>
			<path fill="#FBE069" d="M818.6,62.8c-5.8,14.2-18.2,25.7-31,25.7c-14.6,0-16.6-13.4-16.6-24.1c0-16.4,8.4-35.2,21.7-35.2
				c6.6,0,10.7,5.2,10.7,12.2c0,11.4-8.5,26.3-25.2,26.6c0.6,7.8,3.2,14.3,9.2,14c8.8-0.2,17.6-7.8,25.1-22.2c1-2.3,2.4-3.1,3.7-3.1
				C818.3,56.8,820.1,58.9,818.6,62.8z M778.3,61.9c12-0.4,18-13.1,18-19.3c0-5.2-1.9-6.8-4-6.8C785.6,35.8,779.1,49.1,778.3,61.9z"
				/>
			<path fill="#FBE069" d="M216.3,224.9c0-4.9,3.4-8.9,8.6-9c5.8-0.1,8.9,4.1,8.9,8.5c0,6-4.9,9.1-9.2,9.1
				C220.1,233.5,216.3,230.6,216.3,224.9z M221.7,224.5c0,1.8,0.8,3.4,3.2,3.4c1.6,0,3.2-1.2,3.2-3.4c0-1.9-1.2-3.4-3.2-3.4
				C223.5,221.2,221.7,222.2,221.7,224.5z M232.2,148.7c-3.4,17.2-7.4,47.4-8.5,55.6c-0.4,3.2,1.6,4.7,3.4,4.7
				c1.9,0,3.5-1.4,3.8-4.3c1.9-15.4,3.2-22.7,8-53.4c0.6-3.5-1-5.4-3.1-5.4C234.4,145.8,232.7,146.8,232.2,148.7z"/>
			<path fill="#FBE069" d="M335.4,194.4c0,25.7-14.2,38-22.8,38c-4.7,0-9.8-1.9-11.3-13c-3.4,6.7-8,12.5-15,12.5
				c-8.8,0-13.1-7.8-13.1-18.8c0-18.5,7.6-38.5,21.7-38.5c5.6,0,9.4,3.7,11,8.5c0.4-1.4,0.8-2.8,1.3-4.1c0.8-2.5,2.5-3.7,4.2-3.7
				c2.2,0,4.2,2.3,3,6c-5.2,16.1-6.4,27-6.4,33.6c0,9.1,2.3,11.2,4.4,11.2c3.4,0,15.5-8.4,15.5-30.4c0-16.9-10-30.6-28.8-30.6
				c-25.7,0-37.1,20.8-39.2,41.8c-1.8,16.8,4.4,34.1,25.9,35.3c4.7,0.2,5.5,7.1-1.7,6.7c-23.6-1.4-33.5-20.4-31.8-40.8
				c2.2-27.2,18.4-50.2,46.2-50.2C327.2,157.9,335.4,181.7,335.4,194.4z M301.8,200.9l0.2-1.1c-1.8,0.4-3.6-0.2-3.1-2.3
				c2.4-9.5,0.6-16.3-4-16.3c-8.5,0-14.4,18.5-14.4,30.1c0,10.4,2.5,14.2,5.8,14.2C292,225.5,299.3,213,301.8,200.9z"/>
			<path fill="#FBE069" d="M394.6,200.4c-0.8,3.4-1.3,5-2.3,9l12.4-0.4c5.3-0.1,4.9,7.1-0.5,7.2l-13.7,0.2
				c-0.7,2.8-1.6,6.2-2.6,10.6c-0.7,2.3-2.5,3.5-4.2,3.5c-2,0-3.7-1.7-2.9-5l2.3-8.9c-3.7,0-7.3,0-10.8,0.1l-2.6,10.3
				c-0.7,2.3-2.5,3.5-4.2,3.5c-2,0-3.7-1.7-2.9-5l2.3-8.8c-2.3,0-4.6,0-6.7,0c-4.9,0-5.9-7,0.1-7.1l8.3-0.1c0.4-1.6,1-4,2.3-8.9
				h-6.6c-4.9,0-5.9-7,0.1-7.1l8.4-0.1c1-3.5,2.2-7.9,3.6-13.2c0.6-2.3,2.2-3.1,3.7-3.1c2.2,0,4.1,1.9,3.1,5.4l-2.9,10.9
				c3.8,0,7.2,0,10.7-0.1l3.6-13.1c0.6-2.3,2.2-3.1,3.7-3.1c2.2,0,4.1,1.9,3.1,5.4l-2.9,10.8c3.5-0.1,7.4-0.2,12.2-0.4
				c5.3-0.1,4.9,7.1-0.5,7.2L394.6,200.4z M387.2,200.5c-3.6,0-7.2,0-10.8,0.1l-2.3,8.9c3.8,0,7.2,0,10.7-0.1L387.2,200.5z"/>
			<path fill="#FBE069" d="M458.6,170.6c11.5,1.2,16.8,8.8,16.8,18.5c0,2.9-0.8,8.9-3.8,12.2c-3.6,4.3-9.7,0.8-6-4.3
				c1.9-2.8,2.4-7.2,2.4-8.2c0-8.6-5.9-10.8-10.7-11.3c-2.4,13.2-3.2,18.8-4.8,27.8c6.7,1.9,12.8,5.2,12.8,14.3
				c0,5.5-4.9,13.3-17.4,14l-0.7,4.1c-0.8,5.2-8,5-7-1.2l0.6-3.5c-5.9-1.4-10.1-5.3-11.6-9.7c-1.9-5.3,4.1-8.4,7.1-2.2
				c1.3,2.6,3.2,4,5.8,4.7l2.6-15.5c-8.2-2-17.2-4.6-17.2-15.1c0-14,10.6-23.3,23.8-24.7l1-5.9c1-5.6,8.3-5.3,7.2,0.8L458.6,170.6z
				 M445.7,203.8l4.3-25.7c-7.7,1.7-15.2,7.4-15.2,16.8C434.8,200.5,439.8,202.3,445.7,203.8z M451.5,212.3l-2.4,14.4
				c5.6-0.5,8.9-4.3,8.9-7.8C458,215.4,455.2,213.6,451.5,212.3z"/>
			<path fill="#FBE069" d="M526.2,231l-4.7-5.9c-4.2,4.1-10,6.6-16.9,6.6c-10.4,0-19.7-6-19.7-18.4c0-10,6.7-15.8,14.2-20.8
				c-3.6-6.2-6.2-12.1-7-16.4c-2.2-13.3,8.2-19.1,16.9-19.1c7.6,0,15.8,5.2,15.8,15.5c0,10.7-7.9,16.8-16.1,22.2
				c3.8,6.1,8,12.2,12.1,17.8c1-2.8,1.4-5.6,1.4-8.5c0-1.6-0.2-3.2-0.6-4.7c-1.1-4.2,4.8-6.7,6.8-1.3c0.6,1.7,1.1,4.2,1.1,7
				c0,5-1.3,10.1-3.6,14.3c2.2,2.8,4.1,5.2,5.5,7C535.6,231,529.1,234.6,526.2,231z M517,219.1c-4.6-6-9.7-13.2-14.2-20.3
				c-5.9,4.1-10.6,8.3-10.6,14.5c0,7.1,5,10.9,12.7,10.9C510.2,224.3,514.1,222.2,517,219.1z M505.2,188.6
				c6.6-4.3,12.4-8.8,12.4-15.8c0-5.2-4.2-8.5-8.6-8.5c-5.5,0-12,3.4-9.4,12C500.7,179.9,502.7,184.1,505.2,188.6z"/>
			<path fill="#FBE069" d="M545.2,185.3c0-7,4.9-12.7,12.5-12.7c8,0,12.5,5.8,12.5,12c0,8.6-7,13-13.2,13
				C550.7,197.5,545.2,193.6,545.2,185.3z M552.4,185c0,2.8,1.2,5.4,5.2,5.4c3.5,0,5.4-3,5.4-5.6c0-2.3-1.4-5.2-5.3-5.2
				C554.6,179.6,552.4,181.8,552.4,185z M554.4,227c-4.1,6.1,3,8.6,6.4,3.4c15.5-24,20.8-31.6,33.8-52.3c3.7-5.9-3-9.4-6.5-4.1
				C574.4,194.6,566.9,208.1,554.4,227z M578.4,219.5c0-7,4.9-12.7,12.5-12.7c8,0,12.5,5.8,12.5,12c0,8.6-7,13-13.2,13
				C584,231.7,578.4,227.8,578.4,219.5z M585.6,219.2c0,2.8,1.2,5.4,5.2,5.4c3.5,0,5.4-3,5.4-5.6c0-2.3-1.4-5.2-5.3-5.2
				C587.8,213.8,585.6,216,585.6,219.2z"/>
		</g>
	</g>
</g>
<g id="Layer_2">
</g>
</svg>
