<?xml version="1.0" encoding="utf-8"?>
<!-- Generator: Adobe Illustrator 19.2.1, SVG Export Plug-In . SVG Version: 6.00 Build 0)  -->
<svg version="1.1" xmlns="http://www.w3.org/2000/svg" xmlns:xlink="http://www.w3.org/1999/xlink" x="0px" y="0px"
	 viewBox="0 0 681 258.1" enable-background="new 0 0 681 258.1" xml:space="preserve">
<g id="Layer_1">
	<g>
		<g>
			<path fill="#FBE069" d="M237.5,5.5c-7.4,27.6-11.4,50-14,72.1c-0.5,4.1-2.3,5.2-4.3,5.2c-1.8,0-3.6-1.3-3.2-4.2
				c0.7-5.6,1.9-17.3,4.8-34.3c-6.6,7.3-16,13.4-25.2,17l-0.2,1.8c-1.1,8.3-1.7,13.4-1.9,15c-0.6,4.1-2.5,4.6-4.1,4.6
				c-1.7,0-3.7-0.8-3.5-4.6c0.2-2.5,0.7-6.5,1.8-14.3c-3,0.7-5.9,1.1-8.5,1.1c-11.3,0-18.5-6.8-18.5-22.6c0-12.8,6.1-18.8,13.2-19
				c8.2-0.1,14.4,7.6,17.5,15.8c2.5-13.4,6.1-30.1,8.3-36.8c1.2-3.7,8.5-3.5,7,3.4c-5.2,22.1-8,37.2-9.8,48
				c5.2-2.5,10.3-5.9,14.8-10.1c8.4-7.8,10.8-9.2,18.7-39.5c0.8-3.2,2.8-4.1,4.2-4.1C237.5,0.1,238.1,3.1,237.5,5.5z M179.8,58.2
				c2.5,0,5.3-0.4,8.2-1.2c-0.2-14.3-8.8-26.9-14.4-26.9c-3.8,0-5.6,6.4-5.6,13.6C167.9,53,172.6,58.2,179.8,58.2z"/>
			<path fill="#FBE069" d="M302.8,57c-4.9,14.6-14.5,26.4-24.1,26.4c-4.7,0-9.8-1.9-11.3-13c-3.4,6.7-8,12.5-15,12.5
				c-8.8,0-13.1-7.8-13.1-18.8c0-18.5,7.6-38.5,21.7-38.5c5.6,0,9.4,3.7,11,8.6c0.6-2.4,1.3-4.6,2-6.4c0.8-2.5,2.5-3.7,4.2-3.7
				c2.2,0,4.2,2.3,3,6c-5.2,16.1-7.1,29.2-7.1,35.8c0,9.1,2.3,11.2,4.4,11.2c3.8,0,11.3-4.9,18.5-23.6c0.8-2.2,1.9-2.9,3.2-2.9
				C302.2,50.5,304.4,52.4,302.8,57z M267.9,51.8l0.2-1.1c-1.8,0.4-3.6-0.2-3.1-2.3c2.4-9.5,0.6-16.3-4-16.3
				c-8.5,0-14.4,18.5-14.4,30.1c0,10.4,2.5,14.2,5.8,14.2C258,76.4,265.4,64,267.9,51.8z"/>
			<path fill="#FBE069" d="M348.2,49.8c-3.5,1-8.9,1.6-15.5,1.7c-0.8,2.3-1.7,4.4-2.5,6.6c-5.6,13.6-13.9,24.7-22.1,24.7
				c-8.3,0-11.2-11.3-11.2-24.1c0-12.5,2.6-26.3,5.4-32.5c0.7-1.8,2-2.5,3.4-2.5c2.2,0,4.2,2,3.4,5.2c-3.4,12.8-4.8,23.8-4.8,31.9
				c0,9.6,1.9,15.6,4.6,15.6c4,0,11.2-11.6,15.8-24.1l0.7-2c-6-2.6-11.2-9.1-11.2-19.7c0-5.3,2-10.4,4.1-13c2.9-3.6,5.9-4.3,8.5-4.3
				c6.6,0,10.4,6.2,10.4,13.4c0,5.4-1,11.5-2.5,17.9c4.2-0.1,8.5-0.8,11.6-1.3C351.3,42.4,353.3,48.4,348.2,49.8z M327.5,43.2
				c3.2-12.1,4.1-23.4-1-23.4c-2.8,0-5.2,5.2-5.2,10.3C321.4,36.6,323.3,41.2,327.5,43.2z"/>
			<path fill="#FBE069" d="M407,57c-4.9,14.6-14.5,26.4-24.1,26.4c-4.7,0-9.8-1.9-11.3-13c-3.4,6.7-8,12.5-15,12.5
				c-8.8,0-13.1-7.8-13.1-18.8c0-18.5,7.6-38.5,21.7-38.5c5.6,0,9.4,3.7,11,8.6c0.6-2.4,1.3-4.6,2-6.4c0.8-2.5,2.5-3.7,4.2-3.7
				c2.2,0,4.2,2.3,3,6c-5.2,16.1-7.1,29.2-7.1,35.8c0,9.1,2.3,11.2,4.4,11.2c3.8,0,11.3-4.9,18.5-23.6c0.8-2.2,1.9-2.9,3.2-2.9
				C406.4,50.5,408.5,52.4,407,57z M372,51.8l0.2-1.1c-1.8,0.4-3.6-0.2-3.1-2.3c2.4-9.5,0.6-16.3-4-16.3c-8.5,0-14.4,18.5-14.4,30.1
				c0,10.4,2.5,14.2,5.8,14.2C362.2,76.4,369.5,64,372,51.8z"/>
			<path fill="#FBE069" d="M463.7,55.2c-8.4,16.9-17.4,27.5-26.9,27.5c-7.7,0-9.8-5.5-9.8-11.8c0-6.4,1.6-15.8,3.5-24.2
				c-3.8,7.1-7.8,14.4-10.2,18.4c-6.5,10.4-10.6,17.6-15.4,17.6c-5.2,0-5.6-4.4-5.6-9.7c0-12.5,5-35,8.6-45.8
				c0.5-1.4,2.2-2.8,3.6-2.8c2.3,0,4.4,1.8,3.2,5.6c-4.6,14.9-8,35.6-8.5,44.2c5.8-8.9,15.4-26,21.1-35.9c1.9-3.4,4-5.8,6.7-5.8
				c2.5,0,5,1.9,5,6.1c0,3.4-5,23.2-5,31.7c0,4,1,6,2.8,6c3.1,0,11.5-6.2,21.2-24.5C460.6,47.2,466.6,49.4,463.7,55.2z"/>
			<path fill="#FBE069" d="M520.4,57c-4.9,14.6-14.5,26.4-24.1,26.4c-4.7,0-9.8-1.9-11.3-13c-3.4,6.7-8,12.5-15,12.5
				c-8.8,0-13.1-7.8-13.1-18.8c0-18.5,7.6-38.5,21.7-38.5c5.6,0,9.4,3.7,11,8.6c0.6-2.4,1.3-4.6,2-6.4c0.8-2.5,2.5-3.7,4.2-3.7
				c2.2,0,4.2,2.3,3,6c-5.2,16.1-7.1,29.2-7.1,35.8c0,9.1,2.3,11.2,4.4,11.2c3.8,0,11.3-4.9,18.5-23.6c0.8-2.2,1.9-2.9,3.2-2.9
				C519.8,50.5,521.9,52.4,520.4,57z M485.4,51.8l0.2-1.1c-1.8,0.4-3.6-0.2-3.1-2.3c2.4-9.5,0.6-16.3-4-16.3
				c-8.5,0-14.4,18.5-14.4,30.1c0,10.4,2.5,14.2,5.8,14.2C475.6,76.4,482.9,64,485.4,51.8z"/>
			<path fill="#FBE069" d="M98.6,201.6c-7.6,17.9-17,25.4-26.9,25.6c-8.4,0-12.4-5.8-12.4-13.7c0-16.1,10.9-51,5.2-51
				c-5,0-25,23.4-33.1,59.3c-0.7,3.2-2.4,4.8-4.3,4.8c-2.5,0-4.2-1.8-3.4-5.8c3.2-14.8,16.7-69.6,10.3-69.6
				c-6.7,0-22,24.5-26.9,42.7c-1.6,5.9-8.5,3.1-7-2.3c7-24.2,23.2-47.5,34.6-47.5c6.8,0,8.5,7.2,8.5,11.2c0,7.6-1.1,13.7-4.2,27.4
				c9.1-17.6,19.1-27.2,26.4-27.2c5.4,0,8.2,3.8,8.3,11.8c0.1,10.3-6.8,34-6.8,45.1c0,6.5,1.7,8.2,5,8.2c4.9-0.1,13.1-5.9,20.2-22.6
				C94.4,192.5,101.4,195,98.6,201.6z"/>
			<path fill="#FBE069" d="M99.5,211.1c0,6,1.6,9,3.8,9c2.9,0,9.8-2.2,19.8-24.8c0.7-1.7,1.9-2.6,3.4-2.6c1.8,0,3.8,1.9,2.5,5.4
				c-9.2,24.6-20,28.7-26.2,28.7c-8.2,0-10.7-7.2-10.7-14.5c0-12,2.6-24.8,6-37.4c1.7-6.1,9.1-4.6,7.3,2
				C101.5,190.8,99.5,203.5,99.5,211.1z M107.1,161.3c4.3,0,9.2-3.1,9.2-9.1c0-4.4-3.1-8.6-8.9-8.5c-5.3,0.1-8.6,4.1-8.6,9
				C98.9,158.4,102.7,161.3,107.1,161.3z M107.5,148.9c2,0,3.2,1.4,3.2,3.4c0,2.2-1.7,3.4-3.2,3.4c-2.4,0-3.2-1.6-3.2-3.4
				C104.3,150,106.1,148.9,107.5,148.9z"/>
			<path fill="#FBE069" d="M169.9,201.7c-5.8,14.2-18.2,25.7-31,25.7c-14.6,0-16.6-13.4-16.6-24.1c0-16.4,8.4-35.2,21.7-35.2
				c6.6,0,10.7,5.2,10.7,12.2c0,11.4-8.5,26.3-25.2,26.6c0.6,7.8,3.2,14.3,9.2,14c8.8-0.2,17.6-7.8,25.1-22.2c1-2.3,2.4-3.1,3.7-3.1
				C169.5,195.7,171.3,197.9,169.9,201.7z M129.6,200.9c12-0.4,18-13.1,18-19.3c0-5.2-1.9-6.8-4-6.8
				C136.9,174.7,130.4,188,129.6,200.9z"/>
			<path fill="#FBE069" d="M236.3,197.9c-13.4,26.9-23.8,29.8-29.6,29.8c-7.4,0-10.6-5.9-10.6-12.6c0-10.9,2.2-25.6,4.8-38.4h-2.2
				c-3.5,0-4.3-2-4.3-3.4c0-1.2,0.8-3,2.6-3.1l5.3-0.2c1.6-7.4,3.2-13.8,4.4-17.9c1.3-4.3,8.6-4.1,7,2.9c-1.1,4.7-2.3,9.6-3.5,14.6
				c4.4-0.1,9.2-0.2,14.3-0.5c2.8-0.1,4.3,1.1,4.3,3.4c0,1.2-1,3.2-4,3.4c-6.2,0.2-11.6,0.5-16.1,0.6c-3,14.2-5.3,28.1-5.3,37
				c0,5.3,1.1,7.7,4.3,7.7c2.8,0,11-4.2,22.9-26.8c0.7-1.3,2-2.4,3.5-2.4C236.4,191.9,238.2,194,236.3,197.9z"/>
			<path fill="#FBE069" d="M267.9,173.5c-2.5,13-7.2,37.7-10.4,54.4c1,0.1,1.9,0.2,2.9,0.4c6.2,1.1,4.1,7-0.8,6.1
				c-1.1-0.2-2.2-0.4-3.2-0.4l-1.9,9.6c-2,9.5-6.1,14.5-13.9,14.5c-5.6,0-10.3-4.2-10.3-10.2c0-13.4,10.3-18.8,20.3-19.9l3.2-17.2
				c-3.6,8.3-9,15.8-15.7,15.8c-8,0-9.4-6.4-9.4-14c0-12.1,3.5-31.9,6.7-41.2c0.6-1.8,2.3-2.9,4-2.9c2,0,3.8,1.7,3,5.5
				c-4.3,17.2-6.5,30.2-6.5,38c0,5.8,0.6,8,3,8c3,0,12.5-9.7,21.8-47.4c1-3.8,3.1-4.9,4.3-4.9C267.1,167.9,268.8,169.8,267.9,173.5z
				 M247.3,242.9l1.8-8.4c-7.6,1.8-11.6,7.4-11.6,13.1c0,3.1,2,4.1,3.7,4.1C244.3,251.6,246.5,247,247.3,242.9z"/>
			<path fill="#FBE069" d="M294.5,145.9c-4.8,19.7-12.4,52.9-12.4,66.5c0,5.3,1.1,7.7,4.3,7.7c2.8,0,11.5-3.5,22.9-26
				c0.7-1.3,2-2.4,3.5-2.4c2.2,0,4.3,2.3,2.4,6.1c-13.4,26.9-24.1,28.9-30,28.9c-7.4,0-10.6-5.9-10.6-12.6c0-19.6,9.8-59.5,12.8-71
				C288.6,138.7,296.1,139,294.5,145.9z"/>
			<path fill="#FBE069" d="M370.9,196.9c-5.9,16.6-16,29.9-26.3,29.9c-7.8,0-12.5-11.4-12.5-23c-10.3,17.6-14.9,23-19.9,23
				c-4.4,0-5.5-3.6-5.5-8c0-16.6,9.7-60.5,14.9-76.4c0.8-2.5,2.6-3.4,4.3-3.4c2.4,0,4,2.4,3,5.4c-7.6,24.7-14.5,61.7-15.2,75.1
				c5.8-7.1,15.7-23.4,24.1-43.9c0.4-0.7,2.3-1.3,4.4-1.3c3,0,6.4,1.2,6.4,4.7c0,4.9-7.2,11.3-9.8,15.7c-0.8,1.3,1.6,25.7,6.2,25.7
				c2.9,0,10-4.3,19.7-25.6c0.6-1.2,1.8-3,3.8-3C370.2,191.8,372.1,193.6,370.9,196.9z"/>
			<path fill="#FBE069" d="M397.2,190.6c0,18.6-8.3,36.1-21.5,36.1c-9.4,0-13.1-7.9-13.1-16.9c0-5.3,0.8-11,2.2-15.8
				c-0.4,0.1-0.7,0.2-1.1,0.2c-1.6,0-3.1-1.6-2.8-4.1c1.3-10.6,10.6-21.8,21.1-21.8C391.1,168.2,397.2,176.2,397.2,190.6z
				 M390,189.8c0-9.2-3.1-15.1-8.9-15.1c-4.3,0-9.5,5.2-12.2,11.5c0.5-0.2,1-0.4,1.4-0.4c2.2,0,4,2.2,2.8,5.2
				c-2.3,7.4-3.2,13.6-3.2,18.4c0,6.8,2.2,10.8,6.5,10.8C383.5,220.2,390,205.3,390,189.8z"/>
			<path fill="#FBE069" d="M439.7,145.9c-4.8,19.7-12.4,52.9-12.4,66.5c0,5.3,1.1,7.7,4.3,7.7c2.8,0,11.5-3.5,22.9-26
				c0.7-1.3,2-2.4,3.5-2.4c2.2,0,4.3,2.3,2.4,6.1c-13.4,26.9-24.1,28.9-30,28.9c-7.4,0-10.6-5.9-10.6-12.6c0-19.6,9.8-59.5,12.8-71
				C433.8,138.7,441.3,139,439.7,145.9z"/>
			<path fill="#FBE069" d="M516.9,201c-4.9,14.6-14.5,26.4-24.1,26.4c-4.7,0-9.8-1.9-11.3-13c-3.4,6.7-8,12.5-15,12.5
				c-8.8,0-13.1-7.8-13.1-18.8c0-18.5,7.6-38.5,21.7-38.5c5.6,0,9.4,3.7,11,8.6c0.6-2.4,1.3-4.6,2-6.4c0.8-2.5,2.5-3.7,4.2-3.7
				c2.2,0,4.2,2.3,3,6c-5.2,16.1-7.1,29.2-7.1,35.8c0,9.1,2.3,11.2,4.4,11.2c3.8,0,11.3-4.9,18.5-23.6c0.8-2.2,1.9-2.9,3.2-2.9
				C516.3,194.5,518.5,196.4,516.9,201z M482,195.8l0.2-1.1c-1.8,0.4-3.6-0.2-3.1-2.3c2.4-9.5,0.6-16.3-4-16.3
				c-8.5,0-14.4,18.5-14.4,30.1c0,10.4,2.5,14.2,5.8,14.2C472.2,220.4,479.5,208,482,195.8z"/>
			<path fill="#FBE069" d="M550.5,197.9c-13.4,26.9-23.8,29.8-29.6,29.8c-7.4,0-10.6-5.9-10.6-12.6c0-10.9,2.2-25.6,4.8-38.4H513
				c-3.5,0-4.3-2-4.3-3.4c0-1.2,0.8-3,2.6-3.1l5.3-0.2c1.6-7.4,3.2-13.8,4.4-17.9c1.3-4.3,8.6-4.1,7,2.9c-1.1,4.7-2.3,9.6-3.5,14.6
				c4.4-0.1,9.2-0.2,14.3-0.5c2.8-0.1,4.3,1.1,4.3,3.4c0,1.2-1,3.2-4,3.4c-6.2,0.2-11.6,0.5-16.1,0.6c-3,14.2-5.3,28.1-5.3,37
				c0,5.3,1.1,7.7,4.3,7.7c2.8,0,11-4.2,22.9-26.8c0.7-1.3,2-2.4,3.5-2.4C550.7,191.9,552.5,194,550.5,197.9z"/>
			<path fill="#FBE069" d="M591.9,201.7c-5.8,14.2-18.2,25.7-31,25.7c-14.6,0-16.6-13.4-16.6-24.1c0-16.4,8.4-35.2,21.7-35.2
				c6.6,0,10.7,5.2,10.7,12.2c0,11.4-8.5,26.3-25.2,26.6c0.6,7.8,3.2,14.3,9.2,14c8.8-0.2,17.6-7.8,25.1-22.2c1-2.3,2.4-3.1,3.7-3.1
				C591.6,195.7,593.4,197.9,591.9,201.7z M551.6,200.9c12-0.4,18-13.1,18-19.3c0-5.2-1.9-6.8-4-6.8
				C558.9,174.7,552.5,188,551.6,200.9z"/>
			<path fill="#FBE069" d="M680.4,198.4c-10.8,24.4-21,28.2-26.9,28.2c-7.1,0-9.2-7-9.2-15.2c0-3.5,0.4-7.1,0.8-10.6
				c-6,15.5-13.3,25.9-20.5,25.9c-6.4,0-8.4-6.8-8.4-15.5c0-4.8,0.6-10.4,1.6-15.7c-8.5,24-15.7,31.9-22.9,31.9
				c-7.9,0-9.5-7.6-9.5-15.8c0-13.3,4.3-32.6,7.4-40.8c0.7-1.8,2.3-2.8,3.8-2.8c2.2,0,4.2,1.8,3.1,5.6c-5.5,20-7.3,32.6-7.3,39.4
				c0,5.6,1.3,7.6,2.9,7.6c7.8,0,19.9-38.9,22.9-44.2c1-1.7,2.6-2.6,4.7-2.6c2.9,0,5.6,2.5,4.7,7.1c-3,14.9-4.3,25.4-4.3,31.8
				c0,5,0.8,7.6,2.3,7.6c4.2,0,13.2-20.2,19.6-37.1c0.8-2.2,2.9-3.5,4.9-3.5c2.5,0,5.2,2,4.3,6.5c-1.8,9.8-3,19.3-3,25.7
				c0,5.2,0.7,8.4,2.9,8.4c4.2,0,11.9-6.8,20.5-25.1c0.8-1.6,2.2-2.5,3.5-2.5C680.3,192.6,682.1,194.4,680.4,198.4z"/>
		</g>
	</g>
</g>
<g id="Layer_2">
</g>
</svg>
