<?xml version="1.0" encoding="utf-8"?>
<!-- Generator: Adobe Illustrator 19.2.1, SVG Export Plug-In . SVG Version: 6.00 Build 0)  -->
<svg version="1.1" xmlns="http://www.w3.org/2000/svg" xmlns:xlink="http://www.w3.org/1999/xlink" x="0px" y="0px"
	 viewBox="0 0 908.7 232.6" enable-background="new 0 0 908.7 232.6" xml:space="preserve">
<g id="Layer_1">
	<g>
		<path fill="#E65C4B" d="M272.9,0l1.2,1.3v60.6h7.8V1.2l1.2-1.2h34.2l1.2,1.3v54l-18.6,18h-43.8l-18.6-18V1.2l1.2-1.2H272.9z"/>
		<path fill="#E65C4B" d="M361.7,55.7v16.4l-1.2,1.2h-34.2l-1.2-1.2V1.2l1.2-1.2h66l15,14.4v22.9l-9.5,9.4l9.5,1.2v24.2l-1.2,1.2
			h-28.4L361.7,55.7z M361.7,44.3h7.8V11.4h-7.8V44.3z"/>
		<path fill="#E65C4B" d="M489.5,0l4.8,4.8v19.8l-1.2,1.2h-34.2l-1.2-1.2V11.4h-7.8v19.2h34.2l11.4,10.8v21.1l-11.4,10.8h-70.8
			l-1.2-1.2V55.2l1.2-1.2h44.4v-5.4h-34.1l-11.5-10.8V10.7L423.5,0H489.5z"/>
		<path fill="#E65C4B" d="M536.3,0l1.2,1.3v60.6h7.8V1.2l1.2-1.2h34.2l1.2,1.3v54l-18.6,18h-43.8l-18.6-18V1.2l1.2-1.2H536.3z"/>
		<path fill="#E65C4B" d="M664.7,0l4.8,4.8v19.8l-1.2,1.2h-34.2l-1.2-1.2V11.4h-7.8v19.2h34.2l11.4,10.8v21.1l-11.4,10.8h-70.8
			l-1.2-1.2V55.2l1.2-1.2h44.4v-5.4h-34.1l-11.5-10.8V10.7L598.7,0H664.7z"/>
		<path fill="#E65C4B" d="M25.8,144l18.8,13.2l4.6-13.2h30.6l1.2,1.3v70.8l-1.2,1.2H45.6l-1.2-1.2V177l-7.8-4.7v43.8l-1.2,1.2H1.2
			L0,216.1v-70.9l1.2-1.2H25.8z"/>
		<path fill="#E65C4B" d="M130.2,171l1.2,1.2v27h7.8l1.2,1.2v15.7l-1.2,1.2H87l-1.2-1.2v-15.7l1.2-1.2h7.8v-10.1H87l-1.2-1.2v-15.7
			L87,171H130.2z M130.2,144l1.2,1.2v19.2l-1.2,1.2H94.8l-1.2-1.2v-19.2l1.2-1.2H130.2z"/>
		<path fill="#E65C4B" d="M143.4,202.9v-28.1l15-14.4h52.2l15,14.4v17.8l-1.2,1.2h-43.2v5.4h43.2l1.2,1.2v15.7l-1.2,1.2h-66
			L143.4,202.9z M181.2,186.6h7.8v-15.4h-7.8V186.6z"/>
		<path fill="#E65C4B" d="M266.3,160.4l10.3,10.3v-25.6l1.2-1.2H312l1.2,1.2v70.9l-1.2,1.2h-30.5l-4.7-10.6l-10.6,10.6H246l-15-14.4
			v-28.1l15-14.4H266.3z M268.8,202h7.8v-26.2h-7.8V202z"/>
		<path fill="#E65C4B" d="M372,160.4l1.2,1.2v19l-15.1,15H372l1.2,1.2v19.3l-1.2,1.2h-52.8l-1.2-1.2v-19l15.1-15h-13.9L318,181
			v-19.3l1.2-1.2H372z M363.4,132.8v3.6l-6.1,20.4H332l6.1-24H363.4z"/>
		<path fill="#E65C4B" d="M413.6,160.4l1.2,1.2v43.1h7.3v-43.1l1.2-1.2h35l1.2,1.2v43.1h7.3v-43.1l1.2-1.2h35l1.2,1.2v29.3
			l-15.1,26.4h-40.4l-8-13.9l-7.9,13.9h-40.3l-15.1-26.4v-29.3l1.2-1.2H413.6z"/>
		<path fill="#E65C4B" d="M551.8,171l1.2,1.2v27h7.8l1.2,1.2v15.7l-1.2,1.2h-52.2l-1.2-1.2v-15.7l1.2-1.2h7.8v-10.1h-7.8l-1.2-1.2
			v-15.7l1.2-1.2H551.8z M551.8,144l1.2,1.2v19.2l-1.2,1.2h-35.4l-1.2-1.2v-19.2l1.2-1.2H551.8z"/>
		<path fill="#E65C4B" d="M615.5,160.4h30.5l1.2,1.2v54.5l-1.2,1.2h-30.5l-4.7-10.6l-10.6,10.6H580l-15-14.4v-28.1l15-14.4h20.3
			l10.6,10.7L615.5,160.4z M602.8,202h7.8v-26.2h-7.8V202z"/>
		<path fill="#E65C4B" d="M688.4,160.4l10.3,10.3v-25.6l1.2-1.2h34.2l1.2,1.2v70.9l-1.2,1.2h-30.5l-4.7-10.6l-10.6,10.6h-20.3
			l-15-14.4v-28.1l15-14.4H688.4z M691,202h7.8v-26.2H691V202z"/>
		<path fill="#E65C4B" d="M740.2,202.9v-28.1l15-14.4h52.2l15,14.4v17.8l-1.2,1.2H778v5.4h43.2l1.2,1.2v15.7l-1.2,1.2h-66
			L740.2,202.9z M778,186.6h7.8v-15.4H778V186.6z"/>
		<path fill="#E65C4B" d="M907.5,160.4l1.2,1.2v14.3l-11.2,12.4l11.2,12.5v30.6l-1.2,1.2h-30.6l-1.2-1.2l-5-33.8h-6.4v18.6l-1.2,1.2
			H829l-1.2-1.2v-70.9l1.2-1.2h34.2l1.2,1.2v34.3h7.8v-17.9l1.2-1.2H907.5z"/>
	</g>
</g>
<g id="Layer_2">
</g>
</svg>
