<?xml version="1.0" encoding="utf-8"?>
<!-- Generator: Adobe Illustrator 19.2.1, SVG Export Plug-In . SVG Version: 6.00 Build 0)  -->
<svg version="1.1" xmlns="http://www.w3.org/2000/svg" xmlns:xlink="http://www.w3.org/1999/xlink" x="0px" y="0px"
	 viewBox="0 0 871.9 524.3" enable-background="new 0 0 871.9 524.3" xml:space="preserve">
<g id="Layer_1">
	<g>
		<path fill="#474A59" d="M161.8,90.4c-11,0.7-23.5,0.2-37.4-0.5c-2.4-5.4-4.9-11.4-7.4-18.1l-21.1,0.8c-1.7,6.4-3.2,12.2-4.3,17.3
			c-5,0.6-9.6,0.6-15.5,0c1.4-4.8,3.4-10.4,5.6-16.8c-8.8,0-13.2-4.2-12.6-12.4c2.4-0.2,5-0.4,17,0.2c4.7-12.4,10-25.7,14.9-37.8
			c-3.4-6.5-8.4-9.4-13.2-10C90.6,5.4,100.1,0,111.8,0c11.6,0,20.4,5.2,23.8,15.6C148.6,57,155,74.9,161.8,90.4z M113.6,62.5
			c-2.5-7.4-5.2-15.6-7.9-24.6c-2.3,7.9-4.7,16-6.8,23.8C103.1,61.9,107.9,62.2,113.6,62.5z"/>
		<path fill="#474A59" d="M258.5,64.4c0,16.9-18.7,27.8-55.6,27.8c-6.4,0-13.3-0.4-20.6-1.1c-4.3,0-8.5-0.5-12.6-1.3
			c-0.4-7.9-0.6-22.2-0.6-38.6c0-31.1-0.7-39.7-1.9-42.8c14.4-5.3,28.8-8,41.3-8c27.4,0,41,10.1,41,23.3c0,8.5-6.4,15.2-16.6,19
			C250.8,45.7,258.5,53.6,258.5,64.4z M208.1,12.1c-0.8,0-1.7,0-2.5,0.1c-0.2,9.7-0.4,19.7-0.5,29.2c2.6-0.1,5.3-0.2,8.4-0.2h1.3
			c4.2-3.4,6.6-9.1,6.6-14.8C221.4,19.2,217.1,12.1,208.1,12.1z M222.4,66c0-11.2-6.1-15.5-17.3-15c0,12.2,0.1,23.3,0.4,31.2
			C217,83.3,222.4,78.6,222.4,66z"/>
		<path fill="#474A59" d="M341.6,67.2c2.5,1.7,4.7,4.7,5.5,7.9c-7.6,9.6-20.4,17.2-38.8,17.2c-28.7,0-45.6-19.6-45.6-47.4
			c0-28.4,19.1-44.8,48.1-44.8c23.6,0,35.3,10.4,35.4,21.1c0,11.5-13.8,20.5-27.8,16.8c2.8-17.2-2.9-26.6-9.2-26.6
			c-5.5,0-10.7,6.6-10.7,24.1c0,27.7,7.9,39.5,23,39.5C328.6,75,336,71.9,341.6,67.2z"/>
		<path fill="#474A59" d="M445.5,47.4c0,26.2-15.7,45-50.9,45c-13.8,0-27.8-1-40.1-2.5c-0.4-7.9-0.6-22.2-0.6-38.6
			c0-31.1-0.7-39.7-1.9-42.8C364.5,4,382.6,0,398,0C427,0,445.5,19,445.5,47.4z M409.8,48.6c0-27.8-8.6-38-17.2-38
			c-0.7,0-1.6,0-2.3,0.1c-0.6,26-0.6,55.1-0.1,71.3c1.2,0.1,2.3,0.1,3.4,0.1C404.3,82.1,409.8,75.6,409.8,48.6z"/>
		<path fill="#474A59" d="M524.4,90.1c-23.5,1.1-46.6,0.6-69.5-0.6c-0.7-14.2-0.8-50.6-0.1-85.6c28.1-3.6,51.6-4.1,70.3-2.2
			c1,5,0,11.3-1.9,14.9c-10.4-1.6-20.4-2.6-32.5-3.1c-0.2,10-0.2,19.7-0.4,28.8l26-1.1c0.8,5-0.1,11.3-2,14.9l-24-2.9
			c0,8.8,0.1,16.7,0.2,23.3c14.8-0.4,27.4-2,35.9-4.2C527.9,77,527.6,85.8,524.4,90.1z"/>
		<path fill="#474A59" d="M569.9,13.6c-0.2,10.7-0.4,21.4-0.4,31.2l26-1.1c0.8,5-0.1,11.3-2,14.9l-24-2.9c0,14.3,0.2,26.2,0.6,32.9
			c-10.9,2.8-24,3.5-36,1c-0.7-14.2-0.8-50.6-0.1-85.6c28.1-3.6,51.6-4.1,70.3-2.2c1,5,0,11.3-1.9,14.9C592,15.1,582,14,569.9,13.6z
			"/>
		<path fill="#474A59" d="M694,82.4c-15.6,7.6-27.5,9.8-39.7,9.8c-33.4,0-49.3-19.6-49.3-47.4c0-28.4,19.3-44.8,48.7-44.8
			c23.4,0,35.2,10.4,35.2,21.1c0,11.5-13.8,20.5-27.8,16.8c2.8-17.4-2.9-26.9-9.2-26.9c-6,0-11.6,6.6-11.6,24.4
			c0,30.6,8.2,43.4,19.8,43.4c4.8,0,7-2,6.8-7.3c0-4.1-0.1-8.5-0.5-13.6l-9-0.4c-1.3-3.6-1.7-6.8-1.2-9.8c11-3,22.7-4.6,36.5-5
			C692.6,64.4,692.9,76.6,694,82.4z"/>
		<path fill="#474A59" d="M794.3,88.6c-10.9,2.9-24,3.7-36,1.3c-0.4-7.3-0.6-20.3-0.6-36h-16.9c0,15.1,0.2,27.6,0.6,34.7
			c-10.9,2.9-24,3.7-36,1.3c-0.7-14.5-0.8-51-0.1-87.5c6.2-1.3,13.2-2,20.3-2c5.4,0,10.8,0.4,15.8,1.1c-0.4,13.4-0.5,27.2-0.6,39.8
			h16.9c0.1-12.2,0.2-25.6,0.5-38.9c6.2-1.3,13.2-2,20.3-2c5.4,0,10.8,0.4,15.8,1.1C793.5,37,793.6,74.2,794.3,88.6z"/>
		<path fill="#474A59" d="M45.6,232.6c-10.6,2.9-23.2,3.7-34.8,1.3c-0.5-8.9-0.8-27.6-0.7-47.2H1.2c-1.2-3-1.4-6.2-1-9.7
			c12.8,0.2,28.1,0.2,45,0.4C44.9,199.7,45,223,45.6,232.6z M8,154.2c0-11.5,7.4-18.8,20.4-18.8c13.3,0,20,7.4,20,18.5
			c0,11.6-7.4,18.8-20.4,18.8C14.8,172.7,8,165.2,8,154.2z"/>
		<path fill="#474A59" d="M49.9,177c12.8,0.2,28.1,0.2,45,0.4c0,15.1-0.1,29.9-0.1,45.6c0,24.6-10.8,36.1-26.9,36.1
			c-3.5,0-7.3-0.6-11.3-1.7c2.4-6.1,3.2-12.1,3.2-28.3c0-13.9,0-28.1,0.1-42.4h-9.1C49.7,183.7,49.4,180.5,49.9,177z M57.8,154.2
			c0-11.5,7.4-18.8,20.4-18.8c13.3,0,20,7.4,20,18.5c0,11.6-7.4,18.8-20.4,18.8C64.6,172.7,57.8,165.2,57.8,154.2z"/>
		<path fill="#474A59" d="M166.1,236.2c-16.3-0.1-23.8-18-24.6-34.3c-0.6,0-1.1,0.1-1.7,0.1c0.1,13.1,0.2,24.1,0.6,30.6
			c-10.6,2.9-23.2,3.7-34.8,1.3c-0.7-15.6-0.8-54.2-0.1-87.5c6.2-1.4,12.6-2,19.2-2c5.2,0,10.4,0.4,15.7,1.1
			c-0.5,16.8-0.6,35.3-0.6,51.2c12.6-1.1,16.9-15.4,13.3-31c6.8-4.3,21.5-6.6,29.2-3.8c5,21.7-9.7,35.5-32.4,39.1
			c6.4,4.2,21.7,4.2,33-2.4C191.7,212.2,185.1,236.3,166.1,236.2z"/>
		<path fill="#474A59" d="M228.3,232.6c-10.6,2.9-23.2,3.7-34.8,1.3c-0.7-15.6-0.8-54.2-0.1-87.5c6.2-1.4,12.6-2,19.2-2
			c5.2,0,10.4,0.4,15.7,1.1C227.5,178.4,227.6,217.6,228.3,232.6z"/>
		<path fill="#474A59" d="M368.6,232.6c-10.9,2.9-24.6,3.5-36.2,1.3c-0.5-13.2-0.5-34.4-0.5-44.8c0-6.5-2.4-9.1-5.9-9.1
			c-2.4,0-4.9,1.7-6.2,4.1v2.6c0,11.8,0,35.6,1.9,45.8c-10.9,2.9-24.6,3.5-36.2,1.3c-0.5-13.2-0.5-34.4-0.5-44.8
			c0-6.5-2.4-9.1-5.9-9.1c-2.3,0-4.7,1.4-6.1,3.7c-0.1,19.8,0.1,40.1,0.6,48.8c-10.6,2.9-23.2,3.7-34.8,1.3
			c-0.6-12.5-1.1-43.3-0.4-69.8c11.2-2.5,22.8-2.4,34.9-1c-0.1,4.4-0.2,9.1-0.2,14c4.3-10.4,15.5-17.6,27-17.6
			c10.8,0,17.4,6.1,19.2,19.4c3.8-11.4,15.6-19.4,27.7-19.4c12.7,0,19.7,8.5,19.7,27.2C366.7,198.5,366.7,222.4,368.6,232.6z"/>
		<path fill="#474A59" d="M460.8,232.6c-10.9,2.9-24.6,3.5-36.2,1.3c-0.5-13.2-0.5-34.4-0.5-44.8c0-6.5-2.4-9.1-5.9-9.1
			c-2.3,0-4.7,1.4-6.1,3.7c-0.1,19.8,0.1,40.1,0.6,48.8c-10.6,2.9-23.2,3.7-34.8,1.3c-0.6-12.5-1.1-43.3-0.4-69.8
			c11.2-2.5,22.8-2.4,34.9-1c-0.1,4.4-0.2,9.1-0.2,14c4.3-10.4,15.5-17.6,27-17.6c12.7,0,19.7,8.5,19.7,27.2
			C458.9,198.5,458.9,222.4,460.8,232.6z"/>
		<path fill="#474A59" d="M507.6,159.5c26.3,0,40.7,14.2,40.7,38.2c0,21-12.7,38.6-41.9,38.6c-26.3,0-40.7-14.2-40.7-38.2
			C465.7,177.1,478.3,159.5,507.6,159.5z M513.8,209.2c0-26.5-3.8-39.5-8.9-39.5c-3.2,0-4.8,5.4-4.8,16.4c0,15.1,2.3,39.8,8.9,39.8
			C512.4,226,513.8,220.4,513.8,209.2z"/>
		<path fill="#474A59" d="M639.3,196.9c0,24.7-13.7,39.4-30.7,39.4c-7.1,0-12.6-2.5-17.9-7.9c0.2,11.3,0.7,20.8,1.4,26.5
			c-11.8,3.1-24.4,4-36,1.6c-0.5-16.6-1-57.4-0.4-92.4c11.2-2.5,22.8-2.4,34.9-1c-0.1,4.7-0.1,9.6-0.2,14.6
			c2.3-9.8,11.3-18.2,22.4-18.2C628.1,159.5,639.3,174.5,639.3,196.9z M604.8,199.9c0-14.5-4.4-20.9-8.6-20.9c-2,0-4.2,1.2-5.6,3
			c-0.1,13-0.1,26.5,0.1,38.6c1.1,0.5,2.2,0.7,3.4,0.7C600.1,221.4,604.8,214.9,604.8,199.9z"/>
		<path fill="#474A59" d="M728.3,254.9c-11.8,3.1-24.4,4-36,1.6c-0.2-8.2-0.5-22-0.6-38.2c-2.4,9.8-11.3,18-22.3,18
			c-15.1,0-26.4-15-26.4-37.4c0-24.7,13.7-39.4,30.7-39.4c8,0,14.2,3.2,20,10.3c0.8-3.2,2-5.2,3.6-6.6c8.8-1.4,19.2-1.6,29.5-0.1
			C726.2,195,726.3,239.2,728.3,254.9z M691.7,213.8v-9.7c0-13.6,0.2-22.4,1-28.6c-1.3-0.8-2.9-1.2-4.3-1.2
			c-6.1,0-10.8,6.5-10.8,21.5c0,14.5,4.4,20.9,8.6,20.9C688.1,216.7,690.2,215.5,691.7,213.8z"/>
		<path fill="#474A59" d="M803.7,175.9c0,5.5-1.4,12.2-4.8,19.6c-7-3.8-20.3-3.5-27.8,1.2c0,15.6,0.1,28.7,0.6,35.9
			c-10.6,2.9-23.2,3.7-34.8,1.3c-0.6-12.5-1.1-43.3-0.4-69.8c11.2-2.5,22.8-2.4,34.9-1c-0.2,9.1-0.4,18-0.4,26.4
			c3.6-19.9,11.9-30,21.4-30C799.1,159.5,803.7,165.8,803.7,175.9z"/>
		<path fill="#474A59" d="M836.4,228.1c2.2,0,3.5-1.2,3.5-3.2c0-10-33-24.6-33-44.8c0-12.4,12.5-20.6,33.6-20.6
			c20.5,0,27.5,7.2,27.5,13.7c0,6.1-6.2,11.9-11.5,13.6c-5-12.8-13.6-19.9-17.9-19.9c-1.7,0-2.5,1.1-2.5,2.4
			c0,8.4,35.9,27,35.9,44.6c0,15-17.3,22.4-37.3,22.4c-16.2,0-29-5.9-29-15.2c0-6.2,5.8-12.5,12-14.4
			C825.2,223.1,832.2,228.1,836.4,228.1z"/>
		<path fill="#474A59" d="M210.8,366.8c-4.7,7.3-13.7,13.6-27.4,13.6c-18.5,0-27.8-11.5-27.8-31.4v-27.7c-2.3,0.2-4.6,0.4-6.7,0.6
			c-1.2-3-1.4-6.2-1-9.7l9.7-0.7c2-8,4.7-15.8,7.1-21c7.8-2.5,18.2-2.5,26.2-1c-0.2,6.8-0.4,14-0.5,21.1c5.9-0.1,11.9-0.2,18.1-0.5
			c0.8,3.1,1,6.4,0,9.8c-6.2-0.2-12.4-0.4-18.1-0.2c-0.1,12-0.1,23.8,0,33.8c0.1,8.2,2.8,11.6,7.7,11.6c2.8,0,5.4-1.1,7.9-3.5
			C208,362.5,210.3,364.7,210.8,366.8z"/>
		<path fill="#474A59" d="M299.3,377.3c-11.2,2.5-22.8,2.4-34.9,1c0.1-4.4,0.2-9.1,0.2-14c-4.3,10.4-15.5,17.6-27,17.6
			c-12.7,0-19.7-8.5-19.7-27.2c0-11.8,0-35.6-1.9-45.8c10.9-2.9,24.6-3.5,36.2-1.3c0.5,13.2,0.5,34.4,0.5,44.8
			c0,6.5,2.4,9.1,5.9,9.1c2.3,0,4.7-1.4,6.1-3.7c0.1-19.8-0.1-40.1-0.6-48.8c10.6-2.9,23.2-3.7,34.8-1.3
			C299.6,319.9,300,350.8,299.3,377.3z"/>
		<path fill="#474A59" d="M376.7,312.8c0,8.5-7.3,33.2-19,65c-10.2,1.6-20.2,1.9-30.1,1.6l-22.2-70.7c10.8-2.3,23-3.2,36.1-2.9
			c3.1,7.4,9.2,33.5,13.7,59.4c4.6-20.4,6.4-49,2.9-57.8c3.4-1.9,6.5-3,9.8-3C373.6,304.4,376.7,307.3,376.7,312.8z"/>
		<path fill="#474A59" d="M496.5,312.8c0,8.5-7.2,33.2-18.8,65c-10.2,1.6-20.2,1.9-30.1,1.6l-10.8-40.9l-10.4,39.4
			c-10.2,1.6-20.2,1.9-30.1,1.6l-18.6-70.7c10.8-2.3,23-3.2,36.1-2.9c2.3,7.4,6.6,33.1,10,58.9c1.9-23.6,4.2-48.1,5.3-56
			c10.8-2.3,23-3.2,36.1-2.9c2.3,7.4,6.7,33.8,10.1,59.9c4.7-20.4,6.5-49.3,2.9-58.3c3.4-1.9,6.4-3,9.7-3
			C493.5,304.4,496.5,307.3,496.5,312.8z"/>
		<path fill="#474A59" d="M577.4,374.6c-11.5,2.3-24.5,3.2-38.4,2.9c-2.9-3.1-7.6-12.5-11.9-23.2c-4.2,10.4-8.5,19.9-10.2,22.1
			c-5.3,1.4-11.3,1.8-18.7,1.3l23.8-32.4l-26.2-36.6c11.5-2.3,24.5-3.2,38.4-2.9c2.8,3,7.1,11.6,11.3,21.7c4-9.8,8-18.6,9.6-20.6
			c5.3-1.4,11.3-1.8,18.7-1.3l-23.3,31.6L577.4,374.6z"/>
		<path fill="#474A59" d="M649.2,315.8c-0.4,10.7-8.5,39.5-16.7,57.4c-8.6,18.1-19.7,29.8-33.6,29.9c-15.2,0.1-24.4-14.3-19.2-30.1
			c16.6,5.3,35.5,4.6,42.1,0.7c-8.6-0.4-16.4-1.2-24-2.6l-20.6-62.3c10.9-2.3,23.2-3.2,36.2-2.9l13.8,61c6.6-23.4,5.5-49.9,1.3-59.4
			c3.4-1.8,6.7-2.5,9.7-2.5C647.1,304.9,649.5,309.5,649.2,315.8z"/>
		<path fill="#474A59" d="M721.7,377.9h-66.5c-1.8-1.9-3.4-5.3-4-7.7c10-19.8,20.8-39.1,31.8-58.2l-27.7,11.6
			c-2.3-4.4-3.6-12.7-2.8-17.8c22.1-0.7,43.9-0.6,65.6,0c2,2,3.5,4.7,4,7.7c-9.5,19-19.7,37.4-30.4,55.7l30.8-8.6
			C724.5,365.2,723.8,373.4,721.7,377.9z"/>
		<path fill="#474A59" d="M123,521.9H58.1c-1.2-2.4-1.6-5.6-1.2-9.6c5.2-0.5,10.6-0.7,16.2-1c-0.5-10.3-1-24.5-1-39.2
			c0-4.2,0.6-8.6,2-13.7c-10.7,9.2-24.7,4.3-20.8-10.7c14.9,2,28.3-1.1,37-9.7l4.6-6c3.1-0.4,7.7,0.1,10.3,1.4
			c0.5,29,1.4,59.2,2.5,77.2l14.9-0.4C123.6,514,123.8,517.3,123,521.9z"/>
		<path fill="#474A59" d="M193.9,508.3c0,8.5-5.6,14.8-13,14.6l-51.4-1c-0.8-0.4-1.6-1.1-2-1.9c1.1-23.8,32.8-35.6,32.8-63.1
			c0-11.5-4.1-16.9-7.4-16.9c-4.2,0-8.9,8.3,1,27.6c-14.9,7.6-28.9,1.3-28.9-11.6c0-13.6,13.7-24,31.2-24
			c23.2,0,37.3,13.1,37.3,27.1c0,19.1-26.9,28.6-48.5,39.2c4.9-0.2,11.3-0.5,20.4-0.2c12.2,0.2,17.5-0.8,20.4-3.2
			C190.8,496.8,193.9,502,193.9,508.3z"/>
		<path fill="#474A59" d="M270.2,497.9c0,19.1-16,26.4-36.7,26.4c-25.1,0-33.2-10.1-33.2-20c0-12,10-17.5,22.9-13.4
			c-3.1,15,1.7,25.7,7.9,25.7c4.9,0,6.6-5.8,6.6-13.9c0-12.6-3.8-20.4-15-19.6c-2.2-2.8-3-5.5-2.9-8.6c11.5-3.4,16.2-7.6,16.2-19.3
			c0-10.9-3.1-15-6.8-15c-4.3,0-7.4,5.5-0.4,24.4c-16.1,6.6-25.6,1-25.8-10.9c-0.2-10.8,10.6-21.5,29.8-21.5
			c20,0,33.4,8.3,33.2,20.6c0.1,8.4-4.8,17.4-18.5,22C262.3,475.2,270.2,483.5,270.2,497.9z"/>
		<path fill="#474A59" d="M346.4,521.9h-69.7c-1.2-2.5-1.6-4.6-1.2-7.8c5.8-0.5,12-0.7,18.6-1c-0.2-2.3-0.5-5.3-0.6-9.4l-18.4,0.4
			c-0.7-2.4-1-4.8-1-6.5c0-21.1,37.1-23.6,32-65.6c20.3-4.4,35.8,6.5,35.8,23.2c0,35.8-55.7,23.4-58.8,39.7
			c3.2-0.2,6.6-0.4,10.2-0.4V492c9.5-4.3,22.7-5.9,34.2-4.6l0.1,6.4l16.6-0.4c1,3,1.2,6.2,0.4,9.6c-5.5,0-11.2,0-16.7,0.1
			c0.2,4.1,0.4,7,0.6,9.2c5.6,0,11.5-0.1,17.5-0.4C347,515.2,347.3,518.6,346.4,521.9z"/>
		<path fill="#474A59" d="M419.7,497.2c0,16.9-13.7,27.1-36.5,27.1c-16.9,0-33.1-6.4-33.1-19.1c0-9.7,9.8-15.6,20.3-12.5
			c-1.1,14,3.4,24.6,10.4,24.6c4.1,0,6.4-4,6.4-12.6c0-16.7-8.6-26-21.7-22.1c-2.8-0.4-7.2-2.4-9.8-7.8l3.1-40.4
			c33.5,3,51.8,2.3,56.6-0.4c4.1,19.6-2.9,26.4-20.8,26.4c-7.6,0-16.8-0.7-27-1.9l-1.8,12.4c5.9-1.2,13.6-2,19.8-2
			C407.5,468.8,419.7,480.5,419.7,497.2z"/>
		<path fill="#474A59" d="M499.4,495.1c0,16.2-13,29.2-36.4,29.2c-24.8,0-38.8-17.2-38.8-41.3c0-28.4,15.1-50.4,43.1-50.4
			c18.1,0,29.2,7.7,29.2,17.5c0,9.1-9.4,14.3-20,13.6c-0.5-14-4-23.6-9.6-23.6c-4.6,0-8.5,5.8-8.5,33v0.1c3.8-3.1,8.9-4.8,14.8-4.8
			C487.7,468.4,499.4,480.1,499.4,495.1z M468.2,500.2c0-12.7-3-19.9-6.4-19.9c-1.1,0-2.2,0.5-3.4,1.6c0.5,22.4,2.9,33.4,6.1,33.4
			C466.9,515.2,468.2,509.6,468.2,500.2z"/>
		<path fill="#474A59" d="M544.2,485.4c0,13.1,9.5,20.6,18.5,16.8c-2.3,13.7-12.1,20.5-23,20.5c-13.7,0-24.1-10-24.1-23.6
			c0-16.9,13.7-31,41.4-42c-28-1.6-43.6,0.5-50.8,3.8c-2.6-22.2,4.4-28.7,25.1-28.7c10.8,0,24.1,0.8,38.5,2.3v0.2
			c1.1,4.4,0.2,19.3-2.6,26.5C548.9,469.8,544.2,475.9,544.2,485.4z"/>
		<path fill="#474A59" d="M610.3,523.1c-21.7,0-34.2-9.8-34.8-24.5c-0.5-10,5.8-19.3,18.2-22.7c-9.1-4.4-14.4-11.4-14.9-20.5
			c-0.7-13.9,10.9-23.9,32.6-23.9c19.9,0,31.1,9.1,31.8,22.9c0.4,7.9-4.6,15.7-14.3,19.1c10.4,5.2,16.6,13.3,17,24
			C646.7,512.4,634.1,523.1,610.3,523.1z M616.7,504.1c0-15.2-3.1-24.1-6.8-24.1c-2.6,0-4.8,4.2-4.8,13.6c0,15.2,3.1,24.1,6.7,24.1
			C614.5,517.7,616.7,513.5,616.7,504.1z M605.5,452c0,11.8,2.3,19,5.9,19c2.5,0,4.7-3.6,4.7-13.9c0-11.8-2.3-19-5.9-19
			C607.7,438.1,605.5,441.7,605.5,452z"/>
		<path fill="#474A59" d="M726.8,473.9c0,28.4-13.6,50.4-42.1,50.4c-18.2,0-29.8-7.7-29.8-18c0-9.5,9.6-15.8,21-11.8
			c-2.5,13.3,3.5,22.3,9.5,22.3c4.6,0,7.9-5.8,7.4-33c-3.8,3-8.8,4.7-14.6,4.7c-14.5,0-26.4-10.4-26.6-26.4
			c-0.2-16.9,12.7-29.5,35.8-29.5C712.7,432.6,726.8,449.8,726.8,473.9z M692.6,476.6c-0.8-23.5-3.2-34.9-6.5-34.9
			c-2.3,0-3.5,4.7-3.5,12.8c0,13.8,2.8,23.3,6.8,23.3C690.6,477.8,691.7,477.5,692.6,476.6z"/>
		<path fill="#474A59" d="M812.4,477c0,26.9-13.2,46.1-39.4,46.1c-24,0-38.4-17.6-38.4-44.2c0-27.7,13.2-47.5,39.4-47.5
			C798,431.4,812.4,449.6,812.4,477z M773.7,516.5c2.8,0,4.2-8.5,4.2-35.8c0-29.2-1.6-41.5-4.7-41.5c-2.8,0-4.2,8.6-4.2,35.9
			C769.1,504.4,770.6,516.5,773.7,516.5z"/>
	</g>
</g>
<g id="Layer_2">
</g>
</svg>
