<?xml version="1.0" encoding="utf-8"?>
<!-- Generator: Adobe Illustrator 19.2.1, SVG Export Plug-In . SVG Version: 6.00 Build 0)  -->
<svg version="1.1" xmlns="http://www.w3.org/2000/svg" xmlns:xlink="http://www.w3.org/1999/xlink" x="0px" y="0px"
	 viewBox="0 0 1156.2 248.6" enable-background="new 0 0 1156.2 248.6" xml:space="preserve">
<g id="Layer_1">
	<g>
		<path fill="#474A59" d="M91.7,41.3c0,23.3-22,38.6-53.8,33.4c0.1,10.9,0.4,20.2,0.6,25.8c-10.9,2.9-24,3.7-36,1.3
			c-0.4-7.9-0.6-22.2-0.6-38.6C1.9,32,1.2,23.4,0,19.9c15.7-4.9,31.4-7.7,47-7.7C76.1,12.2,91.7,21.6,91.7,41.3z M55.6,43.8
			c0-12.7-5.2-19.1-12.6-19.1c-1.6,0-3.4,0.2-4.7,0.6c-0.2,13.2-0.4,27.1-0.4,39.5C49.1,64.6,55.6,58.2,55.6,43.8z"/>
		<path fill="#474A59" d="M166,43.8c0,5.5-1.4,12.2-4.8,19.6c-7-3.8-20.3-3.5-27.8,1.2c0,15.6,0.1,28.7,0.6,35.9
			c-10.6,2.9-23.2,3.7-34.8,1.3c-0.6-12.5-1.1-43.3-0.4-69.8c11.2-2.5,22.8-2.4,34.9-1c-0.2,9.1-0.4,18-0.4,26.4
			c3.6-19.9,11.9-30,21.4-30C161.3,27.4,166,33.7,166,43.8z"/>
		<path fill="#474A59" d="M209.9,27.4c26.3,0,40.7,14.2,40.7,38.2c0,21-12.7,38.6-41.9,38.6C182.4,104.2,168,90,168,66
			C168,45,180.6,27.4,209.9,27.4z M216.1,77c0-26.5-3.8-39.5-8.9-39.5c-3.2,0-4.8,5.4-4.8,16.4c0,15.1,2.3,39.8,8.9,39.8
			C214.7,93.8,216.1,88.3,216.1,77z"/>
		<path fill="#474A59" d="M284.8,96c2.2,0,3.5-1.2,3.5-3.2c0-10-33-24.6-33-44.8c0-12.4,12.5-20.6,33.6-20.6
			c20.5,0,27.5,7.2,27.5,13.7c0,6.1-6.2,11.9-11.5,13.6c-5-12.8-13.6-19.9-17.9-19.9c-1.7,0-2.5,1.1-2.5,2.4
			c0,8.4,35.9,27,35.9,44.6c0,15-17.3,22.4-37.3,22.4c-16.2,0-29-5.9-29-15.2c0-6.2,5.8-12.5,12-14.4C273.6,91,280.6,96,284.8,96z"
			/>
		<path fill="#474A59" d="M393.2,101.8h-66.5c-1.8-1.9-3.4-5.3-4-7.7c10-19.8,20.8-39.1,31.8-58.2l-27.7,11.6
			c-2.3-4.4-3.6-12.7-2.8-17.8c22.1-0.7,43.9-0.6,65.6,0c2,2,3.5,4.7,4,7.7c-9.5,19-19.7,37.4-30.4,55.7l30.8-8.6
			C396,89,395.3,97.3,393.2,101.8z"/>
		<path fill="#474A59" d="M454,108.1c0,3.5,1.8,7.2,4.2,10.7c-5.4,3.8-16.4,7.9-27.6,9.1c-2.8-3.1-4.4-6.4-4.4-9.6
			c0-5.3,4.3-10.3,14.3-14.2h-1.8c-25.2,0-40.1-16-40.1-38.8c0-21.5,13.1-38,40.3-38c23.8,0,36.1,12.4,32.8,36.4h-38.3
			c1.1,16.4,7.1,25,17.8,25c5.8,0,12-2.4,17.2-6.1c2,1.3,3.8,3.7,4.4,6.2c-3.2,4.2-7.8,8.2-13.8,11C455.3,102.1,454,105.1,454,108.1
			z M433.1,55.6h9.7c1.7-16.9-1.8-19.1-4.6-19.1C434.9,36.5,433.2,40.2,433.1,55.6z"/>
		<path fill="#474A59" d="M594.5,41.3c0,23.3-22,38.6-53.8,33.4c0.1,10.9,0.4,20.2,0.6,25.8c-10.9,2.9-24,3.7-36,1.3
			c-0.4-7.9-0.6-22.2-0.6-38.6c0-31.1-0.7-39.7-1.9-43.2c15.7-4.9,31.4-7.7,47-7.7C578.9,12.2,594.5,21.6,594.5,41.3z M558.4,43.8
			c0-12.7-5.2-19.1-12.6-19.1c-1.6,0-3.4,0.2-4.7,0.6c-0.2,13.2-0.4,27.1-0.4,39.5C551.9,64.6,558.4,58.2,558.4,43.8z"/>
		<path fill="#474A59" d="M677.3,100.2c-10.2,3.7-24.6,4.1-36,1.6c-0.4-3.6-0.6-7.2-0.7-13.7c-3.7,10.7-14.6,16.1-23.8,16.1
			c-11.8,0-20.9-8.2-20.9-20.6c0-13.3,11.4-22,28-22c6.5,0,12.1,1.1,16.6,2.9v-2.2c0-20.4-3.4-25-7-25c-4.6,0-9.2,7-9.4,19
			c-16.8-0.1-24.1-7.1-24.1-13c0-7.6,12.1-16,39.1-16c23.8,0,36.1,11,36.1,35.5C675.2,83.3,675.7,94.7,677.3,100.2z M640.4,78.2
			v-6.5c-1.4-0.5-3-0.8-4.4-0.8c-4.8,0-7.8,3.1-7.8,7.6c0,3.7,1.9,6.5,5.3,6.5C636.5,85,639.7,82.9,640.4,78.2z"/>
		<path fill="#474A59" d="M769.3,100.4c-10.9,2.9-24.6,3.5-36.2,1.3c-0.5-13.2-0.5-34.4-0.5-44.8c0-6.5-2.4-9.1-5.9-9.1
			c-2.3,0-4.7,1.4-6.1,3.7c-0.1,19.8,0.1,40.1,0.6,48.8c-10.6,2.9-23.2,3.7-34.8,1.3c-0.6-12.5-1.1-43.3-0.4-69.8
			c11.2-2.5,22.8-2.4,34.9-1c-0.1,4.4-0.2,9.1-0.2,14c4.3-10.4,15.5-17.6,27-17.6c12.7,0,19.7,8.5,19.7,27.2
			C767.4,66.4,767.4,90.2,769.3,100.4z M706.2,26.3c-1.6-2.2-3.2-5.6-3.7-9.4c16.4-4.4,31.8-10.7,43.9-16.9
			c5.5,4.2,7.8,12.2,5.9,19.6C738.7,23,722.8,25.1,706.2,26.3z"/>
		<path fill="#474A59" d="M804.8,96c2.2,0,3.5-1.2,3.5-3.2c0-10-33-24.6-33-44.8c0-12.4,12.5-20.6,33.6-20.6
			c20.5,0,27.5,7.2,27.5,13.7c0,6.1-6.2,11.9-11.5,13.6c-5-12.8-13.6-19.9-17.9-19.9c-1.7,0-2.5,1.1-2.5,2.4
			c0,8.4,35.9,27,35.9,44.6c0,15-17.3,22.4-37.3,22.4c-16.2,0-29-5.9-29-15.2c0-6.2,5.8-12.5,12-14.4C793.7,91,800.6,96,804.8,96z"
			/>
		<path fill="#474A59" d="M906,90.7c-4.7,7.3-13.7,13.6-27.4,13.6c-18.5,0-27.8-11.5-27.8-31.4V45.1c-2.3,0.2-4.6,0.4-6.7,0.6
			c-1.2-3-1.4-6.2-1-9.7l9.7-0.7c2-8,4.7-15.8,7.1-21c7.8-2.5,18.2-2.5,26.2-1c-0.2,6.8-0.4,14-0.5,21.1c5.9-0.1,11.9-0.2,18.1-0.5
			c0.8,3.1,1,6.4,0,9.8c-6.2-0.2-12.4-0.4-18.1-0.2c-0.1,12-0.1,23.8,0,33.8c0.1,8.2,2.8,11.6,7.7,11.6c2.8,0,5.4-1.1,7.9-3.5
			C903.2,86.4,905.5,88.6,906,90.7z"/>
		<path fill="#474A59" d="M1027.3,36.7c0,8.5-7.2,33.2-18.8,65c-10.2,1.6-20.2,1.9-30.1,1.6l-10.8-40.9l-10.4,39.4
			c-10.2,1.6-20.2,1.9-30.1,1.6l-18.6-70.7c10.8-2.3,23-3.2,36.1-2.9c2.3,7.4,6.6,33.1,10,58.9c1.9-23.6,4.2-48.1,5.3-56
			c10.8-2.3,23-3.2,36.1-2.9c2.3,7.4,6.7,33.8,10.1,59.9c4.7-20.4,6.5-49.3,2.9-58.3c3.4-1.9,6.4-3,9.7-3
			C1024.3,28.3,1027.3,31.2,1027.3,36.7z"/>
		<path fill="#474A59" d="M1110.1,100.2c-10.2,3.7-24.6,4.1-36,1.6c-0.4-3.6-0.6-7.2-0.7-13.7c-3.7,10.7-14.6,16.1-23.8,16.1
			c-11.8,0-20.9-8.2-20.9-20.6c0-13.3,11.4-22,28-22c6.5,0,12.1,1.1,16.6,2.9v-2.2c0-20.4-3.4-25-7-25c-4.6,0-9.2,7-9.4,19
			c-16.8-0.1-24.1-7.1-24.1-13c0-7.6,12.1-16,39.1-16c23.8,0,36.1,11,36.1,35.5C1108.1,83.3,1108.5,94.7,1110.1,100.2z M1073.3,78.2
			v-6.5c-1.4-0.5-3-0.8-4.4-0.8c-4.8,0-7.8,3.1-7.8,7.6c0,3.7,1.9,6.5,5.3,6.5C1069.3,85,1072.5,82.9,1073.3,78.2z"/>
		<path fill="#474A59" d="M1136.6,65.8c12.1,0,19.6,8.6,19.6,21.1c0,16.6-14,34.6-30.1,38.6c-1.8-1.3-3.7-3.7-4.1-6.4
			c5.2-2.8,8.9-9.2,8.9-13c0-3.1-2.5-4.3-5.5-5.8c-4.3-1.9-9.6-4.4-9.6-13.9C1115.7,74.3,1124.1,65.8,1136.6,65.8z"/>
		<path fill="#474A59" d="M377.8,201.1c0,27.5-16.1,47.2-47.9,47.2c-29.2,0-46.7-18.1-46.7-45.2c0-27.5,16.1-47.2,47.9-47.2
			C360.2,155.9,377.8,174,377.8,201.1z M332.4,238c6.2,0,9.4-10.8,9.4-28.3c0-24.5-5.4-43.6-13.2-43.6c-6.2,0-9.4,10.9-9.4,28.3
			C319.2,219,324.6,238,332.4,238z"/>
		<path fill="#474A59" d="M459.7,172.7c-6.4-1.4-12.6-2.4-19-3.1c-0.6,31.3-0.4,62.2,0.2,74.9c-10.9,2.9-24,3.7-36,1.3
			c-0.6-13.1-0.8-44-0.2-76.6c-7,0.7-13.6,1.9-20,3.7c-4.6-4-5.6-8.9-4.8-14.6c28.7-2.5,57-2.2,85.3-0.4
			C466.2,163.2,465,168.2,459.7,172.7z"/>
		<path fill="#474A59" d="M562,201.1c0,27.5-16.1,47.2-47.9,47.2c-29.2,0-46.7-18.1-46.7-45.2c0-27.5,16.1-47.2,47.9-47.2
			C544.4,155.9,562,174,562,201.1z M516.6,238c6.2,0,9.4-10.8,9.4-28.3c0-24.5-5.4-43.6-13.2-43.6c-6.2,0-9.4,10.9-9.4,28.3
			C503.4,219,508.8,238,516.6,238z"/>
		<path fill="#474A59" d="M693.8,244.4c-10.9,2.9-24,3.7-36,1.3c-0.5-6.4-0.7-18.7-0.6-33.2c-4.9,12.2-10,24.1-14.3,34.1
			c-4.9,1-7.7,1.1-15.7,0.4c-6.8-12-13.2-24.4-18.8-38.8c1.4,14.4,3.5,28,6.1,38.3c-6.6,1.4-12.7,1.7-18.8,0.4
			c-0.7-15.7-0.7-41.6-0.2-64.3c-3.2-7.2-7.1-11.4-11.8-11c5.4-9.7,14.5-15.6,26-15.6c11.2,0,20,5.6,24.6,18.5
			c3.8,10.9,8.6,24.6,12.4,36.4c7.2-20.3,13.2-39.6,17.3-53.2c6.2-1.4,16.3-1.9,29.9-0.2C693,192.8,693.1,230,693.8,244.4z"/>
		<path fill="#474A59" d="M742.4,244.4c-10.9,2.9-24,3.7-36,1.3c-0.7-14.5-0.8-51-0.1-87.5c6.2-1.3,13.2-2,20.3-2
			c5.4,0,10.8,0.4,15.8,1.1C741.6,192.8,741.7,230,742.4,244.4z"/>
		<path fill="#474A59" d="M784.6,237.4c2.9,0,4.4-1.7,4.4-4.2c0-13-37-27.8-37-52.4c0-15,13.6-25,37.2-25c22.8,0,31.8,9.1,31.9,18.8
			c0.1,7.8-5.4,14.5-13.4,15c-5.3-15.1-14-23.6-20.3-23.6c-2.3,0-3.5,0.8-3.5,3c0,11.8,40.9,32.5,40.9,52.6
			c0,18.1-19.3,27.1-41.8,27.1c-18.2,0-32.5-7.3-32.5-20.6c0-7.8,4.9-14.4,13.4-15.2C768.4,224.8,777.5,237.4,784.6,237.4z
			 M805.5,127.3c5.5,4.2,7.8,12.2,5.9,19.6c-13.6,3.5-29.5,5.5-46.1,6.7c-1.6-2.2-3.2-5.6-3.7-9.4
			C778.1,139.8,793.4,133.6,805.5,127.3z"/>
		<path fill="#474A59" d="M849.5,213.2c13.3,0,20,6.7,20,16.7c0,10.6-7.4,17-20.4,17c-13.3,0-20-6.7-20-16.7
			C829.1,219.8,836.5,213.2,849.5,213.2z M868.4,183.5c-0.2,24.4-9.5,30.6-36,24.1c-0.5-14.9-0.5-32.2-0.5-49.3
			c6.2-1.3,13.2-2,20.3-2c4.8,0,9.6,0.4,14,1.1C867.7,161.9,868.5,170.9,868.4,183.5z"/>
	</g>
</g>
<g id="Layer_2">
</g>
</svg>
