<?xml version="1.0" encoding="utf-8"?>
<!-- Generator: Adobe Illustrator 19.2.1, SVG Export Plug-In . SVG Version: 6.00 Build 0)  -->
<svg version="1.1" xmlns="http://www.w3.org/2000/svg" xmlns:xlink="http://www.w3.org/1999/xlink" x="0px" y="0px"
	 viewBox="0 0 863.7 308.4" enable-background="new 0 0 863.7 308.4" xml:space="preserve">
<g id="Layer_1">
	<g>
		<path fill="#522E87" d="M34.6,0C43,0.2,46.4,4.2,46.4,8.8c0,5-5,9.9-11.4,9.9c-1.8,0-2.6-1-2.3-1.4c7.4,0,11.6-4.2,11.6-8.9
			c0-5-4.5-7.6-9.8-7.6C28.2,0.9,21,4.3,21,10.6c0,9,14.3,9.4,14.3,21.4c0,8.5-7.5,17.4-20,17.4C4.1,49.5,0,42.6,0,37.2
			c0-8.1,7.3-14.6,16.9-14.6c3.6,0,3.9,2.2,2.8,2.6c-7-2.4-17.9,3.2-17.9,12.5c0,6.4,6,11,13.7,11c10,0,17.8-7.3,17.8-16.4
			c0-10.4-14.1-11.4-14.1-21.1C19.1,4.6,26-0.2,34.6,0z"/>
		<path fill="#522E87" d="M45.4,35.3c5.3,0,16-17.1,11.5-17.1c-8.2,0-23.9,30.5-16.6,30.5c6,0,14.6-12.9,16-15.7
			c3.8,0-7.7,16.6-15.9,16.6c-5.3,0-3.5-9.3,1-17.6c4-7.5,10.3-14.6,15.6-14.6c7.4,0-3.6,19-11.5,19c-2.1,0-2.2-2.4-1.4-2.8
			C44.1,34.7,44.8,35.3,45.4,35.3z"/>
		<path fill="#522E87" d="M79.2,36.7c-3.7,6.2-10.5,12.2-13.5,12.2c-5,0,2.3-13.4,9.8-16.7c1.3-0.5,1.8-0.4,1.9-0.1
			C69.6,35,62.9,47.9,65.3,47.9c2.2,0,8.2-5.4,12.5-12.9c4.6-7.9,6.2-16.6,3.8-16.6c-3.2,0-10.5,7.7-13.9,13
			c-6.6,12-14.8,28.3-18,36.2c-0.5,0.9-1.8,0.9-1.4,0.3C57,45,72,20.1,72.5,19.3c1-1.4,3.4-1.7,3-0.5c-1.2,1.4-2.9,4.1-5,7.7
			c3.9-4.7,8.8-8.9,11.3-8.9C85.8,17.6,84.8,27.5,79.2,36.7z"/>
		<path fill="#522E87" d="M95.4,49.2c-2,0-1-4.5,1.3-9.8c-2.4,3.6-8.8,9.8-12,9.8c-3.8,0-1-10.5,3.2-17.8C92.6,23.2,99,17,102.8,17
			c3,0,1.8,5.8,0.2,10.3c3.5-5.8,7.1-10.3,9.1-10.3c3.9,0-3.7,10.8-11.6,18.6c-3.2,6.7-5.7,12.8-4.5,12.6c2.5-0.3,10-7.4,13.3-12
			C112.1,36.2,101.2,49.2,95.4,49.2z M97.6,37.4c1.1-2.3,1.9-4.5,3.3-7c1.8-4.3,3.9-12.6,1.8-12.6c-2.7,0-8.6,6.8-13.1,14.8
			c-3.8,6.5-6.2,15.7-4.6,15.7C86.6,48.3,92.1,44,97.6,37.4z M101.6,33.4c6.7-7.2,12.2-15.5,10.5-15.5
			C111,17.8,105.4,25.7,101.6,33.4z"/>
		<path fill="#522E87" d="M129.4,34.2c-2.5,0-1.8-5.4-1.3-7.1c-3.8,3.6-8.1,8.1-11.9,14.2c-1,2-1.6,3.3-2.4,5.4
			c1.3-0.2,2.7-0.4,4.1-0.4c2.9,0,2.5,1.3,2.3,1.6c-1.4-0.6-7.8-0.2-12.2,1.1c-0.3,0-0.6-0.3-0.4-0.5c0.2-0.4,2.2-1,4.8-1.5
			c4.3-13.7,13-27,13.8-28.2c1.2-1.4,3.1-1,2.6-0.2c-3.4,4.2-7.3,11.3-10.6,18.5c3.4-5.4,7.9-9.4,10.6-12.1
			c2.2-7.3,7.2-13.2,10-13.2c3,0-0.8,6.6-8.7,13.8c-1,2.4-1.7,7.8-0.5,7.8c1.4,0,4.5-3.8,5.6-5.5C137,27.9,131.8,34.2,129.4,34.2z
			 M130.2,24.1c5.7-5.4,9.8-11.4,8.4-11.4C137.2,12.6,133,17,130.2,24.1z"/>
		<path fill="#522E87" d="M144.3,49.2c-2,0-1-4.5,1.3-9.8c-2.4,3.6-8.8,9.8-12,9.8c-3.8,0-1-10.5,3.2-17.8
			c4.7-8.2,11-14.4,14.9-14.4c3,0,1.8,5.8,0.2,10.3C155.4,21.6,159,17,161,17c3.9,0-3.7,10.8-11.6,18.6c-3.2,6.7-5.7,12.8-4.5,12.6
			c2.5-0.3,10-7.4,13.3-12C161,36.2,150.1,49.2,144.3,49.2z M146.5,37.4c1.1-2.3,1.9-4.5,3.3-7c1.8-4.3,3.9-12.6,1.8-12.6
			c-2.7,0-8.6,6.8-13.1,14.8c-3.8,6.5-6.2,15.7-4.6,15.7C135.4,48.3,141,44,146.5,37.4z M150.5,33.4c6.7-7.2,12.2-15.5,10.5-15.5
			C159.8,17.8,154.3,25.7,150.5,33.4z"/>
		<path fill="#522E87" d="M162.2,48.9c-2.8,0,0.3-9,6.8-21.4c3.3-6.2,4.8-8.6,7.8-12.6c-1.3,0.1-5.4,0.2-7,0.3c-0.7,0-0.1-0.9,0.4-1
			c1.4-0.2,4.2-0.3,7.5-0.6c3-3.9,5.6-6.2,7-6.2c1.8,0,1,2.4-1.2,5.8c1.8-0.1,5-0.2,6.2-0.2c2,0,1.4,1.2,1.1,1.3
			c-3.4,0.1-6.3,0.2-7.9,0.3c-3.4,4.7-6.2,7.8-11.8,13.4c-0.5,0.9-1,1.8-1.5,2.6c-4.2,7.7-8.2,17.4-6.7,17.4c3.2,0,15-11.4,18.2-18
			C184.7,30.1,169.9,48.9,162.2,48.9z M171.2,26.7c5-5.2,7.7-8.1,10.6-12.1c-0.3,0-2.1,0.1-2.8,0.2
			C176.6,18.2,174.6,20.7,171.2,26.7z M179.8,13.5l2.7-0.2c2-3,2.9-5.2,2.2-5.2C184,8.2,182.1,10.2,179.8,13.5z"/>
		<path fill="#522E87" d="M188.8,35.3c5.3,0,16-17.1,11.5-17.1c-8.2,0-23.9,30.5-16.6,30.5c6,0,14.6-12.9,16-15.7
			c3.8,0-7.7,16.6-15.9,16.6c-5.3,0-3.5-9.3,1-17.6c4-7.5,10.3-14.6,15.6-14.6c7.4,0-3.6,19-11.5,19c-2.1,0-2.2-2.4-1.4-2.8
			C187.5,34.7,188.2,35.3,188.8,35.3z"/>
		<path fill="#522E87" d="M225.6,35.3c5.3,0,16-17.1,11.5-17.1c-8.2,0-23.9,30.5-16.6,30.5c6,0,14.6-12.9,16-15.7
			c3.8,0-7.7,16.6-15.9,16.6c-5.3,0-3.5-9.3,1-17.6c4-7.5,10.3-14.6,15.6-14.6c7.4,0-3.6,19-11.5,19c-2.1,0-2.2-2.4-1.4-2.8
			C224.3,34.7,225,35.3,225.6,35.3z"/>
		<path fill="#522E87" d="M266.2,20.1c-4.2,9-23.4,47.8-30.3,47.8c-6.2,0,1.7-14.8,14.2-20.6c1.7-2.9,3.6-6.5,5.4-10.2
			c-2.8,4.6-11.1,11.6-14.4,11.6c-3,0-1-9.4,3.3-16.7c4.6-8.2,11.2-14.6,15-14.6c3.2,0,2.2,6.3,0.7,10.7c2.8-5.6,4.9-9.9,5.1-10.4
			C265.9,17.5,266.5,19.3,266.2,20.1z M249.5,48.5c-11.4,6.5-17.2,18.8-13.8,18.8C239.1,67.3,249.4,48.8,249.5,48.5z M256.3,35.6
			l1.7-3.2h-0.1c1.5-2.3,4.3-14.1,1.4-14.1c-2.6,0-8.6,6.8-13.2,14.9c-3.6,6.4-6.2,14.8-4.5,14.8C243.1,48,251.4,41.7,256.3,35.6z"
			/>
		<path fill="#522E87" d="M290.8,20.1c-4.2,9-23.4,47.8-30.3,47.8c-6.2,0,1.7-14.8,14.2-20.6c1.7-2.9,3.6-6.5,5.4-10.2
			c-2.8,4.6-11.1,11.6-14.4,11.6c-3,0-1-9.4,3.3-16.7c4.6-8.2,11.2-14.6,15-14.6c3.2,0,2.2,6.3,0.7,10.7c2.8-5.6,4.9-9.9,5.1-10.4
			C290.6,17.5,291.1,19.3,290.8,20.1z M274.2,48.5C262.7,55,257,67.3,260.4,67.3C263.8,67.3,274,48.8,274.2,48.5z M281,35.6l1.7-3.2
			h-0.1c1.5-2.3,4.3-14.1,1.4-14.1c-2.6,0-8.6,6.8-13.2,14.9c-3.6,6.4-6.2,14.8-4.5,14.8C267.8,48,276.1,41.7,281,35.6z"/>
		<path fill="#522E87" d="M312.9,22.1c0,3.4-3.4,7.2-6.7,7.2c-1,0-1.5-0.7-1.5-1.4c0-0.8,0.6-1.5,1.5-1.5s1.3,1.4,0.4,2.2
			c2.6-0.6,4.7-4,4.7-6.6c0-2.2-1.3-4.2-3.9-4.2c-3.9,0-7.3,3.2-6.6,9.3c0.3,3,2.2,8.4,2.2,11.3c0.2,6.1-3.4,11.2-9.7,11.2
			c-3.1,0-6.6-2.1-6.6-7c0-4.9,4.4-10,9.3-10c0.8,0,1.5,0.3,1.5,0.6c0,0.1-0.1,0.1-0.1,0.2c-5.3,0-9,5.4-9,9.6
			c0,4.1,2.5,5.8,4.6,5.8c4.9,0,8.3-4.6,8-10.4c-0.2-2.9-1.7-7.8-2-10.9c-0.6-5.9,2.3-10.5,8.2-10.5C310.9,17,312.9,19.5,312.9,22.1
			z"/>
		<path fill="#522E87" d="M307,48.9c-0.7,0-0.4-1,0.3-2.4c0.5-0.8,1-1,1.5-1C310.6,45.4,308.4,48.9,307,48.9z"/>
		<path fill="#522E87" d="M389.1,12.7c-6,10.7-19.4,35.6-14.8,35.6c2,0,7.8-4.5,10.3-10.8c3,0-4,11.4-10.3,11.4
			c-9,0,12.6-36.2,13.4-37.6c-3.9,1.7-16.6,12.7-25.1,25c-2.5,4.9-4.3,9-4.8,11c-0.2,0.8-1.7,2-2.2,1.4c-0.8-0.3,0.2-2.8,1.6-5.4
			c5-11.8,16.6-32.5,18.2-36.2c-2.7,0-17.1,12.1-27.6,27c-2.2,4.2-4.2,8.6-6,13c1.2-0.2,2.5-0.3,3.7-0.3c3.6,0,3.1,1.5,2.9,1.9
			c-0.9-0.4-9.2-0.6-15.4,1.8c-0.4,0-0.7-0.4-0.5-0.6c0.4-0.6,3.4-1.7,7.1-2.5C349,23.4,365,0.9,359.8,0.9
			c-12.2,0-29.8,26.8-20.8,26.8c3.8,0,11-9.7,10.6-12.9c3.5-1-4,13.3-10.8,13.3c-10.3,0,4.4-27.8,21.4-27.8c6.3,0-2,13.4-10.6,30.1
			c11.8-16,23.9-24.5,26.7-24.5c0.6,0,1.4,1.6,0.8,2.7c-2.6,5-7.8,14.6-12.2,23c8.4-11,20.9-21.4,23.6-21.4
			C389.1,10.2,389.8,11.4,389.1,12.7z"/>
		<path fill="#522E87" d="M402.2,19.9c-0.4,0.8-5.5,9.9-8.6,15.4c-3.8,7-6.6,12.7-5.2,12.7c1.9,0,9.8-6.7,12.6-11.8
			c3.4,0.2-7.4,12.6-12.8,12.6c-3.3,0,0.3-7.8,4.6-15.8c3-5.8,7.9-13.9,8.5-15.4C402.1,17.4,402.7,19.2,402.2,19.9z M404.6,11.6
			c0-1.2,1-2.6,2.4-2.6c0.9,0,1.2,0.6,1.2,1.4c0,1.2-1.2,2.8-2.3,2.8C405.1,13.2,404.6,12.6,404.6,11.6z"/>
		<path fill="#522E87" d="M413.7,18.1c0,0,2.6-2,2.6,0L415.9,30c5.4-6.2,11.1-11.9,12.2-12.7c1.4-0.8,1.7,0.3,1.7,0.3
			c-2.6,2.2-8.5,8.4-13.8,14.5c-0.2,7.4-0.4,15.4-0.4,16.5c0,1.4-1.6,0.1-1.7,0.1V34.3c-5.3,6.1-10.2,12.7-11.4,15.3
			c-0.2,0.4-1-0.1-0.7-0.7c1.2-3.1,6.6-10.2,12-16.5L413.7,18.1z"/>
		<path fill="#522E87" d="M451.9,49.2c-2,0-1-4.5,1.3-9.8c-2.4,3.6-8.8,9.8-12,9.8c-3.8,0-1-10.5,3.2-17.8
			c4.7-8.2,11-14.4,14.9-14.4c3,0,1.8,5.8,0.2,10.3c3.5-5.8,7.1-10.3,9.1-10.3c3.9,0-3.7,10.8-11.6,18.6c-3.2,6.7-5.7,12.8-4.5,12.6
			c2.5-0.3,10-7.4,13.3-12C468.5,36.2,457.7,49.2,451.9,49.2z M454.1,37.4c1.1-2.3,1.9-4.5,3.3-7c1.8-4.3,3.9-12.6,1.8-12.6
			c-2.7,0-8.6,6.8-13.1,14.8c-3.8,6.5-6.2,15.7-4.6,15.7C443,48.3,448.5,44,454.1,37.4z M458.1,33.4c6.7-7.2,12.2-15.5,10.5-15.5
			C467.4,17.8,461.9,25.7,458.1,33.4z"/>
		<path fill="#522E87" d="M470.1,49c-3.3,0-0.1-7.6,4.4-16.1c8.5-16.2,19.4-32,22.6-32c4.1,0-5.2,14.2-16.2,24.6
			c-3.2,4.8-13.4,22.6-10.6,22.6c3.5,0,13.8-10.2,19.4-18.9C493.6,29.3,477.6,49,470.1,49z M482,23.2c9.9-9.9,16.7-21.5,15.1-21.5
			C495.7,1.7,488.8,11.8,482,23.2z"/>
		<path fill="#522E87" d="M490.9,49c-3.3,0-0.1-7.6,4.4-16.1c8.5-16.2,19.4-32,22.6-32c4.1,0-5.2,14.2-16.2,24.6
			c-3.2,4.8-13.4,22.6-10.6,22.6c3.5,0,13.8-10.2,19.4-18.9C514.4,29.3,498.4,49,490.9,49z M502.8,23.2c9.9-9.9,16.7-21.5,15.1-21.5
			C516.5,1.7,509.6,11.8,502.8,23.2z"/>
		<path fill="#522E87" d="M528.9,48.9c-2.8,0,0.3-9,6.8-21.4c3.3-6.2,4.8-8.6,7.8-12.6c-1.3,0.1-5.4,0.2-7,0.3c-0.7,0-0.1-0.9,0.4-1
			c1.4-0.2,4.2-0.3,7.5-0.6c3-3.9,5.6-6.2,7-6.2c1.8,0,1,2.4-1.2,5.8c1.8-0.1,5-0.2,6.2-0.2c2,0,1.4,1.2,1.1,1.3
			c-3.4,0.1-6.3,0.2-7.9,0.3c-3.4,4.7-6.2,7.8-11.8,13.4c-0.5,0.9-1,1.8-1.5,2.6c-4.2,7.7-8.2,17.4-6.7,17.4c3.2,0,15-11.4,18.2-18
			C551.5,30.1,536.7,48.9,528.9,48.9z M538,26.7c5-5.2,7.7-8.1,10.6-12.1c-0.3,0-2.1,0.1-2.8,0.2C543.3,18.2,541.4,20.7,538,26.7z
			 M546.5,13.5l2.7-0.2c2-3,2.9-5.2,2.2-5.2C550.8,8.2,548.9,10.2,546.5,13.5z"/>
		<path fill="#522E87" d="M578.2,18.1c0,3.4-17.1,29.9-13.8,29.9c1.7,0,6-2.9,9.6-8.6c2.7,0-4.2,9.5-9.8,9.5
			c-4.6,0,3.1-13.2,7.9-22.3c2.6-4.9,4.6-8.4,4.2-8.4c-2,0-12.2,7.7-19.9,17.7c-1.8,3.4-3.8,6.3-5.5,10.7c0.8-0.1,1.8-0.2,2.6-0.2
			c2.9,0,2.5,1.3,2.3,1.6c-0.7-0.3-7.4-0.4-12.2,1.4c-0.4,0-0.6-0.3-0.5-0.5c0.4-0.5,3-1.4,6-2.1c5.5-14,23.9-46.1,29.4-46.1
			c3.9,0-2.7,10.1-14,20.9c-1.8,3.1-3.9,6.5-5.8,9.8c7.5-9.2,16.1-14.6,18-14.6C577.7,16.8,578.2,17.4,578.2,18.1z M565.3,19.8
			c9.3-9,15-18.2,13.4-18.2C576.9,1.5,571.2,10.1,565.3,19.8z"/>
		<path fill="#522E87" d="M584.3,35.3c5.3,0,16-17.1,11.5-17.1c-8.2,0-23.9,30.5-16.6,30.5c6,0,14.6-12.9,16-15.7
			c3.8,0-7.7,16.6-15.9,16.6c-5.3,0-3.5-9.3,1-17.6c4-7.5,10.3-14.6,15.6-14.6c7.4,0-3.6,19-11.5,19c-2.1,0-2.2-2.4-1.4-2.8
			C583,34.7,583.7,35.3,584.3,35.3z"/>
		<path fill="#522E87" d="M629.1,19.9c-0.4,0.8-5.5,9.9-8.6,15.4c-3.8,7-6.6,12.7-5.2,12.7c1.9,0,9.8-6.7,12.6-11.8
			c3.4,0.2-7.4,12.6-12.8,12.6c-3.3,0,0.3-7.8,4.6-15.8c3-5.8,7.9-13.9,8.5-15.4C628.9,17.4,629.6,19.2,629.1,19.9z M631.5,11.6
			c0-1.2,1-2.6,2.4-2.6c0.9,0,1.2,0.6,1.2,1.4c0,1.2-1.2,2.8-2.3,2.8C632,13.2,631.5,12.6,631.5,11.6z"/>
		<path fill="#522E87" d="M645,49.6c-4.1,0,3.4-14.3,8.1-23.5c2.5-4.9,3.8-7.7,3.6-7.7c-1.8,0-13.7,10.2-21.6,22
			c-1.3,2.5-2.4,4.8-3.3,6.8c0.9-0.1,2.3-0.3,4.3-0.3c2.2,0,2,1.4,1.8,1.7c-0.7-0.3-7.3-0.6-12.2,1.2c-0.3,0-0.6-0.3-0.4-0.5
			c0.5-0.5,2.8-1.4,5-1.8c6.7-16.9,16.6-31.8,16.9-32c1.2-1,1.4,1.7,1.4,1.7c-2.6,3.6-7,11-10.8,18.2c8.4-11,17.3-18.3,19.4-18.3
			c1,0,1.4,0.6,1.4,1.3c0,3.3-16.6,30.5-13.4,30.5c1.7,0,6.2-3,9.6-8.6C657.6,40.2,651,49.6,645,49.6z"/>
		<path fill="#522E87" d="M686.8,20.1c-4.2,9-23.4,47.8-30.3,47.8c-6.2,0,1.7-14.8,14.2-20.6c1.7-2.9,3.6-6.5,5.4-10.2
			c-2.8,4.6-11.1,11.6-14.4,11.6c-3,0-1-9.4,3.3-16.7c4.6-8.2,11.2-14.6,15-14.6c3.2,0,2.2,6.3,0.7,10.7c2.8-5.6,4.9-9.9,5.1-10.4
			C686.5,17.5,687.1,19.3,686.8,20.1z M670.1,48.5c-11.4,6.5-17.2,18.8-13.8,18.8C659.7,67.3,670,48.8,670.1,48.5z M676.9,35.6
			l1.7-3.2h-0.1c1.5-2.3,4.3-14.1,1.4-14.1c-2.6,0-8.6,6.8-13.2,14.9c-3.6,6.4-6.2,14.8-4.5,14.8C663.7,48,672.1,41.7,676.9,35.6z"
			/>
		<path fill="#522E87" d="M700.4,34.2c-2.5,0-1.8-5.4-1.3-7.1c-3.8,3.6-8.1,8.1-11.9,14.2c-1,2-1.6,3.3-2.4,5.4
			c1.3-0.2,2.7-0.4,4.1-0.4c2.9,0,2.5,1.3,2.3,1.6c-1.4-0.6-7.8-0.2-12.2,1.1c-0.3,0-0.6-0.3-0.4-0.5c0.2-0.4,2.2-1,4.8-1.5
			c4.3-13.7,13-27,13.8-28.2c1.2-1.4,3.1-1,2.6-0.2c-3.4,4.2-7.3,11.3-10.6,18.5c3.4-5.4,7.9-9.4,10.6-12.1
			c2.2-7.3,7.2-13.2,10-13.2c3,0-0.8,6.6-8.7,13.8c-1,2.4-1.7,7.8-0.5,7.8c1.4,0,4.5-3.8,5.6-5.5C708,27.9,702.9,34.2,700.4,34.2z
			 M701.2,24.1c5.7-5.4,9.8-11.4,8.4-11.4C708.2,12.6,704.1,17,701.2,24.1z"/>
		<path fill="#522E87" d="M710.1,35.3c5.3,0,16-17.1,11.5-17.1c-8.2,0-23.9,30.5-16.6,30.5c6,0,14.6-12.9,16-15.7
			c3.8,0-7.7,16.6-15.9,16.6c-5.3,0-3.5-9.3,1-17.6c4-7.5,10.3-14.6,15.6-14.6c7.4,0-3.6,19-11.5,19c-2.1,0-2.2-2.4-1.4-2.8
			C708.9,34.7,709.6,35.3,710.1,35.3z"/>
		<path fill="#522E87" d="M736.2,48.9c-1.8,0-1.9-3.8,0.6-9.6c-4.6,5.8-9.6,9.7-12.6,9.7c-3.5,0-2.1-8.7,3.2-18.2
			c4.6-8.2,11-13.2,14.9-13.2c3,0,2.9,4.2,1.3,8.7c7.8-13.6,16.3-25.5,19-25.5c4.1,0-5,13.7-15.9,24.2c-1.5,2.6-3.3,5.4-4.8,8.1
			c-4.1,7.4-6.7,14.9-5.3,14.9c3.1,0,13.4-9.6,18.8-18.7C759.7,29.3,743.9,48.9,736.2,48.9z M738.1,36.4c1.2-2,2.5-4.4,3.4-6.3
			c1.8-4.2,3.3-11.7,0.8-11.7c-2.7,0-8.6,5.6-13.1,13.5c-4.7,8.2-6.2,16-4.6,16C726.9,47.9,733.3,43,738.1,36.4z M747.3,23.4
			c9.7-9.9,17-21.6,15.4-21.6C761.3,1.8,754.1,12.1,747.3,23.4z"/>
		<path fill="#522E87" d="M768.5,19.9c-0.4,0.8-5.5,9.9-8.6,15.4c-3.8,7-6.6,12.7-5.2,12.7c1.9,0,9.8-6.7,12.6-11.8
			c3.4,0.2-7.4,12.6-12.8,12.6c-3.3,0,0.3-7.8,4.6-15.8c3-5.8,7.9-13.9,8.5-15.4C768.4,17.4,769,19.2,768.5,19.9z M770.9,11.6
			c0-1.2,1-2.6,2.4-2.6c0.9,0,1.2,0.6,1.2,1.4c0,1.2-1.2,2.8-2.3,2.8C771.4,13.2,770.9,12.6,770.9,11.6z"/>
		<path fill="#522E87" d="M777.3,35.3c5.3,0,16-17.1,11.5-17.1c-8.2,0-23.9,30.5-16.6,30.5c6,0,14.6-12.9,16-15.7
			c3.8,0-7.7,16.6-15.9,16.6c-5.3,0-3.5-9.3,1-17.6c4-7.5,10.3-14.6,15.6-14.6c7.4,0-3.6,19-11.5,19c-2.1,0-2.2-2.4-1.4-2.8
			C776.1,34.7,776.8,35.3,777.3,35.3z"/>
		<path fill="#522E87" d="M803.7,49.6c-4.1,0,3.4-14.3,8.1-23.5c2.5-4.9,3.8-7.7,3.6-7.7c-1.8,0-13.7,10.2-21.6,22
			c-1.3,2.5-2.4,4.8-3.3,6.8c0.9-0.1,2.3-0.3,4.3-0.3c2.2,0,2,1.4,1.8,1.7c-0.7-0.3-7.3-0.6-12.2,1.2c-0.3,0-0.6-0.3-0.4-0.5
			c0.5-0.5,2.8-1.4,5-1.8c6.7-16.9,16.6-31.8,16.9-32c1.2-1,1.4,1.7,1.4,1.7c-2.6,3.6-7,11-10.8,18.2c8.4-11,17.3-18.3,19.4-18.3
			c1,0,1.4,0.6,1.4,1.3c0,3.3-16.6,30.5-13.4,30.5c1.7,0,6.2-3,9.6-8.6C816.2,40.2,809.7,49.6,803.7,49.6z"/>
		<path fill="#522E87" d="M818.3,48.9c-2.8,0,0.3-9,6.8-21.4c3.3-6.2,4.8-8.6,7.8-12.6c-1.3,0.1-5.4,0.2-7,0.3c-0.7,0-0.1-0.9,0.4-1
			c1.4-0.2,4.2-0.3,7.5-0.6c3-3.9,5.6-6.2,7-6.2c1.8,0,1,2.4-1.2,5.8c1.8-0.1,5-0.2,6.2-0.2c2,0,1.4,1.2,1.1,1.3
			c-3.4,0.1-6.3,0.2-7.9,0.3c-3.4,4.7-6.2,7.8-11.8,13.4c-0.5,0.9-1,1.8-1.5,2.6c-4.2,7.7-8.2,17.4-6.7,17.4c3.2,0,15-11.4,18.2-18
			C840.9,30.1,826.1,48.9,818.3,48.9z M827.3,26.7c5-5.2,7.7-8.1,10.6-12.1c-0.3,0-2.1,0.1-2.8,0.2
			C832.7,18.2,830.8,20.7,827.3,26.7z M835.9,13.5l2.7-0.2c2-3,2.9-5.2,2.2-5.2C840.1,8.2,838.2,10.2,835.9,13.5z"/>
		<path fill="#522E87" d="M863.7,22.1c0,3.4-3.4,7.2-6.7,7.2c-1,0-1.5-0.7-1.5-1.4c0-0.8,0.6-1.5,1.5-1.5c1,0,1.3,1.4,0.4,2.2
			c2.6-0.6,4.7-4,4.7-6.6c0-2.2-1.3-4.2-3.9-4.2c-3.9,0-7.3,3.2-6.6,9.3c0.3,3,2.2,8.4,2.2,11.3c0.2,6.1-3.4,11.2-9.7,11.2
			c-3.1,0-6.6-2.1-6.6-7c0-4.9,4.4-10,9.3-10c0.8,0,1.5,0.3,1.5,0.6c0,0.1-0.1,0.1-0.1,0.2c-5.3,0-9,5.4-9,9.6
			c0,4.1,2.5,5.8,4.6,5.8c4.9,0,8.3-4.6,8-10.4c-0.2-2.9-1.7-7.8-2-10.9c-0.6-5.9,2.3-10.5,8.2-10.5C861.7,17,863.7,19.5,863.7,22.1
			z"/>
		<path fill="#522E87" d="M110.6,75.2c-14.2,0-36.5,24.2-36.5,48.6c0,7.9,4,12.5,6.7,13c0.2,0.2,0,0.6-0.6,0.6c-3,0-7.5-4.8-7.5-14
			c0-23.8,21.8-49,37.1-49C111,74.3,111,75.1,110.6,75.2z"/>
		<path fill="#522E87" d="M92.9,115.3c5.3,0,16-17.1,11.5-17.1c-8.2,0-23.9,30.5-16.6,30.5c6,0,14.6-12.9,16-15.7
			c3.8,0-7.7,16.6-15.9,16.6c-5.3,0-3.5-9.3,1-17.6c4-7.5,10.3-14.6,15.6-14.6c7.4,0-3.6,19-11.5,19c-2.1,0-2.2-2.4-1.4-2.8
			C91.6,114.7,92.4,115.3,92.9,115.3z"/>
		<path fill="#522E87" d="M114.8,98.1c0,0,2.6-2,2.6,0L117,110c5.4-6.2,11.1-11.9,12.2-12.7c1.4-0.8,1.7,0.3,1.7,0.3
			c-2.6,2.2-8.5,8.4-13.8,14.5c-0.2,7.4-0.4,15.4-0.4,16.5c0,1.4-1.6,0.1-1.7,0.1v-14.3c-5.3,6.1-10.2,12.7-11.4,15.3
			c-0.2,0.4-1-0.1-0.7-0.7c1.2-3.1,6.6-10.2,12-16.5L114.8,98.1z"/>
		<path fill="#522E87" d="M136.7,109.2c4.6-1.6,8.1-11.2,5.2-11.2c-3.7,0-9.8,7.6-13.8,15.4c-3.8,7.5-5.4,15.4-2.2,15.4
			c6,0,13.5-12.6,15.4-16.4c3.5,0-6.8,17.2-15.4,17.2c-4.5,0-3.8-8.3-0.1-16.2c3.8-8,10.7-16.2,16.1-16.2c6.2,0-0.3,12.8-5.4,12.8
			c-1.4,0-2-1.7-1-2.5C136.5,106.6,137.9,108.2,136.7,109.2z"/>
		<path fill="#522E87" d="M149.4,115.3c5.3,0,16-17.1,11.5-17.1c-8.2,0-23.9,30.5-16.6,30.5c6,0,14.6-12.9,16-15.7
			c3.8,0-7.7,16.6-15.9,16.6c-5.3,0-3.5-9.3,1-17.6c4-7.5,10.3-14.6,15.6-14.6c7.4,0-3.6,19-11.5,19c-2.1,0-2.2-2.4-1.4-2.8
			C148.1,114.7,148.8,115.3,149.4,115.3z"/>
		<path fill="#522E87" d="M183.2,116.7c-3.7,6.2-10.5,12.2-13.5,12.2c-5,0,2.3-13.4,9.8-16.7c1.3-0.5,1.8-0.4,1.9-0.1
			c-7.8,2.9-14.6,15.8-12.2,15.8c2.2,0,8.2-5.4,12.5-12.9c4.6-7.9,6.2-16.6,3.8-16.6c-3.2,0-10.5,7.7-13.9,13
			c-6.6,12-14.8,28.3-18,36.2c-0.5,0.9-1.8,0.9-1.4,0.3c8.7-23.1,23.8-48,24.2-48.8c1-1.4,3.4-1.7,3-0.5c-1.2,1.4-2.9,4.1-5,7.7
			c3.9-4.7,8.8-8.9,11.3-8.9C189.8,97.6,188.8,107.5,183.2,116.7z"/>
		<path fill="#522E87" d="M188.5,128.9c-2.8,0,0.3-9,6.8-21.4c3.3-6.2,4.8-8.6,7.8-12.6c-1.3,0.1-5.4,0.2-7,0.3
			c-0.7,0-0.1-0.9,0.4-1c1.4-0.2,4.2-0.3,7.5-0.6c3-3.9,5.6-6.2,7-6.2c1.8,0,1,2.4-1.2,5.8c1.8-0.1,5-0.2,6.2-0.2
			c2,0,1.4,1.2,1.1,1.3c-3.4,0.1-6.3,0.2-7.9,0.3c-3.4,4.7-6.2,7.8-11.8,13.4c-0.5,0.9-1,1.8-1.5,2.6c-4.2,7.7-8.2,17.4-6.7,17.4
			c3.2,0,15-11.4,18.2-18C211.1,110.1,196.3,128.9,188.5,128.9z M197.6,106.7c5-5.2,7.7-8.1,10.6-12.1c-0.3,0-2.1,0.1-2.8,0.2
			C202.9,98.2,201,100.7,197.6,106.7z M206.1,93.5l2.7-0.2c2-3,2.9-5.2,2.2-5.2C210.4,88.2,208.4,90.2,206.1,93.5z"/>
		<path fill="#522E87" d="M232.8,115.3c5.3,0,16-17.1,11.5-17.1c-8.2,0-23.9,30.5-16.6,30.5c6,0,14.6-12.9,16-15.7
			c3.8,0-7.7,16.6-15.9,16.6c-5.3,0-3.5-9.3,1-17.6c4-7.5,10.3-14.6,15.6-14.6c7.4,0-3.6,19-11.5,19c-2.1,0-2.2-2.4-1.4-2.8
			C231.5,114.7,232.2,115.3,232.8,115.3z"/>
		<path fill="#522E87" d="M273.3,100.1c-4.2,9-23.4,47.8-30.3,47.8c-6.2,0,1.7-14.8,14.2-20.6c1.7-2.9,3.6-6.5,5.4-10.2
			c-2.8,4.6-11.1,11.6-14.4,11.6c-3,0-1-9.4,3.3-16.7c4.6-8.2,11.2-14.6,15-14.6c3.2,0,2.2,6.3,0.7,10.7c2.8-5.6,4.9-9.9,5.1-10.4
			C273.1,97.5,273.6,99.3,273.3,100.1z M256.7,128.5c-11.4,6.5-17.2,18.8-13.8,18.8C246.3,147.3,256.5,128.8,256.7,128.5z
			 M263.5,115.6l1.7-3.2h-0.1c1.5-2.3,4.3-14.1,1.4-14.1c-2.6,0-8.6,6.8-13.2,14.9c-3.6,6.4-6.2,14.8-4.5,14.8
			C250.3,128,258.6,121.7,263.5,115.6z"/>
		<path fill="#522E87" d="M298,100.1c-4.2,9-23.4,47.8-30.3,47.8c-6.2,0,1.7-14.8,14.2-20.6c1.7-2.9,3.6-6.5,5.4-10.2
			c-2.8,4.6-11.1,11.6-14.4,11.6c-3,0-1-9.4,3.3-16.7c4.6-8.2,11.2-14.6,15-14.6c3.2,0,2.2,6.3,0.7,10.7c2.8-5.6,4.9-9.9,5.1-10.4
			C297.7,97.5,298.3,99.3,298,100.1z M281.3,128.5c-11.4,6.5-17.2,18.8-13.8,18.8C270.9,147.3,281.2,128.8,281.3,128.5z
			 M288.1,115.6l1.7-3.2h-0.1c1.5-2.3,4.3-14.1,1.4-14.1c-2.6,0-8.6,6.8-13.2,14.9c-3.6,6.4-6.2,14.8-4.5,14.8
			C274.9,128,283.2,121.7,288.1,115.6z"/>
		<path fill="#522E87" d="M322.7,129.6c-4.6,0-0.2-12.8,3-19.9c-5.3,5.9-10.1,11-14,17.8c1-0.2,2.2-0.3,3.3-0.3
			c2.9,0,2.6,1.3,2.4,1.6c-0.9-0.6-7.7-0.3-11.6,1c-0.3,0-0.6-0.4-0.4-0.6c0.3-0.4,2.6-1,3.9-1.4c5.5-15.6,15.9-30.4,15.9-30.4
			c0.9-1,1.4,0.6,1.4,1.6c-3.8,4.6-11.3,17.6-16.1,28.6c0,0.2,0.2-0.1,0.2-0.2c4.1-7.9,12.1-16.1,16.8-21.4c1-1.2,2.5-1.2,2.5-0.5
			c-3,3.3-11,23.2-7.2,23.2c2.2,0,10.7-9.7,16.2-21.3c-1.6-6.1,0.8-15.9,3.8-15.9c2.5,0,0.7,8.2-2.4,15.7c0.3,2.5,1.8,4.4,3.1,4.4
			c0.3,0.6-2.6,1.5-3.9-2.6C335.2,118.6,326.8,129.6,322.7,129.6z M340,105.5c2.7-7,3.8-13.2,2.6-13.2
			C341.3,92.3,339.2,100.2,340,105.5z"/>
		<path fill="#522E87" d="M371.4,98.1c0,3.4-17.1,29.9-13.8,29.9c1.7,0,6-2.9,9.6-8.6c2.7,0-4.2,9.5-9.8,9.5
			c-4.6,0,3.1-13.2,7.9-22.3c2.6-4.9,4.6-8.4,4.2-8.4c-2,0-12.2,7.7-19.9,17.7c-1.8,3.4-3.8,6.3-5.5,10.7c0.8-0.1,1.8-0.2,2.6-0.2
			c2.9,0,2.5,1.3,2.3,1.6c-0.7-0.3-7.4-0.4-12.2,1.4c-0.4,0-0.6-0.3-0.5-0.5c0.4-0.5,3-1.4,6-2.1c5.5-14,23.9-46.1,29.4-46.1
			c3.9,0-2.7,10.1-14,20.9c-1.8,3.1-3.9,6.5-5.8,9.8c7.5-9.2,16.1-14.6,18-14.6C370.9,96.8,371.4,97.4,371.4,98.1z M358.4,99.8
			c9.3-9,15-18.2,13.4-18.2C370.1,81.5,364.4,90.1,358.4,99.8z"/>
		<path fill="#522E87" d="M385.5,99.9c-0.4,0.8-5.5,9.9-8.6,15.4c-3.8,7-6.6,12.7-5.2,12.7c1.9,0,9.8-6.7,12.6-11.8
			c3.4,0.2-7.4,12.6-12.8,12.6c-3.3,0,0.3-7.8,4.6-15.8c3-5.8,7.9-13.9,8.5-15.4C385.3,97.4,386,99.2,385.5,99.9z M387.9,91.6
			c0-1.2,1-2.6,2.4-2.6c0.9,0,1.2,0.6,1.2,1.4c0,1.2-1.2,2.8-2.3,2.8C388.3,93.2,387.9,92.6,387.9,91.6z"/>
		<path fill="#522E87" d="M388.5,128.9c-2.8,0,0.3-9,6.8-21.4c3.3-6.2,4.8-8.6,7.8-12.6c-1.3,0.1-5.4,0.2-7,0.3
			c-0.7,0-0.1-0.9,0.4-1c1.4-0.2,4.2-0.3,7.5-0.6c3-3.9,5.6-6.2,7-6.2c1.8,0,1,2.4-1.2,5.8c1.8-0.1,5-0.2,6.2-0.2
			c2,0,1.4,1.2,1.1,1.3c-3.4,0.1-6.3,0.2-7.9,0.3c-3.4,4.7-6.2,7.8-11.8,13.4c-0.5,0.9-1,1.8-1.5,2.6c-4.2,7.7-8.2,17.4-6.7,17.4
			c3.2,0,15-11.4,18.2-18C411.1,110.1,396.3,128.9,388.5,128.9z M397.5,106.7c5-5.2,7.7-8.1,10.6-12.1c-0.3,0-2.1,0.1-2.8,0.2
			C402.9,98.2,401,100.7,397.5,106.7z M406.1,93.5l2.7-0.2c2-3,2.9-5.2,2.2-5.2C410.3,88.2,408.4,90.2,406.1,93.5z"/>
		<path fill="#522E87" d="M415.1,115.3c5.3,0,16-17.1,11.5-17.1c-8.2,0-23.9,30.5-16.6,30.5c6,0,14.6-12.9,16-15.7
			c3.8,0-7.7,16.6-15.9,16.6c-5.3,0-3.5-9.3,1-17.6c4-7.5,10.3-14.6,15.6-14.6c7.4,0-3.6,19-11.5,19c-2.1,0-2.2-2.4-1.4-2.8
			C413.9,114.7,414.6,115.3,415.1,115.3z"/>
		<path fill="#522E87" d="M453.1,102.1c0,3.4-3.4,7.2-6.7,7.2c-1,0-1.5-0.7-1.5-1.4c0-0.8,0.6-1.5,1.5-1.5s1.3,1.4,0.4,2.2
			c2.6-0.6,4.7-4,4.7-6.6c0-2.2-1.3-4.2-3.9-4.2c-3.9,0-7.3,3.2-6.6,9.3c0.3,3,2.2,8.4,2.2,11.3c0.2,6.1-3.4,11.2-9.7,11.2
			c-3.1,0-6.6-2.1-6.6-7c0-4.9,4.4-10,9.3-10c0.8,0,1.5,0.3,1.5,0.6c0,0.1-0.1,0.1-0.1,0.2c-5.3,0-9,5.4-9,9.6
			c0,4.1,2.5,5.8,4.6,5.8c4.9,0,8.3-4.6,8-10.4c-0.2-2.9-1.7-7.8-2-10.9c-0.6-5.9,2.3-10.5,8.2-10.5
			C451.1,97,453.1,99.5,453.1,102.1z"/>
		<path fill="#522E87" d="M435.2,137.8c12.9-1.1,33.8-29.1,33.8-50.7c0-7.1-1.7-10.9-4-11.9c-0.4-0.2-0.6-0.7,0.1-0.7
			c3.1,0,5.6,5.5,5.6,13.4c0,20.5-21,50.6-34.8,50.6C434.8,138.4,434.8,137.8,435.2,137.8z"/>
		<path fill="#522E87" d="M495.1,129.6c-2.7,0,0.7-8.7,2.8-13c-3.7,4.8-10.5,13.1-14.8,13.1c-5.6,0,11.8-26.1,12.5-32.3
			c6.6-1.2-15.2,31.4-12.2,31.4c3.4,0,13.7-12.6,16.6-16.4c3.4-6.9,7-15,7.7-15s1.1,1.1,1,2.2c-0.3,2.6-3.9,7.8-6.2,11.7
			c-3.9,7.7-8.2,17.5-6.9,17.5c2.6,0,8.6-7.5,9.3-9.1C507.5,119.6,500.4,129.6,495.1,129.6z"/>
		<path fill="#522E87" d="M535.4,102.1c0,3.4-3.4,7.2-6.7,7.2c-1,0-1.5-0.7-1.5-1.4c0-0.8,0.6-1.5,1.5-1.5s1.3,1.4,0.4,2.2
			c2.6-0.6,4.7-4,4.7-6.6c0-2.2-1.3-4.2-3.9-4.2c-3.9,0-7.3,3.2-6.6,9.3c0.3,3,2.2,8.4,2.2,11.3c0.2,6.1-3.4,11.2-9.7,11.2
			c-3.1,0-6.6-2.1-6.6-7c0-4.9,4.4-10,9.3-10c0.8,0,1.5,0.3,1.5,0.6c0,0.1-0.1,0.1-0.1,0.2c-5.3,0-9,5.4-9,9.6
			c0,4.1,2.5,5.8,4.6,5.8c4.9,0,8.3-4.6,8-10.4c-0.2-2.9-1.7-7.8-2-10.9c-0.6-5.9,2.3-10.5,8.2-10.5
			C533.4,97,535.4,99.5,535.4,102.1z"/>
		<path fill="#522E87" d="M546.3,99.9c-0.4,0.8-5.5,9.9-8.6,15.4c-3.8,7-6.6,12.7-5.2,12.7c1.9,0,9.8-6.7,12.6-11.8
			c3.4,0.2-7.4,12.6-12.8,12.6c-3.3,0,0.3-7.8,4.6-15.8c3-5.8,7.9-13.9,8.5-15.4C546.1,97.4,546.7,99.2,546.3,99.9z M548.7,91.6
			c0-1.2,1-2.6,2.4-2.6c0.9,0,1.2,0.6,1.2,1.4c0,1.2-1.2,2.8-2.3,2.8C549.1,93.2,548.7,92.6,548.7,91.6z"/>
		<path fill="#522E87" d="M562.2,129.6c-4.1,0,3.4-14.3,8.1-23.5c2.5-4.9,3.8-7.7,3.6-7.7c-1.8,0-13.7,10.2-21.6,22
			c-1.3,2.5-2.4,4.8-3.3,6.8c0.9-0.1,2.3-0.3,4.3-0.3c2.2,0,2,1.4,1.8,1.7c-0.7-0.3-7.3-0.6-12.2,1.2c-0.3,0-0.6-0.3-0.4-0.5
			c0.5-0.5,2.8-1.4,5-1.8c6.7-16.9,16.6-31.8,16.9-32c1.2-1,1.4,1.7,1.4,1.7c-2.6,3.6-7,11-10.8,18.2c8.4-11,17.3-18.3,19.4-18.3
			c1,0,1.4,0.6,1.4,1.3c0,3.3-16.6,30.5-13.4,30.5c1.7,0,6.2-3,9.6-8.6C574.7,120.2,568.2,129.6,562.2,129.6z"/>
		<path fill="#522E87" d="M603.9,100.1c-4.2,9-23.4,47.8-30.3,47.8c-6.2,0,1.7-14.8,14.2-20.6c1.7-2.9,3.6-6.5,5.4-10.2
			c-2.8,4.6-11.1,11.6-14.4,11.6c-3,0-1-9.4,3.3-16.7c4.6-8.2,11.2-14.6,15-14.6c3.2,0,2.2,6.3,0.7,10.7c2.8-5.6,4.9-9.9,5.1-10.4
			C603.7,97.5,604.3,99.3,603.9,100.1z M587.3,128.5c-11.4,6.5-17.2,18.8-13.8,18.8C576.9,147.3,587.1,128.8,587.3,128.5z
			 M594.1,115.6l1.7-3.2h-0.1c1.5-2.3,4.3-14.1,1.4-14.1c-2.6,0-8.6,6.8-13.2,14.9c-3.6,6.4-6.2,14.8-4.5,14.8
			C580.9,128,589.2,121.7,594.1,115.6z"/>
		<path fill="#522E87" d="M630,129.2c-2,0-1-4.5,1.3-9.8c-2.4,3.6-8.8,9.8-12,9.8c-3.8,0-1-10.5,3.2-17.8c4.7-8.2,11-14.4,14.9-14.4
			c3,0,1.8,5.8,0.2,10.3c3.5-5.8,7.1-10.3,9.1-10.3c3.9,0-3.7,10.8-11.6,18.6c-3.2,6.7-5.7,12.8-4.5,12.6c2.5-0.3,10-7.4,13.3-12
			C646.7,116.2,635.8,129.2,630,129.2z M632.2,117.4c1.1-2.3,1.9-4.5,3.3-7c1.8-4.3,3.9-12.6,1.8-12.6c-2.7,0-8.6,6.8-13.1,14.8
			c-3.8,6.5-6.2,15.7-4.6,15.7C621.1,128.3,626.7,124,632.2,117.4z M636.2,113.4c6.7-7.2,12.2-15.5,10.5-15.5
			C645.5,97.8,640,105.7,636.2,113.4z"/>
		<path fill="#522E87" d="M690.2,128.9c-6.1,0,9.8-27,10.3-27.9c-1.8,0.1-10.6,6.5-17.3,15.4c-2.6,4.5-5.1,10.6-5.4,11.4
			c-2.6,1.4-1.9-4.3,4.3-12.2c5.4-11.6,9-18,8.4-18c-1.8,0-13.9,10.2-22,22.7c-1,2.2-2.2,4.5-2.9,6.3c0.6-0.1,1.9-0.4,4-0.4
			c2.4,0,2,1.3,1.8,1.6c-0.7-0.3-7.3-0.4-12.2,1.4c-0.3,0-0.6-0.3-0.4-0.5c0.3-0.5,3.1-1.5,5.1-1.9c6.7-16.8,16.7-31.8,17-32.2
			c1.2-0.9,1.4,1.7,1.4,1.7c-2.6,3.7-7,11-10.8,18.2c8.4-11,17.3-18.3,19.4-18.3c1,0,1.4,0.5,1.4,1.2c0,1.5-3.4,8-7,14.6
			c7.1-8.1,14-13,15.8-13c2.7,0,0.6,3.4-1,6.3c-4.5,8.1-12.2,22.5-9.8,22.5c1.7,0,6.2-2.9,9.7-8.6
			C702.7,119.4,696.2,128.9,690.2,128.9z"/>
		<path fill="#522E87" d="M717.5,99.9c-0.4,0.8-5.5,9.9-8.6,15.4c-3.8,7-6.6,12.7-5.2,12.7c1.9,0,9.8-6.7,12.6-11.8
			c3.4,0.2-7.4,12.6-12.8,12.6c-3.3,0,0.3-7.8,4.6-15.8c3-5.8,7.9-13.9,8.5-15.4C717.4,97.4,718,99.2,717.5,99.9z M719.9,91.6
			c0-1.2,1-2.6,2.4-2.6c0.9,0,1.2,0.6,1.2,1.4c0,1.2-1.2,2.8-2.3,2.8C720.4,93.2,719.9,92.6,719.9,91.6z"/>
		<path fill="#522E87" d="M729,98.1c0,0,2.6-2,2.6,0l-0.3,11.9c5.4-6.2,11.1-11.9,12.2-12.7c1.4-0.8,1.7,0.3,1.7,0.3
			c-2.6,2.2-8.5,8.4-13.8,14.5c-0.2,7.4-0.4,15.4-0.4,16.5c0,1.4-1.6,0.1-1.7,0.1v-14.3c-5.3,6.1-10.2,12.7-11.4,15.3
			c-0.2,0.4-1-0.1-0.7-0.7c1.2-3.1,6.6-10.2,12-16.5L729,98.1z"/>
		<path fill="#522E87" d="M744.4,115.3c5.3,0,16-17.1,11.5-17.1c-8.2,0-23.9,30.5-16.6,30.5c6,0,14.6-12.9,16-15.7
			c3.8,0-7.7,16.6-15.9,16.6c-5.3,0-3.5-9.3,1-17.6c4-7.5,10.3-14.6,15.6-14.6c7.4,0-3.6,19-11.5,19c-2.1,0-2.2-2.4-1.4-2.8
			C743.1,114.7,743.9,115.3,744.4,115.3z"/>
		<path fill="#522E87" d="M773.9,114.2c-2.5,0-1.8-5.4-1.3-7.1c-3.8,3.6-8.1,8.1-11.9,14.2c-1,2-1.6,3.3-2.4,5.4
			c1.3-0.2,2.7-0.4,4.1-0.4c2.9,0,2.5,1.3,2.3,1.6c-1.4-0.6-7.8-0.2-12.2,1.1c-0.3,0-0.6-0.3-0.4-0.5c0.2-0.4,2.2-1,4.8-1.5
			c4.3-13.7,13-27,13.8-28.2c1.2-1.4,3.1-1,2.6-0.2c-3.4,4.2-7.3,11.3-10.6,18.5c3.4-5.4,7.9-9.4,10.6-12.1
			c2.2-7.3,7.2-13.2,10-13.2c3,0-0.8,6.6-8.7,13.8c-1,2.4-1.7,7.8-0.5,7.8c1.4,0,4.5-3.8,5.6-5.5
			C781.5,107.9,776.4,114.2,773.9,114.2z M774.7,104.1c5.7-5.4,9.8-11.4,8.4-11.4C781.8,92.6,777.6,97,774.7,104.1z"/>
		<path fill="#522E87" d="M775,128.9c-0.7,0-0.4-1,0.3-2.4c0.5-0.8,1-1,1.5-1C778.5,125.4,776.3,128.9,775,128.9z"/>
		<path fill="#522E87" d="M73.6,158.3c-0.6-0.7-1.5-1.4-3.3-1.4c-2.6,0-5.4,1.5-7.4,3.4c-1,0.9-2,1.9-3,3c16,0.3,13,20.3,0.3,26.8
			c0.4,0.6,0.7,1.4,1,2.2c0.6-0.1,1.1-0.1,1.7-0.1c5.4,0,5.5,3,4.5,3c0-0.3-0.6-2.4-4.8-2.4l-1.3,0.1c0.1,0.3,0.1,0.6,0.1,1
			c0,7-6.2,15.4-13.2,15.4c-4.7,0-4.7-5.7-0.7-10c3.1-3.4,7.3-5.9,11.9-6.8c-0.1-0.6-0.3-1.2-0.6-1.8c-2.1,0.8-4.4,1.3-6.9,1.3
			c-2.4,0-3.1-1.1-3.1-1.8c0-1.6,2.1-3.1,5.7-3.1c2.2,0,3.9,0.9,5.1,2.2c10.8-6.6,13.8-25.3-0.2-25.4
			c-11.8,14.7-17.4,45.6-28.3,45.6c-4.2,0-7-3.4-7-10.2c0-13.4,13.6-35,33.9-36c1.4-1.5,2.8-2.9,4.3-4c2.6-1.9,5-3,7.9-3
			C74.2,156.3,74.6,158.5,73.6,158.3z M41.5,195.2c4.4-10.1,9.3-23,16-31.1c-19,1.3-32.6,21.8-32.6,35.1c0,6.5,2.4,9.8,6.2,9.8
			C34.6,209,38,203.2,41.5,195.2z M59.4,193.2c-4.6,0.9-8.7,3.7-11.8,7c-3.4,3.8-3.3,8.6,0.5,8.6c5.4,0,11.3-8.6,11.3-15V193.2z
			 M58.4,190c-0.9-1.3-2.2-2.2-3.9-2.2c-3.1,0-5,1.1-5,2.5c0,0.4,0.6,1.2,2.4,1.2C54.2,191.5,56.4,191,58.4,190z"/>
		<path fill="#522E87" d="M73.4,195.3c5.3,0,16-17.1,11.5-17.1c-8.2,0-23.9,30.5-16.6,30.5c6,0,14.6-12.9,16-15.7
			c3.8,0-7.7,16.6-15.9,16.6c-5.3,0-3.5-9.3,1-17.6c4-7.5,10.3-14.6,15.6-14.6c7.4,0-3.6,19-11.5,19c-2.1,0-2.2-2.4-1.4-2.8
			C72.1,194.7,72.8,195.3,73.4,195.3z"/>
		<path fill="#522E87" d="M97.8,209.2c-2,0-1-4.5,1.3-9.8c-2.4,3.6-8.8,9.8-12,9.8c-3.8,0-1-10.5,3.2-17.8
			c4.7-8.2,11-14.4,14.9-14.4c3,0,1.8,5.8,0.2,10.3c3.5-5.8,7.1-10.3,9.1-10.3c3.9,0-3.7,10.8-11.6,18.6c-3.2,6.7-5.7,12.8-4.5,12.6
			c2.5-0.3,10-7.4,13.3-12C114.4,196.2,103.5,209.2,97.8,209.2z M99.9,197.4c1.1-2.3,1.9-4.5,3.3-7c1.8-4.3,3.9-12.6,1.8-12.6
			c-2.7,0-8.6,6.8-13.1,14.8c-3.8,6.5-6.2,15.7-4.6,15.7C88.9,208.3,94.4,204,99.9,197.4z M103.9,193.4c6.7-7.2,12.2-15.5,10.5-15.5
			C113.3,177.8,107.8,185.7,103.9,193.4z"/>
		<path fill="#522E87" d="M115.6,208.9c-2.8,0,0.3-9,6.8-21.4c3.3-6.2,4.8-8.6,7.8-12.6c-1.3,0.1-5.4,0.2-7,0.3
			c-0.7,0-0.1-0.9,0.4-1c1.4-0.2,4.2-0.3,7.5-0.6c3-3.9,5.6-6.2,7-6.2c1.8,0,1,2.4-1.2,5.8c1.8-0.1,5-0.2,6.2-0.2
			c2,0,1.4,1.2,1.1,1.3c-3.4,0.1-6.3,0.2-7.9,0.3c-3.4,4.7-6.2,7.8-11.8,13.4c-0.5,0.9-1,1.8-1.5,2.6c-4.2,7.7-8.2,17.4-6.7,17.4
			c3.2,0,15-11.4,18.2-18C138.2,190.1,123.4,208.9,115.6,208.9z M124.6,186.7c5-5.2,7.7-8.1,10.6-12.1c-0.3,0-2.1,0.1-2.8,0.2
			C130,178.2,128.1,180.7,124.6,186.7z M133.2,173.5l2.7-0.2c2-3,2.9-5.2,2.2-5.2C137.4,168.2,135.5,170.2,133.2,173.5z"/>
		<path fill="#522E87" d="M154.1,208.9c-2.8,0,0.3-9,6.8-21.4c3.3-6.2,4.8-8.6,7.8-12.6c-1.3,0.1-5.4,0.2-7,0.3
			c-0.7,0-0.1-0.9,0.4-1c1.4-0.2,4.2-0.3,7.5-0.6c3-3.9,5.6-6.2,7-6.2c1.8,0,1,2.4-1.2,5.8c1.8-0.1,5-0.2,6.2-0.2
			c2,0,1.4,1.2,1.1,1.3c-3.4,0.1-6.3,0.2-7.9,0.3c-3.4,4.7-6.2,7.8-11.8,13.4c-0.5,0.9-1,1.8-1.5,2.6c-4.2,7.7-8.2,17.4-6.7,17.4
			c3.2,0,15-11.4,18.2-18C176.6,190.1,161.8,208.9,154.1,208.9z M163.1,186.7c5-5.2,7.7-8.1,10.6-12.1c-0.3,0-2.1,0.1-2.8,0.2
			C168.5,178.2,166.6,180.7,163.1,186.7z M171.7,173.5l2.7-0.2c2-3,2.9-5.2,2.2-5.2C175.9,168.2,174,170.2,171.7,173.5z"/>
		<path fill="#522E87" d="M203.4,178.1c0,3.4-17.1,29.9-13.8,29.9c1.7,0,6-2.9,9.6-8.6c2.7,0-4.2,9.5-9.8,9.5
			c-4.6,0,3.1-13.2,7.9-22.3c2.6-4.9,4.6-8.4,4.2-8.4c-2,0-12.2,7.7-19.9,17.7c-1.8,3.4-3.8,6.3-5.5,10.7c0.8-0.1,1.8-0.2,2.6-0.2
			c2.9,0,2.5,1.3,2.3,1.6c-0.7-0.3-7.4-0.4-12.2,1.4c-0.4,0-0.6-0.3-0.5-0.5c0.4-0.5,3-1.4,6-2.1c5.5-14,23.9-46.1,29.4-46.1
			c3.9,0-2.7,10.1-14,20.9c-1.8,3.1-3.9,6.5-5.8,9.8c7.5-9.2,16.1-14.6,18-14.6C202.9,176.8,203.4,177.4,203.4,178.1z M190.4,179.8
			c9.3-9,15-18.2,13.4-18.2C202.1,161.5,196.3,170.1,190.4,179.8z"/>
		<path fill="#522E87" d="M209.4,195.3c5.3,0,16-17.1,11.5-17.1c-8.2,0-23.9,30.5-16.6,30.5c6,0,14.6-12.9,16-15.7
			c3.8,0-7.7,16.6-15.9,16.6c-5.3,0-3.5-9.3,1-17.6c4-7.5,10.3-14.6,15.6-14.6c7.4,0-3.6,19-11.5,19c-2.1,0-2.2-2.4-1.4-2.8
			C208.2,194.7,208.9,195.3,209.4,195.3z"/>
		<path fill="#522E87" d="M246.2,195.3c5.3,0,16-17.1,11.5-17.1c-8.2,0-23.9,30.5-16.6,30.5c6,0,14.6-12.9,16-15.7
			c3.8,0-7.7,16.6-15.9,16.6c-5.3,0-3.5-9.3,1-17.6c4-7.5,10.3-14.6,15.6-14.6c7.4,0-3.6,19-11.5,19c-2.1,0-2.2-2.4-1.4-2.8
			C245,194.7,245.7,195.3,246.2,195.3z"/>
		<path fill="#522E87" d="M286.8,180.1c-4.2,9-23.4,47.8-30.3,47.8c-6.2,0,1.7-14.8,14.2-20.6c1.7-2.9,3.6-6.5,5.4-10.2
			c-2.8,4.6-11.1,11.6-14.4,11.6c-3,0-1-9.4,3.3-16.7c4.6-8.2,11.2-14.6,15-14.6c3.2,0,2.2,6.3,0.7,10.7c2.8-5.6,4.9-9.9,5.1-10.4
			C286.6,177.5,287.1,179.3,286.8,180.1z M270.2,208.5c-11.4,6.5-17.2,18.8-13.8,18.8C259.8,227.3,270,208.8,270.2,208.5z
			 M277,195.6l1.7-3.2h-0.1c1.5-2.3,4.3-14.1,1.4-14.1c-2.6,0-8.6,6.8-13.2,14.9c-3.6,6.4-6.2,14.8-4.5,14.8
			C263.8,208,272.1,201.7,277,195.6z"/>
		<path fill="#522E87" d="M311.4,180.1c-4.2,9-23.4,47.8-30.3,47.8c-6.2,0,1.7-14.8,14.2-20.6c1.7-2.9,3.6-6.5,5.4-10.2
			c-2.8,4.6-11.1,11.6-14.4,11.6c-3,0-1-9.4,3.3-16.7c4.6-8.2,11.2-14.6,15-14.6c3.2,0,2.2,6.3,0.7,10.7c2.8-5.6,4.9-9.9,5.1-10.4
			C311.2,177.5,311.8,179.3,311.4,180.1z M294.8,208.5c-11.4,6.5-17.2,18.8-13.8,18.8C284.4,227.3,294.6,208.8,294.8,208.5z
			 M301.6,195.6l1.7-3.2h-0.1c1.5-2.3,4.3-14.1,1.4-14.1c-2.6,0-8.6,6.8-13.2,14.9c-3.6,6.4-6.2,14.8-4.5,14.8
			C288.4,208,296.7,201.7,301.6,195.6z"/>
		<path fill="#522E87" d="M336.2,209.6c-4.6,0-0.2-12.8,3-19.9c-5.3,5.9-10.1,11-14,17.8c1-0.2,2.2-0.3,3.3-0.3
			c2.9,0,2.6,1.3,2.4,1.6c-0.9-0.6-7.7-0.3-11.6,1c-0.3,0-0.6-0.4-0.4-0.6c0.3-0.4,2.6-1,3.9-1.4c5.5-15.6,15.9-30.4,15.9-30.4
			c0.9-1,1.4,0.6,1.4,1.6c-3.8,4.6-11.3,17.6-16.1,28.6c0,0.2,0.2-0.1,0.2-0.2c4.1-7.9,12.1-16.1,16.8-21.4c1-1.2,2.5-1.2,2.5-0.5
			c-3,3.3-11,23.2-7.2,23.2c2.2,0,10.7-9.7,16.2-21.3c-1.6-6.1,0.8-15.9,3.8-15.9c2.5,0,0.7,8.2-2.4,15.7c0.3,2.5,1.8,4.4,3.1,4.4
			c0.3,0.6-2.6,1.5-3.9-2.6C348.6,198.6,340.3,209.6,336.2,209.6z M353.5,185.5c2.7-7,3.8-13.2,2.6-13.2
			C354.8,172.3,352.7,180.2,353.5,185.5z"/>
		<path fill="#522E87" d="M384.9,178.1c0,3.4-17.1,29.9-13.8,29.9c1.7,0,6-2.9,9.6-8.6c2.7,0-4.2,9.5-9.8,9.5
			c-4.6,0,3.1-13.2,7.9-22.3c2.6-4.9,4.6-8.4,4.2-8.4c-2,0-12.2,7.7-19.9,17.7c-1.8,3.4-3.8,6.3-5.5,10.7c0.8-0.1,1.8-0.2,2.6-0.2
			c2.9,0,2.5,1.3,2.3,1.6c-0.7-0.3-7.4-0.4-12.2,1.4c-0.4,0-0.6-0.3-0.5-0.5c0.4-0.5,3-1.4,6-2.1c5.5-14,23.9-46.1,29.4-46.1
			c3.9,0-2.7,10.1-14,20.9c-1.8,3.1-3.9,6.5-5.8,9.8c7.5-9.2,16.1-14.6,18-14.6C384.4,176.8,384.9,177.4,384.9,178.1z M371.9,179.8
			c9.3-9,15-18.2,13.4-18.2C383.6,161.5,377.8,170.1,371.9,179.8z"/>
		<path fill="#522E87" d="M399,179.9c-0.4,0.8-5.5,9.9-8.6,15.4c-3.8,7-6.6,12.7-5.2,12.7c1.9,0,9.8-6.7,12.6-11.8
			c3.4,0.2-7.4,12.6-12.8,12.6c-3.3,0,0.3-7.8,4.6-15.8c3-5.8,7.9-13.9,8.5-15.4C398.8,177.4,399.4,179.2,399,179.9z M401.4,171.6
			c0-1.2,1-2.6,2.4-2.6c0.9,0,1.2,0.6,1.2,1.4c0,1.2-1.2,2.8-2.3,2.8C401.8,173.2,401.4,172.6,401.4,171.6z"/>
		<path fill="#522E87" d="M402,208.9c-2.8,0,0.3-9,6.8-21.4c3.3-6.2,4.8-8.6,7.8-12.6c-1.3,0.1-5.4,0.2-7,0.3c-0.7,0-0.1-0.9,0.4-1
			c1.4-0.2,4.2-0.3,7.5-0.6c3-3.9,5.6-6.2,7-6.2c1.8,0,1,2.4-1.2,5.8c1.8-0.1,5-0.2,6.2-0.2c2,0,1.4,1.2,1.1,1.3
			c-3.4,0.1-6.3,0.2-7.9,0.3c-3.4,4.7-6.2,7.8-11.8,13.4c-0.5,0.9-1,1.8-1.5,2.6c-4.2,7.7-8.2,17.4-6.7,17.4c3.2,0,15-11.4,18.2-18
			C424.5,190.1,409.7,208.9,402,208.9z M411,186.7c5-5.2,7.7-8.1,10.6-12.1c-0.3,0-2.1,0.1-2.8,0.2
			C416.4,178.2,414.5,180.7,411,186.7z M419.6,173.5l2.7-0.2c2-3,2.9-5.2,2.2-5.2C423.8,168.2,421.9,170.2,419.6,173.5z"/>
		<path fill="#522E87" d="M428.6,195.3c5.3,0,16-17.1,11.5-17.1c-8.2,0-23.9,30.5-16.6,30.5c6,0,14.6-12.9,16-15.7
			c3.8,0-7.7,16.6-15.9,16.6c-5.3,0-3.5-9.3,1-17.6c4-7.5,10.3-14.6,15.6-14.6c7.4,0-3.6,19-11.5,19c-2.1,0-2.2-2.4-1.4-2.8
			C427.3,194.7,428.1,195.3,428.6,195.3z"/>
		<path fill="#522E87" d="M466.6,182.1c0,3.4-3.4,7.2-6.7,7.2c-1,0-1.5-0.7-1.5-1.4c0-0.8,0.6-1.5,1.5-1.5s1.3,1.4,0.4,2.2
			c2.6-0.6,4.7-4,4.7-6.6c0-2.2-1.3-4.2-3.9-4.2c-3.9,0-7.3,3.2-6.6,9.3c0.3,3,2.2,8.4,2.2,11.3c0.2,6.1-3.4,11.2-9.7,11.2
			c-3.1,0-6.6-2.1-6.6-7c0-4.9,4.4-10,9.3-10c0.8,0,1.5,0.3,1.5,0.6c0,0.1-0.1,0.1-0.1,0.2c-5.3,0-9,5.4-9,9.6
			c0,4.1,2.5,5.8,4.6,5.8c4.9,0,8.3-4.6,8-10.4c-0.2-2.9-1.7-7.8-2-10.9c-0.6-5.9,2.3-10.5,8.2-10.5
			C464.6,177,466.6,179.5,466.6,182.1z"/>
		<path fill="#522E87" d="M495.1,179.9c-0.4,0.8-5.5,9.9-8.6,15.4c-3.8,7-6.6,12.7-5.2,12.7c1.9,0,9.8-6.7,12.6-11.8
			c3.4,0.2-7.4,12.6-12.8,12.6c-3.3,0,0.3-7.8,4.6-15.8c3-5.8,7.9-13.9,8.5-15.4C494.9,177.4,495.6,179.2,495.1,179.9z M497.5,171.6
			c0-1.2,1-2.6,2.4-2.6c0.9,0,1.2,0.6,1.2,1.4c0,1.2-1.2,2.8-2.3,2.8C498,173.2,497.5,172.6,497.5,171.6z"/>
		<path fill="#522E87" d="M511,209.6c-4.1,0,3.4-14.3,8.1-23.5c2.5-4.9,3.8-7.7,3.6-7.7c-1.8,0-13.7,10.2-21.6,22
			c-1.3,2.5-2.4,4.8-3.3,6.8c0.9-0.1,2.3-0.3,4.3-0.3c2.2,0,2,1.4,1.8,1.7c-0.7-0.3-7.3-0.6-12.2,1.2c-0.3,0-0.6-0.3-0.4-0.5
			c0.5-0.5,2.8-1.4,5-1.8c6.7-16.9,16.6-31.8,16.9-32c1.2-1,1.4,1.7,1.4,1.7c-2.6,3.6-7,11-10.8,18.2c8.4-11,17.3-18.3,19.4-18.3
			c1,0,1.4,0.6,1.4,1.3c0,3.3-16.6,30.5-13.4,30.5c1.7,0,6.2-3,9.6-8.6C523.6,200.2,517,209.6,511,209.6z"/>
		<path fill="#522E87" d="M525.7,208.9c-2.8,0,0.3-9,6.8-21.4c3.3-6.2,4.8-8.6,7.8-12.6c-1.3,0.1-5.4,0.2-7,0.3
			c-0.7,0-0.1-0.9,0.4-1c1.4-0.2,4.2-0.3,7.5-0.6c3-3.9,5.6-6.2,7-6.2c1.8,0,1,2.4-1.2,5.8c1.8-0.1,5-0.2,6.2-0.2
			c2,0,1.4,1.2,1.1,1.3c-3.4,0.1-6.3,0.2-7.9,0.3c-3.4,4.7-6.2,7.8-11.8,13.4c-0.5,0.9-1,1.8-1.5,2.6c-4.2,7.7-8.2,17.4-6.7,17.4
			c3.2,0,15-11.4,18.2-18C548.2,190.1,533.4,208.9,525.7,208.9z M534.7,186.7c5-5.2,7.7-8.1,10.6-12.1c-0.3,0-2.1,0.1-2.8,0.2
			C540.1,178.2,538.1,180.7,534.7,186.7z M543.3,173.5l2.7-0.2c2-3,2.9-5.2,2.2-5.2C547.5,168.2,545.6,170.2,543.3,173.5z"/>
		<path fill="#522E87" d="M548.9,209c-9.9,0,5.2-31.8,16.7-31.8C575.8,177.1,560.1,209,548.9,209z M565.7,178
			c-8.3,0-24.2,30.1-16.7,30.1C557,208.1,573.3,178,565.7,178z"/>
		<path fill="#522E87" d="M609.5,182.1c0,3.4-3.4,7.2-6.7,7.2c-1,0-1.5-0.7-1.5-1.4c0-0.8,0.6-1.5,1.5-1.5s1.3,1.4,0.4,2.2
			c2.6-0.6,4.7-4,4.7-6.6c0-2.2-1.3-4.2-3.9-4.2c-3.9,0-7.3,3.2-6.6,9.3c0.3,3,2.2,8.4,2.2,11.3c0.2,6.1-3.4,11.2-9.7,11.2
			c-3.1,0-6.6-2.1-6.6-7c0-4.9,4.4-10,9.3-10c0.8,0,1.5,0.3,1.5,0.6c0,0.1-0.1,0.1-0.1,0.2c-5.3,0-9,5.4-9,9.6
			c0,4.1,2.5,5.8,4.6,5.8c4.9,0,8.3-4.6,8-10.4c-0.2-2.9-1.7-7.8-2-10.9c-0.6-5.9,2.3-10.5,8.2-10.5
			C607.5,177,609.5,179.5,609.5,182.1z"/>
		<path fill="#522E87" d="M606.6,208.9c-2.8,0,0.3-9,6.8-21.4c3.3-6.2,4.8-8.6,7.8-12.6c-1.3,0.1-5.4,0.2-7,0.3
			c-0.7,0-0.1-0.9,0.4-1c1.4-0.2,4.2-0.3,7.5-0.6c3-3.9,5.6-6.2,7-6.2c1.8,0,1,2.4-1.2,5.8c1.8-0.1,5-0.2,6.2-0.2
			c2,0,1.4,1.2,1.1,1.3c-3.4,0.1-6.3,0.2-7.9,0.3c-3.4,4.7-6.2,7.8-11.8,13.4c-0.5,0.9-1,1.8-1.5,2.6c-4.2,7.7-8.2,17.4-6.7,17.4
			c3.2,0,15-11.4,18.2-18C629.2,190.1,614.4,208.9,606.6,208.9z M615.7,186.7c5-5.2,7.7-8.1,10.6-12.1c-0.3,0-2.1,0.1-2.8,0.2
			C621,178.2,619.1,180.7,615.7,186.7z M624.2,173.5l2.7-0.2c2-3,2.9-5.2,2.2-5.2C628.5,168.2,626.5,170.2,624.2,173.5z"/>
		<path fill="#522E87" d="M641.3,179.9c-0.4,0.8-5.5,9.9-8.6,15.4c-3.8,7-6.6,12.7-5.2,12.7c1.9,0,9.8-6.7,12.6-11.8
			c3.4,0.2-7.4,12.6-12.8,12.6c-3.3,0,0.3-7.8,4.6-15.8c3-5.8,7.9-13.9,8.5-15.4C641.1,177.4,641.7,179.2,641.3,179.9z M643.7,171.6
			c0-1.2,1-2.6,2.4-2.6c0.9,0,1.2,0.6,1.2,1.4c0,1.2-1.2,2.8-2.3,2.8C644.1,173.2,643.7,172.6,643.7,171.6z"/>
		<path fill="#522E87" d="M668.8,183.8c-1.8-0.5-5.7,0-9.8,1.4c0.7,12.6-15,39-19.6,39c-8.3,0,24.6-63.3,31.4-63.3
			c4.8,0-6.6,17.1-14.3,22.5c-8.2,13.8-19.5,40-17.1,40c3,0,18-24.6,19-38.1c-0.5,0.2-1,0.4-1.6,0.6c-0.3,0-0.3-0.4,0.3-0.7
			c2.1-1.2,6.6-2.8,9.5-2.8S669,183.5,668.8,183.8z M656.9,182.3c11.5-11,15.3-20.8,13.6-20.8C669.3,161.5,660,176.1,656.9,182.3z"
			/>
		<path fill="#522E87" d="M689,183.8c-1.8-0.5-5.7,0-9.8,1.4c0.7,12.6-15,39-19.6,39c-8.3,0,24.6-63.3,31.4-63.3
			c4.8,0-6.6,17.1-14.3,22.5c-8.2,13.8-19.5,40-17.1,40c3,0,18-24.6,19-38.1c-0.5,0.2-1,0.4-1.6,0.6c-0.3,0-0.3-0.4,0.3-0.7
			c2.1-1.2,6.6-2.8,9.5-2.8S689.3,183.5,689,183.8z M677.2,182.3c11.5-11,15.3-20.8,13.6-20.8C689.5,161.5,680.2,176.1,677.2,182.3z
			"/>
		<path fill="#522E87" d="M722.8,196.7c-3.7,6.2-10.5,12.2-13.5,12.2c-5,0,2.3-13.4,9.8-16.7c1.3-0.5,1.8-0.4,1.9-0.1
			c-7.8,2.9-14.6,15.8-12.2,15.8c2.2,0,8.2-5.4,12.5-12.9c4.6-7.9,6.2-16.6,3.8-16.6c-3.2,0-10.5,7.7-13.9,13
			c-6.6,12-14.8,28.3-18,36.2c-0.5,0.9-1.8,0.9-1.4,0.3c8.7-23.1,23.8-48,24.2-48.8c1-1.4,3.4-1.7,3-0.5c-1.2,1.4-2.9,4.1-5,7.7
			c3.9-4.7,8.8-8.9,11.3-8.9C729.3,177.6,728.4,187.5,722.8,196.7z"/>
		<path fill="#522E87" d="M733.8,195.3c5.3,0,16-17.1,11.5-17.1c-8.2,0-23.9,30.5-16.6,30.5c6,0,14.6-12.9,16-15.7
			c3.8,0-7.7,16.6-15.9,16.6c-5.3,0-3.5-9.3,1-17.6c4-7.5,10.3-14.6,15.6-14.6c7.4,0-3.6,19-11.5,19c-2.1,0-2.2-2.4-1.4-2.8
			C732.5,194.7,733.3,195.3,733.8,195.3z"/>
		<path fill="#522E87" d="M758.2,209.2c-2,0-1-4.5,1.3-9.8c-2.4,3.6-8.8,9.8-12,9.8c-3.8,0-1-10.5,3.2-17.8
			c4.7-8.2,11-14.4,14.9-14.4c3,0,1.8,5.8,0.2,10.3c3.5-5.8,7.1-10.3,9.1-10.3c3.9,0-3.7,10.8-11.6,18.6c-3.2,6.7-5.7,12.8-4.5,12.6
			c2.5-0.3,10-7.4,13.3-12C774.9,196.2,764,209.2,758.2,209.2z M760.4,197.4c1.1-2.3,1.9-4.5,3.3-7c1.8-4.3,3.9-12.6,1.8-12.6
			c-2.7,0-8.6,6.8-13.1,14.8c-3.8,6.5-6.2,15.7-4.6,15.7C749.3,208.3,754.9,204,760.4,197.4z M764.4,193.4
			c6.7-7.2,12.2-15.5,10.5-15.5C773.7,177.8,768.2,185.7,764.4,193.4z"/>
		<path fill="#522E87" d="M804.6,179.8c-0.9,0-0.9-1-0.7-1.4c-4,0.9-12.8,7.7-18.9,14.9c3.1-2.9,7.4-5.5,8.9-5.5
			c3.8,0-8.2,20.2-6,20.2c2.4,0,10.1-7.8,12.5-12.6c3.8,0-7.8,13.5-12.6,13.5c-5.2,0,7-19.8,5.4-19.8c-1.1,0-9.4,5.8-12.6,9.4
			c-1.8,3.2-3.5,6.9-5,9.9c-0.4,1-1.8,0.9-1.7,0.4c10.2-23.8,25.3-45.8,27.3-47.8c0.7-0.5,1,1,1.1,1.8c-3.8,4.5-12.9,18.6-20.6,32.6
			c-0.2,0.2-0.3,0.6-0.2,0.6c7.3-9.6,18.4-19,23.7-19C807.1,177,806.2,179.8,804.6,179.8z"/>
		<path fill="#522E87" d="M828.9,182.1c0,3.4-3.4,7.2-6.7,7.2c-1,0-1.5-0.7-1.5-1.4c0-0.8,0.6-1.5,1.5-1.5c1,0,1.3,1.4,0.4,2.2
			c2.6-0.6,4.7-4,4.7-6.6c0-2.2-1.3-4.2-3.9-4.2c-3.9,0-7.3,3.2-6.6,9.3c0.3,3,2.2,8.4,2.2,11.3c0.2,6.1-3.4,11.2-9.7,11.2
			c-3.1,0-6.6-2.1-6.6-7c0-4.9,4.4-10,9.3-10c0.8,0,1.5,0.3,1.5,0.6c0,0.1-0.1,0.1-0.1,0.2c-5.3,0-9,5.4-9,9.6
			c0,4.1,2.5,5.8,4.6,5.8c4.9,0,8.3-4.6,8-10.4c-0.2-2.9-1.7-7.8-2-10.9c-0.6-5.9,2.3-10.5,8.2-10.5
			C826.9,177,828.9,179.5,828.9,182.1z"/>
		<path fill="#522E87" d="M823.1,208.9c-0.7,0-0.4-1,0.3-2.4c0.5-0.8,1-1,1.5-1C826.6,205.4,824.5,208.9,823.1,208.9z"/>
		<path fill="#522E87" d="M185.4,265.6c-2.9,8.2-1.9,15.4,4.9,15.4c2.9,0,5.7-1,8.1-2.4c4-7.4,7.6-13.4,10.1-13.4c2.9,0-1,8-8,12.9
			c-6.4,12.6-15.2,30.2-22.6,30.2c-3,0-5.4-2.2-5.4-6.6c0-7,6.9-14.9,13.9-14.9c2.3,0,2.6,1.7,2.2,1.7c-0.2-0.4-0.7-0.8-1.9-0.8
			c-6,0-12.9,8.3-12.9,14.7c0,3.8,2.1,5.4,4,5.4c5.8,0,13.4-15.6,20-27.9c-2.4,1.3-5.1,2.1-7.9,2.1c-7.7,0-9.2-8-6.3-16.9
			c-4.6-1.4-7.1-4.2-7.1-7.9c0-5.7,7.4-9,11.9-9c2.1,0,3.9,0.3,5.5,0.8c4.9-4.6,11-7.8,18.1-7.8c4.2,0,7.5,2,7.5,5.7
			c0,7.1-11.2,19.4-26.9,19.4C189.9,266.2,187.5,266,185.4,265.6z M183.7,264.3c1.8-5.1,5-10.5,9.4-14.7c-1.4-0.4-3-0.6-4.8-0.6
			c-4.2,0-11.2,3-11.2,8.1C177.1,260.3,179.3,262.9,183.7,264.3z M195.7,249.6c3.7,1.6,5.7,4.2,5.7,5.4c0,0.5-0.4,0.8-1,0.8
			c-0.1-1.6-1.9-4.1-5.4-5.5c-4.2,4.2-7.5,9.5-9.4,14.5c1.9,0.4,4.1,0.6,6.6,0.6c13.9,0,25.4-12.2,25.4-18.6c0-3.9-2.4-4.6-5.6-4.6
			C206,242.2,200.4,245.2,195.7,249.6z M201.2,276.7c5.6-4.5,8.8-10.9,7.1-10.9C207,265.8,204.4,270.5,201.2,276.7z"/>
		<path fill="#522E87" d="M216,275.3c5.3,0,16-17.1,11.5-17.1c-8.2,0-23.9,30.5-16.6,30.5c6,0,14.6-12.9,16-15.7
			c3.8,0-7.7,16.6-15.9,16.6c-5.3,0-3.5-9.3,1-17.6c4-7.5,10.3-14.6,15.6-14.6c7.4,0-3.6,19-11.5,19c-2.1,0-2.2-2.4-1.4-2.8
			C214.8,274.7,215.5,275.3,216,275.3z"/>
		<path fill="#522E87" d="M242.4,289.6c-4.1,0,3.4-14.3,8.1-23.5c2.5-4.9,3.8-7.7,3.6-7.7c-1.8,0-13.7,10.2-21.6,22
			c-1.3,2.5-2.4,4.8-3.3,6.8c0.9-0.1,2.3-0.3,4.3-0.3c2.2,0,2,1.4,1.8,1.7c-0.7-0.3-7.3-0.6-12.2,1.2c-0.3,0-0.6-0.3-0.4-0.5
			c0.5-0.5,2.8-1.4,5-1.8c6.7-16.9,16.6-31.8,16.9-32c1.2-1,1.4,1.7,1.4,1.7c-2.6,3.6-7,11-10.8,18.2c8.4-11,17.3-18.3,19.4-18.3
			c1,0,1.4,0.6,1.4,1.3c0,3.3-16.6,30.5-13.4,30.5c1.7,0,6.2-3,9.6-8.6C254.9,280.2,248.4,289.6,242.4,289.6z"/>
		<path fill="#522E87" d="M257,288.9c-2.8,0,0.3-9,6.8-21.4c3.3-6.2,4.8-8.6,7.8-12.6c-1.3,0.1-5.4,0.2-7,0.3c-0.7,0-0.1-0.9,0.4-1
			c1.4-0.2,4.2-0.3,7.5-0.6c3-3.9,5.6-6.2,7-6.2c1.8,0,1,2.4-1.2,5.8c1.8-0.1,5-0.2,6.2-0.2c2,0,1.4,1.2,1.1,1.3
			c-3.4,0.1-6.3,0.2-7.9,0.3c-3.4,4.7-6.2,7.8-11.8,13.4c-0.5,0.9-1,1.8-1.5,2.6c-4.2,7.7-8.2,17.4-6.7,17.4c3.2,0,15-11.4,18.2-18
			C279.6,270.1,264.8,288.9,257,288.9z M266,266.7c5-5.2,7.7-8.1,10.6-12.1c-0.3,0-2.1,0.1-2.8,0.2
			C271.4,258.2,269.5,260.7,266,266.7z M274.6,253.5l2.7-0.2c2-3,2.9-5.2,2.2-5.2C278.8,248.2,276.9,250.2,274.6,253.5z"/>
		<path fill="#522E87" d="M278.3,289c-3.3,0-0.1-7.6,4.4-16.1c8.5-16.2,19.4-32,22.6-32c4.1,0-5.2,14.2-16.2,24.6
			c-3.2,4.8-13.4,22.6-10.6,22.6c3.5,0,13.8-10.2,19.4-18.9C301.7,269.3,285.7,289,278.3,289z M290.1,263.2
			c9.9-9.9,16.7-21.5,15.1-21.5C303.8,241.7,296.9,251.8,290.1,263.2z"/>
		<path fill="#522E87" d="M324,259.3c-1,3.1-13,26.4-18.7,34.7c-6.2,8.7-11,14.4-16.5,14.4c-9.6,0-2.3-17,6.6-17c2,0,1,2.8-0.7,2.8
			c-1.1,0-1-1.5-0.2-2.2c-8,3-12.4,15.7-5.8,15.7c3.8,0,9.4-5.4,15.4-14.6c4.1-6.4,10-17.1,10.5-18.4c-2.2,3-11.4,14.1-16.5,14.1
			c-5.6,0,11.7-25,12.4-31.3c6.6-1.3-15,30.5-12,30.5c2.9,0,14.4-12.2,17.2-15.8c3.4-6.9,6.6-14.8,7.3-14.8
			C323.4,257.5,323.9,258.2,324,259.3z"/>
		<path fill="#522E87" d="M362.8,262.1c0,3.4-3.4,7.2-6.7,7.2c-1,0-1.5-0.7-1.5-1.4c0-0.8,0.6-1.5,1.5-1.5s1.3,1.4,0.4,2.2
			c2.6-0.6,4.7-4,4.7-6.6c0-2.2-1.3-4.2-3.9-4.2c-3.9,0-7.3,3.2-6.6,9.3c0.3,3,2.2,8.4,2.2,11.3c0.2,6.1-3.4,11.2-9.7,11.2
			c-3.1,0-6.6-2.1-6.6-7c0-4.9,4.4-10,9.3-10c0.8,0,1.5,0.3,1.5,0.6c0,0.1-0.1,0.1-0.1,0.2c-5.3,0-9,5.4-9,9.6
			c0,4.1,2.5,5.8,4.6,5.8c4.9,0,8.3-4.6,8-10.4c-0.2-2.9-1.7-7.8-2-10.9c-0.6-5.9,2.3-10.5,8.2-10.5
			C360.8,257,362.8,259.5,362.8,262.1z"/>
		<path fill="#522E87" d="M360,288.9c-2.8,0,0.3-9,6.8-21.4c3.3-6.2,4.8-8.6,7.8-12.6c-1.3,0.1-5.4,0.2-7,0.3c-0.7,0-0.1-0.9,0.4-1
			c1.4-0.2,4.2-0.3,7.5-0.6c3-3.9,5.6-6.2,7-6.2c1.8,0,1,2.4-1.2,5.8c1.8-0.1,5-0.2,6.2-0.2c2,0,1.4,1.2,1.1,1.3
			c-3.4,0.1-6.3,0.2-7.9,0.3c-3.4,4.7-6.2,7.8-11.8,13.4c-0.5,0.9-1,1.8-1.5,2.6c-4.2,7.7-8.2,17.4-6.7,17.4c3.2,0,15-11.4,18.2-18
			C382.5,270.1,367.7,288.9,360,288.9z M369,266.7c5-5.2,7.7-8.1,10.6-12.1c-0.3,0-2.1,0.1-2.8,0.2
			C374.4,258.2,372.4,260.7,369,266.7z M377.6,253.5l2.7-0.2c2-3,2.9-5.2,2.2-5.2C381.8,248.2,379.9,250.2,377.6,253.5z"/>
		<path fill="#522E87" d="M394.6,259.9c-0.4,0.8-5.5,9.9-8.6,15.4c-3.8,7-6.6,12.7-5.2,12.7c1.9,0,9.8-6.7,12.6-11.8
			c3.4,0.2-7.4,12.6-12.8,12.6c-3.3,0,0.3-7.8,4.6-15.8c3-5.8,7.9-13.9,8.5-15.4C394.4,257.4,395.1,259.2,394.6,259.9z M397,251.6
			c0-1.2,1-2.6,2.4-2.6c0.9,0,1.2,0.6,1.2,1.4c0,1.2-1.2,2.8-2.3,2.8C397.5,253.2,397,252.6,397,251.6z"/>
		<path fill="#522E87" d="M413.7,274.2c-2.5,0-1.8-5.4-1.3-7.1c-3.8,3.6-8.1,8.1-11.9,14.2c-1,2-1.6,3.3-2.4,5.4
			c1.3-0.2,2.7-0.4,4.1-0.4c2.9,0,2.5,1.3,2.3,1.6c-1.4-0.6-7.8-0.2-12.2,1.1c-0.3,0-0.6-0.3-0.4-0.5c0.2-0.4,2.2-1,4.8-1.5
			c4.3-13.7,13-27,13.8-28.2c1.2-1.4,3.1-1,2.6-0.2c-3.4,4.2-7.3,11.3-10.6,18.5c3.4-5.4,7.9-9.4,10.6-12.1
			c2.2-7.3,7.2-13.2,10-13.2c3,0-0.8,6.6-8.7,13.8c-1,2.4-1.7,7.8-0.5,7.8c1.4,0,4.5-3.8,5.6-5.5
			C421.3,267.9,416.2,274.2,413.7,274.2z M414.5,264.1c5.7-5.4,9.8-11.4,8.4-11.4C421.5,252.6,417.4,257,414.5,264.1z"/>
		<path fill="#522E87" d="M449.1,259.9c-0.4,0.8-5.5,9.9-8.6,15.4c-3.8,7-6.6,12.7-5.2,12.7c1.9,0,9.8-6.7,12.6-11.8
			c3.4,0.2-7.4,12.6-12.8,12.6c-3.3,0,0.3-7.8,4.6-15.8c3-5.8,7.9-13.9,8.5-15.4C448.9,257.4,449.5,259.2,449.1,259.9z M451.5,251.6
			c0-1.2,1-2.6,2.4-2.6c0.9,0,1.2,0.6,1.2,1.4c0,1.2-1.2,2.8-2.3,2.8C451.9,253.2,451.5,252.6,451.5,251.6z"/>
		<path fill="#522E87" d="M465,289.6c-4.1,0,3.4-14.3,8.1-23.5c2.5-4.9,3.8-7.7,3.6-7.7c-1.8,0-13.7,10.2-21.6,22
			c-1.3,2.5-2.4,4.8-3.3,6.8c0.9-0.1,2.3-0.3,4.3-0.3c2.2,0,2,1.4,1.8,1.7c-0.7-0.3-7.3-0.6-12.2,1.2c-0.3,0-0.6-0.3-0.4-0.5
			c0.5-0.5,2.8-1.4,5-1.8c6.7-16.9,16.6-31.8,16.9-32c1.2-1,1.4,1.7,1.4,1.7c-2.6,3.6-7,11-10.8,18.2c8.4-11,17.3-18.3,19.4-18.3
			c1,0,1.4,0.6,1.4,1.3c0,3.3-16.6,30.5-13.4,30.5c1.7,0,6.2-3,9.6-8.6C477.5,280.2,471,289.6,465,289.6z"/>
		<path fill="#522E87" d="M479.6,288.9c-2.8,0,0.3-9,6.8-21.4c3.3-6.2,4.8-8.6,7.8-12.6c-1.3,0.1-5.4,0.2-7,0.3
			c-0.7,0-0.1-0.9,0.4-1c1.4-0.2,4.2-0.3,7.5-0.6c3-3.9,5.6-6.2,7-6.2c1.8,0,1,2.4-1.2,5.8c1.8-0.1,5-0.2,6.2-0.2
			c2,0,1.4,1.2,1.1,1.3c-3.4,0.1-6.3,0.2-7.9,0.3c-3.4,4.7-6.2,7.8-11.8,13.4c-0.5,0.9-1,1.8-1.5,2.6c-4.2,7.7-8.2,17.4-6.7,17.4
			c3.2,0,15-11.4,18.2-18C502.2,270.1,487.4,288.9,479.6,288.9z M488.7,266.7c5-5.2,7.7-8.1,10.6-12.1c-0.3,0-2.1,0.1-2.8,0.2
			C494,258.2,492.1,260.7,488.7,266.7z M497.2,253.5l2.7-0.2c2-3,2.9-5.2,2.2-5.2C501.5,248.2,499.5,250.2,497.2,253.5z"/>
		<path fill="#522E87" d="M502.8,289c-9.9,0,5.2-31.8,16.7-31.8C529.8,257.1,514.1,289,502.8,289z M519.7,258
			c-8.3,0-24.2,30.1-16.7,30.1C511,288.1,527.2,258,519.7,258z"/>
		<path fill="#522E87" d="M565.1,240.9c3.3,0-1.7,9.8-13.7,21.6l-6.1,10.6c-4,7.1-6.7,15-4.2,15c5.1,0,15.8-13,18.3-20
			c-1.9-0.8-3.4-2.2-3.4-3.8c0-3,3.5-7.8,6.1-7.8c1.9,0,1.5,5.6-0.4,10.7c1.8,0.5,5.2-0.5,7-1.9c0.7,1-2.6,3.5-7.5,3.1
			c-1.8,5-11.5,20.6-20.2,20.6c-4.4,0-1.2-9.8,3.8-19.1C553.8,253.4,562.4,240.9,565.1,240.9z M553.1,259.5
			c8.8-9.4,13.3-17.4,12-17.4C563.9,242.2,559.1,249.2,553.1,259.5z M560,266.7c1.6-3.4,2.6-9.3,1.8-9.3c-1.2,0-4.4,3.8-4.4,6.7
			C557.4,265.2,558.6,266.5,560,266.7z"/>
		<path fill="#522E87" d="M575.5,289.2c-2,0-1-4.5,1.3-9.8c-2.4,3.6-8.8,9.8-12,9.8c-3.8,0-1-10.5,3.2-17.8
			c4.7-8.2,11-14.4,14.9-14.4c3,0,1.8,5.8,0.2,10.3c3.5-5.8,7.1-10.3,9.1-10.3c3.9,0-3.7,10.8-11.6,18.6c-3.2,6.7-5.7,12.8-4.5,12.6
			c2.5-0.3,10-7.4,13.3-12C592.2,276.2,581.3,289.2,575.5,289.2z M577.7,277.4c1.1-2.3,1.9-4.5,3.3-7c1.8-4.3,3.9-12.6,1.8-12.6
			c-2.7,0-8.6,6.8-13.1,14.8c-3.8,6.5-6.2,15.7-4.6,15.7C566.7,288.3,572.2,284,577.7,277.4z M581.7,273.4
			c6.7-7.2,12.2-15.5,10.5-15.5C591.1,257.8,585.5,265.7,581.7,273.4z"/>
		<path fill="#522E87" d="M593.4,288.9c-2.8,0,0.3-9,6.8-21.4c3.3-6.2,4.8-8.6,7.8-12.6c-1.3,0.1-5.4,0.2-7,0.3
			c-0.7,0-0.1-0.9,0.4-1c1.4-0.2,4.2-0.3,7.5-0.6c3-3.9,5.6-6.2,7-6.2c1.8,0,1,2.4-1.2,5.8c1.8-0.1,5-0.2,6.2-0.2
			c2,0,1.4,1.2,1.1,1.3c-3.4,0.1-6.3,0.2-7.9,0.3c-3.4,4.7-6.2,7.8-11.8,13.4c-0.5,0.9-1,1.8-1.5,2.6c-4.2,7.7-8.2,17.4-6.7,17.4
			c3.2,0,15-11.4,18.2-18C615.9,270.1,601.1,288.9,593.4,288.9z M602.4,266.7c5-5.2,7.7-8.1,10.6-12.1c-0.3,0-2.1,0.1-2.8,0.2
			C607.8,258.2,605.9,260.7,602.4,266.7z M611,253.5l2.7-0.2c2-3,2.9-5.2,2.2-5.2C615.2,248.2,613.3,250.2,611,253.5z"/>
		<path fill="#522E87" d="M614.3,288.9c-2.8,0,0.3-9,6.8-21.4c3.3-6.2,4.8-8.6,7.8-12.6c-1.3,0.1-5.4,0.2-7,0.3
			c-0.7,0-0.1-0.9,0.4-1c1.4-0.2,4.2-0.3,7.5-0.6c3-3.9,5.6-6.2,7-6.2c1.8,0,1,2.4-1.2,5.8c1.8-0.1,5-0.2,6.2-0.2
			c2,0,1.4,1.2,1.1,1.3c-3.4,0.1-6.3,0.2-7.9,0.3c-3.4,4.7-6.2,7.8-11.8,13.4c-0.5,0.9-1,1.8-1.5,2.6c-4.2,7.7-8.2,17.4-6.7,17.4
			c3.2,0,15-11.4,18.2-18C636.8,270.1,622,288.9,614.3,288.9z M623.3,266.7c5-5.2,7.7-8.1,10.6-12.1c-0.3,0-2.1,0.1-2.8,0.2
			C628.7,258.2,626.7,260.7,623.3,266.7z M631.9,253.5l2.7-0.2c2-3,2.9-5.2,2.2-5.2C636.1,248.2,634.2,250.2,631.9,253.5z"/>
		<path fill="#522E87" d="M640.9,275.3c5.3,0,16-17.1,11.5-17.1c-8.2,0-23.9,30.5-16.6,30.5c6,0,14.6-12.9,16-15.7
			c3.8,0-7.7,16.6-15.9,16.6c-5.3,0-3.5-9.3,1-17.6c4-7.5,10.3-14.6,15.6-14.6c7.4,0-3.6,19-11.5,19c-2.1,0-2.2-2.4-1.4-2.8
			C639.6,274.7,640.3,275.3,640.9,275.3z"/>
		<path fill="#522E87" d="M670.4,274.2c-2.5,0-1.8-5.4-1.3-7.1c-3.8,3.6-8.1,8.1-11.9,14.2c-1,2-1.6,3.3-2.4,5.4
			c1.3-0.2,2.7-0.4,4.1-0.4c2.9,0,2.5,1.3,2.3,1.6c-1.4-0.6-7.8-0.2-12.2,1.1c-0.3,0-0.6-0.3-0.4-0.5c0.2-0.4,2.2-1,4.8-1.5
			c4.3-13.7,13-27,13.8-28.2c1.2-1.4,3.1-1,2.6-0.2c-3.4,4.2-7.3,11.3-10.6,18.5c3.4-5.4,7.9-9.4,10.6-12.1
			c2.2-7.3,7.2-13.2,10-13.2c3,0-0.8,6.6-8.7,13.8c-1,2.4-1.7,7.8-0.5,7.8c1.4,0,4.5-3.8,5.6-5.5C678,267.9,672.9,274.2,670.4,274.2
			z M671.2,264.1c5.7-5.4,9.8-11.4,8.4-11.4C678.3,252.6,674.1,257,671.2,264.1z"/>
		<path fill="#522E87" d="M671.5,288.9c-0.7,0-0.4-1,0.3-2.4c0.5-0.8,1-1,1.5-1C675,285.4,672.8,288.9,671.5,288.9z"/>
	</g>
</g>
<g id="Layer_2">
</g>
</svg>
