<?xml version="1.0" encoding="utf-8"?>
<!-- Generator: Adobe Illustrator 19.2.1, SVG Export Plug-In . SVG Version: 6.00 Build 0)  -->
<svg version="1.1" xmlns="http://www.w3.org/2000/svg" xmlns:xlink="http://www.w3.org/1999/xlink" x="0px" y="0px"
	 viewBox="0 0 736.1 325.3" enable-background="new 0 0 736.1 325.3" xml:space="preserve">
<g id="Layer_1">
	<g>
		<path fill="#522E87" d="M219.5,4.9c-1.4-1.8-3.7-3.3-8.1-3.3c-6.5,0-13.2,3.7-18.3,8.3c-2.6,2.2-4.9,4.7-7.3,7.5
			c39.3,0.8,32,49.9,0.8,65.9c1,1.6,1.8,3.3,2.4,5.3c1.4-0.2,2.8-0.2,4.1-0.2c13.4,0,13.6,7.5,11,7.5c0-0.8-1.6-5.9-11.8-5.9
			l-3.1,0.2c0.2,0.8,0.2,1.6,0.2,2.4c0,17.1-15.1,37.9-32.4,37.9c-11.6,0-11.6-14-1.8-24.6c7.7-8.3,17.9-14.5,29.3-16.7
			c-0.2-1.6-0.8-2.9-1.4-4.3c-5.1,2-10.8,3.1-16.9,3.1c-5.9,0-7.7-2.8-7.7-4.3c0-3.9,5.1-7.7,14-7.7c5.3,0,9.6,2.2,12.6,5.3
			c26.5-16.1,33.8-62.1-0.4-62.3c-28.9,36.2-42.9,112-69.6,112c-10.2,0-17.1-8.5-17.1-25.2c0-32.8,33.4-85.9,83.3-88.5
			c3.3-3.7,6.9-7.1,10.6-9.8c6.5-4.7,12.2-7.5,19.5-7.5C220.9,0,221.9,5.3,219.5,4.9z M140.7,95.5c10.8-24.8,22.8-56.6,39.3-76.5
			c-46.6,3.1-80,53.5-80,86.3c0,15.9,5.9,24,15.1,24C123.8,129.3,132,115.2,140.7,95.5z M184.7,90.6c-11.2,2.2-21.4,9-28.9,17.1
			c-8.3,9.2-8.1,21,1.2,21c13.2,0,27.7-21.2,27.7-36.8V90.6z M182.1,82.8c-2.2-3.1-5.3-5.3-9.6-5.3c-7.7,0-12.4,2.8-12.4,6.1
			c0,1,1.4,2.9,5.9,2.9C171.9,86.5,177.2,85.1,182.1,82.8z"/>
		<path fill="#522E87" d="M231.7,129.9c-4.9,0-2.4-11,3.1-24c-5.9,8.8-21.6,24.2-29.5,24.2c-9.4,0-2.4-25.8,7.9-43.8
			c11.6-20.2,27.1-35.4,36.6-35.4c7.5,0,4.5,14.4,0.4,25.4c8.6-14.2,17.5-25.4,22.4-25.4c9.6,0-9,26.5-28.5,45.8
			c-7.9,16.5-14,31.5-11,30.9c6.1-0.8,24.6-18.3,32.6-29.5C272.6,98.1,245.8,129.9,231.7,129.9z M237,101c2.8-5.7,4.7-11,8.1-17.1
			c4.3-10.6,9.6-31.1,4.5-31.1c-6.7,0-21,16.7-32.2,36.4c-9.2,15.9-15.3,38.5-11.2,38.5C209.9,127.8,223.4,117.2,237,101z M246.8,91
			c16.5-17.7,29.9-38.1,25.8-38.1C269.8,52.9,256.3,72.1,246.8,91z"/>
		<path fill="#522E87" d="M340,11.2c8.1,0-4.1,24-33.6,53.1l-14.9,26.1c-9.8,17.5-16.5,36.8-10.4,36.8c12.6,0,38.7-32,45-49.1
			c-4.7-2-8.3-5.3-8.3-9.4c0-7.3,8.6-19.3,14.9-19.3c4.7,0,3.7,13.8-1,26.3c4.3,1.2,12.8-1.2,17.1-4.7c1.8,2.4-6.3,8.7-18.5,7.7
			C326,91,302,129.2,280.8,129.2c-10.8,0-2.9-24.2,9.4-47C312.1,41.9,333.3,11.2,340,11.2z M310.5,57c21.6-23,32.6-42.7,29.5-42.7
			S325.2,31.6,310.5,57z M327.4,74.7c3.9-8.5,6.5-22.8,4.3-22.8c-2.9,0-10.8,9.2-10.8,16.5C320.9,71,323.9,74.1,327.4,74.7z"/>
		<path fill="#522E87" d="M352.8,95.7c13,0,39.3-42.1,28.3-42.1c-20.1,0-58.8,74.9-40.9,74.9c14.7,0,35.8-31.6,39.3-38.5
			c9.2,0-18.9,40.7-39.1,40.7c-13,0-8.6-22.8,2.4-43.2c9.8-18.5,25.4-35.8,38.3-35.8c18.3,0-8.8,46.8-28.3,46.8
			c-5.1,0-5.3-5.9-3.3-6.9C349.6,94.4,351.4,95.7,352.8,95.7z"/>
		<path fill="#522E87" d="M415.9,80.8c11.2-3.9,19.9-27.5,12.8-27.5c-9,0-24.2,18.7-34,37.9c-9.4,18.5-13.2,37.7-5.3,37.7
			c14.7,0,33.2-30.9,37.7-40.3c8.6,0-16.7,42.3-37.7,42.3c-11,0-9.4-20.4-0.2-39.7c9.4-19.7,26.3-39.9,39.5-39.9
			c15.3,0-0.8,31.5-13.4,31.5c-3.3,0-4.9-4.1-2.4-6.1C415.5,74.5,418.8,78.2,415.9,80.8z"/>
		<path fill="#522E87" d="M477.6,69.2c-4.7,6.7-12.4,17.1-17.9,24c1.4-0.4,3.1-1,4.5-1c12.8,0-11.8,37-4.9,37
			c4.7,0,15.9-16.1,18.1-20.8c7.1,0-8.1,22.4-18.1,22.4c-13.4,0,9.2-36.2,4.5-36.2c-1.8,0-3.9,0.4-6.1,1.4
			c-13.8,17.7-24.6,35.4-30.1,35.4c-10.8,0,6.9-29.3,28.7-37c5.9-8.1,12.4-16.7,17.3-23.6c-2.8,1.2-5.7,2.6-8.1,2.6
			c-9.2,0,3.9-24,0.6-24c-8.6,0-23.4,26.7-24.8,32.2c-7.7,0,9.4-34.2,24.8-34.2c10.6,0-3.9,23.8,0.2,23.8c2,0,6.1-2,10.4-4.9
			c5.7-7.7,10.2-13.8,13-13.8C494.7,52.5,487.2,63.3,477.6,69.2z M454.4,97.1c-14.7,8.1-31.1,32.4-26.7,32.4
			C431,129.5,442.8,112.2,454.4,97.1z"/>
		<path fill="#522E87" d="M562.1,57.6c-2.2,0-2.2-2.6-1.8-3.3c-9.8,2.2-31.5,18.9-46.4,36.6c7.7-7.1,18.1-13.6,21.8-13.6
			c9.4,0-20.1,49.5-14.7,49.5c5.9,0,24.8-19.1,30.7-31.1c9.2,0-19.3,33.2-30.9,33.2c-12.8,0,17.1-48.8,13.4-48.8
			c-2.8,0-23.2,14.2-31.1,23.2c-4.3,7.9-8.6,16.9-12.2,24.4c-1,2.4-4.5,2.2-4.1,1c25-58.4,62.1-112.6,67-117.4
			c1.8-1.2,2.6,2.4,2.8,4.5c-9.2,11-31.6,45.6-50.5,80.2c-0.4,0.6-0.8,1.6-0.4,1.4c17.9-23.6,45.2-46.6,58.2-46.6
			C568.2,50.9,566,57.6,562.1,57.6z"/>
		<path fill="#522E87" d="M588.4,129.9c-4.9,0-2.4-11,3.1-24c-5.9,8.8-21.6,24.2-29.5,24.2c-9.4,0-2.4-25.8,7.9-43.8
			c11.6-20.2,27.1-35.4,36.6-35.4c7.5,0,4.5,14.4,0.4,25.4c8.6-14.2,17.5-25.4,22.4-25.4c9.6,0-9,26.5-28.5,45.8
			c-7.9,16.5-14,31.5-11,30.9c6.1-0.8,24.6-18.3,32.6-29.5C629.3,98.1,602.6,129.9,588.4,129.9z M593.8,101c2.8-5.7,4.7-11,8.1-17.1
			c4.3-10.6,9.6-31.1,4.5-31.1c-6.7,0-21,16.7-32.2,36.4c-9.2,15.9-15.3,38.5-11.2,38.5C566.6,127.8,580.2,117.2,593.8,101z
			 M603.6,91c16.5-17.7,29.9-38.1,25.8-38.1C626.6,52.9,613,72.1,603.6,91z"/>
		<path fill="#522E87" d="M53.2,263.2c-4.7,6.7-12.4,17.1-17.9,24c1.4-0.4,3.1-1,4.5-1c12.8,0-11.8,37-4.9,37
			c4.7,0,15.9-16.1,18.1-20.8c7.1,0-8.1,22.4-18.1,22.4c-13.4,0,9.2-36.2,4.5-36.2c-1.8,0-3.9,0.4-6.1,1.4
			c-13.8,17.7-24.6,35.4-30.1,35.4c-10.8,0,6.9-29.3,28.7-37c5.9-8.1,12.4-16.7,17.3-23.6c-2.8,1.2-5.7,2.6-8.1,2.6
			c-9.2,0,3.9-24,0.6-24c-8.6,0-23.4,26.7-24.8,32.2c-7.7,0,9.4-34.2,24.8-34.2c10.6,0-3.9,23.8,0.2,23.8c2,0,6.1-2,10.4-4.9
			c5.7-7.7,10.2-13.8,13-13.8C70.3,246.5,62.8,257.3,53.2,263.2z M30,291.1c-14.7,8.1-31.1,32.4-26.7,32.4
			C6.6,323.5,18.4,306.2,30,291.1z"/>
		<path fill="#522E87" d="M140.9,274.8c11.2-3.9,19.9-27.5,12.8-27.5c-9,0-24.2,18.7-34,37.9c-9.4,18.5-13.2,37.7-5.3,37.7
			c14.7,0,33.2-30.9,37.7-40.3c8.6,0-16.7,42.3-37.7,42.3c-11,0-9.4-20.4-0.2-39.7c9.4-19.7,26.3-39.9,39.5-39.9
			c15.3,0-0.8,31.5-13.4,31.5c-3.3,0-4.9-4.1-2.4-6.1C140.5,268.5,143.8,272.2,140.9,274.8z"/>
		<path fill="#522E87" d="M202.6,263.2c-4.7,6.7-12.4,17.1-17.9,24c1.4-0.4,3.1-1,4.5-1c12.8,0-11.8,37-4.9,37
			c4.7,0,15.9-16.1,18.1-20.8c7.1,0-8.1,22.4-18.1,22.4c-13.4,0,9.2-36.2,4.5-36.2c-1.8,0-3.9,0.4-6.1,1.4
			c-13.8,17.7-24.6,35.4-30.1,35.4c-10.8,0,6.9-29.3,28.7-37c5.9-8.1,12.4-16.7,17.3-23.6c-2.8,1.2-5.7,2.6-8.1,2.6
			c-9.2,0,3.9-24,0.6-24c-8.6,0-23.4,26.7-24.8,32.2c-7.7,0,9.4-34.2,24.8-34.2c10.6,0-3.9,23.8,0.2,23.8c2,0,6.1-2,10.4-4.9
			c5.7-7.7,10.2-13.8,13-13.8C219.7,246.5,212.2,257.3,202.6,263.2z M179.4,291.1c-14.7,8.1-31.1,32.4-26.7,32.4
			C156,323.5,167.8,306.2,179.4,291.1z"/>
		<path fill="#522E87" d="M231.1,289.7c13,0,39.3-42.1,28.3-42.1c-20.1,0-58.8,74.9-40.9,74.9c14.7,0,35.8-31.6,39.3-38.5
			c9.2,0-18.9,40.7-39.1,40.7c-13,0-8.6-22.8,2.4-43.2c9.8-18.5,25.4-35.8,38.3-35.8c18.3,0-8.8,46.8-28.3,46.8
			c-5.1,0-5.3-5.9-3.3-6.9C227.9,288.4,229.7,289.7,231.1,289.7z"/>
		<path fill="#522E87" d="M303.6,287.2c-6.1,0-4.5-13.4-3.1-17.5c-9.4,8.8-19.9,19.9-29.3,34.8c-2.4,4.9-3.9,8.1-5.9,13.2
			c3.1-0.6,6.7-1,10-1c7.1,0,6.1,3.1,5.7,3.9c-3.5-1.4-19.1-0.4-30.1,2.8c-0.8,0-1.4-0.8-1-1.2c0.6-1,5.5-2.4,11.8-3.7
			c10.6-33.6,32-66.2,33.8-69.2c2.9-3.5,7.7-2.6,6.3-0.4c-8.3,10.4-17.9,27.7-26.1,45.4c8.3-13.2,19.5-23.2,25.9-29.7
			c5.5-17.9,17.7-32.4,24.6-32.4c7.5,0-2,16.1-21.4,34c-2.6,5.9-4.1,19.1-1.2,19.1c3.3,0,11-9.4,13.8-13.6
			C322.3,271.6,309.7,287.2,303.6,287.2z M305.6,262.2c14-13.4,24.2-28.1,20.6-28.1C322.9,234.1,312.7,244.7,305.6,262.2z"/>
		<path fill="#522E87" d="M327.6,289.7c13,0,39.3-42.1,28.3-42.1c-20.1,0-58.8,74.9-40.9,74.9c14.7,0,35.8-31.6,39.3-38.5
			c9.2,0-18.9,40.7-39.1,40.7c-13,0-8.6-22.8,2.4-43.2c9.8-18.5,25.4-35.8,38.3-35.8c18.3,0-8.8,46.8-28.3,46.8
			c-5.1,0-5.3-5.9-3.3-6.9C324.5,288.4,326.2,289.7,327.6,289.7z"/>
		<path fill="#522E87" d="M422,257.3c0,8.3-8.3,17.9-16.9,17.9c-2.4,0-3.5-2-3.5-3.5c0-2,1.4-3.9,3.7-3.9c1.2,0,2.4,1,2.4,2.4
			c0,0.8-0.4,2.4-1.4,3.1c7.5-2.2,12-10.2,12-16.5c0-5.3-3.3-9.6-9.8-9.6c-8.5,0-17.1,7.7-16.5,22.6c0.2,7.5,3.3,17.9,3.3,25
			c0.2,15.3-7.9,30.3-24.8,30.3c-7.5,0-15.5-5.1-15.5-17.3c0-12,10.6-24.8,22.6-24.8c2,0,3.9,1,3.9,1.8c0,0.2-0.2,0.2-0.2,0.4
			c-13,0-22.2,13.6-22.2,23.8c0,10,6.7,14.2,11.2,14.2c14.2,0,20.6-14.4,20.2-28.5c0-7.1-2.9-16.5-3.1-24.2
			c-0.6-16.5,9-25.2,21-25.2C417,245.1,422,250.8,422,257.3z M427.3,223.7c-1.2,5.7-13.6,19.1-15.7,15.5c3.5-3.9,8.8-10.2,13.6-19.3
			C426.3,219.6,427.9,221.3,427.3,223.7z"/>
		<path fill="#522E87" d="M445.3,324.9c-10,0,8.5-35.2,19.9-57.8c6.1-12,9.4-18.9,8.8-18.9c-4.5,0-33.6,25-53.1,54.1
			c-3.1,6.1-5.9,11.8-8.1,16.7c2.2-0.2,5.7-0.8,10.6-0.8c5.3,0,4.9,3.3,4.3,4.1c-1.8-0.8-17.9-1.6-30.1,2.9c-0.8,0-1.4-0.8-1-1.2
			c1.2-1.2,6.9-3.3,12.2-4.3c16.5-41.5,40.9-78,41.5-78.6c2.9-2.4,3.3,4.1,3.3,4.1c-6.5,8.8-17.1,26.9-26.5,44.6
			c20.6-27.1,42.5-45,47.8-45c2.4,0,3.5,1.4,3.5,3.1c0,8.1-40.9,74.9-32.8,74.9c4.1,0,15.3-7.3,23.6-21.2
			C476.2,301.7,460.1,324.9,445.3,324.9z"/>
		<path fill="#522E87" d="M515.1,252c-1,2-13.6,24.4-21,37.9c-9.4,17.1-16.1,31.3-12.8,31.3c4.7,0,24.2-16.5,31.1-29.1
			c8.3,0.6-18.1,31.1-31.5,31.1c-8.1,0,0.8-19.1,11.2-38.7c7.5-14.4,19.5-34.2,20.8-37.7C514.7,245.9,516.3,250.2,515.1,252z
			 M521,231.5c0-2.9,2.6-6.5,5.9-6.5c2.2,0,2.9,1.6,2.9,3.5c0,2.9-2.9,6.9-5.7,6.9C522.2,235.5,521,233.9,521,231.5z"/>
		<path fill="#522E87" d="M549.5,323.9c-4.9,0-2.4-11,3.1-24c-5.9,8.8-21.6,24.2-29.5,24.2c-9.4,0-2.4-25.8,7.9-43.8
			c11.6-20.2,27.1-35.4,36.6-35.4c7.5,0,4.5,14.4,0.4,25.4c8.6-14.2,17.5-25.4,22.4-25.4c9.6,0-9,26.5-28.5,45.8
			c-7.9,16.5-14,31.5-11,30.9c6.1-0.8,24.6-18.3,32.6-29.5C590.4,292.1,563.7,323.9,549.5,323.9z M554.8,295
			c2.8-5.7,4.7-11,8.1-17.1c4.3-10.6,9.6-31.1,4.5-31.1c-6.7,0-21,16.7-32.2,36.4c-9.2,15.9-15.3,38.5-11.2,38.5
			C527.7,321.8,541.3,311.2,554.8,295z M564.7,285c16.5-17.7,29.9-38.1,25.8-38.1C587.7,246.9,574.1,266.1,564.7,285z"/>
		<path fill="#522E87" d="M654.1,323.2c-14.9,0,24.2-66.2,25.4-68.6c-4.3,0.2-26.1,15.9-42.5,37.9c-6.3,11-12.6,25.9-13.2,28.1
			c-6.3,3.3-4.7-10.6,10.6-30.1c13.2-28.5,22-44.2,20.6-44.2c-4.5,0-34.2,25.2-54.1,55.8c-2.6,5.3-5.3,11-7.1,15.5
			c1.6-0.2,4.7-1,9.8-1c5.9,0,4.9,3.1,4.5,3.9c-1.8-0.8-17.9-1-30.1,3.5c-0.8,0-1.4-0.8-1-1.2c0.8-1.2,7.7-3.7,12.6-4.7
			c16.5-41.3,41.1-78.2,41.7-79c2.9-2.2,3.3,4.1,3.3,4.1c-6.5,9-17.1,27.1-26.5,44.8c20.6-27.1,42.5-45,47.8-45
			c2.4,0,3.3,1.2,3.3,2.9c0,3.7-8.5,19.7-17.1,36c17.5-19.9,34.4-31.8,38.7-31.8c6.7,0,1.6,8.5-2.4,15.5
			c-11,19.9-29.9,55.2-24.2,55.2c4.1,0,15.1-7.1,23.8-21C685,300,668.8,323.2,654.1,323.2z"/>
		<path fill="#522E87" d="M721.3,252c-1,2-13.6,24.4-21,37.9c-9.4,17.1-16.1,31.3-12.8,31.3c4.7,0,24.2-16.5,31.1-29.1
			c8.3,0.6-18.1,31.1-31.5,31.1c-8.1,0,0.8-19.1,11.2-38.7c7.5-14.4,19.5-34.2,20.8-37.7C720.9,245.9,722.5,250.2,721.3,252z
			 M727.2,231.5c0-2.9,2.6-6.5,5.9-6.5c2.2,0,2.9,1.6,2.9,3.5c0,2.9-2.9,6.9-5.7,6.9C728.4,235.5,727.2,233.9,727.2,231.5z"/>
	</g>
</g>
<g id="Layer_2">
</g>
</svg>
