<?xml version="1.0" encoding="utf-8"?>
<!-- Generator: Adobe Illustrator 19.2.1, SVG Export Plug-In . SVG Version: 6.00 Build 0)  -->
<svg version="1.1" xmlns="http://www.w3.org/2000/svg" xmlns:xlink="http://www.w3.org/1999/xlink" x="0px" y="0px"
	 viewBox="0 0 662.4 392" enable-background="new 0 0 662.4 392" xml:space="preserve">
<g id="Layer_1">
	<g>
		<path fill="#FFFFFF" d="M80,153.9H0.6v-14.2l21.6-47H0V76.7h29.7l20.6-45.2h-24L8.1,55.6L4.5,17.1h75.1v16.1L60,76.7h18.7v16.1
			H52.7l-20.1,44.6h25.2l18.9-29.5L80,153.9z"/>
		<path fill="#FFFFFF" d="M151.4,52.1L126,153.9l-16.5,43.6l-25.4-13l27.7-30.7H97.7L77.3,52.1h28.1l12.4,81.8l12.2-56.4V52.1H151.4
			z"/>
		<path fill="#FFFFFF" d="M218.4,51.9l-4.1,29.7l-18.1-13c-2,2.4-4.1,5.7-7.3,11.8v73.5h-26.3V52.1h21l4.7,12.6
			c3.1-7.1,8.8-14.9,19.7-14.9C210.9,49.7,214.3,50.3,218.4,51.9z"/>
		<path fill="#FFFFFF" d="M278.7,153.9l-3.9-8.5c-4.3,5.7-9.6,10.6-21.4,10.6c-20.6,0-31.3-18.1-31.3-53.9
			c0-40.1,12.2-52.3,42.9-52.3c10.4,0,16.5,0.4,32.6,4.9v99.1H278.7z M270.5,136V63.5h-18.9v79.2C259.7,142.7,266.2,140.9,270.5,136
			z"/>
		<path fill="#FFFFFF" d="M368.8,51.9l-4.1,29.7l-18.1-13c-2,2.4-4.1,5.7-7.3,11.8v73.5h-26.3V52.1h21l4.7,12.6
			c3.1-7.1,8.8-14.9,19.7-14.9C361.3,49.7,364.6,50.3,368.8,51.9z"/>
		<path fill="#FFFFFF" d="M427.1,153.9l-2.9-9c-3.3,6.3-10,11.2-21.8,11.2c-19.9,0-29.9-14.4-29.9-52.1c0-41.3,9.8-53.7,32.2-53.7
			c7.5,0,12.2,1.2,15.1,3.1V12.4h26.3v141.5H427.1z M419.9,131.7v-68h-18.5v78.6C409.7,142.3,415.5,139.8,419.9,131.7z"/>
		<path fill="#FFFFFF" d="M533.7,103.4c-0.2,25-7.3,52.7-37,52.7H493c-29.7,0-36.8-27.7-37-52.7v-0.6c0-0.2,0-0.4,0-0.6
			c0.2-25,7.3-52.5,37-52.5h3.7c29.7,0,36.8,27.5,37,52.5v0.6V103.4z M504.8,63.7h-19.9v78.6h19.9V63.7z M504,33.6h-17.5l1.6-18.3
			L488.9,0H513L504,33.6z"/>
		<path fill="#FFFFFF" d="M662.4,52.1l-25.8,101.8h-29.1l-8.6-43.1l-10.8,43.1h-29.3L538.4,52.1h28.5l9.6,60.7l3.3,25l12.6-59.2
			l-5.3-26.5h28.3l9.8,60.7l3.1,24.8l13-60.7L640,52.1H662.4z"/>
		<path fill="#FFFFFF" d="M212.1,389.8h-79.4v-14.2l49.7-108.3h-24l-18.3,24.2l-3.5-38.5h75.1v16.1l-47,104.2h25.2l18.9-29.5
			L212.1,389.8z M162,238.4l-0.4-25h26.3l-1,25H162z"/>
		<path fill="#FFFFFF" d="M250.8,345.2v33h4.3c11,0,19.3-1.4,29.5-4.3l2.2,13c-5.3,2.4-15.7,5.1-27.7,5.1
			c-30.1,0-37.5-16.7-37.5-52.1c0-33.8,9.2-54.3,37.7-54.3c18.7,0,37.2,8.3,31.1,59.6H250.8z M250.8,299.6v33h16.7v-33H250.8z"/>
		<path fill="#FFFFFF" d="M359.3,287.8l-4.1,29.7l-18.1-13c-2,2.4-4.1,5.7-7.3,11.8v73.5h-26.3V288h21l4.7,12.6
			c3.1-7.1,8.8-14.9,19.7-14.9C351.9,285.6,355.2,286.2,359.3,287.8z"/>
		<path fill="#FFFFFF" d="M434.2,316.1v71.4c-10.4,3.9-28.7,4.5-34.6,4.5c-22.6,0-37.3-7.3-37.3-31.6c0-25.6,16.9-32.2,44.8-32.2
			v-28.5h-11.6l-20.6,21.2l-3.5-32.8c7.5-1.2,18.3-2.4,30.7-2.4C427.3,285.6,434.2,295.6,434.2,316.1z M407.1,378.2v-37.4h-15.9
			v37.4H407.1z"/>
		<path fill="#FFFFFF" d="M522.5,314.9v74.9h-26.3v-90.2h-12.6l-7.7,9.4v80.8h-26.3V288h21l3.5,9.2c4.3-7.5,11.8-11.6,24.4-11.6
			C520.3,285.6,522.5,298.6,522.5,314.9z M483,251.2l0.8-15.3h24.2l-9,33.6h-17.5L483,251.2z"/>
	</g>
</g>
<g id="Layer_2">
</g>
</svg>
