<?xml version="1.0" encoding="utf-8"?>
<!-- Generator: Adobe Illustrator 19.2.1, SVG Export Plug-In . SVG Version: 6.00 Build 0)  -->
<svg version="1.1" xmlns="http://www.w3.org/2000/svg" xmlns:xlink="http://www.w3.org/1999/xlink" x="0px" y="0px"
	 viewBox="0 0 708 245.5" enable-background="new 0 0 708 245.5" xml:space="preserve">
<g id="Layer_1">
	<g>
		<path fill="#E2E7E8" d="M119.8,27.8c0,13.7-10.8,22.9-25.2,22.9H81.4V80h-7.1V6.6h20.9C108.6,6.6,119.8,13.2,119.8,27.8z
			 M112.2,28.7c0-10.3-6-15.7-18.6-15.7H81.4v31.4H94C105,44.3,112.2,39.4,112.2,28.7z"/>
		<path fill="#E2E7E8" d="M143,81.4c-7,0-9.9-4-9.9-11.7V0h7v68.1c0,4.6,1.2,7,4.2,7c1.5,0,3.5-0.2,6-1.3h0.6v6.2
			C147.9,81.3,144.9,81.4,143,81.4z"/>
		<path fill="#E2E7E8" d="M203.5,40.6V80h-6.2v-7.6c-7.3,6.6-12.4,9-19.1,9c-11.9,0-17.5-7.8-17.5-16.6c0-11.6,9.4-17.4,21.8-17.4
			c2.3,0,6.3,0.2,13.9,0.7v-7.5c0-9.1-5-13.1-13.9-13.1c-6.4,0-13.1,1.9-18.7,5.2h-0.5v-6.6c5.2-3.1,11.8-4.7,20-4.7
			C195.9,21.4,203.5,27.3,203.5,40.6z M196.6,65.5V53.9c-6.1-0.5-11.8-0.8-14.3-0.8c-8.9,0-14.1,4-14.1,11.4
			c0,6.1,3.5,10.8,11.2,10.8C185.9,75.3,190.6,71.8,196.6,65.5z"/>
		<path fill="#E2E7E8" d="M218.4,52.5c0-19.9,9-31.1,24.2-31.1c5.4,0,12.2,1.5,16.8,5.3l-1.2,6.4h-0.6c-3.8-2.9-10.3-5.5-15.8-5.5
			c-9,0-16,7-16,24.1c0,15.3,5.6,23.5,17.4,23.5c4.5,0,10-1.2,15-4.8h0.5V77c-3.8,2.9-10.8,4.4-16.7,4.4
			C227.1,81.4,218.4,71.8,218.4,52.5z"/>
		<path fill="#E2E7E8" d="M355.7,6.6V80h-7.1V44.9h-35.4V80H306V6.6h7.1v32h35.4v-32H355.7z"/>
		<path fill="#E2E7E8" d="M413.3,40.6V80h-6.2v-7.6c-7.3,6.6-12.4,9-19.1,9c-11.9,0-17.5-7.8-17.5-16.6c0-11.6,9.4-17.4,21.8-17.4
			c2.3,0,6.3,0.2,13.9,0.7v-7.5c0-9.1-5-13.1-13.9-13.1c-6.4,0-13.1,1.9-18.7,5.2h-0.5v-6.6c5.2-3.1,11.8-4.7,20-4.7
			C405.6,21.4,413.3,27.3,413.3,40.6z M406.3,65.5V53.9c-6.1-0.5-11.8-0.8-14.3-0.8c-8.9,0-14.1,4-14.1,11.4
			c0,6.1,3.5,10.8,11.2,10.8C395.6,75.3,400.3,71.8,406.3,65.5z"/>
		<path fill="#E2E7E8" d="M441.3,81.4c-7,0-9.9-4-9.9-11.7V0h7v68.1c0,4.6,1.2,7,4.2,7c1.5,0,3.5-0.2,6-1.3h0.6v6.2
			C446.2,81.3,443.1,81.4,441.3,81.4z"/>
		<path fill="#E2E7E8" d="M471.8,81.4c-7,0-9.9-4-9.9-11.7V0h7v68.1c0,4.6,1.2,7,4.2,7c1.5,0,3.5-0.2,6-1.3h0.6v6.2
			C476.6,81.3,473.6,81.4,471.8,81.4z"/>
		<path fill="#E2E7E8" d="M533.5,52.9h-38.2c0.5,14.8,5.5,22.5,19.2,22.5c5.9,0,10.3-1.2,16-4.5h0.6v6.5c-3.9,2.4-9.8,4-17.7,4
			c-17.7,0-25.5-10.9-25.5-28.7c0-20.1,9.4-31.3,24.3-31.3c14.3,0,21.3,9.8,21.3,27.9V52.9z M495.4,47.2h31.2
			c-0.4-13.2-5.1-19.8-15-19.8C502.2,27.5,496.2,34.5,495.4,47.2z"/>
		<path fill="#E2E7E8" d="M578.9,23.4l-1.3,6.6h-0.5c-2.2-0.9-4.2-1.3-6.3-1.3c-6,0-10.1,5.2-15.2,13.9V80h-7V22.8h6.7v10.7
			c5.9-8.1,10.6-12.1,16.4-12.1C574.2,21.4,576.8,22.3,578.9,23.4z"/>
		<path fill="#E2E7E8" d="M628.4,40.6V80h-6.2v-7.6c-7.3,6.6-12.4,9-19.1,9c-11.9,0-17.5-7.8-17.5-16.6c0-11.6,9.4-17.4,21.8-17.4
			c2.3,0,6.3,0.2,13.9,0.7v-7.5c0-9.1-5-13.1-13.9-13.1c-6.4,0-13.1,1.9-18.7,5.2h-0.5v-6.6c5.2-3.1,11.8-4.7,20-4.7
			C620.7,21.4,628.4,27.3,628.4,40.6z M621.4,65.5V53.9c-6.1-0.5-11.8-0.8-14.3-0.8c-8.9,0-14.1,4-14.1,11.4
			c0,6.1,3.5,10.8,11.2,10.8C610.7,75.3,615.5,71.8,621.4,65.5z"/>
		<path fill="#E2E7E8" d="M0,186.9C0,162.5,11.1,148,30.9,148c19.4,0,29.3,14.1,29.3,37.2c0,24.3-11,39-30.9,39
			C9.9,224.2,0,210,0,186.9z M52.6,186.3c0-22.1-9.1-31.9-22.5-31.9c-13.4,0-22.5,9.6-22.5,31.8c0,21.8,8.8,31.7,22.6,31.7
			C43.8,217.8,52.6,208,52.6,186.3z"/>
		<path fill="#E2E7E8" d="M71.8,219.1v-7.2h0.5c4.8,3.3,10.4,6.3,16.8,6.3c8.7,0.1,13-4,13-9.9c0-5.7-4.1-8.5-13.2-12
			c-7-2.7-16.2-5.5-16.2-16.2c0-9.2,6.7-15.9,18-15.9c6.3,0,11.2,1.5,15.4,3.7l-1.3,6.5h-0.6c-4.3-3-9.9-4.2-14.5-4.2
			c-7.9,0-10,5.2-10,9.1c0,5,3.4,7.3,12.6,11.2c9.7,4,16.9,7.2,16.9,17c0,9.6-7,16.7-21,16.7C81.7,224.2,75.5,222,71.8,219.1z"/>
		<path fill="#E2E7E8" d="M120.3,145.6c0-3.5,2.2-5.5,5.6-5.5c3.2,0,5.3,2,5.3,5.3c0,3.5-2.3,5.5-5.6,5.5S120.3,149,120.3,145.6z
			 M122.3,165.6h7v57.2h-7V165.6z"/>
		<path fill="#E2E7E8" d="M189.7,195.7h-38.2c0.5,14.8,5.5,22.5,19.2,22.5c5.9,0,10.3-1.2,16-4.5h0.6v6.5c-3.9,2.4-9.8,4-17.7,4
			c-17.7,0-25.5-10.9-25.5-28.7c0-20.1,9.4-31.3,24.3-31.3c14.3,0,21.3,9.8,21.3,27.9V195.7z M151.6,190h31.2
			c-0.4-13.2-5.1-19.8-15-19.8C158.5,170.3,152.4,177.3,151.6,190z"/>
		<path fill="#E2E7E8" d="M247.8,142.8v80h-6.4v-8.9c-6.2,6.9-12,10.3-19,10.3c-12.8,0-20.8-10.3-20.8-29.1c0-19.2,8.6-30.9,25-30.9
			c5.5,0,10.5,1.6,14.2,3.1v-24.6H247.8z M240.9,206.8v-32.4c-4.4-2.3-9.3-4.1-14.2-4.1c-11.5,0-17.6,7.4-17.6,24
			c0,16.3,5.9,23.9,14.3,23.9C229.2,218.2,234.2,214.4,240.9,206.8z"/>
		<path fill="#E2E7E8" d="M276.1,224.2c-7,0-9.9-4-9.9-11.7v-69.7h7v68.1c0,4.6,1.2,7,4.2,7c1.5,0,3.5-0.2,6-1.3h0.6v6.2
			C281,224.1,278,224.2,276.1,224.2z"/>
		<path fill="#E2E7E8" d="M337.8,195.7h-38.2c0.5,14.8,5.5,22.5,19.2,22.5c5.9,0,10.3-1.2,16-4.5h0.6v6.5c-3.9,2.4-9.8,4-17.7,4
			c-17.7,0-25.5-10.9-25.5-28.7c0-20.1,9.4-31.3,24.3-31.3c14.3,0,21.3,9.8,21.3,27.9V195.7z M299.7,190h31.2
			c-0.4-13.2-5.1-19.8-15-19.8C306.6,170.3,300.5,177.3,299.7,190z"/>
		<path fill="#E2E7E8" d="M437.1,222.8h-8.5c-7.2-11.2-11.6-18.9-14.9-24.2c-4.9-7.8-8.4-10.3-14.5-10.3c-1.6,0-3.3,0.1-5.1,0.2
			v34.3H387v-73.4h7.1v32.7c2-0.1,4-0.2,5.8-0.2h1.2l24.3-32.5h8.1l-21.7,28.4c-1.1,1.5-2.7,3.4-4.4,5.3c5.1,1.9,8.6,6.3,13.5,13.9
			C424.9,203.2,429.7,211.7,437.1,222.8z"/>
		<path fill="#E2E7E8" d="M487.1,183.4v39.5h-6.2v-7.6c-7.3,6.6-12.4,9-19.1,9c-11.9,0-17.5-7.8-17.5-16.6
			c0-11.6,9.4-17.4,21.8-17.4c2.3,0,6.3,0.2,13.9,0.7v-7.5c0-9.1-5-13.1-13.9-13.1c-6.4,0-13.1,1.9-18.7,5.2h-0.5v-6.6
			c5.2-3.1,11.8-4.7,20-4.7C479.4,164.2,487.1,170.1,487.1,183.4z M480.1,208.3v-11.6c-6.1-0.5-11.8-0.8-14.3-0.8
			c-8.9,0-14.1,4-14.1,11.4c0,6.1,3.5,10.8,11.2,10.8C469.4,218.1,474.1,214.6,480.1,208.3z"/>
		<path fill="#E2E7E8" d="M551.4,193.1c0,19.4-8.5,31.1-27.3,31.1c-6.4,0-14.2-2.1-18.9-4.5v-76.9h7v31.3c6.7-7,11.9-9.9,18.5-9.9
			C543.8,164.2,551.4,174.7,551.4,193.1z M544,193.9c0-15.7-5.3-23.6-14.2-23.6c-5.8,0-10.6,3.3-17.6,11.6v33.4
			c4.1,1.9,8.6,3,12.7,3C538,218.2,544,210.9,544,193.9z"/>
		<path fill="#E2E7E8" d="M605.2,183.4v39.5h-6.2v-7.6c-7.3,6.6-12.4,9-19.1,9c-11.9,0-17.5-7.8-17.5-16.6
			c0-11.6,9.4-17.4,21.8-17.4c2.3,0,6.3,0.2,13.9,0.7v-7.5c0-9.1-5-13.1-13.9-13.1c-6.4,0-13.1,1.9-18.7,5.2h-0.5v-6.6
			c5.2-3.1,11.8-4.7,20-4.7C597.5,164.2,605.2,170.1,605.2,183.4z M598.2,208.3v-11.6c-6.1-0.5-11.8-0.8-14.3-0.8
			c-8.9,0-14.1,4-14.1,11.4c0,6.1,3.5,10.8,11.2,10.8C587.5,218.1,592.3,214.6,598.2,208.3z"/>
		<path fill="#E2E7E8" d="M648.8,216v6.2c-3.1,1.5-6.6,2-10.5,2c-9.6,0-12.5-5.8-12.5-13.5V172h-9.3v-6.3h9.3v-12.6l6.5-1.1h0.5
			v13.7h16v6.3h-16v37.2c0,4.8,0.9,8.8,6.8,8.8c3.3,0,6-0.5,8.7-1.9H648.8z"/>
		<path fill="#E2E7E8" d="M686.6,222.1l-1.7,10.5c-1.2,7.5-6.6,13-14.8,13c-2.1,0-4.1-0.2-6.9-1.5v-6.3h0.3c2.5,1.2,4,1.5,6.2,1.5
			c4.6,0,8.3-2.6,9.1-8.7l1-8.2l-22.3-56.7h7.5l16,41.3l2.4,7.5l2.3-7.5l15.2-41.3h7.1L686.6,222.1z"/>
	</g>
</g>
<g id="Layer_2">
</g>
</svg>
