<?xml version="1.0" encoding="utf-8"?>
<!-- Generator: Adobe Illustrator 19.2.1, SVG Export Plug-In . SVG Version: 6.00 Build 0)  -->
<svg version="1.1" xmlns="http://www.w3.org/2000/svg" xmlns:xlink="http://www.w3.org/1999/xlink" x="0px" y="0px"
	 viewBox="0 0 985.2 374.9" enable-background="new 0 0 985.2 374.9" xml:space="preserve">
<g id="Layer_1">
	<g>
		<path fill="#FFFFFF" d="M271.4,137.8L238.9,1h31.5l26.9,136.8H271.4z M303.8,46.4l8.5,37.5l-8.1,28.3L296.1,71L303.8,46.4z
			 M332.9,137.8L300.5,1h31.6l26.7,136.8H332.9z M366.9,27.1L364.5,1h28.9l-28.7,109.1l-6.9-38.7L366.9,27.1z"/>
		<path fill="#FFFFFF" d="M394.6,134.5l2.9-34l25.8,22V139C411.5,139,404.6,138,394.6,134.5z M424.7,24.4c0,9,3.7,18.7,18.7,32.2
			c15.7,14.5,25,30.1,25,46.6c0,21.2-11.2,35.8-30.1,35.8v-15.9c1.4-4.1,2.2-7.1,2.2-11.8c0-13.4-14.5-25.9-24.6-36.6
			c-15.5-15.9-19.5-29.5-19.5-39.9c0-18.7,10.4-34.8,29.3-34.8v15.3C425.3,16.1,424.7,20.2,424.7,24.4z M463.6,7.1l-2.9,35.2
			l-23.2-26.9h-0.4V0C446.5,0,454,1,463.6,7.1z"/>
		<path fill="#FFFFFF" d="M496.4,14.7l-16.7,28.5L475.8,1h20.6V14.7z M539.7,137.8H512V1h27.7V137.8z M575.3,1l-3.9,42.3l-16.7-28.5
			V1H575.3z"/>
		<path fill="#FFFFFF" d="M617.5,137.8h-28.1V1h28.1V137.8z M652.3,160.8v16.9c-2.9,1.2-6.9,2.9-14,2.9c-9.4,0-21.2-4.7-21.2-21
			c0-11.2,7.9-18.3,17.1-21.8h-2.9v-13.4l18.1-25.2l2.4,38.5c-7.5,1.8-13.6,4.3-13.6,4.7v18.7L652.3,160.8z M647.2,79.6l-17.7-2.9
			V60.5l17.7-2.9V79.6z M649.4,42.3l-18.1-28.1V1h20.4L649.4,42.3z"/>
		<path fill="#FFFFFF" d="M667.3,137.8V1h28.1v136.8H667.3z M744.1,50.1c0,22.4-9.8,47.8-30.5,47.8V1C739.6,1,744.1,30.1,744.1,50.1
			z"/>
		<path fill="#FFFFFF" d="M32.4,373.7L0,236.9h31.5l26.9,136.8H32.4z M64.9,282.3l8.5,37.5l-8.1,28.3l-8.1-41.3L64.9,282.3z
			 M94,373.7L61.5,236.9h31.6l26.7,136.8H94z M128,263l-2.4-26.1h28.9L125.8,346l-6.9-38.7L128,263z"/>
		<path fill="#FFFFFF" d="M235.3,236.9V253L182,373.7h-25.8v-14.2l55.2-122.7H235.3z M163.7,278.2l-3.5-41.3h27.1v14.4L163.7,278.2z
			 M232.4,329.1l3.3,44.6h-27.5v-16.5L232.4,329.1z"/>
		<path fill="#FFFFFF" d="M279.7,236.9v136.8h-28.1V236.9H279.7z M324.9,272.3c0,19.1-8.6,26.7-18.7,29.1
			c17.5,5.9,22.2,18.1,22.2,36.8c0,28.7-15.7,35.6-33.4,35.6V236.9C314.9,236.9,324.9,250.6,324.9,272.3z"/>
		<path fill="#FFFFFF" d="M370.3,236.9l0.4,136.8H342V236.9H370.3z M427,373.7h-30.3l-20.1-58.4l12.6-3.7v-74.7
			c22.2,0,29.3,19.5,29.3,42.7c0,14.2-4.1,28.1-15.3,36L427,373.7z"/>
		<path fill="#FFFFFF" d="M465.1,252.4v106h3.5v16.5c-27.9,0-34.6-34.6-35.6-65.9v-2.9v-2.6c1-32.6,7.7-67.6,35.6-67.6v16.5H465.1z
			 M519.9,303.5v5.5c-0.8,31.3-7.5,65.9-35.4,65.9v-16.5h3.5v-106h-3.5v-16.5C512.5,235.9,519.2,270.9,519.9,303.5z"/>
		<path fill="#FFFFFF" d="M596.8,373.7l-61.7-136.8h25.8l62.1,136.8H596.8z M556.9,373.7h-20.2V268.3l20.2,45V373.7z M622.9,236.9
			v112.8l-21.4-48.6v-64.3H622.9z"/>
		<path fill="#FFFFFF" d="M644.2,373.7V236.9h28.1v136.8H644.2z"/>
		<path fill="#FFFFFF" d="M721.4,252.4v106h3.5v16.5c-27.9,0-34.6-34.6-35.6-65.9v-2.9v-2.6c1-32.6,7.7-67.6,35.6-67.6v16.5H721.4z
			 M776.3,303.5v5.5c-0.8,31.3-7.5,65.9-35.4,65.9v-16.5h3.5v-106h-3.5v-16.5C768.8,235.9,775.5,270.9,776.3,303.5z"/>
		<path fill="#FFFFFF" d="M853.1,373.7l-61.7-136.8h25.8l62.1,136.8H853.1z M813.2,373.7H793V268.3l20.2,45V373.7z M879.3,236.9
			v112.8l-21.4-48.6v-64.3H879.3z"/>
		<path fill="#FFFFFF" d="M923.3,236.9l31.5,86.9v49.9h-28.1v-45.4l-34-91.4H923.3z M985.2,236.9l-25.9,67.8l-7.7-22.6l6.5-19.3
			l-1.2-25.9H985.2z"/>
	</g>
</g>
<g id="Layer_2">
</g>
</svg>
