<?xml version="1.0" encoding="utf-8"?>
<!-- Generator: Adobe Illustrator 19.2.1, SVG Export Plug-In . SVG Version: 6.00 Build 0)  -->
<svg version="1.1" xmlns="http://www.w3.org/2000/svg" xmlns:xlink="http://www.w3.org/1999/xlink" x="0px" y="0px"
	 viewBox="0 0 766 434" enable-background="new 0 0 766 434" xml:space="preserve">
<g id="Layer_1">
	<g>
		<path fill="#FFFFFF" d="M163.2,83.3c2.9,8.3,2.9,13.6,0,21.8c-24.2-0.2-57.8,0-82,0c-2.9-8.3-2.9-13.6,0-21.8
			C105.4,83.9,139,81,163.2,83.3z"/>
		<path fill="#FFFFFF" d="M234.3,125c0,20.1-11.4,27.1-36,27.1c-5.9,0-16.9-0.6-27.9-5.1c0.2-11.6,2.4-21.4,6.3-31.5
			c6.9,5.7,14.9,12.8,20.1,23.6h9.2l-0.2-11c-0.4-14.7-34.4-27.3-33.8-54.1c-0.2-20.1,14-27.9,32-27.9h1.8c9.4,0.2,17.3,1,26.5,4.9
			c-0.6,10.2-2.8,18.7-6.5,26.3c-7.9-5.1-16.3-14.5-19.1-17.3h-6.7c-0.4,1.8-0.4,5.3-0.4,8.8C199.7,86.3,234.3,94.2,234.3,125z"/>
		<path fill="#FFFFFF" d="M298.2,47.4c5.3,0.4,14.2,1,14.7,13.4c0.2,6.1-33,59-39.9,66.1c4.5,5.3,9.2,7.9,16.5,12
			c1.8-10.8,6.9-19.5,18.3-24.4l1.2-0.6c2.2,12,1.6,24.4,0.6,36.6c-5.3,1.2-11.8,2.2-17.3,2.2c-15.9,0-22.8-5.1-27.7-10.2
			c-3.3,8.1-6.5,10.2-11.6,10.2c-6.1,0-13.8-4.3-15.9-11.4c8.3-17.3,35.2-55.6,45.4-75.5c-4.9-4.9-14.9-5.9-18.5-5.3
			c-6.3,6.9-9.2,15.1-17.1,18.3l-1.2-0.8c-2.9-11.2-2.9-21-1.2-29.5c26.5-7.1,43.6,0.6,47.8,4.3C295.3,50.1,296,49.1,298.2,47.4z"/>
		<path fill="#FFFFFF" d="M399,140c-3.3,6.3-8.1,10.8-15.1,11.6c-3.1,0.4-6.5-0.2-7.9-1.2c-2.2-2.6-4.1-6.7-5.9-11.6
			c-3.7,7.5-12.4,13.2-21.8,13.8c-19.9,0-30.5-18.5-30.5-54.5c0-34.4,14.2-51.9,38.7-51.9h0.6c2.6,0,5.1,0,7.3,0.2
			c14.5,1.2,22.6,4.7,28.7,7.5l-0.4,7.1v15.3v44.2C392.8,128.8,396.9,137,399,140z M366,120.5v-3.1L365.6,79l0.4-19.5
			c-2.9-0.2-6.3-0.4-10-0.4h-7.1c-1,3.9-2.4,18.9-2.4,39.5c0,27.5,0.2,38.3,2,38.3l5.9,0.4C357.2,136.4,365.6,128.6,366,120.5z"/>
		<path fill="#FFFFFF" d="M444.5,139.2c-4.1,7.3-9.8,12.4-19.9,12.4c-2.4,0-5.9-0.2-7.3-1.2c-3.9-5.3-6.3-14.2-6.5-29.9l-0.4-28.3
			l0.4-65.9v-9.4c0-2.4-0.4-5.1-0.6-7.5l0.6-0.8c4.1-0.6,6.7-1.8,12.4-1.8c4.1,0,14.7,0,14.7,12l-0.4,66.8v34.8
			C437.6,128.6,442.1,136.2,444.5,139.2z"/>
		<path fill="#FFFFFF" d="M490.1,140c-3.7,6.9-9,11.6-18.3,11.6c-2.4,0-5.9-0.2-7.3-1.2c-4.5-5.3-7.5-14.2-7.5-29.9V92.2l0.4-25.6
			v-3.3l-0.6-4.5c-0.2-2.4-1.4-6.7-2-9l0.6-0.8c4.7-0.6,7.7-1.8,14.3-1.8c4.1,0,14.7,0,14.7,12l-0.4,26.5l-0.2,34.8
			C484,128.8,488.1,137,490.1,140z M459.2,9.2c3.7-5.9,19.3-6.3,24.6,1.2c1.6,8.1,0.6,14.9-2.8,20.2c-5.1,3.9-18.7,3.3-22.8-2
			C455.7,21,455.7,15.5,459.2,9.2z"/>
		<path fill="#FFFFFF" d="M582.4,145.7c-5.5,6.5-13.8,7.9-24.8,6.5c-5.9-7.1-15.1-22.4-17.5-48.8c-0.2-2.6,1-9,1.8-10.6
			c2.6,1,4.7,1.2,7.3,1.2c5.3,0,8.5-10.6,8.5-17.9c0-3.9-0.6-7.9-1.2-10.6h-10.2c-2.2,1-9.6,4.3-16.5,14v34.4l-0.6,35.6
			c-1.2,0.4-1.8,1-4.1,1.4c-7.9,0.8-18.9,0.6-23.2-0.4l0.8-14v-30.3l0.4-77.8c0-4.1-1-16.9-1.2-25.8l2.6-0.8
			c2.2-0.6,4.7-1.8,10.4-1.8c4.1,0,14.4,0.6,14.7,17.3v45.8c5.7-9.6,14.4-16.3,25.8-16.3c17.1,0,25.8,13.2,25.8,31.3
			c0,7.1-1.6,22.4-19.3,26.3C565.9,118.1,577.5,138.2,582.4,145.7z"/>
		<path fill="#FFFFFF" d="M630,140c-3.7,6.9-9,11.6-18.3,11.6c-2.4,0-5.9-0.2-7.3-1.2c-4.5-5.3-7.5-14.2-7.5-29.9V92.2l0.4-25.6
			v-3.3l-0.6-4.5c-0.2-2.4-1.4-6.7-2-9l0.6-0.8c4.7-0.6,7.7-1.8,14.4-1.8c4.1,0,14.7,0,14.7,12l-0.4,26.5l-0.2,34.8
			C623.9,128.8,628.1,137,630,140z M599.2,9.2c3.7-5.9,19.3-6.3,24.6,1.2c1.6,8.1,0.6,14.9-2.8,20.2c-5.1,3.9-18.7,3.3-22.8-2
			C595.6,21,595.6,15.5,599.2,9.2z"/>
		<path fill="#FFFFFF" d="M59,309.6h-1.2c-7.7-0.6-13.4-2.2-19.3-4.5c-2.8,3.5-7.3,7.5-10.8,14.2l0.2,30.5l-0.6,35.6
			c-1.2,0.4-1.8,1-4.1,1.4c-7.9,0.8-18.9,0.6-23.2-0.4l0.8-14V342l0.4-39.5c0-4.1-0.4-11-1.2-16.9l0.6-0.8c4.1-0.6,6.7-1.8,12.4-1.8
			c4.1,0,14.7,0,14.7,12v9.6c2.6-5.3,6.5-11.2,12.6-19.3c2.2-1.6,4.5-1.8,11.2-2.2c6.1,0,8.8,0.4,10,0.6
			C61.9,293.1,61.3,303.3,59,309.6z"/>
		<path fill="#FFFFFF" d="M91.2,341.8c0,14.7,0.2,28.3,0.4,33.2h10.8c6.5-2.2,16.1-5.5,22.6-6.9c2,4.1,2.8,11.2,2.8,15.9
			c-4.7,1.8-11.4,3.3-19.9,4.1c-3.9,4.9-7.5,10.4-7.5,17.5c0,2.4,0,3.3,0.6,4.7c0.6,0.4,2.6,0.4,3.5,0.4c2.9,0,6.7-1.8,9-3.3
			c8.1,2.4,5.9,20.4,3.9,23.6c-2.9,1.2-7.1,2.9-14.5,2.9c-10.6,0-23.6-4.7-23.6-23c0-10.4,4.5-17.7,9.6-23
			c-21-3.5-26.9-22.4-26.9-53.7c0-32.8,10-52.3,37.2-52.3c17.1,0,38.3,5.3,30.9,58.6C122.7,341.6,103.4,342,91.2,341.8z M91.2,329.1
			l16.7-0.4c0.4-10.4,0.2-19.9-0.6-32.8H91.8C91.4,301,91.2,314.3,91.2,329.1z"/>
		<path fill="#FFFFFF" d="M220.8,381.6c-5.5,6.5-13.8,7.9-24.8,6.5c-5.9-7.1-15.1-22.4-17.5-48.8c-0.2-2.6,1-9,1.8-10.6
			c2.6,1,4.7,1.2,7.3,1.2c5.3,0,8.5-10.6,8.5-17.9c0-3.9-0.6-7.9-1.2-10.6h-10.2c-2.2,1-9.6,4.3-16.5,14v34.4l-0.6,35.6
			c-1.2,0.4-1.8,1-4.1,1.4c-7.9,0.8-18.9,0.6-23.2-0.4l0.8-14V342l0.4-77.8c0-4.1-1-16.9-1.2-25.8l2.6-0.8c2.2-0.6,4.7-1.8,10.4-1.8
			c4.1,0,14.4,0.6,14.7,17.3V299c5.7-9.6,14.3-16.3,25.8-16.3c17.1,0,25.8,13.2,25.8,31.3c0,7.1-1.6,22.4-19.3,26.3
			C204.2,354,215.8,374.1,220.8,381.6z"/>
		<path fill="#FFFFFF" d="M309.6,375.9c-3.3,6.3-8.1,10.8-15.1,11.6c-3.1,0.4-6.5-0.2-7.9-1.2c-2.2-2.6-4.1-6.7-5.9-11.6
			c-3.7,7.5-12.4,13.2-21.8,13.8c-19.9,0-30.5-18.5-30.5-54.5c0-34.4,14.2-51.9,38.7-51.9h0.6c2.6,0,5.1,0,7.3,0.2
			c14.5,1.2,22.6,4.7,28.7,7.5l-0.4,7.1v15.3v44.2C303.3,364.6,307.4,372.9,309.6,375.9z M276.6,356.4v-3.1l-0.4-38.3l0.4-19.5
			c-2.9-0.2-6.3-0.4-10-0.4h-7.1c-1,3.9-2.4,18.9-2.4,39.5c0,27.5,0.2,38.3,2,38.3l5.9,0.4C267.7,372.3,276.2,364.5,276.6,356.4z"/>
		<path fill="#FFFFFF" d="M430.5,322.8c-8.1,26.9-17.1,49.9-23.6,63.1c-3.3,0.8-4.7,1.4-12.8,1.4c-2,0-4.1-0.6-5.3-1.4
			c-4.7-8.1-9.6-18.5-13.8-30.9c-4.7,12.8-9.2,23.4-13,30.9c-3.3,0.8-4.7,1.4-12.8,1.4c-2,0-4.1-0.6-5.3-1.4
			c-8.3-13.8-16.5-35-21.8-60.2c-2.2-11.8-3.3-24.8-3.9-37.9c7.5-7.1,18.5-4.7,28.5-2.9c1.2,11.4,1.4,21.8,2.4,31.5
			c1.4,9.4,2.9,19.5,5.3,28.9l3.3,16.9l3.7-15.9c1.8-5.7,3.5-14.9,4.9-23.6c-1.6-11-2.6-22.8-3.1-34.8c7.3-7.1,18.3-4.7,28.3-2.9
			c1.2,11.4,1.4,21.8,2.4,31.5c1.4,9.4,2.9,19.5,5.3,28.9l3.3,16.9l3.7-15.9c2-6.5,4.1-17.5,5.5-26.9c1-11.4,1.2-21.4,1.6-32.6
			c0.6-1.2,2-1.8,5.3-2.8c3.7-1.2,12.4,0,17.3,1.2C436.6,293.9,433.6,309,430.5,322.8z"/>
		<path fill="#FFFFFF" d="M478.1,375.9c-3.7,6.9-9,11.6-18.3,11.6c-2.4,0-5.9-0.2-7.3-1.2c-4.5-5.3-7.5-14.2-7.5-29.9v-28.3
			l0.4-25.6v-3.3l-0.6-4.5c-0.2-2.4-1.4-6.7-2-9l0.6-0.8c4.7-0.6,7.7-1.8,14.4-1.8c4.1,0,14.7,0,14.7,12l-0.4,26.5l-0.2,34.8
			C472,364.6,476.1,372.9,478.1,375.9z M447.2,245.1c3.7-5.9,19.3-6.3,24.6,1.2c1.6,8.1,0.6,14.9-2.8,20.2c-5.1,3.9-18.7,3.3-22.8-2
			C443.7,256.9,443.7,251.4,447.2,245.1z"/>
		<path fill="#FFFFFF" d="M544.5,351.1c2.2,6.7,3.9,12.6,3.3,32.8c-5.5,2.9-14.9,4.1-26.3,4.1c-26.3,0-34.4-23.4-34.4-50.7
			c0-36.6,7.3-54.1,33.8-55.2h1c0.4,0,0.8,0,1.2,0c8.8,0.4,16.7,1.6,25.4,5.7c-0.6,10.2-2.6,18.7-6.3,26.1
			c-7.5-4.7-14.9-13.4-19.7-18.3h-4.7c-1,4.5-2.4,20.4-2.4,41.7c0,21.8,0.8,37.2,2.4,37.2h8.8C531.5,365.4,537.6,354.4,544.5,351.1z
			"/>
		<path fill="#FFFFFF" d="M615.5,283.3c5.3,0.4,14.2,1,14.7,13.4c0.2,6.1-33,59-39.9,66.1c4.5,5.3,9.2,7.9,16.5,12
			c1.8-10.8,6.9-19.5,18.3-24.4l1.2-0.6c2.2,12,1.6,24.4,0.6,36.6c-5.3,1.2-11.8,2.2-17.3,2.2c-15.9,0-22.8-5.1-27.7-10.2
			c-3.3,8.1-6.5,10.2-11.6,10.2c-6.1,0-13.8-4.3-15.9-11.4c8.3-17.3,35.2-55.6,45.4-75.5c-4.9-4.9-14.9-5.9-18.5-5.3
			c-6.3,6.9-9.2,15.1-17.1,18.3l-1.2-0.8c-2.9-11.2-2.9-21-1.2-29.5c26.5-7.1,43.6,0.6,47.8,4.3C612.5,286,613.3,285,615.5,283.3z"
			/>
		<path fill="#FFFFFF" d="M718.5,381.6c-5.5,6.5-13.8,7.9-24.8,6.5c-5.9-7.1-15.1-22.4-17.5-48.8c-0.2-2.6,1-9,1.8-10.6
			c2.6,1,4.7,1.2,7.3,1.2c5.3,0,8.5-10.6,8.5-17.9c0-3.9-0.6-7.9-1.2-10.6h-10.2c-2.2,1-9.6,4.3-16.5,14v34.4l-0.6,35.6
			c-1.2,0.4-1.8,1-4.1,1.4c-7.9,0.8-18.9,0.6-23.2-0.4l0.8-14V342l0.4-77.8c0-4.1-1-16.9-1.2-25.8l2.6-0.8c2.2-0.6,4.7-1.8,10.4-1.8
			c4.1,0,14.4,0.6,14.7,17.3V299c5.7-9.6,14.4-16.3,25.8-16.3c17.1,0,25.8,13.2,25.8,31.3c0,7.1-1.6,22.4-19.3,26.3
			C702,354,713.6,374.1,718.5,381.6z"/>
		<path fill="#FFFFFF" d="M766,375.9c-3.7,6.9-9,11.6-18.3,11.6c-2.4,0-5.9-0.2-7.3-1.2c-4.5-5.3-7.5-14.2-7.5-29.9v-28.3l0.4-25.6
			v-3.3l-0.6-4.5c-0.2-2.4-1.4-6.7-2-9l0.6-0.8c4.7-0.6,7.7-1.8,14.4-1.8c4.1,0,14.7,0,14.7,12l-0.4,26.5l-0.2,34.8
			C759.9,364.6,764.1,372.9,766,375.9z M735.2,245.1c3.7-5.9,19.3-6.3,24.6,1.2c1.6,8.1,0.6,14.9-2.8,20.2c-5.1,3.9-18.7,3.3-22.8-2
			C731.6,256.9,731.6,251.4,735.2,245.1z"/>
	</g>
</g>
<g id="Layer_2">
</g>
</svg>
