<?xml version="1.0" encoding="utf-8"?>
<!-- Generator: Adobe Illustrator 19.2.1, SVG Export Plug-In . SVG Version: 6.00 Build 0)  -->
<svg version="1.1" id="Layer_1" xmlns="http://www.w3.org/2000/svg" xmlns:xlink="http://www.w3.org/1999/xlink" x="0px" y="0px"
	 viewBox="0 0 425.7 542.5" enable-background="new 0 0 425.7 542.5" xml:space="preserve">
<g>
	<path fill="#FBE8E2" d="M69.7,0.1V84c-13.9,0-19.8-12.7-19.8-41.4C49.9,14.9,56.5,0.1,69.7,0.1z M92.7,25.6L79.4,9.7V0
		c6.7,0,10.4,1.4,15.4,4.1L92.7,25.6z M95.2,81.1c-5,1.9-9.5,3.5-15.8,3.5v-10l12.8-14.3L95.2,81.1z"/>
	<path fill="#FBE8E2" d="M149.7,0.4v9.8l-32.5,73.7h-15.7v-8.6l33.7-74.9H149.7z M106,25.6l-2.2-25.2h16.6v8.8L106,25.6z
		 M147.9,56.6l2,27.2h-16.8V73.8L147.9,56.6z"/>
	<path fill="#FBE8E2" d="M167.2,8.8L157,26.2l-2.4-25.8h12.6V8.8z M193.6,83.9h-16.9V0.4h16.9V83.9z M215.3,0.4l-2.4,25.8L202.7,8.8
		V0.4H215.3z"/>
	<path fill="#FBE8E2" d="M241.1,83.9H224V0.4h17.2V83.9z M259.3,34.9v13.4l-10.8-1.8v-9.8L259.3,34.9z M262,0.4l-1.4,25.2l-11-17.2
		v-8H262z M260.6,60.4l1.4,23.5h-12.5v-8.2L260.6,60.4z"/>
	<path fill="#FBE8E2" d="M288.8,0.4l0.2,83.5h-17.5V0.4H288.8z M323.3,83.9h-18.5l-12.2-35.6l7.7-2.3V0.4c13.6,0,17.9,11.9,17.9,26
		c0,8.6-2.5,17.2-9.4,22L323.3,83.9z"/>
	<path fill="#FBE8E2" d="M342.3,0.4l19.2,53v30.5h-17.2V56.2L323.6,0.4H342.3z M380.1,0.4l-15.8,41.4L359.6,28l4-11.8l-0.7-15.8
		H380.1z"/>
	<path fill="#FBE8E2" d="M79.6,197c-0.1,15.2-4.4,32.2-22.6,32.2h-2.3c-18.1,0-22.4-16.9-22.6-32.2v-0.4c0-0.1,0-0.2,0-0.4
		c0.1-15.2,4.4-32,22.6-32h2.3c18.1,0,22.4,16.8,22.6,32v0.4V197z M62,172.8H49.9v48H62V172.8z"/>
	<path fill="#FBE8E2" d="M119.9,227.9l-1.8-5.5c-2,3.8-6.1,6.8-13.3,6.8c-12.1,0-18.2-8.8-18.2-31.8c0-25.2,6-32.8,19.7-32.8
		c4.6,0,7.4,0.7,9.2,1.9v-25.1h16.1v86.4H119.9z M115.5,214.3v-41.5h-11.3v48C109.3,220.8,112.9,219.2,115.5,214.3z"/>
	<path fill="#FBE8E2" d="M214,182.2v45.7h-16.1v-55.1h-7.3l-4.6,6.1v49h-16v-55.1h-7.4l-4.4,5.9v49.2h-16.1v-62.2h12.6l2.4,6.6
		c2-5.2,6.7-8,14.8-8c8.2,0,11.6,3.1,13.1,7.9c2-5,6.8-7.9,14-7.9C212.7,164.3,214,172.2,214,182.2z"/>
	<path fill="#FBE8E2" d="M225.1,227.9v-49.7l-3.6-12.5h19.7v62.2H225.1z M224.7,140.5h16.1l-0.6,15.4h-15.5V140.5z"/>
	<path fill="#FBE8E2" d="M292.6,182.9v43.6c-6.4,2.4-17.5,2.8-21.1,2.8c-13.8,0-22.8-4.4-22.8-19.3c0-15.6,10.3-19.7,27.4-19.7
		v-17.4H269l-12.6,13l-2.2-20c4.6-0.7,11.2-1.4,18.7-1.4C288.4,164.3,292.6,170.4,292.6,182.9z M276.1,220.8V198h-9.7v22.8H276.1z"
		/>
	<path fill="#FBE8E2" d="M346.5,182.2v45.7h-16.1v-55.1h-7.7l-4.7,5.8v49.3H302v-62.2h12.8l2.2,5.6c2.6-4.6,7.2-7.1,14.9-7.1
		C345.2,164.3,346.5,172.2,346.5,182.2z"/>
	<path fill="#FBE8E2" d="M397.5,165.7L382,227.9l-10.1,26.6l-15.5-7.9l16.9-18.7h-8.6l-12.5-62.2h17.2l7.6,49.9l7.4-34.4v-15.5
		H397.5z"/>
	<path fill="#FBE8E2" d="M59.8,291.1l-2.2,25.6l-18.2-18.5h-2.3v4.2c0,5.3,2.4,11.6,9.7,20c9.6,11,15.5,19.7,15.5,31.1
		c0,13.2-8.5,20.2-23.6,20.2h-4.3c-6.7,0-13.3-1.1-19.4-3.2l1-25.6l19.8,17.9h3.1v-4.6c0-7.7-6.4-15.2-11.8-20.8
		c-9.1-9.2-12.1-19.2-12.1-29.6c0-13.8,7.2-20.5,22.6-20.5h2.3C47,287.3,53.2,288.6,59.8,291.1z"/>
	<path fill="#FBE8E2" d="M98.1,373.7h-5.5c-17.9,0-26.6-13.8-27.4-41.3V329c0.7-27.8,9.5-41.8,27.4-41.8h5.5
		c17.9,0,26.5,13.8,27.2,41.8v3.4C124.6,360,115.9,373.7,98.1,373.7z M99.5,298.9h-8.4V362h8.4V298.9z"/>
	<path fill="#FBE8E2" d="M173,371.9h-42.1v-83.5h22.8v74.4h3.8l14.4-16.7L173,371.9z"/>
	<path fill="#FBE8E2" d="M179.3,371.9v-83.5h22.8v83.5H179.3z"/>
	<path fill="#FBE8E2" d="M266.9,331c0,26.5-8.9,40.9-25.9,40.9h-30.1v-83.5h29.6C258.4,288.4,266.9,302.6,266.9,331z M240.9,299.2
		h-7.7v62.6h7.7V299.2z"/>
	<path fill="#FBE8E2" d="M329.6,288.4v83.5h-17.6l-19.2-34.2l-3.5-6.6v40.8h-17.6v-77.4l-2.9-6.1h20.4l18.8,34.6l3.2,6.6v-41.2
		H329.6z"/>
	<path fill="#FBE8E2" d="M336.8,371.9v-83.5h22.8v83.5H336.8z"/>
	<path fill="#FBE8E2" d="M410.2,345l0.6,26.9h-42.5v-83.5h42.5l-0.7,30l-14.8-21h-4.2v27.4h16.9v10.8h-16.9v27.2h3.6L410.2,345z"/>
	<path fill="#FBE8E2" d="M68.5,477.1c-4.9,16.4-10.4,30.5-14.4,38.5c-2,0.5-2.9,0.8-7.8,0.8c-1.2,0-2.5-0.4-3.2-0.8
		c-2.9-4.9-5.9-11.3-8.4-18.8c-2.9,7.8-5.6,14.3-7.9,18.8c-2,0.5-2.9,0.8-7.8,0.8c-1.2,0-2.5-0.4-3.2-0.8
		c-5-8.4-10.1-21.4-13.3-36.7c-1.3-7.2-2-15.1-2.4-23.2c4.6-4.3,11.3-2.9,17.4-1.8c0.7,7,0.8,13.3,1.4,19.2
		c0.8,5.8,1.8,11.9,3.2,17.6l2,10.3l2.3-9.7c1.1-3.5,2.2-9.1,3-14.4c-1-6.7-1.6-13.9-1.9-21.2c4.4-4.3,11.2-2.9,17.3-1.8
		c0.7,7,0.8,13.3,1.4,19.2c0.8,5.8,1.8,11.9,3.2,17.6l2,10.3l2.3-9.7c1.2-4,2.5-10.7,3.4-16.4c0.6-7,0.7-13.1,1-19.9
		c0.4-0.7,1.2-1.1,3.2-1.7c2.3-0.7,7.6,0,10.6,0.7C72.2,459.5,70.4,468.7,68.5,477.1z"/>
	<path fill="#FBE8E2" d="M115.3,477.1c-0.2,0.7-0.5,1.4-0.6,2.2c-2.6,10.9-7,28.7-13,44.5c-3.1,9-6.4,16.2-8.8,18.7l-3.2-0.7
		c-4.2-1.1-9.4-4.7-10.6-7.4c2.9-2.9,7.4-8.5,12.1-13.2l4.4-4.8c-1.2,0.1-2.6,0.1-4.6,0.1c-1.2,0-2.5-0.4-3.2-0.8
		c-4.1-12.1-11.6-49.2-12.6-60c4.3-4.1,10.8-2.6,16.7-1.7c1.6,13.9,4.4,29.5,7.6,49l2.6-11.4c0.8-5.3,3.1-13.9,4.6-21.4
		c0-5.3,0-10-0.1-15.1c0.4-0.7,1.2-1.1,3.2-1.7c2.4-0.7,7.1,0,9.7,0.7C120,459.5,117.6,468.7,115.3,477.1z"/>
	<path fill="#FBE8E2" d="M172,510.2c-2,2.9-6.7,6.5-10.3,6.7c-2.3,0.1-3.6-0.1-4.8-0.4c-3.1-3.6-7.9-13.4-11.5-29.5h-3.7v6.5
		l-0.4,21.7c-0.7,0.2-1.1,0.7-2.5,0.8c-4.8,0.4-11.5,0.4-14.2-0.2l0.5-8.5v-18.5l0.2-43.3c0-2.5-0.6-10.3-0.7-15.7l1.6-0.5
		c1.3-0.4,2.9-1.1,6.4-1.1c2.5,0,8.8,0.4,9,10.6v10.8l0.1,29.5l7-1.1c4-8.2,5.6-16.4,7.6-24.4c3.7-1,10.7,0.1,12.7,2.2
		c-2.2,7.8-6.4,15.6-10.6,23.5C159.7,486.2,168.1,505.3,172,510.2z"/>
	<path fill="#FBE8E2" d="M220.4,484.9c-0.1,20.5-8.9,32-20.9,32h-5.6c-12,0-20.8-11.5-20.9-32v-0.4c0,0,0-0.1,0-0.2
		c0.1-20.5,8.9-32,20.9-32h5.6c12,0,20.8,11.5,20.9,32v0.2V484.9z M202.8,484.6c0-16.9-0.4-22.8-0.6-23.8h-10.9
		c-0.2,1-0.6,6.8-0.6,23.8c0,17,0.4,22.9,0.6,23.9h10.9C202.4,507.5,202.8,501.6,202.8,484.6z"/>
	<path fill="#FBE8E2" d="M274.3,513.6c-2.5,1.9-6.1,3.2-12.5,3.2c-1.4,0-3.6-0.2-4.4-0.7c-1-3.4-1.7-6.4-1.7-15.8l0.2-25.1l0.1-14.5
		h-6.6c-1.6,1.4-3.8,3.2-5.8,5.6l0.1,27.2l-0.4,21.7c-0.7,0.2-1.1,0.7-2.5,0.8c-4.8,0.4-11.5,0.4-14.2-0.2l0.5-8.5v-18.5l0.2-24.1
		c0-2.5-0.2-6.7-0.7-10.3l0.4-0.5c2.5-0.4,4.1-1.1,7.6-1.1c2.3,0,6.8,0,8.5,5.4c4.1-4.2,6.4-6,13.9-6c14,0,15.5,7.9,15.5,17.9
		l-0.1,10.4l-0.4,17.3C272.2,504.6,273.1,511.2,274.3,513.6z"/>
	<path fill="#FBE8E2" d="M322.4,470.2l-0.2,11.2v16.3c0,7.2,0,14.4-0.1,17c-3.6,1.6-12.2,2.3-18.4,2.3c-19.2,0-25.4-5.8-25.4-18.6
		c0-16.9,9.5-19.4,27.5-19.9l-0.1-6.1l0.2-11.3h-7.2c-1.8,1.4-6.4,7.6-10.8,10.7c-3.4-4.3-5.2-9-5.8-14.8c7.1-3.7,13.2-4.6,20.5-4.7
		C317.8,452.3,322.4,458.4,322.4,470.2z M305.9,495.7l-0.1-9.2h-9.5c-0.1,4.1-0.1,8.2-0.1,11.9c0,3.8,0.1,7.3,0.4,10.8l9.4-0.2
		V495.7z"/>
	<path fill="#FBE8E2" d="M377.3,513.6c-2.5,1.9-6.1,3.2-12.5,3.2c-1.4,0-3.6-0.2-4.4-0.7c-1-3.4-1.7-6.4-1.7-15.8l0.2-25.1l0.1-14.5
		h-6.6c-1.6,1.4-3.8,3.2-5.8,5.6l0.1,27.2l-0.4,21.7c-0.7,0.2-1.1,0.7-2.5,0.8c-4.8,0.4-11.5,0.4-14.2-0.2l0.5-8.5v-18.5l0.2-24.1
		c0-2.5-0.2-6.7-0.7-10.3l0.4-0.5c2.5-0.4,4.1-1.1,7.6-1.1c2.3,0,6.8,0,8.5,5.4c4.1-4.2,6.4-6,13.9-6c14,0,15.5,7.9,15.5,17.9
		l-0.1,10.4l-0.4,17.3C375.1,504.6,376.1,511.2,377.3,513.6z"/>
	<path fill="#FBE8E2" d="M401,488.8c0,9,0.1,17.3,0.2,20.3h6.6c4-1.3,9.8-3.4,13.8-4.2c1.2,2.5,1.7,6.8,1.7,9.7
		c-4,1.6-10.2,2.8-18.7,2.8c-16.9,0-21.4-11.8-21.4-33.1c0-20,6.1-31.9,22.7-31.9c10.4,0,23.4,3.2,18.8,35.8
		C420.2,488.6,408.5,488.9,401,488.8z M401.4,460.7c-0.2,3.1-0.4,11.3-0.4,20.3l10.2-0.2c0.2-6.4,0.1-12.1-0.4-20H401.4z"/>
</g>
</svg>
