<?xml version="1.0" encoding="utf-8"?>
<!-- Generator: Adobe Illustrator 19.2.1, SVG Export Plug-In . SVG Version: 6.00 Build 0)  -->
<svg version="1.1" id="Layer_1" xmlns="http://www.w3.org/2000/svg" xmlns:xlink="http://www.w3.org/1999/xlink" x="0px" y="0px"
	 viewBox="0 0 800 200" enable-background="new 0 0 800 200" xml:space="preserve">
<g>
	<path fill="#231F20" d="M173.6,140.3c-13.3,0.9-28.3,0.3-45.1-0.6c-2.9-6.5-5.9-13.7-9-21.8l-25.4,1c-2,7.7-3.9,14.7-5.2,20.8
		c-6.1,0.7-11.6,0.7-18.6,0c1.7-5.8,4-12.6,6.8-20.2c-10.5,0-15.9-5.1-15.2-14.9c2.9-0.3,6.1-0.4,20.5,0.3
		c5.6-14.9,12-30.9,17.9-45.5c-4-7.8-10.1-11.3-15.9-12C88,38,99.4,31.5,113.4,31.5s24.6,6.2,28.6,18.8
		C157.7,100.1,165.4,121.6,173.6,140.3z M115.5,106.8c-3-9-6.2-18.8-9.5-29.6c-2.7,9.5-5.6,19.2-8.2,28.6
		C103,106,108.8,106.3,115.5,106.8z"/>
	<path fill="#231F20" d="M282,95.2c0,29.8-16.5,47.4-37,47.4c-8.5,0-15.2-3-21.5-9.5c0.3,13.6,0.9,25,1.7,31.9
		c-14.2,3.8-29.3,4.8-43.3,1.9c-0.6-19.9-1.2-69.1-0.4-111.3c13.4-3,27.5-2.9,42.1-1.2c-0.1,5.6-0.1,11.6-0.3,17.6
		c2.7-11.8,13.6-22,27-22C268.4,50.1,282,68.2,282,95.2z M240.4,98.8c0-17.5-5.3-25.1-10.4-25.1c-2.5,0-5.1,1.4-6.8,3.6
		c-0.1,15.6-0.1,31.9,0.1,46.5c1.3,0.6,2.6,0.9,4,0.9C234.8,124.7,240.4,116.9,240.4,98.8z"/>
	<path fill="#231F20" d="M372.1,69.9c0,6.6-1.7,14.7-5.8,23.6c-8.4-4.6-24.4-4.2-33.5,1.4c0,18.8,0.1,34.5,0.7,43.2
		c-12.7,3.5-27.9,4.5-41.9,1.6c-0.7-15-1.3-52.2-0.4-84.1c13.4-3,27.5-2.9,42.1-1.2c-0.3,11-0.4,21.7-0.4,31.8
		c4.3-24,14.3-36.1,25.7-36.1C366.4,50.1,372.1,57.8,372.1,69.9z"/>
	<path fill="#231F20" d="M425,50.1c31.6,0,49,17.1,49,46c0,25.3-15.3,46.5-50.4,46.5c-31.6,0-49-17-49-45.9
		C374.5,71.3,389.7,50.1,425,50.1z M432.5,109.9c0-31.9-4.6-47.5-10.7-47.5c-3.9,0-5.8,6.5-5.8,19.8c0,18.2,2.7,48,10.7,48
		C430.7,130.2,432.5,123.5,432.5,109.9z"/>
	<path fill="#231F20" d="M583.6,95.2c0,29.8-16.5,47.4-37,47.4c-8.5,0-15.2-3-21.5-9.5c0.3,13.6,0.9,25,1.7,31.9
		c-14.2,3.8-29.3,4.8-43.4,1.9c-0.6-19.9-1.2-69.1-0.4-111.3c13.4-3,27.5-2.9,42-1.2c-0.1,5.6-0.1,11.6-0.3,17.6
		c2.7-11.8,13.6-22,27-22C570,50.1,583.6,68.2,583.6,95.2z M542,98.8c0-17.5-5.3-25.1-10.4-25.1c-2.5,0-5.1,1.4-6.8,3.6
		c-0.1,15.6-0.1,31.9,0.1,46.5c1.3,0.6,2.6,0.9,4,0.9C536.4,124.7,542,116.9,542,98.8z"/>
	<path fill="#231F20" d="M686,137.8c-12.3,4.5-29.6,4.9-43.4,1.9c-0.4-4.3-0.7-8.7-0.9-16.5c-4.5,12.9-17.6,19.4-28.6,19.4
		c-14.2,0-25.1-9.8-25.1-24.9c0-16,13.7-26.4,33.7-26.4c7.8,0,14.6,1.3,19.9,3.5v-2.6c0-24.6-4-30.1-8.4-30.1
		c-5.5,0-11.1,8.4-11.3,22.8c-20.2-0.1-29-8.5-29-15.6c0-9.1,14.6-19.2,47.1-19.2c28.6,0,43.5,13.3,43.5,42.8
		C683.5,117.4,684.1,131.2,686,137.8z M641.6,111.4v-7.8c-1.7-0.6-3.6-1-5.3-1c-5.8,0-9.4,3.8-9.4,9.1c0,4.5,2.3,7.8,6.4,7.8
		C636.8,119.5,640.7,117,641.6,111.4z"/>
	<path fill="#231F20" d="M738.1,138.1c-12.7,3.5-27.9,4.5-41.9,1.6c-0.9-18.8-1-65.3-0.1-105.3c7.5-1.7,15.2-2.5,23.1-2.5
		c6.2,0,12.6,0.4,18.9,1.3C737.1,72.9,737.3,120,738.1,138.1z"/>
</g>
</svg>
