<?xml version="1.0" encoding="utf-8"?>
<!-- Generator: Adobe Illustrator 19.2.1, SVG Export Plug-In . SVG Version: 6.00 Build 0)  -->
<svg version="1.1" id="Layer_1" xmlns="http://www.w3.org/2000/svg" xmlns:xlink="http://www.w3.org/1999/xlink" x="0px" y="0px"
	 viewBox="0 0 800 200" enable-background="new 0 0 800 200" xml:space="preserve">
<g>
	<path fill="#231F20" d="M207.3,5.6c-1.6-2-4.2-3.8-9.1-3.8c-7.4,0-14.9,4.2-20.7,9.4c-2.9,2.4-5.6,5.3-8.2,8.5
		c44.5,0.9,36.3,56.6,0.9,74.6c1.1,1.8,2,3.8,2.7,6c1.6-0.2,3.1-0.2,4.7-0.2c15.1,0,15.4,8.5,12.5,8.5c0-0.9-1.8-6.7-13.4-6.7
		L173,102c0.2,0.9,0.2,1.8,0.2,2.7c0,19.4-17.1,43-36.8,43c-13.1,0-13.1-15.8-2-27.8c8.7-9.4,20.3-16.5,33.2-18.9
		c-0.2-1.8-0.9-3.3-1.6-4.9c-5.8,2.2-12.2,3.6-19.2,3.6c-6.7,0-8.7-3.1-8.7-4.9c0-4.5,5.8-8.7,15.8-8.7c6,0,10.9,2.5,14.3,6
		c30.1-18.3,38.3-70.4-0.4-70.6c-32.7,41-48.6,127-78.8,127c-11.6,0-19.4-9.6-19.4-28.5c0-37.2,37.9-97.3,94.4-100.2
		c3.8-4.2,7.8-8,12-11.1c7.4-5.3,13.8-8.5,22.1-8.5C208.8,0,210,6,207.3,5.6z M118,108.2c12.2-28.1,25.8-64.1,44.5-86.6
		c-52.8,3.6-90.6,60.6-90.6,97.8c0,18,6.7,27.2,17.1,27.2C98.8,146.5,108.2,130.5,118,108.2z M167.9,102.7
		c-12.7,2.4-24.3,10.2-32.7,19.4c-9.4,10.5-9.1,23.8,1.3,23.8c14.9,0,31.4-24.1,31.4-41.7V102.7z M165,93.8c-2.4-3.6-6-6-10.9-6
		c-8.7,0-14,3.1-14,6.9c0,1.1,1.6,3.3,6.7,3.3C153.4,98,159.4,96.4,165,93.8z"/>
	<path fill="#231F20" d="M221.1,147.2c-5.6,0-2.7-12.5,3.6-27.2c-6.7,10-24.5,27.4-33.4,27.4c-10.7,0-2.7-29.2,8.9-49.7
		c13.1-22.9,30.7-40.1,41.4-40.1c8.5,0,5.1,16.3,0.4,28.7c9.8-16,19.8-28.7,25.4-28.7c10.9,0-10.2,30.1-32.3,51.9
		c-8.9,18.7-15.8,35.6-12.5,35c6.9-0.9,27.8-20.7,37-33.4C267.4,111.1,237.1,147.2,221.1,147.2z M227.1,114.5
		c3.1-6.5,5.3-12.5,9.1-19.4c4.9-12,10.9-35.2,5.1-35.2c-7.6,0-23.8,18.9-36.5,41.2c-10.5,18-17.4,43.7-12.7,43.7
		C196.4,144.8,211.8,132.7,227.1,114.5z M238.3,103.1c18.7-20,33.9-43.2,29.2-43.2C264.3,59.9,248.9,81.7,238.3,103.1z"/>
	<path fill="#231F20" d="M308.6,65c-2.7,5.6-8.7,18.5-17.1,35c-20.9,40.8-51.7,100-76.8,100c-22.3,0-5.8-39.4,16.5-39.4
		c5.3,0,3.3,7.8-1.1,7.8c-2.5,0-4.2-3.6-0.9-6c-14.5,3.8-31.6,35.6-15.1,35.6c18.5,0,42.8-40.5,72.8-99.8
		c6.5-12.7,16-32.5,18.7-38.8C306.9,57.9,309.3,61.5,308.6,65z M311.1,42.5c0-3.3,2.9-7.4,6.7-7.4c2.5,0,3.3,1.8,3.3,4
		c0,3.3-3.3,7.8-6.5,7.8C312.4,47,311.1,45.2,311.1,42.5z"/>
	<path fill="#231F20" d="M325.8,147.2c-5.6,0-2.7-12.5,3.6-27.2c-6.7,10-24.5,27.4-33.4,27.4c-10.7,0-2.7-29.2,8.9-49.7
		c13.1-22.9,30.7-40.1,41.4-40.1c8.5,0,5.1,16.3,0.4,28.7c9.8-16,19.8-28.7,25.4-28.7c10.9,0-10.2,30.1-32.3,51.9
		c-8.9,18.7-15.8,35.6-12.5,35c6.9-0.9,27.8-20.7,37-33.4C372.1,111.1,341.8,147.2,325.8,147.2z M331.8,114.5
		c3.1-6.5,5.3-12.5,9.1-19.4c4.9-12,10.9-35.2,5.1-35.2c-7.6,0-23.8,18.9-36.5,41.2c-10.5,18-17.4,43.7-12.7,43.7
		C301.1,144.8,316.4,132.7,331.8,114.5z M342.9,103.1c18.7-20,33.9-43.2,29.2-43.2C369,59.9,353.6,81.7,342.9,103.1z"/>
	<path fill="#231F20" d="M410.7,146.3c-4.9,0-5.3-10.5,1.8-26.7c-12.9,16.3-26.7,26.9-35,26.9c-9.8,0-5.8-24.3,8.9-50.6
		c12.9-22.9,30.7-36.8,41.4-36.8c8.2,0,8,11.8,3.6,24.3c21.6-37.9,45.4-71,52.8-71c11.4,0-13.8,38.1-44.3,67.5
		c-4.2,7.4-9.1,15.1-13.4,22.5c-11.4,20.7-18.7,41.4-14.7,41.4c8.7,0,37.2-26.7,52.3-52.1C475.9,91.8,432,146.3,410.7,146.3z
		 M415.8,111.6c3.3-5.6,6.9-12.2,9.6-17.6c5.1-11.6,9.1-32.5,2.2-32.5c-7.6,0-23.8,15.6-36.5,37.6c-13.1,22.9-17.4,44.5-12.7,44.5
		C384.6,143.7,402.4,129.8,415.8,111.6z M441.4,75.5c26.9-27.6,47.4-60.1,43-60.1C480.4,15.4,460.3,43.9,441.4,75.5z"/>
	<path fill="#231F20" d="M478.4,108.5c14.7,0,44.5-47.7,32.1-47.7c-22.7,0-66.6,84.9-46.3,84.9c16.7,0,40.5-35.9,44.5-43.7
		c10.5,0-21.4,46.1-44.3,46.1c-14.7,0-9.8-25.8,2.7-49c11.1-20.9,28.7-40.5,43.4-40.5c20.7,0-10,53-32.1,53c-5.8,0-6-6.7-3.8-7.8
		C474.8,106.9,476.8,108.5,478.4,108.5z"/>
	<path fill="#231F20" d="M560.6,105.6c-6.9,0-5.1-15.1-3.6-19.8c-10.7,10-22.5,22.5-33.2,39.4c-2.7,5.6-4.5,9.1-6.7,14.9
		c3.6-0.7,7.6-1.1,11.4-1.1c8,0,6.9,3.6,6.5,4.5c-4-1.6-21.6-0.4-34.1,3.1c-0.9,0-1.6-0.9-1.1-1.3c0.7-1.1,6.2-2.7,13.4-4.2
		c12-38.1,36.3-75.1,38.3-78.4c3.3-4,8.7-2.9,7.1-0.4c-9.4,11.8-20.3,31.4-29.6,51.5c9.4-14.9,22-26.3,29.4-33.6
		c6.2-20.3,20-36.8,27.8-36.8c8.5,0-2.2,18.3-24.3,38.5c-2.9,6.7-4.7,21.6-1.3,21.6c3.8,0,12.5-10.7,15.6-15.4
		C581.7,88,567.5,105.6,560.6,105.6z M562.8,77.3c15.8-15.1,27.4-31.8,23.4-31.8C582.4,45.4,570.8,57.5,562.8,77.3z"/>
	<path fill="#231F20" d="M651.2,65.3c-2.5,0-2.5-2.9-2-3.8c-11.1,2.4-35.6,21.4-52.6,41.4c8.7-8,20.5-15.4,24.7-15.4
		c10.7,0-22.7,56.1-16.7,56.1c6.7,0,28.1-21.6,34.7-35.2c10.5,0-21.8,37.6-35,37.6c-14.5,0,19.4-55.2,15.1-55.2
		c-3.1,0-26.3,16-35.2,26.3c-4.9,8.9-9.8,19.2-13.8,27.6c-1.1,2.7-5.1,2.5-4.7,1.1c28.3-66.2,70.4-127.6,75.9-133
		c2-1.3,2.9,2.7,3.1,5.1c-10.5,12.5-35.9,51.7-57.2,90.9c-0.4,0.7-0.9,1.8-0.4,1.6c20.3-26.7,51.2-52.8,65.9-52.8
		C658.1,57.7,655.7,65.3,651.2,65.3z"/>
	<path fill="#231F20" d="M681.1,147.2c-5.6,0-2.7-12.5,3.6-27.2c-6.7,10-24.5,27.4-33.4,27.4c-10.7,0-2.7-29.2,8.9-49.7
		c13.1-22.9,30.7-40.1,41.4-40.1c8.5,0,5.1,16.3,0.4,28.7c9.8-16,19.8-28.7,25.4-28.7c10.9,0-10.2,30.1-32.3,51.9
		c-8.9,18.7-15.8,35.6-12.5,35c6.9-0.9,27.8-20.7,37-33.4C727.4,111.1,697.1,147.2,681.1,147.2z M687.1,114.5
		c3.1-6.5,5.3-12.5,9.1-19.4c4.9-12,10.9-35.2,5.1-35.2c-7.6,0-23.8,18.9-36.5,41.2c-10.5,18-17.4,43.7-12.7,43.7
		C656.3,144.8,671.7,132.7,687.1,114.5z M698.2,103.1c18.7-20,33.8-43.2,29.2-43.2C724.3,59.9,708.9,81.7,698.2,103.1z"/>
</g>
</svg>
