<?xml version="1.0" encoding="utf-8"?>
<!-- Generator: Adobe Illustrator 19.2.1, SVG Export Plug-In . SVG Version: 6.00 Build 0)  -->
<svg version="1.1" id="Layer_1" xmlns="http://www.w3.org/2000/svg" xmlns:xlink="http://www.w3.org/1999/xlink" x="0px" y="0px"
	 viewBox="0 0 800 200" enable-background="new 0 0 800 200" xml:space="preserve">
<g>
	<path fill="#231F20" d="M223.6,146.2c-11.7,5-20.8,6.7-37.1,6.7c-30,0-42.7-20.8-42.7-69c0-46.9,14.2-69.4,44.4-69.4
		c12.9,0,23.1,2.1,32.7,8.3L217,65.1L189.3,32h-6c-0.2,6.7-0.8,26.9-0.8,51.9c0,24.4,0.6,44.6,0.8,51.5h5.4
		c11.3,0,21.3-3.5,31.5-7.9L223.6,146.2z"/>
	<path fill="#231F20" d="M306.3,50.5l-24.6,99l-14.8,41.1l-28.5-17.5l26.2-23.1h-18.7l-19.8-99.6h36l7.5,61l1,11l6.2-46.5V50.5
		H306.3z"/>
	<path fill="#231F20" d="M371.1,49.7l-1.3,38.5l-19.8-14.4l-4.2,2.1v74.2h-34.2V50.5h28.6l3.3,8.3c4-7.7,9.4-10.8,16-10.8
		C362.6,48,367.4,48.6,371.1,49.7z"/>
	<path fill="#231F20" d="M456,50.5V147c-5,3.1-21.2,6-35.4,6c-30.8,0-42.9-8.5-42.9-29.8V50.5H412V138h10V50.5H456z"/>
	<path fill="#231F20" d="M519.1,134.5v15.6c-5.8,1.5-18.5,2.9-27.5,2.9c-24.2,0-25-15-25-24.2V11.6h34.2V138L519.1,134.5z"/>
	<path fill="#231F20" d="M526.4,150.1V70.9l-6-20.4h40.8v99.6H526.4z M526.6,35.5l-0.4-26.2h34.2l-1,26.2H526.6z"/>
	<path fill="#231F20" d="M656.2,150.9H621L608.5,98h13.1V62.6h-5c-1,0.2-6.2,1.5-12.5,6.5v81.7h-33.3v-140h33.3v43.3
		c5.4-3.7,12.5-6.2,20.6-6.2c18.3,0,29.2,11.7,29.2,31.3c0,17.3-5.8,27.9-16.7,30L656.2,150.9z"/>
</g>
</svg>
