<?xml version="1.0" encoding="utf-8"?>
<!-- Generator: Adobe Illustrator 19.2.1, SVG Export Plug-In . SVG Version: 6.00 Build 0)  -->
<svg version="1.1" id="Layer_1" xmlns="http://www.w3.org/2000/svg" xmlns:xlink="http://www.w3.org/1999/xlink" x="0px" y="0px"
	 viewBox="0 0 800 200" enable-background="new 0 0 800 200" xml:space="preserve">
<g>
	<path fill="#231F20" d="M206.7,32.3c-13.9,51.7-21.3,93.7-26.3,135c-0.9,7.6-4.3,9.7-8.1,9.7c-3.4,0-6.7-2.5-6.1-7.9
		c1.4-10.6,3.6-32.4,9-64.3c-12.4,13.7-29.9,25.2-47.2,31.9l-0.4,3.4c-2,15.5-3.1,25.2-3.6,28.1c-1.1,7.6-4.7,8.5-7.6,8.5
		c-3.1,0-7-1.6-6.5-8.5c0.4-4.7,1.3-12.1,3.4-26.7c-5.6,1.3-11,2-16,2c-21.1,0-34.6-12.8-34.6-42.2c0-24,11.5-35.3,24.7-35.5
		c15.3-0.2,27,14.2,32.8,29.7c4.7-25.2,11.5-56.4,15.5-69c2.2-7,16-6.5,13,6.3c-9.7,41.3-15.1,69.7-18.4,89.9
		c9.7-4.7,19.3-11,27.6-18.9c15.7-14.6,20.2-17.3,35.1-73.9c1.6-6.1,5.2-7.6,7.9-7.6C206.7,22.1,207.8,27.8,206.7,32.3z M98.6,130.9
		c4.7,0,9.9-0.7,15.3-2.2c-0.5-26.7-16.4-50.3-27-50.3c-7.2,0-10.6,11.9-10.6,25.4C76.4,121.2,85.1,130.9,98.6,130.9z"/>
	<path fill="#231F20" d="M328.9,128.6c-9.2,27.4-27.2,49.4-45.2,49.4c-8.8,0-18.4-3.6-21.1-24.3c-6.3,12.6-15.1,23.4-28.1,23.4
		c-16.4,0-24.5-14.6-24.5-35.3c0-34.6,14.2-72.1,40.7-72.1c10.6,0,17.5,7,20.7,16.2c1.1-4.5,2.5-8.5,3.8-11.9c1.6-4.7,4.7-7,7.9-7
		c4,0,7.9,4.3,5.6,11.2c-9.7,30.1-13.3,54.6-13.3,67c0,17.1,4.3,20.9,8.3,20.9c7.2,0,21.1-9.2,34.6-44.3c1.6-4,3.6-5.4,6.1-5.4
		C327.8,116.5,331.8,120.1,328.9,128.6z M263.5,119l0.4-2c-3.4,0.7-6.7-0.4-5.8-4.3c4.5-17.7,1.1-30.6-7.4-30.6
		c-16,0-27,34.6-27,56.4c0,19.6,4.7,26.5,10.8,26.5C245.1,165,258.8,141.7,263.5,119z"/>
	<path fill="#231F20" d="M413.9,115.2c-6.5,1.8-16.6,2.9-29,3.1c-1.6,4.3-3.1,8.3-4.7,12.4c-10.6,25.4-26.1,46.3-41.3,46.3
		c-15.5,0-20.9-21.1-20.9-45.2c0-23.4,4.9-49.2,10.1-60.9c1.4-3.4,3.8-4.7,6.3-4.7c4,0,7.9,3.8,6.3,9.7c-6.3,24-9,44.5-9,59.8
		c0,18,3.6,29.2,8.5,29.2c7.4,0,20.9-21.8,29.7-45.2l1.3-3.8c-11.2-4.9-20.9-17.1-20.9-36.8c0-9.9,3.8-19.6,7.6-24.3
		c5.4-6.7,11-8.1,16-8.1c12.4,0,19.5,11.7,19.5,25.2c0,10.1-1.8,21.6-4.7,33.5c7.9-0.2,16-1.6,21.8-2.5
		C419.7,101.2,423.5,112.5,413.9,115.2z M375.2,102.8c6.1-22.7,7.6-43.8-1.8-43.8c-5.2,0-9.7,9.7-9.7,19.3
		C363.8,90.4,367.4,99,375.2,102.8z"/>
	<path fill="#231F20" d="M524,128.6c-9.2,27.4-27.2,49.4-45.2,49.4c-8.8,0-18.4-3.6-21.1-24.3c-6.3,12.6-15.1,23.4-28.1,23.4
		c-16.4,0-24.5-14.6-24.5-35.3c0-34.6,14.2-72.1,40.7-72.1c10.6,0,17.5,7,20.7,16.2c1.1-4.5,2.5-8.5,3.8-11.9c1.6-4.7,4.7-7,7.9-7
		c4,0,7.9,4.3,5.6,11.2c-9.7,30.1-13.3,54.6-13.3,67c0,17.1,4.3,20.9,8.3,20.9c7.2,0,21.1-9.2,34.6-44.3c1.6-4,3.6-5.4,6.1-5.4
		C522.9,116.5,526.9,120.1,524,128.6z M458.6,119l0.4-2c-3.4,0.7-6.7-0.4-5.8-4.3c4.5-17.7,1.1-30.6-7.4-30.6c-16,0-27,34.6-27,56.4
		c0,19.6,4.7,26.5,10.8,26.5C440.2,165,453.9,141.7,458.6,119z"/>
	<path fill="#231F20" d="M630.3,125.3c-15.7,31.7-32.6,51.5-50.3,51.5c-14.4,0-18.4-10.3-18.4-22c0-11.9,2.9-29.7,6.5-45.4
		c-7.2,13.3-14.6,27-19.1,34.4c-12.1,19.5-19.8,33-28.8,33c-9.7,0-10.6-8.3-10.6-18.2c0-23.4,9.4-65.6,16.2-85.8
		c0.9-2.7,4-5.2,6.7-5.2c4.3,0,8.3,3.4,6.1,10.6c-8.5,27.9-15.1,66.7-16,82.7c10.8-16.6,28.8-48.8,39.5-67.2
		c3.6-6.3,7.4-10.8,12.6-10.8c4.7,0,9.4,3.6,9.4,11.5c0,6.3-9.4,43.4-9.4,59.3c0,7.4,1.8,11.2,5.2,11.2c5.8,0,21.6-11.7,39.8-45.8
		C624.4,110.2,635.7,114.5,630.3,125.3z"/>
	<path fill="#231F20" d="M736.4,128.6c-9.2,27.4-27.2,49.4-45.2,49.4c-8.8,0-18.4-3.6-21.1-24.3c-6.3,12.6-15.1,23.4-28.1,23.4
		c-16.4,0-24.5-14.6-24.5-35.3c0-34.6,14.2-72.1,40.7-72.1c10.6,0,17.5,7,20.7,16.2c1.1-4.5,2.5-8.5,3.8-11.9c1.6-4.7,4.7-7,7.9-7
		c4,0,7.9,4.3,5.6,11.2c-9.7,30.1-13.3,54.6-13.3,67c0,17.1,4.3,20.9,8.3,20.9c7.2,0,21.1-9.2,34.6-44.3c1.6-4,3.6-5.4,6.1-5.4
		C735.2,116.5,739.3,120.1,736.4,128.6z M671,119l0.4-2c-3.4,0.7-6.7-0.4-5.8-4.3c4.5-17.7,1.1-30.6-7.4-30.6c-16,0-27,34.6-27,56.4
		c0,19.6,4.7,26.5,10.8,26.5C652.5,165,666.2,141.7,671,119z"/>
</g>
</svg>
