<?xml version="1.0" encoding="utf-8"?>
<!-- Generator: Adobe Illustrator 19.2.1, SVG Export Plug-In . SVG Version: 6.00 Build 0)  -->
<svg version="1.1" id="Layer_1" xmlns="http://www.w3.org/2000/svg" xmlns:xlink="http://www.w3.org/1999/xlink" x="0px" y="0px"
	 viewBox="0 0 800 200" enable-background="new 0 0 800 200" xml:space="preserve">
<g>
	<path fill="#231F20" d="M35,126.3c6.8,0,12.5,1.8,17.5,4.6l4.5-24.4c-21.8-3.8-35.8-16.3-35.8-36c0-16,9.2-26.1,19.5-26.1
		c7.6,0,14.2,5.6,14.2,13.9c0,7.4-5.1,13.9-13.4,13.9c-5.8,0-12.2-3.1-13.9-11.9c0,0-1.8,4.8-1.8,11.2c0,15.7,12.5,27.1,32,30.5
		l6.1-34.3c4.5-24.9,20-38.5,38-38.5c17.3,0,29.7,12.9,29.9,31c0.2,23.4-20.6,40.5-46.4,45.9l-4.8,26.3c-1.3,7.1-3.8,13.2-7.3,18.3
		c7.3,8.3,14.4,16,28.2,16c35.2,0,49.4-48.5,52.2-56.6l3.3,2.5c-2.8,9.4-17,58.3-55.6,58.3c-15,0-23.3-7.6-31-16
		c-8.9,10.6-22,16-34.8,16c-16,0-26.4-8.9-26.3-22.3C9.4,135.2,19.5,126.3,35,126.3z M34.3,166.2c6.9,0,12.2-2.1,12.2-2.1l5-27.7
		c-5-3.3-10.6-5.4-17.3-5.4c-12.1,0-20.3,7.1-20.3,17.7C13.9,159.1,22.1,166.2,34.3,166.2z M127.3,60.2c0-15.4-11.1-26.4-24.3-26.4
		c-2.8,0-4.6,0.5-4.6,0.5l-12.2,67.2C109.6,96.2,127.3,79.7,127.3,60.2z"/>
	<path fill="#231F20" d="M144.3,134.5c0-28.7,21.5-47.9,48.4-47.9c23.4,0,38.1,14.5,38.1,36.3c0,28.7-22.1,47.9-48.9,47.9
		C158.3,170.8,144.3,156.3,144.3,134.5z M194,165l12.7-72c0,0-5.1-2.3-13.7-2.3c-7.9,0-13,2-13,2l-12.5,71.2c0,0,6.1,2.8,15.2,2.8
		C189.6,166.7,194,165,194,165z"/>
	<path fill="#231F20" d="M413.4,112.5c-8.4,25.6-22.5,58.3-46.9,58.3c-12.5,0-20.3-8.6-17.7-22.9l3.5-19.2l6.3-35.3
		c-14.9,10.7-27.6,29.6-35.5,50l-4.8,27.4l-27.4-6.6l6.6-35.5l6.3-35.3c-14.2,10.1-26.3,27.7-34.3,47.1l-5.3,30.4l-27.4-6.6
		l6.6-35.5l7.4-42.1l27.4,6.6l-6.1,32.5c8.3-15.8,19-29.4,32.9-39.1l27.4,6.6l-6.4,34.7c8.3-16.8,19.5-31.2,33.8-41.3l27.4,6.6
		l-6.6,35.5l-6.6,36.5c13.4-2.8,28.9-29.2,36.2-55.1L413.4,112.5z"/>
	<path fill="#231F20" d="M493.2,122.3c0,28.6-17.2,48.5-42.8,48.5c-10.4,0-17.2-3.6-21.5-6.9l-1.2,6.9l-27.4-6.6l6.6-35.5l16.3-90.8
		l27.4,6.6l-8.9,48c4.8-3.1,11.4-5.9,19.6-5.9C480.5,86.6,493.2,100.5,493.2,122.3z M467.3,91.9c-12.6-2.5-21,1.7-26.4,6.3
		l-5.6,30.5l-5.3,29.9c4.3,4.1,11.7,8.8,23.8,7.9L467.3,91.9z"/>
	<path fill="#231F20" d="M542.6,86.6c10.4,0,17.2,3.5,21.3,6.8l1.2-6.8l27.4,6.6l-13.4,72.6c13.4-2.8,29.1-29.9,36.3-55.8l3.3,2.5
		c-8.4,25.6-22.5,58.3-46.9,58.3c-7.8,0-13.7-3.3-16.5-9.2c-4.8,4.3-12.7,9.2-23.8,9.2c-19,0-31.7-13.9-31.7-35.7
		C499.8,106.6,517,86.6,542.6,86.6z M554,157.5c-0.5-2.8-0.5-5.9,0.2-9.6l8.7-49.2c-4.3-4-11.7-8.6-23.6-7.8l-13.7,74.6
		C539.6,168.4,548.9,162.7,554,157.5z"/>
	<path fill="#231F20" d="M690.7,100.2c0,7.4-6.1,13.5-13.5,13.5c-7.4,0-13.5-6.1-13.5-13.5c0-0.8,0.2-1.5,0.2-1.5
		c-8.9,7.6-19,25.6-25.6,41.4l-5.5,30.7l-27.4-6.6l6.6-35.5l7.4-42.1l27.4,6.6l-5.8,31.4c9.6-19.8,23.1-38,36.2-38
		C684.6,86.6,690.7,92.7,690.7,100.2z"/>
	<path fill="#231F20" d="M790.8,150.9c-7.6,11.6-17.3,20-29.7,20c-7.8,0-13.7-3.3-16.5-9.2c-4.8,4.3-12.7,9.2-23.9,9.2
		c-19,0-31.7-13.9-31.7-35.7c0-28.6,17.2-48.5,42.8-48.5c10.6,0,17.3,3.6,21.5,6.9l10.1-55.6l27.4,6.6l-15.5,84.2l-6.6,36.5
		c5.1-0.7,12.6-7.3,18.8-17.2L790.8,150.9z M743.2,157.5c-0.5-2.8-0.5-6.1,0.2-9.6l3.5-19.2l5.3-29.7c-4.1-4.1-11.7-8.9-23.8-8.1
		l-13.5,74.6C729,168.4,738.1,162.7,743.2,157.5z"/>
</g>
</svg>
