<?xml version="1.0" encoding="utf-8"?>
<!-- Generator: Adobe Illustrator 19.2.1, SVG Export Plug-In . SVG Version: 6.00 Build 0)  -->
<svg version="1.1" id="Layer_1" xmlns="http://www.w3.org/2000/svg" xmlns:xlink="http://www.w3.org/1999/xlink" x="0px" y="0px"
	 viewBox="0 0 800 200" enable-background="new 0 0 800 200" xml:space="preserve">
<g>
	<path fill="#231F20" d="M268.2,148.4h-50.6l-3.4-37.1l-27,22.8l-27-22.8l-3.4,37.1h-50.6l13.5-121.8l67.5,52.3l67.5-52.3
		L268.2,148.4z"/>
	<path fill="#231F20" d="M377.2,119.4v28.7c-6.4,1.9-12,3.4-21.9,3.4c-17.4,0-27.3-4.7-33.7-14.5c-4.4,8.6-13.7,14.5-24.5,14.5
		c-15.7,0-26.3-11.3-26.3-25.6c0-14.2,10.5-25.5,26.3-25.5c4.9,0,9.3,1.2,13.3,3.2c-3-12-6.1-18.2-20.4-18.2c-4.7,0-8.8,0.7-12.8,2
		v-32c8.8-2.4,19.4-3.4,28-3.4c40.8,0,51.8,22.4,57.9,51.6c2,10,3.5,16.5,10.6,16.5C374.9,120.1,375.9,119.9,377.2,119.4z
		 M315.1,124.1c0-3.4-2.7-5.9-5.9-5.9c-3.4,0-5.9,2.5-5.9,5.9c0,3.5,2.5,5.9,5.9,5.9C312.4,130,315.1,127.7,315.1,124.1z"/>
	<path fill="#231F20" d="M474.4,164.1c0,11.6-9.4,21.1-22.8,21.1c-12,0-20.7-7.6-22.4-17.5c-5.4,3.5-11.5,6.9-21.9,7.1
		c-15.3,0.2-26.3-12-26.5-25.1c-0.2-8.4,2.2-16.7,10.3-24.8c-7.6-7.8-12.1-18.2-12.1-29.7c0-24,19.6-43.2,46-43.2
		c5.6,0,10.8,0.8,15.7,2.4c-0.3-15.7,9.1-24.3,32-24.3v25.3c-6.9,0-12.8,4.6-13,11.1C466.8,74,471,84.1,471,95.1
		c0,23.8-19.6,43.2-46.1,43.2c-5.1,0-9.8-0.7-14.3-2c-0.2,1.3-0.3,2.7-0.3,3.9c0,7.1,5.1,11.1,12.1,11.1c12.3,0,15.9-8.3,29.2-8.3
		S474.4,152.5,474.4,164.1z M419.1,95.1c0,3.4,2.7,5.7,5.9,5.7c3.2,0,5.9-2.4,5.9-5.7c0-3.4-2.7-6.1-5.9-6.1
		C421.8,89,419.1,91.7,419.1,95.1z M457.5,164.1c0-3.4-2.5-5.9-5.9-5.9c-3.4,0-5.9,2.5-5.9,5.9c0,3.4,2.5,5.9,5.9,5.9
		C455,170,457.5,167.5,457.5,164.1z"/>
	<path fill="#231F20" d="M476.1,36.1c0-12,15.5-21.3,30.4-21.3c11.1,0,20.2,5.4,20.2,14.2c0,11.8-15.5,21.3-30.4,21.3
		C485.4,50.2,476.1,45,476.1,36.1z M526.7,55.3v92.8h-50.6V55.3H526.7z"/>
	<path fill="#231F20" d="M623.5,110.5l11.3,7.3c-8.4,20.7-24.1,33.7-48.8,33.7c-32.4,0-54.3-22.3-54.3-49.8
		c0-27.5,21.9-49.8,53.6-49.8c30.4,0,52.6,20.6,52.6,51.4h-47.7c1,8.9,6.7,15.2,14.8,15.2C612.4,118.6,618.1,115.2,623.5,110.5z
		 M591.1,89.9h21.6c-1.5-5.6-5.1-8.4-10.5-8.4C597,81.4,593,84.1,591.1,89.9z"/>
	<path fill="#231F20" d="M693.7,30v118.1h-50.6V30H693.7z"/>
</g>
</svg>
