<?xml version="1.0" encoding="utf-8"?>
<!-- Generator: Adobe Illustrator 19.2.1, SVG Export Plug-In . SVG Version: 6.00 Build 0)  -->
<svg version="1.1" id="Layer_1" xmlns="http://www.w3.org/2000/svg" xmlns:xlink="http://www.w3.org/1999/xlink" x="0px" y="0px"
	 viewBox="0 0 800 200" enable-background="new 0 0 800 200" xml:space="preserve">
<g>
	<path fill="#231F20" d="M269.2,15.9c-5.2,2.8-32.8,13.5-64.2,18.4c0.2,1.6,0.3,2.9,0.3,4.5c0,17.7-28.3,95.2-28.3,102.3
		c-2.8,0-7.8-1.2-7.8-7.3c0-9.2,25.1-72.1,27.2-98.3c-7.1,0.9-14.4,1.4-21.5,1.4c-23.9,0-43.9-1.6-43.9-13.7
		c0-9.2,18.9-15.1,41.1-15.1c14,0,24.8,6.4,29.8,16.3c36.6-7.3,70.2-21.7,71.8-21.7C275.9,5,276.8,11.7,269.2,15.9z M195.1,25.8
		c-3.1-5.7-10.4-8.3-20.3-8.3c-21.7,0-34.2,4.5-34.2,8c0,3.5,5.7,3.1,24.3,3.1C174.7,28.6,184.9,27.5,195.1,25.8z"/>
	<path fill="#231F20" d="M347.4,76.6c-1.4,4.2-40.6,63.3-49.1,63.3c-12.1,0-18.2-8.3-18.2-22.7c0-3.3,0.5-7.8,1.2-12.8
		c-9.4,17.2-20.8,37.1-23.2,37.1c-10.9,0-22.7-10.9-22.7-26.9c0-6.4,0.7-12.5,1.9-17.7c-7.8-2.1-13.4-8.1-13.4-21.8
		c0-17.2,19.9-39.2,51.3-39.2c34,0,23.1,28.3,20.6,37.6c2.8,1.2,4.9,3.1,4.9,4.9c0,2.4-11.3,22.4-11.3,45.9c0,7.3,4.5,9.2,7.3,9.2
		c2.8,0,47.2-62.9,47.2-62.9C346.5,70.5,348.8,72.4,347.4,76.6z M239.3,88.9c3.6-11.4,8.5-18.4,8.5-18.4c3.6,0,10.2,2.8,10.2,6.6
		c0,0.7-2.6,5.7-5.5,12.3c13.3-2.9,30-12.8,34.8-15.4c0.5-3.5,12.5-31-6.4-31c-27.2,0-46.8,19.4-46.8,35.4
		C234.1,84.1,236.2,87.3,239.3,88.9z M285.5,82.5c-7.5,4.7-22.7,12.7-36.1,14.6c-2.4,6.4-4.5,13.5-4.5,19.4
		c0,15.6,10.6,17.5,10.8,17.5C256.7,134,278.2,95.5,285.5,82.5z"/>
	<path fill="#231F20" d="M477.9,137.5c0,21.2-28.6,44.6-44.9,44.6c-20.6,0-27.2-10.2-27.2-22.7c0-13.2,13.4-27.2,14.2-27.2
		c3.1,0,8.3,3.8,7.6,8.7c-0.3,2.8-12.5,11.1-12.5,22c0,6.9,3.5,12.5,12.7,12.5c16,0,43-28.3,43-43c0-7.3-6.1-11.6-14.6-15.4
		c-7.1,9-14,15.4-17,15.4c-10.9,0-19.4-12-19.4-26.2c0-2.4,0.2-5,0.3-7.5c-2.4-2.1-4.7-4.5-6.8-7.1l-23.2,23.6
		c6.2,5.4,10.2,12.7,10.2,23.4c0,38.7-30.7,58.8-44.2,58.8c-18.2,0-24.3-9.2-24.3-17.7c0-14.9,20.5-38.7,44.6-62.9
		c-1-0.5-2.1-0.9-3.3-1.4c-8.1,9.9-16,17-19.1,17c-10.9,0-19.1-12.7-19.1-26.9c0-3.1,0.2-6.1,0.5-8.8c-7.5-6.4-12.7-15.3-12.7-27.9
		c0-13.9,16-32.8,44.9-32.8c19.8,0,28.8,11.3,28.8,31.4c0,11.8-8.3,27.7-17.9,40.7c1.6,0.7,2.9,1.4,4.3,2.3
		c8.8-8.8,17.9-17.5,26.5-25.7c-2.1-4.5-3.1-9.7-3.1-16c0-13.9,14.9-32.8,44.9-32.8c18.6,0,28.3,10.9,28.3,31.4
		c0,12.1-8.7,29-18,42.5C470.8,115.3,477.9,123.2,477.9,137.5z M337.1,87.2c2.8-11.1,7.1-16.6,7.1-16.6c3.6,0,9.9,2.8,9.9,6.6
		c0,1-4,9.7-6.9,17.9c6.6,3.6,14.6,6.2,22.4,9.2c9-13.2,18.2-30.3,18.2-44.2c0-10.6-4.7-16.6-14.6-16.6c-24.8,0-40.7,17.3-40.7,29.5
		C332.5,78.7,334.2,83.4,337.1,87.2z M384.7,121c-22.9,23.9-44.6,48.9-44.6,61c0,7.1,6.1,8.5,10.9,8.5c14,0,42.1-28.4,42.1-56.2
		C393.2,128.6,389.9,124.4,384.7,121z M364.2,111.6c-6.4-2.4-13.3-5.2-19.4-8.7c-0.5,1.7-0.7,3.3-0.7,4.5c0,15.8,8.7,17.3,8.8,17.3
		C353.4,124.8,358.3,119.6,364.2,111.6z M416.6,78c5.7-5.5,11.1-10.7,15.8-15.6c3.6,0,9.9,2.8,9.9,6.6c0,1.2-6.6,15.1-10.4,26.7
		c6.4,3.5,13.9,6.1,21.2,9.4c8.7-13.5,17.9-31.2,17.9-44.6c0-9.2-3.3-17.2-14.6-17.2c-25.8,0-40.2,17.3-40.2,29.5
		C416,74.7,416.2,76.2,416.6,78z M422.1,88.6c0.7-2.9,1.6-5.9,2.4-8.5c-1.6,1.7-3.3,3.5-5,5.2C420.4,86.5,421.1,87.5,422.1,88.6z
		 M447.6,113c-6.1-2.4-12.5-5-18.4-8.3c-0.2,1.2-0.3,2.4-0.3,3.5c0,15.8,9,16.6,9.2,16.6C438.6,124.8,442.6,120.1,447.6,113z"/>
	<path fill="#231F20" d="M590,74.7c0,3.6-38.5,66.9-74.2,66.9c-12.8,0-27.9-13.2-27.9-36.6c0-31.4,24.6-69,39-69
		c15.6,0,25.5,7.1,25.5,21.3c0,24.8-25.7,46.3-52.9,48.4c-0.2,1.6-0.2,3.1-0.2,4.7c0.2,17.5,12,24.1,15.8,24.1
		c29.1,0,70.4-64,71.1-64C587.7,70.5,590,71.9,590,74.7z M500.1,98.3c24.6-5.6,42.5-26.7,42.5-43.2c0-10.1-5.9-12.5-11.1-12.5
		C526.5,42.6,505,68.3,500.1,98.3z"/>
	<path fill="#231F20" d="M668.9,74.7c0,3.6-15.1,24.8-34.7,24.8c-13.4,0-21.7-10.2-25.5-24.4l-28.4,64.8c-3.3,0-8-1.2-8-7.8
		c0-22.7,11.8-70.7,14.7-78.9c3.6,0,10.4,1.9,10.4,6.9c0,2.3-11.1,31.9-15.4,60l24.8-59.3c-0.2-1.4-0.2-2.6-0.2-4
		c0-20.1,8.1-38.3,12.7-38.3c5,0,11.6,3.8,11.6,6.4c0,1.6-9.5,22-15.6,35.4c1.2,18.4,6.4,32.8,20.3,32.8c14.7,0,30.7-22.5,30.7-22.5
		C667.8,70.5,668.9,72.8,668.9,74.7z"/>
</g>
</svg>
