<?xml version="1.0" encoding="utf-8"?>
<!-- Generator: Adobe Illustrator 19.2.1, SVG Export Plug-In . SVG Version: 6.00 Build 0)  -->
<svg version="1.1" id="Layer_1" xmlns="http://www.w3.org/2000/svg" xmlns:xlink="http://www.w3.org/1999/xlink" x="0px" y="0px"
	 viewBox="0 0 800 200" enable-background="new 0 0 800 200" xml:space="preserve">
<g>
	<path fill="#231F20" d="M126.9,31.6l1.9,1.9v29.3l-28.9,48.6h27.1l1.9,1.9V143l-1.9,1.9H43.5l-1.9-1.9v-29.3l28.9-48.6H43.5
		l-1.9-1.9V33.4l1.9-1.9H126.9z"/>
	<path fill="#231F20" d="M214.3,57h47.1l1.9,1.9V143l-1.9,1.9h-47.1l-7.2-16.3l-16.3,16.3h-31.3l-23.2-22.3V79.2L159.4,57h31.3
		L207,73.5L214.3,57z M194.6,121.1h12.1V80.7h-12.1V121.1z"/>
	<path fill="#231F20" d="M395.8,57l1.9,1.9v22.1L380.4,100l17.2,19.3v47.3l-1.9,1.9h-47.3l-1.9-1.9l-7.8-52.3h-9.8V143l-1.9,1.9
		h-52.9l-1.9-1.9V33.4l1.9-1.9h52.9l1.9,1.9v53h12.1V58.8L343,57H395.8z"/>
	<path fill="#231F20" d="M472.8,31.6l1.9,2v25.6l13.9-4.1l1.9,1.9v31.5l-1.9,1.9l-13.9,4.1V143l-1.9,1.9h-52.9l-1.9-1.9v-32.4
		l-13.9,3.9l-1.9-1.9V81.1l1.9-1.9l13.9-3.9V33.4l1.9-1.9H472.8z"/>
	<path fill="#231F20" d="M573.1,57h47.1l1.9,1.9V143l-1.9,1.9h-47.1l-7.2-16.3l-16.3,16.3h-31.3l-23.2-22.3V79.2L518.2,57h31.3
		l16.3,16.5L573.1,57z M553.5,121.1h12.1V80.7h-12.1V121.1z"/>
	<path fill="#231F20" d="M685.9,57l15.9,15.9V33.4l1.9-1.9h52.9l1.9,1.9V143l-1.9,1.9h-47.1l-7.2-16.3l-16.3,16.3h-31.3l-23.2-22.3
		V79.2L654.5,57H685.9z M689.8,121.1h12.1V80.7h-12.1V121.1z"/>
</g>
</svg>
