<?xml version="1.0" encoding="utf-8"?>
<!-- Generator: Adobe Illustrator 19.2.1, SVG Export Plug-In . SVG Version: 6.00 Build 0)  -->
<svg version="1.1" id="Layer_1" xmlns="http://www.w3.org/2000/svg" xmlns:xlink="http://www.w3.org/1999/xlink" x="0px" y="0px"
	 viewBox="0 0 918.2 428.7" style="enable-background:new 0 0 918.2 428.7;" xml:space="preserve">
<style type="text/css">
	.st0{enable-background:new    ;}
	.st1{fill:#FBE8E2;}
</style>
<g class="st0">
	<path class="st1" d="M303.4,40.7c-1.3-1.7-3.5-3.2-7.7-3.2c-6.2,0-12.5,3.5-17.4,7.8c-2.4,2.1-4.7,4.5-6.9,7.1
		c37.3,0.7,30.4,47.4,0.7,62.5c0.9,1.5,1.7,3.2,2.2,5c1.3-0.2,2.6-0.2,3.9-0.2c12.7,0,12.9,7.1,10.5,7.1c0-0.7-1.5-5.6-11.2-5.6
		l-3,0.2c0.2,0.7,0.2,1.5,0.2,2.2c0,16.2-14.4,36-30.8,36c-11,0-11-13.2-1.7-23.3c7.3-7.8,17-13.8,27.8-15.9
		c-0.2-1.5-0.7-2.8-1.3-4.1c-4.9,1.9-10.3,3-16,3c-5.6,0-7.3-2.6-7.3-4.1c0-3.7,4.9-7.3,13.2-7.3c5,0,9.1,2.1,11.9,5
		c25.2-15.3,32.1-59-0.4-59.2c-27.4,34.3-40.7,106.4-66.1,106.4c-9.7,0-16.2-8-16.2-23.9c0-31.2,31.7-81.6,79.1-84
		c3.2-3.5,6.5-6.7,10.1-9.3c6.2-4.5,11.6-7.1,18.5-7.1C304.7,36,305.6,41.1,303.4,40.7z M228.5,126.7c10.3-23.5,21.6-53.7,37.3-72.6
		c-44.2,3-76,50.8-76,81.9c0,15.1,5.6,22.8,14.4,22.8C212.5,158.8,220.3,145.4,228.5,126.7z M270.3,122
		c-10.6,2.1-20.3,8.6-27.4,16.2c-7.8,8.8-7.7,20,1.1,20c12.5,0,26.3-20.2,26.3-34.9V122z M267.9,114.6c-2.1-3-5-5-9.1-5
		c-7.3,0-11.8,2.6-11.8,5.8c0,0.9,1.3,2.8,5.6,2.8C258.2,118.1,263.2,116.8,267.9,114.6z"/>
	<path class="st1" d="M314.9,159.4c-4.7,0-2.2-10.5,3-22.8c-5.6,8.4-20.5,23-28,23c-9,0-2.2-24.4,7.5-41.6
		c11-19.2,25.8-33.6,34.7-33.6c7.1,0,4.3,13.6,0.4,24.1c8.2-13.4,16.6-24.1,21.3-24.1c9.1,0-8.6,25.2-27.1,43.5
		c-7.5,15.7-13.2,29.9-10.5,29.3c5.8-0.7,23.3-17.4,31-28C353.7,129.1,328.4,159.4,314.9,159.4z M320,131.9
		c2.6-5.4,4.5-10.5,7.7-16.2c4.1-10.1,9.1-29.5,4.3-29.5c-6.3,0-20,15.9-30.6,34.5c-8.8,15.1-14.6,36.6-10.6,36.6
		C294.2,157.3,307.1,147.2,320,131.9z M329.3,122.4c15.7-16.8,28.4-36.2,24.4-36.2C351.1,86.2,338.3,104.5,329.3,122.4z"/>
	<path class="st1" d="M387.1,90.5c-2.2,4.7-7.3,15.5-14.4,29.3c-17.5,34.2-44,83.8-65.1,83.8c-18.7,0-4.9-33,13.8-33
		c4.5,0,2.8,6.5-0.9,6.5c-2.1,0-3.5-3-0.7-5c-12.1,3.2-26.5,29.9-12.7,29.9c15.5,0,36.6-34,61.8-83.6c5.4-10.6,13.4-27.2,15.7-32.5
		C385.7,84.5,387.7,87.5,387.1,90.5z M389.2,71.7c0-2.8,2.4-6.2,5.6-6.2c2.1,0,2.8,1.5,2.8,3.4c0,2.8-2.8,6.5-5.4,6.5
		C390.3,75.4,389.2,73.9,389.2,71.7z"/>
	<path class="st1" d="M404.5,159.4c-4.7,0-2.2-10.5,3-22.8c-5.6,8.4-20.5,23-28,23c-9,0-2.2-24.4,7.5-41.6
		c11-19.2,25.8-33.6,34.7-33.6c7.1,0,4.3,13.6,0.4,24.1c8.2-13.4,16.6-24.1,21.3-24.1c9.1,0-8.6,25.2-27.1,43.5
		c-7.5,15.7-13.2,29.9-10.5,29.3c5.8-0.7,23.3-17.4,31-28C443.3,129.1,417.9,159.4,404.5,159.4z M409.5,131.9
		c2.6-5.4,4.5-10.5,7.7-16.2c4.1-10.1,9.1-29.5,4.3-29.5c-6.3,0-20,15.9-30.6,34.5c-8.8,15.1-14.6,36.6-10.6,36.6
		C383.8,157.3,396.7,147.2,409.5,131.9z M418.9,122.4c15.7-16.8,28.4-36.2,24.4-36.2C440.7,86.2,427.8,104.5,418.9,122.4z"/>
	<path class="st1" d="M473.2,158.6c-4.1,0-4.5-8.8,1.5-22.4c-10.8,13.6-22.4,22.6-29.3,22.6c-8.2,0-4.9-20.3,7.5-42.4
		c10.8-19.2,25.8-30.8,34.7-30.8c6.9,0,6.7,9.9,3,20.3c18.1-31.7,38.1-59.5,44.2-59.5c9.5,0-11.6,31.9-37.1,56.5
		c-3.5,6.2-7.7,12.7-11.2,18.8c-9.5,17.4-15.7,34.7-12.3,34.7c7.3,0,31.2-22.4,43.9-43.7C527.9,112.9,491.1,158.6,473.2,158.6z
		 M477.5,129.5c2.8-4.7,5.8-10.3,8-14.7c4.3-9.7,7.7-27.2,1.9-27.2c-6.3,0-20,13.1-30.6,31.5c-11,19.2-14.6,37.3-10.6,37.3
		C451.3,156.4,466.3,144.8,477.5,129.5z M498.9,99.3c22.6-23.1,39.7-50.4,36-50.4C531.6,48.9,514.8,72.8,498.9,99.3z"/>
	<path class="st1" d="M530.8,126.9c12.3,0,37.3-39.9,26.9-39.9c-19,0-55.8,71.1-38.8,71.1c14,0,34-30,37.3-36.6
		c8.8,0-17.9,38.6-37.1,38.6c-12.3,0-8.2-21.6,2.2-41.1c9.3-17.5,24.1-34,36.4-34c17.4,0-8.4,44.4-26.9,44.4c-4.9,0-5-5.6-3.2-6.5
		C527.9,125.6,529.5,126.9,530.8,126.9z"/>
	<path class="st1" d="M597.3,124.8c-5.8,0-4.9-13.6-3.5-17.5c-9.5,8.4-18.8,19.4-27.8,33.6c-2.2,4.7-3.7,7.7-5.6,12.5
		c3-0.6,6.3-0.9,9.5-0.9c6.7,0,5.8,3,5.4,3.7c-3.4-1.3-18.1-0.4-28.6,2.6c-0.7,0-1.3-0.7-0.9-1.1c0.6-0.9,5.2-2.2,11.2-3.5
		c10.1-31.9,30.4-62.9,32.1-65.7c2.8-3.4,7.3-2.4,6-0.4c-7.8,9.9-17.4,26.9-25.2,43.7c7.8-12.5,18.8-22.6,25-28.7
		c5.2-17,16.4-30.8,23.3-30.8c7.1,0-1.1,14.7-19.6,31.7c-2.4,5.6-3.9,19-1.1,19c3.2,0,9-8.8,11.6-13.2
		C613.7,110.3,603.1,124.8,597.3,124.8z M599.3,100.2c13.2-12.7,22.2-26.1,18.8-26.1C615.4,74.1,606,83.6,599.3,100.2z"/>
	<path class="st1" d="M672.3,90.7c-2.1,0-2.1-2.4-1.7-3.2c-9.3,2.1-29.9,17.9-44,34.7c7.3-6.7,17.2-12.9,20.7-12.9c9,0-19,47-14,47
		c5.6,0,23.5-18.1,29.1-29.5c8.8,0-18.3,31.5-29.3,31.5c-12.1,0,16.2-46.3,12.7-46.3c-2.6,0-22,13.4-29.5,22
		c-4.1,7.5-8.2,16-11.6,23.1c-0.9,2.2-4.3,2.1-3.9,0.9c23.7-55.4,59-106.9,63.6-111.4c1.7-1.1,2.4,2.2,2.6,4.3
		c-8.8,10.5-30,43.3-48,76.1c-0.4,0.6-0.7,1.5-0.4,1.3c17-22.4,42.9-44.2,55.2-44.2C678.1,84.3,676,90.7,672.3,90.7z"/>
	<path class="st1" d="M695.6,159.4c-4.7,0-2.2-10.5,3-22.8c-5.6,8.4-20.5,23-28,23c-9,0-2.2-24.4,7.5-41.6
		c11-19.2,25.8-33.6,34.7-33.6c7.1,0,4.3,13.6,0.4,24.1c8.2-13.4,16.6-24.1,21.3-24.1c9.1,0-8.6,25.2-27.1,43.5
		c-7.5,15.7-13.2,29.9-10.5,29.3c5.8-0.7,23.3-17.4,31-28C734.4,129.1,709.1,159.4,695.6,159.4z M700.7,131.9
		c2.6-5.4,4.5-10.5,7.7-16.2c4.1-10.1,9.1-29.5,4.3-29.5c-6.3,0-20,15.9-30.6,34.5c-8.8,15.1-14.6,36.6-10.6,36.6
		C674.9,157.3,687.8,147.2,700.7,131.9z M710,122.4c15.7-16.8,28.4-36.2,24.4-36.2C731.8,86.2,718.9,104.5,710,122.4z"/>
</g>
<g class="st0">
	<path class="st1" d="M73.1,382.5c-14.2,0,23-62.9,24.1-65.1c-4.1,0.2-24.8,15.1-40.3,36c-6,10.5-11.9,24.6-12.5,26.7
		c-6,3.2-4.5-10.1,10.1-28.6c12.5-27.1,20.9-42,19.6-42c-4.3,0-32.5,23.9-51.3,53c-2.4,5-5,10.5-6.7,14.7c1.5-0.2,4.5-0.9,9.3-0.9
		c5.6,0,4.7,3,4.3,3.7c-1.7-0.7-17-0.9-28.6,3.4c-0.7,0-1.3-0.7-0.9-1.1c0.7-1.1,7.3-3.5,11.9-4.5c15.7-39.2,39-74.3,39.6-75
		c2.8-2.1,3.2,3.9,3.2,3.9c-6.2,8.6-16.2,25.8-25.2,42.5c19.6-25.8,40.3-42.7,45.3-42.7c2.2,0,3.2,1.1,3.2,2.8
		c0,3.5-8,18.7-16.2,34.2c16.6-18.8,32.7-30.2,36.8-30.2c6.3,0,1.5,8-2.2,14.7c-10.5,18.8-28.4,52.4-23,52.4c3.9,0,14.4-6.7,22.6-20
		C102.4,360.5,87.1,382.5,73.1,382.5z"/>
	<path class="st1" d="M127.6,384.2c-6.3,0,1.7-20.3,6.5-30.4c-8.6,11.2-24.4,30.6-34.5,30.6c-13.1,0,27.4-60.8,29.1-75.4
		c15.5-2.8-35.5,73.3-28.4,73.3c7.8,0,31.9-29.5,38.6-38.3c8-16,16.2-35.1,17.9-35.1c1.7,0,2.6,2.6,2.2,5c-0.7,6-9.1,18.1-14.6,27.2
		c-9.1,17.9-19.2,40.9-16,40.9c6.2,0,20-17.5,21.6-21.3C156.5,360.9,139.9,384.2,127.6,384.2z"/>
	<path class="st1" d="M203.2,325.6c-4.5,6.3-11.8,16.2-17,22.8c1.3-0.4,3-0.9,4.3-0.9c12.1,0-11.2,35.1-4.7,35.1
		c4.5,0,15.1-15.3,17.2-19.8c5.6,0-8.4,21.3-17.2,21.3c-12.7,0,8.8-34.3,4.3-34.3c-1.7,0-3.7,0.4-5.8,1.3
		c-13.1,16.8-23.3,33.6-28.6,33.6c-10.3,0,6.5-27.8,27.2-35.1c5.6-7.7,11.8-15.9,16.4-22.4c-2.6,1.1-5.4,2.4-7.7,2.4
		c-8.8,0,3.7-22.8,0.6-22.8c-8.2,0-22.2,25.4-23.5,30.6c-5.2,0,9-32.5,23.5-32.5c10.1,0-3.7,22.6,0.2,22.6c1.9,0,5.8-1.9,9.9-4.7
		c5.4-7.3,9.7-13.1,12.3-13.1C219.4,309.7,212.3,320,203.2,325.6z M181.2,352.1c-14,7.7-29.5,30.8-25.4,30.8
		C159,382.9,170.2,366.5,181.2,352.1z"/>
	<path class="st1" d="M273.9,313.5c-2.4,7.3-30.2,61.6-43.7,81c-14.6,20.3-25.8,33.6-38.4,33.6c-22.4,0-5.4-39.6,15.5-39.6
		c4.7,0,2.4,6.5-1.7,6.5c-2.6,0-2.4-3.5-0.6-5c-18.7,6.9-28.9,36.6-13.6,36.6c9,0,21.8-12.5,36-34c9.5-14.9,23.3-39.9,24.4-42.9
		c-5,6.9-26.7,32.8-38.4,32.8c-13.1,0,27.2-58.4,28.9-73c15.5-3-35.1,71.1-28,71.1c6.7,0,33.6-28.4,40.1-36.8
		c8-16,15.3-34.5,17-34.5C272.6,309.4,273.7,310.9,273.9,313.5z"/>
	<path class="st1" d="M328.2,314.6c-2.1,0-2.1-2.4-1.7-3.2c-9.3,2.1-29.9,17.9-44,34.7c7.3-6.7,17.2-12.9,20.7-12.9c9,0-19,47-14,47
		c5.6,0,23.5-18.1,29.1-29.5c8.8,0-18.3,31.5-29.3,31.5c-12.1,0,16.2-46.3,12.7-46.3c-2.6,0-22,13.4-29.5,22
		c-4.1,7.5-8.2,16-11.6,23.1c-0.9,2.2-4.3,2.1-3.9,0.9c23.7-55.4,59-106.9,63.6-111.4c1.7-1.1,2.4,2.2,2.6,4.3
		c-8.8,10.5-30,43.3-48,76.1c-0.4,0.6-0.7,1.5-0.4,1.3c17-22.4,42.9-44.2,55.2-44.2C334,308.2,331.9,314.6,328.2,314.6z"/>
	<path class="st1" d="M351.5,383.3c-4.7,0-2.2-10.5,3-22.8c-5.6,8.4-20.5,23-28,23c-9,0-2.2-24.4,7.5-41.6
		c11-19.2,25.8-33.6,34.7-33.6c7.1,0,4.3,13.6,0.4,24.1c8.2-13.4,16.6-24.1,21.3-24.1c9.1,0-8.6,25.2-27.1,43.5
		c-7.5,15.7-13.2,29.9-10.5,29.3c5.8-0.7,23.3-17.4,31-28C390.4,353,365,383.3,351.5,383.3z M356.6,355.8c2.6-5.4,4.5-10.5,7.7-16.2
		c4.1-10.1,9.1-29.5,4.3-29.5c-6.3,0-20,15.9-30.6,34.5c-8.8,15.1-14.6,36.6-10.6,36.6C330.8,381.2,343.7,371.1,356.6,355.8z
		 M365.9,346.3c15.7-16.8,28.4-36.2,24.4-36.2C387.7,310.1,374.9,328.4,365.9,346.3z"/>
	<path class="st1" d="M465.4,315c-0.9,1.9-14.4,23.1-21.5,36c-9,16.2-15.3,29.7-12.1,29.7c4.5,0,23-15.7,29.5-27.6
		c7.8,0.6-17.2,29.5-29.9,29.5c-7.7,0,0.7-18.1,10.6-36.8c7.1-13.6,20-32.5,21.3-35.8C465,309.2,466.5,313.3,465.4,315z M471,295.6
		c0-2.8,2.4-6.2,5.6-6.2c2.1,0,2.8,1.5,2.8,3.4c0,2.8-2.8,6.5-5.4,6.5C472.1,299.3,471,297.8,471,295.6z"/>
	<path class="st1" d="M561.3,319.8c0,7.8-7.7,16.6-15.5,16.6c-2.2,0-3.7-1.7-3.7-3.2c0-1.9,1.3-3.5,3.5-3.5c2.2,0,3.4,3.2,1.3,4.9
		c6.2-1.1,10.6-9,10.6-14.9c0-5-2.8-9.7-9-9.7c-8.8,0-16.4,7.7-14.7,21.8c0.7,7.1,3.9,18.1,4.1,24.8c0.6,14.2-6.5,27.6-20.5,27.6
		c-7.1,0-14-5.4-14-14.7c0-13.2,11.9-23.3,20.2-23.3c1.9,0,3.5,0.7,3.5,1.5c0,0.2-0.2,0.2-0.2,0.4c-8,0-19.8,9.3-19.8,22
		c0,8.4,5.2,11.9,10.1,11.9c11.4,0,17.2-12.3,16.4-25.8c-0.4-6.7-3-16.2-3.7-23.5c-1.5-13.6,5.6-24.8,19.4-24.8
		C557.6,307.9,561.3,313.8,561.3,319.8z"/>
	<path class="st1" d="M638.2,283.4c0,1.7-2.8,6.3-14.4,6.3c-4.7,0-8.6-0.2-11.8-0.4c-6,10.8-20.3,28.6-36.6,44
		c-7.5,11.2-27.2,47.4-20.9,47.4c8.2,0,32.1-23.9,45.3-44c9,0-28.4,45.9-45.7,45.9c-7.7,0-1.3-17.2,9.1-36.9
		c13.1-24.8,27.1-45.7,37.1-57.3l-4.5-0.2c-5,0-9.9,0.9-11.8,3c-1.3-0.9,1.7-5.6,11.6-5.6l7.1,0.2c4.3-4.5,7.7-6.9,9.7-6.9
		c3,0,3,2.8,0.9,7.3c3.4,0.2,6.9,0.4,10.8,0.4c12.5,0,12.9-3.7,12.9-3.7C637.6,282.5,638.2,282.9,638.2,283.4z M609.6,289.2
		l-5.2-0.6c-6.9,8.8-17.2,23.9-27.4,40.7C591.9,314.4,603.8,298.5,609.6,289.2z M606.8,286l4.5,0.2c1.9-3.4,2.4-5.4,1.3-5.4
		C611.7,280.8,609.6,282.7,606.8,286z"/>
	<path class="st1" d="M605.7,382.7c-23.1,0,12.1-74.3,39-74.3C668.6,308.4,632,382.7,605.7,382.7z M645.1,310.5
		c-19.4,0-56.4,70.2-39,70.2C624.7,380.7,662.6,310.5,645.1,310.5z"/>
	<path class="st1" d="M675.9,382.5c-4.1,0-4.5-8.8,1.5-22.4c-10.8,13.6-22.4,22.6-29.3,22.6c-8.2,0-4.9-20.3,7.5-42.4
		c10.8-19.2,25.8-30.8,34.7-30.8c6.9,0,6.7,9.9,3,20.3c18.1-31.7,38.1-59.5,44.2-59.5c9.5,0-11.6,31.9-37.1,56.5
		c-3.5,6.2-7.7,12.7-11.2,18.8c-9.5,17.4-15.7,34.7-12.3,34.7c7.3,0,31.2-22.4,43.9-43.7C730.5,336.8,693.8,382.5,675.9,382.5z
		 M680.2,353.4c2.8-4.7,5.8-10.3,8-14.7c4.3-9.7,7.7-27.2,1.9-27.2c-6.3,0-20,13.1-30.6,31.5c-11,19.2-14.6,37.3-10.6,37.3
		C654,380.3,669,368.7,680.2,353.4z M701.6,323.2c22.6-23.1,39.7-50.4,36-50.4C734.3,272.8,717.5,296.7,701.6,323.2z"/>
	<path class="st1" d="M776.8,313.5c-2.4,7.3-30.2,61.6-43.7,81c-14.6,20.3-25.8,33.6-38.4,33.6c-22.4,0-5.4-39.6,15.5-39.6
		c4.7,0,2.4,6.5-1.7,6.5c-2.6,0-2.4-3.5-0.6-5c-18.7,6.9-28.9,36.6-13.6,36.6c9,0,21.8-12.5,36-34c9.5-14.9,23.3-39.9,24.4-42.9
		c-5,6.9-26.7,32.8-38.4,32.8c-13.1,0,27.2-58.4,28.9-73c15.5-3-35.1,71.1-28,71.1c6.7,0,33.6-28.4,40.1-36.8
		c8-16,15.3-34.5,17-34.5C775.5,309.4,776.6,310.9,776.8,313.5z"/>
	<path class="st1" d="M798.3,336.6c10.6-3.7,18.8-26.1,12.1-26.1c-8.6,0-23,17.7-32.3,36c-9,17.5-12.5,35.8-5,35.8
		c14,0,31.5-29.3,35.8-38.3c8.2,0-15.9,40.1-35.8,40.1c-10.5,0-9-19.4-0.2-37.7c9-18.7,25-37.9,37.5-37.9c14.6,0-0.7,29.9-12.7,29.9
		c-3.2,0-4.7-3.9-2.2-5.8C797.9,330.6,801.1,334.2,798.3,336.6z"/>
	<path class="st1" d="M858.2,325.6c-4.5,6.3-11.8,16.2-17,22.8c1.3-0.4,3-0.9,4.3-0.9c12.1,0-11.2,35.1-4.7,35.1
		c4.5,0,15.1-15.3,17.2-19.8c5.6,0-8.4,21.3-17.2,21.3c-12.7,0,8.8-34.3,4.3-34.3c-1.7,0-3.7,0.4-5.8,1.3
		c-13.1,16.8-23.3,33.6-28.6,33.6c-10.3,0,6.5-27.8,27.2-35.1c5.6-7.7,11.8-15.9,16.4-22.4c-2.6,1.1-5.4,2.4-7.7,2.4
		c-8.8,0,3.7-22.8,0.6-22.8c-8.2,0-22.2,25.4-23.5,30.6c-5.2,0,9-32.5,23.5-32.5c10.1,0-3.7,22.6,0.2,22.6c1.9,0,5.8-1.9,9.9-4.7
		c5.4-7.3,9.7-13.1,12.3-13.1C874.4,309.7,867.3,320,858.2,325.6z M836.2,352.1c-14,7.7-29.5,30.8-25.4,30.8
		C814,382.9,825.2,366.5,836.2,352.1z"/>
	<path class="st1" d="M885.6,350.8c12.3,0,37.3-39.9,26.9-39.9c-19,0-55.8,71.1-38.8,71.1c14,0,34-30,37.3-36.6
		c8.8,0-17.9,38.6-37.1,38.6c-12.3,0-8.2-21.6,2.2-41.1c9.3-17.5,24.1-34,36.4-34c17.4,0-8.4,44.4-26.9,44.4c-4.9,0-5-5.6-3.2-6.5
		C882.6,349.5,884.3,350.8,885.6,350.8z"/>
</g>
</svg>
