<?xml version="1.0" encoding="utf-8"?>
<!-- Generator: Adobe Illustrator 19.2.1, SVG Export Plug-In . SVG Version: 6.00 Build 0)  -->
<svg version="1.1" id="Layer_1" xmlns="http://www.w3.org/2000/svg" xmlns:xlink="http://www.w3.org/1999/xlink" x="0px" y="0px"
	 viewBox="0 0 740 245.5" enable-background="new 0 0 740 245.5" xml:space="preserve">
<g>
	<path fill="#E2E8E9" d="M121.6,27.8c0,13.7-10.8,22.9-25.2,22.9H83.2V80h-7.1V6.6h20.9C110.4,6.6,121.6,13.2,121.6,27.8z M114,28.7
		c0-10.3-6-15.7-18.6-15.7H83.2v31.4h12.6C106.8,44.3,114,39.4,114,28.7z"/>
	<path fill="#E2E8E9" d="M148.9,81.4c-7,0-9.9-4-9.9-11.7V0h7v68.1c0,4.6,1.2,7,4.2,7c1.5,0,3.5-0.2,6-1.3h0.6v6.2
		C153.7,81.3,150.7,81.4,148.9,81.4z"/>
	<path fill="#E2E8E9" d="M211,40.6V80h-6.2v-7.6c-7.3,6.6-12.4,9-19.1,9c-11.9,0-17.5-7.8-17.5-16.6c0-11.6,9.4-17.4,21.8-17.4
		c2.3,0,6.3,0.2,13.9,0.7v-7.5c0-9.1-5-13.1-13.9-13.1c-6.2,0-12.9,1.6-18.7,4.9h-0.5v-6.4c5.2-3.1,11.8-4.7,20-4.7
		C203.3,21.4,211,27.3,211,40.6z M204,65.5V53.9c-6.1-0.5-11.8-0.8-14.3-0.8c-8.9,0-14.1,4-14.1,11.4c0,6.1,3.5,10.8,11.2,10.8
		C193.3,75.3,198,71.8,204,65.5z"/>
	<path fill="#E2E8E9" d="M229.2,52.5c0-19.9,9-31.1,24.2-31.1c5.4,0,12.2,1.5,16.8,5.3l-1.2,6.4h-0.6c-3.7-2.9-10.1-5.5-15.8-5.5
		c-9,0-16,7-16,24.1c0,15.3,5.6,23.5,17.4,23.5c4.5,0,10-1.2,15-4.8h0.5V77c-3.8,2.9-10.8,4.4-16.7,4.4
		C237.9,81.4,229.2,71.8,229.2,52.5z"/>
	<path fill="#E2E8E9" d="M366.5,6.6V80h-7.1V44.9h-35.4V80h-7.1V6.6h7.1v32h35.4v-32H366.5z"/>
	<path fill="#E2E8E9" d="M428.2,40.6V80H422v-7.6c-7.3,6.6-12.4,9-19.1,9c-11.9,0-17.5-7.8-17.5-16.6c0-11.6,9.4-17.4,21.8-17.4
		c2.3,0,6.3,0.2,13.9,0.7v-7.5c0-9.1-5-13.1-13.9-13.1c-6.2,0-12.9,1.6-18.7,4.9h-0.5v-6.4c5.2-3.1,11.8-4.7,20-4.7
		C420.5,21.4,428.2,27.3,428.2,40.6z M421.2,65.5V53.9c-6.1-0.5-11.8-0.8-14.3-0.8c-8.9,0-14.1,4-14.1,11.4
		c0,6.1,3.5,10.8,11.2,10.8C410.5,75.3,415.2,71.8,421.2,65.5z"/>
	<path fill="#E2E8E9" d="M460.8,81.4c-7,0-9.9-4-9.9-11.7V0h7v68.1c0,4.6,1.2,7,4.2,7c1.5,0,3.5-0.2,6-1.3h0.6v6.2
		C465.7,81.3,462.7,81.4,460.8,81.4z"/>
	<path fill="#E2E8E9" d="M495,81.4c-7,0-9.9-4-9.9-11.7V0h7v68.1c0,4.6,1.2,7,4.2,7c1.5,0,3.5-0.2,6-1.3h0.6v6.2
		C499.9,81.3,496.9,81.4,495,81.4z"/>
	<path fill="#E2E8E9" d="M559.8,52.9h-38.2c0.5,14.8,5.5,22.5,19.2,22.5c5.8,0,10.3-1.2,15.9-4.4h0.6v6.4c-3.9,2.4-9.8,4-17.7,4
		c-17.7,0-25.5-10.9-25.5-28.7c0-20.1,9.4-31.3,24.3-31.3c14.3,0,21.3,9.8,21.3,27.9V52.9z M521.7,47.2h31.2
		c-0.4-13.2-5.1-19.8-15-19.8C528.5,27.5,522.5,34.5,521.7,47.2z"/>
	<path fill="#E2E8E9" d="M609.3,23.4L608,30h-0.5c-2.2-0.9-4.2-1.3-6.3-1.3c-6,0-10.1,5.2-15.2,13.9V80h-7V22.8h6.7v10.7
		c5.9-8.1,10.6-12.1,16.4-12.1C604.6,21.4,607.1,22.3,609.3,23.4z"/>
	<path fill="#E2E8E9" d="M658.6,40.6V80h-6.2v-7.6c-7.3,6.6-12.4,9-19.1,9c-11.9,0-17.5-7.8-17.5-16.6c0-11.6,9.4-17.4,21.8-17.4
		c2.3,0,6.3,0.2,13.9,0.7v-7.5c0-9.1-5-13.1-13.9-13.1c-6.2,0-12.9,1.6-18.7,4.9h-0.5v-6.4c5.2-3.1,11.8-4.7,20-4.7
		C651,21.4,658.6,27.3,658.6,40.6z M651.7,65.5V53.9c-6.1-0.5-11.8-0.8-14.3-0.8c-8.9,0-14.1,4-14.1,11.4c0,6.1,3.5,10.8,11.2,10.8
		C641,75.3,645.7,71.8,651.7,65.5z"/>
	<path fill="#E2E8E9" d="M0,186.9C0,162.5,11.1,148,30.9,148c19.4,0,29.3,14.1,29.3,37.2c0,24.3-11,39-30.9,39
		C9.9,224.2,0,210,0,186.9z M52.6,186.3c0-22.1-9.1-31.9-22.5-31.9c-13.4,0-22.5,9.6-22.5,31.8c0,21.8,8.8,31.7,22.6,31.7
		C43.8,217.8,52.6,208,52.6,186.3z"/>
	<path fill="#E2E8E9" d="M74.7,219.1v-7.2h0.5c4.8,3.3,10.4,6.3,16.8,6.3c8.7,0.1,13-4,13-9.9c0-5.7-3.5-8.5-12.7-12
		c-7-2.7-16.2-5.5-16.2-16.2c0-9.2,6.7-15.9,18-15.9c6.4,0,11.5,1.5,15.3,4l-1.2,6.3h-0.6c-4.3-3-9.9-4.2-14.5-4.2
		c-7.9,0-10,5.2-10,9.1c0,5,3.4,7.4,12.6,11.2c9.7,4,16.3,7.2,16.3,17c0,9.6-7,16.7-21,16.7C84.7,224.2,78.4,222,74.7,219.1z"/>
	<path fill="#E2E8E9" d="M127.5,145.6c0-3.5,2.2-5.5,5.6-5.5c3.2,0,5.3,2,5.3,5.3c0,3.5-2.3,5.5-5.6,5.5S127.5,149,127.5,145.6z
		 M129.5,165.6h7v57.2h-7V165.6z"/>
	<path fill="#E2E8E9" d="M200.8,195.7h-38.2c0.5,14.8,5.5,22.5,19.2,22.5c5.8,0,10.3-1.2,15.9-4.4h0.6v6.4c-3.9,2.4-9.8,4-17.7,4
		c-17.7,0-25.4-10.9-25.4-28.7c0-20.1,9.4-31.3,24.3-31.3c14.3,0,21.3,9.8,21.3,27.9V195.7z M162.6,190h31.2
		c-0.4-13.2-5.1-19.8-15-19.8C169.5,170.3,163.5,177.3,162.6,190z"/>
	<path fill="#E2E8E9" d="M261.6,142.8v80h-6.4v-8.9c-6.2,6.9-12,10.3-19,10.3c-12.8,0-20.8-10.3-20.8-29.1c0-19.2,8.6-30.9,25-30.9
		c5.5,0,10.5,1.6,14.2,3.1v-24.6H261.6z M254.6,206.8v-32.4c-4.4-2.3-9.3-4.1-14.2-4.1c-11.5,0-17.6,7.4-17.6,24
		c0,16.3,5.9,23.9,14.3,23.9C242.9,218.2,247.9,214.4,254.6,206.8z"/>
	<path fill="#E2E8E9" d="M294.7,224.2c-7,0-9.9-4-9.9-11.7v-69.7h7v68.1c0,4.6,1.2,7,4.2,7c1.5,0,3.5-0.2,6-1.3h0.6v6.2
		C299.6,224.1,296.6,224.2,294.7,224.2z"/>
	<path fill="#E2E8E9" d="M359.5,195.7h-38.2c0.5,14.8,5.5,22.5,19.2,22.5c5.8,0,10.3-1.2,15.9-4.4h0.6v6.4c-3.9,2.4-9.8,4-17.7,4
		c-17.7,0-25.4-10.9-25.4-28.7c0-20.1,9.4-31.3,24.3-31.3c14.3,0,21.3,9.8,21.3,27.9V195.7z M321.4,190h31.2
		c-0.4-13.2-5.1-19.8-15-19.8C328.2,170.3,322.2,177.3,321.4,190z"/>
	<path fill="#E2E8E9" d="M457.2,222.2v0.6h-8.3l-24.5-33.2l-8.5,1.4v31.8h-7.1v-73.4h7.1v34.9l6.4-1l24.6-33.8h7.8v0.5l-21.3,29.1
		c-1.1,1.5-2.7,3.3-4.2,5.2c1.7,2.1,4.2,5.2,7.1,9.2L457.2,222.2z"/>
	<path fill="#E2E8E9" d="M508.9,183.4v39.5h-6.2v-7.6c-7.3,6.6-12.4,9-19.1,9c-11.9,0-17.5-7.8-17.5-16.6c0-11.6,9.4-17.4,21.8-17.4
		c2.3,0,6.3,0.2,13.9,0.7v-7.5c0-9.1-5-13.1-13.9-13.1c-6.2,0-12.9,1.6-18.7,4.9h-0.5v-6.4c5.2-3.1,11.8-4.7,20-4.7
		C501.3,164.2,508.9,170.1,508.9,183.4z M502,208.3v-11.6c-6.1-0.5-11.8-0.8-14.3-0.8c-8.9,0-14.1,4-14.1,11.4
		c0,6.1,3.5,10.8,11.2,10.8C491.3,218.1,496,214.6,502,208.3z"/>
	<path fill="#E2E8E9" d="M577.9,193.1c0,19.4-8.5,31.1-27.3,31.1c-6.4,0-14.2-2.1-18.9-4.5v-76.9h7v31.3c6.7-7,11.9-9.9,18.5-9.9
		C570.3,164.2,577.9,174.7,577.9,193.1z M570.5,193.9c0-15.7-5.3-23.6-14.2-23.6c-5.8,0-10.6,3.3-17.6,11.6v33.4
		c4.1,1.9,8.6,3,12.7,3C564.5,218.2,570.5,210.9,570.5,193.9z"/>
	<path fill="#E2E8E9" d="M634.5,183.4v39.5h-6.2v-7.6c-7.3,6.6-12.4,9-19.1,9c-11.9,0-17.5-7.8-17.5-16.6c0-11.6,9.4-17.4,21.8-17.4
		c2.3,0,6.3,0.2,13.9,0.7v-7.5c0-9.1-5-13.1-13.9-13.1c-6.2,0-12.9,1.6-18.7,4.9h-0.5v-6.4c5.2-3.1,11.8-4.7,20-4.7
		C626.8,164.2,634.5,170.1,634.5,183.4z M627.5,208.3v-11.6c-6.1-0.5-11.8-0.8-14.3-0.8c-8.9,0-14.1,4-14.1,11.4
		c0,6.1,3.5,10.8,11.2,10.8C616.8,218.1,621.5,214.6,627.5,208.3z"/>
	<path fill="#E2E8E9" d="M682,216v6.2c-3.1,1.5-6.6,2-10.5,2c-9.6,0-12.5-5.8-12.5-13.5V172h-9.3v-6.3h9.3v-12.6l6.5-1.1h0.5v13.7
		h16v6.3h-16v37.2c0,4.8,0.9,8.8,6.8,8.8c3.3,0,6-0.5,8.7-1.9H682z"/>
	<path fill="#E2E8E9" d="M718.6,222.1l-1.7,10.5c-1.2,7.5-6.6,13-14.8,13c-2.1,0-4.6-0.3-7.8-1.9l1.5-5.6h0.4c2.2,1,3.5,1.3,5.6,1.4
		c4.6,0.1,8.3-2.8,9.1-8.9l1-8.2l-22.3-56.7h7.5l16,41.3c0.4,1,1.4,4.2,2.4,7.5c0.9-3.3,1.9-6.4,2.3-7.5l15.2-41.3h7.1L718.6,222.1z
		"/>
</g>
</svg>
