<?xml version="1.0" encoding="utf-8"?>
<!-- Generator: Adobe Illustrator 19.2.1, SVG Export Plug-In . SVG Version: 6.00 Build 0)  -->
<svg version="1.1" id="Layer_1" xmlns="http://www.w3.org/2000/svg" xmlns:xlink="http://www.w3.org/1999/xlink" x="0px" y="0px"
	 viewBox="0 0 922.8 426.4" enable-background="new 0 0 922.8 426.4" xml:space="preserve">
<g>
	<g>
		<path fill="#B49D4F" d="M206.6,70.6c4.9,0,9.1,1.3,12.7,3.4l3.1-17.8c-15.8-2.8-25.9-11.9-25.9-26.2c0-11.6,6.7-19,14.2-19
			c5.5,0,10.3,4.1,10.3,10.1c0,5.4-3.7,10.1-9.7,10.1c-4.2,0-8.9-2.3-10.1-8.6c0,0-1.3,3.5-1.3,8.2c0,11.4,9,19.7,23.2,22.2l4.6-25
			c3.2-18.1,14.5-28,27.6-28c12.6,0,21.6,9.4,21.7,22.6c0.1,17-15,29.4-33.7,33.4L239.7,75c-1,5.2-2.8,9.6-5.3,13.3
			c5.3,6,10.4,11.3,18,11.3c17.5,0,25.8-26.9,32.4-44.6l2.4,1.8c-6.1,18.6-15.4,46.2-34.8,46.2c-8.5,0-14.5-5.5-20.2-11.6
			c-6.5,7.7-16,11.6-25.3,11.6c-11.6,0-19-6.5-19.1-16.2C188,77,195.3,70.6,206.6,70.6z M206.1,99.6c5,0,8.8-1.6,8.8-1.6l3.6-20.2
			c-3.6-2.4-7.6-4-12.5-4c-8.8,0-14.8,5.2-14.8,12.8S197.2,99.6,206.1,99.6z M273.6,22.6c0-11.2-8-19.2-17.6-19.2
			c-2,0-3.4,0.4-3.4,0.4l-8.9,48.8C260.8,48.7,273.6,36.7,273.6,22.6z"/>
		<path fill="#B49D4F" d="M272.9,76.6c0-20.9,15.6-34.8,35.2-34.8c17,0,27.7,10.6,27.7,26.4c0,20.9-16.1,34.8-35.5,34.8
			C283.1,103,272.9,92.4,272.9,76.6z M309.1,98.8l9.2-52.3c0,0-3.7-1.7-10-1.7c-5.8,0-9.5,1.4-9.5,1.4l-9.1,51.7c0,0,4.4,2,11,2
			C305.8,100,309.1,98.8,309.1,98.8z"/>
		<path fill="#B49D4F" d="M468.5,60.6c-6.1,18.6-16.3,42.4-34.1,42.4c-9.1,0-14.8-6.2-12.8-16.7l2.5-13.9l4.6-25.7
			c-10.8,7.8-20,21.5-25.8,36.4l-3.5,19.9l-19.9-4.8l4.8-25.8l4.6-25.7c-10.3,7.3-19.1,20.2-25,34.2l-3.8,22.1l-19.9-4.8l4.8-25.8
			l5.4-30.6l19.9,4.8l-4.4,23.6c6-11.5,13.8-21.4,23.9-28.4l19.9,4.8l-4.7,25.2c6-12.2,14.2-22.7,24.6-30l19.9,4.8l-4.8,25.8
			l-4.8,26.5c9.7-2,21-21.2,26.3-40.1L468.5,60.6z"/>
		<path fill="#B49D4F" d="M526.5,67.7c0,20.8-12.5,35.3-31.1,35.3c-7.6,0-12.5-2.6-15.6-5l-0.8,5l-19.9-4.8l4.8-25.8l11.9-66
			l19.9,4.8l-6.5,34.9c3.5-2.3,8.3-4.3,14.3-4.3C517.2,41.8,526.5,51.8,526.5,67.7z M507.7,45.6c-9.1-1.8-15.2,1.2-19.2,4.6
			l-4.1,22.2l-3.8,21.7c3.1,3,8.5,6.4,17.3,5.8L507.7,45.6z"/>
		<path fill="#B49D4F" d="M605.2,88.4c-5.5,8.4-12.6,14.5-21.6,14.5c-5.6,0-10-2.4-12-6.7c-3.5,3.1-9.2,6.7-17.3,6.7
			c-13.8,0-23-10.1-23-25.9c0-20.8,12.5-35.3,31.1-35.3c7.6,0,12.5,2.5,15.5,4.9l0.8-4.9l19.9,4.8l-4.8,25.8L589,98.9
			c3.7-0.5,9.1-5.3,13.7-12.5L605.2,88.4z M570.6,93.2c-0.4-2-0.4-4.3,0.1-7l2.5-13.9l3.8-21.8c-3.1-2.9-8.5-6.2-17.2-5.6l-9.8,54.2
			C560.3,101.2,566.9,97.1,570.6,93.2z"/>
		<path fill="#B49D4F" d="M671.2,51.6c0,5.4-4.4,9.8-9.8,9.8c-5.4,0-9.8-4.4-9.8-9.8c0-0.6,0.1-1.1,0.1-1.1
			c-6.5,5.5-13.8,18.6-18.6,30.1l-4,22.3l-19.9-4.8l4.8-25.8l5.4-30.6l19.9,4.8l-4.2,22.8c7-14.4,16.8-27.6,26.3-27.6
			C666.8,41.8,671.2,46.2,671.2,51.6z"/>
		<path fill="#B49D4F" d="M756.2,60.6C750,79.2,739.8,103,722.1,103c-5.6,0-10-2.4-11.9-6.6c-3.5,3-9.2,6.6-17.3,6.6
			c-13.8,0-23-10.1-23-25.9c0-20.8,12.5-35.3,31.1-35.3c7.4,0,12.4,2.5,15.5,4.9l7.2-40.3l19.9,4.8l-11.3,61.2l-4.8,26.5
			c9.7-2,21-21.2,26.3-40.1L756.2,60.6z M709.1,93.4c-0.4-2-0.4-4.4,0.1-7.1l6.5-35.8c-3.1-3-8.5-6.2-17.2-5.6l-9.8,54.2
			C698.8,101.2,705.4,97.2,709.1,93.4z"/>
		<path fill="#B49D4F" d="M168.2,209.8l-20-19c0,0-4.7,1.2-7.3,5.9c1.1-0.5,2.5-0.7,3.8-0.7c5.2,0,9.1,4,9.1,9.1
			c0,4.9-3.7,8.9-9.1,8.9c-5.8,0-9.4-4.4-9.4-10.3c0-11.8,11.3-18.2,23.6-18.2c8.4,0,15.8,3.1,23.8,9.6l1.3,1.1l11.9-10.3l2.5,2.4
			l-39.4,34.2l22.2,19.1c0,0,4.8-1.8,7.7-5.6c-1.1,0.4-2.3,0.6-3.5,0.6c-5.2,0-9.1-4-9.1-9.1c0-4.9,3.7-8.9,9.1-8.9
			c4.9,0,9,3.4,9.1,9.6c0.2,11.6-12.4,19-24.7,19c-8.3,0-17.4-2.8-25-9.7l-1.4-1.3l-13,11.3l-2.4-2.5L168.2,209.8z"/>
		<path fill="#B49D4F" d="M251.4,204.6c-6.1,18.6-16.3,42.4-34.1,42.4c-9.1,0-14.8-6.2-12.8-16.7l2.5-13.9l4-22.3l-5.9,2.2l-1.1-2.9
			l7.7-2.8l7.2-40.2l19.9,4.8l-5,27.4l5.8-2l1.1,2.8l-7.4,2.8l-5.6,30.4l-4.8,26.5c9.7-2,21-21.2,26.3-40.1L251.4,204.6z"/>
		<path fill="#B49D4F" d="M242.2,220.6c0-20.9,15.6-34.8,35.2-34.8c17,0,27.7,10.6,27.7,26.4C305,233,289,247,269.5,247
			C252.4,247,242.2,236.4,242.2,220.6z M278.3,242.8l9.2-52.3c0,0-3.7-1.7-10-1.7c-5.8,0-9.5,1.4-9.5,1.4l-9.1,51.7c0,0,4.4,2,11,2
			C275,244,278.3,242.8,278.3,242.8z"/>
		<path fill="#B49D4F" d="M356.9,204.6c-6.1,18.6-16.3,42.4-34.1,42.4c-9.1,0-14.8-6.2-12.8-16.7l2.5-13.9l4.7-27h-6.7v-3h7.2
			l3.4-19.1l19.9,4.8l-2.5,14.3h9.8v3h-10.4l-4.8,27l-4.8,26.5c9.7-2,21-21.2,26.3-40.1L356.9,204.6z"/>
		<path fill="#B49D4F" d="M347.6,220.6c0-20.9,15.6-34.8,35.2-34.8c17,0,27.7,10.6,27.7,26.4c0,20.9-16.1,34.8-35.5,34.8
			C357.8,247,347.6,236.4,347.6,220.6z M383.8,242.8l9.2-52.3c0,0-3.7-1.7-10-1.7c-5.8,0-9.5,1.4-9.5,1.4l-9.1,51.7c0,0,4.4,2,11,2
			C380.5,244,383.8,242.8,383.8,242.8z"/>
		<path fill="#B49D4F" d="M424,264.4l-2.3-2.5c4.9-4.7,9-10,11.8-15.5c0,0-1.8,0.8-4.4,0.8c-6.6,0-11.3-5-11.3-11.2
			c0-6.5,4.8-11.2,10.9-11.2c6.1,0,11.4,4,11.4,11.2C440,243.6,434,254.9,424,264.4z"/>
		<path fill="#B49D4F" d="M537.1,204.6C531,223.2,520.8,247,503,247c-9.1,0-14.8-6.2-12.8-16.7l2.5-13.9l11.9-66l19.9,4.8
			l-11.3,61.2l-4.8,26.5c9.7-2,21-21.2,26.3-40.1L537.1,204.6z"/>
		<path fill="#B49D4F" d="M574.7,204.6c-6.1,18.6-16.3,42.4-34.1,42.4c-9.1,0-14.8-6.2-12.8-16.7l2.5-13.9l5.4-30.6l19.9,4.8
			l-4.8,25.8l-4.8,26.5c9.7-2,21-21.2,26.3-40.1L574.7,204.6z M537.5,167.4c0-6.2,5-11.2,11.4-11.2c6.2,0,11.3,4.9,11.3,11.2
			c0,6.4-5,11.3-11.3,11.3C542.5,178.7,537.5,173.8,537.5,167.4z"/>
		<path fill="#B49D4F" d="M612.5,204.6c-6.1,18.6-16.3,42.4-34.1,42.4c-9.1,0-14.8-6.2-12.8-16.7l2.5-13.9l4.7-27H566v-3h7.2
			l3.4-19.1l19.9,4.8l-2.5,14.3h9.8v3h-10.4l-4.8,27l-4.8,26.5c9.7-2,21-21.2,26.3-40.1L612.5,204.6z"/>
		<path fill="#B49D4F" d="M674.6,204.6c-2,6.8-12,42.4-43.4,42.4c-16.2,0-28-9.5-28-26.2c0-18.7,14.2-35,35.6-35
			c13,0,24,5.9,24,16.7c0,15.5-22.6,22.3-37.2,19l-3.8,21c0,0,4.4,1.6,10.3,1.6c28.1,0,38-35.3,40.1-41.2L674.6,204.6z M631.5,189.8
			l-5.3,28.6c6.8,2.5,15.8,0.2,15.8,0.2l5.4-28.6c0,0-3.7-1.3-8.6-1.3C634.3,188.8,631.5,189.8,631.5,189.8z"/>
		<path fill="#B49D4F" d="M726.9,195.6c0,5.4-4.4,9.8-9.8,9.8c-5.4,0-9.8-4.4-9.8-9.8c0-0.6,0.1-1.1,0.1-1.1
			c-6.5,5.5-13.8,18.6-18.6,30.1l-4,22.3l-19.9-4.8l4.8-25.8l5.4-30.6l19.9,4.8l-4.2,22.8c7-14.4,16.8-27.6,26.3-27.6
			C722.5,185.8,726.9,190.2,726.9,195.6z"/>
		<path fill="#B49D4F" d="M794.6,190.6l-11.3,63.8c-3.2,18.1-17.5,28-34.6,28c-15.2,0-25.4-8.6-25.4-21.7c0-8.2,4-13.6,8-16.9
			l-6.5-1.6l4.8-25.8l5.4-30.6l19.9,4.8l-4.8,25.8l-4.6,25.7c10.7-7.6,19.7-20.9,25.4-35.5l3.6-20.8L794.6,190.6z M758.7,277.4
			l10.4-59.9c-6,12-14,22.1-24.4,29.4l-9.5-2.3c-4.3,2.9-8.8,7.8-8.6,15.8c0,11,8.9,18.5,22.1,18.5
			C754.7,279,758.7,277.4,758.7,277.4z"/>
		<path fill="#B49D4F" d="M8.4,366.8c4.7,0,8.4,3.7,8.4,8.4c0,4.7-3.4,8.3-8,8.3c1.8,1.3,6.5,4.1,15.1,4.1c10.7,0,16-4.4,16-4.4
			l-25.2-21.7c-3.7-3.2-6.8-7.7-6.8-13.6c0-10.4,9.7-18.1,23.5-18.1c13.9,0,21.8,7.7,21.8,14.5c0,4.6-3.4,8.3-8.4,8.3
			c-4.7,0-8.2-3.4-8.2-8.3c0-7.8,8-8.3,8-8.3s-5-3.1-13.3-3.1c-10.2,0-15.1,4.9-15.1,4.9l24.1,20.6c4.1,3.5,7.7,7.8,7.7,14.4
			c0,10.9-9.6,17.9-24.4,17.9C11,390.7,0,384.5,0,375.2C0.2,370,4.1,366.8,8.4,366.8z"/>
		<path fill="#B49D4F" d="M140.9,348.6c-6.1,18.8-12.5,42.4-32.8,42.4c-8.9,0-16.8-5.2-19.1-13.1l-6.6-22.3l-0.8,4.8L76.2,391
			l-19.9-4.8l4.8-25.8l11.9-66l19.9,4.8L83,352.8c5.9-9.5,15.4-23,28.1-23c6.5,0,11.8,3.6,11.9,10.2c0,5.8-4.3,10.2-9.8,10.2
			s-10-4.4-10-9.8c0-2.9,1.3-5.3,3.4-7.1c-8.6,2.8-17.2,14.8-20.6,21h16.7l9.6,33.4c16.1-3.8,20.2-22.7,26.3-40.8L140.9,348.6z"/>
		<path fill="#B49D4F" d="M219.4,348.6c-6.1,18.6-16.3,42.4-34.1,42.4c-9.1,0-14.8-6.2-12.8-16.7l2.2-11.8
			c-6,11.5-13.8,21.4-23.9,28.4l-19.9-4.8l4.8-25.8l5.4-30.6l19.9,4.8l-4.8,25.8l-4.6,25.7c10.3-7.3,19.1-20.2,25-34.2l3.8-22.1
			l19.9,4.8l-4.8,25.8l-4.8,26.5c9.7-2,21-21.2,26.3-40.1L219.4,348.6z"/>
		<path fill="#B49D4F" d="M275.8,355.7c0,20.8-12.5,35.3-31.1,35.3c-7.9,0-13-2.9-16-5.3l-7.3,40.7l-19.9-4.8l11.3-61.2h0.2
			l5.4-30.6l19.6,4.7c3.5-2.4,8.4-4.7,14.8-4.7C266.5,329.8,275.8,339.8,275.8,355.7z M256.9,333.6c-9.1-1.8-15.4,1.2-19.3,4.7
			l-4.1,22.1h-0.2l-3.8,21.4c3,3,8.5,6.8,17.6,6.1L256.9,333.6z"/>
		<path fill="#B49D4F" d="M368.8,348.6c-6.1,18.6-16.3,42.4-34.1,42.4c-9.1,0-14.8-6.2-12.8-16.7l2.5-13.9l5.4-30.6l19.9,4.8
			l-4.8,25.8l-4.8,26.5c9.7-2,21-21.2,26.3-40.1L368.8,348.6z M331.6,311.4c0-6.2,5-11.2,11.4-11.2c6.2,0,11.3,4.9,11.3,11.2
			c0,6.4-5,11.3-11.3,11.3C336.6,322.7,331.6,317.8,331.6,311.4z"/>
		<path fill="#B49D4F" d="M402.6,366.8c4.7,0,8.4,3.7,8.4,8.4c0,4.7-3.4,8.3-8,8.3c1.8,1.3,6.5,4.1,15.1,4.1c10.7,0,16-4.4,16-4.4
			l-25.2-21.7c-3.7-3.2-6.8-7.7-6.8-13.6c0-10.4,9.7-18.1,23.5-18.1c13.9,0,21.8,7.7,21.8,14.5c0,4.6-3.4,8.3-8.4,8.3
			c-4.7,0-8.2-3.4-8.2-8.3c0-7.8,8-8.3,8-8.3s-5-3.1-13.3-3.1c-10.2,0-15.1,4.9-15.1,4.9l24.1,20.6c4.1,3.5,7.7,7.8,7.7,14.4
			c0,10.9-9.6,17.9-24.4,17.9c-12.6,0-23.6-6.2-23.6-15.5C394.4,370,398.3,366.8,402.6,366.8z"/>
		<path fill="#B49D4F" d="M516.6,355.7c0,20.8-12.5,35.3-31.1,35.3c-7.9,0-13-2.9-16-5.3l-7.3,40.7l-19.9-4.8l11.3-61.2h0.2
			l5.4-30.6l19.6,4.7c3.5-2.4,8.4-4.7,14.8-4.7C507.3,329.8,516.6,339.8,516.6,355.7z M497.7,333.6c-9.1-1.8-15.4,1.2-19.3,4.7
			l-4.1,22.1h-0.2l-3.8,21.4c3,3,8.5,6.8,17.6,6.1L497.7,333.6z"/>
		<path fill="#B49D4F" d="M634.8,372c0.2,11.6-12.4,19-24.7,19c-8.3,0-16.4-3.4-24.5-9.7l-2.3-1.8L570.9,391l-2.4-2.4l37.6-34.2
			L585,335.2c0,0-1,0.2-2.3,1c0.5,1.1,0.7,2.4,0.7,3.8c0,5.8-4.3,10.2-9.8,10.2c-5.5,0-10-4.4-10-9.8c0-2.9,1.3-5.3,3.4-7.1
			c-8.9,2.9-17.3,16.7-20.6,22.9l-0.7,4.2l-5.4,30.6l-19.9-4.8l4.8-25.8l5.4-30.6l19.9,4.8l-2.4,12.7c5.6-8.5,13.2-17.5,23.5-17.5
			c3.6,0,7,1.2,9.1,3.4c4.2-2.4,9.5-3.7,14.9-3.7c8.4,0,16.7,3.2,24.6,9.7l1.3,1.1l11-10.4l2.5,2.5l-36.5,33l22.9,20.2
			c0,0,4.8-1.8,7.7-5.6c-1.1,0.4-2.3,0.6-3.5,0.6c-5.2,0-9.1-4-9.1-9.1c0-4.9,3.7-8.9,9.1-8.9C630.6,362.4,634.7,365.8,634.8,372z"
			/>
		<path fill="#B49D4F" d="M710.4,348.6c-2,6.8-12,42.4-43.4,42.4c-16.2,0-28-9.5-28-26.2c0-18.7,14.2-35,35.6-35
			c13,0,24,5.9,24,16.7c0,15.5-22.6,22.3-37.2,19l-3.8,21c0,0,4.4,1.6,10.3,1.6c28.1,0,38-35.3,40.1-41.2L710.4,348.6z M667.3,333.8
			l-5.3,28.6c6.8,2.5,15.8,0.2,15.8,0.2l5.4-28.6c0,0-3.7-1.3-8.6-1.3C670.1,332.8,667.3,333.8,667.3,333.8z"/>
		<path fill="#B49D4F" d="M787.4,348.6c-6.1,18.6-16.3,42.4-34.1,42.4c-5.6,0-10-2.4-11.9-6.6c-3.5,3-9.2,6.6-17.3,6.6
			c-13.8,0-23-10.1-23-25.9c0-20.8,12.5-35.3,31.1-35.3c7.4,0,12.4,2.5,15.5,4.9l7.2-40.3l19.9,4.8l-11.3,61.2l-4.8,26.5
			c9.7-2,21-21.2,26.3-40.1L787.4,348.6z M740.4,381.4c-0.4-2-0.4-4.4,0.1-7.1l6.5-35.8c-3.1-3-8.5-6.2-17.2-5.6l-9.8,54.2
			C730.1,389.2,736.7,385.2,740.4,381.4z"/>
		<path fill="#B49D4F" d="M852.1,376.4c-5.5,8.4-12.6,14.5-21.6,14.5c-5.6,0-10-2.4-12-6.7c-3.5,3.1-9.2,6.7-17.3,6.7
			c-13.8,0-23-10.1-23-25.9c0-20.8,12.5-35.3,31.1-35.3c7.6,0,12.5,2.5,15.5,4.9l0.8-4.9l19.9,4.8l-4.8,25.8l-4.8,26.5
			c3.7-0.5,9.1-5.3,13.7-12.5L852.1,376.4z M817.5,381.2c-0.4-2-0.4-4.3,0.1-7l2.5-13.9l3.8-21.8c-3.1-2.9-8.5-6.2-17.2-5.6
			l-9.8,54.2C807.2,389.2,813.8,385.1,817.5,381.2z"/>
		<path fill="#B49D4F" d="M892.5,353.8l-20-19c0,0-4.7,1.2-7.3,5.9c1.1-0.5,2.5-0.7,3.8-0.7c5.2,0,9.1,4,9.1,9.1
			c0,4.9-3.7,8.9-9.1,8.9c-5.8,0-9.4-4.4-9.4-10.3c0-11.8,11.3-18.2,23.6-18.2c8.4,0,15.8,3.1,23.8,9.6l1.3,1.1l11.9-10.3l2.5,2.4
			l-39.4,34.2l22.2,19.1c0,0,4.8-1.8,7.7-5.6c-1.1,0.4-2.3,0.6-3.5,0.6c-5.2,0-9.1-4-9.1-9.1c0-4.9,3.7-8.9,9.1-8.9
			c4.9,0,9,3.4,9.1,9.6c0.2,11.6-12.4,19-24.7,19c-8.3,0-17.4-2.8-25-9.7l-1.4-1.3l-13,11.3l-2.4-2.5L892.5,353.8z M882.9,311.4
			c0-6.2,5-11.2,11.4-11.2c6.2,0,11.3,4.9,11.3,11.2c0,6.4-5,11.3-11.3,11.3C888,322.7,882.9,317.8,882.9,311.4z"/>
	</g>
</g>
</svg>
