<?xml version="1.0" encoding="utf-8"?>
<!-- Generator: Adobe Illustrator 19.2.1, SVG Export Plug-In . SVG Version: 6.00 Build 0)  -->
<svg version="1.1" id="Layer_1" xmlns="http://www.w3.org/2000/svg" xmlns:xlink="http://www.w3.org/1999/xlink" x="0px" y="0px"
	 viewBox="0 0 1098.9 281.5" enable-background="new 0 0 1098.9 281.5" xml:space="preserve">
<g>
	<g>
		<path fill="#B49D4F" d="M181.2,13.6c0,26.2-29.8,69.1-55.4,87.1l-19.9-4.8l5.4-29.6c-8,13.9-20.3,26.9-31.1,34.4l-19.9-4.8
			l4.6-24.4l11.3-61.4c0,0-3-1.1-8.6-1.2C50.8,8.9,36.8,19.8,36.8,35c0,10.3,5.5,17.6,13.1,17.6c0.7,0,1.2-0.1,1.2-0.1
			c-3-1.3-5.8-4.2-5.9-8c-0.1-4.8,3.8-8.8,8.8-8.8c4.8,0,8.8,4,8.8,8.8c0,6.7-6,10.9-13.3,10.9c-9.1,0-16.2-7.9-16.2-20.4
			c0-17.3,15.2-29.5,34.2-29.5c18.1,0.2,28.4,11.3,25.2,28l-7.3,38L81,95.8c10.7-7.6,24.7-23.6,32-39.2l4.1-21.8l5.5-29.4l19.9,4.8
			l-4.9,24.6l-11,61.1c22.8-18.5,45.8-50.9,51.4-79.7c0,0-0.7,0.8-1.8,1.7c-1.8,1.7-4.1,2.4-6.2,2.4c-5.5,0-10.2-4.4-10.2-10.2
			c0-5.6,4.3-10,10-10C176.6,0,181.2,5.4,181.2,13.6z"/>
		<path fill="#B49D4F" d="M252,64.9l-20-19c0,0-4.7,1.2-7.3,5.9c1.1-0.5,2.5-0.7,3.8-0.7c5.2,0,9.1,4,9.1,9.1c0,4.9-3.7,8.9-9.1,8.9
			c-5.8,0-9.4-4.4-9.4-10.3c0-11.8,11.3-18.2,23.6-18.2c8.4,0,15.8,3.1,23.8,9.6l1.3,1.1l11.9-10.3l2.5,2.4l-39.4,34.2l22.2,19.1
			c0,0,4.8-1.8,7.7-5.6c-1.1,0.4-2.3,0.6-3.5,0.6c-5.2,0-9.1-4-9.1-9.1c0-4.9,3.7-8.9,9.1-8.9c4.9,0,9,3.4,9.1,9.6
			c0.2,11.6-12.4,19-24.7,19c-8.3,0-17.4-2.8-25-9.7l-1.4-1.3l-13,11.3l-2.4-2.5L252,64.9z M242.4,22.6c0-6.2,5-11.2,11.4-11.2
			c6.2,0,11.3,4.9,11.3,11.2c0,6.4-5,11.3-11.3,11.3C247.4,33.8,242.4,28.9,242.4,22.6z"/>
		<path fill="#B49D4F" d="M355.2,45.7l-11.3,63.8c-3.2,18.1-17.5,28-34.6,28c-15.2,0-25.4-8.6-25.4-21.7c0-8.2,4-13.6,8-16.9
			l-6.5-1.6l4.8-25.8l5.4-30.6l19.9,4.8l-4.8,25.8l-4.6,25.7c10.7-7.6,19.7-20.9,25.4-35.5l3.6-20.8L355.2,45.7z M319.3,132.6
			l10.4-59.9c-6,12-14,22.1-24.4,29.4l-9.5-2.3c-4.3,2.9-8.8,7.8-8.6,15.8c0,11,8.9,18.5,22.1,18.5
			C315.2,134.2,319.3,132.6,319.3,132.6z"/>
		<path fill="#B49D4F" d="M430.2,59.8c-2,6.8-12.4,42.4-42.8,42.4c-17.2,0-28.6-9.5-28.6-26.2c0-18.7,14.2-35,34.9-35
			c11.4,0,23.4,4.8,23.4,14.2c0,5.6-4.6,10.2-10.2,10.2c-5.6,0-10.2-4.6-10.2-10.2c0-4.8,3.4-8.5,7.6-9.5c0,0-4.9-1.7-10.6-1.7
			c-4.2,0-6.6,1.1-6.6,1.1l-9.7,52.6c0,0,4.7,1.6,10.3,1.6c28.1,0,38-35.3,40.1-41.2L430.2,59.8z"/>
		<path fill="#B49D4F" d="M467.8,59.8c-6.1,18.6-16.3,42.4-34.1,42.4c-9.1,0-14.8-6.2-12.8-16.7l2.5-13.9l5.4-30.6l19.9,4.8
			l-4.8,25.8L439.1,98c9.7-2,21-21.2,26.3-40.1L467.8,59.8z M430.6,22.6c0-6.2,5-11.2,11.4-11.2c6.2,0,11.3,4.9,11.3,11.2
			c0,6.4-5,11.3-11.3,11.3C435.6,33.8,430.6,28.9,430.6,22.6z"/>
		<path fill="#B49D4F" d="M546.6,59.8c-6.1,18.6-16.3,42.4-34.1,42.4c-9.1,0-14.8-6.2-12.8-16.7l2.2-11.8
			c-6,11.5-13.8,21.4-23.9,28.4L458,97.3l4.8-25.8l5.4-30.6l19.9,4.8l-4.8,25.8l-4.6,25.7c10.3-7.3,19.1-20.2,25-34.2l3.8-22.1
			l19.9,4.8l-4.8,25.8L517.9,98c9.7-2,21-21.2,26.3-40.1L546.6,59.8z"/>
		<path fill="#B49D4F" d="M627.2,59.8c-6.1,18.6-16.3,42.4-34.1,42.4c-9.1,0-14.8-6.2-12.8-16.7l2.5-13.9l11.9-66l19.9,4.8
			l-11.3,61.2L598.6,98c9.7-2,21-21.2,26.3-40.1L627.2,59.8z"/>
		<path fill="#B49D4F" d="M664.8,59.8c-6.1,18.6-16.3,42.4-34.1,42.4c-9.1,0-14.8-6.2-12.8-16.7l2.5-13.9l5.4-30.6l19.9,4.8
			l-4.8,25.8L636.1,98c9.7-2,21-21.2,26.3-40.1L664.8,59.8z M627.6,22.6c0-6.2,5-11.2,11.4-11.2c6.2,0,11.3,4.9,11.3,11.2
			c0,6.4-5,11.3-11.3,11.3C632.6,33.8,627.6,28.9,627.6,22.6z"/>
		<path fill="#B49D4F" d="M726.9,59.8c-2,6.8-12.4,42.4-42.8,42.4c-17.2,0-28.6-9.5-28.6-26.2c0-18.7,14.2-35,34.9-35
			c11.4,0,23.4,4.8,23.4,14.2c0,5.6-4.6,10.2-10.2,10.2s-10.2-4.6-10.2-10.2c0-4.8,3.4-8.5,7.6-9.5c0,0-4.9-1.7-10.6-1.7
			c-4.2,0-6.6,1.1-6.6,1.1l-9.7,52.6c0,0,4.7,1.6,10.3,1.6c28.1,0,38-35.3,40.1-41.2L726.9,59.8z"/>
		<path fill="#B49D4F" d="M753.7,64.9l-20-19c0,0-4.7,1.2-7.3,5.9c1.1-0.5,2.5-0.7,3.8-0.7c5.2,0,9.1,4,9.1,9.1
			c0,4.9-3.7,8.9-9.1,8.9c-5.8,0-9.4-4.4-9.4-10.3c0-11.8,11.3-18.2,23.6-18.2c8.4,0,15.8,3.1,23.8,9.6l1.3,1.1l11.9-10.3l2.5,2.4
			l-39.4,34.2l22.2,19.1c0,0,4.8-1.8,7.7-5.6c-1.1,0.4-2.3,0.6-3.5,0.6c-5.2,0-9.1-4-9.1-9.1c0-4.9,3.7-8.9,9.1-8.9
			c4.9,0,9,3.4,9.1,9.6c0.2,11.6-12.4,19-24.7,19c-8.3,0-17.4-2.8-25-9.7l-1.4-1.3l-13,11.3l-2.4-2.5L753.7,64.9z"/>
		<path fill="#B49D4F" d="M829.2,117.2c1.9-3.4,5.8-5.5,9.6-5.5c6.5,0,10.8,5.2,10.8,10.9c0,6.5-5.4,10.8-11.5,10.8
			c-7.3,0-12.7-6.2-12.7-15.4c0-8.2,4.3-13.7,8.5-17.2c-2.5-1.2-4.4-3-5.6-5.5c-3.5,3.1-9.2,6.7-17.3,6.7c-13.8,0-23-10.1-23-25.9
			c0-20.8,12.5-35.3,31.1-35.3c7.6,0,12.5,2.5,15.5,4.9l0.8-4.9l19.9,4.8l-9.7,52.8c9.7-2,21.1-21.7,26.4-40.6l2.4,1.8
			c-6.1,18.6-16.3,42.4-34.1,42.4c-1,0-1.8-0.1-2.6-0.2C828.7,108.7,829.2,117.2,829.2,117.2z M833.7,49.7
			c-3.1-2.9-8.5-6.2-17.2-5.6l-10,54.2c10.2,2,16.9-2,20.6-5.9c-0.4-2-0.4-4.3,0.1-7L833.7,49.7z"/>
		<path fill="#B49D4F" d="M908.1,78c4.7,0,8.4,3.7,8.4,8.4c0,4.7-3.4,8.3-8,8.3c1.8,1.3,6.5,4.1,15.1,4.1c10.7,0,16-4.4,16-4.4
			l-25.2-21.7c-3.7-3.2-6.8-7.7-6.8-13.6c0-10.4,9.7-18.1,23.5-18.1c13.9,0,21.8,7.7,21.8,14.5c0,4.6-3.4,8.3-8.4,8.3
			c-4.7,0-8.2-3.4-8.2-8.3c0-7.8,8-8.3,8-8.3s-5-3.1-13.3-3.1c-10.2,0-15.1,4.9-15.1,4.9l24.1,20.6c4.1,3.5,7.7,7.8,7.7,14.4
			c0,10.9-9.6,17.9-24.4,17.9c-12.6,0-23.6-6.2-23.6-15.5C900,81.1,903.8,78,908.1,78z"/>
		<path fill="#B49D4F" d="M1003.3,59.8c-6.1,18.6-16.3,42.4-34.1,42.4c-9.1,0-14.8-6.2-12.8-16.7l2.5-13.9l5.4-30.6l19.9,4.8
			l-4.8,25.8L974.6,98c9.7-2,21-21.2,26.3-40.1L1003.3,59.8z M966.1,22.6c0-6.2,5-11.2,11.4-11.2c6.2,0,11.3,4.9,11.3,11.2
			c0,6.4-5,11.3-11.3,11.3C971.1,33.8,966.1,28.9,966.1,22.6z"/>
		<path fill="#B49D4F" d="M1023.8,117.2c1.9-3.4,5.8-5.5,9.6-5.5c6.5,0,10.8,5.2,10.8,10.9c0,6.5-5.4,10.8-11.5,10.8
			c-7.3,0-12.7-6.2-12.7-15.4c0-7.6,3.6-12.8,7.6-16.3c-1.8,0.2-3.6,0.4-5.5,0.4c-16.2,0-28-9.5-28-26.2c0-18.7,14.2-35,35.6-35
			c13,0,24,5.9,24,16.7c0,15.5-22.6,22.3-37.2,19l-3.8,21c0,0,4.4,1.6,10.3,1.6c28.1,0,38-35.3,40.1-41.2l2.4,1.8
			c-1.7,5.6-8.9,31.1-29.2,39.6C1023.2,106.2,1023.8,117.2,1023.8,117.2z M1022.4,45l-5.3,28.6c6.8,2.5,15.8,0.2,15.8,0.2l5.4-28.6
			c0,0-3.7-1.3-8.6-1.3C1025.1,43.9,1022.4,45,1022.4,45z"/>
		<path fill="#B49D4F" d="M62,194.8c0,5.4-4.4,9.8-9.8,9.8c-5.4,0-9.8-4.4-9.8-9.8c0-0.6,0.1-1.1,0.1-1.1
			c-6.5,5.5-13.8,18.6-18.6,30.1l-4,22.3L0,241.3l4.8-25.8l5.4-30.6l19.9,4.8l-4.2,22.8c7-14.4,16.8-27.6,26.3-27.6
			C57.6,184.9,62,189.4,62,194.8z"/>
		<path fill="#B49D4F" d="M60.7,219.7c0-20.9,15.6-34.8,35.2-34.8c17,0,27.7,10.6,27.7,26.4c0,20.9-16.1,34.8-35.5,34.8
			C70.9,246.1,60.7,235.6,60.7,219.7z M96.8,241.9l9.2-52.3c0,0-3.7-1.7-10-1.7c-5.8,0-9.5,1.4-9.5,1.4l-9.1,51.7c0,0,4.4,2,11,2
			C93.6,243.1,96.8,241.9,96.8,241.9z M121.1,157.7l-23.3,19.4l-2.4-2.5l23.4-19.7L121.1,157.7z"/>
		<path fill="#B49D4F" d="M225.2,196.9c0,16.9-23.5,48.8-41.9,48.8c-10.1,0-15.5-6.5-13.7-16.7l1.9-11
			c-5.9,11.5-13.7,21.2-23.8,28.3l-19.9-4.8l4.8-25.8l5.4-30.6L158,190l-4.8,25.8l-4.6,25.7c10.3-7.3,19.1-20,24.8-34.1l4-22.4
			l19.9,4.8l-4.8,25.8l-4.8,26c13.2-3.4,30.2-25,32.8-37.6c0,0-2.2,1.7-5.8,1.7c-5.6,0-10-4.2-10-10.1c0-5.3,4-10.2,10-10.2
			C220.9,185.4,225.2,190.6,225.2,196.9z"/>
		<path fill="#B49D4F" d="M314.5,203.8c-6.1,18.6-16.3,42.4-34.1,42.4c-9.1,0-14.8-6.2-12.8-16.7l2.5-13.9l4.6-25.7
			c-10.3,7.3-19.1,20.2-25,34.2l-3.8,22.1l-19.9-4.8l4.8-25.8l5.4-30.6l19.9,4.8l-4.4,23.6c6-11.5,13.8-21.4,23.9-28.4l19.9,4.8
			l-4.8,25.8l-4.8,26.5c9.7-2,21-21.2,26.3-40.1L314.5,203.8z"/>
		<path fill="#B49D4F" d="M352.1,203.8c-6.1,18.6-16.3,42.4-34.1,42.4c-9.1,0-14.8-6.2-12.8-16.7l2.5-13.9l5.4-30.6l19.9,4.8
			l-4.8,25.8l-4.8,26.5c9.7-2,21-21.2,26.3-40.1L352.1,203.8z M314.9,166.6c0-6.2,5-11.2,11.4-11.2c6.2,0,11.3,4.9,11.3,11.2
			c0,6.4-5,11.3-11.3,11.3C319.9,177.8,314.9,172.9,314.9,166.6z"/>
		<path fill="#B49D4F" d="M414.2,203.8c-2,6.8-12,42.4-43.4,42.4c-16.2,0-28-9.5-28-26.2c0-18.7,14.2-35,35.6-35
			c13,0,24,5.9,24,16.7c0,15.5-22.6,22.3-37.2,19l-3.8,21c0,0,4.4,1.6,10.3,1.6c28.1,0,38-35.3,40.1-41.2L414.2,203.8z M371.2,189
			l-5.3,28.6c6.8,2.5,15.8,0.2,15.8,0.2l5.4-28.6c0,0-3.7-1.3-8.6-1.3C373.9,187.9,371.2,189,371.2,189z"/>
		<path fill="#B49D4F" d="M441,208.9l-20-19c0,0-4.7,1.2-7.3,5.9c1.1-0.5,2.5-0.7,3.8-0.7c5.2,0,9.1,4,9.1,9.1
			c0,4.9-3.7,8.9-9.1,8.9c-5.8,0-9.4-4.4-9.4-10.3c0-11.8,11.3-18.2,23.6-18.2c8.4,0,15.8,3.1,23.8,9.6l1.3,1.1l11.9-10.3l2.5,2.4
			l-39.4,34.2l22.2,19.1c0,0,4.8-1.8,7.7-5.6c-1.1,0.4-2.3,0.6-3.5,0.6c-5.2,0-9.1-4-9.1-9.1c0-4.9,3.7-8.9,9.1-8.9
			c4.9,0,9,3.4,9.1,9.6c0.2,11.6-12.4,19-24.7,19c-8.3,0-17.4-2.8-25-9.7l-1.4-1.3l-13,11.3l-2.4-2.5L441,208.9z M431.4,166.6
			c0-6.2,5-11.2,11.4-11.2c6.2,0,11.3,4.9,11.3,11.2c0,6.4-5,11.3-11.3,11.3C436.4,177.8,431.4,172.9,431.4,166.6z"/>
		<path fill="#B49D4F" d="M582.8,210.8c0,20.8-12.5,35.3-31.1,35.3c-7.9,0-13-2.9-16-5.3l-7.3,40.7l-19.9-4.8l11.3-61.2h0.2
			l5.4-30.6l19.6,4.7c3.5-2.4,8.4-4.7,14.8-4.7C573.6,184.9,582.8,195,582.8,210.8z M564,188.8c-9.1-1.8-15.4,1.2-19.3,4.7
			l-4.1,22.1h-0.2l-3.8,21.4c3,3,8.5,6.8,17.6,6.1L564,188.8z"/>
		<path fill="#B49D4F" d="M633.8,203.8c-6.1,18.6-16.3,42.4-34.1,42.4c-9.1,0-14.8-6.2-12.8-16.7l2.5-13.9l5.4-30.6l19.9,4.8
			l-4.8,25.8l-4.8,26.5c9.7-2,21-21.2,26.3-40.1L633.8,203.8z M596.6,166.6c0-6.2,5-11.2,11.4-11.2c6.2,0,11.3,4.9,11.3,11.2
			c0,6.4-5,11.3-11.3,11.3C601.7,177.8,596.6,172.9,596.6,166.6z"/>
		<path fill="#B49D4F" d="M696,203.8c-2,6.8-12,42.4-43.4,42.4c-16.2,0-28-9.5-28-26.2c0-18.7,14.2-35,35.6-35c13,0,24,5.9,24,16.7
			c0,15.5-22.6,22.3-37.2,19l-3.8,21c0,0,4.4,1.6,10.3,1.6c28.1,0,38-35.3,40.1-41.2L696,203.8z M652.9,189l-5.3,28.6
			c6.8,2.5,15.8,0.2,15.8,0.2l5.4-28.6c0,0-3.7-1.3-8.6-1.3C655.7,187.9,652.9,189,652.9,189z"/>
		<path fill="#B49D4F" d="M774.8,203.8c-6.1,18.6-16.3,42.4-34.1,42.4c-9.1,0-14.8-6.2-12.8-16.7l2.5-13.9l4.6-25.7
			c-10.3,7.3-19.1,20.2-25,34.2l-3.8,22.1l-19.9-4.8l4.8-25.8l5.4-30.6l19.9,4.8l-4.4,23.6c6-11.5,13.8-21.4,23.9-28.4l19.9,4.8
			l-4.8,25.8l-4.8,26.5c9.7-2,21-21.2,26.3-40.1L774.8,203.8z"/>
		<path fill="#B49D4F" d="M812.4,203.8c-6.1,18.6-16.3,42.4-34.1,42.4c-9.1,0-14.8-6.2-12.8-16.7l2.5-13.9l5.4-30.6l19.9,4.8
			l-4.8,25.8l-4.8,26.5c9.7-2,21-21.2,26.3-40.1L812.4,203.8z M775.2,166.6c0-6.2,5-11.2,11.4-11.2c6.2,0,11.3,4.9,11.3,11.2
			c0,6.4-5,11.3-11.3,11.3C780.2,177.8,775.2,172.9,775.2,166.6z"/>
		<path fill="#B49D4F" d="M844.4,261.2c1.9-3.4,5.8-5.5,9.6-5.5c6.5,0,10.8,5.2,10.8,10.9c0,6.5-5.4,10.8-11.5,10.8
			c-7.3,0-12.7-6.2-12.7-15.4c0-8.2,4.3-13.7,8.5-17.2c-2.5-1.2-4.4-3-5.6-5.5c-3.5,3.1-9.2,6.7-17.3,6.7c-13.8,0-23-10.1-23-25.9
			c0-20.8,12.5-35.3,31.1-35.3c7.6,0,12.5,2.5,15.5,4.9l0.8-4.9l19.9,4.8l-9.7,52.8c9.7-2,21.1-21.7,26.4-40.6l2.4,1.8
			c-6.1,18.6-16.3,42.4-34.1,42.4c-1,0-1.8-0.1-2.6-0.2C843.9,252.7,844.4,261.2,844.4,261.2z M849,193.7c-3.1-2.9-8.5-6.2-17.2-5.6
			l-10,54.2c10.2,2,16.9-2,20.6-5.9c-0.4-2-0.4-4.3,0.1-7L849,193.7z"/>
		<path fill="#B49D4F" d="M966.6,203.8c-6.1,18.6-16.3,42.4-34.1,42.4c-5.6,0-10-2.4-11.9-6.6c-3.5,3-9.2,6.6-17.3,6.6
			c-13.8,0-23-10.1-23-25.9c0-20.8,12.5-35.3,31.1-35.3c7.4,0,12.4,2.5,15.5,4.9l7.2-40.3l19.9,4.8l-11.3,61.2l-4.8,26.5
			c9.7-2,21-21.2,26.3-40.1L966.6,203.8z M919.5,236.5c-0.4-2-0.4-4.4,0.1-7.1l6.5-35.8c-3.1-3-8.5-6.2-17.2-5.6l-9.8,54.2
			C909.2,244.3,915.8,240.4,919.5,236.5z"/>
		<path fill="#B49D4F" d="M993.3,208.9l-20-19c0,0-4.7,1.2-7.3,5.9c1.1-0.5,2.5-0.7,3.8-0.7c5.2,0,9.1,4,9.1,9.1
			c0,4.9-3.7,8.9-9.1,8.9c-5.8,0-9.4-4.4-9.4-10.3c0-11.8,11.3-18.2,23.6-18.2c8.4,0,15.8,3.1,23.8,9.6l1.3,1.1l11.9-10.3l2.5,2.4
			l-39.4,34.2l22.2,19.1c0,0,4.8-1.8,7.7-5.6c-1.1,0.4-2.3,0.6-3.5,0.6c-5.2,0-9.1-4-9.1-9.1c0-4.9,3.7-8.9,9.1-8.9
			c4.9,0,9,3.4,9.1,9.6c0.2,11.6-12.4,19-24.7,19c-8.3,0-17.4-2.8-25-9.7l-1.4-1.3l-13,11.3l-2.4-2.5L993.3,208.9z"/>
		<path fill="#B49D4F" d="M1098.9,203.8c-2,6.8-12,42.4-43.4,42.4c-16.2,0-28-9.5-28-26.2c0-18.7,14.2-35,35.6-35
			c13,0,24,5.9,24,16.7c0,15.5-22.6,22.3-37.2,19l-3.8,21c0,0,4.4,1.6,10.3,1.6c28.1,0,38-35.3,40.1-41.2L1098.9,203.8z M1055.9,189
			l-5.3,28.6c6.8,2.5,15.8,0.2,15.8,0.2l5.4-28.6c0,0-3.7-1.3-8.6-1.3C1058.6,187.9,1055.9,189,1055.9,189z"/>
	</g>
</g>
</svg>
