<?xml version="1.0" encoding="utf-8"?>
<!-- Generator: Adobe Illustrator 19.2.1, SVG Export Plug-In . SVG Version: 6.00 Build 0)  -->
<svg version="1.1" id="Layer_1" xmlns="http://www.w3.org/2000/svg" xmlns:xlink="http://www.w3.org/1999/xlink" x="0px" y="0px"
	 viewBox="0 0 331.9 80" enable-background="new 0 0 331.9 80" xml:space="preserve">
<g>
	<path d="M128.5,79.9l1.5-8.2h0l3.8,8.1h0l3.7-8.1h0l1.6,8.2l1.8-0.2l-2.6-13.2h0l-4.4,9.9l-4.5-9.9h0l-2.6,13.2L128.5,79.9z
		 M143.5,80l2.2-4.4h5.2l2.2,4.4l1.8-0.4l-6.6-13.2h0l-6.6,13.2L143.5,80z M146.5,73.8l1.8-3.7l1.8,3.7H146.5z M166.4,72.3h-5.1
		l-0.6,1.7h3.9v3.1c-0.8,0.8-2.1,1.1-3.3,1.1c-2.7,0-4.6-2.7-4.6-4.9c0-3,2.3-5.2,4.9-5.2c1.5,0,2.5,0.6,3.5,1.3l1.1-1.3
		c-1.1-1.2-2.9-1.8-4.7-1.8c-3.8,0-6.7,3.1-6.7,6.9c0,3.5,3.1,6.6,6.5,6.6c2.3,0,4.3-0.9,5.1-1.9V72.3z M169.3,80l2.2-4.4h5.2
		l2.2,4.4l1.8-0.4l-6.6-13.2h0l-6.6,13.2L169.3,80z M172.2,73.8l1.8-3.7l1.8,3.7H172.2z M191.5,78h-7.1l6.8-11.2h-9l-0.4,1.7h6.6
		l-6.9,11.2h9.5L191.5,78z M194.9,79.7V66.4l-1.8,0.3v13.1L194.9,79.7z M199.6,79.7v-8.7l8.3,9h0V66.7l-1.8,0.3v8.4l-8.3-9h0v13.5
		L199.6,79.7z M218,79.7l0.5-1.7h-5.9v-4.2h4.4v-1.7h-4.4v-3.7h5.4l-0.4-1.7h-6.9v12.9H218z"/>
	<path d="M7.6,57.4l6.5-34.9h0.2l16.1,34.6h0.2l15.7-34.6h0.2L53,57.4l7.6-1L49.4,0h-0.2L30.4,42.1L11.3,0h-0.2L0,56.5L7.6,57.4z
		 M63.9,28.9c0,16.2,13,28.9,29,28.9c15.9,0,29-12.6,29-28.9c0-16.2-13-28.9-29-28.9C77,0,63.9,12.6,63.9,28.9 M71.8,28.9
		c0-11.5,9.5-21.6,21.1-21.6c11.6,0,21.1,10.1,21.1,21.6c0,11.5-9.5,21.6-21.1,21.6C81.3,50.5,71.8,40.4,71.8,28.9 M137.2,56.5V19.1
		l35.4,38.6h0.2V1.3l-7.9,1.3v36L129.5,0h-0.2v57.4L137.2,56.5z M190.7,56.5V0l-7.9,1.3v55.8L190.7,56.5z M209.6,8.5v48.9l7.9-1V8.5
		h12.9V1.3h-32.6l-2.5,7.2H209.6z M230.9,28.9c0,16.2,13,28.9,29,28.9c15.9,0,29-12.6,29-28.9c0-16.2-13-28.9-29-28.9
		C243.9,0,230.9,12.6,230.9,28.9 M238.8,28.9c0-11.5,9.5-21.6,21.1-21.6c11.6,0,21.1,10.1,21.1,21.6c0,11.5-9.5,21.6-21.1,21.6
		C248.3,50.5,238.8,40.4,238.8,28.9 M303.6,56.5V29.7h0.2L323,57.8l8.8-2.3l-16.7-23.1c7.6-1.7,12.2-6.2,12.2-14.4
		c0-12.5-9.9-16.7-18.1-16.7h-13.6v56.1L303.6,56.5z M303.6,8.5h5.6c6.1,0,10.3,3,10.3,9.5c0,6-4.9,9.9-10.3,9.9h-5.6V8.5z"/>
</g>
</svg>
