<?xml version="1.0" encoding="utf-8"?>
<!-- Generator: Adobe Illustrator 19.2.1, SVG Export Plug-In . SVG Version: 6.00 Build 0)  -->
<svg version="1.1" id="Layer_1" xmlns="http://www.w3.org/2000/svg" xmlns:xlink="http://www.w3.org/1999/xlink" x="0px" y="0px"
	 viewBox="0 0 1143.9 193.1" enable-background="new 0 0 1143.9 193.1" xml:space="preserve">
<g>
	<g>
		<path fill="#E2E8E9" d="M22.4,57.1c7.2,6.5,17.2,16.1,28.1,17.1c0,3-2.5,4.1-5,4.1c-10.7,0-19.2-10.1-26.5-17.4
			c-7.6,8.8-13.4,15-13.8,15C2,75.9,0,72.6,0,69.7c0-15.6,15.9-66,16.7-66c2.5,0,5.3,1.1,5.3,4.2c0,2.6-17.3,50.8-17.3,62.2
			c0.1,0,4.3-5.1,10.6-12.7c-1.7-1.4-3.3-2.6-4.9-3.3c0-1.4,1.2-3,3.3-3c1.2,0,2.8,0.9,4.7,2.5C31.6,37.4,50.7,13.4,59,0.7
			c2.4,0,3.7,2.4,3.7,4.5C62.7,9.1,39.2,37.5,22.4,57.1z"/>
		<path fill="#E2E8E9" d="M122.2,41.5c-0.8,2.3-22.1,34.4-26.7,34.4c-6.6,0-9.9-4.5-9.9-12.4c0-1.8,0.3-4.2,0.7-7
			C81.2,65.9,75,76.8,73.7,76.8c-5.9,0-12.4-5.9-12.4-14.6c0-3.5,0.4-6.8,1-9.6c-4.2-1.1-7.3-4.4-7.3-11.9
			c0-9.3,10.8-21.3,27.9-21.3c18.5,0,12.5,15.4,11.2,20.5c1.5,0.7,2.6,1.7,2.6,2.6c0,1.3-6.1,12.2-6.1,25c0,4,2.5,5,4,5
			c1.5,0,25.7-34.2,25.7-34.2C121.8,38.2,123,39.2,122.2,41.5z M63.5,48.2c2-6.2,4.6-10,4.6-10c2,0,5.6,1.5,5.6,3.6
			c0,0.4-1.4,3.1-3,6.7c7.3-1.6,16.3-7,19-8.4c0.3-1.9,6.8-16.9-3.5-16.9c-14.8,0-25.5,10.6-25.5,19.2
			C60.6,45.6,61.8,47.3,63.5,48.2z M88.6,44.7c-4.1,2.5-12.4,6.9-19.6,7.9c-1.3,3.5-2.5,7.4-2.5,10.6c0,8.5,5.8,9.5,5.8,9.5
			C72.9,72.7,84.6,51.8,88.6,44.7z"/>
		<path fill="#E2E8E9" d="M181.3,40.6c0,1.8-22.8,35.3-27.2,35.3c-9.5,0-12.6-9.8-12.6-21.2c0-10.3,2-18.9,3.4-25.7
			c-6.6,10.6-28.3,46.9-28.3,47c-1.8,0-4.3-0.7-4.3-4.2c0-12.4,6.4-38.5,8-42.9c2,0,5.7,1,5.7,3.8c0,1.2-6.5,18.6-8.7,34.3
			c6.6-11.4,25.2-45.6,29-46.9c0.1,0,0.1,0,0.2,0c2.6,0.1,5.8,1.8,5.8,4.7c0,6.8-4.6,22.1-4.6,34.1c0,6,1.3,13.1,5.4,13.1
			c2,0,25.9-33.8,25.9-33.8C180.1,38.2,181.3,38.4,181.3,40.6z"/>
		<path fill="#E2E8E9" d="M232.8,41.5c-0.8,2.3-22.1,34.4-26.7,34.4c-6.6,0-9.9-4.5-9.9-12.4c0-1.8,0.3-4.2,0.7-7
			c-5.1,9.3-11.3,20.2-12.6,20.2c-5.9,0-12.4-5.9-12.4-14.6c0-3.5,0.4-6.8,1-9.6c-4.2-1.1-7.3-4.4-7.3-11.9
			c0-9.3,10.8-21.3,27.9-21.3c18.5,0,12.5,15.4,11.2,20.5c1.5,0.7,2.6,1.7,2.6,2.6c0,1.3-6.1,12.2-6.1,25c0,4,2.5,5,4,5
			c1.5,0,25.7-34.2,25.7-34.2C232.4,38.2,233.6,39.2,232.8,41.5z M174.1,48.2c2-6.2,4.6-10,4.6-10c2,0,5.6,1.5,5.6,3.6
			c0,0.4-1.4,3.1-3,6.7c7.3-1.6,16.3-7,19-8.4c0.3-1.9,6.8-16.9-3.5-16.9c-14.8,0-25.5,10.6-25.5,19.2
			C171.3,45.6,172.4,47.3,174.1,48.2z M199.2,44.7c-4.1,2.5-12.4,6.9-19.6,7.9c-1.3,3.5-2.5,7.4-2.5,10.6c0,8.5,5.8,9.5,5.8,9.5
			C183.5,72.7,195.2,51.8,199.2,44.7z"/>
		<path fill="#E2E8E9" d="M292.5,41.2c-9.5,0.7-18.5,2.4-26.2,4.9c-4.9,15.1-17.6,30-22.4,30c-4.1,0-8.7-4.2-8.7-10.1
			c0-9,11.4-17,25.2-22.1c1.2-4.1,2.1-8,2.1-11.6c0-5.3-2.8-8.8-6.3-8.8c-1.5,0-15.8,11.6-26.6,42.8c-3.4,13.3-6.1,25.9-5.4,30.7
			c-2.7,0-4.7-1.7-4.7-5.3c0-15.5,14.7-68.6,15.5-68.7c2.5-0.4,5.8,0.9,5.6,3.7c-0.1,0.9-3.8,9.7-7,20.7c9.1-19.3,18.1-28,22.4-28
			c7.5,0,12,6.4,12.3,14.8c0.1,2.4-0.2,4.8-0.8,7.4c7.8-2.3,15.8-3.5,22.5-3.5C291.4,38.2,293.3,39.4,292.5,41.2z M258.5,49.1
			c-11.3,5-18.5,11.7-18.5,18.3c0,2.4,1.4,4.9,2.7,4.9C245.5,72.3,253.6,61.2,258.5,49.1z"/>
		<path fill="#E2E8E9" d="M347.1,41.3c-0.8,3-16.7,35.6-27.5,35.6c-9,0-16.2-11.6-17.7-21.4c-7.1,10.8-12.8,20.5-13.7,20.5
			c-3.2,0-5.2-3.3-5.2-6.2c0-15.6,15.9-66,16.7-66c2.5,0,5.3,1.1,5.3,4.2c0,2.6-17.3,50.8-17.3,62.2c0.2,0,5.3-9.2,13.8-21.3
			c1.1-8.8,9.8-24.8,14.2-24.8c3.6,0,5.2,3.4,5.2,4.4c0,0.5-8.1,11.2-13.9,19.1c-0.2,0.4-0.4,0.7-0.7,1c0.9,10.8,6.4,24.7,12.2,24.7
			c7.7,0,26.4-35.2,26.4-35.2C346.2,38.1,347.7,39,347.1,41.3z"/>
		<path fill="#E2E8E9" d="M375.3,41.7c-1.1,2.5-22.4,34.2-27,34.3c-4.7,0-10.7-3.1-10.7-13c0-8.8,2.6-19.9,4.8-27.1
			c1.2-4.5,2.7-8.7,3.7-8.5c2,0.3,5.6,2.7,5,6.2c-0.3,1.8-1.4,4.2-2.9,6.8c-2.3,7-5.2,17.2-5.2,25.4c0,5.5,3.3,6.6,4.4,6.6
			c1.5,0,26.1-34.2,26.1-34.2C374.5,38.2,376.1,40.1,375.3,41.7z M340.4,14.4c0.7-5.2,13.7-8.6,16.2-6c0.6,0.6,0.9,1.2,1,1.8
			c0.8,0.8,1.5,2.4,1.2,3.3c-2,6.7-13.3,8-15.8,6.4C341.1,18.6,340.2,15.7,340.4,14.4z M344.8,16.2c0,1,8-1.1,11.1-4.5
			C351.9,10.9,344.8,13.7,344.8,16.2z"/>
		<path fill="#E2E8E9" d="M450.7,69.9c-1.6,3.5-6.1,6.7-12.6,6.7c-11.3,0-16.8-6.5-24-8.7c-0.3,0.2-0.5,0.5-0.8,0.7h-0.1
			c-3.4,3.7-6.5,7.4-7.2,7.4c-2.3,0-5.2-2.7-5.2-6.2c0-2.1,4.1-6.6,12.2-6.9c6.3-6.6,14.6-15.8,20.5-22.4
			c-8.2,1.6-15.9,0.9-21.4-2.7l-6.4,9.2c-0.8,0-2-3.6,0.2-6.8c1.1-1.7,2.3-3.4,3.2-4.9c-3.1-3.3-5-8.1-5-14.5
			c0-8,6.1-12.8,10.4-12.8c3.7,0,7.1,4,7.1,8.2c0,6.2-2.1,10.6-6.4,17.2c5.7,3.9,14.1,4.3,21.3,2.4c3.6-5.1,10.1-13.9,11.5-13
			c1.9,1.1,4.3,4.9,2.5,8.1c-1.4,2.5-5.7,5.7-9.3,8.3c-5.6,6.4-15.2,17.3-23.2,25.2c6.2,2.1,12.5,7.5,19.6,7.5
			c6.3,0,10.6-3.4,12-5.5C451.3,67.9,451.3,68.7,450.7,69.9z M412,30.5c3.5-5.8,5.5-10.6,5.5-15c0-2.7-0.6-3.5-2.1-3.5
			c-3.2,0-6.3,4.1-6.3,9.5C409.1,25.2,410.2,28.2,412,30.5z"/>
		<path fill="#E2E8E9" d="M565.6,40.6c0,1.8-22.8,35.3-27.2,35.3c-9.5,0-12.6-9.8-12.6-21.2c0-10.3,2-18.8,3.4-25.6
			c-8.9,14.1-28.6,46.9-28.6,46.9c-1,0-4.7-1.7-4.7-6.2C495.9,54.1,513.2,0,514,0c2.5,0,5.5,1.1,5.5,4.2c0,2.5-18,51.1-19,64.2
			c6-9.8,26.9-48.5,30-48.5c2.6,0,6,1.7,6,4.7c0,6.8-4.6,22.1-4.6,34.1c0,6,1.3,13.1,5.4,13.1c2,0,25.9-33.8,25.9-33.8
			C564.4,38.2,565.6,38.4,565.6,40.6z"/>
		<path fill="#E2E8E9" d="M617.3,41.5c-0.8,2.3-22.1,34.4-26.7,34.4c-6.6,0-9.9-4.5-9.9-12.4c0-1.8,0.3-4.2,0.7-7
			c-5.1,9.3-11.3,20.2-12.6,20.2c-5.9,0-12.4-5.9-12.4-14.6c0-3.5,0.4-6.8,1-9.6c-4.2-1.1-7.3-4.4-7.3-11.9
			c0-9.3,10.8-21.3,27.9-21.3c18.5,0,12.5,15.4,11.2,20.5c1.5,0.7,2.6,1.7,2.6,2.6c0,1.3-6.1,12.2-6.1,25c0,4,2.5,5,4,5
			c1.5,0,25.7-34.2,25.7-34.2C616.9,38.2,618.1,39.2,617.3,41.5z M558.6,48.2c2-6.2,4.6-10,4.6-10c2,0,5.6,1.5,5.6,3.6
			c0,0.4-1.4,3.1-3,6.7c7.3-1.6,16.3-7,19-8.4c0.3-1.9,6.8-16.9-3.5-16.9c-14.8,0-25.5,10.6-25.5,19.2
			C555.7,45.6,556.9,47.3,558.6,48.2z M583.7,44.7c-4.1,2.5-12.4,6.9-19.6,7.9c-1.3,3.5-2.5,7.4-2.5,10.6c0,8.5,5.8,9.5,5.8,9.5
			C568,72.7,579.7,51.8,583.7,44.7z"/>
		<path fill="#E2E8E9" d="M623.9,68.1c1.1,2-0.7,3.2-3,4.1c-1.8,0.7-3.9,1.3-6.2,2.2c-3.3,16-7.5,30.7-11.2,30.7
			c-6.4,0-12.8-5.3-12.8-12.8c0-9.8,9.4-16,18.3-19.6c2.6-14.7,5-31.3,6.4-39.2c0.5-3.5,1.1-6.2,2-6.2c2,0,5.9,1.9,5.9,5.4
			c0,2.3-1.3,5.9-2.8,9.3c-1,7.4-2.8,17.9-4.9,28.4C619.6,68.9,622.8,68.3,623.9,68.1z M608.1,77c-6.6,3.2-12.6,8-12.6,16.1
			c0,3.6,3.5,7.5,5.7,7.5C603.2,100.6,605.7,90.1,608.1,77z M628.7,13.5c-1.4,5-8.2,7.1-12.5,7.1c-1.4,0-2.6-0.3-3.2-0.7
			c-2.1-1.3-3-4.2-2.7-5.5c0.5-4,8.3-6.9,13-6.9c1.4,0,2.6,0.3,3.2,0.8s0.9,1.2,1,1.8C628.3,10.9,629,12.5,628.7,13.5z M625.7,11.8
			c-0.5-0.2-1-0.2-1.6-0.2c-4,0-9.5,2.4-9.5,4.6C614.6,17.3,622.5,15.2,625.7,11.8z"/>
		<path fill="#E2E8E9" d="M654.6,55.9c2.7,3,4.6,6.1,4.6,9.3c0,7.9-8.1,14.2-14.4,14.2c-5.2,0-9.5-3.5-9.5-9.7
			c0-5.1,4.6-9.9,11-14.1c-5.8-6.1-13.2-12.4-13.2-19.6c0-7.6,6.5-17.4,21.5-17.4c5.1,0,11.6,2.1,13.8,7.8c1.8-3.9,3.7-7.1,4.1-7.1
			c2.1,0,2.8,1.9,2.8,3.6c0,2.1-7.1,18.5-8.1,17.8c-1,0-2.2-0.8-2.2-3.9c0-0.8,0.3-2.1,0.7-3.5c0-0.8,0.1-1.7,0.1-2.8
			c0-4.7-4.9-6.9-10.7-6.9c-11.7,0-17.5,6.6-17.5,11.5c0,5.8,7.5,11.4,13.7,17.4c15.5-8.6,36.5-14.4,36.9-14.4
			c1.4,0,1.8,0.6,1.8,2.2C689.9,41.1,669.5,47.4,654.6,55.9z M649.5,59c-6.1,4.1-10.5,8.7-10.5,13.3c0,3.3,3.5,3.6,4.9,3.6
			c3.3,0,9.6-4.5,9.6-8.6C653.5,64.6,651.8,61.9,649.5,59z"/>
		<path fill="#E2E8E9" d="M735.9,40.5c0,2-20.9,36.4-40.4,36.4c-7,0-15.2-7.2-15.2-19.9c0-17.1,13.4-37.5,21.2-37.5
			c8.5,0,13.9,3.9,13.9,11.6c0,13.5-14,25.2-28.8,26.3c-0.1,0.8-0.1,1.7-0.1,2.5c0.1,9.5,6.5,13.1,8.6,13.1
			c15.8,0,38.3-34.8,38.7-34.8C734.6,38.2,735.9,39,735.9,40.5z M687,53.3c13.4-3,23.1-14.5,23.1-23.5c0-5.5-3.2-6.8-6-6.8
			C701.4,23,689.7,37,687,53.3z"/>
		<path fill="#E2E8E9" d="M811.2,40.6c0,3.7-23.3,36.3-27.6,36.3c-9.5,0-11.7-9.8-11.7-16.3c0-11.8,2.2-20.7,4-27.4
			c-8.3,14.9-22.5,43.8-23.2,43.8c-3.6,0-4.6-2.8-4.6-7.5c0-12.8,3-28.6,5.4-39c-7.9,15.2-15.8,30.4-23.8,45.5
			c-1.8,0-4.8-0.7-4.8-4.2c0-12.4,6.4-38.5,8-42.9c2,0,6.1,1,6.1,3.8c0,1.2-6.3,18-8.5,33.5c6.6-13.3,23.4-46.6,25.7-46.6
			c1.4,0,6,1.7,6,4.8c0,3-8.1,24-9.4,43.5c10-20.5,24.1-46.4,25.7-46.7c2.6,0,6,1.7,6,4.7c0,6.8-6.5,22.1-6.5,39
			c0,1.1,0.4,8.2,4.4,8.2c2,0,26.4-34.8,26.4-34.8C810.1,38.2,811.2,38.4,811.2,40.6z"/>
		<path fill="#E2E8E9" d="M831.8,75.4c0-2,2.8-8.2,5.2-8.2c1.7,0,3.9,2.5,3.9,4.2c0,4.1-3.6,8.6-5.6,8.6
			C833.7,80,831.8,77.9,831.8,75.4z"/>
		<path fill="#E2E8E9" d="M846.1,75.4c0-2,2.8-8.2,5.2-8.2c1.7,0,3.9,2.5,3.9,4.2c0,4.1-3.6,8.6-5.6,8.6
			C848,80,846.1,77.9,846.1,75.4z"/>
		<path fill="#E2E8E9" d="M860.4,75.4c0-2,2.8-8.2,5.2-8.2c1.7,0,3.9,2.5,3.9,4.2c0,4.1-3.6,8.6-5.6,8.6
			C862.3,80,860.4,77.9,860.4,75.4z"/>
		<path fill="#E2E8E9" d="M874.8,75.4c0-2,2.8-8.2,5.2-8.2c1.7,0,3.9,2.5,3.9,4.2c0,4.1-3.6,8.6-5.6,8.6
			C876.7,80,874.8,77.9,874.8,75.4z"/>
		<path fill="#E2E8E9" d="M889.1,75.4c0-2,2.8-8.2,5.2-8.2c1.7,0,3.9,2.5,3.9,4.2c0,4.1-3.6,8.6-5.6,8.6
			C891,80,889.1,77.9,889.1,75.4z"/>
		<path fill="#E2E8E9" d="M903.4,75.4c0-2,2.8-8.2,5.2-8.2c1.7,0,3.9,2.5,3.9,4.2c0,4.1-3.6,8.6-5.6,8.6
			C905.3,80,903.4,77.9,903.4,75.4z"/>
		<path fill="#E2E8E9" d="M917.8,75.4c0-2,2.8-8.2,5.2-8.2c1.7,0,3.9,2.5,3.9,4.2c0,4.1-3.6,8.6-5.6,8.6
			C919.7,80,917.8,77.9,917.8,75.4z"/>
		<path fill="#E2E8E9" d="M932.1,75.4c0-2,2.8-8.2,5.2-8.2c1.7,0,3.9,2.5,3.9,4.2c0,4.1-3.6,8.6-5.6,8.6
			C934,80,932.1,77.9,932.1,75.4z"/>
		<path fill="#E2E8E9" d="M946.4,75.4c0-2,2.8-8.2,5.2-8.2c1.7,0,3.9,2.5,3.9,4.2c0,4.1-3.6,8.6-5.6,8.6
			C948.3,80,946.4,77.9,946.4,75.4z"/>
		<path fill="#E2E8E9" d="M1026.5,29.3c-3.8,9.1-9,23.6-10.3,40.6c5.1-0.8,10.2-1.4,13.5-1.4c4.2,0,4.5,2.5,4.5,3.2
			c0,0-29.8,5.2-32.9,5.1c-3.1-0.1-4.4-1.2-4.3-3.7c2-0.3,8.2-1.5,15-2.5v-0.8c0.5-14.2,4.7-27.6,9.1-37.7
			c-5.4,6.1-12.2,11.9-16.7,12.5c-2.7,0.4-4.1-0.8-4.2-2.2c7.2-3.2,17.4-11.8,23.9-18.5c2.5-5.8,6.9-15.2,8.4-14.7
			c2,0.7,5.2,3.9,4.1,7.5C1035.2,20.2,1029.9,25.7,1026.5,29.3z"/>
		<path fill="#E2E8E9" d="M1083.9,74.5c0,0.8-0.9,3.3-4.5,3.3c-6.4,0-12.4-5.8-17.4-11.5c-6.8,6.3-12.4,10.5-13.6,10.5
			c-4.6,0-9.2-5.6-9.2-13.8c0-6.7,5.2-11.5,11.3-11.5c4.4,0,7.5,3.6,11.5,8.1c10.7-11.2,23.6-27.3,23.6-38.2c0-5.2-4-6.8-6.8-6.8
			c-13.1,0-22.7,9.8-22.7,20c0,4.1,1.4,6.3,2.3,8.4c-3.7,1.5-8.3-0.8-8.3-10.9c0-11.5,13.1-22.2,23.9-22.2
			c10.1,0,16.3,5.8,16.3,14.3c0,11.8-13.2,27.7-24.8,39C1069.5,67.5,1075.2,72.1,1083.9,74.5z M1058.8,62.8c-3.3-3.7-6-6.5-8.2-6.5
			c-3.4,0-7.2,2.3-7.2,8.3c0,3.6,2.7,7.8,4.7,7.8C1048.5,72.4,1053,68.6,1058.8,62.8z"/>
		<path fill="#E2E8E9" d="M1117.3,28c0,10.5-9.8,16.8-15.2,16.8c-7.8,0-8.7-6.3-8.7-11.2c0-14.1,12.3-28.1,19.9-28.1
			c2.5,0,3.3,1.3,3.3,2.3c-7.5,0-18.5,10.6-20.4,23.3c2.4-4.9,8.1-12.1,13.7-12.1C1114.3,19,1117.3,23.7,1117.3,28z M1114,26.8
			c0-1.6-0.1-5.4-3-5.4c-6.2,0-14.2,10.7-15.1,15.3c0.4,3.3,1.9,5.9,5.3,5.9C1106.5,42.5,1114,35.4,1114,26.8z"/>
		<path fill="#E2E8E9" d="M1143.9,16c0,14.6-6.4,29.1-18.9,29.1c-4.2,0-5.3-2.9-4.2-4.7c0.5,0.3,1.5,1.8,4,1.8c8,0,16-8.6,16.8-25.2
			c-4.1,7.8-9.7,15-13.2,15c-2.1,0-7.4-1-7.4-9.1c0-7.1,5.5-16.8,15.3-16.8c7.1,0,7,6,6.8,8.5C1143.5,14.8,1143.9,15.3,1143.9,16z
			 M1140.8,14c0.1-2.2,0.3-5.6-3.8-5.6c-7.3,0-12.9,10.1-12.9,15.9c0,3.1,1.8,5.3,3.7,5.3C1130.5,29.7,1138.9,17.6,1140.8,14z"/>
		<path fill="#E2E8E9" d="M85.2,125.9c0,1.7-9.8,23.5-10.8,23.5s-2.3-0.6-2.3-3.6c0-1.4,0.6-3.6,1.5-6c-2.1-9.4-17.1-15.6-29-15.6
			c-25.5,0-38.2,14.1-38.2,22.9c0,22.1,56.9,7.5,56.9,31.4c0,6.8-6.9,11-22.8,11c-17.6,0-23.1-9.3-24-10.5c-1.5-2.1-0.6-3.4,0.2-3.4
			c3.8,3.9,12.7,8.9,24.1,8.9c9.3,0,18.2-2.3,18.2-5.5c0-15.8-57-2.8-57-32.7c0-15.6,14.3-28.7,37.2-28.7c25.6,0,34,10.3,36.4,17.4
			c2.8-6.3,6.5-12.5,7.2-12.5C83.9,122.6,85.2,124.2,85.2,125.9z"/>
		<path fill="#E2E8E9" d="M149.6,154.7c-0.8,2.3-22.1,34.4-26.7,34.4c-6.6,0-9.9-4.5-9.9-12.4c0-1.8,0.3-4.2,0.7-7
			c-5.1,9.3-11.3,20.2-12.6,20.2c-5.9,0-12.4-5.9-12.4-14.6c0-3.5,0.4-6.8,1-9.6c-4.2-1.1-7.3-4.4-7.3-11.9
			c0-9.3,10.8-21.3,27.9-21.3c18.5,0,12.5,15.4,11.2,20.5c1.5,0.7,2.6,1.7,2.6,2.6c0,1.3-6.1,12.2-6.1,25c0,4,2.5,5,4,5
			c1.5,0,25.7-34.2,25.7-34.2C149.1,151.4,150.3,152.4,149.6,154.7z M90.8,161.4c2-6.2,4.6-10,4.6-10c2,0,5.6,1.5,5.6,3.6
			c0,0.4-1.4,3.1-3,6.7c7.3-1.6,16.3-7,19-8.4c0.3-1.9,6.8-16.9-3.5-16.9c-14.8,0-25.5,10.6-25.5,19.2
			C88,158.7,89.1,160.5,90.8,161.4z M115.9,157.9c-4.1,2.5-12.4,6.9-19.6,7.9c-1.3,3.5-2.5,7.4-2.5,10.6c0,8.5,5.8,9.5,5.8,9.5
			C100.2,185.9,111.9,164.9,115.9,157.9z"/>
		<path fill="#E2E8E9" d="M184.1,154.9c-0.5,1-19.5,34.4-27.5,34.4c-8.2,0-13.3-7.5-13.3-18.1c0-13.9,6.2-36.5,11.6-49.2
			c-4.1,0.6-7.7,0.9-10.3,0.9c-4.5,0-5.1-2.8-5-4.3c4.4,0,10.9-0.8,17.8-1.9c1-2,2-3.3,2.8-3.9c0.8,0,2.9,1.1,3.6,2.8
			c8.3-1.3,16.3-2.5,20.8-2.5c4.1,0,6.1,1.6,6.1,3.9c-9,0.8-19.2,2.5-28.1,4c-4,9.6-13.7,32.5-13.7,54.2c0,9.9,4.7,10.5,7.3,10.5
			c3.5,0,26.1-34.2,26.1-34.2h0.1C183.2,151.4,184.8,153.3,184.1,154.9z"/>
		<path fill="#E2E8E9" d="M236.6,154.7c-0.8,2.3-22.1,34.4-26.7,34.4c-6.6,0-9.9-4.5-9.9-12.4c0-1.8,0.3-4.2,0.7-7
			c-5.1,9.3-11.3,20.2-12.6,20.2c-5.9,0-12.4-5.9-12.4-14.6c0-3.5,0.4-6.8,1-9.6c-4.2-1.1-7.3-4.4-7.3-11.9
			c0-9.3,10.8-21.3,27.9-21.3c18.5,0,12.5,15.4,11.2,20.5c1.5,0.7,2.6,1.7,2.6,2.6c0,1.3-6.1,12.2-6.1,25c0,4,2.5,5,4,5
			c1.5,0,25.7-34.2,25.7-34.2C236.1,151.4,237.4,152.4,236.6,154.7z M177.9,161.4c2-6.2,4.6-10,4.6-10c2,0,5.6,1.5,5.6,3.6
			c0,0.4-1.4,3.1-3,6.7c7.3-1.6,16.3-7,19-8.4c0.3-1.9,6.8-16.9-3.5-16.9c-14.8,0-25.5,10.6-25.5,19.2
			C175,158.7,176.2,160.5,177.9,161.4z M203,157.9c-4.1,2.5-12.4,6.9-19.6,7.9c-1.3,3.5-2.5,7.4-2.5,10.6c0,8.5,5.8,9.5,5.8,9.5
			C187.3,185.9,199,164.9,203,157.9z"/>
		<path fill="#E2E8E9" d="M264.4,154.9c-1.1,2.5-22.4,34.2-27,34.3c-4.7,0-10.7-3.1-10.7-13c0-10.8,4.5-26.9,10.3-43.6
			c-6.7,1.2-10.2,2.2-11.3,2.2c-2.2,0-4.5-2.1-4.4-3.6c2.1-0.4,7.7-2,17.5-3.8c1.9-5.3,3.9-10.5,5.8-15.6c1.4,0,4.7,1.5,4.7,4.3
			c0,0.6-1.4,4.4-3.4,10.1c6.3-0.8,10.7-1,13.9-1.1c4.1-0.1,4.5,2.4,4.5,3.1c0,0-8.8,1.1-20.2,3c-5,14.8-12.1,36.5-12.1,47.7
			c0,5.5,3.3,6.6,4.4,6.6c1.5,0,26.1-34.2,26.1-34.2C263.6,151.4,265.2,153.3,264.4,154.9z"/>
		<path fill="#E2E8E9" d="M317,154.7c-0.8,2.3-22.1,34.4-26.7,34.4c-6.6,0-9.9-4.5-9.9-12.4c0-1.8,0.3-4.2,0.7-7
			c-5.1,9.3-11.3,20.2-12.6,20.2c-5.9,0-12.4-5.9-12.4-14.6c0-3.5,0.4-6.8,1-9.6c-4.2-1.1-7.3-4.4-7.3-11.9
			c0-9.3,10.8-21.3,27.9-21.3c18.5,0,12.5,15.4,11.2,20.5c1.5,0.7,2.6,1.7,2.6,2.6c0,1.3-6.1,12.2-6.1,25c0,4,2.5,5,4,5
			c1.5,0,25.7-34.2,25.7-34.2C316.5,151.4,317.7,152.4,317,154.7z M258.2,161.4c2-6.2,4.6-10,4.6-10c2,0,5.6,1.5,5.6,3.6
			c0,0.4-1.4,3.1-3,6.7c7.3-1.6,16.3-7,19-8.4c0.3-1.9,6.8-16.9-3.5-16.9c-14.8,0-25.5,10.6-25.5,19.2
			C255.4,158.7,256.5,160.5,258.2,161.4z M283.3,157.9c-4.1,2.5-12.4,6.9-19.6,7.9c-1.3,3.5-2.5,7.4-2.5,10.6c0,8.5,5.8,9.5,5.8,9.5
			C267.6,185.9,279.3,164.9,283.3,157.9z"/>
		<path fill="#E2E8E9" d="M396.8,183.1c-1.6,3.5-6.1,6.7-12.6,6.7c-11.3,0-16.8-6.5-24-8.7c-0.3,0.2-0.5,0.5-0.8,0.7h-0.1
			c-3.4,3.7-6.5,7.4-7.2,7.4c-2.3,0-5.2-2.7-5.2-6.2c0-2.1,4.1-6.6,12.2-6.9c6.3-6.6,14.6-15.8,20.5-22.4
			c-8.2,1.6-15.9,0.9-21.4-2.7l-6.4,9.2c-0.8,0-2-3.6,0.2-6.8c1.1-1.7,2.3-3.4,3.2-4.9c-3.1-3.3-5-8.1-5-14.5
			c0-8,6.1-12.8,10.4-12.8c3.7,0,7.1,4,7.1,8.2c0,6.2-2.1,10.6-6.4,17.2c5.7,3.9,14.1,4.3,21.3,2.4c3.6-5.1,10.1-13.9,11.5-13
			c1.9,1.1,4.3,4.9,2.5,8.1c-1.4,2.5-5.7,5.7-9.3,8.3c-5.6,6.4-15.2,17.3-23.2,25.2c6.2,2.1,12.5,7.5,19.6,7.5
			c6.3,0,10.6-3.4,12-5.5C397.3,181.1,397.3,181.8,396.8,183.1z M358.1,143.6c3.5-5.8,5.5-10.6,5.5-15c0-2.7-0.6-3.5-2.1-3.5
			c-3.2,0-6.3,4.1-6.3,9.5C355.2,138.4,356.3,141.4,358.1,143.6z"/>
		<path fill="#E2E8E9" d="M441.1,154.9c-1.1,2.5-22.4,34.2-27,34.3c-4.7,0-10.7-3.1-10.7-13c0-8.8,2.6-19.9,4.8-27.1
			c1.2-4.5,2.7-8.7,3.7-8.5c2,0.3,5.6,2.7,5,6.2c-0.3,1.8-1.4,4.2-2.9,6.8c-2.3,7-5.2,17.2-5.2,25.4c0,5.5,3.3,6.6,4.4,6.6
			c1.5,0,26.1-34.2,26.1-34.2C440.2,151.4,441.8,153.3,441.1,154.9z M406.2,127.6c0.7-5.2,13.7-8.6,16.2-6c0.6,0.6,0.9,1.2,1,1.8
			c0.8,0.8,1.5,2.4,1.2,3.3c-2,6.7-13.3,8-15.8,6.4C406.8,131.7,405.9,128.8,406.2,127.6z M410.5,129.4c0,1,8-1.1,11.1-4.5
			C417.7,124.1,410.5,126.8,410.5,129.4z"/>
		<path fill="#E2E8E9" d="M490,153.6c0,2-20.9,36.4-40.4,36.4c-7,0-15.2-7.2-15.2-19.9c0-17.1,13.4-37.5,21.2-37.5
			c8.5,0,13.9,3.9,13.9,11.6c0,13.5-14,25.2-28.8,26.3c-0.1,0.8-0.1,1.7-0.1,2.5c0.1,9.5,6.5,13.1,8.6,13.1
			c15.8,0,38.3-34.8,38.7-34.8C488.8,151.4,490,152.1,490,153.6z M441.2,166.5c13.4-3,23.1-14.5,23.1-23.5c0-5.5-3.2-6.8-6-6.8
			C455.5,136.2,443.8,150.1,441.2,166.5z"/>
		<path fill="#E2E8E9" d="M522.6,154.9c-0.5,1-19.5,34.4-27.5,34.4c-8.2,0-13.3-7.5-13.3-18.1c0-23,12.5-54.7,18-55.9
			c4.1-0.9,11.9,2.9,11.3,12.3c-0.9,15.6-17.1,27.4-21.7,29.2c-1.1,6.1-1.9,12.4-1.9,18.4c0,9.9,4.7,10.5,7.3,10.5
			c3.5,0,26-34,26.2-34.2C521.7,151.4,523.3,153.3,522.6,154.9z M490.4,151.5c3.7-1.9,16.5-14.5,16.5-25.5c0-5.8-3.1-7.3-4.3-6.9
			C500.6,119.7,494.2,134.4,490.4,151.5z"/>
		<path fill="#E2E8E9" d="M569.6,154.9c-1.3,2.3-10,10.8-25.5,14.7c-6.1,11-15.3,20.3-17.9,20.3c-5.9,0-12.4-6-12.4-15.5
			c0-2.2,0.2-4.1,0.5-6c-4.8-2.8-7.7-7.5-7.7-13.1c0-11.9,12.7-22.8,27-22.8c11.7,0,16.3,8.2,16.3,18.8c0,4.1-1.1,8.5-3,12.8
			c13.5-4.9,22.2-12.7,22.2-12.7C569.6,151.4,570.8,152.9,569.6,154.9z M515.1,164.6c2.1-8.2,5.9-13.2,5.9-13.2c2,0,5.2,1.5,5.2,3.6
			c0,0.7-3.2,6.2-5.4,12.3c1.7,0.4,3.5,0.6,5.5,0.6c4.7,0,9.1-0.6,13.2-1.5c3.1-6.2,5.6-13,5.6-18.9c0-4.7-1.3-10.7-9-10.7
			c-10.7,0-24.1,8.7-24.1,20.6C512,160.5,513.1,162.9,515.1,164.6z M536.9,171.1c-3,0.5-6.2,0.7-9.6,0.7c-2.6,0-5.2-0.4-7.5-0.9
			c-0.5,1.9-0.8,3.7-0.8,5.4c0,9.1,5.9,10,6.8,10C526.3,186.3,531.9,179.7,536.9,171.1z"/>
		<path fill="#E2E8E9" d="M628.4,153.7c0,1.8-22.8,35.3-27.2,35.3c-9.5,0-12.6-9.8-12.6-21.2c0-10.3,2-18.9,3.4-25.7
			c-6.6,10.6-28.3,46.9-28.3,47c-1.8,0-4.3-0.7-4.3-4.2c0-12.4,6.4-38.5,8-42.9c2,0,5.7,1,5.7,3.8c0,1.2-6.5,18.6-8.7,34.3
			c6.6-11.4,25.2-45.6,29-46.9c0.1,0,0.1,0,0.2,0c2.6,0.1,5.8,1.8,5.8,4.7c0,6.8-4.6,22.1-4.6,34.1c0,6,1.3,13.1,5.4,13.1
			c2,0,25.9-33.8,25.9-33.8C627.2,151.4,628.4,151.6,628.4,153.7z"/>
		<path fill="#E2E8E9" d="M680,154.7c-0.8,2.3-22.1,34.4-26.7,34.4c-6.6,0-9.9-4.5-9.9-12.4c0-1.8,0.3-4.2,0.7-7
			c-5.1,9.3-11.3,20.2-12.6,20.2c-5.9,0-12.4-5.9-12.4-14.6c0-3.5,0.4-6.8,1-9.6c-4.2-1.1-7.3-4.4-7.3-11.9
			c0-9.3,10.8-21.3,27.9-21.3c18.5,0,12.5,15.4,11.2,20.5c1.5,0.7,2.6,1.7,2.6,2.6c0,1.3-6.1,12.2-6.1,25c0,4,2.5,5,4,5
			c1.5,0,25.7-34.2,25.7-34.2C679.5,151.4,680.7,152.4,680,154.7z M621.2,161.4c2-6.2,4.6-10,4.6-10c2,0,5.6,1.5,5.6,3.6
			c0,0.4-1.4,3.1-3,6.7c7.3-1.6,16.3-7,19-8.4c0.3-1.9,6.8-16.9-3.5-16.9c-14.8,0-25.5,10.6-25.5,19.2
			C618.4,158.7,619.5,160.5,621.2,161.4z M646.3,157.9c-4.1,2.5-12.4,6.9-19.6,7.9c-1.3,3.5-2.5,7.4-2.5,10.6c0,8.5,5.8,9.5,5.8,9.5
			C630.6,185.9,642.3,164.9,646.3,157.9z"/>
		<path fill="#E2E8E9" d="M705.8,188.5c0-2,2.8-8.2,5.2-8.2c1.7,0,3.9,2.5,3.9,4.2c0,4.1-3.6,8.6-5.6,8.6
			C707.7,193.1,705.8,191.1,705.8,188.5z"/>
		<path fill="#E2E8E9" d="M720.1,188.5c0-2,2.8-8.2,5.2-8.2c1.7,0,3.9,2.5,3.9,4.2c0,4.1-3.6,8.6-5.6,8.6
			C722,193.1,720.1,191.1,720.1,188.5z"/>
		<path fill="#E2E8E9" d="M734.5,188.5c0-2,2.8-8.2,5.2-8.2c1.7,0,3.9,2.5,3.9,4.2c0,4.1-3.6,8.6-5.6,8.6
			C736.3,193.1,734.5,191.1,734.5,188.5z"/>
		<path fill="#E2E8E9" d="M748.8,188.5c0-2,2.8-8.2,5.2-8.2c1.7,0,3.9,2.5,3.9,4.2c0,4.1-3.6,8.6-5.6,8.6
			C750.7,193.1,748.8,191.1,748.8,188.5z"/>
		<path fill="#E2E8E9" d="M763.1,188.5c0-2,2.8-8.2,5.2-8.2c1.7,0,3.9,2.5,3.9,4.2c0,4.1-3.6,8.6-5.6,8.6
			C765,193.1,763.1,191.1,763.1,188.5z"/>
		<path fill="#E2E8E9" d="M777.5,188.5c0-2,2.8-8.2,5.2-8.2c1.7,0,3.9,2.5,3.9,4.2c0,4.1-3.6,8.6-5.6,8.6
			C779.3,193.1,777.5,191.1,777.5,188.5z"/>
		<path fill="#E2E8E9" d="M791.8,188.5c0-2,2.8-8.2,5.2-8.2c1.7,0,3.9,2.5,3.9,4.2c0,4.1-3.6,8.6-5.6,8.6
			C793.7,193.1,791.8,191.1,791.8,188.5z"/>
		<path fill="#E2E8E9" d="M806.1,188.5c0-2,2.8-8.2,5.2-8.2c1.7,0,3.9,2.5,3.9,4.2c0,4.1-3.6,8.6-5.6,8.6
			C808,193.1,806.1,191.1,806.1,188.5z"/>
		<path fill="#E2E8E9" d="M820.5,188.5c0-2,2.8-8.2,5.2-8.2c1.7,0,3.9,2.5,3.9,4.2c0,4.1-3.6,8.6-5.6,8.6
			C822.3,193.1,820.5,191.1,820.5,188.5z"/>
		<path fill="#E2E8E9" d="M834.8,188.5c0-2,2.8-8.2,5.2-8.2c1.7,0,3.9,2.5,3.9,4.2c0,4.1-3.6,8.6-5.6,8.6
			C836.7,193.1,834.8,191.1,834.8,188.5z"/>
		<path fill="#E2E8E9" d="M849.1,188.5c0-2,2.8-8.2,5.2-8.2c1.7,0,3.9,2.5,3.9,4.2c0,4.1-3.6,8.6-5.6,8.6
			C851,193.1,849.1,191.1,849.1,188.5z"/>
		<path fill="#E2E8E9" d="M863.5,188.5c0-2,2.8-8.2,5.2-8.2c1.7,0,3.9,2.5,3.9,4.2c0,4.1-3.6,8.6-5.6,8.6
			C865.4,193.1,863.5,191.1,863.5,188.5z"/>
		<path fill="#E2E8E9" d="M877.8,188.5c0-2,2.8-8.2,5.2-8.2c1.7,0,3.9,2.5,3.9,4.2c0,4.1-3.6,8.6-5.6,8.6
			C879.7,193.1,877.8,191.1,877.8,188.5z"/>
		<path fill="#E2E8E9" d="M892.1,188.5c0-2,2.8-8.2,5.2-8.2c1.7,0,3.9,2.5,3.9,4.2c0,4.1-3.6,8.6-5.6,8.6
			C894,193.1,892.1,191.1,892.1,188.5z"/>
		<path fill="#E2E8E9" d="M906.5,188.5c0-2,2.8-8.2,5.2-8.2c1.7,0,3.9,2.5,3.9,4.2c0,4.1-3.6,8.6-5.6,8.6
			C908.4,193.1,906.5,191.1,906.5,188.5z"/>
		<path fill="#E2E8E9" d="M920.8,188.5c0-2,2.8-8.2,5.2-8.2c1.7,0,3.9,2.5,3.9,4.2c0,4.1-3.6,8.6-5.6,8.6
			C922.7,193.1,920.8,191.1,920.8,188.5z"/>
		<path fill="#E2E8E9" d="M935.1,188.5c0-2,2.8-8.2,5.2-8.2c1.7,0,3.9,2.5,3.9,4.2c0,4.1-3.6,8.6-5.6,8.6
			C937,193.1,935.1,191.1,935.1,188.5z"/>
		<path fill="#E2E8E9" d="M1012.9,148.7c2.4-0.8,4.8-1.2,7.4-1.2c8.2,0,13.2,4.1,13.2,14.8c0,10.1-10.4,28.8-29,28.8
			c-14.5,0-17.4-10.4-17.4-13.8c0-3.4,2.8-4.7,5.2-4.7c0,2.4,2.2,14.9,10.7,14.9c10.3,0,25.4-12.2,25.4-28.2c0-4.8-1.3-7.9-4.6-7.9
			c-5.9,0-12,2.2-16.4,4.7c-3.1,3.4-6.9,7.2-7.7,6.6c-1.3-0.9-2.9-4.1-1.2-6.4c1.2-1.7,4.4-3.7,7.4-5.4c7.1-7.6,18-18.7,24.4-25.4
			c-10.3,3.9-23.4,8.3-29.2,8.3c-5.6,0-6.4-2.9-6-4.6c1.5,0,23.9-3.4,40.5-9.2c1.4,0.2,2.7,1.6,2.7,3.9
			C1037.9,124.9,1023.2,138.4,1012.9,148.7z"/>
		<path fill="#E2E8E9" d="M1070.1,120c-0.9,1.3-2.3,2.3-3.7,3c-2.4,2.9-6.5,8.3-10.2,14.7c1.3-0.2,2.6-0.2,3.8-0.2s2.1,0.7,2,1.9
			c-2.9,0.4-5.3,0.7-7.4,1.1c-3,5.6-5.5,11.8-6.4,17.8c-1.5-0.1-2.6-1.2-2.4-3.1c0.3-3.7,2.5-8.8,5.4-14.1c-4.3,0.8-6.5,1.4-7.6,1.4
			c-1.5,0-2.3-0.8-2.3-1.8c0,0,5.6-1.6,11.6-2.6c3-5.2,6.5-10.3,9-13.9c-6.6,2.4-13.8,3.7-17,3.7c-3.2,0-4.3-2.5-4.1-3.5
			c0.8,0,12.9,0.3,23.5-3.5c1.7-2.2,3.8-4.5,4.3-4.5C1069.4,116.5,1071.2,118.5,1070.1,120z"/>
		<path fill="#E2E8E9" d="M1065.8,144.9c0-13.2,7.5-25.7,17.8-25.7c4.1,0,8.4,3.8,8.4,10.6c0,15.3-9.4,27.9-17.8,27.9
			C1068,157.7,1065.8,150.5,1065.8,144.9z M1088.9,127.9c0-3.6-1.3-6.4-4.3-6.4c-7.3,0-15.3,11.8-15.3,25c0,4.2,1.2,8.8,3.7,8.8
			C1080.3,155.3,1088.9,141.1,1088.9,127.9z"/>
	</g>
</g>
</svg>
