<?xml version="1.0" encoding="utf-8"?>
<!-- Generator: Adobe Illustrator 19.2.1, SVG Export Plug-In . SVG Version: 6.00 Build 0)  -->
<svg version="1.1" id="Layer_1" xmlns="http://www.w3.org/2000/svg" xmlns:xlink="http://www.w3.org/1999/xlink" x="0px" y="0px"
	 viewBox="0 0 516 585.7" style="enable-background:new 0 0 516 585.7;" xml:space="preserve">
<style type="text/css">
	.st0{fill:#522D84;}
</style>
<g>
	<path class="st0" d="M254.9,195.7c4.6,10.4,5.8,24.2,1.4,37.9c-10.4,30.1-67.5,214.8-75.3,274.9c-1.4,10.4-7.8,15.6-19,17
		c-9.8-19.6-1.4-78.6,13-143.3c0,0.6-0.6,0.6-0.6,0.6c-6.6,2.6-60.3,2-108.6-12.4c-0.6-16.4,7.8-20.2,22.2-17.6l65.5,13
		c-17-9.8-36.1-21-51.7-29.5c-11.8-0.6-21-1.4-24.8-2c-3.2-4.6,1.4-17.6,8.4-19.6c9.8-2.6,46.5,5.8,77.4,7.2l-84.4-39.3
		C53.9,360,22.4,459,18.4,470c-1.4,4-2.6,7.2-4,9.8c50.5,21.6,104.8,30.9,138.9,34.1c5.2,6.6-2.6,15.6-13.8,17.6
		c-20.2,3.2-104-11.2-139.5-41.9c4-75.3,41.9-229.8,84.4-333.9c-0.6,0-0.6-0.6-1.4-0.6c-9.8-4.6-10.4-19.6-1.4-21
		c2,0.6,8.4,2,17.6,4.6c9.8-10.4,30.9-23.6,51.7-29.5c3.2-23.6,13-55.7,14.4-56.3c17.6-0.6,53.1,9.8,61.5,14.4
		c10.4,3.2,7.2,32.1-3.2,59.5c15.6,12.4,28.9,28.1,32.1,43.3h6.6C278.3,170.2,275.7,191.1,254.9,195.7z M112.8,442
		c10.4,7.2,21,13.8,26.3,17.6c7.8,5.2,10.4,7.8,8.4,16.4c-4,17-97.6-5.8-115.8-10.4c-2.6-7.8,4-21,18.2-17.6
		c9.8,2.6,45.1,11.8,67.5,15c-23.6-13-30.1-19.6-42.5-26.3c-7.8-1.4-17-4-25.4-5.8c-0.6-13.8,4.6-21,20.2-17
		c12.4,3.2,49.7,10.4,68.7,7.8c-36.9-11.8-72.1-23-90.6-29.7c2-9.8,5.8-18.2,22.8-13.8c17,4.6,91.6,30.1,91,36.7
		C157.3,436.8,138.3,443.2,112.8,442z M93.2,269.6c9.8,2,94.2,45.9,97,48.5l0.6,0.6c1.4-5.2,2.6-10.4,4-15.6c-2.6,0.6-5.8,0-9.8-0.6
		c-17.6-3.2-69.3-37.3-95-56.9c-2.6,9.2-5.8,18.2-9.2,28.1C83.4,270.4,87.4,268.4,93.2,269.6z M106.2,163c4.6,5.8,5.8,15.6,0.6,30.9
		c-2,5.2-5.2,14.4-9.2,27.5c4-1.4,8.4-1.4,14.4-1.4c9.8,0,30.9,0.6,51.7,2l2-42.5L106.2,163z M161.3,267.8
		c0.6-7.8,0.6-15.6,1.4-23.6c-13.8,0-27.5,0-41.3-0.6C133.7,250.8,148.1,259.8,161.3,267.8z M125.8,144.6
		c30.9,7.2,72.7,17,103.4,21.6c-4-11.8-15.6-28.1-41.9-38.7c-4.6-2-8.4-2.6-12.4-3.2c-0.6,0.6-0.6,1.4-0.6,2c-2,6.6-9.8,5.2-21-0.6
		C140.9,129.6,131.9,137.4,125.8,144.6z M179.6,362.6c2-9.2,4.6-18.2,7.2-27.5c-6.6,3.2-25.4,4-46.5,3.2
		C157.9,347,174.3,356.2,179.6,362.6z M205.8,114.5c2-9.8,4.6-21,7.8-32.1c-7.2-3.2-21-7.8-31.5-11.8c-4.6,10.4-5.8,23.6-6.6,34.7
		c6.6,0,12.4,1.4,17.6,3.2L205.8,114.5z M178.9,278.2c7.8,4.6,15,7.8,20.2,10.4c4.6-17,9.2-33.5,13.8-47.7c-5.2,0.6-17.6,2-32.7,2.6
		C180.2,256.6,179.6,269,178.9,278.2z M216.2,230.4c4.6-13,8.4-25.4,12.4-36.1c-12.4-2.6-29.5-6.6-47.7-11.2v39.3
		c15.6,0.6,28.9,2,32.1,3.2C215,226.5,215.6,228.5,216.2,230.4z M205.2,95.5c-3.2,7.2-8.4,11.8-14.4,8.4c-5.8-3.2-9.8-13-8.4-17.6
		c2-5.8,7.8-8.4,13-6.6C203.8,83.1,207.8,89.7,205.2,95.5z"/>
	<path class="st0" d="M510.2,134.2c-0.6,14.4-10.4,36.7-17,51.1c21,7.8,12.4,24.2,1.4,57.7c-36.1,100.2-71.9,217.4-79.2,248.7l5.8-2
		c11.8,19.6-5.8,33.5-41.9,32.1c-35.3-2-79.2-19-80.6-35.3c-3.2-26.3,56.9-231.9,91.6-283.6c10.4-17,20.2,5.2,12.4,28.9
		c-1.4,4-5.8,17-12.4,34.1l34.1,6.6c2-12.4,4.6-22.2,6.6-31.5c5.2-0.6,9.2,3.2,7.8,14.4c-0.6,4-1.4,11.2-2.6,19
		c10.4,2,18.2,4,21,5.2c7.8-22.2,16.4-46.5,26.3-71.9c-20.2,2.6-66.7-6.6-73.3-10.4c-12.4-7.2-18.2-20.2-11.8-28.1
		c2.6-0.6,5.8-0.6,9.8,0c6.6-20.2,21.6-62.1,25.4-66.7c0.6-2,5.2-2,11.8-1.4c7.2-22.2,15.6-54.3,22.2-62.1c5.2,2,8.4,5.8,9.8,12.4
		c12.4,3.2,27.5,6.6,30.1,13c5.8,7.2-5.2,33.5-9.2,49.1c7.2,2,13,3.2,15.6,3.2C518,123.7,515.4,131,510.2,134.2z M391.8,496.9
		c0.6-10.4,2.6-22.2,5.8-35.3c-13.8,3.2-54.3-12.4-70.1-18.2c-5.8,20.2-9.2,36.7-8.4,45.1C348.5,496.9,367.5,500.1,391.8,496.9z
		 M400.2,420.9c-22.2-9.8-44.5-21-56.9-27.5c-4.6,13-8.4,26.3-12.4,37.9c2-0.6,4-0.6,6.6,0c6.6,2,29.5,11.8,45.1,16.4
		c-15-11.2-19-16.4-26.3-22.2c-5.8-2-11.8-4-17.6-6.6c0.6-9.2,5.2-14.4,15-9.8C362.3,413.1,387.2,421.5,400.2,420.9z M417.2,393.5
		c-11.8-0.6-41.9-6.6-67.5-17.6l-4,9.2c2.6-1.4,6.6-1.4,12.4,0.6c8.4,3.2,39.3,18.2,52.3,27.5C412.6,406.5,414.6,400.1,417.2,393.5z
		 M358.9,349l-5.2,15c2.6-1.4,7.2-0.6,11.8,0.6l43.3,14.4c-11.2-7.8-22.8-17.6-32.7-24.2l-16.4-4C358.9,350.2,358.9,349.6,358.9,349
		z M361.5,343c1.4-2.6,3.2-4.6,5.8-4.6c7.2-1.4,31.5,7.8,52.3,11.8l-49.7-31.5C367.5,326.7,364.1,334.6,361.5,343z M438.9,330.5
		c-2,0-4.6-0.6-7.8-1.4c-9.2-2.6-33.5-22.2-50.5-37.9l-5.8,15.6c0.6,0,1.4,0.6,2,0.6c5.2,2,41.9,26.9,56.9,37.3
		C434.8,340.4,436.9,335.8,438.9,330.5z M404.8,432.1c-6.6,2.6-15,2.6-24.8,0.6l17,14.4c1.4,1.4,2.6,2,3.2,2.6
		C401.6,444.6,403.6,438,404.8,432.1z M421.2,287.5c-9.2-1.4-19-2.6-28.1-4.6c7.8,6.6,17,14.4,25.4,21
		C419.2,297.9,420.4,292.7,421.2,287.5z M427.6,362c-6.6,0-15.6-0.6-24.8-2.6c7.8,5.8,15,11.2,20.2,15.6
		C424.4,371.2,425.8,366.6,427.6,362z M433.6,288.7c-1.4,8.4-3.2,17-4.6,23.6c5.2,3.2,9.2,6.6,13,8.4c3.2-9.8,7.2-20.2,11.2-30.9
		C448.7,289.3,442.1,289.3,433.6,288.7z M431.6,172.2c13,2.6,26.9,6.6,37.9,9.2c3.2-15.6,9.8-36.7,13.8-51.1l-36.7-11.2
		C442.1,136.8,438.3,152.6,431.6,172.2z M464.3,104.7l15.6,4l11.8-35.3c-5.2-2.6-11.2-5.2-15.6-7.8
		C470.9,83.1,467.7,96.3,464.3,104.7z"/>
</g>
</svg>
