<?xml version="1.0" encoding="UTF-8"?>
<svg width="14px" height="9px" viewBox="0 0 14 9" version="1.1" xmlns="http://www.w3.org/2000/svg" xmlns:xlink="http://www.w3.org/1999/xlink">
    <!-- Generator: Sketch 40.3 (33839) - http://www.bohemiancoding.com/sketch -->
    <title>Aa</title>
    <desc>Created with Sketch.</desc>
    <defs></defs>
    <g id="Screens" stroke="none" stroke-width="1" fill="none" fill-rule="evenodd">
        <g id="Desktop-Copy-5" transform="translate(-771.000000, -1038.000000)" fill="#151424">
            <path d="M777.026367,1046 L778.041504,1046 L775.184082,1038.24951 L774.228027,1038.24951 L771.370605,1046 L772.385742,1046 L773.164551,1043.78174 L776.247559,1043.78174 L777.026367,1046 Z M774.663086,1039.50098 L774.749023,1039.50098 L775.962891,1042.95996 L773.449219,1042.95996 L774.663086,1039.50098 Z M782.011719,1045.29102 C781.340332,1045.29102 780.84082,1044.94727 780.84082,1044.35645 C780.84082,1043.77637 781.227539,1043.47021 782.108399,1043.41113 L783.666016,1043.30908 L783.666016,1043.84082 C783.666016,1044.66797 782.962402,1045.29102 782.011719,1045.29102 L782.011719,1045.29102 Z M781.839844,1046.10205 C782.613281,1046.10205 783.24707,1045.76367 783.623047,1045.146 L783.708984,1045.146 L783.708984,1046 L784.589844,1046 L784.589844,1042.03613 C784.589844,1040.83301 783.800293,1040.10791 782.387695,1040.10791 C781.152344,1040.10791 780.239258,1040.72021 780.115723,1041.64941 L781.050293,1041.64941 C781.179199,1041.19287 781.662598,1040.92969 782.355469,1040.92969 C783.220215,1040.92969 783.666016,1041.32178 783.666016,1042.03613 L783.666016,1042.5625 L781.995606,1042.66455 C780.647461,1042.74512 779.884766,1043.34131 779.884766,1044.37793 C779.884766,1045.43604 780.717285,1046.10205 781.839844,1046.10205 L781.839844,1046.10205 Z" id="Aa"></path>
        </g>
    </g>
</svg>