<?xml version="1.0" encoding="UTF-8"?>
<svg width="60px" height="60px" viewBox="0 0 60 60" version="1.1" xmlns="http://www.w3.org/2000/svg" xmlns:xlink="http://www.w3.org/1999/xlink">
    <!-- Generator: Sketch 41 (35326) - http://www.bohemiancoding.com/sketch -->
    <title>fb</title>
    <desc>Created with Sketch.</desc>
    <defs></defs>
    <g id="Screens" stroke="none" stroke-width="1" fill="none" fill-rule="evenodd">
        <path d="M59.9983657,56.6871868 C59.9983657,58.5160166 58.5160166,60 56.6871868,60 L41.397908,60 L41.397908,36.7645457 L49.1969928,36.7645457 L50.365548,27.7086511 L41.397908,27.7086511 L41.397908,21.92798 C41.397908,19.3064938 42.126825,17.5201569 45.8858139,17.5201569 L50.6809762,17.5185226 L50.6809762,9.41871868 C49.85073,9.30921769 47.0053389,9.0624319 43.6941599,9.0624319 C36.7808891,9.0624319 32.0478318,13.2823055 32.0478318,21.03236 L32.0478318,27.7086511 L24.2291349,27.7086511 L24.2291349,36.7645457 L32.0478318,36.7645457 L32.0478318,60 L3.31117891,60 C1.4823491,60 -2.23820962e-13,58.5160166 -2.23820962e-13,56.6871868 L-2.23820962e-13,3.31281325 C-2.23820962e-13,1.4823491 1.4823491,0 3.31117891,0 L56.6871868,0 C58.5160166,0 59.9983657,1.4823491 59.9983657,3.31281325 L59.9983657,56.6871868" id="fb" fill="#5200CC"></path>
    </g>
</svg>