<?xml version="1.0" encoding="UTF-8"?>
<svg width="60px" height="60px" viewBox="0 0 60 60" version="1.1" xmlns="http://www.w3.org/2000/svg" xmlns:xlink="http://www.w3.org/1999/xlink">
    <!-- Generator: Sketch 41 (35326) - http://www.bohemiancoding.com/sketch -->
    <title>gh</title>
    <desc>Created with Sketch.</desc>
    <defs></defs>
    <g id="Screens" stroke="none" stroke-width="1" fill="none" fill-rule="evenodd">
        <path d="M30,0 C13.425,0 0,13.7645698 0,30.7588153 C0,44.3695911 8.5875,55.8656983 20.5125,59.9412413 C22.0125,60.2103809 22.575,59.2876165 22.575,58.4801976 C22.575,57.7496757 22.5375,55.327419 22.5375,52.7513682 C15,54.1739634 13.05,50.8673908 12.45,49.1372074 C12.1125,48.2528915 10.65,45.5230466 9.375,44.7925248 C8.325,44.215797 6.825,42.7932018 9.3375,42.7547533 C11.7,42.7163047 13.3875,44.9847674 13.95,45.9075318 C16.65,50.5598026 20.9625,49.252553 22.6875,48.4451341 C22.95,46.4458111 23.7375,45.1001129 24.6,44.3311425 C17.925,43.5621722 10.95,40.9092243 10.95,29.1439775 C10.95,25.7989563 12.1125,23.0306629 14.025,20.8775459 C13.725,20.1085755 12.675,16.9557969 14.325,12.7264598 C14.325,12.7264598 16.8375,11.9190409 22.575,15.8792384 C24.975,15.187165 27.525,14.8411284 30.075,14.8411284 C32.625,14.8411284 35.175,15.187165 37.575,15.8792384 C43.3125,11.8805924 45.825,12.7264598 45.825,12.7264598 C47.475,16.9557969 46.425,20.1085755 46.125,20.8775459 C48.0375,23.0306629 49.2,25.7605078 49.2,29.1439775 C49.2,40.9476729 42.1875,43.5621722 35.5125,44.3311425 C36.6,45.2923555 37.5375,47.1378844 37.5375,50.0215234 C37.5375,54.1355149 37.5,57.4420876 37.5,58.4801976 C37.5,59.2876165 38.0625,60.2488294 39.5625,59.9412413 C51.4125,55.8656983 60,44.3311425 60,30.7588153 C60,13.7645698 46.575,0 30,0 L30,0 Z" id="gh" fill="#5200CC"></path>
    </g>
</svg>