<?xml version="1.0" encoding="utf-8"?>
<!-- Generator: Adobe Illustrator 19.2.1, SVG Export Plug-In . SVG Version: 6.00 Build 0)  -->
<svg version="1.1" id="Layer_1" xmlns="http://www.w3.org/2000/svg" xmlns:xlink="http://www.w3.org/1999/xlink" x="0px" y="0px"
	 viewBox="0 0 851 396" enable-background="new 0 0 851 396" xml:space="preserve">
<g>
	<g>
		<path fill="#474A58" d="M72.1,59.9v25.3H0v-2.9h10V4.1H0V1.2h50.3v2.9H37.6v78.2H52l17.8-22.4H72.1z"/>
		<path fill="#474A58" d="M75.4,44.2C75.4,14.9,89.5,0,116.5,0c26.3,0,39.8,14,39.8,42.7c0,29.4-14.3,43.7-41.2,43.7
			C88.7,86.4,75.4,72.6,75.4,44.2z M127.6,45c0-25.6-3.8-40.4-12.1-40.4c-7.3,0-11.3,11.5-11.3,37.4s4,39.8,12.1,39.8
			C123.6,81.8,127.6,71,127.6,45z"/>
		<path fill="#474A58" d="M163.8,44.2C163.8,14.9,178,0,205,0c26.3,0,39.8,14,39.8,42.7c0,29.4-14.3,43.7-41.2,43.7
			C177.1,86.4,163.8,72.6,163.8,44.2z M216,45c0-25.6-3.8-40.4-12.1-40.4c-7.3,0-11.3,11.5-11.3,37.4s4,39.8,12.1,39.8
			C212,81.8,216,71,216,45z"/>
		<path fill="#474A58" d="M287,82.3h4.6v2.9h-42.1v-2.9h10V4.1h-10V1.2h45.1v2.9H287V82.3z M343.7,82.3v2.9h-33.8L290,38.4L316.3,15
			l-9.6-11.4V1.2H340v2.4L322.4,15l-26.3,23.4H318l19.8,43.9H343.7z"/>
		<path fill="#474A58" d="M408.1,60.5c0,13.9-10.6,25.9-34.3,25.9c-13.3,0-24.2-3.7-24.2-3.7V59.4h2.4l15.4,22.3c0,0,3,0.6,5.6,0.6
			c7.1,0,10.8-4.4,10.8-10c0-5.8-4.1-10.2-9.1-13.9l-14.3-10.6c-7.3-5.4-10.8-12.1-10.8-20.6c0-14,9.6-27.2,30.4-27.2
			c11.4,0,23.3,4,23.3,4v21.8h-2.4L386,4.2c0,0-2.8-0.4-4.8-0.4c-7.6,0-10.1,4.9-10.1,9.4c0,4.8,2.9,9.1,9.2,13.8l15,11
			C403.6,44,408.1,51.4,408.1,60.5z"/>
		<path fill="#474A58" d="M523.3,46.3l-5.6,2v36.8h-2.5l-7.2-9.1c-6,5.2-15.5,10.3-29.8,10.3c-20.5,0-34.4-10.9-34.4-40
			C443.8,12,463.2,0,487.7,0c12.2,0,27.2,3,27.2,3v23.9h-1.8L496.9,4.7c0,0-2.8-1.2-7.1-1.2c-10.6,0-17.3,9.7-17.3,41.8
			c0,30.5,3.8,37,12.1,37c3.1,0,6.6-0.7,6.6-0.7V48.4l-9.4-2v-1.9h41.4V46.3z"/>
		<path fill="#474A58" d="M616.7,82.3v2.9h-33.1l-16.7-41.4c0,0,11.2-6.5,11.2-22.1c0-9.7-4.1-17.6-13-17.6h-1.6v78.2h9.8v2.9H526
			v-2.9h10V4.1h-10V1.2h41.2c25,0,38.5,5.6,38.5,19.3c0,14-14,22.8-33.1,23.9l23.8,3.6l15,34.3H616.7z"/>
		<path fill="#474A58" d="M687.6,59.9v25.3h-70.2v-2.9h10V4.1h-10V1.2h67.1v22.6h-2.2L666.6,4.1H655v36.1h7.6l12.8-10.6h1.9v24h-1.9
			l-12.8-10.6H655v39.2h12.5l17.8-22.4H687.6z"/>
		<path fill="#474A58" d="M777.4,82.3v2.9h-43.1v-2.9h8.8l-6-20.6h-26.2l-2.8,9.6l13.8,11.5v2.4h-31.1v-2.4l11.9-11.4l17.4-61.7
			L718,1.2h29.2l25.3,81.1H777.4z M735.7,57.2l-12.1-41.6l-11.5,41.6H735.7z"/>
		<path fill="#474A58" d="M851,26.5h-2.4L830.9,4.1H826v78.2h13.6v2.9h-54.8v-2.9h13.7V4.1h-4.9l-17.8,22.4h-2.4V1.2H851V26.5z"/>
		<path fill="#474A58" d="M95.1,148.1v78.2h10v2.9H57.5v-2.9h10v-78.2h-10v-2.9h47.5v2.9H95.1z"/>
		<path fill="#474A58" d="M194,147.6l-10,11.8v69.8h-16.8l-45.1-63.4V214l16.4,12.8v2.4H107v-2.4l10-11.9v-66.8h-10v-2.9h34.2
			l37.7,52.7v-37.3l-16.4-13v-2.4H194V147.6z"/>
		<path fill="#474A58" d="M308.6,226.3v2.9h-43.1v-2.9h8.8l-6-20.6h-26.2l-2.8,9.6l13.8,11.5v2.4h-31.1v-2.4l11.9-11.4l17.4-61.7
			l-2.2-8.5h29.2l25.3,81.1H308.6z M266.9,201.2l-12.1-41.6l-11.5,41.6H266.9z"/>
		<path fill="#474A58" d="M381.9,203.9v25.3h-72.1v-2.9h10v-78.2h-10v-2.9h50.3v2.9h-12.7v78.2h14.4l17.8-22.4H381.9z"/>
		<path fill="#474A58" d="M455.6,203.9v25.3h-72.1v-2.9h10v-78.2h-10v-2.9h50.3v2.9H421v78.2h14.4l17.8-22.4H455.6z"/>
		<path fill="#474A58" d="M516.5,186.2c0,31,4,40.8,14.4,40.8c2.8,0,5-0.6,5.2-0.6l18-24.1h1.8v23.9c-0.1,0-12.1,4.2-28.6,4.2
			c-26.4,0-39.6-10.7-39.6-39.6c0-35,19.4-46.8,43.3-46.8c12.8,0,24.8,3.5,24.8,3.5v23.9h-2l-17.8-23.3c0,0-1.9-0.6-4.8-0.6
			C520,147.5,516.5,157.4,516.5,186.2z"/>
		<path fill="#474A58" d="M645.5,226.3v2.9h-43.1v-2.9h8.8l-6-20.6h-26.2l-2.8,9.6l13.8,11.5v2.4H559v-2.4l11.9-11.4l17.4-61.7
			l-2.2-8.5h29.2l25.3,81.1H645.5z M603.9,201.2l-12.1-41.6l-11.5,41.6H603.9z"/>
		<path fill="#474A58" d="M697.9,172c0-14.2-4.9-22.6-13.6-23.8v78.1h11.4v2.9h-49v-2.9h10v-78.2h-10v-2.9h37.6
			c25.9,0,41.2,8,41.2,25.1c0,15.5-12.7,26.6-32.2,26.6c-3.5,0-5.4-0.4-5.4-0.4v-2.3c0,0,1.6-0.2,3.4-1.7
			C694.1,190.2,697.9,184.6,697.9,172z"/>
		<path fill="#474A58" d="M791.1,204.5c0,13.9-10.6,25.9-34.3,25.9c-13.3,0-24.2-3.7-24.2-3.7v-23.3h2.4l15.4,22.3
			c0,0,3,0.6,5.6,0.6c7.1,0,10.8-4.4,10.8-10c0-5.8-4.1-10.2-9.1-13.9l-14.3-10.6c-7.3-5.4-10.8-12.1-10.8-20.6
			c0-14,9.6-27.2,30.4-27.2c11.4,0,23.3,4,23.3,4v21.8h-2.4L769,148.2c0,0-2.8-0.4-4.8-0.4c-7.6,0-10.1,4.9-10.1,9.4
			c0,4.8,2.9,9.1,9.2,13.8l15,11C786.5,188,791.1,195.4,791.1,204.5z"/>
		<path fill="#474A58" d="M65.5,288c6.7,0,13.4,5.3,13.4,16.8c0,14.9-9.6,23.6-12,44.8h-3c-2.4-21.1-12-30-12-44.9
			C52,293.3,58.7,288,65.5,288z M55.6,364.8c0-6.1,4.2-10.3,10.3-10.3c5.8,0,9.6,3.8,9.6,9.6c0,6.1-4.2,10.3-10.3,10.3
			C59.4,374.4,55.6,370.6,55.6,364.8z"/>
		<path fill="#474A58" d="M196.8,329.9c0,25.9-19.3,41.3-35,41.3c-13,0-18.6-10.4-16-22.6c-4.8,14.2-11.6,22.6-21.6,22.6
			c-8.3,0-13.8-6-13.8-18c0-22,18.2-43.2,39.2-43.2c4.6,0,8,1,10.6,2.2c4.9-0.4,9.4-1.1,13.2-2.2l1.7,1.2l-7,39.6
			c-1.4,8.4,0.1,11.2,4.2,11.2c7.8,0,19.9-10.4,19.9-30.6c0-23.6-16.6-39.5-43.7-39.5c-31.8,0-53.9,21.7-53.9,51.1
			c0,27.8,19.8,44.9,49.4,44.9c8.6,0,12.4-1.4,12.4-1.4l0.5,3.7c0,0-4.6,1.6-13.9,1.6c-31.8,0-52.8-18.1-52.8-48
			c0-31.9,24-55.7,58.9-55.7C178.6,288,196.8,304.8,196.8,329.9z M148,327.8l0.1-1.1l2.4-13.3c-10.4,4.1-15.4,23.6-15.4,37.4
			c0,5.6,0.8,6.6,2,6.6C141.1,357.5,144,345.8,148,327.8z"/>
		<path fill="#474A58" d="M278.5,318.7l-4.2,25h14.3v4.1h-15l-4.3,25.4h-17.8l4.3-25.4h-17.3l-4.3,25.4h-17.8l4.3-25.4h-16.2v-4.1
			h16.9l4.2-25h-14.3v-4.1h15l4.3-25.4h17.8l-4.3,25.4h17.3l4.3-25.4h17.8l-4.3,25.4h16.2v4.1H278.5z M260.8,318.7h-17.3l-4.2,25
			h17.3L260.8,318.7z"/>
		<path fill="#474A58" d="M328.7,374.3l-2.3,19.3h-4.3l2.3-19.2c-12.8-0.2-23.2-3.7-23.2-3.7v-23.3h2.4l15.4,22.3c0,0,3,0.6,5.6,0.6
			c7.1,0,10.8-4.4,10.8-10c0-5.8-4.1-10.2-9.1-13.9L312,335.9c-7.3-5.4-10.8-12.1-10.8-20.6c0-14,9.6-27.2,30.4-27.2c1,0,2,0,3,0.1
			l2.3-19.3h4.3l-2.3,19.7c8.6,1.1,16,3.5,16,3.5v21.8h-2.4l-14.8-21.6c0,0-2.8-0.4-4.8-0.4c-7.6,0-10.1,4.9-10.1,9.4
			c0,4.8,2.9,9.1,9.2,13.8l15,11c8.2,6,12.7,13.3,12.7,22.4C359.8,361.8,350.2,373.3,328.7,374.3z"/>
		<path fill="#474A58" d="M365.8,307.4c0-12.7,6.4-19.4,18.6-19.4c11.9,0,18.1,6.4,18.1,18.7c0,12.7-6.4,19.4-18.6,19.4
			C372,326.2,365.8,319.8,365.8,307.4z M441.5,288.1l-64.9,89.4l-4.2-3.1l64.9-89.4L441.5,288.1z M389.3,307c0-11.8-1.4-16.4-5-16.4
			c-3.7,0-5.3,4.8-5.3,16.7c0,11.8,1.4,16.4,5,16.4C387.7,323.6,389.3,318.8,389.3,307z M411.4,355.7c0-12.7,6.4-19.4,18.6-19.4
			c11.9,0,18.1,6.4,18.1,18.7c0,12.7-6.4,19.4-18.6,19.4C417.6,374.4,411.4,368,411.4,355.7z M434.9,355.2c0-11.8-1.4-16.4-5-16.4
			c-3.7,0-5.3,4.8-5.3,16.7c0,11.8,1.4,16.4,5,16.4C433.3,371.9,434.9,367.1,434.9,355.2z"/>
		<path fill="#474A58" d="M491.4,330.5l-11-24.5l-11,24.5h-16.7L476,288h8.6l23.4,42.5H491.4z"/>
		<path fill="#474A58" d="M569.3,311.6c0,12.4-9.8,20.5-25.6,20.5c-5,0-9.7-0.8-12.1-1.3l12.2,16.9l-3.4,2.6L525.6,330l1.9-3.6
			c0,0,3.2,1.2,5.6,1.2c5.6,0,9.1-7,9.1-17.4c0-10.8-3.7-18.1-9.5-18.1c-1.4,0-2.8,0.5-2.8,0.5l-5.2,20.3c0,0-1.3,0.2-3,0.2
			c-3.5,0-8.9-1.1-8.9-7.4c0-8.3,8.8-17.6,26-17.6C556.4,288,569.3,297.6,569.3,311.6z M552.8,364.1c0,6.1-4.2,10.3-10.3,10.3
			c-5.8,0-9.6-3.8-9.6-9.6c0-6.1,4.2-10.3,10.3-10.3C549,354.5,552.8,358.3,552.8,364.1z"/>
		<path fill="#474A58" d="M649.4,345.6c0.4,1.3,0.5,2.8,0.5,4.3c0,10.7-8,24.5-38.3,24.5c-17.4,0-37-4.3-37-22.3
			c0-14.3,11.5-22.1,22.9-26.2c-8.8-1-17.4-5.2-17.4-16.3c0-17.5,20.6-21.6,35.2-21.6c11.3,0,20.9,2.4,20.9,2.4v23.4h-2.4
			l-14.8-21.6c0,0-2.2-0.4-3.5-0.4c-4.1,0-10,3.7-10,16.2c0,8.8,2.9,12.2,8.3,12.2c4.2,0,8.4-2,8.4-2v5.3c0,0-20,6.2-20,29.6
			c0,6.5,1.6,17.2,14.2,17.2c10.9,0,16.1-8.9,16.1-17.2c0-5-2.3-7.7-5.8-7.7c-4,0-6.1,3.2-6.1,8.2c0,1.1,0.1,2.4,0.5,3.7l-2.9,1
			c-2.5-4.7-4.1-9.7-4.1-14.8c0-16.4,16.4-17.6,26.6-18.4c9.1-0.6,11.6-3.7,11.6-7.6c0-1.9-0.6-3.8-1.8-5.4l3-1.8
			c7.9,4.8,11.9,12.8,11.9,20.2C665.5,338.4,661,345.1,649.4,345.6z"/>
		<path fill="#474A58" d="M715.2,316.2c-0.7,1.2-1.7,2.4-2.8,3.4l-16.8-15.1l3.6,11.4c2.3,8.6-1.6,11.5-6,11.5
			c-1.4,0-2.9-0.2-4.3-0.7l4.7-22l-8,8.6c-6.4,6.4-10.8,4.4-13,0.6c-0.7-1.2-1.2-2.6-1.6-4.1l21.5-7l-11.6-2.6
			c-8.6-2.3-9.1-7.1-7-10.9c0.7-1.3,1.7-2.4,2.8-3.4l16.7,14.8l-3.5-11c-2.3-8.6,1.6-11.5,6-11.5c1.4,0,2.9,0.2,4.3,0.7l-4.7,22
			l8-8.6c6.4-6.4,10.8-4.4,13-0.6c0.7,1.3,1.2,2.6,1.6,4.1l-21.1,7l11.3,2.6C716.9,307.6,717.5,312.4,715.2,316.2z"/>
		<path fill="#474A58" d="M762.2,278.4l1.7,2.4c-10.8,11-18,33.5-18,56.4c0,22.9,7.2,45.4,18,56.4l-1.7,2.4
			c-22.3-10.4-37.2-34-37.2-58.8C725,312.4,739.9,288.8,762.2,278.4z"/>
		<path fill="#474A58" d="M766.1,396l-1.7-2.4c10.8-11,18-33.5,18-56.4c0-22.9-7.2-45.4-18-56.4l1.7-2.4
			c22.3,10.4,37.2,34,37.2,58.8C803.3,362,788.4,385.6,766.1,396z"/>
	</g>
</g>
</svg>
