<?xml version="1.0" encoding="utf-8"?>
<!-- Generator: Adobe Illustrator 19.2.1, SVG Export Plug-In . SVG Version: 6.00 Build 0)  -->
<svg version="1.1" id="Layer_1" xmlns="http://www.w3.org/2000/svg" xmlns:xlink="http://www.w3.org/1999/xlink" x="0px" y="0px"
	 viewBox="0 0 778.9 391" enable-background="new 0 0 778.9 391" xml:space="preserve">
<g>
	<path fill="#E2E8E9" d="M316.2,82v0.7h-8l-24.4-34h-9.9v34h-7.1V9.2h20.9c13.4,0,23.5,5.9,23.5,18.6c0,10.4-7.7,18.2-19.6,19.7
		c1.9,2.5,3.8,5,5.3,7.1L316.2,82z M273.9,42.4h12.6c11,0,17-4.9,17-13.6s-4.8-13.1-17.4-13.1h-12.2V42.4z"/>
	<path fill="#E2E8E9" d="M372.6,55.6h-38.2c0.5,14.8,5.5,22.5,19.2,22.5c5.8,0,10.3-1.2,15.9-4.4h0.6v6.4c-3.9,2.4-9.8,4-17.7,4
		c-17.7,0-25.5-10.9-25.5-28.7c0-20.1,9.4-31.3,24.3-31.3c14.3,0,21.3,9.8,21.3,27.9V55.6z M334.5,49.9h31.2
		c-0.4-13.2-5.1-19.8-15-19.8C341.3,30.2,335.3,37.2,334.5,49.9z"/>
	<path fill="#E2E8E9" d="M456.4,25.5l-16.3,57.2h-6.4l-11.3-37.5c-0.4-1.2-1.3-5.5-2.1-9.5c-0.9,4-1.9,8.1-2.3,9.5l-11.6,37.5H400
		l-16.3-57.2h7.4l10.1,36.7c0.3,1.2,1.5,6.4,2.6,11.4c1.2-5.1,2.3-10.5,2.7-11.4l11.4-36.7h5.8l10.8,36.7c0.4,1.3,1.5,6.4,2.6,11.4
		c1-5,2.1-10.1,2.5-11.4l10.1-36.7H456.4z"/>
	<path fill="#E2E8E9" d="M469.6,5.5c0-3.5,2.2-5.5,5.6-5.5c3.2,0,5.3,2,5.3,5.3c0,3.5-2.3,5.5-5.6,5.5S469.6,8.8,469.6,5.5z
		 M471.6,25.5h7v57.2h-7V25.5z"/>
	<path fill="#E2E8E9" d="M532.1,26l-1.3,6.6h-0.5c-2.2-0.9-4.2-1.3-6.3-1.3c-6,0-10.1,5.2-15.2,13.9v37.4h-7V25.5h6.7v10.7
		c5.9-8.1,10.6-12.1,16.4-12.1C527.4,24.1,530,24.9,532.1,26z"/>
	<path fill="#E2E8E9" d="M72.8,168.3l-16.3,57.2h-6.4l-11.3-37.5c-0.4-1.2-1.3-5.5-2.1-9.5c-0.9,4-1.9,8.1-2.3,9.5l-11.6,37.5h-6.4
		L0,168.3h7.4L17.5,205c0.3,1.2,1.5,6.4,2.6,11.4c1.2-5.1,2.3-10.5,2.7-11.4l11.4-36.7h5.8L50.7,205c0.4,1.3,1.5,6.4,2.6,11.4
		c1-5,2.2-10.1,2.5-11.4l10.1-36.7H72.8z"/>
	<path fill="#E2E8E9" d="M125.7,186v39.5h-6.2v-7.6c-7.3,6.6-12.4,9-19.1,9c-11.9,0-17.5-7.8-17.5-16.6c0-11.6,9.4-17.4,21.8-17.4
		c2.3,0,6.3,0.2,13.9,0.7v-7.5c0-9.1-5-13.1-13.9-13.1c-6.2,0-12.9,1.6-18.7,4.9h-0.5v-6.4c5.2-3.1,11.8-4.7,20-4.7
		C118.1,166.9,125.7,172.8,125.7,186z M118.8,211v-11.6c-6.1-0.5-11.8-0.8-14.3-0.8c-8.9,0-14.1,4-14.1,11.4
		c0,6.1,3.5,10.8,11.2,10.8C108.1,220.8,112.8,217.3,118.8,211z"/>
	<path fill="#E2E8E9" d="M167.8,224.7l-1.7,10.5c-1.2,7.5-6.6,13-14.8,13c-2.2,0-4.6-0.3-7.8-1.9l1.5-5.6h0.4c2.1,1,3.5,1.3,5.6,1.4
		c4.6,0.1,8.2-2.8,9.1-8.9l1-8.2l-22.3-56.7h7.5l16,41.3c0.4,1,1.4,4.2,2.4,7.5c0.9-3.3,1.9-6.4,2.3-7.5l15.2-41.3h7.1L167.8,224.7z
		"/>
	<path fill="#E2E8E9" d="M209.2,168.3h14.5v6.3h-14.2v50.8h-7v-50.8h-9.3v-6.3h9.4c-0.9-3.4-1.7-6.9-1.7-9.8
		c0-9.1,5.5-14.5,14.4-14.5c2.8,0,5.6,0.5,9.9,2.6l-1.7,5.8h-0.4c-2.6-1.4-5.2-2.4-8.7-2.4c-4.1,0-6.6,2.4-6.6,8.9
		C207.9,163,208.7,166.3,209.2,168.3z"/>
	<path fill="#E2E8E9" d="M235.2,148.3c0-3.5,2.2-5.5,5.6-5.5c3.2,0,5.3,2,5.3,5.3c0,3.5-2.3,5.5-5.6,5.5S235.2,151.6,235.2,148.3z
		 M237.1,168.3h7v57.2h-7V168.3z"/>
	<path fill="#E2E8E9" d="M309.6,185.3v40.2h-7v-39.8c0-6.9-3-12.7-10.7-12.7c-5.3,0-10.2,2.8-17.7,11.7v40.8h-7v-57.2h6.7v8.8
		c8-8.2,12.9-10.2,18.7-10.2C304.2,166.9,309.6,174.5,309.6,185.3z"/>
	<path fill="#E2E8E9" d="M374.1,145.5v80h-6.4v-8.9c-6.2,6.9-12,10.3-19,10.3c-12.8,0-20.8-10.3-20.8-29.1c0-19.2,8.6-30.9,25-30.9
		c5.5,0,10.5,1.6,14.2,3.1v-24.6H374.1z M367.1,209.4V177c-4.4-2.3-9.3-4.1-14.2-4.1c-11.5,0-17.6,7.4-17.6,24
		c0,16.3,5.9,23.9,14.3,23.9C355.4,220.8,360.4,217.1,367.1,209.4z"/>
	<path fill="#E2E8E9" d="M395.3,148.3c0-3.5,2.2-5.5,5.6-5.5c3.2,0,5.3,2,5.3,5.3c0,3.5-2.3,5.5-5.6,5.5S395.3,151.6,395.3,148.3z
		 M397.3,168.3h7v57.2h-7V168.3z"/>
	<path fill="#E2E8E9" d="M469.8,185.3v40.2h-7v-39.8c0-6.9-3-12.7-10.7-12.7c-5.3,0-10.2,2.8-17.7,11.7v40.8h-7v-57.2h6.7v8.8
		c8-8.2,12.9-10.2,18.7-10.2C464.4,166.9,469.8,174.5,469.8,185.3z"/>
	<path fill="#E2E8E9" d="M538.2,229.7c0,11.2-11,18.5-27.3,18.5c-12,0-21.8-3.7-21.8-14.1c0-6.3,4-10.8,9.8-14.1
		c-5.3-1.7-7.7-4.9-7.7-9.4c0-4.9,2.7-7.8,6-10.6c-3.5-3.5-5.5-8.2-5.5-13.1c0-10.6,8.4-20,20.5-20c3.7,0,7.1,0.9,11.1,3.1l13-6.1
		h0.5v6.3c-0.5,0.3-1,0.6-1.6,0.9c-2.6,1.5-5.5,2.8-7.7,3.8c2.8,2.8,4.6,6.3,4.6,10.8c0,10.5-8.3,19.8-20.7,19.8
		c-3.6,0-6.8-0.8-9.5-2.1c-2.8,1.7-4.4,3.3-4.4,5.8c0,5.3,6,6.6,16.1,6.6C525,215.7,538.2,217.4,538.2,229.7z M531.3,231.4
		c0-9.5-10.8-9.6-18.2-9.6c-2.7,0-5.1-0.1-7.3-0.3c-6.7,3.5-9.8,7.5-9.8,11.5c0,6.9,6.3,9.4,16.2,9.4
		C522.8,242.3,531.3,238.9,531.3,231.4z M499,186.5c0,8.1,4.9,13.2,13,13.2c8.1,0,12.9-4.9,12.9-13.1c0-8.7-5.1-13.8-12.9-13.8
		C504.1,172.8,499,177.9,499,186.5z"/>
	<path fill="#E2E8E9" d="M649.1,168.3l-16.3,57.2h-6.4L615,187.9c-0.4-1.2-1.3-5.5-2.1-9.5c-0.9,4-1.9,8.1-2.3,9.5L599,225.5h-6.4
		l-16.3-57.2h7.4l10.1,36.7c0.3,1.2,1.5,6.4,2.6,11.4c1.2-5.1,2.3-10.5,2.7-11.4l11.4-36.7h5.8L627,205c0.4,1.3,1.5,6.4,2.6,11.4
		c1-5,2.1-10.1,2.5-11.4l10.1-36.7H649.1z"/>
	<path fill="#E2E8E9" d="M662.2,148.3c0-3.5,2.2-5.5,5.6-5.5c3.2,0,5.3,2,5.3,5.3c0,3.5-2.3,5.5-5.6,5.5S662.2,151.6,662.2,148.3z
		 M664.2,168.3h7v57.2h-7V168.3z"/>
	<path fill="#E2E8E9" d="M719.2,218.7v6.2c-3.1,1.5-6.6,2-10.5,2c-9.6,0-12.5-5.8-12.5-13.5v-38.8h-9.3v-6.3h9.3v-12.6l6.5-1.1h0.5
		v13.7h16v6.3h-16v37.2c0,4.8,0.9,8.8,6.8,8.8c3.3,0,6-0.5,8.7-1.9H719.2z"/>
	<path fill="#E2E8E9" d="M778.9,185.3v40.2h-7v-39.8c0-6.9-3-12.7-10.7-12.7c-5.3,0-10.2,2.8-17.7,11.7v40.8h-7v-80h7v31.4
		c7.8-8,12.7-9.9,18.5-9.9C773.5,166.9,778.9,174.5,778.9,185.3z"/>
	<path fill="#E2E8E9" d="M82.7,328.8v39.5h-6.2v-7.6c-7.3,6.6-12.4,9-19.1,9c-11.9,0-17.5-7.8-17.5-16.6c0-11.6,9.4-17.4,21.8-17.4
		c2.3,0,6.3,0.2,13.9,0.7v-7.5c0-9.1-5-13.1-13.9-13.1c-6.2,0-12.9,1.6-18.7,4.9h-0.5v-6.4c5.2-3.1,11.8-4.7,20-4.7
		C75,309.7,82.7,315.6,82.7,328.8z M75.7,353.8v-11.6c-6.1-0.5-11.8-0.8-14.3-0.8c-8.9,0-14.1,4-14.1,11.4c0,6.1,3.5,10.8,11.2,10.8
		C65,363.6,69.7,360.1,75.7,353.8z"/>
	<path fill="#E2E8E9" d="M176.5,313.9v75.7h-7v-29.8c-6.7,7-11.9,9.9-18.5,9.9c-13.4,0-20.7-10.5-20.7-28.8c0-19.5,8.4-31.1,26-31.1
		C163.2,309.7,172,311.9,176.5,313.9z M169.6,352.1v-33.5c-4.5-1.7-9.7-2.8-14.2-2.8c-11.6,0-17.7,7.6-17.7,24.3
		c0,15.6,5.3,23.6,14.2,23.6C157.8,363.6,162.6,360.3,169.6,352.1z"/>
	<path fill="#E2E8E9" d="M240.9,311.1v57.2h-6.4v-9.1c-8.1,8.5-13.1,10.5-19.1,10.5c-11.2,0-16.6-7.6-16.6-18.4v-40.2h7v39.8
		c0,6.9,3,12.7,10.5,12.7c5.3,0,10.2-2.8,17.7-11.7v-40.8H240.9z"/>
	<path fill="#E2E8E9" d="M261.7,291.1c0-3.5,2.2-5.5,5.6-5.5c3.2,0,5.3,2,5.3,5.3c0,3.5-2.3,5.5-5.6,5.5S261.7,294.4,261.7,291.1z
		 M263.7,311.1h7v57.2h-7V311.1z"/>
	<path fill="#E2E8E9" d="M324.2,311.6l-1.3,6.6h-0.5c-2.2-0.9-4.2-1.3-6.3-1.3c-6,0-10.1,5.2-15.2,13.9v37.4h-7v-57.2h6.7v10.7
		c5.9-8.1,10.6-12.1,16.4-12.1C319.5,309.7,322.1,310.5,324.2,311.6z"/>
	<path fill="#E2E8E9" d="M377.6,367.8v0.5h-8.1L350,342.9l-7.3,1.1v24.3h-7v-80h7v49.3l5.5-0.9l19.1-25.6h7.6v0.4l-16,21
		c-1.2,1.5-2.7,3.4-4.4,5.2c1.7,2,4.3,5.2,7.3,9.1L377.6,367.8z"/>
	<path fill="#E2E8E9" d="M409.1,367.5l-1.7,10.5c-1.2,7.5-6.6,13-14.8,13c-2.1,0-4.6-0.3-7.8-1.9l1.5-5.6h0.4c2.2,1,3.5,1.3,5.6,1.4
		c4.6,0.1,8.3-2.8,9.1-8.9l1-8.2L380,311.1h7.5l16,41.3c0.4,1,1.4,4.2,2.4,7.5c0.9-3.3,1.9-6.4,2.3-7.5l15.2-41.3h7.1L409.1,367.5z"
		/>
	<path fill="#E2E8E9" d="M514.3,288.3v80h-6.4v-8.9c-6.2,6.9-12,10.3-19,10.3c-12.8,0-20.8-10.3-20.8-29.1c0-19.2,8.6-30.9,25-30.9
		c5.5,0,10.5,1.6,14.2,3.1v-24.6H514.3z M507.3,352.2v-32.4c-4.4-2.3-9.3-4.1-14.2-4.1c-11.5,0-17.6,7.4-17.6,24
		c0,16.3,5.9,23.9,14.3,23.9C495.6,363.6,500.6,359.9,507.3,352.2z"/>
	<path fill="#E2E8E9" d="M578.6,341.2h-38.2c0.5,14.8,5.5,22.5,19.2,22.5c5.8,0,10.3-1.2,15.9-4.4h0.6v6.4c-3.9,2.4-9.8,4-17.7,4
		c-17.7,0-25.5-10.9-25.5-28.7c0-20.1,9.4-31.3,24.3-31.3c14.3,0,21.3,9.8,21.3,27.9V341.2z M540.5,335.5h31.2
		c-0.4-13.2-5.1-19.8-15-19.8C547.4,315.8,541.3,322.8,540.5,335.5z"/>
	<path fill="#E2E8E9" d="M622.5,361.5v6.2c-3.1,1.5-6.6,2-10.5,2c-9.6,0-12.5-5.8-12.5-13.5v-38.8h-9.3v-6.3h9.3v-12.6l6.5-1.1h0.5
		v13.7h16v6.3h-16v37.2c0,4.8,0.9,8.8,6.8,8.8c3.3,0,6-0.5,8.7-1.9H622.5z"/>
	<path fill="#E2E8E9" d="M677.8,328.8v39.5h-6.2v-7.6c-7.3,6.6-12.4,9-19.1,9c-11.9,0-17.5-7.8-17.5-16.6c0-11.6,9.4-17.4,21.8-17.4
		c2.3,0,6.3,0.2,13.9,0.7v-7.5c0-9.1-5-13.1-13.9-13.1c-6.2,0-12.9,1.6-18.7,4.9h-0.5v-6.4c5.2-3.1,11.8-4.7,20-4.7
		C670.1,309.7,677.8,315.6,677.8,328.8z M670.8,353.8v-11.6c-6.1-0.5-11.8-0.8-14.3-0.8c-8.9,0-14.1,4-14.1,11.4
		c0,6.1,3.5,10.8,11.2,10.8C660.1,363.6,664.8,360.1,670.8,353.8z"/>
	<path fill="#E2E8E9" d="M698.6,291.1c0-3.5,2.2-5.5,5.6-5.5c3.2,0,5.3,2,5.3,5.3c0,3.5-2.3,5.5-5.6,5.5S698.6,294.4,698.6,291.1z
		 M700.6,311.1h7v57.2h-7V311.1z"/>
	<path fill="#E2E8E9" d="M740.7,369.7c-7,0-9.9-4-9.9-11.7v-69.7h7v68.1c0,4.6,1.2,7,4.2,7c1.5,0,3.5-0.2,6-1.3h0.6v6.2
		C745.6,369.6,742.5,369.7,740.7,369.7z"/>
</g>
</svg>
