<?xml version="1.0" encoding="utf-8"?>
<!-- Generator: Adobe Illustrator 19.2.1, SVG Export Plug-In . SVG Version: 6.00 Build 0)  -->
<svg version="1.1" id="Layer_1" xmlns="http://www.w3.org/2000/svg" xmlns:xlink="http://www.w3.org/1999/xlink" x="0px" y="0px"
	 viewBox="0 0 838.1 481.8" enable-background="new 0 0 838.1 481.8" xml:space="preserve">
<g>
	<path fill="#E2E8E9" d="M294.5,11.4c-4.5,2.4-28.3,11.7-55.5,15.9c0.2,1.4,0.3,2.5,0.3,3.9c0,15.3-24.4,82.3-24.4,88.5
		c-2.4,0-6.7-1-6.7-6.3c0-7.9,21.7-62.4,23.5-85c-6.1,0.8-12.4,1.2-18.6,1.2c-20.7,0-37.9-1.4-37.9-11.8c0-7.9,16.3-13,35.5-13
		c12.1,0,21.4,5.5,25.8,14.1C268.1,12.4,297.2,0,298.6,0C300.4,1.9,301.1,7.8,294.5,11.4z M230.5,19.9c-2.7-5-9-7.2-17.5-7.2
		c-18.7,0-29.5,3.9-29.5,6.9s4.9,2.7,21,2.7C212.8,22.3,221.6,21.4,230.5,19.9z"/>
	<path fill="#E2E8E9" d="M362.1,63.9c-1.2,3.6-35.1,54.7-42.4,54.7c-10.5,0-15.7-7.2-15.7-19.6c0-2.8,0.4-6.7,1.1-11.1
		c-8.1,14.8-18,32.1-20.1,32.1c-9.4,0-19.6-9.4-19.6-23.2c0-5.5,0.6-10.8,1.6-15.3c-6.7-1.8-11.5-7-11.5-18.9
		c0-14.8,17.2-33.9,44.4-33.9c29.4,0,19.9,24.4,17.8,32.5c2.4,1.1,4.2,2.7,4.2,4.2c0,2.1-9.7,19.3-9.7,39.7c0,6.3,3.9,7.9,6.3,7.9
		s40.8-54.4,40.8-54.4C361.4,58.6,363.3,60.3,362.1,63.9z M268.7,74.5c3.1-9.9,7.3-15.9,7.3-15.9c3.1,0,8.8,2.4,8.8,5.7
		c0,0.6-2.2,4.9-4.8,10.6c11.5-2.5,25.9-11.1,30.1-13.3c0.4-3,10.8-26.8-5.5-26.8c-23.5,0-40.5,16.8-40.5,30.6
		C264.2,70.3,266,73.2,268.7,74.5z M308.6,69c-6.4,4-19.6,10.9-31.2,12.6c-2.1,5.5-3.9,11.7-3.9,16.8c0,13.5,9.1,15.1,9.3,15.1
		C283.7,113.5,302.3,80.2,308.6,69z"/>
	<path fill="#E2E8E9" d="M475.1,116.5c0,18.3-24.7,38.5-38.8,38.5c-17.8,0-23.5-8.9-23.5-19.6c0-11.4,11.5-23.5,12.3-23.5
		c2.7,0,7.2,3.3,6.6,7.5c-0.3,2.4-10.8,9.6-10.8,19c0,6,3,10.8,10.9,10.8c13.8,0,37.2-24.4,37.2-37.2c0-6.3-5.2-10-12.6-13.3
		c-6.1,7.8-12.1,13.3-14.7,13.3c-9.4,0-16.8-10.3-16.8-22.6c0-2.1,0.1-4.3,0.3-6.4c-2.1-1.8-4-3.9-5.8-6.1l-20.1,20.4
		c5.4,4.6,8.8,10.9,8.8,20.2c0,33.4-26.5,50.8-38.2,50.8c-15.7,0-21-7.9-21-15.3c0-12.9,17.7-33.4,38.5-54.4
		c-0.9-0.5-1.8-0.8-2.8-1.2c-7,8.5-13.8,14.7-16.5,14.7c-9.4,0-16.5-10.9-16.5-23.2c0-2.7,0.2-5.2,0.4-7.6
		C345.5,75.6,341,67.9,341,57c0-12,13.8-28.3,38.8-28.3c17.1,0,24.9,9.7,24.9,27.1c0,10.2-7.2,24-15.4,35.2c1.3,0.6,2.5,1.2,3.7,1.9
		c7.6-7.6,15.4-15.1,22.9-22.2c-1.8-3.9-2.7-8.4-2.7-13.8c0-12,12.9-28.3,38.8-28.3c16,0,24.4,9.4,24.4,27.1
		c0,10.5-7.5,25-15.6,36.7C468.9,97.3,475.1,104.2,475.1,116.5z M353.3,73c2.4-9.6,6.1-14.4,6.1-14.4c3.1,0,8.5,2.4,8.5,5.7
		c0,0.9-3.4,8.4-6,15.4c5.7,3.1,12.6,5.4,19.3,7.9c7.8-11.4,15.7-26.2,15.7-38.2c0-9.1-4-14.4-12.6-14.4c-21.4,0-35.2,15-35.2,25.5
		C349.2,65.7,350.7,69.7,353.3,73z M394.4,102.3c-19.8,20.7-38.5,42.3-38.5,52.8c0,6.1,5.2,7.3,9.4,7.3c12.1,0,36.4-24.6,36.4-48.6
		C401.7,108.9,398.9,105.3,394.4,102.3z M376.7,94.2c-5.5-2.1-11.5-4.5-16.8-7.5c-0.4,1.5-0.6,2.9-0.6,3.9c0,13.6,7.5,15,7.6,15
		C367.4,105.6,371.6,101.1,376.7,94.2z M422,65.1c4.9-4.8,9.6-9.3,13.6-13.5c3.1,0,8.5,2.4,8.5,5.7c0,1.1-5.7,13-9,23.1
		c5.5,3,12,5.2,18.3,8.1c7.5-11.7,15.4-27,15.4-38.5c0-7.9-2.9-14.8-12.6-14.8c-22.3,0-34.8,15-34.8,25.5
		C421.5,62.2,421.7,63.6,422,65.1z M426.8,74.2c0.6-2.5,1.4-5.1,2.1-7.3c-1.4,1.5-2.9,3-4.4,4.5C425.3,72.4,425.9,73.3,426.8,74.2z
		 M448.8,95.4c-5.2-2.1-10.8-4.3-15.9-7.2c-0.1,1-0.3,2.1-0.3,3c0,13.6,7.8,14.4,7.9,14.4C441,105.6,444.5,101.5,448.8,95.4z"/>
	<path fill="#E2E8E9" d="M572,62.2c0,3.1-33.3,57.9-64.2,57.9c-11.1,0-24.1-11.4-24.1-31.6c0-27.1,21.3-59.7,33.7-59.7
		c13.5,0,22,6.1,22,18.4c0,21.4-22.2,40-45.7,41.8c-0.1,1.4-0.1,2.7-0.1,4c0.1,15.1,10.3,20.8,13.6,20.8c25.2,0,60.9-55.3,61.5-55.3
		C570,58.6,572,59.8,572,62.2z M494.3,82.6c21.3-4.8,36.7-23.1,36.7-37.3c0-8.7-5.1-10.8-9.6-10.8C517.1,34.5,498.5,56.7,494.3,82.6
		z"/>
	<path fill="#E2E8E9" d="M640.2,62.2c0,3.1-13,21.4-30,21.4c-11.5,0-18.7-8.8-22-21.1l-24.6,56.1c-2.8,0-6.9-1-6.9-6.7
		c0-19.6,10.2-61.2,12.7-68.2c3.1,0,9,1.6,9,6c0,1.9-9.6,27.6-13.3,51.9l21.4-51.3c-0.1-1.2-0.1-2.2-0.1-3.4
		c0-17.4,7-33.1,10.9-33.1c4.4,0,10,3.3,10,5.5c0,1.3-8.2,19-13.5,30.6c1,15.9,5.5,28.3,17.5,28.3c12.7,0,26.5-19.5,26.5-19.5
		C639.3,58.6,640.2,60.6,640.2,62.2z"/>
	<path fill="#E2E8E9" d="M626,117.7c0-3.1,4.5-13,8.2-13c2.7,0,6.1,3.9,6.1,6.7c0,6.6-5.7,13.6-8.8,13.6
		C629,125.1,626,121.8,626,117.7z M631.7,91.5c0-49.9,21.7-78.6,22.8-78.6c2.2,0,7.5,2.4,7.5,6.9c0,5.4-21.4,28-24,72.3
		c-0.1,3.4-2.1,5.8-5.2,5.8C632.1,97.9,631.7,93.1,631.7,91.5z"/>
	<path fill="#E2E8E9" d="M108.3,298.6c4,4.2,2.8,9.6-3.3,13.8c-6.1,4.2-16.3,12.4-44.8,12.4c-27,0-60.1-12.7-60.1-59.2
		c0-39.9,28.5-73.8,65.4-73.8c42.9,0,57.7,26.5,57.7,50.2c0,28.3-18.7,56.5-34.3,56.5c-9.6,0-16-7.2-16-19.6c0-3.3,0.4-7.6,1.1-12
		c-8.2,14.8-19.2,33.4-22.2,33.4c-7.5,0-21.9-4.3-21.9-26.5s16-54.6,38.8-54.6c20.8,0,21.3,14.8,19,22.8c1.8,0.6,3.3,2,3.3,3.8
		c0,2.5-10,18.9-10,39.3c0,7.9,5.2,8.5,5.2,8.5c10.6,0,29.7-28.3,29.7-56.2c0-17.5-12.1-37.2-44.1-37.2c-32.4,0-62.1,28.9-62.1,70
		c0,42.1,28.8,46.6,49,46.6C87.1,316.9,103.3,301.9,108.3,298.6z M79.5,244.5c0-0.1,0.1-0.1,0.1-0.3c0.2-0.5,0.4-0.8,0.8-1V243
		c0-3,4.2-17.5-8.2-17.5c-15.7,0-33.7,30.6-33.7,54.9c0,13,9.6,13.5,10.6,13.3C50.2,293.5,71.5,258.3,79.5,244.5z"/>
	<path fill="#E2E8E9" d="M236.2,243.1c0,0-18.9,4-39.9,8.4c-10,24-14.8,41.2-15.4,42.4c-2.6,0-4.5-1.5-4.5-4.2
		c0-2.9,3.8-17.2,10.8-36.4c-6.1,1.4-12.3,2.6-18,3.8c-4.8,12.7-9.4,27.1-13.2,42.9c-2.5,0.1-4.3-1.1-4.5-3.8s2.4-17.1,8.8-37.3
		c-9.9,2-17.1,3.3-18.4,3.5c-4.9,0.3-5.8-4-5.8-6.3c2.2-0.5,13.3-3,27.3-6c1.3-4,2.8-8.2,4.6-12.6c-11.8,1.9-20.5,3.3-22,3.3
		c-4.9-0.2-7-3.5-6.9-7.4c2.5-0.3,16.3-3,33-5.8c5.5-13.2,12.4-27.3,20.8-41.5c2.7-0.1,8.4,3.1,6.4,7.6c-1.1,2.4-8.1,13.6-16.9,31.9
		c5.8-0.9,11.8-2,17.5-2.9c4.9-10.5,10.5-21.1,16.6-31.3c3.6-0.6,8.1,3.9,5.5,8.2c-4.2,7.2-8.1,14.4-11.7,21.3
		c11.4-1.8,20.8-3,24.9-3c6.7,0,7.2,5.2,7.2,6.4c0,0-17.1,3.1-37,6.6c-1.8,3.8-3.4,7.5-5.1,11.1c12.7-2.5,23.7-4.5,28.2-4.8
		C235.3,236.8,236.1,241.9,236.2,243.1z M190.8,244c1.5-3.6,3-7.5,4.6-11.2c-6,1-12,1.9-17.7,3c-1.6,3.8-3.3,7.9-5.1,12.1
		C178.6,246.7,184.8,245.4,190.8,244z"/>
	<path fill="#E2E8E9" d="M318.1,216.7c0,9.9-7,23.1-8.1,23.1c-3.4,0-6.6-2.8-7-4.9c0-3.4,6.6-11.7,6.6-20.7
		c0-9.4-4.6-11.8-13.5-12.1l-14.5,48.7c7.2,7.5,13.6,15.1,13.6,23.2c0,13.2-13.9,24.1-24.9,24.1c-1.1,0-1.9,0-2.8-0.1
		c-2.2,7.3-3.6,12.4-3.8,13.8c-2.5,0-4.9-0.7-4.9-5.1c0-1.9,0.6-5.7,1.8-10.8c-6.7-3.6-10.3-10.9-10.3-17.2c0-10,4-17.1,6.3-19.5
		c3.9,0.1,6.9,3.4,6.9,5.5c0,1.3-6.3,10.2-6.3,17.4c0,3.9,1.5,6.9,4.8,8.5c2.2-9.4,5.8-22,10.2-36.7c-9-9.3-18.9-19.3-18.9-30.4
		c0-13.2,11.2-29.8,37-29.8h0.1c1.1-3.8,2.2-7.5,3.4-11.2c3.9,0,6.3,4,5.1,9.3l-0.7,3C307.8,197.2,318.1,204.3,318.1,216.7z
		 M274.9,244.2c3.9-12.9,8.1-27.1,12.7-41.8c-16.2,1.8-26.7,9.4-26.7,19.9C261,229.6,267.6,236.8,274.9,244.2z M278.5,260.8
		l-9.4,31.2c5.8-0.1,17.2-7.2,17.2-16.2C286.3,270.9,283,265.9,278.5,260.8z"/>
	<path fill="#E2E8E9" d="M320.7,293.5c1.2-5.5,39.3-64.3,65.7-107.5c1.9,0,5.1,4,3.9,7.6c-3.4,11.1-65.8,104.8-66.3,104.8
		C322,298.5,320.2,295.5,320.7,293.5z M330.4,216.9c0-13.2,6.3-28.3,18-28.3c2.4,0,10,2.9,10,11.8c0,18.1-11.5,28.2-18,28.2
		C336.9,228.6,330.4,224.8,330.4,216.9z M352.2,194.8c-10.9-4.2-18.7,27-14.8,26.8C341.2,221.5,352.2,211.2,352.2,194.8z
		 M352.6,285.9c0-12,7.2-27.9,19.2-27.9c4.2,0,9.9,6.3,9.9,10.9c0,24-12.3,28.8-17.2,28.8C360.6,297.7,352.6,293.8,352.6,285.9z
		 M374.7,264.4c-11.1,0-17.4,27.3-14.4,27.3C369.6,291.7,377.2,273.3,374.7,264.4z"/>
	<path fill="#E2E8E9" d="M493.9,239.2c-3.6,1-7.2,1.9-12.7,2.5c1.8,1.9,3.3,5.2,3.3,10.2c0,9.9-8.1,28.2-25.5,38.8
		c7,8.1,13.8,13.9,18,16.9c0,0.6-1.6,3-4.8,3c-5.2,0-13.8-5.7-22.2-15.4c-6.3,2.4-13.6,3.9-21.9,3.9c-13.3,0-30.4-5.1-30.4-20.5
		c0-12.3,14.1-24.9,29.2-36.6c-0.3-3-0.5-6.3-0.5-9.4c0-15.9,6.9-38.5,25-38.5c5.1,0,18,4.5,18,15.7c0,12.3-16.9,24.6-33.1,36.9
		c3.1,15.3,10.2,28.2,17.8,38.2c15.4-8.7,24.1-23.2,24.1-36.1c0-3-0.9-4.9-2.2-6.4c-7,0.1-17.1-0.5-17.8-1.5c0-3.1,2.2-7.2,6.7-7.2
		c3.6,0,6.4,1,9.1,3c8.7-0.2,15.9-2.2,22.2-3.9C498,235.6,496.6,238.5,493.9,239.2z M445.2,289.2c-6.9-9.9-13.2-22.5-16.5-36.6
		c-11.8,9.1-21.6,18.3-21.6,27.1c0,10.5,7.6,13.2,15.7,13.2C431.1,292.9,438.6,291.6,445.2,289.2z M434.8,236.1
		c15.1-11.1,28.9-21.3,28.9-29.2c0-3.7-2.7-6.7-9.4-6.7c-6.6,0-19.6,8.7-19.6,30C434.7,232.2,434.8,234.1,434.8,236.1z"/>
	<path fill="#E2E8E9" d="M632.2,188.4c-10.8,12.9-34.2,16.6-46.9,17.5c-5.5,18.4-18.9,92.2-22.5,92.2h-1.5c-0.3,0.2-0.8,0.3-1.2,0.3
		c-12.4,0-20.7-64.3-23.1-102.7c-7.6,22.2-23.4,67.3-23.4,102.9c-4.2,0.5-6.3-2.2-6.3-7.6c0-49.6,27.4-115.2,28.5-115.2h0.5
		c4.6,0,10.8,1.2,10.8,7.8c0,44.2,7.8,86.7,13.2,100.3c3.6-22.5,17.7-85.2,21.6-85.2h0.1c12.4,0,38.1-8.8,48.1-20.4
		C633.7,179.4,635,184.9,632.2,188.4z M560.9,181.3c0-1,33.7-24.9,38.8-24.9c1.4,1.4,4,3.6,2.1,7.6c-1.5,3.1-13.3,10.8-35.5,19.3
		C563.3,184.6,560.8,182.2,560.9,181.3z"/>
	<path fill="#E2E8E9" d="M728.5,192.3c0,4.8-9.6,23.4-15.1,52.8c-4.3,0-5.8-1.6-5.8-5.2c0-2.8,7.2-30.9,12.6-42.7
		c-14.7,17.8-24,45.7-25.5,45.7c-3.3,0-6.4-1.5-6.4-5.5c0-11.4,6.6-32.2,9.6-43c-9,15.9-24.6,46.3-25.6,49.2c-1.5,0-4.6-0.5-4.2-4.5
		c0.4-4.9,21.6-41.2,30-54.1l-24.9,2.4c-0.6,6.7-15.3,39.7-15.3,55.9c-4,0.9-5.8-4.2-5.1-9.8c0.9-6.4,9.1-33.6,13-45.6
		c-7.2,0.6-13.2,1.1-15.4,1.1c-4.5,0-6.9-1.8-6.7-4c15.7-2.7,43.6-4.8,55.6-4.8c0.9,0,1.6,0,2.2,0.1c4.2,0,6.8,1.8,6.8,6.1
		c0,3.6-9.1,25.9-12.1,40.5c7.2-16.5,25-40.8,26.1-40.8C724.4,186,728.5,187,728.5,192.3z M703.7,184.8l0.2-0.1
		C703.9,184.6,703.7,184.6,703.7,184.8z"/>
	<path fill="#E2E8E9" d="M838.1,263.2c0,9.4-24.4,37.5-48.4,37.5c-14.1,0-38.2-3.1-39.3-35.1c-3.8,0.4-6.3,0.8-7,0.8
		c-4.9-0.1-7-3.5-6.9-7.4c1.6-0.3,7-1,14.2-2.2c0.5-3.6,1-7.2,1.9-10.6c-4.5,0.6-7.9,1.1-9.4,1.1c-4.8,0-8.5-3-8.4-6.9
		c3.1-0.6,11.2-2.1,21.1-3.6c10.6-25.6,34.5-44.1,52.6-44.1c8.2,0,26.2,6.5,26.2,24.7c0,8.7-3.6,17.7-4.8,17.7
		c-3.9,0-7.6-3.9-7.6-5.8c0-0.8,3.4-8.7,3.4-13.8c0-12-7.8-16.3-13.6-16.3c-15,0-32.7,16.2-43.2,35.7c15.1-2.1,30.9-3.8,37.5-2.8
		c6.7,0.9,9,5.5,9,6.7c-10.8,0.1-33.7,3.4-51.1,5.8c-1.4,3.6-2.4,7.2-3.3,10.8c19-2.9,43.3-6.3,51.7-6.3c6.7,0,7.2,5.2,7.2,6.4
		c0,0-37.6,5.8-60.3,9c-0.1,1.1-0.1,2.2-0.1,3.3c0,21.1,12.1,26.4,24.1,26.4c23.4,0,45.1-24.1,52.6-33.7
		C837.5,260.4,838.1,262,838.1,263.2z"/>
	<path fill="#E2E8E9" d="M89.7,404.5c-6,14.5-14.2,37.5-16.3,64.5c8.1-1.3,16.2-2.2,21.4-2.2c6.7,0,7.2,3.9,7.2,5.1
		c0,0-47.4,8.2-52.3,8.1c-4.9-0.1-7-1.9-6.9-5.8c3.1-0.5,13-2.4,23.8-4v-1.2c0.8-22.6,7.5-43.9,14.4-60
		c-8.5,9.7-19.3,18.9-26.5,19.9c-4.3,0.6-6.4-1.4-6.7-3.5c11.4-5.1,27.7-18.7,37.9-29.4c3.9-9.1,10.9-24.1,13.3-23.4
		c3.1,1.1,8.2,6.1,6.4,11.8C103.5,390,95.1,398.8,89.7,404.5z"/>
	<path fill="#E2E8E9" d="M180.9,476.4c0,1.2-1.5,5.2-7.2,5.2c-10.2,0-19.6-9.3-27.7-18.3c-10.8,10-19.8,16.6-21.6,16.6
		c-7.3,0-14.7-8.8-14.7-21.9c0-10.7,8.2-18.3,18-18.3c7,0,11.8,5.7,18.3,12.9c16.9-17.8,37.5-43.3,37.5-60.7
		c0-8.2-6.3-10.8-10.8-10.8c-20.8,0-36.1,15.6-36.1,31.8c0,6.6,2.2,10,3.6,13.3c-5.8,2.4-13.2-1.2-13.2-17.4
		c0-18.3,20.8-35.2,37.9-35.2c16,0,25.9,9.3,25.9,22.8c0,18.7-21,44.1-39.4,61.9C158.1,465.3,167.1,472.5,180.9,476.4z M141,457.8
		c-5.2-5.8-9.6-10.3-13-10.3c-5.4,0-11.4,3.6-11.4,13.2c0,5.7,4.3,12.4,7.5,12.4C124.6,473.1,131.8,466.9,141,457.8z"/>
	<path fill="#E2E8E9" d="M231.6,414.4c3.7-1.2,7.6-2,11.7-2c13,0,21,6.6,21,23.5c0,16-16.5,45.7-46.2,45.7
		c-23.1,0-27.7-16.5-27.7-21.9c0-5.4,4.5-7.5,8.2-7.5c0,3.8,3.4,23.7,16.9,23.7c16.3,0,40.3-19.3,40.3-44.8c0-7.6-2.1-12.6-7.3-12.6
		c-9.4,0-19,3.4-26.1,7.5c-4.9,5.4-10.9,11.4-12.3,10.5c-2.1-1.5-4.6-6.6-1.9-10.2c1.9-2.7,7-5.9,11.7-8.5
		c11.2-12.1,28.6-29.7,38.8-40.3c-16.3,6.1-37.2,13.2-46.5,13.2c-8.8,0-10.2-4.6-9.6-7.3c2.4,0,37.9-5.4,64.3-14.7
		c2.2,0.3,4.3,2.5,4.3,6.1C271.3,376.5,247.9,397.9,231.6,414.4z"/>
	<path fill="#E2E8E9" d="M324,442.8c-2.7,11.1-4.6,23.5-5.1,36.7c-4.2,0.4-6.4-2.2-6.3-7.7c0.3-9.6,1.4-18.9,2.8-27.6
		c-16.5,2.7-34.5,5.5-37,5.4c-3.4-0.1-7-3.4-6.9-5.8c-0.9-0.1,38.2-60.6,44.5-71.5c2.5,0.1,6.4,4.5,4.9,9
		c-2.7,8.1-33.6,48.6-41.2,61.2c9.3-1.6,24.3-4.4,37.2-6.1c6.3-29.8,17.1-51.9,17.7-51.9c2.2,0,7,2.7,7,6.6c0,3.5-9,20.1-15.7,44.2
		c4.5-0.6,8.2-0.9,10.9-0.9c6.7,0,7.2,3.9,7.2,5.1C344.1,439.5,335.2,441,324,442.8z"/>
	<path fill="#E2E8E9" d="M422.4,430c0,24.3-22.2,51.7-45.3,51.7c-22.2,0-27.6-14.7-27.6-21.1c0-7.8,2.1-10.5,6.9-10.5
		c0,10.5,3.9,25.3,18.4,25.3c24.9,0,39.9-34,39.9-52.5c0-7.8-4.5-15.6-12.4-15.6c-23.7,0-35.8,25.8-38.8,25.8
		c-3.9,0-4.5-4.2-4.5-6.7c0-1.5,6-21.7,10.8-37c-2.7-1-4.9-3.4-4.8-5.2c1.2-0.1,3.6-0.8,6.9-1.4c1.9-6.1,3.4-10.5,3.8-10.5
		c4.3,0,6.1,2,6.1,5.5c0,0.5-0.3,1.5-0.8,3c16.6-3.5,41.1-8.4,50.5-8.5c6.6-0.1,7.2,4.9,7.2,6.1c0,0-43.6,8.1-60.6,10.6
		c-3,8.7-7.6,20.7-10.8,30.1c6-8.4,17.2-18.6,30.7-18.6C407.7,400.6,422.4,407.2,422.4,430z"/>
	<path fill="#E2E8E9" d="M497.2,433.6c0,28.6-26.8,45.7-41.5,45.7c-21.3,0-23.7-17.1-23.7-30.4c0-38.5,33.4-76.8,54.3-76.8
		c6.7,0,9,3.6,9,6.3c-20.4,0-50.4,28.8-55.6,63.6c6.4-13.3,22.2-33.1,37.3-33.1C489.3,408.9,497.2,421.8,497.2,433.6z M488.2,430.2
		c0-4.5-0.1-14.8-8.1-14.8c-16.8,0-38.8,29.2-41.2,41.7c1,9,5.2,16,14.5,16C467.8,473.1,488.2,453.9,488.2,430.2z"/>
	<path fill="#E2E8E9" d="M585.1,375.9c-2.5,3.4-6.3,6.1-10,8.1c-6.6,7.9-17.7,22.6-27.7,40c3.6-0.5,7-0.6,10.3-0.6s5.7,1.9,5.5,5.2
		c-7.8,1-14.4,1.9-20.1,3c-8.1,15.3-15,32.1-17.5,48.4c-4.2-0.2-7-3.2-6.6-8.4c0.9-10,6.9-24,14.7-38.4c-11.7,2.1-17.8,3.8-20.8,3.8
		c-4.2,0-6.1-2.2-6.1-4.9c0,0,15.1-4.5,31.6-7c8.2-14.2,17.7-28,24.6-37.8c-18,6.4-37.6,10-46.3,10c-8.8,0-11.7-6.9-11.1-9.6
		c2.2,0,35.1,0.8,64-9.4c4.6-6,10.3-12.1,11.7-12.1C583,366.1,588.1,371.8,585.1,375.9z"/>
	<path fill="#E2E8E9" d="M643.6,433.2c0,29.1-30.9,47.7-52,47.7c-8.7,0-22.9-5.2-22.9-24.7c0-13.3,10.5-28.3,24.9-37.3
		c-4.4-2.1-7.8-6.9-7.8-12.7c0-13.9,18.3-32.8,37.5-32.8c7.9,0,18,3.1,18,14.1c0,7.3-5.7,16.9-15.3,23.8
		C635.6,413.1,643.6,420,643.6,433.2z M637.4,430.2c0-8.1-7.8-12.4-16-12.4c-22.5,0-44.7,24.6-44.7,42.4c0,7.3,2.7,14.8,11.2,14.8
		C610.1,475,637.4,450.9,637.4,430.2z M592.9,408.1c0,2.7,0.3,5.4,6,5.4c19.2,0,36.7-19.8,36.7-28c0-2.9-1.6-4.8-6.9-4.8
		C609.5,380.7,592.9,397.8,592.9,408.1z"/>
	<path fill="#E2E8E9" d="M713.9,400.8c0,39.7-17.5,79.5-51.6,79.5c-11.5,0-14.4-7.8-11.4-12.8c1.4,0.9,4,4.8,10.8,4.8
		c21.9,0,43.6-23.4,45.7-68.8c-11.1,21.1-26.5,40.8-36,40.8c-5.7,0-20.2-2.8-20.2-24.7c0-19.3,15-45.7,41.7-45.7
		c19.5,0,19,16.3,18.6,23.2C712.9,397.6,713.9,398.8,713.9,400.8z M705.4,395.2c0.3-6,0.9-15.1-10.3-15.1
		c-19.8,0-35.1,27.4-35.1,43.5c0,8.5,4.9,14.5,10.2,14.5C677.3,438.1,700.3,405.3,705.4,395.2z"/>
	<path fill="#E2E8E9" d="M720.4,443.8c0-36,20.4-70.2,48.6-70.2c11.2,0,22.9,10.5,22.9,28.9c0,41.8-25.6,76-48.6,76
		C726.4,478.6,720.4,459,720.4,443.8z M783.4,397.5c0-9.8-3.4-17.5-11.8-17.5c-19.8,0-41.8,32.1-41.8,68.2c0,11.4,3.1,24,10,24
		C760,472.2,783.4,433.3,783.4,397.5z"/>
</g>
</svg>
