<?xml version="1.0" encoding="UTF-8"?>
<svg xmlns="http://www.w3.org/2000/svg" xmlns:xlink="http://www.w3.org/1999/xlink" version="1.2" >
<font id="Cyrulik Rounded">
<font-face  font-family="Cyrulik" units-per-em="1000" ascent="770" descent="-230" font-style="normal" font-weight="400" font-stretch="normal" cap-height="696" x-height="518" underline-position="-75" underline-thickness="50" />
<missing-glyph  horiz-adv-x="500" d="M410 770 L93 770 L93 -230 L410 -230 L410 770 Z M333 703 L333 670 L267 670 L267 633 L333 633 L333 600 L167 600 L167 633 L233 633 L233 670 L168 670 L168 703 L333 703 Z M267 574 L267 504 L333 504 L333 470 L167 470 L167 574 L267 574 Z M233 540 L200 540 L200 504 L233 504 L233 540 Z M333 443 L333 410 L267 410 L267 340 L167 340 L167 373 L233 373 L233 410 L167 410 L167 443 L333 443 Z M333 383 L333 283 L167 283 L167 317 L300 317 L300 383 L333 383 Z M333 261 L333 148 L167 148 L167 261 L200 261 L200 181 L300 181 L300 228 L267 228 L267 205 L233 205 L233 261 L333 261 Z M333 88 L333 -25 L167 -25 L167 88 L333 88 Z M300 55 L200 55 L200 8 L300 8 L300 55 Z M333 -48 L333 -81 L301 -81 L231 -128 L333 -128 L333 -161 L167 -161 L167 -128 L237 -81 L167 -81 L167 -48 L333 -48 Z " />
<glyph glyph-name="NULL" d="" />
<glyph glyph-name="CR" unicode="&#xd;" horiz-adv-x="250" d="" />
<glyph glyph-name="space" unicode="&#x20;" horiz-adv-x="270" d="" />
<glyph glyph-name="exclam" unicode="&#x21;" horiz-adv-x="195" d="M165 633 C165 689 173 747 164 762 C146 779 122 791 78 791 C66 791 48 789 41 785 C18 758 29 713 29 633 L30 503 L29 356 L29 308 C29 296 29 279 35 266 C54 258 66 257 92 257 C113 257 167 257 167 318 L168 470 L165 633 Z M152 159 C126 183 57 180 36 147 C17 110 17 44 41 12 C68 -8 144 -18 162 27 C174 63 174 131 152 159 L152 159 Z " />
<glyph glyph-name="quotedbl" unicode="&#x22;" horiz-adv-x="900" d="" />
<glyph glyph-name="numbersign" unicode="&#x23;" horiz-adv-x="636" d="M611 413 C621 452 621 462 611 503 C578 504 545 504 511 504 C514 561 517 618 522 672 C524 678 524 680 521 686 C513 690 464 704 407 689 L395 504 C352 504 308 504 265 503 C269 560 274 617 278 672 C279 678 279 680 275 686 C269 690 212 704 155 689 C155 689 149 609 142 503 C107 503 73 503 39 504 C30 462 30 452 39 410 C71 410 103 410 136 410 L127 280 C89 280 53 280 17 281 C8 239 8 227 17 185 L121 185 C113 76 108 -8 108 -8 C135 -18 198 -18 228 -11 C232 52 237 118 242 186 L376 186 C369 76 364 -8 365 -8 C392 -18 452 -18 482 -11 C488 51 492 118 496 188 C528 188 559 188 590 189 C596 231 596 243 590 285 C561 285 531 285 500 285 L506 412 C542 412 577 413 611 413 L611 413 Z M382 283 C338 282 293 282 249 281 L258 410 C302 411 346 411 390 411 C387 369 384 325 382 283 L382 283 Z " />
<glyph glyph-name="dollar" unicode="&#x24;" horiz-adv-x="900" d="" />
<glyph glyph-name="percent" unicode="&#x25;" horiz-adv-x="900" d="" />
<glyph glyph-name="ampersand" unicode="&#x26;" horiz-adv-x="900" d="" />
<glyph glyph-name="quotesingle" unicode="&#x27;" horiz-adv-x="900" d="" />
<glyph glyph-name="parenleft" unicode="&#x28;" horiz-adv-x="900" d="" />
<glyph glyph-name="parenright" unicode="&#x29;" horiz-adv-x="900" d="" />
<glyph glyph-name="asterisk" unicode="&#x2a;" horiz-adv-x="410" d="M365 603 C359 632 339 668 315 686 C299 675 268 650 239 625 C246 672 252 731 252 741 C225 753 185 756 156 746 C156 723 161 668 167 624 C137 649 105 674 89 686 C65 668 45 632 39 603 C47 597 96 571 139 551 C109 519 75 481 62 462 C80 440 114 416 143 411 C149 419 179 470 201 512 C224 470 254 419 260 411 C288 416 324 437 339 464 C327 482 294 519 265 551 C308 571 357 597 365 603 L365 603 Z " />
<glyph glyph-name="plus" unicode="&#x2b;" horiz-adv-x="900" d="" />
<glyph glyph-name="comma" unicode="&#x2c;" horiz-adv-x="192" d="M51 159 C47 141 39 96 39 53 C23 15 15 -29 5 -66 C21 -75 60 -107 96 -105 L123 -104 C147 -66 164 2 180 161 C158 170 120 176 84 170 C69 165 59 164 51 159 L51 159 Z " />
<glyph glyph-name="hyphen" unicode="&#x2d;" horiz-adv-x="308" d="M23 341 C8 299 8 272 23 230 C146 230 162 231 285 230 C300 272 300 299 285 341 C162 353 146 338 23 341 L23 341 Z " />
<glyph glyph-name="period" unicode="&#x2e;" horiz-adv-x="192" d="M150 155 C125 179 56 176 35 143 C15 105 15 39 39 8 C66 -12 143 -23 161 23 C173 59 173 126 150 155 L150 155 Z " />
<glyph glyph-name="slash" unicode="&#x2f;" horiz-adv-x="285" d="M-12 -149 C15 -159 89 -159 119 -152 C191 108 249 434 314 692 C315 698 315 699 317 705 C309 710 243 723 189 708 C189 708 156 576 132 462 C92 267 56 92 -12 -149 L-12 -149 Z " />
<glyph glyph-name="zero" unicode="0" horiz-adv-x="451" d="M431 342 L431 357 C428 553 398 701 236 701 L196 701 L196 700 C52 689 23 545 20 357 C20 352 20 347 20 342 L20 329 C22 113 53 -9 211 -11 L236 -11 C399 -11 429 111 431 329 L431 342 Z M269 62 L182 62 C176 94 170 199 170 343 C170 496 176 604 182 638 L269 638 C275 604 281 496 281 343 C281 199 275 94 269 62 L269 62 Z " />
<glyph glyph-name="one" unicode="1" horiz-adv-x="299" d="M278 381 L278 696 L275 696 C238 704 201 704 164 696 C125 652 75 608 16 564 C10 530 16 496 35 461 C81 489 118 525 144 568 L146 570 L144 420 L143 2 C188 -6 234 -6 279 0 L278 381 Z " />
<glyph glyph-name="two" unicode="2" horiz-adv-x="407" d="M266 95 L152 95 C283 268 387 397 387 545 C387 680 278 708 198 708 C126 708 78 684 39 654 C36 622 45 585 73 554 C112 570 141 596 164 625 L231 625 L231 401 C160 283 89 170 19 68 C13 47 14 22 20 0 L375 0 C383 56 383 112 361 168 C328 158 285 119 266 95 L266 95 Z " />
<glyph glyph-name="three" unicode="3" horiz-adv-x="432" d="M326 366 C383 408 397 468 397 530 C397 647 334 708 205 708 C136 708 86 686 44 663 C37 615 44 564 67 514 C116 548 153 591 178 641 L248 641 L247 381 L163 381 C125 384 106 385 90 386 C78 360 78 335 91 309 C106 309 125 310 163 314 L245 314 L248 201 L248 47 L155 47 C130 88 87 141 46 160 C27 120 19 70 20 19 C59 4 109 -11 206 -11 C352 -11 412 56 412 189 C412 268 386 337 326 366 L326 366 Z " />
<glyph glyph-name="four" unicode="4" horiz-adv-x="477" d="M453 239 C427 238 405 236 379 232 L379 696 C320 704 266 704 215 696 C153 531 89 372 20 224 C16 204 16 184 20 164 L235 164 L235 0 C284 -7 333 -8 380 0 L380 162 C404 160 427 159 453 159 C460 186 460 212 453 239 L453 239 Z M101 231 C148 337 194 456 235 575 L236 385 L236 231 L101 231 Z " />
<glyph glyph-name="five" unicode="5" horiz-adv-x="419" d="M224 404 L195 404 L195 635 L285 635 C314 633 339 629 366 629 C370 651 370 678 366 700 C324 700 281 696 239 696 L60 696 L60 336 L228 337 C231 240 231 143 228 47 L153 47 C130 92 94 127 47 172 C32 116 23 73 21 19 C60 5 114 -11 209 -11 C363 -11 399 102 399 201 C399 304 364 404 224 404 L224 404 Z " />
<glyph glyph-name="six" unicode="6" horiz-adv-x="447" d="M221 420 C211 420 201 420 193 419 L341 696 C298 708 255 708 221 698 C53 423 20 337 20 197 C20 32 124 -12 218 -12 C334 -12 427 42 427 210 C427 413 299 420 221 420 L221 420 Z M275 56 L176 56 C172 155 172 254 176 353 L275 353 C279 254 279 155 275 56 L275 56 Z " />
<glyph glyph-name="seven" unicode="7" horiz-adv-x="392" d="M372 696 L124 696 L20 698 C17 675 17 652 20 629 C43 629 85 632 108 636 L238 636 L63 0 C107 -6 154 -11 197 0 L372 651 C377 666 374 681 372 696 L372 696 Z " />
<glyph glyph-name="eight" unicode="8" horiz-adv-x="466" d="M446 180 C446 285 425 327 353 363 C388 383 423 426 423 512 C423 653 353 708 233 708 C115 708 43 656 43 512 C43 426 78 383 113 363 C41 327 20 285 20 180 C20 32 105 -11 233 -11 C371 -11 446 29 446 180 L446 180 Z M189 641 L278 641 C280 557 280 473 278 389 L189 389 C186 473 186 557 189 641 L189 641 Z M288 47 L177 47 C175 138 175 229 177 320 L288 320 C291 229 291 138 288 47 L288 47 Z " />
<glyph glyph-name="nine" unicode="9" horiz-adv-x="447" d="M214 708 C121 708 20 654 20 486 C20 284 148 276 211 276 C227 276 241 276 254 277 C206 186 157 95 104 9 C141 -7 182 -6 238 0 C394 291 427 377 427 500 C427 662 320 708 214 708 L214 708 Z M170 344 C167 443 167 542 170 641 L271 641 C273 542 274 443 272 344 L170 344 Z " />
<glyph glyph-name="colon" unicode="&#x3a;" horiz-adv-x="192" d="M150 513 C125 537 56 534 35 501 C15 464 15 398 39 366 C66 347 143 336 161 381 C173 417 173 485 150 513 L150 513 Z M150 155 C125 179 56 176 35 143 C15 105 15 39 39 8 C66 -12 143 -23 161 23 C173 59 173 126 150 155 L150 155 Z " />
<glyph glyph-name="semicolon" unicode="&#x3b;" horiz-adv-x="231" d="M183 513 C158 537 89 534 68 501 C48 464 48 398 72 366 C99 347 176 336 194 381 C206 417 206 485 183 513 L183 513 Z M63 159 C59 141 51 96 51 53 C35 15 27 -29 17 -66 C33 -75 72 -107 108 -105 L135 -104 C159 -66 176 2 192 161 C170 170 132 176 96 170 C81 165 71 164 63 159 L63 159 Z " />
<glyph glyph-name="less" unicode="&#x3c;" horiz-adv-x="900" d="" />
<glyph glyph-name="equal" unicode="&#x3d;" horiz-adv-x="900" d="" />
<glyph glyph-name="greater" unicode="&#x3e;" horiz-adv-x="900" d="" />
<glyph glyph-name="question" unicode="&#x3f;" horiz-adv-x="326" d="M311 618 C311 713 257 780 134 780 C65 780 23 764 -27 744 C-38 719 -33 659 -9 635 C60 635 92 692 113 714 C171 714 176 632 174 573 C143 537 96 497 56 431 L59 362 C62 279 62 278 68 266 C87 258 99 257 125 257 C146 257 198 257 200 318 L195 425 C225 461 311 524 311 618 L311 618 Z M185 159 C159 183 90 180 69 147 C50 110 50 44 74 12 C101 -8 177 -18 195 27 C207 63 207 131 185 159 L185 159 Z " />
<glyph glyph-name="at" unicode="&#x40;" horiz-adv-x="900" d="" />
<glyph glyph-name="A" unicode="A" horiz-adv-x="495" d="M319 696 C267 703 221 699 193 695 L196 682 C198 672 200 661 203 651 C171 546 40 117 6 4 C10 -6 48 -16 108 -3 C111 5 112 11 114 18 L146 131 C226 129 251 130 326 131 C337 85 347 40 355 0 C389 -14 452 -15 502 0 C443 222 381 485 319 696 L319 696 Z M170 217 C192 298 219 392 243 475 C263 390 285 301 305 217 C254 219 219 215 170 217 L170 217 Z " />
<glyph glyph-name="B" unicode="B" horiz-adv-x="474" d="M361 368 C390 372 438 411 438 503 C438 711 350 716 56 696 L56 0 C292 -13 452 -32 452 180 C452 288 427 346 361 368 L361 368 Z M287 621 C291 601 298 402 284 396 C249 394 220 394 199 394 L197 620 C224 621 256 621 287 621 L287 621 Z M296 75 L198 75 L199 317 L298 317 C302 286 302 100 296 75 L296 75 Z " />
<glyph glyph-name="C" unicode="C" horiz-adv-x="430" d="M280 74 L212 74 C207 105 203 213 203 344 C203 474 207 582 212 614 L289 614 C302 589 343 544 388 512 C415 528 423 590 428 655 C369 688 321 696 264 696 L239 696 C93 696 31 570 31 344 C31 138 64 -8 259 -9 L292 -9 C335 -9 373 0 420 20 C416 74 405 128 392 167 C340 138 296 93 280 74 L280 74 Z " />
<glyph glyph-name="D" unicode="D" horiz-adv-x="516" d="M282 696 L230 696 C180 696 92 695 57 681 L57 591 L60 401 L57 71 L56 0 L57 0 L56 -2 C98 -5 141 -8 195 -8 L273 -8 C430 -3 485 152 485 341 C485 557 423 696 282 696 L282 696 Z M298 75 L201 75 L203 381 L200 614 L296 614 C304 596 314 534 314 338 C314 224 306 114 298 75 L298 75 Z " />
<glyph glyph-name="E" unicode="E" horiz-adv-x="403" d="M288 72 L204 72 L205 304 C254 304 303 305 354 307 C357 340 360 365 357 398 L307 398 C260 398 232 394 206 393 L203 620 L288 620 C306 591 339 561 368 547 C384 594 396 651 384 695 L327 695 C255 693 218 690 140 690 L134 690 C102 690 80 686 66 681 L57 672 C59 642 60 612 60 591 L63 401 L60 71 L56 0 C78 -5 138 0 179 0 L203 0 L203 1 C244 -1 277 -3 327 -3 L384 -3 C396 41 384 98 368 145 C339 131 306 101 288 72 L288 72 Z " />
<glyph glyph-name="F" unicode="F" horiz-adv-x="403" d="M298 618 C316 589 339 561 368 547 C381 598 396 651 384 695 L327 695 C255 693 218 690 140 690 L134 690 C102 690 80 686 66 681 L57 672 C59 642 60 612 60 591 L63 401 L60 71 L56 0 C78 -5 138 -3 179 -3 L203 0 L205 304 C254 304 301 305 352 307 C366 327 367 365 357 398 L310 398 C255 398 240 393 206 392 L203 618 L298 618 Z " />
<glyph glyph-name="G" unicode="G" horiz-adv-x="520" d="M459 63 L458 296 L458 373 C413 374 405 375 330 375 L286 375 C280 334 279 311 289 276 C308 278 323 279 334 280 L334 207 C322 145 296 100 275 75 L233 75 C204 86 187 182 187 344 C187 476 203 586 224 619 L296 619 C310 588 360 534 387 522 C415 549 433 593 440 662 C388 688 343 696 291 696 L251 696 C81 696 31 519 31 344 C31 111 97 -14 242 -9 L272 -8 C291 -2 312 29 332 67 L332 39 L335 -2 C351 -14 402 -18 446 -8 L464 -2 L459 63 Z " />
<glyph glyph-name="H" unicode="H" horiz-adv-x="555" d="M436 690 C404 690 380 686 367 681 L358 672 C358 642 356 536 356 515 L356 387 L307 387 C277 387 244 386 204 386 L201 657 C201 690 153 690 132 690 C101 690 78 686 65 681 L56 672 C57 642 59 612 59 591 L62 401 L59 71 L57 0 C80 -5 137 -3 177 -3 L201 0 L203 302 C258 301 306 303 355 305 L353 71 L355 0 C377 -5 434 -3 445 -3 L499 0 L499 657 C499 690 457 690 436 690 L436 690 Z " />
<glyph glyph-name="I" unicode="I" horiz-adv-x="259" d="M201 381 L201 672 C201 685 195 693 186 699 C167 705 153 705 132 705 C101 705 78 700 65 696 L56 687 C57 657 57 627 57 609 L59 405 L56 71 L57 0 C80 -5 113 -6 152 -6 L203 0 L201 381 Z " />
<glyph glyph-name="J" unicode="J" horiz-adv-x="401" d="M330 694 C310 700 297 700 276 700 C241 700 220 700 199 694 C201 660 201 625 201 601 L202 341 C202 211 201 105 199 68 L154 68 C141 105 108 179 66 227 C49 172 34 96 29 20 C94 0 128 -9 182 -9 L215 -9 C341 -9 345 130 345 287 L345 667 C345 681 339 688 330 694 L330 694 Z " />
<glyph glyph-name="K" unicode="K" horiz-adv-x="503" d="M339 370 C386 471 431 580 466 673 C423 713 378 701 342 684 C338 649 328 589 323 554 C296 483 285 452 261 391 L201 390 L201 667 C201 680 195 688 186 694 C167 700 153 700 132 700 C101 700 78 695 65 691 L56 682 C57 652 57 622 57 604 L59 404 L56 71 L57 0 C80 -5 113 -6 152 -6 L203 0 L201 306 L232 306 C260 210 290 104 350 -9 C366 -10 391 -10 435 -5 C454 1 476 19 490 38 C468 77 343 355 339 370 L339 370 Z " />
<glyph glyph-name="L" unicode="L" horiz-adv-x="403" d="M373 167 C325 140 288 100 267 77 C254 73 229 72 203 72 L201 381 L203 673 C203 706 155 706 134 706 C102 706 80 702 66 697 L57 688 C59 658 60 628 60 607 L59 420 L59 390 L60 71 L56 0 C66 -2 85 -2 107 -2 C195 -4 307 -2 383 0 C389 56 380 111 373 167 L373 167 Z " />
<glyph glyph-name="M" unicode="M" horiz-adv-x="693" d="M453 693 C388 459 370 362 345 251 C326 326 307 391 280 488 L235 668 L227 690 C212 696 199 698 184 699 C136 702 95 702 60 687 L51 678 L51 591 L50 420 L50 390 L51 71 L50 0 C72 -5 93 -3 133 -3 L151 0 L151 401 L153 471 C200 300 233 182 286 -2 C317 -6 325 -6 363 -2 C415 165 454 316 496 483 L496 390 L497 71 L496 0 C518 -5 577 -3 617 -3 L635 0 L635 381 L637 668 L637 690 C629 695 498 710 453 693 L453 693 Z " />
<glyph glyph-name="N" unicode="N" horiz-adv-x="561" d="M446 700 C434 700 417 700 404 696 L396 682 C396 652 395 622 395 601 L395 390 L396 272 C328 415 302 448 179 688 C177 696 150 702 116 702 C106 702 60 702 50 688 C54 671 58 662 66 650 C67 620 66 612 66 591 L64 420 L64 236 L66 0 C88 -5 116 -3 157 -3 L175 0 L172 410 L172 418 C237 293 316 156 391 0 C410 -8 432 -6 475 -6 L503 2 L503 381 L505 637 L505 688 C490 700 467 700 446 700 L446 700 Z " />
<glyph glyph-name="O" unicode="O" horiz-adv-x="518" d="M487 344 L487 346 C486 579 425 696 279 696 L239 696 C93 696 32 579 31 346 C31 345 31 344 31 344 L31 341 C32 108 93 -9 239 -9 L279 -9 C425 -9 486 108 487 341 L487 344 Z M304 76 L214 76 C200 87 188 154 188 344 C188 533 200 600 214 611 L304 611 C318 600 330 533 330 344 C330 154 318 87 304 76 L304 76 Z " />
<glyph glyph-name="P" unicode="P" horiz-adv-x="476" d="M268 692 L223 692 C215 692 173 691 127 691 C121 691 77 696 56 686 L56 660 L56 586 L58 390 L58 71 L59 0 C81 -5 113 -6 151 -6 L202 0 L201 203 L259 203 C413 207 463 332 463 446 C463 555 431 692 268 692 L268 692 Z M302 285 L208 285 C205 286 203 287 200 289 L200 614 L301 614 C306 603 308 507 308 446 C308 377 304 324 302 285 L302 285 Z " />
<glyph glyph-name="Q" unicode="Q" horiz-adv-x="534" d="M503 341 C503 557 431 696 284 696 L251 696 C79 684 31 500 31 329 C31 165 85 0 227 -8 L255 -8 C288 -76 321 -120 350 -161 C359 -162 373 -162 385 -162 C437 -162 464 -125 485 -92 C465 -70 427 -23 387 27 C471 89 503 222 503 341 L503 341 Z M191 329 C191 471 203 576 227 608 L299 608 C323 597 346 530 346 338 C346 227 328 119 311 81 L244 81 C211 92 191 185 191 329 L191 329 Z " />
<glyph glyph-name="R" unicode="R" horiz-adv-x="507" d="M369 303 C435 343 459 416 459 494 C459 639 405 704 219 704 C169 704 102 700 58 696 L58 587 L59 409 L56 71 L58 0 C80 -5 113 -6 152 -6 L203 0 L202 273 L253 273 C281 178 303 97 345 -9 C354 -11 371 -11 383 -11 C438 -11 469 1 495 29 C483 51 406 216 369 303 L369 303 Z M202 355 L202 620 L303 620 C306 531 306 444 303 355 L202 355 Z " />
<glyph glyph-name="S" unicode="S" horiz-adv-x="418" d="M238 704 L203 704 C97 698 37 624 37 528 C37 471 70 386 149 315 C205 267 265 207 265 140 C265 119 260 96 251 74 L181 74 C164 93 124 138 73 167 C52 128 32 74 26 20 C79 0 121 -9 184 -9 L233 -9 C343 -5 407 77 407 174 C407 255 367 338 287 401 C200 470 181 527 181 566 C181 596 187 617 190 621 L250 621 C260 588 308 557 329 552 C364 567 386 599 392 653 C337 693 292 704 238 704 L238 704 Z " />
<glyph glyph-name="T" unicode="T" horiz-adv-x="462" d="M453 687 C437 689 414 690 398 690 C325 690 304 687 233 690 L63 690 C47 690 23 690 9 687 C3 654 5 623 11 590 C58 587 108 585 159 586 L158 420 L156 71 L156 0 C182 -5 234 -6 275 -5 L303 0 L300 126 L300 381 L302 589 C350 589 399 589 444 591 C453 623 461 654 453 687 L453 687 Z " />
<glyph glyph-name="U" unicode="U" horiz-adv-x="518" d="M459 694 C452 696 444 697 441 697 C405 697 347 699 332 694 L334 263 C334 224 335 114 334 75 L211 75 C210 98 209 182 209 254 L211 694 C179 699 146 700 118 699 C97 698 74 697 58 694 L56 239 C59 59 95 -8 244 -11 L290 -11 C424 -6 461 67 462 251 L459 694 Z " />
<glyph glyph-name="V" unicode="V" horiz-adv-x="512" d="M358 693 L355 506 C333 402 309 294 282 176 C264 277 246 370 230 446 L187 668 L182 690 C167 696 151 698 131 699 C92 702 76 704 19 681 C86 410 141 188 191 -2 L314 -2 L319 -2 C363 159 403 305 444 458 C466 528 479 602 494 677 C495 683 496 684 497 690 C488 695 424 708 358 693 L358 693 Z " />
<glyph glyph-name="W" unicode="W" horiz-adv-x="810" d="M650 693 C650 693 649 584 649 522 C631 416 609 304 582 183 C565 265 549 344 536 417 L495 668 L490 690 C477 696 463 698 446 699 C412 701 394 703 364 694 C364 693 363 693 362 693 C353 690 343 686 331 681 L347 592 C327 457 303 327 274 189 C251 291 228 387 214 474 L179 668 L175 690 C160 696 143 698 124 699 C86 702 71 704 19 681 C38 577 53 502 73 432 C96 310 131 205 172 -2 L313 -2 C344 121 376 237 400 354 C432 229 446 167 498 -2 L618 -2 C691 233 743 432 794 669 C795 675 795 686 795 690 C785 695 729 708 650 693 L650 693 Z " />
<glyph glyph-name="X" unicode="X" horiz-adv-x="483" d="M316 371 C373 474 424 569 474 674 C440 696 400 709 357 707 C347 667 338 630 328 593 C311 552 292 512 273 470 C241 544 213 612 178 696 C124 699 74 699 44 692 C37 686 31 678 26 668 C66 561 117 444 170 326 C108 221 56 111 4 7 C42 -9 66 -14 115 -12 C129 18 135 58 146 88 C172 137 194 184 215 228 C253 146 292 66 329 -12 C342 -15 360 -18 383 -18 C458 -18 456 -2 477 24 C405 175 356 282 316 371 L316 371 Z " />
<glyph glyph-name="Y" unicode="Y" horiz-adv-x="487" d="M324 235 C373 372 461 633 477 693 C467 697 409 711 340 696 C340 696 334 613 340 553 C312 475 296 420 278 359 C264 406 255 447 246 465 L173 678 L166 700 C151 706 137 709 88 709 C50 709 21 702 10 687 L86 491 C116 403 140 347 179 250 C180 223 180 193 180 188 L181 114 L178 41 L180 0 C202 -5 235 -6 274 -6 L325 0 L324 81 L324 235 Z " />
<glyph glyph-name="Z" unicode="Z" horiz-adv-x="444" d="M402 234 C360 184 328 134 306 84 L170 84 C242 262 363 437 417 614 C419 641 417 669 417 696 L35 696 C31 631 37 565 53 500 C84 531 125 582 146 623 L275 623 C202 451 69 254 15 72 C12 48 12 24 15 0 L419 0 C423 78 418 156 402 234 L402 234 Z " />
<glyph glyph-name="bracketleft" unicode="&#x5b;" horiz-adv-x="900" d="" />
<glyph glyph-name="backslash" unicode="&#x5c;" horiz-adv-x="285" d="M317 -149 C249 92 213 267 173 462 C149 576 116 708 116 708 C62 723 -5 710 -12 705 C-11 699 -11 698 -9 692 C56 434 114 108 186 -152 C216 -159 290 -159 317 -149 L317 -149 Z " />
<glyph glyph-name="bracketright" unicode="&#x5d;" horiz-adv-x="900" d="" />
<glyph glyph-name="asciicircum" unicode="&#x5e;" horiz-adv-x="900" d="" />
<glyph glyph-name="underscore" unicode="&#x5f;" horiz-adv-x="492" d="M23 110 C8 68 8 41 23 -2 C146 -2 347 0 470 -2 C485 41 485 68 470 110 C347 122 146 107 23 110 L23 110 Z " />
<glyph glyph-name="a" unicode="a" horiz-adv-x="400" d="M207 530 C146 529 95 522 36 491 C41 443 56 404 84 368 C121 394 159 445 174 457 L234 457 L232 363 L233 312 C83 308 4 287 4 146 C4 46 65 -9 216 -9 C267 -9 339 -3 369 10 C370 32 370 92 370 152 L370 288 L372 381 C372 479 333 530 207 530 L207 530 Z M234 58 L156 56 C154 85 153 114 153 146 C153 177 153 211 154 245 L233 245 L234 168 L234 58 Z " />
<glyph glyph-name="b" unicode="b" horiz-adv-x="436" d="M263 528 C210 528 187 505 172 484 L168 661 C168 723 119 723 98 723 C69 723 56 717 35 714 L32 709 C36 679 38 645 38 624 L36 443 L36 55 L32 18 C68 1 120 -11 222 -11 C349 -11 418 78 418 254 C418 436 364 528 263 528 L263 528 Z M267 56 L223 56 C203 56 185 57 169 58 L171 89 L174 398 C190 421 209 440 222 453 L272 451 L272 257 C272 152 269 75 267 56 L267 56 Z " />
<glyph glyph-name="c" unicode="c" horiz-adv-x="357" d="M216 62 L174 62 C166 62 162 139 162 249 C162 356 169 436 174 459 L198 459 C222 435 260 392 298 368 C317 406 327 449 330 501 C286 522 246 528 201 530 C199 530 197 530 195 530 L190 530 C55 524 18 435 18 249 C18 110 59 -9 193 -9 C252 -9 301 -3 330 12 C329 60 317 74 308 89 C286 87 241 66 216 62 L216 62 Z " />
<glyph glyph-name="d" unicode="d" horiz-adv-x="451" d="M400 152 L398 329 L398 712 C378 735 347 733 326 733 C297 733 270 727 260 722 C262 709 263 695 263 682 L263 508 C244 521 218 530 183 530 C78 530 21 440 19 264 C12 87 67 -11 172 -11 C226 -11 265 17 284 48 C289 27 295 14 304 -3 C312 -8 330 -9 343 -9 C384 -9 406 11 423 38 C415 56 400 103 400 152 L400 152 Z M207 54 L168 54 C166 90 163 128 165 257 C165 360 168 419 175 452 L222 453 C234 445 248 433 262 420 L262 296 L263 152 C263 133 264 116 265 101 C255 81 237 63 207 54 L207 54 Z " />
<glyph glyph-name="e" unicode="e" horiz-adv-x="383" d="M364 232 C402 503 294 530 207 530 C69 530 18 431 18 264 C18 86 55 -12 196 -12 C267 -12 319 -2 352 11 C352 35 348 71 338 92 C305 85 256 68 223 57 L168 57 C167 82 166 151 166 226 C228 225 326 227 364 232 L364 232 Z M248 460 C252 394 253 346 251 293 L166 291 C166 366 167 434 169 460 L248 460 Z " />
<glyph glyph-name="f" unicode="f" horiz-adv-x="310" d="M177 522 L177 675 L194 675 C213 661 263 619 306 595 C335 625 350 658 354 699 C294 724 255 729 209 729 C92 729 41 690 41 601 L41 510 C18 507 -2 505 -13 504 C-25 482 -25 464 -13 435 C0 435 19 434 41 432 L42 207 L42 60 C42 30 27 -21 12 -51 C32 -78 57 -98 105 -98 C117 -98 135 -96 143 -92 C164 -59 177 -17 177 60 L177 429 C218 429 270 430 305 432 C317 459 318 495 309 521 C274 523 221 523 177 522 L177 522 Z " />
<glyph glyph-name="g" unicode="g" horiz-adv-x="430" d="M398 459 L402 496 C366 513 315 528 214 528 C78 528 18 460 18 264 C18 80 67 -12 157 -9 C215 -9 245 12 262 35 L262 9 L263 -48 L262 -49 L263 -158 L172 -158 C135 -118 96 -91 56 -70 C46 -116 41 -162 40 -215 C103 -225 145 -227 196 -227 C341 -227 400 -173 400 -71 L400 119 L398 459 Z M217 65 L163 65 C163 84 163 134 164 261 C164 291 166 447 167 467 L211 467 C232 467 251 466 268 465 L265 426 L263 119 C243 93 224 72 217 65 L217 65 Z " />
<glyph glyph-name="h" unicode="h" horiz-adv-x="463" d="M412 150 L415 294 L416 381 C416 464 404 530 287 530 C232 530 203 519 173 493 L173 647 C171 732 119 735 98 735 C69 735 56 729 45 726 L32 722 C33 677 38 612 38 591 L36 225 L36 71 L32 0 C54 -5 110 -6 150 -2 C162 0 165 3 171 5 L173 186 L173 411 C189 431 209 448 223 460 L278 460 L277 339 L275 130 C275 51 281 26 289 -2 C296 -6 314 -8 326 -8 C379 -8 409 3 430 19 C448 33 412 94 412 150 L412 150 Z " />
<glyph glyph-name="i" unicode="i" horiz-adv-x="239" d="M49 619 C70 592 139 589 165 609 C182 636 187 671 179 712 C152 750 73 748 54 718 C36 686 36 658 49 619 L49 619 Z M180 152 L181 329 L183 464 C183 525 129 525 108 525 C74 525 59 519 35 516 L32 512 C35 500 41 478 42 466 L45 443 L45 426 L43 296 L43 152 C43 72 58 27 81 0 C88 -5 106 -6 118 -6 C165 -6 192 18 211 53 C201 68 180 110 180 152 L180 152 Z " />
<glyph glyph-name="j" unicode="j" horiz-adv-x="216" d="M166 609 C188 636 194 656 182 692 C164 737 85 748 56 716 C32 685 31 659 50 621 C71 588 140 585 166 609 L166 609 Z M108 525 C80 525 66 519 45 516 L42 512 C44 500 45 486 45 474 L45 426 L44 296 L45 152 L42 9 C23 -50 -11 -129 -33 -158 C-12 -186 27 -222 68 -222 L95 -222 C157 -86 178 12 180 74 L182 329 L183 464 C183 524 140 525 108 525 L108 525 Z " />
<glyph glyph-name="k" unicode="k" horiz-adv-x="420" d="M313 304 C348 370 383 435 401 500 C384 517 326 526 295 518 C279 452 265 383 232 315 L174 306 L173 552 L173 642 C171 727 119 730 98 730 C69 730 56 724 45 721 L32 717 C33 672 38 607 38 586 L36 225 L36 71 L32 0 C54 -5 110 -5 150 -2 C162 -1 165 3 171 5 L174 186 L174 240 L205 240 C235 106 275 24 301 -6 C311 -8 322 -10 341 -9 C371 -7 410 23 427 47 C395 88 325 247 313 304 L313 304 Z " />
<glyph glyph-name="l" unicode="l" horiz-adv-x="224" d="M168 152 L168 329 L170 669 C170 730 116 730 95 730 C66 730 53 724 32 721 L29 717 C30 705 32 691 32 679 L32 631 L30 296 L32 152 C33 72 45 27 65 0 C72 -5 90 -6 102 -6 C153 -6 182 20 203 57 C191 72 168 111 168 152 L168 152 Z " />
<glyph glyph-name="m" unicode="m" horiz-adv-x="699" d="M648 150 L651 294 L652 381 C652 464 640 530 523 530 C457 530 440 514 403 475 C387 509 354 530 288 530 C225 530 206 515 172 480 C158 525 120 525 101 525 C72 525 59 519 38 516 L35 512 C39 482 41 447 41 426 L39 225 L39 224 L36 225 L36 71 L32 0 C52 -5 103 -6 142 -3 C146 -3 149 -2 153 -2 C165 -1 168 3 174 5 L177 186 L176 413 C192 433 211 448 224 460 L279 460 L278 339 L276 130 C276 51 282 26 290 -2 C297 -6 315 -8 327 -8 C380 -8 410 3 431 19 C449 33 413 94 413 150 L416 294 L417 381 C417 394 417 407 416 419 C431 436 447 449 459 460 L514 460 L511 130 C511 51 517 26 525 -2 C532 -6 550 -8 562 -8 C615 -8 645 3 666 19 C684 33 648 94 648 150 L648 150 Z " />
<glyph glyph-name="n" unicode="n" horiz-adv-x="456" d="M410 150 L413 294 L414 381 C414 464 402 530 285 530 C222 530 203 515 169 480 C155 525 117 525 98 525 C69 525 56 519 35 516 L32 512 C36 482 38 447 38 426 L36 225 L36 71 L32 0 C54 -5 110 -5 150 -2 C162 -1 165 3 171 5 L174 186 L173 413 C189 433 208 448 221 460 L276 460 L275 339 L273 130 C273 51 279 26 287 -2 C294 -6 312 -8 324 -8 C377 -8 407 3 428 19 C418 39 410 94 410 150 L410 150 Z " />
<glyph glyph-name="o" unicode="o" horiz-adv-x="431" d="M413 261 L413 263 C412 434 339 530 239 530 L192 530 C92 530 19 434 18 263 C18 262 18 261 18 261 L18 258 C19 87 92 -9 192 -9 L239 -9 C339 -9 412 87 413 258 L413 261 Z M261 62 L170 62 C168 70 165 119 165 261 C165 402 168 451 170 459 L261 459 C263 451 266 402 266 261 C266 119 263 70 261 62 L261 62 Z " />
<glyph glyph-name="p" unicode="p" horiz-adv-x="445" d="M427 260 C424 425 377 527 273 528 C209 528 187 506 171 484 C160 525 116 525 98 525 C69 525 56 519 35 516 L32 512 C36 482 38 447 38 426 L36 225 L36 -152 L32 -222 C54 -227 110 -227 150 -224 C162 -223 165 -219 171 -218 L173 15 C194 0 226 -11 267 -11 C353 -10 424 77 427 243 L427 260 Z M173 92 L174 186 L173 387 C195 414 223 436 244 452 L275 452 C276 429 276 374 276 257 C277 172 273 88 269 56 L220 56 C196 66 177 68 173 92 L173 92 Z " />
<glyph glyph-name="q" unicode="q" horiz-adv-x="462" d="M400 -64 L400 89 L398 459 L402 496 C366 513 315 528 214 528 C87 528 18 440 18 264 C18 80 67 -12 157 -9 C215 -9 245 12 262 35 L262 9 L263 -64 C264 -144 277 -189 296 -216 C304 -220 322 -222 334 -222 C385 -222 413 -196 434 -159 C422 -144 400 -105 400 -64 L400 -64 Z M217 65 L163 65 C163 84 163 134 164 261 C164 291 166 447 167 467 L211 467 C232 467 251 466 268 465 L265 426 L263 119 C243 93 224 72 217 65 L217 65 Z " />
<glyph glyph-name="r" unicode="r" horiz-adv-x="330" d="M345 521 C339 522 325 524 294 524 C260 522 248 521 237 513 C206 472 186 442 173 415 L173 464 C173 525 119 525 98 525 C69 525 56 519 35 516 L32 512 C36 482 38 447 38 426 L36 225 L36 71 L32 0 C54 -5 110 -6 150 -2 C162 0 165 3 171 5 L174 186 L173 341 C191 375 214 395 228 413 C258 401 287 393 326 390 L332 390 C344 422 347 474 345 521 L345 521 Z " />
<glyph glyph-name="s" unicode="s" horiz-adv-x="350" d="M163 414 C163 432 163 450 165 459 L199 459 C213 445 256 397 296 371 C315 410 326 453 329 505 C282 525 242 529 194 530 L185 530 C93 530 21 490 22 388 C19 252 192 188 194 113 L195 57 L148 57 C122 112 81 148 46 177 C26 126 15 76 14 17 C70 -6 126 -9 156 -9 C281 -9 339 27 339 129 C339 286 163 326 163 414 L163 414 Z " />
<glyph glyph-name="t" unicode="t" horiz-adv-x="326" d="M215 427 C244 425 276 425 305 425 C317 452 318 495 309 521 C277 521 244 519 215 517 L215 604 C215 665 166 665 145 665 C116 665 103 659 82 656 L79 652 C80 640 82 626 82 614 L82 551 L81 516 C45 516 15 517 0 517 C-12 491 -12 461 0 428 C17 425 45 425 79 427 L77 296 L76 141 C75 56 101 24 137 0 C146 -3 170 -3 180 -3 C225 -3 257 22 286 57 C249 89 230 104 214 121 L215 329 L215 427 Z " />
<glyph glyph-name="u" unicode="u" horiz-adv-x="428" d="M403 98 L404 510 C388 519 359 524 341 524 C314 525 295 521 268 516 L268 125 C252 100 236 80 221 65 L165 65 L167 201 L167 204 L165 464 C165 525 111 525 90 525 C62 525 48 519 27 516 L24 512 C29 482 30 447 30 426 L29 230 L27 143 C27 59 38 -8 153 -8 C197 -8 231 -1 270 42 C279 -2 324 -2 343 -2 C371 -2 385 5 406 8 L409 12 C404 42 403 77 403 98 L403 98 Z " />
<glyph glyph-name="v" unicode="v" horiz-adv-x="363" d="M360 515 C364 492 344 415 322 323 C291 186 257 69 232 2 C202 -2 190 -5 119 -5 C109 -5 98 -2 92 2 C60 118 13 381 -4 501 C32 537 85 525 134 516 C145 458 147 405 156 356 C161 309 167 259 175 212 L199 97 C227 237 251 322 258 380 C254 435 253 447 253 508 C256 514 263 517 280 522 C297 529 337 522 360 515 L360 515 Z " />
<glyph glyph-name="w" unicode="w" horiz-adv-x="598" d="M595 515 C570 521 526 527 507 521 C490 516 483 513 480 507 C478 450 477 399 472 341 C465 293 454 237 444 204 L425 123 L408 209 C396 257 388 308 381 356 C376 405 375 458 369 516 C318 525 262 537 225 501 C228 440 233 380 241 324 C234 280 225 233 216 204 L197 123 L180 209 C168 257 160 308 153 356 C148 405 147 458 141 516 C90 525 34 537 -4 501 C-1 434 5 368 16 308 C43 180 85 72 127 2 C133 -2 144 -5 154 -5 C195 -5 202 -2 219 2 C238 40 261 94 285 159 C306 96 331 43 355 2 C361 -2 372 -5 382 -5 C423 -5 430 -2 447 2 C480 69 526 186 567 323 C583 393 598 470 595 515 L595 515 Z " />
<glyph glyph-name="x" unicode="x" horiz-adv-x="392" d="M274 274 C316 349 356 423 392 498 C367 511 329 518 296 517 C290 494 292 469 281 434 C266 405 252 375 237 346 C211 398 187 449 159 516 C111 528 58 532 23 511 C57 431 98 342 139 257 C97 179 45 82 11 6 C34 -7 66 -12 94 -11 C117 16 116 45 125 74 C144 108 160 147 176 180 L266 -1 C278 -6 294 -10 315 -10 C360 -10 384 5 397 26 C345 135 307 209 274 274 L274 274 Z " />
<glyph glyph-name="y" unicode="y" horiz-adv-x="368" d="M365 515 C343 521 304 527 284 521 C267 516 260 513 257 507 C258 464 258 425 258 381 C246 319 227 247 220 203 L198 108 C172 270 148 400 135 516 C86 524 32 536 -4 502 C4 412 67 103 101 2 C107 -2 118 -5 128 -5 C144 -5 156 -5 166 -4 L129 -44 C90 -83 52 -130 28 -154 C38 -177 81 -207 116 -216 L143 -222 C163 -201 190 -141 216 -66 C266 66 302 214 324 305 C325 311 327 317 329 323 C348 393 368 470 365 515 L365 515 Z " />
<glyph glyph-name="z" unicode="z" horiz-adv-x="405" d="M323 524 C350 522 395 519 398 456 C399 425 230 156 195 120 C218 93 242 80 279 59 C288 114 314 158 372 183 L378 186 C389 125 386 62 381 0 C354 -6 321 -11 293 -11 C212 -11 177 15 152 41 C135 0 119 -11 93 -11 C62 -11 23 11 12 47 C54 135 191 330 243 431 C218 456 167 461 149 458 C117 423 102 381 62 365 L56 369 C41 426 41 476 50 519 C185 555 272 516 293 497 C308 510 312 515 323 524 L323 524 Z " />
<glyph glyph-name="braceleft" unicode="&#x7b;" horiz-adv-x="900" d="" />
<glyph glyph-name="bar" unicode="&#x7c;" horiz-adv-x="900" d="" />
<glyph glyph-name="braceright" unicode="&#x7d;" horiz-adv-x="900" d="" />
<glyph glyph-name="asciitilde" unicode="&#x7e;" horiz-adv-x="900" d="" />
<glyph glyph-name="exclamdown" unicode="&#xa1;" horiz-adv-x="195" d="M36 621 C57 588 126 585 152 609 C174 638 174 705 162 741 C144 786 68 776 41 756 C17 725 17 659 36 621 L36 621 Z M165 135 L168 299 L167 450 C167 512 113 512 92 512 C66 512 54 510 35 503 C29 489 29 473 29 461 L29 413 L30 266 L29 135 C29 56 18 11 41 -17 C48 -21 66 -23 78 -23 C122 -23 146 -11 164 6 C173 21 165 80 165 135 L165 135 Z " />
<glyph glyph-name="cent" unicode="&#xa2;" horiz-adv-x="900" d="" />
<glyph glyph-name="sterling" unicode="&#xa3;" horiz-adv-x="900" d="" />
<glyph glyph-name="yen" unicode="&#xa5;" horiz-adv-x="900" d="" />
<glyph glyph-name="brokenbar" unicode="&#xa6;" horiz-adv-x="900" d="" />
<glyph glyph-name="section" unicode="&#xa7;" horiz-adv-x="900" d="" />
<glyph glyph-name="copyright" unicode="&#xa9;" horiz-adv-x="900" d="" />
<glyph glyph-name="ordfeminine" unicode="&#xaa;" horiz-adv-x="900" d="" />
<glyph glyph-name="guillemotleft" unicode="&#xab;" horiz-adv-x="560" d="M29 263 C81 101 125 47 153 17 L180 17 C221 17 260 51 276 77 C245 107 180 224 171 260 C215 324 248 383 276 441 C270 459 254 482 230 489 C215 494 194 495 179 494 C144 455 86 360 29 263 L29 263 Z M284 263 C336 101 380 47 408 17 L435 17 C476 17 515 51 531 77 C500 107 435 224 426 260 C470 324 503 383 531 441 C525 459 509 482 485 489 C470 494 449 495 434 494 C399 455 341 360 284 263 L284 263 Z " />
<glyph glyph-name="uni00AD" unicode="&#xad;" horiz-adv-x="900" d="" />
<glyph glyph-name="registered" unicode="&#xae;" horiz-adv-x="900" d="" />
<glyph glyph-name="degree" unicode="&#xb0;" horiz-adv-x="900" d="" />
<glyph glyph-name="plusminus" unicode="&#xb1;" horiz-adv-x="900" d="" />
<glyph glyph-name="uni00B2" unicode="&#xb2;" horiz-adv-x="900" d="" />
<glyph glyph-name="uni00B3" unicode="&#xb3;" horiz-adv-x="900" d="" />
<glyph glyph-name="uni00B5" unicode="&#xb5;" horiz-adv-x="900" d="" />
<glyph glyph-name="paragraph" unicode="&#xb6;" horiz-adv-x="956" d="" />
<glyph glyph-name="periodcentered" unicode="&#xb7;" horiz-adv-x="192" d="M150 375 C125 399 56 396 35 363 C15 326 15 260 39 228 C66 209 143 198 161 243 C173 279 173 347 150 375 L150 375 Z " />
<glyph glyph-name="uni00B9" unicode="&#xb9;" horiz-adv-x="900" d="" />
<glyph glyph-name="ordmasculine" unicode="&#xba;" horiz-adv-x="900" d="" />
<glyph glyph-name="guillemotright" unicode="&#xbb;" horiz-adv-x="560" d="M276 263 C219 360 161 455 126 494 C111 495 90 494 75 489 C51 482 35 459 29 441 C57 383 90 324 134 260 C125 224 60 107 29 77 C45 51 84 17 125 17 L152 17 C180 47 224 101 276 263 L276 263 Z M531 263 C474 360 416 455 381 494 C366 495 345 494 330 489 C306 482 290 459 284 441 C312 383 345 324 389 260 C380 224 315 107 284 77 C300 51 339 17 380 17 L407 17 C435 47 479 101 531 263 L531 263 Z " />
<glyph glyph-name="onequarter" unicode="&#xbc;" horiz-adv-x="900" d="" />
<glyph glyph-name="onehalf" unicode="&#xbd;" horiz-adv-x="900" d="" />
<glyph glyph-name="threequarters" unicode="&#xbe;" horiz-adv-x="900" d="" />
<glyph glyph-name="questiondown" unicode="&#xbf;" horiz-adv-x="341" d="M20 629 C41 596 110 593 135 617 C158 645 158 713 146 749 C128 794 51 783 24 764 C0 732 0 666 20 629 L20 629 Z M261 158 C261 252 176 315 146 351 L150 458 C149 519 96 519 75 519 C50 519 38 518 18 510 C12 498 12 497 9 414 L6 345 C47 279 93 239 125 203 C126 144 122 62 63 62 C42 84 11 141 -59 141 C-83 117 -87 57 -77 32 C-27 12 15 -5 84 -5 C207 -5 261 63 261 158 L261 158 Z " />
<glyph glyph-name="Agrave" unicode="&#xc0;" horiz-adv-x="495" d="M337 766 C336 814 334 882 316 916 C310 930 306 933 300 933 C265 939 211 931 202 907 C210 874 232 796 261 754 C285 745 322 748 337 766 L337 766 Z M319 696 C267 703 221 699 193 695 L196 682 C198 672 200 661 203 651 C171 546 40 117 6 4 C10 -6 48 -16 108 -3 C111 5 112 11 114 18 L146 131 C226 129 251 130 326 131 C337 85 347 40 355 0 C389 -14 452 -15 502 0 C443 222 381 485 319 696 L319 696 Z M170 217 C192 298 219 392 243 475 C263 390 285 301 305 217 C254 219 219 215 170 217 L170 217 Z " />
<glyph glyph-name="Aacute" unicode="&#xc1;" horiz-adv-x="495" d="M279 754 C307 796 330 874 337 907 C328 931 274 939 240 933 C234 933 229 930 223 916 C211 882 204 814 202 766 C217 748 255 745 279 754 L279 754 Z M319 696 C267 703 221 699 193 695 L196 682 C198 672 200 661 203 651 C171 546 40 117 6 4 C10 -6 48 -16 108 -3 C111 5 112 11 114 18 L146 131 C226 129 251 130 326 131 C337 85 347 40 355 0 C389 -14 452 -15 502 0 C443 222 381 485 319 696 L319 696 Z M170 217 C192 298 219 392 243 475 C263 390 285 301 305 217 C254 219 219 215 170 217 L170 217 Z " />
<glyph glyph-name="Acircumflex" unicode="&#xc2;" horiz-adv-x="495" d="M214 754 C232 790 251 827 268 860 C286 827 306 790 325 754 C355 745 385 748 400 766 C381 831 337 918 319 933 C301 935 283 935 267 934 C252 935 234 935 216 933 C196 918 159 831 139 766 C154 748 184 745 214 754 L214 754 Z M319 696 C267 703 221 699 193 695 L196 682 C198 672 200 661 203 651 C171 546 40 117 6 4 C10 -6 48 -16 108 -3 C111 5 112 11 114 18 L146 131 C226 129 251 130 326 131 C337 85 347 40 355 0 C389 -14 452 -15 502 0 C443 222 381 485 319 696 L319 696 Z M170 217 C192 298 219 392 243 475 C263 390 285 301 305 217 C254 219 219 215 170 217 L170 217 Z " />
<glyph glyph-name="Atilde" unicode="&#xc3;" horiz-adv-x="495" d="M182 843 C233 802 281 738 353 759 C386 781 416 814 426 888 C410 900 395 904 357 907 C342 871 333 844 332 834 C272 885 246 930 167 918 C131 897 99 867 87 789 C104 774 119 769 158 769 C173 805 182 834 182 843 L182 843 Z M319 696 C267 703 221 699 193 695 L196 682 C198 672 200 661 203 651 C171 546 40 117 6 4 C10 -6 48 -16 108 -3 C111 5 112 11 114 18 L146 131 C226 129 251 130 326 131 C337 85 347 40 355 0 C389 -14 452 -15 502 0 C443 222 381 485 319 696 L319 696 Z M170 217 C192 298 219 392 243 475 C263 390 285 301 305 217 C254 219 219 215 170 217 L170 217 Z " />
<glyph glyph-name="Adieresis" unicode="&#xc4;" horiz-adv-x="495" d="M213 771 C234 796 240 853 230 886 C212 928 137 939 111 909 C87 879 87 817 105 781 C125 751 189 748 213 771 L213 771 Z M426 771 C447 796 452 853 441 886 C425 928 350 939 323 909 C300 879 299 817 317 781 C336 751 402 748 426 771 L426 771 Z M319 696 C267 703 221 699 193 695 L196 682 C198 672 200 661 203 651 C171 546 40 117 6 4 C10 -6 48 -16 108 -3 C111 5 112 11 114 18 L146 131 C226 129 251 130 326 131 C337 85 347 40 355 0 C389 -14 452 -15 502 0 C443 222 381 485 319 696 L319 696 Z M170 217 C192 298 219 392 243 475 C263 390 285 301 305 217 C254 219 219 215 170 217 L170 217 Z " />
<glyph glyph-name="Aring" unicode="&#xc5;" horiz-adv-x="495" d="M267 723 C273 723 302 724 306 726 C329 733 362 774 362 820 C362 874 326 918 276 918 C269 918 242 916 236 915 C213 909 179 867 179 820 C179 766 215 723 267 723 L267 723 Z M252 864 L290 864 C294 864 306 844 306 820 C306 796 296 784 291 777 L260 777 C251 777 236 796 236 820 C236 844 248 856 252 864 L252 864 Z M319 696 C267 703 221 699 193 695 L196 682 C198 672 200 661 203 651 C171 546 40 117 6 4 C10 -6 48 -16 108 -3 C111 5 112 11 114 18 L146 131 C226 129 251 130 326 131 C337 85 347 40 355 0 C389 -14 452 -15 502 0 C443 222 381 485 319 696 L319 696 Z M170 217 C192 298 219 392 243 475 C263 390 285 301 305 217 C254 219 219 215 170 217 L170 217 Z " />
<glyph glyph-name="AE" unicode="&#xc6;" horiz-adv-x="612" d="M497 72 L413 72 L414 304 C463 304 512 305 563 307 C566 340 569 365 566 398 L516 398 C469 398 441 394 415 393 L412 620 L497 620 C515 591 548 561 577 547 C593 594 605 651 593 695 L536 695 C464 695 427 690 349 690 L343 690 C333 690 324 690 315 689 C289 689 233 691 209 670 C213 667 46 134 6 4 C10 -6 48 -16 108 -3 C111 5 112 11 114 18 L147 131 C203 130 232 130 270 130 L269 71 L265 0 C287 -5 347 0 388 0 L412 0 L412 1 C453 -1 486 -3 536 -3 L593 -3 C605 41 593 98 577 145 C548 131 515 101 497 72 L497 72 Z M172 217 C202 317 238 438 270 535 L272 401 L270 218 C237 217 208 216 172 217 L172 217 Z " />
<glyph glyph-name="Ccedilla" unicode="&#xc7;" horiz-adv-x="440" d="M281 -9 C327 -9 368 0 419 20 C414 74 398 128 381 167 C329 138 285 93 269 74 L224 74 C197 105 176 213 176 344 C176 474 197 582 224 614 L258 614 C273 593 341 554 365 545 C399 560 422 591 428 645 C372 686 327 696 273 696 L248 696 C75 684 20 500 20 344 C20 208 53 46 183 2 C180 -15 174 -38 165 -80 C236 -78 269 -110 243 -153 L218 -153 C203 -153 188 -146 164 -140 C141 -159 141 -215 147 -228 C161 -234 191 -243 225 -243 C282 -243 353 -218 353 -119 C353 -80 339 -36 257 -36 C260 -26 262 -17 264 -9 L281 -9 Z " />
<glyph glyph-name="Egrave" unicode="&#xc8;" horiz-adv-x="403" d="M209 754 C233 745 270 748 285 766 C284 814 282 882 264 916 C258 930 254 933 248 933 C213 939 159 931 150 907 C158 874 180 796 209 754 L209 754 Z M288 72 L204 72 L205 304 C254 304 303 305 354 307 C357 340 360 365 357 398 L307 398 C260 398 232 394 206 393 L203 620 L288 620 C306 591 339 561 368 547 C384 594 396 651 384 695 L327 695 C255 693 218 690 140 690 L134 690 C102 690 80 686 66 681 L57 672 C59 642 60 612 60 591 L63 401 L60 71 L56 0 C78 -5 138 0 179 0 L203 0 L203 1 C244 -1 277 -3 327 -3 L384 -3 C396 41 384 98 368 145 C339 131 306 101 288 72 L288 72 Z " />
<glyph glyph-name="Eacute" unicode="&#xc9;" horiz-adv-x="403" d="M227 754 C255 796 278 874 285 907 C276 931 222 939 188 933 C182 933 177 930 171 916 C159 882 152 814 150 766 C165 748 203 745 227 754 L227 754 Z M288 72 L204 72 L205 304 C254 304 303 305 354 307 C357 340 360 365 357 398 L307 398 C260 398 232 394 206 393 L203 620 L288 620 C306 591 339 561 368 547 C384 594 396 651 384 695 L327 695 C255 693 218 690 140 690 L134 690 C102 690 80 686 66 681 L57 672 C59 642 60 612 60 591 L63 401 L60 71 L56 0 C78 -5 138 0 179 0 L203 0 L203 1 C244 -1 277 -3 327 -3 L384 -3 C396 41 384 98 368 145 C339 131 306 101 288 72 L288 72 Z " />
<glyph glyph-name="Ecircumflex" unicode="&#xca;" horiz-adv-x="403" d="M162 754 C180 790 199 827 216 860 C234 827 254 790 273 754 C303 745 333 748 348 766 C329 831 285 918 267 933 C249 935 231 935 215 934 C200 935 182 935 164 933 C144 918 107 831 87 766 C102 748 132 745 162 754 L162 754 Z M288 72 L204 72 L205 304 C254 304 303 305 354 307 C357 340 360 365 357 398 L307 398 C260 398 232 394 206 393 L203 620 L288 620 C306 591 339 561 368 547 C384 594 396 651 384 695 L327 695 C255 693 218 690 140 690 L134 690 C102 690 80 686 66 681 L57 672 C59 642 60 612 60 591 L63 401 L60 71 L56 0 C78 -5 138 0 179 0 L203 0 L203 1 C244 -1 277 -3 327 -3 L384 -3 C396 41 384 98 368 145 C339 131 306 101 288 72 L288 72 Z " />
<glyph glyph-name="Edieresis" unicode="&#xcb;" horiz-adv-x="403" d="M161 771 C182 796 188 853 178 886 C160 928 85 939 59 909 C35 879 35 817 53 781 C73 751 137 748 161 771 L161 771 Z M374 771 C395 796 400 853 389 886 C373 928 298 939 271 909 C248 879 247 817 265 781 C284 751 350 748 374 771 L374 771 Z M288 620 C306 591 339 561 368 547 C384 594 396 651 384 695 L327 695 C255 693 218 690 140 690 L134 690 C102 690 80 686 66 681 L57 672 C59 642 60 612 60 591 L63 401 L60 71 L56 0 C78 -5 138 0 179 0 L203 0 L203 1 C244 -1 277 -3 327 -3 L384 -3 C396 41 384 98 368 145 C339 131 306 101 288 72 L204 72 L205 304 C254 304 303 305 354 307 C357 340 360 365 357 398 L307 398 C260 398 232 394 206 393 L203 620 L288 620 Z " />
<glyph glyph-name="Igrave" unicode="&#xcc;" horiz-adv-x="227" d="M159 767 C158 815 156 882 138 917 C132 930 128 933 122 933 C87 939 33 932 24 908 C32 875 54 797 83 755 C107 746 144 749 159 767 L159 767 Z M186 381 L186 650 C186 663 180 671 171 677 C152 683 138 683 117 683 C86 683 63 678 50 674 L41 665 C42 635 42 605 42 587 L44 404 L41 71 L42 0 C65 -5 98 -6 137 -6 L188 0 L186 381 Z " />
<glyph glyph-name="Iacute" unicode="&#xcd;" horiz-adv-x="227" d="M144 755 C173 797 195 875 203 908 C194 932 140 939 105 933 C99 933 95 930 89 917 C77 882 69 815 68 767 C83 749 120 746 144 755 L144 755 Z M186 650 C186 663 180 671 171 677 C152 683 138 683 117 683 C86 683 63 678 50 674 L41 665 C42 635 42 605 42 587 L44 404 L41 71 L42 0 C65 -5 98 -6 137 -6 L188 0 L186 381 L186 650 Z " />
<glyph glyph-name="Icircumflex" unicode="&#xce;" horiz-adv-x="227" d="M161 933 C143 935 124 935 109 935 C93 935 75 935 57 933 C38 918 0 831 -20 767 C-5 749 26 746 56 755 C73 790 92 827 110 861 L167 755 C197 746 227 749 242 767 C222 831 179 918 161 933 L161 933 Z M186 650 C186 663 180 671 171 677 C152 683 138 683 117 683 C86 683 63 678 50 674 L41 665 C42 635 42 605 42 587 L44 404 L41 71 L42 0 C65 -5 98 -6 137 -6 L188 0 L186 381 L186 650 Z " />
<glyph glyph-name="Idieresis" unicode="&#xcf;" horiz-adv-x="227" d="M77 887 C59 929 -17 939 -42 909 C-66 879 -66 818 -48 782 C-29 752 36 749 60 771 C81 797 87 854 77 887 L77 887 Z M288 887 C272 929 197 939 170 909 C147 879 146 818 164 782 C183 752 249 749 273 771 C294 797 299 854 288 887 L288 887 Z M186 650 C186 663 180 671 171 677 C152 683 138 683 117 683 C86 683 63 678 50 674 L41 665 C42 635 42 605 42 587 L44 404 L41 71 L42 0 C65 -5 98 -6 137 -6 L188 0 L186 381 L186 650 Z " />
<glyph glyph-name="Eth" unicode="&#xd0;" horiz-adv-x="516" d="M282 696 L230 696 C180 696 92 695 57 681 L57 656 L12 656 C-5 614 -5 597 12 555 L58 555 L60 401 L57 71 L56 0 L57 0 L56 -2 C98 -5 141 -8 195 -8 L273 -8 C430 -3 485 152 485 341 C485 557 423 696 282 696 L282 696 Z M298 75 L201 75 L203 381 L201 559 C232 560 265 560 306 560 C311 519 314 450 314 338 C314 224 306 114 298 75 L298 75 Z " />
<glyph glyph-name="Ntilde" unicode="&#xd1;" horiz-adv-x="533" d="M195 843 C246 803 294 738 366 759 C399 782 429 815 440 888 C423 900 408 905 371 908 C356 872 347 845 345 834 C285 885 260 930 180 918 C144 897 113 867 101 789 C117 774 132 770 171 770 C186 806 195 834 195 843 L195 843 Z M435 690 C413 690 396 690 383 686 L375 672 C375 642 374 612 374 591 L372 420 L372 390 L374 257 C306 415 290 454 165 675 C163 683 136 690 102 690 C80 690 63 686 50 681 L41 672 C42 642 44 612 44 591 L42 420 L42 236 L44 0 C66 -5 105 -3 146 -3 L164 0 L161 388 C224 263 274 128 369 0 C387 -8 423 -6 464 -6 L492 2 L492 381 L494 627 L494 678 C479 690 456 690 435 690 L435 690 Z " />
<glyph glyph-name="Ograve" unicode="&#xd2;" horiz-adv-x="512" d="M236 755 C260 746 297 749 312 767 C311 815 309 882 291 917 C285 930 281 933 275 933 C240 939 186 932 177 908 C185 875 207 797 236 755 L236 755 Z M273 696 L240 696 C68 684 20 500 20 329 C20 165 74 0 216 -8 L272 -8 C435 -3 492 182 492 341 C492 557 420 696 273 696 L273 696 Z M288 608 C312 597 335 530 335 338 C335 227 317 119 300 81 L233 81 C200 92 180 185 180 329 C180 471 192 576 216 608 L288 608 Z " />
<glyph glyph-name="Oacute" unicode="&#xd3;" horiz-adv-x="512" d="M221 767 C236 749 273 746 297 755 C326 797 348 875 356 908 C347 932 293 939 258 933 C252 933 248 930 242 917 C230 882 222 815 221 767 L221 767 Z M273 696 L240 696 C68 684 20 500 20 329 C20 165 74 0 216 -8 L272 -8 C435 -3 492 182 492 341 C492 557 420 696 273 696 L273 696 Z M288 608 C312 597 335 530 335 338 C335 227 317 119 300 81 L233 81 C200 92 180 185 180 329 C180 471 192 576 216 608 L288 608 Z " />
<glyph glyph-name="Ocircumflex" unicode="&#xd4;" horiz-adv-x="512" d="M209 755 C226 790 245 827 263 861 L320 755 C350 746 380 749 395 767 C375 831 332 918 314 933 C296 935 277 935 262 935 C246 935 228 935 210 933 C191 918 153 831 134 767 C149 749 179 746 209 755 L209 755 Z M273 696 L240 696 C68 684 20 500 20 329 C20 165 74 0 216 -8 L272 -8 C435 -3 492 182 492 341 C492 557 420 696 273 696 L273 696 Z M300 81 L233 81 C200 92 180 185 180 329 C180 471 192 576 216 608 L288 608 C312 597 335 530 335 338 C335 227 317 119 300 81 L300 81 Z " />
<glyph glyph-name="Otilde" unicode="&#xd5;" horiz-adv-x="512" d="M362 908 C347 872 338 845 336 834 C276 885 251 930 171 918 C135 897 104 867 92 789 C108 774 123 770 162 770 C177 806 186 834 186 843 C237 803 285 738 357 759 C390 782 420 815 431 888 C414 900 399 905 362 908 L362 908 Z M273 696 L240 696 C68 684 20 500 20 329 C20 165 74 0 216 -8 L272 -8 C435 -3 492 182 492 341 C492 557 420 696 273 696 L273 696 Z M288 608 C312 597 335 530 335 338 C335 227 317 119 300 81 L233 81 C200 92 180 185 180 329 C180 471 192 576 216 608 L288 608 Z " />
<glyph glyph-name="Odieresis" unicode="&#xd6;" horiz-adv-x="512" d="M105 782 C125 752 189 749 213 771 C234 797 240 854 230 887 C212 929 137 939 111 909 C87 879 87 818 105 782 L105 782 Z M317 782 C336 752 402 749 426 771 C447 797 452 854 441 887 C425 929 350 939 323 909 C300 879 299 818 317 782 L317 782 Z M273 696 L240 696 C68 684 20 500 20 329 C20 165 74 0 216 -8 L272 -8 C435 -3 492 182 492 341 C492 557 420 696 273 696 L273 696 Z M288 608 C312 597 335 530 335 338 C335 227 317 119 300 81 L233 81 C200 92 180 185 180 329 C180 471 192 576 216 608 L288 608 Z " />
<glyph glyph-name="multiply" unicode="&#xd7;" horiz-adv-x="900" d="" />
<glyph glyph-name="Oslash" unicode="&#xd8;" horiz-adv-x="518" d="M487 346 C487 456 473 540 443 599 L497 696 C465 700 433 700 401 696 L401 660 L397 657 C367 683 328 696 279 696 L239 696 C93 696 32 579 31 346 C31 345 31 344 31 344 L31 341 C31 246 42 171 64 115 C42 76 20 38 -2 0 C30 -8 63 -8 95 0 L95 53 L97 54 C130 12 177 -9 239 -9 L279 -9 C425 -9 486 108 487 341 C487 342 487 343 487 344 L487 346 Z M188 344 C188 533 200 600 214 611 L304 611 C311 606 317 588 321 551 C276 476 232 402 188 328 L188 344 Z M304 76 L214 76 C205 83 198 110 193 175 C240 250 285 326 330 402 L330 344 C330 154 318 87 304 76 L304 76 Z " />
<glyph glyph-name="Ugrave" unicode="&#xd9;" horiz-adv-x="504" d="M228 755 C252 746 290 749 305 767 C303 815 302 882 284 917 C278 930 273 933 267 933 C233 939 179 932 170 908 C177 875 200 797 228 755 L228 755 Z M462 681 C455 683 447 684 444 684 C401 684 333 686 315 681 L317 263 C317 224 312 114 308 75 L200 75 C197 98 192 182 192 254 L194 681 C162 686 129 687 101 686 C80 684 57 684 41 681 L41 239 C44 89 80 -8 227 -11 L273 -11 C423 -6 464 87 465 251 L462 681 Z " />
<glyph glyph-name="Uacute" unicode="&#xda;" horiz-adv-x="504" d="M213 767 C228 749 266 746 290 755 C318 797 341 875 348 908 C339 932 285 939 251 933 C245 933 240 930 234 917 C222 882 215 815 213 767 L213 767 Z M462 681 C455 683 447 684 444 684 C401 684 333 686 315 681 L317 263 C317 224 312 114 308 75 L200 75 C197 98 192 182 192 254 L194 681 C162 686 129 687 101 686 C80 684 57 684 41 681 L41 239 C44 89 80 -8 227 -11 L273 -11 C423 -6 464 87 465 251 L462 681 Z " />
<glyph glyph-name="Ucircumflex" unicode="&#xdb;" horiz-adv-x="504" d="M201 755 C219 790 238 827 255 861 L312 755 C342 746 372 749 387 767 C368 831 324 918 306 933 C288 935 270 935 254 935 C239 935 221 935 203 933 C183 918 146 831 126 767 C141 749 171 746 201 755 L201 755 Z M462 681 C455 683 447 684 444 684 C401 684 333 686 315 681 L317 263 C317 224 312 114 308 75 L200 75 C197 98 192 182 192 254 L194 681 C162 686 129 687 101 686 C80 684 57 684 41 681 L41 239 C44 89 80 -8 227 -11 L273 -11 C423 -6 464 87 465 251 L462 681 Z " />
<glyph glyph-name="Udieresis" unicode="&#xdc;" horiz-adv-x="504" d="M98 782 C117 752 182 749 206 771 C227 797 233 854 222 887 C204 929 129 939 104 909 C80 879 80 818 98 782 L98 782 Z M309 782 C329 752 395 749 419 771 C440 797 444 854 434 887 C417 929 342 939 315 909 C293 879 291 818 309 782 L309 782 Z M462 681 C455 683 447 684 444 684 C401 684 333 686 315 681 L317 263 C317 224 312 114 308 75 L200 75 C197 98 192 182 192 254 L194 681 C162 686 129 687 101 686 C80 684 57 684 41 681 L41 239 C44 89 80 -8 227 -11 L273 -11 C423 -6 464 87 465 251 L462 681 Z " />
<glyph glyph-name="Yacute" unicode="&#xdd;" horiz-adv-x="491" d="M276 755 C305 797 327 875 335 908 C326 932 272 939 237 933 C231 933 227 930 221 917 C209 882 201 815 200 767 C215 749 252 746 276 755 L276 755 Z M474 659 C476 665 477 677 479 683 C471 687 426 701 372 686 C372 686 344 591 317 518 C297 462 285 419 271 372 C262 413 255 448 248 465 L183 659 L176 681 C161 687 147 689 128 690 C89 693 68 693 15 665 L84 491 C115 403 140 346 181 248 C182 222 182 193 182 188 L183 114 L180 41 L182 0 C204 -5 237 -6 276 -6 L327 0 L326 81 L326 238 C376 393 419 481 474 659 L474 659 Z " />
<glyph glyph-name="Thorn" unicode="&#xde;" horiz-adv-x="476" d="M268 592 L223 592 L200 592 L200 650 C200 664 200 678 197 692 C183 700 159 703 121 703 C98 703 70 702 56 688 L56 586 L56 560 L58 390 L58 71 L59 0 C81 -5 113 -6 151 -6 L202 0 L201 103 L259 103 C413 107 463 232 463 346 C463 455 431 592 268 592 L268 592 Z M302 185 L208 185 L201 188 L200 381 L200 514 L301 514 C306 503 308 407 308 346 C308 277 304 224 302 185 L302 185 Z " />
<glyph glyph-name="germandbls" unicode="&#xdf;" horiz-adv-x="542" d="M368 446 L368 510 C399 571 420 631 431 692 C344 719 303 724 245 724 L243 724 L242 724 C126 724 41 687 41 601 L41 512 L-13 508 C-25 485 -25 466 -15 435 C-1 435 18 434 41 432 L42 207 L42 60 C42 30 27 -21 12 -51 C32 -78 57 -98 105 -98 C117 -98 135 -96 143 -92 C164 -59 177 -17 177 60 L177 654 L284 654 L284 381 C339 314 393 260 393 140 L393 59 L357 59 C340 96 304 133 267 170 C248 119 241 68 242 17 C304 -6 337 -11 383 -11 C476 -11 531 39 531 159 C531 339 414 399 368 446 L368 446 Z " />
<glyph glyph-name="agrave" unicode="&#xe0;" horiz-adv-x="400" d="M256 639 C255 687 253 755 235 789 C229 803 225 806 219 806 C184 812 130 804 121 780 C129 747 151 669 180 627 C204 618 241 621 256 639 L256 639 Z M207 530 C146 529 95 522 36 491 C41 443 56 404 84 368 C121 394 159 445 174 457 L234 457 L232 363 L233 312 C83 308 4 287 4 146 C4 46 65 -9 216 -9 C267 -9 339 -3 369 10 C370 32 370 92 370 152 L370 288 L372 381 C372 479 333 530 207 530 L207 530 Z M234 58 L156 56 C154 85 153 114 153 146 C153 177 153 211 154 245 L233 245 L234 168 L234 58 Z " />
<glyph glyph-name="aacute" unicode="&#xe1;" horiz-adv-x="400" d="M198 627 C226 669 249 747 256 780 C247 804 193 812 159 806 C153 806 148 803 142 789 C130 755 123 687 121 639 C136 621 174 618 198 627 L198 627 Z M207 530 C146 529 95 522 36 491 C41 443 56 404 84 368 C121 394 159 445 174 457 L234 457 L232 363 L233 312 C83 308 4 287 4 146 C4 46 65 -9 216 -9 C267 -9 339 -3 369 10 C370 32 370 92 370 152 L370 288 L372 381 C372 479 333 530 207 530 L207 530 Z M234 58 L156 56 C154 85 153 114 153 146 C153 177 153 211 154 245 L233 245 L234 168 L234 58 Z " />
<glyph glyph-name="acircumflex" unicode="&#xe2;" horiz-adv-x="400" d="M133 627 C151 663 170 700 187 733 C205 700 225 663 244 627 C274 618 304 621 319 639 C300 704 256 791 238 806 C220 808 202 808 186 807 C171 808 153 808 135 806 C115 791 78 704 58 639 C73 621 103 618 133 627 L133 627 Z M207 530 C146 529 95 522 36 491 C41 443 56 404 84 368 C121 394 159 445 174 457 L234 457 L232 363 L233 312 C83 308 4 287 4 146 C4 46 65 -9 216 -9 C267 -9 339 -3 369 10 C370 32 370 92 370 152 L370 288 L372 381 C372 479 333 530 207 530 L207 530 Z M234 58 L156 56 C154 85 153 114 153 146 C153 177 153 211 154 245 L233 245 L234 168 L234 58 Z " />
<glyph glyph-name="atilde" unicode="&#xe3;" horiz-adv-x="400" d="M101 716 C152 675 200 611 272 632 C305 654 335 687 345 761 C329 773 314 777 276 780 C261 744 252 717 251 707 C191 758 165 803 86 791 C50 770 18 740 6 662 C23 647 38 642 77 642 C92 678 101 707 101 716 L101 716 Z M207 530 C146 529 95 522 36 491 C41 443 56 404 84 368 C121 394 159 445 174 457 L234 457 L232 363 L233 312 C83 308 4 287 4 146 C4 46 65 -9 216 -9 C267 -9 339 -3 369 10 C370 32 370 92 370 152 L370 288 L372 381 C372 479 333 530 207 530 L207 530 Z M234 58 L156 56 C154 85 153 114 153 146 C153 177 153 211 154 245 L233 245 L234 168 L234 58 Z " />
<glyph glyph-name="adieresis" unicode="&#xe4;" horiz-adv-x="400" d="M132 644 C153 669 159 726 149 759 C131 801 56 812 30 782 C6 752 6 690 24 654 C44 624 108 621 132 644 L132 644 Z M345 644 C366 669 371 726 360 759 C344 801 269 812 242 782 C219 752 218 690 236 654 C255 624 321 621 345 644 L345 644 Z M207 530 C146 529 95 522 36 491 C41 443 56 404 84 368 C121 394 159 445 174 457 L234 457 L232 363 L233 312 C83 308 4 287 4 146 C4 46 65 -9 216 -9 C267 -9 339 -3 369 10 C370 32 370 92 370 152 L370 288 L372 381 C372 479 333 530 207 530 L207 530 Z M234 58 L156 56 C154 85 153 114 153 146 C153 177 153 211 154 245 L233 245 L234 168 L234 58 Z " />
<glyph glyph-name="aring" unicode="&#xe5;" horiz-adv-x="400" d="M186 596 C192 596 221 597 225 599 C248 606 281 647 281 693 C281 747 245 791 195 791 C188 791 161 789 155 788 C132 782 98 740 98 693 C98 639 134 596 186 596 L186 596 Z M171 737 L209 737 C213 737 225 717 225 693 C225 669 215 657 210 650 L179 650 C170 650 155 669 155 693 C155 717 167 729 171 737 L171 737 Z M207 530 C146 529 95 522 36 491 C41 443 56 404 84 368 C121 394 159 445 174 457 L234 457 L232 363 L233 312 C83 308 4 287 4 146 C4 46 65 -9 216 -9 C267 -9 339 -3 369 10 C370 32 370 92 370 152 L370 288 L372 381 C372 479 333 530 207 530 L207 530 Z M234 58 L156 56 C154 85 153 114 153 146 C153 177 153 211 154 245 L233 245 L234 168 L234 58 Z " />
<glyph glyph-name="ae" unicode="&#xe6;" horiz-adv-x="598" d="M579 232 C617 503 509 530 422 530 C381 530 348 521 321 505 C296 521 259 530 207 530 C146 529 95 522 36 491 C41 443 56 404 84 368 C121 394 159 445 174 457 L234 457 L232 363 L233 312 C83 308 4 287 4 146 C4 46 65 -9 216 -9 C253 -9 300 -6 335 1 C356 -8 381 -12 411 -12 C482 -12 534 -2 567 11 C567 35 563 71 553 92 C520 85 471 68 438 57 L383 57 C382 82 381 151 381 226 C443 225 541 227 579 232 L579 232 Z M463 460 C467 394 468 346 466 293 L381 291 C381 366 382 434 384 460 L463 460 Z M234 58 L156 56 C154 85 153 114 153 146 C153 177 153 211 154 245 L233 245 L233 238 L234 168 L234 58 Z " />
<glyph glyph-name="ccedilla" unicode="&#xe7;" horiz-adv-x="357" d="M330 12 C329 60 317 74 308 89 C286 87 241 66 216 62 L174 62 C166 62 162 139 162 249 C162 356 169 436 174 459 L198 459 C222 435 260 392 298 368 C317 406 327 449 330 501 C286 522 246 528 201 530 C199 530 197 530 195 530 L190 530 C55 524 18 435 18 249 C18 132 47 29 137 -1 C133 -17 127 -40 119 -80 C190 -78 223 -110 197 -153 L172 -153 C157 -153 142 -146 118 -140 C95 -159 95 -215 101 -228 C115 -234 145 -243 179 -243 C236 -243 307 -218 307 -119 C307 -80 293 -36 211 -36 L218 -9 C266 -7 305 -1 330 12 L330 12 Z " />
<glyph glyph-name="egrave" unicode="&#xe8;" horiz-adv-x="383" d="M189 627 C213 618 250 621 265 639 C264 687 262 755 244 789 C238 803 234 806 228 806 C193 812 139 804 130 780 C138 747 160 669 189 627 L189 627 Z M364 232 C402 503 294 530 207 530 C69 530 18 431 18 264 C18 86 55 -12 196 -12 C267 -12 319 -2 352 11 C352 35 348 71 338 92 C305 85 256 68 223 57 L168 57 C167 82 166 151 166 226 C228 225 326 227 364 232 L364 232 Z M248 460 C252 394 253 346 251 293 L166 291 C166 366 167 434 169 460 L248 460 Z " />
<glyph glyph-name="eacute" unicode="&#xe9;" horiz-adv-x="383" d="M207 627 C235 669 258 747 265 780 C256 804 202 812 168 806 C162 806 157 803 151 789 C139 755 132 687 130 639 C145 621 183 618 207 627 L207 627 Z M364 232 C402 503 294 530 207 530 C69 530 18 431 18 264 C18 86 55 -12 196 -12 C267 -12 319 -2 352 11 C352 35 348 71 338 92 C305 85 256 68 223 57 L168 57 C167 82 166 151 166 226 C228 225 326 227 364 232 L364 232 Z M248 460 C252 394 253 346 251 293 L166 291 C166 366 167 434 169 460 L248 460 Z " />
<glyph glyph-name="ecircumflex" unicode="&#xea;" horiz-adv-x="383" d="M142 627 C160 663 179 700 196 733 C214 700 234 663 253 627 C283 618 313 621 328 639 C309 704 265 791 247 806 C229 808 211 808 195 807 C180 808 162 808 144 806 C124 791 87 704 67 639 C82 621 112 618 142 627 L142 627 Z M364 232 C402 503 294 530 207 530 C69 530 18 431 18 264 C18 86 55 -12 196 -12 C267 -12 319 -2 352 11 C352 35 348 71 338 92 C305 85 256 68 223 57 L168 57 C167 82 166 151 166 226 C228 225 326 227 364 232 L364 232 Z M248 460 C252 394 253 346 251 293 L166 291 C166 366 167 434 169 460 L248 460 Z " />
<glyph glyph-name="edieresis" unicode="&#xeb;" horiz-adv-x="383" d="M141 644 C162 669 168 726 158 759 C140 801 65 812 39 782 C15 752 15 690 33 654 C53 624 117 621 141 644 L141 644 Z M354 644 C375 669 380 726 369 759 C353 801 278 812 251 782 C228 752 227 690 245 654 C264 624 330 621 354 644 L354 644 Z M207 530 C69 530 18 431 18 264 C18 86 55 -12 196 -12 C267 -12 319 -2 352 11 C352 35 348 71 338 92 C305 85 256 68 223 57 L168 57 C167 82 166 151 166 226 C228 225 326 227 364 232 C402 503 294 530 207 530 L207 530 Z M166 291 C166 366 167 434 169 460 L248 460 C252 394 253 346 251 293 L166 291 Z " />
<glyph glyph-name="igrave" unicode="&#xec;" horiz-adv-x="229" d="M92 627 C116 618 153 621 168 639 C167 687 165 755 147 789 C141 803 137 806 131 806 C96 812 42 804 33 780 C41 747 63 669 92 627 L92 627 Z M170 152 L171 329 L173 464 C173 525 119 525 98 525 C69 525 56 519 35 516 L32 512 C33 500 35 486 35 474 L35 426 L33 296 L33 152 C33 72 48 27 71 0 C78 -5 96 -6 108 -6 C155 -6 182 18 201 53 C191 68 170 110 170 152 L170 152 Z " />
<glyph glyph-name="iacute" unicode="&#xed;" horiz-adv-x="229" d="M33 639 C48 621 86 618 110 627 C138 669 161 747 168 780 C159 804 105 812 71 806 C65 806 60 803 54 789 C42 755 35 687 33 639 L33 639 Z M170 152 L171 329 L173 464 C173 525 119 525 98 525 C69 525 56 519 35 516 L32 512 C33 500 35 486 35 474 L35 426 L33 296 L33 152 C33 72 48 27 71 0 C78 -5 96 -6 108 -6 C155 -6 182 18 201 53 C191 68 170 110 170 152 L170 152 Z " />
<glyph glyph-name="icircumflex" unicode="&#xee;" horiz-adv-x="321" d="M212 806 C194 808 176 808 160 807 C145 808 127 808 109 806 C89 791 51 704 32 639 C47 621 77 618 107 627 C125 663 144 700 161 733 C179 700 199 663 218 627 C248 618 278 621 293 639 C274 704 230 791 212 806 L212 806 Z M233 329 L235 464 C235 525 181 525 160 525 C131 525 118 519 97 516 L94 512 C95 500 97 486 97 474 L97 426 L95 296 L95 152 C95 72 110 27 133 0 C140 -5 158 -6 170 -6 C217 -6 244 18 263 53 C253 68 232 110 232 152 L233 329 Z " />
<glyph glyph-name="idieresis" unicode="&#xef;" horiz-adv-x="415" d="M45 654 C65 624 130 621 154 644 C175 669 181 726 170 759 C152 801 77 812 51 782 C27 752 27 690 45 654 L45 654 Z M257 654 C277 624 343 621 367 644 C388 669 392 726 382 759 C365 801 290 812 263 782 C241 752 239 690 257 654 L257 654 Z M280 152 L281 329 L283 464 C283 525 229 525 208 525 C179 525 166 519 145 516 L142 512 C143 500 145 486 145 474 L145 426 L143 296 L143 152 C143 72 158 27 181 0 C188 -5 206 -6 218 -6 C265 -6 292 18 311 53 C301 68 280 110 280 152 L280 152 Z " />
<glyph glyph-name="eth" unicode="&#xf0;" horiz-adv-x="946" d="" />
<glyph glyph-name="ntilde" unicode="&#xf1;" horiz-adv-x="481" d="M168 716 C219 675 267 611 339 632 C372 654 402 687 413 761 C396 773 381 777 344 780 C329 744 320 717 318 707 C258 758 233 803 153 791 C117 770 86 740 74 662 C90 647 105 642 144 642 C159 678 168 707 168 716 L168 716 Z M422 150 L425 294 L426 381 C426 464 416 530 317 530 C252 530 236 507 215 485 C196 465 183 444 173 424 L173 464 C173 525 119 525 98 525 C69 525 56 519 35 516 L32 512 C36 482 38 447 38 426 L36 225 L36 71 L32 0 C54 -5 110 -6 150 -2 C162 0 165 3 171 5 L174 186 L174 314 C198 373 233 418 252 452 L288 452 L287 339 L285 150 C285 71 300 26 323 -2 C330 -6 348 -8 360 -8 C407 -8 434 17 453 51 C443 66 422 108 422 150 L422 150 Z " />
<glyph glyph-name="ograve" unicode="&#xf2;" horiz-adv-x="431" d="M286 639 C285 687 283 755 265 789 C259 803 255 806 249 806 C214 812 160 804 151 780 C159 747 181 669 210 627 C234 618 271 621 286 639 L286 639 Z M413 261 L413 263 C412 434 339 530 239 530 L192 530 C92 530 19 434 18 263 C18 262 18 261 18 261 L18 258 C19 87 92 -9 192 -9 L239 -9 C339 -9 412 87 413 258 L413 261 Z M261 62 L170 62 C168 70 165 119 165 261 C165 402 168 451 170 459 L261 459 C263 451 266 402 266 261 C266 119 263 70 261 62 L261 62 Z " />
<glyph glyph-name="oacute" unicode="&#xf3;" horiz-adv-x="431" d="M228 627 C256 669 279 747 286 780 C277 804 223 812 189 806 C183 806 178 803 172 789 C160 755 153 687 151 639 C166 621 204 618 228 627 L228 627 Z M413 261 L413 263 C412 434 339 530 239 530 L192 530 C92 530 19 434 18 263 C18 262 18 261 18 261 L18 258 C19 87 92 -9 192 -9 L239 -9 C339 -9 412 87 413 258 L413 261 Z M261 62 L170 62 C168 70 165 119 165 261 C165 402 168 451 170 459 L261 459 C263 451 266 402 266 261 C266 119 263 70 261 62 L261 62 Z " />
<glyph glyph-name="ocircumflex" unicode="&#xf4;" horiz-adv-x="431" d="M163 627 C181 663 200 700 217 733 C235 700 255 663 274 627 C304 618 334 621 349 639 C330 704 286 791 268 806 C250 808 232 808 216 807 C201 808 183 808 165 806 C145 791 108 704 88 639 C103 621 133 618 163 627 L163 627 Z M413 261 L413 263 C412 434 339 530 239 530 L192 530 C92 530 19 434 18 263 C18 262 18 261 18 261 L18 258 C19 87 92 -9 192 -9 L239 -9 C339 -9 412 87 413 258 L413 261 Z M261 62 L170 62 C168 70 165 119 165 261 C165 402 168 451 170 459 L261 459 C263 451 266 402 266 261 C266 119 263 70 261 62 L261 62 Z " />
<glyph glyph-name="otilde" unicode="&#xf5;" horiz-adv-x="431" d="M131 716 C182 675 230 611 302 632 C335 654 365 687 375 761 C359 773 344 777 306 780 C291 744 282 717 281 707 C221 758 195 803 116 791 C80 770 48 740 36 662 C53 647 68 642 107 642 C122 678 131 707 131 716 L131 716 Z M413 261 L413 263 C412 434 339 530 239 530 L192 530 C92 530 19 434 18 263 C18 262 18 261 18 261 L18 258 C19 87 92 -9 192 -9 L239 -9 C339 -9 412 87 413 258 L413 261 Z M261 62 L170 62 C168 70 165 119 165 261 C165 402 168 451 170 459 L261 459 C263 451 266 402 266 261 C266 119 263 70 261 62 L261 62 Z " />
<glyph glyph-name="odieresis" unicode="&#xf6;" horiz-adv-x="431" d="M162 644 C183 669 189 726 179 759 C161 801 86 812 60 782 C36 752 36 690 54 654 C74 624 138 621 162 644 L162 644 Z M375 644 C396 669 401 726 390 759 C374 801 299 812 272 782 C249 752 248 690 266 654 C285 624 351 621 375 644 L375 644 Z M413 261 L413 263 C412 434 339 530 239 530 L192 530 C92 530 19 434 18 263 C18 262 18 261 18 261 L18 258 C19 87 92 -9 192 -9 L239 -9 C339 -9 412 87 413 258 L413 261 Z M261 62 L170 62 C168 70 165 119 165 261 C165 402 168 451 170 459 L261 459 C263 451 266 402 266 261 C266 119 263 70 261 62 L261 62 Z " />
<glyph glyph-name="divide" unicode="&#xf7;" horiz-adv-x="900" d="" />
<glyph glyph-name="oslash" unicode="&#xf8;" horiz-adv-x="431" d="M413 263 C412 333 400 390 379 433 L436 519 C407 526 378 526 349 519 L349 483 L347 481 C318 513 281 530 239 530 L192 530 C92 530 19 434 18 263 C18 262 18 261 18 261 L18 258 C19 188 31 131 52 87 C32 58 13 29 -6 0 C23 -8 52 -8 81 0 L81 43 C110 9 149 -9 192 -9 L239 -9 C339 -9 412 87 413 258 C413 259 413 260 413 261 L413 263 Z M165 261 C165 402 168 451 170 459 L261 459 C262 454 264 432 265 381 C232 336 198 290 165 245 L165 261 Z M261 62 L170 62 C169 67 167 88 166 139 C200 183 234 228 266 272 L266 261 C266 119 263 70 261 62 L261 62 Z " />
<glyph glyph-name="ugrave" unicode="&#xf9;" horiz-adv-x="435" d="M260 639 C258 687 257 755 239 789 C233 803 228 806 222 806 C188 812 134 804 125 780 C132 747 155 669 183 627 C207 618 245 621 260 639 L260 639 Z M410 98 L411 510 C395 519 366 524 348 524 C321 525 302 521 275 516 L275 222 C257 152 231 101 198 65 L165 67 L167 201 L167 204 L165 464 C165 525 111 525 90 525 C62 525 48 519 27 516 L24 512 C29 482 30 447 30 426 L29 230 L27 143 C27 59 38 -8 143 -8 C212 -8 227 12 249 36 C260 52 269 67 275 79 L275 60 C275 -2 329 -2 350 -2 C378 -2 392 5 413 8 L416 12 C411 42 410 77 410 98 L410 98 Z " />
<glyph glyph-name="uacute" unicode="&#xfa;" horiz-adv-x="435" d="M245 627 C273 669 296 747 303 780 C294 804 240 812 206 806 C200 806 195 803 189 789 C177 755 170 687 168 639 C183 621 221 618 245 627 L245 627 Z M410 98 L411 510 C395 519 366 524 348 524 C321 525 302 521 275 516 L275 222 C257 152 231 101 198 65 L165 67 L167 201 L167 204 L165 464 C165 525 111 525 90 525 C62 525 48 519 27 516 L24 512 C29 482 30 447 30 426 L29 230 L27 143 C27 59 38 -8 143 -8 C212 -8 227 12 249 36 C260 52 269 67 275 79 L275 60 C275 -2 329 -2 350 -2 C378 -2 392 5 413 8 L416 12 C411 42 410 77 410 98 L410 98 Z " />
<glyph glyph-name="ucircumflex" unicode="&#xfb;" horiz-adv-x="435" d="M156 627 C174 663 193 700 210 733 C228 700 248 663 267 627 C297 618 327 621 342 639 C323 704 279 791 261 806 C243 808 225 808 209 807 C194 808 176 808 158 806 C138 791 101 704 81 639 C96 621 126 618 156 627 L156 627 Z M410 98 L411 510 C395 519 366 524 348 524 C321 525 302 521 275 516 L275 222 C257 152 231 101 198 65 L165 67 L167 201 L167 204 L165 464 C165 525 111 525 90 525 C62 525 48 519 27 516 L24 512 C29 482 30 447 30 426 L29 230 L27 143 C27 59 38 -8 143 -8 C212 -8 227 12 249 36 C260 52 269 67 275 79 L275 60 C275 -2 329 -2 350 -2 C378 -2 392 5 413 8 L416 12 C411 42 410 77 410 98 L410 98 Z " />
<glyph glyph-name="udieresis" unicode="&#xfc;" horiz-adv-x="435" d="M161 644 C182 669 188 726 177 759 C159 801 84 812 59 782 C35 752 35 690 53 654 C72 624 137 621 161 644 L161 644 Z M374 644 C395 669 399 726 389 759 C372 801 297 812 270 782 C248 752 246 690 264 654 C284 624 350 621 374 644 L374 644 Z M410 98 L411 510 C395 519 366 524 348 524 C321 525 302 521 275 516 L275 222 C257 152 231 101 198 65 L165 67 L167 201 L167 204 L165 464 C165 525 111 525 90 525 C62 525 48 519 27 516 L24 512 C29 482 30 447 30 426 L29 230 L27 143 C27 59 38 -8 143 -8 C212 -8 227 12 249 36 C260 52 269 67 275 79 L275 60 C275 -2 329 -2 350 -2 C378 -2 392 5 413 8 L416 12 C411 42 410 77 410 98 L410 98 Z " />
<glyph glyph-name="yacute" unicode="&#xfd;" horiz-adv-x="370" d="M217 627 C246 669 268 747 276 780 C267 804 213 812 178 806 C172 806 168 803 162 789 C150 755 142 687 141 639 C156 621 193 618 217 627 L217 627 Z M367 515 C342 521 298 527 279 521 C262 516 255 513 252 507 C250 450 249 399 244 341 C237 293 226 237 216 204 L197 123 L180 209 C168 257 160 308 153 356 C148 405 147 458 141 516 C90 525 34 537 -4 501 C-1 434 5 368 16 308 C43 180 85 72 127 2 L132 -1 L120 -30 C87 -69 52 -116 34 -140 C43 -170 73 -213 112 -222 L139 -228 C162 -207 193 -147 222 -72 C274 62 314 219 335 310 L339 323 C355 393 370 470 367 515 L367 515 Z " />
<glyph glyph-name="thorn" unicode="&#xfe;" horiz-adv-x="447" d="M429 260 C426 425 378 531 273 528 C240 528 198 474 173 423 L174 704 C174 765 120 765 99 765 C71 765 57 759 36 756 L33 752 C35 740 36 726 36 714 L36 516 L35 516 L32 512 C33 501 35 490 35 479 L35 296 L36 152 L36 -137 L32 -207 C54 -212 110 -213 150 -209 C162 -207 165 -204 171 -203 L173 15 C177 18 180 21 184 25 C206 4 235 -11 267 -11 C354 -11 426 77 429 243 L429 260 Z M177 120 C176 126 174 133 174 140 L174 319 C201 376 232 419 254 452 L278 452 C281 429 281 374 282 257 C284 172 276 88 269 56 L240 56 C210 73 187 98 177 120 L177 120 Z " />
<glyph glyph-name="ydieresis" unicode="&#xff;" horiz-adv-x="370" d="M133 644 C154 669 160 726 150 759 C132 801 57 812 31 782 C7 752 7 690 25 654 C45 624 109 621 133 644 L133 644 Z M346 644 C367 669 372 726 361 759 C345 801 270 812 243 782 C220 752 219 690 237 654 C256 624 322 621 346 644 L346 644 Z M367 515 C342 521 298 527 279 521 C262 516 255 513 252 507 C250 450 249 399 244 341 C237 293 226 237 216 204 L197 123 L180 209 C168 257 160 308 153 356 C148 405 147 458 141 516 C90 525 34 537 -4 501 C-1 434 5 368 16 308 C43 180 85 72 127 2 L132 -1 L120 -30 C87 -69 52 -116 34 -140 C43 -170 73 -213 112 -222 L139 -228 C162 -207 193 -147 222 -72 C274 62 314 219 335 310 L339 323 C355 393 370 470 367 515 L367 515 Z " />
<glyph glyph-name="Amacron" unicode="&#x100;" horiz-adv-x="495" d="M408 792 C415 834 415 843 408 885 C306 894 228 883 133 885 C125 843 124 822 133 792 C244 790 297 792 408 792 L408 792 Z M319 696 C267 703 221 699 193 695 L196 682 C198 672 200 661 203 651 C171 546 40 117 6 4 C10 -6 48 -16 108 -3 C111 5 112 11 114 18 L146 131 C226 129 251 130 326 131 C337 85 347 40 355 0 C389 -14 452 -15 502 0 C443 222 381 485 319 696 L319 696 Z M170 217 C192 298 219 392 243 475 C263 390 285 301 305 217 C254 219 219 215 170 217 L170 217 Z " />
<glyph glyph-name="amacron" unicode="&#x101;" horiz-adv-x="400" d="M327 665 C334 707 334 716 327 758 C225 767 147 756 52 758 C44 716 43 695 52 665 C163 663 216 665 327 665 L327 665 Z M207 530 C146 529 95 522 36 491 C41 443 56 404 84 368 C121 394 159 445 174 457 L234 457 L232 363 L233 312 C83 308 4 287 4 146 C4 46 65 -9 216 -9 C267 -9 339 -3 369 10 C370 32 370 92 370 152 L370 288 L372 381 C372 479 333 530 207 530 L207 530 Z M234 58 L156 56 C154 85 153 114 153 146 C153 177 153 211 154 245 L233 245 L234 168 L234 58 Z " />
<glyph glyph-name="Abreve" unicode="&#x102;" horiz-adv-x="495" d="M232 751 C235 751 238 750 240 750 C249 749 259 748 269 748 C279 748 289 749 298 750 C300 750 303 751 306 751 C378 766 408 853 391 918 C376 936 343 939 315 930 C313 882 307 828 269 802 C232 828 226 882 225 930 C198 939 165 936 148 918 C131 853 162 766 232 751 L232 751 Z M319 696 C267 703 221 699 193 695 L196 682 C198 672 200 661 203 651 C171 546 40 117 6 4 C10 -6 48 -16 108 -3 C111 5 112 11 114 18 L146 131 C226 129 251 130 326 131 C337 85 347 40 355 0 C389 -14 452 -15 502 0 C443 222 381 485 319 696 L319 696 Z M170 217 C192 298 219 392 243 475 C263 390 285 301 305 217 C254 219 219 215 170 217 L170 217 Z " />
<glyph glyph-name="abreve" unicode="&#x103;" horiz-adv-x="400" d="M151 624 C154 624 157 623 159 623 C168 622 178 621 188 621 C198 621 208 622 217 623 C219 623 222 624 225 624 C297 639 327 726 310 791 C295 809 262 812 234 803 C232 755 226 701 188 675 C151 701 145 755 144 803 C117 812 84 809 67 791 C50 726 81 639 151 624 L151 624 Z M207 530 C146 529 95 522 36 491 C41 443 56 404 84 368 C121 394 159 445 174 457 L234 457 L232 363 L233 312 C83 308 4 287 4 146 C4 46 65 -9 216 -9 C267 -9 339 -3 369 10 C370 32 370 92 370 152 L370 288 L372 381 C372 479 333 530 207 530 L207 530 Z M234 58 L156 56 C154 85 153 114 153 146 C153 177 153 211 154 245 L233 245 L234 168 L234 58 Z " />
<glyph glyph-name="Aogonek" unicode="&#x104;" horiz-adv-x="495" d="M463 -108 C451 -116 432 -125 417 -125 C412 -125 402 -125 399 -123 C396 -116 396 -111 396 -99 C396 -63 414 -36 433 -11 C456 -10 480 -6 502 0 C443 222 381 485 319 696 C267 703 221 699 193 695 L196 682 C198 672 200 661 203 651 C171 546 40 117 6 4 C10 -6 48 -16 108 -3 C111 5 112 11 114 18 L146 131 C226 129 251 130 326 131 C336 87 346 45 354 6 C322 -22 289 -63 289 -126 C289 -219 355 -243 409 -243 C447 -243 468 -234 483 -228 C493 -212 504 -120 463 -108 L463 -108 Z M170 217 C192 298 219 392 243 475 C263 390 285 301 305 217 C254 219 219 215 170 217 L170 217 Z " />
<glyph glyph-name="aogonek" unicode="&#x105;" horiz-adv-x="400" d="M207 530 C146 529 95 522 36 491 C41 443 56 404 84 368 C121 394 159 445 174 457 L234 457 L232 363 L233 312 C83 308 4 287 4 146 C4 50 61 -5 200 -9 C174 -36 151 -73 151 -126 C151 -219 217 -243 271 -243 C309 -243 330 -234 345 -228 C355 -212 366 -120 325 -108 C313 -116 294 -125 279 -125 C274 -125 264 -125 261 -123 C258 -116 258 -111 258 -99 C258 -60 279 -31 300 -4 C328 -1 354 3 369 10 C370 32 370 92 370 152 L370 288 L372 381 C372 479 333 530 207 530 L207 530 Z M153 146 C153 177 153 211 154 245 L233 245 L234 168 L234 58 L156 56 C154 85 153 114 153 146 L153 146 Z " />
<glyph glyph-name="Cacute" unicode="&#x106;" horiz-adv-x="440" d="M300 755 C329 797 351 875 359 908 C350 932 296 939 261 933 C255 933 251 930 245 917 C233 882 225 815 224 767 C239 749 276 746 300 755 L300 755 Z M269 74 L224 74 C197 105 176 213 176 344 C176 474 197 582 224 614 L258 614 C273 593 341 554 365 545 C399 560 422 591 428 645 C372 686 327 696 273 696 L248 696 C75 684 20 500 20 344 C20 188 63 -2 248 -9 L281 -9 C327 -9 368 0 419 20 C414 74 398 128 381 167 C329 138 285 93 269 74 L269 74 Z " />
<glyph glyph-name="cacute" unicode="&#x107;" horiz-adv-x="357" d="M208 627 C236 669 259 747 266 780 C257 804 203 812 169 806 C163 806 158 803 152 789 C140 755 133 687 131 639 C146 621 184 618 208 627 L208 627 Z M216 62 L174 62 C166 62 162 139 162 249 C162 356 169 436 174 459 L198 459 C222 435 260 392 298 368 C317 406 327 449 330 501 C286 522 246 528 201 530 C199 530 197 530 195 530 L190 530 C55 524 18 435 18 249 C18 110 59 -9 193 -9 C252 -9 301 -3 330 12 C329 60 317 74 308 89 C286 87 241 66 216 62 L216 62 Z " />
<glyph glyph-name="Cdotaccent" unicode="&#x10a;" horiz-adv-x="440" d="M323 767 C345 794 351 854 339 890 C321 935 242 945 213 914 C189 882 188 816 207 779 C228 746 297 743 323 767 L323 767 Z M269 74 L224 74 C197 105 176 213 176 344 C176 474 197 582 224 614 L258 614 C273 593 341 554 365 545 C399 560 422 591 428 645 C372 686 327 696 273 696 L248 696 C75 684 20 500 20 344 C20 188 63 -2 248 -9 L281 -9 C327 -9 368 0 419 20 C414 74 398 128 381 167 C329 138 285 93 269 74 L269 74 Z " />
<glyph glyph-name="cdotaccent" unicode="&#x10b;" horiz-adv-x="357" d="M136 651 C157 618 226 615 251 639 C274 666 280 726 268 762 C250 807 170 818 142 786 C117 755 116 689 136 651 L136 651 Z M216 62 L174 62 C166 62 162 139 162 249 C162 356 169 436 174 459 L198 459 C222 435 260 392 298 368 C317 406 327 449 330 501 C286 522 246 528 201 530 C199 530 197 530 195 530 L190 530 C55 524 18 435 18 249 C18 110 59 -9 193 -9 C252 -9 301 -3 330 12 C329 60 317 74 308 89 C286 87 241 66 216 62 L216 62 Z " />
<glyph glyph-name="Ccaron" unicode="&#x10c;" horiz-adv-x="440" d="M215 752 C233 750 251 750 266 750 C282 750 300 750 318 752 C336 767 380 854 399 918 C384 936 354 939 330 930 C308 895 286 857 267 823 C249 857 228 895 207 930 C183 939 153 936 138 918 C158 854 195 767 215 752 L215 752 Z M269 74 L224 74 C197 105 176 213 176 344 C176 474 197 582 224 614 L258 614 C273 593 341 554 365 545 C399 560 422 591 428 645 C372 686 327 696 273 696 L248 696 C75 684 20 500 20 344 C20 188 63 -2 248 -9 L281 -9 C327 -9 368 0 419 20 C414 74 398 128 381 167 C329 138 285 93 269 74 L269 74 Z " />
<glyph glyph-name="ccaron" unicode="&#x10d;" horiz-adv-x="357" d="M145 624 C163 622 181 622 196 623 C212 622 230 622 248 624 C266 639 310 726 329 791 C314 809 284 812 260 803 C238 767 216 729 197 696 C179 729 158 767 137 803 C113 812 83 809 68 791 C88 726 125 639 145 624 L145 624 Z M216 62 L174 62 C166 62 162 139 162 249 C162 356 169 436 174 459 L198 459 C222 435 260 392 298 368 C317 406 327 449 330 501 C286 522 246 528 201 530 C199 530 197 530 195 530 L190 530 C55 524 18 435 18 249 C18 110 59 -9 193 -9 C252 -9 301 -3 330 12 C329 60 317 74 308 89 C286 87 241 66 216 62 L216 62 Z " />
<glyph glyph-name="Dcaron" unicode="&#x10e;" horiz-adv-x="516" d="M210 751 C228 749 246 749 261 750 C277 749 295 749 313 751 C331 766 375 853 394 918 C379 936 349 939 325 930 C303 894 281 856 262 823 C244 856 223 894 202 930 C178 939 148 936 133 918 C153 853 190 766 210 751 L210 751 Z M282 696 L230 696 C180 696 92 695 57 681 L57 591 L60 401 L57 71 L56 0 L57 0 L56 -2 C98 -5 141 -8 195 -8 L273 -8 C430 -3 485 152 485 341 C485 557 423 696 282 696 L282 696 Z M298 75 L201 75 L203 381 L200 614 L296 614 C304 596 314 534 314 338 C314 224 306 114 298 75 L298 75 Z " />
<glyph glyph-name="dcaron" unicode="&#x10f;" horiz-adv-x="591" d="M475 783 C460 726 448 669 440 617 C467 602 493 602 523 612 C552 669 571 726 580 783 C547 793 511 793 475 783 L475 783 Z M398 329 L398 712 C378 735 347 733 326 733 C297 733 270 727 260 722 C262 709 263 695 263 682 L263 508 C244 521 218 530 183 530 C78 530 21 440 19 264 C12 87 67 -11 172 -11 C226 -11 265 17 284 48 C289 27 295 14 304 -3 C312 -8 330 -9 343 -9 C384 -9 406 11 423 38 C415 56 400 103 400 152 L398 329 Z M207 54 L168 54 C166 90 163 128 165 257 C165 360 168 419 175 452 L222 453 C234 445 248 433 262 420 L262 296 L263 152 C263 133 264 116 265 101 C255 81 237 63 207 54 L207 54 Z " />
<glyph glyph-name="Dcroat" unicode="&#x110;" horiz-adv-x="516" d="M282 696 L230 696 C180 696 92 695 57 681 L57 656 L12 656 C-5 614 -5 597 12 555 L58 555 L60 401 L57 71 L56 0 L57 0 L56 -2 C98 -5 141 -8 195 -8 L273 -8 C430 -3 485 152 485 341 C485 557 423 696 282 696 L282 696 Z M298 75 L201 75 L203 381 L201 559 C232 560 265 560 306 560 C311 519 314 450 314 338 C314 224 306 114 298 75 L298 75 Z " />
<glyph glyph-name="dcroat" unicode="&#x111;" horiz-adv-x="513" d="M474 666 C449 668 427 670 406 670 L406 704 C406 765 352 765 331 765 C303 765 289 759 268 756 L265 752 C267 740 268 726 268 714 L268 664 C240 662 209 661 172 662 C156 620 156 603 172 561 C209 561 239 562 268 562 L268 481 C243 508 212 530 174 530 C75 530 21 440 19 264 C12 87 67 -11 172 -11 C223 -11 261 14 281 44 C287 25 293 11 301 0 C309 -5 327 -6 339 -6 C390 -6 418 20 439 57 C427 72 405 111 405 152 L405 329 L406 566 L474 566 C489 608 489 624 474 666 L474 666 Z M207 54 L168 54 C166 90 163 128 165 257 C165 360 168 419 175 453 L210 453 C227 437 247 414 267 387 L267 296 L268 152 C268 137 269 124 270 112 C261 87 242 65 207 54 L207 54 Z " />
<glyph glyph-name="Emacron" unicode="&#x112;" horiz-adv-x="403" d="M81 885 C73 843 72 822 81 792 C192 790 245 792 356 792 C363 834 363 843 356 885 C254 894 176 883 81 885 L81 885 Z M288 72 L204 72 L205 304 C254 304 303 305 354 307 C357 340 360 365 357 398 L307 398 C260 398 232 394 206 393 L203 620 L288 620 C306 591 339 561 368 547 C384 594 396 651 384 695 L327 695 C255 693 218 690 140 690 L134 690 C102 690 80 686 66 681 L57 672 C59 642 60 612 60 591 L63 401 L60 71 L56 0 C78 -5 138 0 179 0 L203 0 L203 1 C244 -1 277 -3 327 -3 L384 -3 C396 41 384 98 368 145 C339 131 306 101 288 72 L288 72 Z " />
<glyph glyph-name="emacron" unicode="&#x113;" horiz-adv-x="383" d="M61 758 C53 716 52 695 61 665 C172 663 225 665 336 665 C343 707 343 716 336 758 C234 767 156 756 61 758 L61 758 Z M364 232 C402 503 294 530 207 530 C69 530 18 431 18 264 C18 86 55 -12 196 -12 C267 -12 319 -2 352 11 C352 35 348 71 338 92 C305 85 256 68 223 57 L168 57 C167 82 166 151 166 226 C228 225 326 227 364 232 L364 232 Z M248 460 C252 394 253 346 251 293 L166 291 C166 366 167 434 169 460 L248 460 Z " />
<glyph glyph-name="Edotaccent" unicode="&#x116;" horiz-adv-x="403" d="M155 778 C176 745 245 742 270 766 C293 793 299 853 287 889 C269 934 189 945 161 913 C136 882 135 816 155 778 L155 778 Z M288 72 L204 72 L205 304 C254 304 303 305 354 307 C357 340 360 365 357 398 L307 398 C260 398 232 394 206 393 L203 620 L288 620 C306 591 339 561 368 547 C384 594 396 651 384 695 L327 695 C255 693 218 690 140 690 L140 690 L134 690 C102 690 80 686 66 681 L57 672 C59 642 60 612 60 591 L63 401 L60 71 L56 0 C78 -5 138 0 179 0 L203 0 L203 1 C244 -1 277 -3 327 -3 L384 -3 C396 41 384 98 368 145 C339 131 306 101 288 72 L288 72 Z " />
<glyph glyph-name="edotaccent" unicode="&#x117;" horiz-adv-x="383" d="M135 651 C156 618 225 615 250 639 C273 666 279 726 267 762 C249 807 169 818 141 786 C116 755 115 689 135 651 L135 651 Z M364 232 C402 503 294 530 207 530 C69 530 18 431 18 264 C18 86 55 -12 196 -12 C267 -12 319 -2 352 11 C352 35 348 71 338 92 C305 85 256 68 223 57 L168 57 C167 82 166 151 166 226 C228 225 326 227 364 232 L364 232 Z M248 460 C252 394 253 346 251 293 L166 291 C166 366 167 434 169 460 L248 460 Z " />
<glyph glyph-name="Eogonek" unicode="&#x118;" horiz-adv-x="403" d="M288 72 L204 72 L205 304 C254 304 303 305 354 307 C357 340 360 365 357 398 L307 398 C260 398 232 394 206 393 L203 620 L288 620 C306 591 339 561 368 547 C384 594 396 651 384 695 L327 695 C255 693 218 690 140 690 L134 690 C102 690 80 686 66 681 L57 672 C59 642 60 612 60 591 L63 401 L60 71 L56 0 C78 -5 138 0 179 0 L203 0 L203 1 C213 1 222 0 232 0 C202 -28 174 -68 174 -126 C174 -219 240 -243 294 -243 C332 -243 353 -234 368 -228 C378 -212 389 -120 348 -108 C336 -116 317 -125 302 -125 C297 -125 287 -125 284 -123 C281 -116 281 -111 281 -99 C281 -60 303 -30 324 -3 L327 -3 L384 -3 C396 41 384 98 368 145 C339 131 306 101 288 72 L288 72 Z " />
<glyph glyph-name="eogonek" unicode="&#x119;" horiz-adv-x="383" d="M364 232 C402 503 294 530 207 530 C69 530 18 431 18 264 C18 105 48 9 155 -9 C129 -36 106 -73 106 -126 C106 -219 172 -243 226 -243 C264 -243 285 -234 300 -228 C310 -212 321 -120 280 -108 C268 -116 249 -125 234 -125 C229 -125 219 -125 216 -123 C213 -116 213 -111 213 -99 C213 -63 231 -35 251 -10 C294 -6 328 2 352 11 C352 35 348 71 338 92 C305 85 256 68 223 57 L168 57 C167 82 166 151 166 226 C228 225 326 227 364 232 L364 232 Z M169 460 L248 460 C252 394 253 346 251 293 L166 291 C166 366 167 434 169 460 L169 460 Z " />
<glyph glyph-name="Ecaron" unicode="&#x11a;" horiz-adv-x="403" d="M164 751 C182 749 200 749 215 750 C231 749 249 749 267 751 C285 766 329 853 348 918 C333 936 303 939 279 930 C257 894 235 856 216 823 C198 856 177 894 156 930 C132 939 102 936 87 918 C107 853 144 766 164 751 L164 751 Z M288 72 L204 72 L205 304 C254 304 303 305 354 307 C357 340 360 365 357 398 L307 398 C260 398 232 394 206 393 L203 620 L288 620 C306 591 339 561 368 547 C384 594 396 651 384 695 L327 695 C255 693 218 690 140 690 L134 690 C102 690 80 686 66 681 L57 672 C59 642 60 612 60 591 L63 401 L60 71 L56 0 C78 -5 138 0 179 0 L203 0 L203 1 C244 -1 277 -3 327 -3 L384 -3 C396 41 384 98 368 145 C339 131 306 101 288 72 L288 72 Z " />
<glyph glyph-name="ecaron" unicode="&#x11b;" horiz-adv-x="383" d="M144 624 C162 622 180 622 195 623 C211 622 229 622 247 624 C265 639 309 726 328 791 C313 809 283 812 259 803 C237 767 215 729 196 696 C178 729 157 767 136 803 C112 812 82 809 67 791 C87 726 124 639 144 624 L144 624 Z M364 232 C402 503 294 530 207 530 C69 530 18 431 18 264 C18 86 55 -12 196 -12 C267 -12 319 -2 352 11 C352 35 348 71 338 92 C305 85 256 68 223 57 L168 57 C167 82 166 151 166 226 C228 225 326 227 364 232 L364 232 Z M248 460 C252 394 253 346 251 293 L166 291 C166 366 167 434 169 460 L248 460 Z " />
<glyph glyph-name="Gbreve" unicode="&#x11e;" horiz-adv-x="497" d="M230 752 C232 752 234 752 235 751 C245 749 255 749 267 749 C278 749 288 749 298 751 C299 752 301 752 303 752 C375 767 405 854 389 918 C374 936 341 939 312 930 C311 883 306 829 267 803 C229 829 224 883 222 930 C195 939 162 936 146 918 C129 854 159 767 230 752 L230 752 Z M459 63 L458 296 L458 365 C413 369 405 375 330 375 L276 375 C270 342 269 323 279 290 C303 289 320 288 334 288 L334 207 C322 145 296 100 275 75 L233 75 C197 86 176 182 176 344 C176 474 197 582 224 614 L266 614 C281 591 344 551 377 542 C410 561 432 593 440 642 C384 683 336 696 281 696 L251 696 C72 696 20 519 20 344 C20 111 89 -14 242 -9 L272 -8 C291 -2 312 29 332 67 L332 39 L335 -2 C351 -14 402 -18 446 -8 L464 -2 L459 63 Z " />
<glyph glyph-name="gbreve" unicode="&#x11f;" horiz-adv-x="430" d="M189 624 C192 624 195 623 197 623 C206 622 216 621 226 621 C236 621 246 622 255 623 C257 623 260 624 263 624 C335 639 365 726 348 791 C333 809 300 812 272 803 C270 755 264 701 226 675 C189 701 183 755 182 803 C155 812 122 809 105 791 C88 726 119 639 189 624 L189 624 Z M398 459 L402 496 C366 513 315 528 214 528 C78 528 18 460 18 264 C18 80 67 -12 157 -9 C215 -9 245 12 262 35 L262 9 L263 -48 L262 -49 L263 -158 L172 -158 C135 -118 96 -91 56 -70 C46 -116 41 -162 40 -215 C103 -225 145 -227 196 -227 C341 -227 400 -173 400 -71 L400 119 L398 459 Z M217 65 L163 65 C163 84 163 134 164 261 C164 291 166 447 167 467 L211 467 C232 467 251 466 268 465 L265 426 L263 119 C243 93 224 72 217 65 L217 65 Z " />
<glyph glyph-name="Gdotaccent" unicode="&#x120;" horiz-adv-x="497" d="M320 767 C342 794 348 854 336 890 C318 935 239 945 210 914 C186 882 185 816 204 779 C225 746 294 743 320 767 L320 767 Z M459 63 L458 296 L458 365 C413 369 405 375 330 375 L276 375 C270 342 269 323 279 290 C303 289 320 288 334 288 L334 207 C322 145 296 100 275 75 L233 75 C197 86 176 182 176 344 C176 474 197 582 224 614 L266 614 C281 591 344 551 377 542 C410 561 432 593 440 642 C384 683 336 696 281 696 L251 696 C72 696 20 519 20 344 C20 111 89 -14 242 -9 L272 -8 C291 -2 312 29 332 67 L332 39 L335 -2 C351 -14 402 -18 446 -8 L464 -2 L459 63 Z " />
<glyph glyph-name="gdotaccent" unicode="&#x121;" horiz-adv-x="430" d="M164 651 C185 618 254 615 279 639 C302 666 308 726 296 762 C278 807 198 818 170 786 C145 755 144 689 164 651 L164 651 Z M398 459 L402 496 C366 513 315 528 214 528 C78 528 18 460 18 264 C18 80 67 -12 157 -9 C215 -9 245 12 262 35 L262 9 L263 -48 L262 -49 L263 -158 L172 -158 C135 -118 96 -91 56 -70 C46 -116 41 -162 40 -215 C103 -225 145 -227 196 -227 C341 -227 400 -173 400 -71 L400 119 L398 459 Z M217 65 L163 65 C163 84 163 134 164 261 C164 291 166 447 167 467 L211 467 C232 467 251 466 268 465 L265 426 L263 119 C243 93 224 72 217 65 L217 65 Z " />
<glyph glyph-name="Gcommaaccent" unicode="&#x122;" horiz-adv-x="497" d="M459 63 L458 296 L458 365 C413 369 405 375 330 375 L276 375 C270 342 269 323 279 290 C303 289 320 288 334 288 L334 207 C322 145 296 100 275 75 L233 75 C197 86 176 182 176 344 C176 474 197 582 224 614 L266 614 C281 591 344 551 377 542 C410 561 432 593 440 642 C384 683 336 696 281 696 L251 696 C72 696 20 519 20 344 C20 111 89 -14 242 -9 L272 -8 C291 -2 312 29 332 67 L332 39 L335 -2 C351 -14 402 -18 446 -8 L464 -2 L459 63 Z M244 -80 C232 -82 224 -83 218 -86 C213 -99 204 -133 201 -166 C186 -194 178 -227 167 -255 C179 -263 207 -290 234 -291 L255 -291 C276 -264 293 -214 317 -93 C300 -85 272 -78 244 -80 L244 -80 Z " />
<glyph glyph-name="gcommaaccent" unicode="&#x123;" horiz-adv-x="430" d="M192 618 C198 615 206 615 218 612 C246 610 274 617 291 626 C268 746 251 797 230 824 L209 823 C181 822 154 795 142 787 C152 759 161 727 176 699 C179 666 188 632 192 618 L192 618 Z M398 459 L402 496 C366 513 315 528 214 528 C78 528 18 460 18 264 C18 80 67 -12 157 -9 C215 -9 245 12 262 35 L262 9 L263 -48 L262 -49 L263 -158 L172 -158 C135 -118 96 -91 56 -70 C46 -116 41 -162 40 -215 C103 -225 145 -227 196 -227 C341 -227 400 -173 400 -71 L400 119 L398 459 Z M217 65 L163 65 C163 84 163 134 164 261 C164 291 166 447 167 467 L211 467 C232 467 251 466 268 465 L265 426 L263 119 C243 93 224 72 217 65 L217 65 Z " />
<glyph glyph-name="Hbar" unicode="&#x126;" horiz-adv-x="900" d="M431 690 C399 690 375 686 362 681 L353 672 C353 642 351 536 351 515 L351 393 L302 393 C265 393 229 389 189 388 L186 657 C186 690 138 690 117 690 C86 690 63 686 50 681 L41 672 C42 642 44 612 44 591 L47 401 L46 297 L45 296 L46 296 L44 71 L42 0 C65 -5 122 -3 162 -3 L186 0 L188 293 C249 293 309 294 350 296 L348 71 L350 0 C372 -5 429 -3 440 -3 L494 0 L494 657 C494 690 452 690 431 690 L431 690 Z " />
<glyph glyph-name="hbar" unicode="&#x127;" horiz-adv-x="463" d="M412 150 L415 294 L416 381 C416 464 404 530 287 530 C232 530 203 519 173 493 L173 558 C215 559 257 560 314 560 C329 602 329 618 314 660 C257 666 214 664 172 662 C165 732 118 735 98 735 C69 735 56 729 45 726 L32 722 C32 702 34 678 35 656 L12 656 C-5 614 -5 597 12 555 L38 555 L36 225 L36 71 L32 0 C54 -5 110 -6 150 -2 C162 0 165 3 171 5 L173 186 L173 411 C189 431 209 448 223 460 L278 460 L277 339 L275 130 C275 51 281 26 289 -2 C296 -6 314 -8 326 -8 C379 -8 409 3 430 19 C448 33 412 94 412 150 L412 150 Z " />
<glyph glyph-name="Imacron" unicode="&#x12a;" horiz-adv-x="227" d="M251 885 C149 894 71 884 -24 885 C-32 843 -33 822 -24 792 C87 791 140 792 251 792 C258 834 258 843 251 885 L251 885 Z M186 650 C186 663 180 671 171 677 C152 683 138 683 117 683 C86 683 63 678 50 674 L41 665 C42 635 42 605 42 587 L44 404 L41 71 L42 0 C65 -5 98 -6 137 -6 L188 0 L186 381 L186 650 Z " />
<glyph glyph-name="imacron" unicode="&#x12b;" horiz-adv-x="346" d="M38 758 C30 716 29 695 38 665 C149 663 202 665 313 665 C320 707 320 716 313 758 C211 767 133 756 38 758 L38 758 Z M244 152 L245 329 L247 464 C247 525 193 525 172 525 C143 525 130 519 109 516 L106 512 C107 500 109 486 109 474 L109 426 L107 296 L107 152 C107 72 122 27 145 0 C152 -5 170 -6 182 -6 C229 -6 256 18 275 53 C265 68 244 110 244 152 L244 152 Z " />
<glyph glyph-name="Iogonek" unicode="&#x12e;" horiz-adv-x="227" d="M186 -108 C174 -116 155 -125 140 -125 C135 -125 125 -125 122 -123 C119 -116 119 -111 119 -99 C119 -60 141 -30 162 -3 L188 0 L188 31 C193 38 197 45 200 53 L188 52 L186 381 L186 650 C186 663 180 671 171 677 C152 683 138 683 117 683 C86 683 63 678 50 674 L41 665 C42 635 42 605 42 587 L44 404 L41 71 L42 0 C49 -2 57 -3 66 -4 C38 -31 12 -70 12 -126 C12 -219 78 -243 132 -243 C170 -243 191 -234 206 -228 C216 -212 227 -120 186 -108 L186 -108 Z " />
<glyph glyph-name="iogonek" unicode="&#x12f;" horiz-adv-x="263" d="M184 639 C206 666 212 726 200 762 C182 807 103 818 74 786 C50 755 49 689 68 651 C89 618 158 615 184 639 L184 639 Z M206 -123 C194 -131 175 -140 160 -140 C155 -140 145 -140 142 -138 C139 -131 139 -126 139 -114 C139 -49 198 -13 219 35 C223 41 227 47 230 53 C220 68 199 110 199 152 L200 329 L202 464 C202 525 148 525 127 525 C98 525 85 519 64 516 L61 512 C62 500 64 486 64 474 L64 426 L62 296 L62 152 C62 72 77 27 100 0 C101 -1 103 -2 105 -2 C71 -31 32 -73 32 -141 C32 -234 98 -258 152 -258 C190 -258 211 -249 226 -243 C236 -227 247 -135 206 -123 L206 -123 Z " />
<glyph glyph-name="Idotaccent" unicode="&#x130;" horiz-adv-x="227" d="M167 767 C189 794 195 854 183 890 C165 935 86 945 57 914 C33 882 32 816 51 779 C72 746 141 743 167 767 L167 767 Z M186 650 C186 663 180 671 171 677 C152 683 138 683 117 683 C86 683 63 678 50 674 L41 665 C42 635 42 605 42 587 L44 404 L41 71 L42 0 C65 -5 98 -6 137 -6 L188 0 L186 381 L186 650 Z " />
<glyph glyph-name="dotlessi" unicode="&#x131;" horiz-adv-x="229" d="M170 152 L171 329 L173 464 C173 525 119 525 98 525 C69 525 56 519 35 516 L32 512 C33 500 35 486 35 474 L35 426 L33 296 L33 152 C33 72 48 27 71 0 C78 -5 96 -6 108 -6 C155 -6 182 18 201 53 C191 68 170 110 170 152 L170 152 Z " />
<glyph glyph-name="Kcommaaccent" unicode="&#x136;" horiz-adv-x="495" d="M402 222 C374 279 344 335 336 366 C395 464 434 560 471 648 C462 659 447 674 410 678 C396 680 371 683 347 674 C317 597 282 498 236 398 L186 393 L186 650 C186 663 180 671 171 677 C152 683 138 683 117 683 C86 683 63 678 50 674 L41 665 C42 635 42 605 42 587 L44 404 L41 71 L42 0 C65 -5 98 -6 137 -6 L188 0 L186 303 L228 303 C239 266 249 233 258 206 C288 101 321 44 348 -9 C357 -11 371 -11 383 -11 C435 -11 470 35 491 68 C473 95 437 159 402 222 L402 222 Z M233 -80 C221 -82 213 -83 207 -86 C203 -99 194 -133 191 -166 C176 -194 167 -227 157 -255 C169 -263 196 -290 224 -291 L245 -291 C266 -264 283 -214 306 -93 C289 -85 261 -78 233 -80 L233 -80 Z " />
<glyph glyph-name="kcommaaccent" unicode="&#x137;" horiz-adv-x="430" d="M323 297 C360 356 396 413 426 471 C420 489 404 512 380 519 C365 524 344 525 329 524 C303 455 272 387 237 318 L174 306 L173 587 L173 677 C171 762 119 765 98 765 C69 765 56 759 45 756 L32 752 C33 707 38 642 38 621 L36 225 L36 71 L32 0 C54 -5 110 -6 150 -2 C162 0 165 3 171 5 L174 186 L174 240 L209 240 C240 78 285 17 314 -14 L341 -14 C381 -14 420 21 437 47 C405 87 335 242 323 297 L323 297 Z M214 -80 C202 -82 194 -83 188 -86 C183 -99 174 -133 171 -166 C156 -194 148 -227 137 -255 C149 -263 177 -290 204 -291 L225 -291 C246 -264 263 -214 287 -93 C270 -85 242 -78 214 -80 L214 -80 Z " />
<glyph glyph-name="Lacute" unicode="&#x139;" horiz-adv-x="377" d="M219 755 C248 797 270 875 278 908 C269 932 215 939 180 933 C174 933 170 930 164 917 C152 882 144 815 143 767 C158 749 195 746 219 755 L219 755 Z M356 98 L308 98 C259 98 219 94 176 93 L174 381 L176 657 C176 690 128 690 107 690 C75 690 53 686 39 681 L30 672 C32 642 33 612 33 591 L32 420 L32 390 L33 71 L29 0 C39 -2 58 -2 80 -2 C168 -4 280 -2 356 0 C366 33 366 65 356 98 L356 98 Z " />
<glyph glyph-name="lacute" unicode="&#x13a;" horiz-adv-x="234" d="M59 848 C74 830 111 827 135 836 C164 878 186 956 194 989 C185 1013 131 1020 96 1014 C90 1014 86 1011 80 998 C68 963 60 896 59 848 L59 848 Z M171 152 L171 329 L173 704 C173 765 119 765 98 765 C69 765 56 759 35 756 L32 752 C33 740 35 726 35 714 L35 666 L33 296 L35 152 C36 72 48 27 68 0 C75 -5 93 -6 105 -6 C156 -6 185 20 206 57 C194 72 171 111 171 152 L171 152 Z " />
<glyph glyph-name="Lcommaaccent" unicode="&#x13b;" horiz-adv-x="377" d="M356 98 L308 98 C259 98 219 94 176 93 L174 381 L176 657 C176 690 128 690 107 690 C75 690 53 686 39 681 L30 672 C32 642 33 612 33 591 L32 420 L32 390 L33 71 L29 0 C39 -2 58 -2 80 -2 C168 -4 280 -2 356 0 C366 33 366 65 356 98 L356 98 Z M176 -80 C164 -82 156 -83 150 -86 C146 -99 137 -133 134 -166 C119 -194 110 -227 100 -255 C112 -263 139 -290 167 -291 L188 -291 C209 -264 226 -214 249 -93 C232 -85 204 -78 176 -80 L176 -80 Z " />
<glyph glyph-name="lcommaaccent" unicode="&#x13c;" horiz-adv-x="240" d="M177 152 L177 329 L179 704 C179 765 125 765 104 765 C75 765 62 759 41 756 L38 752 C39 740 41 726 41 714 L41 666 L39 296 L41 152 C42 72 54 27 74 0 C81 -5 99 -6 111 -6 C162 -6 191 20 212 57 C200 72 177 111 177 152 L177 152 Z M83 -86 C78 -99 69 -133 66 -166 C51 -194 43 -227 32 -255 C44 -263 72 -290 99 -291 L120 -291 C141 -264 158 -214 182 -93 C165 -85 137 -78 109 -80 C97 -82 89 -83 83 -86 L83 -86 Z " />
<glyph glyph-name="Lcaron" unicode="&#x13d;" horiz-adv-x="377" d="M134 752 C152 750 170 750 185 750 C201 750 219 750 237 752 C255 767 299 854 318 918 C303 936 273 939 249 930 C227 895 205 857 186 823 C168 857 147 895 126 930 C102 939 72 936 57 918 C77 854 114 767 134 752 L134 752 Z M356 98 L308 98 C259 98 219 94 176 93 L174 381 L176 657 C176 690 128 690 107 690 C75 690 53 686 39 681 L30 672 C32 642 33 612 33 591 L32 420 L32 390 L33 71 L29 0 C39 -2 58 -2 80 -2 C168 -4 280 -2 356 0 C366 33 366 65 356 98 L356 98 Z " />
<glyph glyph-name="lcaron" unicode="&#x13e;" horiz-adv-x="337" d="M223 617 C250 602 276 602 306 612 C335 669 354 726 363 783 C330 793 294 793 258 783 C243 726 231 669 223 617 L223 617 Z M171 152 L171 329 L173 669 C173 730 119 730 98 730 C69 730 56 724 35 721 L32 717 C33 705 35 691 35 679 L35 631 L33 296 L35 152 C36 72 48 27 68 0 C75 -5 93 -6 105 -6 C156 -6 185 20 206 57 C194 72 171 111 171 152 L171 152 Z " />
<glyph glyph-name="Lslash" unicode="&#x141;" horiz-adv-x="377" d="M356 98 L308 98 C259 98 219 94 176 93 L174 308 C221 348 268 384 308 415 C315 453 311 491 293 529 C257 513 214 473 174 429 L176 657 C176 690 128 690 107 690 C75 690 53 686 39 681 L30 672 C32 642 33 612 33 591 L32 420 L32 310 L-45 249 C-60 209 -44 169 -32 129 L33 199 L33 71 L29 0 C39 -2 58 -2 80 -2 C168 -4 280 -2 356 0 C366 33 366 65 356 98 L356 98 Z " />
<glyph glyph-name="lslash" unicode="&#x142;" horiz-adv-x="395" d="M354 422 C368 451 364 500 326 530 L256 451 L257 704 C257 765 203 765 182 765 C153 765 140 759 119 756 L116 752 C117 740 119 726 119 714 L119 666 L117 319 C91 292 66 260 40 231 C32 190 35 151 51 110 C73 135 96 163 118 190 L119 152 C120 72 132 27 152 0 C159 -5 177 -6 189 -6 C240 -6 269 20 290 57 C278 72 255 111 255 152 L255 324 C286 355 319 388 354 422 L354 422 Z " />
<glyph glyph-name="Nacute" unicode="&#x143;" horiz-adv-x="533" d="M306 755 C335 797 357 875 365 908 C356 932 302 939 267 933 C261 933 257 930 251 917 C239 882 231 815 230 767 C245 749 282 746 306 755 L306 755 Z M435 690 C413 690 396 690 383 686 L375 672 C375 642 374 612 374 591 L372 420 L372 390 L374 257 C306 415 290 454 165 675 C163 683 136 690 102 690 C80 690 63 686 50 681 L41 672 C42 642 44 612 44 591 L42 420 L42 236 L44 0 C66 -5 105 -3 146 -3 L164 0 L161 388 C224 263 274 128 369 0 C387 -8 423 -6 464 -6 L492 2 L492 381 L494 627 L494 678 C479 690 456 690 435 690 L435 690 Z " />
<glyph glyph-name="nacute" unicode="&#x144;" horiz-adv-x="481" d="M279 627 C308 669 330 747 338 780 C329 804 275 812 240 806 C234 806 230 803 224 789 C212 755 204 687 203 639 C218 621 255 618 279 627 L279 627 Z M422 150 L425 294 L426 381 C426 464 416 530 317 530 C252 530 236 507 215 485 C196 465 183 444 173 424 L173 464 C173 525 119 525 98 525 C69 525 56 519 35 516 L32 512 C36 482 38 447 38 426 L36 225 L36 71 L32 0 C54 -5 110 -6 150 -2 C162 0 165 3 171 5 L174 186 L174 314 C198 373 233 418 252 452 L288 452 L287 339 L285 150 C285 71 300 26 323 -2 C330 -6 348 -8 360 -8 C407 -8 434 17 453 51 C443 66 422 108 422 150 L422 150 Z " />
<glyph glyph-name="Ncommaaccent" unicode="&#x145;" horiz-adv-x="533" d="M435 690 C413 690 396 690 383 686 L375 672 C375 642 374 612 374 591 L372 420 L372 390 L374 257 C306 415 290 454 165 675 C163 683 136 690 102 690 C80 690 63 686 50 681 L41 672 C42 642 44 612 44 591 L42 420 L42 236 L44 0 C66 -5 105 -3 146 -3 L164 0 L161 388 C224 263 274 128 369 0 C387 -8 423 -6 464 -6 L492 2 L492 381 L494 627 L494 678 C479 690 456 690 435 690 L435 690 Z M254 -80 C242 -82 234 -83 228 -86 C224 -99 215 -133 212 -166 C197 -194 188 -227 178 -255 C190 -263 217 -290 245 -291 L266 -291 C287 -264 304 -214 327 -93 C310 -85 282 -78 254 -80 L254 -80 Z " />
<glyph glyph-name="ncommaaccent" unicode="&#x146;" horiz-adv-x="481" d="M422 150 L425 294 L426 381 C426 464 416 530 317 530 C252 530 236 507 215 485 C196 465 183 444 173 424 L173 464 C173 525 119 525 98 525 C69 525 56 519 35 516 L32 512 C36 482 38 447 38 426 L36 225 L36 71 L32 0 C54 -5 110 -6 150 -2 C162 0 165 3 171 5 L174 186 L174 314 C198 373 233 418 252 452 L288 452 L287 339 L285 150 C285 71 300 26 323 -2 C330 -6 348 -8 360 -8 C407 -8 434 17 453 51 C443 66 422 108 422 150 L422 150 Z M223 -80 C211 -82 203 -83 197 -86 C192 -99 183 -133 180 -166 C165 -194 157 -227 146 -255 C158 -263 186 -290 213 -291 L234 -291 C255 -264 272 -214 296 -93 C279 -85 251 -78 223 -80 L223 -80 Z " />
<glyph glyph-name="Ncaron" unicode="&#x147;" horiz-adv-x="533" d="M221 752 C239 750 257 750 272 750 C288 750 306 750 324 752 C342 767 386 854 405 918 C390 936 360 939 336 930 C314 895 292 857 273 823 C255 857 234 895 213 930 C189 939 159 936 144 918 C164 854 201 767 221 752 L221 752 Z M435 690 C413 690 396 690 383 686 L375 672 C375 642 374 612 374 591 L372 420 L372 390 L374 257 C306 415 290 454 165 675 C163 683 136 690 102 690 C80 690 63 686 50 681 L41 672 C42 642 44 612 44 591 L42 420 L42 236 L44 0 C66 -5 105 -3 146 -3 L164 0 L161 388 C224 263 274 128 369 0 C387 -8 423 -6 464 -6 L492 2 L492 381 L494 627 L494 678 C479 690 456 690 435 690 L435 690 Z " />
<glyph glyph-name="ncaron" unicode="&#x148;" horiz-adv-x="481" d="M194 624 C212 622 230 622 245 623 C261 622 279 622 297 624 C315 639 359 726 378 791 C363 809 333 812 309 803 C287 767 265 729 246 696 C228 729 207 767 186 803 C162 812 132 809 117 791 C137 726 174 639 194 624 L194 624 Z M422 150 L425 294 L426 381 C426 464 416 530 317 530 C252 530 236 507 215 485 C196 465 183 444 173 424 L173 464 C173 525 119 525 98 525 C69 525 56 519 35 516 L32 512 C36 482 38 447 38 426 L36 225 L36 71 L32 0 C54 -5 110 -6 150 -2 C162 0 165 3 171 5 L174 186 L174 314 C198 373 233 418 252 452 L288 452 L287 339 L285 150 C285 71 300 26 323 -2 C330 -6 348 -8 360 -8 C407 -8 434 17 453 51 C443 66 422 108 422 150 L422 150 Z " />
<glyph glyph-name="Eng" unicode="&#x14a;" horiz-adv-x="561" d="M446 700 C434 700 417 700 404 696 L396 682 C396 652 395 622 395 601 L395 390 L396 272 C328 415 302 448 179 688 C177 696 150 702 116 702 C106 702 60 702 50 688 C54 671 58 662 66 650 C67 620 66 612 66 591 L64 420 L64 236 L66 0 C88 -5 116 -3 157 -3 L175 0 L172 410 L172 418 C237 294 316 157 390 2 L390 -114 C347 -112 303 -112 260 -113 C250 -143 250 -173 260 -203 C290 -205 319 -205 359 -203 C472 -200 503 -152 503 -15 L503 381 L505 637 L505 688 C490 700 467 700 446 700 L446 700 Z " />
<glyph glyph-name="eng" unicode="&#x14b;" horiz-adv-x="442" d="M285 530 C222 530 203 515 169 480 C155 525 117 525 98 525 C69 525 56 519 35 516 L32 512 C36 482 38 447 38 426 L36 225 L36 71 L32 0 C54 -5 110 -5 150 -2 C162 -1 165 3 171 5 L174 186 L173 413 C189 433 208 448 221 460 L276 460 L275 339 L274 198 L274 -128 L273 -128 C215 -123 191 -121 163 -121 C153 -144 153 -168 163 -191 C214 -205 255 -207 304 -207 C410 -207 412 -134 412 -86 L412 -8 L413 294 L414 381 C414 464 402 530 285 530 L285 530 Z " />
<glyph glyph-name="Omacron" unicode="&#x14c;" horiz-adv-x="512" d="M129 885 C122 843 120 822 129 792 C240 791 293 792 404 792 C411 834 411 843 404 885 C302 894 224 884 129 885 L129 885 Z M273 696 L240 696 C68 684 20 500 20 329 C20 165 74 0 216 -8 L272 -8 C435 -3 492 182 492 341 C492 557 420 696 273 696 L273 696 Z M288 608 C312 597 335 530 335 338 C335 227 317 119 300 81 L233 81 C200 92 180 185 180 329 C180 471 192 576 216 608 L288 608 Z " />
<glyph glyph-name="omacron" unicode="&#x14d;" horiz-adv-x="431" d="M357 665 C364 707 364 716 357 758 C255 767 177 756 82 758 C74 716 73 695 82 665 C193 663 246 665 357 665 L357 665 Z M413 261 L413 263 C412 434 339 530 239 530 L192 530 C92 530 19 434 18 263 C18 262 18 261 18 261 L18 258 C19 87 92 -9 192 -9 L239 -9 C339 -9 412 87 413 258 L413 261 Z M261 62 L170 62 C168 70 165 119 165 261 C165 402 168 451 170 459 L261 459 C263 451 266 402 266 261 C266 119 263 70 261 62 L261 62 Z " />
<glyph glyph-name="Ohungarumlaut" unicode="&#x150;" horiz-adv-x="512" d="M140 767 C155 749 192 746 216 755 C245 797 267 875 275 908 C266 932 212 939 177 933 C171 933 167 930 161 917 C152 882 141 815 140 767 L140 767 Z M320 767 C342 749 383 746 408 755 C437 797 459 875 467 908 C458 932 404 939 369 933 C363 933 359 930 353 917 C344 882 327 815 320 767 L320 767 Z M273 696 L240 696 C68 684 20 500 20 329 C20 165 74 0 216 -8 L272 -8 C435 -3 492 182 492 341 C492 557 420 696 273 696 L273 696 Z M288 608 C312 597 335 530 335 338 C335 227 317 119 300 81 L233 81 C200 92 180 185 180 329 C180 471 192 576 216 608 L288 608 Z " />
<glyph glyph-name="ohungarumlaut" unicode="&#x151;" horiz-adv-x="431" d="M132 627 C160 669 183 747 190 780 C181 804 127 812 93 806 C87 806 82 803 76 789 C67 755 57 687 55 639 C70 621 108 618 132 627 L132 627 Z M324 627 C352 669 375 747 382 780 C373 804 319 812 285 806 C279 806 274 803 268 789 C259 755 243 687 235 639 C258 621 298 618 324 627 L324 627 Z M413 261 L413 263 C412 434 339 530 239 530 L192 530 C92 530 19 434 18 263 C18 262 18 261 18 261 L18 258 C19 87 92 -9 192 -9 L239 -9 C339 -9 412 87 413 258 L413 261 Z M261 62 L170 62 C168 70 165 119 165 261 C165 402 168 451 170 459 L261 459 C263 451 266 402 266 261 C266 119 263 70 261 62 L261 62 Z " />
<glyph glyph-name="OE" unicode="&#x152;" horiz-adv-x="709" d="M692 96 L635 96 C580 96 536 94 498 94 L499 270 L502 297 C558 297 615 298 668 300 C679 333 689 365 679 398 L622 398 C572 398 535 394 502 393 C501 401 500 410 500 419 L498 594 C560 594 625 595 682 597 C689 615 700 647 686 695 L632 695 C557 695 487 690 439 690 L428 690 C397 690 374 686 361 681 C338 691 312 696 284 696 L251 696 C79 684 31 500 31 329 C31 165 85 0 227 -8 L283 -8 C308 -7 330 -2 350 6 L350 0 C360 -2 376 -2 395 -2 C486 -6 593 -5 691 -2 C694 32 698 62 692 96 L692 96 Z M311 81 L244 81 C211 92 191 185 191 329 C191 471 203 576 227 608 L299 608 C323 597 346 530 346 338 C346 227 328 119 311 81 L311 81 Z " />
<glyph glyph-name="oe" unicode="&#x153;" horiz-adv-x="615" d="M596 245 C632 504 530 530 449 530 C400 530 362 518 334 494 C309 517 277 530 237 530 L197 530 C68 519 18 380 18 249 C18 125 60 -2 173 -8 L230 -8 C267 -6 298 7 323 30 C348 3 382 -12 428 -12 C494 -12 536 2 563 12 C566 53 566 116 557 152 C521 138 480 92 459 57 L410 57 C407 96 405 123 404 223 C464 221 559 226 596 245 L596 245 Z M411 468 L479 468 C483 402 482 337 480 284 L404 282 L404 283 C404 375 408 447 411 468 L411 468 Z M240 56 L197 56 C174 63 161 137 161 249 C161 360 173 443 191 467 L237 467 C250 460 260 420 262 311 C261 296 261 280 261 264 C261 248 261 233 262 218 C259 146 249 81 240 56 L240 56 Z " />
<glyph glyph-name="Racute" unicode="&#x154;" horiz-adv-x="486" d="M275 755 C303 797 326 875 333 908 C324 932 270 939 236 933 C230 933 225 930 219 917 C207 882 200 815 198 767 C213 749 251 746 275 755 L275 755 Z M381 233 L352 289 C426 330 452 409 452 476 C452 564 410 692 255 692 L210 692 L114 692 C108 692 63 690 41 680 L42 654 L43 654 C44 628 44 603 44 587 L45 409 L42 71 L44 0 C66 -5 99 -6 138 -6 L189 0 L188 263 L238 263 C267 163 277 123 345 -9 C354 -11 371 -11 383 -11 C431 -11 461 30 480 63 C456 98 416 165 381 233 L381 233 Z M188 349 L188 614 L288 614 C297 603 302 504 302 473 C302 434 297 384 293 345 L195 345 C193 346 190 347 188 349 L188 349 Z " />
<glyph glyph-name="racute" unicode="&#x155;" horiz-adv-x="330" d="M212 627 C240 669 263 747 270 780 C261 804 207 812 173 806 C167 806 162 803 156 789 C144 755 137 687 135 639 C150 621 188 618 212 627 L212 627 Z M345 521 C341 522 332 524 312 524 C267 522 251 521 237 513 C206 472 186 442 173 415 L173 464 C173 525 119 525 98 525 C69 525 56 519 35 516 L32 512 C36 482 38 447 38 426 L36 225 L36 71 L32 0 C54 -5 110 -6 150 -2 C162 0 165 3 171 5 L174 186 L173 341 C191 375 214 395 228 413 C258 401 287 393 326 390 L332 390 C344 422 347 474 345 521 L345 521 Z " />
<glyph glyph-name="Rcommaaccent" unicode="&#x156;" horiz-adv-x="486" d="M381 233 L352 289 C426 330 452 409 452 476 C452 564 410 692 255 692 L210 692 L114 692 C108 692 63 690 41 680 L42 654 L43 654 C44 628 44 603 44 587 L45 409 L42 71 L44 0 C66 -5 99 -6 138 -6 L189 0 L188 263 L238 263 C267 163 277 123 345 -9 C354 -11 371 -11 383 -11 C431 -11 461 30 480 63 C456 98 416 165 381 233 L381 233 Z M188 349 L188 614 L288 614 C297 603 302 504 302 473 C302 434 297 384 293 345 L195 345 C193 346 190 347 188 349 L188 349 Z M232 -80 C220 -82 212 -83 206 -86 C201 -99 192 -133 189 -166 C174 -194 166 -227 155 -255 C167 -263 195 -290 222 -291 L243 -291 C264 -264 281 -214 305 -93 C288 -85 260 -78 232 -80 L232 -80 Z " />
<glyph glyph-name="rcommaaccent" unicode="&#x157;" horiz-adv-x="360" d="M375 521 C371 522 362 524 342 524 C297 522 281 521 267 513 C236 472 216 442 203 415 L203 464 C203 525 149 525 128 525 C99 525 86 519 65 516 L62 512 C66 482 68 447 68 426 L66 225 L66 71 L62 0 C84 -5 140 -6 180 -2 C192 0 195 3 201 5 L204 186 L203 341 C221 375 244 395 258 413 C288 401 317 393 356 390 L362 390 C374 422 377 474 375 521 L375 521 Z M109 -80 C97 -82 89 -83 83 -86 C78 -99 69 -133 66 -166 C51 -194 43 -227 32 -255 C44 -263 72 -290 99 -291 L120 -291 C141 -264 158 -214 182 -93 C165 -85 137 -78 109 -80 L109 -80 Z " />
<glyph glyph-name="Rcaron" unicode="&#x158;" horiz-adv-x="486" d="M189 752 C207 750 225 750 241 750 C256 750 275 750 293 752 C311 767 354 854 374 918 C359 936 329 939 305 930 C282 895 261 857 242 823 C223 857 202 895 182 930 C158 939 128 936 113 918 C132 854 170 767 189 752 L189 752 Z M381 233 L352 289 C426 330 452 409 452 476 C452 564 410 692 255 692 L210 692 L114 692 C108 692 63 690 41 680 L42 654 L43 654 C44 628 44 603 44 587 L45 409 L42 71 L44 0 C66 -5 99 -6 138 -6 L189 0 L188 263 L238 263 C267 163 277 123 345 -9 C354 -11 371 -11 383 -11 C431 -11 461 30 480 63 C456 98 416 165 381 233 L381 233 Z M188 349 L188 614 L288 614 C297 603 302 504 302 473 C302 434 297 384 293 345 L195 345 C193 346 190 347 188 349 L188 349 Z " />
<glyph glyph-name="rcaron" unicode="&#x159;" horiz-adv-x="330" d="M126 624 C144 622 162 622 178 623 C193 622 212 622 230 624 C248 639 291 726 311 791 C296 809 266 812 242 803 C219 767 198 730 179 696 L119 803 C95 812 65 809 50 791 C69 726 107 639 126 624 L126 624 Z M345 521 C341 522 332 524 312 524 C267 522 251 521 237 513 C206 472 186 442 173 415 L173 464 C173 525 119 525 98 525 C69 525 56 519 35 516 L32 512 C36 482 38 447 38 426 L36 225 L36 71 L32 0 C54 -5 110 -6 150 -2 C162 0 165 3 171 5 L174 186 L173 341 C191 375 214 395 228 413 C258 401 287 393 326 390 L332 390 C344 422 347 474 345 521 L345 521 Z " />
<glyph glyph-name="Sacute" unicode="&#x15a;" horiz-adv-x="410" d="M161 767 C176 749 213 746 237 755 C266 797 288 875 296 908 C287 932 233 939 198 933 C192 933 188 930 182 917 C170 882 162 815 161 767 L161 767 Z M218 704 L183 704 C77 698 17 624 17 528 C17 471 50 386 129 315 C185 267 245 207 245 140 C245 119 240 96 231 74 L161 74 C144 93 104 138 53 167 C32 128 12 74 6 20 C59 0 101 -9 164 -9 L213 -9 C323 -5 387 77 387 174 C387 255 347 338 267 401 C180 470 161 527 161 566 C161 596 167 617 170 621 L230 621 C240 588 288 557 309 552 C344 567 366 599 372 653 C317 693 272 704 218 704 L218 704 Z " />
<glyph glyph-name="sacute" unicode="&#x15b;" horiz-adv-x="350" d="M200 627 C228 669 251 747 258 780 C249 804 195 812 161 806 C155 806 150 803 144 789 C132 755 125 687 123 639 C138 621 176 618 200 627 L200 627 Z M163 414 C163 432 163 450 165 459 L199 459 C213 445 256 397 296 371 C315 410 326 453 329 505 C282 525 242 529 194 530 L185 530 C93 530 21 490 22 388 C19 252 192 188 194 113 L195 57 L148 57 C122 112 81 148 46 177 C26 126 15 76 14 17 C70 -6 126 -9 156 -9 C281 -9 339 27 339 129 C339 286 163 326 163 414 L163 414 Z " />
<glyph glyph-name="Scedilla" unicode="&#x15e;" horiz-adv-x="410" d="M387 174 C387 255 347 338 267 401 C180 470 161 527 161 566 C161 596 167 617 170 621 L230 621 C240 588 288 557 309 552 C344 567 366 599 372 653 C317 693 272 704 218 704 L183 704 C77 698 17 624 17 528 C17 471 50 386 129 315 C185 267 245 207 245 140 C245 119 240 96 231 74 L161 74 C144 93 104 138 53 167 C32 128 12 74 6 20 C54 2 93 -7 146 -9 C143 -25 138 -46 131 -80 C201 -78 234 -110 209 -153 L183 -153 C168 -153 153 -146 129 -140 C107 -159 107 -215 113 -228 C126 -234 156 -243 191 -243 C248 -243 318 -218 318 -119 C318 -80 305 -36 222 -36 L229 -8 C329 3 387 82 387 174 L387 174 Z " />
<glyph glyph-name="scedilla" unicode="&#x15f;" horiz-adv-x="350" d="M208 23 C207 18 206 8 202 -7 C295 2 339 41 339 129 C339 286 163 326 163 414 C163 432 163 450 165 459 L199 459 C213 445 256 397 296 371 C315 410 326 453 329 505 C282 525 242 529 194 530 L185 530 C93 530 21 490 22 388 C19 252 192 188 194 113 L195 57 L148 57 C122 112 81 148 46 177 C26 126 15 76 14 17 C52 2 89 -5 119 -7 C122 7 125 17 126 27 L208 23 Z M156 -9 C146 -9 134 -9 119 -7 C116 -23 110 -45 103 -80 C174 -78 207 -110 181 -153 L156 -153 C141 -153 126 -146 102 -140 C79 -159 79 -215 85 -228 C99 -234 129 -243 163 -243 C220 -243 291 -218 291 -119 C291 -80 277 -36 195 -36 C198 -25 200 -15 202 -7 C188 -8 173 -9 156 -9 L156 -9 Z " />
<glyph glyph-name="Scaron" unicode="&#x160;" horiz-adv-x="410" d="M152 752 C170 750 188 750 203 750 C219 750 237 750 255 752 C273 767 317 854 336 918 C321 936 291 939 267 930 C245 895 223 857 204 823 C186 857 165 895 144 930 C120 939 90 936 75 918 C95 854 132 767 152 752 L152 752 Z M267 401 C180 470 161 527 161 566 C161 596 167 617 170 621 L230 621 C240 588 288 557 309 552 C344 567 366 599 372 653 C317 693 272 704 218 704 L183 704 C77 698 17 624 17 528 C17 471 50 386 129 315 C185 267 245 207 245 140 C245 119 240 96 231 74 L161 74 C144 93 104 138 53 167 C32 128 12 74 6 20 C59 0 101 -9 164 -9 L213 -9 C323 -5 387 77 387 174 C387 255 347 338 267 401 L267 401 Z " />
<glyph glyph-name="scaron" unicode="&#x161;" horiz-adv-x="350" d="M137 624 C155 622 173 622 188 623 C204 622 222 622 240 624 C258 639 302 726 321 791 C306 809 276 812 252 803 C230 767 208 729 189 696 C171 729 150 767 129 803 C105 812 75 809 60 791 C80 726 117 639 137 624 L137 624 Z M163 414 C163 432 163 450 165 459 L199 459 C213 445 256 397 296 371 C315 410 326 453 329 505 C282 525 242 529 194 530 L185 530 C93 530 21 490 22 388 C19 252 192 188 194 113 L195 57 L148 57 C122 112 81 148 46 177 C26 126 15 76 14 17 C70 -6 126 -9 156 -9 C281 -9 339 27 339 129 C339 286 163 326 163 414 L163 414 Z " />
<glyph glyph-name="uni0162" unicode="&#x162;" horiz-adv-x="462" d="M302 589 C350 589 399 589 444 591 C453 623 461 654 453 687 C437 689 414 690 398 690 C325 690 304 687 233 690 L63 690 C47 690 23 690 9 687 C3 654 5 623 11 590 C58 587 108 585 159 586 L158 420 L156 71 L156 0 L174 -3 C171 -19 166 -41 158 -80 C228 -78 261 -110 236 -153 L210 -153 C195 -153 180 -146 156 -140 C134 -159 134 -215 140 -228 C153 -234 183 -243 218 -243 C275 -243 345 -218 345 -119 C345 -80 332 -36 249 -36 C252 -24 255 -14 257 -5 L275 -5 L303 0 L300 126 L300 381 L302 589 Z " />
<glyph glyph-name="uni0163" unicode="&#x163;" horiz-adv-x="308" d="M198 -36 C202 -23 204 -12 206 -3 C239 5 261 27 278 57 C252 84 206 119 206 141 L207 329 L207 421 C233 422 259 423 287 425 C299 452 300 495 291 521 C263 523 235 523 207 522 L207 644 C207 705 158 705 137 705 C108 705 95 699 74 696 L71 692 C72 680 74 666 74 654 L74 591 L72 512 C41 508 14 506 0 504 C-12 482 -12 456 0 428 C16 428 41 426 70 424 L69 296 L68 141 C68 68 91 36 125 4 C121 -13 116 -36 107 -80 C177 -78 210 -110 185 -153 L159 -153 C144 -153 129 -146 105 -140 C83 -159 83 -215 89 -228 C102 -234 132 -243 167 -243 C224 -243 294 -218 294 -119 C294 -80 281 -36 198 -36 L198 -36 Z " />
<glyph glyph-name="Tcaron" unicode="&#x164;" horiz-adv-x="462" d="M174 752 C192 750 210 750 226 750 C241 750 260 750 278 752 C296 767 339 854 359 918 C344 936 314 939 290 930 C267 895 246 857 227 823 C208 857 187 895 167 930 C143 939 113 936 98 918 C117 854 155 767 174 752 L174 752 Z M453 687 C437 689 414 690 398 690 C325 690 304 687 233 690 L63 690 C47 690 23 690 9 687 C3 654 5 623 11 590 C58 587 108 585 159 586 L158 420 L156 71 L156 0 C182 -5 234 -6 275 -5 L303 0 L300 126 L300 381 L302 589 C350 589 399 589 444 591 C453 623 461 654 453 687 L453 687 Z " />
<glyph glyph-name="tcaron" unicode="&#x165;" horiz-adv-x="401" d="M285 783 C270 726 258 669 250 617 C277 602 303 602 333 612 C362 669 381 726 390 783 C357 793 321 793 285 783 L285 783 Z M207 522 L207 644 C207 705 158 705 137 705 C108 705 95 699 74 696 L71 692 C72 680 74 666 74 654 L74 591 L72 512 C41 508 14 506 0 504 C-12 482 -12 456 0 428 C16 428 41 426 70 424 L69 296 L68 141 C68 65 93 33 129 0 C140 -5 167 -6 179 -6 C228 -6 257 20 278 57 C252 84 206 119 206 141 L207 329 L207 421 C233 422 259 423 287 425 C299 452 300 495 291 521 C263 523 235 523 207 522 L207 522 Z " />
<glyph glyph-name="Tbar" unicode="&#x166;" horiz-adv-x="462" d="M444 591 C453 623 461 654 453 687 C437 689 414 690 398 690 C325 690 304 687 233 690 L63 690 C47 690 23 690 9 687 C3 654 5 623 11 590 C58 587 108 585 159 586 L158 420 L158 409 C135 408 109 407 80 408 C63 366 63 350 80 308 C109 308 134 308 157 309 L156 71 L156 0 C182 -5 234 -6 275 -5 L303 0 L300 126 L300 312 L381 312 C396 354 396 371 381 413 C351 416 324 417 300 417 L302 589 C350 589 399 589 444 591 L444 591 Z " />
<glyph glyph-name="tbar" unicode="&#x167;" horiz-adv-x="328" d="M306 215 C321 257 321 273 306 315 C270 319 239 319 211 319 L211 421 C237 422 263 423 291 425 C303 452 304 495 295 521 C267 523 239 523 211 522 L211 644 C211 705 162 705 141 705 C112 705 99 699 78 696 L75 692 C76 680 78 666 78 654 L78 591 L76 512 C45 508 18 506 4 504 C-8 482 -8 456 4 428 C20 428 45 426 74 424 L73 312 C52 311 30 310 4 311 C-13 269 -13 252 4 210 C29 210 52 210 72 211 L72 141 C72 65 97 33 133 0 C144 -5 171 -6 183 -6 C232 -6 261 20 282 57 C256 84 210 119 210 141 L210 214 C239 215 269 215 306 215 L306 215 Z " />
<glyph glyph-name="Umacron" unicode="&#x16a;" horiz-adv-x="504" d="M122 885 C114 843 113 822 122 792 C233 791 285 792 396 792 C404 834 404 843 396 885 C294 894 216 884 122 885 L122 885 Z M462 681 C455 683 447 684 444 684 C401 684 333 686 315 681 L317 263 C317 224 312 114 308 75 L200 75 C197 98 192 182 192 254 L194 681 C162 686 129 687 101 686 C80 684 57 684 41 681 L41 239 C44 89 80 -8 227 -11 L273 -11 C423 -6 464 87 465 251 L462 681 Z " />
<glyph glyph-name="umacron" unicode="&#x16b;" horiz-adv-x="435" d="M351 665 C359 707 359 716 351 758 C249 767 171 756 77 758 C69 716 68 695 77 665 C188 663 240 665 351 665 L351 665 Z M410 98 L411 510 C395 519 366 524 348 524 C321 525 302 521 275 516 L275 222 C257 152 231 101 198 65 L165 67 L167 201 L167 204 L165 464 C165 525 111 525 90 525 C62 525 48 519 27 516 L24 512 C29 482 30 447 30 426 L29 230 L27 143 C27 59 38 -8 143 -8 C212 -8 227 12 249 36 C260 52 269 67 275 79 L275 60 C275 -2 329 -2 350 -2 C378 -2 392 5 413 8 L416 12 C411 42 410 77 410 98 L410 98 Z " />
<glyph glyph-name="Uring" unicode="&#x16e;" horiz-adv-x="504" d="M246 723 C252 723 281 725 285 726 C308 734 341 774 341 821 C341 875 305 918 255 918 C248 918 221 917 215 915 C192 909 158 867 158 821 C158 767 194 723 246 723 L246 723 Z M239 777 C230 777 215 797 215 821 C215 845 227 857 231 864 L269 864 C273 864 285 845 285 821 C285 797 275 785 270 777 L239 777 Z M462 681 C455 683 447 684 444 684 C401 684 333 686 315 681 L317 263 C317 224 312 114 308 75 L200 75 C197 98 192 182 192 254 L194 681 C162 686 129 687 101 686 C80 684 57 684 41 681 L41 239 C44 89 80 -8 227 -11 L273 -11 C423 -6 464 87 465 251 L462 681 Z " />
<glyph glyph-name="uring" unicode="&#x16f;" horiz-adv-x="435" d="M201 596 C207 596 236 597 240 599 C263 606 296 647 296 693 C296 747 260 791 210 791 C203 791 176 789 170 788 C147 782 113 740 113 693 C113 639 149 596 201 596 L201 596 Z M186 737 L224 737 C228 737 240 717 240 693 C240 669 230 657 225 650 L194 650 C185 650 170 669 170 693 C170 717 182 729 186 737 L186 737 Z M410 98 L411 510 C395 519 366 524 348 524 C321 525 302 521 275 516 L275 222 C257 152 231 101 198 65 L165 67 L167 201 L167 204 L165 464 C165 525 111 525 90 525 C62 525 48 519 27 516 L24 512 C29 482 30 447 30 426 L29 230 L27 143 C27 59 38 -8 143 -8 C212 -8 227 12 249 36 C260 52 269 67 275 79 L275 60 C275 -2 329 -2 350 -2 C378 -2 392 5 413 8 L416 12 C411 42 410 77 410 98 L410 98 Z " />
<glyph glyph-name="Uhungarumlaut" unicode="&#x170;" horiz-adv-x="504" d="M132 767 C147 749 185 746 209 755 C237 797 260 875 267 908 C258 932 204 939 170 933 C164 933 159 930 153 917 C144 882 134 815 132 767 L132 767 Z M312 767 C335 749 375 746 401 755 C429 797 452 875 459 908 C450 932 396 939 362 933 C356 933 351 930 345 917 C336 882 320 815 312 767 L312 767 Z M462 681 C455 683 447 684 444 684 C401 684 333 686 315 681 L317 263 C317 224 312 114 308 75 L200 75 C197 98 192 182 192 254 L194 681 C162 686 129 687 101 686 C80 684 57 684 41 681 L41 239 C44 89 80 -8 227 -11 L273 -11 C423 -6 464 87 465 251 L462 681 Z " />
<glyph glyph-name="uhungarumlaut" unicode="&#x171;" horiz-adv-x="435" d="M164 627 C192 669 215 747 222 780 C213 804 159 812 125 806 C119 806 114 803 108 789 C99 755 89 687 87 639 C102 621 140 618 164 627 L164 627 Z M356 627 C384 669 407 747 414 780 C405 804 351 812 317 806 C311 806 306 803 300 789 C291 755 275 687 267 639 C290 621 330 618 356 627 L356 627 Z M410 98 L411 510 C395 519 366 524 348 524 C321 525 302 521 275 516 L275 222 C257 152 231 101 198 65 L165 67 L167 201 L167 204 L165 464 C165 525 111 525 90 525 C62 525 48 519 27 516 L24 512 C29 482 30 447 30 426 L29 230 L27 143 C27 59 38 -8 143 -8 C212 -8 227 12 249 36 C260 52 269 67 275 79 L275 60 C275 -2 329 -2 350 -2 C378 -2 392 5 413 8 L416 12 C411 42 410 77 410 98 L410 98 Z " />
<glyph glyph-name="Uogonek" unicode="&#x172;" horiz-adv-x="504" d="M465 251 L462 681 C455 683 447 684 444 684 C401 684 333 686 315 681 L317 263 C317 224 312 114 308 75 L200 75 C197 98 192 182 192 254 L194 681 C162 686 129 687 101 686 C80 684 57 684 41 681 L41 239 C44 93 78 -2 214 -10 C189 -38 167 -74 167 -126 C167 -219 233 -243 287 -243 C324 -243 345 -234 360 -228 C371 -212 381 -120 341 -108 C329 -116 309 -125 294 -125 C290 -125 279 -125 276 -123 C273 -116 273 -111 273 -99 C273 -62 293 -33 313 -7 C431 13 464 103 465 251 L465 251 Z " />
<glyph glyph-name="uogonek" unicode="&#x173;" horiz-adv-x="447" d="M399 -108 C387 -116 368 -125 353 -125 C348 -125 338 -125 335 -123 C332 -116 332 -111 332 -99 C332 -58 356 -28 378 1 C390 3 400 6 413 8 L416 12 C414 24 413 37 412 50 C412 51 413 52 413 53 L411 53 C410 70 410 86 410 98 L411 510 C395 519 366 524 348 524 C321 525 302 521 275 516 L275 222 C257 152 231 101 198 65 L165 67 L167 201 L167 204 L165 464 C165 525 111 525 90 525 C62 525 48 519 27 516 L24 512 C29 482 30 447 30 426 L29 230 L27 143 C27 59 38 -8 143 -8 C212 -8 227 12 249 36 C260 52 269 67 275 79 L275 60 C275 35 284 20 296 11 C262 -17 225 -59 225 -126 C225 -219 291 -243 345 -243 C383 -243 404 -234 419 -228 C429 -212 440 -120 399 -108 L399 -108 Z " />
<glyph glyph-name="Wcircumflex" unicode="&#x174;" horiz-adv-x="831" d="M369 755 C387 790 406 827 423 861 L480 755 C510 746 540 749 555 767 C536 831 492 918 474 933 C456 935 438 935 422 935 C407 935 389 935 371 933 C351 918 314 831 294 767 C309 749 339 746 369 755 L369 755 Z M678 693 C678 693 665 584 659 522 C640 424 620 322 593 212 C576 283 559 352 546 417 L512 668 L507 690 C492 696 476 698 456 699 C426 701 410 703 380 694 C380 693 379 693 378 693 C369 690 359 686 347 681 L355 628 C355 627 353 623 353 623 C333 482 302 347 263 204 C243 296 225 384 213 464 L189 668 L185 690 C170 696 153 698 134 699 C96 702 81 704 29 681 C44 573 56 495 72 422 C98 303 117 200 182 -2 L308 -2 C345 119 384 233 413 347 L413 348 C446 227 461 164 515 -2 L641 -2 C713 233 779 432 809 669 C810 675 810 686 810 690 C801 695 750 708 678 693 L678 693 Z " />
<glyph glyph-name="wcircumflex" unicode="&#x175;" horiz-adv-x="598" d="M244 627 C262 663 281 700 298 733 C316 700 336 663 355 627 C385 618 415 621 430 639 C411 704 367 791 349 806 C331 808 313 808 297 807 C282 808 264 808 246 806 C226 791 189 704 169 639 C184 621 214 618 244 627 L244 627 Z M595 515 C570 521 526 527 507 521 C490 516 483 513 480 507 C478 450 477 399 472 341 C465 293 454 237 444 204 L425 123 L408 209 C396 257 388 308 381 356 C376 405 375 458 369 516 C318 525 262 537 225 501 C228 440 233 380 241 324 C234 280 225 233 216 204 L197 123 L180 209 C168 257 160 308 153 356 C148 405 147 458 141 516 C90 525 34 537 -4 501 C-1 434 5 368 16 308 C43 180 85 72 127 2 C133 -2 144 -5 154 -5 C195 -5 202 -2 219 2 C238 40 261 94 285 159 C306 96 331 43 355 2 C361 -2 372 -5 382 -5 C423 -5 430 -2 447 2 C480 69 526 186 567 323 C583 393 598 470 595 515 L595 515 Z " />
<glyph glyph-name="Ycircumflex" unicode="&#x176;" horiz-adv-x="491" d="M188 755 C205 790 224 827 242 861 L299 755 C329 746 359 749 374 767 C354 831 311 918 293 933 C275 935 256 935 241 935 C225 935 207 935 189 933 C170 918 132 831 113 767 C128 749 158 746 188 755 L188 755 Z M474 659 C476 665 477 677 479 683 C471 687 426 701 372 686 C372 686 344 591 317 518 C297 462 285 419 271 372 C262 413 255 448 248 465 L183 659 L176 681 C161 687 147 689 128 690 C89 693 68 693 15 665 L84 491 C115 403 140 346 181 248 C182 222 182 193 182 188 L183 114 L180 41 L182 0 C204 -5 237 -6 276 -6 L327 0 L326 81 L326 238 C376 393 419 481 474 659 L474 659 Z " />
<glyph glyph-name="ycircumflex" unicode="&#x177;" horiz-adv-x="370" d="M129 627 C146 663 165 700 183 733 C201 700 221 663 240 627 C270 618 300 621 315 639 C295 704 252 791 234 806 C216 808 197 808 182 807 C166 808 148 808 130 806 C111 791 73 704 54 639 C69 621 99 618 129 627 L129 627 Z M367 515 C342 521 298 527 279 521 C262 516 255 513 252 507 C250 450 249 399 244 341 C237 293 226 237 216 204 L197 123 L180 209 C168 257 160 308 153 356 C148 405 147 458 141 516 C90 525 34 537 -4 501 C-1 434 5 368 16 308 C43 180 85 72 127 2 L132 -1 L120 -30 C87 -69 52 -116 34 -140 C43 -170 73 -213 112 -222 L139 -228 C162 -207 193 -147 222 -72 C274 62 314 219 335 310 L339 323 C355 393 370 470 367 515 L367 515 Z " />
<glyph glyph-name="Ydieresis" unicode="&#x178;" horiz-adv-x="491" d="M192 771 C213 797 219 854 209 887 C191 929 116 939 90 909 C66 879 66 818 84 782 C104 752 168 749 192 771 L192 771 Z M405 771 C426 797 431 854 420 887 C404 929 329 939 302 909 C279 879 278 818 296 782 C315 752 381 749 405 771 L405 771 Z M474 659 C476 665 477 677 479 683 C471 687 426 701 372 686 C372 686 344 591 317 518 C297 462 285 419 271 372 C262 413 255 448 248 465 L183 659 L176 681 C161 687 147 689 128 690 C89 693 68 693 15 665 L84 491 C115 403 140 346 181 248 C182 222 182 193 182 188 L183 114 L180 41 L182 0 C204 -5 237 -6 276 -6 L327 0 L326 81 L326 238 C376 393 419 481 474 659 L474 659 Z " />
<glyph glyph-name="Zacute" unicode="&#x179;" horiz-adv-x="507" d="M297 755 C326 797 348 875 356 908 C347 932 293 939 258 933 C252 933 248 930 242 917 C230 882 222 815 221 767 C236 749 273 746 297 755 L297 755 Z M338 74 L326 74 C296 97 265 121 232 159 C303 294 407 490 494 659 C461 692 423 699 383 696 C376 686 370 675 363 664 C313 689 265 701 192 701 C153 701 120 696 78 684 C75 623 83 563 96 518 C147 549 188 597 204 618 L216 618 C241 602 272 586 302 564 C187 368 86 160 27 36 C47 -11 87 -27 146 -3 C147 0 158 20 175 54 C230 8 272 -14 353 -14 C390 -14 423 -8 465 8 C470 78 459 152 446 204 C395 164 354 101 338 74 L338 74 Z " />
<glyph glyph-name="zacute" unicode="&#x17a;" horiz-adv-x="405" d="M171 639 C186 621 224 618 248 627 C276 669 299 747 306 780 C297 804 243 812 209 806 C203 806 198 803 192 789 C180 755 173 687 171 639 L171 639 Z M323 524 C350 522 395 519 398 456 C399 425 230 156 195 120 C218 93 242 80 279 59 C288 114 314 158 372 183 L378 186 C389 125 386 62 381 0 C354 -6 321 -11 293 -11 C212 -11 177 15 152 41 C135 0 119 -11 93 -11 C62 -11 23 11 12 47 C54 135 191 330 243 431 C218 456 167 461 149 458 C117 423 102 381 62 365 L56 369 C41 426 41 476 50 519 C185 555 272 516 293 497 C308 510 312 515 323 524 L323 524 Z " />
<glyph glyph-name="Zdotaccent" unicode="&#x17b;" horiz-adv-x="507" d="M329 767 C351 794 357 854 345 890 C327 935 248 945 219 914 C195 882 194 816 213 779 C234 746 303 743 329 767 L329 767 Z M338 74 L326 74 C296 97 265 121 232 159 C303 294 407 490 494 659 C461 692 423 699 383 696 C376 686 370 675 363 664 C313 689 265 701 192 701 C153 701 120 696 78 684 C75 623 83 563 96 518 C147 549 188 597 204 618 L216 618 C241 602 272 586 302 564 C187 368 86 160 27 36 C47 -11 87 -27 146 -3 C147 0 158 20 175 54 C230 8 272 -14 353 -14 C390 -14 423 -8 465 8 C470 78 459 152 446 204 C395 164 354 101 338 74 L338 74 Z M146 -3 C146 -3 146 -3 146 -3 L146 -3 Z " />
<glyph glyph-name="zdotaccent" unicode="&#x17c;" horiz-adv-x="405" d="M164 651 C185 618 254 615 279 639 C302 666 308 726 296 762 C278 807 198 818 170 786 C146 755 144 689 164 651 L164 651 Z M323 524 C350 522 395 519 398 456 C399 425 230 156 195 120 C218 93 242 80 279 59 C288 114 314 158 372 183 L378 186 C389 125 386 62 381 0 C354 -6 321 -11 293 -11 C212 -11 177 15 152 41 C135 0 119 -11 93 -11 C62 -11 23 11 12 47 C54 135 191 330 243 431 C218 456 167 461 149 458 C117 423 102 381 62 365 L56 369 C41 426 41 476 50 519 C185 555 272 516 293 497 C308 510 312 515 323 524 L323 524 Z " />
<glyph glyph-name="Zcaron" unicode="&#x17d;" horiz-adv-x="507" d="M212 752 C230 750 248 750 263 750 C279 750 297 750 315 752 C333 767 377 854 396 918 C381 936 351 939 327 930 C305 895 283 857 264 823 C246 857 225 895 204 930 C180 939 150 936 135 918 C155 854 192 767 212 752 L212 752 Z M338 74 L326 74 C296 97 265 121 232 159 C303 294 407 490 494 659 C461 692 423 699 383 696 C376 686 370 675 363 664 C313 689 265 701 192 701 C153 701 120 696 78 684 C75 623 83 563 96 518 C147 549 188 597 204 618 L216 618 C241 602 272 586 302 564 C187 368 86 160 27 36 C47 -11 87 -27 146 -3 C147 0 158 20 175 54 C230 8 272 -14 353 -14 C390 -14 423 -8 465 8 C470 78 459 152 446 204 C395 164 354 101 338 74 L338 74 Z " />
<glyph glyph-name="zcaron" unicode="&#x17e;" horiz-adv-x="405" d="M162 624 C180 622 198 622 214 623 C229 622 248 622 266 624 C284 639 327 726 347 791 C332 809 302 812 278 803 C255 767 234 730 215 696 L155 803 C131 812 101 809 86 791 C105 726 143 639 162 624 L162 624 Z M372 183 C314 158 288 114 279 59 C242 80 218 93 195 120 C230 156 399 425 398 456 C395 519 350 522 323 524 C312 515 308 510 293 497 C272 516 185 555 50 519 C41 476 41 426 56 369 L62 365 C102 381 117 423 149 458 C167 461 218 456 243 431 C191 330 54 135 12 47 C23 11 62 -11 93 -11 C119 -11 135 0 152 41 C177 15 212 -11 293 -11 C321 -11 354 -6 381 0 C386 62 389 125 378 186 L372 183 Z " />
<glyph glyph-name="uni01CD" unicode="&#x1cd;" horiz-adv-x="495" d="M216 751 C234 749 252 749 267 750 C283 749 301 749 319 751 C337 766 381 853 400 918 C385 936 355 939 331 930 C309 894 287 856 268 823 C250 856 229 894 208 930 C184 939 154 936 139 918 C159 853 196 766 216 751 L216 751 Z M319 696 C267 703 221 699 193 695 L196 682 C198 672 200 661 203 651 C171 546 40 117 6 4 C10 -6 48 -16 108 -3 C111 5 112 11 114 18 L146 131 C226 129 251 130 326 131 C337 85 347 40 355 0 C389 -14 452 -15 502 0 C443 222 381 485 319 696 L319 696 Z M170 217 C192 298 219 392 243 475 C263 390 285 301 305 217 C254 219 219 215 170 217 L170 217 Z " />
<glyph glyph-name="uni01CE" unicode="&#x1ce;" horiz-adv-x="400" d="M135 624 C153 622 171 622 186 623 C202 622 220 622 238 624 C256 639 300 726 319 791 C304 809 274 812 250 803 C228 767 206 729 187 696 C169 729 148 767 127 803 C103 812 73 809 58 791 C78 726 115 639 135 624 L135 624 Z M207 530 C146 529 95 522 36 491 C41 443 56 404 84 368 C121 394 159 445 174 457 L234 457 L232 363 L233 312 C83 308 4 287 4 146 C4 46 65 -9 216 -9 C267 -9 339 -3 369 10 C370 32 370 92 370 152 L370 288 L372 381 C372 479 333 530 207 530 L207 530 Z M234 58 L156 56 C154 85 153 114 153 146 C153 177 153 211 154 245 L233 245 L234 168 L234 58 Z " />
<glyph glyph-name="uni01CF" unicode="&#x1cf;" horiz-adv-x="259" d="M75 751 C93 749 111 749 126 750 C142 749 160 749 178 751 C196 766 240 853 259 918 C244 936 214 939 190 930 C168 894 146 856 127 823 C109 856 88 894 67 930 C43 939 13 936 -2 918 C18 853 55 766 75 751 L75 751 Z M201 672 C201 685 195 693 186 699 C167 705 153 705 132 705 C101 705 78 700 65 696 L56 687 C57 657 57 627 57 609 L59 405 L56 71 L57 0 C80 -5 113 -6 152 -6 L203 0 L201 381 L201 672 Z " />
<glyph glyph-name="uni01D0" unicode="&#x1d0;" horiz-adv-x="229" d="M47 624 C65 622 83 622 98 623 C114 622 132 622 150 624 C168 639 212 726 231 791 C216 809 186 812 162 803 C140 767 118 729 99 696 C81 729 60 767 39 803 C15 812 -15 809 -30 791 C-10 726 27 639 47 624 L47 624 Z M171 329 L173 464 C173 525 119 525 98 525 C69 525 56 519 35 516 L32 512 C33 500 35 486 35 474 L35 426 L33 296 L33 152 C33 72 48 27 71 0 C78 -5 96 -6 108 -6 C155 -6 182 18 201 53 C191 68 170 110 170 152 L171 329 Z " />
<glyph glyph-name="uni01D1" unicode="&#x1d1;" horiz-adv-x="518" d="M209 751 C227 749 245 749 260 750 C276 749 294 749 312 751 C330 766 374 853 393 918 C378 936 348 939 324 930 C302 894 280 856 261 823 C243 856 222 894 201 930 C177 939 147 936 132 918 C152 853 189 766 209 751 L209 751 Z M487 344 L487 346 C486 579 425 696 279 696 L239 696 C93 696 32 579 31 346 C31 345 31 344 31 344 L31 341 C32 108 93 -9 239 -9 L279 -9 C425 -9 486 108 487 341 L487 344 Z M304 76 L214 76 C200 87 188 154 188 344 C188 533 200 600 214 611 L304 611 C318 600 330 533 330 344 C330 154 318 87 304 76 L304 76 Z " />
<glyph glyph-name="uni01D2" unicode="&#x1d2;" horiz-adv-x="431" d="M165 624 C183 622 201 622 216 623 C232 622 250 622 268 624 C286 639 330 726 349 791 C334 809 304 812 280 803 C258 767 236 729 217 696 C199 729 178 767 157 803 C133 812 103 809 88 791 C108 726 145 639 165 624 L165 624 Z M413 261 L413 263 C412 434 339 530 239 530 L192 530 C92 530 19 434 18 263 C18 262 18 261 18 261 L18 258 C19 87 92 -9 192 -9 L239 -9 C339 -9 412 87 413 258 L413 261 Z M261 62 L170 62 C168 70 165 119 165 261 C165 402 168 451 170 459 L261 459 C263 451 266 402 266 261 C266 119 263 70 261 62 L261 62 Z " />
<glyph glyph-name="uni01D3" unicode="&#x1d3;" horiz-adv-x="518" d="M217 751 C235 749 253 749 268 750 C284 749 302 749 320 751 C338 766 382 853 401 918 C386 936 356 939 332 930 C310 894 288 856 269 823 C251 856 230 894 209 930 C185 939 155 936 140 918 C160 853 197 766 217 751 L217 751 Z M459 694 C452 696 444 697 441 697 C405 697 347 699 332 694 L334 263 C334 224 335 114 334 75 L211 75 C210 98 209 182 209 254 L211 694 C179 699 146 700 118 699 C97 698 74 697 58 694 L56 239 C59 59 95 -8 244 -11 L290 -11 C424 -6 461 67 462 251 L459 694 Z " />
<glyph glyph-name="uni01D4" unicode="&#x1d4;" horiz-adv-x="428" d="M154 624 C172 622 190 622 205 623 C221 622 239 622 257 624 C275 639 319 726 338 791 C323 809 293 812 269 803 C247 767 225 729 206 696 C188 729 167 767 146 803 C122 812 92 809 77 791 C97 726 134 639 154 624 L154 624 Z M403 98 L404 510 C388 519 359 524 341 524 C314 525 295 521 268 516 L268 125 C252 100 236 80 221 65 L165 65 L167 201 L167 204 L165 464 C165 525 111 525 90 525 C62 525 48 519 27 516 L24 512 C29 482 30 447 30 426 L29 230 L27 143 C27 59 38 -8 153 -8 C197 -8 231 -1 270 42 C279 -2 324 -2 343 -2 C371 -2 385 5 406 8 L409 12 C404 42 403 77 403 98 L403 98 Z " />
<glyph glyph-name="uni01D5" unicode="&#x1d5;" horiz-adv-x="518" d="M134 1165 C126 1123 125 1102 134 1072 C245 1070 298 1072 409 1072 C416 1114 416 1123 409 1165 C307 1174 229 1163 134 1165 L134 1165 Z M106 781 C126 751 190 748 214 771 C235 796 241 853 231 886 C213 928 138 939 112 909 C88 879 88 817 106 781 L106 781 Z M318 781 C337 751 403 748 427 771 C448 796 453 853 442 886 C426 928 351 939 324 909 C301 879 300 817 318 781 L318 781 Z M459 694 C452 696 444 697 441 697 C405 697 347 699 332 694 L334 263 C334 224 335 114 334 75 L211 75 C210 98 209 182 209 254 L211 694 C179 699 146 700 118 699 C97 698 74 697 58 694 L56 239 C59 59 95 -8 244 -11 L290 -11 C424 -6 461 67 462 251 L459 694 Z " />
<glyph glyph-name="uni01D6" unicode="&#x1d6;" horiz-adv-x="428" d="M346 945 C353 987 353 996 346 1038 C244 1047 166 1036 71 1038 C63 996 62 975 71 945 C182 943 235 945 346 945 L346 945 Z M151 644 C172 669 178 726 168 759 C150 801 75 812 49 782 C25 752 25 690 43 654 C63 624 127 621 151 644 L151 644 Z M261 782 C238 752 237 690 255 654 C274 624 340 621 364 644 C385 669 390 726 379 759 C363 801 288 812 261 782 L261 782 Z M403 98 L404 510 C388 519 359 524 341 524 C314 525 295 521 268 516 L268 125 C252 100 236 80 221 65 L165 65 L167 201 L167 204 L165 464 C165 525 111 525 90 525 C62 525 48 519 27 516 L24 512 C29 482 30 447 30 426 L29 230 L27 143 C27 59 38 -8 153 -8 C197 -8 231 -1 270 42 C279 -2 324 -2 343 -2 C371 -2 385 5 406 8 L409 12 C404 42 403 77 403 98 L403 98 Z " />
<glyph glyph-name="uni01D7" unicode="&#x1d7;" horiz-adv-x="518" d="M203 1046 C218 1028 256 1025 280 1034 C308 1076 331 1154 338 1187 C329 1211 275 1219 241 1213 C235 1213 230 1210 224 1196 C212 1162 205 1094 203 1046 L203 1046 Z M106 781 C126 751 190 748 214 771 C235 796 241 853 231 886 C213 928 138 939 112 909 C88 879 88 817 106 781 L106 781 Z M318 781 C337 751 403 748 427 771 C448 796 453 853 442 886 C426 928 351 939 324 909 C301 879 300 817 318 781 L318 781 Z M459 694 C452 696 444 697 441 697 C405 697 347 699 332 694 L334 263 C334 224 335 114 334 75 L211 75 C210 98 209 182 209 254 L211 694 C179 699 146 700 118 699 C97 698 74 697 58 694 L56 239 C59 59 95 -8 244 -11 L290 -11 C424 -6 461 67 462 251 L459 694 Z " />
<glyph glyph-name="uni01D8" unicode="&#x1d8;" horiz-adv-x="428" d="M217 907 C245 949 268 1027 275 1060 C266 1084 212 1092 178 1086 C172 1086 167 1083 161 1069 C149 1035 142 967 140 919 C155 901 193 898 217 907 L217 907 Z M151 644 C172 669 178 726 168 759 C150 801 75 812 49 782 C25 752 25 690 43 654 C63 624 127 621 151 644 L151 644 Z M261 782 C238 752 237 690 255 654 C274 624 340 621 364 644 C385 669 390 726 379 759 C363 801 288 812 261 782 L261 782 Z M403 98 L404 510 C388 519 359 524 341 524 C314 525 295 521 268 516 L268 125 C252 100 236 80 221 65 L165 65 L167 201 L167 204 L165 464 C165 525 111 525 90 525 C62 525 48 519 27 516 L24 512 C29 482 30 447 30 426 L29 230 L27 143 C27 59 38 -8 153 -8 C197 -8 231 -1 270 42 C279 -2 324 -2 343 -2 C371 -2 385 5 406 8 L409 12 C404 42 403 77 403 98 L403 98 Z " />
<glyph glyph-name="uni01D9" unicode="&#x1d9;" horiz-adv-x="518" d="M217 1031 C235 1029 253 1029 268 1030 C284 1029 302 1029 320 1031 C338 1046 382 1133 401 1198 C386 1216 356 1219 332 1210 C310 1174 288 1136 269 1103 C251 1136 230 1174 209 1210 C185 1219 155 1216 140 1198 C160 1133 197 1046 217 1031 L217 1031 Z M214 771 C235 796 241 853 231 886 C213 928 138 939 112 909 C88 879 88 817 106 781 C126 751 190 748 214 771 L214 771 Z M324 909 C301 879 300 817 318 781 C337 751 403 748 427 771 C448 796 453 853 442 886 C426 928 351 939 324 909 L324 909 Z M459 694 C452 696 444 697 441 697 C405 697 347 699 332 694 L334 263 C334 224 335 114 334 75 L211 75 C210 98 209 182 209 254 L211 694 C179 699 146 700 118 699 C97 698 74 697 58 694 L56 239 C59 59 95 -8 244 -11 L290 -11 C424 -6 461 67 462 251 L459 694 Z " />
<glyph glyph-name="uni01DA" unicode="&#x1da;" horiz-adv-x="428" d="M154 904 C172 902 190 902 205 903 C221 902 239 902 257 904 C275 919 319 1006 338 1071 C323 1089 293 1092 269 1083 C247 1047 225 1009 206 976 C188 1009 167 1047 146 1083 C122 1092 92 1089 77 1071 C97 1006 134 919 154 904 L154 904 Z M151 644 C172 669 178 726 168 759 C150 801 75 812 49 782 C25 752 25 690 43 654 C63 624 127 621 151 644 L151 644 Z M261 782 C238 752 237 690 255 654 C274 624 340 621 364 644 C385 669 390 726 379 759 C363 801 288 812 261 782 L261 782 Z M403 98 L404 510 C388 519 359 524 341 524 C314 525 295 521 268 516 L268 125 C252 100 236 80 221 65 L165 65 L167 201 L167 204 L165 464 C165 525 111 525 90 525 C62 525 48 519 27 516 L24 512 C29 482 30 447 30 426 L29 230 L27 143 C27 59 38 -8 153 -8 C197 -8 231 -1 270 42 C279 -2 324 -2 343 -2 C371 -2 385 5 406 8 L409 12 C404 42 403 77 403 98 L403 98 Z " />
<glyph glyph-name="uni01DB" unicode="&#x1db;" horiz-adv-x="518" d="M262 1034 C286 1025 323 1028 338 1046 C337 1094 335 1162 317 1196 C311 1210 307 1213 301 1213 C266 1219 212 1211 203 1187 C211 1154 233 1076 262 1034 L262 1034 Z M106 781 C126 751 190 748 214 771 C235 796 241 853 231 886 C213 928 138 939 112 909 C88 879 88 817 106 781 L106 781 Z M318 781 C337 751 403 748 427 771 C448 796 453 853 442 886 C426 928 351 939 324 909 C301 879 300 817 318 781 L318 781 Z M459 694 C452 696 444 697 441 697 C405 697 347 699 332 694 L334 263 C334 224 335 114 334 75 L211 75 C210 98 209 182 209 254 L211 694 C179 699 146 700 118 699 C97 698 74 697 58 694 L56 239 C59 59 95 -8 244 -11 L290 -11 C424 -6 461 67 462 251 L459 694 Z " />
<glyph glyph-name="uni01DC" unicode="&#x1dc;" horiz-adv-x="428" d="M275 919 C274 967 272 1035 254 1069 C248 1083 244 1086 238 1086 C203 1092 149 1084 140 1060 C148 1027 170 949 199 907 C223 898 260 901 275 919 L275 919 Z M151 644 C172 669 178 726 168 759 C150 801 75 812 49 782 C25 752 25 690 43 654 C63 624 127 621 151 644 L151 644 Z M261 782 C238 752 237 690 255 654 C274 624 340 621 364 644 C385 669 390 726 379 759 C363 801 288 812 261 782 L261 782 Z M403 98 L404 510 C388 519 359 524 341 524 C314 525 295 521 268 516 L268 125 C252 100 236 80 221 65 L165 65 L167 201 L167 204 L165 464 C165 525 111 525 90 525 C62 525 48 519 27 516 L24 512 C29 482 30 447 30 426 L29 230 L27 143 C27 59 38 -8 153 -8 C197 -8 231 -1 270 42 C279 -2 324 -2 343 -2 C371 -2 385 5 406 8 L409 12 C404 42 403 77 403 98 L403 98 Z " />
<glyph glyph-name="Scommaaccent" unicode="&#x218;" horiz-adv-x="410" d="M218 704 L183 704 C77 698 17 624 17 528 C17 471 50 386 129 315 C185 267 245 207 245 140 C245 119 240 96 231 74 L161 74 C144 93 104 138 53 167 C32 128 12 74 6 20 C59 0 101 -9 164 -9 L213 -9 C323 -5 387 77 387 174 C387 255 347 338 267 401 C180 470 161 527 161 566 C161 596 167 617 170 621 L230 621 C240 588 288 557 309 552 C344 567 366 599 372 653 C317 693 272 704 218 704 L218 704 Z M164 -86 C159 -99 150 -133 147 -166 C132 -194 124 -227 113 -255 C125 -263 153 -290 180 -291 L201 -291 C222 -264 239 -214 263 -93 C246 -85 218 -78 190 -80 C178 -82 170 -83 164 -86 L164 -86 Z " />
<glyph glyph-name="scommaaccent" unicode="&#x219;" horiz-adv-x="350" d="M163 414 C163 432 163 450 165 459 L199 459 C213 445 256 397 296 371 C315 410 326 453 329 505 C282 525 242 529 194 530 L185 530 C93 530 21 490 22 388 C19 252 192 188 194 113 L195 57 L148 57 C122 112 81 148 46 177 C26 126 15 76 14 17 C70 -6 126 -9 156 -9 C281 -9 339 27 339 129 C339 286 163 326 163 414 L163 414 Z M173 -80 C161 -82 153 -83 147 -86 C143 -99 134 -133 131 -166 C116 -194 107 -227 97 -255 C109 -263 136 -290 164 -291 L185 -291 C206 -264 223 -214 246 -93 C229 -85 201 -78 173 -80 L173 -80 Z " />
<glyph glyph-name="uni021A" unicode="&#x21a;" horiz-adv-x="462" d="M453 687 C437 689 414 690 398 690 C325 690 304 687 233 690 L63 690 C47 690 23 690 9 687 C3 654 5 623 11 590 C58 587 108 585 159 586 L158 420 L156 71 L156 0 C182 -5 234 -6 275 -5 L303 0 L300 126 L300 381 L302 589 C350 589 399 589 444 591 C453 623 461 654 453 687 L453 687 Z M217 -80 C205 -82 197 -83 191 -86 C186 -99 177 -133 174 -166 C159 -194 151 -227 140 -255 C152 -263 180 -290 207 -291 L228 -291 C249 -264 266 -214 290 -93 C273 -85 245 -78 217 -80 L217 -80 Z " />
<glyph glyph-name="uni021B" unicode="&#x21b;" horiz-adv-x="308" d="M207 421 C233 422 259 423 287 425 C299 452 300 495 291 521 C263 523 235 523 207 522 L207 644 C207 705 158 705 137 705 C108 705 95 699 74 696 L71 692 C72 680 74 666 74 654 L74 591 L72 512 C41 508 14 506 0 504 C-12 482 -12 456 0 428 C16 428 41 426 70 424 L69 296 L68 141 C68 65 93 33 129 0 C140 -5 167 -6 179 -6 C228 -6 257 20 278 57 C252 84 206 119 206 141 L207 329 L207 421 Z M166 -80 C154 -82 146 -83 140 -86 C135 -99 126 -133 123 -166 C108 -194 100 -227 89 -255 C101 -263 129 -290 156 -291 L177 -291 C198 -264 215 -214 239 -93 C222 -85 194 -78 166 -80 L166 -80 Z " />
<glyph glyph-name="uni0394" unicode="&#x394;" horiz-adv-x="899" d="" />
<glyph glyph-name="uni03A9" unicode="&#x3a9;" horiz-adv-x="962" d="" />
<glyph glyph-name="uni03BC" unicode="&#x3bc;" horiz-adv-x="943" d="" />
<glyph glyph-name="pi" unicode="&#x3c0;" horiz-adv-x="902" d="" />
<glyph glyph-name="Wgrave" unicode="&#x1e80;" horiz-adv-x="831" d="M473 767 C471 815 470 882 452 917 C446 930 441 933 435 933 C401 939 347 932 338 908 C345 875 368 797 396 755 C420 746 458 749 473 767 L473 767 Z M678 693 C678 693 665 584 659 522 C640 424 620 322 593 212 C576 283 559 352 546 417 L512 668 L507 690 C492 696 476 698 456 699 C426 701 410 703 380 694 C380 693 379 693 378 693 C369 690 359 686 347 681 L355 628 C355 627 353 623 353 623 C333 482 302 347 263 204 C243 296 225 384 213 464 L189 668 L185 690 C170 696 153 698 134 699 C96 702 81 704 29 681 C44 573 56 495 72 422 C98 303 117 200 182 -2 L308 -2 C345 119 384 233 413 347 L413 348 C446 227 461 164 515 -2 L641 -2 C713 233 779 432 809 669 C810 675 810 686 810 690 C801 695 750 708 678 693 L678 693 Z " />
<glyph glyph-name="wgrave" unicode="&#x1e81;" horiz-adv-x="598" d="M348 639 C346 687 345 755 327 789 C321 803 316 806 310 806 C276 812 222 804 213 780 C220 747 243 669 271 627 C295 618 333 621 348 639 L348 639 Z M595 515 C570 521 526 527 507 521 C490 516 483 513 480 507 C478 450 477 399 472 341 C465 293 454 237 444 204 L425 123 L408 209 C396 257 388 308 381 356 C376 405 375 458 369 516 C318 525 262 537 225 501 C228 440 233 380 241 324 C234 280 225 233 216 204 L197 123 L180 209 C168 257 160 308 153 356 C148 405 147 458 141 516 C90 525 34 537 -4 501 C-1 434 5 368 16 308 C43 180 85 72 127 2 C133 -2 144 -5 154 -5 C195 -5 202 -2 219 2 C238 40 261 94 285 159 C306 96 331 43 355 2 C361 -2 372 -5 382 -5 C423 -5 430 -2 447 2 C480 69 526 186 567 323 C583 393 598 470 595 515 L595 515 Z " />
<glyph glyph-name="Wacute" unicode="&#x1e82;" horiz-adv-x="831" d="M458 755 C486 797 509 875 516 908 C507 932 453 939 419 933 C413 933 408 930 402 917 C390 882 383 815 381 767 C396 749 434 746 458 755 L458 755 Z M678 693 C678 693 665 584 659 522 C640 424 620 322 593 212 C576 283 559 352 546 417 L512 668 L507 690 C492 696 476 698 456 699 C426 701 410 703 380 694 C380 693 379 693 378 693 C369 690 359 686 347 681 L355 628 C355 627 353 623 353 623 C333 482 302 347 263 204 C243 296 225 384 213 464 L189 668 L185 690 C170 696 153 698 134 699 C96 702 81 704 29 681 C44 573 56 495 72 422 C98 303 117 200 182 -2 L308 -2 C345 119 384 233 413 347 L413 348 C446 227 461 164 515 -2 L641 -2 C713 233 779 432 809 669 C810 675 810 686 810 690 C801 695 750 708 678 693 L678 693 Z " />
<glyph glyph-name="wacute" unicode="&#x1e83;" horiz-adv-x="598" d="M333 627 C361 669 384 747 391 780 C382 804 328 812 294 806 C288 806 283 803 277 789 C265 755 258 687 256 639 C271 621 309 618 333 627 L333 627 Z M595 515 C570 521 526 527 507 521 C490 516 483 513 480 507 C478 450 477 399 472 341 C465 293 454 237 444 204 L425 123 L408 209 C396 257 388 308 381 356 C376 405 375 458 369 516 C318 525 262 537 225 501 C228 440 233 380 241 324 C234 280 225 233 216 204 L197 123 L180 209 C168 257 160 308 153 356 C148 405 147 458 141 516 C90 525 34 537 -4 501 C-1 434 5 368 16 308 C43 180 85 72 127 2 C133 -2 144 -5 154 -5 C195 -5 202 -2 219 2 C238 40 261 94 285 159 C306 96 331 43 355 2 C361 -2 372 -5 382 -5 C423 -5 430 -2 447 2 C480 69 526 186 567 323 C583 393 598 470 595 515 L595 515 Z " />
<glyph glyph-name="Wdieresis" unicode="&#x1e84;" horiz-adv-x="831" d="M374 771 C395 797 401 854 390 887 C372 929 297 939 272 909 C248 879 248 818 266 782 C285 752 350 749 374 771 L374 771 Z M587 771 C608 797 612 854 602 887 C585 929 510 939 483 909 C461 879 459 818 477 782 C497 752 563 749 587 771 L587 771 Z M678 693 C678 693 665 584 659 522 C640 424 620 322 593 212 C576 283 559 352 546 417 L512 668 L507 690 C492 696 476 698 456 699 C426 701 410 703 380 694 C380 693 379 693 378 693 C369 690 359 686 347 681 L355 628 C355 627 353 623 353 623 C333 482 302 347 263 204 C243 296 225 384 213 464 L189 668 L185 690 C170 696 153 698 134 699 C96 702 81 704 29 681 C44 573 56 495 72 422 C98 303 117 200 182 -2 L308 -2 C345 119 384 233 413 347 L413 348 C446 227 461 164 515 -2 L641 -2 C713 233 779 432 809 669 C810 675 810 686 810 690 C801 695 750 708 678 693 L678 693 Z " />
<glyph glyph-name="wdieresis" unicode="&#x1e85;" horiz-adv-x="598" d="M249 644 C270 669 276 726 265 759 C247 801 172 812 147 782 C123 752 123 690 141 654 C160 624 225 621 249 644 L249 644 Z M462 644 C483 669 487 726 477 759 C460 801 385 812 358 782 C336 752 334 690 352 654 C372 624 438 621 462 644 L462 644 Z M595 515 C570 521 526 527 507 521 C490 516 483 513 480 507 C478 450 477 399 472 341 C465 293 454 237 444 204 L425 123 L408 209 C396 257 388 308 381 356 C376 405 375 458 369 516 C318 525 262 537 225 501 C228 440 233 380 241 324 C234 280 225 233 216 204 L197 123 L180 209 C168 257 160 308 153 356 C148 405 147 458 141 516 C90 525 34 537 -4 501 C-1 434 5 368 16 308 C43 180 85 72 127 2 C133 -2 144 -5 154 -5 C195 -5 202 -2 219 2 C238 40 261 94 285 159 C306 96 331 43 355 2 C361 -2 372 -5 382 -5 C423 -5 430 -2 447 2 C480 69 526 186 567 323 C583 393 598 470 595 515 L595 515 Z " />
<glyph glyph-name="uni1E9E" unicode="&#x1e9e;" horiz-adv-x="612" d="M504 386 C457 441 445 485 454 513 C475 572 495 631 513 690 C451 716 407 724 317 724 C127 724 56 669 56 562 L56 0 C101 -7 149 -7 202 0 L202 642 L376 642 C330 564 304 507 304 450 C304 405 316 348 367 291 C408 240 450 197 450 135 L450 72 L413 72 C387 106 347 136 315 166 C279 111 264 64 268 19 C324 -2 363 -11 416 -11 C541 -11 601 50 601 173 C601 249 558 321 504 386 L504 386 Z " />
<glyph glyph-name="Ygrave" unicode="&#x1ef2;" horiz-adv-x="491" d="M291 767 C290 815 288 882 270 917 C264 930 260 933 254 933 C219 939 165 932 156 908 C164 875 186 797 215 755 C239 746 276 749 291 767 L291 767 Z M474 659 C476 665 477 677 479 683 C471 687 426 701 372 686 C372 686 344 591 317 518 C297 462 285 419 271 372 C262 413 255 448 248 465 L183 659 L176 681 C161 687 147 689 128 690 C89 693 68 693 15 665 L84 491 C115 403 140 346 181 248 C182 222 182 193 182 188 L183 114 L180 41 L182 0 C204 -5 237 -6 276 -6 L327 0 L326 81 L326 238 C376 393 419 481 474 659 L474 659 Z " />
<glyph glyph-name="ygrave" unicode="&#x1ef3;" horiz-adv-x="370" d="M232 639 C231 687 229 755 211 789 C205 803 201 806 195 806 C160 812 106 804 97 780 C105 747 127 669 156 627 C180 618 217 621 232 639 L232 639 Z M367 515 C342 521 298 527 279 521 C262 516 255 513 252 507 C250 450 249 399 244 341 C237 293 226 237 216 204 L197 123 L180 209 C168 257 160 308 153 356 C148 405 147 458 141 516 C90 525 34 537 -4 501 C-1 434 5 368 16 308 C43 180 85 72 127 2 L132 -1 L120 -30 C87 -69 52 -116 34 -140 C43 -170 73 -213 112 -222 L139 -228 C162 -207 193 -147 222 -72 C274 62 314 219 335 310 L339 323 C355 393 370 470 367 515 L367 515 Z " />
<glyph glyph-name="endash" unicode="&#x2013;" horiz-adv-x="463" d="M23 341 C8 299 8 272 23 230 C146 230 317 231 440 230 C455 272 455 299 440 341 C317 353 146 338 23 341 L23 341 Z " />
<glyph glyph-name="emdash" unicode="&#x2014;" horiz-adv-x="709" d="M23 341 C8 299 8 272 23 230 C146 230 563 231 686 230 C701 272 701 299 686 341 C563 353 146 338 23 341 L23 341 Z " />
<glyph glyph-name="quoteleft" unicode="&#x2018;" horiz-adv-x="290" d="M111 731 C101 698 65 560 45 527 C60 501 102 467 138 467 L165 467 C191 503 212 570 245 726 C224 737 182 744 146 740 C131 737 120 735 111 731 L111 731 Z " />
<glyph glyph-name="quoteright" unicode="&#x2019;" horiz-adv-x="290" d="M111 731 C101 698 65 560 45 527 C60 501 102 467 138 467 L165 467 C191 503 212 570 245 726 C224 737 182 744 146 740 C131 737 120 735 111 731 L111 731 Z " />
<glyph glyph-name="quotesinglbase" unicode="&#x201a;" horiz-adv-x="900" d="M51 159 C47 141 39 96 39 53 C23 15 15 -29 5 -66 C21 -75 60 -107 96 -105 L123 -104 C147 -66 164 2 180 161 C158 170 120 176 84 170 C69 165 59 164 51 159 L51 159 Z " />
<glyph glyph-name="quotedblleft" unicode="&#x201c;" horiz-adv-x="519" d="M111 731 C101 698 65 560 45 527 C60 501 102 467 138 467 L165 467 C191 503 212 570 245 726 C224 737 182 744 146 740 C131 737 120 735 111 731 L111 731 Z M341 731 C330 698 287 560 276 525 C290 501 332 467 368 467 L395 467 C420 503 441 570 474 726 C453 737 411 744 375 740 C360 737 350 735 341 731 L341 731 Z " />
<glyph glyph-name="quotedblright" unicode="&#x201d;" horiz-adv-x="519" d="M111 731 C101 698 65 560 45 527 C60 501 102 467 138 467 L165 467 C191 503 212 570 245 726 C224 737 182 744 146 740 C131 737 120 735 111 731 L111 731 Z M341 731 C330 698 287 560 276 525 C290 501 332 467 368 467 L395 467 C420 503 441 570 474 726 C453 737 411 744 375 740 C360 737 350 735 341 731 L341 731 Z " />
<glyph glyph-name="quotedblbase" unicode="&#x201e;" horiz-adv-x="900" d="M84 170 C69 165 59 164 51 159 C47 141 39 96 39 53 C23 15 15 -29 5 -66 C21 -75 60 -107 96 -105 L123 -104 C147 -66 164 2 180 161 C158 170 120 176 84 170 L84 170 Z " />
<glyph glyph-name="dagger" unicode="&#x2020;" horiz-adv-x="900" d="" />
<glyph glyph-name="daggerdbl" unicode="&#x2021;" horiz-adv-x="900" d="" />
<glyph glyph-name="bullet" unicode="&#x2022;" horiz-adv-x="900" d="" />
<glyph glyph-name="ellipsis" unicode="&#x2026;" horiz-adv-x="732" d="M150 155 C125 179 56 176 35 143 C15 105 15 39 39 8 C66 -12 143 -23 161 23 C173 59 173 126 150 155 L150 155 Z M416 155 C390 179 321 176 300 143 C281 105 281 39 305 8 C332 -12 408 -23 426 23 C438 59 438 126 416 155 L416 155 Z M690 155 C665 179 596 176 575 143 C555 105 555 39 579 8 C606 -12 683 -23 701 23 C713 59 713 126 690 155 L690 155 Z " />
<glyph glyph-name="perthousand" unicode="&#x2030;" horiz-adv-x="900" d="" />
<glyph glyph-name="guilsinglleft" unicode="&#x2039;" horiz-adv-x="294" d="M18 263 C71 101 114 47 143 17 L170 17 C210 17 249 51 266 77 C234 107 170 224 161 260 C204 324 237 383 266 441 C260 459 243 482 219 489 C204 494 183 495 168 494 C134 455 75 360 18 263 L18 263 Z " />
<glyph glyph-name="guilsinglright" unicode="&#x203a;" horiz-adv-x="294" d="M275 263 C218 360 159 455 125 494 C110 495 89 494 74 489 C50 482 33 459 27 441 C56 383 89 324 132 260 C123 224 59 107 27 77 C44 51 83 17 123 17 L150 17 C179 47 222 101 275 263 L275 263 Z " />
<glyph glyph-name="fraction" unicode="&#x2044;" horiz-adv-x="900" d="" />
<glyph glyph-name="Euro" unicode="&#x20ac;" horiz-adv-x="900" d="" />
<glyph glyph-name="trademark" unicode="&#x2122;" horiz-adv-x="900" d="" />
<glyph glyph-name="oneeighth" unicode="&#x215b;" horiz-adv-x="900" d="" />
<glyph glyph-name="threeeighths" unicode="&#x215c;" horiz-adv-x="900" d="" />
<glyph glyph-name="fiveeighths" unicode="&#x215d;" horiz-adv-x="900" d="" />
<glyph glyph-name="seveneighths" unicode="&#x215e;" horiz-adv-x="900" d="" />
<glyph glyph-name="product" unicode="&#x220f;" horiz-adv-x="900" d="" />
<glyph glyph-name="minus" unicode="&#x2212;" horiz-adv-x="900" d="" />
<glyph glyph-name="notequal" unicode="&#x2260;" horiz-adv-x="900" d="" />
</font>
</svg>
