<?xml version="1.0" encoding="utf-8"?>
<!-- Generator: Adobe Illustrator 19.2.1, SVG Export Plug-In . SVG Version: 6.00 Build 0)  -->
<svg version="1.1" xmlns="http://www.w3.org/2000/svg" xmlns:xlink="http://www.w3.org/1999/xlink" x="0px" y="0px"
	 viewBox="0 0 588.2 427.6" enable-background="new 0 0 588.2 427.6" xml:space="preserve">
<g id="Layer_1">
	<g>
		<path fill="#E2E7E8" d="M130.1,86.6c0.5,7.2,1.2,14.4,2.5,21.5c-3.1,0-7.4-1.7-8.5-9c-0.4-2.3-0.6-6.4-0.8-11.4
			c-8.9,1.4-18.6,2.9-26.6,4.1c-4.7,7-8.3,12.1-9.7,13.8c-2,2.5-6,1.8-6.6,0.1c0,0,3.5-5.2,8.5-12.8c-4.8,0.7-8,1.1-8.9,1.1
			c-4,0-7.1-2.6-7.1-5.8c1.7,0,10.2-1.3,21-2.9c12.4-19,29.6-46,35.2-57.6c1.4-7.3,4.3-19.2,6.2-19c2.5,0.2,7.1,3.2,6.5,7.7
			c-0.2,2.8-2.3,6.8-4.6,10.8c-0.7,1.2-1.4,2.4-2.2,3.6c-2.8,7.7-5.8,27.4-5.2,49.6c5-0.6,9.4-1,12.1-1c5.2,0,6.4,3.5,6.4,4.4
			L130.1,86.6z M123.1,81.1c0-10.7,0.5-24.1,2.5-35.8c-6.6,12.1-16,26.8-23.9,38.8C108.8,83,116.4,82,123.1,81.1z M137.4,27.2h-0.2
			H137.4z"/>
		<path fill="#E2E7E8" d="M218,61.9c0,2.5-10.4,17.2-24,17.2c-9.2,0-15-7.1-17.6-16.9L156.7,107c-2.3,0-5.5-0.8-5.5-5.4
			c0-15.7,8.2-49,10.2-54.6c2.5,0,7.2,1.3,7.2,4.8c0,1.6-7.7,22.1-10.7,41.5l17.2-41c-0.1-1-0.1-1.8-0.1-2.8
			c0-13.9,5.6-26.5,8.8-26.5c3.5,0,8,2.6,8,4.4c0,1.1-6.6,15.2-10.8,24.5c0.8,12.7,4.4,22.7,14,22.7c10.2,0,21.2-15.6,21.2-15.6
			C217.3,59,218,60.6,218,61.9z"/>
		<path fill="#E2E7E8" d="M301,63.7c-1.4,3.1-28.2,43.4-34.1,43.4c-6,0-13.6-4-13.6-16.6c0-4.9,1.6-13.1,3.8-22.6
			c-9.7,16.8-22.1,37.1-25.7,37.1c-6,0-13.6-4-13.6-16.6c0-13.4,5.3-32.6,12.2-52.9c-7.7,1.2-13.7,2.3-14.6,2.3
			c-2.8,0-5.8-2.6-5.6-4.6c1.8-0.4,11.4-2.3,22.6-4.2c2.5-6.8,5-13.7,7.7-20.4c1.8,0,6,1.9,6,5.5c0,0.7-1.9,5.9-4.6,13.3
			c3.1-0.4,6.4-0.8,9.4-1.2c5.5-0.6,12.2-1.2,18.8-1.7c4.7-14.2,8.8-24.7,9.6-24.7c4.4,0,7.7,4.4,7.7,8c0,0.8-1.8,7.4-6,16
			c6.8-0.4,12.4-0.6,14.5-0.6c5.3-0.1,5.8,3,5.8,4c0,0-10.6,0.8-23,2.2l-2.8,4.6c-6.1,18.1-15.4,47.4-15.4,60.1c0,7,4.2,8.4,5.6,8.4
			c1.9,0,33-43.3,33-43.3C299.9,59.3,301.9,61.7,301,63.7z M261.7,50.6c2-6.8,4.1-13.7,6.1-20.2c-5.4,0.6-10.7,1.2-15.4,1.8
			c-4.3,0.6-8.8,1.2-13.2,1.9c-6.2,18-14.5,43.9-14.5,58c0,7,4.2,8.4,5.6,8.4S252,67,261.7,50.6z"/>
		<path fill="#E2E7E8" d="M342.4,51.4c-0.6,3.8-4.6,10.3-7.8,15.4c-0.7,9.6-2.5,31.3-6.2,45.7c-3.7,14.4-14.9,27.1-27.8,27.1
			c-16.7,0-22.6-11.8-22.6-24.5c0-8.4,6.2-18,6.8-18c2.2,0,6.2,1.6,6.2,4.9c0,1.9-6.1,8-6.1,17.5c0,6,3.2,15.4,12,15.4
			c11.4,0,20-9,23.8-21.8c3.4-11.6,6.1-29.2,7.3-38.3c-9.1,15.5-19.3,32.5-20.6,32.5c-6.1,0-13.8-8.2-13.8-23.6
			c0-14.6,9.8-42.1,10.6-42.1c2,0,7.2,1.4,7.2,4.9c0,3.1-10.7,27.1-10.7,40.1c0,11.5,5,15.2,5.4,14.5l22.3-37.2
			c1.7-7.6,5.3-21.1,7.4-20.9C338.4,43.3,343.1,46.7,342.4,51.4z"/>
		<path fill="#E2E7E8" d="M374.6,81.6c3.5,3.8,5.9,7.8,5.9,11.9c0,10.1-10.3,18.1-18.4,18.1c-6.6,0-12.1-4.4-12.1-12.4
			c0-6.5,5.9-12.6,14-18c-7.4-7.8-16.8-15.8-16.8-25c0-9.7,8.3-22.1,27.4-22.1c6.5,0,14.8,2.6,17.5,10c2.3-4.9,4.7-9,5.3-9
			c2.6,0,3.6,2.4,3.6,4.6c0,2.6-9,23.5-10.3,22.7c-1.3,0-2.8-1.1-2.8-4.9c0-1.1,0.4-2.6,0.8-4.4c0-1,0.1-2.2,0.1-3.6
			c0-6-6.2-8.8-13.6-8.8c-14.9,0-22.3,8.4-22.3,14.6c0,7.3,9.6,14.5,17.4,22.1C390.1,66.5,416.9,59,417.4,59c1.8,0,2.3,0.7,2.3,2.8
			C419.5,62.8,393.6,70.8,374.6,81.6z M368.2,85.6c-7.8,5.3-13.3,11-13.3,16.9c0,4.2,4.4,4.6,6.2,4.6c4.2,0,12.2-5.8,12.2-10.9
			C373.3,92.6,371.2,89.2,368.2,85.6z M362.2,26.8c0-0.8,27-19.9,31.1-19.9c1.1,1.1,3.2,2.9,1.7,6.1c-1.2,2.5-10.7,8.6-28.4,15.5
			C364.1,29.4,362,27.5,362.2,26.8z"/>
		<path fill="#E2E7E8" d="M407.4,82.9c0-23.9,17.9-47.8,30.5-47.8c8.6,0,13.1,5.4,13.1,13.4c0,10.2-3.6,16-4.4,16
			c-2.9,0-5.9-2.6-5.9-4c0-0.4,3.2-6.4,3.2-12c0-6.4-1.4-8.9-3.7-8.9c-8.8,0-24.6,26.9-24.6,46c0,13.2,8,17.6,10.7,17.6
			c20.9-0.2,49.2-44.3,49.4-44.3c1.1,0,2.6,1,2.6,2.9c0,3.5-27.7,46.3-50,46.3C418.2,108.2,407.4,99.1,407.4,82.9z"/>
		<path fill="#E2E7E8" d="M516.4,63.5c-1.4,3.1-28.4,43.6-34.3,43.7c-6,0-13.6-4-13.6-16.6c0-11.2,3.4-25.3,6.1-34.4
			c1.6-5.8,3.5-11,4.7-10.8c2.5,0.4,7.1,3.5,6.4,7.9c-0.4,2.3-1.8,5.4-3.7,8.6c-2.9,8.9-6.6,21.8-6.6,32.3c0,7,4.2,8.4,5.6,8.4
			c1.9,0,33.2-43.6,33.2-43.6C515.3,59,517.3,61.4,516.4,63.5z M472,28.8c0.8-6.6,17.4-10.9,20.6-7.7c0.7,0.7,1.2,1.6,1.3,2.3
			c1,1.1,1.9,3,1.6,4.2c-2.5,8.5-16.9,10.2-20,8.2C472.8,34.1,471.6,30.4,472,28.8z M477.5,31.1c0,1.3,10.2-1.4,14.2-5.8
			C486.6,24.4,477.5,27.8,477.5,31.1z"/>
		<path fill="#E2E7E8" d="M107.4,194.2c0,29.5-14.2,57.6-24.4,57.6c-12.5,0-16.4-27.8-16.4-52.6c0-2.6,0.1-4.7,0.2-6.6l-35.6,59.5
			c-3.8,0-4.6-2.6-4.6-5.5c0-17.6,13.6-68.8,17.4-87c-12,2.3-39,20.2-39,32.2c-3.1,0-5-2.2-5-5.8c0-17.2,35.9-32.4,45-32.4
			c3.1,0,7.8,3.2,7.8,6c0,5-15.8,53.5-20.4,80.8c7.3-13.4,24.8-43.9,34.9-59.4c1.4-10.1,5.4-22.4,7-22.6c2.9-0.4,9,2.2,9.5,6
			c0.2,2.9-4.7,10.2-9,17.5c-0.6,7.9-0.8,14.3-0.8,19.4c0,21.1,3.8,44.8,7.6,44.8c7.9,0,18.1-32.4,18.1-51.2
			c0-22.1-4.4-26.5-4.4-27.8c0-0.8,1.2-1.7,3-1.7C101.9,165.4,107.4,171.6,107.4,194.2z"/>
		<path fill="#E2E7E8" d="M199.1,207.2c-1,2.9-28.1,43.8-34,43.8c-8.4,0-12.6-5.8-12.6-15.7c0-2.3,0.4-5.4,0.8-8.9
			c-6.5,11.9-14.4,25.7-16.1,25.7c-7.6,0-15.7-7.6-15.7-18.6c0-4.4,0.5-8.6,1.3-12.2c-5.4-1.4-9.2-5.6-9.2-15.1
			c0-11.9,13.8-27.1,35.5-27.1c23.5,0,16,19.6,14.3,26c1.9,0.8,3.4,2.2,3.4,3.4c0,1.7-7.8,15.5-7.8,31.8c0,5,3.1,6.4,5,6.4
			s32.6-43.6,32.6-43.6C198.5,203,200,204.4,199.1,207.2z M124.3,215.8c2.5-7.9,5.9-12.7,5.9-12.7c2.5,0,7.1,1.9,7.1,4.6
			c0,0.5-1.8,4-3.8,8.5c9.2-2,20.8-8.9,24.1-10.7c0.4-2.4,8.6-21.5-4.4-21.5c-18.8,0-32.4,13.4-32.4,24.5
			C120.7,212.4,122.2,214.7,124.3,215.8z M156.2,211.3c-5.2,3.2-15.7,8.8-25,10.1c-1.7,4.4-3.1,9.4-3.1,13.4
			c0,10.8,7.3,12.1,7.4,12.1C136.3,247,151.2,220.3,156.2,211.3z"/>
		<path fill="#E2E7E8" d="M274.2,206c0,2.3-29,44.9-34.6,44.9c-12.1,0-16.1-12.5-16.1-27c0-13.1,2.5-24,4.3-32.6
			c-8.4,13.4-36,59.6-36,59.8c-2.3,0-5.5-0.8-5.5-5.4c0-15.7,8.2-49,10.2-54.6c2.5,0,7.2,1.3,7.2,4.8c0,1.6-8.3,23.6-11,43.7
			c8.4-14.5,32-58.1,36.8-59.6c0.1,0,0.1,0,0.2,0c3.4,0.1,7.4,2.3,7.4,6c0,8.6-5.9,28.1-5.9,43.4c0,7.7,1.7,16.7,6.8,16.7
			c2.5,0,33-43,33-43C272.8,203,274.2,203.3,274.2,206z"/>
		<path fill="#E2E7E8" d="M348.6,206c0,2.3-29,44.9-34.6,44.9c-12.1,0-16.1-12.5-16.1-27c0-13.1,2.5-24,4.3-32.6
			c-8.4,13.4-36,59.6-36,59.8c-2.3,0-5.5-0.8-5.5-5.4c0-15.7,8.2-49,10.2-54.6c2.5,0,7.2,1.3,7.2,4.8c0,1.6-8.3,23.6-11,43.7
			c8.4-14.5,32-58.1,36.8-59.6c0.1,0,0.1,0,0.2,0c3.4,0.1,7.4,2.3,7.4,6c0,8.6-5.9,28.1-5.9,43.4c0,7.7,1.7,16.7,6.8,16.7
			c2.5,0,33-43,33-43C347.2,203,348.6,203.3,348.6,206z"/>
		<path fill="#E2E7E8" d="M417.1,207.6c-1.6,2.9-28.3,43.4-34.2,43.4c-11.4,0-14.5-10.7-13.3-23c-6.6,11.6-14,24.1-15.6,24.1
			c-8.8,0-16.9-7.7-16.9-19.3v-2.2c-5.3-3.8-8.5-11-8.5-17.2c0-16.6,13.9-34.3,32-34.3c14.8,0,17.2,10.4,16.4,21.1
			c3.2-13.3,14.2-41.3,15.8-41.3c1.7,0,5.8,1.7,5.8,4.8c0,2-9,23.2-17.2,42.5c-3,9.6-5.3,20.4-5.3,31.9c0,6.8,3.7,8.4,5.6,8.4
			s33.1-43.3,33.1-43.3C416.4,203.3,418.3,205.4,417.1,207.6z M337.7,224.4c2.2-13.2,8.5-21.4,8.5-21.4c2.8,0.1,6.5,1.8,6.5,4.4
			c0,1-6.2,11-8.4,20.9c0.5,0.1,1.1,0.1,1.6,0.1c6.1,0,17.3-9.8,25.4-18.6c1-9.7,2-25.8-7.7-25.8c-16.6,0-28.2,17-28.2,29.4
			C335.4,218.4,336.2,222,337.7,224.4z M368.4,219.5c-7,7.4-15.1,14-22.8,14c-0.7,0-1.3,0-2-0.1v1.2c0,11.6,8,12.7,8.2,12.7
			C353,247.3,361.4,232.6,368.4,219.5z"/>
		<path fill="#E2E7E8" d="M484,207.2c-1,2.9-28.1,43.8-34,43.8c-8.4,0-12.6-5.8-12.6-15.7c0-2.3,0.4-5.4,0.8-8.9
			c-6.5,11.9-14.4,25.7-16.1,25.7c-7.6,0-15.7-7.6-15.7-18.6c0-4.4,0.5-8.6,1.3-12.2c-5.4-1.4-9.2-5.6-9.2-15.1
			c0-11.9,13.8-27.1,35.5-27.1c23.5,0,16,19.6,14.3,26c1.9,0.8,3.4,2.2,3.4,3.4c0,1.7-7.8,15.5-7.8,31.8c0,5,3.1,6.4,5,6.4
			s32.6-43.6,32.6-43.6C483.4,203,484.9,204.4,484,207.2z M409.2,215.8c2.5-7.9,5.9-12.7,5.9-12.7c2.5,0,7.1,1.9,7.1,4.6
			c0,0.5-1.8,4-3.8,8.5c9.2-2,20.8-8.9,24.1-10.7c0.4-2.4,8.6-21.5-4.4-21.5c-18.8,0-32.4,13.4-32.4,24.5
			C405.6,212.4,407,214.7,409.2,215.8z M441.1,211.3c-5.2,3.2-15.7,8.8-25,10.1c-1.7,4.4-3.1,9.4-3.1,13.4c0,10.8,7.3,12.1,7.4,12.1
			C421.2,247,436.1,220.3,441.1,211.3z"/>
		<path fill="#E2E7E8" d="M525.8,207.5c-0.6,1.3-24.8,43.8-35,43.8c-10.4,0-16.9-9.5-16.9-23c0-29.3,16-69.6,22.9-71.2
			c5.2-1.2,15.1,3.7,14.4,15.6c-1.2,19.8-21.7,34.9-27.6,37.2c-1.4,7.8-2.4,15.8-2.4,23.4c0,12.6,6,13.3,9.2,13.3
			c4.4,0,33.1-43.2,33.4-43.6C524.8,203,526.8,205.4,525.8,207.5z M484.9,203.2c4.7-2.4,21-18.5,21-32.4c0-7.3-4-9.2-5.5-8.8
			C497.9,162.7,489.7,181.4,484.9,203.2z"/>
		<path fill="#E2E7E8" d="M588.2,205.9c0,2.5-26.6,46.3-51.4,46.3c-8.9,0-19.3-9.1-19.3-25.3c0-21.7,17-47.8,27-47.8
			c10.8,0,17.6,4.9,17.6,14.8c0,17.2-17.8,32-36.6,33.5c-0.1,1.1-0.1,2.2-0.1,3.2c0.1,12.1,8.3,16.7,10.9,16.7
			c20.2,0,48.7-44.3,49.2-44.3C586.7,203,588.2,204,588.2,205.9z M526.1,222.2c17-3.8,29.4-18.5,29.4-29.9c0-7-4.1-8.6-7.7-8.6
			C544.3,183.7,529.4,201.5,526.1,222.2z"/>
		<path fill="#E2E7E8" d="M106,392.8c0,3.8-3.2,5.3-6.4,5.3c-14.8,0-27.1-11.6-37.2-19.3c-6,11.3-12,17.3-16.7,17.3
			c-7.4,0-11.6-5.4-11.6-14.2c0-6.7,5.8-15.1,15.8-15.1c2.9,0,5.9,1.1,9.2,2.9c1.4-3.5,2.9-7.3,4.3-11.8l1.4-4.4
			c-5,1.1-8,1.8-9.1,1.8c-2.8,0-5.8-2.6-5.6-4.6c2.2-0.4,7.9-1.9,16.8-3.7c7.8-25.1,13.7-48,28.7-48c8.5,0,10.9,8.8,10,18.1
			c-0.5,5.4-4.6,13.9-11.4,11.2c3.7-8.4,7-24.1,2.6-24.1c-8.5,0-14.5,19.3-21.6,41.2h0.4c12-2,16.1-2,21.2-2.2c5.3-0.1,5.8,3,5.8,4
			c0,0-9.5,1.3-25.4,4.1l-4.1,0.7c-0.8,2.6-1.7,5.3-2.6,7.9c-1.7,4.9-3.5,9.4-5.3,13.4C76.1,380.4,89.6,391.3,106,392.8z M56.9,375
			c-2.8-1.7-5.4-2.8-7.8-2.8c-4.6,0-9.6,5.3-9.6,11.8c0,7.3,3.7,7.1,6,7.1C47.3,391.1,51.5,386.9,56.9,375z"/>
		<path fill="#E2E7E8" d="M194.8,351.6c-1.7,2.9-12.7,13.7-32.4,18.7c-7.8,14-19.4,25.8-22.8,25.8c-7.6,0-15.7-7.7-15.7-19.7
			c0-2.8,0.2-5.3,0.6-7.7c-6.1-3.6-9.8-9.5-9.8-16.7c0-15.1,16.2-29,34.3-29c14.9,0,20.8,10.4,20.8,23.9c0,5.2-1.4,10.8-3.8,16.3
			c17.2-6.2,28.2-16.2,28.2-16.2C194.8,347,196.4,349,194.8,351.6z M125.5,363.8c2.6-10.4,7.6-16.8,7.6-16.8c2.5,0,6.6,1.9,6.6,4.6
			c0,0.8-4.1,7.9-6.8,15.6c2.2,0.5,4.4,0.7,7,0.7c6,0,11.6-0.7,16.8-1.9c4-7.9,7.1-16.6,7.1-24c0-6-1.7-13.6-11.4-13.6
			c-13.6,0-30.7,11-30.7,26.2C121.5,358.7,122.9,361.7,125.5,363.8z M153.2,372.1c-3.8,0.6-7.9,0.8-12.2,0.8c-3.4,0-6.6-0.5-9.6-1.2
			c-0.6,2.4-1,4.7-1,6.8c0,11.6,7.6,12.7,8.6,12.7C139.7,391.4,146.8,383,153.2,372.1z"/>
		<path fill="#E2E7E8" d="M256.1,351.6c-1.7,2.9-12.7,13.7-32.4,18.7c-7.8,14-19.4,25.8-22.8,25.8c-7.6,0-15.7-7.7-15.7-19.7
			c0-2.8,0.2-5.3,0.6-7.7c-6.1-3.6-9.8-9.5-9.8-16.7c0-15.1,16.2-29,34.3-29c14.9,0,20.8,10.4,20.8,23.9c0,5.2-1.4,10.8-3.8,16.3
			c17.2-6.2,28.2-16.2,28.2-16.2C256.1,347,257.7,349,256.1,351.6z M186.8,363.8c2.6-10.4,7.6-16.8,7.6-16.8c2.5,0,6.6,1.9,6.6,4.6
			c0,0.8-4.1,7.9-6.8,15.6c2.2,0.5,4.4,0.7,7,0.7c6,0,11.6-0.7,16.8-1.9c4-7.9,7.1-16.6,7.1-24c0-6-1.7-13.6-11.4-13.6
			c-13.6,0-30.7,11-30.7,26.2C182.8,358.7,184.3,361.7,186.8,363.8z M214.5,372.1c-3.8,0.6-7.9,0.8-12.2,0.8c-3.4,0-6.6-0.5-9.6-1.2
			c-0.6,2.4-1,4.7-1,6.8c0,11.6,7.6,12.7,8.6,12.7C201.1,391.4,208.1,383,214.5,372.1z"/>
		<path fill="#E2E7E8" d="M324.3,349.2c0,3.2-11.2,17.9-24.5,17.9c-4.3,0-8.3-1.7-11.8-4.4c-3.2,18.5-17.8,33.5-24.5,33.5
			c-7.4,0-16.8-7-16.8-25.9c0-24.6,15.1-69.1,22.1-69.1c5.3,0,12.8,5.2,12.8,14.3c0,15-14.8,32-25,37c-1.6,8.3-2.6,16.9-2.6,25
			c0,13,7.8,14,7.8,14c8.6,0,18.1-21.8,20.8-34.4c-3.8-5.3-6.2-11.8-6.2-17c0-1.3,3.6-4.6,8.2-4.6c3.8,0,4.9,12.7,4.4,20.2
			c1.9,3.8,5.5,7.2,12.4,7.2c7.9,0,20.4-15.6,20.4-15.6C323.7,347,324.3,348.8,324.3,349.2z M258.3,344.8
			c7.9-5.8,17.9-20.3,17.9-30.4c0-6-2.5-8.2-4.1-8.2C270.7,306.2,263.2,323.8,258.3,344.8z"/>
		<path fill="#E2E7E8" d="M389.8,351.2c-1,2.9-28,43.8-33.8,43.8c-8.4,0-12.6-5.8-12.6-15.7c0-3.7,0.4-7.8,1-11.8
			c-8.3,13.9-16.7,27.7-17.9,27.7c-6.1,0-13.8-8.2-13.8-23.6c0-14.6,9.8-42.1,10.6-42.1c2,0,7.2,1.4,7.2,4.9
			c0,3.1-10.7,27.1-10.7,40.1c0,11.5,5,15.2,5.4,14.5l22.6-37.6c0.4-1.7,0.8-3.2,1.3-4.8c1.8-7.4,4.6-16.2,6.2-16
			c2.6,0.4,7.3,3.7,6.6,8.4c-0.6,3.5-4,9.4-7.1,14.2c-2.2,8.4-4.6,19.6-4.6,31c0,4.7,2.8,6.4,4.7,6.4s32.4-43.6,32.4-43.6
			C388.3,347,390.8,348.5,389.8,351.2z"/>
		<path fill="#E2E7E8" d="M442.1,387.4c-2,4.4-7.8,8.5-16.1,8.5c-14.4,0-21.4-8.3-30.5-11c-0.4,0.2-0.6,0.6-1,0.8h-0.1
			c-4.3,4.7-8.3,9.4-9.1,9.4c-2.9,0-6.6-3.5-6.6-7.9c0-2.6,5.3-8.4,15.5-8.8c8-8.4,18.6-20,26-28.4c-10.4,2-20.3,1.2-27.2-3.5
			l-8.2,11.8c-1,0-2.5-4.6,0.2-8.6c1.4-2.2,2.9-4.3,4.1-6.2c-4-4.2-6.4-10.3-6.4-18.5c0-10.2,7.8-16.3,13.2-16.3c4.7,0,9,5,9,10.4
			c0,7.9-2.6,13.4-8.2,21.8c7.2,4.9,18,5.5,27.1,3c4.6-6.5,12.8-17.6,14.6-16.6c2.4,1.4,5.5,6.2,3.1,10.3
			c-1.8,3.1-7.2,7.2-11.9,10.6c-7.1,8.2-19.3,22-29.5,32c7.9,2.6,16,9.6,25,9.6c8,0,13.4-4.3,15.2-7
			C442.9,384.8,442.9,385.8,442.1,387.4z M392.9,337.2c4.4-7.3,7-13.4,7-19.1c0-3.5-0.7-4.4-2.6-4.4c-4.1,0-8,5.3-8,12.1
			C389.2,330.5,390.7,334.3,392.9,337.2z"/>
		<path fill="#E2E7E8" d="M498.4,339.4c-0.6,3.8-4.6,10.3-7.8,15.4c-0.7,9.6-2.5,31.3-6.2,45.7s-14.9,27.1-27.8,27.1
			c-16.7,0-22.6-11.8-22.6-24.5c0-8.4,6.2-18,6.8-18c2.2,0,6.2,1.6,6.2,4.9c0,1.9-6.1,8-6.1,17.5c0,6,3.2,15.4,12,15.4
			c11.4,0,20-9,23.8-21.8c3.4-11.6,6.1-29.2,7.3-38.3c-9.1,15.5-19.3,32.5-20.6,32.5c-6.1,0-13.8-8.2-13.8-23.6
			c0-14.6,9.8-42.1,10.6-42.1c2,0,7.2,1.4,7.2,4.9c0,3.1-10.7,27.1-10.7,40.1c0,11.5,5,15.2,5.4,14.5l22.3-37.2
			c1.7-7.6,5.3-21.1,7.4-20.9C494.5,331.3,499.1,334.7,498.4,339.4z"/>
		<path fill="#E2E7E8" d="M501.4,394.3c0-2.5,3.6-10.4,6.6-10.4c2.2,0,4.9,3.1,4.9,5.4c0,5.3-4.6,10.9-7.1,10.9
			C503.8,400.2,501.4,397.6,501.4,394.3z M506,373.3c0-40,17.4-62.9,18.2-62.9c1.8,0,6,1.9,6,5.5c0,4.3-17.2,22.4-19.2,57.8
			c-0.1,2.8-1.7,4.7-4.2,4.7C506.3,378.5,506,374.6,506,373.3z"/>
	</g>
</g>
<g id="Layer_2">
</g>
</svg>
