<?xml version="1.0" encoding="utf-8"?>
<!-- Generator: Adobe Illustrator 19.2.1, SVG Export Plug-In . SVG Version: 6.00 Build 0)  -->
<svg version="1.1" xmlns="http://www.w3.org/2000/svg" xmlns:xlink="http://www.w3.org/1999/xlink" x="0px" y="0px"
	 viewBox="0 0 1564.5 284.9" enable-background="new 0 0 1564.5 284.9" xml:space="preserve">
<g id="Layer_1">
	<g>
		<g>
			<path fill="#474A59" d="M50.4,57.8v14.3H2l36.1-52H13.8L6.1,30.4V14.5l7,1.6h37L14,68.1h28.6L50.4,57.8z M23.9,4.8
				c0-2.6,2.2-4.8,4.8-4.8c2.6,0,4.8,2.2,4.8,4.8c0,2.6-2.2,4.8-4.8,4.8C26.1,9.6,23.9,7.4,23.9,4.8z"/>
			<path fill="#474A59" d="M90,61.7l0.4,0.4c-2.8,8.4-9,10.8-14.5,10.8c-10.1,0-18.3-8.3-18.3-20.3c0-12.7,9.2-19.7,18.8-19.7
				c7.5,0,14.1,4.3,14.8,14.8H64.9c-0.1,0.8-0.1,1.6-0.1,2.5c0,9.3,4.6,15.9,13.5,15.9C81.5,66.1,85.4,65.2,90,61.7z M65.4,44.9
				h17.4c0-5-2.1-9-7.5-9C70.5,35.8,66.8,39.1,65.4,44.9z"/>
			<path fill="#474A59" d="M136.8,51.9c0,13.8-10.2,21-20.7,21c-3,0-7.7-0.6-10.8-2.1l-4.9,2.1V19.4l-5.6-4.2l12.8-5.6v23.1
				l-1.2,6.8l0.4,0.4c2.3-3.6,7.1-7.1,13.2-7.1C128.2,32.9,136.8,39.2,136.8,51.9z M128.8,53.7c0-9.2-4.3-14.8-11.4-14.8
				c-3.4,0-7.1,1.4-9.8,3.9v19.5c0,4.8,4.5,7.4,9,7.4C123.7,69.7,128.8,63.7,128.8,53.7z"/>
			<path fill="#474A59" d="M155.8,84.9l11,6.4h-19.4l11.3-23.6l-15.9-29.9l-5.5-4.1h20.6l-6.4,4.8l11.1,21.2l9.1-21.2l-7-4.8h18.2
				l-6.4,4.8L155.8,84.9z"/>
			<path fill="#474A59" d="M270.4,72.1h-20l6.4-4.8V47.6c0-7-2.5-8.7-7.1-8.7c-2.6,0-5.8,0.6-10.1,3.9v24.5l6.4,4.8h-20l6.4-4.8
				V47.6c0-7-2.5-8.7-7.1-8.7c-2.6,0-5.8,0.6-10.1,3.9v24.5l6.4,4.8h-20l6.4-4.8V42.6l-5.6-4.2l12.8-5.6l-1.2,6.7l0.4,0.4
				c3.4-3.8,8.2-7.1,14.7-7.1c4.5,0,8.6,1.7,9.9,6.8c3.4-3.6,8.2-6.8,14.5-6.8c5.5,0,10.5,2.6,10.5,11.1v23.3L270.4,72.1z"/>
			<path fill="#474A59" d="M275.6,52.9c0-12.4,8.9-20,19.6-20c10.7,0,19.6,7.6,19.6,20c0,12.4-8.9,20-19.6,20
				C284.5,72.9,275.6,65.3,275.6,52.9z M306.2,54.6c0-10.8-5.5-18.6-12.3-18.6c-7.3,0-9.9,7.1-9.9,15c0,10.8,5.7,18.6,12.5,18.6
				C303.8,69.7,306.2,62.6,306.2,54.6z M292.1,26.1l7.2-15.6h8.8l-15.6,16L292.1,26.1z"/>
			<path fill="#474A59" d="M354.4,61.7l0.4,0.4c-2.8,8.4-9,10.8-14.5,10.8c-10.1,0-18.3-8.4-18.3-20.2c0-13.7,11-19.8,19.8-19.8
				c5.6,0,9.8,1.6,13,4l-5,6.7l-8.8-7.5c-6.9,0-11.8,5.1-11.8,14.3c0,8.9,4.6,15.7,13.5,15.7C345.9,66.1,349.8,65.2,354.4,61.7z"/>
			<path fill="#474A59" d="M377.6,52.9c0-12.4,8.9-20,19.6-20c10.7,0,19.6,7.6,19.6,20c0,12.4-8.9,20-19.6,20
				C386.5,72.9,377.6,65.3,377.6,52.9z M408.2,54.6c0-10.8-5.5-18.6-12.3-18.6c-7.3,0-9.9,7.1-9.9,15c0,10.8,5.7,18.6,12.5,18.6
				C405.8,69.7,408.2,62.6,408.2,54.6z"/>
			<path fill="#474A59" d="M466,69l-9.1,3.8l-2.5-7.1H454c-2.3,3.6-7.1,7.1-13.2,7.1c-8.2,0-16.8-6.3-16.8-19
				c0-13.8,10.2-21,20.7-21c2.2,0,5.6,0.3,8.5,1.2V19.4l-5.6-4.2l12.8-5.6v55.2L466,69z M453.2,63V43.4c0-4.8-4.5-7.4-9-7.4
				c-7,0-12.2,6-12.2,16c0,9.2,4.3,14.8,11.4,14.8C446.8,66.9,450.5,65.5,453.2,63z"/>
			<path fill="#474A59" d="M500.4,62.5l0.4,0.4c-2,7.2-6.8,10-11.9,10c-7,0-11.4-5.4-11.4-11.6V38.5h-8.7l15.9-11.9v7.1h16.8
				l-2.5,4.8h-14.3v19.6c0,3.7,0.9,8,6.8,8C494.4,66.1,497.1,65,500.4,62.5z"/>
			<path fill="#474A59" d="M565.1,38.5l-13.7,36H551l-12.6-27l-12.7,27h-0.5l-16.7-37.1l-5-3.7h20.3l-6.4,4.8l10,22.4l8.6-18.6
				l-4-8.6h12.7l-2.2,4.8l9.9,21.6l7.8-21.6l-7-4.8h18.2L565.1,38.5z"/>
			<path fill="#474A59" d="M571.9,52.9c0-12.4,8.9-20,19.6-20c10.7,0,19.6,7.6,19.6,20c0,12.4-8.9,20-19.6,20
				C580.8,72.9,571.9,65.3,571.9,52.9z M602.6,54.6c0-10.8-5.5-18.6-12.3-18.6c-7.3,0-9.9,7.1-9.9,15c0,10.8,5.7,18.6,12.5,18.6
				C600.1,69.7,602.6,62.6,602.6,54.6z"/>
			<path fill="#474A59" d="M630.3,43.6v23.7l9.6,4.8h-23.2l6.4-4.8V42.6l-5.6-4.2l12.8-5.6l-1.5,8.6l0.4,0.2
				c2.9-5.3,8.7-9.5,15.9-7.9l-2.8,7.8C637,39.9,632.7,41.3,630.3,43.6z"/>
			<path fill="#474A59" d="M677,68.5l7.8-10.3v13.9h-37.6l26.5-34.8h-15.4l-7.8,10.3V32.1l7,1.6h27.7l-26.4,34.8H677z"/>
			<path fill="#474A59" d="M704.2,84.9l11,6.4h-19.4L707,67.7L691,37.8l-5.5-4.1h20.6l-6.4,4.8l11.1,21.2l9.1-21.2l-7-4.8h18.2
				l-6.4,4.8L704.2,84.9z"/>
			<path fill="#474A59" d="M763.9,61.7l0.4,0.4c-2.8,8.4-9,10.8-14.5,10.8c-10.1,0-18.3-8.4-18.3-20.2c0-13.7,11-19.8,19.8-19.8
				c5.6,0,9.8,1.6,13,4l-5,6.7l-8.8-7.5c-6.9,0-11.8,5.1-11.8,14.3c0,8.9,4.6,15.7,13.5,15.7C755.4,66.1,759.3,65.2,763.9,61.7z
				 M747.2,26.5l-0.4-0.4l7.2-15.6h8.8L747.2,26.5z"/>
			<path fill="#474A59" d="M845.1,38.5l-13.7,36H831l-12.6-27l-12.7,27h-0.5l-16.7-37.1l-5-3.7h20.3l-6.4,4.8l10,22.4l8.6-18.6
				l-4-8.6h12.7l-2.2,4.8l9.9,21.6l7.8-21.6l-7-4.8h18.2L845.1,38.5z"/>
			<path fill="#474A59" d="M873.5,72.1h-20l6.4-4.8V42.6l-5.6-4.2l12.8-5.6v34.4L873.5,72.1z M858.3,20.1c0-2.6,2.2-4.8,4.8-4.8
				c2.6,0,4.8,2.2,4.8,4.8c0,2.6-2.2,4.8-4.8,4.8C860.5,24.9,858.3,22.7,858.3,20.1z"/>
			<path fill="#474A59" d="M911.1,61.7l0.4,0.4c-2.8,8.4-9,10.8-14.5,10.8c-10.1,0-18.3-8.3-18.3-20.3c0-12.7,9.2-19.7,18.8-19.7
				c7.5,0,14.1,4.3,14.8,14.8H886c-0.1,0.8-0.1,1.6-0.1,2.5c0,9.3,4.6,15.9,13.5,15.9C902.6,66.1,906.5,65.2,911.1,61.7z
				 M886.5,44.9h17.4c0-5-2.1-9-7.5-9C891.6,35.8,887.9,39.1,886.5,44.9z"/>
			<path fill="#474A59" d="M931.1,43.6v23.7l9.6,4.8h-23.2l6.4-4.8V42.6l-5.6-4.2l12.8-5.6l-1.5,8.6l0.4,0.2
				c2.9-5.3,8.7-9.5,15.9-7.9l-2.8,7.8C937.8,39.9,933.5,41.3,931.1,43.6z"/>
			<path fill="#474A59" d="M994.7,72.1h-20l6.4-4.8V47.6c0-7-3.3-8.7-7.9-8.7c-2.6,0-6.6,0.6-10.9,3.9v24.5l6.4,4.8h-20l6.4-4.8
				V42.6l-5.6-4.2l12.8-5.6l-1.2,6.7l0.4,0.4c4-4,8.6-7.1,15.5-7.1c5.5,0,11.3,2.6,11.3,11.1v23.3L994.7,72.1z"/>
			<path fill="#474A59" d="M1018.3,72.1h-20l6.4-4.8V42.6l-5.6-4.2l12.8-5.6v34.4L1018.3,72.1z M1003.1,20.1c0-2.6,2.2-4.8,4.8-4.8
				c2.6,0,4.8,2.2,4.8,4.8c0,2.6-2.2,4.8-4.8,4.8C1005.3,24.9,1003.1,22.7,1003.1,20.1z"/>
			<path fill="#474A59" d="M1055.9,61.7l0.4,0.4c-2.8,8.4-9,10.8-14.5,10.8c-10.1,0-18.3-8.3-18.3-20.3c0-12.7,9.2-19.7,18.8-19.7
				c7.5,0,14.1,4.3,14.8,14.8h-26.3c-0.1,0.8-0.1,1.6-0.1,2.5c0,9.3,4.6,15.9,13.5,15.9C1047.4,66.1,1051.3,65.2,1055.9,61.7z
				 M1031.3,44.9h17.4c0-5-2.1-9-7.5-9C1036.4,35.8,1032.7,39.1,1031.3,44.9z"/>
			<path fill="#474A59" d="M1079.9,38.5l12.8-5.6v40c-0.1,9.8-3.7,15.8-12.4,20l-0.4-0.4c4.2-5.4,5.6-11.3,5.6-20.4V42.6
				L1079.9,38.5z M1083.9,20.1c0-2.6,2.2-4.8,4.8-4.8c2.6,0,4.8,2.2,4.8,4.8c0,2.6-2.2,4.8-4.8,4.8
				C1086.1,24.9,1083.9,22.7,1083.9,20.1z"/>
			<path fill="#474A59" d="M1135.5,61.7l0.4,0.4c-2.8,8.4-9,10.8-14.5,10.8c-10.1,0-18.3-8.3-18.3-20.3c0-12.7,9.2-19.7,18.8-19.7
				c7.5,0,14.1,4.3,14.8,14.8h-26.3c-0.1,0.8-0.1,1.6-0.1,2.5c0,9.3,4.6,15.9,13.5,15.9C1127,66.1,1130.9,65.2,1135.5,61.7z
				 M1110.9,44.9h17.4c0-5-2.1-9-7.5-9C1116,35.8,1112.3,39.1,1110.9,44.9z"/>
			<path fill="#474A59" d="M1181.1,39.7l-9.7-3.3c2.8,2.2,4.6,5.4,4.6,9.3c0,8-7.4,12.8-15.4,12.8c-2.6,0-5-0.5-7.3-1.4
				c-2.2,1.8-3.2,3.8-3.2,5.7c0,1.9,1.2,3.4,3.5,3.4h20.7c4,2,6.8,6.1,6.8,11.1c0,8.2-7.4,14.9-21.9,14.9
				c-11.6,0-16.9-4.2-16.9-10.2c0-3.2,1.6-6.6,6.3-9.1c-2.8-1.6-4.3-4.5-4.3-7.7c0-4,2.4-7.1,6.2-9.4c-3.3-2.2-5.4-5.6-5.4-9.9
				c0-8,7.4-12.8,15.4-12.8c2.3,0,4.6,0.4,6.7,1.2l13.8-0.8V39.7z M1152,72.9c-1.4,1.8-2.8,4.1-2.8,7.2c0,5.3,4.2,8.8,11.6,8.8
				c9.1,0,12.7-4.2,12.7-9.6c0-4-2-6.4-6.4-6.4H1152z M1168.4,46.3c0-5.8-3.5-10.5-8.5-10.5c-4.6,0-7.2,4.2-7.2,9.2
				c0,5.8,3.5,10.5,8.5,10.5C1165.8,55.5,1168.4,51.4,1168.4,46.3z"/>
			<path fill="#474A59" d="M1185.5,52.9c0-12.4,8.9-20,19.6-20c10.7,0,19.6,7.6,19.6,20c0,12.4-8.9,20-19.6,20
				C1194.4,72.9,1185.5,65.3,1185.5,52.9z M1216.1,54.6c0-10.8-5.5-18.6-12.3-18.6c-7.3,0-9.9,7.1-9.9,15c0,10.8,5.7,18.6,12.5,18.6
				C1213.7,69.7,1216.1,62.6,1216.1,54.6z"/>
			<path fill="#474A59" d="M1248.7,52.9c0-12.4,8.9-20,19.6-20c10.7,0,19.6,7.6,19.6,20c0,12.4-8.9,20-19.6,20
				C1257.6,72.9,1248.7,65.3,1248.7,52.9z M1279.3,54.6c0-10.8-5.5-18.6-12.3-18.6c-7.3,0-9.9,7.1-9.9,15c0,10.8,5.7,18.6,12.5,18.6
				C1276.9,69.7,1279.3,62.6,1279.3,54.6z"/>
			<path fill="#474A59" d="M1333.9,51.9c0,13.8-10.2,21-20.7,21c-3,0-7.7-0.6-10.8-2.1l-4.9,2.1V19.4l-5.6-4.2l12.8-5.6v23.1
				l-1.2,6.8l0.4,0.4c2.3-3.6,7.1-7.1,13.2-7.1C1325.3,32.9,1333.9,39.2,1333.9,51.9z M1325.9,53.7c0-9.2-4.3-14.8-11.4-14.8
				c-3.4,0-7.1,1.4-9.8,3.9v19.5c0,4.8,4.5,7.4,9,7.4C1320.8,69.7,1325.9,63.7,1325.9,53.7z"/>
			<path fill="#474A59" d="M1353.1,43.6v23.7l9.6,4.8h-23.2l6.4-4.8V42.6l-5.6-4.2l12.8-5.6l-1.5,8.6l0.4,0.2
				c2.9-5.3,8.7-9.5,15.9-7.9l-2.8,7.8C1359.8,39.9,1355.5,41.3,1353.1,43.6z"/>
			<path fill="#474A59" d="M1409.9,66.1c-2,5.3-4.6,6.8-7.9,6.8c-4,0-6.6-2.2-7.4-5.9h-0.4c-2.6,3.8-6.5,5.9-11.4,5.9
				c-6.4,0-10.8-3.5-10.8-9.4c0-4.2,2.3-7.5,5.4-9.2h16.4v-6.7c0-6.2-2.5-8.7-8-8.7c-3.8,0-7.7,1.1-11.8,4l-0.4-0.4
				c3.8-7,10.4-9.6,16.2-9.6c7.2,0,11.2,4.2,11.2,11.9v18.1c0,3.8,1.7,4.6,3.8,4.6c1.5,0,2.8-0.4,4.7-1.8L1409.9,66.1z M1393.7,63.8
				v-6.6h-12.5c-1.1,1.4-1.8,3-1.8,5.3c0,4.3,2.8,5.7,5.6,5.7C1387.8,68.1,1390.6,66.7,1393.7,63.8z"/>
			<path fill="#474A59" d="M1441.7,68.5l7.8-10.3v13.9h-37.6l26.5-34.8h-15.4l-7.8,10.3V32.1l7,1.6h27.7l-26.4,34.8H1441.7z"/>
			<path fill="#474A59" d="M1466.3,70.1c0,7.3-6.2,12.4-12.6,14.8l-0.2-0.4c4.3-2.8,6.2-6.3,6.2-9.5c0-2.8-1.4-5.4-3.8-6.9
				c0-2.4,1.9-4.8,5-4.8C1463.8,63.3,1466.3,65,1466.3,70.1z"/>
			<path fill="#474A59" d="M2.8,134.5l12.8-5.6v40c-0.1,9.8-3.7,15.8-12.4,20l-0.4-0.4c4.2-5.4,5.6-11.3,5.6-20.4v-29.4L2.8,134.5z
				 M6.8,116.1c0-2.6,2.2-4.8,4.8-4.8c2.6,0,4.8,2.2,4.8,4.8c0,2.6-2.2,4.8-4.8,4.8C9,120.9,6.8,118.7,6.8,116.1z"/>
			<path fill="#474A59" d="M58.4,157.7l0.4,0.4c-2.8,8.4-9,10.8-14.5,10.8c-10.1,0-18.3-8.3-18.3-20.3c0-12.7,9.2-19.7,18.8-19.7
				c7.5,0,14.1,4.3,14.8,14.8H33.3c-0.1,0.8-0.1,1.6-0.1,2.5c0,9.3,4.6,15.9,13.5,15.9C49.9,162.1,53.8,161.2,58.4,157.7z
				 M33.8,140.9h17.4c0-5-2.1-9-7.5-9C38.9,131.8,35.2,135.1,33.8,140.9z"/>
			<path fill="#474A59" d="M95.2,157.1c0,7.5-7.1,11.8-14.2,11.8c-3.1,0-6.2-0.8-8.9-1.9l-5,1.9v-13.4l6.3,8.3
				c2.4,1.2,4.8,1.8,7,1.8c4.6,0,7-2.7,7-6.1c0-9.9-20.3-7.3-20.3-19.7c0-7.7,7.8-11,14.4-11c2.8,0,5.4,0.6,7.8,1.6l4.2-1.6v13.4
				l-7-9.4c-1.4-0.5-3-0.8-4.6-0.8c-5.3,0-7.5,3-7.5,5.9C74.4,147,95.2,144.2,95.2,157.1z"/>
			<path fill="#474A59" d="M131.6,158.5l0.4,0.4c-2,7.2-6.8,10-11.9,10c-7,0-11.4-5.4-11.4-11.6v-22.8H100l15.9-11.9v7.1h16.8
				l-2.5,4.8h-14.3v19.6c0,3.7,0.9,8,6.8,8C125.6,162.1,128.3,161,131.6,158.5z"/>
			<path fill="#474A59" d="M155.1,148.9c0-12.4,8.9-20,19.6-20c10.7,0,19.6,7.6,19.6,20c0,12.4-8.9,20-19.6,20
				C164,168.9,155.1,161.3,155.1,148.9z M185.8,150.6c0-10.8-5.5-18.6-12.3-18.6c-7.3,0-9.9,7.1-9.9,15c0,10.8,5.7,18.6,12.5,18.6
				C183.3,165.7,185.8,158.6,185.8,150.6z"/>
			<path fill="#474A59" d="M233.9,157.7l0.4,0.4c-2.8,8.4-9,10.8-14.5,10.8c-10.1,0-18.3-8.4-18.3-20.2c0-13.7,11-19.8,19.8-19.8
				c5.6,0,9.8,1.6,13,4l-5,6.7l-8.8-7.5c-6.9,0-11.8,5.1-11.8,14.3c0,8.9,4.6,15.7,13.5,15.7C225.4,162.1,229.3,161.2,233.9,157.7z"
				/>
			<path fill="#474A59" d="M267.8,164.5l7.8-10.3v13.9h-37.6l26.5-34.8H249l-7.8,10.3v-15.5l7,1.6h27.7l-26.4,34.8H267.8z"/>
			<path fill="#474A59" d="M295,180.9l11,6.4h-19.4l11.3-23.6l-15.9-29.9l-5.5-4.1h20.6l-6.4,4.8l11.1,21.2l9.1-21.2l-7-4.8h18.2
				l-6.4,4.8L295,180.9z"/>
			<path fill="#474A59" d="M381.9,134.5l-13.7,36h-0.5l-12.6-27l-12.7,27H342l-16.7-37.1l-5-3.7h20.3l-6.4,4.8l10,22.4l8.6-18.6
				l-4-8.6h12.7l-2.2,4.8l9.9,21.6l7.8-21.6l-7-4.8h18.2L381.9,134.5z"/>
			<path fill="#474A59" d="M410.3,168.1h-20l6.4-4.8v-24.6l-5.6-4.2l12.8-5.6v34.4L410.3,168.1z M395.1,116.1c0-2.6,2.2-4.8,4.8-4.8
				c2.6,0,4.8,2.2,4.8,4.8c0,2.6-2.2,4.8-4.8,4.8C397.3,120.9,395.1,118.7,395.1,116.1z"/>
			<path fill="#474A59" d="M444.3,157.1c0,7.5-7.1,11.8-14.2,11.8c-3.1,0-6.2-0.8-8.9-1.9l-5,1.9v-13.4l6.3,8.3
				c2.4,1.2,4.8,1.8,7,1.8c4.6,0,7-2.7,7-6.1c0-9.9-20.3-7.3-20.3-19.7c0-7.7,7.8-11,14.4-11c2.8,0,5.4,0.6,7.8,1.6l4.2-1.6v13.4
				l-7-9.4c-1.4-0.5-3-0.8-4.6-0.8c-5.3,0-7.5,3-7.5,5.9C423.5,147,444.3,144.2,444.3,157.1z"/>
			<path fill="#474A59" d="M480.7,158.5l0.4,0.4c-2,7.2-6.8,10-11.9,10c-7,0-11.4-5.4-11.4-11.6v-22.8h-8.7l15.9-11.9v7.1h16.8
				l-2.5,4.8H465v19.6c0,3.7,0.9,8,6.8,8C474.7,162.1,477.4,161,480.7,158.5z"/>
			<path fill="#474A59" d="M519.8,157.7l0.4,0.4c-2.8,8.4-9,10.8-14.5,10.8c-10.1,0-18.3-8.3-18.3-20.3c0-12.7,9.2-19.7,18.8-19.7
				c7.5,0,14.1,4.3,14.8,14.8h-26.3c-0.1,0.8-0.1,1.6-0.1,2.5c0,9.3,4.6,15.9,13.5,15.9C511.4,162.1,515.2,161.2,519.8,157.7z
				 M495.2,140.9h17.4c0-5-2.1-9-7.5-9C500.3,131.8,496.6,135.1,495.2,140.9z"/>
			<path fill="#474A59" d="M538.6,166.1c0,7.3-6.2,12.4-12.6,14.8l-0.2-0.4c4.3-2.8,6.2-6.3,6.2-9.5c0-2.8-1.4-5.4-3.8-6.9
				c0-2.4,1.9-4.8,5-4.8C536.2,159.3,538.6,161,538.6,166.1z"/>
			<path fill="#474A59" d="M590.5,164.5l7.8-10.3v13.9h-37.6l26.5-34.8h-15.4l-7.8,10.3v-15.5l7,1.6h27.7l-26.4,34.8H590.5z
				 M577,116c0-2.6,2.2-4.8,4.8-4.8s4.8,2.2,4.8,4.8c0,2.6-2.2,4.8-4.8,4.8S577,118.6,577,116z"/>
			<path fill="#474A59" d="M636.6,157.7l0.4,0.4c-2.8,8.4-9,10.8-14.5,10.8c-10.1,0-18.3-8.3-18.3-20.3c0-12.7,9.2-19.7,18.8-19.7
				c7.5,0,14.1,4.3,14.8,14.8h-26.3c-0.1,0.8-0.1,1.6-0.1,2.5c0,9.3,4.6,15.9,13.5,15.9C628.2,162.1,632,161.2,636.6,157.7z
				 M612,140.9h17.4c0-5-2.1-9-7.5-9C617.1,131.8,613.4,135.1,612,140.9z"/>
			<path fill="#474A59" d="M699.8,162.1c-2,5.3-4.6,6.8-7.9,6.8c-4,0-6.6-2.2-7.4-5.9h-0.4c-2.6,3.8-6.5,5.9-11.4,5.9
				c-6.4,0-10.8-3.5-10.8-9.4c0-4.2,2.3-7.5,5.4-9.2h16.4v-6.7c0-6.2-2.5-8.7-8-8.7c-3.8,0-7.7,1.1-11.8,4l-0.4-0.4
				c3.8-7,10.4-9.6,16.2-9.6c7.2,0,11.2,4.2,11.2,11.9v18.1c0,3.8,1.7,4.6,3.8,4.6c1.5,0,2.8-0.4,4.7-1.8L699.8,162.1z M683.7,159.8
				v-6.6h-12.5c-1.1,1.4-1.8,3-1.8,5.3c0,4.3,2.8,5.7,5.6,5.7C677.8,164.1,680.6,162.7,683.7,159.8z"/>
			<path fill="#474A59" d="M716.2,139.6v23.7l9.6,4.8h-23.2l6.4-4.8v-24.6l-5.6-4.2l12.8-5.6l-1.5,8.6l0.4,0.2
				c2.9-5.3,8.7-9.5,15.9-7.9l-2.8,7.8C723,135.9,718.6,137.3,716.2,139.6z"/>
			<path fill="#474A59" d="M763.8,158.5l0.4,0.4c-2,7.2-6.8,10-11.9,10c-7,0-11.4-5.4-11.4-11.6v-22.8h-8.7l15.9-11.9v7.1H765
				l-2.5,4.8h-14.3v19.6c0,3.7,0.9,8,6.8,8C757.8,162.1,760.6,161,763.8,158.5z"/>
			<path fill="#474A59" d="M785.6,180.9l11,6.4h-19.4l11.3-23.6l-15.9-29.9l-5.5-4.1h20.6l-6.4,4.8l11.1,21.2l9.1-21.2l-7-4.8h18.2
				l-6.4,4.8L785.6,180.9z"/>
			<path fill="#474A59" d="M844.9,157.1c0,7.5-7.1,11.8-14.2,11.8c-3.1,0-6.2-0.8-8.9-1.9l-5,1.9v-13.4l6.3,8.3
				c2.4,1.2,4.8,1.8,7,1.8c4.6,0,7-2.7,7-6.1c0-9.9-20.3-7.3-20.3-19.7c0-7.7,7.8-11,14.4-11c2.8,0,5.4,0.6,7.8,1.6l4.2-1.6v13.4
				l-7-9.4c-1.4-0.5-3-0.8-4.6-0.8c-5.3,0-7.5,3-7.5,5.9C824.1,147,844.9,144.2,844.9,157.1z"/>
			<path fill="#474A59" d="M881.3,158.5l0.4,0.4c-2,7.2-6.8,10-11.9,10c-7,0-11.4-5.4-11.4-11.6v-22.8h-8.7l15.9-11.9v7.1h16.8
				l-2.5,4.8h-14.3v19.6c0,3.7,0.9,8,6.8,8C875.3,162.1,878.1,161,881.3,158.5z"/>
			<path fill="#474A59" d="M926.5,162.1c-2,5.3-4.6,6.8-7.9,6.8c-4,0-6.6-2.2-7.4-5.9h-0.4c-2.6,3.8-6.5,5.9-11.4,5.9
				c-6.4,0-10.8-3.5-10.8-9.4c0-4.2,2.3-7.5,5.4-9.2h16.4v-6.7c0-6.2-2.5-8.7-8-8.7c-3.8,0-7.7,1.1-11.8,4l-0.4-0.4
				c3.8-7,10.4-9.6,16.2-9.6c7.2,0,11.2,4.2,11.2,11.9v18.1c0,3.8,1.7,4.6,3.8,4.6c1.5,0,2.8-0.4,4.7-1.8L926.5,162.1z M910.3,159.8
				v-6.6h-12.5c-1.1,1.4-1.8,3-1.8,5.3c0,4.3,2.8,5.7,5.6,5.7C904.4,164.1,907.2,162.7,910.3,159.8z"/>
			<path fill="#474A59" d="M1014.9,168.1h-20l6.4-4.8v-19.7c0-7-2.5-8.7-7.1-8.7c-2.6,0-5.8,0.6-10.1,3.9v24.5l6.4,4.8h-20l6.4-4.8
				v-19.7c0-7-2.5-8.7-7.1-8.7c-2.6,0-5.8,0.6-10.1,3.9v24.5l6.4,4.8h-20l6.4-4.8v-24.6l-5.6-4.2l12.8-5.6l-1.2,6.7l0.4,0.4
				c3.4-3.8,8.2-7.1,14.7-7.1c4.5,0,8.6,1.7,9.9,6.8c3.4-3.6,8.2-6.8,14.5-6.8c5.5,0,10.5,2.6,10.5,11.1v23.3L1014.9,168.1z"/>
			<path fill="#474A59" d="M1060.9,165l-9.1,3.8l-2.5-7.1h-0.4c-2.4,2.4-8.6,7.1-15.5,7.1c-4.7,0-10.5-2.6-10.5-11.1v-19.1l-5.6-4.2
				l12.8-5.6v25.3c0,7,3.3,8.7,7.1,8.7c2.6,0,6.6-0.6,10.9-3.9v-20.3l-5.6-4.2l12.8-5.6v32L1060.9,165z"/>
			<path fill="#474A59" d="M1095.7,157.1c0,7.5-7.1,11.8-14.2,11.8c-3.1,0-6.2-0.8-8.9-1.9l-5,1.9v-13.4l6.3,8.3
				c2.4,1.2,4.8,1.8,7,1.8c4.6,0,7-2.7,7-6.1c0-9.9-20.3-7.3-20.3-19.7c0-7.7,7.8-11,14.4-11c2.8,0,5.4,0.6,7.8,1.6l4.2-1.6v13.4
				l-7-9.4c-1.4-0.5-3-0.8-4.6-0.8c-5.3,0-7.5,3-7.5,5.9C1074.9,147,1095.7,144.2,1095.7,157.1z"/>
			<path fill="#474A59" d="M1122.1,168.1h-20l6.4-4.8v-24.6l-5.6-4.2l12.8-5.6v34.4L1122.1,168.1z M1106.9,116.1
				c0-2.6,2.2-4.8,4.8-4.8c2.6,0,4.8,2.2,4.8,4.8c0,2.6-2.2,4.8-4.8,4.8C1109,120.9,1106.9,118.7,1106.9,116.1z"/>
			<path fill="#474A59" d="M1165.7,162.1c-2,5.3-4.6,6.8-7.9,6.8c-4,0-6.6-2.2-7.4-5.9h-0.4c-2.6,3.8-6.5,5.9-11.4,5.9
				c-6.4,0-10.8-3.5-10.8-9.4c0-4.2,2.3-7.5,5.4-9.2h16.4v-6.7c0-6.2-2.5-8.7-8-8.7c-3.8,0-7.7,1.1-11.8,4l-0.4-0.4
				c3.8-7,10.4-9.6,16.2-9.6c7.2,0,11.2,4.2,11.2,11.9v18.1c0,3.8,1.7,4.6,3.8,4.6c1.5,0,2.8-0.4,4.7-1.8L1165.7,162.1z
				 M1149.5,159.8v-6.6H1137c-1.1,1.4-1.8,3-1.8,5.3c0,4.3,2.8,5.7,5.6,5.7C1143.6,164.1,1146.4,162.7,1149.5,159.8z"/>
			<path fill="#474A59" d="M1183.3,137.6v25.7l6.4,4.8h-20l6.4-4.8v-20.6l-7.6,5.4v-4.8l7.6-5.4v-22.4l-5.6-4.2l12.8-5.6v27.1
				l7.6-5.3v4.8L1183.3,137.6z"/>
			<path fill="#474A59" d="M1271.7,134.5l-13.7,36h-0.5l-12.6-27l-12.7,27h-0.5l-16.7-37.1l-5-3.7h20.3l-6.4,4.8l10,22.4l8.6-18.6
				l-4-8.6h12.7l-2.2,4.8l9.9,21.6l7.8-21.6l-7-4.8h18.2L1271.7,134.5z"/>
			<path fill="#474A59" d="M1295.1,180.9l11,6.4h-19.4l11.3-23.6l-15.9-29.9l-5.5-4.1h20.6l-6.4,4.8l11.1,21.2l9.1-21.2l-7-4.8h18.2
				l-6.4,4.8L1295.1,180.9z"/>
			<path fill="#474A59" d="M1337.7,139.6v23.7l9.6,4.8h-23.2l6.4-4.8v-24.6l-5.6-4.2l12.8-5.6l-1.5,8.6l0.4,0.2
				c2.9-5.3,8.7-9.5,15.9-7.9l-2.8,7.8C1344.4,135.9,1340.1,137.3,1337.7,139.6z"/>
			<path fill="#474A59" d="M1356.1,148.9c0-12.4,8.9-20,19.6-20c10.7,0,19.6,7.6,19.6,20c0,12.4-8.9,20-19.6,20
				C1364.9,168.9,1356.1,161.3,1356.1,148.9z M1386.7,150.6c0-10.8-5.5-18.6-12.3-18.6c-7.3,0-9.9,7.1-9.9,15
				c0,10.8,5.7,18.6,12.5,18.6C1384.2,165.7,1386.7,158.6,1386.7,150.6z"/>
			<path fill="#474A59" d="M1431.3,157.1c0,7.5-7.1,11.8-14.2,11.8c-3.1,0-6.2-0.8-8.9-1.9l-5,1.9v-13.4l6.3,8.3
				c2.4,1.2,4.8,1.8,7,1.8c4.6,0,7-2.7,7-6.1c0-9.9-20.3-7.3-20.3-19.7c0-7.7,7.8-11,14.4-11c2.8,0,5.4,0.6,7.8,1.6l4.2-1.6v13.4
				l-7-9.4c-1.4-0.5-3-0.8-4.6-0.8c-5.3,0-7.5,3-7.5,5.9C1410.5,147,1431.3,144.2,1431.3,157.1z"/>
			<path fill="#474A59" d="M1483.7,168.1h-20l6.4-4.8v-19.7c0-7-3.3-8.7-7.9-8.7c-2.6,0-6.6,0.6-10.9,3.9v24.5l6.4,4.8h-20l6.4-4.8
				v-24.6l-5.6-4.2l12.8-5.6l-1.2,6.7l0.4,0.4c4-4,8.6-7.1,15.5-7.1c5.5,0,11.3,2.6,11.3,11.1v23.3L1483.7,168.1z"/>
			<path fill="#474A59" d="M1526.9,180.2l0.4,0.4c-1,3.2-3.5,6.6-8.4,6.6c-4.7,0-7.6-3.2-7.6-7.8c0-3.8,2.9-7.4,7.4-10.6
				c-3.6-0.3-6-2.5-6.7-5.9h-0.4c-2.6,3.8-6.5,5.9-11.4,5.9c-6.4,0-10.8-3.5-10.8-9.4c0-4.2,2.3-7.5,5.4-9.2h16.4v-6.7
				c0-6.2-2.5-8.7-8-8.7c-3.8,0-7.7,1.1-11.8,4l-0.4-0.4c3.8-7,10.4-9.6,16.2-9.6c7.2,0,11.2,4.2,11.2,11.9v18.1
				c0,3.8,1.7,4.6,3.8,4.6c1.5,0,2.8-0.4,4.7-1.8l0.4,0.4c-1.4,3.7-3,5.5-5,6.3c-3,2.9-5,6.1-5,8.9c0,3.8,2,4.8,4.5,4.8
				C1523.5,182.1,1525,181.5,1526.9,180.2z M1511.1,159.8v-6.6h-12.5c-1.1,1.4-1.8,3-1.8,5.3c0,4.3,2.8,5.7,5.6,5.7
				C1505.2,164.1,1508,162.7,1511.1,159.8z"/>
			<path fill="#474A59" d="M1564.1,157.7l0.4,0.4c-2.8,8.4-9,10.8-14.5,10.8c-10.1,0-18.3-8.4-18.3-20.2c0-13.7,11-19.8,19.8-19.8
				c5.6,0,9.8,1.6,13,4l-5,6.7l-8.8-7.5c-6.9,0-11.8,5.1-11.8,14.3c0,8.9,4.6,15.7,13.5,15.7
				C1555.6,162.1,1559.4,161.2,1564.1,157.7z M1547.3,122.5l-0.4-0.4l7.2-15.6h8.8L1547.3,122.5z"/>
			<path fill="#474A59" d="M61.6,230.5l-13.7,36h-0.5l-12.6-27l-12.7,27h-0.5L5,229.4l-5-3.7h20.3l-6.4,4.8l10,22.4l8.6-18.6l-4-8.6
				h12.7l-2.2,4.8l9.9,21.6l7.8-21.6l-7-4.8H68L61.6,230.5z"/>
			<path fill="#474A59" d="M100.4,259.3l6.4,4.8h-20l6.4-4.8v-47.8l-5.6-4.2l12.8-5.6V259.3z M131.2,264.1v0.4
				c-12.6,1.6-16.2-2.6-27.2-20.7l14.1-13.3l-8.9-4.8h19.3l-17,16.4C119,254.2,122.6,259.6,131.2,264.1z"/>
			<path fill="#474A59" d="M146.8,235.6v23.7l9.6,4.8h-23.2l6.4-4.8v-24.6l-5.6-4.2l12.8-5.6l-1.5,8.6l0.4,0.2
				c2.9-5.3,8.7-9.5,15.9-7.9l-2.8,7.8C153.5,231.9,149.2,233.3,146.8,235.6z"/>
			<path fill="#474A59" d="M197.6,253.7l0.4,0.4c-1.4,4.4-3.9,7.2-6.7,8.8c-4.3,3.5-7.5,7.7-7.5,11.2c0,3.8,2,4.8,4.5,4.8
				c1.8,0,3.3-0.6,5.1-1.8l0.4,0.4c-1,3.2-3.5,6.6-8.4,6.6c-4.7,0-7.6-3.2-7.6-7.8c0-4.2,3.5-8.1,8.8-11.7c-1,0.2-2.1,0.2-3,0.2
				c-10.1,0-18.3-8.3-18.3-20.3c0-12.7,9.2-19.7,18.8-19.7c7.5,0,14.1,4.3,14.8,14.8h-26.3c-0.1,0.8-0.1,1.6-0.1,2.5
				c0,9.3,4.6,15.9,13.5,15.9C189.1,258.1,193,257.2,197.6,253.7z M173,236.9h17.4c0-5-2.1-9-7.5-9
				C178.1,227.8,174.4,231.1,173,236.9z"/>
			<path fill="#474A59" d="M243.2,231.7l-9.7-3.3c2.8,2.2,4.6,5.4,4.6,9.3c0,8-7.4,12.8-15.4,12.8c-2.6,0-5-0.5-7.3-1.4
				c-2.2,1.8-3.2,3.8-3.2,5.7c0,1.9,1.2,3.4,3.5,3.4h20.7c4,2,6.8,6.1,6.8,11.1c0,8.2-7.4,14.9-21.9,14.9
				c-11.6,0-16.9-4.2-16.9-10.2c0-3.2,1.6-6.6,6.3-9.1c-2.8-1.6-4.3-4.5-4.3-7.7c0-4,2.4-7.1,6.2-9.4c-3.3-2.2-5.4-5.6-5.4-9.9
				c0-8,7.4-12.8,15.4-12.8c2.3,0,4.6,0.4,6.7,1.2l13.8-0.8V231.7z M214.1,264.9c-1.4,1.8-2.8,4.1-2.8,7.2c0,5.3,4.2,8.8,11.6,8.8
				c9.1,0,12.7-4.2,12.7-9.6c0-4-2-6.4-6.4-6.4H214.1z M230.5,238.3c0-5.8-3.5-10.5-8.5-10.5c-4.6,0-7.2,4.2-7.2,9.2
				c0,5.8,3.5,10.5,8.5,10.5C227.9,247.5,230.5,243.4,230.5,238.3z"/>
			<path fill="#474A59" d="M288.4,261l-9.1,3.8l-2.5-7.1h-0.4c-2.4,2.4-8.6,7.1-15.5,7.1c-4.7,0-10.5-2.6-10.5-11.1v-19.1l-5.6-4.2
				l12.8-5.6v25.3c0,7,3.3,8.7,7.1,8.7c2.6,0,6.6-0.6,10.9-3.9v-20.3l-5.6-4.2l12.8-5.6v32L288.4,261z"/>
			<path fill="#474A59" d="M339.6,254.5l0.4,0.4c-2,7.2-6.8,10-11.9,10c-7,0-11.4-5.4-11.4-11.6v-22.8H308l15.9-11.9v7.1h16.8
				l-2.5,4.8h-14.3v19.6c0,3.7,0.9,8,6.8,8C333.6,258.1,336.3,257,339.6,254.5z"/>
			<path fill="#474A59" d="M361.4,276.9l11,6.4h-19.4l11.3-23.6l-15.9-29.9l-5.5-4.1h20.6l-6.4,4.8l11.1,21.2l9.1-21.2l-7-4.8h18.2
				l-6.4,4.8L361.4,276.9z"/>
			<path fill="#474A59" d="M421.1,253.7l0.4,0.4c-2.8,8.4-9,10.8-14.5,10.8c-10.1,0-18.3-8.4-18.3-20.2c0-13.7,11-19.8,19.8-19.8
				c5.6,0,9.8,1.6,13,4l-5,6.7l-8.8-7.5c-6.9,0-11.8,5.1-11.8,14.3c0,8.9,4.6,15.7,13.5,15.7C412.6,258.1,416.5,257.2,421.1,253.7z"
				/>
			<path fill="#474A59" d="M471.9,264.1h-20l6.4-4.8v-19.7c0-7-3.3-8.7-7.9-8.7c-2.6,0-6.6,0.6-10.9,3.9v24.5l6.4,4.8h-20l6.4-4.8
				v-47.8l-5.6-4.2l12.8-5.6v23.1l-1.2,6.8l0.4,0.4c4-4,8.6-7.1,15.5-7.1c5.5,0,11.3,2.6,11.3,11.1v23.3L471.9,264.1z"/>
			<path fill="#474A59" d="M493.9,244.9c0-12.4,8.9-20,19.6-20c10.7,0,19.6,7.6,19.6,20c0,12.4-8.9,20-19.6,20
				C502.8,264.9,493.9,257.3,493.9,244.9z M524.6,246.6c0-10.8-5.5-18.6-12.3-18.6c-7.3,0-9.9,7.1-9.9,15c0,10.8,5.7,18.6,12.5,18.6
				C522.1,261.7,524.6,254.6,524.6,246.6z"/>
			<path fill="#474A59" d="M579.1,243.9c0,13.8-10.2,21-20.7,21c-3,0-7.7-0.6-10.8-2.1l-4.9,2.1v-53.4l-5.6-4.2l12.8-5.6v23.1
				l-1.2,6.8l0.4,0.4c2.3-3.6,7.1-7.1,13.2-7.1C570.5,224.9,579.1,231.2,579.1,243.9z M571.1,245.7c0-9.2-4.3-14.8-11.4-14.8
				c-3.4,0-7.1,1.4-9.8,3.9v19.5c0,4.8,4.5,7.4,9,7.4C566,261.7,571.1,255.7,571.1,245.7z"/>
			<path fill="#474A59" d="M598.2,276.9l11,6.4h-19.4l11.3-23.6L585,229.8l-5.5-4.1h20.6l-6.4,4.8l11.1,21.2l9.1-21.2l-7-4.8h18.2
				l-6.4,4.8L598.2,276.9z"/>
			<path fill="#474A59" d="M657.9,253.7l0.4,0.4c-2.8,8.4-9,10.8-14.5,10.8c-10.1,0-18.3-8.4-18.3-20.2c0-13.7,11-19.8,19.8-19.8
				c5.6,0,9.8,1.6,13,4l-5,6.7l-8.8-7.5c-6.9,0-11.8,5.1-11.8,14.3c0,8.9,4.6,15.7,13.5,15.7C649.4,258.1,653.3,257.2,657.9,253.7z"
				/>
			<path fill="#474A59" d="M691.8,260.5l7.8-10.3v13.9h-37.6l26.5-34.8H673l-7.8,10.3v-15.5l7,1.6h27.7l-26.4,34.8H691.8z"/>
			<path fill="#474A59" d="M743.9,258.1c-2,5.3-4.6,6.8-7.9,6.8c-4,0-6.6-2.2-7.4-5.9h-0.4c-2.6,3.8-6.5,5.9-11.4,5.9
				c-6.4,0-10.8-3.5-10.8-9.4c0-4.2,2.3-7.5,5.4-9.2h16.4v-6.7c0-6.2-2.5-8.7-8-8.7c-3.8,0-7.7,1.1-11.8,4l-0.4-0.4
				c3.8-7,10.4-9.6,16.2-9.6c7.2,0,11.2,4.2,11.2,11.9v18.1c0,3.8,1.7,4.6,3.8,4.6c1.5,0,2.8-0.4,4.7-1.8L743.9,258.1z M727.8,255.8
				v-6.6h-12.5c-1.1,1.4-1.8,3-1.8,5.3c0,4.3,2.8,5.7,5.6,5.7C721.8,260.1,724.6,258.7,727.8,255.8z"/>
			<path fill="#474A59" d="M747.5,230.5l12.8-5.6v40c-0.1,9.8-3.7,15.8-12.4,20l-0.4-0.4c4.2-5.4,5.6-11.3,5.6-20.4v-29.4
				L747.5,230.5z M751.5,212.1c0-2.6,2.2-4.8,4.8-4.8s4.8,2.2,4.8,4.8c0,2.6-2.2,4.8-4.8,4.8S751.5,214.7,751.5,212.1z"/>
			<path fill="#474A59" d="M770.7,244.9c0-12.4,8.9-20,19.6-20c10.7,0,19.6,7.6,19.6,20c0,12.4-8.9,20-19.6,20
				C779.6,264.9,770.7,257.3,770.7,244.9z M801.3,246.6c0-10.8-5.5-18.6-12.3-18.6c-7.3,0-9.9,7.1-9.9,15c0,10.8,5.7,18.6,12.5,18.6
				C798.9,261.7,801.3,254.6,801.3,246.6z M787.2,218.1l7.2-15.6h8.8l-15.6,16L787.2,218.1z"/>
			<path fill="#474A59" d="M871.9,230.5l-13.7,36h-0.5l-12.6-27l-12.7,27H832l-16.7-37.1l-5-3.7h20.3l-6.4,4.8l10,22.4l8.6-18.6
				l-4-8.6h12.7l-2.2,4.8l9.9,21.6l7.8-21.6l-7-4.8h18.2L871.9,230.5z"/>
			<path fill="#474A59" d="M875.9,260.1c0-2.6,2.2-4.8,4.8-4.8c2.6,0,4.8,2.2,4.8,4.8c0,2.6-2.2,4.8-4.8,4.8
				C878.1,264.9,875.9,262.7,875.9,260.1z"/>
			<path fill="#474A59" d="M893.5,260.1c0-2.6,2.2-4.8,4.8-4.8c2.6,0,4.8,2.2,4.8,4.8c0,2.6-2.2,4.8-4.8,4.8
				C895.7,264.9,893.5,262.7,893.5,260.1z"/>
			<path fill="#474A59" d="M911.1,260.1c0-2.6,2.2-4.8,4.8-4.8c2.6,0,4.8,2.2,4.8,4.8c0,2.6-2.2,4.8-4.8,4.8
				C913.3,264.9,911.1,262.7,911.1,260.1z"/>
		</g>
	</g>
</g>
<g id="Layer_2">
</g>
</svg>
