<?xml version="1.0" encoding="utf-8"?>
<!-- Generator: Adobe Illustrator 19.2.1, SVG Export Plug-In . SVG Version: 6.00 Build 0)  -->
<svg version="1.1" xmlns="http://www.w3.org/2000/svg" xmlns:xlink="http://www.w3.org/1999/xlink" x="0px" y="0px"
	 viewBox="0 0 923.4 276" enable-background="new 0 0 923.4 276" xml:space="preserve">
<g id="Layer_1">
	<g>
		<g>
			<path fill="#B59D44" d="M117.4,71.6c0,15-13,25-30.1,25c-9.8,0-17-3.2-35.6-16l-14.2,16l-2.2-2.5l57.1-65.2l-27.7-24
				C55.1,7.3,49,14.9,49,23.4c0,5.2,2.4,8.8,2.4,8.8c0.1-5.5,4.4-8.9,9-8.9c4.9,0,9,4,9,8.9c0,5-4.1,9-9.6,9
				c-7.2,0-14.5-6.6-14.5-17.4C45.3,10,58.3,0,75.4,0c9,0,15.7,2.8,31.1,13l11.3-13l2.4,2.8L66.1,64.2L98,91.4
				c9.6-2.4,15.8-9.7,15.8-18.5c0-3.4-0.6-7.1-3.1-10.6c-0.1,5.5-5,10.2-10.6,10.2c-5.6,0-10.3-4.7-10.3-10.3
				c0-5.6,4.7-10.3,11.3-10.3C110.1,52,117.4,60.8,117.4,71.6z"/>
			<path fill="#B59D44" d="M171.5,54.2c-6.1,18.6-16.3,42.4-34.1,42.4c-9.1,0-14.8-6.2-12.8-16.7l2.5-13.9l4-22.3l-5.9,2.2l-1.1-2.9
				l7.7-2.8L139,0l19.9,4.8l-5,27.4l5.8-2l1.1,2.8l-7.4,2.8L147.7,66l-4.8,26.5c9.7-2,21-21.2,26.3-40.1L171.5,54.2z"/>
			<path fill="#B59D44" d="M162.3,70.2c0-20.9,15.6-34.8,35.2-34.8c17,0,27.7,10.6,27.7,26.4c0,20.9-16.1,34.8-35.5,34.8
				C172.5,96.6,162.3,86,162.3,70.2z M198.4,92.4l9.2-52.3c0,0-3.7-1.7-10-1.7c-5.8,0-9.5,1.4-9.5,1.4l-9.1,51.7c0,0,4.4,2,11,2
				C195.2,93.6,198.4,92.4,198.4,92.4z"/>
			<path fill="#B59D44" d="M277,54.2c-6.1,18.6-16.3,42.4-34.1,42.4c-9.1,0-14.8-6.2-12.8-16.7l2.5-13.9l4.7-27h-6.7v-3h7.2
				l3.4-19.1l19.9,4.8L258.5,36h9.8v3h-10.4l-4.8,27l-4.8,26.5c9.7-2,21-21.2,26.3-40.1L277,54.2z"/>
			<path fill="#B59D44" d="M267.8,70.2c0-20.9,15.6-34.8,35.2-34.8c17,0,27.7,10.6,27.7,26.4c0,20.9-16.1,34.8-35.5,34.8
				C278,96.6,267.8,86,267.8,70.2z M303.9,92.4l9.2-52.3c0,0-3.7-1.7-10-1.7c-5.8,0-9.5,1.4-9.5,1.4l-9.1,51.7c0,0,4.4,2,11,2
				C300.7,93.6,303.9,92.4,303.9,92.4z"/>
			<path fill="#B59D44" d="M344.1,114l-2.3-2.5c4.9-4.7,9-10,11.8-15.5c0,0-1.8,0.8-4.4,0.8c-6.6,0-11.3-5-11.3-11.2
				c0-6.5,4.8-11.2,10.9-11.2c6.1,0,11.4,4,11.4,11.2C360.2,93.2,354.2,104.5,344.1,114z"/>
			<path fill="#B59D44" d="M537.3,54.2c-6.1,18.6-16.3,42.4-34.1,42.4c-9.1,0-14.8-6.2-12.8-16.7l2.5-13.9l4.6-25.7
				c-10.8,7.8-20,21.5-25.8,36.4l-3.5,19.9l-19.9-4.8L453,66l4.6-25.7c-10.3,7.3-19.1,20.2-25,34.2l-3.8,22.1l-19.9-4.8l4.8-25.8
				l5.4-30.6l19.9,4.8l-4.4,23.6c6-11.5,13.8-21.4,23.9-28.4l19.9,4.8l-4.7,25.2c6-12.2,14.2-22.7,24.6-30l19.9,4.8L513.4,66
				l-4.8,26.5c9.7-2,21-21.2,26.3-40.1L537.3,54.2z"/>
			<path fill="#B59D44" d="M528.1,70.2c0-20.9,15.6-34.8,35.2-34.8c17,0,27.7,10.6,27.7,26.4c0,20.9-16.1,34.8-35.5,34.8
				C538.3,96.6,528.1,86,528.1,70.2z M564.2,92.4l9.2-52.3c0,0-3.7-1.7-10-1.7c-5.8,0-9.5,1.4-9.5,1.4l-9.1,51.7c0,0,4.4,2,11,2
				C560.9,93.6,564.2,92.4,564.2,92.4z"/>
			<path fill="#B59D44" d="M683.8,54.2c-6.1,18.6-16.3,42.4-34.1,42.4c-9.1,0-14.8-6.2-12.8-16.7l2.5-13.9l4.6-25.7
				c-10.3,7.3-19.1,20.2-25,34.2l-3.8,22.1l-19.9-4.8l4.8-25.8l5.4-30.6l19.9,4.8l-4.4,23.6c6-11.5,13.8-21.4,23.9-28.4l19.9,4.8
				L659.9,66l-4.8,26.5c9.7-2,21-21.2,26.3-40.1L683.8,54.2z"/>
			<path fill="#B59D44" d="M746,54.2c-2,6.8-12,42.4-43.4,42.4c-16.2,0-28-9.5-28-26.2c0-18.7,14.2-35,35.6-35c13,0,24,5.9,24,16.7
				c0,15.5-22.6,22.3-37.2,19l-3.8,21c0,0,4.4,1.6,10.3,1.6c28.1,0,38-35.3,40.1-41.2L746,54.2z M702.9,39.5L697.6,68
				c6.8,2.5,15.8,0.2,15.8,0.2l5.4-28.6c0,0-3.7-1.3-8.6-1.3C705.6,38.4,702.9,39.5,702.9,39.5z"/>
			<path fill="#B59D44" d="M783.8,54.2c-6.1,18.6-16.3,42.4-34.1,42.4c-9.1,0-14.8-6.2-12.8-16.7l2.5-13.9l4.7-27h-6.7v-3h7.2
				l3.4-19.1l19.9,4.8L765.3,36h9.8v3h-10.4l-4.8,27l-4.8,26.5c9.7-2,21-21.2,26.3-40.1L783.8,54.2z"/>
			<path fill="#B59D44" d="M843.5,40.2L832.2,104c-3.2,18.1-17.5,28-34.6,28c-15.2,0-25.4-8.6-25.4-21.7c0-8.2,4-13.6,8-16.9
				l-6.5-1.6l4.8-25.8l5.4-30.6l19.9,4.8L799.1,66l-4.6,25.7c10.7-7.6,19.7-20.9,25.4-35.5l3.6-20.8L843.5,40.2z M807.6,127.1
				l10.4-59.9c-6,12-14,22.1-24.4,29.4l-9.5-2.3c-4.3,2.9-8.8,7.8-8.6,15.8c0,11,8.9,18.5,22.1,18.5
				C803.6,128.6,807.6,127.1,807.6,127.1z"/>
			<path fill="#B59D44" d="M848.3,85.4c0-6.2,4.9-11,11.3-11c6.2,0,11.2,4.8,11.2,11c0,6.4-4.9,11.2-11.2,11.2
				C853.2,96.6,848.3,91.8,848.3,85.4z M883.7,4.8l-12.4,65.4l-19.7-4.8L863.8,0L883.7,4.8z"/>
			<path fill="#B59D44" d="M8.4,216.5c4.7,0,8.4,3.7,8.4,8.4s-3.4,8.3-8,8.3c1.8,1.3,6.5,4.1,15.1,4.1c10.7,0,16-4.4,16-4.4
				l-25.2-21.7c-3.7-3.2-6.8-7.7-6.8-13.6c0-10.4,9.7-18.1,23.5-18.1c13.9,0,21.8,7.7,21.8,14.5c0,4.6-3.4,8.3-8.4,8.3
				c-4.7,0-8.2-3.4-8.2-8.3c0-7.8,8-8.3,8-8.3s-5-3.1-13.3-3.1c-10.2,0-15.1,4.9-15.1,4.9l24.1,20.6c4.1,3.5,7.7,7.8,7.7,14.4
				c0,10.9-9.6,17.9-24.4,17.9C11,240.4,0,234.1,0,224.9C0.2,219.6,4.1,216.5,8.4,216.5z"/>
			<path fill="#B59D44" d="M140.9,198.2c-6.1,18.8-12.5,42.4-32.8,42.4c-8.9,0-16.8-5.2-19.1-13.1l-6.6-22.3l-0.8,4.8l-5.4,30.6
				l-19.9-4.8l4.8-25.8L73,144l19.9,4.8L83,202.4c5.9-9.5,15.4-23,28.1-23c6.5,0,11.8,3.6,11.9,10.2c0,5.8-4.3,10.2-9.8,10.2
				s-10-4.4-10-9.8c0-2.9,1.3-5.3,3.4-7.1c-8.6,2.8-17.2,14.8-20.6,21h16.7l9.6,33.4c16.1-3.8,20.2-22.7,26.3-40.8L140.9,198.2z"/>
			<path fill="#B59D44" d="M219.4,198.2c-6.1,18.6-16.3,42.4-34.1,42.4c-9.1,0-14.8-6.2-12.8-16.7l2.2-11.8
				c-6,11.5-13.8,21.4-23.9,28.4l-19.9-4.8l4.8-25.8l5.4-30.6l19.9,4.8l-4.8,25.8l-4.6,25.7c10.3-7.3,19.1-20.2,25-34.2l3.8-22.1
				l19.9,4.8l-4.8,25.8l-4.8,26.5c9.7-2,21-21.2,26.3-40.1L219.4,198.2z"/>
			<path fill="#B59D44" d="M275.8,205.1c0,20.8-12.5,35.3-31.1,35.3c-7.9,0-13-2.8-16-5.3l-7.3,40.9l-19.9-4.8l11.3-61.2h0.2
				l5.4-30.6l19.3,4.7c3.5-2.5,8.5-4.9,15-4.9C266.5,179.2,275.8,189.2,275.8,205.1z M256.9,183c-9.1-1.8-15.4,1.2-19.2,4.6
				l-4.2,22.4h-0.2l-3.8,21.1c3,3.1,8.5,6.7,17.6,6.1L256.9,183z"/>
			<path fill="#B59D44" d="M356.9,226.1c-5.5,8.4-12.6,14.5-21.6,14.5c-9.1,0-14.8-6.2-12.8-16.7L325,210l5.4-30.6l19.9,4.8
				l-4.8,25.8l-4.8,26.5c3.7-0.5,9.1-5.3,13.7-12.5L356.9,226.1z M332.2,161c0-6.2,5-11.2,11.4-11.2c6.2,0,11.3,4.9,11.3,11.2
				c0,6.4-5,11.3-11.3,11.3C337.2,172.3,332.2,167.4,332.2,161z"/>
			<path fill="#B59D44" d="M404.4,216.5c4.7,0,8.4,3.7,8.4,8.4s-3.4,8.3-8,8.3c1.8,1.3,6.5,4.1,15.1,4.1c10.7,0,16-4.4,16-4.4
				l-25.2-21.7c-3.7-3.2-6.8-7.7-6.8-13.6c0-10.4,9.7-18.1,23.5-18.1c13.9,0,21.8,7.7,21.8,14.5c0,4.6-3.4,8.3-8.4,8.3
				c-4.7,0-8.2-3.4-8.2-8.3c0-7.8,8-8.3,8-8.3s-5-3.1-13.3-3.1c-10.2,0-15.1,4.9-15.1,4.9l24.1,20.6c4.1,3.5,7.7,7.8,7.7,14.4
				c0,10.9-9.6,17.9-24.4,17.9c-12.6,0-23.6-6.2-23.6-15.5C396.2,219.6,400.1,216.5,404.4,216.5z"/>
			<path fill="#B59D44" d="M518.4,205.3c0,20.8-12.5,35.3-31.1,35.3c-7.9,0-13-2.9-16-5.3L464,276l-19.9-4.8l11.3-61.2h0.2l5.4-30.6
				l19.6,4.7c3.5-2.4,8.4-4.7,14.8-4.7C509.1,179.4,518.4,189.5,518.4,205.3z M499.5,183.2c-9.1-1.8-15.4,1.2-19.3,4.7l-4.1,22.1
				h-0.2l-3.8,21.4c3,3,8.5,6.8,17.6,6.1L499.5,183.2z"/>
			<path fill="#B59D44" d="M636.6,221.6c0.2,11.6-12.4,19-24.7,19c-8.3,0-16.4-3.4-24.5-9.7l-2.3-1.8l-12.4,11.5l-2.4-2.4l37.6-34.2
				l-21.1-19.2c0,0-1,0.2-2.3,1c0.5,1.1,0.7,2.4,0.7,3.8c0,5.8-4.3,10.2-9.8,10.2c-5.5,0-10-4.4-10-9.8c0-2.9,1.3-5.3,3.4-7.1
				c-8.9,2.9-17.3,16.7-20.6,22.9l-0.7,4.2l-5.4,30.6l-19.9-4.8l4.8-25.8l5.4-30.6l19.9,4.8l-2.4,12.7c5.6-8.5,13.2-17.5,23.5-17.5
				c3.6,0,7,1.2,9.1,3.4c4.2-2.4,9.5-3.7,14.9-3.7c8.4,0,16.7,3.2,24.6,9.7l1.3,1.1l11-10.4l2.5,2.5l-36.5,33l22.9,20.2
				c0,0,4.8-1.8,7.7-5.6c-1.1,0.4-2.3,0.6-3.5,0.6c-5.2,0-9.1-4-9.1-9.1c0-4.9,3.7-8.9,9.1-8.9C632.4,212,636.5,215.4,636.6,221.6z"
				/>
			<path fill="#B59D44" d="M712.2,198.2c-2,6.8-12,42.4-43.4,42.4c-16.2,0-28-9.5-28-26.2c0-18.7,14.2-35,35.6-35
				c13,0,24,5.9,24,16.7c0,15.5-22.6,22.3-37.2,19l-3.8,21c0,0,4.4,1.6,10.3,1.6c28.1,0,38-35.3,40.1-41.2L712.2,198.2z
				 M669.1,183.5l-5.3,28.6c6.8,2.5,15.8,0.2,15.8,0.2l5.4-28.6c0,0-3.7-1.3-8.6-1.3C671.9,182.4,669.1,183.5,669.1,183.5z"/>
			<path fill="#B59D44" d="M789.2,198.2c-6.1,18.6-16.3,42.4-34.1,42.4c-5.6,0-10-2.4-11.9-6.6c-3.5,3-9.2,6.6-17.3,6.6
				c-13.8,0-23-10.1-23-25.9c0-20.8,12.5-35.3,31.1-35.3c7.4,0,12.4,2.5,15.5,4.9l7.2-40.3l19.9,4.8L765.3,210l-4.8,26.5
				c9.7-2,21-21.2,26.3-40.1L789.2,198.2z M742.2,231c-0.4-2-0.4-4.4,0.1-7.1l6.5-35.8c-3.1-3-8.5-6.2-17.2-5.6l-9.8,54.2
				C731.9,238.8,738.5,234.8,742.2,231z"/>
			<path fill="#B59D44" d="M811.1,179.4c7.6,0,12.5,2.5,15.5,4.9l0.8-4.9l19.9,4.8l-9.7,52.8c9.7-2,21.1-21.7,26.4-40.6l2.4,1.8
				c-6.1,18.6-16.3,42.4-34.1,42.4c-5.6,0-10-2.4-12-6.7c-3.5,3.1-9.2,6.7-17.3,6.7c-13.8,0-23-10.1-23-25.9
				C780,193.9,792.5,179.4,811.1,179.4z M819.3,230.9c-0.4-2-0.4-4.3,0.1-7l6.4-35.8c-3.1-2.9-8.5-6.2-17.2-5.6l-10,54.2
				C808.9,238.8,815.6,234.7,819.3,230.9z"/>
			<path fill="#B59D44" d="M893.1,203.4l-20-19c0,0-4.7,1.2-7.3,5.9c1.1-0.5,2.5-0.7,3.8-0.7c5.2,0,9.1,4,9.1,9.1
				c0,4.9-3.7,8.9-9.1,8.9c-5.8,0-9.4-4.4-9.4-10.3c0-11.8,11.3-18.2,23.6-18.2c8.4,0,15.8,3.1,23.8,9.6l1.3,1.1l11.9-10.3l2.5,2.4
				L884,216l22.2,19.1c0,0,4.8-1.8,7.7-5.6c-1.1,0.4-2.3,0.6-3.5,0.6c-5.2,0-9.1-4-9.1-9.1c0-4.9,3.7-8.9,9.1-8.9
				c4.9,0,9,3.4,9.1,9.6c0.2,11.6-12.4,19-24.7,19c-8.3,0-17.4-2.8-25-9.7l-1.4-1.3l-13,11.3l-2.4-2.5L893.1,203.4z M883.5,161
				c0-6.2,5-11.2,11.4-11.2c6.2,0,11.3,4.9,11.3,11.2c0,6.4-5,11.3-11.3,11.3C888.6,172.3,883.5,167.4,883.5,161z"/>
		</g>
	</g>
</g>
<g id="Layer_2">
</g>
</svg>
