<?xml version="1.0" encoding="utf-8"?>
<!-- Generator: Adobe Illustrator 19.2.1, SVG Export Plug-In . SVG Version: 6.00 Build 0)  -->
<svg version="1.1" xmlns="http://www.w3.org/2000/svg" xmlns:xlink="http://www.w3.org/1999/xlink" x="0px" y="0px"
	 viewBox="0 0 993.9 551" enable-background="new 0 0 993.9 551" xml:space="preserve">
<g id="Layer_1">
	<g>
		<g>
			<path fill="#474A59" d="M225.7,70.6c4.9,0,9.1,1.3,12.7,3.4l3.2-17.8c-15.8-2.8-26-11.9-26-26.2c0-11.6,6.7-19,14.2-19
				c5.5,0,10.3,4.1,10.3,10.1c0,5.4-3.7,10.1-9.7,10.1c-4.2,0-8.9-2.3-10.1-8.6c0,0-1.3,3.5-1.3,8.2c0,11.4,9.1,19.7,23.3,22.2
				l4.4-25C250,9.8,261.2,0,274.3,0c12.6,0,21.6,9.4,21.7,22.6c0.1,17-15,29.4-33.7,33.4L258.8,75c-1,5.2-2.8,9.6-5.3,13.3
				c5.3,6,10.4,11.6,20.5,11.6c25.6,0,35.9-35.3,37.9-41.2l2.4,1.8c-2,6.8-12.4,42.4-40.4,42.4c-10.9,0-16.9-5.5-22.6-11.6
				c-6.5,7.7-16,11.6-25.3,11.6c-11.6,0-19.2-6.5-19.1-16.2C207.1,77,214.4,70.6,225.7,70.6z M225.2,99.6c5,0,8.9-1.6,8.9-1.6
				l3.6-20.2c-3.6-2.4-7.7-4-12.6-4c-8.8,0-14.8,5.2-14.8,12.8S216.4,99.6,225.2,99.6z M292.8,22.6c0-11.2-8-19.2-17.6-19.2
				c-2,0-3.4,0.4-3.4,0.4l-8.9,48.8C280,48.7,292.8,36.7,292.8,22.6z"/>
			<path fill="#474A59" d="M305.2,76.6c0-20.9,15.6-34.8,35.2-34.8c17,0,27.7,10.6,27.7,26.4C368,89,352,103,332.5,103
				C315.4,103,305.2,92.4,305.2,76.6z M341.3,98.8l9.2-52.3c0,0-3.7-1.7-10-1.7c-5.8,0-9.5,1.4-9.5,1.4L322,97.9c0,0,4.4,2,11,2
				C338,100,341.3,98.8,341.3,98.8z"/>
			<path fill="#474A59" d="M500.8,60.6c-6.1,18.6-16.3,42.4-34.1,42.4c-9.1,0-14.8-6.2-12.8-16.7l2.5-13.9l4.6-25.7
				c-10.8,7.8-20,21.5-25.8,36.4l-3.5,19.9l-19.9-4.8l4.8-25.8l4.6-25.7c-10.3,7.3-19.1,20.2-25,34.2l-3.8,22.1l-19.9-4.8l4.8-25.8
				l5.4-30.6l19.9,4.8L398,70.2c6-11.5,13.8-21.4,23.9-28.4l19.9,4.8l-4.7,25.2c6-12.2,14.2-22.7,24.6-30l19.9,4.8l-4.8,25.8
				l-4.8,26.5c9.7-2,21-21.2,26.3-40.1L500.8,60.6z"/>
			<path fill="#474A59" d="M558.7,67.7c0,20.8-12.5,35.3-31.1,35.3c-7.6,0-12.5-2.6-15.6-5l-0.8,5l-19.9-4.8l4.8-25.8l11.9-66
				l19.9,4.8l-6.5,34.9c3.5-2.3,8.3-4.3,14.3-4.3C549.5,41.8,558.7,51.8,558.7,67.7z M539.9,45.6c-9.1-1.8-15.2,1.2-19.2,4.6
				l-4.1,22.2l-3.8,21.7c3.1,3,8.5,6.4,17.3,5.8L539.9,45.6z"/>
			<path fill="#474A59" d="M594.6,41.8c7.6,0,12.5,2.5,15.5,4.9l0.8-4.9l19.9,4.8l-9.7,52.8c9.7-2,21.1-21.7,26.4-40.6l2.4,1.8
				c-6.1,18.6-16.3,42.4-34.1,42.4c-5.6,0-10-2.4-12-6.7c-3.5,3.1-9.2,6.7-17.3,6.7c-13.8,0-23-10.1-23-25.9
				C563.5,56.3,576,41.8,594.6,41.8z M602.9,93.2c-0.4-2-0.4-4.3,0.1-7l6.4-35.8c-3.1-2.9-8.5-6.2-17.2-5.6l-10,54.2
				C592.4,101.2,599.2,97.1,602.9,93.2z"/>
			<path fill="#474A59" d="M702.2,51.6c0,5.4-4.4,9.8-9.8,9.8c-5.4,0-9.8-4.4-9.8-9.8c0-0.6,0.1-1.1,0.1-1.1
				c-6.5,5.5-13.8,18.6-18.6,30.1l-4,22.3l-19.9-4.8l4.8-25.8l5.4-30.6l19.9,4.8l-4.2,22.8c7-14.4,16.8-27.6,26.3-27.6
				C697.8,41.8,702.2,46.2,702.2,51.6z"/>
			<path fill="#474A59" d="M774.9,88.4c-5.5,8.4-12.6,14.5-21.6,14.5c-5.6,0-10-2.4-12-6.7c-3.5,3.1-9.2,6.7-17.4,6.7
				c-13.8,0-23-10.1-23-25.9c0-20.8,12.5-35.3,31.1-35.3c7.7,0,12.6,2.6,15.6,5l7.3-40.4l19.9,4.8l-11.3,61.2l-4.8,26.5
				c3.7-0.5,9.1-5.3,13.7-12.5L774.9,88.4z M740.4,93.2c-0.4-2-0.4-4.4,0.1-7l2.5-13.9l3.8-21.6c-3-3-8.5-6.5-17.3-5.9l-9.8,54.2
				C730.1,101.2,736.7,97.1,740.4,93.2z"/>
			<path fill="#474A59" d="M31.1,185.8c7.6,0,12.5,2.5,15.5,4.9l0.8-4.9l19.9,4.8l-9.7,52.8c9.7-2,21.1-21.7,26.4-40.6l2.4,1.8
				C80.3,223.2,70.1,247,52.3,247c-5.6,0-10-2.4-12-6.7c-3.5,3.1-9.2,6.7-17.3,6.7C9.2,247,0,236.9,0,221
				C0,200.3,12.5,185.8,31.1,185.8z M39.4,237.2c-0.4-2-0.4-4.3,0.1-7l6.4-35.8c-3.1-2.9-8.5-6.2-17.2-5.6l-10,54.2
				C28.9,245.2,35.6,241.1,39.4,237.2z"/>
			<path fill="#474A59" d="M144.4,211.7c0,20.8-12.5,35.3-31.1,35.3c-7.6,0-12.5-2.6-15.6-5l-0.8,5l-19.9-4.8l4.8-25.8l11.9-66
				l19.9,4.8l-6.5,34.9c3.5-2.3,8.3-4.3,14.3-4.3C135.1,185.8,144.4,195.8,144.4,211.7z M125.5,189.6c-9.1-1.8-15.2,1.2-19.2,4.6
				l-4.1,22.2l-3.8,21.7c3.1,3,8.5,6.4,17.3,5.8L125.5,189.6z"/>
			<path fill="#474A59" d="M220.6,204.6c-2,6.8-12.4,42.4-42.8,42.4c-17.2,0-28.6-9.5-28.6-26.2c0-18.7,14.2-35,34.9-35
				c11.4,0,23.4,4.8,23.4,14.2c0,5.6-4.6,10.2-10.2,10.2c-5.6,0-10.2-4.6-10.2-10.2c0-4.8,3.4-8.5,7.6-9.5c0,0-4.9-1.7-10.6-1.7
				c-4.2,0-6.6,1.1-6.6,1.1l-9.7,52.6c0,0,4.7,1.6,10.3,1.6c28.1,0,38-35.3,40.1-41.2L220.6,204.6z"/>
			<path fill="#474A59" d="M297.6,204.6c-6.1,18.6-16.3,42.4-34.1,42.4c-5.6,0-10-2.4-11.9-6.6c-3.5,3-9.2,6.6-17.3,6.6
				c-13.8,0-23-10.1-23-25.9c0-20.8,12.5-35.3,31.1-35.3c7.4,0,12.4,2.5,15.5,4.9l7.2-40.3l19.9,4.8l-11.3,61.2l-4.8,26.5
				c9.7-2,21-21.2,26.3-40.1L297.6,204.6z M250.6,237.4c-0.4-2-0.4-4.4,0.1-7.1l6.5-35.8c-3.1-3-8.5-6.2-17.2-5.6l-9.8,54.2
				C240.2,245.2,246.8,241.2,250.6,237.4z"/>
			<path fill="#474A59" d="M359.8,204.6c-2,6.8-12,42.4-43.4,42.4c-16.2,0-28-9.5-28-26.2c0-18.7,14.2-35,35.6-35
				c13,0,24,5.9,24,16.7c0,15.5-22.6,22.3-37.2,19l-3.8,21c0,0,4.4,1.6,10.3,1.6c28.1,0,38-35.3,40.1-41.2L359.8,204.6z
				 M316.7,189.8l-5.3,28.6c6.8,2.5,15.8,0.2,15.8,0.2l5.4-28.6c0,0-3.7-1.3-8.6-1.3C319.4,188.8,316.7,189.8,316.7,189.8z"/>
			<path fill="#474A59" d="M415.4,166.4c0,6.6-4.6,11-10.2,11c-5.8,0-10.3-4.4-10.3-10.1c0-5.8,4.6-10.3,10.3-10.3h0.5
				c-3.1-2.3-7.4-3.6-12.4-3.6c-4,0-6.7,0.8-6.7,0.8l-5.2,25.8l-1.2,6.2h8v3h-8.5l-11.8,63c-3.5,19.7-16.8,30-32.4,30
				c-13.3,0-22.6-6.5-22.6-16.1c0-6.6,4.6-11,10.2-11c5.8,0,10.3,4.4,10.3,10.1c0,5.8-4.6,10.3-10.3,10.3h-0.5
				c3.1,2.3,7.4,3.6,12.4,3.6c4,0,6.7-0.8,6.7-0.8l5.2-25.8l11.8-63.2h-8.3v-3h8.9l1.1-6c3.5-19.7,16.8-30,32.4-30
				C406.2,150.4,415.4,156.8,415.4,166.4z"/>
			<path fill="#474A59" d="M456.1,190.6l-11.3,63.8c-3.2,18.1-17.5,28-34.6,28c-15.2,0-25.4-8.6-25.4-21.7
				c0-10.8,6.8-16.6,11.9-19.4c-4.8-4.6-7.6-11.5-7.6-20.2c0-20.8,12.5-35.3,31.1-35.3c7.3,0,12.1,2.4,15.1,4.7l0.8-4.7L456.1,190.6
				z M420.2,277.4l6-34.7c-3.4,2.3-8,4.2-14,4.2c-5,0-9.4-1.3-13-3.7c-4.8,2.5-11.2,7.6-11,17.3c0,11,8.9,18.5,22.1,18.5
				C416.2,279,420.2,277.4,420.2,277.4z M408,243.1c8.9,1.8,15-1.1,19-4.4l7.8-44.4c-3.1-2.9-8.5-6-16.9-5.4L408,243.1z"/>
			<path fill="#474A59" d="M551.4,204.6c-6.1,18.6-16.3,42.4-34.1,42.4c-9.1,0-14.8-6.2-12.8-16.7l2.5-13.9l4.6-25.7
				c-10.3,7.3-19.1,20.2-25,34.2l-3.8,22.1l-19.9-4.8l4.8-25.8l11.9-66l19.9,4.8l-10.9,59c6-11.5,13.8-21.4,23.9-28.4l19.9,4.8
				l-4.8,25.8l-4.8,26.5c9.7-2,21-21.2,26.3-40.1L551.4,204.6z"/>
			<path fill="#474A59" d="M589,204.6c-6.1,18.6-16.3,42.4-34.1,42.4c-9.1,0-14.8-6.2-12.8-16.7l2.5-13.9l5.4-30.6l19.9,4.8
				l-4.8,25.8l-4.8,26.5c9.7-2,21-21.2,26.3-40.1L589,204.6z M551.8,167.4c0-6.2,5-11.2,11.4-11.2c6.2,0,11.3,4.9,11.3,11.2
				c0,6.4-5,11.3-11.3,11.3C556.8,178.7,551.8,173.8,551.8,167.4z"/>
			<path fill="#474A59" d="M592.1,185.8l19.9,4.8l-4.8,25.8l-6.5,36.1c-3.5,19.7-16.1,30.1-31.7,30.1c-15.5,0-22.3-10.2-22.3-10.2
				l3.8-1.1c0,0,6.4,8.2,17.3,8.2c3.5,0,6.2-0.8,6.2-0.8l5.6-25.9l7-36.4L592.1,185.8z M616.7,167.4c0,6.4-5,11.3-11.3,11.3
				c-6.4,0-11.4-4.9-11.4-11.3c0-6.2,5-11.2,11.4-11.2C611.6,156.2,616.7,161.2,616.7,167.4z"/>
			<path fill="#474A59" d="M704.5,204.6c-6.1,18.8-12.5,42.4-32.8,42.4c-8.9,0-16.8-5.2-19.1-13.1l-6.6-22.3l-0.8,4.8l-5.4,30.6
				l-19.9-4.8l4.8-25.8l11.9-66l19.9,4.8l-9.8,53.6c5.9-9.5,15.4-23,28.1-23c6.5,0,11.8,3.6,11.9,10.2c0,5.8-4.3,10.2-9.8,10.2
				s-10-4.4-10-9.8c0-2.9,1.3-5.3,3.4-7.1c-8.6,2.8-17.2,14.8-20.6,21h16.7l9.6,33.4c16.1-3.8,20.2-22.7,26.3-40.8L704.5,204.6z"/>
			<path fill="#474A59" d="M742.8,204.6c-6.1,18.6-16.3,42.4-34.1,42.4c-9.1,0-14.8-6.2-12.8-16.7l2.5-13.9l11.9-66l19.9,4.8
				l-11.3,61.2l-4.8,26.5c9.7-2,21-21.2,26.3-40.1L742.8,204.6z"/>
			<path fill="#474A59" d="M861.5,204.6c-6.1,18.6-16.3,42.4-34.1,42.4c-9.1,0-14.8-6.2-12.8-16.7l2.5-13.9l4.6-25.7
				c-10.8,7.8-20,21.5-25.8,36.4l-3.5,19.9l-19.9-4.8l4.8-25.8l4.6-25.7c-10.3,7.3-19.1,20.2-25,34.2L753,247l-19.9-4.8l4.8-25.8
				l5.4-30.6l19.9,4.8l-4.4,23.6c6-11.5,13.8-21.4,23.9-28.4l19.9,4.8l-4.7,25.2c6-12.2,14.2-22.7,24.6-30l19.9,4.8l-4.8,25.8
				l-4.8,26.5c9.7-2,21-21.2,26.3-40.1L861.5,204.6z"/>
			<path fill="#474A59" d="M940.3,204.6c-6.1,18.6-16.3,42.4-34.1,42.4c-9.1,0-14.8-6.2-12.8-16.7l2.5-13.9l4.6-25.7
				c-10.3,7.3-19.1,20.2-25,34.2l-3.8,22.1l-19.9-4.8l4.8-25.8l5.4-30.6l19.9,4.8l-4.4,23.6c6-11.5,13.8-21.4,23.9-28.4l19.9,4.8
				l-4.8,25.8l-4.8,26.5c9.7-2,21-21.2,26.3-40.1L940.3,204.6z"/>
			<path fill="#474A59" d="M931.1,220.6c0-20.9,15.6-34.8,35.2-34.8c17,0,27.7,10.6,27.7,26.4c0,20.9-16.1,34.8-35.5,34.8
				C941.3,247,931.1,236.4,931.1,220.6z M967.2,242.8l9.2-52.3c0,0-3.7-1.7-10-1.7c-5.8,0-9.5,1.4-9.5,1.4l-9.1,51.7c0,0,4.4,2,11,2
				C963.9,244,967.2,242.8,967.2,242.8z"/>
			<path fill="#474A59" d="M185.7,298.9L169,391l-19.9-4.8l15.7-86.5L140.6,320l-2.4-2.8l27.6-23.2L185.7,298.9z"/>
			<path fill="#474A59" d="M215.8,358.6c4.8,0,8.5,1.2,11.5,3.1l37-52.8c-4.4-7.2-13-11.6-22.6-11.5c-13.9,0.1-25.3,9.4-25.3,21.5
				c0,2.5,0.5,4.4,0.5,4.4c1.2-6.4,5.5-8.6,9.7-8.6c6,0,9.7,4.7,9.7,10.1c0,6-4.8,10.1-10.6,10.1c-7.2,0-12.7-6.4-12.7-15.5
				c0-14.2,12.8-24.8,28.7-25c16.1-0.1,29.3,10.8,29.3,26.4c0,7.7-2.8,14.3-6.8,20l-24.5,34.9c4.6,6.2,9.6,11.9,19.6,11.9
				c11.5-0.1,19.3-7.4,19.3-16.6c0-2.3-0.5-3.7-0.5-3.7c-1.2,6.4-5.5,8.6-9.7,8.6c-6,0-9.7-4.7-9.7-10.1c0-6,4.8-10.1,10.8-10.1
				c7,0,12.5,6.4,12.5,14.9c0,11.4-9.7,20.2-22.7,20.3c-11,0-16.8-5.9-21.7-12.4c-4.6,6.2-11.4,12.2-21.8,12.4h-0.4
				c-10.8,0-18.2-6.5-18.2-16.2S204.5,358.6,215.8,358.6z M209.7,386.8l15.5-22.1c-2.8-1.7-5.9-2.8-10-2.8
				c-8.8,0-14.8,5.2-14.8,12.8C200.5,380.6,203.9,385.1,209.7,386.8z"/>
			<path fill="#474A59" d="M303.4,355.8c6,0,10.8,4.1,10.8,10.1c0,5.4-3.7,10.1-9.7,10.1c-4.2,0-8.5-2.3-9.7-8.6
				c0,0-0.5,1.4-0.5,3.7c0,9.1,8.6,16.4,23,16.6c3.7,0,5.3-0.5,5.3-0.5l8.8-47.5h-20.9v-3.1H332l6.7-36.1c0,0-4.8-2.9-12.7-2.9
				c-8.6,0-15.7,3.1-19.4,8.2c0.8-0.2,1.7-0.4,2.6-0.4c5.5,0,10,4.4,10,10c0,5.6-4.4,10.1-10.1,10.1c-5.5,0-10-4.2-10-10.9
				c0-10.4,10.3-20,27.1-20c16.8,0,27.7,8.8,27.7,21.8c0,10.2-7.2,19-17.9,21.7c10,2.4,16.4,12.6,16,25.1c-0.6,16.8-14.6,28-34.1,28
				c-17.5-0.1-27-9.2-27-20.3C290.9,362.2,296.5,355.8,303.4,355.8z"/>
			<path fill="#474A59" d="M358.7,353.9l46.6-59.3l0.1-0.2l19.8,4.8L415,353.9h15l-0.6,3.6h-15l-6.2,33.5l-19.9-4.8l5.3-28.7h-34.8
				V353.9z M394.3,353.9l9.6-51.8l-40.6,51.8H394.3z"/>
			<path fill="#474A59" d="M447.9,355.8c6,0,10.8,4.1,10.8,10.1c0,5.4-3.7,10.1-9.7,10.1c-4.2,0-8.5-2.3-9.7-8.6
				c0,0-0.5,1.4-0.5,3.7c0,9.1,8.6,16.4,23,16.6c3.7,0,5.3-0.5,5.3-0.5l9.2-51.2h-32.2l8.4-40.7h52.1l-0.6,3.6h-31.4l-6.8,33.5h5.2
				c15.8,0,26.2,11.3,25.6,28.3c-0.5,16.8-14.6,30.4-34.1,30.4c-17.5-0.1-27-9.2-27-20.3C435.4,362.2,440.9,355.8,447.9,355.8z"/>
			<path fill="#474A59" d="M550.9,294.6c15.8,0,26.5,10.9,26.5,20.6c0,6.2-4.4,10.7-10,10.7c-5.5,0-10-4.4-10-10.1
				c0-5.5,4.4-10,10-10c1.1,0,2,0.1,3,0.5c-4.1-5.2-10.8-8.6-19.7-8.6c-7.7,0-12.2,2.6-12.2,2.6l-7,36.6c0,0,3.7-2.4,10.7-2.4
				c16.1,0,26.9,10.4,26.9,26c0,18.2-14.8,30.4-32.3,30.4c-20.3,0-30.7-16.4-30.7-38.4C506.1,324.5,524.8,294.6,550.9,294.6z
				 M536.1,388c4.7,0,7.8-1,7.8-1l8.9-47.2c0,0-4.6-2.3-10.8-2.3c-7.3,0-11,3-11,3l-8.3,43.6C522.7,384.1,527.7,388,536.1,388z"/>
			<path fill="#474A59" d="M582.2,294.4l56.5,0.1l-13.1,35.9h9.2v3.2h-10.4l-21,57.6l-19.9-4.8l19.2-52.8h-14.5v-3.2h15.7l12-32.9
				h-33.7V294.4z"/>
			<path fill="#474A59" d="M661.5,336.6l-3.1-5.4c-2.3-4.4-3.5-8.8-3.5-13.9c0-13.7,9.1-22.8,22-22.9c12.5-0.1,21.5,8.2,21.5,19.7
				c0,9.4-6,17.8-15,20.6L691,348c2.4,4.2,5.4,9.6,5.4,17.4c0,15-11.8,25.4-29.3,25.6c-16.4,0.1-27.5-10.4-27.5-26.4
				C639.7,351.6,648.4,340.4,661.5,336.6z M667.1,388c13-0.1,19.4-7.4,19.4-7.4l-23.5-41.2c-12,2.8-20,12.8-20,25.2
				C643,378.7,652.6,388.1,667.1,388z M681.8,332c8.2-2.4,13.2-9.5,13.2-17.8c0-10-7.7-17-18.1-16.9c-4.9,0-9.2,1.7-12.5,4.6
				L681.8,332z"/>
			<path fill="#474A59" d="M729.6,391c-15.8,0-26.5-10.9-26.5-20.6c0-6.2,4.4-10.7,10-10.7s10,4.4,10,10.1c0,5.5-4.4,10-10,10
				c-1.1,0-2-0.1-3-0.5c4.1,5.2,10.8,8.6,19.7,8.6c7.7,0,12.2-2.6,12.2-2.6l7-36.6c0,0-3.7,2.4-10.7,2.4c-16.1,0-26.9-10.4-26.9-26
				c0-18.2,14.8-30.4,32.3-30.4c20.3,0,30.7,16.4,30.7,38.4C774.4,361.1,755.7,391,729.6,391z M744,297.6c-4.3,0-7.4,1-7.4,1
				l-8.9,47.2c0,0,4.6,2.3,10.8,2.3c7.3,0,11-3,11-3l8.3-43.6C757.8,301.4,752.8,297.6,744,297.6z"/>
			<path fill="#474A59" d="M778.1,342.7c4.4-28.9,23.2-48.1,45.7-48.1c22.3,0,33.5,19.2,29,48.1c-4.4,28.9-22.1,48.2-44.4,48.2
				C785.9,391,773.7,371.6,778.1,342.7z M820,385.8l17-84.8c0,0-4.8-3.1-13.4-3.1c-7.4,0-12.1,2.3-12.1,2.3l-16.9,84
				c0,0,6,3.6,14.8,3.6C815.8,387.7,820,385.8,820,385.8z"/>
			<path fill="#474A59" d="M358.8,523.8c0-6.2,4.9-11,11.3-11c6.2,0,11.2,4.8,11.2,11c0,6.4-4.9,11.2-11.2,11.2
				C363.7,535,358.8,530.2,358.8,523.8z M394.2,443.2l-12.4,65.4l-19.7-4.8l12.1-65.4L394.2,443.2z"/>
			<path fill="#474A59" d="M478.3,503.6l-4.1,22.3c10.3-0.8,23-11.5,23-31.1c0-20.2-18.2-37-41.6-37c-25.7,0-45.6,20.2-45.6,46.2
				c0,26.2,20,43.7,45.6,43.7c11.2,0,21.2-3.5,28.9-9l2,2.6c-8.2,6.1-19.6,9.6-30.7,9.6c-27.1,0-49.3-19.6-49.3-46.9
				c0-27.2,22.1-49.3,49.3-49.3c24.8,0,44.9,18.6,44.9,40.1c0,19.9-13.4,34.3-29.9,34.3c-5.6,0-9.5-2.2-11.2-6.1
				c-2.9,2.5-7.6,5.4-14.2,5.4c-11.4,0-19-8.3-19-20.9c0-17.2,10.3-28.7,25.7-28.7c6.2,0,10.2,2,12.7,4.1l0.8-4.6l16.4,4
				L478.3,503.6z M461.3,503.6l3.1-17.3c-2.5-2.4-7.1-5.2-14.2-4.7l-8.2,43.3c8.4,1.6,13.8-1.7,16.9-4.8c-0.1-1.4-0.1-3.1,0.2-4.8
				L461.3,503.6z"/>
			<path fill="#474A59" d="M570.5,478l-5.9,32.5h18l-0.7,3.6H564l-3.8,21.1l-3.5-0.8l3.6-20.3h-29.4l-3.8,21.1l-3.5-0.8l3.6-20.3
				h-17.4l0.7-3.6h17.4l5.9-32.5h-18.1l0.6-3.6h18.1l3.7-20.6l3.5,0.8l-3.6,19.8h29.5l3.7-20.6l3.5,0.8l-3.6,19.8h18.1l-0.7,3.6
				H570.5z M566.9,478h-29.5l-5.9,32.5H561L566.9,478z"/>
			<path fill="#474A59" d="M617.2,445.2l9.6,13.2l-2.9,2.2l-9.6-13.2l-9.6,13.2l-3-2.2l9.7-13.2l-15.7-5l1.1-3.5l15.6,5v-16.3h3.6
				v16.4l15.6-5.2l1.2,3.5L617.2,445.2z"/>
		</g>
	</g>
</g>
<g id="Layer_2">
</g>
</svg>
