<?xml version="1.0" encoding="utf-8"?>
<!-- Generator: Adobe Illustrator 19.2.1, SVG Export Plug-In . SVG Version: 6.00 Build 0)  -->
<svg version="1.1" xmlns="http://www.w3.org/2000/svg" xmlns:xlink="http://www.w3.org/1999/xlink" x="0px" y="0px"
	 viewBox="0 0 626.5 246.8" enable-background="new 0 0 626.5 246.8" xml:space="preserve">
<g id="Layer_1">
	<g>
		<path fill="#522E87" d="M67.8,2.6L64.2,19h-2l-2-12.5H28.3l-5.8,34.7l26.3-0.8l5.5-9.5h2.3L52.4,55h-2.3l-1.6-10.3l-26.4-1
			l-5.9,35.4h33.8l8.3-12.5h2l-3.4,16.1h-5.4H20.4H5.8l-5.5,0.2L0,81.1l8.5-3.2L20.2,7.7L11,4.4l0.2-1.8l10.2,0.2h10.8h30.1
			L67.8,2.6z"/>
		<path fill="#522E87" d="M126.4,64.7l-4.8,18.2l-5.3-0.2H87H75.1l-8.3,0.2l-0.2-1.8l8.6-3.2L86.8,7.7l-9.1-3.2l0.2-1.8l10,0.2h7.4
			l8.4-0.2l0.2,1.8l-9.2,3.4L82.9,79.1h31.6l9.8-14.4H126.4z"/>
		<path fill="#522E87" d="M198.9,2.6L195.3,19h-2l-2-12.5h-31.8l-5.8,34.7l26.3-0.8l5.5-9.5h2.3L183.6,55h-2.3l-1.6-10.3l-26.4-1
			l-5.9,35.4h33.8l8.3-12.5h2l-3.4,16.1h-5.4h-31.3h-14.6l-5.5,0.2l-0.2-1.8l8.5-3.2l11.6-70.2l-9.1-3.2l0.2-1.8l10.2,0.2h10.8h30.1
			L198.9,2.6z"/>
		<path fill="#522E87" d="M266.1,52.1l-4.2,25.1c1.9-0.5,3.8-1.1,5.4-1.6l0.5,2.3c-2.9,1.2-13.3,6-27.6,6
			c-27.5,0-40.8-20.3-36.7-44.6c3.5-21.1,18.7-37.6,40.7-37.6c13.9,0,24.5,3,29.3,5.2l-3.7,16.1h-1.9l-2.4-11.4
			c-4.8-2.4-14-5.5-29.2-6.1c-9.8,3-21.6,14.2-24.4,30.8c-3.7,22,6.7,43.3,32.6,43.3c2.9,0,6-0.2,9-0.7l4.4-26.4l-13.8-3.4l0.2-1.9
			l15,0.2h7.4l6.1-0.2l0.4,1.9L266.1,52.1z"/>
		<path fill="#522E87" d="M349.6,81.1l-0.4,1.8l-8.4-0.2H338l-10.2,0.2l-0.4-1.8l6.4-2.6l-5-26.3l-27.4,0.4l-12.5,25.9l8.3,2.6
			l-0.2,1.8l-12.8-0.1l-8.8,0.1l-0.4-1.8l7.8-2.9L320,6.6l-0.5-2.2l6.7-4.4l15.5,78.4L349.6,81.1z M328.1,49.3l-7.2-37.4l-17.6,36.7
			L328.1,49.3z"/>
		<path fill="#522E87" d="M436.1,7.6l-12.8,75.2l-2.9,1.1l-40.2-67.4l-8.8,61.1l10.6,3.6l-0.2,1.8l-13.1-0.2h-2.4l-10,0.2l-0.2-1.8
			l9.2-2.8L377,11.2l-2.2-3.7l-7.4-3l0.7-1.8c0,0,3.8,0.2,6.4,0.2h3.1h3.7l40.4,67.6l8.4-62.2l-10.7-3.8l0.2-1.8l14,0.2h1.1
			l10.3-0.2l0.2,1.8L436.1,7.6z"/>
		<path fill="#522E87" d="M453.2,36.2c-4,21.7,6,43.3,33.6,43.3c2.4,0,4.8-0.1,7.4-0.6l12.1-16.3l2.6,0.2l-6.4,17.4
			c-2.9,1.1-11.6,3.6-21.5,3.6c-27.1,0-40.7-20.3-36.4-44.6c3.8-21.1,18.7-37.6,40.8-37.6c13.4,0,24.1,3.2,28,4.8l-3.7,16.2h-1.9
			L505.5,11c-5.4-2.2-14.5-5-28-5.6C467.7,8.5,456.2,19.6,453.2,36.2z"/>
		<path fill="#522E87" d="M529,78l8.9,3.1l-0.2,1.8l-9.7-0.2h-7.4l-8.3,0.2l-0.2-1.8l9.1-2.9l11.6-70.6l-9.1-3.2l0.2-1.8l10.2,0.2
			h7.4l8.2-0.2l0.2,1.8l-9.1,2.9L529,78z M569.8,77.2l11.8,3.8l-0.2,1.9c0,0-6-0.2-9.8-0.2c-2.8,0-7.7,0.2-7.7,0.2l-22.7-40.1
			L573.1,7l-5.8-2.6l0.2-1.8c1.6,0,8.9,0.4,12.8,0.4c7.6,0,11-0.2,11-0.2l0.2,1.8l-11.4,3.7l-32,31.2L569.8,77.2z"/>
		<path fill="#522E87" d="M605.6,78l8.9,3.1l-0.2,1.8l-9.6-0.2h-7.4l-8.4,0.2l-0.2-1.8l9.1-2.8l11.8-70.8l-8.9-3.1l0.2-1.8l10,0.2
			h6.7l8.8-0.2l0.2,1.8l-9.1,2.9L605.6,78z"/>
		<path fill="#522E87" d="M47.6,222l8.9,3.1l-0.2,1.8l-9.6-0.2h-7.4l-8.4,0.2l-0.2-1.8l9.1-2.8l11.8-70.8l-8.9-3.1l0.2-1.8l10,0.2
			h6.7l8.8-0.2l0.2,1.8l-9.1,2.9L47.6,222z"/>
		<path fill="#522E87" d="M159.9,146.6l-3.6,16.3h-2l-2-12.5h-31.8l-5.8,34.7l26.3-0.8l5.5-9.5h2.3l-4.2,24.1h-2.3l-1.6-10.3
			l-26.4-1l-5.9,35.4h33.8l8.3-12.5h2l-3.4,16.1h-5.4h-31.3H97.8l-5.5,0.2l-0.2-1.8l8.5-3.2l11.6-70.2l-9.1-3.2l0.2-1.8l10.2,0.2
			h10.8h30.1L159.9,146.6z"/>
		<path fill="#522E87" d="M218.4,208.7l-4.8,18.2l-5.3-0.2h-29.3h-11.9l-8.3,0.2l-0.2-1.8l8.6-3.2l11.5-70.2l-9.1-3.2l0.2-1.8
			l10,0.2h7.4l8.4-0.2l0.2,1.8l-9.2,3.4L175,223.1h31.6l9.8-14.4H218.4z"/>
		<path fill="#522E87" d="M291,146.6l-3.6,16.3h-2l-2-12.5h-31.8l-5.8,34.7l26.3-0.8l5.5-9.5h2.3l-4.2,24.1h-2.3l-1.6-10.3l-26.4-1
			l-5.9,35.4h33.8l8.3-12.5h2l-3.4,16.1h-5.4h-31.3H229l-5.5,0.2l-0.2-1.8l8.5-3.2l11.6-70.2l-9.1-3.2l0.2-1.8l10.2,0.2h10.8h30.1
			L291,146.6z"/>
		<path fill="#522E87" d="M358.2,196.1l-4.2,25.1c1.9-0.5,3.8-1.1,5.4-1.6l0.5,2.3c-2.9,1.2-13.3,6-27.6,6
			c-27.5,0-40.8-20.3-36.7-44.6c3.5-21.1,18.7-37.6,40.7-37.6c13.9,0,24.5,3,29.3,5.2l-3.7,16.1h-1.9l-2.4-11.4
			c-4.8-2.4-14-5.5-29.2-6.1c-9.8,3-21.6,14.2-24.4,30.8c-3.7,22,6.7,43.3,32.6,43.3c2.9,0,6-0.2,9-0.7l4.4-26.4l-13.8-3.4l0.2-1.9
			l15,0.2h7.4l6.1-0.2l0.4,1.9L358.2,196.1z"/>
		<path fill="#522E87" d="M385.3,222l8.9,3.1l-0.2,1.8l-9.6-0.2h-7.4l-8.4,0.2l-0.2-1.8l9.1-2.8l11.8-70.8l-8.9-3.1l0.2-1.8l10,0.2
			h6.7l8.8-0.2l0.2,1.8l-9.1,2.9L385.3,222z"/>
		<path fill="#522E87" d="M431.8,151.3L420.7,218c-2.8,16.4-13.4,23.2-23.5,28.8l-1.6-2.2c10.4-8.4,15-13,17.9-30.5l10.4-62.6
			l-8.9-3.1l0.2-1.8l9.6,0.2h7.4l8.4-0.2l0.2,1.8L431.8,151.3z"/>
		<path fill="#522E87" d="M517.2,151.6l-12.8,75.2l-2.9,1.1l-40.2-67.4l-8.8,61.1l10.6,3.6l-0.2,1.8l-13.1-0.2h-2.4l-10,0.2
			l-0.2-1.8l9.2-2.8l11.6-67.2l-2.2-3.7l-7.4-3l0.7-1.8c0,0,3.8,0.2,6.4,0.2h3.1h3.7l40.4,67.6l8.4-62.2l-10.7-3.8l0.2-1.8l14,0.2
			h1.1l10.3-0.2l0.2,1.8L517.2,151.6z"/>
		<path fill="#522E87" d="M558.8,221.9l9.4,3.2l-0.2,1.8l-12.7-0.2h-2.5l-12,0.2l-0.2-1.8l10.3-3.1l5.2-30.7l-15.7-39.7l-7.9-3.1
			l0.4-1.8l9.8,0.2h2.6l10.1-0.2l0.2,1.8L548,151l14.6,36.4l23.2-35.8l-7.3-3.1l0.4-1.8l11.2,0.2h1.4l8.4-0.2l0.2,1.8l-8,3.4
			l-28.2,39.5L558.8,221.9z"/>
	</g>
</g>
<g id="Layer_2">
</g>
</svg>
