<?xml version="1.0" encoding="utf-8"?>
<!-- Generator: Adobe Illustrator 19.2.1, SVG Export Plug-In . SVG Version: 6.00 Build 0)  -->
<svg version="1.1" xmlns="http://www.w3.org/2000/svg" xmlns:xlink="http://www.w3.org/1999/xlink" x="0px" y="0px"
	 viewBox="0 0 882.1 266.5" enable-background="new 0 0 882.1 266.5" xml:space="preserve">
<g id="Layer_1">
	<g>
		<path fill="#474A59" d="M244.2,98c-10.3,1.9-20.4,2.4-30.5,1.9l-12.8-44.6L190.6,98c-10.2,1.9-20.4,2.4-30.4,1.9l-25.2-87.7
			c11.3-2.9,24.1-4.1,37.7-3.6c4.8,15.4,9.8,38.3,14.4,67.9l7.8-65.8c9.7-1.8,20.3-2.5,31.4-2.2c3.5,8.8,9.7,38.3,14.5,68.8
			c5-24.5,8.4-55.7,3.8-66c4-2.4,7.8-3.7,11.9-3.7c6.7,0,10.3,3.6,10.6,11C267.6,31.6,258.3,58.9,244.2,98z"/>
		<path fill="#474A59" d="M380.8,61.6c0,24.7-13.7,39.4-30.7,39.4c-7.1,0-12.6-2.5-17.9-7.9c0.2,11.3,0.7,20.8,1.4,26.5
			c-11.8,3.1-24.4,4-36,1.6c-0.5-16.6-1-57.4-0.4-92.4c11.2-2.5,22.8-2.4,34.9-1c-0.1,4.7-0.1,9.6-0.2,14.6
			c2.3-9.8,11.3-18.2,22.4-18.2C369.5,24.1,380.8,39.1,380.8,61.6z M346.2,64.6c0-14.5-4.4-20.9-8.6-20.9c-2,0-4.2,1.2-5.6,3
			c-0.1,13-0.1,26.5,0.1,38.6c1.1,0.5,2.2,0.7,3.4,0.7C341.6,86,346.2,79.6,346.2,64.6z"/>
		<path fill="#474A59" d="M429.8,97.2c-10.6,2.9-23.2,3.7-34.8,1.3c-0.5-8.9-0.8-27.6-0.7-47.2h-8.9c-1.2-3-1.4-6.2-1-9.7
			c12.8,0.2,28.1,0.2,45,0.4C429,64.3,429.2,87.6,429.8,97.2z M392.2,18.8c0-11.5,7.4-18.8,20.4-18.8c13.3,0,20,7.4,20,18.5
			c0,11.6-7.4,18.8-20.4,18.8C398.9,37.3,392.2,29.9,392.2,18.8z"/>
		<path fill="#474A59" d="M479.7,24.1c26.3,0,40.7,14.2,40.7,38.2c0,21-12.7,38.6-41.9,38.6c-26.3,0-40.7-14.2-40.7-38.2
			C437.8,41.8,450.4,24.1,479.7,24.1z M485.9,73.8c0-26.5-3.8-39.5-8.9-39.5c-3.2,0-4.8,5.4-4.8,16.4c0,15.1,2.3,39.8,8.9,39.8
			C484.5,90.6,485.9,85.1,485.9,73.8z"/>
		<path fill="#474A59" d="M611.2,97.2c-10.9,2.9-24.6,3.5-36.2,1.3c-0.5-13.2-0.5-34.4-0.5-44.8c0-6.5-2.4-9.1-5.9-9.1
			c-2.3,0-4.7,1.4-6.1,3.7c-0.1,19.8,0.1,40.1,0.6,48.8c-10.6,2.9-23.2,3.7-34.8,1.3c-0.6-12.5-1.1-43.3-0.4-69.8
			c11.2-2.5,22.8-2.4,34.9-1c-0.1,4.4-0.2,9.1-0.2,14c4.3-10.4,15.5-17.6,27-17.6c12.7,0,19.7,8.5,19.7,27.2
			C609.3,63.1,609.3,87,611.2,97.2z"/>
		<path fill="#474A59" d="M661.5,97.2c-10.6,2.9-23.2,3.7-34.8,1.3c-0.5-8.9-0.8-27.6-0.7-47.2h-8.9c-1.2-3-1.4-6.2-1-9.7
			c12.8,0.2,28.1,0.2,45,0.4C660.8,64.3,660.9,87.6,661.5,97.2z M623.9,18.8c0-11.5,7.4-18.8,20.4-18.8c13.3,0,20,7.4,20,18.5
			c0,11.6-7.4,18.8-20.4,18.8C630.6,37.3,623.9,29.9,623.9,18.8z"/>
		<path fill="#474A59" d="M743.7,85.6c-6.2,8.2-17.6,15.4-34.1,15.4c-25.2,0-40.1-16-40.1-38.8c0-21.5,13.1-38,40.3-38
			c23.8,0,36.1,12.4,32.8,36.4h-38.3c1.1,16.4,7.1,25,17.8,25c5.8,0,12-2.4,17.2-6.1C741.3,80.6,743.1,83,743.7,85.6z M704.1,52.3
			h9.7c1.7-16.9-1.8-19.1-4.6-19.1C705.9,33.2,704.2,37,704.1,52.3z"/>
		<path fill="#474A59" d="M45.6,241.2c-10.6,2.9-23.2,3.7-34.8,1.3c-0.5-8.9-0.8-27.6-0.7-47.2H1.2c-1.2-3-1.4-6.2-1-9.7
			c12.8,0.2,28.1,0.2,45,0.4C44.9,208.3,45,231.6,45.6,241.2z M8,162.8c0-11.5,7.4-18.8,20.4-18.8c13.3,0,20,7.4,20,18.5
			c0,11.6-7.4,18.8-20.4,18.8C14.8,181.3,8,173.9,8,162.8z"/>
		<path fill="#474A59" d="M195.2,177.5c0,8.5-7.2,33.2-18.8,65c-10.2,1.6-20.2,1.9-30.1,1.6l-10.8-40.9L125,242.5
			c-10.2,1.6-20.2,1.9-30.1,1.6l-18.6-70.7c10.8-2.3,23-3.2,36.1-2.9c2.3,7.4,6.6,33.1,10,58.9c1.9-23.6,4.2-48.1,5.3-56
			c10.8-2.3,23-3.2,36.1-2.9c2.3,7.4,6.7,33.8,10.1,59.9c4.7-20.4,6.5-49.3,2.9-58.3c3.4-1.9,6.4-3,9.7-3
			C192.2,169.1,195.2,172,195.2,177.5z"/>
		<path fill="#474A59" d="M310.8,205.6c0,24.7-13.7,39.4-30.7,39.4c-7.1,0-12.6-2.5-17.9-7.9c0.2,11.3,0.7,20.8,1.4,26.5
			c-11.8,3.1-24.4,4-36,1.6c-0.5-16.6-1-57.4-0.4-92.4c11.2-2.5,22.8-2.4,34.9-1c-0.1,4.7-0.1,9.6-0.2,14.6
			c2.3-9.8,11.3-18.2,22.4-18.2C299.5,168.1,310.8,183.1,310.8,205.6z M276.2,208.6c0-14.5-4.4-20.9-8.6-20.9c-2,0-4.2,1.2-5.6,3
			c-0.1,13-0.1,26.5,0.1,38.6c1.1,0.5,2.2,0.7,3.4,0.7C271.5,230,276.2,223.6,276.2,208.6z"/>
		<path fill="#474A59" d="M356.3,168.1c26.3,0,40.7,14.2,40.7,38.2c0,21-12.7,38.6-41.9,38.6c-26.3,0-40.7-14.2-40.7-38.2
			C314.4,185.8,327,168.1,356.3,168.1z M362.5,217.8c0-26.5-3.8-39.5-8.9-39.5c-3.2,0-4.8,5.4-4.8,16.4c0,15.1,2.3,39.8,8.9,39.8
			C361.1,234.6,362.5,229.1,362.5,217.8z"/>
		<path fill="#474A59" d="M470.6,242.5h-66.5c-1.8-1.9-3.4-5.3-4-7.7c10-19.8,20.8-39.1,31.8-58.2l-27.7,11.6
			c-2.3-4.4-3.6-12.7-2.8-17.8c22.1-0.7,43.9-0.6,65.6,0c2,2,3.5,4.7,4,7.7c-9.5,19-19.7,37.4-30.4,55.7l30.8-8.6
			C473.4,229.8,472.7,238.1,470.6,242.5z"/>
		<path fill="#474A59" d="M521.3,241.2c-10.6,2.9-23.2,3.7-34.8,1.3c-0.5-8.9-0.8-27.6-0.7-47.2h-8.9c-1.2-3-1.4-6.2-1-9.7
			c12.8,0.2,28.1,0.2,45,0.4C520.5,208.3,520.7,231.6,521.3,241.2z M483.7,162.8c0-11.5,7.4-18.8,20.4-18.8c13.3,0,20,7.4,20,18.5
			c0,11.6-7.4,18.8-20.4,18.8C490.4,181.3,483.7,173.9,483.7,162.8z"/>
		<path fill="#474A59" d="M571.2,168.1c26.3,0,40.7,14.2,40.7,38.2c0,21-12.7,38.6-41.9,38.6c-26.3,0-40.7-14.2-40.7-38.2
			C529.3,185.8,541.9,168.1,571.2,168.1z M577.4,217.8c0-26.5-3.8-39.5-8.9-39.5c-3.2,0-4.8,5.4-4.8,16.4c0,15.1,2.3,39.8,8.9,39.8
			C576,234.6,577.4,229.1,577.4,217.8z"/>
		<path fill="#474A59" d="M749.6,241.2c-10.9,2.9-24.6,3.5-36.2,1.3c-0.5-13.2-0.5-34.4-0.5-44.8c0-6.5-2.4-9.1-5.9-9.1
			c-2.4,0-4.9,1.7-6.2,4.1v2.6c0,11.8,0,35.6,1.9,45.8c-10.9,2.9-24.6,3.5-36.2,1.3c-0.5-13.2-0.5-34.4-0.5-44.8
			c0-6.5-2.4-9.1-5.9-9.1c-2.3,0-4.7,1.4-6.1,3.7c-0.1,19.8,0.1,40.1,0.6,48.8c-10.6,2.9-23.2,3.7-34.8,1.3
			c-0.6-12.5-1.1-43.3-0.4-69.8c11.2-2.5,22.8-2.4,34.9-1c-0.1,4.4-0.2,9.1-0.2,14c4.3-10.4,15.5-17.6,27-17.6
			c10.8,0,17.4,6.1,19.2,19.4c3.8-11.4,15.6-19.4,27.7-19.4c12.7,0,19.7,8.5,19.7,27.2C747.7,207.1,747.7,231,749.6,241.2z"/>
		<path fill="#474A59" d="M799.9,241.2c-10.6,2.9-23.2,3.7-34.8,1.3c-0.5-8.9-0.8-27.6-0.7-47.2h-8.9c-1.2-3-1.4-6.2-1-9.7
			c12.8,0.2,28.1,0.2,45,0.4C799.2,208.3,799.3,231.6,799.9,241.2z M762.3,162.8c0-11.5,7.4-18.8,20.4-18.8c13.3,0,20,7.4,20,18.5
			c0,11.6-7.4,18.8-20.4,18.8C769.1,181.3,762.3,173.9,762.3,162.8z"/>
		<path fill="#474A59" d="M882.1,229.6c-6.2,8.2-17.6,15.4-34.1,15.4c-25.2,0-40.1-16-40.1-38.8c0-21.5,13.1-38,40.3-38
			c23.8,0,36.1,12.4,32.8,36.4h-38.3c1.1,16.4,7.1,25,17.8,25c5.8,0,12-2.4,17.2-6.1C879.7,224.6,881.5,227,882.1,229.6z
			 M842.5,196.3h9.7c1.7-16.9-1.8-19.1-4.6-19.1C844.3,177.2,842.6,181,842.5,196.3z"/>
	</g>
</g>
<g id="Layer_2">
</g>
</svg>
