<?xml version="1.0" encoding="utf-8"?>
<!-- Generator: Adobe Illustrator 19.2.1, SVG Export Plug-In . SVG Version: 6.00 Build 0)  -->
<svg version="1.1" xmlns="http://www.w3.org/2000/svg" xmlns:xlink="http://www.w3.org/1999/xlink" x="0px" y="0px"
	 viewBox="0 0 1033.1 267.7" enable-background="new 0 0 1033.1 267.7" xml:space="preserve">
<g id="Layer_1">
	<g>
		<path fill="#474A59" d="M267.1,75.8c2.5,1.7,4.7,4.7,5.5,7.9c-7.6,9.6-20.4,17.2-38.8,17.2c-28.7,0-45.6-19.6-45.6-47.4
			c0-28.4,19.1-44.8,48.1-44.8c23.6,0,35.3,10.4,35.4,21.1c0,11.5-13.8,20.5-27.8,16.8c2.8-17.2-2.9-26.6-9.2-26.6
			c-5.5,0-10.7,6.6-10.7,24.1c0,27.7,7.9,39.5,23,39.5C254.2,83.6,261.6,80.5,267.1,75.8z"/>
		<path fill="#474A59" d="M344.8,98.5h-66.5c-1.8-1.9-3.4-5.3-4-7.7c10-19.8,20.8-39.1,31.8-58.2l-27.7,11.6
			c-2.3-4.4-3.6-12.7-2.8-17.8c22.1-0.7,43.9-0.6,65.6,0c2,2,3.5,4.7,4,7.7c-9.5,19-19.7,37.4-30.4,55.7l30.8-8.6
			C347.5,85.8,346.8,94.1,344.8,98.5z"/>
		<path fill="#474A59" d="M421.6,36.5c-0.4,10.7-8.5,39.5-16.7,57.4c-8.6,18.1-19.7,29.8-33.6,29.9c-15.2,0.1-24.4-14.3-19.2-30.1
			c16.6,5.3,35.5,4.6,42.1,0.7c-8.6-0.4-16.4-1.2-24-2.6l-20.6-62.3c10.9-2.3,23.2-3.2,36.2-2.9l13.8,61c6.6-23.4,5.5-49.9,1.3-59.4
			c3.4-1.8,6.7-2.5,9.7-2.5C419.4,25.6,421.8,30.1,421.6,36.5z"/>
		<path fill="#474A59" d="M486.7,87.5C482,94.8,473,101,459.4,101c-18.5,0-27.8-11.5-27.8-31.4V41.9c-2.3,0.2-4.6,0.4-6.7,0.6
			c-1.2-3-1.4-6.2-1-9.7l9.7-0.7c2-8,4.7-15.8,7.1-21c7.8-2.5,18.2-2.5,26.2-1c-0.2,6.8-0.4,14-0.5,21.1c5.9-0.1,11.9-0.2,18.1-0.5
			c0.8,3.1,1,6.4,0,9.8c-6.2-0.2-12.4-0.4-18.1-0.2c-0.1,12-0.1,23.8,0,33.8c0.1,8.2,2.8,11.6,7.7,11.6c2.8,0,5.4-1.1,7.9-3.5
			C484,83.2,486.2,85.3,486.7,87.5z"/>
		<path fill="#474A59" d="M564.8,85.6c-6.2,8.2-17.6,15.4-34.1,15.4c-25.2,0-40.1-16-40.1-38.8c0-21.5,13.1-38,40.3-38
			c23.8,0,36.1,12.4,32.8,36.4h-38.3c1.1,16.4,7.1,25,17.8,25c5.8,0,12-2.4,17.2-6.1C562.4,80.6,564.2,83,564.8,85.6z M525.2,52.3
			h9.7c1.7-16.9-1.8-19.1-4.6-19.1C527,33.2,525.4,37,525.2,52.3z"/>
		<path fill="#474A59" d="M606.4,97.2c-10.6,2.9-23.2,3.7-34.8,1.3c-0.7-15.6-0.8-54.2-0.1-87.5c6.2-1.4,12.6-2,19.2-2
			c5.2,0,10.4,0.4,15.7,1.1C605.5,43.1,605.6,82.2,606.4,97.2z"/>
		<path fill="#474A59" d="M699.7,97.2c-10.9,2.9-24.6,3.5-36.2,1.3C663,85.3,663,64.1,663,53.8c0-6.5-2.4-9.1-5.9-9.1
			c-2.3,0-4.7,1.4-6.1,3.7c-0.1,19.8,0.1,40.1,0.6,48.8c-10.6,2.9-23.2,3.7-34.8,1.3c-0.6-12.5-1.1-43.3-0.4-69.8
			c11.2-2.5,22.8-2.4,34.9-1c-0.1,4.4-0.2,9.1-0.2,14c4.3-10.4,15.5-17.6,27-17.6c12.7,0,19.7,8.5,19.7,27.2
			C697.8,63.1,697.8,87,699.7,97.2z"/>
		<path fill="#474A59" d="M750,97.2c-10.6,2.9-23.2,3.7-34.8,1.3c-0.5-8.9-0.8-27.6-0.7-47.2h-8.9c-1.2-3-1.4-6.2-1-9.7
			c12.8,0.2,28.1,0.2,45,0.4C749.3,64.3,749.4,87.6,750,97.2z M712.4,18.8c0-11.5,7.4-18.8,20.4-18.8c13.3,0,20,7.4,20,18.5
			c0,11.6-7.4,18.8-20.4,18.8C719.2,37.3,712.4,29.9,712.4,18.8z"/>
		<path fill="#474A59" d="M822.2,100.8c-16.3-0.1-23.8-18-24.6-34.3c-0.6,0-1.1,0.1-1.7,0.1c0.1,13.1,0.2,24.1,0.6,30.6
			c-10.6,2.9-23.2,3.7-34.8,1.3c-0.7-15.6-0.8-54.2-0.1-87.5c6.2-1.4,12.6-2,19.2-2c5.2,0,10.4,0.4,15.7,1.1
			c-0.5,16.8-0.6,35.3-0.6,51.2c12.6-1.1,16.9-15.4,13.3-31c6.8-4.3,21.5-6.6,29.2-3.8c5,21.7-9.7,35.5-32.4,39.1
			c6.4,4.2,21.7,4.2,33-2.4C847.9,76.8,841.3,100.9,822.2,100.8z"/>
		<path fill="#474A59" d="M91.7,182c0,23.3-22,38.6-53.8,33.4c0.1,10.9,0.4,20.2,0.6,25.8c-10.9,2.9-24,3.7-36,1.3
			c-0.4-7.9-0.6-22.2-0.6-38.6c0-31.1-0.7-39.7-1.9-43.2c15.7-4.9,31.4-7.7,47-7.7C76.1,153,91.7,162.4,91.7,182z M55.6,184.6
			c0-12.7-5.2-19.1-12.6-19.1c-1.6,0-3.4,0.2-4.7,0.6c-0.2,13.2-0.4,27.1-0.4,39.5C49.1,205.3,55.6,199,55.6,184.6z"/>
		<path fill="#474A59" d="M140.2,241.2c-10.6,2.9-23.2,3.7-34.8,1.3c-0.5-8.9-0.8-27.6-0.7-47.2h-8.9c-1.2-3-1.4-6.2-1-9.7
			c12.8,0.2,28.1,0.2,45,0.4C139.4,208.3,139.6,231.6,140.2,241.2z M102.6,162.8c0-11.5,7.4-18.8,20.4-18.8c13.3,0,20,7.4,20,18.5
			c0,11.6-7.4,18.8-20.4,18.8C109.3,181.3,102.6,173.9,102.6,162.8z"/>
		<path fill="#474A59" d="M144.5,185.6c12.8,0.2,28.1,0.2,45,0.4c0,15.1-0.1,29.9-0.1,45.6c0,24.6-10.8,36.1-26.9,36.1
			c-3.5,0-7.3-0.6-11.3-1.7c2.4-6.1,3.2-12.1,3.2-28.3c0-13.9,0-28.1,0.1-42.4h-9.1C144.2,192.4,144,189.1,144.5,185.6z
			 M152.4,162.8c0-11.5,7.4-18.8,20.4-18.8c13.3,0,20,7.4,20,18.5c0,11.6-7.4,18.8-20.4,18.8C159.1,181.3,152.4,173.9,152.4,162.8z"
			/>
		<path fill="#474A59" d="M277.8,241c-10.2,3.7-24.6,4.1-36,1.6c-0.4-3.6-0.6-7.2-0.7-13.7c-3.7,10.7-14.6,16.1-23.8,16.1
			c-11.8,0-20.9-8.2-20.9-20.6c0-13.3,11.4-22,28-22c6.5,0,12.1,1.1,16.6,2.9V203c0-20.4-3.4-25-7-25c-4.6,0-9.2,7-9.4,19
			c-16.8-0.1-24.1-7.1-24.1-13c0-7.6,12.1-16,39.1-16c23.8,0,36.1,11,36.1,35.5C275.8,224,276.2,235.4,277.8,241z M241,219v-6.5
			c-1.4-0.5-3-0.8-4.4-0.8c-4.8,0-7.8,3.1-7.8,7.6c0,3.7,1.9,6.5,5.3,6.5C237,225.7,240.2,223.7,241,219z"/>
		<path fill="#474A59" d="M346.8,244.8c-16.3-0.1-23.8-18-24.6-34.3c-0.6,0-1.1,0.1-1.7,0.1c0.1,13.1,0.2,24.1,0.6,30.6
			c-10.6,2.9-23.2,3.7-34.8,1.3c-0.7-15.6-0.8-54.2-0.1-87.5c6.2-1.4,12.6-2,19.2-2c5.2,0,10.4,0.4,15.7,1.1
			c-0.5,16.8-0.6,35.3-0.6,51.2c12.6-1.1,16.9-15.4,13.3-31c6.8-4.3,21.5-6.6,29.2-3.8c5,21.7-9.7,35.5-32.4,39.1
			c6.4,4.2,21.7,4.2,33-2.4C372.5,220.8,365.9,244.9,346.8,244.8z"/>
		<path fill="#474A59" d="M440.2,241.2c-10.6,2.9-23.2,3.7-34.8,1.3c-0.5-8.9-0.8-27.6-0.7-47.2h-8.9c-1.2-3-1.4-6.2-1-9.7
			c12.8,0.2,28.1,0.2,45,0.4C439.4,208.3,439.6,231.6,440.2,241.2z M402.6,162.8c0-11.5,7.4-18.8,20.4-18.8c13.3,0,20,7.4,20,18.5
			c0,11.6-7.4,18.8-20.4,18.8C409.3,181.3,402.6,173.9,402.6,162.8z"/>
		<path fill="#474A59" d="M550.3,242.5h-73.8c-2-2.4-3.7-6.5-4.4-9.5c12.2-23.6,24.8-46.7,38-69.7l-32.3,10.1
			c-2.5-4.8-4.1-14-3.1-19.6c24.6-0.8,48.8-0.7,73,0c2.3,2.4,3.8,5.6,4.4,9.2c-12,23-24.2,45.7-37.1,68.3l36.4-7.8
			C553.4,228.6,552.6,237.6,550.3,242.5z"/>
		<path fill="#474A59" d="M597.8,241.2c-10.6,2.9-23.2,3.7-34.8,1.3c-0.2-5.6-0.5-14.2-0.5-24.4l-4.6,3.5c-2.6-1.8-4.4-4.4-6-7.7
			c3.2-2.6,6.7-5.2,10.4-7.8c0-16,0.1-34.2,0.5-51.1c6.2-1.4,12.6-2,19.2-2c5.2,0,10.4,0.4,15.7,1.1c-0.2,8.5-0.4,17.4-0.5,26.3
			l5-3.5c2.3,2.2,4.3,4.8,5.3,8.3c-3.7,2-7.2,4.2-10.4,6.2C597.1,212.5,597.3,231.7,597.8,241.2z"/>
		<path fill="#474A59" d="M649.3,168.1c26.3,0,40.7,14.2,40.7,38.2c0,21-12.7,38.6-41.9,38.6c-26.3,0-40.7-14.2-40.7-38.2
			C607.4,185.8,620,168.1,649.3,168.1z M655.5,217.8c0-26.5-3.8-39.5-8.9-39.5c-3.2,0-4.8,5.4-4.8,16.4c0,15.1,2.3,39.8,8.9,39.8
			C654.1,234.6,655.5,229.1,655.5,217.8z"/>
		<path fill="#474A59" d="M778.2,241c-10.6,3.7-24.2,4.1-36,1.6l-0.4-13.8c-3,9-11.4,16.2-21.8,16.2c-15.1,0-26.4-15-26.4-37.4
			c0-24.7,13.7-39.4,30.7-39.4c6.8,0,12.2,2.4,17.4,7.4c0-8,0.1-15.2,0.4-20.5c11.5-2.5,22.4-2.5,34.9-1c-0.4,15.4-0.6,32-0.6,47.2
			C776.4,211.6,776.5,232,778.2,241z M741.7,223.1c-0.1-11.8-0.1-26.4-0.1-39.6c-0.8-0.4-1.7-0.5-2.6-0.5c-6.1,0-10.8,6.5-10.8,21.5
			c0,14.5,4.4,20.9,8.6,20.9C738.5,225.4,740.4,224.4,741.7,223.1z"/>
		<path fill="#474A59" d="M852.6,242.5h-66.5c-1.8-1.9-3.4-5.3-4-7.7c10-19.8,20.8-39.1,31.8-58.2l-27.7,11.6
			c-2.3-4.4-3.6-12.7-2.8-17.8c22.1-0.7,43.9-0.6,65.6,0c2,2,3.5,4.7,4,7.7c-9.5,19-19.7,37.4-30.4,55.7l30.8-8.6
			C855.3,229.8,854.6,238.1,852.6,242.5z"/>
		<path fill="#474A59" d="M903.2,241.2c-10.6,2.9-23.2,3.7-34.8,1.3c-0.5-8.9-0.8-27.6-0.7-47.2h-8.9c-1.2-3-1.4-6.2-1-9.7
			c12.8,0.2,28.1,0.2,45,0.4C902.5,208.3,902.6,231.6,903.2,241.2z M865.7,162.8c0-11.5,7.4-18.8,20.4-18.8c13.3,0,20,7.4,20,18.5
			c0,11.6-7.4,18.8-20.4,18.8C872.4,181.3,865.7,173.9,865.7,162.8z"/>
		<path fill="#474A59" d="M985.4,229.6c-6.2,8.2-17.6,15.4-34.1,15.4c-25.2,0-40.1-16-40.1-38.8c0-21.5,13.1-38,40.3-38
			c23.8,0,36.1,12.4,32.8,36.4h-38.3c1.1,16.4,7.1,25,17.8,25c5.8,0,12-2.4,17.2-6.1C983,224.6,984.8,227,985.4,229.6z M945.8,196.3
			h9.7c1.7-16.9-1.8-19.1-4.6-19.1C947.6,177.2,945.9,181,945.8,196.3z"/>
		<path fill="#474A59" d="M984.7,185.6c12.8,0.2,28.1,0.2,45,0.4c0,15.1-0.1,29.9-0.1,45.6c0,24.6-10.8,36.1-26.9,36.1
			c-3.5,0-7.3-0.6-11.3-1.7c2.4-6.1,3.2-12.1,3.2-28.3c0-13.9,0-28.1,0.1-42.4h-9.1C984.5,192.4,984.2,189.1,984.7,185.6z
			 M992.6,162.8c0-11.5,7.4-18.8,20.4-18.8c13.3,0,20,7.4,20,18.5c0,11.6-7.4,18.8-20.4,18.8C999.3,181.3,992.6,173.9,992.6,162.8z"
			/>
	</g>
</g>
<g id="Layer_2">
</g>
</svg>
