<?xml version="1.0" encoding="utf-8"?>
<!-- Generator: Adobe Illustrator 19.2.1, SVG Export Plug-In . SVG Version: 6.00 Build 0)  -->
<svg version="1.1" xmlns="http://www.w3.org/2000/svg" xmlns:xlink="http://www.w3.org/1999/xlink" x="0px" y="0px"
	 viewBox="0 0 1127.3 259.1" enable-background="new 0 0 1127.3 259.1" xml:space="preserve">
<g id="Layer_1">
	<g>
		<path fill="#474A59" d="M330.2,90.4c-11,0.7-23.5,0.2-37.4-0.5c-2.4-5.4-4.9-11.4-7.4-18.1l-21.1,0.8c-1.7,6.4-3.2,12.2-4.3,17.3
			c-5,0.6-9.6,0.6-15.5,0c1.4-4.8,3.4-10.4,5.6-16.8c-8.8,0-13.2-4.2-12.6-12.4c2.4-0.2,5-0.4,17,0.2c4.7-12.4,10-25.7,14.9-37.8
			c-3.4-6.5-8.4-9.4-13.2-10c2.9-7.8,12.4-13.2,24-13.2s20.4,5.2,23.8,15.6C317,57,323.4,74.9,330.2,90.4z M282,62.5
			c-2.5-7.4-5.2-15.6-7.9-24.6c-2.3,7.9-4.7,16-6.8,23.8C271.6,61.9,276.4,62.2,282,62.5z"/>
		<path fill="#474A59" d="M420.2,52.9c0,24.7-13.7,39.4-30.7,39.4c-7.1,0-12.6-2.5-17.9-7.9c0.2,11.3,0.7,20.8,1.4,26.5
			c-11.8,3.1-24.4,4-36,1.6c-0.5-16.6-1-57.4-0.4-92.4c11.2-2.5,22.8-2.4,34.9-1c-0.1,4.7-0.1,9.6-0.2,14.6
			c2.3-9.8,11.3-18.2,22.4-18.2C409,15.5,420.2,30.5,420.2,52.9z M385.7,55.9c0-14.5-4.4-20.9-8.6-20.9c-2,0-4.2,1.2-5.6,3
			c-0.1,13-0.1,26.5,0.1,38.6c1.1,0.5,2.2,0.7,3.4,0.7C381,77.4,385.7,70.9,385.7,55.9z"/>
		<path fill="#474A59" d="M495,31.9c0,5.5-1.4,12.2-4.8,19.6c-7-3.8-20.3-3.5-27.8,1.2c0,15.6,0.1,28.7,0.6,35.9
			c-10.6,2.9-23.2,3.7-34.8,1.3c-0.6-12.5-1.1-43.3-0.4-69.8c11.2-2.5,22.8-2.4,34.9-1c-0.2,9.1-0.4,18-0.4,26.4
			c3.6-19.9,11.9-30,21.4-30C490.3,15.5,495,21.8,495,31.9z"/>
		<path fill="#474A59" d="M538.9,15.5c26.3,0,40.7,14.2,40.7,38.2c0,21-12.7,38.6-41.9,38.6c-26.3,0-40.7-14.2-40.7-38.2
			C497,33.1,509.6,15.5,538.9,15.5z M545.2,65.2c0-26.5-3.8-39.5-8.9-39.5c-3.2,0-4.8,5.4-4.8,16.4c0,15.1,2.3,39.8,8.9,39.8
			C543.7,82,545.2,76.4,545.2,65.2z"/>
		<path fill="#474A59" d="M670.7,52.9c0,24.7-13.7,39.4-30.7,39.4c-7.1,0-12.6-2.5-17.9-7.9c0.2,11.3,0.7,20.8,1.4,26.5
			c-11.8,3.1-24.4,4-36,1.6c-0.5-16.6-1-57.4-0.4-92.4c11.2-2.5,22.8-2.4,34.9-1c-0.1,4.7-0.1,9.6-0.2,14.6
			c2.3-9.8,11.3-18.2,22.4-18.2C659.4,15.5,670.7,30.5,670.7,52.9z M636.1,55.9c0-14.5-4.4-20.9-8.6-20.9c-2,0-4.2,1.2-5.6,3
			c-0.1,13-0.1,26.5,0.1,38.6c1.1,0.5,2.2,0.7,3.4,0.7C631.4,77.4,636.1,70.9,636.1,55.9z"/>
		<path fill="#474A59" d="M755.6,88.3c-10.2,3.7-24.6,4.1-36,1.6c-0.4-3.6-0.6-7.2-0.7-13.7c-3.7,10.7-14.6,16.1-23.8,16.1
			c-11.8,0-20.9-8.2-20.9-20.6c0-13.3,11.4-22,28-22c6.5,0,12.1,1.1,16.6,2.9v-2.2c0-20.4-3.4-25-7-25c-4.6,0-9.2,7-9.4,19
			c-16.8-0.1-24.1-7.1-24.1-13c0-7.6,12.1-16,39.1-16c23.8,0,36.1,11,36.1,35.5C753.6,71.4,754.1,82.8,755.6,88.3z M718.8,66.4v-6.5
			c-1.4-0.5-3-0.8-4.4-0.8c-4.8,0-7.8,3.1-7.8,7.6c0,3.7,1.9,6.5,5.3,6.5C714.8,73.1,718.1,71,718.8,66.4z"/>
		<path fill="#474A59" d="M798.9,88.6c-10.6,2.9-23.2,3.7-34.8,1.3c-0.7-15.6-0.8-54.2-0.1-87.5c6.2-1.4,12.6-2,19.2-2
			c5.2,0,10.4,0.4,15.7,1.1C798.1,34.4,798.2,73.6,798.9,88.6z"/>
		<path fill="#474A59" d="M829.9,43.6H885c0.8,3,1,7.3,0,12.1h-54.7C829.3,52,828.9,48.4,829.9,43.6z"/>
		<path fill="#474A59" d="M84.6,232.3c-10.6,3.7-24.2,4.1-36,1.6l-0.4-13.8c-3,9-11.4,16.2-21.8,16.2c-15.1,0-26.4-15-26.4-37.4
			c0-24.7,13.7-39.4,30.7-39.4c6.8,0,12.2,2.4,17.4,7.4c0-8,0.1-15.2,0.4-20.5c11.5-2.5,22.4-2.5,34.9-1c-0.4,15.4-0.6,32-0.6,47.2
			C82.8,202.9,82.9,223.3,84.6,232.3z M48.1,214.4C48,202.7,48,188,48,174.8c-0.8-0.4-1.7-0.5-2.6-0.5c-6.1,0-10.8,6.5-10.8,21.5
			c0,14.5,4.4,20.9,8.6,20.9C44.9,216.7,46.8,215.8,48.1,214.4z"/>
		<path fill="#474A59" d="M160.1,175.9c0,5.5-1.4,12.2-4.8,19.6c-7-3.8-20.3-3.5-27.8,1.2c0,15.6,0.1,28.7,0.6,35.9
			c-10.6,2.9-23.2,3.7-34.8,1.3c-0.6-12.5-1.1-43.3-0.4-69.8c11.2-2.5,22.8-2.4,34.9-1c-0.2,9.1-0.4,18-0.4,26.4
			c3.6-19.9,11.9-30,21.4-30C155.4,159.5,160.1,165.8,160.1,175.9z"/>
		<path fill="#474A59" d="M204,159.5c26.3,0,40.7,14.2,40.7,38.2c0,21-12.7,38.6-41.9,38.6c-26.3,0-40.7-14.2-40.7-38.2
			C162.1,177.1,174.7,159.5,204,159.5z M210.2,209.2c0-26.5-3.8-39.5-8.9-39.5c-3.2,0-4.8,5.4-4.8,16.4c0,15.1,2.3,39.8,8.9,39.8
			C208.8,226,210.2,220.4,210.2,209.2z"/>
		<path fill="#474A59" d="M335,196.9c0,24.7-13.7,39.4-31.2,39.4c-7.4,0-14.3-2.4-20.2-7.1c-0.7,2-1.7,3.4-2.9,4.6
			c-9,1.8-19.4,1.9-29.5,0.1c0.2-15.6,0.1-54.2,0.6-87.5c11.2-2.5,22.8-2.5,34.9-1c-0.2,10.4-0.5,21.5-0.5,32.2
			c2.3-9.8,11.2-18.1,22.3-18.1C323.8,159.5,335,174.5,335,196.9z M300.5,200.8c0-14.5-4.4-20.9-8.6-20.9c-1.9,0-4.2,1.2-5.6,2.9
			v10.1c0,13.6-0.2,22.4-1,28.4c1.4,0.6,3,1,4.4,1C295.8,222.2,300.5,215.8,300.5,200.8z"/>
		<path fill="#474A59" d="M425.9,232.6c-10.9,2.9-24.6,3.5-36.2,1.3c-0.5-13.2-0.5-34.4-0.5-44.8c0-6.5-2.4-9.1-5.9-9.1
			c-2.3,0-4.7,1.4-6.1,3.7c-0.1,19.8,0.1,40.1,0.6,48.8c-10.6,2.9-23.2,3.7-34.8,1.3c-0.6-12.5-1.1-43.3-0.4-69.8
			c11.2-2.5,22.8-2.4,34.9-1c-0.1,4.4-0.2,9.1-0.2,14c4.3-10.4,15.5-17.6,27-17.6c12.7,0,19.7,8.5,19.7,27.2
			C424,198.5,424,222.4,425.9,232.6z"/>
		<path fill="#474A59" d="M502.3,171.8c-0.4,10.7-8.5,39.5-16.7,57.4C477,247.3,466,259,452,259.1c-15.2,0.1-24.4-14.3-19.2-30.1
			c16.6,5.3,35.5,4.6,42.1,0.7c-8.6-0.4-16.4-1.2-24-2.6l-20.6-62.3c10.9-2.3,23.2-3.2,36.2-2.9l13.8,61c6.6-23.4,5.5-49.9,1.3-59.4
			c3.4-1.8,6.7-2.5,9.7-2.5C500.2,160.9,502.6,165.5,502.3,171.8z"/>
		<path fill="#474A59" d="M598.7,214.7c2,1.3,3.8,3.7,4.4,6.2c-6.2,8.2-17.6,15.4-34.1,15.4c-25.2,0-40.1-16-40.1-38.8
			c0-24.1,16.4-38,42.7-38c20,0,30.6,9.7,30.6,18.5c0,8.9-10.7,14.6-22.2,13.4c-0.2-17-4.2-22.8-8.9-22.8c-4.6,0-7.7,5.6-7.7,21
			c0,22,6.6,31.2,18,31.2C587.3,220.8,593.6,218.5,598.7,214.7z"/>
		<path fill="#474A59" d="M723.1,168.8c0,8.5-7.2,33.2-18.8,65c-10.2,1.6-20.2,1.9-30.1,1.6l-10.8-40.9l-10.4,39.4
			c-10.2,1.6-20.2,1.9-30.1,1.6l-18.6-70.7c10.8-2.3,23-3.2,36.1-2.9c2.3,7.4,6.6,33.1,10,58.9c1.9-23.6,4.2-48.1,5.3-56
			c10.8-2.3,23-3.2,36.1-2.9c2.3,7.4,6.7,33.8,10.1,59.9c4.7-20.4,6.5-49.3,2.9-58.3c3.4-1.9,6.4-3,9.7-3
			C720.1,160.4,723.1,163.3,723.1,168.8z"/>
		<path fill="#474A59" d="M805.9,232.3c-10.2,3.7-24.6,4.1-36,1.6c-0.4-3.6-0.6-7.2-0.7-13.7c-3.7,10.7-14.6,16.1-23.8,16.1
			c-11.8,0-20.9-8.2-20.9-20.6c0-13.3,11.4-22,28-22c6.5,0,12.1,1.1,16.6,2.9v-2.2c0-20.4-3.4-25-7-25c-4.6,0-9.2,7-9.4,19
			c-16.8-0.1-24.1-7.1-24.1-13c0-7.6,12.1-16,39.1-16c23.8,0,36.1,11,36.1,35.5C803.9,215.4,804.4,226.8,805.9,232.3z M769.1,210.4
			v-6.5c-1.4-0.5-3-0.8-4.4-0.8c-4.8,0-7.8,3.1-7.8,7.6c0,3.7,1.9,6.5,5.3,6.5C765.1,217.1,768.4,215,769.1,210.4z"/>
		<path fill="#474A59" d="M897.9,232.6c-10.9,2.9-24.6,3.5-36.2,1.3c-0.5-13.2-0.5-34.4-0.5-44.8c0-6.5-2.4-9.1-5.9-9.1
			c-2.3,0-4.7,1.4-6.1,3.7c-0.1,19.8,0.1,40.1,0.6,48.8c-10.6,2.9-23.2,3.7-34.8,1.3c-0.6-12.5-1.1-43.3-0.4-69.8
			c11.2-2.5,22.8-2.4,34.9-1c-0.1,4.4-0.2,9.1-0.2,14c4.3-10.4,15.5-17.6,27-17.6c12.7,0,19.7,8.5,19.7,27.2
			C896,198.5,896,222.4,897.9,232.6z"/>
		<path fill="#474A59" d="M948.2,232.6c-10.6,2.9-23.2,3.7-34.8,1.3c-0.5-8.9-0.8-27.6-0.7-47.2h-8.9c-1.2-3-1.4-6.2-1-9.7
			c12.8,0.2,28.1,0.2,45,0.4C947.5,199.7,947.6,223,948.2,232.6z M910.7,154.2c0-11.5,7.4-18.8,20.4-18.8c13.3,0,20,7.4,20,18.5
			c0,11.6-7.4,18.8-20.4,18.8C917.4,172.7,910.7,165.2,910.7,154.2z"/>
		<path fill="#474A59" d="M1037.6,232.3c-10.2,3.7-24.6,4.1-36,1.6c-0.4-3.6-0.6-7.2-0.7-13.7c-3.7,10.7-14.6,16.1-23.8,16.1
			c-11.8,0-20.9-8.2-20.9-20.6c0-13.3,11.4-22,28-22c6.5,0,12.1,1.1,16.6,2.9v-2.2c0-20.4-3.4-25-7-25c-4.6,0-9.2,7-9.4,19
			c-16.8-0.1-24.1-7.1-24.1-13c0-7.6,12.1-16,39.1-16c23.8,0,36.1,11,36.1,35.5C1035.6,215.4,1036.1,226.8,1037.6,232.3z
			 M1000.8,210.4v-6.5c-1.4-0.5-3-0.8-4.4-0.8c-4.8,0-7.8,3.1-7.8,7.6c0,3.7,1.9,6.5,5.3,6.5C996.8,217.1,1000.1,215,1000.8,210.4z"
			/>
		<path fill="#474A59" d="M1106.6,236.2c-16.3-0.1-23.8-18-24.6-34.3c-0.6,0-1.1,0.1-1.7,0.1c0.1,13.1,0.2,24.1,0.6,30.6
			c-10.6,2.9-23.2,3.7-34.8,1.3c-0.7-15.6-0.8-54.2-0.1-87.5c6.2-1.4,12.6-2,19.2-2c5.2,0,10.4,0.4,15.7,1.1
			c-0.5,16.8-0.6,35.3-0.6,51.2c12.6-1.1,16.9-15.4,13.3-31c6.8-4.3,21.5-6.6,29.2-3.8c5,21.7-9.7,35.5-32.4,39.1
			c6.4,4.2,21.7,4.2,33-2.4C1132.3,212.2,1125.7,236.3,1106.6,236.2z"/>
	</g>
</g>
<g id="Layer_2">
</g>
</svg>
