<?xml version="1.0" encoding="utf-8"?>
<!-- Generator: Adobe Illustrator 19.2.1, SVG Export Plug-In . SVG Version: 6.00 Build 0)  -->
<svg version="1.1" xmlns="http://www.w3.org/2000/svg" xmlns:xlink="http://www.w3.org/1999/xlink" x="0px" y="0px"
	 viewBox="0 0 797.3 243.6" enable-background="new 0 0 797.3 243.6" xml:space="preserve">
<g id="Layer_1">
	<g>
		<g>
			<path fill="#E2E7E8" d="M51.1,41.1c0-14.2-4.9-22.6-13.6-23.8v78.1H49v2.9H0v-2.9h10V17.3H0v-2.9h37.6c25.9,0,41.2,8,41.2,25.1
				c0,15.5-12.7,26.6-32.2,26.6c-3.5,0-5.4-0.4-5.4-0.4v-2.3c0,0,1.6-0.2,3.4-1.7C47.4,59.4,51.1,53.7,51.1,41.1z"/>
			<path fill="#E2E7E8" d="M123.1,96v2.4H81.8V96h7.4V36h-7.4v-2.4c12.6,0,23.9-0.4,32.2-1.2l1.7,0.7V96H123.1z M88.3,14.5
				c0-7.7,5.3-12.8,14.2-12.8c8.8,0,14,5.2,14,12.8c0,7.8-5.3,13-14,13C93.6,27.5,88.3,22.3,88.3,14.5z"/>
			<path fill="#E2E7E8" d="M127.6,67.1c0-22.2,11.4-34.7,34-34.7c20.8,0,31.8,10.6,31.8,32.5c0,22.2-11.4,34.7-34,34.7
				C138.6,99.6,127.6,89,127.6,67.1z M161.8,1.2c11.2-4.8,20.6,5.3-9.5,26.3l-2.5-1.6C156.6,17.7,160.7,9.3,161.8,1.2z M165.6,68.9
				c0-21.2-1.7-32.9-5.6-32.9c-3.2,0-4.7,7.4-4.7,27.1c0,21.2,1.7,32.9,5.6,32.9C164.2,96,165.6,88.5,165.6,68.9z"/>
			<path fill="#E2E7E8" d="M258.6,45.2c0,7.6-5,12.7-12.7,12.7c-2,0-4-0.4-4-0.4l-1.2-18.8c0,0-0.5-0.1-1-0.1
				c-4.4,0-7.9,11.5-7.9,26.2V96h10.1v2.4H198V96h7.4V36H198v-2.4c11.2,0,21.2-0.4,28.6-1.2l1.7,0.7l0.6,21.8
				c2-17.2,7.7-22.6,16.1-22.6C253.1,32.4,258.6,37.4,258.6,45.2z"/>
			<path fill="#E2E7E8" d="M327.4,82.5c-1.3,7.3-5.8,17-18.8,17c-9.6,0-14.3-5.3-15.8-10.1c-3.2,6.4-9.2,10.1-17,10.1
				c-9.4,0-16-5.4-16-14.8c0-12.6,12.1-19.7,25.9-20.8l6.6-0.5v-2.3c0-13.6-0.4-24.8-7.7-24.8c-1.4,0-2.8,0.5-2.8,0.5l-6.4,20.6
				c0,0-1.3,0.2-2.9,0.2c-3.7,0-9-1.3-9-7.8c0-9.7,12-17.6,28.8-17.6c16.7,0,26.3,7.8,26.3,27.8V86c0,1.4,0.1,3.4,1.2,3.4
				c1.7,0,3.5-4.3,3.8-7.6L327.4,82.5z M292.2,78.3v-12l-0.2,0.1c-3,1.1-5.5,4.7-5.5,13.8c0,4.4,0.6,9.2,2.4,9.2
				C290.4,89.5,292.2,85.8,292.2,78.3z"/>
			<path fill="#E2E7E8" d="M329.2,116.9c6.4-5.3,9.4-10.7,9.4-17c0-11.6-9-16-9-16s4.2-4.2,10.6-4.2c6,0,10.4,3.8,10.4,11.6
				c0,7.4-4.1,17.5-19.4,28.1L329.2,116.9z"/>
			<path fill="#E2E7E8" d="M384.8,67.1c0-22.2,11.4-34.7,34-34.7c20.8,0,31.8,10.6,31.8,32.5c0,22.2-11.4,34.7-34,34.7
				C395.9,99.6,384.8,89,384.8,67.1z M422.9,68.9c0-21.2-1.7-32.9-5.6-32.9c-3.2,0-4.7,7.4-4.7,27.1c0,21.2,1.7,32.9,5.6,32.9
				C421.4,96,422.9,88.5,422.9,68.9z"/>
			<path fill="#E2E7E8" d="M490.1,96h7.4v2.4h-41.3V96h7.4V56l-9.1,5.6l-1.8-3.6l10.9-6.5V16.8h-7.4v-2.4c11.5-1,22.2-3.8,31.6-10.8
				l2.3,0.8v33.7l9.5-5.8l1.8,3.6l-11.3,6.6V96z"/>
			<path fill="#E2E7E8" d="M503.2,67.1c0-22.2,11.4-34.7,34-34.7c20.8,0,31.8,10.6,31.8,32.5c0,22.2-11.4,34.7-34,34.7
				C514.2,99.6,503.2,89,503.2,67.1z M537.3,1.2c11.2-4.8,20.6,5.3-9.5,26.3l-2.5-1.6C532.2,17.7,536.3,9.3,537.3,1.2z M541.2,68.9
				c0-21.2-1.7-32.9-5.6-32.9c-3.2,0-4.7,7.4-4.7,27.1c0,21.2,1.7,32.9,5.6,32.9C539.8,96,541.2,88.5,541.2,68.9z"/>
			<path fill="#E2E7E8" d="M672.8,32.4l2,0.7l-21.2,65.3h-20.5l-10.9-37.9l-8.6,37.9h-20.2l-18-62.3h-6.2v-2.5
				c10.7,0,20.9-0.4,31-1.2l2,0.7l11.8,44.4l10.3-43.9h18l13.3,46.1l9.1-28.9l-15.4-15.5v-1.7C657.1,33.7,665,33.5,672.8,32.4z"/>
			<path fill="#E2E7E8" d="M711.3,96h4.4v2.4h-37.7V96h6.8V16.8h-7.4v-2.4c11.5-1,22.2-3.8,31.6-10.8l2.3,0.8V96z M754.2,96v2.4
				h-32.9l-8.2-39.5l15.4-11.8l-7.8-11.9v-1.7c10,0,19.9-0.2,29.6-1.2l1,2.6L719,58.9h20.5l8.8,37.1H754.2z"/>
			<path fill="#E2E7E8" d="M797.3,96v2.4H756V96h7.4V36H756v-2.4c12.6,0,23.9-0.4,32.2-1.2l1.7,0.7V96H797.3z M762.5,14.5
				c0-7.7,5.3-12.8,14.2-12.8c8.8,0,14,5.2,14,12.8c0,7.8-5.3,13-14,13C767.7,27.5,762.5,22.3,762.5,14.5z"/>
			<path fill="#E2E7E8" d="M132.8,197c0,26-13.4,45.4-45.7,45.4H45.7v-2.9h10v-78.2h-10v-2.9h41.4
				C119.4,158.4,132.8,167.5,132.8,197z M104,198.1c0-24.5-3.8-36.8-19.3-36.8h-1.4v78.2h1.4C100.2,239.5,104,222.6,104,198.1z"/>
			<path fill="#E2E7E8" d="M209,217.1v25.3h-72.1v-2.9h10v-27l-10.6,6.4l-2.2-3.8l12.7-7.6v-46.2h-10v-2.9h50.3v2.9h-12.7v31.8
				l17.9-10.7l2,3.7l-19.9,12v41.4h14.4l17.8-22.4H209z"/>
			<path fill="#E2E7E8" d="M296.2,160.8l-10.9,12.5v46.3c0,15.1-11.4,24-31.9,24c-21.2,0-33.1-9.5-33.1-27.6v-54.7h-10v-2.9h46.2
				v2.9h-6v62.4c0,8.5,4.8,14.3,13.3,14.3c9.4,0,16.3-7.1,16.3-17.6v-47l-16.2-12.5v-2.4h32.3V160.8z"/>
			<path fill="#E2E7E8" d="M378.6,203.5l-5.6,2v36.8h-2.5l-7.2-9.1c-6,5.2-15.5,10.3-29.8,10.3c-20.5,0-34.4-10.9-34.4-40
				c0-34.4,19.4-46.4,43.9-46.4c12.2,0,27.2,3,27.2,3v23.9h-1.8l-16.2-22.2c0,0-2.8-1.2-7.1-1.2c-10.6,0-17.3,9.7-17.3,41.8
				c0,30.5,3.8,37,12.1,37c3.1,0,6.6-0.7,6.6-0.7v-33.1l-9.4-2v-1.9h41.4V203.5z"/>
			<path fill="#E2E7E8" d="M384,201.3c0-29.3,14.2-44.2,41.2-44.2c26.3,0,39.8,14,39.8,42.7c0,29.4-14.3,43.7-41.2,43.7
				C397.3,243.6,384,229.8,384,201.3z M436.2,202.2c0-25.6-3.8-40.4-12.1-40.4c-7.3,0-11.3,11.5-11.3,37.4s4,39.8,12.1,39.8
				C432.2,239,436.2,228.2,436.2,202.2z"/>
			<path fill="#E2E7E8" d="M520.8,185.1c0-14.2-4.9-22.6-13.6-23.8v78.1h11.4v2.9h-49v-2.9h10v-78.2h-10v-2.9h37.6
				c25.9,0,41.2,8,41.2,25.1c0,15.5-12.7,26.6-32.2,26.6c-3.5,0-5.4-0.4-5.4-0.4v-2.3c0,0,1.6-0.2,3.4-1.7
				C517.1,203.4,520.8,197.7,520.8,185.1z"/>
			<path fill="#E2E7E8" d="M588.5,161.3v78.2h10v2.9h-47.5v-2.9h10v-78.2h-10v-2.9h47.5v2.9H588.5z"/>
			<path fill="#E2E7E8" d="M663.5,217.7c0,13.9-10.6,25.9-34.3,25.9c-13.3,0-24.2-3.7-24.2-3.7v-23.3h2.4l15.4,22.3
				c0,0,3,0.6,5.6,0.6c7.1,0,10.8-4.4,10.8-10c0-5.8-4.1-10.2-9.1-13.9l-14.3-10.6c-7.3-5.4-10.8-12.1-10.8-20.6
				c0-14,9.6-27.2,30.4-27.2c11.4,0,23.3,4,23.3,4V183h-2.4l-14.8-21.6c0,0-2.8-0.4-4.8-0.4c-7.6,0-10.1,4.9-10.1,9.4
				c0,4.8,2.9,9.1,9.2,13.8l15,11C658.9,201.2,663.5,208.5,663.5,217.7z"/>
			<path fill="#E2E7E8" d="M725.3,207.8v31.7h12v2.9h-51.6v-2.9h12v-31.7l-23.3-46.6h-6.2v-2.9h44.4v2.9h-8.3l19.1,41.4l12.8-29.5
				l-12.5-12.4v-2.4h29.4v2.4l-12.5,12.5L725.3,207.8z"/>
		</g>
	</g>
</g>
<g id="Layer_2">
</g>
</svg>
