<?xml version="1.0" encoding="utf-8"?>
<!-- Generator: Adobe Illustrator 19.2.1, SVG Export Plug-In . SVG Version: 6.00 Build 0)  -->
<svg version="1.1" xmlns="http://www.w3.org/2000/svg" xmlns:xlink="http://www.w3.org/1999/xlink" x="0px" y="0px"
	 viewBox="0 0 735.3 226.9" enable-background="new 0 0 735.3 226.9" xml:space="preserve">
<g id="Layer_1">
	<g>
		<path fill="#E2E7E8" d="M8.8,58.3V9.2h7.1v48.3c0,14.9,8.3,20.1,17.8,20.1s17.8-5.1,17.8-20V9.2h7.1v49.1c0,16.2-10,25.7-25,25.7
			C18.2,84.1,8.8,75.3,8.8,58.3z"/>
		<path fill="#E2E7E8" d="M108,26l-1.3,6.6h-0.5c-2.2-0.9-4.2-1.3-6.3-1.3c-6,0-10.1,5.2-15.2,13.9v37.4h-7V25.5h6.7v10.7
			c5.9-8.1,10.6-12.1,16.4-12.1C103.3,24.1,105.9,24.9,108,26z"/>
		<path fill="#E2E7E8" d="M154.5,76.4l-1.2,6.3h-37.8v-6.1l29.3-44.7h-28.4v-6.3h36.1v6.1l-29.3,44.7H154.5z"/>
		<path fill="#E2E7E8" d="M210.1,98.2v5.5c-1.3,0.5-4.4,1.7-8.3,1.7c-5.9,0-9.8-2.7-9.8-7.9c0-6,5.6-11.7,8.9-14.8v-7.6
			c-7.3,6.6-12.4,9-19.1,9c-11.9,0-17.5-7.8-17.5-16.6c0-11.6,9.4-17.4,21.8-17.4c2.3,0,6.3,0.2,13.9,0.7v-7.5
			c0-9.1-5-13.1-13.9-13.1c-6.4,0-13.1,1.9-18.7,5.2H167v-6.6c5.2-3.1,11.8-4.7,20-4.7c12.4,0,20,5.9,20,19.1v39.5
			c-5.4,5.8-8.3,9.2-8.3,13c0,2.8,1.3,4.1,4.1,4.1C205.2,99.7,208.4,99.1,210.1,98.2z M200.1,68.2V56.6c-6.1-0.5-11.8-0.8-14.3-0.8
			c-8.9,0-14.1,4-14.1,11.4c0,6.1,3.5,10.8,11.2,10.8C189.4,78,194.1,74.5,200.1,68.2z"/>
		<path fill="#E2E7E8" d="M268.1,2.7v80h-6.4v-8.9c-6.2,6.9-12,10.3-19,10.3c-12.8,0-20.8-10.3-20.8-29.1c0-19.2,8.6-30.9,25-30.9
			c5.5,0,10.5,1.6,14.2,3.1V2.7H268.1z M261.1,66.6V34.2c-4.4-2.3-9.3-4.1-14.2-4.1c-11.5,0-17.6,7.4-17.6,24
			c0,16.3,5.9,23.9,14.3,23.9C249.4,78,254.4,74.3,261.1,66.6z"/>
		<path fill="#E2E7E8" d="M374.3,44.2c0,29.6-18,38.5-33.3,38.5h-19.8V9.2h18.5C353.2,9.2,374.3,16.8,374.3,44.2z M366.7,45.1
			c0-23.8-15.8-29.5-28.4-29.5h-9.9v60.7h12C351.9,76.3,366.7,71.7,366.7,45.1z"/>
		<path fill="#E2E7E8" d="M423.8,76.4l-1.2,6.3h-37.8v-6.1l29.3-44.7h-28.4v-6.3h36.1v6.1l-29.3,44.7H423.8z"/>
		<path fill="#E2E7E8" d="M434.3,5.5c0-3.5,2.2-5.5,5.6-5.5c3.2,0,5.3,2,5.3,5.3c0,3.5-2.3,5.5-5.6,5.5S434.3,8.8,434.3,5.5z
			 M436.3,25.5h7v57.2h-7V25.5z"/>
		<path fill="#E2E7E8" d="M503.7,55.6h-38.2c0.5,14.8,5.5,22.5,19.2,22.5c5.9,0,10.3-1.2,16-4.5h0.6v6.5c-3.9,2.4-9.8,4-17.7,4
			c-17.7,0-25.5-10.9-25.5-28.7c0-20.1,9.4-31.3,24.3-31.3c14.3,0,21.3,9.8,21.3,27.9V55.6z M465.6,49.9h31.2
			c-0.4-13.2-5.1-19.8-15-19.8C472.5,30.2,466.4,37.2,465.6,49.9z"/>
		<path fill="#E2E7E8" d="M528.7,84.1c-7,0-9.9-4-9.9-11.7V2.7h7v68.1c0,4.6,1.2,7,4.2,7c1.5,0,3.5-0.2,6-1.3h0.6v6.2
			C533.6,84,530.6,84.1,528.7,84.1z"/>
		<path fill="#E2E7E8" d="M591.7,42.5v40.2h-7V42.9c0-6.9-3-12.7-10.7-12.7c-5.3,0-10.2,2.8-17.7,11.7v40.8h-7V25.5h6.7v8.8
			c8-8.2,12.9-10.2,18.7-10.2C586.3,24.1,591.7,31.7,591.7,42.5z"/>
		<path fill="#E2E7E8" d="M607.7,5.5c0-3.5,2.2-5.5,5.6-5.5c3.2,0,5.3,2,5.3,5.3c0,3.5-2.3,5.5-5.6,5.5S607.7,8.8,607.7,5.5z
			 M609.7,25.5h7v57.2h-7V25.5z"/>
		<path fill="#E2E7E8" d="M631.8,55.2c0-19.9,9-31.1,24.2-31.1c5.4,0,12.2,1.5,16.8,5.3l-1.2,6.4h-0.6c-3.8-2.9-10.3-5.5-15.8-5.5
			c-9,0-16,7-16,24.1c0,15.3,5.6,23.5,17.4,23.5c4.5,0,10-1.2,15-4.8h0.5v6.6c-3.8,2.9-10.7,4.4-16.7,4.4
			C640.4,84.1,631.8,74.4,631.8,55.2z"/>
		<path fill="#E2E7E8" d="M709.8,81.9l-1.7,10.5c-1.2,7.5-6.6,13-14.8,13c-2.1,0-4.1-0.2-6.9-1.5v-6.3h0.3c2.5,1.2,4,1.5,6.2,1.5
			c4.6,0,8.3-2.6,9.1-8.7l1-8.2l-22.3-56.7h7.5l16,41.3l2.4,7.5l2.3-7.5L724,25.5h7.1L709.8,81.9z"/>
		<path fill="#E2E7E8" d="M45.5,173.2c0,13.7-10.8,22.9-25.2,22.9H7.1v29.3H0V152h20.9C34.3,152,45.5,158.7,45.5,173.2z M37.9,174.2
			c0-10.3-6-15.7-18.6-15.7H7.1v31.4h12.6C30.7,189.8,37.9,184.9,37.9,174.2z"/>
		<path fill="#E2E7E8" d="M109.5,225.5h-8.4c-6.2-10.6-9.9-18-13-23.2c-4.8-8.3-7.6-10.8-14.7-10.8h-7v34h-7.1V152h20.9
			c13.4,0,23.5,5.9,23.5,18.6c0,9.7-6.7,16.8-17.4,18.8c3.3,2.1,5.9,5.6,9.1,11C99,206.4,103.1,214.5,109.5,225.5z M66.5,158.4v26.7
			h12.6c11,0,17-4.9,17-13.6c0-8.7-4.8-13.1-17.4-13.1H66.5z"/>
		<path fill="#E2E7E8" d="M163.3,201.6h-29.5l-8.8,23.9h-7.4l27.7-73.4h6.7l27.8,73.4h-7.6L163.3,201.6z M161.1,195.6l-8.8-23.2
			l-3.9-11.4l-3.8,11.4l-8.6,23.2H161.1z"/>
		<path fill="#E2E7E8" d="M240.3,187v32.1c-4.6,4.4-13.1,7.8-23.5,7.8c-19.7,0-31.4-12.3-31.4-36.7c0-25.3,11.6-39.5,33.1-39.5
			c8.9,0,16.7,3,21.5,6.7l-2.5,6.2h-0.3c-6.4-4.1-12.1-6.4-19.3-6.4c-16.9,0-24.8,10.8-24.8,31.7c0,20.9,7.8,31.4,23.9,31.4
			c6.2,0,11.5-1.4,16.2-3.7v-23.2H214V187H240.3z"/>
		<path fill="#E2E7E8" d="M295.9,201.6h-29.5l-8.8,23.9h-7.4l27.7-73.4h6.7l27.8,73.4h-7.6L295.9,201.6z M293.7,195.6l-8.8-23.2
			L281,161l-3.8,11.4l-8.6,23.2H293.7z"/>
		<path fill="#E2E7E8" d="M401.9,173.2c0,13.7-10.8,22.9-25.2,22.9h-13.2v29.3h-7.1V152h20.9C390.7,152,401.9,158.7,401.9,173.2z
			 M394.3,174.2c0-10.3-6-15.7-18.6-15.7h-12.2v31.4h12.6C387.1,189.8,394.3,184.9,394.3,174.2z"/>
		<path fill="#E2E7E8" d="M413.1,189.6c0-24.4,11.1-38.9,30.9-38.9c19.4,0,29.3,14.1,29.3,37.2c0,24.3-11,39-30.9,39
			C423,226.9,413.1,212.6,413.1,189.6z M465.7,188.9c0-22.1-9.1-31.9-22.5-31.9c-13.4,0-22.5,9.6-22.5,31.8
			c0,21.8,8.8,31.7,22.6,31.7C456.9,220.5,465.7,210.7,465.7,188.9z M443.6,143.7h-6.2v-0.2l13.5-15.6h8.9v0.3L443.6,143.7z"/>
		<path fill="#E2E7E8" d="M533,219v6.5h-39.1v-31.6l-11,7.3h-0.1v-6.4l11.2-7.4V152h7.1v32.7l18-11.8h0.5v6.3l-18.5,12.1V219H533z"
			/>
		<path fill="#E2E7E8" d="M596,152v73.4h-6.7l-33.2-53.9l-4.3-7.6l0.5,10.6v51h-7.1V152h6.9l32.7,53l4.9,8.9l-0.6-12.3V152H596z"/>
		<path fill="#E2E7E8" d="M612.3,189.6c0-24.4,11.1-38.9,30.9-38.9c19.4,0,29.3,14.1,29.3,37.2c0,24.3-11,39-30.9,39
			C622.2,226.9,612.3,212.6,612.3,189.6z M664.9,188.9c0-22.1-9.1-31.9-22.5-31.9c-13.4,0-22.5,9.6-22.5,31.8
			c0,21.8,8.8,31.7,22.6,31.7C656.2,220.5,664.9,210.7,664.9,188.9z"/>
		<path fill="#E2E7E8" d="M685.1,190.2c0-25.3,11.3-39.5,30-39.5c7.8,0,15.2,2.9,20,6.4l-2,6.5h-0.6c-5.8-3.8-11.4-6.5-18.2-6.5
			c-13.8,0-21.6,10.8-21.6,31.8c0,20.7,7.6,31.3,21.8,31.3c6.9,0,14.4-2.5,20.2-6.5h0.6v7.1c-4.7,3.4-13,6-21.2,6
			C695.4,226.9,685.1,214.6,685.1,190.2z"/>
	</g>
</g>
<g id="Layer_2">
</g>
</svg>
