<?xml version="1.0" encoding="utf-8"?>
<!-- Generator: Adobe Illustrator 19.2.1, SVG Export Plug-In . SVG Version: 6.00 Build 0)  -->
<svg version="1.1" xmlns="http://www.w3.org/2000/svg" xmlns:xlink="http://www.w3.org/1999/xlink" x="0px" y="0px"
	 viewBox="0 0 910.6 370.9" enable-background="new 0 0 910.6 370.9" xml:space="preserve">
<g id="Layer_1">
	<g>
		<path fill="#522E87" d="M116.4,2.9c0,0.6-0.4,1.2-0.8,1.2c-1.2-1.4-4.3-2-6.9-2C98.5,2.2,89,5.7,82.6,14.7
			C106,14,113,28.9,113,41.7c0,23.2-22.8,42.9-46.4,48.6c2.2,13.8,2.4,36,7.3,36c7.7,0,21.4-15.7,24.6-25.9c1,0,1.4,0.6,1.4,1.8
			c0,6.1-13.2,26.3-25.6,26.3c-9.6,0-10.2-23.6-12-37.4c-2.9,0.6-5.7,0.8-8.6,0.8c-2.8,0-4.1-2-4.1-3.9c0-2.8,4.9-8.7,12.4-8.7
			c2.4,0,3.3,3.7,4.3,9.2c21.4-6.3,42.1-25.9,42.1-46.8c0-21.4-16.5-25.9-27.5-25c-30.1,35-38.9,113.4-67.2,113.4
			c-8.6,0-13.6-8.6-13.6-23.4c0-20.1,20.2-87.1,77.5-91.6C86.1,6.1,95.1,0,109.9,0C114.4,0,116.4,1.8,116.4,2.9z M75.9,17.1
			C22.6,22.6,2,86.9,2,107.1c0,13.6,3.9,21,11.8,21C34.6,128.2,45.8,51.9,75.9,17.1z M62.1,89.4c-0.8-4.9-1.4-8.3-3.3-8.3
			c-3.1,0-7.9,4.5-7.9,6.9c0,1,0.6,2.4,2.4,2.4C56.2,90.4,59,90,62.1,89.4z"/>
		<path fill="#522E87" d="M138.6,130.5c-6.7,0,1.8-21.4,6.9-32c-9,11.8-25.8,32.2-36.4,32.2c-13.8,0,28.9-64.1,30.7-79.4
			c16.3-2.9-37.4,77.3-29.9,77.3c8.3,0,33.6-31.1,40.7-40.3c8.5-16.9,17.1-37,18.9-37c1.8,0,2.8,2.8,2.4,5.3
			c-0.8,6.3-9.6,19.1-15.3,28.7c-9.6,18.9-20.2,43.1-16.9,43.1c6.5,0,21-18.5,22.8-22.4C169.1,106,151.6,130.5,138.6,130.5z"/>
		<path fill="#522E87" d="M216.6,92.8c-6.1,0-4.5-13.4-3.1-17.5c-9.4,8.8-19.9,19.9-29.3,34.8c-2.4,4.9-3.9,8.1-5.9,13.2
			c3.1-0.6,6.7-1,10-1c7.1,0,6.1,3.1,5.7,3.9c-3.5-1.4-19.1-0.4-30.1,2.8c-0.8,0-1.4-0.8-1-1.2c0.6-1,5.5-2.4,11.8-3.7
			c10.6-33.6,32-66.2,33.8-69.2c2.9-3.5,7.7-2.6,6.3-0.4c-8.3,10.4-17.9,27.7-26.1,45.4c8.3-13.2,19.5-23.2,25.9-29.7
			c5.5-17.9,17.7-32.4,24.6-32.4c7.5,0-2,16.1-21.4,34c-2.6,5.9-4.1,19.1-1.2,19.1c3.3,0,11-9.4,13.8-13.6
			C235.3,77.3,222.7,92.8,216.6,92.8z M218.6,67.8c14-13.4,24.2-28.1,20.6-28.1C235.9,39.7,225.7,50.3,218.6,67.8z"/>
		<path fill="#522E87" d="M296.6,57.2c-2.2,0-2.2-2.6-1.8-3.3c-9.8,2.2-31.5,18.9-46.4,36.6c7.7-7.1,18.1-13.6,21.8-13.6
			c9.4,0-20.1,49.5-14.7,49.5c5.9,0,24.8-19.1,30.7-31.1c9.2,0-19.3,33.2-30.9,33.2c-12.8,0,17.1-48.8,13.4-48.8
			c-2.8,0-23.2,14.2-31.1,23.2c-4.3,7.9-8.6,16.9-12.2,24.4c-1,2.4-4.5,2.2-4.1,1c25-58.4,62.1-112.6,67-117.4
			c1.8-1.2,2.6,2.4,2.8,4.5c-9.2,11-31.6,45.6-50.5,80.2c-0.4,0.6-0.8,1.6-0.4,1.4c17.9-23.6,45.2-46.6,58.2-46.6
			C302.7,50.5,300.6,57.2,296.6,57.2z"/>
		<path fill="#522E87" d="M323,129.5c-4.9,0-2.4-11,3.1-24c-5.9,8.8-21.6,24.2-29.5,24.2c-9.4,0-2.4-25.8,7.9-43.8
			c11.6-20.2,27.1-35.4,36.6-35.4c7.5,0,4.5,14.3,0.4,25.4c8.6-14.2,17.5-25.4,22.4-25.4c9.6,0-9,26.5-28.5,45.8
			c-7.9,16.5-14,31.5-11,30.9c6.1-0.8,24.6-18.3,32.6-29.5C363.9,97.7,337.1,129.5,323,129.5z M328.3,100.6c2.8-5.7,4.7-11,8.1-17.1
			c4.3-10.6,9.6-31.1,4.5-31.1c-6.7,0-21,16.7-32.2,36.4c-9.2,15.9-15.3,38.5-11.2,38.5C301.1,127.4,314.7,116.8,328.3,100.6z
			 M338.1,90.6c16.5-17.7,29.9-38.1,25.8-38.1C361.1,52.5,347.5,71.8,338.1,90.6z"/>
		<path fill="#522E87" d="M454.7,68.8c-4.7,6.7-12.4,17.1-17.9,24c1.4-0.4,3.1-1,4.5-1c12.8,0-11.8,37-4.9,37
			c4.7,0,15.9-16.1,18.1-20.8c7.1,0-8.1,22.4-18.1,22.4c-13.4,0,9.2-36.2,4.5-36.2c-1.8,0-3.9,0.4-6.1,1.4
			c-13.8,17.7-24.6,35.4-30.1,35.4c-10.8,0,6.9-29.3,28.7-37c5.9-8.1,12.4-16.7,17.3-23.6c-2.8,1.2-5.7,2.6-8.1,2.6
			c-9.2,0,3.9-24,0.6-24c-8.6,0-23.4,26.7-24.8,32.2c-7.7,0,9.4-34.2,24.8-34.2c10.6,0-3.9,23.8,0.2,23.8c2,0,6.1-2,10.4-4.9
			c5.7-7.7,10.2-13.8,13-13.8C471.8,52.1,464.3,62.9,454.7,68.8z M431.5,96.7c-14.7,8.1-31.1,32.4-26.7,32.4
			C408.1,129.2,419.9,111.9,431.5,96.7z"/>
		<path fill="#522E87" d="M582.4,57.2c-2.2,0-2.2-2.6-1.8-3.3c-9.8,2.2-31.5,18.9-46.4,36.6c7.7-7.1,18.1-13.6,21.8-13.6
			c9.4,0-20.1,49.5-14.7,49.5c5.9,0,24.8-19.1,30.7-31.1c9.2,0-19.3,33.2-30.9,33.2c-12.8,0,17.1-48.8,13.4-48.8
			c-2.8,0-23.2,14.2-31.1,23.2c-4.3,7.9-8.6,16.9-12.2,24.4c-1,2.4-4.5,2.2-4.1,1c25-58.4,62.1-112.6,67-117.4
			c1.8-1.2,2.6,2.4,2.8,4.5c-9.2,11-31.6,45.6-50.5,80.2c-0.4,0.6-0.8,1.6-0.4,1.4c17.9-23.6,45.2-46.6,58.2-46.6
			C588.5,50.5,586.4,57.2,582.4,57.2z"/>
		<path fill="#522E87" d="M621.4,92.8c-6.1,0-4.5-13.4-3.1-17.5c-9.4,8.8-19.9,19.9-29.3,34.8c-2.4,4.9-3.9,8.1-5.9,13.2
			c3.1-0.6,6.7-1,10-1c7.1,0,6.1,3.1,5.7,3.9c-3.5-1.4-19.1-0.4-30.1,2.8c-0.8,0-1.4-0.8-1-1.2c0.6-1,5.5-2.4,11.8-3.7
			c10.6-33.6,32-66.2,33.8-69.2c2.9-3.5,7.7-2.6,6.3-0.4c-8.3,10.4-17.9,27.7-26.1,45.4c8.3-13.2,19.5-23.2,25.9-29.7
			c5.5-17.9,17.7-32.4,24.6-32.4c7.5,0-2,16.1-21.4,34c-2.6,5.9-4.1,19.1-1.2,19.1c3.3,0,11-9.4,13.8-13.6
			C640,77.3,627.4,92.8,621.4,92.8z M623.3,67.8c14-13.4,24.2-28.1,20.6-28.1C640.6,39.7,630.4,50.3,623.3,67.8z"/>
		<path fill="#522E87" d="M645.3,95.3c13,0,39.3-42.1,28.3-42.1c-20.1,0-58.8,74.9-40.9,74.9c14.7,0,35.8-31.6,39.3-38.5
			c9.2,0-18.9,40.7-39.1,40.7c-13,0-8.6-22.8,2.4-43.2c9.8-18.5,25.4-35.8,38.3-35.8c18.3,0-8.8,46.8-28.3,46.8
			c-5.1,0-5.3-5.9-3.3-6.9C642.2,94,644,95.3,645.3,95.3z"/>
		<path fill="#522E87" d="M739.1,128.8c-14.9,0,24.2-66.2,25.4-68.6c-4.3,0.2-26.1,15.9-42.5,37.9c-6.3,11-12.6,25.9-13.2,28.1
			c-6.3,3.3-4.7-10.6,10.6-30.1c13.2-28.5,22-44.2,20.6-44.2c-4.5,0-34.2,25.2-54.1,55.8c-2.6,5.3-5.3,11-7.1,15.5
			c1.6-0.2,4.7-1,9.8-1c5.9,0,4.9,3.1,4.5,3.9c-1.8-0.8-17.9-1-30.1,3.5c-0.8,0-1.4-0.8-1-1.2c0.8-1.2,7.7-3.7,12.6-4.7
			c16.5-41.3,41.1-78.2,41.7-79c2.9-2.2,3.3,4.1,3.3,4.1c-6.5,9-17.1,27.1-26.5,44.8c20.6-27.1,42.5-45,47.8-45
			c2.4,0,3.3,1.2,3.3,2.9c0,3.7-8.5,19.7-17.1,36c17.5-19.9,34.4-31.8,38.7-31.8c6.7,0,1.6,8.5-2.4,15.5
			c-11,19.9-29.9,55.2-24.2,55.2c4.1,0,15.1-7.1,23.8-21C770,105.6,753.8,128.8,739.1,128.8z"/>
		<path fill="#522E87" d="M786.7,95.3c13,0,39.3-42.1,28.3-42.1c-20.1,0-58.8,74.9-40.9,74.9c14.7,0,35.8-31.6,39.3-38.5
			c9.2,0-18.9,40.7-39.1,40.7c-13,0-8.6-22.8,2.4-43.2c9.8-18.5,25.4-35.8,38.3-35.8c18.3,0-8.8,46.8-28.3,46.8
			c-5.1,0-5.3-5.9-3.3-6.9C783.5,94,785.3,95.3,786.7,95.3z"/>
		<path fill="#522E87" d="M880.4,128.8c-14.9,0,24.2-66.2,25.4-68.6c-4.3,0.2-26.1,15.9-42.5,37.9c-6.3,11-12.6,25.9-13.2,28.1
			c-6.3,3.3-4.7-10.6,10.6-30.1c13.2-28.5,22-44.2,20.6-44.2c-4.5,0-34.2,25.2-54.1,55.8c-2.6,5.3-5.3,11-7.1,15.5
			c1.6-0.2,4.7-1,9.8-1c5.9,0,4.9,3.1,4.5,3.9c-1.8-0.8-17.9-1-30.1,3.5c-0.8,0-1.4-0.8-1-1.2c0.8-1.2,7.7-3.7,12.6-4.7
			c16.5-41.3,41.1-78.2,41.7-79c2.9-2.2,3.3,4.1,3.3,4.1c-6.5,9-17.1,27.1-26.5,44.8c20.6-27.1,42.5-45,47.8-45
			c2.4,0,3.3,1.2,3.3,2.9c0,3.7-8.5,19.7-17.1,36c17.5-19.9,34.4-31.8,38.7-31.8c6.7,0,1.6,8.5-2.4,15.5
			c-11,19.9-29.9,55.2-24.2,55.2c4.1,0,15.1-7.1,23.8-21C911.3,105.6,895.2,128.8,880.4,128.8z"/>
		<path fill="#522E87" d="M126.4,251.6c-1,2-13.6,24.4-21,37.9c-9.4,17.1-16.1,31.3-12.8,31.3c4.7,0,24.2-16.5,31.1-29.1
			c8.3,0.6-18.1,31.1-31.5,31.1c-8.1,0,0.8-19.1,11.2-38.7c7.5-14.3,19.5-34.2,20.8-37.7C126,245.5,127.6,249.8,126.4,251.6z
			 M132.3,231.2c0-2.9,2.6-6.5,5.9-6.5c2.2,0,2.9,1.6,2.9,3.5c0,2.9-2.9,6.9-5.7,6.9C133.5,235.1,132.3,233.5,132.3,231.2z"/>
		<path fill="#522E87" d="M221.7,262.8c-4.7,6.7-12.4,17.1-17.9,24c1.4-0.4,3.1-1,4.5-1c12.8,0-11.8,37-4.9,37
			c4.7,0,15.9-16.1,18.1-20.8c7.1,0-8.1,22.4-18.1,22.4c-13.4,0,9.2-36.2,4.5-36.2c-1.8,0-3.9,0.4-6.1,1.4
			c-13.8,17.7-24.6,35.4-30.1,35.4c-10.8,0,6.9-29.3,28.7-37c5.9-8.1,12.4-16.7,17.3-23.6c-2.8,1.2-5.7,2.6-8.1,2.6
			c-9.2,0,3.9-24,0.6-24c-8.6,0-23.4,26.7-24.8,32.2c-7.7,0,9.4-34.2,24.8-34.2c10.6,0-3.9,23.8,0.2,23.8c2,0,6.1-2,10.4-4.9
			c5.7-7.7,10.2-13.8,13-13.8C238.8,246.1,231.4,256.9,221.7,262.8z M198.5,290.7c-14.7,8.1-31.1,32.4-26.7,32.4
			C175.1,323.2,186.9,305.9,198.5,290.7z"/>
		<path fill="#522E87" d="M349.5,251.2c-2.2,0-2.2-2.6-1.8-3.3c-9.8,2.2-31.5,18.9-46.4,36.6c7.7-7.1,18.1-13.6,21.8-13.6
			c9.4,0-20.1,49.5-14.7,49.5c5.9,0,24.8-19.1,30.7-31.1c9.2,0-19.3,33.2-30.9,33.2c-12.8,0,17.1-48.8,13.4-48.8
			c-2.8,0-23.2,14.2-31.1,23.2c-4.3,7.9-8.6,16.9-12.2,24.4c-1,2.4-4.5,2.2-4.1,1c25-58.4,62.1-112.6,67-117.4
			c1.8-1.2,2.6,2.4,2.8,4.5c-9.2,11-31.6,45.6-50.5,80.2c-0.4,0.6-0.8,1.6-0.4,1.4c17.9-23.6,45.2-46.6,58.2-46.6
			C355.6,244.5,353.4,251.2,349.5,251.2z"/>
		<path fill="#522E87" d="M363.1,289.3c13,0,39.3-42.1,28.3-42.1c-20.1,0-58.8,74.9-40.9,74.9c14.7,0,35.8-31.6,39.3-38.5
			c9.2,0-18.9,40.7-39.1,40.7c-13,0-8.6-22.8,2.4-43.2c9.8-18.5,25.4-35.8,38.3-35.8c18.3,0-8.8,46.8-28.3,46.8
			c-5.1,0-5.3-5.9-3.3-6.9C359.9,288,361.7,289.3,363.1,289.3z"/>
		<path fill="#522E87" d="M396.1,322.8c-6.9,0,0.8-22.2,16.7-52.5c8.1-15.1,11.8-21,19.1-31.1c-3.1,0.2-13.2,0.4-17.3,0.8
			c-1.8,0-0.2-2.2,1-2.4c3.3-0.6,10.2-0.8,18.5-1.4c7.3-9.6,13.8-15.3,17.1-15.3c4.3,0,2.6,5.9-2.9,14.3c4.3-0.2,12.4-0.6,15.1-0.6
			c4.9,0,3.3,2.9,2.8,3.1c-8.5,0.2-15.5,0.6-19.5,0.8c-8.5,11.6-15.1,19.3-29.1,33c-1.2,2.2-2.4,4.3-3.7,6.5
			c-10.4,18.9-20.2,42.7-16.5,42.7c7.9,0,37-28.1,44.8-44.2C451.5,276.6,415.1,322.8,396.1,322.8z M418.3,268.3
			c12.2-12.8,18.9-19.9,25.9-29.7c-0.8,0-5.1,0.2-6.9,0.4C431.5,247.5,426.7,253.6,418.3,268.3z M439.3,235.9l6.7-0.4
			c4.9-7.5,7.1-12.8,5.5-12.8C449.7,222.7,445,227.8,439.3,235.9z"/>
		<path fill="#522E87" d="M477.5,274.4c11.2-3.9,19.9-27.5,12.8-27.5c-9,0-24.2,18.7-34,37.9c-9.4,18.5-13.2,37.7-5.3,37.7
			c14.7,0,33.2-30.9,37.7-40.3c8.6,0-16.7,42.3-37.7,42.3c-11,0-9.4-20.4-0.2-39.7c9.4-19.7,26.3-39.9,39.5-39.9
			c15.3,0-0.8,31.5-13.4,31.5c-3.3,0-4.9-4.1-2.4-6.1C477.1,268.1,480.4,271.8,477.5,274.4z"/>
		<path fill="#522E87" d="M564.3,247.1c0,8.3-42.1,73.5-34,73.5c4.1,0,14.7-7.1,23.6-21.2c6.7,0-10.2,23.4-24,23.4
			c-11.2,0,7.7-32.4,19.5-54.8c6.3-12,11.2-20.6,10.4-20.6c-4.9,0-30.1,18.9-48.9,43.4c-4.3,8.3-9.2,15.5-13.6,26.3
			c2-0.2,4.5-0.6,6.5-0.6c7.1,0,6.1,3.1,5.7,3.9c-1.8-0.8-18.1-1-30.1,3.5c-1,0-1.6-0.8-1.2-1.2c1-1.2,7.3-3.5,14.7-5.1
			c13.6-34.4,58.8-113.2,72.1-113.2c9.6,0-6.7,24.8-34.4,51.3c-4.5,7.7-9.6,15.9-14.2,24.2c18.5-22.6,39.5-36,44.2-36
			C563.2,243.9,564.3,245.5,564.3,247.1z M532.5,251.2c22.8-22.2,36.8-44.8,33-44.8C561.2,206.4,547,227.4,532.5,251.2z"/>
		<path fill="#522E87" d="M596.8,324.5c-6.7,0,1.8-21.4,6.9-32c-9,11.8-25.8,32.2-36.4,32.2c-13.8,0,28.9-64.1,30.7-79.4
			c16.3-2.9-37.3,77.3-29.9,77.3c8.3,0,33.6-31.1,40.7-40.3c8.5-16.9,17.1-37,18.9-37s2.8,2.8,2.4,5.3c-0.8,6.3-9.6,19.1-15.3,28.7
			c-9.6,18.9-20.2,43.1-16.9,43.1c6.5,0,21-18.5,22.8-22.4C627.2,300,609.8,324.5,596.8,324.5z"/>
		<path fill="#522E87" d="M685.4,292.9c-9,15.1-25.8,29.9-33.2,29.9c-12.4,0,5.7-32.8,24.2-41.1c3.1-1.2,4.5-1,4.7-0.2
			c-19.3,7.1-35.8,38.9-29.9,38.9c5.5,0,20.1-13.4,30.7-31.6c11.4-19.5,15.1-40.7,9.4-40.7c-7.9,0-25.8,18.9-34.2,32
			c-16.1,29.5-36.4,69.6-44.2,89.1c-1.2,2.2-4.3,2.2-3.5,0.8c21.4-56.8,58.4-117.9,59.6-119.9c2.6-3.5,8.3-4.1,7.3-1.2
			c-2.9,3.3-7.1,10-12.2,18.9c9.6-11.6,21.6-21.8,27.7-21.8C701.6,245.9,699.2,270.3,685.4,292.9z"/>
		<path fill="#522E87" d="M712.6,289.3c13,0,39.3-42.1,28.3-42.1c-20.1,0-58.8,74.9-40.9,74.9c14.7,0,35.8-31.6,39.3-38.5
			c9.2,0-18.9,40.7-39.1,40.7c-13,0-8.6-22.8,2.4-43.2c9.8-18.5,25.4-35.8,38.3-35.8c18.3,0-8.8,46.8-28.3,46.8
			c-5.1,0-5.3-5.9-3.3-6.9C709.4,288,711.2,289.3,712.6,289.3z"/>
		<path fill="#522E87" d="M806.3,322.8c-14.9,0,24.2-66.2,25.4-68.6c-4.3,0.2-26.1,15.9-42.5,37.9c-6.3,11-12.6,25.9-13.2,28.1
			c-6.3,3.3-4.7-10.6,10.6-30.1c13.2-28.5,22-44.2,20.6-44.2c-4.5,0-34.2,25.2-54.1,55.8c-2.6,5.3-5.3,11-7.1,15.5
			c1.6-0.2,4.7-1,9.8-1c5.9,0,4.9,3.1,4.5,3.9c-1.8-0.8-17.9-1-30.1,3.5c-0.8,0-1.4-0.8-1-1.2c0.8-1.2,7.7-3.7,12.6-4.7
			c16.5-41.3,41.1-78.2,41.7-79c2.9-2.2,3.3,4.1,3.3,4.1c-6.5,9-17.1,27.1-26.5,44.8c20.6-27.1,42.5-45,47.8-45
			c2.4,0,3.3,1.2,3.3,2.9c0,3.7-8.5,19.7-17.1,36c17.5-19.9,34.4-31.8,38.7-31.8c6.7,0,1.6,8.5-2.4,15.5
			c-11,19.9-29.9,55.2-24.2,55.2c4.1,0,15.1-7.1,23.8-21C837.2,299.6,821.1,322.8,806.3,322.8z"/>
	</g>
</g>
<g id="Layer_2">
</g>
</svg>
