<?xml version="1.0" encoding="utf-8"?>
<!-- Generator: Adobe Illustrator 19.2.1, SVG Export Plug-In . SVG Version: 6.00 Build 0)  -->
<svg version="1.1" xmlns="http://www.w3.org/2000/svg" xmlns:xlink="http://www.w3.org/1999/xlink" x="0px" y="0px"
	 viewBox="0 0 573.8 233" enable-background="new 0 0 573.8 233" xml:space="preserve">
<g id="Layer_1">
	<g>
		<path fill="#FCE7E0" d="M225,49.4c1.3,0,2.7-0.1,4.1-0.4v22c-3.7,1.3-7.6,2-12.9,2c-18.6,0-32.7-11.2-36.8-30.4V71h-31V3h31v31.3
			L198.1,3h31L210,33.4C210,40.6,214.3,49.4,225,49.4z"/>
		<path fill="#FCE7E0" d="M264.1,3v68h-31V3H264.1z"/>
		<path fill="#FCE7E0" d="M270.1,0l49,26V3h28v71.2l-49-26v23h-28V0z"/>
		<path fill="#FCE7E0" d="M352.1,37c0-19.9,16-36,39-36s39,16.1,39,36c0,19.9-16,36-39,36S352.1,56.9,352.1,37z M398.5,37
			c0-4.2-3.2-7.5-7.4-7.5s-7.5,3.3-7.5,7.5c0,4.2,3.3,7.5,7.5,7.5S398.5,41.2,398.5,37z"/>
		<path fill="#FCE7E0" d="M63.2,207.8H33l-4.2,7.2H0l53.4-91.2l53.4,91.2H67.2L63.2,207.8z M54.7,192.2l-6.1-11l-6.5,11H54.7z"/>
		<path fill="#FCE7E0" d="M136.8,175.4v4.1c0,5.3,1.3,13.6,11,13.6c1.1,0,2.2-0.1,3.5-0.4V215c-5.3,1.8-10.9,2.4-16.4,2.4
			c-17.5-0.1-34.1-7.9-34.1-34.3V149l36-18.7V149h14.5v26.4H136.8z"/>
		<path fill="#FCE7E0" d="M190.9,131v84h-36v-84H190.9z"/>
		<path fill="#FCE7E0" d="M270.8,194.6V215c-4.6,1.3-8.5,2.4-15.6,2.4c-12.4,0-19.4-3.4-24-10.3c-3.1,6.1-9.7,10.3-17.4,10.3
			c-11.2,0-18.7-8-18.7-18.2c0-10.1,7.4-18.1,18.7-18.1c3.5,0,6.6,0.8,9.5,2.3c-2.2-8.5-4.3-13-14.5-13c-3.4,0-6.2,0.5-9.1,1.4V149
			c6.2-1.7,13.8-2.4,19.9-2.4c29,0,36.8,16,41.2,36.7c1.4,7.1,2.5,11.8,7.6,11.8C269.2,195.1,269.9,195,270.8,194.6z M226.7,198
			c0-2.4-1.9-4.2-4.2-4.2c-2.4,0-4.2,1.8-4.2,4.2c0,2.5,1.8,4.2,4.2,4.2C224.8,202.2,226.7,200.5,226.7,198z"/>
		<path fill="#FCE7E0" d="M352.9,171.2V215h-36v-32.8c0-3.4-1.4-5-3.8-5c-2.3,0-3.8,1.7-3.8,5V215h-36v-66h26.4l4.4,11
			c5-7.6,13.3-12.2,24.7-12.2C344.5,147.8,352.9,155.8,352.9,171.2z"/>
		<path fill="#FCE7E0" d="M393.7,175.4v4.1c0,5.3,1.3,13.6,11,13.6c1.1,0,2.2-0.1,3.5-0.4V215c-5.3,1.8-10.9,2.4-16.4,2.4
			c-17.5-0.1-34.1-7.9-34.1-34.3V149l36-18.7V149h14.5v26.4H393.7z"/>
		<path fill="#FCE7E0" d="M494.6,149l-47.5,84h-36.4l21.1-35.2L403.4,149h37.2l9.6,18.2l8.4-18.2H494.6z"/>
		<path fill="#FCE7E0" d="M566.9,188.4c1.8,0,3.7-0.4,5.8-1V215c-4.4,1.6-9.5,2.4-14.6,2.4c-15.6,0-25.4-7.9-31-19.7V215h-36v-84h36
			v42.6l18-24.6h28.8l-19.1,26.5C554.8,183.2,559.6,188.4,566.9,188.4z"/>
	</g>
</g>
<g id="Layer_2">
</g>
</svg>
